M48
;GenerationSoftware,Autodesk,EAGLE,9.6.1*%
;CreationDate,2020-09-25T13:30:16Z*%
FMAT,2
ICI,OFF
METRIC,TZ,000.000
T7C0.152
T6C0.200
T5C0.900
T4C0.950
T3C0.991
T2C2.375
T1C2.921
%
G90
M71
T1
X3175Y43815
X34925Y43815
X34925Y3175
X3175Y3175
T2
X2134Y18771
X2134Y15596
X7214Y15596
X7214Y18771
T3
X3659Y13691
X5689Y13691
X4674Y18771
T4
X2489Y37085
X2489Y34085
T5
X2576Y8585
X776Y8585
T6
X33655Y10795
X28575Y10795
X28575Y6985
X28575Y3810
X26035Y3810
X23495Y3810
X20955Y3810
X17780Y3810
X15240Y3810
X9525Y3810
X8255Y1905
X12065Y1905
X15240Y1905
X20955Y1905
X23495Y1905
X26035Y1905
X31115Y635
X36830Y6985
X36474Y11811
X33655Y13970
X31115Y13970
X28575Y13970
X31115Y17145
X33655Y17145
X31115Y20320
X31115Y23495
X31115Y26035
X31115Y28575
X31115Y31750
X31115Y34925
X31115Y38100
X28575Y38100
X28575Y34925
X28575Y31750
X28575Y28575
X28575Y26035
X28575Y23495
X33655Y28575
X33655Y31750
X33655Y34925
X33655Y38100
X36830Y38100
X27940Y45720
X19685Y45720
X15875Y45720
X12065Y45720
X8255Y45720
X15875Y42545
X15875Y38100
X15875Y34925
X15875Y31750
X12700Y31750
X2540Y30480
X1270Y30480
X1270Y35560
X28575Y41275
X19050Y36195
X19050Y33655
X19050Y31115
X16510Y25400
X10160Y25400
X10160Y23495
X8255Y22860
X6985Y22860
X5715Y22860
X3810Y23495
X3810Y24765
X3810Y26035
X3810Y27305
X1905Y26035
X1905Y23495
X6985Y20955
X1270Y20955
X1905Y13335
X7620Y13335
X6477Y7518
X13335Y7620
X13335Y5715
X15240Y10795
X13970Y12065
X26314Y7264
X22200Y11379
X20320Y11989
X18415Y13132
X15240Y13767
X15418Y16053
X14605Y18415
X22123Y18364
X24028Y18517
X21641Y22098
X19050Y26035
X24206Y41859
X26238Y42266
X17602Y41681
X8534Y41631
X17374Y16612
X24943Y12116
X34290Y24765
X21819Y27356
X21107Y27254
X33731Y20676
X20549Y20320
X8712Y35306
X16205Y43256
X20979Y19164
X6934Y3785
X31115Y10795
X31115Y6985
X11850Y17718
X10795Y14605
X4343Y38608
X5715Y35560
X11430Y16739
X20803Y41504
X8060Y41070
X8738Y12446
X6936Y8255
X13970Y37465
X12624Y35738
X7518Y32969
X8052Y34874
X10160Y33299
X26822Y43815
X27153Y43078
X22022Y21107
X3175Y20726
X5080Y10795
X35560Y15240
X33655Y21590
X12090Y28169
X15875Y40640
X4445Y36830
X8400Y38833
X7620Y41910
X4445Y30480
X16129Y40005
X9525Y35738
X6172Y483
X6597Y1016
X9804Y38837
X11430Y44856
X12649Y41427
X9525Y20955
X8560Y31648
X36195Y39370
X18563Y39370
X5461Y33655
X6680Y36525
X9728Y37998
T7
X20752Y34747
X20320Y41453
X20498Y42367
X23012Y23114
X19660Y24384
X20015Y44094
X23444Y24460
X23978Y37414
X21107Y42037
X22454Y24384
X22225Y37211
X22022Y41808
X22327Y22200
X17704Y20574
X15824Y7671
X19685Y18974
X17805Y4775
X19685Y19456
X17805Y5436
X18212Y18923
X18542Y7925
X22809Y16535
X19736Y7620
X23241Y11100
X20701Y7163
X24409Y20676
X26365Y23089
X26645Y21793
X29667Y21793
X24943Y20726
X29312Y20726
X28245Y22123
X23317Y35712
X24308Y19152
X23622Y25324
X27788Y22149
X24892Y27508
X20752Y10744
X25273Y15748
X22149Y10566
X24790Y13208
X23927Y15062
X18161Y7163
X13437Y14681
X8331Y9576
X18161Y1549
X13284Y24028
X12319Y23444
X20447Y13589
X21869Y17882
X8611Y27330
X22149Y16358
X22352Y17882
X13691Y17399
X17221Y38964
X20599Y7747
X14605Y29413
X24867Y18339
X21742Y10236
X26187Y17043
X24460Y16485
X24867Y17882
X4597Y14478
X17983Y42316
X17374Y27127
X17374Y21438
X18491Y42342
X18186Y26340
X19660Y21260
X20803Y17882
X12446Y15189
X22657Y36297
X15011Y12497
X11506Y4166
X16561Y15164
X20142Y17882
X12725Y14808
X20472Y18212
X15926Y18212
X14097Y14834
X12040Y12090
X26695Y19558
X22758Y5105
X27457Y18796
X22047Y5436
X23546Y19050
X22911Y13386
X27178Y15291
X22758Y7493
X24790Y22022
X25603Y11151
X24867Y22479
X28143Y18212
X26187Y19050
X23800Y7823
X24867Y19558
X23241Y8077
X26187Y19558
X24435Y7874
X24943Y20218
X28651Y20218
X22479Y16027
X21869Y4775
X19685Y17882
X18364Y17882
X20930Y16485
X20091Y34315
X21615Y41453
X9550Y18745
X21031Y23139
X21844Y32893
X24130Y19812
X25171Y26695
X25298Y24384
X23165Y44094
X24867Y22987
X25629Y24892
X23266Y41453
X22352Y22657
X22657Y41453
X24790Y24384
X24206Y23063
X24562Y38100
X23520Y23139
X23114Y25451
X23901Y38760
X23038Y17831
X21107Y7417
X23597Y12497
X21514Y7163
X23851Y17882
X26543Y14961
X21539Y23114
X12725Y15570
X18517Y41783
X5537Y16866
X17780Y7976
X19990Y21742
X17450Y7645
X18364Y21463
X12319Y22479
X12878Y29845
X33655Y19914
X33655Y22962
X15824Y26594
X9855Y42316
X11430Y8636
X13894Y16510
X1930Y7772
X14681Y28194
X21209Y34798
X1880Y9398
X24359Y17882
M30