G04 EAGLE Gerber RS-274X export*
G75*
%MOMM*%
%FSLAX34Y34*%
%LPD*%
%INTop Copper*%
%IPPOS*%
%AMOC8*
5,1,8,0,0,1.08239X$1,22.5*%
G01*
%ADD10C,0.130000*%
%ADD11C,0.152400*%
%ADD12R,0.620000X0.620000*%
%ADD13C,1.524000*%
%ADD14R,0.800000X0.800000*%
%ADD15C,0.254000*%
%ADD16R,0.203200X0.812800*%
%ADD17R,0.812800X0.203200*%
%ADD18R,2.590800X2.590800*%
%ADD19R,0.508000X1.270000*%
%ADD20R,2.200000X1.050000*%
%ADD21R,0.800000X1.000000*%
%ADD22R,1.524000X0.762000*%
%ADD23R,0.950000X1.000000*%
%ADD24R,2.540000X1.270000*%
%ADD25R,0.750000X1.400000*%
%ADD26C,0.756400*%
%ADD27C,0.304800*%

G36*
X138000Y10172D02*
X138000Y10172D01*
X138072Y10174D01*
X138121Y10192D01*
X138172Y10200D01*
X138236Y10234D01*
X138303Y10259D01*
X138344Y10291D01*
X138390Y10316D01*
X138439Y10368D01*
X138495Y10412D01*
X138523Y10456D01*
X138559Y10494D01*
X138589Y10559D01*
X138628Y10619D01*
X138641Y10670D01*
X138663Y10717D01*
X138671Y10788D01*
X138688Y10858D01*
X138684Y10910D01*
X138690Y10961D01*
X138675Y11032D01*
X138669Y11103D01*
X138649Y11151D01*
X138638Y11202D01*
X138601Y11263D01*
X138573Y11329D01*
X138528Y11385D01*
X138511Y11413D01*
X138494Y11428D01*
X138468Y11460D01*
X137698Y12230D01*
X133738Y16190D01*
X133722Y16202D01*
X133709Y16218D01*
X133622Y16274D01*
X133538Y16334D01*
X133519Y16340D01*
X133502Y16351D01*
X133402Y16376D01*
X133303Y16406D01*
X133283Y16406D01*
X133264Y16411D01*
X133161Y16403D01*
X133057Y16400D01*
X133038Y16393D01*
X133018Y16391D01*
X132924Y16351D01*
X132826Y16315D01*
X132810Y16303D01*
X132792Y16295D01*
X132661Y16190D01*
X130976Y14505D01*
X126580Y14505D01*
X123471Y17614D01*
X123471Y22010D01*
X126580Y25119D01*
X127544Y25119D01*
X127614Y25130D01*
X127686Y25132D01*
X127735Y25150D01*
X127786Y25158D01*
X127850Y25192D01*
X127917Y25217D01*
X127958Y25249D01*
X128004Y25274D01*
X128053Y25326D01*
X128109Y25370D01*
X128137Y25414D01*
X128173Y25452D01*
X128203Y25517D01*
X128242Y25577D01*
X128255Y25628D01*
X128277Y25675D01*
X128285Y25746D01*
X128302Y25816D01*
X128298Y25868D01*
X128304Y25919D01*
X128289Y25990D01*
X128283Y26061D01*
X128263Y26109D01*
X128252Y26160D01*
X128215Y26221D01*
X128187Y26287D01*
X128142Y26343D01*
X128125Y26371D01*
X128108Y26386D01*
X128082Y26418D01*
X64046Y90454D01*
X62483Y92017D01*
X62483Y121721D01*
X62469Y121811D01*
X62461Y121902D01*
X62449Y121931D01*
X62444Y121963D01*
X62401Y122044D01*
X62365Y122128D01*
X62339Y122160D01*
X62328Y122181D01*
X62305Y122203D01*
X62260Y122259D01*
X59463Y125056D01*
X59463Y129452D01*
X62572Y132561D01*
X66968Y132561D01*
X70077Y129452D01*
X70077Y125440D01*
X70088Y125370D01*
X70090Y125298D01*
X70108Y125249D01*
X70116Y125198D01*
X70150Y125134D01*
X70175Y125067D01*
X70207Y125026D01*
X70232Y124980D01*
X70284Y124931D01*
X70328Y124875D01*
X70372Y124847D01*
X70410Y124811D01*
X70475Y124781D01*
X70535Y124742D01*
X70586Y124729D01*
X70633Y124707D01*
X70704Y124699D01*
X70774Y124682D01*
X70826Y124686D01*
X70877Y124680D01*
X70948Y124695D01*
X71019Y124701D01*
X71067Y124721D01*
X71118Y124732D01*
X71179Y124769D01*
X71245Y124797D01*
X71301Y124842D01*
X71329Y124859D01*
X71344Y124876D01*
X71376Y124902D01*
X127030Y180556D01*
X128593Y182119D01*
X284411Y182119D01*
X313144Y153386D01*
X313218Y153333D01*
X313288Y153273D01*
X313318Y153261D01*
X313344Y153242D01*
X313431Y153215D01*
X313516Y153181D01*
X313557Y153177D01*
X313579Y153170D01*
X313611Y153171D01*
X313683Y153163D01*
X317607Y153163D01*
X317678Y153174D01*
X317750Y153176D01*
X317799Y153194D01*
X317850Y153202D01*
X317913Y153236D01*
X317981Y153261D01*
X318021Y153293D01*
X318068Y153318D01*
X318117Y153370D01*
X318173Y153414D01*
X318201Y153458D01*
X318237Y153496D01*
X318267Y153561D01*
X318306Y153621D01*
X318319Y153672D01*
X318341Y153719D01*
X318348Y153790D01*
X318366Y153860D01*
X318362Y153912D01*
X318368Y153963D01*
X318352Y154034D01*
X318347Y154105D01*
X318326Y154153D01*
X318315Y154204D01*
X318279Y154265D01*
X318250Y154331D01*
X318206Y154387D01*
X318189Y154415D01*
X318171Y154430D01*
X318146Y154462D01*
X314623Y157985D01*
X312619Y162822D01*
X312619Y168058D01*
X314623Y172895D01*
X318325Y176597D01*
X323162Y178601D01*
X328398Y178601D01*
X333235Y176597D01*
X336937Y172895D01*
X338840Y168302D01*
X338864Y168263D01*
X338879Y168220D01*
X338928Y168159D01*
X338969Y168093D01*
X339005Y168064D01*
X339033Y168028D01*
X339099Y167986D01*
X339159Y167936D01*
X339201Y167920D01*
X339240Y167895D01*
X339316Y167876D01*
X339388Y167848D01*
X339434Y167846D01*
X339479Y167835D01*
X339556Y167841D01*
X339634Y167838D01*
X339678Y167850D01*
X339724Y167854D01*
X339795Y167884D01*
X339870Y167906D01*
X339908Y167932D01*
X339950Y167950D01*
X340057Y168036D01*
X340072Y168046D01*
X340075Y168050D01*
X340081Y168055D01*
X340429Y168403D01*
X377375Y168403D01*
X393154Y152624D01*
X393228Y152571D01*
X393298Y152511D01*
X393328Y152499D01*
X393354Y152480D01*
X393441Y152453D01*
X393526Y152419D01*
X393567Y152415D01*
X393589Y152408D01*
X393621Y152409D01*
X393693Y152401D01*
X405646Y152401D01*
X405716Y152412D01*
X405788Y152414D01*
X405837Y152432D01*
X405888Y152440D01*
X405952Y152474D01*
X406019Y152499D01*
X406060Y152531D01*
X406106Y152556D01*
X406155Y152608D01*
X406211Y152652D01*
X406239Y152696D01*
X406275Y152734D01*
X406305Y152799D01*
X406344Y152859D01*
X406357Y152910D01*
X406379Y152957D01*
X406387Y153028D01*
X406404Y153098D01*
X406400Y153150D01*
X406406Y153201D01*
X406391Y153272D01*
X406385Y153343D01*
X406365Y153391D01*
X406354Y153442D01*
X406317Y153503D01*
X406289Y153569D01*
X406244Y153625D01*
X406227Y153653D01*
X406210Y153668D01*
X406184Y153700D01*
X379514Y180370D01*
X379440Y180423D01*
X379370Y180483D01*
X379340Y180495D01*
X379314Y180514D01*
X379227Y180541D01*
X379142Y180575D01*
X379101Y180579D01*
X379079Y180586D01*
X379047Y180585D01*
X378975Y180593D01*
X370586Y180593D01*
X370566Y180590D01*
X370547Y180592D01*
X370445Y180570D01*
X370343Y180554D01*
X370326Y180544D01*
X370306Y180540D01*
X370217Y180487D01*
X370126Y180438D01*
X370112Y180424D01*
X370095Y180414D01*
X370028Y180335D01*
X369956Y180260D01*
X369948Y180242D01*
X369935Y180227D01*
X369896Y180131D01*
X369853Y180037D01*
X369851Y180017D01*
X369843Y179999D01*
X369825Y179832D01*
X369825Y175898D01*
X368932Y175005D01*
X342268Y175005D01*
X341375Y175898D01*
X341375Y189078D01*
X341374Y189088D01*
X341374Y189094D01*
X341373Y189102D01*
X341374Y189117D01*
X341352Y189219D01*
X341336Y189321D01*
X341326Y189338D01*
X341322Y189358D01*
X341269Y189447D01*
X341220Y189538D01*
X341206Y189552D01*
X341196Y189569D01*
X341117Y189636D01*
X341042Y189708D01*
X341024Y189716D01*
X341009Y189729D01*
X340913Y189768D01*
X340819Y189811D01*
X340799Y189813D01*
X340781Y189821D01*
X340614Y189839D01*
X10922Y189839D01*
X10902Y189836D01*
X10883Y189838D01*
X10781Y189816D01*
X10679Y189800D01*
X10662Y189790D01*
X10642Y189786D01*
X10553Y189733D01*
X10462Y189684D01*
X10448Y189670D01*
X10431Y189660D01*
X10364Y189581D01*
X10292Y189506D01*
X10284Y189488D01*
X10271Y189473D01*
X10232Y189377D01*
X10189Y189283D01*
X10187Y189263D01*
X10179Y189245D01*
X10161Y189078D01*
X10161Y10922D01*
X10164Y10902D01*
X10162Y10883D01*
X10184Y10781D01*
X10200Y10679D01*
X10210Y10662D01*
X10214Y10642D01*
X10267Y10553D01*
X10316Y10462D01*
X10330Y10448D01*
X10340Y10431D01*
X10419Y10364D01*
X10494Y10292D01*
X10512Y10284D01*
X10527Y10271D01*
X10623Y10232D01*
X10717Y10189D01*
X10737Y10187D01*
X10755Y10179D01*
X10922Y10161D01*
X137930Y10161D01*
X138000Y10172D01*
G37*
G36*
X118482Y56619D02*
X118482Y56619D01*
X118534Y56621D01*
X118602Y56645D01*
X118672Y56660D01*
X118717Y56687D01*
X118765Y56705D01*
X118821Y56750D01*
X118883Y56787D01*
X118917Y56826D01*
X118957Y56859D01*
X118996Y56919D01*
X119043Y56974D01*
X119062Y57022D01*
X119090Y57066D01*
X119108Y57135D01*
X119135Y57202D01*
X119143Y57273D01*
X119151Y57304D01*
X119149Y57328D01*
X119153Y57368D01*
X119153Y58078D01*
X122262Y61187D01*
X126012Y61187D01*
X126032Y61190D01*
X126051Y61188D01*
X126153Y61210D01*
X126255Y61226D01*
X126272Y61236D01*
X126292Y61240D01*
X126381Y61293D01*
X126472Y61342D01*
X126486Y61356D01*
X126503Y61366D01*
X126570Y61445D01*
X126642Y61520D01*
X126650Y61538D01*
X126663Y61553D01*
X126702Y61649D01*
X126745Y61743D01*
X126747Y61763D01*
X126755Y61781D01*
X126773Y61948D01*
X126773Y65052D01*
X126770Y65072D01*
X126772Y65091D01*
X126750Y65193D01*
X126734Y65295D01*
X126724Y65312D01*
X126720Y65332D01*
X126667Y65421D01*
X126618Y65512D01*
X126604Y65526D01*
X126594Y65543D01*
X126515Y65610D01*
X126440Y65682D01*
X126422Y65690D01*
X126407Y65703D01*
X126311Y65742D01*
X126217Y65785D01*
X126197Y65787D01*
X126179Y65795D01*
X126012Y65813D01*
X122262Y65813D01*
X119153Y68922D01*
X119153Y73318D01*
X122262Y76427D01*
X126012Y76427D01*
X126032Y76430D01*
X126051Y76428D01*
X126153Y76450D01*
X126255Y76466D01*
X126272Y76476D01*
X126292Y76480D01*
X126381Y76533D01*
X126472Y76582D01*
X126486Y76596D01*
X126503Y76606D01*
X126570Y76685D01*
X126642Y76760D01*
X126650Y76778D01*
X126663Y76793D01*
X126702Y76889D01*
X126745Y76983D01*
X126747Y77003D01*
X126755Y77021D01*
X126773Y77188D01*
X126773Y77752D01*
X126770Y77772D01*
X126772Y77791D01*
X126750Y77893D01*
X126734Y77995D01*
X126724Y78012D01*
X126720Y78032D01*
X126667Y78121D01*
X126618Y78212D01*
X126604Y78226D01*
X126594Y78243D01*
X126515Y78310D01*
X126440Y78382D01*
X126422Y78390D01*
X126407Y78403D01*
X126311Y78442D01*
X126217Y78485D01*
X126197Y78487D01*
X126179Y78495D01*
X126012Y78513D01*
X122262Y78513D01*
X119153Y81622D01*
X119153Y86018D01*
X122262Y89127D01*
X126012Y89127D01*
X126032Y89130D01*
X126051Y89128D01*
X126153Y89150D01*
X126255Y89166D01*
X126272Y89176D01*
X126292Y89180D01*
X126381Y89233D01*
X126472Y89282D01*
X126486Y89296D01*
X126503Y89306D01*
X126570Y89385D01*
X126642Y89460D01*
X126650Y89478D01*
X126663Y89493D01*
X126702Y89589D01*
X126745Y89683D01*
X126747Y89703D01*
X126755Y89721D01*
X126773Y89888D01*
X126773Y93638D01*
X129882Y96747D01*
X134278Y96747D01*
X137387Y93638D01*
X137387Y91948D01*
X137390Y91928D01*
X137388Y91909D01*
X137410Y91807D01*
X137426Y91705D01*
X137436Y91688D01*
X137440Y91668D01*
X137493Y91579D01*
X137542Y91488D01*
X137556Y91474D01*
X137566Y91457D01*
X137645Y91390D01*
X137720Y91318D01*
X137738Y91310D01*
X137753Y91297D01*
X137849Y91258D01*
X137943Y91215D01*
X137963Y91213D01*
X137981Y91205D01*
X138148Y91187D01*
X143695Y91187D01*
X145758Y89124D01*
X145832Y89071D01*
X145902Y89011D01*
X145932Y88999D01*
X145958Y88980D01*
X146045Y88953D01*
X146130Y88919D01*
X146171Y88915D01*
X146193Y88908D01*
X146225Y88909D01*
X146297Y88901D01*
X149098Y88901D01*
X149118Y88904D01*
X149137Y88902D01*
X149239Y88924D01*
X149341Y88940D01*
X149358Y88950D01*
X149378Y88954D01*
X149467Y89007D01*
X149558Y89056D01*
X149572Y89070D01*
X149589Y89080D01*
X149656Y89159D01*
X149728Y89234D01*
X149736Y89252D01*
X149749Y89267D01*
X149788Y89363D01*
X149831Y89457D01*
X149833Y89477D01*
X149841Y89495D01*
X149859Y89662D01*
X149859Y91955D01*
X149845Y92046D01*
X149837Y92136D01*
X149825Y92166D01*
X149820Y92198D01*
X149777Y92279D01*
X149741Y92363D01*
X149715Y92395D01*
X149704Y92416D01*
X149681Y92438D01*
X149636Y92494D01*
X140207Y101923D01*
X140207Y105973D01*
X140193Y106063D01*
X140185Y106154D01*
X140173Y106183D01*
X140168Y106215D01*
X140125Y106296D01*
X140089Y106380D01*
X140063Y106412D01*
X140052Y106433D01*
X140029Y106455D01*
X139984Y106511D01*
X137753Y108742D01*
X137679Y108795D01*
X137609Y108855D01*
X137579Y108867D01*
X137553Y108886D01*
X137466Y108913D01*
X137381Y108947D01*
X137340Y108951D01*
X137318Y108958D01*
X137286Y108957D01*
X137215Y108965D01*
X130528Y108965D01*
X130508Y108962D01*
X130489Y108964D01*
X130387Y108942D01*
X130285Y108926D01*
X130268Y108916D01*
X130248Y108912D01*
X130159Y108859D01*
X130068Y108810D01*
X130054Y108796D01*
X130037Y108786D01*
X129970Y108707D01*
X129898Y108632D01*
X129890Y108614D01*
X129877Y108599D01*
X129838Y108503D01*
X129795Y108409D01*
X129793Y108389D01*
X129785Y108371D01*
X129767Y108204D01*
X129767Y104482D01*
X126658Y101373D01*
X122262Y101373D01*
X119465Y104170D01*
X119391Y104223D01*
X119321Y104283D01*
X119291Y104295D01*
X119265Y104314D01*
X119178Y104341D01*
X119093Y104375D01*
X119052Y104379D01*
X119030Y104386D01*
X118998Y104385D01*
X118927Y104393D01*
X117523Y104393D01*
X117433Y104379D01*
X117342Y104371D01*
X117312Y104359D01*
X117280Y104354D01*
X117199Y104311D01*
X117115Y104275D01*
X117083Y104249D01*
X117062Y104238D01*
X117040Y104215D01*
X116984Y104170D01*
X116028Y103214D01*
X115975Y103140D01*
X115915Y103070D01*
X115903Y103040D01*
X115884Y103014D01*
X115857Y102927D01*
X115823Y102842D01*
X115819Y102801D01*
X115812Y102779D01*
X115813Y102747D01*
X115805Y102676D01*
X115805Y97868D01*
X114912Y96975D01*
X107664Y96975D01*
X107574Y96961D01*
X107483Y96953D01*
X107453Y96941D01*
X107421Y96936D01*
X107340Y96893D01*
X107256Y96857D01*
X107224Y96831D01*
X107204Y96820D01*
X107181Y96797D01*
X107125Y96752D01*
X106840Y96467D01*
X106261Y96132D01*
X105614Y95959D01*
X103703Y95959D01*
X103703Y100838D01*
X103700Y100858D01*
X103702Y100877D01*
X103680Y100979D01*
X103663Y101081D01*
X103654Y101098D01*
X103650Y101118D01*
X103597Y101207D01*
X103548Y101298D01*
X103534Y101312D01*
X103524Y101329D01*
X103445Y101396D01*
X103370Y101467D01*
X103352Y101476D01*
X103337Y101489D01*
X103241Y101528D01*
X103147Y101571D01*
X103127Y101573D01*
X103109Y101581D01*
X102942Y101599D01*
X102179Y101599D01*
X102179Y101601D01*
X102942Y101601D01*
X102962Y101604D01*
X102981Y101602D01*
X103083Y101624D01*
X103185Y101641D01*
X103202Y101650D01*
X103222Y101654D01*
X103311Y101707D01*
X103402Y101756D01*
X103416Y101770D01*
X103433Y101780D01*
X103500Y101859D01*
X103571Y101934D01*
X103580Y101952D01*
X103593Y101967D01*
X103632Y102063D01*
X103675Y102157D01*
X103677Y102177D01*
X103685Y102195D01*
X103703Y102362D01*
X103703Y113538D01*
X103700Y113558D01*
X103702Y113577D01*
X103680Y113679D01*
X103663Y113781D01*
X103654Y113798D01*
X103650Y113818D01*
X103597Y113907D01*
X103548Y113998D01*
X103534Y114012D01*
X103524Y114029D01*
X103445Y114096D01*
X103370Y114167D01*
X103352Y114176D01*
X103337Y114189D01*
X103241Y114228D01*
X103147Y114271D01*
X103127Y114273D01*
X103109Y114281D01*
X102942Y114299D01*
X102179Y114299D01*
X102179Y114301D01*
X102942Y114301D01*
X102962Y114304D01*
X102981Y114302D01*
X103083Y114324D01*
X103185Y114341D01*
X103202Y114350D01*
X103222Y114354D01*
X103311Y114407D01*
X103402Y114456D01*
X103416Y114470D01*
X103433Y114480D01*
X103500Y114559D01*
X103571Y114634D01*
X103580Y114652D01*
X103593Y114667D01*
X103632Y114763D01*
X103675Y114857D01*
X103677Y114877D01*
X103685Y114895D01*
X103703Y115062D01*
X103703Y119941D01*
X105614Y119941D01*
X106261Y119768D01*
X106840Y119433D01*
X107125Y119148D01*
X107199Y119095D01*
X107269Y119035D01*
X107299Y119023D01*
X107325Y119004D01*
X107412Y118977D01*
X107497Y118943D01*
X107538Y118939D01*
X107560Y118932D01*
X107592Y118933D01*
X107664Y118925D01*
X114912Y118925D01*
X115805Y118032D01*
X115805Y117348D01*
X115808Y117328D01*
X115806Y117309D01*
X115828Y117207D01*
X115844Y117105D01*
X115854Y117088D01*
X115858Y117068D01*
X115911Y116979D01*
X115960Y116888D01*
X115974Y116874D01*
X115984Y116857D01*
X116063Y116790D01*
X116138Y116718D01*
X116156Y116710D01*
X116171Y116697D01*
X116267Y116658D01*
X116361Y116615D01*
X116381Y116613D01*
X116399Y116605D01*
X116566Y116587D01*
X134936Y116587D01*
X135026Y116601D01*
X135117Y116609D01*
X135147Y116621D01*
X135179Y116626D01*
X135259Y116669D01*
X135343Y116705D01*
X135376Y116731D01*
X135396Y116742D01*
X135418Y116765D01*
X135474Y116810D01*
X135955Y117290D01*
X135967Y117307D01*
X135982Y117319D01*
X136038Y117406D01*
X136099Y117490D01*
X136104Y117509D01*
X136115Y117526D01*
X136141Y117626D01*
X136171Y117725D01*
X136170Y117745D01*
X136175Y117765D01*
X136167Y117867D01*
X136165Y117971D01*
X136158Y117990D01*
X136156Y118010D01*
X136116Y118105D01*
X136080Y118202D01*
X136068Y118218D01*
X136060Y118236D01*
X135955Y118367D01*
X134873Y119449D01*
X134873Y122794D01*
X134870Y122814D01*
X134872Y122833D01*
X134850Y122935D01*
X134834Y123037D01*
X134824Y123054D01*
X134820Y123074D01*
X134767Y123163D01*
X134718Y123254D01*
X134704Y123268D01*
X134694Y123285D01*
X134615Y123352D01*
X134540Y123424D01*
X134522Y123432D01*
X134507Y123445D01*
X134411Y123484D01*
X134317Y123527D01*
X134297Y123529D01*
X134279Y123537D01*
X134112Y123555D01*
X132458Y123555D01*
X131565Y124448D01*
X131565Y139712D01*
X132458Y140605D01*
X141222Y140605D01*
X142115Y139712D01*
X142115Y124448D01*
X141222Y123555D01*
X140208Y123555D01*
X140188Y123552D01*
X140169Y123554D01*
X140067Y123532D01*
X139965Y123516D01*
X139948Y123506D01*
X139928Y123502D01*
X139839Y123449D01*
X139748Y123400D01*
X139734Y123386D01*
X139717Y123376D01*
X139650Y123297D01*
X139578Y123222D01*
X139570Y123204D01*
X139557Y123189D01*
X139518Y123093D01*
X139475Y122999D01*
X139473Y122979D01*
X139465Y122961D01*
X139447Y122794D01*
X139447Y121659D01*
X139461Y121569D01*
X139469Y121478D01*
X139481Y121448D01*
X139486Y121416D01*
X139529Y121335D01*
X139565Y121251D01*
X139591Y121219D01*
X139602Y121198D01*
X139625Y121176D01*
X139670Y121120D01*
X140174Y120616D01*
X140190Y120604D01*
X140454Y120339D01*
X140529Y120285D01*
X140599Y120225D01*
X140628Y120213D01*
X140653Y120195D01*
X140741Y120168D01*
X140827Y120133D01*
X140867Y120129D01*
X140888Y120122D01*
X140921Y120123D01*
X140994Y120115D01*
X145701Y120115D01*
X150595Y115221D01*
X150595Y110208D01*
X150598Y110188D01*
X150596Y110169D01*
X150618Y110067D01*
X150634Y109965D01*
X150644Y109948D01*
X150648Y109928D01*
X150701Y109839D01*
X150750Y109748D01*
X150764Y109734D01*
X150774Y109717D01*
X150853Y109650D01*
X150928Y109578D01*
X150946Y109570D01*
X150961Y109557D01*
X151057Y109518D01*
X151151Y109475D01*
X151171Y109473D01*
X151189Y109465D01*
X151356Y109447D01*
X152058Y109447D01*
X155167Y106338D01*
X155167Y102870D01*
X155170Y102850D01*
X155168Y102831D01*
X155190Y102729D01*
X155206Y102627D01*
X155216Y102610D01*
X155220Y102590D01*
X155273Y102501D01*
X155322Y102410D01*
X155336Y102396D01*
X155346Y102379D01*
X155425Y102312D01*
X155500Y102240D01*
X155503Y102239D01*
X156462Y101280D01*
X156520Y101238D01*
X156572Y101189D01*
X156619Y101167D01*
X156661Y101137D01*
X156730Y101116D01*
X156795Y101085D01*
X156847Y101080D01*
X156897Y101064D01*
X156968Y101066D01*
X157039Y101058D01*
X157090Y101069D01*
X157142Y101071D01*
X157210Y101095D01*
X157280Y101110D01*
X157325Y101137D01*
X157373Y101155D01*
X157429Y101200D01*
X157491Y101237D01*
X157525Y101276D01*
X157565Y101309D01*
X157604Y101369D01*
X157651Y101424D01*
X157670Y101472D01*
X157698Y101516D01*
X157716Y101585D01*
X157743Y101652D01*
X157751Y101723D01*
X157759Y101754D01*
X157757Y101778D01*
X157761Y101818D01*
X157761Y108282D01*
X157777Y108304D01*
X157783Y108323D01*
X157794Y108340D01*
X157819Y108440D01*
X157850Y108539D01*
X157849Y108559D01*
X157854Y108579D01*
X157846Y108682D01*
X157844Y108785D01*
X157837Y108804D01*
X157835Y108824D01*
X157795Y108919D01*
X157759Y109016D01*
X157747Y109032D01*
X157739Y109050D01*
X157634Y109181D01*
X157253Y109562D01*
X157253Y113958D01*
X159288Y115993D01*
X159341Y116067D01*
X159401Y116137D01*
X159413Y116167D01*
X159432Y116193D01*
X159459Y116280D01*
X159493Y116365D01*
X159497Y116406D01*
X159504Y116428D01*
X159503Y116460D01*
X159511Y116531D01*
X159511Y116871D01*
X159497Y116961D01*
X159489Y117052D01*
X159477Y117082D01*
X159472Y117114D01*
X159429Y117195D01*
X159393Y117279D01*
X159367Y117311D01*
X159356Y117331D01*
X159333Y117354D01*
X159288Y117410D01*
X155323Y121375D01*
X155323Y121614D01*
X155320Y121634D01*
X155322Y121653D01*
X155300Y121755D01*
X155284Y121857D01*
X155274Y121874D01*
X155270Y121894D01*
X155217Y121983D01*
X155168Y122074D01*
X155154Y122088D01*
X155144Y122105D01*
X155065Y122172D01*
X154990Y122244D01*
X154972Y122252D01*
X154957Y122265D01*
X154861Y122304D01*
X154767Y122347D01*
X154747Y122349D01*
X154729Y122357D01*
X154562Y122375D01*
X151788Y122375D01*
X150895Y123268D01*
X150895Y130732D01*
X151801Y131637D01*
X151851Y131648D01*
X151953Y131664D01*
X151970Y131674D01*
X151990Y131678D01*
X152079Y131731D01*
X152170Y131780D01*
X152184Y131794D01*
X152201Y131804D01*
X152268Y131883D01*
X152340Y131958D01*
X152348Y131976D01*
X152361Y131991D01*
X152400Y132087D01*
X152443Y132181D01*
X152445Y132201D01*
X152453Y132219D01*
X152471Y132386D01*
X152471Y134314D01*
X152468Y134334D01*
X152470Y134353D01*
X152448Y134455D01*
X152432Y134557D01*
X152422Y134574D01*
X152418Y134594D01*
X152365Y134683D01*
X152316Y134774D01*
X152302Y134788D01*
X152292Y134805D01*
X152213Y134872D01*
X152138Y134944D01*
X152120Y134952D01*
X152105Y134965D01*
X152009Y135004D01*
X151915Y135047D01*
X151895Y135049D01*
X151877Y135057D01*
X151798Y135065D01*
X150895Y135968D01*
X150895Y143432D01*
X151788Y144325D01*
X159036Y144325D01*
X159126Y144339D01*
X159217Y144347D01*
X159247Y144359D01*
X159279Y144364D01*
X159360Y144407D01*
X159444Y144443D01*
X159476Y144469D01*
X159496Y144480D01*
X159519Y144503D01*
X159575Y144548D01*
X159860Y144833D01*
X160439Y145168D01*
X161086Y145341D01*
X162997Y145341D01*
X162997Y140462D01*
X163000Y140442D01*
X162998Y140423D01*
X163020Y140321D01*
X163037Y140219D01*
X163046Y140202D01*
X163050Y140182D01*
X163103Y140093D01*
X163152Y140002D01*
X163166Y139988D01*
X163176Y139971D01*
X163255Y139904D01*
X163330Y139833D01*
X163348Y139824D01*
X163363Y139811D01*
X163459Y139772D01*
X163553Y139729D01*
X163573Y139727D01*
X163591Y139719D01*
X163758Y139701D01*
X164521Y139701D01*
X164521Y139699D01*
X163758Y139699D01*
X163738Y139696D01*
X163719Y139698D01*
X163617Y139676D01*
X163515Y139659D01*
X163498Y139650D01*
X163478Y139646D01*
X163389Y139593D01*
X163298Y139544D01*
X163284Y139530D01*
X163267Y139520D01*
X163200Y139441D01*
X163129Y139366D01*
X163120Y139348D01*
X163107Y139333D01*
X163068Y139237D01*
X163025Y139143D01*
X163023Y139123D01*
X163015Y139105D01*
X162997Y138938D01*
X162997Y127762D01*
X163000Y127742D01*
X162998Y127723D01*
X163020Y127621D01*
X163037Y127519D01*
X163046Y127502D01*
X163050Y127482D01*
X163103Y127393D01*
X163152Y127302D01*
X163166Y127288D01*
X163176Y127271D01*
X163255Y127204D01*
X163330Y127133D01*
X163348Y127124D01*
X163363Y127111D01*
X163459Y127072D01*
X163553Y127029D01*
X163573Y127027D01*
X163591Y127019D01*
X163758Y127001D01*
X164521Y127001D01*
X164521Y126238D01*
X164524Y126218D01*
X164522Y126199D01*
X164544Y126097D01*
X164561Y125995D01*
X164570Y125978D01*
X164574Y125958D01*
X164627Y125869D01*
X164676Y125778D01*
X164690Y125764D01*
X164700Y125747D01*
X164779Y125680D01*
X164854Y125609D01*
X164872Y125600D01*
X164887Y125587D01*
X164983Y125548D01*
X165077Y125505D01*
X165097Y125503D01*
X165115Y125495D01*
X165282Y125477D01*
X170161Y125477D01*
X170161Y123565D01*
X169988Y122919D01*
X169653Y122340D01*
X169180Y121867D01*
X168601Y121532D01*
X167954Y121359D01*
X165800Y121359D01*
X165729Y121348D01*
X165657Y121346D01*
X165608Y121328D01*
X165557Y121320D01*
X165494Y121286D01*
X165426Y121261D01*
X165385Y121229D01*
X165339Y121204D01*
X165290Y121152D01*
X165234Y121108D01*
X165206Y121064D01*
X165170Y121026D01*
X165140Y120961D01*
X165101Y120901D01*
X165088Y120850D01*
X165066Y120803D01*
X165059Y120732D01*
X165041Y120662D01*
X165045Y120610D01*
X165039Y120559D01*
X165055Y120488D01*
X165060Y120417D01*
X165081Y120369D01*
X165092Y120318D01*
X165128Y120257D01*
X165157Y120191D01*
X165201Y120135D01*
X165218Y120107D01*
X165236Y120092D01*
X165261Y120060D01*
X165609Y119712D01*
X165609Y116531D01*
X165623Y116441D01*
X165631Y116350D01*
X165643Y116321D01*
X165648Y116289D01*
X165691Y116208D01*
X165727Y116124D01*
X165753Y116092D01*
X165764Y116071D01*
X165787Y116049D01*
X165832Y115993D01*
X167867Y113958D01*
X167867Y109562D01*
X164734Y106429D01*
X164710Y106419D01*
X164678Y106414D01*
X164598Y106371D01*
X164514Y106335D01*
X164482Y106309D01*
X164461Y106298D01*
X164439Y106275D01*
X164383Y106230D01*
X164082Y105929D01*
X164029Y105855D01*
X163969Y105786D01*
X163957Y105756D01*
X163938Y105729D01*
X163911Y105642D01*
X163877Y105558D01*
X163873Y105517D01*
X163866Y105494D01*
X163867Y105462D01*
X163859Y105391D01*
X163859Y102889D01*
X163873Y102799D01*
X163881Y102708D01*
X163893Y102678D01*
X163898Y102646D01*
X163941Y102566D01*
X163977Y102482D01*
X164003Y102450D01*
X164014Y102429D01*
X164037Y102407D01*
X164082Y102351D01*
X165609Y100824D01*
X165609Y100711D01*
X165612Y100691D01*
X165610Y100672D01*
X165632Y100570D01*
X165648Y100468D01*
X165658Y100451D01*
X165662Y100431D01*
X165715Y100342D01*
X165764Y100251D01*
X165778Y100237D01*
X165788Y100220D01*
X165867Y100153D01*
X165942Y100081D01*
X165960Y100073D01*
X165975Y100060D01*
X166071Y100021D01*
X166165Y99978D01*
X166185Y99976D01*
X166203Y99968D01*
X166370Y99950D01*
X166879Y99950D01*
X166879Y93345D01*
X166882Y93326D01*
X166880Y93306D01*
X166902Y93205D01*
X166918Y93103D01*
X166928Y93085D01*
X166932Y93066D01*
X166985Y92976D01*
X167033Y92885D01*
X167048Y92872D01*
X167058Y92854D01*
X167137Y92787D01*
X167212Y92716D01*
X167230Y92707D01*
X167245Y92694D01*
X167341Y92656D01*
X167435Y92612D01*
X167455Y92610D01*
X167473Y92603D01*
X167640Y92584D01*
X167660Y92587D01*
X167679Y92585D01*
X167680Y92585D01*
X167781Y92607D01*
X167883Y92624D01*
X167900Y92633D01*
X167920Y92637D01*
X168009Y92691D01*
X168100Y92739D01*
X168114Y92753D01*
X168131Y92764D01*
X168198Y92842D01*
X168270Y92917D01*
X168278Y92935D01*
X168291Y92950D01*
X168330Y93047D01*
X168373Y93140D01*
X168375Y93160D01*
X168383Y93179D01*
X168401Y93345D01*
X168401Y99950D01*
X168991Y99950D01*
X169637Y99777D01*
X170216Y99442D01*
X170393Y99265D01*
X170409Y99254D01*
X170421Y99238D01*
X170509Y99182D01*
X170593Y99122D01*
X170612Y99116D01*
X170628Y99105D01*
X170729Y99080D01*
X170828Y99049D01*
X170848Y99050D01*
X170867Y99045D01*
X170970Y99053D01*
X171074Y99056D01*
X171092Y99063D01*
X171112Y99064D01*
X171207Y99105D01*
X171305Y99140D01*
X171320Y99153D01*
X171338Y99161D01*
X171469Y99265D01*
X177322Y105118D01*
X177375Y105192D01*
X177435Y105262D01*
X177447Y105292D01*
X177466Y105318D01*
X177493Y105405D01*
X177527Y105490D01*
X177531Y105531D01*
X177538Y105553D01*
X177537Y105585D01*
X177545Y105657D01*
X177545Y106735D01*
X177531Y106825D01*
X177523Y106916D01*
X177511Y106945D01*
X177506Y106977D01*
X177463Y107058D01*
X177427Y107142D01*
X177401Y107174D01*
X177390Y107195D01*
X177367Y107217D01*
X177322Y107273D01*
X175033Y109562D01*
X175033Y113958D01*
X178142Y117067D01*
X182538Y117067D01*
X185647Y113958D01*
X185647Y110208D01*
X185650Y110188D01*
X185648Y110169D01*
X185670Y110067D01*
X185686Y109965D01*
X185696Y109948D01*
X185700Y109928D01*
X185753Y109839D01*
X185802Y109748D01*
X185816Y109734D01*
X185826Y109717D01*
X185905Y109650D01*
X185980Y109578D01*
X185998Y109570D01*
X186013Y109557D01*
X186109Y109518D01*
X186203Y109475D01*
X186223Y109473D01*
X186241Y109465D01*
X186408Y109447D01*
X190158Y109447D01*
X193267Y106338D01*
X193267Y101942D01*
X190158Y98833D01*
X186203Y98833D01*
X186112Y98819D01*
X186022Y98811D01*
X185992Y98799D01*
X185960Y98794D01*
X185879Y98751D01*
X185795Y98715D01*
X185763Y98689D01*
X185742Y98678D01*
X185720Y98655D01*
X185664Y98610D01*
X180564Y93510D01*
X180511Y93436D01*
X180451Y93366D01*
X180439Y93336D01*
X180420Y93310D01*
X180393Y93223D01*
X180359Y93138D01*
X180355Y93097D01*
X180348Y93075D01*
X180349Y93043D01*
X180341Y92972D01*
X180341Y89662D01*
X180344Y89642D01*
X180342Y89623D01*
X180364Y89521D01*
X180380Y89419D01*
X180390Y89402D01*
X180394Y89382D01*
X180447Y89293D01*
X180496Y89202D01*
X180510Y89188D01*
X180520Y89171D01*
X180599Y89104D01*
X180674Y89032D01*
X180692Y89024D01*
X180707Y89011D01*
X180803Y88972D01*
X180897Y88929D01*
X180917Y88927D01*
X180935Y88919D01*
X181102Y88901D01*
X183452Y88901D01*
X183473Y88904D01*
X183495Y88902D01*
X183594Y88924D01*
X183694Y88940D01*
X183714Y88951D01*
X183735Y88956D01*
X183774Y88979D01*
X183837Y88988D01*
X183873Y88999D01*
X183910Y89002D01*
X183989Y89036D01*
X184071Y89062D01*
X184102Y89084D01*
X184136Y89099D01*
X184267Y89203D01*
X188791Y93727D01*
X192587Y93727D01*
X192677Y93741D01*
X192768Y93749D01*
X192797Y93761D01*
X192829Y93766D01*
X192910Y93809D01*
X192994Y93845D01*
X193026Y93871D01*
X193047Y93882D01*
X193069Y93905D01*
X193125Y93950D01*
X195922Y96747D01*
X200318Y96747D01*
X203427Y93638D01*
X203427Y89888D01*
X203430Y89868D01*
X203428Y89849D01*
X203450Y89747D01*
X203466Y89645D01*
X203476Y89628D01*
X203480Y89608D01*
X203533Y89519D01*
X203582Y89428D01*
X203596Y89414D01*
X203606Y89397D01*
X203685Y89330D01*
X203760Y89258D01*
X203778Y89250D01*
X203793Y89237D01*
X203889Y89198D01*
X203983Y89155D01*
X204003Y89153D01*
X204021Y89145D01*
X204188Y89127D01*
X207497Y89127D01*
X207588Y89141D01*
X207678Y89149D01*
X207708Y89161D01*
X207740Y89166D01*
X207821Y89209D01*
X207905Y89245D01*
X207937Y89271D01*
X207958Y89282D01*
X207980Y89305D01*
X208036Y89350D01*
X211651Y92965D01*
X298650Y92965D01*
X298721Y92976D01*
X298792Y92978D01*
X298841Y92996D01*
X298893Y93004D01*
X298956Y93038D01*
X299023Y93063D01*
X299064Y93095D01*
X299110Y93120D01*
X299159Y93172D01*
X299215Y93216D01*
X299244Y93260D01*
X299279Y93298D01*
X299310Y93363D01*
X299348Y93423D01*
X299361Y93474D01*
X299383Y93521D01*
X299391Y93592D01*
X299408Y93662D01*
X299404Y93714D01*
X299410Y93765D01*
X299395Y93836D01*
X299389Y93907D01*
X299369Y93955D01*
X299358Y94006D01*
X299321Y94067D01*
X299293Y94133D01*
X299248Y94189D01*
X299232Y94217D01*
X299214Y94232D01*
X299188Y94264D01*
X248134Y145318D01*
X248060Y145371D01*
X247991Y145431D01*
X247961Y145443D01*
X247934Y145462D01*
X247847Y145489D01*
X247763Y145523D01*
X247722Y145527D01*
X247699Y145534D01*
X247667Y145533D01*
X247596Y145541D01*
X206001Y145541D01*
X201168Y150374D01*
X201094Y150427D01*
X201025Y150487D01*
X200995Y150499D01*
X200968Y150518D01*
X200881Y150545D01*
X200797Y150579D01*
X200756Y150583D01*
X200733Y150590D01*
X200701Y150589D01*
X200630Y150597D01*
X198562Y150597D01*
X197657Y151503D01*
X197646Y151553D01*
X197630Y151655D01*
X197620Y151672D01*
X197616Y151692D01*
X197563Y151781D01*
X197514Y151872D01*
X197500Y151886D01*
X197490Y151903D01*
X197411Y151970D01*
X197336Y152042D01*
X197318Y152050D01*
X197303Y152063D01*
X197207Y152102D01*
X197113Y152145D01*
X197093Y152147D01*
X197075Y152155D01*
X196908Y152173D01*
X182289Y152173D01*
X182219Y152162D01*
X182147Y152160D01*
X182098Y152142D01*
X182047Y152134D01*
X181983Y152100D01*
X181916Y152075D01*
X181875Y152043D01*
X181829Y152018D01*
X181780Y151966D01*
X181724Y151922D01*
X181696Y151878D01*
X181660Y151840D01*
X181630Y151775D01*
X181591Y151715D01*
X181578Y151664D01*
X181556Y151617D01*
X181548Y151546D01*
X181531Y151476D01*
X181535Y151424D01*
X181529Y151373D01*
X181544Y151302D01*
X181550Y151231D01*
X181570Y151183D01*
X181581Y151132D01*
X181618Y151071D01*
X181646Y151005D01*
X181691Y150949D01*
X181708Y150921D01*
X181725Y150906D01*
X181751Y150874D01*
X183107Y149518D01*
X183107Y145122D01*
X179998Y142013D01*
X175602Y142013D01*
X172493Y145122D01*
X172493Y149077D01*
X172479Y149168D01*
X172471Y149258D01*
X172459Y149288D01*
X172454Y149320D01*
X172411Y149401D01*
X172375Y149485D01*
X172349Y149517D01*
X172338Y149538D01*
X172315Y149560D01*
X172270Y149616D01*
X166076Y155810D01*
X166002Y155863D01*
X165932Y155923D01*
X165902Y155935D01*
X165876Y155954D01*
X165789Y155981D01*
X165704Y156015D01*
X165663Y156019D01*
X165641Y156026D01*
X165609Y156025D01*
X165537Y156033D01*
X161392Y156033D01*
X161298Y156018D01*
X161203Y156009D01*
X161177Y155998D01*
X161150Y155994D01*
X161065Y155949D01*
X160978Y155911D01*
X160957Y155892D01*
X160932Y155878D01*
X160867Y155809D01*
X160796Y155745D01*
X160782Y155721D01*
X160763Y155700D01*
X160723Y155614D01*
X160676Y155530D01*
X160671Y155503D01*
X160659Y155477D01*
X160649Y155382D01*
X160631Y155288D01*
X160635Y155261D01*
X160632Y155233D01*
X160652Y155139D01*
X160666Y155045D01*
X160680Y155013D01*
X160684Y154992D01*
X160701Y154964D01*
X160733Y154891D01*
X160791Y154791D01*
X160981Y154081D01*
X157240Y154081D01*
X157221Y154078D01*
X157201Y154080D01*
X157100Y154058D01*
X156998Y154042D01*
X156980Y154032D01*
X156961Y154028D01*
X156871Y153975D01*
X156780Y153927D01*
X156780Y153926D01*
X156766Y153912D01*
X156749Y153902D01*
X156749Y153901D01*
X156682Y153823D01*
X156610Y153748D01*
X156602Y153730D01*
X156589Y153715D01*
X156550Y153618D01*
X156507Y153525D01*
X156505Y153505D01*
X156497Y153486D01*
X156479Y153320D01*
X156479Y149579D01*
X155769Y149769D01*
X154900Y150271D01*
X154739Y150431D01*
X154723Y150443D01*
X154711Y150459D01*
X154623Y150515D01*
X154540Y150575D01*
X154521Y150581D01*
X154504Y150592D01*
X154404Y150617D01*
X154305Y150647D01*
X154285Y150647D01*
X154265Y150652D01*
X154162Y150644D01*
X154059Y150641D01*
X154040Y150634D01*
X154020Y150632D01*
X153925Y150592D01*
X153828Y150556D01*
X153812Y150544D01*
X153794Y150536D01*
X153663Y150431D01*
X153503Y150271D01*
X124418Y150271D01*
X124328Y150257D01*
X124237Y150249D01*
X124207Y150237D01*
X124175Y150232D01*
X124095Y150189D01*
X124011Y150153D01*
X123979Y150127D01*
X123958Y150116D01*
X123936Y150093D01*
X123880Y150048D01*
X94684Y120852D01*
X94631Y120778D01*
X94571Y120709D01*
X94559Y120679D01*
X94540Y120652D01*
X94513Y120565D01*
X94479Y120481D01*
X94475Y120440D01*
X94468Y120417D01*
X94469Y120385D01*
X94461Y120314D01*
X94461Y118960D01*
X91352Y115851D01*
X86956Y115851D01*
X83847Y118960D01*
X83847Y119924D01*
X83836Y119994D01*
X83834Y120066D01*
X83816Y120115D01*
X83808Y120166D01*
X83774Y120230D01*
X83749Y120297D01*
X83717Y120338D01*
X83692Y120384D01*
X83640Y120433D01*
X83596Y120489D01*
X83552Y120517D01*
X83514Y120553D01*
X83449Y120583D01*
X83389Y120622D01*
X83338Y120635D01*
X83291Y120657D01*
X83220Y120665D01*
X83150Y120682D01*
X83098Y120678D01*
X83047Y120684D01*
X82976Y120669D01*
X82905Y120663D01*
X82857Y120643D01*
X82806Y120632D01*
X82745Y120595D01*
X82679Y120567D01*
X82623Y120522D01*
X82595Y120505D01*
X82580Y120488D01*
X82548Y120462D01*
X79472Y117386D01*
X79419Y117312D01*
X79359Y117242D01*
X79347Y117212D01*
X79328Y117186D01*
X79301Y117099D01*
X79267Y117014D01*
X79263Y116973D01*
X79256Y116951D01*
X79257Y116919D01*
X79249Y116847D01*
X79249Y95751D01*
X79263Y95660D01*
X79271Y95570D01*
X79283Y95540D01*
X79288Y95508D01*
X79331Y95427D01*
X79367Y95343D01*
X79393Y95311D01*
X79404Y95290D01*
X79427Y95268D01*
X79472Y95212D01*
X117854Y56830D01*
X117912Y56788D01*
X117964Y56739D01*
X118011Y56717D01*
X118053Y56687D01*
X118122Y56666D01*
X118187Y56635D01*
X118239Y56630D01*
X118289Y56614D01*
X118360Y56616D01*
X118431Y56608D01*
X118482Y56619D01*
G37*
G36*
X449896Y25869D02*
X449896Y25869D01*
X449967Y25875D01*
X450015Y25895D01*
X450066Y25906D01*
X450127Y25943D01*
X450193Y25971D01*
X450249Y26016D01*
X450277Y26033D01*
X450292Y26050D01*
X450324Y26076D01*
X467644Y43396D01*
X467697Y43470D01*
X467757Y43540D01*
X467769Y43570D01*
X467788Y43596D01*
X467815Y43683D01*
X467849Y43768D01*
X467853Y43809D01*
X467860Y43831D01*
X467859Y43863D01*
X467867Y43935D01*
X467867Y128201D01*
X471754Y132088D01*
X471822Y132183D01*
X471892Y132277D01*
X471894Y132283D01*
X471898Y132288D01*
X471932Y132399D01*
X471968Y132511D01*
X471968Y132517D01*
X471970Y132523D01*
X471967Y132640D01*
X471966Y132756D01*
X471964Y132764D01*
X471964Y132769D01*
X471957Y132786D01*
X471919Y132918D01*
X470915Y135341D01*
X470915Y138979D01*
X472307Y142340D01*
X474880Y144913D01*
X478241Y146305D01*
X481879Y146305D01*
X485240Y144913D01*
X487813Y142340D01*
X488375Y140983D01*
X488426Y140900D01*
X488472Y140814D01*
X488490Y140796D01*
X488504Y140774D01*
X488580Y140711D01*
X488650Y140645D01*
X488674Y140634D01*
X488694Y140617D01*
X488785Y140582D01*
X488873Y140541D01*
X488899Y140538D01*
X488923Y140529D01*
X489021Y140525D01*
X489117Y140514D01*
X489143Y140519D01*
X489169Y140518D01*
X489263Y140545D01*
X489358Y140566D01*
X489380Y140580D01*
X489405Y140587D01*
X489485Y140642D01*
X489569Y140692D01*
X489586Y140712D01*
X489607Y140727D01*
X489666Y140805D01*
X489729Y140879D01*
X489739Y140904D01*
X489754Y140924D01*
X489784Y141017D01*
X489821Y141107D01*
X489824Y141140D01*
X489830Y141158D01*
X489830Y141191D01*
X489839Y141274D01*
X489839Y158446D01*
X489824Y158542D01*
X489814Y158639D01*
X489804Y158663D01*
X489800Y158689D01*
X489754Y158775D01*
X489714Y158864D01*
X489697Y158883D01*
X489684Y158906D01*
X489614Y158973D01*
X489548Y159045D01*
X489525Y159057D01*
X489506Y159075D01*
X489418Y159116D01*
X489332Y159163D01*
X489307Y159168D01*
X489283Y159179D01*
X489186Y159190D01*
X489090Y159207D01*
X489064Y159203D01*
X489039Y159206D01*
X488943Y159185D01*
X488847Y159171D01*
X488824Y159159D01*
X488798Y159154D01*
X488715Y159104D01*
X488628Y159060D01*
X488609Y159041D01*
X488587Y159028D01*
X488524Y158954D01*
X488456Y158884D01*
X488440Y158856D01*
X488427Y158841D01*
X488415Y158810D01*
X488375Y158737D01*
X487813Y157380D01*
X485240Y154807D01*
X481879Y153415D01*
X478241Y153415D01*
X474880Y154807D01*
X472307Y157380D01*
X470915Y160741D01*
X470915Y164379D01*
X472307Y167740D01*
X474880Y170313D01*
X478241Y171705D01*
X481879Y171705D01*
X485240Y170313D01*
X487813Y167740D01*
X488375Y166383D01*
X488426Y166300D01*
X488472Y166214D01*
X488490Y166196D01*
X488504Y166174D01*
X488580Y166111D01*
X488650Y166045D01*
X488674Y166034D01*
X488694Y166017D01*
X488785Y165982D01*
X488873Y165941D01*
X488899Y165938D01*
X488923Y165929D01*
X489021Y165925D01*
X489117Y165914D01*
X489143Y165919D01*
X489169Y165918D01*
X489263Y165945D01*
X489358Y165966D01*
X489380Y165980D01*
X489405Y165987D01*
X489485Y166042D01*
X489569Y166092D01*
X489586Y166112D01*
X489607Y166127D01*
X489666Y166205D01*
X489729Y166279D01*
X489739Y166304D01*
X489754Y166324D01*
X489784Y166417D01*
X489821Y166507D01*
X489824Y166540D01*
X489830Y166558D01*
X489830Y166591D01*
X489839Y166674D01*
X489839Y189078D01*
X489838Y189088D01*
X489838Y189094D01*
X489837Y189102D01*
X489838Y189117D01*
X489816Y189219D01*
X489800Y189321D01*
X489790Y189338D01*
X489786Y189358D01*
X489733Y189447D01*
X489684Y189538D01*
X489670Y189552D01*
X489660Y189569D01*
X489581Y189636D01*
X489506Y189708D01*
X489488Y189716D01*
X489473Y189729D01*
X489377Y189768D01*
X489283Y189811D01*
X489263Y189813D01*
X489245Y189821D01*
X489078Y189839D01*
X370586Y189839D01*
X370566Y189836D01*
X370547Y189838D01*
X370445Y189816D01*
X370343Y189800D01*
X370326Y189790D01*
X370306Y189786D01*
X370217Y189733D01*
X370126Y189684D01*
X370112Y189670D01*
X370095Y189660D01*
X370028Y189581D01*
X369956Y189506D01*
X369948Y189488D01*
X369935Y189473D01*
X369896Y189377D01*
X369853Y189283D01*
X369851Y189263D01*
X369843Y189245D01*
X369825Y189078D01*
X369825Y185928D01*
X369828Y185908D01*
X369826Y185889D01*
X369848Y185787D01*
X369864Y185685D01*
X369874Y185668D01*
X369878Y185648D01*
X369931Y185559D01*
X369980Y185468D01*
X369994Y185454D01*
X370004Y185437D01*
X370083Y185370D01*
X370158Y185298D01*
X370176Y185290D01*
X370191Y185277D01*
X370287Y185238D01*
X370381Y185195D01*
X370401Y185193D01*
X370419Y185185D01*
X370586Y185167D01*
X381185Y185167D01*
X386042Y180310D01*
X386116Y180257D01*
X386186Y180197D01*
X386216Y180185D01*
X386242Y180166D01*
X386329Y180139D01*
X386414Y180105D01*
X386455Y180101D01*
X386477Y180094D01*
X386509Y180095D01*
X386580Y180087D01*
X394717Y180087D01*
X394717Y175259D01*
X392930Y175259D01*
X392860Y175248D01*
X392788Y175246D01*
X392739Y175228D01*
X392688Y175220D01*
X392624Y175186D01*
X392557Y175161D01*
X392516Y175129D01*
X392470Y175104D01*
X392421Y175053D01*
X392365Y175008D01*
X392337Y174964D01*
X392301Y174926D01*
X392271Y174861D01*
X392232Y174801D01*
X392219Y174750D01*
X392197Y174703D01*
X392189Y174632D01*
X392172Y174562D01*
X392176Y174510D01*
X392170Y174459D01*
X392185Y174388D01*
X392191Y174317D01*
X392211Y174269D01*
X392222Y174218D01*
X392259Y174157D01*
X392287Y174091D01*
X392332Y174035D01*
X392349Y174007D01*
X392366Y173992D01*
X392392Y173960D01*
X420586Y145766D01*
X420660Y145713D01*
X420730Y145653D01*
X420760Y145641D01*
X420786Y145622D01*
X420873Y145595D01*
X420958Y145561D01*
X420999Y145557D01*
X421021Y145550D01*
X421053Y145551D01*
X421124Y145543D01*
X421571Y145543D01*
X425959Y141155D01*
X425959Y119126D01*
X425962Y119106D01*
X425960Y119087D01*
X425982Y118985D01*
X425998Y118883D01*
X426008Y118866D01*
X426012Y118846D01*
X426065Y118757D01*
X426114Y118666D01*
X426128Y118652D01*
X426138Y118635D01*
X426217Y118568D01*
X426292Y118496D01*
X426310Y118488D01*
X426325Y118475D01*
X426421Y118436D01*
X426515Y118393D01*
X426535Y118391D01*
X426553Y118383D01*
X426720Y118365D01*
X427352Y118365D01*
X428245Y117472D01*
X428245Y110228D01*
X428259Y110138D01*
X428267Y110047D01*
X428279Y110018D01*
X428284Y109986D01*
X428327Y109905D01*
X428363Y109821D01*
X428389Y109789D01*
X428400Y109768D01*
X428423Y109746D01*
X428468Y109690D01*
X429730Y108428D01*
X431293Y106865D01*
X431293Y32763D01*
X431304Y32692D01*
X431306Y32621D01*
X431324Y32572D01*
X431332Y32520D01*
X431366Y32457D01*
X431391Y32390D01*
X431423Y32349D01*
X431448Y32303D01*
X431500Y32254D01*
X431544Y32198D01*
X431588Y32169D01*
X431626Y32134D01*
X431691Y32103D01*
X431751Y32065D01*
X431802Y32052D01*
X431849Y32030D01*
X431920Y32022D01*
X431990Y32005D01*
X432042Y32009D01*
X432093Y32003D01*
X432164Y32018D01*
X432235Y32024D01*
X432283Y32044D01*
X432334Y32055D01*
X432395Y32092D01*
X432461Y32120D01*
X432517Y32165D01*
X432545Y32181D01*
X432560Y32199D01*
X432592Y32225D01*
X434700Y34333D01*
X438061Y35725D01*
X441699Y35725D01*
X445060Y34333D01*
X447633Y31760D01*
X449025Y28399D01*
X449025Y26614D01*
X449036Y26544D01*
X449038Y26472D01*
X449056Y26423D01*
X449064Y26372D01*
X449098Y26308D01*
X449123Y26241D01*
X449155Y26200D01*
X449180Y26154D01*
X449232Y26105D01*
X449276Y26049D01*
X449320Y26021D01*
X449358Y25985D01*
X449423Y25955D01*
X449483Y25916D01*
X449534Y25903D01*
X449581Y25881D01*
X449652Y25873D01*
X449722Y25856D01*
X449774Y25860D01*
X449825Y25854D01*
X449896Y25869D01*
G37*
G36*
X331040Y15252D02*
X331040Y15252D01*
X331112Y15254D01*
X331161Y15272D01*
X331212Y15280D01*
X331276Y15314D01*
X331343Y15339D01*
X331384Y15371D01*
X331430Y15396D01*
X331479Y15447D01*
X331535Y15492D01*
X331563Y15536D01*
X331599Y15574D01*
X331629Y15639D01*
X331668Y15699D01*
X331681Y15750D01*
X331703Y15797D01*
X331711Y15868D01*
X331728Y15938D01*
X331724Y15990D01*
X331730Y16041D01*
X331715Y16112D01*
X331709Y16183D01*
X331689Y16231D01*
X331678Y16282D01*
X331641Y16343D01*
X331613Y16409D01*
X331568Y16465D01*
X331551Y16493D01*
X331534Y16508D01*
X331508Y16540D01*
X268734Y79314D01*
X268676Y79356D01*
X268624Y79405D01*
X268577Y79427D01*
X268535Y79457D01*
X268466Y79478D01*
X268401Y79509D01*
X268349Y79514D01*
X268299Y79530D01*
X268228Y79528D01*
X268157Y79536D01*
X268106Y79525D01*
X268054Y79523D01*
X267986Y79499D01*
X267916Y79484D01*
X267872Y79457D01*
X267823Y79439D01*
X267767Y79394D01*
X267705Y79357D01*
X267671Y79318D01*
X267631Y79285D01*
X267592Y79225D01*
X267545Y79170D01*
X267526Y79122D01*
X267498Y79078D01*
X267480Y79009D01*
X267453Y78942D01*
X267445Y78871D01*
X267437Y78840D01*
X267439Y78816D01*
X267435Y78776D01*
X267435Y77812D01*
X264326Y74703D01*
X260371Y74703D01*
X260280Y74689D01*
X260190Y74681D01*
X260160Y74669D01*
X260128Y74664D01*
X260047Y74621D01*
X259963Y74585D01*
X259931Y74559D01*
X259910Y74548D01*
X259888Y74525D01*
X259832Y74480D01*
X202877Y17525D01*
X140708Y17525D01*
X140638Y17514D01*
X140566Y17512D01*
X140517Y17494D01*
X140466Y17486D01*
X140402Y17452D01*
X140335Y17427D01*
X140294Y17395D01*
X140248Y17370D01*
X140199Y17318D01*
X140143Y17274D01*
X140115Y17230D01*
X140079Y17192D01*
X140049Y17127D01*
X140010Y17067D01*
X139997Y17016D01*
X139975Y16969D01*
X139967Y16898D01*
X139950Y16828D01*
X139954Y16776D01*
X139948Y16725D01*
X139963Y16654D01*
X139969Y16583D01*
X139989Y16535D01*
X140000Y16484D01*
X140037Y16423D01*
X140065Y16357D01*
X140110Y16301D01*
X140127Y16273D01*
X140144Y16258D01*
X140170Y16226D01*
X140932Y15464D01*
X141006Y15411D01*
X141076Y15351D01*
X141106Y15339D01*
X141132Y15320D01*
X141219Y15293D01*
X141304Y15259D01*
X141345Y15255D01*
X141367Y15248D01*
X141399Y15249D01*
X141471Y15241D01*
X330970Y15241D01*
X331040Y15252D01*
G37*
G36*
X363382Y74229D02*
X363382Y74229D01*
X363453Y74235D01*
X363501Y74255D01*
X363552Y74266D01*
X363613Y74303D01*
X363679Y74331D01*
X363735Y74376D01*
X363763Y74393D01*
X363778Y74410D01*
X363810Y74436D01*
X364722Y75348D01*
X364775Y75422D01*
X364835Y75492D01*
X364847Y75522D01*
X364866Y75548D01*
X364893Y75635D01*
X364927Y75720D01*
X364931Y75761D01*
X364938Y75783D01*
X364937Y75815D01*
X364945Y75887D01*
X364945Y78799D01*
X364931Y78889D01*
X364923Y78980D01*
X364911Y79010D01*
X364906Y79042D01*
X364863Y79123D01*
X364827Y79207D01*
X364801Y79239D01*
X364790Y79260D01*
X364767Y79282D01*
X364722Y79338D01*
X363810Y80250D01*
X363752Y80292D01*
X363700Y80341D01*
X363653Y80363D01*
X363611Y80393D01*
X363542Y80414D01*
X363477Y80445D01*
X363425Y80450D01*
X363375Y80466D01*
X363304Y80464D01*
X363233Y80472D01*
X363182Y80461D01*
X363130Y80459D01*
X363062Y80435D01*
X362992Y80420D01*
X362947Y80393D01*
X362899Y80375D01*
X362843Y80330D01*
X362781Y80293D01*
X362747Y80254D01*
X362707Y80221D01*
X362668Y80161D01*
X362621Y80106D01*
X362602Y80058D01*
X362574Y80014D01*
X362556Y79945D01*
X362529Y79878D01*
X362521Y79807D01*
X362513Y79776D01*
X362515Y79752D01*
X362511Y79712D01*
X362511Y77723D01*
X356743Y77723D01*
X356743Y83741D01*
X358482Y83741D01*
X358552Y83752D01*
X358624Y83754D01*
X358673Y83772D01*
X358724Y83780D01*
X358788Y83814D01*
X358855Y83839D01*
X358896Y83871D01*
X358942Y83896D01*
X358991Y83948D01*
X359047Y83992D01*
X359075Y84036D01*
X359111Y84074D01*
X359141Y84139D01*
X359180Y84199D01*
X359193Y84250D01*
X359215Y84297D01*
X359223Y84368D01*
X359240Y84438D01*
X359236Y84490D01*
X359242Y84541D01*
X359227Y84612D01*
X359221Y84683D01*
X359201Y84731D01*
X359190Y84782D01*
X359153Y84843D01*
X359125Y84909D01*
X359080Y84965D01*
X359063Y84993D01*
X359046Y85008D01*
X359020Y85040D01*
X353567Y90493D01*
X353567Y92774D01*
X353564Y92794D01*
X353566Y92813D01*
X353544Y92915D01*
X353528Y93017D01*
X353518Y93034D01*
X353514Y93054D01*
X353461Y93143D01*
X353412Y93234D01*
X353398Y93248D01*
X353388Y93265D01*
X353309Y93332D01*
X353234Y93404D01*
X353216Y93412D01*
X353201Y93425D01*
X353105Y93464D01*
X353011Y93507D01*
X352991Y93509D01*
X352973Y93517D01*
X352806Y93535D01*
X351088Y93535D01*
X350195Y94428D01*
X350195Y100407D01*
X350181Y100498D01*
X350173Y100588D01*
X350161Y100618D01*
X350156Y100650D01*
X350113Y100731D01*
X350077Y100815D01*
X350051Y100847D01*
X350040Y100868D01*
X350017Y100890D01*
X349972Y100946D01*
X338327Y112591D01*
X338327Y140393D01*
X339890Y141956D01*
X346240Y148306D01*
X346282Y148364D01*
X346331Y148416D01*
X346353Y148463D01*
X346383Y148505D01*
X346404Y148574D01*
X346435Y148639D01*
X346440Y148691D01*
X346456Y148741D01*
X346454Y148812D01*
X346462Y148883D01*
X346451Y148934D01*
X346449Y148986D01*
X346425Y149054D01*
X346410Y149124D01*
X346383Y149169D01*
X346365Y149217D01*
X346320Y149273D01*
X346283Y149335D01*
X346244Y149369D01*
X346211Y149409D01*
X346151Y149448D01*
X346096Y149495D01*
X346048Y149514D01*
X346004Y149542D01*
X345935Y149560D01*
X345868Y149587D01*
X345797Y149595D01*
X345766Y149603D01*
X345742Y149601D01*
X345702Y149605D01*
X342268Y149605D01*
X341375Y150498D01*
X341375Y155710D01*
X341364Y155780D01*
X341362Y155852D01*
X341344Y155901D01*
X341336Y155952D01*
X341302Y156016D01*
X341277Y156083D01*
X341245Y156124D01*
X341220Y156170D01*
X341168Y156219D01*
X341124Y156275D01*
X341080Y156303D01*
X341042Y156339D01*
X340977Y156369D01*
X340917Y156408D01*
X340866Y156421D01*
X340819Y156443D01*
X340748Y156451D01*
X340678Y156468D01*
X340626Y156464D01*
X340575Y156470D01*
X340504Y156455D01*
X340433Y156449D01*
X340385Y156429D01*
X340334Y156418D01*
X340273Y156381D01*
X340207Y156353D01*
X340151Y156308D01*
X340123Y156291D01*
X340108Y156274D01*
X340076Y156248D01*
X332417Y148589D01*
X311473Y148589D01*
X282740Y177322D01*
X282666Y177375D01*
X282596Y177435D01*
X282566Y177447D01*
X282540Y177466D01*
X282453Y177493D01*
X282368Y177527D01*
X282327Y177531D01*
X282305Y177538D01*
X282273Y177537D01*
X282201Y177545D01*
X242054Y177545D01*
X241984Y177534D01*
X241912Y177532D01*
X241863Y177514D01*
X241812Y177506D01*
X241748Y177472D01*
X241681Y177447D01*
X241640Y177415D01*
X241594Y177390D01*
X241545Y177338D01*
X241489Y177294D01*
X241461Y177250D01*
X241425Y177212D01*
X241395Y177147D01*
X241356Y177087D01*
X241343Y177036D01*
X241321Y176989D01*
X241313Y176918D01*
X241296Y176848D01*
X241300Y176796D01*
X241294Y176745D01*
X241309Y176674D01*
X241315Y176603D01*
X241335Y176555D01*
X241346Y176504D01*
X241383Y176443D01*
X241411Y176377D01*
X241456Y176321D01*
X241473Y176293D01*
X241490Y176278D01*
X241516Y176246D01*
X337528Y80234D01*
X337602Y80181D01*
X337672Y80121D01*
X337702Y80109D01*
X337728Y80090D01*
X337815Y80063D01*
X337900Y80029D01*
X337941Y80025D01*
X337963Y80018D01*
X337995Y80019D01*
X338067Y80011D01*
X338129Y80011D01*
X338219Y80025D01*
X338310Y80033D01*
X338339Y80045D01*
X338371Y80050D01*
X338452Y80093D01*
X338536Y80129D01*
X338568Y80155D01*
X338589Y80166D01*
X338611Y80189D01*
X338667Y80234D01*
X341464Y83031D01*
X345860Y83031D01*
X346891Y82000D01*
X346987Y81931D01*
X347084Y81860D01*
X347088Y81858D01*
X347091Y81856D01*
X347204Y81821D01*
X347318Y81785D01*
X347322Y81785D01*
X347326Y81784D01*
X347445Y81787D01*
X347564Y81788D01*
X347568Y81790D01*
X347572Y81790D01*
X347684Y81831D01*
X347796Y81870D01*
X347799Y81873D01*
X347803Y81874D01*
X347897Y81949D01*
X347990Y82022D01*
X347992Y82026D01*
X347995Y82028D01*
X348003Y82040D01*
X348089Y82157D01*
X348437Y82760D01*
X348910Y83233D01*
X349489Y83568D01*
X350136Y83741D01*
X353697Y83741D01*
X353697Y76962D01*
X353700Y76942D01*
X353698Y76923D01*
X353720Y76821D01*
X353737Y76719D01*
X353746Y76702D01*
X353750Y76682D01*
X353803Y76593D01*
X353852Y76502D01*
X353866Y76488D01*
X353876Y76471D01*
X353955Y76404D01*
X354030Y76333D01*
X354048Y76324D01*
X354063Y76311D01*
X354159Y76272D01*
X354253Y76229D01*
X354273Y76227D01*
X354291Y76219D01*
X354458Y76201D01*
X355221Y76201D01*
X355221Y75438D01*
X355224Y75418D01*
X355222Y75399D01*
X355244Y75297D01*
X355261Y75195D01*
X355270Y75178D01*
X355274Y75158D01*
X355327Y75069D01*
X355376Y74978D01*
X355390Y74964D01*
X355400Y74947D01*
X355479Y74880D01*
X355554Y74809D01*
X355572Y74800D01*
X355587Y74787D01*
X355683Y74748D01*
X355777Y74705D01*
X355797Y74703D01*
X355815Y74695D01*
X355982Y74677D01*
X362580Y74677D01*
X362584Y74668D01*
X362609Y74601D01*
X362641Y74560D01*
X362666Y74514D01*
X362718Y74465D01*
X362762Y74409D01*
X362806Y74381D01*
X362844Y74345D01*
X362909Y74315D01*
X362969Y74276D01*
X363020Y74263D01*
X363067Y74241D01*
X363138Y74233D01*
X363208Y74216D01*
X363260Y74220D01*
X363311Y74214D01*
X363382Y74229D01*
G37*
G36*
X392512Y87673D02*
X392512Y87673D01*
X392583Y87679D01*
X392631Y87699D01*
X392682Y87710D01*
X392743Y87747D01*
X392809Y87775D01*
X392865Y87820D01*
X392893Y87836D01*
X392908Y87854D01*
X392940Y87880D01*
X407446Y102386D01*
X407499Y102460D01*
X407559Y102529D01*
X407571Y102559D01*
X407590Y102586D01*
X407605Y102633D01*
X407606Y102636D01*
X407611Y102654D01*
X407617Y102673D01*
X407651Y102757D01*
X407655Y102798D01*
X407662Y102821D01*
X407661Y102853D01*
X407662Y102856D01*
X407667Y102875D01*
X407665Y102889D01*
X407669Y102924D01*
X407669Y102939D01*
X407657Y103013D01*
X407656Y103067D01*
X407650Y103081D01*
X407647Y103120D01*
X407635Y103150D01*
X407630Y103182D01*
X407587Y103262D01*
X407551Y103347D01*
X407525Y103379D01*
X407514Y103399D01*
X407491Y103421D01*
X407446Y103477D01*
X407415Y103508D01*
X407415Y117472D01*
X408208Y118265D01*
X408261Y118339D01*
X408321Y118408D01*
X408333Y118438D01*
X408352Y118464D01*
X408379Y118551D01*
X408413Y118636D01*
X408417Y118677D01*
X408424Y118699D01*
X408423Y118732D01*
X408431Y118803D01*
X408431Y122229D01*
X408417Y122319D01*
X408409Y122410D01*
X408397Y122439D01*
X408392Y122471D01*
X408349Y122552D01*
X408313Y122636D01*
X408287Y122668D01*
X408276Y122689D01*
X408253Y122711D01*
X408208Y122767D01*
X406173Y124802D01*
X406173Y129198D01*
X409282Y132307D01*
X413087Y132307D01*
X413157Y132318D01*
X413229Y132320D01*
X413278Y132338D01*
X413329Y132346D01*
X413393Y132380D01*
X413460Y132405D01*
X413501Y132437D01*
X413547Y132462D01*
X413596Y132514D01*
X413652Y132558D01*
X413680Y132602D01*
X413716Y132640D01*
X413746Y132705D01*
X413785Y132765D01*
X413798Y132816D01*
X413820Y132863D01*
X413828Y132934D01*
X413845Y133004D01*
X413841Y133056D01*
X413847Y133107D01*
X413832Y133178D01*
X413826Y133249D01*
X413806Y133297D01*
X413795Y133348D01*
X413758Y133409D01*
X413730Y133475D01*
X413685Y133531D01*
X413668Y133559D01*
X413651Y133574D01*
X413625Y133606D01*
X412269Y134962D01*
X412269Y138917D01*
X412255Y139008D01*
X412247Y139098D01*
X412235Y139128D01*
X412230Y139160D01*
X412187Y139241D01*
X412151Y139325D01*
X412125Y139357D01*
X412114Y139378D01*
X412091Y139400D01*
X412046Y139456D01*
X406684Y144818D01*
X406626Y144860D01*
X406574Y144909D01*
X406527Y144931D01*
X406485Y144961D01*
X406416Y144982D01*
X406351Y145013D01*
X406299Y145018D01*
X406249Y145034D01*
X406178Y145032D01*
X406107Y145040D01*
X406056Y145029D01*
X406004Y145027D01*
X405936Y145003D01*
X405866Y144988D01*
X405821Y144961D01*
X405773Y144943D01*
X405717Y144898D01*
X405655Y144861D01*
X405621Y144822D01*
X405581Y144789D01*
X405542Y144729D01*
X405495Y144674D01*
X405476Y144626D01*
X405448Y144582D01*
X405430Y144513D01*
X405403Y144446D01*
X405395Y144375D01*
X405387Y144344D01*
X405389Y144320D01*
X405385Y144280D01*
X405385Y139068D01*
X404492Y138175D01*
X394708Y138175D01*
X394618Y138161D01*
X394527Y138153D01*
X394498Y138141D01*
X394466Y138136D01*
X394385Y138093D01*
X394301Y138057D01*
X394269Y138031D01*
X394248Y138020D01*
X394226Y137997D01*
X394170Y137952D01*
X373604Y117386D01*
X373551Y117312D01*
X373491Y117242D01*
X373479Y117212D01*
X373460Y117186D01*
X373433Y117099D01*
X373399Y117014D01*
X373395Y116973D01*
X373388Y116951D01*
X373389Y116919D01*
X373381Y116847D01*
X373381Y105346D01*
X373384Y105326D01*
X373382Y105307D01*
X373404Y105205D01*
X373420Y105103D01*
X373430Y105086D01*
X373434Y105066D01*
X373487Y104977D01*
X373536Y104886D01*
X373550Y104872D01*
X373560Y104855D01*
X373639Y104788D01*
X373714Y104716D01*
X373732Y104708D01*
X373747Y104695D01*
X373843Y104656D01*
X373937Y104613D01*
X373957Y104611D01*
X373975Y104603D01*
X374142Y104585D01*
X375352Y104585D01*
X376245Y103692D01*
X376245Y94428D01*
X375352Y93535D01*
X369498Y93535D01*
X369428Y93524D01*
X369356Y93522D01*
X369307Y93504D01*
X369256Y93496D01*
X369192Y93462D01*
X369125Y93437D01*
X369084Y93405D01*
X369038Y93380D01*
X368989Y93328D01*
X368933Y93284D01*
X368905Y93240D01*
X368869Y93202D01*
X368839Y93137D01*
X368800Y93077D01*
X368787Y93026D01*
X368765Y92979D01*
X368757Y92908D01*
X368740Y92838D01*
X368744Y92786D01*
X368738Y92735D01*
X368753Y92664D01*
X368759Y92593D01*
X368779Y92545D01*
X368790Y92494D01*
X368827Y92433D01*
X368855Y92367D01*
X368900Y92311D01*
X368917Y92283D01*
X368934Y92268D01*
X368960Y92236D01*
X371818Y89378D01*
X371892Y89325D01*
X371962Y89265D01*
X371992Y89253D01*
X372018Y89234D01*
X372105Y89207D01*
X372190Y89173D01*
X372231Y89169D01*
X372253Y89162D01*
X372285Y89163D01*
X372357Y89155D01*
X380801Y89155D01*
X380891Y89169D01*
X380982Y89177D01*
X381011Y89189D01*
X381043Y89194D01*
X381124Y89237D01*
X381208Y89273D01*
X381240Y89299D01*
X381261Y89310D01*
X381283Y89333D01*
X381339Y89378D01*
X384136Y92175D01*
X388532Y92175D01*
X391641Y89066D01*
X391641Y88418D01*
X391652Y88347D01*
X391654Y88276D01*
X391672Y88227D01*
X391680Y88175D01*
X391714Y88112D01*
X391739Y88045D01*
X391771Y88004D01*
X391796Y87958D01*
X391848Y87909D01*
X391892Y87853D01*
X391936Y87824D01*
X391974Y87789D01*
X392039Y87758D01*
X392099Y87720D01*
X392150Y87707D01*
X392197Y87685D01*
X392268Y87677D01*
X392338Y87660D01*
X392390Y87664D01*
X392441Y87658D01*
X392512Y87673D01*
G37*
G36*
X346038Y56455D02*
X346038Y56455D01*
X346090Y56456D01*
X346158Y56481D01*
X346228Y56496D01*
X346272Y56523D01*
X346321Y56541D01*
X346377Y56586D01*
X346439Y56622D01*
X346473Y56662D01*
X346513Y56694D01*
X346552Y56755D01*
X346599Y56809D01*
X346618Y56858D01*
X346646Y56901D01*
X346664Y56971D01*
X346691Y57037D01*
X346699Y57109D01*
X346707Y57140D01*
X346705Y57163D01*
X346709Y57204D01*
X346709Y61907D01*
X352162Y67360D01*
X352204Y67418D01*
X352253Y67470D01*
X352275Y67517D01*
X352305Y67559D01*
X352326Y67628D01*
X352357Y67693D01*
X352362Y67745D01*
X352378Y67795D01*
X352376Y67866D01*
X352384Y67937D01*
X352373Y67988D01*
X352371Y68040D01*
X352347Y68108D01*
X352332Y68178D01*
X352305Y68223D01*
X352287Y68271D01*
X352242Y68327D01*
X352205Y68389D01*
X352166Y68423D01*
X352133Y68463D01*
X352073Y68502D01*
X352018Y68549D01*
X351970Y68568D01*
X351926Y68596D01*
X351857Y68614D01*
X351790Y68641D01*
X351719Y68649D01*
X351688Y68657D01*
X351664Y68655D01*
X351624Y68659D01*
X350136Y68659D01*
X349927Y68715D01*
X349808Y68727D01*
X349691Y68740D01*
X349686Y68739D01*
X349682Y68740D01*
X349567Y68713D01*
X349450Y68688D01*
X349447Y68686D01*
X349443Y68685D01*
X349341Y68623D01*
X349239Y68562D01*
X349236Y68558D01*
X349233Y68556D01*
X349157Y68466D01*
X349079Y68375D01*
X349078Y68371D01*
X349075Y68368D01*
X349032Y68259D01*
X348987Y68147D01*
X348987Y68142D01*
X348985Y68138D01*
X348985Y68125D01*
X348969Y67980D01*
X348969Y66382D01*
X345860Y63273D01*
X341464Y63273D01*
X338355Y66382D01*
X338355Y68051D01*
X338341Y68142D01*
X338333Y68232D01*
X338321Y68262D01*
X338316Y68294D01*
X338273Y68375D01*
X338237Y68459D01*
X338211Y68491D01*
X338200Y68512D01*
X338177Y68534D01*
X338132Y68590D01*
X235496Y171226D01*
X235422Y171279D01*
X235352Y171339D01*
X235322Y171351D01*
X235296Y171370D01*
X235209Y171397D01*
X235124Y171431D01*
X235083Y171435D01*
X235061Y171442D01*
X235029Y171441D01*
X234957Y171449D01*
X218420Y171449D01*
X218400Y171446D01*
X218381Y171448D01*
X218279Y171426D01*
X218177Y171410D01*
X218160Y171400D01*
X218140Y171396D01*
X218051Y171343D01*
X217960Y171294D01*
X217946Y171280D01*
X217929Y171270D01*
X217862Y171191D01*
X217790Y171116D01*
X217782Y171098D01*
X217769Y171083D01*
X217730Y170987D01*
X217687Y170893D01*
X217685Y170873D01*
X217677Y170855D01*
X217659Y170688D01*
X217659Y169671D01*
X212780Y169671D01*
X212760Y169668D01*
X212741Y169670D01*
X212639Y169648D01*
X212537Y169631D01*
X212520Y169622D01*
X212500Y169618D01*
X212411Y169565D01*
X212320Y169516D01*
X212306Y169502D01*
X212289Y169492D01*
X212222Y169413D01*
X212151Y169338D01*
X212142Y169320D01*
X212129Y169305D01*
X212090Y169209D01*
X212047Y169115D01*
X212045Y169095D01*
X212037Y169077D01*
X212019Y168910D01*
X212019Y168147D01*
X211256Y168147D01*
X211236Y168144D01*
X211217Y168146D01*
X211115Y168124D01*
X211013Y168107D01*
X210996Y168098D01*
X210976Y168094D01*
X210887Y168041D01*
X210796Y167992D01*
X210782Y167978D01*
X210765Y167968D01*
X210698Y167889D01*
X210627Y167814D01*
X210618Y167796D01*
X210605Y167781D01*
X210566Y167685D01*
X210523Y167591D01*
X210521Y167571D01*
X210513Y167553D01*
X210495Y167386D01*
X210495Y162507D01*
X208584Y162507D01*
X207937Y162680D01*
X207358Y163015D01*
X207073Y163300D01*
X206999Y163353D01*
X206929Y163413D01*
X206899Y163425D01*
X206873Y163444D01*
X206786Y163471D01*
X206701Y163505D01*
X206660Y163509D01*
X206638Y163516D01*
X206606Y163515D01*
X206534Y163523D01*
X199286Y163523D01*
X198441Y164368D01*
X198367Y164421D01*
X198298Y164481D01*
X198268Y164493D01*
X198242Y164512D01*
X198155Y164539D01*
X198070Y164573D01*
X198029Y164577D01*
X198007Y164584D01*
X197974Y164583D01*
X197903Y164591D01*
X174298Y164591D01*
X174227Y164580D01*
X174156Y164578D01*
X174107Y164560D01*
X174055Y164552D01*
X173992Y164518D01*
X173925Y164493D01*
X173884Y164461D01*
X173838Y164436D01*
X173789Y164384D01*
X173733Y164340D01*
X173704Y164296D01*
X173669Y164258D01*
X173638Y164193D01*
X173600Y164133D01*
X173587Y164082D01*
X173565Y164035D01*
X173557Y163964D01*
X173540Y163894D01*
X173544Y163842D01*
X173538Y163791D01*
X173553Y163720D01*
X173559Y163649D01*
X173579Y163601D01*
X173590Y163550D01*
X173627Y163489D01*
X173655Y163423D01*
X173700Y163367D01*
X173716Y163339D01*
X173734Y163324D01*
X173760Y163292D01*
X178558Y158494D01*
X178632Y158441D01*
X178701Y158381D01*
X178731Y158369D01*
X178758Y158350D01*
X178845Y158323D01*
X178929Y158289D01*
X178970Y158285D01*
X178993Y158278D01*
X179025Y158279D01*
X179096Y158271D01*
X196908Y158271D01*
X196928Y158274D01*
X196947Y158272D01*
X197049Y158294D01*
X197151Y158310D01*
X197168Y158320D01*
X197188Y158324D01*
X197277Y158377D01*
X197368Y158426D01*
X197382Y158440D01*
X197399Y158450D01*
X197466Y158529D01*
X197538Y158604D01*
X197546Y158622D01*
X197559Y158637D01*
X197598Y158733D01*
X197641Y158827D01*
X197643Y158847D01*
X197651Y158865D01*
X197659Y158944D01*
X198562Y159847D01*
X205810Y159847D01*
X205900Y159861D01*
X205991Y159869D01*
X206021Y159881D01*
X206053Y159886D01*
X206134Y159929D01*
X206218Y159965D01*
X206250Y159991D01*
X206270Y160002D01*
X206293Y160025D01*
X206349Y160070D01*
X206634Y160355D01*
X207213Y160690D01*
X207860Y160863D01*
X209771Y160863D01*
X209771Y155984D01*
X209774Y155964D01*
X209772Y155945D01*
X209794Y155843D01*
X209811Y155741D01*
X209820Y155724D01*
X209824Y155704D01*
X209877Y155615D01*
X209926Y155524D01*
X209940Y155510D01*
X209950Y155493D01*
X210029Y155426D01*
X210104Y155355D01*
X210122Y155346D01*
X210137Y155333D01*
X210233Y155294D01*
X210327Y155251D01*
X210347Y155249D01*
X210365Y155241D01*
X210532Y155223D01*
X211295Y155223D01*
X211295Y154460D01*
X211298Y154440D01*
X211296Y154421D01*
X211318Y154319D01*
X211335Y154217D01*
X211344Y154200D01*
X211348Y154180D01*
X211401Y154091D01*
X211450Y154000D01*
X211464Y153986D01*
X211474Y153969D01*
X211553Y153902D01*
X211628Y153831D01*
X211646Y153822D01*
X211661Y153809D01*
X211757Y153770D01*
X211851Y153727D01*
X211871Y153725D01*
X211889Y153717D01*
X212056Y153699D01*
X216935Y153699D01*
X216935Y152400D01*
X216938Y152380D01*
X216936Y152361D01*
X216958Y152259D01*
X216974Y152157D01*
X216984Y152140D01*
X216988Y152120D01*
X217041Y152031D01*
X217090Y151940D01*
X217104Y151926D01*
X217114Y151909D01*
X217193Y151842D01*
X217268Y151770D01*
X217286Y151762D01*
X217301Y151749D01*
X217397Y151710D01*
X217491Y151667D01*
X217511Y151665D01*
X217529Y151657D01*
X217696Y151639D01*
X250437Y151639D01*
X252446Y149630D01*
X345410Y56666D01*
X345468Y56624D01*
X345520Y56575D01*
X345567Y56553D01*
X345609Y56522D01*
X345678Y56501D01*
X345743Y56471D01*
X345795Y56465D01*
X345845Y56450D01*
X345916Y56452D01*
X345987Y56444D01*
X346038Y56455D01*
G37*
%LPC*%
G36*
X62572Y28983D02*
X62572Y28983D01*
X59775Y31780D01*
X59701Y31833D01*
X59631Y31893D01*
X59601Y31905D01*
X59575Y31924D01*
X59488Y31951D01*
X59403Y31985D01*
X59362Y31989D01*
X59340Y31996D01*
X59308Y31995D01*
X59237Y32003D01*
X20389Y32003D01*
X18826Y33566D01*
X16001Y36391D01*
X16001Y48594D01*
X15998Y48614D01*
X16000Y48633D01*
X15978Y48735D01*
X15962Y48837D01*
X15952Y48854D01*
X15948Y48874D01*
X15895Y48963D01*
X15846Y49054D01*
X15832Y49068D01*
X15822Y49085D01*
X15743Y49152D01*
X15668Y49224D01*
X15650Y49232D01*
X15635Y49245D01*
X15539Y49284D01*
X15445Y49327D01*
X15425Y49329D01*
X15407Y49337D01*
X15240Y49355D01*
X13138Y49355D01*
X12245Y50248D01*
X12245Y61512D01*
X13138Y62405D01*
X18927Y62405D01*
X19043Y62424D01*
X19162Y62442D01*
X19165Y62444D01*
X19170Y62444D01*
X19274Y62500D01*
X19380Y62555D01*
X19383Y62558D01*
X19387Y62560D01*
X19468Y62645D01*
X19552Y62731D01*
X19553Y62735D01*
X19556Y62738D01*
X19606Y62845D01*
X19658Y62953D01*
X19658Y62957D01*
X19660Y62961D01*
X19673Y63079D01*
X19687Y63197D01*
X19687Y63202D01*
X19687Y63205D01*
X19684Y63219D01*
X19662Y63363D01*
X19479Y64046D01*
X19479Y68107D01*
X32258Y68107D01*
X32278Y68110D01*
X32297Y68108D01*
X32399Y68130D01*
X32501Y68147D01*
X32518Y68156D01*
X32538Y68160D01*
X32627Y68213D01*
X32718Y68262D01*
X32732Y68276D01*
X32749Y68286D01*
X32816Y68365D01*
X32887Y68440D01*
X32896Y68458D01*
X32909Y68473D01*
X32948Y68569D01*
X32991Y68663D01*
X32993Y68683D01*
X33001Y68701D01*
X33019Y68868D01*
X33019Y69631D01*
X33021Y69631D01*
X33021Y68868D01*
X33024Y68848D01*
X33022Y68829D01*
X33044Y68727D01*
X33061Y68625D01*
X33070Y68608D01*
X33074Y68588D01*
X33127Y68499D01*
X33176Y68408D01*
X33190Y68394D01*
X33200Y68377D01*
X33279Y68310D01*
X33354Y68239D01*
X33372Y68230D01*
X33387Y68217D01*
X33483Y68178D01*
X33577Y68135D01*
X33597Y68133D01*
X33615Y68125D01*
X33782Y68107D01*
X46561Y68107D01*
X46561Y64046D01*
X46388Y63399D01*
X46053Y62820D01*
X45580Y62347D01*
X45001Y62012D01*
X44354Y61839D01*
X42672Y61839D01*
X42652Y61836D01*
X42633Y61838D01*
X42531Y61816D01*
X42429Y61800D01*
X42412Y61790D01*
X42392Y61786D01*
X42303Y61733D01*
X42212Y61684D01*
X42198Y61670D01*
X42181Y61660D01*
X42114Y61581D01*
X42042Y61506D01*
X42034Y61488D01*
X42021Y61473D01*
X41982Y61377D01*
X41939Y61283D01*
X41937Y61263D01*
X41929Y61245D01*
X41911Y61078D01*
X41911Y50682D01*
X41914Y50662D01*
X41912Y50643D01*
X41934Y50541D01*
X41950Y50439D01*
X41960Y50422D01*
X41964Y50402D01*
X42017Y50313D01*
X42066Y50222D01*
X42080Y50208D01*
X42090Y50191D01*
X42169Y50124D01*
X42244Y50052D01*
X42262Y50044D01*
X42277Y50031D01*
X42373Y49992D01*
X42467Y49949D01*
X42487Y49947D01*
X42505Y49939D01*
X42672Y49921D01*
X44354Y49921D01*
X45001Y49748D01*
X45580Y49413D01*
X46053Y48940D01*
X46388Y48361D01*
X46561Y47714D01*
X46561Y43653D01*
X33782Y43653D01*
X33762Y43650D01*
X33743Y43652D01*
X33641Y43630D01*
X33539Y43613D01*
X33522Y43604D01*
X33502Y43600D01*
X33413Y43547D01*
X33322Y43498D01*
X33308Y43484D01*
X33291Y43474D01*
X33224Y43395D01*
X33153Y43320D01*
X33144Y43302D01*
X33131Y43287D01*
X33092Y43191D01*
X33049Y43097D01*
X33047Y43077D01*
X33039Y43059D01*
X33021Y42892D01*
X33021Y41368D01*
X33024Y41350D01*
X33022Y41333D01*
X33022Y41331D01*
X33022Y41329D01*
X33044Y41227D01*
X33061Y41125D01*
X33070Y41108D01*
X33074Y41088D01*
X33127Y40999D01*
X33176Y40908D01*
X33190Y40894D01*
X33200Y40877D01*
X33279Y40810D01*
X33354Y40739D01*
X33372Y40730D01*
X33387Y40717D01*
X33483Y40678D01*
X33577Y40635D01*
X33597Y40633D01*
X33615Y40625D01*
X33782Y40607D01*
X46561Y40607D01*
X46561Y37338D01*
X46564Y37318D01*
X46562Y37299D01*
X46584Y37197D01*
X46600Y37095D01*
X46610Y37078D01*
X46614Y37058D01*
X46667Y36969D01*
X46716Y36878D01*
X46730Y36864D01*
X46740Y36847D01*
X46819Y36780D01*
X46894Y36708D01*
X46912Y36700D01*
X46927Y36687D01*
X47023Y36648D01*
X47117Y36605D01*
X47137Y36603D01*
X47155Y36595D01*
X47322Y36577D01*
X59237Y36577D01*
X59327Y36591D01*
X59418Y36599D01*
X59447Y36611D01*
X59479Y36616D01*
X59560Y36659D01*
X59644Y36695D01*
X59676Y36721D01*
X59697Y36732D01*
X59719Y36755D01*
X59775Y36800D01*
X62572Y39597D01*
X66968Y39597D01*
X70077Y36488D01*
X70077Y32092D01*
X66968Y28983D01*
X62572Y28983D01*
G37*
%LPD*%
G36*
X489098Y10164D02*
X489098Y10164D01*
X489117Y10162D01*
X489219Y10184D01*
X489321Y10200D01*
X489338Y10210D01*
X489358Y10214D01*
X489447Y10267D01*
X489538Y10316D01*
X489552Y10330D01*
X489569Y10340D01*
X489636Y10419D01*
X489708Y10494D01*
X489716Y10512D01*
X489729Y10527D01*
X489768Y10623D01*
X489811Y10717D01*
X489813Y10737D01*
X489821Y10755D01*
X489839Y10922D01*
X489839Y29391D01*
X489838Y29399D01*
X489839Y29406D01*
X489818Y29520D01*
X489800Y29633D01*
X489796Y29640D01*
X489794Y29648D01*
X489738Y29749D01*
X489684Y29851D01*
X489679Y29856D01*
X489675Y29863D01*
X489590Y29941D01*
X489506Y30020D01*
X489499Y30024D01*
X489493Y30029D01*
X489387Y30075D01*
X489283Y30124D01*
X489275Y30125D01*
X489268Y30128D01*
X489153Y30138D01*
X489039Y30151D01*
X489031Y30149D01*
X489023Y30150D01*
X488910Y30123D01*
X488798Y30099D01*
X488791Y30095D01*
X488784Y30093D01*
X488685Y30031D01*
X488587Y29972D01*
X488582Y29966D01*
X488575Y29962D01*
X488462Y29838D01*
X487810Y28941D01*
X486679Y27810D01*
X485385Y26870D01*
X483960Y26144D01*
X482439Y25649D01*
X481583Y25514D01*
X481583Y34798D01*
X481580Y34818D01*
X481582Y34837D01*
X481560Y34939D01*
X481543Y35041D01*
X481534Y35058D01*
X481530Y35078D01*
X481477Y35167D01*
X481428Y35258D01*
X481414Y35272D01*
X481404Y35289D01*
X481325Y35356D01*
X481250Y35427D01*
X481232Y35436D01*
X481217Y35449D01*
X481121Y35487D01*
X481027Y35531D01*
X481007Y35533D01*
X480989Y35541D01*
X480822Y35559D01*
X480059Y35559D01*
X480059Y35561D01*
X480822Y35561D01*
X480842Y35564D01*
X480861Y35562D01*
X480963Y35584D01*
X481065Y35601D01*
X481082Y35610D01*
X481102Y35614D01*
X481191Y35667D01*
X481282Y35716D01*
X481296Y35730D01*
X481313Y35740D01*
X481380Y35819D01*
X481451Y35894D01*
X481460Y35912D01*
X481473Y35927D01*
X481512Y36023D01*
X481555Y36117D01*
X481557Y36137D01*
X481565Y36155D01*
X481583Y36322D01*
X481583Y45606D01*
X482439Y45471D01*
X483960Y44976D01*
X485385Y44250D01*
X486679Y43310D01*
X487810Y42179D01*
X488462Y41282D01*
X488468Y41276D01*
X488472Y41269D01*
X488555Y41190D01*
X488637Y41109D01*
X488644Y41105D01*
X488650Y41100D01*
X488754Y41051D01*
X488858Y41001D01*
X488866Y41000D01*
X488873Y40996D01*
X488987Y40984D01*
X489102Y40968D01*
X489110Y40970D01*
X489117Y40969D01*
X489230Y40994D01*
X489343Y41016D01*
X489350Y41020D01*
X489358Y41021D01*
X489457Y41081D01*
X489557Y41137D01*
X489562Y41143D01*
X489569Y41148D01*
X489644Y41235D01*
X489721Y41321D01*
X489724Y41328D01*
X489729Y41334D01*
X489772Y41441D01*
X489817Y41547D01*
X489818Y41555D01*
X489821Y41563D01*
X489839Y41729D01*
X489839Y56846D01*
X489824Y56942D01*
X489814Y57039D01*
X489804Y57063D01*
X489800Y57089D01*
X489754Y57175D01*
X489714Y57264D01*
X489697Y57283D01*
X489684Y57306D01*
X489614Y57373D01*
X489548Y57445D01*
X489525Y57457D01*
X489506Y57475D01*
X489418Y57516D01*
X489332Y57563D01*
X489307Y57568D01*
X489283Y57579D01*
X489186Y57590D01*
X489090Y57607D01*
X489064Y57603D01*
X489039Y57606D01*
X488943Y57585D01*
X488847Y57571D01*
X488824Y57559D01*
X488798Y57554D01*
X488715Y57504D01*
X488628Y57460D01*
X488609Y57441D01*
X488587Y57428D01*
X488524Y57354D01*
X488456Y57284D01*
X488440Y57256D01*
X488427Y57241D01*
X488415Y57210D01*
X488375Y57137D01*
X487813Y55780D01*
X485240Y53207D01*
X481879Y51815D01*
X478241Y51815D01*
X474880Y53207D01*
X473740Y54347D01*
X473682Y54389D01*
X473630Y54438D01*
X473583Y54460D01*
X473541Y54491D01*
X473472Y54512D01*
X473407Y54542D01*
X473355Y54548D01*
X473305Y54563D01*
X473234Y54561D01*
X473163Y54569D01*
X473112Y54558D01*
X473060Y54557D01*
X472992Y54532D01*
X472922Y54517D01*
X472877Y54490D01*
X472829Y54472D01*
X472773Y54427D01*
X472711Y54391D01*
X472677Y54351D01*
X472637Y54319D01*
X472598Y54258D01*
X472551Y54204D01*
X472532Y54155D01*
X472504Y54112D01*
X472486Y54042D01*
X472459Y53976D01*
X472451Y53904D01*
X472443Y53873D01*
X472445Y53850D01*
X472441Y53809D01*
X472441Y44078D01*
X472443Y44066D01*
X472441Y44054D01*
X472463Y43945D01*
X472480Y43835D01*
X472486Y43824D01*
X472488Y43813D01*
X472544Y43715D01*
X472596Y43618D01*
X472604Y43609D01*
X472610Y43599D01*
X472693Y43525D01*
X472774Y43448D01*
X472785Y43443D01*
X472794Y43435D01*
X472896Y43391D01*
X472997Y43345D01*
X473009Y43343D01*
X473020Y43339D01*
X473131Y43330D01*
X473241Y43317D01*
X473253Y43320D01*
X473265Y43319D01*
X473373Y43346D01*
X473482Y43370D01*
X473492Y43376D01*
X473504Y43379D01*
X473649Y43462D01*
X474735Y44250D01*
X476160Y44976D01*
X477681Y45471D01*
X478537Y45606D01*
X478537Y37083D01*
X470014Y37083D01*
X470064Y37401D01*
X470064Y37409D01*
X470066Y37416D01*
X470063Y37532D01*
X470063Y37647D01*
X470060Y37654D01*
X470060Y37662D01*
X470020Y37771D01*
X469983Y37879D01*
X469978Y37886D01*
X469976Y37893D01*
X469903Y37984D01*
X469834Y38075D01*
X469827Y38079D01*
X469822Y38085D01*
X469725Y38148D01*
X469629Y38212D01*
X469622Y38214D01*
X469615Y38218D01*
X469503Y38246D01*
X469392Y38277D01*
X469384Y38276D01*
X469377Y38278D01*
X469262Y38269D01*
X469147Y38263D01*
X469139Y38260D01*
X469131Y38259D01*
X469026Y38215D01*
X468918Y38171D01*
X468912Y38166D01*
X468905Y38163D01*
X468774Y38058D01*
X442176Y11460D01*
X442134Y11402D01*
X442085Y11350D01*
X442063Y11303D01*
X442033Y11261D01*
X442012Y11192D01*
X441981Y11127D01*
X441976Y11075D01*
X441960Y11025D01*
X441962Y10954D01*
X441954Y10883D01*
X441965Y10832D01*
X441967Y10780D01*
X441991Y10712D01*
X442006Y10642D01*
X442033Y10597D01*
X442051Y10549D01*
X442096Y10493D01*
X442133Y10431D01*
X442172Y10397D01*
X442205Y10357D01*
X442265Y10318D01*
X442320Y10271D01*
X442368Y10252D01*
X442412Y10224D01*
X442481Y10206D01*
X442548Y10179D01*
X442619Y10171D01*
X442650Y10163D01*
X442674Y10165D01*
X442714Y10161D01*
X489078Y10161D01*
X489098Y10164D01*
G37*
G36*
X200758Y22113D02*
X200758Y22113D01*
X200848Y22121D01*
X200878Y22133D01*
X200910Y22138D01*
X200991Y22181D01*
X201075Y22217D01*
X201107Y22243D01*
X201128Y22254D01*
X201150Y22277D01*
X201206Y22322D01*
X256598Y77714D01*
X256651Y77788D01*
X256711Y77858D01*
X256723Y77888D01*
X256742Y77914D01*
X256769Y78001D01*
X256803Y78086D01*
X256807Y78127D01*
X256814Y78149D01*
X256813Y78181D01*
X256821Y78253D01*
X256821Y82208D01*
X258657Y84044D01*
X258699Y84102D01*
X258748Y84154D01*
X258770Y84201D01*
X258800Y84243D01*
X258822Y84312D01*
X258852Y84377D01*
X258857Y84429D01*
X258873Y84479D01*
X258871Y84550D01*
X258879Y84621D01*
X258868Y84672D01*
X258866Y84724D01*
X258842Y84792D01*
X258827Y84862D01*
X258800Y84907D01*
X258782Y84955D01*
X258737Y85011D01*
X258700Y85073D01*
X258661Y85107D01*
X258628Y85147D01*
X258568Y85186D01*
X258513Y85233D01*
X258465Y85252D01*
X258421Y85280D01*
X258352Y85298D01*
X258285Y85325D01*
X258214Y85333D01*
X258183Y85341D01*
X258160Y85339D01*
X258119Y85343D01*
X238705Y85343D01*
X238635Y85332D01*
X238563Y85330D01*
X238514Y85312D01*
X238463Y85304D01*
X238399Y85270D01*
X238332Y85245D01*
X238291Y85213D01*
X238245Y85188D01*
X238196Y85136D01*
X238140Y85092D01*
X238112Y85048D01*
X238076Y85010D01*
X238046Y84945D01*
X238007Y84885D01*
X237994Y84834D01*
X237972Y84787D01*
X237964Y84716D01*
X237947Y84646D01*
X237951Y84594D01*
X237945Y84543D01*
X237960Y84472D01*
X237966Y84401D01*
X237986Y84353D01*
X237997Y84302D01*
X238034Y84241D01*
X238062Y84175D01*
X238107Y84119D01*
X238124Y84091D01*
X238141Y84076D01*
X238167Y84044D01*
X238479Y83732D01*
X238479Y79336D01*
X235682Y76539D01*
X235629Y76465D01*
X235569Y76395D01*
X235557Y76365D01*
X235538Y76339D01*
X235511Y76252D01*
X235477Y76167D01*
X235473Y76126D01*
X235466Y76104D01*
X235467Y76072D01*
X235459Y76001D01*
X235459Y63823D01*
X231071Y59435D01*
X226815Y59435D01*
X226724Y59421D01*
X226634Y59413D01*
X226604Y59401D01*
X226572Y59396D01*
X226491Y59353D01*
X226407Y59317D01*
X226375Y59291D01*
X226354Y59280D01*
X226332Y59257D01*
X226276Y59212D01*
X193733Y26669D01*
X179647Y26669D01*
X178084Y28232D01*
X173489Y32827D01*
X173473Y32839D01*
X173460Y32855D01*
X173373Y32911D01*
X173289Y32971D01*
X173270Y32977D01*
X173253Y32988D01*
X173153Y33013D01*
X173054Y33043D01*
X173034Y33043D01*
X173015Y33048D01*
X172912Y33040D01*
X172808Y33037D01*
X172789Y33030D01*
X172769Y33028D01*
X172675Y32988D01*
X172577Y32952D01*
X172561Y32940D01*
X172543Y32932D01*
X172412Y32827D01*
X170857Y31272D01*
X170846Y31256D01*
X170830Y31244D01*
X170774Y31156D01*
X170714Y31073D01*
X170708Y31054D01*
X170697Y31037D01*
X170672Y30936D01*
X170641Y30837D01*
X170642Y30818D01*
X170637Y30798D01*
X170645Y30695D01*
X170648Y30592D01*
X170654Y30573D01*
X170656Y30553D01*
X170696Y30458D01*
X170732Y30361D01*
X170745Y30345D01*
X170752Y30327D01*
X170828Y30232D01*
X170833Y30224D01*
X170839Y30219D01*
X170857Y30196D01*
X172947Y28106D01*
X172947Y23710D01*
X172635Y23398D01*
X172593Y23340D01*
X172544Y23288D01*
X172522Y23241D01*
X172492Y23199D01*
X172470Y23130D01*
X172440Y23065D01*
X172435Y23013D01*
X172419Y22963D01*
X172421Y22892D01*
X172413Y22821D01*
X172424Y22770D01*
X172426Y22718D01*
X172450Y22650D01*
X172465Y22580D01*
X172492Y22535D01*
X172510Y22487D01*
X172555Y22431D01*
X172592Y22369D01*
X172631Y22335D01*
X172664Y22295D01*
X172724Y22256D01*
X172779Y22209D01*
X172827Y22190D01*
X172871Y22162D01*
X172940Y22144D01*
X173007Y22117D01*
X173078Y22109D01*
X173109Y22101D01*
X173132Y22103D01*
X173173Y22099D01*
X200667Y22099D01*
X200758Y22113D01*
G37*
%LPC*%
G36*
X443868Y176275D02*
X443868Y176275D01*
X442975Y177168D01*
X442975Y186052D01*
X443868Y186945D01*
X460372Y186945D01*
X461265Y186052D01*
X461265Y177168D01*
X460372Y176275D01*
X443868Y176275D01*
G37*
%LPD*%
%LPC*%
G36*
X443868Y138175D02*
X443868Y138175D01*
X442975Y139068D01*
X442975Y147952D01*
X443868Y148845D01*
X460372Y148845D01*
X461265Y147952D01*
X461265Y139068D01*
X460372Y138175D01*
X443868Y138175D01*
G37*
%LPD*%
%LPC*%
G36*
X117858Y123555D02*
X117858Y123555D01*
X116965Y124448D01*
X116965Y139712D01*
X117858Y140605D01*
X126622Y140605D01*
X127515Y139712D01*
X127515Y124448D01*
X126622Y123555D01*
X117858Y123555D01*
G37*
%LPD*%
%LPC*%
G36*
X433708Y54355D02*
X433708Y54355D01*
X432815Y55248D01*
X432815Y69212D01*
X433708Y70105D01*
X440052Y70105D01*
X440945Y69212D01*
X440945Y55248D01*
X440052Y54355D01*
X433708Y54355D01*
G37*
%LPD*%
%LPC*%
G36*
X446408Y54355D02*
X446408Y54355D01*
X445515Y55248D01*
X445515Y69212D01*
X446408Y70105D01*
X452752Y70105D01*
X453645Y69212D01*
X453645Y55248D01*
X452752Y54355D01*
X446408Y54355D01*
G37*
%LPD*%
%LPC*%
G36*
X446408Y102615D02*
X446408Y102615D01*
X445515Y103508D01*
X445515Y117472D01*
X446408Y118365D01*
X452752Y118365D01*
X453645Y117472D01*
X453645Y103508D01*
X452752Y102615D01*
X446408Y102615D01*
G37*
%LPD*%
%LPC*%
G36*
X433708Y102615D02*
X433708Y102615D01*
X432815Y103508D01*
X432815Y117472D01*
X433708Y118365D01*
X440052Y118365D01*
X440945Y117472D01*
X440945Y103508D01*
X440052Y102615D01*
X433708Y102615D01*
G37*
%LPD*%
%LPC*%
G36*
X34543Y71153D02*
X34543Y71153D01*
X34543Y77421D01*
X44354Y77421D01*
X45001Y77248D01*
X45580Y76913D01*
X46053Y76440D01*
X46388Y75861D01*
X46561Y75214D01*
X46561Y71153D01*
X34543Y71153D01*
G37*
%LPD*%
%LPC*%
G36*
X19479Y71153D02*
X19479Y71153D01*
X19479Y75214D01*
X19652Y75861D01*
X19987Y76440D01*
X20460Y76913D01*
X21039Y77248D01*
X21686Y77421D01*
X31497Y77421D01*
X31497Y71153D01*
X19479Y71153D01*
G37*
%LPD*%
%LPC*%
G36*
X477681Y25649D02*
X477681Y25649D01*
X476160Y26144D01*
X474735Y26870D01*
X473441Y27810D01*
X472310Y28941D01*
X471370Y30235D01*
X470644Y31660D01*
X470149Y33181D01*
X470014Y34037D01*
X478537Y34037D01*
X478537Y25514D01*
X477681Y25649D01*
G37*
%LPD*%
%LPC*%
G36*
X397763Y183133D02*
X397763Y183133D01*
X397763Y187961D01*
X404194Y187961D01*
X404841Y187788D01*
X405420Y187453D01*
X405893Y186980D01*
X406228Y186401D01*
X406401Y185754D01*
X406401Y183133D01*
X397763Y183133D01*
G37*
%LPD*%
%LPC*%
G36*
X386079Y183133D02*
X386079Y183133D01*
X386079Y185754D01*
X386252Y186401D01*
X386587Y186980D01*
X387060Y187453D01*
X387639Y187788D01*
X388286Y187961D01*
X394717Y187961D01*
X394717Y183133D01*
X386079Y183133D01*
G37*
%LPD*%
%LPC*%
G36*
X397763Y175259D02*
X397763Y175259D01*
X397763Y180087D01*
X406401Y180087D01*
X406401Y177465D01*
X406228Y176819D01*
X405893Y176240D01*
X405420Y175767D01*
X404841Y175432D01*
X404194Y175259D01*
X397763Y175259D01*
G37*
%LPD*%
%LPC*%
G36*
X166043Y128523D02*
X166043Y128523D01*
X166043Y138177D01*
X170161Y138177D01*
X170161Y136265D01*
X169988Y135619D01*
X169653Y135040D01*
X169180Y134567D01*
X168601Y134232D01*
X168052Y134085D01*
X168008Y134066D01*
X167961Y134055D01*
X167897Y134015D01*
X167827Y133984D01*
X167792Y133951D01*
X167751Y133926D01*
X167703Y133868D01*
X167647Y133817D01*
X167624Y133775D01*
X167594Y133738D01*
X167566Y133667D01*
X167530Y133601D01*
X167522Y133553D01*
X167504Y133509D01*
X167501Y133433D01*
X167487Y133358D01*
X167495Y133311D01*
X167492Y133263D01*
X167513Y133190D01*
X167525Y133115D01*
X167547Y133072D01*
X167560Y133026D01*
X167602Y132964D01*
X167637Y132897D01*
X167672Y132863D01*
X167699Y132824D01*
X167759Y132778D01*
X167814Y132725D01*
X167857Y132705D01*
X167895Y132676D01*
X168016Y132629D01*
X168036Y132619D01*
X168042Y132618D01*
X168052Y132615D01*
X168601Y132468D01*
X169180Y132133D01*
X169653Y131660D01*
X169988Y131081D01*
X170161Y130434D01*
X170161Y128523D01*
X166043Y128523D01*
G37*
%LPD*%
%LPC*%
G36*
X96539Y103123D02*
X96539Y103123D01*
X96539Y105034D01*
X96712Y105681D01*
X97047Y106260D01*
X97520Y106733D01*
X98099Y107068D01*
X98648Y107215D01*
X98692Y107234D01*
X98739Y107245D01*
X98803Y107285D01*
X98873Y107316D01*
X98908Y107349D01*
X98949Y107374D01*
X98997Y107432D01*
X99053Y107483D01*
X99076Y107526D01*
X99106Y107562D01*
X99134Y107633D01*
X99170Y107699D01*
X99178Y107747D01*
X99196Y107791D01*
X99199Y107867D01*
X99213Y107942D01*
X99205Y107989D01*
X99208Y108037D01*
X99187Y108110D01*
X99175Y108185D01*
X99153Y108227D01*
X99140Y108274D01*
X99097Y108336D01*
X99063Y108404D01*
X99028Y108437D01*
X99001Y108476D01*
X98941Y108522D01*
X98886Y108575D01*
X98843Y108596D01*
X98805Y108624D01*
X98685Y108671D01*
X98664Y108681D01*
X98658Y108682D01*
X98648Y108685D01*
X98099Y108832D01*
X97520Y109167D01*
X97047Y109640D01*
X96712Y110219D01*
X96539Y110866D01*
X96539Y112777D01*
X100657Y112777D01*
X100657Y103123D01*
X96539Y103123D01*
G37*
%LPD*%
%LPC*%
G36*
X400049Y111759D02*
X400049Y111759D01*
X400049Y119381D01*
X401654Y119381D01*
X402301Y119208D01*
X402880Y118873D01*
X403353Y118400D01*
X403688Y117821D01*
X403861Y117174D01*
X403861Y111759D01*
X400049Y111759D01*
G37*
%LPD*%
%LPC*%
G36*
X400049Y101599D02*
X400049Y101599D01*
X400049Y109221D01*
X403861Y109221D01*
X403861Y103806D01*
X403688Y103159D01*
X403353Y102580D01*
X402880Y102107D01*
X402301Y101772D01*
X401654Y101599D01*
X400049Y101599D01*
G37*
%LPD*%
%LPC*%
G36*
X393699Y111759D02*
X393699Y111759D01*
X393699Y117174D01*
X393872Y117821D01*
X394207Y118400D01*
X394680Y118873D01*
X395259Y119208D01*
X395906Y119381D01*
X397511Y119381D01*
X397511Y111759D01*
X393699Y111759D01*
G37*
%LPD*%
%LPC*%
G36*
X395906Y101599D02*
X395906Y101599D01*
X395259Y101772D01*
X394680Y102107D01*
X394207Y102580D01*
X393872Y103159D01*
X393699Y103806D01*
X393699Y109221D01*
X397511Y109221D01*
X397511Y101599D01*
X395906Y101599D01*
G37*
%LPD*%
%LPC*%
G36*
X166043Y141223D02*
X166043Y141223D01*
X166043Y145341D01*
X167954Y145341D01*
X168601Y145168D01*
X169180Y144833D01*
X169653Y144360D01*
X169988Y143781D01*
X170161Y143134D01*
X170161Y141223D01*
X166043Y141223D01*
G37*
%LPD*%
%LPC*%
G36*
X212817Y156745D02*
X212817Y156745D01*
X212817Y160863D01*
X214728Y160863D01*
X215375Y160690D01*
X215954Y160355D01*
X216427Y159882D01*
X216762Y159303D01*
X216935Y158656D01*
X216935Y156745D01*
X212817Y156745D01*
G37*
%LPD*%
%LPC*%
G36*
X96539Y115823D02*
X96539Y115823D01*
X96539Y117734D01*
X96712Y118381D01*
X97047Y118960D01*
X97520Y119433D01*
X98099Y119768D01*
X98746Y119941D01*
X100657Y119941D01*
X100657Y115823D01*
X96539Y115823D01*
G37*
%LPD*%
%LPC*%
G36*
X213541Y162507D02*
X213541Y162507D01*
X213541Y166625D01*
X217659Y166625D01*
X217659Y164713D01*
X217486Y164067D01*
X217151Y163488D01*
X216678Y163015D01*
X216099Y162680D01*
X215452Y162507D01*
X213541Y162507D01*
G37*
%LPD*%
%LPC*%
G36*
X98746Y95959D02*
X98746Y95959D01*
X98099Y96132D01*
X97520Y96467D01*
X97047Y96940D01*
X96712Y97519D01*
X96539Y98166D01*
X96539Y100077D01*
X100657Y100077D01*
X100657Y95959D01*
X98746Y95959D01*
G37*
%LPD*%
%LPC*%
G36*
X158001Y152559D02*
X158001Y152559D01*
X160981Y152559D01*
X160791Y151849D01*
X160289Y150980D01*
X159580Y150271D01*
X158711Y149769D01*
X158001Y149579D01*
X158001Y152559D01*
G37*
%LPD*%
%LPC*%
G36*
X396239Y181609D02*
X396239Y181609D01*
X396239Y181611D01*
X396241Y181611D01*
X396241Y181609D01*
X396239Y181609D01*
G37*
%LPD*%
D10*
X500000Y200000D02*
X500000Y253180D01*
X0Y253180D02*
X0Y200000D01*
X650Y233680D02*
X499350Y233680D01*
X474000Y236872D01*
X474000Y230488D01*
X499350Y233680D01*
X474000Y234980D01*
X474000Y232380D02*
X499350Y233680D01*
X474000Y236280D01*
X474000Y231080D02*
X499350Y233680D01*
X26000Y236872D02*
X650Y233680D01*
X26000Y236872D02*
X26000Y230488D01*
X650Y233680D01*
X26000Y234980D01*
X26000Y232380D02*
X650Y233680D01*
X26000Y236280D01*
X26000Y231080D02*
X650Y233680D01*
D11*
X218941Y240187D02*
X224360Y240187D01*
X224478Y240189D01*
X224596Y240195D01*
X224714Y240204D01*
X224831Y240218D01*
X224948Y240235D01*
X225065Y240256D01*
X225180Y240281D01*
X225295Y240310D01*
X225409Y240343D01*
X225521Y240379D01*
X225632Y240419D01*
X225742Y240462D01*
X225851Y240509D01*
X225958Y240559D01*
X226063Y240614D01*
X226166Y240671D01*
X226267Y240732D01*
X226367Y240796D01*
X226464Y240863D01*
X226559Y240933D01*
X226651Y241007D01*
X226742Y241083D01*
X226829Y241163D01*
X226914Y241245D01*
X226996Y241330D01*
X227076Y241417D01*
X227152Y241508D01*
X227226Y241600D01*
X227296Y241695D01*
X227363Y241792D01*
X227427Y241892D01*
X227488Y241993D01*
X227545Y242096D01*
X227600Y242201D01*
X227650Y242308D01*
X227697Y242417D01*
X227740Y242527D01*
X227780Y242638D01*
X227816Y242750D01*
X227849Y242864D01*
X227878Y242979D01*
X227903Y243094D01*
X227924Y243211D01*
X227941Y243328D01*
X227955Y243445D01*
X227964Y243563D01*
X227970Y243681D01*
X227972Y243799D01*
X227972Y245606D01*
X227970Y245724D01*
X227964Y245842D01*
X227955Y245960D01*
X227941Y246077D01*
X227924Y246194D01*
X227903Y246311D01*
X227878Y246426D01*
X227849Y246541D01*
X227816Y246655D01*
X227780Y246767D01*
X227740Y246878D01*
X227697Y246988D01*
X227650Y247097D01*
X227600Y247204D01*
X227545Y247309D01*
X227488Y247412D01*
X227427Y247513D01*
X227363Y247613D01*
X227296Y247710D01*
X227226Y247805D01*
X227152Y247897D01*
X227076Y247988D01*
X226996Y248075D01*
X226914Y248160D01*
X226829Y248242D01*
X226742Y248322D01*
X226651Y248398D01*
X226559Y248472D01*
X226464Y248542D01*
X226367Y248609D01*
X226267Y248673D01*
X226166Y248734D01*
X226063Y248791D01*
X225958Y248846D01*
X225851Y248896D01*
X225742Y248943D01*
X225632Y248986D01*
X225521Y249026D01*
X225409Y249062D01*
X225295Y249095D01*
X225180Y249124D01*
X225065Y249149D01*
X224948Y249170D01*
X224831Y249187D01*
X224714Y249201D01*
X224596Y249210D01*
X224478Y249216D01*
X224360Y249218D01*
X218941Y249218D01*
X218941Y256443D01*
X227972Y256443D01*
X235928Y254185D02*
X235791Y253896D01*
X235661Y253604D01*
X235538Y253308D01*
X235423Y253010D01*
X235314Y252709D01*
X235213Y252406D01*
X235119Y252100D01*
X235032Y251793D01*
X234953Y251483D01*
X234881Y251171D01*
X234817Y250858D01*
X234760Y250543D01*
X234710Y250227D01*
X234668Y249910D01*
X234634Y249592D01*
X234607Y249274D01*
X234588Y248954D01*
X234577Y248635D01*
X234573Y248315D01*
X235927Y254186D02*
X235966Y254294D01*
X236009Y254401D01*
X236055Y254506D01*
X236106Y254610D01*
X236159Y254712D01*
X236216Y254812D01*
X236277Y254910D01*
X236341Y255005D01*
X236408Y255099D01*
X236479Y255190D01*
X236552Y255279D01*
X236629Y255365D01*
X236708Y255448D01*
X236790Y255529D01*
X236875Y255607D01*
X236963Y255681D01*
X237053Y255753D01*
X237145Y255821D01*
X237240Y255887D01*
X237337Y255949D01*
X237436Y256007D01*
X237538Y256063D01*
X237640Y256114D01*
X237745Y256162D01*
X237851Y256207D01*
X237959Y256248D01*
X238068Y256285D01*
X238178Y256318D01*
X238290Y256347D01*
X238402Y256373D01*
X238515Y256395D01*
X238629Y256412D01*
X238743Y256426D01*
X238858Y256436D01*
X238973Y256442D01*
X239088Y256444D01*
X239088Y256443D02*
X239203Y256441D01*
X239318Y256435D01*
X239433Y256425D01*
X239547Y256411D01*
X239661Y256394D01*
X239774Y256372D01*
X239886Y256346D01*
X239998Y256317D01*
X240108Y256284D01*
X240217Y256247D01*
X240325Y256206D01*
X240431Y256161D01*
X240536Y256113D01*
X240638Y256062D01*
X240739Y256006D01*
X240839Y255948D01*
X240936Y255886D01*
X241030Y255821D01*
X241123Y255752D01*
X241213Y255680D01*
X241301Y255606D01*
X241386Y255528D01*
X241468Y255447D01*
X241547Y255364D01*
X241624Y255278D01*
X241697Y255189D01*
X241768Y255098D01*
X241835Y255004D01*
X241899Y254909D01*
X241960Y254811D01*
X242017Y254711D01*
X242070Y254609D01*
X242121Y254505D01*
X242167Y254400D01*
X242210Y254293D01*
X242249Y254185D01*
X242248Y254185D02*
X242385Y253896D01*
X242515Y253604D01*
X242638Y253308D01*
X242753Y253010D01*
X242862Y252709D01*
X242963Y252406D01*
X243057Y252100D01*
X243144Y251793D01*
X243223Y251483D01*
X243295Y251171D01*
X243359Y250858D01*
X243416Y250543D01*
X243466Y250227D01*
X243508Y249910D01*
X243542Y249592D01*
X243569Y249274D01*
X243588Y248954D01*
X243599Y248635D01*
X243603Y248315D01*
X234573Y248315D02*
X234577Y247995D01*
X234588Y247676D01*
X234607Y247356D01*
X234634Y247038D01*
X234668Y246720D01*
X234710Y246403D01*
X234760Y246087D01*
X234817Y245772D01*
X234881Y245459D01*
X234953Y245147D01*
X235032Y244837D01*
X235119Y244530D01*
X235213Y244224D01*
X235314Y243921D01*
X235423Y243620D01*
X235538Y243322D01*
X235661Y243026D01*
X235791Y242734D01*
X235928Y242445D01*
X235927Y242445D02*
X235966Y242337D01*
X236009Y242230D01*
X236055Y242125D01*
X236106Y242021D01*
X236159Y241919D01*
X236216Y241819D01*
X236277Y241721D01*
X236341Y241626D01*
X236408Y241532D01*
X236479Y241441D01*
X236552Y241352D01*
X236629Y241266D01*
X236708Y241183D01*
X236790Y241102D01*
X236875Y241024D01*
X236963Y240950D01*
X237053Y240878D01*
X237146Y240809D01*
X237240Y240744D01*
X237337Y240682D01*
X237437Y240624D01*
X237538Y240568D01*
X237640Y240517D01*
X237745Y240469D01*
X237851Y240424D01*
X237959Y240383D01*
X238068Y240346D01*
X238178Y240313D01*
X238290Y240284D01*
X238402Y240258D01*
X238515Y240236D01*
X238629Y240219D01*
X238743Y240205D01*
X238858Y240195D01*
X238973Y240189D01*
X239088Y240187D01*
X242248Y242445D02*
X242385Y242734D01*
X242515Y243026D01*
X242638Y243322D01*
X242753Y243620D01*
X242862Y243921D01*
X242963Y244224D01*
X243057Y244530D01*
X243144Y244837D01*
X243223Y245147D01*
X243295Y245459D01*
X243359Y245772D01*
X243416Y246087D01*
X243466Y246403D01*
X243508Y246720D01*
X243542Y247038D01*
X243569Y247356D01*
X243588Y247676D01*
X243599Y247995D01*
X243603Y248315D01*
X242249Y242445D02*
X242210Y242337D01*
X242167Y242230D01*
X242121Y242125D01*
X242070Y242021D01*
X242017Y241919D01*
X241960Y241819D01*
X241899Y241721D01*
X241835Y241626D01*
X241768Y241532D01*
X241697Y241441D01*
X241624Y241352D01*
X241547Y241266D01*
X241468Y241183D01*
X241386Y241102D01*
X241301Y241024D01*
X241213Y240950D01*
X241123Y240878D01*
X241030Y240809D01*
X240936Y240744D01*
X240839Y240682D01*
X240739Y240624D01*
X240638Y240568D01*
X240535Y240517D01*
X240431Y240469D01*
X240325Y240424D01*
X240217Y240383D01*
X240108Y240346D01*
X239998Y240313D01*
X239886Y240284D01*
X239774Y240258D01*
X239661Y240236D01*
X239547Y240219D01*
X239433Y240205D01*
X239318Y240195D01*
X239203Y240189D01*
X239088Y240187D01*
X235476Y243799D02*
X242701Y252831D01*
X249578Y241090D02*
X249578Y240187D01*
X249578Y241090D02*
X250481Y241090D01*
X250481Y240187D01*
X249578Y240187D01*
X256456Y248315D02*
X256460Y248635D01*
X256471Y248954D01*
X256490Y249274D01*
X256517Y249592D01*
X256551Y249910D01*
X256593Y250227D01*
X256643Y250543D01*
X256700Y250858D01*
X256764Y251171D01*
X256836Y251483D01*
X256915Y251793D01*
X257002Y252100D01*
X257096Y252406D01*
X257197Y252709D01*
X257306Y253010D01*
X257421Y253308D01*
X257544Y253604D01*
X257674Y253896D01*
X257811Y254185D01*
X257811Y254186D02*
X257850Y254294D01*
X257893Y254401D01*
X257939Y254506D01*
X257990Y254610D01*
X258043Y254712D01*
X258100Y254812D01*
X258161Y254910D01*
X258225Y255005D01*
X258292Y255099D01*
X258363Y255190D01*
X258436Y255279D01*
X258513Y255365D01*
X258592Y255448D01*
X258674Y255529D01*
X258759Y255607D01*
X258847Y255681D01*
X258937Y255753D01*
X259029Y255821D01*
X259124Y255887D01*
X259221Y255949D01*
X259320Y256007D01*
X259422Y256063D01*
X259524Y256114D01*
X259629Y256162D01*
X259735Y256207D01*
X259843Y256248D01*
X259952Y256285D01*
X260062Y256318D01*
X260174Y256347D01*
X260286Y256373D01*
X260399Y256395D01*
X260513Y256412D01*
X260627Y256426D01*
X260742Y256436D01*
X260857Y256442D01*
X260972Y256444D01*
X260972Y256443D02*
X261087Y256441D01*
X261202Y256435D01*
X261317Y256425D01*
X261431Y256411D01*
X261545Y256394D01*
X261658Y256372D01*
X261770Y256346D01*
X261882Y256317D01*
X261992Y256284D01*
X262101Y256247D01*
X262209Y256206D01*
X262315Y256161D01*
X262420Y256113D01*
X262522Y256062D01*
X262623Y256006D01*
X262723Y255948D01*
X262820Y255886D01*
X262914Y255821D01*
X263007Y255752D01*
X263097Y255680D01*
X263185Y255606D01*
X263270Y255528D01*
X263352Y255447D01*
X263431Y255364D01*
X263508Y255278D01*
X263581Y255189D01*
X263652Y255098D01*
X263719Y255004D01*
X263783Y254909D01*
X263844Y254811D01*
X263901Y254711D01*
X263954Y254609D01*
X264005Y254505D01*
X264051Y254400D01*
X264094Y254293D01*
X264133Y254185D01*
X264132Y254185D02*
X264269Y253896D01*
X264399Y253604D01*
X264522Y253308D01*
X264637Y253010D01*
X264746Y252709D01*
X264847Y252406D01*
X264941Y252100D01*
X265028Y251793D01*
X265107Y251483D01*
X265179Y251171D01*
X265243Y250858D01*
X265300Y250543D01*
X265350Y250227D01*
X265392Y249910D01*
X265426Y249592D01*
X265453Y249274D01*
X265472Y248954D01*
X265483Y248635D01*
X265487Y248315D01*
X256457Y248315D02*
X256461Y247995D01*
X256472Y247676D01*
X256491Y247356D01*
X256518Y247038D01*
X256552Y246720D01*
X256594Y246403D01*
X256644Y246087D01*
X256701Y245772D01*
X256765Y245459D01*
X256837Y245147D01*
X256916Y244837D01*
X257003Y244530D01*
X257097Y244224D01*
X257198Y243921D01*
X257307Y243620D01*
X257422Y243322D01*
X257545Y243026D01*
X257675Y242734D01*
X257812Y242445D01*
X257811Y242445D02*
X257850Y242337D01*
X257893Y242230D01*
X257939Y242125D01*
X257990Y242021D01*
X258043Y241919D01*
X258100Y241819D01*
X258161Y241721D01*
X258225Y241626D01*
X258292Y241532D01*
X258363Y241441D01*
X258436Y241352D01*
X258513Y241266D01*
X258592Y241183D01*
X258674Y241102D01*
X258759Y241024D01*
X258847Y240950D01*
X258937Y240878D01*
X259030Y240809D01*
X259124Y240744D01*
X259221Y240682D01*
X259321Y240624D01*
X259422Y240568D01*
X259524Y240517D01*
X259629Y240469D01*
X259735Y240424D01*
X259843Y240383D01*
X259952Y240346D01*
X260062Y240313D01*
X260174Y240284D01*
X260286Y240258D01*
X260399Y240236D01*
X260513Y240219D01*
X260627Y240205D01*
X260742Y240195D01*
X260857Y240189D01*
X260972Y240187D01*
X264132Y242445D02*
X264269Y242734D01*
X264399Y243026D01*
X264522Y243322D01*
X264637Y243620D01*
X264746Y243921D01*
X264847Y244224D01*
X264941Y244530D01*
X265028Y244837D01*
X265107Y245147D01*
X265179Y245459D01*
X265243Y245772D01*
X265300Y246087D01*
X265350Y246403D01*
X265392Y246720D01*
X265426Y247038D01*
X265453Y247356D01*
X265472Y247676D01*
X265483Y247995D01*
X265487Y248315D01*
X264133Y242445D02*
X264094Y242337D01*
X264051Y242230D01*
X264005Y242125D01*
X263954Y242021D01*
X263901Y241919D01*
X263844Y241819D01*
X263783Y241721D01*
X263719Y241626D01*
X263652Y241532D01*
X263581Y241441D01*
X263508Y241352D01*
X263431Y241266D01*
X263352Y241183D01*
X263270Y241102D01*
X263185Y241024D01*
X263097Y240950D01*
X263007Y240878D01*
X262914Y240809D01*
X262820Y240744D01*
X262723Y240682D01*
X262623Y240624D01*
X262522Y240568D01*
X262419Y240517D01*
X262315Y240469D01*
X262209Y240424D01*
X262101Y240383D01*
X261992Y240346D01*
X261882Y240313D01*
X261770Y240284D01*
X261658Y240258D01*
X261545Y240236D01*
X261431Y240219D01*
X261317Y240205D01*
X261202Y240195D01*
X261087Y240189D01*
X260972Y240187D01*
X257359Y243799D02*
X264584Y252831D01*
X272088Y248315D02*
X272092Y248635D01*
X272103Y248954D01*
X272122Y249274D01*
X272149Y249592D01*
X272183Y249910D01*
X272225Y250227D01*
X272275Y250543D01*
X272332Y250858D01*
X272396Y251171D01*
X272468Y251483D01*
X272547Y251793D01*
X272634Y252100D01*
X272728Y252406D01*
X272829Y252709D01*
X272938Y253010D01*
X273053Y253308D01*
X273176Y253604D01*
X273306Y253896D01*
X273443Y254185D01*
X273442Y254186D02*
X273481Y254294D01*
X273524Y254401D01*
X273570Y254506D01*
X273621Y254610D01*
X273674Y254712D01*
X273731Y254812D01*
X273792Y254910D01*
X273856Y255005D01*
X273923Y255099D01*
X273994Y255190D01*
X274067Y255279D01*
X274144Y255365D01*
X274223Y255448D01*
X274305Y255529D01*
X274390Y255607D01*
X274478Y255681D01*
X274568Y255753D01*
X274660Y255821D01*
X274755Y255887D01*
X274852Y255949D01*
X274951Y256007D01*
X275053Y256063D01*
X275155Y256114D01*
X275260Y256162D01*
X275366Y256207D01*
X275474Y256248D01*
X275583Y256285D01*
X275693Y256318D01*
X275805Y256347D01*
X275917Y256373D01*
X276030Y256395D01*
X276144Y256412D01*
X276258Y256426D01*
X276373Y256436D01*
X276488Y256442D01*
X276603Y256444D01*
X276603Y256443D02*
X276718Y256441D01*
X276833Y256435D01*
X276948Y256425D01*
X277062Y256411D01*
X277176Y256394D01*
X277289Y256372D01*
X277401Y256346D01*
X277513Y256317D01*
X277623Y256284D01*
X277732Y256247D01*
X277840Y256206D01*
X277946Y256161D01*
X278051Y256113D01*
X278153Y256062D01*
X278254Y256006D01*
X278354Y255948D01*
X278451Y255886D01*
X278545Y255821D01*
X278638Y255752D01*
X278728Y255680D01*
X278816Y255606D01*
X278901Y255528D01*
X278983Y255447D01*
X279062Y255364D01*
X279139Y255278D01*
X279212Y255189D01*
X279283Y255098D01*
X279350Y255004D01*
X279414Y254909D01*
X279475Y254811D01*
X279532Y254711D01*
X279585Y254609D01*
X279636Y254505D01*
X279682Y254400D01*
X279725Y254293D01*
X279764Y254185D01*
X279763Y254185D02*
X279900Y253896D01*
X280030Y253604D01*
X280153Y253308D01*
X280268Y253010D01*
X280377Y252709D01*
X280478Y252406D01*
X280572Y252100D01*
X280659Y251793D01*
X280738Y251483D01*
X280810Y251171D01*
X280874Y250858D01*
X280931Y250543D01*
X280981Y250227D01*
X281023Y249910D01*
X281057Y249592D01*
X281084Y249274D01*
X281103Y248954D01*
X281114Y248635D01*
X281118Y248315D01*
X272088Y248315D02*
X272092Y247995D01*
X272103Y247676D01*
X272122Y247356D01*
X272149Y247038D01*
X272183Y246720D01*
X272225Y246403D01*
X272275Y246087D01*
X272332Y245772D01*
X272396Y245459D01*
X272468Y245147D01*
X272547Y244837D01*
X272634Y244530D01*
X272728Y244224D01*
X272829Y243921D01*
X272938Y243620D01*
X273053Y243322D01*
X273176Y243026D01*
X273306Y242734D01*
X273443Y242445D01*
X273442Y242445D02*
X273481Y242337D01*
X273524Y242230D01*
X273570Y242125D01*
X273621Y242021D01*
X273674Y241919D01*
X273731Y241819D01*
X273792Y241721D01*
X273856Y241626D01*
X273923Y241532D01*
X273994Y241441D01*
X274067Y241352D01*
X274144Y241266D01*
X274223Y241183D01*
X274305Y241102D01*
X274390Y241024D01*
X274478Y240950D01*
X274568Y240878D01*
X274661Y240809D01*
X274755Y240744D01*
X274852Y240682D01*
X274952Y240624D01*
X275053Y240568D01*
X275155Y240517D01*
X275260Y240469D01*
X275366Y240424D01*
X275474Y240383D01*
X275583Y240346D01*
X275693Y240313D01*
X275805Y240284D01*
X275917Y240258D01*
X276030Y240236D01*
X276144Y240219D01*
X276258Y240205D01*
X276373Y240195D01*
X276488Y240189D01*
X276603Y240187D01*
X279763Y242445D02*
X279900Y242734D01*
X280030Y243026D01*
X280153Y243322D01*
X280268Y243620D01*
X280377Y243921D01*
X280478Y244224D01*
X280572Y244530D01*
X280659Y244837D01*
X280738Y245147D01*
X280810Y245459D01*
X280874Y245772D01*
X280931Y246087D01*
X280981Y246403D01*
X281023Y246720D01*
X281057Y247038D01*
X281084Y247356D01*
X281103Y247676D01*
X281114Y247995D01*
X281118Y248315D01*
X279764Y242445D02*
X279725Y242337D01*
X279682Y242230D01*
X279636Y242125D01*
X279585Y242021D01*
X279532Y241919D01*
X279475Y241819D01*
X279414Y241721D01*
X279350Y241626D01*
X279283Y241532D01*
X279212Y241441D01*
X279139Y241352D01*
X279062Y241266D01*
X278983Y241183D01*
X278901Y241102D01*
X278816Y241024D01*
X278728Y240950D01*
X278638Y240878D01*
X278545Y240809D01*
X278451Y240744D01*
X278354Y240682D01*
X278254Y240624D01*
X278153Y240568D01*
X278050Y240517D01*
X277946Y240469D01*
X277840Y240424D01*
X277732Y240383D01*
X277623Y240346D01*
X277513Y240313D01*
X277401Y240284D01*
X277289Y240258D01*
X277176Y240236D01*
X277062Y240219D01*
X276948Y240205D01*
X276833Y240195D01*
X276718Y240189D01*
X276603Y240187D01*
X272991Y243799D02*
X280215Y252831D01*
D10*
X0Y200000D02*
X-83000Y200000D01*
X-83000Y0D02*
X0Y0D01*
X-63500Y650D02*
X-63500Y199350D01*
X-66692Y174000D01*
X-60308Y174000D01*
X-63500Y199350D01*
X-64800Y174000D01*
X-62200Y174000D02*
X-63500Y199350D01*
X-66100Y174000D01*
X-60900Y174000D02*
X-63500Y199350D01*
X-66692Y26000D02*
X-63500Y650D01*
X-66692Y26000D02*
X-60308Y26000D01*
X-63500Y650D01*
X-64800Y26000D01*
X-62200Y26000D02*
X-63500Y650D01*
X-66100Y26000D01*
X-60900Y26000D02*
X-63500Y650D01*
D11*
X-86263Y73908D02*
X-86261Y74033D01*
X-86255Y74158D01*
X-86246Y74283D01*
X-86232Y74407D01*
X-86215Y74531D01*
X-86194Y74655D01*
X-86169Y74777D01*
X-86140Y74899D01*
X-86108Y75020D01*
X-86072Y75140D01*
X-86032Y75259D01*
X-85989Y75376D01*
X-85942Y75492D01*
X-85891Y75607D01*
X-85837Y75719D01*
X-85779Y75831D01*
X-85719Y75940D01*
X-85654Y76047D01*
X-85587Y76153D01*
X-85516Y76256D01*
X-85442Y76357D01*
X-85365Y76456D01*
X-85285Y76552D01*
X-85202Y76646D01*
X-85117Y76737D01*
X-85028Y76826D01*
X-84937Y76911D01*
X-84843Y76994D01*
X-84747Y77074D01*
X-84648Y77151D01*
X-84547Y77225D01*
X-84444Y77296D01*
X-84338Y77363D01*
X-84231Y77428D01*
X-84122Y77488D01*
X-84010Y77546D01*
X-83898Y77600D01*
X-83783Y77651D01*
X-83667Y77698D01*
X-83550Y77741D01*
X-83431Y77781D01*
X-83311Y77817D01*
X-83190Y77849D01*
X-83068Y77878D01*
X-82946Y77903D01*
X-82822Y77924D01*
X-82698Y77941D01*
X-82574Y77955D01*
X-82449Y77964D01*
X-82324Y77970D01*
X-82199Y77972D01*
X-86263Y73908D02*
X-86261Y73765D01*
X-86255Y73623D01*
X-86245Y73480D01*
X-86232Y73338D01*
X-86214Y73197D01*
X-86193Y73055D01*
X-86168Y72915D01*
X-86139Y72775D01*
X-86106Y72636D01*
X-86069Y72498D01*
X-86029Y72361D01*
X-85985Y72226D01*
X-85937Y72091D01*
X-85885Y71958D01*
X-85830Y71826D01*
X-85771Y71696D01*
X-85709Y71568D01*
X-85643Y71441D01*
X-85574Y71316D01*
X-85502Y71193D01*
X-85426Y71073D01*
X-85347Y70954D01*
X-85264Y70837D01*
X-85179Y70723D01*
X-85090Y70611D01*
X-84999Y70502D01*
X-84904Y70395D01*
X-84807Y70290D01*
X-84706Y70189D01*
X-84603Y70090D01*
X-84498Y69994D01*
X-84389Y69901D01*
X-84278Y69811D01*
X-84165Y69724D01*
X-84050Y69640D01*
X-83932Y69560D01*
X-83812Y69482D01*
X-83690Y69408D01*
X-83566Y69338D01*
X-83440Y69270D01*
X-83312Y69207D01*
X-83183Y69146D01*
X-83052Y69089D01*
X-82920Y69036D01*
X-82786Y68987D01*
X-82651Y68941D01*
X-79038Y76617D02*
X-79130Y76711D01*
X-79224Y76801D01*
X-79321Y76889D01*
X-79421Y76974D01*
X-79523Y77056D01*
X-79628Y77135D01*
X-79735Y77210D01*
X-79844Y77282D01*
X-79955Y77351D01*
X-80069Y77417D01*
X-80184Y77479D01*
X-80301Y77538D01*
X-80420Y77593D01*
X-80540Y77644D01*
X-80662Y77692D01*
X-80785Y77737D01*
X-80909Y77777D01*
X-81035Y77814D01*
X-81162Y77847D01*
X-81289Y77876D01*
X-81418Y77902D01*
X-81547Y77923D01*
X-81677Y77941D01*
X-81807Y77954D01*
X-81937Y77964D01*
X-82068Y77970D01*
X-82199Y77972D01*
X-79038Y76618D02*
X-70007Y68941D01*
X-70007Y77972D01*
X-78135Y84573D02*
X-78455Y84577D01*
X-78774Y84588D01*
X-79094Y84607D01*
X-79412Y84634D01*
X-79730Y84668D01*
X-80047Y84710D01*
X-80363Y84760D01*
X-80678Y84817D01*
X-80991Y84881D01*
X-81303Y84953D01*
X-81613Y85032D01*
X-81920Y85119D01*
X-82226Y85213D01*
X-82529Y85314D01*
X-82830Y85423D01*
X-83128Y85538D01*
X-83424Y85661D01*
X-83716Y85791D01*
X-84005Y85928D01*
X-84006Y85927D02*
X-84114Y85966D01*
X-84221Y86009D01*
X-84326Y86055D01*
X-84430Y86106D01*
X-84532Y86159D01*
X-84632Y86216D01*
X-84730Y86277D01*
X-84825Y86341D01*
X-84919Y86408D01*
X-85010Y86479D01*
X-85099Y86552D01*
X-85185Y86629D01*
X-85268Y86708D01*
X-85349Y86790D01*
X-85427Y86875D01*
X-85501Y86963D01*
X-85573Y87053D01*
X-85641Y87145D01*
X-85707Y87240D01*
X-85769Y87337D01*
X-85827Y87436D01*
X-85883Y87538D01*
X-85934Y87640D01*
X-85982Y87745D01*
X-86027Y87851D01*
X-86068Y87959D01*
X-86105Y88068D01*
X-86138Y88178D01*
X-86167Y88290D01*
X-86193Y88402D01*
X-86215Y88515D01*
X-86232Y88629D01*
X-86246Y88743D01*
X-86256Y88858D01*
X-86262Y88973D01*
X-86264Y89088D01*
X-86263Y89088D02*
X-86261Y89203D01*
X-86255Y89318D01*
X-86245Y89433D01*
X-86231Y89547D01*
X-86214Y89661D01*
X-86192Y89774D01*
X-86166Y89886D01*
X-86137Y89998D01*
X-86104Y90108D01*
X-86067Y90217D01*
X-86026Y90325D01*
X-85981Y90431D01*
X-85933Y90536D01*
X-85882Y90638D01*
X-85826Y90739D01*
X-85768Y90839D01*
X-85706Y90936D01*
X-85641Y91030D01*
X-85572Y91123D01*
X-85500Y91213D01*
X-85426Y91301D01*
X-85348Y91386D01*
X-85267Y91468D01*
X-85184Y91547D01*
X-85098Y91624D01*
X-85009Y91697D01*
X-84918Y91768D01*
X-84824Y91835D01*
X-84729Y91899D01*
X-84631Y91960D01*
X-84531Y92017D01*
X-84429Y92070D01*
X-84325Y92121D01*
X-84220Y92167D01*
X-84113Y92210D01*
X-84005Y92249D01*
X-84005Y92248D02*
X-83716Y92385D01*
X-83424Y92515D01*
X-83128Y92638D01*
X-82830Y92753D01*
X-82529Y92862D01*
X-82226Y92963D01*
X-81920Y93057D01*
X-81613Y93144D01*
X-81303Y93223D01*
X-80991Y93295D01*
X-80678Y93359D01*
X-80363Y93416D01*
X-80047Y93466D01*
X-79730Y93508D01*
X-79412Y93542D01*
X-79094Y93569D01*
X-78774Y93588D01*
X-78455Y93599D01*
X-78135Y93603D01*
X-78135Y84573D02*
X-77815Y84577D01*
X-77496Y84588D01*
X-77176Y84607D01*
X-76858Y84634D01*
X-76540Y84668D01*
X-76223Y84710D01*
X-75907Y84760D01*
X-75592Y84817D01*
X-75279Y84881D01*
X-74967Y84953D01*
X-74657Y85032D01*
X-74350Y85119D01*
X-74044Y85213D01*
X-73741Y85314D01*
X-73440Y85423D01*
X-73142Y85538D01*
X-72846Y85661D01*
X-72554Y85791D01*
X-72265Y85928D01*
X-72265Y85927D02*
X-72157Y85966D01*
X-72050Y86009D01*
X-71945Y86055D01*
X-71841Y86106D01*
X-71739Y86159D01*
X-71639Y86216D01*
X-71541Y86277D01*
X-71446Y86341D01*
X-71352Y86408D01*
X-71261Y86479D01*
X-71172Y86552D01*
X-71086Y86629D01*
X-71003Y86708D01*
X-70922Y86790D01*
X-70844Y86875D01*
X-70770Y86963D01*
X-70698Y87053D01*
X-70629Y87146D01*
X-70564Y87240D01*
X-70502Y87337D01*
X-70444Y87437D01*
X-70388Y87538D01*
X-70337Y87640D01*
X-70289Y87745D01*
X-70244Y87851D01*
X-70203Y87959D01*
X-70166Y88068D01*
X-70133Y88178D01*
X-70104Y88290D01*
X-70078Y88402D01*
X-70056Y88515D01*
X-70039Y88629D01*
X-70025Y88743D01*
X-70015Y88858D01*
X-70009Y88973D01*
X-70007Y89088D01*
X-72265Y92248D02*
X-72554Y92385D01*
X-72846Y92515D01*
X-73142Y92638D01*
X-73440Y92753D01*
X-73741Y92862D01*
X-74044Y92963D01*
X-74350Y93057D01*
X-74657Y93144D01*
X-74967Y93223D01*
X-75279Y93295D01*
X-75592Y93359D01*
X-75907Y93416D01*
X-76223Y93466D01*
X-76540Y93508D01*
X-76858Y93542D01*
X-77176Y93569D01*
X-77496Y93588D01*
X-77815Y93599D01*
X-78135Y93603D01*
X-72265Y92249D02*
X-72157Y92210D01*
X-72050Y92167D01*
X-71945Y92121D01*
X-71841Y92070D01*
X-71739Y92017D01*
X-71639Y91960D01*
X-71541Y91899D01*
X-71446Y91835D01*
X-71352Y91768D01*
X-71261Y91697D01*
X-71172Y91624D01*
X-71086Y91547D01*
X-71003Y91468D01*
X-70922Y91386D01*
X-70844Y91301D01*
X-70770Y91213D01*
X-70698Y91123D01*
X-70629Y91030D01*
X-70564Y90936D01*
X-70502Y90839D01*
X-70444Y90739D01*
X-70388Y90638D01*
X-70337Y90535D01*
X-70289Y90431D01*
X-70244Y90325D01*
X-70203Y90217D01*
X-70166Y90108D01*
X-70133Y89998D01*
X-70104Y89886D01*
X-70078Y89774D01*
X-70056Y89661D01*
X-70039Y89547D01*
X-70025Y89433D01*
X-70015Y89318D01*
X-70009Y89203D01*
X-70007Y89088D01*
X-73619Y85476D02*
X-82651Y92701D01*
X-70910Y99578D02*
X-70007Y99578D01*
X-70910Y99578D02*
X-70910Y100481D01*
X-70007Y100481D01*
X-70007Y99578D01*
X-78135Y106456D02*
X-78455Y106460D01*
X-78774Y106471D01*
X-79094Y106490D01*
X-79412Y106517D01*
X-79730Y106551D01*
X-80047Y106593D01*
X-80363Y106643D01*
X-80678Y106700D01*
X-80991Y106764D01*
X-81303Y106836D01*
X-81613Y106915D01*
X-81920Y107002D01*
X-82226Y107096D01*
X-82529Y107197D01*
X-82830Y107306D01*
X-83128Y107421D01*
X-83424Y107544D01*
X-83716Y107674D01*
X-84005Y107811D01*
X-84006Y107811D02*
X-84114Y107850D01*
X-84221Y107893D01*
X-84326Y107939D01*
X-84430Y107990D01*
X-84532Y108043D01*
X-84632Y108100D01*
X-84730Y108161D01*
X-84825Y108225D01*
X-84919Y108292D01*
X-85010Y108363D01*
X-85099Y108436D01*
X-85185Y108513D01*
X-85268Y108592D01*
X-85349Y108674D01*
X-85427Y108759D01*
X-85501Y108847D01*
X-85573Y108937D01*
X-85641Y109029D01*
X-85707Y109124D01*
X-85769Y109221D01*
X-85827Y109320D01*
X-85883Y109422D01*
X-85934Y109524D01*
X-85982Y109629D01*
X-86027Y109735D01*
X-86068Y109843D01*
X-86105Y109952D01*
X-86138Y110062D01*
X-86167Y110174D01*
X-86193Y110286D01*
X-86215Y110399D01*
X-86232Y110513D01*
X-86246Y110627D01*
X-86256Y110742D01*
X-86262Y110857D01*
X-86264Y110972D01*
X-86263Y110972D02*
X-86261Y111087D01*
X-86255Y111202D01*
X-86245Y111317D01*
X-86231Y111431D01*
X-86214Y111545D01*
X-86192Y111658D01*
X-86166Y111770D01*
X-86137Y111882D01*
X-86104Y111992D01*
X-86067Y112101D01*
X-86026Y112209D01*
X-85981Y112315D01*
X-85933Y112420D01*
X-85882Y112522D01*
X-85826Y112623D01*
X-85768Y112723D01*
X-85706Y112820D01*
X-85641Y112914D01*
X-85572Y113007D01*
X-85500Y113097D01*
X-85426Y113185D01*
X-85348Y113270D01*
X-85267Y113352D01*
X-85184Y113431D01*
X-85098Y113508D01*
X-85009Y113581D01*
X-84918Y113652D01*
X-84824Y113719D01*
X-84729Y113783D01*
X-84631Y113844D01*
X-84531Y113901D01*
X-84429Y113954D01*
X-84325Y114005D01*
X-84220Y114051D01*
X-84113Y114094D01*
X-84005Y114133D01*
X-84005Y114132D02*
X-83716Y114269D01*
X-83424Y114399D01*
X-83128Y114522D01*
X-82830Y114637D01*
X-82529Y114746D01*
X-82226Y114847D01*
X-81920Y114941D01*
X-81613Y115028D01*
X-81303Y115107D01*
X-80991Y115179D01*
X-80678Y115243D01*
X-80363Y115300D01*
X-80047Y115350D01*
X-79730Y115392D01*
X-79412Y115426D01*
X-79094Y115453D01*
X-78774Y115472D01*
X-78455Y115483D01*
X-78135Y115487D01*
X-78135Y106457D02*
X-77815Y106461D01*
X-77496Y106472D01*
X-77176Y106491D01*
X-76858Y106518D01*
X-76540Y106552D01*
X-76223Y106594D01*
X-75907Y106644D01*
X-75592Y106701D01*
X-75279Y106765D01*
X-74967Y106837D01*
X-74657Y106916D01*
X-74350Y107003D01*
X-74044Y107097D01*
X-73741Y107198D01*
X-73440Y107307D01*
X-73142Y107422D01*
X-72846Y107545D01*
X-72554Y107675D01*
X-72265Y107812D01*
X-72265Y107811D02*
X-72157Y107850D01*
X-72050Y107893D01*
X-71945Y107939D01*
X-71841Y107990D01*
X-71739Y108043D01*
X-71639Y108100D01*
X-71541Y108161D01*
X-71446Y108225D01*
X-71352Y108292D01*
X-71261Y108363D01*
X-71172Y108436D01*
X-71086Y108513D01*
X-71003Y108592D01*
X-70922Y108674D01*
X-70844Y108759D01*
X-70770Y108847D01*
X-70698Y108937D01*
X-70629Y109030D01*
X-70564Y109124D01*
X-70502Y109221D01*
X-70444Y109321D01*
X-70388Y109422D01*
X-70337Y109524D01*
X-70289Y109629D01*
X-70244Y109735D01*
X-70203Y109843D01*
X-70166Y109952D01*
X-70133Y110062D01*
X-70104Y110174D01*
X-70078Y110286D01*
X-70056Y110399D01*
X-70039Y110513D01*
X-70025Y110627D01*
X-70015Y110742D01*
X-70009Y110857D01*
X-70007Y110972D01*
X-72265Y114132D02*
X-72554Y114269D01*
X-72846Y114399D01*
X-73142Y114522D01*
X-73440Y114637D01*
X-73741Y114746D01*
X-74044Y114847D01*
X-74350Y114941D01*
X-74657Y115028D01*
X-74967Y115107D01*
X-75279Y115179D01*
X-75592Y115243D01*
X-75907Y115300D01*
X-76223Y115350D01*
X-76540Y115392D01*
X-76858Y115426D01*
X-77176Y115453D01*
X-77496Y115472D01*
X-77815Y115483D01*
X-78135Y115487D01*
X-72265Y114133D02*
X-72157Y114094D01*
X-72050Y114051D01*
X-71945Y114005D01*
X-71841Y113954D01*
X-71739Y113901D01*
X-71639Y113844D01*
X-71541Y113783D01*
X-71446Y113719D01*
X-71352Y113652D01*
X-71261Y113581D01*
X-71172Y113508D01*
X-71086Y113431D01*
X-71003Y113352D01*
X-70922Y113270D01*
X-70844Y113185D01*
X-70770Y113097D01*
X-70698Y113007D01*
X-70629Y112914D01*
X-70564Y112820D01*
X-70502Y112723D01*
X-70444Y112623D01*
X-70388Y112522D01*
X-70337Y112419D01*
X-70289Y112315D01*
X-70244Y112209D01*
X-70203Y112101D01*
X-70166Y111992D01*
X-70133Y111882D01*
X-70104Y111770D01*
X-70078Y111658D01*
X-70056Y111545D01*
X-70039Y111431D01*
X-70025Y111317D01*
X-70015Y111202D01*
X-70009Y111087D01*
X-70007Y110972D01*
X-73619Y107359D02*
X-82651Y114584D01*
X-78135Y122088D02*
X-78455Y122092D01*
X-78774Y122103D01*
X-79094Y122122D01*
X-79412Y122149D01*
X-79730Y122183D01*
X-80047Y122225D01*
X-80363Y122275D01*
X-80678Y122332D01*
X-80991Y122396D01*
X-81303Y122468D01*
X-81613Y122547D01*
X-81920Y122634D01*
X-82226Y122728D01*
X-82529Y122829D01*
X-82830Y122938D01*
X-83128Y123053D01*
X-83424Y123176D01*
X-83716Y123306D01*
X-84005Y123443D01*
X-84006Y123442D02*
X-84114Y123481D01*
X-84221Y123524D01*
X-84326Y123570D01*
X-84430Y123621D01*
X-84532Y123674D01*
X-84632Y123731D01*
X-84730Y123792D01*
X-84825Y123856D01*
X-84919Y123923D01*
X-85010Y123994D01*
X-85099Y124067D01*
X-85185Y124144D01*
X-85268Y124223D01*
X-85349Y124305D01*
X-85427Y124390D01*
X-85501Y124478D01*
X-85573Y124568D01*
X-85641Y124660D01*
X-85707Y124755D01*
X-85769Y124852D01*
X-85827Y124951D01*
X-85883Y125053D01*
X-85934Y125155D01*
X-85982Y125260D01*
X-86027Y125366D01*
X-86068Y125474D01*
X-86105Y125583D01*
X-86138Y125693D01*
X-86167Y125805D01*
X-86193Y125917D01*
X-86215Y126030D01*
X-86232Y126144D01*
X-86246Y126258D01*
X-86256Y126373D01*
X-86262Y126488D01*
X-86264Y126603D01*
X-86263Y126603D02*
X-86261Y126718D01*
X-86255Y126833D01*
X-86245Y126948D01*
X-86231Y127062D01*
X-86214Y127176D01*
X-86192Y127289D01*
X-86166Y127401D01*
X-86137Y127513D01*
X-86104Y127623D01*
X-86067Y127732D01*
X-86026Y127840D01*
X-85981Y127946D01*
X-85933Y128051D01*
X-85882Y128153D01*
X-85826Y128254D01*
X-85768Y128354D01*
X-85706Y128451D01*
X-85641Y128545D01*
X-85572Y128638D01*
X-85500Y128728D01*
X-85426Y128816D01*
X-85348Y128901D01*
X-85267Y128983D01*
X-85184Y129062D01*
X-85098Y129139D01*
X-85009Y129212D01*
X-84918Y129283D01*
X-84824Y129350D01*
X-84729Y129414D01*
X-84631Y129475D01*
X-84531Y129532D01*
X-84429Y129585D01*
X-84325Y129636D01*
X-84220Y129682D01*
X-84113Y129725D01*
X-84005Y129764D01*
X-84005Y129763D02*
X-83716Y129900D01*
X-83424Y130030D01*
X-83128Y130153D01*
X-82830Y130268D01*
X-82529Y130377D01*
X-82226Y130478D01*
X-81920Y130572D01*
X-81613Y130659D01*
X-81303Y130738D01*
X-80991Y130810D01*
X-80678Y130874D01*
X-80363Y130931D01*
X-80047Y130981D01*
X-79730Y131023D01*
X-79412Y131057D01*
X-79094Y131084D01*
X-78774Y131103D01*
X-78455Y131114D01*
X-78135Y131118D01*
X-78135Y122088D02*
X-77815Y122092D01*
X-77496Y122103D01*
X-77176Y122122D01*
X-76858Y122149D01*
X-76540Y122183D01*
X-76223Y122225D01*
X-75907Y122275D01*
X-75592Y122332D01*
X-75279Y122396D01*
X-74967Y122468D01*
X-74657Y122547D01*
X-74350Y122634D01*
X-74044Y122728D01*
X-73741Y122829D01*
X-73440Y122938D01*
X-73142Y123053D01*
X-72846Y123176D01*
X-72554Y123306D01*
X-72265Y123443D01*
X-72265Y123442D02*
X-72157Y123481D01*
X-72050Y123524D01*
X-71945Y123570D01*
X-71841Y123621D01*
X-71739Y123674D01*
X-71639Y123731D01*
X-71541Y123792D01*
X-71446Y123856D01*
X-71352Y123923D01*
X-71261Y123994D01*
X-71172Y124067D01*
X-71086Y124144D01*
X-71003Y124223D01*
X-70922Y124305D01*
X-70844Y124390D01*
X-70770Y124478D01*
X-70698Y124568D01*
X-70629Y124661D01*
X-70564Y124755D01*
X-70502Y124852D01*
X-70444Y124952D01*
X-70388Y125053D01*
X-70337Y125155D01*
X-70289Y125260D01*
X-70244Y125366D01*
X-70203Y125474D01*
X-70166Y125583D01*
X-70133Y125693D01*
X-70104Y125805D01*
X-70078Y125917D01*
X-70056Y126030D01*
X-70039Y126144D01*
X-70025Y126258D01*
X-70015Y126373D01*
X-70009Y126488D01*
X-70007Y126603D01*
X-72265Y129763D02*
X-72554Y129900D01*
X-72846Y130030D01*
X-73142Y130153D01*
X-73440Y130268D01*
X-73741Y130377D01*
X-74044Y130478D01*
X-74350Y130572D01*
X-74657Y130659D01*
X-74967Y130738D01*
X-75279Y130810D01*
X-75592Y130874D01*
X-75907Y130931D01*
X-76223Y130981D01*
X-76540Y131023D01*
X-76858Y131057D01*
X-77176Y131084D01*
X-77496Y131103D01*
X-77815Y131114D01*
X-78135Y131118D01*
X-72265Y129764D02*
X-72157Y129725D01*
X-72050Y129682D01*
X-71945Y129636D01*
X-71841Y129585D01*
X-71739Y129532D01*
X-71639Y129475D01*
X-71541Y129414D01*
X-71446Y129350D01*
X-71352Y129283D01*
X-71261Y129212D01*
X-71172Y129139D01*
X-71086Y129062D01*
X-71003Y128983D01*
X-70922Y128901D01*
X-70844Y128816D01*
X-70770Y128728D01*
X-70698Y128638D01*
X-70629Y128545D01*
X-70564Y128451D01*
X-70502Y128354D01*
X-70444Y128254D01*
X-70388Y128153D01*
X-70337Y128050D01*
X-70289Y127946D01*
X-70244Y127840D01*
X-70203Y127732D01*
X-70166Y127623D01*
X-70133Y127513D01*
X-70104Y127401D01*
X-70078Y127289D01*
X-70056Y127176D01*
X-70039Y127062D01*
X-70025Y126948D01*
X-70015Y126833D01*
X-70009Y126718D01*
X-70007Y126603D01*
X-73619Y122991D02*
X-82651Y130215D01*
D12*
X202294Y155222D03*
X211294Y155222D03*
X203018Y168148D03*
X212018Y168148D03*
D13*
X414480Y26580D03*
X439880Y26580D03*
D14*
X371680Y34780D03*
X356680Y34780D03*
D15*
X147240Y158320D03*
X147240Y153320D03*
X152240Y158320D03*
X152240Y153320D03*
X157240Y158320D03*
X157240Y153320D03*
D16*
X177800Y93345D03*
X172720Y93345D03*
X167640Y93345D03*
X162560Y93345D03*
X157480Y93345D03*
X152400Y93345D03*
D17*
X145415Y86360D03*
X145415Y81280D03*
X145415Y76200D03*
X145415Y71120D03*
X145415Y66040D03*
X145415Y60960D03*
D16*
X152400Y53975D03*
X157480Y53975D03*
X162560Y53975D03*
X167640Y53975D03*
X172720Y53975D03*
X177800Y53975D03*
D17*
X184785Y60960D03*
X184785Y66040D03*
X184785Y71120D03*
X184785Y76200D03*
X184785Y81280D03*
X184785Y86360D03*
D18*
X165100Y73660D03*
D13*
X480060Y86360D03*
X480060Y111760D03*
X480060Y35560D03*
X480060Y60960D03*
X480060Y137160D03*
X480060Y162560D03*
D19*
X398780Y62230D03*
X398780Y110490D03*
X411480Y62230D03*
X411480Y110490D03*
X424180Y62230D03*
X424180Y110490D03*
X436880Y62230D03*
X436880Y110490D03*
X449580Y62230D03*
X449580Y110490D03*
D20*
X33020Y42130D03*
X33020Y69630D03*
D21*
X17770Y55880D03*
D22*
X396240Y181610D03*
X452120Y181610D03*
X396240Y143510D03*
X452120Y143510D03*
D14*
X370720Y55880D03*
X355720Y55880D03*
X370720Y99060D03*
X355720Y99060D03*
D23*
X355220Y76200D03*
X371220Y76200D03*
D24*
X355600Y182880D03*
X355600Y157480D03*
X355600Y132080D03*
D12*
X164520Y139700D03*
X155520Y139700D03*
X164520Y127000D03*
X155520Y127000D03*
D25*
X136840Y132080D03*
X122240Y132080D03*
D12*
X111180Y114300D03*
X102180Y114300D03*
X111180Y101600D03*
X102180Y101600D03*
D26*
X167640Y104140D03*
D27*
X167640Y93345D01*
D26*
X287020Y185420D03*
X327660Y185420D03*
X165100Y149860D03*
D27*
X161640Y153320D02*
X157240Y153320D01*
X161640Y153320D02*
X165100Y149860D01*
X167640Y107181D02*
X167640Y104140D01*
X167640Y107181D02*
X169390Y108931D01*
X169390Y122130D01*
X164520Y127000D01*
X164520Y139700D01*
X164520Y149280D01*
X165100Y149860D01*
D26*
X459740Y165100D03*
X111760Y83820D03*
X109220Y129540D03*
X210820Y38100D03*
X386080Y165100D03*
X462280Y73660D03*
X388620Y124460D03*
X345440Y88900D03*
X223520Y160020D03*
X269240Y167640D03*
X266700Y40640D03*
X162560Y111760D03*
D27*
X162560Y99561D02*
X162560Y93345D01*
X162560Y99561D02*
X160810Y101311D01*
X160810Y106969D01*
X162560Y108719D01*
X162560Y111760D01*
X155520Y127000D02*
X155520Y139700D01*
D26*
X411480Y127000D03*
D27*
X411480Y110490D01*
X158372Y124148D02*
X155520Y127000D01*
X158372Y124148D02*
X158372Y122638D01*
X162560Y118450D02*
X162560Y111760D01*
X162560Y118450D02*
X158372Y122638D01*
X355854Y56388D02*
X358902Y56388D01*
X370332Y67818D01*
X377190Y67818D01*
X410718Y101346D01*
X410718Y109728D01*
X355854Y56388D02*
X355720Y55880D01*
X410718Y109728D02*
X411480Y110490D01*
X152240Y158320D02*
X147240Y158320D01*
X152240Y158320D02*
X152922Y159002D01*
X152922Y160109D01*
X155451Y162638D01*
X159029Y162638D01*
X159107Y162560D01*
X170180Y162560D02*
X177518Y155222D01*
X202294Y155222D01*
X170180Y162560D02*
X159107Y162560D01*
X356616Y37338D02*
X356616Y35052D01*
X356616Y37338D02*
X343662Y50292D01*
X343662Y54102D01*
X249174Y148590D01*
X207264Y148590D01*
X201930Y153924D01*
X356616Y35052D02*
X356680Y34780D01*
X201930Y153924D02*
X202294Y155222D01*
X144780Y167640D02*
X142240Y165100D01*
X202510Y167640D02*
X203018Y168148D01*
X202510Y167640D02*
X144780Y167640D01*
X142240Y153320D02*
X122840Y153320D01*
X89916Y120396D01*
X89154Y121158D01*
D26*
X89154Y121158D03*
D27*
X142240Y153320D02*
X142240Y165100D01*
X147240Y153320D02*
X152240Y153320D01*
X147240Y153320D02*
X142240Y153320D01*
X371856Y34290D02*
X406146Y34290D01*
X413766Y26670D01*
X371856Y34290D02*
X371680Y34780D01*
X413766Y26670D02*
X414480Y26580D01*
D11*
X262128Y80010D02*
X201930Y19812D01*
X137922Y19812D01*
X64770Y92964D01*
X64770Y127254D01*
D26*
X262128Y80010D03*
X64770Y127254D03*
X175260Y43180D03*
D11*
X175260Y43434D02*
X175260Y48006D01*
X172974Y50292D01*
X172974Y53340D01*
X175260Y43434D02*
X175260Y43180D01*
X172974Y53340D02*
X172720Y53975D01*
X175260Y42672D02*
X175260Y34290D01*
X180594Y28956D01*
X192786Y28956D01*
X225552Y61722D01*
X230124Y61722D01*
X233172Y64770D01*
X233172Y81534D01*
X175260Y43180D02*
X175260Y42672D01*
D26*
X233172Y81534D03*
X182880Y35560D03*
D11*
X182880Y35814D02*
X182880Y48768D01*
X182499Y49149D02*
X178308Y53340D01*
X182499Y49149D02*
X182880Y48768D01*
X182880Y35814D02*
X182880Y35560D01*
X178308Y53340D02*
X177800Y53975D01*
X182880Y49530D02*
X208788Y49530D01*
X227076Y67818D01*
X182880Y49530D02*
X182499Y49149D01*
D26*
X227076Y67818D03*
X162560Y43180D03*
D11*
X163068Y43434D02*
X163068Y53340D01*
X163068Y43434D02*
X162560Y43180D01*
X163068Y53340D02*
X162560Y53975D01*
X162306Y42672D02*
X162306Y38862D01*
X161544Y38100D01*
X161544Y33528D01*
X156972Y28956D01*
X142494Y28956D01*
X76962Y94488D01*
X76962Y118110D01*
X132588Y173736D01*
X236220Y173736D01*
X341376Y68580D01*
X343662Y68580D01*
X162560Y43180D02*
X162306Y42672D01*
D26*
X343662Y68580D03*
X198120Y76200D03*
D11*
X185166Y76200D01*
X184785Y76200D01*
X198120Y76200D02*
X201930Y76200D01*
X203454Y77724D01*
X220218Y77724D01*
X230124Y87630D01*
X263652Y87630D01*
X335280Y16002D01*
X418338Y16002D01*
X429006Y26670D01*
X429006Y105918D01*
X424434Y110490D01*
X424180Y110490D01*
X380238Y182880D02*
X355854Y182880D01*
X380238Y182880D02*
X419862Y143256D01*
X420624Y143256D01*
X423672Y140208D01*
X423672Y110490D01*
X355854Y182880D02*
X355600Y182880D01*
X423672Y110490D02*
X424180Y110490D01*
D26*
X205740Y83820D03*
D11*
X191262Y83820D01*
X188976Y81534D01*
X185166Y81534D01*
X184785Y81280D01*
X390906Y41148D02*
X411480Y61722D01*
X390906Y41148D02*
X366522Y41148D01*
X363474Y38100D01*
X363474Y29718D01*
X361950Y28194D01*
X351282Y28194D01*
X339852Y39624D01*
X339852Y51816D01*
X300990Y90678D01*
X212598Y90678D01*
X205740Y83820D01*
X411480Y62230D02*
X411480Y61722D01*
X355854Y110490D02*
X355854Y131826D01*
X355854Y110490D02*
X364236Y102108D01*
X364236Y93726D01*
X371094Y86868D01*
X386334Y86868D01*
X396240Y76962D02*
X411480Y61722D01*
X355854Y131826D02*
X355600Y132080D01*
X411480Y62230D02*
X411480Y61722D01*
D26*
X386334Y86868D03*
X396240Y76962D03*
D11*
X18288Y55626D02*
X18288Y37338D01*
X21336Y34290D01*
X64770Y34290D01*
X18288Y55626D02*
X17770Y55880D01*
D26*
X64770Y34290D03*
D11*
X371094Y99060D02*
X371094Y118110D01*
X396240Y143256D01*
X371094Y99060D02*
X370720Y99060D01*
X396240Y143256D02*
X396240Y143510D01*
X355854Y99060D02*
X355854Y91440D01*
X371094Y76200D01*
X355854Y99060D02*
X355720Y99060D01*
X371094Y76200D02*
X371220Y76200D01*
X370332Y55626D02*
X367284Y55626D01*
X361188Y49530D01*
X350520Y49530D01*
X348996Y51054D01*
X348996Y60960D01*
X356616Y68580D01*
X361188Y68580D01*
X369570Y76962D01*
X370720Y55880D02*
X370332Y55626D01*
X371220Y76200D02*
X369570Y76962D01*
X355092Y153924D02*
X355092Y156972D01*
X355092Y153924D02*
X340614Y139446D01*
X340614Y113538D01*
X355092Y99060D01*
X355092Y156972D02*
X355600Y157480D01*
X355720Y99060D02*
X355092Y99060D01*
D26*
X154940Y35560D03*
D11*
X155448Y35814D02*
X155448Y48006D01*
X156972Y49530D01*
X156972Y53340D01*
X155448Y35814D02*
X154940Y35560D01*
X156972Y53340D02*
X157480Y53975D01*
X163068Y25908D02*
X167640Y25908D01*
X163068Y25908D02*
X160020Y22860D01*
X139446Y22860D01*
X70866Y91440D01*
X70866Y121158D01*
X129540Y179832D01*
X283464Y179832D01*
X312420Y150876D01*
X331470Y150876D01*
X340614Y160020D01*
X340614Y165354D01*
X341376Y166116D01*
X376428Y166116D01*
X392430Y150114D01*
X404622Y150114D01*
X417576Y137160D01*
D26*
X167640Y25908D03*
X417576Y137160D03*
X147320Y43180D03*
D11*
X147828Y43434D02*
X147828Y48768D01*
X152400Y53340D01*
X147828Y43434D02*
X147320Y43180D01*
X152400Y53340D02*
X152400Y53975D01*
X133350Y19812D02*
X128778Y19812D01*
X133350Y19812D02*
X140208Y12954D01*
X440436Y12954D01*
X470154Y42672D01*
X470154Y127254D01*
X480060Y137160D01*
D26*
X128778Y19812D03*
X167640Y35560D03*
D11*
X167640Y35814D02*
X167640Y39624D01*
X169164Y41148D01*
X169164Y51816D01*
X167640Y53340D01*
X167640Y35814D02*
X167640Y35560D01*
X167640Y53340D02*
X167640Y53975D01*
X336804Y77724D02*
X343662Y77724D01*
X336804Y77724D02*
X237744Y176784D01*
X131064Y176784D01*
X73914Y119634D01*
X73914Y92964D01*
X140970Y25908D01*
X158496Y25908D01*
X167640Y35052D01*
X167640Y35560D01*
D26*
X343662Y77724D03*
X132080Y91440D03*
D11*
X157240Y158320D02*
X166800Y158320D01*
X177800Y147320D01*
D26*
X177800Y147320D03*
D11*
X142748Y88900D02*
X135128Y88900D01*
X132588Y91440D01*
X142748Y88900D02*
X144780Y86868D01*
X132588Y91440D02*
X132080Y91440D01*
X144780Y86868D02*
X145415Y86360D01*
D26*
X205740Y55880D03*
D11*
X205740Y56388D02*
X189738Y56388D01*
X185166Y60960D01*
X205740Y56388D02*
X205740Y55880D01*
X185166Y60960D02*
X184785Y60960D01*
D26*
X198120Y63500D03*
D11*
X198120Y64008D02*
X190500Y64008D01*
X188976Y65532D01*
X185166Y65532D01*
X198120Y64008D02*
X198120Y63500D01*
X185166Y65532D02*
X184785Y66040D01*
D26*
X205740Y71120D03*
D11*
X205740Y70866D02*
X201930Y70866D01*
X201168Y70104D01*
X185928Y70104D01*
X185166Y70866D01*
X205740Y70866D02*
X205740Y71120D01*
X185166Y70866D02*
X184785Y71120D01*
D26*
X198120Y91440D03*
D11*
X189738Y91440D01*
X185166Y86868D01*
X184785Y86360D01*
D26*
X124460Y55880D03*
D11*
X124968Y56388D02*
X140208Y56388D01*
X144780Y60960D01*
X124968Y56388D02*
X124460Y55880D01*
X144780Y60960D02*
X145415Y60960D01*
D26*
X132080Y63500D03*
D11*
X132588Y64008D02*
X139446Y64008D01*
X140970Y65532D01*
X144780Y65532D01*
X132588Y64008D02*
X132080Y63500D01*
X144780Y65532D02*
X145415Y66040D01*
D26*
X124460Y71120D03*
D11*
X124968Y70866D02*
X128778Y70866D01*
X129540Y70104D01*
X144018Y70104D01*
X144780Y70866D01*
X124968Y70866D02*
X124460Y71120D01*
X144780Y70866D02*
X145415Y71120D01*
D26*
X132080Y76200D03*
D11*
X132588Y76200D02*
X144780Y76200D01*
X132588Y76200D02*
X132080Y76200D01*
X144780Y76200D02*
X145415Y76200D01*
D26*
X124460Y83820D03*
D11*
X124968Y83820D02*
X139446Y83820D01*
X141732Y81534D01*
X144780Y81534D01*
X124968Y83820D02*
X124460Y83820D01*
X144780Y81534D02*
X145415Y81280D01*
D26*
X142240Y111760D03*
D11*
X142494Y111252D02*
X142494Y102870D01*
X152400Y92964D01*
X142494Y111252D02*
X142240Y111760D01*
X152400Y93345D02*
X152400Y92964D01*
X142240Y111760D02*
X137969Y111760D01*
X137461Y111252D01*
X121920Y131826D02*
X120396Y131826D01*
X110490Y101346D02*
X110490Y99822D01*
X121920Y131826D02*
X122240Y132080D01*
X111180Y101600D02*
X110490Y101346D01*
D26*
X124460Y106680D03*
D11*
X129032Y111252D01*
X137461Y111252D01*
X137969Y111760D01*
X116260Y106680D02*
X111180Y101600D01*
X116260Y106680D02*
X124460Y106680D01*
D26*
X149860Y104140D03*
D11*
X150114Y103632D02*
X153924Y99822D01*
X154686Y99822D01*
X156972Y97536D01*
X156972Y93726D01*
X150114Y103632D02*
X149860Y104140D01*
X156972Y93726D02*
X157480Y93345D01*
X136199Y114300D02*
X111180Y114300D01*
X136199Y114300D02*
X139727Y117828D01*
X144754Y117828D01*
X148308Y114274D01*
X148308Y105692D02*
X149860Y104140D01*
X148308Y105692D02*
X148308Y114274D01*
X137160Y120396D02*
X137160Y131826D01*
X137160Y120396D02*
X139446Y118110D01*
X137160Y131826D02*
X136840Y132080D01*
X139446Y118110D02*
X139727Y117828D01*
D26*
X180340Y111760D03*
D11*
X179832Y111252D02*
X179832Y104394D01*
X172974Y97536D01*
X172974Y93726D01*
X179832Y111252D02*
X180340Y111760D01*
X172974Y93726D02*
X172720Y93345D01*
D26*
X187960Y104140D03*
D11*
X187452Y103632D02*
X177546Y93726D01*
X187452Y103632D02*
X187960Y104140D01*
X177546Y93726D02*
X177800Y93345D01*
M02*
