G04 EAGLE Gerber RS-274X export*
G75*
%MOMM*%
%FSLAX34Y34*%
%LPD*%
%INSoldermask Top*%
%IPPOS*%
%AMOC8*
5,1,8,0,0,1.08239X$1,22.5*%
G01*
%ADD10R,0.823200X0.823200*%
%ADD11C,0.803200*%
%ADD12C,1.727200*%
%ADD13R,1.003200X1.003200*%
%ADD14C,0.325000*%
%ADD15R,0.406400X1.016000*%
%ADD16R,1.016000X0.406400*%
%ADD17R,2.794000X2.794000*%
%ADD18R,0.711200X1.473200*%
%ADD19R,2.403200X1.253200*%
%ADD20R,1.003200X1.203200*%
%ADD21R,1.727200X0.965200*%
%ADD22R,1.153200X1.203200*%
%ADD23R,2.743200X1.473200*%
%ADD24R,0.953200X1.603200*%
%ADD25C,0.959600*%


D10*
X202294Y155222D03*
X211294Y155222D03*
X203018Y168148D03*
X212018Y168148D03*
D11*
X325780Y165440D03*
X325780Y45440D03*
D12*
X414480Y26580D03*
X439880Y26580D03*
D13*
X371680Y34780D03*
X356680Y34780D03*
D14*
X147240Y158320D03*
X147240Y153320D03*
X152240Y158320D03*
X152240Y153320D03*
X157240Y158320D03*
X157240Y153320D03*
D15*
X177800Y93345D03*
X172720Y93345D03*
X167640Y93345D03*
X162560Y93345D03*
X157480Y93345D03*
X152400Y93345D03*
D16*
X145415Y86360D03*
X145415Y81280D03*
X145415Y76200D03*
X145415Y71120D03*
X145415Y66040D03*
X145415Y60960D03*
D15*
X152400Y53975D03*
X157480Y53975D03*
X162560Y53975D03*
X167640Y53975D03*
X172720Y53975D03*
X177800Y53975D03*
D16*
X184785Y60960D03*
X184785Y66040D03*
X184785Y71120D03*
X184785Y76200D03*
X184785Y81280D03*
X184785Y86360D03*
D17*
X165100Y73660D03*
D12*
X480060Y86360D03*
X480060Y111760D03*
X480060Y35560D03*
X480060Y60960D03*
X480060Y137160D03*
X480060Y162560D03*
D18*
X398780Y62230D03*
X398780Y110490D03*
X411480Y62230D03*
X411480Y110490D03*
X424180Y62230D03*
X424180Y110490D03*
X436880Y62230D03*
X436880Y110490D03*
X449580Y62230D03*
X449580Y110490D03*
D19*
X33020Y42130D03*
X33020Y69630D03*
D20*
X17770Y55880D03*
D21*
X396240Y181610D03*
X452120Y181610D03*
X396240Y143510D03*
X452120Y143510D03*
D13*
X370720Y55880D03*
X355720Y55880D03*
X370720Y99060D03*
X355720Y99060D03*
D22*
X355220Y76200D03*
X371220Y76200D03*
D23*
X355600Y182880D03*
X355600Y157480D03*
X355600Y132080D03*
D10*
X164520Y139700D03*
X155520Y139700D03*
X164520Y127000D03*
X155520Y127000D03*
D24*
X136840Y132080D03*
X122240Y132080D03*
D10*
X111180Y114300D03*
X102180Y114300D03*
X111180Y101600D03*
X102180Y101600D03*
D25*
X167640Y104140D03*
X287020Y185420D03*
X327660Y185420D03*
X165100Y149860D03*
X459740Y165100D03*
X111760Y83820D03*
X109220Y129540D03*
X210820Y38100D03*
X386080Y165100D03*
X462280Y73660D03*
X388620Y124460D03*
X345440Y88900D03*
X223520Y160020D03*
X269240Y167640D03*
X266700Y40640D03*
X162560Y111760D03*
X411480Y127000D03*
X89154Y121158D03*
X262128Y80010D03*
X64770Y127254D03*
X175260Y43180D03*
X233172Y81534D03*
X182880Y35560D03*
X227076Y67818D03*
X162560Y43180D03*
X343662Y68580D03*
X198120Y76200D03*
X205740Y83820D03*
X386334Y86868D03*
X396240Y76962D03*
X64770Y34290D03*
X154940Y35560D03*
X167640Y25908D03*
X417576Y137160D03*
X147320Y43180D03*
X128778Y19812D03*
X167640Y35560D03*
X343662Y77724D03*
X132080Y91440D03*
X177800Y147320D03*
X205740Y55880D03*
X198120Y63500D03*
X205740Y71120D03*
X198120Y91440D03*
X124460Y55880D03*
X132080Y63500D03*
X124460Y71120D03*
X132080Y76200D03*
X124460Y83820D03*
X142240Y111760D03*
X124460Y106680D03*
X149860Y104140D03*
X180340Y111760D03*
X187960Y104140D03*
M02*
