G04 EAGLE Gerber RS-274X export*
G75*
%MOMM*%
%FSLAX34Y34*%
%LPD*%
%INReference Desginators Bottom*%
%IPPOS*%
%AMOC8*
5,1,8,0,0,1.08239X$1,22.5*%
G01*
%ADD10C,0.050800*%
%ADD11C,0.050000*%
%ADD12C,0.025400*%
%ADD13C,0.076200*%
%ADD14C,0.127000*%
%ADD15C,0.152400*%
%ADD16C,0.254000*%


D10*
X218330Y307858D02*
X218330Y340858D01*
X236330Y340858D01*
X236330Y307858D01*
X218330Y307858D01*
X222682Y315178D02*
X222682Y316420D01*
X222682Y315178D02*
X222684Y315108D01*
X222690Y315039D01*
X222700Y314970D01*
X222713Y314902D01*
X222731Y314834D01*
X222752Y314768D01*
X222777Y314703D01*
X222805Y314639D01*
X222837Y314577D01*
X222872Y314517D01*
X222911Y314459D01*
X222953Y314404D01*
X222998Y314350D01*
X223046Y314300D01*
X223096Y314252D01*
X223150Y314207D01*
X223205Y314165D01*
X223263Y314126D01*
X223323Y314091D01*
X223385Y314059D01*
X223449Y314031D01*
X223514Y314006D01*
X223580Y313985D01*
X223648Y313967D01*
X223716Y313954D01*
X223785Y313944D01*
X223854Y313938D01*
X223924Y313936D01*
X227028Y313936D01*
X227098Y313938D01*
X227167Y313944D01*
X227236Y313954D01*
X227304Y313967D01*
X227372Y313985D01*
X227438Y314006D01*
X227503Y314031D01*
X227567Y314059D01*
X227629Y314091D01*
X227689Y314126D01*
X227747Y314165D01*
X227802Y314207D01*
X227856Y314252D01*
X227906Y314300D01*
X227954Y314350D01*
X227999Y314404D01*
X228041Y314459D01*
X228080Y314517D01*
X228115Y314577D01*
X228147Y314639D01*
X228175Y314703D01*
X228200Y314768D01*
X228221Y314834D01*
X228239Y314902D01*
X228252Y314970D01*
X228262Y315039D01*
X228268Y315108D01*
X228270Y315178D01*
X228270Y316420D01*
X227028Y318524D02*
X228270Y320076D01*
X222682Y320076D01*
X222682Y318524D02*
X222682Y321629D01*
X225476Y324011D02*
X225607Y324013D01*
X225737Y324018D01*
X225867Y324028D01*
X225997Y324041D01*
X226127Y324057D01*
X226256Y324077D01*
X226384Y324101D01*
X226511Y324129D01*
X226638Y324160D01*
X226764Y324195D01*
X226889Y324233D01*
X227013Y324275D01*
X227135Y324320D01*
X227256Y324369D01*
X227376Y324421D01*
X227494Y324477D01*
X227494Y324476D02*
X227554Y324499D01*
X227614Y324525D01*
X227671Y324554D01*
X227727Y324587D01*
X227781Y324623D01*
X227833Y324661D01*
X227883Y324703D01*
X227930Y324747D01*
X227975Y324794D01*
X228017Y324844D01*
X228056Y324895D01*
X228092Y324949D01*
X228125Y325005D01*
X228155Y325062D01*
X228182Y325121D01*
X228205Y325182D01*
X228225Y325243D01*
X228241Y325306D01*
X228254Y325370D01*
X228263Y325434D01*
X228268Y325498D01*
X228270Y325563D01*
X228268Y325628D01*
X228263Y325692D01*
X228254Y325756D01*
X228241Y325820D01*
X228225Y325883D01*
X228205Y325944D01*
X228182Y326005D01*
X228155Y326064D01*
X228125Y326121D01*
X228092Y326177D01*
X228056Y326231D01*
X228017Y326282D01*
X227975Y326332D01*
X227930Y326379D01*
X227883Y326423D01*
X227833Y326465D01*
X227781Y326503D01*
X227727Y326539D01*
X227671Y326572D01*
X227614Y326601D01*
X227554Y326627D01*
X227494Y326650D01*
X227494Y326649D02*
X227376Y326705D01*
X227256Y326757D01*
X227135Y326806D01*
X227013Y326851D01*
X226889Y326893D01*
X226764Y326931D01*
X226638Y326966D01*
X226512Y326997D01*
X226384Y327025D01*
X226256Y327049D01*
X226127Y327069D01*
X225997Y327085D01*
X225867Y327098D01*
X225737Y327108D01*
X225607Y327113D01*
X225476Y327115D01*
X225476Y324011D02*
X225345Y324013D01*
X225215Y324018D01*
X225085Y324028D01*
X224955Y324041D01*
X224825Y324057D01*
X224696Y324077D01*
X224568Y324101D01*
X224441Y324129D01*
X224314Y324160D01*
X224188Y324195D01*
X224063Y324233D01*
X223939Y324275D01*
X223817Y324320D01*
X223696Y324369D01*
X223576Y324421D01*
X223458Y324477D01*
X223458Y324476D02*
X223398Y324499D01*
X223338Y324525D01*
X223281Y324554D01*
X223225Y324587D01*
X223171Y324623D01*
X223119Y324661D01*
X223069Y324703D01*
X223022Y324747D01*
X222977Y324794D01*
X222935Y324844D01*
X222896Y324895D01*
X222860Y324949D01*
X222827Y325005D01*
X222797Y325062D01*
X222770Y325121D01*
X222747Y325182D01*
X222727Y325243D01*
X222711Y325306D01*
X222698Y325370D01*
X222689Y325434D01*
X222684Y325498D01*
X222682Y325563D01*
X223458Y326649D02*
X223576Y326705D01*
X223696Y326757D01*
X223817Y326806D01*
X223939Y326851D01*
X224063Y326893D01*
X224188Y326931D01*
X224314Y326966D01*
X224440Y326997D01*
X224568Y327025D01*
X224696Y327049D01*
X224825Y327069D01*
X224955Y327085D01*
X225085Y327098D01*
X225215Y327108D01*
X225345Y327113D01*
X225476Y327115D01*
X223458Y326650D02*
X223398Y326627D01*
X223338Y326601D01*
X223281Y326572D01*
X223225Y326539D01*
X223171Y326503D01*
X223119Y326465D01*
X223069Y326423D01*
X223022Y326379D01*
X222977Y326332D01*
X222935Y326282D01*
X222896Y326231D01*
X222860Y326177D01*
X222827Y326121D01*
X222797Y326064D01*
X222770Y326005D01*
X222747Y325944D01*
X222727Y325883D01*
X222711Y325820D01*
X222698Y325756D01*
X222689Y325692D01*
X222684Y325628D01*
X222682Y325563D01*
X223924Y324321D02*
X227028Y326805D01*
X227649Y329497D02*
X228270Y329497D01*
X228270Y332601D01*
X222682Y331049D01*
D11*
X240648Y220654D02*
X240648Y211654D01*
X240648Y220654D02*
X222648Y220654D01*
X222648Y211654D01*
X240648Y211654D01*
D12*
X237568Y214868D02*
X236947Y214868D01*
X237568Y214868D02*
X237617Y214870D01*
X237665Y214876D01*
X237713Y214885D01*
X237760Y214898D01*
X237806Y214915D01*
X237850Y214936D01*
X237892Y214960D01*
X237933Y214987D01*
X237971Y215017D01*
X238007Y215050D01*
X238040Y215086D01*
X238070Y215124D01*
X238097Y215165D01*
X238121Y215207D01*
X238142Y215251D01*
X238159Y215297D01*
X238172Y215344D01*
X238181Y215392D01*
X238187Y215440D01*
X238189Y215489D01*
X238189Y217041D01*
X238187Y217090D01*
X238181Y217138D01*
X238172Y217186D01*
X238159Y217233D01*
X238142Y217279D01*
X238121Y217323D01*
X238097Y217365D01*
X238070Y217406D01*
X238040Y217444D01*
X238007Y217480D01*
X237971Y217513D01*
X237933Y217543D01*
X237892Y217570D01*
X237850Y217594D01*
X237806Y217615D01*
X237760Y217632D01*
X237713Y217645D01*
X237665Y217654D01*
X237617Y217660D01*
X237568Y217662D01*
X236947Y217662D01*
X235895Y217041D02*
X235119Y217662D01*
X235119Y214868D01*
X235895Y214868D02*
X234343Y214868D01*
X233152Y216265D02*
X233150Y216360D01*
X233144Y216455D01*
X233134Y216549D01*
X233121Y216643D01*
X233103Y216736D01*
X233082Y216829D01*
X233057Y216921D01*
X233028Y217011D01*
X232995Y217100D01*
X232959Y217188D01*
X232919Y217274D01*
X232903Y217316D01*
X232884Y217356D01*
X232861Y217394D01*
X232836Y217431D01*
X232808Y217466D01*
X232778Y217498D01*
X232745Y217528D01*
X232710Y217555D01*
X232672Y217580D01*
X232633Y217601D01*
X232593Y217619D01*
X232551Y217635D01*
X232508Y217647D01*
X232465Y217655D01*
X232420Y217660D01*
X232376Y217662D01*
X232332Y217660D01*
X232287Y217655D01*
X232244Y217647D01*
X232201Y217635D01*
X232159Y217619D01*
X232119Y217601D01*
X232080Y217580D01*
X232042Y217555D01*
X232007Y217528D01*
X231974Y217498D01*
X231944Y217466D01*
X231916Y217431D01*
X231891Y217394D01*
X231868Y217356D01*
X231849Y217316D01*
X231833Y217274D01*
X231793Y217188D01*
X231757Y217100D01*
X231724Y217011D01*
X231695Y216920D01*
X231670Y216829D01*
X231649Y216736D01*
X231631Y216643D01*
X231618Y216549D01*
X231608Y216455D01*
X231602Y216360D01*
X231600Y216265D01*
X233152Y216265D02*
X233150Y216170D01*
X233144Y216075D01*
X233134Y215981D01*
X233121Y215887D01*
X233103Y215794D01*
X233082Y215701D01*
X233057Y215610D01*
X233028Y215519D01*
X232995Y215430D01*
X232959Y215342D01*
X232919Y215256D01*
X232903Y215214D01*
X232884Y215174D01*
X232861Y215136D01*
X232836Y215099D01*
X232808Y215064D01*
X232778Y215032D01*
X232745Y215002D01*
X232710Y214975D01*
X232672Y214950D01*
X232633Y214929D01*
X232593Y214911D01*
X232551Y214895D01*
X232508Y214883D01*
X232465Y214875D01*
X232420Y214870D01*
X232376Y214868D01*
X231832Y215256D02*
X231792Y215342D01*
X231756Y215430D01*
X231723Y215519D01*
X231694Y215609D01*
X231669Y215701D01*
X231648Y215794D01*
X231630Y215887D01*
X231617Y215981D01*
X231607Y216075D01*
X231601Y216170D01*
X231599Y216265D01*
X231833Y215256D02*
X231849Y215214D01*
X231868Y215174D01*
X231891Y215136D01*
X231916Y215099D01*
X231944Y215064D01*
X231974Y215032D01*
X232007Y215002D01*
X232042Y214975D01*
X232080Y214950D01*
X232119Y214929D01*
X232159Y214911D01*
X232201Y214895D01*
X232244Y214883D01*
X232287Y214875D01*
X232332Y214870D01*
X232376Y214868D01*
X232996Y215489D02*
X231755Y217041D01*
X230408Y214868D02*
X229477Y214868D01*
X229428Y214870D01*
X229380Y214876D01*
X229332Y214885D01*
X229285Y214898D01*
X229239Y214915D01*
X229195Y214936D01*
X229153Y214959D01*
X229112Y214987D01*
X229074Y215017D01*
X229038Y215050D01*
X229005Y215086D01*
X228975Y215124D01*
X228948Y215164D01*
X228924Y215207D01*
X228903Y215251D01*
X228886Y215297D01*
X228873Y215344D01*
X228864Y215392D01*
X228858Y215440D01*
X228856Y215489D01*
X228856Y215799D01*
X228858Y215848D01*
X228864Y215896D01*
X228873Y215944D01*
X228886Y215991D01*
X228903Y216037D01*
X228924Y216081D01*
X228948Y216123D01*
X228975Y216164D01*
X229005Y216202D01*
X229038Y216238D01*
X229074Y216271D01*
X229112Y216301D01*
X229153Y216329D01*
X229195Y216352D01*
X229239Y216373D01*
X229285Y216390D01*
X229332Y216403D01*
X229380Y216412D01*
X229428Y216418D01*
X229477Y216420D01*
X230408Y216420D01*
X230408Y217662D01*
X228856Y217662D01*
D11*
X235060Y258898D02*
X235060Y267898D01*
X217060Y267898D01*
X217060Y258898D01*
X235060Y258898D01*
D12*
X231980Y262112D02*
X231359Y262112D01*
X231980Y262112D02*
X232029Y262114D01*
X232077Y262120D01*
X232125Y262129D01*
X232172Y262142D01*
X232218Y262159D01*
X232262Y262180D01*
X232304Y262204D01*
X232345Y262231D01*
X232383Y262261D01*
X232419Y262294D01*
X232452Y262330D01*
X232482Y262368D01*
X232509Y262409D01*
X232533Y262451D01*
X232554Y262495D01*
X232571Y262541D01*
X232584Y262588D01*
X232593Y262636D01*
X232599Y262684D01*
X232601Y262733D01*
X232601Y264285D01*
X232599Y264334D01*
X232593Y264382D01*
X232584Y264430D01*
X232571Y264477D01*
X232554Y264523D01*
X232533Y264567D01*
X232509Y264609D01*
X232482Y264650D01*
X232452Y264688D01*
X232419Y264724D01*
X232383Y264757D01*
X232345Y264787D01*
X232304Y264814D01*
X232262Y264838D01*
X232218Y264859D01*
X232172Y264876D01*
X232125Y264889D01*
X232077Y264898D01*
X232029Y264904D01*
X231980Y264906D01*
X231359Y264906D01*
X230307Y264285D02*
X229531Y264906D01*
X229531Y262112D01*
X230307Y262112D02*
X228755Y262112D01*
X227564Y263509D02*
X227562Y263604D01*
X227556Y263699D01*
X227546Y263793D01*
X227533Y263887D01*
X227515Y263980D01*
X227494Y264073D01*
X227469Y264165D01*
X227440Y264255D01*
X227407Y264344D01*
X227371Y264432D01*
X227331Y264518D01*
X227315Y264560D01*
X227296Y264600D01*
X227273Y264638D01*
X227248Y264675D01*
X227220Y264710D01*
X227190Y264742D01*
X227157Y264772D01*
X227122Y264799D01*
X227084Y264824D01*
X227045Y264845D01*
X227005Y264863D01*
X226963Y264879D01*
X226920Y264891D01*
X226877Y264899D01*
X226832Y264904D01*
X226788Y264906D01*
X226744Y264904D01*
X226699Y264899D01*
X226656Y264891D01*
X226613Y264879D01*
X226571Y264863D01*
X226531Y264845D01*
X226492Y264824D01*
X226454Y264799D01*
X226419Y264772D01*
X226386Y264742D01*
X226356Y264710D01*
X226328Y264675D01*
X226303Y264638D01*
X226280Y264600D01*
X226261Y264560D01*
X226245Y264518D01*
X226205Y264432D01*
X226169Y264344D01*
X226136Y264255D01*
X226107Y264164D01*
X226082Y264073D01*
X226061Y263980D01*
X226043Y263887D01*
X226030Y263793D01*
X226020Y263699D01*
X226014Y263604D01*
X226012Y263509D01*
X227564Y263509D02*
X227562Y263414D01*
X227556Y263319D01*
X227546Y263225D01*
X227533Y263131D01*
X227515Y263038D01*
X227494Y262945D01*
X227469Y262854D01*
X227440Y262763D01*
X227407Y262674D01*
X227371Y262586D01*
X227331Y262500D01*
X227315Y262458D01*
X227296Y262418D01*
X227273Y262380D01*
X227248Y262343D01*
X227220Y262308D01*
X227190Y262276D01*
X227157Y262246D01*
X227122Y262219D01*
X227084Y262194D01*
X227045Y262173D01*
X227005Y262155D01*
X226963Y262139D01*
X226920Y262127D01*
X226877Y262119D01*
X226832Y262114D01*
X226788Y262112D01*
X226244Y262500D02*
X226204Y262586D01*
X226168Y262674D01*
X226135Y262763D01*
X226106Y262853D01*
X226081Y262945D01*
X226060Y263038D01*
X226042Y263131D01*
X226029Y263225D01*
X226019Y263319D01*
X226013Y263414D01*
X226011Y263509D01*
X226245Y262500D02*
X226261Y262458D01*
X226280Y262418D01*
X226303Y262380D01*
X226328Y262343D01*
X226356Y262308D01*
X226386Y262276D01*
X226419Y262246D01*
X226454Y262219D01*
X226492Y262194D01*
X226531Y262173D01*
X226571Y262155D01*
X226613Y262139D01*
X226656Y262127D01*
X226699Y262119D01*
X226744Y262114D01*
X226788Y262112D01*
X227408Y262733D02*
X226167Y264285D01*
X224820Y262112D02*
X224044Y262112D01*
X223989Y262114D01*
X223934Y262120D01*
X223879Y262130D01*
X223825Y262143D01*
X223773Y262161D01*
X223722Y262182D01*
X223672Y262207D01*
X223624Y262235D01*
X223579Y262267D01*
X223536Y262302D01*
X223495Y262339D01*
X223458Y262380D01*
X223423Y262423D01*
X223391Y262468D01*
X223363Y262516D01*
X223338Y262566D01*
X223317Y262617D01*
X223299Y262669D01*
X223286Y262723D01*
X223276Y262778D01*
X223270Y262833D01*
X223268Y262888D01*
X223270Y262943D01*
X223276Y262998D01*
X223286Y263053D01*
X223299Y263107D01*
X223317Y263159D01*
X223338Y263210D01*
X223363Y263260D01*
X223391Y263308D01*
X223423Y263353D01*
X223458Y263396D01*
X223495Y263437D01*
X223536Y263474D01*
X223579Y263509D01*
X223624Y263541D01*
X223672Y263569D01*
X223722Y263594D01*
X223773Y263615D01*
X223825Y263633D01*
X223879Y263646D01*
X223934Y263656D01*
X223989Y263662D01*
X224044Y263664D01*
X223889Y264906D02*
X224820Y264906D01*
X223889Y264906D02*
X223840Y264904D01*
X223792Y264898D01*
X223744Y264889D01*
X223697Y264876D01*
X223651Y264859D01*
X223607Y264838D01*
X223565Y264814D01*
X223524Y264787D01*
X223486Y264757D01*
X223450Y264724D01*
X223417Y264688D01*
X223387Y264650D01*
X223360Y264609D01*
X223336Y264567D01*
X223315Y264523D01*
X223298Y264477D01*
X223285Y264430D01*
X223276Y264382D01*
X223270Y264334D01*
X223268Y264285D01*
X223270Y264236D01*
X223276Y264188D01*
X223285Y264140D01*
X223298Y264093D01*
X223315Y264047D01*
X223336Y264003D01*
X223360Y263961D01*
X223387Y263920D01*
X223417Y263882D01*
X223450Y263846D01*
X223486Y263813D01*
X223524Y263783D01*
X223565Y263756D01*
X223607Y263732D01*
X223651Y263711D01*
X223697Y263694D01*
X223744Y263681D01*
X223792Y263672D01*
X223840Y263666D01*
X223889Y263664D01*
X224510Y263664D01*
D11*
X86470Y372182D02*
X86470Y381182D01*
X68470Y381182D01*
X68470Y372182D01*
X86470Y372182D01*
D12*
X83390Y375396D02*
X82769Y375396D01*
X83390Y375396D02*
X83439Y375398D01*
X83487Y375404D01*
X83535Y375413D01*
X83582Y375426D01*
X83628Y375443D01*
X83672Y375464D01*
X83714Y375488D01*
X83755Y375515D01*
X83793Y375545D01*
X83829Y375578D01*
X83862Y375614D01*
X83892Y375652D01*
X83919Y375693D01*
X83943Y375735D01*
X83964Y375779D01*
X83981Y375825D01*
X83994Y375872D01*
X84003Y375920D01*
X84009Y375968D01*
X84011Y376017D01*
X84011Y377569D01*
X84009Y377618D01*
X84003Y377666D01*
X83994Y377714D01*
X83981Y377761D01*
X83964Y377807D01*
X83943Y377851D01*
X83919Y377893D01*
X83892Y377934D01*
X83862Y377972D01*
X83829Y378008D01*
X83793Y378041D01*
X83755Y378071D01*
X83714Y378098D01*
X83672Y378122D01*
X83628Y378143D01*
X83582Y378160D01*
X83535Y378173D01*
X83487Y378182D01*
X83439Y378188D01*
X83390Y378190D01*
X82769Y378190D01*
X80863Y378191D02*
X80813Y378189D01*
X80764Y378184D01*
X80714Y378175D01*
X80666Y378163D01*
X80619Y378147D01*
X80573Y378128D01*
X80528Y378105D01*
X80485Y378080D01*
X80444Y378052D01*
X80405Y378020D01*
X80369Y377986D01*
X80335Y377950D01*
X80303Y377911D01*
X80275Y377870D01*
X80250Y377827D01*
X80227Y377782D01*
X80208Y377736D01*
X80192Y377689D01*
X80180Y377641D01*
X80171Y377591D01*
X80166Y377542D01*
X80164Y377492D01*
X80863Y378190D02*
X80919Y378188D01*
X80976Y378183D01*
X81031Y378174D01*
X81086Y378162D01*
X81140Y378146D01*
X81193Y378127D01*
X81245Y378104D01*
X81295Y378079D01*
X81344Y378050D01*
X81391Y378018D01*
X81435Y377984D01*
X81477Y377947D01*
X81517Y377907D01*
X81555Y377864D01*
X81589Y377820D01*
X81621Y377773D01*
X81649Y377724D01*
X81675Y377674D01*
X81697Y377622D01*
X81716Y377569D01*
X80398Y376949D02*
X80362Y376985D01*
X80329Y377023D01*
X80299Y377064D01*
X80272Y377106D01*
X80247Y377151D01*
X80226Y377197D01*
X80207Y377244D01*
X80192Y377292D01*
X80180Y377341D01*
X80172Y377391D01*
X80167Y377441D01*
X80165Y377492D01*
X80398Y376948D02*
X81717Y375396D01*
X80165Y375396D01*
X78974Y376793D02*
X78972Y376888D01*
X78966Y376983D01*
X78956Y377077D01*
X78943Y377171D01*
X78925Y377264D01*
X78904Y377357D01*
X78879Y377449D01*
X78850Y377539D01*
X78817Y377628D01*
X78781Y377716D01*
X78741Y377802D01*
X78725Y377844D01*
X78706Y377884D01*
X78683Y377922D01*
X78658Y377959D01*
X78630Y377994D01*
X78600Y378026D01*
X78567Y378056D01*
X78532Y378083D01*
X78494Y378108D01*
X78455Y378129D01*
X78415Y378147D01*
X78373Y378163D01*
X78330Y378175D01*
X78287Y378183D01*
X78242Y378188D01*
X78198Y378190D01*
X78154Y378188D01*
X78109Y378183D01*
X78066Y378175D01*
X78023Y378163D01*
X77981Y378147D01*
X77941Y378129D01*
X77902Y378108D01*
X77864Y378083D01*
X77829Y378056D01*
X77796Y378026D01*
X77766Y377994D01*
X77738Y377959D01*
X77713Y377922D01*
X77690Y377884D01*
X77671Y377844D01*
X77655Y377802D01*
X77615Y377716D01*
X77579Y377628D01*
X77546Y377539D01*
X77517Y377448D01*
X77492Y377357D01*
X77471Y377264D01*
X77453Y377171D01*
X77440Y377077D01*
X77430Y376983D01*
X77424Y376888D01*
X77422Y376793D01*
X78974Y376793D02*
X78972Y376698D01*
X78966Y376603D01*
X78956Y376509D01*
X78943Y376415D01*
X78925Y376322D01*
X78904Y376229D01*
X78879Y376138D01*
X78850Y376047D01*
X78817Y375958D01*
X78781Y375870D01*
X78741Y375784D01*
X78725Y375742D01*
X78706Y375702D01*
X78683Y375664D01*
X78658Y375627D01*
X78630Y375592D01*
X78600Y375560D01*
X78567Y375530D01*
X78532Y375503D01*
X78494Y375478D01*
X78455Y375457D01*
X78415Y375439D01*
X78373Y375423D01*
X78330Y375411D01*
X78287Y375403D01*
X78242Y375398D01*
X78198Y375396D01*
X77654Y375784D02*
X77614Y375870D01*
X77578Y375958D01*
X77545Y376047D01*
X77516Y376137D01*
X77491Y376229D01*
X77470Y376322D01*
X77452Y376415D01*
X77439Y376509D01*
X77429Y376603D01*
X77423Y376698D01*
X77421Y376793D01*
X77655Y375784D02*
X77671Y375742D01*
X77690Y375702D01*
X77713Y375664D01*
X77738Y375627D01*
X77766Y375592D01*
X77796Y375560D01*
X77829Y375530D01*
X77864Y375503D01*
X77902Y375478D01*
X77941Y375457D01*
X77981Y375439D01*
X78023Y375423D01*
X78066Y375411D01*
X78109Y375403D01*
X78154Y375398D01*
X78198Y375396D01*
X78818Y376017D02*
X77577Y377569D01*
X76230Y377569D02*
X75454Y378190D01*
X75454Y375396D01*
X76230Y375396D02*
X74678Y375396D01*
D11*
X83930Y341050D02*
X83930Y332050D01*
X83930Y341050D02*
X65930Y341050D01*
X65930Y332050D01*
X83930Y332050D01*
D12*
X80850Y335264D02*
X80229Y335264D01*
X80850Y335264D02*
X80899Y335266D01*
X80947Y335272D01*
X80995Y335281D01*
X81042Y335294D01*
X81088Y335311D01*
X81132Y335332D01*
X81174Y335356D01*
X81215Y335383D01*
X81253Y335413D01*
X81289Y335446D01*
X81322Y335482D01*
X81352Y335520D01*
X81379Y335561D01*
X81403Y335603D01*
X81424Y335647D01*
X81441Y335693D01*
X81454Y335740D01*
X81463Y335788D01*
X81469Y335836D01*
X81471Y335885D01*
X81471Y337437D01*
X81469Y337486D01*
X81463Y337534D01*
X81454Y337582D01*
X81441Y337629D01*
X81424Y337675D01*
X81403Y337719D01*
X81379Y337761D01*
X81352Y337802D01*
X81322Y337840D01*
X81289Y337876D01*
X81253Y337909D01*
X81215Y337939D01*
X81174Y337966D01*
X81132Y337990D01*
X81088Y338011D01*
X81042Y338028D01*
X80995Y338041D01*
X80947Y338050D01*
X80899Y338056D01*
X80850Y338058D01*
X80229Y338058D01*
X78323Y338059D02*
X78273Y338057D01*
X78224Y338052D01*
X78174Y338043D01*
X78126Y338031D01*
X78079Y338015D01*
X78033Y337996D01*
X77988Y337973D01*
X77945Y337948D01*
X77904Y337920D01*
X77865Y337888D01*
X77829Y337854D01*
X77795Y337818D01*
X77763Y337779D01*
X77735Y337738D01*
X77710Y337695D01*
X77687Y337650D01*
X77668Y337604D01*
X77652Y337557D01*
X77640Y337509D01*
X77631Y337459D01*
X77626Y337410D01*
X77624Y337360D01*
X78323Y338058D02*
X78379Y338056D01*
X78436Y338051D01*
X78491Y338042D01*
X78546Y338030D01*
X78600Y338014D01*
X78653Y337995D01*
X78705Y337972D01*
X78755Y337947D01*
X78804Y337918D01*
X78851Y337886D01*
X78895Y337852D01*
X78937Y337815D01*
X78977Y337775D01*
X79015Y337732D01*
X79049Y337688D01*
X79081Y337641D01*
X79109Y337592D01*
X79135Y337542D01*
X79157Y337490D01*
X79176Y337437D01*
X77858Y336817D02*
X77822Y336853D01*
X77789Y336891D01*
X77759Y336932D01*
X77732Y336974D01*
X77707Y337019D01*
X77686Y337065D01*
X77667Y337112D01*
X77652Y337160D01*
X77640Y337209D01*
X77632Y337259D01*
X77627Y337309D01*
X77625Y337360D01*
X77858Y336816D02*
X79177Y335264D01*
X77625Y335264D01*
X76434Y336661D02*
X76432Y336756D01*
X76426Y336851D01*
X76416Y336945D01*
X76403Y337039D01*
X76385Y337132D01*
X76364Y337225D01*
X76339Y337317D01*
X76310Y337407D01*
X76277Y337496D01*
X76241Y337584D01*
X76201Y337670D01*
X76185Y337712D01*
X76166Y337752D01*
X76143Y337790D01*
X76118Y337827D01*
X76090Y337862D01*
X76060Y337894D01*
X76027Y337924D01*
X75992Y337951D01*
X75954Y337976D01*
X75915Y337997D01*
X75875Y338015D01*
X75833Y338031D01*
X75790Y338043D01*
X75747Y338051D01*
X75702Y338056D01*
X75658Y338058D01*
X75614Y338056D01*
X75569Y338051D01*
X75526Y338043D01*
X75483Y338031D01*
X75441Y338015D01*
X75401Y337997D01*
X75362Y337976D01*
X75324Y337951D01*
X75289Y337924D01*
X75256Y337894D01*
X75226Y337862D01*
X75198Y337827D01*
X75173Y337790D01*
X75150Y337752D01*
X75131Y337712D01*
X75115Y337670D01*
X75075Y337584D01*
X75039Y337496D01*
X75006Y337407D01*
X74977Y337316D01*
X74952Y337225D01*
X74931Y337132D01*
X74913Y337039D01*
X74900Y336945D01*
X74890Y336851D01*
X74884Y336756D01*
X74882Y336661D01*
X76434Y336661D02*
X76432Y336566D01*
X76426Y336471D01*
X76416Y336377D01*
X76403Y336283D01*
X76385Y336190D01*
X76364Y336097D01*
X76339Y336006D01*
X76310Y335915D01*
X76277Y335826D01*
X76241Y335738D01*
X76201Y335652D01*
X76185Y335610D01*
X76166Y335570D01*
X76143Y335532D01*
X76118Y335495D01*
X76090Y335460D01*
X76060Y335428D01*
X76027Y335398D01*
X75992Y335371D01*
X75954Y335346D01*
X75915Y335325D01*
X75875Y335307D01*
X75833Y335291D01*
X75790Y335279D01*
X75747Y335271D01*
X75702Y335266D01*
X75658Y335264D01*
X75114Y335652D02*
X75074Y335738D01*
X75038Y335826D01*
X75005Y335915D01*
X74976Y336005D01*
X74951Y336097D01*
X74930Y336190D01*
X74912Y336283D01*
X74899Y336377D01*
X74889Y336471D01*
X74883Y336566D01*
X74881Y336661D01*
X75115Y335652D02*
X75131Y335610D01*
X75150Y335570D01*
X75173Y335532D01*
X75198Y335495D01*
X75226Y335460D01*
X75256Y335428D01*
X75289Y335398D01*
X75324Y335371D01*
X75362Y335346D01*
X75401Y335325D01*
X75441Y335307D01*
X75483Y335291D01*
X75526Y335279D01*
X75569Y335271D01*
X75614Y335266D01*
X75658Y335264D01*
X76278Y335885D02*
X75037Y337437D01*
X73690Y335264D02*
X72914Y335264D01*
X72859Y335266D01*
X72804Y335272D01*
X72749Y335282D01*
X72695Y335295D01*
X72643Y335313D01*
X72592Y335334D01*
X72542Y335359D01*
X72494Y335387D01*
X72449Y335419D01*
X72406Y335454D01*
X72365Y335491D01*
X72328Y335532D01*
X72293Y335575D01*
X72261Y335620D01*
X72233Y335668D01*
X72208Y335718D01*
X72187Y335769D01*
X72169Y335821D01*
X72156Y335875D01*
X72146Y335930D01*
X72140Y335985D01*
X72138Y336040D01*
X72140Y336095D01*
X72146Y336150D01*
X72156Y336205D01*
X72169Y336259D01*
X72187Y336311D01*
X72208Y336362D01*
X72233Y336412D01*
X72261Y336460D01*
X72293Y336505D01*
X72328Y336548D01*
X72365Y336589D01*
X72406Y336626D01*
X72449Y336661D01*
X72494Y336693D01*
X72542Y336721D01*
X72592Y336746D01*
X72643Y336767D01*
X72695Y336785D01*
X72749Y336798D01*
X72804Y336808D01*
X72859Y336814D01*
X72914Y336816D01*
X72759Y338058D02*
X73690Y338058D01*
X72759Y338058D02*
X72710Y338056D01*
X72662Y338050D01*
X72614Y338041D01*
X72567Y338028D01*
X72521Y338011D01*
X72477Y337990D01*
X72435Y337966D01*
X72394Y337939D01*
X72356Y337909D01*
X72320Y337876D01*
X72287Y337840D01*
X72257Y337802D01*
X72230Y337761D01*
X72206Y337719D01*
X72185Y337675D01*
X72168Y337629D01*
X72155Y337582D01*
X72146Y337534D01*
X72140Y337486D01*
X72138Y337437D01*
X72140Y337388D01*
X72146Y337340D01*
X72155Y337292D01*
X72168Y337245D01*
X72185Y337199D01*
X72206Y337155D01*
X72230Y337113D01*
X72257Y337072D01*
X72287Y337034D01*
X72320Y336998D01*
X72356Y336965D01*
X72394Y336935D01*
X72435Y336908D01*
X72477Y336884D01*
X72521Y336863D01*
X72567Y336846D01*
X72614Y336833D01*
X72662Y336824D01*
X72710Y336818D01*
X72759Y336816D01*
X73380Y336816D01*
D11*
X299864Y187888D02*
X299864Y178888D01*
X317864Y178888D01*
X317864Y187888D01*
X299864Y187888D01*
D12*
X310414Y181880D02*
X311035Y181880D01*
X311084Y181882D01*
X311132Y181888D01*
X311180Y181897D01*
X311227Y181910D01*
X311273Y181927D01*
X311317Y181948D01*
X311359Y181972D01*
X311400Y181999D01*
X311438Y182029D01*
X311474Y182062D01*
X311507Y182098D01*
X311537Y182136D01*
X311564Y182177D01*
X311588Y182219D01*
X311609Y182263D01*
X311626Y182309D01*
X311639Y182356D01*
X311648Y182404D01*
X311654Y182452D01*
X311656Y182501D01*
X311656Y184053D01*
X311654Y184102D01*
X311648Y184150D01*
X311639Y184198D01*
X311626Y184245D01*
X311609Y184291D01*
X311588Y184335D01*
X311564Y184377D01*
X311537Y184418D01*
X311507Y184456D01*
X311474Y184492D01*
X311438Y184525D01*
X311400Y184555D01*
X311359Y184582D01*
X311317Y184606D01*
X311273Y184627D01*
X311227Y184644D01*
X311180Y184657D01*
X311132Y184666D01*
X311084Y184672D01*
X311035Y184674D01*
X310414Y184674D01*
X309362Y184053D02*
X308586Y184674D01*
X308586Y181880D01*
X309362Y181880D02*
X307809Y181880D01*
X306619Y183277D02*
X306617Y183372D01*
X306611Y183467D01*
X306601Y183561D01*
X306588Y183655D01*
X306570Y183748D01*
X306549Y183841D01*
X306524Y183933D01*
X306495Y184023D01*
X306462Y184112D01*
X306426Y184200D01*
X306386Y184286D01*
X306385Y184286D02*
X306369Y184328D01*
X306350Y184368D01*
X306327Y184406D01*
X306302Y184443D01*
X306274Y184478D01*
X306244Y184510D01*
X306211Y184540D01*
X306176Y184567D01*
X306138Y184592D01*
X306099Y184613D01*
X306059Y184631D01*
X306017Y184647D01*
X305974Y184659D01*
X305931Y184667D01*
X305886Y184672D01*
X305842Y184674D01*
X305798Y184672D01*
X305753Y184667D01*
X305710Y184659D01*
X305667Y184647D01*
X305625Y184631D01*
X305585Y184613D01*
X305546Y184592D01*
X305508Y184567D01*
X305473Y184540D01*
X305440Y184510D01*
X305410Y184478D01*
X305382Y184443D01*
X305357Y184406D01*
X305334Y184368D01*
X305315Y184328D01*
X305299Y184286D01*
X305300Y184286D02*
X305260Y184200D01*
X305224Y184112D01*
X305191Y184023D01*
X305162Y183932D01*
X305137Y183841D01*
X305116Y183748D01*
X305098Y183655D01*
X305085Y183561D01*
X305075Y183467D01*
X305069Y183372D01*
X305067Y183277D01*
X306619Y183277D02*
X306617Y183182D01*
X306611Y183087D01*
X306601Y182993D01*
X306588Y182899D01*
X306570Y182806D01*
X306549Y182713D01*
X306524Y182622D01*
X306495Y182531D01*
X306462Y182442D01*
X306426Y182354D01*
X306386Y182268D01*
X306385Y182268D02*
X306369Y182226D01*
X306350Y182186D01*
X306327Y182148D01*
X306302Y182111D01*
X306274Y182076D01*
X306244Y182044D01*
X306211Y182014D01*
X306176Y181987D01*
X306138Y181962D01*
X306099Y181941D01*
X306059Y181923D01*
X306017Y181907D01*
X305974Y181895D01*
X305931Y181887D01*
X305886Y181882D01*
X305842Y181880D01*
X305299Y182268D02*
X305259Y182354D01*
X305223Y182442D01*
X305190Y182531D01*
X305161Y182621D01*
X305136Y182713D01*
X305115Y182806D01*
X305097Y182899D01*
X305084Y182993D01*
X305074Y183087D01*
X305068Y183182D01*
X305066Y183277D01*
X305299Y182268D02*
X305315Y182226D01*
X305334Y182186D01*
X305357Y182148D01*
X305382Y182111D01*
X305410Y182076D01*
X305440Y182044D01*
X305473Y182014D01*
X305508Y181987D01*
X305546Y181962D01*
X305585Y181941D01*
X305625Y181923D01*
X305667Y181907D01*
X305710Y181895D01*
X305753Y181887D01*
X305798Y181882D01*
X305842Y181880D01*
X306463Y182501D02*
X305221Y184053D01*
X303875Y182501D02*
X303254Y184674D01*
X303875Y182501D02*
X302323Y182501D01*
X302789Y183122D02*
X302789Y181880D01*
D11*
X299864Y194382D02*
X299864Y203382D01*
X299864Y194382D02*
X317864Y194382D01*
X317864Y203382D01*
X299864Y203382D01*
D12*
X310414Y197374D02*
X311035Y197374D01*
X311084Y197376D01*
X311132Y197382D01*
X311180Y197391D01*
X311227Y197404D01*
X311273Y197421D01*
X311317Y197442D01*
X311359Y197466D01*
X311400Y197493D01*
X311438Y197523D01*
X311474Y197556D01*
X311507Y197592D01*
X311537Y197630D01*
X311564Y197671D01*
X311588Y197713D01*
X311609Y197757D01*
X311626Y197803D01*
X311639Y197850D01*
X311648Y197898D01*
X311654Y197946D01*
X311656Y197995D01*
X311656Y199547D01*
X311654Y199596D01*
X311648Y199644D01*
X311639Y199692D01*
X311626Y199739D01*
X311609Y199785D01*
X311588Y199829D01*
X311564Y199871D01*
X311537Y199912D01*
X311507Y199950D01*
X311474Y199986D01*
X311438Y200019D01*
X311400Y200049D01*
X311359Y200076D01*
X311317Y200100D01*
X311273Y200121D01*
X311227Y200138D01*
X311180Y200151D01*
X311132Y200160D01*
X311084Y200166D01*
X311035Y200168D01*
X310414Y200168D01*
X309362Y199547D02*
X308586Y200168D01*
X308586Y197374D01*
X309362Y197374D02*
X307809Y197374D01*
X306619Y198771D02*
X306617Y198866D01*
X306611Y198961D01*
X306601Y199055D01*
X306588Y199149D01*
X306570Y199242D01*
X306549Y199335D01*
X306524Y199427D01*
X306495Y199517D01*
X306462Y199606D01*
X306426Y199694D01*
X306386Y199780D01*
X306385Y199780D02*
X306369Y199822D01*
X306350Y199862D01*
X306327Y199900D01*
X306302Y199937D01*
X306274Y199972D01*
X306244Y200004D01*
X306211Y200034D01*
X306176Y200061D01*
X306138Y200086D01*
X306099Y200107D01*
X306059Y200125D01*
X306017Y200141D01*
X305974Y200153D01*
X305931Y200161D01*
X305886Y200166D01*
X305842Y200168D01*
X305798Y200166D01*
X305753Y200161D01*
X305710Y200153D01*
X305667Y200141D01*
X305625Y200125D01*
X305585Y200107D01*
X305546Y200086D01*
X305508Y200061D01*
X305473Y200034D01*
X305440Y200004D01*
X305410Y199972D01*
X305382Y199937D01*
X305357Y199900D01*
X305334Y199862D01*
X305315Y199822D01*
X305299Y199780D01*
X305300Y199780D02*
X305260Y199694D01*
X305224Y199606D01*
X305191Y199517D01*
X305162Y199426D01*
X305137Y199335D01*
X305116Y199242D01*
X305098Y199149D01*
X305085Y199055D01*
X305075Y198961D01*
X305069Y198866D01*
X305067Y198771D01*
X306619Y198771D02*
X306617Y198676D01*
X306611Y198581D01*
X306601Y198487D01*
X306588Y198393D01*
X306570Y198300D01*
X306549Y198207D01*
X306524Y198116D01*
X306495Y198025D01*
X306462Y197936D01*
X306426Y197848D01*
X306386Y197762D01*
X306385Y197762D02*
X306369Y197720D01*
X306350Y197680D01*
X306327Y197642D01*
X306302Y197605D01*
X306274Y197570D01*
X306244Y197538D01*
X306211Y197508D01*
X306176Y197481D01*
X306138Y197456D01*
X306099Y197435D01*
X306059Y197417D01*
X306017Y197401D01*
X305974Y197389D01*
X305931Y197381D01*
X305886Y197376D01*
X305842Y197374D01*
X305299Y197762D02*
X305259Y197848D01*
X305223Y197936D01*
X305190Y198025D01*
X305161Y198115D01*
X305136Y198207D01*
X305115Y198300D01*
X305097Y198393D01*
X305084Y198487D01*
X305074Y198581D01*
X305068Y198676D01*
X305066Y198771D01*
X305299Y197762D02*
X305315Y197720D01*
X305334Y197680D01*
X305357Y197642D01*
X305382Y197605D01*
X305410Y197570D01*
X305440Y197538D01*
X305473Y197508D01*
X305508Y197481D01*
X305546Y197456D01*
X305585Y197435D01*
X305625Y197417D01*
X305667Y197401D01*
X305710Y197389D01*
X305753Y197381D01*
X305798Y197376D01*
X305842Y197374D01*
X306463Y197995D02*
X305221Y199547D01*
X303875Y198926D02*
X302944Y198926D01*
X302895Y198924D01*
X302847Y198918D01*
X302799Y198909D01*
X302752Y198896D01*
X302706Y198879D01*
X302662Y198858D01*
X302620Y198834D01*
X302579Y198807D01*
X302541Y198777D01*
X302505Y198744D01*
X302472Y198708D01*
X302442Y198670D01*
X302415Y198629D01*
X302391Y198587D01*
X302370Y198543D01*
X302353Y198497D01*
X302340Y198450D01*
X302331Y198402D01*
X302325Y198354D01*
X302323Y198305D01*
X302323Y198150D01*
X302325Y198095D01*
X302331Y198040D01*
X302341Y197985D01*
X302354Y197931D01*
X302372Y197879D01*
X302393Y197828D01*
X302418Y197778D01*
X302446Y197730D01*
X302478Y197685D01*
X302513Y197642D01*
X302550Y197601D01*
X302591Y197564D01*
X302634Y197529D01*
X302679Y197497D01*
X302727Y197469D01*
X302777Y197444D01*
X302828Y197423D01*
X302880Y197405D01*
X302934Y197392D01*
X302989Y197382D01*
X303044Y197376D01*
X303099Y197374D01*
X303154Y197376D01*
X303209Y197382D01*
X303264Y197392D01*
X303318Y197405D01*
X303370Y197423D01*
X303421Y197444D01*
X303471Y197469D01*
X303519Y197497D01*
X303564Y197529D01*
X303607Y197564D01*
X303648Y197601D01*
X303685Y197642D01*
X303720Y197685D01*
X303752Y197730D01*
X303780Y197778D01*
X303805Y197828D01*
X303826Y197879D01*
X303844Y197931D01*
X303857Y197985D01*
X303867Y198040D01*
X303873Y198095D01*
X303875Y198150D01*
X303875Y198926D01*
X303873Y198996D01*
X303867Y199065D01*
X303857Y199134D01*
X303844Y199202D01*
X303826Y199270D01*
X303805Y199336D01*
X303780Y199401D01*
X303752Y199465D01*
X303720Y199527D01*
X303685Y199587D01*
X303646Y199645D01*
X303604Y199700D01*
X303559Y199754D01*
X303511Y199804D01*
X303461Y199852D01*
X303407Y199897D01*
X303352Y199939D01*
X303294Y199978D01*
X303234Y200013D01*
X303172Y200045D01*
X303108Y200073D01*
X303043Y200098D01*
X302977Y200119D01*
X302909Y200137D01*
X302841Y200150D01*
X302772Y200160D01*
X302703Y200166D01*
X302633Y200168D01*
D11*
X236910Y189086D02*
X227910Y189086D01*
X227910Y171086D01*
X236910Y171086D01*
X236910Y189086D01*
D12*
X230902Y178536D02*
X230902Y177915D01*
X230904Y177866D01*
X230910Y177818D01*
X230919Y177770D01*
X230932Y177723D01*
X230949Y177677D01*
X230970Y177633D01*
X230994Y177591D01*
X231021Y177550D01*
X231051Y177512D01*
X231084Y177476D01*
X231120Y177443D01*
X231158Y177413D01*
X231199Y177386D01*
X231241Y177362D01*
X231285Y177341D01*
X231331Y177324D01*
X231378Y177311D01*
X231426Y177302D01*
X231474Y177296D01*
X231523Y177294D01*
X233075Y177294D01*
X233124Y177296D01*
X233172Y177302D01*
X233220Y177311D01*
X233267Y177324D01*
X233313Y177341D01*
X233357Y177362D01*
X233399Y177386D01*
X233440Y177413D01*
X233478Y177443D01*
X233514Y177476D01*
X233547Y177512D01*
X233577Y177550D01*
X233604Y177591D01*
X233628Y177633D01*
X233649Y177677D01*
X233666Y177723D01*
X233679Y177770D01*
X233688Y177818D01*
X233694Y177866D01*
X233696Y177915D01*
X233696Y178536D01*
X233075Y179588D02*
X233696Y180364D01*
X230902Y180364D01*
X230902Y179588D02*
X230902Y181141D01*
X233075Y182332D02*
X233696Y183108D01*
X230902Y183108D01*
X230902Y182332D02*
X230902Y183884D01*
X233075Y185075D02*
X233696Y185851D01*
X230902Y185851D01*
X230902Y185075D02*
X230902Y186627D01*
D11*
X249500Y202836D02*
X258500Y202836D01*
X258500Y220836D01*
X249500Y220836D01*
X249500Y202836D01*
D12*
X252714Y205916D02*
X252714Y206537D01*
X252714Y205916D02*
X252716Y205867D01*
X252722Y205819D01*
X252731Y205771D01*
X252744Y205724D01*
X252761Y205678D01*
X252782Y205634D01*
X252806Y205592D01*
X252833Y205551D01*
X252863Y205513D01*
X252896Y205477D01*
X252932Y205444D01*
X252970Y205414D01*
X253011Y205387D01*
X253053Y205363D01*
X253097Y205342D01*
X253143Y205325D01*
X253190Y205312D01*
X253238Y205303D01*
X253286Y205297D01*
X253335Y205295D01*
X254887Y205295D01*
X254936Y205297D01*
X254984Y205303D01*
X255032Y205312D01*
X255079Y205325D01*
X255125Y205342D01*
X255169Y205363D01*
X255211Y205387D01*
X255252Y205414D01*
X255290Y205444D01*
X255326Y205477D01*
X255359Y205513D01*
X255389Y205551D01*
X255416Y205592D01*
X255440Y205634D01*
X255461Y205678D01*
X255478Y205724D01*
X255491Y205771D01*
X255500Y205819D01*
X255506Y205867D01*
X255508Y205916D01*
X255508Y206537D01*
X254887Y207589D02*
X255508Y208365D01*
X252714Y208365D01*
X252714Y207589D02*
X252714Y209141D01*
X254887Y210332D02*
X255508Y211108D01*
X252714Y211108D01*
X252714Y210332D02*
X252714Y211885D01*
X254810Y214628D02*
X254860Y214626D01*
X254909Y214621D01*
X254959Y214612D01*
X255007Y214600D01*
X255054Y214584D01*
X255100Y214565D01*
X255145Y214542D01*
X255188Y214517D01*
X255229Y214489D01*
X255268Y214457D01*
X255304Y214423D01*
X255338Y214387D01*
X255370Y214348D01*
X255398Y214307D01*
X255423Y214264D01*
X255446Y214219D01*
X255465Y214173D01*
X255481Y214126D01*
X255493Y214078D01*
X255502Y214028D01*
X255507Y213979D01*
X255509Y213929D01*
X255508Y213929D02*
X255506Y213873D01*
X255501Y213816D01*
X255492Y213761D01*
X255480Y213706D01*
X255464Y213652D01*
X255445Y213599D01*
X255423Y213547D01*
X255397Y213497D01*
X255368Y213448D01*
X255336Y213401D01*
X255302Y213357D01*
X255265Y213315D01*
X255225Y213275D01*
X255182Y213237D01*
X255138Y213203D01*
X255091Y213171D01*
X255043Y213143D01*
X254992Y213117D01*
X254940Y213095D01*
X254887Y213076D01*
X254267Y214395D02*
X254303Y214431D01*
X254341Y214464D01*
X254382Y214494D01*
X254425Y214521D01*
X254469Y214546D01*
X254515Y214567D01*
X254562Y214586D01*
X254610Y214601D01*
X254659Y214613D01*
X254709Y214621D01*
X254759Y214626D01*
X254810Y214628D01*
X254266Y214395D02*
X252714Y213076D01*
X252714Y214628D01*
D11*
X249356Y189594D02*
X240356Y189594D01*
X240356Y171594D01*
X249356Y171594D01*
X249356Y189594D01*
D12*
X243348Y179044D02*
X243348Y178423D01*
X243350Y178374D01*
X243356Y178326D01*
X243365Y178278D01*
X243378Y178231D01*
X243395Y178185D01*
X243416Y178141D01*
X243440Y178099D01*
X243467Y178058D01*
X243497Y178020D01*
X243530Y177984D01*
X243566Y177951D01*
X243604Y177921D01*
X243645Y177894D01*
X243687Y177870D01*
X243731Y177849D01*
X243777Y177832D01*
X243824Y177819D01*
X243872Y177810D01*
X243920Y177804D01*
X243969Y177802D01*
X245521Y177802D01*
X245570Y177804D01*
X245618Y177810D01*
X245666Y177819D01*
X245713Y177832D01*
X245759Y177849D01*
X245803Y177870D01*
X245845Y177894D01*
X245886Y177921D01*
X245924Y177951D01*
X245960Y177984D01*
X245993Y178020D01*
X246023Y178058D01*
X246050Y178099D01*
X246074Y178141D01*
X246095Y178185D01*
X246112Y178231D01*
X246125Y178278D01*
X246134Y178326D01*
X246140Y178374D01*
X246142Y178423D01*
X246142Y179044D01*
X245521Y180096D02*
X246142Y180872D01*
X243348Y180872D01*
X243348Y180096D02*
X243348Y181649D01*
X245521Y182840D02*
X246142Y183616D01*
X243348Y183616D01*
X243348Y182840D02*
X243348Y184392D01*
X243348Y185583D02*
X243348Y186359D01*
X243350Y186414D01*
X243356Y186469D01*
X243366Y186524D01*
X243379Y186578D01*
X243397Y186630D01*
X243418Y186681D01*
X243443Y186731D01*
X243471Y186779D01*
X243503Y186824D01*
X243538Y186867D01*
X243575Y186908D01*
X243616Y186945D01*
X243659Y186980D01*
X243704Y187012D01*
X243752Y187040D01*
X243802Y187065D01*
X243853Y187086D01*
X243905Y187104D01*
X243959Y187117D01*
X244014Y187127D01*
X244069Y187133D01*
X244124Y187135D01*
X244179Y187133D01*
X244234Y187127D01*
X244289Y187117D01*
X244343Y187104D01*
X244395Y187086D01*
X244446Y187065D01*
X244496Y187040D01*
X244544Y187012D01*
X244589Y186980D01*
X244632Y186945D01*
X244673Y186908D01*
X244710Y186867D01*
X244745Y186824D01*
X244777Y186779D01*
X244805Y186731D01*
X244830Y186681D01*
X244851Y186630D01*
X244869Y186578D01*
X244882Y186524D01*
X244892Y186469D01*
X244898Y186414D01*
X244900Y186359D01*
X246142Y186514D02*
X246142Y185583D01*
X246142Y186514D02*
X246140Y186563D01*
X246134Y186611D01*
X246125Y186659D01*
X246112Y186706D01*
X246095Y186752D01*
X246074Y186796D01*
X246050Y186838D01*
X246023Y186879D01*
X245993Y186917D01*
X245960Y186953D01*
X245924Y186986D01*
X245886Y187016D01*
X245845Y187043D01*
X245803Y187067D01*
X245759Y187088D01*
X245713Y187105D01*
X245666Y187118D01*
X245618Y187127D01*
X245570Y187133D01*
X245521Y187135D01*
X245472Y187133D01*
X245424Y187127D01*
X245376Y187118D01*
X245329Y187105D01*
X245283Y187088D01*
X245239Y187067D01*
X245197Y187043D01*
X245156Y187016D01*
X245118Y186986D01*
X245082Y186953D01*
X245049Y186917D01*
X245019Y186879D01*
X244992Y186838D01*
X244968Y186796D01*
X244947Y186752D01*
X244930Y186706D01*
X244917Y186659D01*
X244908Y186611D01*
X244902Y186563D01*
X244900Y186514D01*
X244900Y185893D01*
D11*
X76852Y286330D02*
X76852Y295330D01*
X76852Y286330D02*
X94852Y286330D01*
X94852Y295330D01*
X76852Y295330D01*
D12*
X87402Y289322D02*
X88023Y289322D01*
X88072Y289324D01*
X88120Y289330D01*
X88168Y289339D01*
X88215Y289352D01*
X88261Y289369D01*
X88305Y289390D01*
X88347Y289414D01*
X88388Y289441D01*
X88426Y289471D01*
X88462Y289504D01*
X88495Y289540D01*
X88525Y289578D01*
X88552Y289619D01*
X88576Y289661D01*
X88597Y289705D01*
X88614Y289751D01*
X88627Y289798D01*
X88636Y289846D01*
X88642Y289894D01*
X88644Y289943D01*
X88644Y291495D01*
X88642Y291544D01*
X88636Y291592D01*
X88627Y291640D01*
X88614Y291687D01*
X88597Y291733D01*
X88576Y291777D01*
X88552Y291819D01*
X88525Y291860D01*
X88495Y291898D01*
X88462Y291934D01*
X88426Y291967D01*
X88388Y291997D01*
X88347Y292024D01*
X88305Y292048D01*
X88261Y292069D01*
X88215Y292086D01*
X88168Y292099D01*
X88120Y292108D01*
X88072Y292114D01*
X88023Y292116D01*
X87402Y292116D01*
X85496Y292117D02*
X85446Y292115D01*
X85397Y292110D01*
X85347Y292101D01*
X85299Y292089D01*
X85252Y292073D01*
X85206Y292054D01*
X85161Y292031D01*
X85118Y292006D01*
X85077Y291978D01*
X85038Y291946D01*
X85002Y291912D01*
X84968Y291876D01*
X84936Y291837D01*
X84908Y291796D01*
X84883Y291753D01*
X84860Y291708D01*
X84841Y291662D01*
X84825Y291615D01*
X84813Y291567D01*
X84804Y291517D01*
X84799Y291468D01*
X84797Y291418D01*
X85496Y292116D02*
X85552Y292114D01*
X85609Y292109D01*
X85664Y292100D01*
X85719Y292088D01*
X85773Y292072D01*
X85826Y292053D01*
X85878Y292030D01*
X85928Y292005D01*
X85977Y291976D01*
X86024Y291944D01*
X86068Y291910D01*
X86110Y291873D01*
X86150Y291833D01*
X86188Y291790D01*
X86222Y291746D01*
X86254Y291699D01*
X86282Y291650D01*
X86308Y291600D01*
X86330Y291548D01*
X86349Y291495D01*
X85031Y290875D02*
X84995Y290911D01*
X84962Y290949D01*
X84932Y290990D01*
X84905Y291032D01*
X84880Y291077D01*
X84859Y291123D01*
X84840Y291170D01*
X84825Y291218D01*
X84813Y291267D01*
X84805Y291317D01*
X84800Y291367D01*
X84798Y291418D01*
X85030Y290874D02*
X86350Y289322D01*
X84797Y289322D01*
X83607Y290719D02*
X83605Y290814D01*
X83599Y290909D01*
X83589Y291003D01*
X83576Y291097D01*
X83558Y291190D01*
X83537Y291283D01*
X83512Y291375D01*
X83483Y291465D01*
X83450Y291554D01*
X83414Y291642D01*
X83374Y291728D01*
X83373Y291728D02*
X83357Y291770D01*
X83338Y291810D01*
X83315Y291848D01*
X83290Y291885D01*
X83262Y291920D01*
X83232Y291952D01*
X83199Y291982D01*
X83164Y292009D01*
X83126Y292034D01*
X83087Y292055D01*
X83047Y292073D01*
X83005Y292089D01*
X82962Y292101D01*
X82919Y292109D01*
X82874Y292114D01*
X82830Y292116D01*
X82786Y292114D01*
X82741Y292109D01*
X82698Y292101D01*
X82655Y292089D01*
X82613Y292073D01*
X82573Y292055D01*
X82534Y292034D01*
X82496Y292009D01*
X82461Y291982D01*
X82428Y291952D01*
X82398Y291920D01*
X82370Y291885D01*
X82345Y291848D01*
X82322Y291810D01*
X82303Y291770D01*
X82287Y291728D01*
X82288Y291728D02*
X82248Y291642D01*
X82212Y291554D01*
X82179Y291465D01*
X82150Y291374D01*
X82125Y291283D01*
X82104Y291190D01*
X82086Y291097D01*
X82073Y291003D01*
X82063Y290909D01*
X82057Y290814D01*
X82055Y290719D01*
X83607Y290719D02*
X83605Y290624D01*
X83599Y290529D01*
X83589Y290435D01*
X83576Y290341D01*
X83558Y290248D01*
X83537Y290155D01*
X83512Y290064D01*
X83483Y289973D01*
X83450Y289884D01*
X83414Y289796D01*
X83374Y289710D01*
X83373Y289710D02*
X83357Y289668D01*
X83338Y289628D01*
X83315Y289590D01*
X83290Y289553D01*
X83262Y289518D01*
X83232Y289486D01*
X83199Y289456D01*
X83164Y289429D01*
X83126Y289404D01*
X83087Y289383D01*
X83047Y289365D01*
X83005Y289349D01*
X82962Y289337D01*
X82919Y289329D01*
X82874Y289324D01*
X82830Y289322D01*
X82287Y289710D02*
X82247Y289796D01*
X82211Y289884D01*
X82178Y289973D01*
X82149Y290063D01*
X82124Y290155D01*
X82103Y290248D01*
X82085Y290341D01*
X82072Y290435D01*
X82062Y290529D01*
X82056Y290624D01*
X82054Y290719D01*
X82287Y289710D02*
X82303Y289668D01*
X82322Y289628D01*
X82345Y289590D01*
X82370Y289553D01*
X82398Y289518D01*
X82428Y289486D01*
X82461Y289456D01*
X82496Y289429D01*
X82534Y289404D01*
X82573Y289383D01*
X82613Y289365D01*
X82655Y289349D01*
X82698Y289337D01*
X82741Y289329D01*
X82786Y289324D01*
X82830Y289322D01*
X83451Y289943D02*
X82209Y291495D01*
X80863Y289943D02*
X80242Y292116D01*
X80863Y289943D02*
X79311Y289943D01*
X79777Y290564D02*
X79777Y289322D01*
D13*
X106448Y282598D02*
X106448Y269598D01*
X106448Y282598D02*
X77448Y282598D01*
X77448Y269598D01*
X106448Y269598D01*
D10*
X99158Y272826D02*
X97916Y272826D01*
X99158Y272826D02*
X99228Y272828D01*
X99297Y272834D01*
X99366Y272844D01*
X99434Y272857D01*
X99502Y272875D01*
X99568Y272896D01*
X99633Y272921D01*
X99697Y272949D01*
X99759Y272981D01*
X99819Y273016D01*
X99877Y273055D01*
X99932Y273097D01*
X99986Y273142D01*
X100036Y273190D01*
X100084Y273240D01*
X100129Y273294D01*
X100171Y273349D01*
X100210Y273407D01*
X100245Y273467D01*
X100277Y273529D01*
X100305Y273593D01*
X100330Y273658D01*
X100351Y273724D01*
X100369Y273792D01*
X100382Y273860D01*
X100392Y273929D01*
X100398Y273998D01*
X100400Y274068D01*
X100399Y274068D02*
X100399Y277172D01*
X100400Y277172D02*
X100398Y277242D01*
X100392Y277311D01*
X100382Y277380D01*
X100369Y277448D01*
X100351Y277516D01*
X100330Y277582D01*
X100305Y277647D01*
X100277Y277711D01*
X100245Y277773D01*
X100210Y277833D01*
X100171Y277891D01*
X100129Y277946D01*
X100084Y278000D01*
X100036Y278050D01*
X99986Y278098D01*
X99932Y278143D01*
X99877Y278185D01*
X99819Y278224D01*
X99759Y278259D01*
X99697Y278291D01*
X99633Y278319D01*
X99568Y278344D01*
X99502Y278365D01*
X99434Y278383D01*
X99366Y278396D01*
X99297Y278406D01*
X99228Y278412D01*
X99158Y278414D01*
X97916Y278414D01*
X94104Y278414D02*
X94031Y278412D01*
X93958Y278406D01*
X93885Y278397D01*
X93814Y278383D01*
X93742Y278366D01*
X93672Y278346D01*
X93603Y278321D01*
X93536Y278293D01*
X93470Y278262D01*
X93406Y278227D01*
X93343Y278189D01*
X93283Y278147D01*
X93225Y278103D01*
X93169Y278055D01*
X93116Y278005D01*
X93066Y277952D01*
X93018Y277896D01*
X92974Y277838D01*
X92932Y277778D01*
X92894Y277716D01*
X92859Y277651D01*
X92828Y277585D01*
X92800Y277518D01*
X92775Y277449D01*
X92755Y277379D01*
X92738Y277307D01*
X92724Y277236D01*
X92715Y277163D01*
X92709Y277090D01*
X92707Y277017D01*
X94104Y278414D02*
X94188Y278412D01*
X94271Y278406D01*
X94354Y278397D01*
X94436Y278383D01*
X94518Y278366D01*
X94599Y278344D01*
X94679Y278319D01*
X94757Y278291D01*
X94835Y278259D01*
X94910Y278223D01*
X94984Y278184D01*
X95056Y278141D01*
X95126Y278095D01*
X95193Y278046D01*
X95259Y277993D01*
X95321Y277938D01*
X95381Y277880D01*
X95439Y277819D01*
X95493Y277756D01*
X95545Y277690D01*
X95593Y277622D01*
X95638Y277551D01*
X95680Y277479D01*
X95718Y277404D01*
X95753Y277328D01*
X95784Y277251D01*
X95812Y277172D01*
X93173Y275931D02*
X93119Y275984D01*
X93068Y276041D01*
X93020Y276100D01*
X92975Y276161D01*
X92934Y276224D01*
X92895Y276290D01*
X92860Y276357D01*
X92828Y276426D01*
X92800Y276497D01*
X92776Y276568D01*
X92755Y276641D01*
X92738Y276715D01*
X92724Y276790D01*
X92715Y276865D01*
X92709Y276941D01*
X92707Y277017D01*
X93172Y275930D02*
X95811Y272826D01*
X92707Y272826D01*
X90325Y275620D02*
X90323Y275751D01*
X90318Y275881D01*
X90308Y276011D01*
X90295Y276141D01*
X90279Y276271D01*
X90259Y276400D01*
X90235Y276528D01*
X90207Y276655D01*
X90176Y276782D01*
X90141Y276908D01*
X90103Y277033D01*
X90061Y277157D01*
X90016Y277279D01*
X89967Y277400D01*
X89915Y277520D01*
X89859Y277638D01*
X89860Y277638D02*
X89837Y277698D01*
X89811Y277758D01*
X89782Y277815D01*
X89749Y277871D01*
X89713Y277925D01*
X89675Y277977D01*
X89633Y278027D01*
X89589Y278074D01*
X89542Y278119D01*
X89492Y278161D01*
X89441Y278200D01*
X89387Y278236D01*
X89331Y278269D01*
X89274Y278299D01*
X89215Y278326D01*
X89154Y278349D01*
X89093Y278369D01*
X89030Y278385D01*
X88966Y278398D01*
X88902Y278407D01*
X88838Y278412D01*
X88773Y278414D01*
X88708Y278412D01*
X88644Y278407D01*
X88580Y278398D01*
X88516Y278385D01*
X88453Y278369D01*
X88392Y278349D01*
X88331Y278326D01*
X88272Y278299D01*
X88215Y278269D01*
X88159Y278236D01*
X88105Y278200D01*
X88054Y278161D01*
X88004Y278119D01*
X87957Y278074D01*
X87913Y278027D01*
X87871Y277977D01*
X87833Y277925D01*
X87797Y277871D01*
X87764Y277815D01*
X87735Y277758D01*
X87709Y277698D01*
X87686Y277638D01*
X87630Y277520D01*
X87578Y277400D01*
X87529Y277279D01*
X87484Y277157D01*
X87442Y277033D01*
X87404Y276908D01*
X87369Y276782D01*
X87338Y276656D01*
X87310Y276528D01*
X87286Y276400D01*
X87266Y276271D01*
X87250Y276141D01*
X87237Y276011D01*
X87227Y275881D01*
X87222Y275751D01*
X87220Y275620D01*
X90325Y275620D02*
X90323Y275489D01*
X90318Y275359D01*
X90308Y275229D01*
X90295Y275099D01*
X90279Y274969D01*
X90259Y274841D01*
X90235Y274712D01*
X90207Y274585D01*
X90176Y274458D01*
X90141Y274332D01*
X90103Y274207D01*
X90061Y274084D01*
X90016Y273961D01*
X89967Y273840D01*
X89915Y273720D01*
X89859Y273602D01*
X89860Y273602D02*
X89837Y273542D01*
X89811Y273482D01*
X89782Y273425D01*
X89749Y273369D01*
X89713Y273315D01*
X89675Y273263D01*
X89633Y273213D01*
X89589Y273166D01*
X89542Y273121D01*
X89492Y273079D01*
X89441Y273040D01*
X89387Y273004D01*
X89331Y272971D01*
X89274Y272941D01*
X89215Y272914D01*
X89154Y272891D01*
X89093Y272871D01*
X89030Y272855D01*
X88966Y272842D01*
X88902Y272833D01*
X88838Y272828D01*
X88773Y272826D01*
X87686Y273602D02*
X87630Y273720D01*
X87578Y273840D01*
X87529Y273961D01*
X87484Y274083D01*
X87442Y274207D01*
X87404Y274332D01*
X87369Y274458D01*
X87338Y274584D01*
X87310Y274712D01*
X87286Y274840D01*
X87266Y274969D01*
X87250Y275099D01*
X87237Y275229D01*
X87227Y275359D01*
X87222Y275489D01*
X87220Y275620D01*
X87686Y273602D02*
X87709Y273542D01*
X87735Y273482D01*
X87764Y273425D01*
X87797Y273369D01*
X87833Y273315D01*
X87871Y273263D01*
X87913Y273213D01*
X87957Y273166D01*
X88004Y273121D01*
X88054Y273079D01*
X88105Y273040D01*
X88159Y273004D01*
X88215Y272971D01*
X88272Y272941D01*
X88331Y272914D01*
X88392Y272891D01*
X88453Y272871D01*
X88516Y272855D01*
X88580Y272842D01*
X88644Y272833D01*
X88708Y272828D01*
X88773Y272826D01*
X90014Y274068D02*
X87531Y277172D01*
X83131Y278414D02*
X83058Y278412D01*
X82985Y278406D01*
X82912Y278397D01*
X82841Y278383D01*
X82769Y278366D01*
X82699Y278346D01*
X82630Y278321D01*
X82563Y278293D01*
X82497Y278262D01*
X82433Y278227D01*
X82370Y278189D01*
X82310Y278147D01*
X82252Y278103D01*
X82196Y278055D01*
X82143Y278005D01*
X82093Y277952D01*
X82045Y277896D01*
X82001Y277838D01*
X81959Y277778D01*
X81921Y277716D01*
X81886Y277651D01*
X81855Y277585D01*
X81827Y277518D01*
X81802Y277449D01*
X81782Y277379D01*
X81765Y277307D01*
X81751Y277236D01*
X81742Y277163D01*
X81736Y277090D01*
X81734Y277017D01*
X83131Y278414D02*
X83215Y278412D01*
X83298Y278406D01*
X83381Y278397D01*
X83463Y278383D01*
X83545Y278366D01*
X83626Y278344D01*
X83706Y278319D01*
X83784Y278291D01*
X83862Y278259D01*
X83937Y278223D01*
X84011Y278184D01*
X84083Y278141D01*
X84153Y278095D01*
X84220Y278046D01*
X84286Y277993D01*
X84348Y277938D01*
X84408Y277880D01*
X84466Y277819D01*
X84520Y277756D01*
X84572Y277690D01*
X84620Y277622D01*
X84665Y277551D01*
X84707Y277479D01*
X84745Y277404D01*
X84780Y277328D01*
X84811Y277251D01*
X84839Y277172D01*
X82200Y275931D02*
X82146Y275984D01*
X82095Y276041D01*
X82047Y276100D01*
X82002Y276161D01*
X81961Y276224D01*
X81922Y276290D01*
X81887Y276357D01*
X81855Y276426D01*
X81827Y276497D01*
X81803Y276568D01*
X81782Y276641D01*
X81765Y276715D01*
X81751Y276790D01*
X81742Y276865D01*
X81736Y276941D01*
X81734Y277017D01*
X82200Y275930D02*
X84838Y272826D01*
X81734Y272826D01*
X45202Y266844D02*
X12202Y266844D01*
X12202Y284844D01*
X45202Y284844D01*
X45202Y266844D01*
X34326Y274244D02*
X33084Y274244D01*
X34326Y274244D02*
X34396Y274246D01*
X34465Y274252D01*
X34534Y274262D01*
X34602Y274275D01*
X34670Y274293D01*
X34736Y274314D01*
X34801Y274339D01*
X34865Y274367D01*
X34927Y274399D01*
X34987Y274434D01*
X35045Y274473D01*
X35100Y274515D01*
X35154Y274560D01*
X35204Y274608D01*
X35252Y274658D01*
X35297Y274712D01*
X35339Y274767D01*
X35378Y274825D01*
X35413Y274885D01*
X35445Y274947D01*
X35473Y275011D01*
X35498Y275076D01*
X35519Y275142D01*
X35537Y275210D01*
X35550Y275278D01*
X35560Y275347D01*
X35566Y275416D01*
X35568Y275486D01*
X35568Y278590D01*
X35566Y278660D01*
X35560Y278729D01*
X35550Y278798D01*
X35537Y278866D01*
X35519Y278934D01*
X35498Y279000D01*
X35473Y279065D01*
X35445Y279129D01*
X35413Y279191D01*
X35378Y279251D01*
X35339Y279309D01*
X35297Y279364D01*
X35252Y279418D01*
X35204Y279468D01*
X35154Y279516D01*
X35100Y279561D01*
X35045Y279603D01*
X34987Y279642D01*
X34927Y279677D01*
X34865Y279709D01*
X34801Y279737D01*
X34736Y279762D01*
X34670Y279783D01*
X34602Y279801D01*
X34534Y279814D01*
X34465Y279824D01*
X34396Y279830D01*
X34326Y279832D01*
X33084Y279832D01*
X29272Y279832D02*
X29199Y279830D01*
X29126Y279824D01*
X29053Y279815D01*
X28982Y279801D01*
X28910Y279784D01*
X28840Y279764D01*
X28771Y279739D01*
X28704Y279711D01*
X28638Y279680D01*
X28574Y279645D01*
X28511Y279607D01*
X28451Y279565D01*
X28393Y279521D01*
X28337Y279473D01*
X28284Y279423D01*
X28234Y279370D01*
X28186Y279314D01*
X28142Y279256D01*
X28100Y279196D01*
X28062Y279134D01*
X28027Y279069D01*
X27996Y279003D01*
X27968Y278936D01*
X27943Y278867D01*
X27923Y278797D01*
X27906Y278725D01*
X27892Y278654D01*
X27883Y278581D01*
X27877Y278508D01*
X27875Y278435D01*
X29272Y279832D02*
X29356Y279830D01*
X29439Y279824D01*
X29522Y279815D01*
X29604Y279801D01*
X29686Y279784D01*
X29767Y279762D01*
X29847Y279737D01*
X29925Y279709D01*
X30003Y279677D01*
X30078Y279641D01*
X30152Y279602D01*
X30224Y279559D01*
X30294Y279513D01*
X30361Y279464D01*
X30427Y279411D01*
X30489Y279356D01*
X30549Y279298D01*
X30607Y279237D01*
X30661Y279174D01*
X30713Y279108D01*
X30761Y279040D01*
X30806Y278969D01*
X30848Y278897D01*
X30886Y278822D01*
X30921Y278746D01*
X30952Y278669D01*
X30980Y278590D01*
X28342Y277349D02*
X28288Y277402D01*
X28237Y277459D01*
X28189Y277518D01*
X28144Y277579D01*
X28103Y277642D01*
X28064Y277708D01*
X28029Y277775D01*
X27997Y277844D01*
X27969Y277915D01*
X27945Y277986D01*
X27924Y278059D01*
X27907Y278133D01*
X27893Y278208D01*
X27884Y278283D01*
X27878Y278359D01*
X27876Y278435D01*
X28341Y277348D02*
X30980Y274244D01*
X27875Y274244D01*
X25493Y277038D02*
X25491Y277169D01*
X25486Y277299D01*
X25476Y277429D01*
X25463Y277559D01*
X25447Y277689D01*
X25427Y277818D01*
X25403Y277946D01*
X25375Y278073D01*
X25344Y278200D01*
X25309Y278326D01*
X25271Y278451D01*
X25229Y278575D01*
X25184Y278697D01*
X25135Y278818D01*
X25083Y278938D01*
X25027Y279056D01*
X25028Y279056D02*
X25005Y279116D01*
X24979Y279176D01*
X24950Y279233D01*
X24917Y279289D01*
X24881Y279343D01*
X24843Y279395D01*
X24801Y279445D01*
X24757Y279492D01*
X24710Y279537D01*
X24660Y279579D01*
X24609Y279618D01*
X24555Y279654D01*
X24499Y279687D01*
X24442Y279717D01*
X24383Y279744D01*
X24322Y279767D01*
X24261Y279787D01*
X24198Y279803D01*
X24134Y279816D01*
X24070Y279825D01*
X24006Y279830D01*
X23941Y279832D01*
X23876Y279830D01*
X23812Y279825D01*
X23748Y279816D01*
X23684Y279803D01*
X23621Y279787D01*
X23560Y279767D01*
X23499Y279744D01*
X23440Y279717D01*
X23383Y279687D01*
X23327Y279654D01*
X23273Y279618D01*
X23222Y279579D01*
X23172Y279537D01*
X23125Y279492D01*
X23081Y279445D01*
X23039Y279395D01*
X23001Y279343D01*
X22965Y279289D01*
X22932Y279233D01*
X22903Y279176D01*
X22877Y279116D01*
X22854Y279056D01*
X22855Y279056D02*
X22799Y278938D01*
X22747Y278818D01*
X22698Y278697D01*
X22653Y278575D01*
X22611Y278451D01*
X22573Y278326D01*
X22538Y278200D01*
X22507Y278074D01*
X22479Y277946D01*
X22455Y277818D01*
X22435Y277689D01*
X22419Y277559D01*
X22406Y277429D01*
X22396Y277299D01*
X22391Y277169D01*
X22389Y277038D01*
X25493Y277038D02*
X25491Y276907D01*
X25486Y276777D01*
X25476Y276647D01*
X25463Y276517D01*
X25447Y276387D01*
X25427Y276259D01*
X25403Y276130D01*
X25375Y276003D01*
X25344Y275876D01*
X25309Y275750D01*
X25271Y275625D01*
X25229Y275502D01*
X25184Y275379D01*
X25135Y275258D01*
X25083Y275138D01*
X25027Y275020D01*
X25028Y275020D02*
X25005Y274960D01*
X24979Y274900D01*
X24950Y274843D01*
X24917Y274787D01*
X24881Y274733D01*
X24843Y274681D01*
X24801Y274631D01*
X24757Y274584D01*
X24710Y274539D01*
X24660Y274497D01*
X24609Y274458D01*
X24555Y274422D01*
X24499Y274389D01*
X24442Y274359D01*
X24383Y274332D01*
X24322Y274309D01*
X24261Y274289D01*
X24198Y274273D01*
X24134Y274260D01*
X24070Y274251D01*
X24006Y274246D01*
X23941Y274244D01*
X22855Y275020D02*
X22799Y275138D01*
X22747Y275258D01*
X22698Y275379D01*
X22653Y275501D01*
X22611Y275625D01*
X22573Y275750D01*
X22538Y275876D01*
X22507Y276002D01*
X22479Y276130D01*
X22455Y276258D01*
X22435Y276387D01*
X22419Y276517D01*
X22406Y276647D01*
X22396Y276777D01*
X22391Y276907D01*
X22389Y277038D01*
X22854Y275020D02*
X22877Y274960D01*
X22903Y274900D01*
X22932Y274843D01*
X22965Y274787D01*
X23001Y274733D01*
X23039Y274681D01*
X23081Y274631D01*
X23125Y274584D01*
X23172Y274539D01*
X23222Y274497D01*
X23273Y274458D01*
X23327Y274422D01*
X23383Y274389D01*
X23440Y274359D01*
X23499Y274332D01*
X23560Y274309D01*
X23621Y274289D01*
X23684Y274273D01*
X23748Y274260D01*
X23812Y274251D01*
X23876Y274246D01*
X23941Y274244D01*
X25183Y275486D02*
X22699Y278590D01*
X20007Y274244D02*
X18144Y274244D01*
X18074Y274246D01*
X18005Y274252D01*
X17936Y274262D01*
X17868Y274275D01*
X17800Y274293D01*
X17734Y274314D01*
X17669Y274339D01*
X17605Y274367D01*
X17543Y274399D01*
X17483Y274434D01*
X17425Y274473D01*
X17370Y274515D01*
X17316Y274560D01*
X17266Y274608D01*
X17218Y274658D01*
X17173Y274712D01*
X17131Y274767D01*
X17092Y274825D01*
X17057Y274885D01*
X17025Y274947D01*
X16997Y275011D01*
X16972Y275076D01*
X16951Y275142D01*
X16933Y275210D01*
X16920Y275278D01*
X16910Y275347D01*
X16904Y275416D01*
X16902Y275486D01*
X16903Y275486D02*
X16903Y276107D01*
X16902Y276107D02*
X16904Y276177D01*
X16910Y276246D01*
X16920Y276315D01*
X16933Y276383D01*
X16951Y276451D01*
X16972Y276517D01*
X16997Y276582D01*
X17025Y276646D01*
X17057Y276708D01*
X17092Y276768D01*
X17131Y276826D01*
X17173Y276881D01*
X17218Y276935D01*
X17266Y276985D01*
X17316Y277033D01*
X17370Y277078D01*
X17425Y277120D01*
X17483Y277159D01*
X17543Y277194D01*
X17605Y277226D01*
X17669Y277254D01*
X17734Y277279D01*
X17800Y277300D01*
X17868Y277318D01*
X17936Y277331D01*
X18005Y277341D01*
X18074Y277347D01*
X18144Y277349D01*
X18144Y277348D02*
X20007Y277348D01*
X20007Y279832D01*
X16903Y279832D01*
D14*
X167820Y390430D02*
X253820Y390430D01*
X253820Y419830D01*
X167820Y419830D01*
X167820Y390430D01*
D10*
X222519Y404837D02*
X222519Y409201D01*
X222519Y404837D02*
X222521Y404767D01*
X222527Y404697D01*
X222537Y404628D01*
X222550Y404560D01*
X222568Y404492D01*
X222589Y404425D01*
X222614Y404360D01*
X222642Y404296D01*
X222675Y404234D01*
X222710Y404174D01*
X222749Y404115D01*
X222791Y404060D01*
X222836Y404006D01*
X222884Y403955D01*
X222935Y403907D01*
X222989Y403862D01*
X223044Y403820D01*
X223103Y403781D01*
X223163Y403746D01*
X223225Y403713D01*
X223289Y403685D01*
X223354Y403660D01*
X223421Y403639D01*
X223489Y403621D01*
X223557Y403608D01*
X223626Y403598D01*
X223696Y403592D01*
X223766Y403590D01*
X223766Y403591D02*
X224389Y403591D01*
X219969Y403591D02*
X218411Y403591D01*
X218333Y403593D01*
X218256Y403599D01*
X218179Y403608D01*
X218102Y403622D01*
X218027Y403639D01*
X217952Y403660D01*
X217878Y403685D01*
X217806Y403713D01*
X217735Y403745D01*
X217666Y403781D01*
X217599Y403820D01*
X217533Y403862D01*
X217470Y403907D01*
X217410Y403956D01*
X217351Y404007D01*
X217296Y404061D01*
X217243Y404118D01*
X217193Y404178D01*
X217146Y404240D01*
X217102Y404304D01*
X217062Y404370D01*
X217025Y404438D01*
X216991Y404508D01*
X216961Y404580D01*
X216934Y404653D01*
X216911Y404727D01*
X216892Y404802D01*
X216877Y404878D01*
X216865Y404955D01*
X216857Y405033D01*
X216853Y405110D01*
X216853Y405188D01*
X216857Y405265D01*
X216865Y405343D01*
X216877Y405420D01*
X216892Y405496D01*
X216911Y405571D01*
X216934Y405645D01*
X216961Y405718D01*
X216991Y405790D01*
X217025Y405860D01*
X217062Y405928D01*
X217102Y405994D01*
X217146Y406058D01*
X217193Y406120D01*
X217243Y406180D01*
X217296Y406237D01*
X217351Y406291D01*
X217410Y406342D01*
X217470Y406391D01*
X217533Y406436D01*
X217599Y406478D01*
X217666Y406517D01*
X217735Y406553D01*
X217806Y406585D01*
X217878Y406613D01*
X217952Y406638D01*
X218027Y406659D01*
X218102Y406676D01*
X218179Y406690D01*
X218256Y406699D01*
X218333Y406705D01*
X218411Y406707D01*
X218099Y409201D02*
X219969Y409201D01*
X218099Y409201D02*
X218029Y409199D01*
X217959Y409193D01*
X217890Y409183D01*
X217822Y409170D01*
X217754Y409152D01*
X217687Y409131D01*
X217622Y409106D01*
X217558Y409078D01*
X217496Y409045D01*
X217436Y409010D01*
X217377Y408971D01*
X217322Y408929D01*
X217268Y408884D01*
X217217Y408836D01*
X217169Y408785D01*
X217124Y408731D01*
X217082Y408676D01*
X217043Y408617D01*
X217008Y408557D01*
X216975Y408495D01*
X216947Y408431D01*
X216922Y408366D01*
X216901Y408299D01*
X216883Y408231D01*
X216870Y408163D01*
X216860Y408094D01*
X216854Y408024D01*
X216852Y407954D01*
X216854Y407884D01*
X216860Y407814D01*
X216870Y407745D01*
X216883Y407677D01*
X216901Y407609D01*
X216922Y407542D01*
X216947Y407477D01*
X216975Y407413D01*
X217008Y407351D01*
X217043Y407291D01*
X217082Y407232D01*
X217124Y407177D01*
X217169Y407123D01*
X217217Y407072D01*
X217268Y407024D01*
X217322Y406979D01*
X217377Y406937D01*
X217436Y406898D01*
X217496Y406863D01*
X217558Y406830D01*
X217622Y406802D01*
X217687Y406777D01*
X217754Y406756D01*
X217822Y406738D01*
X217890Y406725D01*
X217959Y406715D01*
X218029Y406709D01*
X218099Y406707D01*
X219346Y406707D01*
X214463Y406396D02*
X214461Y406527D01*
X214456Y406658D01*
X214446Y406789D01*
X214433Y406919D01*
X214417Y407049D01*
X214396Y407179D01*
X214372Y407307D01*
X214345Y407435D01*
X214313Y407563D01*
X214278Y407689D01*
X214240Y407814D01*
X214198Y407939D01*
X214153Y408061D01*
X214104Y408183D01*
X214051Y408303D01*
X213996Y408422D01*
X213973Y408483D01*
X213947Y408542D01*
X213917Y408600D01*
X213884Y408656D01*
X213849Y408711D01*
X213810Y408763D01*
X213768Y408813D01*
X213724Y408860D01*
X213676Y408905D01*
X213627Y408947D01*
X213575Y408986D01*
X213521Y409023D01*
X213465Y409056D01*
X213408Y409086D01*
X213348Y409112D01*
X213288Y409136D01*
X213226Y409155D01*
X213163Y409172D01*
X213099Y409185D01*
X213035Y409194D01*
X212970Y409199D01*
X212905Y409201D01*
X212840Y409199D01*
X212775Y409194D01*
X212711Y409185D01*
X212647Y409172D01*
X212584Y409155D01*
X212522Y409136D01*
X212462Y409112D01*
X212402Y409086D01*
X212345Y409056D01*
X212289Y409023D01*
X212235Y408986D01*
X212183Y408947D01*
X212134Y408905D01*
X212086Y408860D01*
X212042Y408813D01*
X212000Y408763D01*
X211961Y408711D01*
X211926Y408656D01*
X211893Y408600D01*
X211863Y408542D01*
X211837Y408483D01*
X211814Y408422D01*
X211758Y408303D01*
X211705Y408183D01*
X211656Y408062D01*
X211611Y407939D01*
X211569Y407814D01*
X211531Y407689D01*
X211496Y407563D01*
X211464Y407436D01*
X211437Y407307D01*
X211413Y407179D01*
X211392Y407049D01*
X211376Y406919D01*
X211363Y406789D01*
X211353Y406658D01*
X211348Y406527D01*
X211346Y406396D01*
X214463Y406396D02*
X214461Y406265D01*
X214456Y406134D01*
X214446Y406003D01*
X214433Y405873D01*
X214417Y405743D01*
X214396Y405613D01*
X214372Y405485D01*
X214345Y405357D01*
X214313Y405229D01*
X214278Y405103D01*
X214240Y404978D01*
X214198Y404854D01*
X214153Y404731D01*
X214104Y404609D01*
X214051Y404489D01*
X213996Y404370D01*
X213973Y404309D01*
X213947Y404250D01*
X213917Y404192D01*
X213884Y404136D01*
X213849Y404081D01*
X213810Y404029D01*
X213768Y403979D01*
X213724Y403932D01*
X213676Y403887D01*
X213627Y403845D01*
X213575Y403806D01*
X213521Y403769D01*
X213465Y403736D01*
X213408Y403706D01*
X213348Y403680D01*
X213288Y403656D01*
X213226Y403637D01*
X213163Y403620D01*
X213099Y403607D01*
X213035Y403598D01*
X212970Y403593D01*
X212905Y403591D01*
X211815Y404370D02*
X211759Y404489D01*
X211706Y404609D01*
X211657Y404730D01*
X211612Y404853D01*
X211570Y404978D01*
X211532Y405103D01*
X211497Y405229D01*
X211465Y405356D01*
X211438Y405485D01*
X211414Y405613D01*
X211393Y405743D01*
X211377Y405873D01*
X211364Y406003D01*
X211354Y406134D01*
X211349Y406265D01*
X211347Y406396D01*
X211814Y404370D02*
X211837Y404309D01*
X211863Y404250D01*
X211893Y404192D01*
X211926Y404136D01*
X211961Y404081D01*
X212000Y404029D01*
X212042Y403979D01*
X212086Y403932D01*
X212134Y403887D01*
X212183Y403845D01*
X212235Y403806D01*
X212289Y403769D01*
X212345Y403736D01*
X212402Y403706D01*
X212462Y403680D01*
X212522Y403656D01*
X212584Y403637D01*
X212647Y403620D01*
X212711Y403607D01*
X212775Y403598D01*
X212840Y403593D01*
X212905Y403591D01*
X214152Y404837D02*
X211658Y407954D01*
X207243Y409200D02*
X207170Y409198D01*
X207096Y409192D01*
X207024Y409183D01*
X206952Y409169D01*
X206880Y409152D01*
X206810Y409131D01*
X206741Y409107D01*
X206673Y409079D01*
X206607Y409047D01*
X206542Y409012D01*
X206479Y408974D01*
X206419Y408932D01*
X206361Y408888D01*
X206305Y408840D01*
X206252Y408789D01*
X206201Y408736D01*
X206153Y408680D01*
X206109Y408622D01*
X206067Y408562D01*
X206029Y408499D01*
X205994Y408435D01*
X205962Y408368D01*
X205934Y408300D01*
X205910Y408231D01*
X205889Y408161D01*
X205872Y408089D01*
X205858Y408017D01*
X205849Y407945D01*
X205843Y407871D01*
X205841Y407798D01*
X207243Y409201D02*
X207327Y409199D01*
X207411Y409193D01*
X207494Y409183D01*
X207577Y409170D01*
X207659Y409152D01*
X207740Y409131D01*
X207820Y409106D01*
X207899Y409077D01*
X207976Y409045D01*
X208052Y409009D01*
X208126Y408970D01*
X208199Y408927D01*
X208269Y408881D01*
X208337Y408831D01*
X208402Y408779D01*
X208465Y408723D01*
X208525Y408665D01*
X208583Y408604D01*
X208638Y408540D01*
X208689Y408474D01*
X208738Y408406D01*
X208783Y408335D01*
X208825Y408262D01*
X208863Y408188D01*
X208898Y408111D01*
X208930Y408033D01*
X208957Y407954D01*
X206308Y406707D02*
X206255Y406761D01*
X206204Y406818D01*
X206155Y406877D01*
X206110Y406939D01*
X206068Y407002D01*
X206030Y407068D01*
X205995Y407135D01*
X205963Y407205D01*
X205935Y407276D01*
X205910Y407348D01*
X205889Y407421D01*
X205872Y407495D01*
X205858Y407570D01*
X205849Y407646D01*
X205843Y407722D01*
X205841Y407798D01*
X206308Y406707D02*
X208957Y403591D01*
X205841Y403591D01*
D14*
X81572Y231570D02*
X41872Y231570D01*
X41872Y258650D02*
X81572Y258650D01*
X41872Y258650D02*
X41872Y231570D01*
X81572Y231570D02*
X81572Y258650D01*
D10*
X68368Y247084D02*
X68368Y242592D01*
X66372Y242592D01*
X62133Y245961D02*
X62135Y246026D01*
X62141Y246091D01*
X62150Y246156D01*
X62163Y246220D01*
X62180Y246283D01*
X62201Y246345D01*
X62225Y246406D01*
X62252Y246465D01*
X62283Y246523D01*
X62318Y246578D01*
X62355Y246632D01*
X62396Y246683D01*
X62439Y246732D01*
X62485Y246778D01*
X62534Y246821D01*
X62585Y246862D01*
X62639Y246899D01*
X62695Y246934D01*
X62752Y246965D01*
X62811Y246992D01*
X62872Y247016D01*
X62934Y247037D01*
X62997Y247054D01*
X63061Y247067D01*
X63126Y247076D01*
X63191Y247082D01*
X63256Y247084D01*
X63329Y247082D01*
X63401Y247077D01*
X63473Y247068D01*
X63544Y247055D01*
X63615Y247039D01*
X63685Y247019D01*
X63754Y246995D01*
X63821Y246969D01*
X63887Y246939D01*
X63952Y246905D01*
X64014Y246869D01*
X64075Y246829D01*
X64134Y246786D01*
X64190Y246741D01*
X64244Y246692D01*
X64296Y246641D01*
X64345Y246588D01*
X64391Y246532D01*
X64435Y246474D01*
X64475Y246413D01*
X64512Y246351D01*
X64546Y246287D01*
X64577Y246221D01*
X64605Y246154D01*
X64629Y246086D01*
X62507Y245088D02*
X62461Y245134D01*
X62418Y245182D01*
X62377Y245233D01*
X62339Y245286D01*
X62304Y245341D01*
X62273Y245398D01*
X62244Y245456D01*
X62218Y245516D01*
X62196Y245577D01*
X62177Y245639D01*
X62161Y245703D01*
X62149Y245767D01*
X62140Y245831D01*
X62135Y245896D01*
X62133Y245961D01*
X62507Y245088D02*
X64628Y242592D01*
X62133Y242592D01*
X60128Y244838D02*
X60126Y244958D01*
X60120Y245078D01*
X60111Y245197D01*
X60097Y245316D01*
X60080Y245435D01*
X60058Y245553D01*
X60033Y245670D01*
X60004Y245787D01*
X59972Y245902D01*
X59935Y246017D01*
X59895Y246130D01*
X59852Y246241D01*
X59804Y246352D01*
X59754Y246460D01*
X59753Y246460D02*
X59732Y246517D01*
X59707Y246571D01*
X59678Y246625D01*
X59646Y246676D01*
X59611Y246725D01*
X59573Y246771D01*
X59531Y246815D01*
X59487Y246856D01*
X59441Y246894D01*
X59392Y246929D01*
X59340Y246961D01*
X59287Y246989D01*
X59232Y247014D01*
X59176Y247035D01*
X59118Y247053D01*
X59060Y247066D01*
X59000Y247076D01*
X58940Y247082D01*
X58880Y247084D01*
X58820Y247082D01*
X58760Y247076D01*
X58700Y247066D01*
X58642Y247053D01*
X58584Y247035D01*
X58528Y247014D01*
X58473Y246989D01*
X58420Y246961D01*
X58368Y246929D01*
X58319Y246894D01*
X58273Y246856D01*
X58229Y246815D01*
X58187Y246771D01*
X58149Y246725D01*
X58114Y246676D01*
X58082Y246625D01*
X58053Y246572D01*
X58028Y246517D01*
X58007Y246460D01*
X58006Y246460D02*
X57956Y246352D01*
X57908Y246241D01*
X57865Y246130D01*
X57825Y246017D01*
X57788Y245902D01*
X57756Y245787D01*
X57727Y245670D01*
X57702Y245553D01*
X57680Y245435D01*
X57663Y245316D01*
X57649Y245197D01*
X57640Y245078D01*
X57634Y244958D01*
X57632Y244838D01*
X60128Y244838D02*
X60126Y244718D01*
X60120Y244598D01*
X60111Y244479D01*
X60097Y244360D01*
X60080Y244241D01*
X60058Y244123D01*
X60033Y244006D01*
X60004Y243889D01*
X59972Y243774D01*
X59935Y243660D01*
X59895Y243546D01*
X59852Y243435D01*
X59804Y243325D01*
X59754Y243216D01*
X59753Y243216D02*
X59732Y243159D01*
X59707Y243105D01*
X59678Y243051D01*
X59646Y243000D01*
X59611Y242951D01*
X59573Y242905D01*
X59531Y242861D01*
X59487Y242820D01*
X59441Y242782D01*
X59392Y242747D01*
X59340Y242715D01*
X59287Y242687D01*
X59232Y242662D01*
X59176Y242641D01*
X59118Y242623D01*
X59060Y242610D01*
X59000Y242600D01*
X58940Y242594D01*
X58880Y242592D01*
X58007Y243216D02*
X57957Y243325D01*
X57909Y243435D01*
X57866Y243546D01*
X57826Y243660D01*
X57789Y243774D01*
X57757Y243889D01*
X57728Y244006D01*
X57703Y244123D01*
X57681Y244241D01*
X57664Y244360D01*
X57650Y244479D01*
X57641Y244598D01*
X57635Y244718D01*
X57633Y244838D01*
X58007Y243216D02*
X58028Y243159D01*
X58053Y243104D01*
X58082Y243051D01*
X58114Y243000D01*
X58149Y242951D01*
X58187Y242905D01*
X58229Y242861D01*
X58273Y242820D01*
X58319Y242782D01*
X58368Y242747D01*
X58420Y242715D01*
X58473Y242687D01*
X58528Y242662D01*
X58584Y242641D01*
X58642Y242623D01*
X58700Y242610D01*
X58760Y242600D01*
X58820Y242594D01*
X58880Y242592D01*
X59879Y243590D02*
X57882Y246086D01*
X55628Y246086D02*
X54380Y247084D01*
X54380Y242592D01*
X53133Y242592D02*
X55628Y242592D01*
D14*
X92616Y421012D02*
X112616Y421012D01*
X92616Y421012D02*
X92616Y406012D01*
X112616Y406012D01*
X112616Y421012D01*
D12*
X110722Y414284D02*
X110722Y412364D01*
X110721Y414284D02*
X110719Y414352D01*
X110713Y414421D01*
X110703Y414488D01*
X110690Y414556D01*
X110672Y414622D01*
X110651Y414687D01*
X110626Y414751D01*
X110598Y414813D01*
X110566Y414874D01*
X110531Y414932D01*
X110492Y414989D01*
X110450Y415043D01*
X110405Y415095D01*
X110358Y415144D01*
X110307Y415190D01*
X110254Y415233D01*
X110199Y415274D01*
X110141Y415311D01*
X110082Y415344D01*
X110020Y415375D01*
X109957Y415401D01*
X109893Y415424D01*
X109827Y415444D01*
X109760Y415459D01*
X109693Y415471D01*
X109625Y415479D01*
X109556Y415483D01*
X109488Y415483D01*
X109419Y415479D01*
X109351Y415471D01*
X109284Y415459D01*
X109217Y415444D01*
X109151Y415424D01*
X109087Y415401D01*
X109024Y415375D01*
X108962Y415344D01*
X108903Y415311D01*
X108845Y415274D01*
X108790Y415233D01*
X108737Y415190D01*
X108686Y415144D01*
X108639Y415095D01*
X108594Y415043D01*
X108552Y414989D01*
X108513Y414932D01*
X108478Y414874D01*
X108446Y414813D01*
X108418Y414751D01*
X108393Y414687D01*
X108372Y414622D01*
X108354Y414556D01*
X108341Y414488D01*
X108331Y414421D01*
X108325Y414352D01*
X108323Y414284D01*
X108323Y412364D01*
X108325Y412296D01*
X108331Y412227D01*
X108341Y412160D01*
X108354Y412092D01*
X108372Y412026D01*
X108393Y411961D01*
X108418Y411897D01*
X108446Y411835D01*
X108478Y411774D01*
X108513Y411716D01*
X108552Y411659D01*
X108594Y411605D01*
X108639Y411553D01*
X108686Y411504D01*
X108737Y411458D01*
X108790Y411415D01*
X108845Y411374D01*
X108903Y411337D01*
X108962Y411304D01*
X109024Y411273D01*
X109087Y411247D01*
X109151Y411224D01*
X109217Y411204D01*
X109284Y411189D01*
X109351Y411177D01*
X109419Y411169D01*
X109488Y411165D01*
X109556Y411165D01*
X109625Y411169D01*
X109693Y411177D01*
X109760Y411189D01*
X109827Y411204D01*
X109893Y411224D01*
X109957Y411247D01*
X110020Y411273D01*
X110082Y411304D01*
X110141Y411337D01*
X110199Y411374D01*
X110254Y411415D01*
X110307Y411458D01*
X110358Y411504D01*
X110405Y411553D01*
X110450Y411605D01*
X110492Y411659D01*
X110531Y411716D01*
X110566Y411774D01*
X110598Y411835D01*
X110626Y411897D01*
X110651Y411961D01*
X110672Y412026D01*
X110690Y412092D01*
X110703Y412160D01*
X110713Y412227D01*
X110719Y412296D01*
X110721Y412364D01*
X108803Y412125D02*
X107843Y411165D01*
X104274Y414404D02*
X104276Y414467D01*
X104281Y414529D01*
X104290Y414592D01*
X104303Y414653D01*
X104319Y414714D01*
X104339Y414773D01*
X104362Y414832D01*
X104389Y414889D01*
X104419Y414944D01*
X104452Y414997D01*
X104488Y415049D01*
X104527Y415098D01*
X104568Y415145D01*
X104613Y415190D01*
X104660Y415231D01*
X104709Y415270D01*
X104761Y415306D01*
X104814Y415339D01*
X104869Y415369D01*
X104926Y415396D01*
X104985Y415419D01*
X105044Y415439D01*
X105105Y415455D01*
X105166Y415468D01*
X105229Y415477D01*
X105291Y415482D01*
X105354Y415484D01*
X105354Y415483D02*
X105427Y415481D01*
X105499Y415475D01*
X105571Y415466D01*
X105643Y415453D01*
X105713Y415436D01*
X105783Y415415D01*
X105851Y415391D01*
X105919Y415363D01*
X105984Y415332D01*
X106048Y415297D01*
X106110Y415259D01*
X106170Y415218D01*
X106227Y415173D01*
X106283Y415126D01*
X106335Y415076D01*
X106385Y415023D01*
X106432Y414968D01*
X106477Y414910D01*
X106518Y414851D01*
X106556Y414789D01*
X106590Y414725D01*
X106622Y414659D01*
X106649Y414592D01*
X106674Y414523D01*
X104635Y413565D02*
X104588Y413612D01*
X104543Y413663D01*
X104502Y413715D01*
X104464Y413770D01*
X104429Y413828D01*
X104397Y413887D01*
X104369Y413947D01*
X104344Y414010D01*
X104323Y414073D01*
X104306Y414138D01*
X104292Y414204D01*
X104283Y414270D01*
X104277Y414337D01*
X104275Y414404D01*
X104634Y413564D02*
X106673Y411165D01*
X104275Y411165D01*
X102558Y413324D02*
X102556Y413439D01*
X102551Y413554D01*
X102541Y413669D01*
X102528Y413784D01*
X102511Y413898D01*
X102491Y414011D01*
X102467Y414124D01*
X102439Y414236D01*
X102408Y414347D01*
X102373Y414457D01*
X102334Y414565D01*
X102292Y414673D01*
X102247Y414779D01*
X102198Y414883D01*
X102199Y414883D02*
X102178Y414937D01*
X102154Y414990D01*
X102127Y415041D01*
X102096Y415090D01*
X102062Y415137D01*
X102025Y415182D01*
X101986Y415224D01*
X101943Y415264D01*
X101898Y415300D01*
X101851Y415334D01*
X101802Y415365D01*
X101751Y415392D01*
X101698Y415416D01*
X101644Y415436D01*
X101588Y415453D01*
X101532Y415466D01*
X101475Y415475D01*
X101417Y415481D01*
X101359Y415483D01*
X101301Y415481D01*
X101243Y415475D01*
X101186Y415466D01*
X101130Y415453D01*
X101074Y415436D01*
X101020Y415416D01*
X100967Y415392D01*
X100916Y415365D01*
X100867Y415334D01*
X100820Y415300D01*
X100775Y415264D01*
X100732Y415224D01*
X100693Y415182D01*
X100656Y415137D01*
X100622Y415090D01*
X100591Y415041D01*
X100564Y414990D01*
X100540Y414937D01*
X100519Y414883D01*
X100520Y414883D02*
X100471Y414779D01*
X100426Y414673D01*
X100384Y414565D01*
X100345Y414457D01*
X100310Y414347D01*
X100279Y414236D01*
X100251Y414124D01*
X100227Y414011D01*
X100207Y413898D01*
X100190Y413784D01*
X100177Y413669D01*
X100167Y413554D01*
X100162Y413439D01*
X100160Y413324D01*
X102559Y413324D02*
X102557Y413209D01*
X102552Y413094D01*
X102542Y412979D01*
X102529Y412864D01*
X102512Y412750D01*
X102492Y412637D01*
X102468Y412524D01*
X102440Y412412D01*
X102409Y412301D01*
X102374Y412191D01*
X102335Y412082D01*
X102293Y411975D01*
X102248Y411869D01*
X102199Y411765D01*
X102178Y411711D01*
X102154Y411658D01*
X102127Y411607D01*
X102096Y411558D01*
X102062Y411511D01*
X102025Y411466D01*
X101986Y411424D01*
X101943Y411384D01*
X101898Y411348D01*
X101851Y411314D01*
X101802Y411283D01*
X101751Y411256D01*
X101698Y411232D01*
X101644Y411212D01*
X101588Y411195D01*
X101532Y411182D01*
X101475Y411173D01*
X101417Y411167D01*
X101359Y411165D01*
X100520Y411765D02*
X100471Y411869D01*
X100426Y411975D01*
X100384Y412083D01*
X100345Y412191D01*
X100310Y412301D01*
X100279Y412412D01*
X100251Y412524D01*
X100227Y412637D01*
X100207Y412750D01*
X100190Y412864D01*
X100177Y412979D01*
X100167Y413094D01*
X100162Y413209D01*
X100160Y413324D01*
X100519Y411765D02*
X100540Y411711D01*
X100564Y411658D01*
X100591Y411607D01*
X100622Y411558D01*
X100656Y411511D01*
X100693Y411466D01*
X100732Y411424D01*
X100775Y411384D01*
X100820Y411348D01*
X100867Y411314D01*
X100916Y411283D01*
X100967Y411256D01*
X101020Y411232D01*
X101074Y411212D01*
X101130Y411195D01*
X101186Y411182D01*
X101243Y411173D01*
X101301Y411167D01*
X101359Y411165D01*
X102319Y412125D02*
X100400Y414523D01*
X97125Y415484D02*
X97062Y415482D01*
X97000Y415477D01*
X96937Y415468D01*
X96876Y415455D01*
X96815Y415439D01*
X96756Y415419D01*
X96697Y415396D01*
X96640Y415369D01*
X96585Y415339D01*
X96532Y415306D01*
X96480Y415270D01*
X96431Y415231D01*
X96384Y415190D01*
X96339Y415145D01*
X96298Y415098D01*
X96259Y415049D01*
X96223Y414997D01*
X96190Y414944D01*
X96160Y414889D01*
X96133Y414832D01*
X96110Y414773D01*
X96090Y414714D01*
X96074Y414653D01*
X96061Y414592D01*
X96052Y414529D01*
X96047Y414467D01*
X96045Y414404D01*
X97125Y415483D02*
X97198Y415481D01*
X97270Y415475D01*
X97342Y415466D01*
X97414Y415453D01*
X97484Y415436D01*
X97554Y415415D01*
X97622Y415391D01*
X97690Y415363D01*
X97755Y415332D01*
X97819Y415297D01*
X97881Y415259D01*
X97941Y415218D01*
X97998Y415173D01*
X98054Y415126D01*
X98106Y415076D01*
X98156Y415023D01*
X98203Y414968D01*
X98248Y414910D01*
X98289Y414851D01*
X98327Y414789D01*
X98361Y414725D01*
X98393Y414659D01*
X98420Y414592D01*
X98445Y414523D01*
X96405Y413565D02*
X96358Y413612D01*
X96313Y413663D01*
X96272Y413715D01*
X96234Y413770D01*
X96199Y413828D01*
X96167Y413887D01*
X96139Y413947D01*
X96114Y414010D01*
X96093Y414073D01*
X96076Y414138D01*
X96062Y414204D01*
X96053Y414270D01*
X96047Y414337D01*
X96045Y414404D01*
X96405Y413564D02*
X98444Y411165D01*
X96045Y411165D01*
D11*
X127834Y424036D02*
X136834Y424036D01*
X127834Y424036D02*
X127834Y406036D01*
X136834Y406036D01*
X136834Y424036D01*
D12*
X133620Y411813D02*
X130826Y411813D01*
X133620Y411813D02*
X133620Y412589D01*
X133618Y412644D01*
X133612Y412699D01*
X133602Y412754D01*
X133589Y412808D01*
X133571Y412860D01*
X133550Y412911D01*
X133525Y412961D01*
X133497Y413009D01*
X133465Y413054D01*
X133430Y413097D01*
X133393Y413138D01*
X133352Y413175D01*
X133309Y413210D01*
X133264Y413242D01*
X133216Y413270D01*
X133166Y413295D01*
X133115Y413316D01*
X133063Y413334D01*
X133009Y413347D01*
X132954Y413357D01*
X132899Y413363D01*
X132844Y413365D01*
X132789Y413363D01*
X132734Y413357D01*
X132679Y413347D01*
X132625Y413334D01*
X132573Y413316D01*
X132522Y413295D01*
X132472Y413270D01*
X132424Y413242D01*
X132379Y413210D01*
X132336Y413175D01*
X132295Y413138D01*
X132258Y413097D01*
X132223Y413054D01*
X132191Y413009D01*
X132163Y412961D01*
X132138Y412911D01*
X132117Y412860D01*
X132099Y412808D01*
X132086Y412754D01*
X132076Y412699D01*
X132070Y412644D01*
X132068Y412589D01*
X132068Y411813D01*
X132068Y412745D02*
X130826Y413365D01*
X132922Y416091D02*
X132972Y416089D01*
X133021Y416084D01*
X133071Y416075D01*
X133119Y416063D01*
X133166Y416047D01*
X133212Y416028D01*
X133257Y416005D01*
X133300Y415980D01*
X133341Y415952D01*
X133380Y415920D01*
X133416Y415886D01*
X133450Y415850D01*
X133482Y415811D01*
X133510Y415770D01*
X133535Y415727D01*
X133558Y415682D01*
X133577Y415636D01*
X133593Y415589D01*
X133605Y415541D01*
X133614Y415491D01*
X133619Y415442D01*
X133621Y415392D01*
X133620Y415392D02*
X133618Y415336D01*
X133613Y415279D01*
X133604Y415224D01*
X133592Y415169D01*
X133576Y415115D01*
X133557Y415062D01*
X133535Y415010D01*
X133509Y414960D01*
X133480Y414911D01*
X133448Y414864D01*
X133414Y414820D01*
X133377Y414778D01*
X133337Y414738D01*
X133294Y414700D01*
X133250Y414666D01*
X133203Y414634D01*
X133155Y414606D01*
X133104Y414580D01*
X133052Y414558D01*
X132999Y414539D01*
X132379Y415857D02*
X132415Y415893D01*
X132453Y415926D01*
X132494Y415956D01*
X132537Y415983D01*
X132581Y416008D01*
X132627Y416029D01*
X132674Y416048D01*
X132722Y416063D01*
X132771Y416075D01*
X132821Y416083D01*
X132871Y416088D01*
X132922Y416090D01*
X132378Y415858D02*
X130826Y414538D01*
X130826Y416091D01*
X132223Y417281D02*
X132318Y417283D01*
X132413Y417289D01*
X132507Y417299D01*
X132601Y417312D01*
X132694Y417330D01*
X132787Y417351D01*
X132879Y417376D01*
X132969Y417405D01*
X133058Y417438D01*
X133146Y417474D01*
X133232Y417514D01*
X133232Y417515D02*
X133274Y417531D01*
X133314Y417550D01*
X133352Y417573D01*
X133389Y417598D01*
X133424Y417626D01*
X133456Y417656D01*
X133486Y417689D01*
X133513Y417724D01*
X133538Y417762D01*
X133559Y417801D01*
X133577Y417841D01*
X133593Y417883D01*
X133605Y417926D01*
X133613Y417969D01*
X133618Y418014D01*
X133620Y418058D01*
X133618Y418102D01*
X133613Y418147D01*
X133605Y418190D01*
X133593Y418233D01*
X133577Y418275D01*
X133559Y418315D01*
X133538Y418354D01*
X133513Y418392D01*
X133486Y418427D01*
X133456Y418460D01*
X133424Y418490D01*
X133389Y418518D01*
X133352Y418543D01*
X133314Y418566D01*
X133274Y418585D01*
X133232Y418601D01*
X133232Y418600D02*
X133146Y418640D01*
X133058Y418676D01*
X132969Y418709D01*
X132878Y418738D01*
X132787Y418763D01*
X132694Y418784D01*
X132601Y418802D01*
X132507Y418815D01*
X132413Y418825D01*
X132318Y418831D01*
X132223Y418833D01*
X132223Y417281D02*
X132128Y417283D01*
X132033Y417289D01*
X131939Y417299D01*
X131845Y417312D01*
X131752Y417330D01*
X131659Y417351D01*
X131568Y417376D01*
X131477Y417405D01*
X131388Y417438D01*
X131300Y417474D01*
X131214Y417514D01*
X131214Y417515D02*
X131172Y417531D01*
X131132Y417550D01*
X131094Y417573D01*
X131057Y417598D01*
X131022Y417626D01*
X130990Y417656D01*
X130960Y417689D01*
X130933Y417724D01*
X130908Y417762D01*
X130887Y417801D01*
X130869Y417841D01*
X130853Y417883D01*
X130841Y417926D01*
X130833Y417969D01*
X130828Y418014D01*
X130826Y418058D01*
X131214Y418601D02*
X131300Y418641D01*
X131388Y418677D01*
X131477Y418710D01*
X131567Y418739D01*
X131659Y418764D01*
X131752Y418785D01*
X131845Y418803D01*
X131939Y418816D01*
X132033Y418826D01*
X132128Y418832D01*
X132223Y418834D01*
X131214Y418601D02*
X131172Y418585D01*
X131132Y418566D01*
X131094Y418543D01*
X131057Y418518D01*
X131022Y418490D01*
X130990Y418460D01*
X130960Y418427D01*
X130933Y418392D01*
X130908Y418354D01*
X130887Y418315D01*
X130869Y418275D01*
X130853Y418233D01*
X130841Y418190D01*
X130833Y418147D01*
X130828Y418102D01*
X130826Y418058D01*
X131447Y417437D02*
X132999Y418679D01*
X132999Y420025D02*
X133620Y420801D01*
X130826Y420801D01*
X130826Y420025D02*
X130826Y421577D01*
D11*
X53704Y213796D02*
X53704Y204796D01*
X53704Y213796D02*
X35704Y213796D01*
X35704Y204796D01*
X53704Y204796D01*
D12*
X51245Y208010D02*
X51245Y210804D01*
X50469Y210804D01*
X50414Y210802D01*
X50359Y210796D01*
X50304Y210786D01*
X50250Y210773D01*
X50198Y210755D01*
X50147Y210734D01*
X50097Y210709D01*
X50049Y210681D01*
X50004Y210649D01*
X49961Y210614D01*
X49920Y210577D01*
X49883Y210536D01*
X49848Y210493D01*
X49816Y210448D01*
X49788Y210400D01*
X49763Y210350D01*
X49742Y210299D01*
X49724Y210247D01*
X49711Y210193D01*
X49701Y210138D01*
X49695Y210083D01*
X49693Y210028D01*
X49695Y209973D01*
X49701Y209918D01*
X49711Y209863D01*
X49724Y209809D01*
X49742Y209757D01*
X49763Y209706D01*
X49788Y209656D01*
X49816Y209608D01*
X49848Y209563D01*
X49883Y209520D01*
X49920Y209479D01*
X49961Y209442D01*
X50004Y209407D01*
X50049Y209375D01*
X50097Y209347D01*
X50147Y209322D01*
X50198Y209301D01*
X50250Y209283D01*
X50304Y209270D01*
X50359Y209260D01*
X50414Y209254D01*
X50469Y209252D01*
X51245Y209252D01*
X50314Y209252D02*
X49693Y208010D01*
X48520Y210183D02*
X47744Y210804D01*
X47744Y208010D01*
X48520Y208010D02*
X46968Y208010D01*
X45777Y209407D02*
X45775Y209502D01*
X45769Y209597D01*
X45759Y209691D01*
X45746Y209785D01*
X45728Y209878D01*
X45707Y209971D01*
X45682Y210063D01*
X45653Y210153D01*
X45620Y210242D01*
X45584Y210330D01*
X45544Y210416D01*
X45528Y210458D01*
X45509Y210498D01*
X45486Y210536D01*
X45461Y210573D01*
X45433Y210608D01*
X45403Y210640D01*
X45370Y210670D01*
X45335Y210697D01*
X45297Y210722D01*
X45258Y210743D01*
X45218Y210761D01*
X45176Y210777D01*
X45133Y210789D01*
X45090Y210797D01*
X45045Y210802D01*
X45001Y210804D01*
X44957Y210802D01*
X44912Y210797D01*
X44869Y210789D01*
X44826Y210777D01*
X44784Y210761D01*
X44744Y210743D01*
X44705Y210722D01*
X44667Y210697D01*
X44632Y210670D01*
X44599Y210640D01*
X44569Y210608D01*
X44541Y210573D01*
X44516Y210536D01*
X44493Y210498D01*
X44474Y210458D01*
X44458Y210416D01*
X44418Y210330D01*
X44382Y210242D01*
X44349Y210153D01*
X44320Y210062D01*
X44295Y209971D01*
X44274Y209878D01*
X44256Y209785D01*
X44243Y209691D01*
X44233Y209597D01*
X44227Y209502D01*
X44225Y209407D01*
X45777Y209407D02*
X45775Y209312D01*
X45769Y209217D01*
X45759Y209123D01*
X45746Y209029D01*
X45728Y208936D01*
X45707Y208843D01*
X45682Y208752D01*
X45653Y208661D01*
X45620Y208572D01*
X45584Y208484D01*
X45544Y208398D01*
X45528Y208356D01*
X45509Y208316D01*
X45486Y208278D01*
X45461Y208241D01*
X45433Y208206D01*
X45403Y208174D01*
X45370Y208144D01*
X45335Y208117D01*
X45297Y208092D01*
X45258Y208071D01*
X45218Y208053D01*
X45176Y208037D01*
X45133Y208025D01*
X45090Y208017D01*
X45045Y208012D01*
X45001Y208010D01*
X44457Y208398D02*
X44417Y208484D01*
X44381Y208572D01*
X44348Y208661D01*
X44319Y208751D01*
X44294Y208843D01*
X44273Y208936D01*
X44255Y209029D01*
X44242Y209123D01*
X44232Y209217D01*
X44226Y209312D01*
X44224Y209407D01*
X44458Y208398D02*
X44474Y208356D01*
X44493Y208316D01*
X44516Y208278D01*
X44541Y208241D01*
X44569Y208206D01*
X44599Y208174D01*
X44632Y208144D01*
X44667Y208117D01*
X44705Y208092D01*
X44744Y208071D01*
X44784Y208053D01*
X44826Y208037D01*
X44869Y208025D01*
X44912Y208017D01*
X44957Y208012D01*
X45001Y208010D01*
X45621Y208631D02*
X44380Y210183D01*
X43033Y209562D02*
X42102Y209562D01*
X42053Y209560D01*
X42005Y209554D01*
X41957Y209545D01*
X41910Y209532D01*
X41864Y209515D01*
X41820Y209494D01*
X41778Y209470D01*
X41737Y209443D01*
X41699Y209413D01*
X41663Y209380D01*
X41630Y209344D01*
X41600Y209306D01*
X41573Y209265D01*
X41549Y209223D01*
X41528Y209179D01*
X41511Y209133D01*
X41498Y209086D01*
X41489Y209038D01*
X41483Y208990D01*
X41481Y208941D01*
X41481Y208786D01*
X41483Y208731D01*
X41489Y208676D01*
X41499Y208621D01*
X41512Y208567D01*
X41530Y208515D01*
X41551Y208464D01*
X41576Y208414D01*
X41604Y208366D01*
X41636Y208321D01*
X41671Y208278D01*
X41708Y208237D01*
X41749Y208200D01*
X41792Y208165D01*
X41837Y208133D01*
X41885Y208105D01*
X41935Y208080D01*
X41986Y208059D01*
X42038Y208041D01*
X42092Y208028D01*
X42147Y208018D01*
X42202Y208012D01*
X42257Y208010D01*
X42312Y208012D01*
X42367Y208018D01*
X42422Y208028D01*
X42476Y208041D01*
X42528Y208059D01*
X42579Y208080D01*
X42629Y208105D01*
X42677Y208133D01*
X42722Y208165D01*
X42765Y208200D01*
X42806Y208237D01*
X42843Y208278D01*
X42878Y208321D01*
X42910Y208366D01*
X42938Y208414D01*
X42963Y208464D01*
X42984Y208515D01*
X43002Y208567D01*
X43015Y208621D01*
X43025Y208676D01*
X43031Y208731D01*
X43033Y208786D01*
X43033Y209562D01*
X43034Y209562D02*
X43032Y209632D01*
X43026Y209701D01*
X43016Y209770D01*
X43003Y209838D01*
X42985Y209906D01*
X42964Y209972D01*
X42939Y210037D01*
X42911Y210101D01*
X42879Y210163D01*
X42844Y210223D01*
X42805Y210281D01*
X42763Y210336D01*
X42718Y210390D01*
X42670Y210440D01*
X42620Y210488D01*
X42566Y210533D01*
X42511Y210575D01*
X42453Y210614D01*
X42393Y210649D01*
X42331Y210681D01*
X42267Y210709D01*
X42202Y210734D01*
X42136Y210755D01*
X42068Y210773D01*
X42000Y210786D01*
X41931Y210796D01*
X41862Y210802D01*
X41792Y210804D01*
D15*
X67818Y265938D02*
X69850Y267970D01*
X53594Y265938D02*
X53594Y286258D01*
X69850Y286258D01*
X69850Y265938D01*
X53594Y265938D01*
D12*
X68926Y274673D02*
X68926Y277241D01*
X68927Y274673D02*
X68925Y274611D01*
X68919Y274549D01*
X68909Y274488D01*
X68896Y274427D01*
X68879Y274368D01*
X68858Y274309D01*
X68833Y274252D01*
X68805Y274197D01*
X68773Y274144D01*
X68738Y274092D01*
X68700Y274043D01*
X68659Y273997D01*
X68615Y273953D01*
X68569Y273912D01*
X68520Y273874D01*
X68468Y273839D01*
X68415Y273807D01*
X68360Y273779D01*
X68303Y273754D01*
X68244Y273733D01*
X68185Y273716D01*
X68124Y273703D01*
X68063Y273693D01*
X68001Y273687D01*
X67939Y273685D01*
X67877Y273687D01*
X67815Y273693D01*
X67754Y273703D01*
X67693Y273716D01*
X67634Y273733D01*
X67575Y273754D01*
X67518Y273779D01*
X67463Y273807D01*
X67410Y273839D01*
X67358Y273874D01*
X67309Y273912D01*
X67263Y273953D01*
X67219Y273997D01*
X67178Y274043D01*
X67140Y274092D01*
X67105Y274144D01*
X67073Y274197D01*
X67045Y274252D01*
X67020Y274309D01*
X66999Y274368D01*
X66982Y274427D01*
X66969Y274488D01*
X66959Y274549D01*
X66953Y274611D01*
X66951Y274673D01*
X66951Y277241D01*
X64297Y277241D02*
X64239Y277239D01*
X64181Y277233D01*
X64124Y277224D01*
X64067Y277211D01*
X64011Y277194D01*
X63957Y277173D01*
X63904Y277149D01*
X63853Y277122D01*
X63803Y277091D01*
X63756Y277057D01*
X63711Y277020D01*
X63668Y276981D01*
X63629Y276938D01*
X63592Y276893D01*
X63558Y276846D01*
X63527Y276797D01*
X63500Y276745D01*
X63476Y276692D01*
X63455Y276638D01*
X63438Y276582D01*
X63425Y276525D01*
X63416Y276468D01*
X63410Y276410D01*
X63408Y276352D01*
X64297Y277241D02*
X64362Y277239D01*
X64427Y277234D01*
X64492Y277224D01*
X64556Y277211D01*
X64619Y277195D01*
X64681Y277174D01*
X64742Y277151D01*
X64801Y277124D01*
X64859Y277093D01*
X64915Y277059D01*
X64969Y277023D01*
X65020Y276983D01*
X65070Y276940D01*
X65116Y276894D01*
X65161Y276846D01*
X65202Y276796D01*
X65240Y276743D01*
X65275Y276688D01*
X65307Y276631D01*
X65336Y276572D01*
X65362Y276512D01*
X65383Y276451D01*
X63704Y275661D02*
X63663Y275703D01*
X63623Y275748D01*
X63587Y275795D01*
X63554Y275844D01*
X63524Y275896D01*
X63497Y275949D01*
X63474Y276003D01*
X63454Y276059D01*
X63437Y276117D01*
X63425Y276175D01*
X63415Y276233D01*
X63410Y276293D01*
X63408Y276352D01*
X63704Y275661D02*
X65383Y273685D01*
X63408Y273685D01*
X61954Y275463D02*
X61952Y275565D01*
X61947Y275667D01*
X61938Y275769D01*
X61926Y275871D01*
X61910Y275972D01*
X61890Y276072D01*
X61867Y276172D01*
X61841Y276270D01*
X61811Y276368D01*
X61777Y276465D01*
X61741Y276560D01*
X61701Y276654D01*
X61658Y276747D01*
X61657Y276747D02*
X61638Y276797D01*
X61616Y276845D01*
X61589Y276892D01*
X61560Y276936D01*
X61527Y276978D01*
X61492Y277018D01*
X61453Y277055D01*
X61412Y277089D01*
X61369Y277120D01*
X61323Y277148D01*
X61276Y277172D01*
X61227Y277193D01*
X61176Y277210D01*
X61125Y277224D01*
X61072Y277233D01*
X61019Y277239D01*
X60966Y277241D01*
X60913Y277239D01*
X60860Y277233D01*
X60807Y277224D01*
X60756Y277210D01*
X60705Y277193D01*
X60656Y277172D01*
X60609Y277148D01*
X60563Y277120D01*
X60520Y277089D01*
X60479Y277055D01*
X60440Y277018D01*
X60405Y276978D01*
X60372Y276936D01*
X60343Y276892D01*
X60316Y276845D01*
X60294Y276797D01*
X60275Y276747D01*
X60232Y276654D01*
X60192Y276560D01*
X60156Y276465D01*
X60122Y276368D01*
X60092Y276270D01*
X60066Y276172D01*
X60043Y276072D01*
X60023Y275972D01*
X60007Y275871D01*
X59995Y275769D01*
X59986Y275667D01*
X59981Y275565D01*
X59979Y275463D01*
X61954Y275463D02*
X61952Y275361D01*
X61947Y275259D01*
X61938Y275157D01*
X61926Y275055D01*
X61910Y274954D01*
X61890Y274854D01*
X61867Y274754D01*
X61841Y274655D01*
X61811Y274558D01*
X61777Y274461D01*
X61741Y274366D01*
X61701Y274271D01*
X61658Y274179D01*
X61657Y274179D02*
X61638Y274129D01*
X61616Y274081D01*
X61589Y274034D01*
X61560Y273990D01*
X61527Y273948D01*
X61492Y273908D01*
X61453Y273871D01*
X61412Y273837D01*
X61369Y273806D01*
X61323Y273778D01*
X61276Y273754D01*
X61227Y273733D01*
X61176Y273716D01*
X61125Y273702D01*
X61072Y273693D01*
X61019Y273687D01*
X60966Y273685D01*
X60274Y274179D02*
X60231Y274271D01*
X60191Y274366D01*
X60155Y274461D01*
X60121Y274558D01*
X60091Y274655D01*
X60065Y274754D01*
X60042Y274854D01*
X60022Y274954D01*
X60006Y275055D01*
X59994Y275157D01*
X59985Y275259D01*
X59980Y275361D01*
X59978Y275463D01*
X60275Y274179D02*
X60294Y274129D01*
X60316Y274081D01*
X60343Y274034D01*
X60372Y273990D01*
X60405Y273948D01*
X60440Y273908D01*
X60479Y273871D01*
X60520Y273837D01*
X60563Y273806D01*
X60609Y273778D01*
X60656Y273754D01*
X60705Y273733D01*
X60756Y273716D01*
X60807Y273702D01*
X60860Y273693D01*
X60913Y273687D01*
X60966Y273685D01*
X61757Y274475D02*
X60176Y276451D01*
X57439Y277241D02*
X57381Y277239D01*
X57323Y277233D01*
X57266Y277224D01*
X57209Y277211D01*
X57153Y277194D01*
X57099Y277173D01*
X57046Y277149D01*
X56995Y277122D01*
X56945Y277091D01*
X56898Y277057D01*
X56853Y277020D01*
X56810Y276981D01*
X56771Y276938D01*
X56734Y276893D01*
X56700Y276846D01*
X56669Y276797D01*
X56642Y276745D01*
X56618Y276692D01*
X56597Y276638D01*
X56580Y276582D01*
X56567Y276525D01*
X56558Y276468D01*
X56552Y276410D01*
X56550Y276352D01*
X57439Y277241D02*
X57504Y277239D01*
X57569Y277234D01*
X57634Y277224D01*
X57698Y277211D01*
X57761Y277195D01*
X57823Y277174D01*
X57884Y277151D01*
X57943Y277124D01*
X58001Y277093D01*
X58057Y277059D01*
X58111Y277023D01*
X58162Y276983D01*
X58212Y276940D01*
X58258Y276894D01*
X58303Y276846D01*
X58344Y276796D01*
X58382Y276743D01*
X58417Y276688D01*
X58449Y276631D01*
X58478Y276572D01*
X58504Y276512D01*
X58525Y276451D01*
X56846Y275661D02*
X56805Y275703D01*
X56765Y275748D01*
X56729Y275795D01*
X56696Y275844D01*
X56666Y275896D01*
X56639Y275949D01*
X56616Y276003D01*
X56596Y276059D01*
X56579Y276117D01*
X56567Y276175D01*
X56557Y276233D01*
X56552Y276293D01*
X56550Y276352D01*
X56846Y275661D02*
X58525Y273685D01*
X56550Y273685D01*
D14*
X67465Y348235D02*
X82395Y348235D01*
X82395Y362965D02*
X67465Y362965D01*
X67465Y348235D01*
X82395Y348235D02*
X82395Y362965D01*
D12*
X80584Y357852D02*
X80584Y355284D01*
X80582Y355222D01*
X80576Y355160D01*
X80566Y355099D01*
X80553Y355038D01*
X80536Y354979D01*
X80515Y354920D01*
X80490Y354863D01*
X80462Y354808D01*
X80430Y354755D01*
X80395Y354703D01*
X80357Y354654D01*
X80316Y354608D01*
X80272Y354564D01*
X80226Y354523D01*
X80177Y354485D01*
X80125Y354450D01*
X80072Y354418D01*
X80017Y354390D01*
X79960Y354365D01*
X79901Y354344D01*
X79842Y354327D01*
X79781Y354314D01*
X79720Y354304D01*
X79658Y354298D01*
X79596Y354296D01*
X79534Y354298D01*
X79472Y354304D01*
X79411Y354314D01*
X79350Y354327D01*
X79291Y354344D01*
X79232Y354365D01*
X79175Y354390D01*
X79120Y354418D01*
X79067Y354450D01*
X79015Y354485D01*
X78966Y354523D01*
X78920Y354564D01*
X78876Y354608D01*
X78835Y354654D01*
X78797Y354703D01*
X78762Y354755D01*
X78730Y354808D01*
X78702Y354863D01*
X78677Y354920D01*
X78656Y354979D01*
X78639Y355038D01*
X78626Y355099D01*
X78616Y355160D01*
X78610Y355222D01*
X78608Y355284D01*
X78608Y357852D01*
X75954Y357852D02*
X75896Y357850D01*
X75838Y357844D01*
X75781Y357835D01*
X75724Y357822D01*
X75668Y357805D01*
X75614Y357784D01*
X75561Y357760D01*
X75510Y357733D01*
X75460Y357702D01*
X75413Y357668D01*
X75368Y357631D01*
X75325Y357592D01*
X75286Y357549D01*
X75249Y357504D01*
X75215Y357457D01*
X75184Y357408D01*
X75157Y357356D01*
X75133Y357303D01*
X75112Y357249D01*
X75095Y357193D01*
X75082Y357136D01*
X75073Y357079D01*
X75067Y357021D01*
X75065Y356963D01*
X75954Y357852D02*
X76019Y357850D01*
X76084Y357845D01*
X76149Y357835D01*
X76213Y357822D01*
X76276Y357806D01*
X76338Y357785D01*
X76399Y357762D01*
X76458Y357735D01*
X76516Y357704D01*
X76572Y357670D01*
X76626Y357634D01*
X76677Y357594D01*
X76727Y357551D01*
X76773Y357505D01*
X76818Y357457D01*
X76859Y357407D01*
X76897Y357354D01*
X76932Y357299D01*
X76964Y357242D01*
X76993Y357183D01*
X77019Y357123D01*
X77040Y357062D01*
X75361Y356272D02*
X75320Y356314D01*
X75280Y356359D01*
X75244Y356406D01*
X75211Y356455D01*
X75181Y356507D01*
X75154Y356560D01*
X75131Y356614D01*
X75111Y356670D01*
X75094Y356728D01*
X75082Y356786D01*
X75072Y356844D01*
X75067Y356904D01*
X75065Y356963D01*
X75362Y356272D02*
X77041Y354296D01*
X75065Y354296D01*
X73611Y356074D02*
X73609Y356176D01*
X73604Y356278D01*
X73595Y356380D01*
X73583Y356482D01*
X73567Y356583D01*
X73547Y356683D01*
X73524Y356783D01*
X73498Y356881D01*
X73468Y356979D01*
X73434Y357076D01*
X73398Y357171D01*
X73358Y357265D01*
X73315Y357358D01*
X73296Y357408D01*
X73274Y357456D01*
X73247Y357503D01*
X73218Y357547D01*
X73185Y357589D01*
X73150Y357629D01*
X73111Y357666D01*
X73070Y357700D01*
X73027Y357731D01*
X72981Y357759D01*
X72934Y357783D01*
X72885Y357804D01*
X72834Y357821D01*
X72783Y357835D01*
X72730Y357844D01*
X72677Y357850D01*
X72624Y357852D01*
X72571Y357850D01*
X72518Y357844D01*
X72465Y357835D01*
X72414Y357821D01*
X72363Y357804D01*
X72314Y357783D01*
X72267Y357759D01*
X72221Y357731D01*
X72178Y357700D01*
X72137Y357666D01*
X72098Y357629D01*
X72063Y357589D01*
X72030Y357547D01*
X72001Y357503D01*
X71974Y357456D01*
X71952Y357408D01*
X71933Y357358D01*
X71890Y357265D01*
X71850Y357171D01*
X71814Y357076D01*
X71780Y356979D01*
X71750Y356881D01*
X71724Y356783D01*
X71701Y356683D01*
X71681Y356583D01*
X71665Y356482D01*
X71653Y356380D01*
X71644Y356278D01*
X71639Y356176D01*
X71637Y356074D01*
X73612Y356074D02*
X73610Y355972D01*
X73605Y355870D01*
X73596Y355768D01*
X73584Y355666D01*
X73568Y355565D01*
X73548Y355465D01*
X73525Y355365D01*
X73499Y355266D01*
X73469Y355169D01*
X73435Y355072D01*
X73399Y354977D01*
X73359Y354882D01*
X73316Y354790D01*
X73315Y354790D02*
X73296Y354740D01*
X73274Y354692D01*
X73247Y354645D01*
X73218Y354601D01*
X73185Y354559D01*
X73150Y354519D01*
X73111Y354482D01*
X73070Y354448D01*
X73027Y354417D01*
X72981Y354389D01*
X72934Y354365D01*
X72885Y354344D01*
X72834Y354327D01*
X72783Y354313D01*
X72730Y354304D01*
X72677Y354298D01*
X72624Y354296D01*
X71932Y354790D02*
X71889Y354882D01*
X71849Y354977D01*
X71813Y355072D01*
X71779Y355169D01*
X71749Y355266D01*
X71723Y355365D01*
X71700Y355465D01*
X71680Y355565D01*
X71664Y355666D01*
X71652Y355768D01*
X71643Y355870D01*
X71638Y355972D01*
X71636Y356074D01*
X71933Y354790D02*
X71952Y354740D01*
X71974Y354692D01*
X72001Y354645D01*
X72030Y354601D01*
X72063Y354559D01*
X72098Y354519D01*
X72137Y354482D01*
X72178Y354448D01*
X72221Y354417D01*
X72267Y354389D01*
X72314Y354365D01*
X72363Y354344D01*
X72414Y354327D01*
X72465Y354313D01*
X72518Y354304D01*
X72571Y354298D01*
X72624Y354296D01*
X73414Y355086D02*
X71834Y357062D01*
X70183Y357062D02*
X69195Y357852D01*
X69195Y354296D01*
X70183Y354296D02*
X68207Y354296D01*
D14*
X112150Y377544D02*
X129150Y377544D01*
X129150Y390044D01*
X112150Y390044D01*
X112150Y377544D01*
D12*
X127881Y381557D02*
X127881Y385875D01*
X126682Y385875D01*
X126615Y385873D01*
X126548Y385867D01*
X126481Y385858D01*
X126415Y385845D01*
X126350Y385828D01*
X126286Y385808D01*
X126223Y385784D01*
X126162Y385756D01*
X126102Y385725D01*
X126044Y385691D01*
X125988Y385654D01*
X125934Y385613D01*
X125883Y385570D01*
X125834Y385524D01*
X125788Y385475D01*
X125745Y385424D01*
X125704Y385370D01*
X125667Y385314D01*
X125633Y385256D01*
X125602Y385196D01*
X125574Y385135D01*
X125550Y385072D01*
X125530Y385008D01*
X125513Y384943D01*
X125500Y384877D01*
X125491Y384810D01*
X125485Y384743D01*
X125483Y384676D01*
X125482Y384676D02*
X125482Y382756D01*
X125483Y382756D02*
X125485Y382689D01*
X125491Y382622D01*
X125500Y382555D01*
X125513Y382489D01*
X125530Y382424D01*
X125550Y382360D01*
X125574Y382297D01*
X125602Y382236D01*
X125633Y382176D01*
X125667Y382118D01*
X125704Y382062D01*
X125745Y382008D01*
X125788Y381957D01*
X125834Y381908D01*
X125883Y381862D01*
X125934Y381819D01*
X125988Y381778D01*
X126044Y381741D01*
X126102Y381707D01*
X126162Y381676D01*
X126223Y381648D01*
X126286Y381624D01*
X126350Y381604D01*
X126415Y381587D01*
X126481Y381574D01*
X126548Y381565D01*
X126615Y381559D01*
X126682Y381557D01*
X127881Y381557D01*
X122310Y385876D02*
X122247Y385874D01*
X122185Y385869D01*
X122122Y385860D01*
X122061Y385847D01*
X122000Y385831D01*
X121941Y385811D01*
X121882Y385788D01*
X121825Y385761D01*
X121770Y385731D01*
X121717Y385698D01*
X121665Y385662D01*
X121616Y385623D01*
X121569Y385582D01*
X121524Y385537D01*
X121483Y385490D01*
X121444Y385441D01*
X121408Y385389D01*
X121375Y385336D01*
X121345Y385281D01*
X121318Y385224D01*
X121295Y385165D01*
X121275Y385106D01*
X121259Y385045D01*
X121246Y384984D01*
X121237Y384921D01*
X121232Y384859D01*
X121230Y384796D01*
X122310Y385875D02*
X122383Y385873D01*
X122455Y385867D01*
X122527Y385858D01*
X122599Y385845D01*
X122669Y385828D01*
X122739Y385807D01*
X122807Y385783D01*
X122875Y385755D01*
X122940Y385724D01*
X123004Y385689D01*
X123066Y385651D01*
X123126Y385610D01*
X123183Y385565D01*
X123239Y385518D01*
X123291Y385468D01*
X123341Y385415D01*
X123388Y385360D01*
X123433Y385302D01*
X123474Y385243D01*
X123512Y385181D01*
X123546Y385117D01*
X123578Y385051D01*
X123605Y384984D01*
X123630Y384915D01*
X121591Y383957D02*
X121544Y384004D01*
X121499Y384055D01*
X121458Y384107D01*
X121420Y384162D01*
X121385Y384220D01*
X121353Y384279D01*
X121325Y384339D01*
X121300Y384402D01*
X121279Y384465D01*
X121262Y384530D01*
X121248Y384596D01*
X121239Y384662D01*
X121233Y384729D01*
X121231Y384796D01*
X121590Y383956D02*
X123629Y381557D01*
X121231Y381557D01*
X119514Y383716D02*
X119512Y383831D01*
X119507Y383946D01*
X119497Y384061D01*
X119484Y384176D01*
X119467Y384290D01*
X119447Y384403D01*
X119423Y384516D01*
X119395Y384628D01*
X119364Y384739D01*
X119329Y384849D01*
X119290Y384957D01*
X119248Y385065D01*
X119203Y385171D01*
X119154Y385275D01*
X119155Y385275D02*
X119134Y385329D01*
X119110Y385382D01*
X119083Y385433D01*
X119052Y385482D01*
X119018Y385529D01*
X118981Y385574D01*
X118942Y385616D01*
X118899Y385656D01*
X118854Y385692D01*
X118807Y385726D01*
X118758Y385757D01*
X118707Y385784D01*
X118654Y385808D01*
X118600Y385828D01*
X118544Y385845D01*
X118488Y385858D01*
X118431Y385867D01*
X118373Y385873D01*
X118315Y385875D01*
X118257Y385873D01*
X118199Y385867D01*
X118142Y385858D01*
X118086Y385845D01*
X118030Y385828D01*
X117976Y385808D01*
X117923Y385784D01*
X117872Y385757D01*
X117823Y385726D01*
X117776Y385692D01*
X117731Y385656D01*
X117688Y385616D01*
X117649Y385574D01*
X117612Y385529D01*
X117578Y385482D01*
X117547Y385433D01*
X117520Y385382D01*
X117496Y385329D01*
X117475Y385275D01*
X117476Y385275D02*
X117427Y385171D01*
X117382Y385065D01*
X117340Y384957D01*
X117301Y384849D01*
X117266Y384739D01*
X117235Y384628D01*
X117207Y384516D01*
X117183Y384403D01*
X117163Y384290D01*
X117146Y384176D01*
X117133Y384061D01*
X117123Y383946D01*
X117118Y383831D01*
X117116Y383716D01*
X119515Y383716D02*
X119513Y383601D01*
X119508Y383486D01*
X119498Y383371D01*
X119485Y383256D01*
X119468Y383142D01*
X119448Y383029D01*
X119424Y382916D01*
X119396Y382804D01*
X119365Y382693D01*
X119330Y382583D01*
X119291Y382474D01*
X119249Y382367D01*
X119204Y382261D01*
X119155Y382157D01*
X119134Y382103D01*
X119110Y382050D01*
X119083Y381999D01*
X119052Y381950D01*
X119018Y381903D01*
X118981Y381858D01*
X118942Y381816D01*
X118899Y381776D01*
X118854Y381740D01*
X118807Y381706D01*
X118758Y381675D01*
X118707Y381648D01*
X118654Y381624D01*
X118600Y381604D01*
X118544Y381587D01*
X118488Y381574D01*
X118431Y381565D01*
X118373Y381559D01*
X118315Y381557D01*
X117476Y382157D02*
X117427Y382261D01*
X117382Y382367D01*
X117340Y382475D01*
X117301Y382583D01*
X117266Y382693D01*
X117235Y382804D01*
X117207Y382916D01*
X117183Y383029D01*
X117163Y383142D01*
X117146Y383256D01*
X117133Y383371D01*
X117123Y383486D01*
X117118Y383601D01*
X117116Y383716D01*
X117475Y382157D02*
X117496Y382103D01*
X117520Y382050D01*
X117547Y381999D01*
X117578Y381950D01*
X117612Y381903D01*
X117649Y381858D01*
X117688Y381816D01*
X117731Y381776D01*
X117776Y381740D01*
X117823Y381706D01*
X117872Y381675D01*
X117923Y381648D01*
X117976Y381624D01*
X118030Y381604D01*
X118086Y381587D01*
X118142Y381574D01*
X118199Y381565D01*
X118257Y381559D01*
X118315Y381557D01*
X119275Y382517D02*
X117356Y384915D01*
X115400Y384915D02*
X114200Y385875D01*
X114200Y381557D01*
X113001Y381557D02*
X115400Y381557D01*
D14*
X218934Y272782D02*
X248934Y272782D01*
X248934Y302782D02*
X218934Y302782D01*
X248934Y302782D02*
X248934Y272782D01*
X218934Y272782D02*
X218934Y302782D01*
D13*
X245999Y291973D02*
X245999Y284607D01*
X242725Y284607D01*
X239919Y290336D02*
X237873Y291973D01*
X237873Y284607D01*
X239919Y284607D02*
X235827Y284607D01*
X232603Y288290D02*
X232601Y288443D01*
X232595Y288596D01*
X232586Y288748D01*
X232572Y288901D01*
X232555Y289053D01*
X232534Y289204D01*
X232509Y289355D01*
X232480Y289505D01*
X232448Y289655D01*
X232411Y289803D01*
X232371Y289951D01*
X232328Y290098D01*
X232280Y290243D01*
X232229Y290387D01*
X232175Y290530D01*
X232116Y290672D01*
X232055Y290811D01*
X231989Y290950D01*
X231963Y291020D01*
X231933Y291089D01*
X231901Y291157D01*
X231864Y291223D01*
X231825Y291287D01*
X231782Y291349D01*
X231737Y291408D01*
X231688Y291466D01*
X231637Y291520D01*
X231583Y291573D01*
X231526Y291622D01*
X231467Y291669D01*
X231406Y291712D01*
X231343Y291753D01*
X231278Y291790D01*
X231211Y291825D01*
X231142Y291855D01*
X231072Y291883D01*
X231001Y291906D01*
X230929Y291927D01*
X230856Y291943D01*
X230782Y291956D01*
X230707Y291966D01*
X230632Y291971D01*
X230557Y291973D01*
X230482Y291971D01*
X230407Y291966D01*
X230332Y291956D01*
X230258Y291943D01*
X230185Y291927D01*
X230113Y291906D01*
X230042Y291883D01*
X229972Y291855D01*
X229903Y291825D01*
X229836Y291790D01*
X229771Y291753D01*
X229708Y291712D01*
X229647Y291669D01*
X229588Y291622D01*
X229531Y291573D01*
X229477Y291520D01*
X229426Y291466D01*
X229378Y291408D01*
X229332Y291349D01*
X229289Y291287D01*
X229250Y291223D01*
X229214Y291157D01*
X229181Y291090D01*
X229151Y291020D01*
X229125Y290950D01*
X229060Y290812D01*
X228998Y290672D01*
X228940Y290530D01*
X228885Y290387D01*
X228834Y290243D01*
X228786Y290098D01*
X228743Y289951D01*
X228703Y289804D01*
X228666Y289655D01*
X228634Y289505D01*
X228605Y289355D01*
X228580Y289204D01*
X228559Y289053D01*
X228542Y288901D01*
X228528Y288748D01*
X228519Y288596D01*
X228513Y288443D01*
X228511Y288290D01*
X232604Y288290D02*
X232602Y288137D01*
X232596Y287984D01*
X232587Y287831D01*
X232573Y287679D01*
X232556Y287527D01*
X232535Y287376D01*
X232510Y287225D01*
X232481Y287074D01*
X232449Y286925D01*
X232412Y286776D01*
X232372Y286629D01*
X232329Y286482D01*
X232281Y286337D01*
X232230Y286192D01*
X232175Y286050D01*
X232117Y285908D01*
X232055Y285768D01*
X231990Y285630D01*
X231989Y285630D02*
X231963Y285560D01*
X231933Y285490D01*
X231901Y285423D01*
X231864Y285357D01*
X231825Y285293D01*
X231782Y285231D01*
X231736Y285172D01*
X231688Y285114D01*
X231637Y285060D01*
X231583Y285007D01*
X231526Y284958D01*
X231467Y284911D01*
X231406Y284868D01*
X231343Y284827D01*
X231278Y284790D01*
X231211Y284755D01*
X231142Y284725D01*
X231072Y284697D01*
X231001Y284674D01*
X230929Y284653D01*
X230856Y284637D01*
X230782Y284624D01*
X230707Y284614D01*
X230632Y284609D01*
X230557Y284607D01*
X229125Y285630D02*
X229060Y285768D01*
X228998Y285908D01*
X228940Y286050D01*
X228885Y286193D01*
X228834Y286337D01*
X228786Y286482D01*
X228743Y286629D01*
X228703Y286777D01*
X228666Y286925D01*
X228634Y287075D01*
X228605Y287225D01*
X228580Y287376D01*
X228559Y287527D01*
X228542Y287679D01*
X228528Y287832D01*
X228519Y287984D01*
X228513Y288137D01*
X228511Y288290D01*
X229125Y285630D02*
X229151Y285559D01*
X229181Y285490D01*
X229214Y285423D01*
X229250Y285357D01*
X229289Y285293D01*
X229332Y285231D01*
X229378Y285172D01*
X229426Y285114D01*
X229477Y285060D01*
X229531Y285007D01*
X229588Y284958D01*
X229647Y284911D01*
X229708Y284868D01*
X229771Y284827D01*
X229836Y284790D01*
X229903Y284755D01*
X229972Y284725D01*
X230042Y284697D01*
X230113Y284674D01*
X230185Y284653D01*
X230258Y284637D01*
X230332Y284624D01*
X230407Y284614D01*
X230482Y284609D01*
X230557Y284607D01*
X232194Y286244D02*
X228921Y290336D01*
X225288Y290336D02*
X223242Y291973D01*
X223242Y284607D01*
X225288Y284607D02*
X221196Y284607D01*
D16*
X0Y0D02*
X381000Y0D01*
X381000Y444500D01*
X0Y444500D01*
X0Y0D01*
M02*
