G04 EAGLE Gerber RS-274X export*
G75*
%MOMM*%
%FSLAX34Y34*%
%LPD*%
%INSolderpaste Bottom*%
%IPPOS*%
%AMOC8*
5,1,8,0,0,1.08239X$1,22.5*%
G01*
%ADD10R,1.450000X1.150000*%
%ADD11R,0.620000X0.620000*%
%ADD12R,0.950000X1.000000*%
%ADD13R,1.150000X1.450000*%
%ADD14R,2.489200X2.235200*%
%ADD15R,0.187963X0.685800*%
%ADD16R,1.308100X2.540000*%
%ADD17R,0.500000X0.309213*%
%ADD18R,0.650000X0.309213*%
%ADD19C,0.200000*%
%ADD20R,0.500000X0.500000*%
%ADD21C,0.243841*%
%ADD22C,0.240031*%
%ADD23R,0.800000X0.900000*%
%ADD24R,2.235200X2.057400*%
%ADD25R,0.812800X2.667000*%
%ADD26C,0.254000*%


D10*
X227330Y315358D03*
X227330Y333358D03*
D11*
X236148Y216154D03*
X227148Y216154D03*
X230560Y263398D03*
X221560Y263398D03*
X81970Y376682D03*
X72970Y376682D03*
X79430Y336550D03*
X70430Y336550D03*
X304364Y183388D03*
X313364Y183388D03*
X304364Y198882D03*
X313364Y198882D03*
X232410Y184586D03*
X232410Y175586D03*
X254000Y207336D03*
X254000Y216336D03*
X244856Y185094D03*
X244856Y176094D03*
X81352Y290830D03*
X90352Y290830D03*
D12*
X83948Y276098D03*
X99948Y276098D03*
D13*
X37702Y275844D03*
X19702Y275844D03*
D14*
X150876Y420116D03*
D15*
X210820Y420497D03*
X206820Y420497D03*
X202820Y420497D03*
X198820Y420497D03*
X194820Y420497D03*
X190820Y420497D03*
X186820Y420497D03*
X182820Y420497D03*
X238820Y420497D03*
X234820Y420497D03*
X230820Y420497D03*
X226820Y420497D03*
X222820Y420497D03*
X218820Y420497D03*
X214820Y420497D03*
X210820Y389763D03*
X206820Y389763D03*
X202820Y389763D03*
X198820Y389763D03*
X194820Y389763D03*
X190820Y389763D03*
X186820Y389763D03*
X182820Y389763D03*
X238820Y389763D03*
X234820Y389763D03*
X230820Y389763D03*
X226820Y389763D03*
X222820Y389763D03*
X218820Y389763D03*
X214820Y389763D03*
D16*
X74295Y245110D03*
X49149Y245110D03*
D17*
X111616Y418512D03*
D18*
X94366Y413512D03*
D17*
X111616Y408512D03*
D19*
X98616Y408012D02*
X98616Y419012D01*
X106616Y419012D01*
X106616Y408012D01*
X98616Y408012D01*
X98616Y409912D02*
X106616Y409912D01*
X106616Y411812D02*
X98616Y411812D01*
X98616Y413712D02*
X106616Y413712D01*
X106616Y415612D02*
X98616Y415612D01*
X98616Y417512D02*
X106616Y417512D01*
D20*
X132334Y419536D03*
X132334Y410536D03*
X49204Y209296D03*
X40204Y209296D03*
D21*
X65722Y270098D03*
X65722Y274098D03*
X65722Y278098D03*
X65722Y282098D03*
X61722Y270098D03*
X61722Y274098D03*
X61722Y278098D03*
X61722Y282098D03*
X57722Y270098D03*
X57722Y274098D03*
X57722Y278098D03*
X57722Y282098D03*
D22*
X78930Y359600D03*
X74930Y359600D03*
X70930Y359600D03*
X78930Y355600D03*
X74930Y355600D03*
X70930Y355600D03*
X78930Y351600D03*
X74930Y351600D03*
X70930Y351600D03*
D23*
X109150Y383794D03*
X132150Y383794D03*
D24*
X72390Y414147D03*
D25*
X244934Y287782D03*
X222934Y287782D03*
D26*
X0Y0D02*
X381000Y0D01*
X381000Y444500D01*
X0Y444500D01*
X0Y0D01*
M02*
