M48
;GenerationSoftware,Autodesk,EAGLE,9.6.2*%
;CreationDate,2020-07-03T06:31:11Z*%
FMAT,2
ICI,OFF
METRIC,TZ,000.000
T10C0.152
T9C0.178
T8C0.200
T7C0.203
T6C0.254
T5C0.650
T4C1.016
T3C1.250
T2C1.700
T1C2.286
%
G90
M71
T1
X35560Y2540
X2540Y41910
X35560Y41910
T2
X5183Y5359
X12183Y5359
T3
X31221Y42748
X22221Y42748
T4
X11807Y42999
X14347Y42999
X6727Y42999
X9267Y42999
X16887Y42999
X19427Y42999
T5
X24496Y39623
X28946Y39623
T6
X28804Y2743
X7188Y5867
X20371Y15850
X18542Y17628
X25197Y9042
X12903Y37617
X21209Y5410
X18821Y30988
X23571Y40513
X20117Y39472
X25070Y10947
X23470Y7442
X5994Y40437
X39370Y21590
X39370Y20320
X39370Y19050
X39370Y17780
X39370Y16510
X43180Y18415
X44450Y17780
X45720Y17145
X46990Y16510
X48260Y15875
X49530Y15240
X7544Y33020
X40640Y15875
X41910Y15240
X43180Y14605
X11201Y38151
X17297Y40538
X20472Y2438
X45720Y21590
X12395Y38633
X43815Y21590
X45720Y18415
X11151Y1803
X7188Y1422
X9728Y3327
X7188Y3327
X9093Y7772
X36525Y31547
X4013Y7772
X1473Y3962
X24672Y29648
X30107Y30260
X27618Y27872
X1473Y5867
X1473Y7772
X4013Y9677
X1473Y9677
X9728Y5867
X12903Y8407
X3175Y3810
X21971Y9804
X21107Y12421
X15875Y16789
X38202Y12954
X13970Y34011
X37719Y14021
X20295Y7518
X22149Y8534
X23063Y30302
X23901Y27305
T7
X15875Y22911
T8
X17399Y6883
X17399Y6121
X15062Y7696
X15062Y6883
X15062Y6121
X15824Y8458
X15824Y7696
X15824Y6883
X15824Y6121
X16637Y8458
X16637Y7696
X16637Y6883
X16637Y6121
X17399Y8458
X17399Y7696
X15062Y8458
T9
X14986Y40411
X29616Y7290
X13462Y38176
X25654Y18313
X18364Y40513
X8611Y35484
X12014Y38075
X22860Y16459
X20269Y41072
X29616Y2845
X17450Y34493
X17450Y21488
X19279Y38100
X22327Y12014
X30150Y11557
X35839Y17704
X29769Y15672
X16485Y34442
X15672Y21082
X35560Y7620
X30429Y16002
X16053Y27381
X15367Y32969
X22835Y13462
X19152Y38837
X31521Y5842
X13919Y31140
X16688Y26594
X16688Y33376
X28753Y7290
X22784Y2870
X26035Y14986
X24409Y2870
X27305Y14249
X13030Y37008
X26780Y33333
X18821Y25324
X13919Y32461
X16764Y22860
X28143Y8712
X29210Y5512
X31826Y32360
X36957Y11963
X16332Y40335
X25281Y27847
X24701Y15240
X22403Y5512
X23368Y5512
X24206Y5512
X25044Y5512
X25603Y5512
X26645Y5512
X27178Y5512
X28194Y5512
X22403Y4623
X23266Y4648
X24206Y4648
X25019Y4648
X25552Y4648
X26670Y4648
X27178Y4623
X28194Y4648
X25629Y7315
X30505Y8090
X19253Y14961
X34823Y6325
X19368Y4382
X24486Y13081
X17069Y19990
X19431Y7798
X28270Y13056
X16510Y21590
X25197Y12471
X30201Y12395
X24621Y28431
X30056Y28786
X30082Y29396
X23266Y22631
X25502Y2870
X15748Y40462
X14986Y17602
X13005Y7620
X14529Y10516
X15342Y39954
X20472Y11608
X18847Y3607
X27203Y7366
X19304Y4953
X26111Y9576
X24892Y24689
X23901Y2870
X32385Y16866
X21717Y24740
X27127Y2870
X25273Y16840
X22835Y28550
X22225Y2870
X24646Y31403
X24646Y31911
X24646Y30895
X12700Y10160
X14961Y11227
X8484Y37313
X4039Y38583
X5944Y34773
X1499Y32868
X18771Y35027
X22962Y15951
X28092Y14148
X31318Y11100
X18720Y9779
X31293Y3734
X30709Y4775
X30869Y27135
X18821Y27559
X13970Y27838
X14046Y33198
X12598Y30099
X10008Y31623
X7137Y31750
X14249Y16459
X18669Y5055
X20193Y4445
X22809Y39345
X21539Y38710
X21971Y10846
X25095Y14122
X19812Y14910
T10
X28130Y7366
X23343Y10185
X18212Y16764
X21907Y13449
X28765Y4699
M30