G04 Layer_Color=128*
%FSLAX43Y43*%
%MOMM*%
G71*
G01*
G75*
%ADD16R,0.600X0.550*%
%ADD19R,0.850X0.800*%
%ADD20R,0.500X0.650*%
%ADD21R,0.550X0.600*%
%ADD22R,0.650X0.500*%
%ADD58R,0.650X0.800*%
%ADD60R,1.600X0.450*%
%ADD61R,0.450X1.600*%
%ADD62R,1.300X0.600*%
%ADD63O,0.550X1.750*%
%ADD64O,1.750X0.550*%
%ADD65R,0.800X0.850*%
%ADD66R,0.600X1.300*%
%ADD67R,0.800X0.650*%
%ADD68R,0.700X0.700*%
%ADD69R,0.600X0.900*%
%ADD70R,1.350X1.500*%
%ADD71R,1.500X1.350*%
%ADD72R,0.350X0.850*%
%ADD76R,1.050X0.720*%
%ADD77R,0.300X0.350*%
%ADD78C,0.280*%
%ADD79R,1.050X1.300*%
%ADD145R,0.250X0.800*%
%ADD146R,0.250X0.900*%
%ADD147R,0.550X0.250*%
%ADD148R,0.900X1.500*%
D16*
X-48912Y-9908D02*
D03*
X-47912D02*
D03*
X-6350Y-24400D02*
D03*
X-7350D02*
D03*
X-33100Y-44875D02*
D03*
X-32100D02*
D03*
X-31900Y-5475D02*
D03*
X-30900D02*
D03*
X-31900Y-3879D02*
D03*
X-30900D02*
D03*
X-33100Y-45775D02*
D03*
X-32100D02*
D03*
X-49125Y-21825D02*
D03*
X-50125D02*
D03*
X-45550D02*
D03*
X-46550D02*
D03*
X-42000D02*
D03*
X-43000D02*
D03*
X-42050Y-26675D02*
D03*
X-41050D02*
D03*
X-45600D02*
D03*
X-44600D02*
D03*
X-49175D02*
D03*
X-48175D02*
D03*
X-54600Y-23600D02*
D03*
X-55600D02*
D03*
X-53950Y-30900D02*
D03*
X-54950D02*
D03*
X-44200Y-19300D02*
D03*
X-45200D02*
D03*
X-48850Y-39425D02*
D03*
X-47850D02*
D03*
X-48900Y-10850D02*
D03*
X-47900D02*
D03*
X-46350Y-10375D02*
D03*
X-45350D02*
D03*
X-12781Y-10279D02*
D03*
X-11781D02*
D03*
X-9806D02*
D03*
X-10806D02*
D03*
X-2700Y-11100D02*
D03*
X-1700D02*
D03*
X-5200D02*
D03*
X-4200D02*
D03*
X-56850Y-30900D02*
D03*
X-55850D02*
D03*
D19*
X-56700Y-18175D02*
D03*
Y-19575D02*
D03*
X-48125Y-18025D02*
D03*
Y-16625D02*
D03*
X-56750Y-16575D02*
D03*
Y-15175D02*
D03*
X-52750Y-24725D02*
D03*
Y-26125D02*
D03*
X-27800Y-4150D02*
D03*
Y-2750D02*
D03*
X-24500Y-4150D02*
D03*
Y-2750D02*
D03*
D20*
X-57550Y-28925D02*
D03*
Y-27975D02*
D03*
X-55650Y-15700D02*
D03*
Y-16650D02*
D03*
X-51650Y-25450D02*
D03*
Y-24500D02*
D03*
X-46975Y-39450D02*
D03*
Y-40400D02*
D03*
Y-41350D02*
D03*
Y-42300D02*
D03*
X-53075Y-36000D02*
D03*
Y-35050D02*
D03*
X-52250Y-36000D02*
D03*
Y-35050D02*
D03*
X-40600Y-33350D02*
D03*
Y-32400D02*
D03*
X-28900Y-6825D02*
D03*
Y-7775D02*
D03*
X-16900Y-19325D02*
D03*
Y-20275D02*
D03*
X-30000Y-21425D02*
D03*
Y-22375D02*
D03*
X-30875Y-21425D02*
D03*
Y-22375D02*
D03*
X-40600Y-34350D02*
D03*
Y-35300D02*
D03*
X-16900Y-18425D02*
D03*
Y-17475D02*
D03*
Y-22175D02*
D03*
Y-21225D02*
D03*
D21*
X-4419Y-19125D02*
D03*
Y-18125D02*
D03*
X-39750Y-23675D02*
D03*
Y-22675D02*
D03*
X-56500Y-23575D02*
D03*
Y-22575D02*
D03*
X-46125Y-41325D02*
D03*
Y-42325D02*
D03*
Y-39425D02*
D03*
Y-40425D02*
D03*
X-5200Y-9700D02*
D03*
Y-8700D02*
D03*
X-1200Y-8700D02*
D03*
Y-9700D02*
D03*
X-8925Y-10300D02*
D03*
Y-11300D02*
D03*
X-20300Y-16200D02*
D03*
Y-17200D02*
D03*
Y-19200D02*
D03*
Y-18200D02*
D03*
X-17800Y-18450D02*
D03*
Y-17450D02*
D03*
X-37875Y-21750D02*
D03*
Y-22750D02*
D03*
X-38700Y-22750D02*
D03*
Y-21750D02*
D03*
X-36925Y-26628D02*
D03*
Y-25628D02*
D03*
X-37825Y-26628D02*
D03*
Y-25628D02*
D03*
X-57550Y-25950D02*
D03*
Y-26950D02*
D03*
D22*
X-55575Y-22775D02*
D03*
X-54625D02*
D03*
X-54925Y-31725D02*
D03*
X-53975D02*
D03*
X-31200Y-18900D02*
D03*
X-32150D02*
D03*
X-25025Y-15100D02*
D03*
X-25975D02*
D03*
X-25025Y-16000D02*
D03*
X-25975D02*
D03*
X-23875Y-15100D02*
D03*
X-22925D02*
D03*
X-23875Y-16000D02*
D03*
X-22925D02*
D03*
X-20275Y-21300D02*
D03*
X-19325D02*
D03*
X-25850Y-25500D02*
D03*
X-24900D02*
D03*
X-25850Y-26400D02*
D03*
X-24900D02*
D03*
D58*
X-13750Y-30150D02*
D03*
Y-31350D02*
D03*
X-27580Y-31375D02*
D03*
Y-30175D02*
D03*
X-15050Y-31375D02*
D03*
Y-30175D02*
D03*
X-16350Y-31375D02*
D03*
Y-30175D02*
D03*
X-32780Y-30175D02*
D03*
Y-31375D02*
D03*
X-31480Y-30175D02*
D03*
Y-31375D02*
D03*
X-28880Y-30175D02*
D03*
Y-31375D02*
D03*
X-58075Y-15250D02*
D03*
Y-16450D02*
D03*
X-26280Y-30175D02*
D03*
Y-31375D02*
D03*
X-18950Y-30175D02*
D03*
Y-31375D02*
D03*
X-17650Y-30175D02*
D03*
Y-31375D02*
D03*
X-30180Y-31375D02*
D03*
Y-30175D02*
D03*
D60*
X-54150Y-17925D02*
D03*
Y-17275D02*
D03*
Y-16625D02*
D03*
Y-15975D02*
D03*
X-49900Y-17925D02*
D03*
Y-17275D02*
D03*
Y-16625D02*
D03*
Y-15975D02*
D03*
D61*
X-56250Y-25125D02*
D03*
X-55600D02*
D03*
X-54950D02*
D03*
X-54300D02*
D03*
X-56250Y-29375D02*
D03*
X-55600D02*
D03*
X-54950D02*
D03*
X-54300D02*
D03*
D62*
X-42635Y-40375D02*
D03*
X-44735Y-39425D02*
D03*
Y-41325D02*
D03*
X-52950Y-20525D02*
D03*
X-55050Y-19575D02*
D03*
Y-21475D02*
D03*
X-50400Y-13075D02*
D03*
X-48300Y-14025D02*
D03*
Y-12125D02*
D03*
X-52200Y-13075D02*
D03*
X-54300Y-12125D02*
D03*
Y-14025D02*
D03*
D63*
X-43724Y-37176D02*
D03*
X-44524D02*
D03*
X-45324D02*
D03*
X-46124D02*
D03*
X-46924D02*
D03*
X-47724D02*
D03*
X-48524D02*
D03*
X-49324D02*
D03*
Y-28926D02*
D03*
X-48524D02*
D03*
X-47724D02*
D03*
X-46924D02*
D03*
X-46124D02*
D03*
X-45324D02*
D03*
X-44524D02*
D03*
X-43724D02*
D03*
D64*
X-50649Y-35851D02*
D03*
Y-35051D02*
D03*
Y-34251D02*
D03*
Y-33451D02*
D03*
Y-32651D02*
D03*
Y-31851D02*
D03*
Y-31051D02*
D03*
Y-30251D02*
D03*
X-42399D02*
D03*
Y-31051D02*
D03*
Y-31851D02*
D03*
Y-32651D02*
D03*
Y-33451D02*
D03*
Y-34251D02*
D03*
Y-35051D02*
D03*
Y-35851D02*
D03*
D65*
X-51150Y-19475D02*
D03*
X-49750D02*
D03*
X-47950D02*
D03*
X-46550D02*
D03*
X-25875Y-5700D02*
D03*
X-27275D02*
D03*
D66*
X-49100Y-23200D02*
D03*
X-50050Y-25300D02*
D03*
X-48150D02*
D03*
X-45550Y-23200D02*
D03*
X-46500Y-25300D02*
D03*
X-44600D02*
D03*
X-42000Y-23200D02*
D03*
X-42950Y-25300D02*
D03*
X-41050D02*
D03*
X-45625Y-15750D02*
D03*
X-46575Y-17850D02*
D03*
X-44675D02*
D03*
X-45625Y-11850D02*
D03*
X-46575Y-13950D02*
D03*
X-44675D02*
D03*
D67*
X-51625Y-23425D02*
D03*
X-52825D02*
D03*
X-10400Y-26500D02*
D03*
X-11600D02*
D03*
X-10425Y-25325D02*
D03*
X-11625D02*
D03*
D68*
X-54200Y-36000D02*
D03*
X-55600D02*
D03*
X-32775Y-20000D02*
D03*
X-31375D02*
D03*
D69*
X-39325Y-31950D02*
D03*
Y-33050D02*
D03*
Y-35750D02*
D03*
Y-34650D02*
D03*
D70*
X-26200Y-10175D02*
D03*
X-27850D02*
D03*
D71*
X-24075Y-7800D02*
D03*
Y-6150D02*
D03*
D72*
X-3875Y-9725D02*
D03*
X-3225D02*
D03*
X-2575D02*
D03*
Y-7875D02*
D03*
X-3225D02*
D03*
X-3875D02*
D03*
D76*
X-11681Y-14644D02*
D03*
X-11681Y-13664D02*
D03*
X-11681Y-12319D02*
D03*
X-11681Y-11339D02*
D03*
D77*
X-12556Y-13504D02*
D03*
Y-14154D02*
D03*
Y-14804D02*
D03*
X-10806D02*
D03*
Y-14154D02*
D03*
Y-13504D02*
D03*
X-12556Y-11179D02*
D03*
Y-11829D02*
D03*
Y-12479D02*
D03*
X-10806D02*
D03*
Y-11829D02*
D03*
Y-11179D02*
D03*
D78*
X-22100Y-23700D02*
D03*
Y-23050D02*
D03*
Y-22400D02*
D03*
Y-21750D02*
D03*
Y-20450D02*
D03*
Y-19800D02*
D03*
Y-19150D02*
D03*
Y-21100D02*
D03*
X-22750D02*
D03*
X-23400D02*
D03*
X-24050D02*
D03*
X-24700D02*
D03*
X-25350D02*
D03*
X-26000D02*
D03*
X-26650D02*
D03*
X-27300D02*
D03*
X-27950D02*
D03*
X-22750Y-23700D02*
D03*
X-23400D02*
D03*
X-24050D02*
D03*
X-24700D02*
D03*
X-25350D02*
D03*
X-26000D02*
D03*
X-26650D02*
D03*
X-27300D02*
D03*
X-27950D02*
D03*
X-22750Y-23050D02*
D03*
X-23400D02*
D03*
X-24050D02*
D03*
X-24700D02*
D03*
X-25350D02*
D03*
X-26000D02*
D03*
X-26650D02*
D03*
X-27300D02*
D03*
X-27950D02*
D03*
X-22750Y-22400D02*
D03*
X-23400D02*
D03*
X-24050D02*
D03*
X-24700D02*
D03*
X-25350D02*
D03*
X-26000D02*
D03*
X-26650D02*
D03*
X-27300D02*
D03*
X-27950D02*
D03*
X-22750Y-21750D02*
D03*
X-23400D02*
D03*
X-24050D02*
D03*
X-24700D02*
D03*
X-25350D02*
D03*
X-26000D02*
D03*
X-26650D02*
D03*
X-27300D02*
D03*
X-27950D02*
D03*
X-22750Y-20450D02*
D03*
X-23400D02*
D03*
X-24050D02*
D03*
X-24700D02*
D03*
X-25350D02*
D03*
X-26000D02*
D03*
X-26650D02*
D03*
X-27300D02*
D03*
X-27950D02*
D03*
X-22750Y-19800D02*
D03*
X-23400D02*
D03*
X-24050D02*
D03*
X-24700D02*
D03*
X-25350D02*
D03*
X-26000D02*
D03*
X-26650D02*
D03*
X-27300D02*
D03*
X-27950D02*
D03*
X-22750Y-19150D02*
D03*
X-23400D02*
D03*
X-24050D02*
D03*
X-24700D02*
D03*
X-25350D02*
D03*
X-26000D02*
D03*
X-26650D02*
D03*
X-27300D02*
D03*
X-27950D02*
D03*
X-22100Y-18500D02*
D03*
X-22750D02*
D03*
X-23400D02*
D03*
X-24050D02*
D03*
X-24700D02*
D03*
X-25350D02*
D03*
X-26000D02*
D03*
X-26650D02*
D03*
X-27300D02*
D03*
X-27950D02*
D03*
X-22100Y-17850D02*
D03*
X-22750D02*
D03*
X-23400D02*
D03*
X-24050D02*
D03*
X-24700D02*
D03*
X-25350D02*
D03*
X-26000D02*
D03*
X-26650D02*
D03*
X-27300D02*
D03*
X-27950D02*
D03*
D79*
X-13775Y-19100D02*
D03*
X-15625Y-21400D02*
D03*
Y-19100D02*
D03*
X-13775Y-21400D02*
D03*
D145*
X-26650Y-4350D02*
D03*
Y-3100D02*
D03*
X-25650D02*
D03*
X-26150Y-4350D02*
D03*
Y-3100D02*
D03*
D146*
X-25650Y-4300D02*
D03*
D147*
X-27775Y-8400D02*
D03*
Y-7750D02*
D03*
Y-7100D02*
D03*
X-25675D02*
D03*
Y-7750D02*
D03*
Y-8400D02*
D03*
D148*
X-26725Y-7750D02*
D03*
M02*
