G04 Layer_Physical_Order=1*
G04 Layer_Color=255*
%FSLAX43Y43*%
%MOMM*%
G71*
G01*
G75*
%ADD10C,0.180*%
%ADD11R,0.400X1.000*%
%ADD12R,0.300X1.000*%
%ADD13R,0.300X0.600*%
%ADD14R,0.540X0.800*%
%ADD15R,0.700X0.700*%
%ADD16R,0.600X0.550*%
%ADD17R,0.400X1.350*%
%ADD18R,1.000X2.250*%
%ADD19R,0.850X0.800*%
%ADD20R,0.500X0.650*%
%ADD21R,0.550X0.600*%
%ADD22R,0.650X0.500*%
%ADD23R,1.550X1.000*%
%ADD24R,2.450X2.450*%
%ADD25O,0.250X0.750*%
%ADD26O,0.750X0.250*%
%ADD27R,1.000X0.950*%
%ADD28R,0.500X0.600*%
%ADD29C,0.550*%
%ADD30C,0.175*%
%ADD31C,0.150*%
%ADD32C,0.200*%
%ADD33C,0.300*%
%ADD34C,0.400*%
%ADD35C,0.250*%
%ADD36R,1.800X1.900*%
%ADD37R,0.900X0.300*%
G04:AMPARAMS|DCode=38|XSize=1.05mm|YSize=1.25mm|CornerRadius=0.525mm|HoleSize=0mm|Usage=FLASHONLY|Rotation=180.000|XOffset=0mm|YOffset=0mm|HoleType=Round|Shape=RoundedRectangle|*
%AMROUNDEDRECTD38*
21,1,1.050,0.200,0,0,180.0*
21,1,0.000,1.250,0,0,180.0*
1,1,1.050,0.000,0.100*
1,1,1.050,0.000,0.100*
1,1,1.050,0.000,-0.100*
1,1,1.050,0.000,-0.100*
%
%ADD38ROUNDEDRECTD38*%
G04:AMPARAMS|DCode=39|XSize=2.1mm|YSize=1.9mm|CornerRadius=0.494mm|HoleSize=0mm|Usage=FLASHONLY|Rotation=180.000|XOffset=0mm|YOffset=0mm|HoleType=Round|Shape=RoundedRectangle|*
%AMROUNDEDRECTD39*
21,1,2.100,0.912,0,0,180.0*
21,1,1.112,1.900,0,0,180.0*
1,1,0.988,-0.556,0.456*
1,1,0.988,0.556,0.456*
1,1,0.988,0.556,-0.456*
1,1,0.988,-0.556,-0.456*
%
%ADD39ROUNDEDRECTD39*%
%ADD40R,1.700X1.700*%
%ADD41C,1.700*%
%ADD42R,1.700X1.700*%
%ADD43C,1.050*%
%ADD44C,3.600*%
%ADD45C,0.400*%
G36*
X-18200Y-2625D02*
X-19800D01*
X-19848Y-2621D01*
X-19901Y-2614D01*
X-19954Y-2599D01*
X-19997Y-2583D01*
X-20039Y-2563D01*
X-20083Y-2535D01*
X-20121Y-2506D01*
X-20160Y-2472D01*
X-20189Y-2436D01*
X-20217Y-2399D01*
X-20241Y-2358D01*
X-20261Y-2316D01*
X-20277Y-2274D01*
X-20289Y-2223D01*
X-20296Y-2178D01*
X-20300Y-2125D01*
Y-1225D01*
X-20296Y-1170D01*
X-20288Y-1125D01*
X-20276Y-1075D01*
X-20260Y-1035D01*
X-20247Y-1002D01*
X-20222Y-959D01*
X-20196Y-922D01*
X-20165Y-884D01*
X-20120Y-843D01*
X-20080Y-813D01*
X-20034Y-784D01*
X-19981Y-760D01*
X-19894Y-734D01*
X-19800Y-725D01*
X-18200D01*
Y-2625D01*
D02*
G37*
G36*
X-11352Y-729D02*
X-11299Y-736D01*
X-11246Y-751D01*
X-11203Y-767D01*
X-11161Y-787D01*
X-11117Y-815D01*
X-11079Y-844D01*
X-11040Y-878D01*
X-11011Y-914D01*
X-10983Y-951D01*
X-10959Y-992D01*
X-10939Y-1034D01*
X-10923Y-1076D01*
X-10911Y-1127D01*
X-10904Y-1172D01*
X-10900Y-1225D01*
Y-2125D01*
X-10904Y-2180D01*
X-10912Y-2225D01*
X-10924Y-2275D01*
X-10940Y-2315D01*
X-10953Y-2348D01*
X-10978Y-2391D01*
X-11004Y-2428D01*
X-11035Y-2466D01*
X-11080Y-2507D01*
X-11120Y-2537D01*
X-11166Y-2566D01*
X-11219Y-2590D01*
X-11306Y-2616D01*
X-11400Y-2625D01*
X-13000D01*
Y-725D01*
X-11400D01*
X-11352Y-729D01*
D02*
G37*
G36*
X-10850Y-5475D02*
X-12933D01*
X-12919Y-5464D01*
X-12890Y-5439D01*
X-12862Y-5413D01*
X-12836Y-5385D01*
X-12811Y-5356D01*
X-12788Y-5326D01*
X-12767Y-5295D01*
X-12747Y-5263D01*
X-12729Y-5229D01*
X-12712Y-5195D01*
X-12698Y-5160D01*
X-12685Y-5124D01*
X-12674Y-5088D01*
X-12666Y-5051D01*
X-12659Y-5013D01*
X-12654Y-4976D01*
X-12651Y-4938D01*
X-12650Y-4900D01*
X-13375D01*
Y-4800D01*
X-13475D01*
Y-3982D01*
X-13488Y-3984D01*
X-13526Y-3991D01*
X-13563Y-3999D01*
X-13599Y-4010D01*
X-13635Y-4023D01*
X-13670Y-4037D01*
X-13704Y-4054D01*
X-13738Y-4072D01*
X-13770Y-4092D01*
X-13801Y-4113D01*
X-13831Y-4136D01*
X-13860Y-4161D01*
X-13888Y-4187D01*
X-13914Y-4215D01*
X-13925Y-4228D01*
Y-3650D01*
X-11850D01*
Y-2825D01*
X-11394D01*
X-11358Y-2824D01*
X-11321Y-2821D01*
X-11285Y-2817D01*
X-11250Y-2810D01*
X-11214Y-2802D01*
X-11179Y-2791D01*
X-11145Y-2779D01*
X-11112Y-2765D01*
X-11079Y-2750D01*
X-11047Y-2732D01*
X-11016Y-2713D01*
X-10986Y-2693D01*
X-10957Y-2671D01*
X-10929Y-2647D01*
X-10903Y-2622D01*
X-10878Y-2596D01*
X-10854Y-2568D01*
X-10850Y-2562D01*
X-10850Y-5475D01*
D02*
G37*
G36*
X-20346Y-2568D02*
X-20322Y-2596D01*
X-20297Y-2622D01*
X-20271Y-2647D01*
X-20243Y-2671D01*
X-20214Y-2693D01*
X-20184Y-2713D01*
X-20153Y-2732D01*
X-20121Y-2750D01*
X-20088Y-2765D01*
X-20055Y-2779D01*
X-20021Y-2791D01*
X-19986Y-2802D01*
X-19950Y-2810D01*
X-19915Y-2817D01*
X-19879Y-2821D01*
X-19842Y-2824D01*
X-19806Y-2825D01*
X-19350D01*
Y-3650D01*
X-17275D01*
Y-4228D01*
X-17286Y-4215D01*
X-17312Y-4187D01*
X-17340Y-4161D01*
X-17369Y-4136D01*
X-17399Y-4113D01*
X-17430Y-4092D01*
X-17462Y-4072D01*
X-17496Y-4054D01*
X-17530Y-4037D01*
X-17565Y-4023D01*
X-17601Y-4010D01*
X-17637Y-3999D01*
X-17674Y-3991D01*
X-17712Y-3984D01*
X-17725Y-3982D01*
Y-4800D01*
X-17825D01*
Y-4900D01*
X-18550D01*
X-18549Y-4938D01*
X-18546Y-4976D01*
X-18541Y-5013D01*
X-18534Y-5051D01*
X-18526Y-5088D01*
X-18515Y-5124D01*
X-18502Y-5160D01*
X-18488Y-5195D01*
X-18471Y-5229D01*
X-18453Y-5263D01*
X-18433Y-5295D01*
X-18412Y-5326D01*
X-18389Y-5356D01*
X-18364Y-5385D01*
X-18338Y-5413D01*
X-18310Y-5439D01*
X-18281Y-5464D01*
X-18267Y-5475D01*
X-20350D01*
Y-2562D01*
X-20346Y-2568D01*
D02*
G37*
G36*
X-529Y-59471D02*
X-59471D01*
Y-529D01*
X-21477D01*
X-21235Y-715D01*
X-20928Y-842D01*
X-20599Y-885D01*
X-20552Y-879D01*
X-20446Y-1017D01*
X-20458Y-1044D01*
X-20466Y-1107D01*
X-20472Y-1139D01*
X-20471Y-1148D01*
X-20474Y-1157D01*
X-20476Y-1180D01*
X-20481Y-1219D01*
Y-2131D01*
X-20475Y-2172D01*
X-20474Y-2191D01*
X-20472Y-2198D01*
X-20472Y-2205D01*
X-20465Y-2250D01*
X-20465Y-2252D01*
X-20458Y-2306D01*
X-20434Y-2363D01*
X-20428Y-2380D01*
X-20459Y-2421D01*
X-20466Y-2429D01*
X-20476Y-2436D01*
X-20489Y-2455D01*
X-20505Y-2473D01*
X-20508Y-2484D01*
X-20515Y-2494D01*
X-20519Y-2517D01*
X-20527Y-2539D01*
X-20526Y-2551D01*
X-20528Y-2562D01*
Y-5475D01*
X-20515Y-5543D01*
X-20476Y-5601D01*
X-20418Y-5640D01*
X-20350Y-5653D01*
X-19325D01*
Y-6025D01*
X-18825D01*
Y-6225D01*
X-19325D01*
Y-6575D01*
X-19325D01*
Y-6925D01*
X-18800D01*
Y-7025D01*
X-18700D01*
Y-7475D01*
X-18275D01*
Y-7450D01*
X-17350D01*
Y-6600D01*
X-17350D01*
Y-6575D01*
X-17350D01*
Y-5675D01*
X-17494D01*
Y-5520D01*
X-17472Y-5511D01*
X-17326Y-5399D01*
X-17288Y-5350D01*
X-17000D01*
Y-4475D01*
X-16800D01*
Y-5350D01*
X-16500D01*
X-16400Y-5459D01*
Y-5725D01*
X-16450D01*
Y-6225D01*
X-16550D01*
Y-6325D01*
X-16900D01*
Y-6725D01*
Y-6975D01*
X-16430D01*
Y-7175D01*
X-16900D01*
Y-7675D01*
Y-7825D01*
X-16550D01*
Y-8025D01*
X-16900D01*
Y-8425D01*
X-16538D01*
X-16458Y-8575D01*
X-16474Y-8599D01*
X-16509Y-8775D01*
X-16474Y-8951D01*
X-16374Y-9099D01*
X-16226Y-9199D01*
X-16186Y-9207D01*
Y-11125D01*
X-16185Y-11135D01*
X-16219Y-11486D01*
X-16324Y-11832D01*
X-16495Y-12151D01*
X-16719Y-12424D01*
X-16726Y-12429D01*
X-19237Y-14940D01*
X-19241Y-14937D01*
X-19337Y-15049D01*
X-19610Y-15369D01*
X-19906Y-15853D01*
X-20124Y-16378D01*
X-20257Y-16931D01*
X-20301Y-17497D01*
X-20296D01*
Y-17670D01*
X-20364Y-17759D01*
X-20452Y-17972D01*
X-20483Y-18200D01*
X-20452Y-18428D01*
X-20364Y-18641D01*
X-20224Y-18824D01*
X-20041Y-18964D01*
X-19828Y-19052D01*
X-19600Y-19083D01*
X-19372Y-19052D01*
X-19159Y-18964D01*
X-18976Y-18824D01*
X-18836Y-18641D01*
X-18748Y-18428D01*
X-18720Y-18216D01*
X-18594Y-18164D01*
X-18411Y-18024D01*
X-18271Y-17841D01*
X-18183Y-17628D01*
X-18152Y-17400D01*
X-18183Y-17172D01*
X-18271Y-16959D01*
X-18297Y-16924D01*
X-18201Y-16606D01*
X-18030Y-16286D01*
X-17806Y-16014D01*
X-17799Y-16008D01*
X-15473Y-13682D01*
X-15469Y-13686D01*
X-15100Y-13254D01*
X-14804Y-12769D01*
X-14649Y-12397D01*
X-14499Y-12427D01*
Y-13446D01*
X-16658Y-15605D01*
X-16725Y-15591D01*
X-16901Y-15626D01*
X-17049Y-15726D01*
X-17149Y-15874D01*
X-17184Y-16050D01*
X-17149Y-16226D01*
X-17049Y-16374D01*
X-16901Y-16474D01*
X-16725Y-16509D01*
X-16549Y-16474D01*
X-16401Y-16374D01*
X-16301Y-16226D01*
X-16266Y-16050D01*
X-16280Y-15983D01*
X-14042Y-13746D01*
X-13984Y-13659D01*
X-13964Y-13557D01*
Y-10642D01*
X-12817Y-9495D01*
X-12750Y-9509D01*
X-12574Y-9474D01*
X-12426Y-9374D01*
X-12326Y-9226D01*
X-12291Y-9050D01*
X-12326Y-8874D01*
X-12419Y-8736D01*
Y-8286D01*
X-12325Y-8175D01*
X-11900D01*
Y-7725D01*
Y-7275D01*
X-12325D01*
Y-7300D01*
X-13250D01*
X-13350Y-7200D01*
Y-7200D01*
X-14200D01*
Y-6850D01*
X-13350D01*
Y-6850D01*
X-13250Y-6850D01*
Y-6850D01*
X-12325D01*
Y-6875D01*
X-11900D01*
Y-6425D01*
Y-5975D01*
X-12325D01*
Y-6000D01*
X-13250D01*
X-13350Y-5891D01*
Y-5800D01*
X-13709D01*
X-13719Y-5748D01*
X-13791Y-5641D01*
X-13693Y-5526D01*
X-13558Y-5582D01*
X-13375Y-5606D01*
X-13192Y-5582D01*
X-13099Y-5543D01*
X-13098Y-5543D01*
X-13085Y-5563D01*
X-13075Y-5584D01*
X-13066Y-5591D01*
X-13060Y-5601D01*
X-13040Y-5614D01*
X-13023Y-5630D01*
X-13011Y-5633D01*
X-13002Y-5640D01*
X-12979Y-5644D01*
X-12957Y-5652D01*
X-12945Y-5651D01*
X-12933Y-5653D01*
X-10850D01*
X-10782Y-5640D01*
X-10724Y-5601D01*
X-10685Y-5543D01*
X-10672Y-5475D01*
X-10672Y-2562D01*
X-10674Y-2551D01*
X-10673Y-2539D01*
X-10681Y-2517D01*
X-10685Y-2494D01*
X-10692Y-2484D01*
X-10695Y-2473D01*
X-10711Y-2455D01*
X-10724Y-2436D01*
X-10734Y-2429D01*
X-10741Y-2421D01*
X-10762Y-2410D01*
X-10780Y-2398D01*
X-10742Y-2306D01*
X-10734Y-2243D01*
X-10728Y-2211D01*
X-10729Y-2202D01*
X-10726Y-2193D01*
X-10724Y-2170D01*
X-10719Y-2131D01*
Y-1219D01*
X-10725Y-1178D01*
X-10726Y-1159D01*
X-10728Y-1152D01*
X-10728Y-1145D01*
X-10735Y-1100D01*
X-10735Y-1098D01*
X-10742Y-1044D01*
X-10754Y-1016D01*
X-10701Y-912D01*
X-10697Y-906D01*
X-10693Y-903D01*
X-10648Y-879D01*
X-10600Y-885D01*
X-10271Y-842D01*
X-9964Y-715D01*
X-9722Y-529D01*
X-529D01*
Y-59471D01*
D02*
G37*
%LPC*%
G36*
X-13275Y-3982D02*
Y-4700D01*
X-12650D01*
Y-4700D01*
X-12651Y-4662D01*
X-12654Y-4624D01*
X-12659Y-4587D01*
X-12666Y-4549D01*
X-12674Y-4512D01*
X-12685Y-4476D01*
X-12698Y-4440D01*
X-12712Y-4405D01*
X-12729Y-4371D01*
X-12747Y-4337D01*
X-12767Y-4305D01*
X-12788Y-4274D01*
X-12811Y-4244D01*
X-12836Y-4215D01*
X-12862Y-4187D01*
X-12890Y-4161D01*
X-12919Y-4136D01*
X-12949Y-4113D01*
X-12980Y-4092D01*
X-13012Y-4072D01*
X-13046Y-4054D01*
X-13080Y-4037D01*
X-13115Y-4023D01*
X-13151Y-4010D01*
X-13187Y-3999D01*
X-13224Y-3991D01*
X-13262Y-3984D01*
X-13275Y-3982D01*
D02*
G37*
G36*
X-17925Y-3982D02*
X-17938Y-3984D01*
X-17976Y-3991D01*
X-18013Y-3999D01*
X-18049Y-4010D01*
X-18085Y-4023D01*
X-18120Y-4037D01*
X-18154Y-4054D01*
X-18188Y-4072D01*
X-18220Y-4092D01*
X-18251Y-4113D01*
X-18281Y-4136D01*
X-18310Y-4161D01*
X-18338Y-4187D01*
X-18364Y-4215D01*
X-18389Y-4244D01*
X-18412Y-4274D01*
X-18433Y-4305D01*
X-18453Y-4337D01*
X-18471Y-4371D01*
X-18488Y-4405D01*
X-18502Y-4440D01*
X-18515Y-4476D01*
X-18526Y-4512D01*
X-18534Y-4549D01*
X-18541Y-4587D01*
X-18546Y-4624D01*
X-18549Y-4662D01*
X-18550Y-4700D01*
Y-4700D01*
X-17925D01*
Y-3982D01*
D02*
G37*
G36*
X-41550Y-28491D02*
X-41726Y-28526D01*
X-41874Y-28626D01*
X-41974Y-28774D01*
X-42009Y-28950D01*
X-41985Y-29070D01*
X-42077Y-29220D01*
X-42750D01*
X-42848Y-29240D01*
X-42930Y-29295D01*
X-43718Y-30083D01*
X-43800Y-30066D01*
X-43976Y-30101D01*
X-44124Y-30201D01*
X-44224Y-30349D01*
X-44259Y-30525D01*
X-44224Y-30701D01*
X-44124Y-30849D01*
X-43976Y-30949D01*
X-43800Y-30984D01*
X-43624Y-30949D01*
X-43476Y-30849D01*
X-43376Y-30701D01*
X-43341Y-30525D01*
X-43357Y-30443D01*
X-42644Y-29730D01*
X-35331D01*
X-34455Y-30605D01*
X-34373Y-30660D01*
X-34275Y-30680D01*
X-22468D01*
X-22370Y-30660D01*
X-22288Y-30605D01*
X-21737Y-30055D01*
X-20821D01*
X-20774Y-30124D01*
X-20626Y-30224D01*
X-20450Y-30259D01*
X-20274Y-30224D01*
X-20126Y-30124D01*
X-20026Y-29976D01*
X-19991Y-29800D01*
X-20026Y-29624D01*
X-20126Y-29476D01*
X-20274Y-29376D01*
X-20450Y-29341D01*
X-20626Y-29376D01*
X-20774Y-29476D01*
X-20821Y-29545D01*
X-21843D01*
X-21940Y-29565D01*
X-21981Y-29592D01*
X-22052Y-29608D01*
X-22172Y-29556D01*
X-22226Y-29476D01*
X-22374Y-29376D01*
X-22550Y-29341D01*
X-22726Y-29376D01*
X-22874Y-29476D01*
X-22974Y-29624D01*
X-23009Y-29800D01*
X-23066Y-29870D01*
X-34045D01*
X-35146Y-28770D01*
X-35228Y-28715D01*
X-35326Y-28695D01*
X-41179D01*
X-41226Y-28626D01*
X-41374Y-28526D01*
X-41550Y-28491D01*
D02*
G37*
G36*
X-56475Y-31416D02*
X-56651Y-31451D01*
X-56799Y-31551D01*
X-56899Y-31699D01*
X-56934Y-31875D01*
X-56899Y-32051D01*
X-56799Y-32199D01*
X-56651Y-32299D01*
X-56475Y-32334D01*
X-56299Y-32299D01*
X-56151Y-32199D01*
X-56051Y-32051D01*
X-56016Y-31875D01*
X-56051Y-31699D01*
X-56151Y-31551D01*
X-56299Y-31451D01*
X-56475Y-31416D01*
D02*
G37*
G36*
X-13751Y-22992D02*
X-13926Y-23027D01*
X-14075Y-23127D01*
X-14175Y-23276D01*
X-14209Y-23451D01*
X-14175Y-23627D01*
X-14075Y-23776D01*
X-14018Y-23814D01*
Y-28538D01*
X-14074Y-28575D01*
X-14174Y-28724D01*
X-14209Y-28900D01*
X-14174Y-29075D01*
X-14074Y-29224D01*
X-13925Y-29324D01*
X-13750Y-29359D01*
X-13574Y-29324D01*
X-13425Y-29224D01*
X-13326Y-29075D01*
X-13291Y-28900D01*
X-13326Y-28724D01*
X-13425Y-28575D01*
X-13483Y-28537D01*
Y-23814D01*
X-13426Y-23776D01*
X-13327Y-23627D01*
X-13292Y-23451D01*
X-13327Y-23276D01*
X-13426Y-23127D01*
X-13575Y-23027D01*
X-13751Y-22992D01*
D02*
G37*
G36*
X-4530Y-27684D02*
X-4704Y-27707D01*
X-4960Y-27813D01*
X-5179Y-27981D01*
X-5347Y-28200D01*
X-5453Y-28456D01*
X-5476Y-28630D01*
X-4530D01*
Y-27684D01*
D02*
G37*
G36*
X-56106Y-13289D02*
X-56281Y-13324D01*
X-56430Y-13424D01*
X-56530Y-13572D01*
X-56565Y-13748D01*
X-56530Y-13924D01*
X-56430Y-14072D01*
X-56281Y-14172D01*
X-56106Y-14207D01*
X-56039Y-14193D01*
X-53418Y-16815D01*
Y-26625D01*
X-53397Y-26727D01*
X-53339Y-26814D01*
X-51770Y-28383D01*
X-51784Y-28450D01*
X-51749Y-28626D01*
X-51649Y-28774D01*
X-51501Y-28874D01*
X-51325Y-28909D01*
X-51149Y-28874D01*
X-51001Y-28774D01*
X-50901Y-28626D01*
X-50866Y-28450D01*
X-50901Y-28274D01*
X-51001Y-28126D01*
X-51149Y-28026D01*
X-51325Y-27991D01*
X-51392Y-28005D01*
X-52882Y-26514D01*
Y-16704D01*
X-52903Y-16601D01*
X-52961Y-16515D01*
X-55660Y-13815D01*
X-55647Y-13748D01*
X-55682Y-13572D01*
X-55781Y-13424D01*
X-55930Y-13324D01*
X-56106Y-13289D01*
D02*
G37*
G36*
X-34700Y-40700D02*
X-35225D01*
Y-41200D01*
X-34700D01*
Y-40700D01*
D02*
G37*
G36*
Y-41400D02*
X-35225D01*
Y-41900D01*
X-34700D01*
Y-41400D01*
D02*
G37*
G36*
X-4430Y-40396D02*
X-4698Y-40431D01*
X-4947Y-40535D01*
X-5161Y-40699D01*
X-5325Y-40913D01*
X-5429Y-41162D01*
X-5464Y-41430D01*
X-5429Y-41698D01*
X-5325Y-41947D01*
X-5318Y-41957D01*
X-5818Y-42458D01*
X-6389D01*
X-6419Y-42396D01*
X-6430Y-42308D01*
X-6239Y-42161D01*
X-6075Y-41947D01*
X-5971Y-41698D01*
X-5936Y-41430D01*
X-5971Y-41162D01*
X-6075Y-40913D01*
X-6239Y-40699D01*
X-6453Y-40535D01*
X-6702Y-40431D01*
X-6970Y-40396D01*
X-7238Y-40431D01*
X-7487Y-40535D01*
X-7701Y-40699D01*
X-7865Y-40913D01*
X-7969Y-41162D01*
X-8004Y-41430D01*
X-7969Y-41698D01*
X-7865Y-41947D01*
X-7858Y-41957D01*
X-9580Y-43680D01*
X-9635Y-43762D01*
X-9655Y-43860D01*
Y-49224D01*
X-17276Y-56845D01*
X-29210D01*
X-29795Y-56260D01*
Y-56069D01*
X-29645Y-56039D01*
X-29625Y-56087D01*
X-29461Y-56301D01*
X-29247Y-56465D01*
X-28998Y-56569D01*
X-28730Y-56604D01*
X-28462Y-56569D01*
X-28213Y-56465D01*
X-27999Y-56301D01*
X-27835Y-56087D01*
X-27731Y-55838D01*
X-27696Y-55570D01*
X-27731Y-55302D01*
X-27835Y-55053D01*
X-27999Y-54839D01*
X-28213Y-54675D01*
X-28462Y-54571D01*
X-28730Y-54536D01*
X-28998Y-54571D01*
X-29247Y-54675D01*
X-29461Y-54839D01*
X-29625Y-55053D01*
X-29645Y-55101D01*
X-29795Y-55071D01*
Y-54250D01*
X-29815Y-54152D01*
X-29870Y-54070D01*
X-30382Y-53557D01*
X-30375Y-53547D01*
X-30271Y-53298D01*
X-30236Y-53030D01*
X-30271Y-52762D01*
X-30375Y-52513D01*
X-30539Y-52299D01*
X-30753Y-52135D01*
X-31002Y-52031D01*
X-31270Y-51996D01*
X-31538Y-52031D01*
X-31787Y-52135D01*
X-32001Y-52299D01*
X-32165Y-52513D01*
X-32269Y-52762D01*
X-32304Y-53030D01*
X-32269Y-53298D01*
X-32165Y-53547D01*
X-32001Y-53761D01*
X-31787Y-53925D01*
X-31538Y-54029D01*
X-31270Y-54064D01*
X-31002Y-54029D01*
X-30753Y-53925D01*
X-30743Y-53918D01*
X-30305Y-54356D01*
Y-54898D01*
X-30455Y-54949D01*
X-30539Y-54839D01*
X-30753Y-54675D01*
X-31002Y-54571D01*
X-31270Y-54536D01*
X-31538Y-54571D01*
X-31787Y-54675D01*
X-32001Y-54839D01*
X-32120Y-54994D01*
X-32270Y-54943D01*
Y-54315D01*
X-32290Y-54217D01*
X-32345Y-54135D01*
X-32922Y-53557D01*
X-32915Y-53547D01*
X-32811Y-53298D01*
X-32776Y-53030D01*
X-32811Y-52762D01*
X-32915Y-52513D01*
X-33079Y-52299D01*
X-33293Y-52135D01*
X-33542Y-52031D01*
X-33810Y-51996D01*
X-34078Y-52031D01*
X-34327Y-52135D01*
X-34541Y-52299D01*
X-34705Y-52513D01*
X-34809Y-52762D01*
X-34844Y-53030D01*
X-34809Y-53298D01*
X-34705Y-53547D01*
X-34541Y-53761D01*
X-34327Y-53925D01*
X-34078Y-54029D01*
X-33810Y-54064D01*
X-33542Y-54029D01*
X-33293Y-53925D01*
X-33283Y-53918D01*
X-32780Y-54421D01*
Y-54992D01*
X-32858Y-55027D01*
X-32930Y-55033D01*
X-33079Y-54839D01*
X-33293Y-54675D01*
X-33542Y-54571D01*
X-33810Y-54536D01*
X-34078Y-54571D01*
X-34327Y-54675D01*
X-34541Y-54839D01*
X-34705Y-55053D01*
X-34809Y-55302D01*
X-34844Y-55570D01*
X-34809Y-55838D01*
X-34705Y-56087D01*
X-34541Y-56301D01*
X-34327Y-56465D01*
X-34078Y-56569D01*
X-33810Y-56604D01*
X-33542Y-56569D01*
X-33293Y-56465D01*
X-33283Y-56458D01*
X-31834Y-57907D01*
X-31891Y-58045D01*
X-33514D01*
X-35462Y-56097D01*
X-35455Y-56087D01*
X-35351Y-55838D01*
X-35316Y-55570D01*
X-35351Y-55302D01*
X-35455Y-55053D01*
X-35619Y-54839D01*
X-35833Y-54675D01*
X-36082Y-54571D01*
X-36350Y-54536D01*
X-36618Y-54571D01*
X-36867Y-54675D01*
X-37081Y-54839D01*
X-37170Y-54955D01*
X-37320Y-54904D01*
Y-54345D01*
X-37340Y-54247D01*
X-37395Y-54165D01*
X-38002Y-53557D01*
X-37995Y-53547D01*
X-37891Y-53298D01*
X-37856Y-53030D01*
X-37891Y-52762D01*
X-37995Y-52513D01*
X-38159Y-52299D01*
X-38373Y-52135D01*
X-38622Y-52031D01*
X-38890Y-51996D01*
X-39158Y-52031D01*
X-39407Y-52135D01*
X-39621Y-52299D01*
X-39785Y-52513D01*
X-39889Y-52762D01*
X-39924Y-53030D01*
X-39889Y-53298D01*
X-39785Y-53547D01*
X-39621Y-53761D01*
X-39407Y-53925D01*
X-39158Y-54029D01*
X-38890Y-54064D01*
X-38622Y-54029D01*
X-38373Y-53925D01*
X-38363Y-53918D01*
X-37830Y-54451D01*
Y-55059D01*
X-37980Y-55089D01*
X-37995Y-55053D01*
X-38159Y-54839D01*
X-38373Y-54675D01*
X-38622Y-54571D01*
X-38890Y-54536D01*
X-39158Y-54571D01*
X-39407Y-54675D01*
X-39621Y-54839D01*
X-39785Y-55053D01*
X-39889Y-55302D01*
X-39924Y-55570D01*
X-39889Y-55838D01*
X-39785Y-56087D01*
X-39621Y-56301D01*
X-39407Y-56465D01*
X-39158Y-56569D01*
X-38890Y-56604D01*
X-38622Y-56569D01*
X-38373Y-56465D01*
X-38363Y-56458D01*
X-35740Y-59080D01*
X-35658Y-59135D01*
X-35560Y-59155D01*
X-16425D01*
X-16327Y-59135D01*
X-16245Y-59080D01*
X-7544Y-50380D01*
X-5505D01*
X-5407Y-50361D01*
X-5325Y-50305D01*
X-4957Y-49938D01*
X-4947Y-49945D01*
X-4698Y-50049D01*
X-4430Y-50084D01*
X-4162Y-50049D01*
X-3913Y-49945D01*
X-3699Y-49781D01*
X-3535Y-49567D01*
X-3431Y-49318D01*
X-3396Y-49050D01*
X-3431Y-48782D01*
X-3535Y-48533D01*
X-3699Y-48319D01*
X-3913Y-48155D01*
X-4162Y-48051D01*
X-4430Y-48016D01*
X-4698Y-48051D01*
X-4947Y-48155D01*
X-5161Y-48319D01*
X-5325Y-48533D01*
X-5429Y-48782D01*
X-5464Y-49050D01*
X-5429Y-49318D01*
X-5325Y-49567D01*
X-5318Y-49577D01*
X-5611Y-49870D01*
X-6118D01*
X-6192Y-49720D01*
X-6075Y-49567D01*
X-5971Y-49318D01*
X-5936Y-49050D01*
X-5971Y-48782D01*
X-6075Y-48533D01*
X-6239Y-48319D01*
X-6453Y-48155D01*
X-6423Y-48005D01*
X-5670D01*
X-5572Y-47985D01*
X-5490Y-47930D01*
X-4957Y-47398D01*
X-4947Y-47405D01*
X-4698Y-47509D01*
X-4430Y-47544D01*
X-4162Y-47509D01*
X-3913Y-47405D01*
X-3699Y-47241D01*
X-3535Y-47027D01*
X-3431Y-46778D01*
X-3396Y-46510D01*
X-3431Y-46242D01*
X-3535Y-45993D01*
X-3699Y-45779D01*
X-3913Y-45615D01*
X-4162Y-45511D01*
X-4430Y-45476D01*
X-4698Y-45511D01*
X-4947Y-45615D01*
X-5161Y-45779D01*
X-5325Y-45993D01*
X-5429Y-46242D01*
X-5464Y-46510D01*
X-5429Y-46778D01*
X-5325Y-47027D01*
X-5318Y-47037D01*
X-5776Y-47495D01*
X-6324D01*
X-6375Y-47345D01*
X-6239Y-47241D01*
X-6075Y-47027D01*
X-5971Y-46778D01*
X-5936Y-46510D01*
X-5971Y-46242D01*
X-6075Y-45993D01*
X-6239Y-45779D01*
X-6401Y-45655D01*
X-6350Y-45505D01*
X-5710D01*
X-5612Y-45485D01*
X-5530Y-45430D01*
X-4957Y-44858D01*
X-4947Y-44865D01*
X-4698Y-44969D01*
X-4430Y-45004D01*
X-4162Y-44969D01*
X-3913Y-44865D01*
X-3699Y-44701D01*
X-3535Y-44487D01*
X-3431Y-44238D01*
X-3396Y-43970D01*
X-3431Y-43702D01*
X-3535Y-43453D01*
X-3699Y-43239D01*
X-3913Y-43075D01*
X-4162Y-42971D01*
X-4430Y-42936D01*
X-4698Y-42971D01*
X-4947Y-43075D01*
X-5161Y-43239D01*
X-5325Y-43453D01*
X-5429Y-43702D01*
X-5464Y-43970D01*
X-5429Y-44238D01*
X-5325Y-44487D01*
X-5318Y-44497D01*
X-5816Y-44995D01*
X-6387D01*
X-6409Y-44951D01*
X-6427Y-44845D01*
X-6239Y-44701D01*
X-6075Y-44487D01*
X-5971Y-44238D01*
X-5936Y-43970D01*
X-5971Y-43702D01*
X-6075Y-43453D01*
X-6239Y-43239D01*
X-6397Y-43117D01*
X-6346Y-42967D01*
X-5713D01*
X-5615Y-42948D01*
X-5532Y-42893D01*
X-4957Y-42318D01*
X-4947Y-42325D01*
X-4698Y-42429D01*
X-4430Y-42464D01*
X-4162Y-42429D01*
X-3913Y-42325D01*
X-3699Y-42161D01*
X-3535Y-41947D01*
X-3431Y-41698D01*
X-3396Y-41430D01*
X-3431Y-41162D01*
X-3535Y-40913D01*
X-3699Y-40699D01*
X-3913Y-40535D01*
X-4162Y-40431D01*
X-4430Y-40396D01*
D02*
G37*
G36*
X-58575Y-31416D02*
X-58751Y-31451D01*
X-58899Y-31551D01*
X-58999Y-31699D01*
X-59034Y-31875D01*
X-58999Y-32051D01*
X-58899Y-32199D01*
X-58751Y-32299D01*
X-58575Y-32334D01*
X-58399Y-32299D01*
X-58251Y-32199D01*
X-58151Y-32051D01*
X-58116Y-31875D01*
X-58151Y-31699D01*
X-58251Y-31551D01*
X-58399Y-31451D01*
X-58575Y-31416D01*
D02*
G37*
G36*
X-52750Y-32340D02*
X-52926Y-32375D01*
X-53074Y-32474D01*
X-53174Y-32623D01*
X-53209Y-32799D01*
X-53174Y-32974D01*
X-53074Y-33123D01*
X-52926Y-33222D01*
X-52750Y-33257D01*
X-52684Y-33244D01*
X-52214Y-33714D01*
X-52127Y-33772D01*
X-52025Y-33793D01*
X-47287D01*
X-47248Y-33851D01*
X-47099Y-33950D01*
X-46924Y-33985D01*
X-46748Y-33950D01*
X-46599Y-33851D01*
X-46500Y-33702D01*
X-46465Y-33526D01*
X-46500Y-33351D01*
X-46599Y-33202D01*
X-46748Y-33102D01*
X-46924Y-33067D01*
X-47099Y-33102D01*
X-47248Y-33202D01*
X-47285Y-33257D01*
X-51914D01*
X-52305Y-32867D01*
X-52291Y-32799D01*
X-52326Y-32623D01*
X-52426Y-32474D01*
X-52574Y-32375D01*
X-52750Y-32340D01*
D02*
G37*
G36*
X-38175Y-34141D02*
X-38351Y-34176D01*
X-38499Y-34276D01*
X-38599Y-34424D01*
X-38634Y-34600D01*
X-38599Y-34776D01*
X-38499Y-34924D01*
X-38351Y-35024D01*
X-38175Y-35059D01*
X-37999Y-35024D01*
X-37851Y-34924D01*
X-37751Y-34776D01*
X-37716Y-34600D01*
X-37751Y-34424D01*
X-37851Y-34276D01*
X-37999Y-34176D01*
X-38175Y-34141D01*
D02*
G37*
G36*
X-4330Y-27684D02*
Y-28630D01*
X-3384D01*
X-3407Y-28456D01*
X-3513Y-28200D01*
X-3681Y-27981D01*
X-3900Y-27813D01*
X-4156Y-27707D01*
X-4330Y-27684D01*
D02*
G37*
G36*
X-50750Y-13841D02*
X-50926Y-13876D01*
X-51074Y-13976D01*
X-51174Y-14124D01*
X-51209Y-14300D01*
X-51195Y-14367D01*
X-51289Y-14461D01*
X-51347Y-14548D01*
X-51368Y-14650D01*
Y-21964D01*
X-51518Y-22063D01*
X-51625Y-22041D01*
X-51801Y-22076D01*
X-51949Y-22176D01*
X-52049Y-22324D01*
X-52084Y-22500D01*
X-52049Y-22676D01*
X-51949Y-22824D01*
X-51801Y-22924D01*
X-51625Y-22959D01*
X-51518Y-22937D01*
X-51418Y-22962D01*
X-51355Y-23041D01*
X-51347Y-23077D01*
X-51289Y-23164D01*
X-50495Y-23958D01*
X-50509Y-24025D01*
X-50474Y-24201D01*
X-50374Y-24349D01*
X-50226Y-24449D01*
X-50050Y-24484D01*
X-49874Y-24449D01*
X-49726Y-24349D01*
X-49626Y-24201D01*
X-49591Y-24025D01*
X-49626Y-23849D01*
X-49726Y-23701D01*
X-49874Y-23601D01*
X-50050Y-23566D01*
X-50117Y-23580D01*
X-50832Y-22864D01*
Y-14895D01*
X-50750Y-14759D01*
X-50574Y-14724D01*
X-50426Y-14624D01*
X-50326Y-14476D01*
X-50291Y-14300D01*
X-50326Y-14124D01*
X-50426Y-13976D01*
X-50574Y-13876D01*
X-50750Y-13841D01*
D02*
G37*
G36*
X-31853Y-20966D02*
X-32029Y-21001D01*
X-32178Y-21101D01*
X-32277Y-21249D01*
X-32312Y-21425D01*
X-32277Y-21601D01*
X-32178Y-21749D01*
X-32029Y-21849D01*
X-31853Y-21884D01*
X-31678Y-21849D01*
X-31529Y-21749D01*
X-31429Y-21601D01*
X-31394Y-21425D01*
X-31429Y-21249D01*
X-31529Y-21101D01*
X-31678Y-21001D01*
X-31853Y-20966D01*
D02*
G37*
G36*
X-12600Y-24866D02*
X-12776Y-24901D01*
X-12924Y-25001D01*
X-13024Y-25149D01*
X-13059Y-25325D01*
X-13024Y-25501D01*
X-12924Y-25649D01*
X-12776Y-25749D01*
X-12600Y-25784D01*
X-12424Y-25749D01*
X-12276Y-25649D01*
X-12176Y-25501D01*
X-12141Y-25325D01*
X-12176Y-25149D01*
X-12276Y-25001D01*
X-12424Y-24901D01*
X-12600Y-24866D01*
D02*
G37*
G36*
X-5420Y-20482D02*
X-8775D01*
X-8877Y-20503D01*
X-8964Y-20561D01*
X-9439Y-21036D01*
X-9497Y-21123D01*
X-9518Y-21225D01*
Y-24195D01*
X-10089Y-24767D01*
X-10147Y-24853D01*
X-10168Y-24956D01*
Y-29214D01*
X-13683Y-32729D01*
X-13750Y-32716D01*
X-13925Y-32751D01*
X-14074Y-32850D01*
X-14174Y-32999D01*
X-14209Y-33175D01*
X-14195Y-33242D01*
X-16161Y-35207D01*
X-29767D01*
X-29869Y-35228D01*
X-29956Y-35286D01*
X-30939Y-36269D01*
X-30997Y-36356D01*
X-31018Y-36458D01*
Y-39135D01*
X-31168Y-39197D01*
X-31470Y-38895D01*
X-31552Y-38840D01*
X-31650Y-38820D01*
X-31929D01*
X-31976Y-38751D01*
X-32124Y-38651D01*
X-32300Y-38616D01*
X-32476Y-38651D01*
X-32624Y-38751D01*
X-32671Y-38820D01*
X-33447D01*
X-33467Y-38800D01*
Y-38236D01*
X-34417D01*
Y-38236D01*
X-34467D01*
Y-38236D01*
X-35417D01*
Y-38405D01*
X-35682D01*
X-35711Y-38361D01*
X-35860Y-38262D01*
X-36036Y-38227D01*
X-36211Y-38262D01*
X-36360Y-38361D01*
X-36460Y-38510D01*
X-36495Y-38686D01*
X-36460Y-38861D01*
X-36360Y-39010D01*
X-36211Y-39110D01*
X-36036Y-39145D01*
X-35860Y-39110D01*
X-35711Y-39010D01*
X-35682Y-38966D01*
X-35417D01*
Y-39136D01*
X-35417D01*
Y-39186D01*
X-35417D01*
Y-39970D01*
X-35725D01*
X-35823Y-39989D01*
X-35905Y-40045D01*
X-36530Y-40670D01*
X-36585Y-40752D01*
X-36605Y-40850D01*
Y-52030D01*
X-36618Y-52031D01*
X-36867Y-52135D01*
X-37081Y-52299D01*
X-37245Y-52513D01*
X-37349Y-52762D01*
X-37384Y-53030D01*
X-37349Y-53298D01*
X-37245Y-53547D01*
X-37081Y-53761D01*
X-36867Y-53925D01*
X-36618Y-54029D01*
X-36350Y-54064D01*
X-36082Y-54029D01*
X-35833Y-53925D01*
X-35619Y-53761D01*
X-35455Y-53547D01*
X-35351Y-53298D01*
X-35316Y-53030D01*
X-35351Y-52762D01*
X-35455Y-52513D01*
X-35619Y-52299D01*
X-35833Y-52135D01*
X-36082Y-52031D01*
X-36095Y-52030D01*
Y-40956D01*
X-35619Y-40480D01*
X-33398D01*
X-33028Y-40850D01*
X-33091Y-41000D01*
X-33300D01*
Y-41525D01*
X-33500D01*
Y-41000D01*
X-33825D01*
X-33850Y-41000D01*
X-33975Y-40940D01*
Y-40700D01*
X-34500D01*
Y-41300D01*
Y-41900D01*
X-34000D01*
X-33975Y-41900D01*
X-33850Y-41960D01*
Y-42050D01*
X-33825D01*
Y-42432D01*
X-34000D01*
Y-42125D01*
X-35200D01*
Y-43275D01*
X-34000D01*
Y-42968D01*
X-33825D01*
Y-42975D01*
X-32975D01*
Y-42975D01*
X-32849Y-42920D01*
X-32705Y-42984D01*
Y-46597D01*
X-32685Y-46695D01*
X-32630Y-46777D01*
X-29027Y-50380D01*
X-28945Y-50435D01*
X-28847Y-50455D01*
X-17832D01*
X-17735Y-50435D01*
X-17652Y-50380D01*
X-7492Y-40220D01*
X-5505D01*
X-5407Y-40201D01*
X-5325Y-40145D01*
X-4957Y-39778D01*
X-4947Y-39785D01*
X-4698Y-39889D01*
X-4430Y-39924D01*
X-4162Y-39889D01*
X-3913Y-39785D01*
X-3699Y-39621D01*
X-3535Y-39407D01*
X-3431Y-39158D01*
X-3396Y-38890D01*
X-3431Y-38622D01*
X-3535Y-38373D01*
X-3699Y-38159D01*
X-3913Y-37995D01*
X-4162Y-37891D01*
X-4430Y-37856D01*
X-4698Y-37891D01*
X-4947Y-37995D01*
X-5161Y-38159D01*
X-5325Y-38373D01*
X-5429Y-38622D01*
X-5464Y-38890D01*
X-5429Y-39158D01*
X-5325Y-39407D01*
X-5318Y-39417D01*
X-5611Y-39710D01*
X-6118D01*
X-6192Y-39560D01*
X-6075Y-39407D01*
X-5971Y-39158D01*
X-5936Y-38890D01*
X-5971Y-38622D01*
X-6075Y-38373D01*
X-6239Y-38159D01*
X-6453Y-37995D01*
X-6702Y-37891D01*
X-6970Y-37856D01*
X-7238Y-37891D01*
X-7445Y-37977D01*
X-7595Y-37906D01*
Y-37334D01*
X-7445Y-37263D01*
X-7238Y-37349D01*
X-6970Y-37384D01*
X-6702Y-37349D01*
X-6453Y-37245D01*
X-6239Y-37081D01*
X-6075Y-36867D01*
X-5971Y-36618D01*
X-5936Y-36350D01*
X-5971Y-36082D01*
X-6075Y-35833D01*
X-6088Y-35815D01*
X-6022Y-35681D01*
X-5378D01*
X-5312Y-35815D01*
X-5325Y-35833D01*
X-5429Y-36082D01*
X-5464Y-36350D01*
X-5429Y-36618D01*
X-5325Y-36867D01*
X-5161Y-37081D01*
X-4947Y-37245D01*
X-4698Y-37349D01*
X-4430Y-37384D01*
X-4162Y-37349D01*
X-3913Y-37245D01*
X-3699Y-37081D01*
X-3535Y-36867D01*
X-3431Y-36618D01*
X-3396Y-36350D01*
X-3431Y-36082D01*
X-3535Y-35833D01*
X-3564Y-35795D01*
X-3549Y-35682D01*
X-3515Y-35612D01*
X-3460Y-35590D01*
X-3319Y-35481D01*
X-2644Y-34806D01*
X-2535Y-34665D01*
X-2467Y-34501D01*
X-2444Y-34325D01*
Y-32575D01*
X-2467Y-32399D01*
X-2535Y-32235D01*
X-2644Y-32094D01*
X-3038Y-31699D01*
X-3017Y-31649D01*
X-2967Y-31270D01*
X-3017Y-30891D01*
X-3163Y-30539D01*
X-3396Y-30236D01*
X-3699Y-30003D01*
X-4034Y-29865D01*
X-4049Y-29807D01*
X-4045Y-29707D01*
X-3900Y-29647D01*
X-3681Y-29479D01*
X-3513Y-29260D01*
X-3407Y-29004D01*
X-3384Y-28830D01*
X-4430D01*
X-5476D01*
X-5453Y-29004D01*
X-5347Y-29260D01*
X-5179Y-29479D01*
X-4960Y-29647D01*
X-4815Y-29707D01*
X-4811Y-29807D01*
X-4826Y-29865D01*
X-5161Y-30003D01*
X-5464Y-30236D01*
X-5605Y-30420D01*
X-5795D01*
X-5936Y-30236D01*
X-6239Y-30003D01*
X-6476Y-29905D01*
X-6447Y-29755D01*
X-5945D01*
Y-27705D01*
X-7995D01*
Y-29755D01*
X-7493D01*
X-7464Y-29905D01*
X-7701Y-30003D01*
X-8004Y-30236D01*
X-8237Y-30539D01*
X-8383Y-30891D01*
X-8433Y-31270D01*
X-8383Y-31649D01*
X-8237Y-32001D01*
X-8018Y-32286D01*
X-8019Y-32357D01*
X-8020Y-32357D01*
X-8049Y-32458D01*
X-8104Y-32495D01*
X-9880Y-34271D01*
X-9935Y-34354D01*
X-9955Y-34451D01*
Y-39044D01*
X-18875Y-47964D01*
X-25428D01*
X-26060Y-47332D01*
X-26044Y-47250D01*
X-26079Y-47074D01*
X-26178Y-46926D01*
X-26327Y-46826D01*
X-26503Y-46791D01*
X-26585Y-46807D01*
X-28495Y-44897D01*
Y-44259D01*
X-28467Y-44217D01*
X-28444Y-44100D01*
Y-43700D01*
X-28410Y-43590D01*
X-28300Y-43556D01*
X-27900D01*
X-27783Y-43533D01*
X-27761Y-43518D01*
X-26525D01*
Y-43922D01*
X-26500Y-43925D01*
Y-44775D01*
X-26500Y-44875D01*
X-26500Y-45025D01*
Y-45875D01*
X-25935D01*
X-25180Y-46630D01*
X-25098Y-46685D01*
X-25000Y-46705D01*
X-18360D01*
X-18262Y-46685D01*
X-18180Y-46630D01*
X-11836Y-40287D01*
X-11775Y-40299D01*
X-11599Y-40264D01*
X-11451Y-40164D01*
X-11351Y-40016D01*
X-11316Y-39840D01*
X-11351Y-39664D01*
X-11451Y-39516D01*
X-11599Y-39416D01*
X-11775Y-39381D01*
X-11951Y-39416D01*
X-12099Y-39516D01*
X-12199Y-39664D01*
X-12234Y-39840D01*
X-12213Y-39943D01*
X-18466Y-46195D01*
X-24894D01*
X-25600Y-45490D01*
Y-45025D01*
X-25600Y-44925D01*
X-25600Y-44775D01*
Y-44041D01*
X-25538Y-43943D01*
X-25393Y-43966D01*
X-25330Y-44028D01*
Y-45097D01*
X-25309Y-45204D01*
X-25248Y-45295D01*
X-24873Y-45670D01*
X-24782Y-45731D01*
X-24675Y-45752D01*
X-24520D01*
Y-45947D01*
X-23670D01*
X-23595Y-46025D01*
Y-46025D01*
X-21695D01*
Y-44675D01*
X-23595D01*
X-23625Y-44597D01*
X-24095D01*
Y-44397D01*
X-23645D01*
Y-43554D01*
X-23595Y-43425D01*
X-21695D01*
Y-42075D01*
X-21695D01*
X-21695Y-42074D01*
X-21720Y-41935D01*
X-21720Y-40262D01*
X-24770D01*
Y-40450D01*
X-24770D01*
Y-41750D01*
X-24770D01*
Y-41925D01*
X-24800Y-42075D01*
X-25425D01*
X-25525Y-42075D01*
X-25600Y-41956D01*
Y-41125D01*
X-25600D01*
Y-41075D01*
X-25600D01*
Y-40510D01*
X-25069Y-39980D01*
X-13271D01*
X-13224Y-40049D01*
X-13076Y-40149D01*
X-12900Y-40184D01*
X-12724Y-40149D01*
X-12576Y-40049D01*
X-12476Y-39901D01*
X-12441Y-39725D01*
X-12476Y-39549D01*
X-12576Y-39401D01*
X-12696Y-39320D01*
X-12744Y-39156D01*
X-10882Y-37294D01*
X-10800Y-37311D01*
X-10624Y-37276D01*
X-10476Y-37176D01*
X-10376Y-37027D01*
X-10341Y-36852D01*
X-10376Y-36676D01*
X-10476Y-36527D01*
X-10624Y-36428D01*
X-10800Y-36393D01*
X-10906Y-36278D01*
X-10926Y-36174D01*
X-11026Y-36026D01*
X-11174Y-35926D01*
X-11350Y-35891D01*
X-11526Y-35926D01*
X-11674Y-36026D01*
X-11774Y-36174D01*
X-11809Y-36350D01*
X-11792Y-36432D01*
X-14231Y-38870D01*
X-19308D01*
X-19402Y-38749D01*
X-19373Y-38596D01*
X-19281Y-38534D01*
X-19229Y-38524D01*
X-19081Y-38424D01*
X-18981Y-38276D01*
X-18946Y-38100D01*
X-18970Y-37980D01*
X-18878Y-37830D01*
X-18646D01*
X-18599Y-37899D01*
X-18451Y-37999D01*
X-18275Y-38034D01*
X-18099Y-37999D01*
X-17951Y-37899D01*
X-17851Y-37751D01*
X-17831Y-37648D01*
X-17751Y-37511D01*
X-17575Y-37476D01*
X-17426Y-37376D01*
X-17327Y-37227D01*
X-17292Y-37052D01*
X-17314Y-36943D01*
X-17216Y-36793D01*
X-15225D01*
X-15123Y-36772D01*
X-15036Y-36714D01*
X-9061Y-30739D01*
X-9003Y-30652D01*
X-8982Y-30550D01*
Y-25336D01*
X-8314Y-24668D01*
X-5820D01*
X-5718Y-24647D01*
X-5631Y-24589D01*
X-4698Y-23657D01*
X-4613Y-23692D01*
X-4430Y-23716D01*
X-4247Y-23692D01*
X-4077Y-23621D01*
X-3931Y-23509D01*
X-3905Y-23476D01*
X-3716Y-23476D01*
X-3677Y-23527D01*
X-3526Y-23643D01*
X-3349Y-23716D01*
X-3260Y-23728D01*
Y-23010D01*
X-3160D01*
Y-22910D01*
X-2442D01*
X-2454Y-22821D01*
X-2527Y-22644D01*
X-2643Y-22493D01*
X-2694Y-22454D01*
X-2694Y-22265D01*
X-2661Y-22239D01*
X-2549Y-22093D01*
X-2478Y-21923D01*
X-2454Y-21740D01*
X-2478Y-21557D01*
X-2549Y-21387D01*
X-2661Y-21241D01*
X-2807Y-21129D01*
X-2977Y-21058D01*
X-3160Y-21034D01*
X-3343Y-21058D01*
X-3513Y-21129D01*
X-3659Y-21241D01*
X-3700Y-21294D01*
X-3890D01*
X-3931Y-21241D01*
X-4077Y-21129D01*
X-4247Y-21058D01*
X-4430Y-21034D01*
X-4613Y-21058D01*
X-4698Y-21093D01*
X-5231Y-20561D01*
X-5318Y-20503D01*
X-5420Y-20482D01*
D02*
G37*
G36*
X-2442Y-23110D02*
X-3060D01*
Y-23728D01*
X-2971Y-23716D01*
X-2794Y-23643D01*
X-2643Y-23527D01*
X-2527Y-23376D01*
X-2454Y-23199D01*
X-2442Y-23110D01*
D02*
G37*
G36*
X-31025Y-16716D02*
X-31201Y-16751D01*
X-31349Y-16851D01*
X-31449Y-16999D01*
X-31484Y-17175D01*
X-31449Y-17351D01*
X-31349Y-17499D01*
X-31293Y-17537D01*
Y-18430D01*
X-36796Y-23933D01*
X-36876Y-23926D01*
X-37024Y-23826D01*
X-37200Y-23791D01*
X-37376Y-23826D01*
X-37524Y-23926D01*
X-37624Y-24074D01*
X-37659Y-24250D01*
X-37624Y-24426D01*
X-37524Y-24574D01*
X-37376Y-24674D01*
X-37200Y-24709D01*
X-37024Y-24674D01*
X-36876Y-24574D01*
X-36838Y-24518D01*
X-36735D01*
X-36632Y-24497D01*
X-36545Y-24439D01*
X-36489Y-24383D01*
X-36430Y-24401D01*
X-36337Y-24443D01*
X-36249Y-24574D01*
X-36101Y-24674D01*
X-35925Y-24709D01*
X-35749Y-24674D01*
X-35601Y-24574D01*
X-35501Y-24426D01*
X-35466Y-24250D01*
X-35501Y-24074D01*
X-35589Y-23943D01*
X-30311Y-18664D01*
X-30253Y-18577D01*
X-30232Y-18475D01*
Y-18162D01*
X-30176Y-18124D01*
X-30076Y-17976D01*
X-30041Y-17800D01*
X-30076Y-17624D01*
X-30176Y-17476D01*
X-30324Y-17376D01*
X-30460Y-17349D01*
X-30500Y-17341D01*
X-30572Y-17202D01*
X-30566Y-17175D01*
X-30601Y-16999D01*
X-30701Y-16851D01*
X-30849Y-16751D01*
X-31025Y-16716D01*
D02*
G37*
G36*
X-1250Y-12341D02*
X-1426Y-12376D01*
X-1574Y-12476D01*
X-1674Y-12624D01*
X-1709Y-12800D01*
X-1674Y-12976D01*
X-1574Y-13124D01*
X-1518Y-13162D01*
Y-16239D01*
X-3561Y-18282D01*
X-11179D01*
X-11281Y-18303D01*
X-11368Y-18361D01*
X-15202Y-22195D01*
X-15260Y-22282D01*
X-15280Y-22384D01*
Y-26277D01*
X-16486Y-27482D01*
X-21714D01*
X-22605Y-26592D01*
X-22591Y-26525D01*
X-22626Y-26349D01*
X-22726Y-26201D01*
X-22874Y-26101D01*
X-23050Y-26066D01*
X-23226Y-26101D01*
X-23374Y-26201D01*
X-23474Y-26349D01*
X-23509Y-26525D01*
X-23474Y-26701D01*
X-23374Y-26849D01*
X-23226Y-26949D01*
X-23050Y-26984D01*
X-22983Y-26970D01*
X-22014Y-27939D01*
X-21927Y-27997D01*
X-21825Y-28018D01*
X-16375D01*
X-16273Y-27997D01*
X-16186Y-27939D01*
X-14823Y-26577D01*
X-14765Y-26490D01*
X-14745Y-26388D01*
Y-22495D01*
X-11068Y-18818D01*
X-3450D01*
X-3348Y-18797D01*
X-3261Y-18739D01*
X-1061Y-16539D01*
X-1003Y-16452D01*
X-982Y-16350D01*
Y-13162D01*
X-926Y-13124D01*
X-826Y-12976D01*
X-791Y-12800D01*
X-826Y-12624D01*
X-926Y-12476D01*
X-1074Y-12376D01*
X-1250Y-12341D01*
D02*
G37*
G36*
X-40751Y-18815D02*
X-42801D01*
Y-20865D01*
X-40751D01*
Y-18815D01*
D02*
G37*
G36*
X-37825Y-27016D02*
X-38001Y-27051D01*
X-38149Y-27151D01*
X-38249Y-27299D01*
X-38284Y-27475D01*
X-38249Y-27651D01*
X-38149Y-27799D01*
X-38001Y-27899D01*
X-37825Y-27934D01*
X-37649Y-27899D01*
X-37501Y-27799D01*
X-37401Y-27651D01*
X-37366Y-27475D01*
X-37401Y-27299D01*
X-37501Y-27151D01*
X-37649Y-27051D01*
X-37825Y-27016D01*
D02*
G37*
G36*
X-42800Y-26216D02*
X-42976Y-26251D01*
X-43124Y-26351D01*
X-43175Y-26426D01*
X-43350D01*
X-43401Y-26351D01*
X-43549Y-26251D01*
X-43725Y-26216D01*
X-43901Y-26251D01*
X-44049Y-26351D01*
X-44149Y-26499D01*
X-44184Y-26675D01*
X-44170Y-26742D01*
X-46089Y-28661D01*
X-46147Y-28748D01*
X-46168Y-28850D01*
Y-33950D01*
X-46147Y-34052D01*
X-46089Y-34139D01*
X-42845Y-37384D01*
X-42858Y-37451D01*
X-42823Y-37626D01*
X-42724Y-37775D01*
X-42575Y-37874D01*
X-42399Y-37909D01*
X-42224Y-37874D01*
X-42075Y-37775D01*
X-41976Y-37626D01*
X-41941Y-37451D01*
X-41976Y-37275D01*
X-42075Y-37126D01*
X-42224Y-37027D01*
X-42399Y-36992D01*
X-42466Y-37005D01*
X-45632Y-33839D01*
Y-28961D01*
X-43792Y-27120D01*
X-43725Y-27134D01*
X-43549Y-27099D01*
X-43401Y-26999D01*
X-43350Y-26924D01*
X-43175D01*
X-43124Y-26999D01*
X-42976Y-27099D01*
X-42800Y-27134D01*
X-42624Y-27099D01*
X-42476Y-26999D01*
X-42376Y-26851D01*
X-42341Y-26675D01*
X-42376Y-26499D01*
X-42476Y-26351D01*
X-42624Y-26251D01*
X-42800Y-26216D01*
D02*
G37*
G36*
X-39700D02*
X-39876Y-26251D01*
X-40024Y-26351D01*
X-40062Y-26407D01*
X-41425D01*
X-41527Y-26428D01*
X-41614Y-26486D01*
X-45089Y-29961D01*
X-45147Y-30048D01*
X-45168Y-30150D01*
Y-33474D01*
X-45147Y-33576D01*
X-45089Y-33663D01*
X-44969Y-33783D01*
X-44983Y-33850D01*
X-44948Y-34026D01*
X-44848Y-34174D01*
X-44699Y-34274D01*
X-44524Y-34309D01*
X-44348Y-34274D01*
X-44199Y-34174D01*
X-44100Y-34026D01*
X-44090Y-33978D01*
X-43976Y-33874D01*
X-43800Y-33909D01*
X-43624Y-33874D01*
X-43476Y-33774D01*
X-43376Y-33626D01*
X-43341Y-33450D01*
X-43357Y-33368D01*
X-43219Y-33230D01*
X-35417D01*
X-35370Y-33337D01*
X-35366Y-33380D01*
X-36869Y-34882D01*
X-36951Y-34866D01*
X-37126Y-34901D01*
X-37275Y-35001D01*
X-37375Y-35149D01*
X-37409Y-35325D01*
X-37375Y-35501D01*
X-37275Y-35649D01*
X-37126Y-35749D01*
X-36951Y-35784D01*
X-36862Y-35919D01*
X-36849Y-35984D01*
X-36749Y-36132D01*
X-36601Y-36232D01*
X-36425Y-36267D01*
X-36249Y-36232D01*
X-36101Y-36132D01*
X-36001Y-35984D01*
X-35966Y-35808D01*
X-35983Y-35726D01*
X-34561Y-34305D01*
X-32611D01*
X-32554Y-34443D01*
X-33720Y-35609D01*
X-33802Y-35593D01*
X-33977Y-35628D01*
X-34126Y-35727D01*
X-34226Y-35876D01*
X-34260Y-36052D01*
X-34226Y-36227D01*
X-34126Y-36376D01*
X-34099Y-36394D01*
Y-36471D01*
X-34199Y-36620D01*
X-34234Y-36796D01*
X-34199Y-36971D01*
X-34099Y-37120D01*
X-33951Y-37220D01*
X-33775Y-37255D01*
X-33599Y-37220D01*
X-33451Y-37120D01*
X-33351Y-36971D01*
X-33316Y-36796D01*
X-33333Y-36714D01*
X-31549Y-34930D01*
X-19675D01*
X-19577Y-34910D01*
X-19494Y-34855D01*
X-17732Y-33093D01*
X-17650Y-33109D01*
X-17474Y-33074D01*
X-17326Y-32975D01*
X-17226Y-32826D01*
X-17191Y-32650D01*
X-17226Y-32475D01*
X-17326Y-32326D01*
X-17474Y-32226D01*
X-17650Y-32191D01*
X-17826Y-32226D01*
X-17974Y-32326D01*
X-18074Y-32475D01*
X-18109Y-32650D01*
X-18093Y-32732D01*
X-19780Y-34420D01*
X-20163D01*
X-20221Y-34282D01*
X-19032Y-33093D01*
X-18950Y-33109D01*
X-18774Y-33074D01*
X-18626Y-32975D01*
X-18526Y-32826D01*
X-18491Y-32650D01*
X-18526Y-32475D01*
X-18626Y-32326D01*
X-18774Y-32226D01*
X-18950Y-32191D01*
X-19126Y-32226D01*
X-19274Y-32326D01*
X-19374Y-32475D01*
X-19409Y-32650D01*
X-19392Y-32732D01*
X-20780Y-34120D01*
X-23283D01*
X-23316Y-33981D01*
X-23314Y-33970D01*
X-23171Y-33874D01*
X-23071Y-33726D01*
X-23036Y-33550D01*
X-23070Y-33380D01*
X-23073Y-33353D01*
X-22993Y-33230D01*
X-21800D01*
X-21702Y-33210D01*
X-21620Y-33155D01*
X-21532Y-33068D01*
X-21450Y-33084D01*
X-21274Y-33049D01*
X-21126Y-32949D01*
X-21026Y-32801D01*
X-20991Y-32625D01*
X-21026Y-32449D01*
X-21126Y-32301D01*
X-21269Y-32205D01*
X-21271Y-32194D01*
X-21237Y-32055D01*
X-20821D01*
X-20774Y-32124D01*
X-20626Y-32224D01*
X-20450Y-32259D01*
X-20274Y-32224D01*
X-20126Y-32124D01*
X-20026Y-31976D01*
X-19991Y-31800D01*
X-20026Y-31624D01*
X-20126Y-31476D01*
X-20274Y-31376D01*
X-20450Y-31341D01*
X-20626Y-31376D01*
X-20774Y-31476D01*
X-20821Y-31545D01*
X-21700D01*
X-21798Y-31565D01*
X-21880Y-31620D01*
X-21959Y-31698D01*
X-22121Y-31649D01*
X-22126Y-31624D01*
X-22226Y-31476D01*
X-22374Y-31376D01*
X-22550Y-31341D01*
X-22726Y-31376D01*
X-22874Y-31476D01*
X-22974Y-31624D01*
X-23009Y-31800D01*
X-22993Y-31882D01*
X-23231Y-32120D01*
X-23782D01*
X-23862Y-31997D01*
X-23859Y-31970D01*
X-23825Y-31800D01*
X-23860Y-31624D01*
X-23960Y-31476D01*
X-24109Y-31376D01*
X-24284Y-31341D01*
X-24460Y-31376D01*
X-24609Y-31476D01*
X-24663Y-31557D01*
X-39689D01*
X-40455Y-30792D01*
X-40441Y-30725D01*
X-40476Y-30549D01*
X-40576Y-30401D01*
X-40724Y-30301D01*
X-40900Y-30266D01*
X-41076Y-30301D01*
X-41224Y-30401D01*
X-41324Y-30549D01*
X-41359Y-30725D01*
X-41324Y-30901D01*
X-41224Y-31049D01*
X-41076Y-31149D01*
X-40900Y-31184D01*
X-40833Y-31170D01*
X-40033Y-31970D01*
X-40096Y-32120D01*
X-43169D01*
X-43357Y-31932D01*
X-43341Y-31850D01*
X-43376Y-31674D01*
X-43476Y-31526D01*
X-43624Y-31426D01*
X-43800Y-31391D01*
X-43976Y-31426D01*
X-44124Y-31526D01*
X-44224Y-31674D01*
X-44259Y-31850D01*
X-44224Y-32026D01*
X-44138Y-32154D01*
X-44124Y-32220D01*
Y-32280D01*
X-44138Y-32346D01*
X-44224Y-32474D01*
X-44259Y-32650D01*
X-44224Y-32826D01*
X-44138Y-32954D01*
X-44124Y-33020D01*
Y-33080D01*
X-44138Y-33146D01*
X-44224Y-33274D01*
X-44233Y-33322D01*
X-44348Y-33426D01*
X-44524Y-33391D01*
X-44632Y-33266D01*
Y-30261D01*
X-41314Y-26943D01*
X-40062D01*
X-40024Y-26999D01*
X-39876Y-27099D01*
X-39700Y-27134D01*
X-39524Y-27099D01*
X-39376Y-26999D01*
X-39276Y-26851D01*
X-39241Y-26675D01*
X-39276Y-26499D01*
X-39376Y-26351D01*
X-39524Y-26251D01*
X-39700Y-26216D01*
D02*
G37*
G36*
X-49925D02*
X-50101Y-26251D01*
X-50249Y-26351D01*
X-50349Y-26499D01*
X-50384Y-26675D01*
X-50349Y-26851D01*
X-50249Y-26999D01*
X-50101Y-27099D01*
X-49925Y-27134D01*
X-49749Y-27099D01*
X-49601Y-26999D01*
X-49501Y-26851D01*
X-49466Y-26675D01*
X-49501Y-26499D01*
X-49601Y-26351D01*
X-49749Y-26251D01*
X-49925Y-26216D01*
D02*
G37*
G36*
X-18470Y-54524D02*
Y-55470D01*
X-17524D01*
X-17547Y-55296D01*
X-17653Y-55040D01*
X-17821Y-54821D01*
X-18040Y-54653D01*
X-18296Y-54547D01*
X-18470Y-54524D01*
D02*
G37*
G36*
X-18670D02*
X-18844Y-54547D01*
X-19100Y-54653D01*
X-19319Y-54821D01*
X-19487Y-55040D01*
X-19593Y-55296D01*
X-19616Y-55470D01*
X-18670D01*
Y-54524D01*
D02*
G37*
G36*
X-50500Y-47092D02*
X-50728Y-47123D01*
X-50941Y-47211D01*
X-50960Y-47225D01*
X-58250Y-47225D01*
X-58250Y-55725D01*
X-49750Y-55725D01*
X-49750Y-48435D01*
X-49736Y-48416D01*
X-49648Y-48203D01*
X-49617Y-47975D01*
X-49648Y-47747D01*
X-49736Y-47534D01*
X-49750Y-47515D01*
Y-47225D01*
X-50040D01*
X-50059Y-47211D01*
X-50272Y-47123D01*
X-50500Y-47092D01*
D02*
G37*
G36*
X-28730Y-51996D02*
X-28998Y-52031D01*
X-29247Y-52135D01*
X-29461Y-52299D01*
X-29625Y-52513D01*
X-29729Y-52762D01*
X-29764Y-53030D01*
X-29729Y-53298D01*
X-29625Y-53547D01*
X-29461Y-53761D01*
X-29247Y-53925D01*
X-28998Y-54029D01*
X-28730Y-54064D01*
X-28462Y-54029D01*
X-28213Y-53925D01*
X-27999Y-53761D01*
X-27835Y-53547D01*
X-27731Y-53298D01*
X-27696Y-53030D01*
X-27731Y-52762D01*
X-27835Y-52513D01*
X-27999Y-52299D01*
X-28213Y-52135D01*
X-28462Y-52031D01*
X-28730Y-51996D01*
D02*
G37*
G36*
X-40384Y-53130D02*
X-41330D01*
Y-54076D01*
X-41156Y-54053D01*
X-40900Y-53947D01*
X-40681Y-53779D01*
X-40513Y-53560D01*
X-40407Y-53304D01*
X-40384Y-53130D01*
D02*
G37*
G36*
X-41530D02*
X-42476D01*
X-42453Y-53304D01*
X-42347Y-53560D01*
X-42179Y-53779D01*
X-41960Y-53947D01*
X-41704Y-54053D01*
X-41530Y-54076D01*
Y-53130D01*
D02*
G37*
G36*
X-41430Y-54536D02*
X-41698Y-54571D01*
X-41947Y-54675D01*
X-42161Y-54839D01*
X-42325Y-55053D01*
X-42429Y-55302D01*
X-42464Y-55570D01*
X-42429Y-55838D01*
X-42325Y-56087D01*
X-42161Y-56301D01*
X-41947Y-56465D01*
X-41698Y-56569D01*
X-41430Y-56604D01*
X-41162Y-56569D01*
X-40913Y-56465D01*
X-40699Y-56301D01*
X-40535Y-56087D01*
X-40431Y-55838D01*
X-40396Y-55570D01*
X-40431Y-55302D01*
X-40535Y-55053D01*
X-40699Y-54839D01*
X-40913Y-54675D01*
X-41162Y-54571D01*
X-41430Y-54536D01*
D02*
G37*
G36*
X-17524Y-55670D02*
X-18470D01*
Y-56616D01*
X-18296Y-56593D01*
X-18040Y-56487D01*
X-17821Y-56319D01*
X-17653Y-56100D01*
X-17547Y-55844D01*
X-17524Y-55670D01*
D02*
G37*
G36*
X-18670D02*
X-19616D01*
X-19593Y-55844D01*
X-19487Y-56100D01*
X-19319Y-56319D01*
X-19100Y-56487D01*
X-18844Y-56593D01*
X-18670Y-56616D01*
Y-55670D01*
D02*
G37*
G36*
X-21110Y-54536D02*
X-21378Y-54571D01*
X-21627Y-54675D01*
X-21841Y-54839D01*
X-22005Y-55053D01*
X-22109Y-55302D01*
X-22144Y-55570D01*
X-22109Y-55838D01*
X-22005Y-56087D01*
X-21841Y-56301D01*
X-21627Y-56465D01*
X-21378Y-56569D01*
X-21110Y-56604D01*
X-20842Y-56569D01*
X-20593Y-56465D01*
X-20379Y-56301D01*
X-20215Y-56087D01*
X-20111Y-55838D01*
X-20076Y-55570D01*
X-20111Y-55302D01*
X-20215Y-55053D01*
X-20379Y-54839D01*
X-20593Y-54675D01*
X-20842Y-54571D01*
X-21110Y-54536D01*
D02*
G37*
G36*
X-23650D02*
X-23918Y-54571D01*
X-24167Y-54675D01*
X-24381Y-54839D01*
X-24545Y-55053D01*
X-24649Y-55302D01*
X-24684Y-55570D01*
X-24649Y-55838D01*
X-24545Y-56087D01*
X-24381Y-56301D01*
X-24167Y-56465D01*
X-23918Y-56569D01*
X-23650Y-56604D01*
X-23382Y-56569D01*
X-23133Y-56465D01*
X-22919Y-56301D01*
X-22755Y-56087D01*
X-22651Y-55838D01*
X-22616Y-55570D01*
X-22651Y-55302D01*
X-22755Y-55053D01*
X-22919Y-54839D01*
X-23133Y-54675D01*
X-23382Y-54571D01*
X-23650Y-54536D01*
D02*
G37*
G36*
X-26190D02*
X-26458Y-54571D01*
X-26707Y-54675D01*
X-26921Y-54839D01*
X-27085Y-55053D01*
X-27189Y-55302D01*
X-27224Y-55570D01*
X-27189Y-55838D01*
X-27085Y-56087D01*
X-26921Y-56301D01*
X-26707Y-56465D01*
X-26458Y-56569D01*
X-26190Y-56604D01*
X-25922Y-56569D01*
X-25673Y-56465D01*
X-25459Y-56301D01*
X-25295Y-56087D01*
X-25191Y-55838D01*
X-25156Y-55570D01*
X-25191Y-55302D01*
X-25295Y-55053D01*
X-25459Y-54839D01*
X-25673Y-54675D01*
X-25922Y-54571D01*
X-26190Y-54536D01*
D02*
G37*
G36*
X-4430Y-50556D02*
X-4698Y-50591D01*
X-4947Y-50695D01*
X-5161Y-50859D01*
X-5325Y-51073D01*
X-5429Y-51322D01*
X-5464Y-51590D01*
X-5429Y-51858D01*
X-5325Y-52107D01*
X-5161Y-52321D01*
X-4947Y-52485D01*
X-4698Y-52589D01*
X-4430Y-52624D01*
X-4162Y-52589D01*
X-3913Y-52485D01*
X-3699Y-52321D01*
X-3535Y-52107D01*
X-3431Y-51858D01*
X-3396Y-51590D01*
X-3431Y-51322D01*
X-3535Y-51073D01*
X-3699Y-50859D01*
X-3913Y-50695D01*
X-4162Y-50591D01*
X-4430Y-50556D01*
D02*
G37*
G36*
X-7070Y-51690D02*
X-8016D01*
X-7993Y-51864D01*
X-7887Y-52120D01*
X-7719Y-52339D01*
X-7500Y-52507D01*
X-7244Y-52613D01*
X-7070Y-52636D01*
Y-51690D01*
D02*
G37*
G36*
X-5924D02*
X-6870D01*
Y-52636D01*
X-6696Y-52613D01*
X-6440Y-52507D01*
X-6221Y-52339D01*
X-6053Y-52120D01*
X-5947Y-51864D01*
X-5924Y-51690D01*
D02*
G37*
G36*
X-49770Y-35106D02*
X-58270Y-35106D01*
X-58270Y-43606D01*
X-50980Y-43606D01*
X-50961Y-43621D01*
X-50748Y-43709D01*
X-50520Y-43739D01*
X-50292Y-43709D01*
X-50079Y-43621D01*
X-50060Y-43606D01*
X-49770D01*
Y-43316D01*
X-49756Y-43298D01*
X-49667Y-43085D01*
X-49637Y-42856D01*
X-49667Y-42628D01*
X-49756Y-42415D01*
X-49770Y-42397D01*
X-49770Y-35106D01*
D02*
G37*
G36*
X-6870Y-50544D02*
Y-51490D01*
X-5924D01*
X-5947Y-51316D01*
X-6053Y-51060D01*
X-6221Y-50841D01*
X-6440Y-50673D01*
X-6696Y-50567D01*
X-6870Y-50544D01*
D02*
G37*
G36*
X-7070D02*
X-7244Y-50567D01*
X-7500Y-50673D01*
X-7719Y-50841D01*
X-7887Y-51060D01*
X-7993Y-51316D01*
X-8016Y-51490D01*
X-7070D01*
Y-50544D01*
D02*
G37*
G36*
X-21110Y-51996D02*
X-21378Y-52031D01*
X-21627Y-52135D01*
X-21841Y-52299D01*
X-22005Y-52513D01*
X-22109Y-52762D01*
X-22144Y-53030D01*
X-22109Y-53298D01*
X-22005Y-53547D01*
X-21841Y-53761D01*
X-21627Y-53925D01*
X-21378Y-54029D01*
X-21110Y-54064D01*
X-20842Y-54029D01*
X-20593Y-53925D01*
X-20379Y-53761D01*
X-20215Y-53547D01*
X-20111Y-53298D01*
X-20076Y-53030D01*
X-20111Y-52762D01*
X-20215Y-52513D01*
X-20379Y-52299D01*
X-20593Y-52135D01*
X-20842Y-52031D01*
X-21110Y-51996D01*
D02*
G37*
G36*
X-23650D02*
X-23918Y-52031D01*
X-24167Y-52135D01*
X-24381Y-52299D01*
X-24545Y-52513D01*
X-24649Y-52762D01*
X-24684Y-53030D01*
X-24649Y-53298D01*
X-24545Y-53547D01*
X-24381Y-53761D01*
X-24167Y-53925D01*
X-23918Y-54029D01*
X-23650Y-54064D01*
X-23382Y-54029D01*
X-23133Y-53925D01*
X-22919Y-53761D01*
X-22755Y-53547D01*
X-22651Y-53298D01*
X-22616Y-53030D01*
X-22651Y-52762D01*
X-22755Y-52513D01*
X-22919Y-52299D01*
X-23133Y-52135D01*
X-23382Y-52031D01*
X-23650Y-51996D01*
D02*
G37*
G36*
X-26190D02*
X-26458Y-52031D01*
X-26707Y-52135D01*
X-26921Y-52299D01*
X-27085Y-52513D01*
X-27189Y-52762D01*
X-27224Y-53030D01*
X-27189Y-53298D01*
X-27085Y-53547D01*
X-26921Y-53761D01*
X-26707Y-53925D01*
X-26458Y-54029D01*
X-26190Y-54064D01*
X-25922Y-54029D01*
X-25673Y-53925D01*
X-25459Y-53761D01*
X-25295Y-53547D01*
X-25191Y-53298D01*
X-25156Y-53030D01*
X-25191Y-52762D01*
X-25295Y-52513D01*
X-25459Y-52299D01*
X-25673Y-52135D01*
X-25922Y-52031D01*
X-26190Y-51996D01*
D02*
G37*
G36*
X-41330Y-51984D02*
Y-52930D01*
X-40384D01*
X-40407Y-52756D01*
X-40513Y-52500D01*
X-40681Y-52281D01*
X-40900Y-52113D01*
X-41156Y-52007D01*
X-41330Y-51984D01*
D02*
G37*
G36*
X-41530D02*
X-41704Y-52007D01*
X-41960Y-52113D01*
X-42179Y-52281D01*
X-42347Y-52500D01*
X-42453Y-52756D01*
X-42476Y-52930D01*
X-41530D01*
Y-51984D01*
D02*
G37*
G36*
X-17545Y-52005D02*
X-19595D01*
Y-54055D01*
X-17545D01*
Y-52005D01*
D02*
G37*
G36*
X-44200Y-19766D02*
X-44376Y-19801D01*
X-44524Y-19901D01*
X-44624Y-20049D01*
X-44659Y-20225D01*
X-44645Y-20292D01*
X-49114Y-24761D01*
X-49172Y-24848D01*
X-49193Y-24950D01*
Y-29988D01*
X-49249Y-30026D01*
X-49349Y-30174D01*
X-49384Y-30350D01*
X-49349Y-30526D01*
X-49249Y-30674D01*
X-49101Y-30774D01*
X-48925Y-30809D01*
X-48749Y-30774D01*
X-48601Y-30674D01*
X-48501Y-30526D01*
X-48466Y-30350D01*
X-48501Y-30174D01*
X-48601Y-30026D01*
X-48657Y-29988D01*
Y-25061D01*
X-44267Y-20670D01*
X-44200Y-20684D01*
X-44024Y-20649D01*
X-43876Y-20549D01*
X-43776Y-20401D01*
X-43741Y-20225D01*
X-43776Y-20049D01*
X-43876Y-19901D01*
X-44024Y-19801D01*
X-44200Y-19766D01*
D02*
G37*
G36*
X-11275Y-5975D02*
X-11700D01*
Y-6325D01*
X-11275D01*
Y-5975D01*
D02*
G37*
G36*
Y-6525D02*
X-11700D01*
Y-6875D01*
X-11275D01*
Y-6525D01*
D02*
G37*
G36*
X-18900Y-7125D02*
X-19325D01*
Y-7475D01*
X-18900D01*
Y-7125D01*
D02*
G37*
G36*
X-32975Y-5016D02*
X-33151Y-5051D01*
X-33299Y-5151D01*
X-33304Y-5158D01*
X-33401D01*
X-33549Y-5059D01*
X-33725Y-5024D01*
X-33901Y-5059D01*
X-34049Y-5158D01*
X-34149Y-5307D01*
X-34184Y-5483D01*
X-34149Y-5658D01*
X-34049Y-5807D01*
X-33901Y-5906D01*
X-33725Y-5941D01*
X-33549Y-5906D01*
X-33401Y-5807D01*
X-33396Y-5799D01*
X-33299D01*
X-33151Y-5899D01*
X-32975Y-5934D01*
X-32799Y-5899D01*
X-32651Y-5799D01*
X-32551Y-5651D01*
X-32516Y-5475D01*
X-32551Y-5299D01*
X-32651Y-5151D01*
X-32799Y-5051D01*
X-32975Y-5016D01*
D02*
G37*
G36*
X-16650Y-5725D02*
X-16900D01*
Y-6125D01*
X-16650D01*
Y-5725D01*
D02*
G37*
G36*
X-35100Y-6325D02*
X-35700D01*
Y-7550D01*
X-35100D01*
Y-6325D01*
D02*
G37*
G36*
X-11275Y-7275D02*
X-11700D01*
Y-7625D01*
X-11275D01*
Y-7275D01*
D02*
G37*
G36*
Y-7825D02*
X-11700D01*
Y-8175D01*
X-11275D01*
Y-7825D01*
D02*
G37*
G36*
X-27300Y-6325D02*
X-27900D01*
Y-7550D01*
X-27300D01*
Y-6325D01*
D02*
G37*
G36*
X-28100D02*
X-28700D01*
Y-7550D01*
X-28100D01*
Y-6325D01*
D02*
G37*
G36*
X-34300D02*
X-34900D01*
Y-7550D01*
X-34300D01*
Y-6325D01*
D02*
G37*
G36*
X-28100Y-825D02*
X-28700D01*
Y-2050D01*
X-28100D01*
Y-825D01*
D02*
G37*
G36*
X-34300D02*
X-34900D01*
Y-2050D01*
X-34300D01*
Y-825D01*
D02*
G37*
G36*
X-35100D02*
X-35700D01*
Y-2050D01*
X-35100D01*
Y-825D01*
D02*
G37*
G36*
X-23325Y-850D02*
X-24675D01*
Y-959D01*
X-24825Y-1061D01*
X-24925Y-1041D01*
X-25101Y-1076D01*
X-25249Y-1176D01*
X-25349Y-1324D01*
X-25384Y-1500D01*
X-25349Y-1676D01*
X-25249Y-1824D01*
X-25101Y-1924D01*
X-24925Y-1959D01*
X-24825Y-1939D01*
X-24675Y-2041D01*
Y-3450D01*
X-24268D01*
Y-6350D01*
X-24675D01*
Y-8950D01*
X-24268D01*
Y-9520D01*
X-24247Y-9623D01*
X-24189Y-9709D01*
X-23909Y-9989D01*
X-23823Y-10047D01*
X-23720Y-10068D01*
X-23575D01*
Y-10225D01*
X-23600D01*
Y-10575D01*
X-23075D01*
Y-10775D01*
X-23600D01*
Y-11125D01*
X-23575D01*
Y-11282D01*
X-29489D01*
X-29592Y-11303D01*
X-29679Y-11361D01*
X-29744Y-11426D01*
X-29882Y-11369D01*
Y-10300D01*
X-29675D01*
Y-9400D01*
X-30525D01*
X-30625Y-9400D01*
X-30732Y-9297D01*
Y-8950D01*
X-30325D01*
Y-6350D01*
X-30732D01*
Y-3450D01*
X-30325D01*
Y-2066D01*
X-30175Y-1964D01*
X-30075Y-1984D01*
X-29899Y-1949D01*
X-29751Y-1849D01*
X-29651Y-1701D01*
X-29616Y-1525D01*
X-29651Y-1349D01*
X-29751Y-1201D01*
X-29899Y-1101D01*
X-30075Y-1066D01*
X-30175Y-1086D01*
X-30325Y-984D01*
Y-850D01*
X-31675D01*
Y-3450D01*
X-31268D01*
Y-6350D01*
X-31675D01*
Y-8950D01*
X-31268D01*
Y-9400D01*
X-31625D01*
Y-10300D01*
X-30775D01*
X-30675Y-10300D01*
X-30524Y-10300D01*
X-30418Y-10406D01*
Y-11640D01*
X-32760Y-13982D01*
X-33192D01*
X-33272Y-13832D01*
X-33251Y-13801D01*
X-33216Y-13625D01*
X-33251Y-13449D01*
X-33351Y-13301D01*
X-33499Y-13201D01*
X-33675Y-13166D01*
X-33679Y-13167D01*
X-33786Y-13075D01*
X-33764Y-12925D01*
X-33650D01*
Y-12075D01*
X-33650Y-11975D01*
X-33650Y-11825D01*
Y-10975D01*
X-34500D01*
Y-11182D01*
X-35225D01*
Y-10975D01*
X-36125D01*
Y-11058D01*
X-36150Y-11083D01*
X-36301Y-11126D01*
X-36449Y-11026D01*
X-36625Y-10991D01*
X-36801Y-11026D01*
X-36949Y-11126D01*
X-37049Y-11274D01*
X-37084Y-11450D01*
X-37049Y-11626D01*
X-36949Y-11774D01*
X-36801Y-11874D01*
X-36625Y-11909D01*
X-36449Y-11874D01*
X-36301Y-11774D01*
X-36150Y-11817D01*
X-36125Y-11842D01*
Y-11925D01*
X-36125Y-12075D01*
Y-12925D01*
X-35943D01*
Y-13857D01*
X-36093Y-13931D01*
X-36179Y-13865D01*
X-36428Y-13761D01*
X-36696Y-13726D01*
X-36964Y-13761D01*
X-37213Y-13865D01*
X-37427Y-14029D01*
X-37591Y-14243D01*
X-37695Y-14492D01*
X-37730Y-14760D01*
X-37695Y-15028D01*
X-37591Y-15277D01*
X-37427Y-15491D01*
X-37213Y-15655D01*
X-36964Y-15759D01*
X-36696Y-15794D01*
X-36428Y-15759D01*
X-36179Y-15655D01*
X-35965Y-15491D01*
X-35801Y-15277D01*
X-35697Y-15028D01*
X-35662Y-14760D01*
X-35693Y-14522D01*
X-35619Y-14466D01*
X-35559Y-14445D01*
X-34889Y-15115D01*
X-36179Y-16405D01*
X-36428Y-16301D01*
X-36696Y-16266D01*
X-36964Y-16301D01*
X-37213Y-16405D01*
X-37427Y-16569D01*
X-37591Y-16783D01*
X-37695Y-17032D01*
X-37730Y-17300D01*
X-37695Y-17568D01*
X-37591Y-17817D01*
X-37427Y-18031D01*
X-37213Y-18195D01*
X-36964Y-18299D01*
X-36696Y-18334D01*
X-36428Y-18299D01*
X-36179Y-18195D01*
X-35965Y-18031D01*
X-35801Y-17817D01*
X-35697Y-17568D01*
X-35662Y-17300D01*
X-35697Y-17032D01*
X-35801Y-16783D01*
X-34410Y-15393D01*
X-33064D01*
X-32962Y-15372D01*
X-32875Y-15314D01*
X-29378Y-11818D01*
X-23575D01*
Y-12000D01*
X-22625D01*
Y-12000D01*
X-22575D01*
X-22460Y-12085D01*
X-22441Y-12150D01*
X-22524Y-12274D01*
X-22559Y-12450D01*
X-22524Y-12626D01*
X-22424Y-12774D01*
X-22276Y-12874D01*
X-22100Y-12909D01*
X-21924Y-12874D01*
X-21776Y-12774D01*
X-21676Y-12626D01*
X-21641Y-12450D01*
X-21676Y-12274D01*
X-21759Y-12150D01*
X-21732Y-12058D01*
X-21694Y-12000D01*
X-21625D01*
Y-11100D01*
Y-10250D01*
Y-9350D01*
X-22575D01*
Y-9350D01*
X-22625D01*
Y-9350D01*
X-23575D01*
X-23697Y-9281D01*
X-23732Y-9257D01*
Y-8950D01*
X-23325D01*
Y-6350D01*
X-23732D01*
Y-3450D01*
X-23325D01*
Y-850D01*
D02*
G37*
G36*
X-6075Y-1525D02*
X-6925D01*
Y-1713D01*
X-7246D01*
X-7276Y-1669D01*
X-7424Y-1569D01*
X-7600Y-1534D01*
X-7776Y-1569D01*
X-7924Y-1669D01*
X-7954Y-1713D01*
X-8325D01*
Y-1525D01*
X-9175D01*
Y-2375D01*
X-9175Y-2475D01*
X-9175Y-2625D01*
Y-3475D01*
X-9018D01*
Y-9075D01*
X-8997Y-9177D01*
X-8939Y-9264D01*
X-7245Y-10958D01*
X-7259Y-11025D01*
X-7224Y-11201D01*
X-7124Y-11349D01*
X-6976Y-11449D01*
X-6800Y-11484D01*
X-6624Y-11449D01*
X-6476Y-11349D01*
X-6376Y-11201D01*
X-6341Y-11025D01*
X-6376Y-10849D01*
X-6476Y-10701D01*
X-6624Y-10601D01*
X-6800Y-10566D01*
X-6867Y-10580D01*
X-8482Y-8964D01*
Y-3475D01*
X-8325D01*
Y-2625D01*
X-8325Y-2525D01*
X-8325Y-2379D01*
X-8219Y-2273D01*
X-7954D01*
X-7924Y-2317D01*
X-7776Y-2417D01*
X-7600Y-2452D01*
X-7424Y-2417D01*
X-7276Y-2317D01*
X-7246Y-2273D01*
X-7031D01*
X-6925Y-2379D01*
Y-2475D01*
X-6925Y-2625D01*
Y-3475D01*
X-6768D01*
Y-3550D01*
X-6747Y-3652D01*
X-6689Y-3739D01*
X-3414Y-7014D01*
X-3327Y-7072D01*
X-3225Y-7093D01*
X-1612D01*
X-1574Y-7149D01*
X-1426Y-7249D01*
X-1250Y-7284D01*
X-1074Y-7249D01*
X-926Y-7149D01*
X-826Y-7001D01*
X-791Y-6825D01*
X-826Y-6649D01*
X-926Y-6501D01*
X-1074Y-6401D01*
X-1250Y-6366D01*
X-1426Y-6401D01*
X-1574Y-6501D01*
X-1612Y-6557D01*
X-3114D01*
X-6111Y-3561D01*
X-6075Y-3475D01*
X-6075D01*
Y-2625D01*
X-6075Y-2525D01*
X-6075Y-2375D01*
Y-1525D01*
D02*
G37*
G36*
X-27300Y-825D02*
X-27900D01*
Y-2050D01*
X-27300D01*
Y-825D01*
D02*
G37*
G36*
X-35100Y-2250D02*
X-35700D01*
Y-3475D01*
X-35100D01*
Y-2250D01*
D02*
G37*
G36*
X-32800Y-3420D02*
X-32976Y-3455D01*
X-33124Y-3554D01*
X-33169Y-3621D01*
X-33349D01*
X-33393Y-3554D01*
X-33542Y-3455D01*
X-33717Y-3420D01*
X-33893Y-3455D01*
X-34042Y-3554D01*
X-34141Y-3703D01*
X-34176Y-3879D01*
X-34141Y-4054D01*
X-34042Y-4203D01*
X-33893Y-4303D01*
X-33717Y-4338D01*
X-33542Y-4303D01*
X-33393Y-4203D01*
X-33349Y-4137D01*
X-33169D01*
X-33124Y-4203D01*
X-32976Y-4303D01*
X-32800Y-4338D01*
X-32624Y-4303D01*
X-32476Y-4203D01*
X-32376Y-4054D01*
X-32341Y-3879D01*
X-32376Y-3703D01*
X-32476Y-3554D01*
X-32624Y-3455D01*
X-32800Y-3420D01*
D02*
G37*
G36*
X-27300Y-2250D02*
X-27900D01*
Y-3475D01*
X-27300D01*
Y-2250D01*
D02*
G37*
G36*
X-28100D02*
X-28700D01*
Y-3475D01*
X-28100D01*
Y-2250D01*
D02*
G37*
G36*
X-34300Y-2250D02*
X-34900D01*
Y-3475D01*
X-34300D01*
Y-2250D01*
D02*
G37*
G36*
X-4530Y-13590D02*
X-5476D01*
X-5453Y-13764D01*
X-5347Y-14020D01*
X-5179Y-14239D01*
X-4960Y-14407D01*
X-4704Y-14513D01*
X-4530Y-14536D01*
Y-13590D01*
D02*
G37*
G36*
X-3384D02*
X-4330D01*
Y-14536D01*
X-4156Y-14513D01*
X-3900Y-14407D01*
X-3681Y-14239D01*
X-3513Y-14020D01*
X-3407Y-13764D01*
X-3384Y-13590D01*
D02*
G37*
G36*
X-58075Y-13791D02*
X-58251Y-13826D01*
X-58399Y-13926D01*
X-58499Y-14074D01*
X-58534Y-14250D01*
X-58499Y-14426D01*
X-58399Y-14574D01*
X-58251Y-14674D01*
X-58075Y-14709D01*
X-57899Y-14674D01*
X-57751Y-14574D01*
X-57651Y-14426D01*
X-57616Y-14250D01*
X-57651Y-14074D01*
X-57751Y-13926D01*
X-57899Y-13826D01*
X-58075Y-13791D01*
D02*
G37*
G36*
X-4330Y-12444D02*
Y-13390D01*
X-3384D01*
X-3407Y-13216D01*
X-3513Y-12960D01*
X-3681Y-12741D01*
X-3900Y-12573D01*
X-4156Y-12467D01*
X-4330Y-12444D01*
D02*
G37*
G36*
X-4530D02*
X-4704Y-12467D01*
X-4960Y-12573D01*
X-5179Y-12741D01*
X-5347Y-12960D01*
X-5453Y-13216D01*
X-5476Y-13390D01*
X-4530D01*
Y-12444D01*
D02*
G37*
G36*
X-5945Y-12465D02*
X-7995D01*
Y-14515D01*
X-5945D01*
Y-12465D01*
D02*
G37*
G36*
X-4430Y-14996D02*
X-4698Y-15031D01*
X-4947Y-15135D01*
X-5161Y-15299D01*
X-5325Y-15513D01*
X-5429Y-15762D01*
X-5464Y-16030D01*
X-5429Y-16298D01*
X-5325Y-16547D01*
X-5161Y-16761D01*
X-4947Y-16925D01*
X-4698Y-17029D01*
X-4430Y-17064D01*
X-4162Y-17029D01*
X-3913Y-16925D01*
X-3699Y-16761D01*
X-3535Y-16547D01*
X-3431Y-16298D01*
X-3396Y-16030D01*
X-3431Y-15762D01*
X-3535Y-15513D01*
X-3699Y-15299D01*
X-3913Y-15135D01*
X-4162Y-15031D01*
X-4430Y-14996D01*
D02*
G37*
G36*
X-6970D02*
X-7238Y-15031D01*
X-7487Y-15135D01*
X-7701Y-15299D01*
X-7865Y-15513D01*
X-7969Y-15762D01*
X-8004Y-16030D01*
X-7969Y-16298D01*
X-7865Y-16547D01*
X-7701Y-16761D01*
X-7487Y-16925D01*
X-7238Y-17029D01*
X-6970Y-17064D01*
X-6702Y-17029D01*
X-6453Y-16925D01*
X-6239Y-16761D01*
X-6075Y-16547D01*
X-5971Y-16298D01*
X-5936Y-16030D01*
X-5971Y-15762D01*
X-6075Y-15513D01*
X-6239Y-15299D01*
X-6453Y-15135D01*
X-6702Y-15031D01*
X-6970Y-14996D01*
D02*
G37*
G36*
X-25025Y-17793D02*
X-25171Y-17822D01*
X-25295Y-17905D01*
X-25405D01*
X-25529Y-17822D01*
X-25675Y-17793D01*
X-25821Y-17822D01*
X-25945Y-17905D01*
X-26028Y-18029D01*
X-26057Y-18175D01*
X-26057Y-18178D01*
X-27739Y-19861D01*
X-27797Y-19948D01*
X-27818Y-20050D01*
Y-28517D01*
X-27904Y-28575D01*
X-28004Y-28724D01*
X-28039Y-28900D01*
X-28004Y-29075D01*
X-27904Y-29224D01*
X-27756Y-29324D01*
X-27580Y-29359D01*
X-27404Y-29324D01*
X-27256Y-29224D01*
X-27156Y-29075D01*
X-27121Y-28900D01*
X-27156Y-28724D01*
X-27232Y-28610D01*
X-27223Y-28547D01*
X-27078Y-28496D01*
X-27059Y-28499D01*
X-26725Y-28833D01*
X-26739Y-28900D01*
X-26704Y-29075D01*
X-26604Y-29224D01*
X-26455Y-29324D01*
X-26280Y-29359D01*
X-26104Y-29324D01*
X-25955Y-29224D01*
X-25856Y-29075D01*
X-25821Y-28900D01*
X-25856Y-28724D01*
X-25955Y-28575D01*
X-26104Y-28476D01*
X-26280Y-28441D01*
X-26347Y-28454D01*
X-26957Y-27844D01*
Y-20486D01*
X-26807Y-20335D01*
X-26619Y-20360D01*
X-26595Y-20395D01*
X-26471Y-20478D01*
X-26325Y-20507D01*
X-26307Y-20504D01*
X-25730Y-21080D01*
X-25648Y-21135D01*
X-25550Y-21155D01*
X-25462D01*
X-25383Y-21305D01*
X-25407Y-21425D01*
X-25378Y-21571D01*
X-25328Y-21646D01*
X-25326Y-21655D01*
X-25346Y-21692D01*
X-25490Y-21747D01*
X-25529Y-21722D01*
X-25675Y-21693D01*
X-25821Y-21722D01*
X-25945Y-21805D01*
X-26028Y-21929D01*
X-26057Y-22075D01*
X-26057Y-22078D01*
X-26077Y-22098D01*
X-26135Y-22185D01*
X-26155Y-22287D01*
Y-23258D01*
X-26135Y-23360D01*
X-26077Y-23447D01*
X-25743Y-23781D01*
Y-24175D01*
X-25893Y-24256D01*
X-25899Y-24251D01*
X-26075Y-24216D01*
X-26251Y-24251D01*
X-26399Y-24351D01*
X-26499Y-24499D01*
X-26534Y-24675D01*
X-26499Y-24851D01*
X-26399Y-24999D01*
X-26251Y-25099D01*
X-26075Y-25134D01*
X-25899Y-25099D01*
X-25893Y-25094D01*
X-25743Y-25175D01*
Y-26913D01*
X-25799Y-26951D01*
X-25899Y-27099D01*
X-25934Y-27275D01*
X-25899Y-27451D01*
X-25799Y-27599D01*
X-25651Y-27699D01*
X-25537Y-27721D01*
X-25410Y-27851D01*
X-25375Y-28027D01*
X-25276Y-28176D01*
X-25127Y-28275D01*
X-24951Y-28310D01*
X-24776Y-28275D01*
X-24627Y-28176D01*
X-24478D01*
X-24474Y-28181D01*
X-24326Y-28280D01*
X-24150Y-28315D01*
X-23974Y-28280D01*
X-23826Y-28181D01*
X-23726Y-28032D01*
X-23691Y-27856D01*
X-23726Y-27681D01*
X-23826Y-27532D01*
X-23974Y-27432D01*
X-24150Y-27398D01*
X-24217Y-27411D01*
X-24370Y-27258D01*
Y-23112D01*
X-24390Y-23010D01*
X-24448Y-22923D01*
X-24643Y-22728D01*
X-24643Y-22725D01*
X-24672Y-22579D01*
X-24755Y-22455D01*
X-24722Y-22296D01*
X-24672Y-22221D01*
X-24643Y-22075D01*
X-24672Y-21929D01*
X-24755Y-21805D01*
X-24722Y-21649D01*
X-24540Y-21620D01*
X-24155Y-22006D01*
Y-22925D01*
X-24135Y-23023D01*
X-24080Y-23105D01*
X-20655Y-26531D01*
X-20572Y-26586D01*
X-20475Y-26605D01*
X-17282D01*
X-17143Y-26744D01*
X-17160Y-26826D01*
X-17125Y-27002D01*
X-17025Y-27151D01*
X-16876Y-27250D01*
X-16701Y-27285D01*
X-16525Y-27250D01*
X-16376Y-27151D01*
X-16277Y-27002D01*
X-16242Y-26826D01*
X-16277Y-26651D01*
X-16376Y-26502D01*
X-16351Y-26338D01*
X-16276Y-26226D01*
X-16241Y-26050D01*
X-16276Y-25874D01*
X-16376Y-25726D01*
X-16524Y-25626D01*
X-16700Y-25591D01*
X-16876Y-25626D01*
X-17024Y-25726D01*
X-17071Y-25795D01*
X-20245D01*
X-23345Y-22695D01*
Y-21775D01*
X-23365Y-21677D01*
X-23420Y-21595D01*
X-24595Y-20420D01*
X-24677Y-20365D01*
X-24699Y-20312D01*
X-24672Y-20271D01*
X-24643Y-20125D01*
X-24672Y-19979D01*
X-24722Y-19904D01*
X-24731Y-19858D01*
X-24709Y-19787D01*
X-24671Y-19730D01*
X-23998D01*
X-22672Y-21055D01*
Y-21659D01*
X-22653Y-21756D01*
X-22598Y-21839D01*
X-19392Y-25044D01*
X-19409Y-25126D01*
X-19374Y-25302D01*
X-19274Y-25451D01*
X-19126Y-25550D01*
X-18950Y-25585D01*
X-18774Y-25550D01*
X-18626Y-25451D01*
X-18526Y-25302D01*
X-18491Y-25126D01*
X-18522Y-24970D01*
X-18435Y-24837D01*
X-18312Y-24825D01*
X-18093Y-25044D01*
X-18109Y-25126D01*
X-18074Y-25302D01*
X-17974Y-25451D01*
X-17826Y-25550D01*
X-17650Y-25585D01*
X-17474Y-25550D01*
X-17326Y-25451D01*
X-17226Y-25302D01*
X-17191Y-25126D01*
X-17226Y-24951D01*
X-17326Y-24802D01*
X-17474Y-24702D01*
X-17650Y-24667D01*
X-17732Y-24684D01*
X-18054Y-24362D01*
X-18136Y-24307D01*
X-18234Y-24287D01*
X-18966D01*
X-21246Y-22008D01*
X-21172Y-21869D01*
X-21100Y-21884D01*
X-20924Y-21849D01*
X-20776Y-21749D01*
X-20676Y-21601D01*
X-20641Y-21425D01*
X-20676Y-21249D01*
X-20776Y-21101D01*
X-20924Y-21001D01*
X-21100Y-20966D01*
X-21276Y-21001D01*
X-21424Y-21101D01*
X-21524Y-21249D01*
X-21559Y-21425D01*
X-21544Y-21497D01*
X-21683Y-21571D01*
X-21863Y-21391D01*
Y-20825D01*
X-21882Y-20728D01*
X-21937Y-20645D01*
X-23368Y-19215D01*
X-23455Y-19095D01*
X-23372Y-18971D01*
X-23343Y-18825D01*
X-23372Y-18679D01*
X-23455Y-18555D01*
X-23579Y-18472D01*
X-23725Y-18443D01*
X-23871Y-18472D01*
X-23995Y-18555D01*
X-24078Y-18679D01*
X-24107Y-18825D01*
X-24078Y-18971D01*
X-24012Y-19070D01*
X-24041Y-19163D01*
X-24079Y-19220D01*
X-24744D01*
X-24755Y-19205D01*
X-24879Y-19122D01*
X-25025Y-19093D01*
X-25171Y-19122D01*
X-25295Y-19205D01*
X-25378Y-19329D01*
X-25407Y-19475D01*
X-25378Y-19621D01*
X-25328Y-19696D01*
X-25347Y-19736D01*
X-25497Y-19793D01*
X-25529Y-19772D01*
X-25675Y-19743D01*
X-25821Y-19772D01*
X-25896Y-19822D01*
X-25950Y-19833D01*
X-26058Y-19770D01*
X-26079Y-19608D01*
X-25028Y-18557D01*
X-25025Y-18557D01*
X-24879Y-18528D01*
X-24755Y-18445D01*
X-24672Y-18321D01*
X-24643Y-18175D01*
X-24672Y-18029D01*
X-24755Y-17905D01*
X-24879Y-17822D01*
X-25025Y-17793D01*
D02*
G37*
G36*
X-23925Y-13916D02*
X-24101Y-13951D01*
X-24249Y-14051D01*
X-24349Y-14199D01*
X-24384Y-14375D01*
X-24349Y-14551D01*
X-24249Y-14699D01*
X-24101Y-14799D01*
X-23925Y-14834D01*
X-23749Y-14799D01*
X-23601Y-14699D01*
X-23501Y-14551D01*
X-23466Y-14375D01*
X-23501Y-14199D01*
X-23601Y-14051D01*
X-23749Y-13951D01*
X-23925Y-13916D01*
D02*
G37*
G36*
X-41776Y-13726D02*
X-42044Y-13761D01*
X-42293Y-13865D01*
X-42507Y-14029D01*
X-42671Y-14243D01*
X-42775Y-14492D01*
X-42810Y-14760D01*
X-42775Y-15028D01*
X-42671Y-15277D01*
X-42507Y-15491D01*
X-42293Y-15655D01*
X-42044Y-15759D01*
X-41776Y-15794D01*
X-41508Y-15759D01*
X-41259Y-15655D01*
X-41045Y-15491D01*
X-40881Y-15277D01*
X-40777Y-15028D01*
X-40742Y-14760D01*
X-40777Y-14492D01*
X-40881Y-14243D01*
X-41045Y-14029D01*
X-41259Y-13865D01*
X-41508Y-13761D01*
X-41776Y-13726D01*
D02*
G37*
G36*
X-37705Y-9925D02*
X-39755D01*
Y-11975D01*
X-39732D01*
Y-14886D01*
X-41254Y-16408D01*
X-41259Y-16405D01*
X-41508Y-16301D01*
X-41776Y-16266D01*
X-42044Y-16301D01*
X-42293Y-16405D01*
X-42507Y-16569D01*
X-42671Y-16783D01*
X-42775Y-17032D01*
X-42810Y-17300D01*
X-42775Y-17568D01*
X-42671Y-17817D01*
X-42507Y-18031D01*
X-42293Y-18195D01*
X-42044Y-18299D01*
X-41776Y-18334D01*
X-41508Y-18299D01*
X-41259Y-18195D01*
X-41045Y-18031D01*
X-40881Y-17817D01*
X-40777Y-17568D01*
X-40742Y-17300D01*
X-40777Y-17032D01*
X-40783Y-17019D01*
X-39080Y-15315D01*
X-39080Y-15315D01*
X-38997Y-15191D01*
X-38968Y-15045D01*
X-38968Y-15045D01*
Y-11975D01*
X-37705D01*
Y-9925D01*
D02*
G37*
G36*
X-27300Y-13241D02*
X-27476Y-13276D01*
X-27612Y-13368D01*
X-27749Y-13276D01*
X-27925Y-13241D01*
X-28101Y-13276D01*
X-28239Y-13369D01*
X-30556D01*
X-30683Y-13394D01*
X-30790Y-13466D01*
X-36140Y-18815D01*
X-37721D01*
Y-20865D01*
X-35889D01*
X-35832Y-21004D01*
X-36208Y-21380D01*
X-36275Y-21366D01*
X-36451Y-21401D01*
X-36599Y-21501D01*
X-36637Y-21557D01*
X-40670D01*
X-40773Y-21578D01*
X-40860Y-21636D01*
X-45770Y-26546D01*
X-45913Y-26514D01*
X-45930Y-26494D01*
X-46026Y-26351D01*
X-46174Y-26251D01*
X-46350Y-26216D01*
X-46526Y-26251D01*
X-46674Y-26351D01*
X-46774Y-26499D01*
X-46809Y-26675D01*
X-46774Y-26851D01*
X-46674Y-26999D01*
X-46531Y-27095D01*
X-46511Y-27112D01*
X-46479Y-27255D01*
X-48064Y-28840D01*
X-48122Y-28927D01*
X-48143Y-29030D01*
Y-31314D01*
X-48833Y-32005D01*
X-48900Y-31991D01*
X-49076Y-32026D01*
X-49224Y-32126D01*
X-49324Y-32275D01*
X-49359Y-32450D01*
X-49324Y-32626D01*
X-49224Y-32775D01*
X-49076Y-32874D01*
X-48900Y-32909D01*
X-48724Y-32874D01*
X-48576Y-32775D01*
X-48476Y-32626D01*
X-48441Y-32450D01*
X-48455Y-32383D01*
X-48018Y-31947D01*
X-47855Y-31996D01*
X-47849Y-32027D01*
X-47749Y-32176D01*
X-47601Y-32275D01*
X-47425Y-32310D01*
X-47249Y-32275D01*
X-47101Y-32176D01*
X-47001Y-32027D01*
X-46966Y-31851D01*
X-47001Y-31676D01*
X-47101Y-31527D01*
X-47157Y-31489D01*
Y-29210D01*
X-43915Y-25968D01*
X-29545D01*
X-29519Y-26000D01*
X-29484Y-26176D01*
X-29384Y-26324D01*
X-29236Y-26424D01*
X-29060Y-26459D01*
X-28884Y-26424D01*
X-28736Y-26324D01*
X-28636Y-26176D01*
X-28601Y-26000D01*
X-28636Y-25824D01*
X-28736Y-25676D01*
X-28884Y-25576D01*
X-29060Y-25541D01*
X-29127Y-25555D01*
X-29171Y-25511D01*
X-29258Y-25453D01*
X-29360Y-25432D01*
X-38829D01*
X-38870Y-25357D01*
X-38889Y-25282D01*
X-38801Y-25151D01*
X-38766Y-24975D01*
X-38801Y-24799D01*
X-38901Y-24651D01*
X-39049Y-24551D01*
X-39225Y-24516D01*
X-39401Y-24551D01*
X-39549Y-24651D01*
X-39649Y-24799D01*
X-39684Y-24975D01*
X-39649Y-25151D01*
X-39561Y-25282D01*
X-39580Y-25357D01*
X-39620Y-25432D01*
X-43703D01*
X-43761Y-25294D01*
X-40560Y-22093D01*
X-36637D01*
X-36599Y-22149D01*
X-36451Y-22249D01*
X-36275Y-22284D01*
X-36099Y-22249D01*
X-35951Y-22149D01*
X-35851Y-22001D01*
X-35816Y-21825D01*
X-35830Y-21758D01*
X-32911Y-18839D01*
X-32853Y-18752D01*
X-32832Y-18650D01*
Y-17761D01*
X-31514Y-16443D01*
X-28312D01*
X-28274Y-16499D01*
X-28126Y-16599D01*
X-27950Y-16634D01*
X-27774Y-16599D01*
X-27626Y-16499D01*
X-27526Y-16351D01*
X-27491Y-16175D01*
X-27526Y-15999D01*
X-27626Y-15851D01*
X-27774Y-15751D01*
X-27950Y-15716D01*
X-28126Y-15751D01*
X-28274Y-15851D01*
X-28312Y-15907D01*
X-31625D01*
X-31727Y-15928D01*
X-31814Y-15986D01*
X-33289Y-17461D01*
X-33347Y-17548D01*
X-33368Y-17650D01*
Y-18539D01*
X-35532Y-20704D01*
X-35671Y-20647D01*
Y-19284D01*
X-30419Y-14031D01*
X-28239D01*
X-28101Y-14124D01*
X-27925Y-14159D01*
X-27749Y-14124D01*
X-27612Y-14032D01*
X-27476Y-14124D01*
X-27300Y-14159D01*
X-27124Y-14124D01*
X-26976Y-14024D01*
X-26876Y-13876D01*
X-26841Y-13700D01*
X-26876Y-13524D01*
X-26976Y-13376D01*
X-27124Y-13276D01*
X-27300Y-13241D01*
D02*
G37*
G36*
X-34300Y-7750D02*
X-34900D01*
Y-8975D01*
X-34300D01*
Y-7750D01*
D02*
G37*
G36*
X-35100D02*
X-35700D01*
Y-8975D01*
X-35100D01*
Y-7750D01*
D02*
G37*
G36*
X-28100Y-7750D02*
X-28700D01*
Y-8975D01*
X-28100D01*
Y-7750D01*
D02*
G37*
G36*
X-37787Y-7854D02*
X-37963Y-7889D01*
X-38112Y-7988D01*
X-38211Y-8137D01*
X-38246Y-8312D01*
X-38211Y-8488D01*
X-38112Y-8637D01*
X-37963Y-8736D01*
X-37787Y-8771D01*
X-37612Y-8736D01*
X-37463Y-8637D01*
X-37364Y-8488D01*
X-37329Y-8312D01*
X-37364Y-8137D01*
X-37463Y-7988D01*
X-37612Y-7889D01*
X-37787Y-7854D01*
D02*
G37*
G36*
X-27300Y-7750D02*
X-27900D01*
Y-8975D01*
X-27300D01*
Y-7750D01*
D02*
G37*
G36*
X-25876Y-5965D02*
X-26052Y-6000D01*
X-26201Y-6099D01*
X-26300Y-6248D01*
X-26335Y-6424D01*
X-26300Y-6599D01*
X-26208Y-6738D01*
Y-7174D01*
X-26183Y-7300D01*
X-26111Y-7408D01*
X-26006Y-7512D01*
Y-8660D01*
X-26100Y-8800D01*
X-26135Y-8975D01*
X-26100Y-9151D01*
X-26001Y-9300D01*
X-25852Y-9399D01*
X-25676Y-9434D01*
X-25501Y-9399D01*
X-25352Y-9300D01*
X-25252Y-9151D01*
X-25217Y-8975D01*
X-25252Y-8800D01*
X-25344Y-8663D01*
Y-7375D01*
X-25369Y-7248D01*
X-25441Y-7141D01*
X-25545Y-7036D01*
Y-6738D01*
X-25453Y-6599D01*
X-25418Y-6424D01*
X-25453Y-6248D01*
X-25552Y-6099D01*
X-25701Y-6000D01*
X-25876Y-5965D01*
D02*
G37*
G36*
X-10057Y-11369D02*
X-10232Y-11404D01*
X-10381Y-11503D01*
X-10393Y-11522D01*
X-12870D01*
X-12882Y-11503D01*
X-13031Y-11404D01*
X-13207Y-11369D01*
X-13382Y-11404D01*
X-13531Y-11503D01*
X-13631Y-11652D01*
X-13666Y-11828D01*
X-13631Y-12003D01*
X-13531Y-12152D01*
X-13382Y-12252D01*
X-13207Y-12287D01*
X-13031Y-12252D01*
X-12882Y-12152D01*
X-12870Y-12134D01*
X-10393D01*
X-10381Y-12152D01*
X-10363Y-12165D01*
Y-13166D01*
X-10381Y-13178D01*
X-10481Y-13327D01*
X-10515Y-13503D01*
X-10481Y-13679D01*
X-10381Y-13827D01*
X-10232Y-13927D01*
X-10057Y-13962D01*
X-9881Y-13927D01*
X-9732Y-13827D01*
X-9633Y-13679D01*
X-9598Y-13503D01*
X-9633Y-13327D01*
X-9732Y-13178D01*
X-9751Y-13166D01*
Y-12165D01*
X-9732Y-12152D01*
X-9633Y-12003D01*
X-9598Y-11828D01*
X-9633Y-11652D01*
X-9732Y-11503D01*
X-9881Y-11404D01*
X-10057Y-11369D01*
D02*
G37*
G36*
X-40245Y-9925D02*
X-42295D01*
Y-11975D01*
X-40245D01*
Y-9925D01*
D02*
G37*
G36*
X-49675Y-10391D02*
X-49851Y-10426D01*
X-49999Y-10526D01*
X-50099Y-10674D01*
X-50134Y-10850D01*
X-50099Y-11026D01*
X-49999Y-11174D01*
X-49851Y-11274D01*
X-49675Y-11309D01*
X-49499Y-11274D01*
X-49351Y-11174D01*
X-49251Y-11026D01*
X-49216Y-10850D01*
X-49251Y-10674D01*
X-49351Y-10526D01*
X-49499Y-10426D01*
X-49675Y-10391D01*
D02*
G37*
G36*
X-4550Y-9341D02*
X-4726Y-9376D01*
X-4874Y-9476D01*
X-4974Y-9624D01*
X-5009Y-9800D01*
X-4974Y-9976D01*
X-4874Y-10124D01*
X-4726Y-10224D01*
X-4550Y-10259D01*
X-4374Y-10224D01*
X-4226Y-10124D01*
X-4126Y-9976D01*
X-4091Y-9800D01*
X-4126Y-9624D01*
X-4226Y-9476D01*
X-4374Y-9376D01*
X-4550Y-9341D01*
D02*
G37*
G36*
X-17025Y-9616D02*
X-17201Y-9651D01*
X-17349Y-9751D01*
X-17379Y-9795D01*
X-18300D01*
X-18407Y-9816D01*
X-18498Y-9877D01*
X-25316Y-16695D01*
X-26500D01*
X-26607Y-16716D01*
X-26698Y-16777D01*
X-26735Y-16831D01*
X-29439Y-19536D01*
X-29497Y-19623D01*
X-29518Y-19725D01*
Y-21688D01*
X-29574Y-21726D01*
X-29674Y-21874D01*
X-29709Y-22050D01*
X-29674Y-22226D01*
X-29574Y-22374D01*
X-29426Y-22474D01*
X-29250Y-22509D01*
X-29074Y-22474D01*
X-28926Y-22374D01*
X-28826Y-22226D01*
X-28791Y-22050D01*
X-28826Y-21874D01*
X-28926Y-21726D01*
X-28982Y-21688D01*
Y-19836D01*
X-26402Y-17255D01*
X-25200D01*
X-25093Y-17234D01*
X-25002Y-17173D01*
X-18184Y-10355D01*
X-17379D01*
X-17349Y-10399D01*
X-17201Y-10499D01*
X-17025Y-10534D01*
X-16849Y-10499D01*
X-16701Y-10399D01*
X-16601Y-10251D01*
X-16566Y-10075D01*
X-16601Y-9899D01*
X-16701Y-9751D01*
X-16849Y-9651D01*
X-17025Y-9616D01*
D02*
G37*
%LPD*%
G36*
X-29173Y-46823D02*
X-29189Y-46905D01*
X-29154Y-47081D01*
X-29054Y-47229D01*
X-28906Y-47329D01*
X-28730Y-47364D01*
X-28554Y-47329D01*
X-28406Y-47229D01*
X-28306Y-47081D01*
X-28271Y-46905D01*
X-28278Y-46869D01*
X-28140Y-46795D01*
X-27942Y-46993D01*
X-27959Y-47075D01*
X-27924Y-47251D01*
X-27824Y-47399D01*
X-27676Y-47499D01*
X-27500Y-47534D01*
X-27324Y-47499D01*
X-27176Y-47399D01*
X-27106Y-47295D01*
X-26948Y-47318D01*
X-26927Y-47426D01*
X-26827Y-47574D01*
X-26678Y-47674D01*
X-26503Y-47709D01*
X-26421Y-47693D01*
X-25907Y-48207D01*
X-25964Y-48345D01*
X-28466D01*
X-29995Y-46816D01*
Y-46213D01*
X-29845Y-46150D01*
X-29173Y-46823D01*
D02*
G37*
D10*
X-15965Y-13190D02*
G03*
X-15110Y-11125I-2065J2065D01*
G01*
X-16234Y-12922D02*
G03*
X-15490Y-11125I-1796J1796D01*
G01*
X-18745Y-15432D02*
G03*
X-18746Y-15434I2065J-2065D01*
G01*
D02*
G03*
X-19600Y-17497I2066J-2063D01*
G01*
X-18291Y-15516D02*
G03*
X-19035Y-17312I1796J-1796D01*
G01*
X-15600Y-5240D02*
Y-4475D01*
Y-5240D02*
X-15550Y-5290D01*
Y-6425D02*
Y-5290D01*
X-14950Y-5240D02*
Y-4475D01*
X-15000Y-5290D02*
X-14950Y-5240D01*
X-15000Y-6425D02*
Y-5290D01*
X-18291Y-15516D02*
X-15965Y-13190D01*
X-15550Y-8315D02*
Y-7725D01*
Y-8315D02*
X-15490Y-8375D01*
X-15110D02*
X-15050Y-8315D01*
Y-7725D01*
X-19600Y-18200D02*
Y-17497D01*
X-18745Y-15432D02*
X-16234Y-12922D01*
X-15490Y-11125D02*
Y-11125D01*
Y-8375D01*
X-19035Y-17400D02*
Y-17312D01*
X-15110Y-11125D02*
Y-8375D01*
D11*
X-15000Y-6425D02*
D03*
D12*
X-15550D02*
D03*
X-15050Y-7725D02*
D03*
X-15550D02*
D03*
D13*
X-16050Y-6225D02*
D03*
X-16550D02*
D03*
X-16050Y-7925D02*
D03*
X-16550D02*
D03*
D14*
X-16430Y-7075D02*
D03*
D15*
X-13875Y-6325D02*
D03*
Y-7725D02*
D03*
D16*
X-34942Y-38686D02*
D03*
X-33942D02*
D03*
X-34942Y-39636D02*
D03*
X-33942D02*
D03*
X-17825Y-6125D02*
D03*
X-18825D02*
D03*
X-22100Y-9800D02*
D03*
X-23100D02*
D03*
X-30150Y-9850D02*
D03*
X-31150D02*
D03*
X-22100Y-11550D02*
D03*
X-23100D02*
D03*
X-26050Y-42525D02*
D03*
X-25050D02*
D03*
X-26050Y-43472D02*
D03*
X-25050D02*
D03*
D17*
X-14300Y-4475D02*
D03*
X-14950D02*
D03*
X-15600D02*
D03*
X-16250D02*
D03*
X-16900D02*
D03*
D18*
X-31000Y-7650D02*
D03*
Y-2150D02*
D03*
X-35000D02*
D03*
Y-7650D02*
D03*
X-24000D02*
D03*
Y-2150D02*
D03*
X-28000D02*
D03*
Y-7650D02*
D03*
D19*
X-34600Y-41300D02*
D03*
Y-42700D02*
D03*
D20*
X-33400Y-41525D02*
D03*
Y-42475D02*
D03*
X-24095Y-42525D02*
D03*
Y-43475D02*
D03*
Y-45447D02*
D03*
Y-44497D02*
D03*
D21*
X-35675Y-12450D02*
D03*
Y-11450D02*
D03*
X-26050Y-45400D02*
D03*
Y-44400D02*
D03*
Y-40600D02*
D03*
Y-41600D02*
D03*
D22*
X-18800Y-7025D02*
D03*
X-17850D02*
D03*
X-12750Y-6425D02*
D03*
X-11800D02*
D03*
X-12750Y-7725D02*
D03*
X-11800D02*
D03*
X-22125Y-10675D02*
D03*
X-23075D02*
D03*
D23*
X-22645Y-45350D02*
D03*
Y-42750D02*
D03*
D24*
X-30000Y-42000D02*
D03*
D25*
X-31250Y-40150D02*
D03*
X-30750D02*
D03*
X-30250D02*
D03*
X-29750D02*
D03*
X-29250D02*
D03*
X-28750D02*
D03*
Y-43850D02*
D03*
X-29250D02*
D03*
X-29750D02*
D03*
X-30250D02*
D03*
X-30750D02*
D03*
X-31250D02*
D03*
D26*
X-28150Y-40750D02*
D03*
Y-41250D02*
D03*
Y-41750D02*
D03*
Y-42250D02*
D03*
Y-42750D02*
D03*
Y-43250D02*
D03*
X-31850D02*
D03*
Y-42750D02*
D03*
Y-42250D02*
D03*
Y-41750D02*
D03*
Y-41250D02*
D03*
Y-40750D02*
D03*
D27*
X-24095Y-41100D02*
D03*
X-22395D02*
D03*
D28*
X-34075Y-12450D02*
D03*
Y-11450D02*
D03*
X-8750Y-3000D02*
D03*
Y-2000D02*
D03*
X-6500Y-3000D02*
D03*
Y-2000D02*
D03*
D29*
X-50520Y-42856D02*
D03*
X-50500Y-47975D02*
D03*
X-26503Y-47250D02*
D03*
X-55025Y-32850D02*
D03*
X-26653Y-25350D02*
D03*
X-36036Y-38686D02*
D03*
X-28117Y-51700D02*
D03*
X-28075Y-48051D02*
D03*
X-25224Y-41550D02*
D03*
X-28034Y-43925D02*
D03*
X-23141Y-43986D02*
D03*
X-11775Y-39840D02*
D03*
X-12900Y-39725D02*
D03*
X-19875Y-38625D02*
D03*
X-27075Y-38600D02*
D03*
X-19405Y-38100D02*
D03*
X-28750Y-38600D02*
D03*
X-18275Y-37575D02*
D03*
X-17751Y-37052D02*
D03*
X-16050Y-8775D02*
D03*
X-14300Y-5600D02*
D03*
X-12750Y-9050D02*
D03*
X-32875Y-39725D02*
D03*
X-32300Y-39075D02*
D03*
X-28730Y-46905D02*
D03*
X-27500Y-47075D02*
D03*
X-27800Y-38100D02*
D03*
X-11350Y-36350D02*
D03*
X-10800Y-36852D02*
D03*
X-56475Y-31875D02*
D03*
X-8275Y-35602D02*
D03*
X-31250Y-45700D02*
D03*
X-30750Y-44975D02*
D03*
X-13750Y-28900D02*
D03*
X-50500Y-47975D02*
D03*
X-58575Y-31875D02*
D03*
X-32700Y-42475D02*
D03*
X-20102Y-25200D02*
D03*
X-31853Y-21425D02*
D03*
X-31025Y-17175D02*
D03*
X-1250Y-12800D02*
D03*
X-50125Y-21100D02*
D03*
X-1250Y-6825D02*
D03*
X-37825Y-27475D02*
D03*
X-17800Y-16700D02*
D03*
X-25000Y-33550D02*
D03*
X-29060Y-26000D02*
D03*
X-21100Y-21425D02*
D03*
X-26280Y-28900D02*
D03*
X-27580D02*
D03*
X-24284Y-31800D02*
D03*
X-23495Y-33550D02*
D03*
X-56106Y-13748D02*
D03*
X-27300Y-13700D02*
D03*
X-27925D02*
D03*
X-37787Y-8312D02*
D03*
X-38175Y-34600D02*
D03*
X-29101Y-2751D02*
D03*
X-38200Y-35400D02*
D03*
X-42800Y-26675D02*
D03*
X-30500Y-17800D02*
D03*
X-50400Y-18625D02*
D03*
X-55550Y-17925D02*
D03*
X-23925Y-14375D02*
D03*
X-29125Y-1525D02*
D03*
X-4550Y-9800D02*
D03*
X-3875Y-7025D02*
D03*
X-40500Y-1500D02*
D03*
X-34125Y-2150D02*
D03*
X-24925Y-1500D02*
D03*
X-30075Y-1525D02*
D03*
X-6800Y-11025D02*
D03*
X-22100Y-15100D02*
D03*
X-30875Y-23175D02*
D03*
X-26800Y-15100D02*
D03*
X-775Y-11100D02*
D03*
X-29250Y-22050D02*
D03*
X-18525Y-21400D02*
D03*
X-24925Y-10675D02*
D03*
X-27950Y-16175D02*
D03*
X-56500Y-21775D02*
D03*
X-58250Y-28925D02*
D03*
X-57600Y-30900D02*
D03*
X-47700Y-40400D02*
D03*
X-40550Y-22675D02*
D03*
X-46350Y-26675D02*
D03*
X-49925D02*
D03*
X-49675Y-10850D02*
D03*
X-51650Y-26250D02*
D03*
X-44200Y-20225D02*
D03*
X-55625Y-12125D02*
D03*
X-36625Y-11450D02*
D03*
X-28575Y-5825D02*
D03*
X-27276Y-4975D02*
D03*
X-25876Y-6424D02*
D03*
X-25676Y-8975D02*
D03*
X-40900Y-30725D02*
D03*
X-24050Y-26400D02*
D03*
X-52025Y-15975D02*
D03*
X-51625Y-22500D02*
D03*
X-50050Y-24025D02*
D03*
X-58075Y-14250D02*
D03*
X-26075Y-24675D02*
D03*
X-46550Y-23900D02*
D03*
X-43800Y-33450D02*
D03*
Y-32650D02*
D03*
Y-31850D02*
D03*
X-21450Y-32625D02*
D03*
X-20450Y-31800D02*
D03*
X-22550Y-31800D02*
D03*
X-44524Y-33850D02*
D03*
X-22550Y-29800D02*
D03*
X-20450Y-29800D02*
D03*
X-43725Y-26675D02*
D03*
X-39700D02*
D03*
X-17650Y-32650D02*
D03*
X-18950D02*
D03*
Y-25126D02*
D03*
X-17650D02*
D03*
X-12600Y-25325D02*
D03*
X-33725Y-5483D02*
D03*
X-32975Y-5475D02*
D03*
X-32800Y-3879D02*
D03*
X-33717D02*
D03*
X-36275Y-21825D02*
D03*
X-32177Y-18201D02*
D03*
X-51325Y-28450D02*
D03*
X-52750Y-32799D02*
D03*
X-12025Y-7075D02*
D03*
X-43024Y-22700D02*
D03*
X-38175Y-31313D02*
D03*
X-46950Y-43075D02*
D03*
X-17530Y-20750D02*
D03*
X-13751Y-23451D02*
D03*
X-13750Y-33175D02*
D03*
X-41550Y-28950D02*
D03*
X-46924Y-33526D02*
D03*
X-48925Y-30350D02*
D03*
X-48900Y-32450D02*
D03*
X-47425Y-31851D02*
D03*
X-42399Y-37451D02*
D03*
X-47725Y-34450D02*
D03*
X-8625Y-29125D02*
D03*
X-33542Y-40750D02*
D03*
X-39225Y-24975D02*
D03*
X-50750Y-14300D02*
D03*
X-33675Y-13625D02*
D03*
X-34425Y-14250D02*
D03*
X-13207Y-11828D02*
D03*
X-10057D02*
D03*
Y-13503D02*
D03*
X-9800Y-11126D02*
D03*
X-19625Y-6125D02*
D03*
X-27190Y-36000D02*
D03*
X-28925Y-36525D02*
D03*
X-19035Y-17400D02*
D03*
X-19600Y-18200D02*
D03*
X-25475Y-27275D02*
D03*
X-24951Y-27851D02*
D03*
X-24150Y-27856D02*
D03*
X-16725Y-16050D02*
D03*
X-22100Y-12450D02*
D03*
X-17025Y-10075D02*
D03*
X-16700Y-26050D02*
D03*
X-16701Y-26826D02*
D03*
X-23050Y-26525D02*
D03*
X-13425Y-10923D02*
D03*
X-16900Y-5500D02*
D03*
X-17076Y-7075D02*
D03*
X-22814Y-2750D02*
D03*
X-37200Y-24250D02*
D03*
X-35925Y-24250D02*
D03*
X-38700Y-20775D02*
D03*
X-18675Y-18275D02*
D03*
X-16076Y-5575D02*
D03*
X-19450Y-19070D02*
D03*
X-29750Y-36775D02*
D03*
X-33088Y-47000D02*
D03*
X-30900Y-50125D02*
D03*
X-36425Y-35808D02*
D03*
X-36951Y-35325D02*
D03*
X-29450Y-42550D02*
D03*
X-30550D02*
D03*
X-29450Y-41450D02*
D03*
X-30550D02*
D03*
X-33802Y-36052D02*
D03*
X-33775Y-36796D02*
D03*
X-43800Y-30525D02*
D03*
X-44050Y-10375D02*
D03*
X-49961Y-9908D02*
D03*
X-26725Y-7350D02*
D03*
Y-8150D02*
D03*
X-7600Y-1993D02*
D03*
X-50520Y-42856D02*
D03*
D30*
X-23720Y-9800D02*
X-23100D01*
X-24000Y-9520D02*
X-23720Y-9800D01*
X-24000Y-9520D02*
Y-7650D01*
X-13801Y-23451D02*
X-13776Y-23476D01*
X-13775Y-28900D02*
X-13751Y-28876D01*
Y-23451D01*
X-9900Y-29325D02*
Y-24956D01*
X-16050Y-35475D02*
X-9900Y-29325D01*
X-27190Y-36000D02*
X-15425D01*
X-29360Y-25700D02*
X-29060Y-26000D01*
X-44026Y-25700D02*
X-29360D01*
X-30263Y-40137D02*
Y-36430D01*
Y-40137D02*
X-30250Y-40150D01*
X-30263Y-36430D02*
X-29832Y-36000D01*
X-27190D01*
X-6665Y-23975D02*
X-5700Y-23010D01*
X-5820Y-24400D02*
X-4430Y-23010D01*
X-5420Y-20750D02*
X-4430Y-21740D01*
X-8775Y-20750D02*
X-5420D01*
X-27225Y-27955D02*
X-26280Y-28900D01*
X-27225Y-27955D02*
Y-20375D01*
X-25025Y-18175D01*
X-27550Y-20050D02*
X-25675Y-18175D01*
X-27550Y-28900D02*
Y-20050D01*
X-15012Y-26388D02*
Y-22384D01*
X-16375Y-27750D02*
X-15012Y-26388D01*
X-21825Y-27750D02*
X-16375D01*
X-23050Y-26525D02*
X-21825Y-27750D01*
X-24095Y-43986D02*
Y-43475D01*
Y-44497D02*
Y-43986D01*
X-23141D01*
X-26050Y-44400D02*
Y-43472D01*
Y-42525D02*
Y-41600D01*
X-28150Y-42750D02*
X-26275D01*
X-28925Y-36525D02*
X-15225D01*
X-26275Y-42750D02*
X-26050Y-42525D01*
X-28150Y-43250D02*
X-26272D01*
X-26050Y-43472D01*
X-14025Y-6175D02*
X-13875Y-6325D01*
X-16050Y-7925D02*
X-16050Y-7925D01*
X-16050Y-8775D02*
Y-7925D01*
X-33400Y-42475D02*
X-32700D01*
X-34600Y-41300D02*
X-34375Y-41525D01*
X-33400D01*
X-56106Y-13748D02*
X-53150Y-16704D01*
Y-26625D02*
Y-16704D01*
Y-26625D02*
X-51325Y-28450D01*
X-51100Y-22975D02*
X-50050Y-24025D01*
X-51100Y-22975D02*
Y-14650D01*
X-6500Y-3550D02*
X-3225Y-6825D01*
X-48925Y-24950D02*
X-44200Y-20225D01*
X-25462Y-23095D02*
Y-22544D01*
X-25025Y-22106D01*
Y-22075D01*
X-24000Y-7650D02*
Y-2150D01*
Y-1800D01*
X-24300Y-1500D02*
X-24000Y-1800D01*
X-24925Y-1500D02*
X-24300D01*
X-35000Y-7650D02*
Y-2150D01*
X-31000Y-7650D02*
Y-2150D01*
X-31150Y-9850D02*
X-31000Y-9700D01*
X-24925Y-10675D02*
X-23075D01*
X-31000Y-9700D02*
Y-7650D01*
X-28000D02*
Y-2150D01*
X-36625Y-11450D02*
X-35675D01*
X-35000Y-2150D02*
X-34125D01*
X-31000D02*
Y-1725D01*
X-30800Y-1525D01*
X-30075D01*
X-27276Y-4975D02*
Y-4951D01*
X-18825Y-7000D02*
Y-6125D01*
X-51100Y-14650D02*
X-50750Y-14300D01*
X-25888Y-23258D02*
X-25475Y-23670D01*
X-25888Y-23258D02*
Y-22287D01*
X-25675Y-22075D01*
X-29250Y-22050D02*
Y-19725D01*
X-13801Y-23451D02*
Y-23451D01*
X-34600Y-42700D02*
X-33625D01*
X-33400Y-42475D01*
X-40900Y-30725D02*
X-39800Y-31825D01*
X-48925Y-30350D02*
Y-24950D01*
X-45900Y-28850D02*
X-43725Y-26675D01*
X-45900Y-33950D02*
Y-28850D01*
Y-33950D02*
X-42399Y-37451D01*
X-32475Y-41750D02*
X-30250D01*
X-44900Y-33474D02*
X-44524Y-33850D01*
X-47425Y-31851D02*
Y-29099D01*
X-32700Y-42475D02*
X-32475Y-42250D01*
X-31860D01*
X-33400Y-41525D02*
X-32700D01*
X-32475Y-41750D01*
X-35675Y-12450D02*
X-35508Y-12617D01*
X-36696Y-17300D02*
X-34511Y-15115D01*
X-29250Y-19725D02*
X-26500Y-16975D01*
X-12025Y-7500D02*
Y-7075D01*
Y-7500D02*
X-11800Y-7725D01*
X-12025Y-7075D02*
Y-6650D01*
X-11800Y-6425D01*
X-9800Y-11150D02*
Y-11126D01*
X-19625Y-6125D02*
X-18825D01*
X-25475Y-27275D02*
Y-23670D01*
X-24962Y-27840D02*
X-24951Y-27851D01*
X-39800Y-31825D02*
X-24284D01*
X-24638Y-27369D02*
X-24150Y-27856D01*
X-24638Y-27369D02*
Y-23112D01*
X-25025Y-22725D02*
X-24638Y-23112D01*
X-24962Y-27840D02*
Y-23595D01*
X-25462Y-23095D02*
X-24962Y-23595D01*
X-22100Y-12450D02*
Y-11550D01*
Y-9800D01*
X-8750Y-9075D02*
X-6800Y-11025D01*
X-8750Y-9075D02*
Y-3000D01*
X-16550Y-6955D02*
Y-6225D01*
Y-7195D02*
X-16430Y-7075D01*
X-16550Y-7925D02*
Y-7195D01*
X-17076Y-7075D02*
X-16430D01*
X-35925Y-23900D02*
X-30500Y-18475D01*
Y-17800D01*
X-36735Y-24250D02*
X-31025Y-18540D01*
Y-17175D01*
X-37200Y-24250D02*
X-36735D01*
X-47875Y-29030D02*
X-40670Y-21825D01*
X-36275D01*
X-33100Y-18650D01*
X-35925Y-24250D02*
Y-23900D01*
X-47425Y-29099D02*
X-44026Y-25700D01*
X-48900Y-32450D02*
X-47875Y-31425D01*
Y-29030D01*
X-52750Y-32800D02*
X-52025Y-33525D01*
X-46924D01*
X-16725Y-16050D02*
X-14232Y-13557D01*
Y-10532D01*
X-12750Y-9050D01*
X-33100Y-18650D02*
Y-17650D01*
X-31625Y-16175D01*
X-27950D01*
X-33064Y-15125D02*
X-29489Y-11550D01*
X-23100D01*
X-34425Y-14250D02*
X-32649D01*
X-30150Y-11751D01*
Y-9850D01*
X-34500Y-15125D02*
X-33064D01*
X-35675Y-13950D02*
Y-12450D01*
Y-13950D02*
X-34500Y-15125D01*
X-16550Y-6225D02*
X-16050D01*
Y-5601D01*
X-16076Y-5575D02*
X-16050Y-5601D01*
X-16825Y-5575D02*
X-16076D01*
X-16900Y-5500D02*
X-16825Y-5575D01*
X-30750Y-40140D02*
Y-36458D01*
X-15012Y-22384D02*
X-11179Y-18550D01*
X-3450D01*
X-1250Y-16350D02*
Y-12800D01*
X-3450Y-18550D02*
X-1250Y-16350D01*
X-44900Y-33474D02*
Y-30150D01*
X-41425Y-26675D01*
X-39700D01*
X-30750Y-36458D02*
X-29767Y-35475D01*
X-16050D01*
X-15225Y-36525D02*
X-9250Y-30550D01*
X-15425Y-36000D02*
X-9575Y-30150D01*
X-9250Y-21225D02*
X-8775Y-20750D01*
X-9250Y-30550D02*
Y-25225D01*
X-8425Y-24400D01*
X-5820D01*
X-9900Y-24956D02*
X-9250Y-24306D01*
Y-21225D01*
X-9575Y-25090D02*
X-8460Y-23975D01*
X-9575Y-30150D02*
Y-25090D01*
X-8460Y-23975D02*
X-6665D01*
X-3225Y-6825D02*
X-1250D01*
X-1100D01*
X-6500Y-3550D02*
Y-3000D01*
X-35675Y-11450D02*
X-34075D01*
Y-13225D02*
X-33675Y-13625D01*
X-34075Y-13225D02*
Y-12450D01*
D31*
X-26503Y-47250D02*
X-25534Y-48219D01*
X-28750Y-45003D02*
X-26503Y-47250D01*
X-25534Y-48219D02*
X-18769D01*
X-28750Y-45003D02*
Y-43860D01*
X-17832Y-50200D02*
X-7597Y-39965D01*
X-28847Y-50200D02*
X-17832D01*
X-7597Y-39965D02*
X-5505D01*
X-32450Y-46597D02*
X-28847Y-50200D01*
X-17855Y-49775D02*
X-6970Y-38890D01*
X-28848Y-49775D02*
X-17855D01*
X-31860Y-46763D02*
X-28848Y-49775D01*
X-18125Y-49425D02*
X-8275Y-39575D01*
X-28774Y-49425D02*
X-18125D01*
X-31250Y-46949D02*
X-28774Y-49425D01*
X-18600Y-48600D02*
X-9325Y-39325D01*
X-28750Y-48600D02*
X-18600D01*
X-30250Y-47100D02*
X-28750Y-48600D01*
X-18769Y-48219D02*
X-9700Y-39150D01*
X-18425Y-49050D02*
X-8900Y-39525D01*
X-30750Y-47024D02*
X-28724Y-49050D01*
X-18425D01*
X-26290Y-39425D02*
X-13373D01*
X-26725Y-39860D02*
X-26290Y-39425D01*
X-26725Y-41350D02*
Y-39860D01*
X-21700Y-31800D02*
X-20450D01*
X-22575Y-32675D02*
X-21700Y-31800D01*
X-20450D02*
X-20425D01*
X-16674Y-58300D02*
X-8200Y-49826D01*
X-16798Y-58000D02*
X-8500Y-49702D01*
X-16922Y-57700D02*
X-8800Y-49578D01*
X-17046Y-57400D02*
X-9100Y-49454D01*
X-8200Y-48100D02*
X-7850Y-47750D01*
X-8200Y-49826D02*
Y-48100D01*
X-8500Y-46200D02*
X-7550Y-45250D01*
X-8500Y-49702D02*
Y-46200D01*
X-8800Y-45800D02*
X-6970Y-43970D01*
X-8800Y-49578D02*
Y-45800D01*
X-9100Y-44300D02*
X-7512Y-42713D01*
X-9100Y-49454D02*
Y-44300D01*
X-9400Y-43860D02*
X-6970Y-41430D01*
X-9400Y-49329D02*
Y-43860D01*
X-17171Y-57100D02*
X-9400Y-49329D01*
X-5505Y-39965D02*
X-4430Y-38890D01*
X-5505Y-50125D02*
X-4430Y-49050D01*
X-7650Y-50125D02*
X-5505D01*
X-16425Y-58900D02*
X-7650Y-50125D01*
X-16549Y-58600D02*
X-6999Y-49050D01*
X-6970D01*
X-29316Y-57100D02*
X-17171D01*
X-29440Y-57400D02*
X-17046D01*
X-31125Y-57700D02*
X-16922D01*
X-31380Y-58000D02*
X-16798D01*
X-33620Y-58300D02*
X-16674D01*
X-35436Y-58600D02*
X-16549D01*
X-35560Y-58900D02*
X-16425D01*
X-33942Y-38686D02*
X-33553Y-39075D01*
X-32300D01*
X-33942Y-39636D02*
X-33853Y-39725D01*
X-32875D01*
X-22670Y-42750D02*
X-22395Y-42475D01*
X-18234Y-24542D02*
X-17650Y-25126D01*
X-19072Y-24542D02*
X-18234D01*
X-22117Y-21497D02*
X-19072Y-24542D01*
X-22417Y-21659D02*
X-18950Y-25126D01*
X-22417Y-21659D02*
Y-20950D01*
X-28402Y-37052D02*
X-17751D01*
X-28375Y-37575D02*
X-18275D01*
X-27800Y-38100D02*
X-19405D01*
X-27075Y-38600D02*
X-19875D01*
X-18360Y-46450D02*
X-11762Y-39853D01*
X-26625Y-39125D02*
X-14125D01*
X-27075Y-39575D02*
X-26625Y-39125D01*
X-27075Y-41183D02*
Y-39575D01*
X-14125Y-39125D02*
X-11350Y-36350D01*
X-13373Y-39425D02*
X-10800Y-36852D01*
X-25175Y-39725D02*
X-12900D01*
X-26050Y-40600D02*
X-25175Y-39725D01*
X-25000Y-46450D02*
X-18360D01*
X-26050Y-45400D02*
X-25000Y-46450D01*
X-27625Y-42250D02*
X-26725Y-41350D01*
X-28150Y-42250D02*
X-27625D01*
X-27642Y-41750D02*
X-27075Y-41183D01*
X-27450Y-38975D02*
X-27075Y-38600D01*
X-28140Y-38440D02*
X-27800Y-38100D01*
X-28750Y-37950D02*
X-28375Y-37575D01*
X-28750Y-40150D02*
Y-38600D01*
X-28750Y-38600D02*
Y-37950D01*
Y-38600D02*
X-28750Y-38600D01*
X-29250Y-37900D02*
X-28402Y-37052D01*
X-29250Y-40140D02*
Y-37900D01*
X-28140Y-41750D02*
X-27642D01*
X-28150Y-41250D02*
X-27567D01*
X-31250Y-40140D02*
Y-39475D01*
X-31650Y-39075D02*
X-31250Y-39475D01*
X-32300Y-39075D02*
X-31650D01*
X-29750Y-45885D02*
X-28730Y-46905D01*
X-29750Y-45885D02*
Y-43860D01*
X-29250Y-45325D02*
Y-43860D01*
Y-45325D02*
X-27500Y-47075D01*
X-29750Y-40140D02*
Y-36775D01*
X-8510Y-33810D02*
X-6970D01*
X-4430Y-31270D02*
X-3125Y-32575D01*
Y-34325D02*
Y-32575D01*
X-3800Y-35000D02*
X-3125Y-34325D01*
X-7924Y-32675D02*
X-5565D01*
X-32268Y-42750D02*
X-31860D01*
X-5565Y-32675D02*
X-4430Y-33810D01*
X-31250Y-45700D02*
Y-43860D01*
X-30750Y-44975D02*
Y-43860D01*
X-36350Y-53030D02*
Y-40850D01*
X-35725Y-40225D02*
X-33293D01*
X-36350Y-40850D02*
X-35725Y-40225D01*
X-25025Y-19475D02*
X-23892D01*
X-23725Y-19218D02*
Y-18825D01*
X-23892Y-19475D02*
X-22417Y-20950D01*
X-23725Y-19218D02*
X-22117Y-20825D01*
Y-21497D02*
Y-20825D01*
X-38890Y-53030D02*
X-37575Y-54345D01*
Y-56461D02*
Y-54345D01*
X-7850Y-47750D02*
X-5670D01*
X-4430Y-46510D01*
X-33810Y-53030D02*
X-32525Y-54315D01*
Y-56300D02*
Y-54315D01*
X-31270Y-53030D02*
X-30050Y-54250D01*
Y-56366D02*
Y-54250D01*
X-8275Y-39575D02*
Y-35602D01*
X-8900Y-39525D02*
Y-35350D01*
X-8550Y-35000D01*
X-3800D01*
X-9700Y-39150D02*
Y-34451D01*
X-7924Y-32675D01*
X-9325Y-39325D02*
Y-34625D01*
X-8510Y-33810D01*
X-32875Y-39725D02*
X-32501D01*
X-33293Y-40225D02*
X-32268Y-41250D01*
X-31860D01*
X-21800Y-32975D02*
X-21450Y-32625D01*
X-43800Y-33450D02*
X-43325Y-32975D01*
X-21800D01*
X-43800Y-31850D02*
X-43275Y-32375D01*
X-43800Y-32650D02*
X-43775Y-32675D01*
X-22575D01*
X-26325Y-20125D02*
X-25550Y-20900D01*
X-24900D01*
X-23900Y-21900D01*
X-25675Y-20125D02*
X-25200Y-20600D01*
X-24775D01*
X-23600Y-21775D01*
X-23900Y-22925D02*
Y-21900D01*
X-23600Y-22801D02*
Y-21775D01*
X-41550Y-28950D02*
X-35326D01*
X-43275Y-32375D02*
X-23125D01*
X-22550Y-31800D01*
X-20350Y-26050D02*
X-16700D01*
X-16700Y-26050D01*
X-23600Y-22801D02*
X-20350Y-26050D01*
X-17177Y-26350D02*
X-16701Y-26826D01*
X-20475Y-26350D02*
X-17177D01*
X-23900Y-22925D02*
X-20475Y-26350D01*
X-30050Y-56366D02*
X-29316Y-57100D01*
X-31270Y-55570D02*
X-29440Y-57400D01*
X-32525Y-56300D02*
X-31125Y-57700D01*
X-33810Y-55570D02*
X-31380Y-58000D01*
X-36350Y-55570D02*
X-33620Y-58300D01*
X-37575Y-56461D02*
X-35436Y-58600D01*
X-38890Y-55570D02*
X-35560Y-58900D01*
X-30250Y-47100D02*
Y-43860D01*
X-30750Y-47024D02*
Y-44975D01*
X-31250Y-46949D02*
Y-45700D01*
X-7550Y-45250D02*
X-5710D01*
X-4430Y-43970D01*
X-7512Y-42713D02*
X-5713D01*
X-4430Y-41430D01*
X-36951Y-35325D02*
X-35176Y-33550D01*
X-25000D01*
X-32450Y-42932D02*
X-32268Y-42750D01*
X-27567Y-41250D02*
X-27450Y-41133D01*
X-32450Y-46597D02*
Y-42932D01*
X-31860Y-46763D02*
Y-43250D01*
X-27450Y-41133D02*
Y-38975D01*
X-28140Y-40750D02*
Y-38440D01*
X-31860Y-40750D02*
Y-40366D01*
X-32501Y-39725D02*
X-31860Y-40366D01*
X-21843Y-29800D02*
X-20450D01*
X-20425D01*
X-35326Y-28950D02*
X-34151Y-30125D01*
X-22875D01*
X-22550Y-29800D01*
X-34275Y-30425D02*
X-22468D01*
X-21843Y-29800D01*
X-35225Y-29475D02*
X-34275Y-30425D01*
X-42750Y-29475D02*
X-35225D01*
X-43800Y-30525D02*
X-42750Y-29475D01*
X-34667Y-34050D02*
X-23995D01*
X-23495Y-33550D01*
X-36425Y-35808D02*
X-34667Y-34050D01*
X-33802Y-36052D02*
X-32125Y-34375D01*
X-20675D01*
X-18950Y-32650D01*
X-33775Y-36796D02*
X-31654Y-34675D01*
X-19675D01*
X-17650Y-32650D01*
D32*
X-36036Y-38686D02*
X-34942D01*
Y-39636D02*
Y-38686D01*
X-22395Y-42475D02*
Y-41100D01*
X-24095Y-42525D02*
Y-41100D01*
X-24095Y-42525D02*
X-24095Y-42525D01*
X-24675Y-45472D02*
X-24120D01*
X-25050Y-45097D02*
X-24675Y-45472D01*
X-25050Y-45097D02*
Y-43472D01*
X-26500Y-16975D02*
X-25200D01*
X-18300Y-10075D01*
X-17025D01*
X-16900Y-5500D02*
Y-4475D01*
X-24095Y-45447D02*
X-22767D01*
X-22670Y-45350D01*
X-24920Y-42525D02*
X-24095D01*
X-24120Y-45472D02*
X-24095Y-45447D01*
X-7600Y-1993D02*
X-6500D01*
X-8750D02*
X-7600D01*
D33*
X-14300Y-5600D02*
Y-4475D01*
X-12750Y-9050D02*
Y-7725D01*
X-11675Y-4587D02*
X-11512Y-4424D01*
Y-1675D01*
X-19700Y-4476D02*
X-19688Y-4463D01*
Y-1675D01*
X-27925Y-13700D02*
X-27300D01*
X-19688Y-1675D02*
X-11512D01*
X-25676Y-8975D02*
X-25675Y-8974D01*
X-17825Y-7000D02*
Y-6125D01*
X-17850Y-7025D02*
X-17800D01*
X-17825Y-6375D02*
Y-4800D01*
Y-7000D02*
X-17800Y-7025D01*
X-25675Y-8974D02*
Y-7375D01*
X-25876Y-7174D02*
X-25675Y-7375D01*
X-25876Y-7174D02*
Y-6424D01*
X-13775Y-6425D02*
X-12750D01*
X-13875Y-7725D02*
X-12750D01*
X-14300Y-5600D02*
X-14025Y-5875D01*
Y-6175D02*
Y-5875D01*
X-36696Y-19840D02*
X-30556Y-13700D01*
X-27925D01*
D34*
X-39350Y-11570D02*
X-38730Y-10950D01*
X-39350Y-15045D02*
Y-11570D01*
X-41575Y-17270D02*
X-39350Y-15045D01*
D35*
X-13207Y-11828D02*
X-10057D01*
Y-13503D02*
Y-11828D01*
D36*
X-16750Y-1675D02*
D03*
X-14450D02*
D03*
D37*
X-23245Y-41100D02*
D03*
D38*
X-13375Y-4800D02*
D03*
X-17825D02*
D03*
D39*
X-19250Y-1675D02*
D03*
X-11950D02*
D03*
D40*
X-36696Y-19840D02*
D03*
X-6970Y-13490D02*
D03*
Y-28730D02*
D03*
X-41776Y-19840D02*
D03*
D41*
X-36696Y-17300D02*
D03*
Y-14760D02*
D03*
X-4430Y-13490D02*
D03*
Y-16030D02*
D03*
X-6970D02*
D03*
X-4430Y-38890D02*
D03*
Y-28730D02*
D03*
Y-31270D02*
D03*
X-6970D02*
D03*
X-4430Y-33810D02*
D03*
X-6970D02*
D03*
X-4430Y-36350D02*
D03*
X-6970D02*
D03*
Y-38890D02*
D03*
Y-51590D02*
D03*
Y-49050D02*
D03*
X-4430D02*
D03*
X-6970Y-46510D02*
D03*
X-4430D02*
D03*
X-6970Y-43970D02*
D03*
X-4430D02*
D03*
Y-41430D02*
D03*
X-6970D02*
D03*
X-4430Y-51590D02*
D03*
X-41776Y-17300D02*
D03*
Y-14760D02*
D03*
X-41430Y-55570D02*
D03*
X-31270Y-53030D02*
D03*
Y-55570D02*
D03*
X-33810D02*
D03*
Y-53030D02*
D03*
X-36350Y-55570D02*
D03*
Y-53030D02*
D03*
X-38890Y-55570D02*
D03*
Y-53030D02*
D03*
X-41430D02*
D03*
X-28730D02*
D03*
X-26190D02*
D03*
Y-55570D02*
D03*
X-23650Y-53030D02*
D03*
Y-55570D02*
D03*
X-21110Y-53030D02*
D03*
Y-55570D02*
D03*
X-18570D02*
D03*
X-28730D02*
D03*
D42*
X-41270Y-10950D02*
D03*
X-38730D02*
D03*
X-18570Y-53030D02*
D03*
D43*
X-3160Y-21740D02*
D03*
X-4430D02*
D03*
X-5700D02*
D03*
X-6970D02*
D03*
Y-23010D02*
D03*
X-5700D02*
D03*
X-4430D02*
D03*
X-3160D02*
D03*
X-8240D02*
D03*
Y-21740D02*
D03*
D44*
X-57650Y-57650D02*
D03*
X-2350D02*
D03*
X-57650Y-2350D02*
D03*
X-2350D02*
D03*
D45*
X-25025Y-20125D02*
D03*
X-26975Y-18825D02*
D03*
X-25025Y-21425D02*
D03*
X-26325Y-20125D02*
D03*
X-24375Y-22725D02*
D03*
X-25025Y-18175D02*
D03*
X-25675D02*
D03*
X-25675Y-20125D02*
D03*
X-26325Y-22725D02*
D03*
X-23075Y-18825D02*
D03*
Y-22075D02*
D03*
X-25675D02*
D03*
X-25025Y-22075D02*
D03*
X-25025Y-22725D02*
D03*
X-25025Y-19475D02*
D03*
X-23725Y-18825D02*
D03*
X-25675Y-21425D02*
D03*
X-24375Y-20125D02*
D03*
M02*
