M48
;Layer_Color=9474304
;FILE_FORMAT=2:4
INCH,TZ
;TYPE=PLATED
T1F00S00C0.0079
T2F00S00C0.0098
T3F00S00C0.0394
T4F00S00C0.1063
%
T01
X-10364Y-8947
Y-7923
X-10108
X-10108Y-7156
X-10620Y-7411
X-9852Y-7667
Y-7923
Y-8179
X-9596
X-9852Y-8435
X-9085Y-8435
X-9085Y-8691
X-9596Y-8947
X-9341Y-7411
X-9085Y-7411
X-9301Y-6791
Y-6545
X-9852Y-7156
X-7717Y-7165
X-7539Y-6850
T02
X-13287Y-35128
X-13500Y-34730
X-12953Y-33012
X-12667Y-33287
X-10797
X-11014Y-33012
X-11467Y-35635
X-11663Y-35935
X-8563Y-28602
X-8829Y-28110
X-6781Y-27874
X-6535Y-28356
X-8560Y-24400
X-9355Y-24695
X-10069Y-25030
X-10079Y-25512
X-10079Y-25828
X-8622Y-21417
X-8489Y-21147
X-5719Y-22037
Y-23031
X-13150Y-23130
X-13032Y-23524
X-13524Y-23720
X-13520Y-22727
X-13071Y-22589
X-12805Y-22362
X-13287Y-22146
X-13091Y-21949
X-12894Y-21348
X-12697Y-21143
X-13032Y-19498
X-12805Y-19065
X-12480
X-11841Y-18976
X-11407Y-18986
X-10896Y-19104
X-10591Y-19094
X-10728Y-19724
X-11073Y-19853
X-11083Y-19528
X-12205Y-19656
X-13278Y-19065
X-15266Y-20620
X-15385Y-22531
X-16014Y-22372
X-16033Y-22923
X-14498Y-23130
X-14508Y-23524
Y-23917
X-14518Y-24311
X-17785Y-24114
X-19065Y-24094
X-19055Y-23661
X-18396Y-21132
Y-19557
X-18169Y-27844
X-18189Y-28317
X-19134Y-28012
X-17191Y-27791
X-15955Y-27411
X-15311Y-27874
X-14793Y-28110
X-14311Y-28356
X-13878Y-28602
X-12795Y-26722
X-12785Y-26378
X-12638Y-26112
X-12205Y-26122
X-11004Y-27008
X-11250Y-27274
X-10522Y-28829
X-10768Y-29311
X-12077Y-29813
X-12311Y-30315
X-11663Y-30817
X-11465Y-31311
X-12116Y-16388
X-12736Y-16102
X-13012Y-16319
X-10856Y-11713
X-10354Y-11634
X-11378Y-10984
X-11457Y-10049
X-10856Y-10305
X-10453Y-10039
X-12116Y-10305
X-12156Y-9124
X-12411Y-8435
X-11752Y-7972
X-11516Y-8681
X-11555Y-6329
X-10551Y-5945
X-11412Y-4503
X-11545Y-4085
X-12077Y-4311
X-12752Y-3333
Y-2703
Y-2309
Y-1758
X-13067Y-2033
X-13106Y-3018
X-14198Y-3361
X-13907Y-3917
X-13445Y-5207
X-14242Y-5413
X-14833Y-5620
X-15886Y-5827
X-17441Y-3917
X-18209Y-4390
X-18120Y-2943
X-19324Y-2513
X-19872Y-2944
X-10600Y-3140
Y-2657
X-10797Y-1663
X-13159Y-6703
X-12982Y-7441
X-13346Y-7874
X-17982Y-14134
X-7992Y-14331
Y-12067
X-9270Y-11480
X-9272Y-10876
X-8730Y-10315
X-8228Y-10315
X-7726
X-7224Y-10315
X-6703Y-9882
X-7785Y-8907
X-8307Y-8435
X-7293Y-8386
X-7008Y-7520
X-6348Y-7982
X-6339Y-6467
X-5837Y-6427
X-4370Y-6339
X-4508Y-4980
X-4065Y-4508
X-4705Y-3770
X-5256Y-2913
X-4409Y-2648
X-4252Y-2234
X-2500Y-3445
Y-3957
X-1791Y-3858
X-1526Y-2766
X-472Y-2854
X-305Y-4370
X-1102Y-4823
X-1929Y-9409
Y-9921
Y-10433
X-9803Y-9774
X-9646Y-5659
X-8701Y-5945
X-8346Y-5935
X-9124Y-4508
X-9813Y-4203
X-9045Y-3533
X-8937Y-2746
X-8583Y-3081
X-6850Y-2953
X-7224Y-16132
X-7431Y-16368
X-9055Y-16929
X-8937Y-1378
X-9990Y-1339
X-9813Y-591
X-5404Y-1526
X-2992Y-598
X-11467Y-600
X-11841
X-13435Y-846
X-15945Y-591
X-18150Y-1560
T03
X-16311Y-37626
X-15311
X-14311
X-13311
X-12311
Y-36626
X-13311
X-14311
X-15311
X-16311
X-11311
X-10311
Y-37626
X-11311
X-9311
Y-36626
X-8311
X-7311
Y-37626
X-8311
X-2744Y-34311
Y-33311
X-1744
Y-34311
Y-32311
X-2744
Y-31311
X-1744
Y-30311
Y-29311
Y-28311
Y-27311
Y-26311
Y-25311
X-2744
Y-26311
Y-27311
Y-28311
Y-29311
Y-30311
Y-20311
Y-19311
X-1744
Y-18311
X-2744
Y-17311
X-1744
Y-20311
X-17982Y-18146
Y-17146
Y-16146
X-16248Y-4311
X-15248
X-2744Y-5311
X-1744
Y-6311
X-2744
Y-11311
X-1744
Y-12311
X-2744
Y-13311
X-1744
Y-14311
Y-15311
X-2744
Y-14311
Y-16311
X-1744
T04
X-22697Y-38445
X-925
Y-925
X-22697
M30
