G04 EAGLE Gerber RS-274X export*
G75*
%MOMM*%
%FSLAX34Y34*%
%LPD*%
%INSolderpaste Top*%
%IPPOS*%
%AMOC8*
5,1,8,0,0,1.08239X$1,22.5*%
G01*
%ADD10R,0.620000X0.620000*%
%ADD11R,0.800000X0.800000*%
%ADD12C,0.254000*%
%ADD13R,0.203200X0.812800*%
%ADD14R,0.812800X0.203200*%
%ADD15R,0.508000X1.270000*%
%ADD16R,2.200000X1.050000*%
%ADD17R,0.800000X1.000000*%
%ADD18R,1.524000X0.762000*%
%ADD19R,0.950000X1.000000*%
%ADD20R,2.540000X1.270000*%
%ADD21R,0.750000X1.400000*%

G36*
X164102Y74535D02*
X164102Y74535D01*
X164104Y74534D01*
X164147Y74554D01*
X164191Y74572D01*
X164191Y74574D01*
X164193Y74575D01*
X164226Y74660D01*
X164226Y85614D01*
X164225Y85616D01*
X164226Y85618D01*
X164206Y85661D01*
X164188Y85705D01*
X164186Y85705D01*
X164185Y85707D01*
X164100Y85740D01*
X153146Y85740D01*
X153144Y85739D01*
X153142Y85740D01*
X153099Y85720D01*
X153055Y85702D01*
X153055Y85700D01*
X153053Y85699D01*
X153020Y85614D01*
X153020Y74660D01*
X153021Y74658D01*
X153020Y74656D01*
X153040Y74613D01*
X153058Y74569D01*
X153060Y74569D01*
X153061Y74567D01*
X153146Y74534D01*
X164100Y74534D01*
X164102Y74535D01*
G37*
G36*
X177056Y74535D02*
X177056Y74535D01*
X177058Y74534D01*
X177101Y74554D01*
X177145Y74572D01*
X177145Y74574D01*
X177147Y74575D01*
X177180Y74660D01*
X177180Y85614D01*
X177179Y85616D01*
X177180Y85618D01*
X177160Y85661D01*
X177142Y85705D01*
X177140Y85705D01*
X177139Y85707D01*
X177054Y85740D01*
X166100Y85740D01*
X166098Y85739D01*
X166096Y85740D01*
X166053Y85720D01*
X166009Y85702D01*
X166009Y85700D01*
X166007Y85699D01*
X165974Y85614D01*
X165974Y74660D01*
X165975Y74658D01*
X165974Y74656D01*
X165994Y74613D01*
X166012Y74569D01*
X166014Y74569D01*
X166015Y74567D01*
X166100Y74534D01*
X177054Y74534D01*
X177056Y74535D01*
G37*
G36*
X164102Y61581D02*
X164102Y61581D01*
X164104Y61580D01*
X164147Y61600D01*
X164191Y61618D01*
X164191Y61620D01*
X164193Y61621D01*
X164226Y61706D01*
X164226Y72660D01*
X164225Y72662D01*
X164226Y72664D01*
X164206Y72707D01*
X164188Y72751D01*
X164186Y72751D01*
X164185Y72753D01*
X164100Y72786D01*
X153146Y72786D01*
X153144Y72785D01*
X153142Y72786D01*
X153099Y72766D01*
X153055Y72748D01*
X153055Y72746D01*
X153053Y72745D01*
X153020Y72660D01*
X153020Y61706D01*
X153021Y61704D01*
X153020Y61702D01*
X153040Y61659D01*
X153058Y61615D01*
X153060Y61615D01*
X153061Y61613D01*
X153146Y61580D01*
X164100Y61580D01*
X164102Y61581D01*
G37*
G36*
X177056Y61581D02*
X177056Y61581D01*
X177058Y61580D01*
X177101Y61600D01*
X177145Y61618D01*
X177145Y61620D01*
X177147Y61621D01*
X177180Y61706D01*
X177180Y72660D01*
X177179Y72662D01*
X177180Y72664D01*
X177160Y72707D01*
X177142Y72751D01*
X177140Y72751D01*
X177139Y72753D01*
X177054Y72786D01*
X166100Y72786D01*
X166098Y72785D01*
X166096Y72786D01*
X166053Y72766D01*
X166009Y72748D01*
X166009Y72746D01*
X166007Y72745D01*
X165974Y72660D01*
X165974Y61706D01*
X165975Y61704D01*
X165974Y61702D01*
X165994Y61659D01*
X166012Y61615D01*
X166014Y61615D01*
X166015Y61613D01*
X166100Y61580D01*
X177054Y61580D01*
X177056Y61581D01*
G37*
D10*
X202294Y155222D03*
X211294Y155222D03*
X203018Y168148D03*
X212018Y168148D03*
D11*
X371680Y34780D03*
X356680Y34780D03*
D12*
X147240Y158320D03*
X147240Y153320D03*
X152240Y158320D03*
X152240Y153320D03*
X157240Y158320D03*
X157240Y153320D03*
D13*
X177800Y93345D03*
X172720Y93345D03*
X167640Y93345D03*
X162560Y93345D03*
X157480Y93345D03*
X152400Y93345D03*
D14*
X145415Y86360D03*
X145415Y81280D03*
X145415Y76200D03*
X145415Y71120D03*
X145415Y66040D03*
X145415Y60960D03*
D13*
X152400Y53975D03*
X157480Y53975D03*
X162560Y53975D03*
X167640Y53975D03*
X172720Y53975D03*
X177800Y53975D03*
D14*
X184785Y60960D03*
X184785Y66040D03*
X184785Y71120D03*
X184785Y76200D03*
X184785Y81280D03*
X184785Y86360D03*
D15*
X398780Y62230D03*
X398780Y110490D03*
X411480Y62230D03*
X411480Y110490D03*
X424180Y62230D03*
X424180Y110490D03*
X436880Y62230D03*
X436880Y110490D03*
X449580Y62230D03*
X449580Y110490D03*
D16*
X33020Y42130D03*
X33020Y69630D03*
D17*
X17770Y55880D03*
D18*
X396240Y181610D03*
X452120Y181610D03*
X396240Y143510D03*
X452120Y143510D03*
D11*
X370720Y55880D03*
X355720Y55880D03*
X370720Y99060D03*
X355720Y99060D03*
D19*
X355220Y76200D03*
X371220Y76200D03*
D20*
X355600Y182880D03*
X355600Y157480D03*
X355600Y132080D03*
D10*
X164520Y139700D03*
X155520Y139700D03*
X164520Y127000D03*
X155520Y127000D03*
D21*
X136840Y132080D03*
X122240Y132080D03*
D10*
X111180Y114300D03*
X102180Y114300D03*
X111180Y101600D03*
X102180Y101600D03*
M02*
