G04 EAGLE Gerber RS-274X export*
G75*
%MOMM*%
%FSLAX34Y34*%
%LPD*%
%INSoldermask Bottom*%
%IPPOS*%
%AMOC8*
5,1,8,0,0,1.08239X$1,22.5*%
G01*
%ADD10R,1.353200X0.453200*%
%ADD11R,2.303200X1.603200*%
%ADD12C,0.803200*%
%ADD13C,1.727200*%
%ADD14R,2.203200X1.003200*%
%ADD15C,0.959600*%


D10*
X332530Y152940D03*
X281030Y152940D03*
X332530Y147940D03*
X281030Y147940D03*
X332530Y142940D03*
X281030Y142940D03*
X332530Y137940D03*
X281030Y137940D03*
X332530Y132940D03*
X281030Y132940D03*
X332530Y127940D03*
X281030Y127940D03*
X332530Y122940D03*
X281030Y122940D03*
X332530Y117940D03*
X281030Y117940D03*
X332530Y112940D03*
X281030Y112940D03*
X332530Y107940D03*
X281030Y107940D03*
X332530Y102940D03*
X281030Y102940D03*
X332530Y97940D03*
X281030Y97940D03*
X332530Y92940D03*
X281030Y92940D03*
X332530Y87940D03*
X281030Y87940D03*
X332530Y82940D03*
X281030Y82940D03*
D11*
X306780Y175440D03*
X306780Y35440D03*
D12*
X325780Y165440D03*
X325780Y45440D03*
D10*
X332530Y77940D03*
X281030Y77940D03*
X332530Y72940D03*
X281030Y72940D03*
X332530Y67940D03*
X281030Y67940D03*
X332530Y62940D03*
X281030Y62940D03*
X332530Y57940D03*
X281030Y57940D03*
D13*
X414480Y26580D03*
X439880Y26580D03*
D14*
X80780Y31580D03*
X80780Y51580D03*
X80780Y71580D03*
X80780Y91580D03*
X80780Y111580D03*
X80780Y131580D03*
X80780Y151580D03*
X80780Y171580D03*
X242780Y171580D03*
X242780Y151580D03*
X242780Y131580D03*
X242780Y111580D03*
X242780Y91580D03*
X242780Y71580D03*
X242780Y51580D03*
X242780Y31580D03*
D13*
X480060Y86360D03*
X480060Y111760D03*
X480060Y35560D03*
X480060Y60960D03*
X480060Y137160D03*
X480060Y162560D03*
D15*
X167640Y104140D03*
X287020Y185420D03*
X327660Y185420D03*
X165100Y149860D03*
X459740Y165100D03*
X111760Y83820D03*
X109220Y129540D03*
X210820Y38100D03*
X386080Y165100D03*
X462280Y73660D03*
X388620Y124460D03*
X345440Y88900D03*
X223520Y160020D03*
X269240Y167640D03*
X266700Y40640D03*
X162560Y111760D03*
X411480Y127000D03*
X89154Y121158D03*
X262128Y80010D03*
X64770Y127254D03*
X175260Y43180D03*
X233172Y81534D03*
X182880Y35560D03*
X227076Y67818D03*
X162560Y43180D03*
X343662Y68580D03*
X198120Y76200D03*
X205740Y83820D03*
X386334Y86868D03*
X396240Y76962D03*
X64770Y34290D03*
X154940Y35560D03*
X167640Y25908D03*
X417576Y137160D03*
X147320Y43180D03*
X128778Y19812D03*
X167640Y35560D03*
X343662Y77724D03*
X132080Y91440D03*
X177800Y147320D03*
X205740Y55880D03*
X198120Y63500D03*
X205740Y71120D03*
X198120Y91440D03*
X124460Y55880D03*
X132080Y63500D03*
X124460Y71120D03*
X132080Y76200D03*
X124460Y83820D03*
X142240Y111760D03*
X124460Y106680D03*
X149860Y104140D03*
X180340Y111760D03*
X187960Y104140D03*
M02*
