G04 EAGLE Gerber RS-274X export*
G75*
%MOMM*%
%FSLAX34Y34*%
%LPD*%
%INSolderpaste Bottom*%
%IPPOS*%
%AMOC8*
5,1,8,0,0,1.08239X$1,22.5*%
G01*
%ADD10R,1.150000X0.250000*%
%ADD11R,2.100000X1.400000*%
%ADD12R,2.000000X0.800000*%


D10*
X332530Y152940D03*
X281030Y152940D03*
X332530Y147940D03*
X281030Y147940D03*
X332530Y142940D03*
X281030Y142940D03*
X332530Y137940D03*
X281030Y137940D03*
X332530Y132940D03*
X281030Y132940D03*
X332530Y127940D03*
X281030Y127940D03*
X332530Y122940D03*
X281030Y122940D03*
X332530Y117940D03*
X281030Y117940D03*
X332530Y112940D03*
X281030Y112940D03*
X332530Y107940D03*
X281030Y107940D03*
X332530Y102940D03*
X281030Y102940D03*
X332530Y97940D03*
X281030Y97940D03*
X332530Y92940D03*
X281030Y92940D03*
X332530Y87940D03*
X281030Y87940D03*
X332530Y82940D03*
X281030Y82940D03*
D11*
X306780Y175440D03*
X306780Y35440D03*
D10*
X332530Y77940D03*
X281030Y77940D03*
X332530Y72940D03*
X281030Y72940D03*
X332530Y67940D03*
X281030Y67940D03*
X332530Y62940D03*
X281030Y62940D03*
X332530Y57940D03*
X281030Y57940D03*
D12*
X80780Y31580D03*
X80780Y51580D03*
X80780Y71580D03*
X80780Y91580D03*
X80780Y111580D03*
X80780Y131580D03*
X80780Y151580D03*
X80780Y171580D03*
X242780Y171580D03*
X242780Y151580D03*
X242780Y131580D03*
X242780Y111580D03*
X242780Y91580D03*
X242780Y71580D03*
X242780Y51580D03*
X242780Y31580D03*
M02*
