G04 EAGLE Gerber RS-274X export*
G75*
%MOMM*%
%FSLAX34Y34*%
%LPD*%
%INReference Designators Top*%
%IPPOS*%
%AMOC8*
5,1,8,0,0,1.08239X$1,22.5*%
G01*
%ADD10C,0.050000*%
%ADD11C,0.127000*%
%ADD12R,0.406400X1.206500*%
%ADD13R,1.206500X0.406400*%
%ADD14C,0.152400*%
%ADD15C,0.200000*%
%ADD16R,1.016000X1.524000*%
%ADD17C,0.000000*%
%ADD18C,0.076200*%
%ADD19C,0.025400*%
%ADD20C,0.050800*%
%ADD21C,0.010159*%
%ADD22C,0.005078*%
%ADD23C,0.101600*%
%ADD24R,0.200000X0.150000*%
%ADD25R,0.050000X0.050000*%
%ADD26R,0.050000X0.375000*%
%ADD27R,0.200000X0.300000*%
%ADD28R,0.900000X0.225000*%
%ADD29R,0.200000X0.500000*%
%ADD30R,0.550000X0.225000*%
%ADD31R,0.100000X0.100000*%
%ADD32C,0.254000*%


D10*
X218749Y111650D02*
X209749Y111650D01*
X209749Y129650D01*
X218749Y129650D01*
X218749Y111650D01*
X232990Y112920D02*
X241990Y112920D01*
X232990Y112920D02*
X232990Y130920D01*
X241990Y130920D01*
X241990Y112920D01*
X246270Y76382D02*
X246270Y67382D01*
X246270Y76382D02*
X264270Y76382D01*
X264270Y67382D01*
X246270Y67382D01*
X262454Y33130D02*
X271454Y33130D01*
X271454Y15130D01*
X262454Y15130D01*
X262454Y33130D01*
X121340Y102980D02*
X112340Y102980D01*
X121340Y102980D02*
X121340Y84980D01*
X112340Y84980D01*
X112340Y102980D01*
X97210Y102980D02*
X88210Y102980D01*
X97210Y102980D02*
X97210Y84980D01*
X88210Y84980D01*
X88210Y102980D01*
X59237Y74024D02*
X50237Y74024D01*
X59237Y74024D02*
X59237Y56024D01*
X50237Y56024D01*
X50237Y74024D01*
X179269Y250046D02*
X188269Y250046D01*
X188269Y232046D01*
X179269Y232046D01*
X179269Y250046D01*
X181919Y356760D02*
X172919Y356760D01*
X172919Y374760D01*
X181919Y374760D01*
X181919Y356760D01*
D11*
X187960Y192786D02*
X187960Y158496D01*
X187960Y192786D02*
X251460Y192786D01*
X251460Y158496D02*
X187960Y158496D01*
X251460Y158496D02*
X251460Y192786D01*
D12*
X219710Y152464D03*
X207010Y152464D03*
X194310Y152464D03*
X232410Y152464D03*
X245110Y152464D03*
X219710Y198819D03*
X232410Y198819D03*
X245110Y198819D03*
X207010Y198819D03*
X194310Y198819D03*
D11*
X206248Y255778D02*
X171958Y255778D01*
X171958Y319278D01*
X206248Y319278D02*
X206248Y255778D01*
X206248Y319278D02*
X171958Y319278D01*
D13*
X212281Y287528D03*
X212281Y274828D03*
X212281Y262128D03*
X212281Y300228D03*
X212281Y312928D03*
X165926Y287528D03*
X165926Y300228D03*
X165926Y312928D03*
X165926Y274828D03*
X165926Y262128D03*
D14*
X179705Y131228D02*
X184446Y131228D01*
X184446Y131229D02*
X184517Y131227D01*
X184588Y131222D01*
X184658Y131212D01*
X184728Y131199D01*
X184797Y131183D01*
X184865Y131163D01*
X184932Y131139D01*
X184997Y131112D01*
X185061Y131081D01*
X185124Y131047D01*
X185184Y131010D01*
X185242Y130970D01*
X185299Y130927D01*
X185353Y130881D01*
X185404Y130832D01*
X185453Y130781D01*
X185499Y130727D01*
X185542Y130670D01*
X185582Y130612D01*
X185619Y130551D01*
X185653Y130489D01*
X185684Y130425D01*
X185711Y130360D01*
X185735Y130293D01*
X185755Y130225D01*
X185771Y130156D01*
X185784Y130086D01*
X185794Y130016D01*
X185799Y129945D01*
X185801Y129874D01*
X185801Y129873D02*
X185801Y129196D01*
X185801Y135286D02*
X179705Y135286D01*
X179705Y136979D01*
X179707Y137060D01*
X179713Y137140D01*
X179722Y137220D01*
X179736Y137299D01*
X179753Y137378D01*
X179774Y137456D01*
X179798Y137533D01*
X179826Y137608D01*
X179858Y137682D01*
X179893Y137755D01*
X179932Y137826D01*
X179974Y137894D01*
X180019Y137961D01*
X180067Y138026D01*
X180119Y138088D01*
X180173Y138147D01*
X180230Y138204D01*
X180289Y138258D01*
X180351Y138310D01*
X180416Y138358D01*
X180483Y138403D01*
X180552Y138445D01*
X180622Y138484D01*
X180695Y138519D01*
X180769Y138551D01*
X180844Y138579D01*
X180921Y138603D01*
X180999Y138624D01*
X181078Y138641D01*
X181157Y138655D01*
X181237Y138664D01*
X181317Y138670D01*
X181398Y138672D01*
X181479Y138670D01*
X181559Y138664D01*
X181639Y138655D01*
X181718Y138641D01*
X181797Y138624D01*
X181875Y138603D01*
X181952Y138579D01*
X182027Y138551D01*
X182101Y138519D01*
X182174Y138484D01*
X182245Y138445D01*
X182313Y138403D01*
X182380Y138358D01*
X182445Y138310D01*
X182507Y138258D01*
X182566Y138204D01*
X182623Y138147D01*
X182677Y138088D01*
X182729Y138026D01*
X182777Y137961D01*
X182822Y137894D01*
X182864Y137826D01*
X182903Y137755D01*
X182938Y137682D01*
X182970Y137608D01*
X182998Y137533D01*
X183022Y137456D01*
X183043Y137378D01*
X183060Y137299D01*
X183074Y137220D01*
X183083Y137140D01*
X183089Y137060D01*
X183091Y136979D01*
X183092Y136979D02*
X183092Y135286D01*
X181060Y141737D02*
X179705Y143431D01*
X185801Y143431D01*
X185801Y145124D02*
X185801Y141737D01*
X179705Y150458D02*
X179707Y150535D01*
X179713Y150612D01*
X179723Y150689D01*
X179736Y150765D01*
X179754Y150840D01*
X179775Y150914D01*
X179800Y150987D01*
X179829Y151059D01*
X179861Y151129D01*
X179896Y151198D01*
X179936Y151264D01*
X179978Y151329D01*
X180024Y151391D01*
X180073Y151451D01*
X180124Y151508D01*
X180179Y151563D01*
X180236Y151614D01*
X180296Y151663D01*
X180358Y151709D01*
X180423Y151751D01*
X180489Y151791D01*
X180558Y151826D01*
X180628Y151858D01*
X180700Y151887D01*
X180773Y151912D01*
X180847Y151933D01*
X180922Y151951D01*
X180998Y151964D01*
X181075Y151974D01*
X181152Y151980D01*
X181229Y151982D01*
X179705Y150458D02*
X179707Y150373D01*
X179712Y150288D01*
X179722Y150204D01*
X179734Y150120D01*
X179751Y150037D01*
X179771Y149954D01*
X179795Y149873D01*
X179822Y149792D01*
X179852Y149713D01*
X179886Y149635D01*
X179924Y149559D01*
X179964Y149484D01*
X180008Y149412D01*
X180055Y149341D01*
X180105Y149272D01*
X180158Y149206D01*
X180213Y149142D01*
X180272Y149080D01*
X180333Y149021D01*
X180396Y148965D01*
X180462Y148911D01*
X180531Y148861D01*
X180601Y148813D01*
X180673Y148769D01*
X180747Y148727D01*
X180823Y148689D01*
X180901Y148655D01*
X180980Y148623D01*
X181060Y148595D01*
X182414Y151474D02*
X182359Y151529D01*
X182302Y151582D01*
X182242Y151631D01*
X182179Y151678D01*
X182115Y151722D01*
X182048Y151762D01*
X181980Y151800D01*
X181910Y151834D01*
X181838Y151865D01*
X181765Y151892D01*
X181691Y151916D01*
X181615Y151936D01*
X181539Y151952D01*
X181462Y151965D01*
X181385Y151975D01*
X181307Y151980D01*
X181229Y151982D01*
X182414Y151474D02*
X185801Y148595D01*
X185801Y151982D01*
X120052Y131953D02*
X120052Y127212D01*
X120053Y127212D02*
X120051Y127141D01*
X120046Y127070D01*
X120036Y127000D01*
X120023Y126930D01*
X120007Y126861D01*
X119987Y126793D01*
X119963Y126726D01*
X119936Y126661D01*
X119905Y126597D01*
X119871Y126534D01*
X119834Y126474D01*
X119794Y126416D01*
X119751Y126359D01*
X119705Y126305D01*
X119656Y126254D01*
X119605Y126205D01*
X119551Y126159D01*
X119494Y126116D01*
X119436Y126076D01*
X119375Y126039D01*
X119313Y126005D01*
X119249Y125974D01*
X119184Y125947D01*
X119117Y125923D01*
X119049Y125903D01*
X118980Y125887D01*
X118910Y125874D01*
X118840Y125864D01*
X118769Y125859D01*
X118698Y125857D01*
X118697Y125857D02*
X118020Y125857D01*
X124110Y125857D02*
X124110Y131953D01*
X125803Y131953D01*
X125884Y131951D01*
X125964Y131945D01*
X126044Y131936D01*
X126123Y131922D01*
X126202Y131905D01*
X126280Y131884D01*
X126357Y131860D01*
X126432Y131832D01*
X126506Y131800D01*
X126579Y131765D01*
X126649Y131726D01*
X126718Y131684D01*
X126785Y131639D01*
X126850Y131591D01*
X126912Y131539D01*
X126971Y131485D01*
X127028Y131428D01*
X127082Y131369D01*
X127134Y131307D01*
X127182Y131242D01*
X127227Y131175D01*
X127269Y131107D01*
X127308Y131036D01*
X127343Y130963D01*
X127375Y130889D01*
X127403Y130814D01*
X127427Y130737D01*
X127448Y130659D01*
X127465Y130580D01*
X127479Y130501D01*
X127488Y130421D01*
X127494Y130341D01*
X127496Y130260D01*
X127494Y130179D01*
X127488Y130099D01*
X127479Y130019D01*
X127465Y129940D01*
X127448Y129861D01*
X127427Y129783D01*
X127403Y129706D01*
X127375Y129631D01*
X127343Y129557D01*
X127308Y129484D01*
X127269Y129414D01*
X127227Y129345D01*
X127182Y129278D01*
X127134Y129213D01*
X127082Y129151D01*
X127028Y129092D01*
X126971Y129035D01*
X126912Y128981D01*
X126850Y128929D01*
X126785Y128881D01*
X126718Y128836D01*
X126650Y128794D01*
X126579Y128755D01*
X126506Y128720D01*
X126432Y128688D01*
X126357Y128660D01*
X126280Y128636D01*
X126202Y128615D01*
X126123Y128598D01*
X126044Y128584D01*
X125964Y128575D01*
X125884Y128569D01*
X125803Y128567D01*
X125803Y128566D02*
X124110Y128566D01*
X130561Y130598D02*
X132255Y131953D01*
X132255Y125857D01*
X133948Y125857D02*
X130561Y125857D01*
X137419Y125857D02*
X139113Y125857D01*
X139194Y125859D01*
X139274Y125865D01*
X139354Y125874D01*
X139433Y125888D01*
X139512Y125905D01*
X139590Y125926D01*
X139667Y125950D01*
X139742Y125978D01*
X139816Y126010D01*
X139889Y126045D01*
X139960Y126084D01*
X140028Y126126D01*
X140095Y126171D01*
X140160Y126219D01*
X140222Y126271D01*
X140281Y126325D01*
X140338Y126382D01*
X140392Y126441D01*
X140444Y126503D01*
X140492Y126568D01*
X140537Y126635D01*
X140579Y126704D01*
X140618Y126774D01*
X140653Y126847D01*
X140685Y126921D01*
X140713Y126996D01*
X140737Y127073D01*
X140758Y127151D01*
X140775Y127230D01*
X140789Y127309D01*
X140798Y127389D01*
X140804Y127469D01*
X140806Y127550D01*
X140804Y127631D01*
X140798Y127711D01*
X140789Y127791D01*
X140775Y127870D01*
X140758Y127949D01*
X140737Y128027D01*
X140713Y128104D01*
X140685Y128179D01*
X140653Y128253D01*
X140618Y128326D01*
X140579Y128397D01*
X140537Y128465D01*
X140492Y128532D01*
X140444Y128597D01*
X140392Y128659D01*
X140338Y128718D01*
X140281Y128775D01*
X140222Y128829D01*
X140160Y128881D01*
X140095Y128929D01*
X140028Y128974D01*
X139959Y129016D01*
X139889Y129055D01*
X139816Y129090D01*
X139742Y129122D01*
X139667Y129150D01*
X139590Y129174D01*
X139512Y129195D01*
X139433Y129212D01*
X139354Y129226D01*
X139274Y129235D01*
X139194Y129241D01*
X139113Y129243D01*
X139451Y131953D02*
X137419Y131953D01*
X139451Y131953D02*
X139523Y131951D01*
X139595Y131945D01*
X139667Y131936D01*
X139737Y131922D01*
X139808Y131905D01*
X139877Y131884D01*
X139944Y131860D01*
X140011Y131832D01*
X140076Y131800D01*
X140139Y131765D01*
X140200Y131727D01*
X140259Y131686D01*
X140316Y131641D01*
X140370Y131594D01*
X140422Y131543D01*
X140471Y131490D01*
X140517Y131435D01*
X140560Y131377D01*
X140600Y131317D01*
X140636Y131255D01*
X140670Y131191D01*
X140699Y131125D01*
X140726Y131058D01*
X140748Y130989D01*
X140767Y130920D01*
X140783Y130849D01*
X140794Y130778D01*
X140802Y130706D01*
X140806Y130634D01*
X140806Y130562D01*
X140802Y130490D01*
X140794Y130418D01*
X140783Y130347D01*
X140767Y130276D01*
X140748Y130207D01*
X140726Y130138D01*
X140699Y130071D01*
X140670Y130005D01*
X140636Y129941D01*
X140600Y129879D01*
X140560Y129819D01*
X140517Y129761D01*
X140471Y129706D01*
X140422Y129653D01*
X140370Y129602D01*
X140316Y129555D01*
X140259Y129510D01*
X140200Y129469D01*
X140139Y129431D01*
X140076Y129396D01*
X140011Y129364D01*
X139944Y129336D01*
X139877Y129312D01*
X139808Y129291D01*
X139737Y129274D01*
X139667Y129260D01*
X139595Y129251D01*
X139523Y129245D01*
X139451Y129243D01*
X139451Y129244D02*
X138097Y129244D01*
X234225Y109601D02*
X234225Y104860D01*
X234226Y104860D02*
X234224Y104789D01*
X234219Y104718D01*
X234209Y104648D01*
X234196Y104578D01*
X234180Y104509D01*
X234160Y104441D01*
X234136Y104374D01*
X234109Y104309D01*
X234078Y104245D01*
X234044Y104182D01*
X234007Y104122D01*
X233967Y104064D01*
X233924Y104007D01*
X233878Y103953D01*
X233829Y103902D01*
X233778Y103853D01*
X233724Y103807D01*
X233667Y103764D01*
X233609Y103724D01*
X233548Y103687D01*
X233486Y103653D01*
X233422Y103622D01*
X233357Y103595D01*
X233290Y103571D01*
X233222Y103551D01*
X233153Y103535D01*
X233083Y103522D01*
X233013Y103512D01*
X232942Y103507D01*
X232871Y103505D01*
X232870Y103505D02*
X232193Y103505D01*
X238283Y103505D02*
X238283Y109601D01*
X239976Y109601D01*
X240057Y109599D01*
X240137Y109593D01*
X240217Y109584D01*
X240296Y109570D01*
X240375Y109553D01*
X240453Y109532D01*
X240530Y109508D01*
X240605Y109480D01*
X240679Y109448D01*
X240752Y109413D01*
X240822Y109374D01*
X240891Y109332D01*
X240958Y109287D01*
X241023Y109239D01*
X241085Y109187D01*
X241144Y109133D01*
X241201Y109076D01*
X241255Y109017D01*
X241307Y108955D01*
X241355Y108890D01*
X241400Y108823D01*
X241442Y108755D01*
X241481Y108684D01*
X241516Y108611D01*
X241548Y108537D01*
X241576Y108462D01*
X241600Y108385D01*
X241621Y108307D01*
X241638Y108228D01*
X241652Y108149D01*
X241661Y108069D01*
X241667Y107989D01*
X241669Y107908D01*
X241667Y107827D01*
X241661Y107747D01*
X241652Y107667D01*
X241638Y107588D01*
X241621Y107509D01*
X241600Y107431D01*
X241576Y107354D01*
X241548Y107279D01*
X241516Y107205D01*
X241481Y107132D01*
X241442Y107062D01*
X241400Y106993D01*
X241355Y106926D01*
X241307Y106861D01*
X241255Y106799D01*
X241201Y106740D01*
X241144Y106683D01*
X241085Y106629D01*
X241023Y106577D01*
X240958Y106529D01*
X240891Y106484D01*
X240823Y106442D01*
X240752Y106403D01*
X240679Y106368D01*
X240605Y106336D01*
X240530Y106308D01*
X240453Y106284D01*
X240375Y106263D01*
X240296Y106246D01*
X240217Y106232D01*
X240137Y106223D01*
X240057Y106217D01*
X239976Y106215D01*
X239976Y106214D02*
X238283Y106214D01*
X244734Y103505D02*
X246428Y103505D01*
X246509Y103507D01*
X246589Y103513D01*
X246669Y103522D01*
X246748Y103536D01*
X246827Y103553D01*
X246905Y103574D01*
X246982Y103598D01*
X247057Y103626D01*
X247131Y103658D01*
X247204Y103693D01*
X247275Y103732D01*
X247343Y103774D01*
X247410Y103819D01*
X247475Y103867D01*
X247537Y103919D01*
X247596Y103973D01*
X247653Y104030D01*
X247707Y104089D01*
X247759Y104151D01*
X247807Y104216D01*
X247852Y104283D01*
X247894Y104352D01*
X247933Y104422D01*
X247968Y104495D01*
X248000Y104569D01*
X248028Y104644D01*
X248052Y104721D01*
X248073Y104799D01*
X248090Y104878D01*
X248104Y104957D01*
X248113Y105037D01*
X248119Y105117D01*
X248121Y105198D01*
X248119Y105279D01*
X248113Y105359D01*
X248104Y105439D01*
X248090Y105518D01*
X248073Y105597D01*
X248052Y105675D01*
X248028Y105752D01*
X248000Y105827D01*
X247968Y105901D01*
X247933Y105974D01*
X247894Y106045D01*
X247852Y106113D01*
X247807Y106180D01*
X247759Y106245D01*
X247707Y106307D01*
X247653Y106366D01*
X247596Y106423D01*
X247537Y106477D01*
X247475Y106529D01*
X247410Y106577D01*
X247343Y106622D01*
X247274Y106664D01*
X247204Y106703D01*
X247131Y106738D01*
X247057Y106770D01*
X246982Y106798D01*
X246905Y106822D01*
X246827Y106843D01*
X246748Y106860D01*
X246669Y106874D01*
X246589Y106883D01*
X246509Y106889D01*
X246428Y106891D01*
X246766Y109601D02*
X244734Y109601D01*
X246766Y109601D02*
X246838Y109599D01*
X246910Y109593D01*
X246982Y109584D01*
X247052Y109570D01*
X247123Y109553D01*
X247192Y109532D01*
X247259Y109508D01*
X247326Y109480D01*
X247391Y109448D01*
X247454Y109413D01*
X247515Y109375D01*
X247574Y109334D01*
X247631Y109289D01*
X247685Y109242D01*
X247737Y109191D01*
X247786Y109138D01*
X247832Y109083D01*
X247875Y109025D01*
X247915Y108965D01*
X247951Y108903D01*
X247985Y108839D01*
X248014Y108773D01*
X248041Y108706D01*
X248063Y108637D01*
X248082Y108568D01*
X248098Y108497D01*
X248109Y108426D01*
X248117Y108354D01*
X248121Y108282D01*
X248121Y108210D01*
X248117Y108138D01*
X248109Y108066D01*
X248098Y107995D01*
X248082Y107924D01*
X248063Y107855D01*
X248041Y107786D01*
X248014Y107719D01*
X247985Y107653D01*
X247951Y107589D01*
X247915Y107527D01*
X247875Y107467D01*
X247832Y107409D01*
X247786Y107354D01*
X247737Y107301D01*
X247685Y107250D01*
X247631Y107203D01*
X247574Y107158D01*
X247515Y107117D01*
X247454Y107079D01*
X247391Y107044D01*
X247326Y107012D01*
X247259Y106984D01*
X247192Y106960D01*
X247123Y106939D01*
X247052Y106922D01*
X246982Y106908D01*
X246910Y106899D01*
X246838Y106893D01*
X246766Y106891D01*
X246766Y106892D02*
X245412Y106892D01*
X52742Y84201D02*
X52742Y79460D01*
X52743Y79460D02*
X52741Y79389D01*
X52736Y79318D01*
X52726Y79248D01*
X52713Y79178D01*
X52697Y79109D01*
X52677Y79041D01*
X52653Y78974D01*
X52626Y78909D01*
X52595Y78845D01*
X52561Y78782D01*
X52524Y78722D01*
X52484Y78664D01*
X52441Y78607D01*
X52395Y78553D01*
X52346Y78502D01*
X52295Y78453D01*
X52241Y78407D01*
X52184Y78364D01*
X52126Y78324D01*
X52065Y78287D01*
X52003Y78253D01*
X51939Y78222D01*
X51874Y78195D01*
X51807Y78171D01*
X51739Y78151D01*
X51670Y78135D01*
X51600Y78122D01*
X51530Y78112D01*
X51459Y78107D01*
X51388Y78105D01*
X51387Y78105D02*
X50710Y78105D01*
X56800Y78105D02*
X56800Y84201D01*
X58493Y84201D01*
X58574Y84199D01*
X58654Y84193D01*
X58734Y84184D01*
X58813Y84170D01*
X58892Y84153D01*
X58970Y84132D01*
X59047Y84108D01*
X59122Y84080D01*
X59196Y84048D01*
X59269Y84013D01*
X59339Y83974D01*
X59408Y83932D01*
X59475Y83887D01*
X59540Y83839D01*
X59602Y83787D01*
X59661Y83733D01*
X59718Y83676D01*
X59772Y83617D01*
X59824Y83555D01*
X59872Y83490D01*
X59917Y83423D01*
X59959Y83355D01*
X59998Y83284D01*
X60033Y83211D01*
X60065Y83137D01*
X60093Y83062D01*
X60117Y82985D01*
X60138Y82907D01*
X60155Y82828D01*
X60169Y82749D01*
X60178Y82669D01*
X60184Y82589D01*
X60186Y82508D01*
X60184Y82427D01*
X60178Y82347D01*
X60169Y82267D01*
X60155Y82188D01*
X60138Y82109D01*
X60117Y82031D01*
X60093Y81954D01*
X60065Y81879D01*
X60033Y81805D01*
X59998Y81732D01*
X59959Y81662D01*
X59917Y81593D01*
X59872Y81526D01*
X59824Y81461D01*
X59772Y81399D01*
X59718Y81340D01*
X59661Y81283D01*
X59602Y81229D01*
X59540Y81177D01*
X59475Y81129D01*
X59408Y81084D01*
X59340Y81042D01*
X59269Y81003D01*
X59196Y80968D01*
X59122Y80936D01*
X59047Y80908D01*
X58970Y80884D01*
X58892Y80863D01*
X58813Y80846D01*
X58734Y80832D01*
X58654Y80823D01*
X58574Y80817D01*
X58493Y80815D01*
X58493Y80814D02*
X56800Y80814D01*
X63251Y78105D02*
X65283Y78105D01*
X65354Y78107D01*
X65425Y78112D01*
X65495Y78122D01*
X65565Y78135D01*
X65634Y78151D01*
X65702Y78171D01*
X65769Y78195D01*
X65834Y78222D01*
X65898Y78253D01*
X65961Y78287D01*
X66021Y78324D01*
X66079Y78364D01*
X66136Y78407D01*
X66190Y78453D01*
X66241Y78502D01*
X66290Y78553D01*
X66336Y78607D01*
X66379Y78664D01*
X66419Y78722D01*
X66456Y78783D01*
X66490Y78845D01*
X66521Y78909D01*
X66548Y78974D01*
X66572Y79041D01*
X66592Y79109D01*
X66608Y79178D01*
X66621Y79248D01*
X66631Y79318D01*
X66636Y79389D01*
X66638Y79460D01*
X66638Y80137D01*
X66636Y80208D01*
X66631Y80279D01*
X66621Y80349D01*
X66608Y80419D01*
X66592Y80488D01*
X66572Y80556D01*
X66548Y80623D01*
X66521Y80688D01*
X66490Y80752D01*
X66456Y80815D01*
X66419Y80875D01*
X66379Y80933D01*
X66336Y80990D01*
X66290Y81044D01*
X66241Y81095D01*
X66190Y81144D01*
X66136Y81190D01*
X66079Y81233D01*
X66021Y81273D01*
X65961Y81310D01*
X65898Y81344D01*
X65834Y81375D01*
X65769Y81402D01*
X65702Y81426D01*
X65634Y81446D01*
X65565Y81462D01*
X65495Y81475D01*
X65425Y81485D01*
X65354Y81490D01*
X65283Y81492D01*
X63251Y81492D01*
X63251Y84201D01*
X66638Y84201D01*
X204470Y310298D02*
X209211Y310298D01*
X209282Y310296D01*
X209353Y310291D01*
X209423Y310281D01*
X209493Y310268D01*
X209562Y310252D01*
X209630Y310232D01*
X209697Y310208D01*
X209762Y310181D01*
X209826Y310150D01*
X209889Y310116D01*
X209949Y310079D01*
X210007Y310039D01*
X210064Y309996D01*
X210118Y309950D01*
X210169Y309901D01*
X210218Y309850D01*
X210264Y309796D01*
X210307Y309739D01*
X210347Y309681D01*
X210384Y309620D01*
X210418Y309558D01*
X210449Y309494D01*
X210476Y309429D01*
X210500Y309362D01*
X210520Y309294D01*
X210536Y309225D01*
X210549Y309155D01*
X210559Y309085D01*
X210564Y309014D01*
X210566Y308943D01*
X210566Y308266D01*
X210566Y314356D02*
X204470Y314356D01*
X204470Y316049D01*
X204472Y316130D01*
X204478Y316210D01*
X204487Y316290D01*
X204501Y316369D01*
X204518Y316448D01*
X204539Y316526D01*
X204563Y316603D01*
X204591Y316678D01*
X204623Y316752D01*
X204658Y316825D01*
X204697Y316896D01*
X204739Y316964D01*
X204784Y317031D01*
X204832Y317096D01*
X204884Y317158D01*
X204938Y317217D01*
X204995Y317274D01*
X205054Y317328D01*
X205116Y317380D01*
X205181Y317428D01*
X205248Y317473D01*
X205317Y317515D01*
X205387Y317554D01*
X205460Y317589D01*
X205534Y317621D01*
X205609Y317649D01*
X205686Y317673D01*
X205764Y317694D01*
X205843Y317711D01*
X205922Y317725D01*
X206002Y317734D01*
X206082Y317740D01*
X206163Y317742D01*
X206244Y317740D01*
X206324Y317734D01*
X206404Y317725D01*
X206483Y317711D01*
X206562Y317694D01*
X206640Y317673D01*
X206717Y317649D01*
X206792Y317621D01*
X206866Y317589D01*
X206939Y317554D01*
X207010Y317515D01*
X207078Y317473D01*
X207145Y317428D01*
X207210Y317380D01*
X207272Y317328D01*
X207331Y317274D01*
X207388Y317217D01*
X207442Y317158D01*
X207494Y317096D01*
X207542Y317031D01*
X207587Y316964D01*
X207629Y316896D01*
X207668Y316825D01*
X207703Y316752D01*
X207735Y316678D01*
X207763Y316603D01*
X207787Y316526D01*
X207808Y316448D01*
X207825Y316369D01*
X207839Y316290D01*
X207848Y316210D01*
X207854Y316130D01*
X207856Y316049D01*
X207857Y316049D02*
X207857Y314356D01*
X207179Y320807D02*
X207179Y322839D01*
X207181Y322910D01*
X207186Y322981D01*
X207196Y323051D01*
X207209Y323121D01*
X207225Y323190D01*
X207245Y323258D01*
X207269Y323325D01*
X207296Y323390D01*
X207327Y323454D01*
X207361Y323517D01*
X207398Y323577D01*
X207438Y323635D01*
X207481Y323692D01*
X207527Y323746D01*
X207576Y323797D01*
X207627Y323846D01*
X207681Y323892D01*
X207738Y323935D01*
X207796Y323975D01*
X207857Y324012D01*
X207919Y324046D01*
X207983Y324077D01*
X208048Y324104D01*
X208115Y324128D01*
X208183Y324148D01*
X208252Y324164D01*
X208322Y324177D01*
X208392Y324187D01*
X208463Y324192D01*
X208534Y324194D01*
X208873Y324194D01*
X208954Y324192D01*
X209034Y324186D01*
X209114Y324177D01*
X209193Y324163D01*
X209272Y324146D01*
X209350Y324125D01*
X209427Y324101D01*
X209502Y324073D01*
X209576Y324041D01*
X209649Y324006D01*
X209719Y323967D01*
X209788Y323925D01*
X209855Y323880D01*
X209920Y323832D01*
X209982Y323780D01*
X210041Y323726D01*
X210098Y323669D01*
X210152Y323610D01*
X210204Y323548D01*
X210252Y323483D01*
X210297Y323416D01*
X210339Y323348D01*
X210378Y323277D01*
X210413Y323204D01*
X210445Y323130D01*
X210473Y323055D01*
X210497Y322978D01*
X210518Y322900D01*
X210535Y322821D01*
X210549Y322742D01*
X210558Y322662D01*
X210564Y322582D01*
X210566Y322501D01*
X210564Y322420D01*
X210558Y322340D01*
X210549Y322260D01*
X210535Y322181D01*
X210518Y322102D01*
X210497Y322024D01*
X210473Y321947D01*
X210445Y321872D01*
X210413Y321798D01*
X210378Y321725D01*
X210339Y321655D01*
X210297Y321586D01*
X210252Y321519D01*
X210204Y321454D01*
X210152Y321392D01*
X210098Y321333D01*
X210041Y321276D01*
X209982Y321222D01*
X209920Y321170D01*
X209855Y321122D01*
X209788Y321077D01*
X209720Y321035D01*
X209649Y320996D01*
X209576Y320961D01*
X209502Y320929D01*
X209427Y320901D01*
X209350Y320877D01*
X209272Y320856D01*
X209193Y320839D01*
X209114Y320825D01*
X209034Y320816D01*
X208954Y320810D01*
X208873Y320808D01*
X208873Y320807D02*
X207179Y320807D01*
X207179Y320808D02*
X207075Y320810D01*
X206972Y320816D01*
X206868Y320826D01*
X206765Y320840D01*
X206663Y320858D01*
X206562Y320879D01*
X206461Y320905D01*
X206362Y320934D01*
X206263Y320967D01*
X206166Y321004D01*
X206071Y321045D01*
X205977Y321089D01*
X205885Y321137D01*
X205795Y321188D01*
X205706Y321243D01*
X205620Y321301D01*
X205537Y321363D01*
X205455Y321427D01*
X205377Y321495D01*
X205301Y321565D01*
X205227Y321638D01*
X205157Y321715D01*
X205089Y321793D01*
X205025Y321875D01*
X204963Y321958D01*
X204905Y322044D01*
X204850Y322133D01*
X204799Y322223D01*
X204751Y322315D01*
X204707Y322409D01*
X204666Y322504D01*
X204629Y322601D01*
X204596Y322700D01*
X204567Y322799D01*
X204541Y322900D01*
X204520Y323001D01*
X204502Y323103D01*
X204488Y323206D01*
X204478Y323310D01*
X204472Y323413D01*
X204470Y323517D01*
D11*
X212644Y356110D02*
X186644Y356110D01*
X186644Y388110D01*
X212644Y388110D01*
X212644Y356110D01*
D15*
X215644Y360110D02*
X215646Y360173D01*
X215652Y360235D01*
X215662Y360297D01*
X215675Y360359D01*
X215693Y360419D01*
X215714Y360478D01*
X215739Y360536D01*
X215768Y360592D01*
X215800Y360646D01*
X215835Y360698D01*
X215873Y360747D01*
X215915Y360795D01*
X215959Y360839D01*
X216007Y360881D01*
X216056Y360919D01*
X216108Y360954D01*
X216162Y360986D01*
X216218Y361015D01*
X216276Y361040D01*
X216335Y361061D01*
X216395Y361079D01*
X216457Y361092D01*
X216519Y361102D01*
X216581Y361108D01*
X216644Y361110D01*
X216707Y361108D01*
X216769Y361102D01*
X216831Y361092D01*
X216893Y361079D01*
X216953Y361061D01*
X217012Y361040D01*
X217070Y361015D01*
X217126Y360986D01*
X217180Y360954D01*
X217232Y360919D01*
X217281Y360881D01*
X217329Y360839D01*
X217373Y360795D01*
X217415Y360747D01*
X217453Y360698D01*
X217488Y360646D01*
X217520Y360592D01*
X217549Y360536D01*
X217574Y360478D01*
X217595Y360419D01*
X217613Y360359D01*
X217626Y360297D01*
X217636Y360235D01*
X217642Y360173D01*
X217644Y360110D01*
X217642Y360047D01*
X217636Y359985D01*
X217626Y359923D01*
X217613Y359861D01*
X217595Y359801D01*
X217574Y359742D01*
X217549Y359684D01*
X217520Y359628D01*
X217488Y359574D01*
X217453Y359522D01*
X217415Y359473D01*
X217373Y359425D01*
X217329Y359381D01*
X217281Y359339D01*
X217232Y359301D01*
X217180Y359266D01*
X217126Y359234D01*
X217070Y359205D01*
X217012Y359180D01*
X216953Y359159D01*
X216893Y359141D01*
X216831Y359128D01*
X216769Y359118D01*
X216707Y359112D01*
X216644Y359110D01*
X216581Y359112D01*
X216519Y359118D01*
X216457Y359128D01*
X216395Y359141D01*
X216335Y359159D01*
X216276Y359180D01*
X216218Y359205D01*
X216162Y359234D01*
X216108Y359266D01*
X216056Y359301D01*
X216007Y359339D01*
X215959Y359381D01*
X215915Y359425D01*
X215873Y359473D01*
X215835Y359522D01*
X215800Y359574D01*
X215768Y359628D01*
X215739Y359684D01*
X215714Y359742D01*
X215693Y359801D01*
X215675Y359861D01*
X215662Y359923D01*
X215652Y359985D01*
X215646Y360047D01*
X215644Y360110D01*
D14*
X185212Y362285D02*
X179116Y362285D01*
X182503Y364317D01*
X179116Y366349D01*
X185212Y366349D01*
X185212Y370574D02*
X179116Y370574D01*
X179116Y373960D02*
X182841Y370574D01*
X181487Y371928D02*
X185212Y373960D01*
X180471Y377025D02*
X179116Y378719D01*
X185212Y378719D01*
X185212Y380412D02*
X185212Y377025D01*
D10*
X190517Y220273D02*
X190517Y211273D01*
X190517Y220273D02*
X208517Y220273D01*
X208517Y211273D01*
X190517Y211273D01*
X176331Y222521D02*
X167331Y222521D01*
X167331Y240521D01*
X176331Y240521D01*
X176331Y222521D01*
D14*
X325966Y204869D02*
X331046Y204860D01*
X290406Y204931D02*
X285326Y204940D01*
X308199Y212520D02*
X308204Y215060D01*
X308173Y197280D02*
X308168Y194740D01*
D11*
X318967Y197925D02*
X318346Y204882D01*
X318347Y204882D02*
X318347Y204882D01*
X318992Y211837D01*
X319162Y211819D01*
X319332Y211797D01*
X319500Y211771D01*
X319669Y211741D01*
X319836Y211706D01*
X320002Y211668D01*
X320168Y211625D01*
X320332Y211579D01*
X320495Y211528D01*
X320657Y211473D01*
X320818Y211415D01*
X320977Y211353D01*
X321134Y211286D01*
X321290Y211216D01*
X321444Y211142D01*
X321596Y211065D01*
X321747Y210983D01*
X321895Y210898D01*
X322041Y210810D01*
X322185Y210718D01*
X322326Y210622D01*
X322466Y210523D01*
X322602Y210420D01*
X322737Y210315D01*
X322868Y210206D01*
X322997Y210093D01*
X323123Y209978D01*
X323246Y209860D01*
X323367Y209738D01*
X323484Y209614D01*
X323598Y209487D01*
X323709Y209357D01*
X323817Y209225D01*
X323922Y209090D01*
X324023Y208952D01*
X324121Y208812D01*
X324215Y208669D01*
X324306Y208525D01*
X324393Y208378D01*
X324477Y208229D01*
X324557Y208078D01*
X324633Y207925D01*
X324706Y207770D01*
X324775Y207614D01*
X324839Y207456D01*
X324900Y207296D01*
X324958Y207135D01*
X325011Y206973D01*
X325060Y206809D01*
X325105Y206645D01*
X325146Y206479D01*
X325183Y206312D01*
X325216Y206144D01*
X325245Y205976D01*
X325270Y205807D01*
X325290Y205637D01*
X325306Y205467D01*
X325319Y205297D01*
X325327Y205126D01*
X325331Y204955D01*
X325330Y204784D01*
X325326Y204614D01*
X325317Y204443D01*
X325304Y204273D01*
X325287Y204103D01*
X325266Y203933D01*
X325241Y203764D01*
X325212Y203596D01*
X325178Y203428D01*
X325140Y203262D01*
X325099Y203096D01*
X325053Y202931D01*
X325003Y202768D01*
X324950Y202606D01*
X324892Y202445D01*
X324830Y202285D01*
X324765Y202128D01*
X324696Y201971D01*
X324623Y201817D01*
X324546Y201664D01*
X324465Y201514D01*
X324381Y201365D01*
X324293Y201218D01*
X324202Y201074D01*
X324107Y200932D01*
X324009Y200792D01*
X323907Y200655D01*
X323802Y200520D01*
X323693Y200388D01*
X323582Y200259D01*
X323467Y200132D01*
X323350Y200008D01*
X323229Y199887D01*
X323105Y199769D01*
X322979Y199654D01*
X322850Y199543D01*
X322718Y199434D01*
X322583Y199329D01*
X322446Y199227D01*
X322306Y199128D01*
X322164Y199033D01*
X322020Y198941D01*
X321874Y198853D01*
X321725Y198769D01*
X321575Y198688D01*
X321422Y198611D01*
X321268Y198538D01*
X321112Y198468D01*
X320954Y198402D01*
X320795Y198340D01*
X320634Y198282D01*
X320472Y198228D01*
X320309Y198178D01*
X320144Y198132D01*
X319979Y198090D01*
X319812Y198053D01*
X319645Y198019D01*
X319476Y197989D01*
X319307Y197963D01*
X319138Y197942D01*
X318968Y197925D01*
X318970Y199137D01*
X319119Y199155D01*
X319268Y199177D01*
X319417Y199203D01*
X319565Y199233D01*
X319712Y199267D01*
X319858Y199304D01*
X320003Y199346D01*
X320147Y199391D01*
X320289Y199439D01*
X320430Y199492D01*
X320570Y199548D01*
X320709Y199608D01*
X320845Y199671D01*
X320981Y199738D01*
X321114Y199809D01*
X321245Y199883D01*
X321375Y199960D01*
X321502Y200041D01*
X321627Y200125D01*
X321750Y200212D01*
X321871Y200302D01*
X321989Y200396D01*
X322105Y200492D01*
X322218Y200592D01*
X322329Y200694D01*
X322437Y200800D01*
X322542Y200908D01*
X322644Y201019D01*
X322743Y201132D01*
X322839Y201248D01*
X322933Y201367D01*
X323023Y201487D01*
X323110Y201611D01*
X323194Y201736D01*
X323274Y201863D01*
X323351Y201993D01*
X323425Y202125D01*
X323495Y202258D01*
X323562Y202393D01*
X323625Y202530D01*
X323684Y202669D01*
X323740Y202809D01*
X323792Y202950D01*
X323841Y203093D01*
X323886Y203237D01*
X323927Y203382D01*
X323964Y203528D01*
X323997Y203675D01*
X324027Y203823D01*
X324053Y203971D01*
X324075Y204120D01*
X324093Y204270D01*
X324107Y204420D01*
X324117Y204571D01*
X324123Y204721D01*
X324125Y204872D01*
X324123Y205023D01*
X324118Y205173D01*
X324108Y205324D01*
X324095Y205474D01*
X324077Y205624D01*
X324056Y205773D01*
X324031Y205922D01*
X324002Y206069D01*
X323969Y206217D01*
X323932Y206363D01*
X323892Y206508D01*
X323847Y206652D01*
X323799Y206795D01*
X323747Y206937D01*
X323692Y207077D01*
X323633Y207216D01*
X323570Y207353D01*
X323504Y207488D01*
X323434Y207622D01*
X323361Y207754D01*
X323284Y207883D01*
X323205Y208011D01*
X323121Y208137D01*
X323035Y208260D01*
X322945Y208381D01*
X322852Y208500D01*
X322756Y208617D01*
X322657Y208730D01*
X322555Y208841D01*
X322451Y208950D01*
X322343Y209056D01*
X322233Y209158D01*
X322120Y209258D01*
X322005Y209355D01*
X321887Y209449D01*
X321766Y209540D01*
X321644Y209628D01*
X321519Y209712D01*
X321392Y209793D01*
X321263Y209871D01*
X321132Y209945D01*
X320998Y210016D01*
X320864Y210084D01*
X320727Y210148D01*
X320589Y210208D01*
X320449Y210265D01*
X320308Y210318D01*
X320166Y210367D01*
X320022Y210413D01*
X319877Y210454D01*
X319731Y210493D01*
X319584Y210527D01*
X319437Y210557D01*
X319288Y210584D01*
X319139Y210606D01*
X318990Y210625D01*
X318987Y209410D01*
X319119Y209389D01*
X319250Y209365D01*
X319381Y209336D01*
X319511Y209304D01*
X319639Y209268D01*
X319767Y209229D01*
X319893Y209185D01*
X320018Y209138D01*
X320142Y209088D01*
X320264Y209033D01*
X320385Y208975D01*
X320503Y208914D01*
X320620Y208849D01*
X320735Y208781D01*
X320848Y208710D01*
X320959Y208635D01*
X321067Y208557D01*
X321174Y208476D01*
X321277Y208392D01*
X321379Y208305D01*
X321477Y208215D01*
X321574Y208122D01*
X321667Y208026D01*
X321757Y207928D01*
X321845Y207827D01*
X321929Y207723D01*
X322011Y207617D01*
X322089Y207509D01*
X322164Y207398D01*
X322236Y207286D01*
X322305Y207171D01*
X322370Y207055D01*
X322432Y206936D01*
X322490Y206816D01*
X322545Y206694D01*
X322596Y206570D01*
X322643Y206445D01*
X322687Y206319D01*
X322727Y206192D01*
X322764Y206063D01*
X322796Y205934D01*
X322825Y205803D01*
X322850Y205672D01*
X322871Y205540D01*
X322889Y205407D01*
X322902Y205274D01*
X322912Y205141D01*
X322917Y205008D01*
X322919Y204874D01*
X322917Y204740D01*
X322911Y204607D01*
X322901Y204474D01*
X322887Y204341D01*
X322869Y204208D01*
X322847Y204076D01*
X322822Y203945D01*
X322793Y203815D01*
X322760Y203685D01*
X322723Y203557D01*
X322682Y203430D01*
X322638Y203304D01*
X322590Y203179D01*
X322538Y203056D01*
X322483Y202934D01*
X322425Y202814D01*
X322362Y202695D01*
X322297Y202579D01*
X322228Y202465D01*
X322156Y202352D01*
X322080Y202242D01*
X322001Y202134D01*
X321919Y202028D01*
X321834Y201925D01*
X321747Y201824D01*
X321656Y201726D01*
X321562Y201631D01*
X321466Y201538D01*
X321367Y201449D01*
X321265Y201362D01*
X321161Y201278D01*
X321055Y201197D01*
X320946Y201120D01*
X320835Y201046D01*
X320722Y200974D01*
X320606Y200907D01*
X320489Y200842D01*
X320370Y200781D01*
X320250Y200724D01*
X320127Y200670D01*
X320003Y200620D01*
X319878Y200573D01*
X319752Y200530D01*
X319624Y200491D01*
X319495Y200456D01*
X319365Y200424D01*
X319235Y200396D01*
X319103Y200372D01*
X318971Y200352D01*
X318971Y201574D01*
X319084Y201597D01*
X319196Y201624D01*
X319306Y201655D01*
X319416Y201690D01*
X319524Y201728D01*
X319631Y201770D01*
X319737Y201816D01*
X319840Y201865D01*
X319942Y201918D01*
X320043Y201974D01*
X320141Y202033D01*
X320237Y202096D01*
X320331Y202162D01*
X320423Y202232D01*
X320512Y202304D01*
X320599Y202380D01*
X320683Y202458D01*
X320764Y202539D01*
X320843Y202623D01*
X320918Y202709D01*
X320991Y202798D01*
X321060Y202890D01*
X321127Y202984D01*
X321190Y203080D01*
X321250Y203178D01*
X321306Y203278D01*
X321359Y203380D01*
X321409Y203483D01*
X321455Y203589D01*
X321497Y203696D01*
X321536Y203804D01*
X321571Y203913D01*
X321602Y204024D01*
X321629Y204135D01*
X321653Y204248D01*
X321672Y204361D01*
X321688Y204475D01*
X321700Y204589D01*
X321708Y204704D01*
X321712Y204819D01*
X321713Y204934D01*
X321709Y205048D01*
X321701Y205163D01*
X321690Y205277D01*
X321674Y205391D01*
X321655Y205505D01*
X321632Y205617D01*
X321605Y205729D01*
X321574Y205839D01*
X321539Y205949D01*
X321501Y206057D01*
X321459Y206164D01*
X321414Y206270D01*
X321365Y206374D01*
X321312Y206476D01*
X321256Y206576D01*
X321196Y206674D01*
X321133Y206771D01*
X321067Y206865D01*
X320998Y206956D01*
X320926Y207046D01*
X320850Y207132D01*
X320772Y207217D01*
X320691Y207298D01*
X320607Y207377D01*
X320521Y207452D01*
X320432Y207525D01*
X320341Y207595D01*
X320247Y207661D01*
X320151Y207724D01*
X320053Y207784D01*
X319953Y207841D01*
X319851Y207894D01*
X319747Y207944D01*
X319642Y207990D01*
X319535Y208032D01*
X319427Y208071D01*
X319318Y208106D01*
X319207Y208137D01*
X319095Y208165D01*
X318983Y208188D01*
X318976Y206949D01*
X319063Y206921D01*
X319149Y206888D01*
X319234Y206852D01*
X319317Y206813D01*
X319398Y206770D01*
X319477Y206723D01*
X319555Y206673D01*
X319630Y206620D01*
X319703Y206564D01*
X319773Y206505D01*
X319841Y206443D01*
X319906Y206378D01*
X319968Y206310D01*
X320027Y206240D01*
X320084Y206167D01*
X320137Y206092D01*
X320186Y206014D01*
X320233Y205935D01*
X320276Y205854D01*
X320316Y205771D01*
X320352Y205686D01*
X320384Y205600D01*
X320413Y205513D01*
X320438Y205424D01*
X320459Y205335D01*
X320476Y205244D01*
X320490Y205153D01*
X320499Y205062D01*
X320505Y204970D01*
X320507Y204878D01*
X320505Y204786D01*
X320499Y204694D01*
X320489Y204603D01*
X320475Y204512D01*
X320457Y204422D01*
X320436Y204332D01*
X320411Y204244D01*
X320382Y204157D01*
X320349Y204071D01*
X320313Y203986D01*
X320273Y203903D01*
X320229Y203822D01*
X320183Y203743D01*
X320132Y203666D01*
X320079Y203591D01*
X320023Y203518D01*
X319963Y203448D01*
X319901Y203381D01*
X319835Y203316D01*
X319767Y203254D01*
X319697Y203195D01*
X319624Y203139D01*
X319548Y203086D01*
X319471Y203037D01*
X319391Y202991D01*
X319310Y202948D01*
X319227Y202909D01*
X319142Y202873D01*
X319056Y202841D01*
X318968Y202813D01*
X318934Y204129D01*
X318980Y204168D01*
X319023Y204209D01*
X319064Y204252D01*
X319102Y204298D01*
X319137Y204347D01*
X319169Y204397D01*
X319197Y204449D01*
X319223Y204503D01*
X319245Y204559D01*
X319263Y204615D01*
X319278Y204673D01*
X319289Y204732D01*
X319297Y204791D01*
X319300Y204851D01*
X319301Y204910D01*
X319297Y204970D01*
X319290Y205029D01*
X319279Y205088D01*
X319264Y205145D01*
X319246Y205202D01*
X319224Y205258D01*
X319199Y205312D01*
X319170Y205364D01*
X319139Y205415D01*
X319104Y205463D01*
X319066Y205509D01*
X319025Y205553D01*
X318982Y205594D01*
X318937Y205633D01*
X297405Y211875D02*
X298026Y204918D01*
X298025Y204918D02*
X298025Y204918D01*
X297380Y197963D01*
X297210Y197981D01*
X297040Y198003D01*
X296872Y198029D01*
X296703Y198059D01*
X296536Y198094D01*
X296370Y198132D01*
X296204Y198175D01*
X296040Y198221D01*
X295877Y198272D01*
X295715Y198327D01*
X295554Y198385D01*
X295395Y198447D01*
X295238Y198514D01*
X295082Y198584D01*
X294928Y198658D01*
X294776Y198735D01*
X294625Y198817D01*
X294477Y198902D01*
X294331Y198990D01*
X294187Y199082D01*
X294046Y199178D01*
X293906Y199277D01*
X293770Y199380D01*
X293635Y199485D01*
X293504Y199594D01*
X293375Y199707D01*
X293249Y199822D01*
X293126Y199940D01*
X293005Y200062D01*
X292888Y200186D01*
X292774Y200313D01*
X292663Y200443D01*
X292555Y200575D01*
X292450Y200710D01*
X292349Y200848D01*
X292251Y200988D01*
X292157Y201131D01*
X292066Y201275D01*
X291979Y201422D01*
X291895Y201571D01*
X291815Y201722D01*
X291739Y201875D01*
X291666Y202030D01*
X291597Y202186D01*
X291533Y202344D01*
X291472Y202504D01*
X291414Y202665D01*
X291361Y202827D01*
X291312Y202991D01*
X291267Y203155D01*
X291226Y203321D01*
X291189Y203488D01*
X291156Y203656D01*
X291127Y203824D01*
X291102Y203993D01*
X291082Y204163D01*
X291066Y204333D01*
X291053Y204503D01*
X291045Y204674D01*
X291041Y204845D01*
X291042Y205016D01*
X291046Y205186D01*
X291055Y205357D01*
X291068Y205527D01*
X291085Y205697D01*
X291106Y205867D01*
X291131Y206036D01*
X291160Y206204D01*
X291194Y206372D01*
X291232Y206538D01*
X291273Y206704D01*
X291319Y206869D01*
X291369Y207032D01*
X291422Y207194D01*
X291480Y207355D01*
X291542Y207515D01*
X291607Y207672D01*
X291676Y207829D01*
X291749Y207983D01*
X291826Y208136D01*
X291907Y208286D01*
X291991Y208435D01*
X292079Y208582D01*
X292170Y208726D01*
X292265Y208868D01*
X292363Y209008D01*
X292465Y209145D01*
X292570Y209280D01*
X292679Y209412D01*
X292790Y209541D01*
X292905Y209668D01*
X293022Y209792D01*
X293143Y209913D01*
X293267Y210031D01*
X293393Y210146D01*
X293522Y210257D01*
X293654Y210366D01*
X293789Y210471D01*
X293926Y210573D01*
X294066Y210672D01*
X294208Y210767D01*
X294352Y210859D01*
X294498Y210947D01*
X294647Y211031D01*
X294797Y211112D01*
X294950Y211189D01*
X295104Y211262D01*
X295260Y211332D01*
X295418Y211398D01*
X295577Y211460D01*
X295738Y211518D01*
X295900Y211572D01*
X296063Y211622D01*
X296228Y211668D01*
X296393Y211710D01*
X296560Y211747D01*
X296727Y211781D01*
X296896Y211811D01*
X297065Y211837D01*
X297234Y211858D01*
X297404Y211875D01*
X297402Y210663D01*
X297253Y210645D01*
X297104Y210623D01*
X296955Y210597D01*
X296807Y210567D01*
X296660Y210533D01*
X296514Y210496D01*
X296369Y210454D01*
X296225Y210409D01*
X296083Y210361D01*
X295942Y210308D01*
X295802Y210252D01*
X295663Y210192D01*
X295527Y210129D01*
X295391Y210062D01*
X295258Y209991D01*
X295127Y209917D01*
X294997Y209840D01*
X294870Y209759D01*
X294745Y209675D01*
X294622Y209588D01*
X294501Y209498D01*
X294383Y209404D01*
X294267Y209308D01*
X294154Y209208D01*
X294043Y209106D01*
X293935Y209000D01*
X293830Y208892D01*
X293728Y208781D01*
X293629Y208668D01*
X293533Y208552D01*
X293439Y208433D01*
X293349Y208313D01*
X293262Y208189D01*
X293178Y208064D01*
X293098Y207937D01*
X293021Y207807D01*
X292947Y207675D01*
X292877Y207542D01*
X292810Y207407D01*
X292747Y207270D01*
X292688Y207131D01*
X292632Y206991D01*
X292580Y206850D01*
X292531Y206707D01*
X292486Y206563D01*
X292445Y206418D01*
X292408Y206272D01*
X292375Y206125D01*
X292345Y205977D01*
X292319Y205829D01*
X292297Y205680D01*
X292279Y205530D01*
X292265Y205380D01*
X292255Y205229D01*
X292249Y205079D01*
X292247Y204928D01*
X292249Y204777D01*
X292254Y204627D01*
X292264Y204476D01*
X292277Y204326D01*
X292295Y204176D01*
X292316Y204027D01*
X292341Y203878D01*
X292370Y203731D01*
X292403Y203583D01*
X292440Y203437D01*
X292480Y203292D01*
X292525Y203148D01*
X292573Y203005D01*
X292625Y202863D01*
X292680Y202723D01*
X292739Y202584D01*
X292802Y202447D01*
X292868Y202312D01*
X292938Y202178D01*
X293011Y202046D01*
X293088Y201917D01*
X293167Y201789D01*
X293251Y201663D01*
X293337Y201540D01*
X293427Y201419D01*
X293520Y201300D01*
X293616Y201183D01*
X293715Y201070D01*
X293817Y200959D01*
X293921Y200850D01*
X294029Y200744D01*
X294139Y200642D01*
X294252Y200542D01*
X294367Y200445D01*
X294485Y200351D01*
X294606Y200260D01*
X294728Y200172D01*
X294853Y200088D01*
X294980Y200007D01*
X295109Y199929D01*
X295240Y199855D01*
X295374Y199784D01*
X295508Y199716D01*
X295645Y199652D01*
X295783Y199592D01*
X295923Y199535D01*
X296064Y199482D01*
X296206Y199433D01*
X296350Y199387D01*
X296495Y199346D01*
X296641Y199307D01*
X296788Y199273D01*
X296935Y199243D01*
X297084Y199216D01*
X297233Y199194D01*
X297382Y199175D01*
X297385Y200390D01*
X297253Y200411D01*
X297122Y200435D01*
X296991Y200464D01*
X296861Y200496D01*
X296733Y200532D01*
X296605Y200571D01*
X296479Y200615D01*
X296354Y200662D01*
X296230Y200712D01*
X296108Y200767D01*
X295987Y200825D01*
X295869Y200886D01*
X295752Y200951D01*
X295637Y201019D01*
X295524Y201090D01*
X295413Y201165D01*
X295305Y201243D01*
X295198Y201324D01*
X295095Y201408D01*
X294993Y201495D01*
X294895Y201585D01*
X294798Y201678D01*
X294705Y201774D01*
X294615Y201872D01*
X294527Y201973D01*
X294443Y202077D01*
X294361Y202183D01*
X294283Y202291D01*
X294208Y202402D01*
X294136Y202514D01*
X294067Y202629D01*
X294002Y202745D01*
X293940Y202864D01*
X293882Y202984D01*
X293827Y203106D01*
X293776Y203230D01*
X293729Y203355D01*
X293685Y203481D01*
X293645Y203608D01*
X293608Y203737D01*
X293576Y203866D01*
X293547Y203997D01*
X293522Y204128D01*
X293501Y204260D01*
X293483Y204393D01*
X293470Y204526D01*
X293460Y204659D01*
X293455Y204792D01*
X293453Y204926D01*
X293455Y205060D01*
X293461Y205193D01*
X293471Y205326D01*
X293485Y205459D01*
X293503Y205592D01*
X293525Y205724D01*
X293550Y205855D01*
X293579Y205985D01*
X293612Y206115D01*
X293649Y206243D01*
X293690Y206370D01*
X293734Y206496D01*
X293782Y206621D01*
X293834Y206744D01*
X293889Y206866D01*
X293947Y206986D01*
X294010Y207105D01*
X294075Y207221D01*
X294144Y207335D01*
X294216Y207448D01*
X294292Y207558D01*
X294371Y207666D01*
X294453Y207772D01*
X294538Y207875D01*
X294625Y207976D01*
X294716Y208074D01*
X294810Y208169D01*
X294906Y208262D01*
X295005Y208351D01*
X295107Y208438D01*
X295211Y208522D01*
X295317Y208603D01*
X295426Y208680D01*
X295537Y208754D01*
X295650Y208826D01*
X295766Y208893D01*
X295883Y208958D01*
X296002Y209019D01*
X296122Y209076D01*
X296245Y209130D01*
X296369Y209180D01*
X296494Y209227D01*
X296620Y209270D01*
X296748Y209309D01*
X296877Y209344D01*
X297007Y209376D01*
X297137Y209404D01*
X297269Y209428D01*
X297401Y209448D01*
X297401Y208226D01*
X297288Y208203D01*
X297176Y208176D01*
X297066Y208145D01*
X296956Y208110D01*
X296848Y208072D01*
X296741Y208030D01*
X296635Y207984D01*
X296532Y207935D01*
X296430Y207882D01*
X296329Y207826D01*
X296231Y207767D01*
X296135Y207704D01*
X296041Y207638D01*
X295949Y207568D01*
X295860Y207496D01*
X295773Y207420D01*
X295689Y207342D01*
X295608Y207261D01*
X295529Y207177D01*
X295454Y207091D01*
X295381Y207002D01*
X295312Y206910D01*
X295245Y206816D01*
X295182Y206720D01*
X295122Y206622D01*
X295066Y206522D01*
X295013Y206420D01*
X294963Y206317D01*
X294917Y206211D01*
X294875Y206104D01*
X294836Y205996D01*
X294801Y205887D01*
X294770Y205776D01*
X294743Y205665D01*
X294719Y205552D01*
X294700Y205439D01*
X294684Y205325D01*
X294672Y205211D01*
X294664Y205096D01*
X294660Y204981D01*
X294659Y204866D01*
X294663Y204752D01*
X294671Y204637D01*
X294682Y204523D01*
X294698Y204409D01*
X294717Y204295D01*
X294740Y204183D01*
X294767Y204071D01*
X294798Y203961D01*
X294833Y203851D01*
X294871Y203743D01*
X294913Y203636D01*
X294958Y203530D01*
X295007Y203426D01*
X295060Y203324D01*
X295116Y203224D01*
X295176Y203126D01*
X295239Y203029D01*
X295305Y202935D01*
X295374Y202844D01*
X295446Y202754D01*
X295522Y202668D01*
X295600Y202583D01*
X295681Y202502D01*
X295765Y202423D01*
X295851Y202348D01*
X295940Y202275D01*
X296031Y202205D01*
X296125Y202139D01*
X296221Y202076D01*
X296319Y202016D01*
X296419Y201959D01*
X296521Y201906D01*
X296625Y201856D01*
X296730Y201810D01*
X296837Y201768D01*
X296945Y201729D01*
X297054Y201694D01*
X297165Y201663D01*
X297277Y201635D01*
X297389Y201612D01*
X297396Y202851D01*
X297309Y202879D01*
X297223Y202912D01*
X297138Y202948D01*
X297055Y202987D01*
X296974Y203030D01*
X296895Y203077D01*
X296817Y203127D01*
X296742Y203180D01*
X296669Y203236D01*
X296599Y203295D01*
X296531Y203357D01*
X296466Y203422D01*
X296404Y203490D01*
X296345Y203560D01*
X296288Y203633D01*
X296235Y203708D01*
X296186Y203786D01*
X296139Y203865D01*
X296096Y203946D01*
X296056Y204029D01*
X296020Y204114D01*
X295988Y204200D01*
X295959Y204287D01*
X295934Y204376D01*
X295913Y204465D01*
X295896Y204556D01*
X295882Y204647D01*
X295873Y204738D01*
X295867Y204830D01*
X295865Y204922D01*
X295867Y205014D01*
X295873Y205106D01*
X295883Y205197D01*
X295897Y205288D01*
X295915Y205378D01*
X295936Y205468D01*
X295961Y205556D01*
X295990Y205643D01*
X296023Y205729D01*
X296059Y205814D01*
X296099Y205897D01*
X296143Y205978D01*
X296189Y206057D01*
X296240Y206134D01*
X296293Y206209D01*
X296349Y206282D01*
X296409Y206352D01*
X296471Y206419D01*
X296537Y206484D01*
X296605Y206546D01*
X296675Y206605D01*
X296748Y206661D01*
X296824Y206714D01*
X296901Y206763D01*
X296981Y206809D01*
X297062Y206852D01*
X297145Y206891D01*
X297230Y206927D01*
X297316Y206959D01*
X297404Y206987D01*
X297438Y205671D01*
X297392Y205632D01*
X297349Y205591D01*
X297308Y205548D01*
X297270Y205502D01*
X297235Y205453D01*
X297203Y205403D01*
X297175Y205351D01*
X297149Y205297D01*
X297127Y205241D01*
X297109Y205185D01*
X297094Y205127D01*
X297083Y205068D01*
X297075Y205009D01*
X297072Y204949D01*
X297071Y204890D01*
X297075Y204830D01*
X297082Y204771D01*
X297093Y204712D01*
X297108Y204655D01*
X297126Y204598D01*
X297148Y204542D01*
X297173Y204488D01*
X297202Y204436D01*
X297233Y204385D01*
X297268Y204337D01*
X297306Y204291D01*
X297347Y204247D01*
X297390Y204206D01*
X297435Y204167D01*
D16*
G36*
X313252Y197272D02*
X303093Y197289D01*
X303120Y212528D01*
X313279Y212511D01*
X313252Y197272D01*
G37*
D11*
X92343Y49476D02*
X62343Y49476D01*
X62343Y74476D01*
X92343Y74476D01*
X92343Y49476D01*
D15*
X95843Y53976D02*
X95845Y54039D01*
X95851Y54101D01*
X95861Y54163D01*
X95874Y54225D01*
X95892Y54285D01*
X95913Y54344D01*
X95938Y54402D01*
X95967Y54458D01*
X95999Y54512D01*
X96034Y54564D01*
X96072Y54613D01*
X96114Y54661D01*
X96158Y54705D01*
X96206Y54747D01*
X96255Y54785D01*
X96307Y54820D01*
X96361Y54852D01*
X96417Y54881D01*
X96475Y54906D01*
X96534Y54927D01*
X96594Y54945D01*
X96656Y54958D01*
X96718Y54968D01*
X96780Y54974D01*
X96843Y54976D01*
X96906Y54974D01*
X96968Y54968D01*
X97030Y54958D01*
X97092Y54945D01*
X97152Y54927D01*
X97211Y54906D01*
X97269Y54881D01*
X97325Y54852D01*
X97379Y54820D01*
X97431Y54785D01*
X97480Y54747D01*
X97528Y54705D01*
X97572Y54661D01*
X97614Y54613D01*
X97652Y54564D01*
X97687Y54512D01*
X97719Y54458D01*
X97748Y54402D01*
X97773Y54344D01*
X97794Y54285D01*
X97812Y54225D01*
X97825Y54163D01*
X97835Y54101D01*
X97841Y54039D01*
X97843Y53976D01*
X97841Y53913D01*
X97835Y53851D01*
X97825Y53789D01*
X97812Y53727D01*
X97794Y53667D01*
X97773Y53608D01*
X97748Y53550D01*
X97719Y53494D01*
X97687Y53440D01*
X97652Y53388D01*
X97614Y53339D01*
X97572Y53291D01*
X97528Y53247D01*
X97480Y53205D01*
X97431Y53167D01*
X97379Y53132D01*
X97325Y53100D01*
X97269Y53071D01*
X97211Y53046D01*
X97152Y53025D01*
X97092Y53007D01*
X97030Y52994D01*
X96968Y52984D01*
X96906Y52978D01*
X96843Y52976D01*
X96780Y52978D01*
X96718Y52984D01*
X96656Y52994D01*
X96594Y53007D01*
X96534Y53025D01*
X96475Y53046D01*
X96417Y53071D01*
X96361Y53100D01*
X96307Y53132D01*
X96255Y53167D01*
X96206Y53205D01*
X96158Y53247D01*
X96114Y53291D01*
X96072Y53339D01*
X96034Y53388D01*
X95999Y53440D01*
X95967Y53494D01*
X95938Y53550D01*
X95913Y53608D01*
X95892Y53667D01*
X95874Y53727D01*
X95861Y53789D01*
X95851Y53851D01*
X95845Y53913D01*
X95843Y53976D01*
D11*
X379974Y237888D02*
X379974Y397888D01*
X379974Y237888D02*
X219974Y237888D01*
X219974Y397888D01*
X379974Y397888D01*
D14*
X189992Y119126D02*
X189992Y116840D01*
X180340Y116840D02*
X180340Y119126D01*
X180340Y116840D02*
X189992Y116840D01*
X189992Y119126D02*
X180340Y119126D01*
X189992Y114300D02*
X189992Y112014D01*
X180340Y112014D02*
X180340Y114300D01*
X180340Y112014D02*
X189992Y112014D01*
X189992Y114300D02*
X180340Y114300D01*
X189992Y109220D02*
X189992Y106934D01*
X180340Y106934D02*
X180340Y109220D01*
X180340Y106934D02*
X189992Y106934D01*
X189992Y109220D02*
X180340Y109220D01*
X189992Y104140D02*
X189992Y101854D01*
X180340Y101854D02*
X180340Y104140D01*
X180340Y101854D02*
X189992Y101854D01*
X189992Y104140D02*
X180340Y104140D01*
X189992Y99314D02*
X189992Y97028D01*
X180340Y97028D02*
X180340Y99314D01*
X180340Y97028D02*
X189992Y97028D01*
X189992Y99314D02*
X180340Y99314D01*
X140970Y116840D02*
X140970Y119126D01*
X150368Y119126D02*
X150368Y116840D01*
X140970Y116840D01*
X140970Y119126D02*
X150368Y119126D01*
X140970Y114300D02*
X140970Y112014D01*
X150368Y112014D02*
X150368Y114300D01*
X150368Y112014D02*
X140970Y112014D01*
X140970Y114300D02*
X150368Y114300D01*
X140970Y109220D02*
X140970Y106934D01*
X150368Y106934D02*
X150368Y109220D01*
X150368Y106934D02*
X140970Y106934D01*
X140970Y109220D02*
X150368Y109220D01*
X140970Y104140D02*
X140970Y101854D01*
X150368Y101854D02*
X150368Y104140D01*
X150368Y101854D02*
X140970Y101854D01*
X140970Y104140D02*
X150368Y104140D01*
X140970Y99314D02*
X140970Y97028D01*
X150368Y97028D02*
X150368Y99314D01*
X150368Y97028D02*
X140970Y97028D01*
X140970Y99314D02*
X150368Y99314D01*
X152146Y117602D02*
X159258Y117602D01*
X180340Y121920D02*
X180340Y94234D01*
X179070Y92964D02*
X151638Y92964D01*
X151638Y122936D02*
X179070Y122936D01*
X150368Y121920D02*
X150368Y94234D01*
X150367Y94234D02*
X150371Y94163D01*
X150379Y94093D01*
X150390Y94023D01*
X150405Y93954D01*
X150424Y93886D01*
X150447Y93819D01*
X150473Y93753D01*
X150503Y93689D01*
X150536Y93626D01*
X150572Y93565D01*
X150612Y93507D01*
X150655Y93451D01*
X150701Y93397D01*
X150749Y93345D01*
X150801Y93297D01*
X150855Y93251D01*
X150911Y93208D01*
X150969Y93168D01*
X151030Y93132D01*
X151093Y93099D01*
X151157Y93069D01*
X151223Y93043D01*
X151290Y93020D01*
X151358Y93001D01*
X151427Y92986D01*
X151497Y92975D01*
X151567Y92967D01*
X151638Y92963D01*
X150368Y121920D02*
X150379Y121986D01*
X150394Y122050D01*
X150412Y122114D01*
X150433Y122177D01*
X150459Y122238D01*
X150487Y122298D01*
X150519Y122357D01*
X150555Y122413D01*
X150593Y122467D01*
X150634Y122519D01*
X150678Y122569D01*
X150725Y122616D01*
X150775Y122660D01*
X150826Y122702D01*
X150881Y122740D01*
X150937Y122775D01*
X150995Y122808D01*
X151055Y122837D01*
X151116Y122862D01*
X151179Y122884D01*
X151242Y122902D01*
X151307Y122917D01*
X151373Y122928D01*
X151439Y122936D01*
X151505Y122940D01*
X151571Y122940D01*
X151638Y122936D01*
X152146Y117602D02*
X152148Y117720D01*
X152154Y117837D01*
X152163Y117954D01*
X152177Y118071D01*
X152194Y118187D01*
X152216Y118303D01*
X152241Y118418D01*
X152270Y118532D01*
X152302Y118645D01*
X152339Y118757D01*
X152379Y118867D01*
X152422Y118976D01*
X152470Y119084D01*
X152520Y119190D01*
X152575Y119294D01*
X152632Y119397D01*
X152693Y119497D01*
X152758Y119596D01*
X152825Y119692D01*
X152896Y119786D01*
X152970Y119878D01*
X153046Y119967D01*
X153126Y120053D01*
X153208Y120137D01*
X153294Y120218D01*
X153381Y120296D01*
X153472Y120372D01*
X153565Y120444D01*
X153660Y120513D01*
X153757Y120579D01*
X153857Y120642D01*
X153958Y120701D01*
X154061Y120757D01*
X154167Y120809D01*
X154274Y120858D01*
X154382Y120904D01*
X154492Y120946D01*
X154603Y120984D01*
X154716Y121018D01*
X154829Y121049D01*
X154944Y121076D01*
X155059Y121099D01*
X155175Y121119D01*
X155291Y121134D01*
X155408Y121146D01*
X155526Y121154D01*
X155643Y121158D01*
X155761Y121158D01*
X155878Y121154D01*
X155996Y121146D01*
X156113Y121134D01*
X156229Y121119D01*
X156345Y121099D01*
X156460Y121076D01*
X156575Y121049D01*
X156688Y121018D01*
X156801Y120984D01*
X156912Y120946D01*
X157022Y120904D01*
X157130Y120858D01*
X157237Y120809D01*
X157343Y120757D01*
X157446Y120701D01*
X157547Y120642D01*
X157647Y120579D01*
X157744Y120513D01*
X157839Y120444D01*
X157932Y120372D01*
X158023Y120296D01*
X158110Y120218D01*
X158196Y120137D01*
X158278Y120053D01*
X158358Y119967D01*
X158434Y119878D01*
X158508Y119786D01*
X158579Y119692D01*
X158646Y119596D01*
X158711Y119497D01*
X158772Y119397D01*
X158829Y119294D01*
X158884Y119190D01*
X158934Y119084D01*
X158982Y118976D01*
X159025Y118867D01*
X159065Y118757D01*
X159102Y118645D01*
X159134Y118532D01*
X159163Y118418D01*
X159188Y118303D01*
X159210Y118187D01*
X159227Y118071D01*
X159241Y117954D01*
X159250Y117837D01*
X159256Y117720D01*
X159258Y117602D01*
X180341Y94234D02*
X180337Y94163D01*
X180329Y94093D01*
X180318Y94023D01*
X180303Y93954D01*
X180284Y93886D01*
X180261Y93819D01*
X180235Y93753D01*
X180205Y93689D01*
X180172Y93626D01*
X180136Y93565D01*
X180096Y93507D01*
X180053Y93451D01*
X180007Y93397D01*
X179959Y93345D01*
X179907Y93297D01*
X179853Y93251D01*
X179797Y93208D01*
X179739Y93168D01*
X179678Y93132D01*
X179615Y93099D01*
X179551Y93069D01*
X179485Y93043D01*
X179418Y93020D01*
X179350Y93001D01*
X179281Y92986D01*
X179211Y92975D01*
X179141Y92967D01*
X179070Y92963D01*
X180340Y121920D02*
X180329Y121986D01*
X180314Y122050D01*
X180296Y122114D01*
X180275Y122177D01*
X180249Y122238D01*
X180221Y122298D01*
X180189Y122357D01*
X180153Y122413D01*
X180115Y122467D01*
X180074Y122519D01*
X180030Y122569D01*
X179983Y122616D01*
X179933Y122660D01*
X179882Y122702D01*
X179827Y122740D01*
X179771Y122775D01*
X179713Y122808D01*
X179653Y122837D01*
X179592Y122862D01*
X179529Y122884D01*
X179466Y122902D01*
X179401Y122917D01*
X179335Y122928D01*
X179269Y122936D01*
X179203Y122940D01*
X179137Y122940D01*
X179070Y122936D01*
D11*
X230929Y128350D02*
X230929Y112950D01*
X230929Y128350D02*
X220429Y128350D01*
X220429Y112950D01*
X230929Y112950D01*
X100160Y101680D02*
X100160Y86280D01*
X110660Y86280D01*
X110660Y101680D01*
X100160Y101680D01*
D10*
X370119Y52024D02*
X379119Y52024D01*
X370119Y52024D02*
X370119Y70024D01*
X379119Y70024D01*
X379119Y52024D01*
X338459Y83984D02*
X329459Y83984D01*
X338459Y83984D02*
X338459Y65984D01*
X329459Y65984D01*
X329459Y83984D01*
X167115Y430221D02*
X167115Y439221D01*
X167115Y430221D02*
X149115Y430221D01*
X149115Y439221D01*
X167115Y439221D01*
X296193Y188497D02*
X293115Y180040D01*
X296193Y188497D02*
X313108Y182340D01*
X310029Y173883D01*
X293115Y180040D01*
X310785Y174124D02*
X319242Y171045D01*
X310785Y174124D02*
X316941Y191038D01*
X325399Y187960D01*
X319242Y171045D01*
X337603Y164191D02*
X346061Y161113D01*
X337603Y164191D02*
X343760Y181105D01*
X352217Y178027D01*
X346061Y161113D01*
D11*
X6828Y383394D02*
X6828Y388394D01*
X6828Y383394D02*
X6828Y333394D01*
X6828Y328394D01*
X161828Y328394D01*
X161828Y388394D01*
X6828Y388394D01*
X6828Y383394D02*
X-8172Y383394D01*
X-8172Y333394D01*
X6828Y333394D01*
D14*
X147484Y415502D02*
X147484Y420243D01*
X147485Y415502D02*
X147483Y415431D01*
X147478Y415360D01*
X147468Y415290D01*
X147455Y415220D01*
X147439Y415151D01*
X147419Y415083D01*
X147395Y415016D01*
X147368Y414951D01*
X147337Y414887D01*
X147303Y414824D01*
X147266Y414764D01*
X147226Y414706D01*
X147183Y414649D01*
X147137Y414595D01*
X147088Y414544D01*
X147037Y414495D01*
X146983Y414449D01*
X146926Y414406D01*
X146868Y414366D01*
X146807Y414329D01*
X146745Y414295D01*
X146681Y414264D01*
X146616Y414237D01*
X146549Y414213D01*
X146481Y414193D01*
X146412Y414177D01*
X146342Y414164D01*
X146272Y414154D01*
X146201Y414149D01*
X146130Y414147D01*
X146129Y414147D02*
X145452Y414147D01*
X151542Y414147D02*
X151542Y420243D01*
X153235Y420243D01*
X153316Y420241D01*
X153396Y420235D01*
X153476Y420226D01*
X153555Y420212D01*
X153634Y420195D01*
X153712Y420174D01*
X153789Y420150D01*
X153864Y420122D01*
X153938Y420090D01*
X154011Y420055D01*
X154081Y420016D01*
X154150Y419974D01*
X154217Y419929D01*
X154282Y419881D01*
X154344Y419829D01*
X154403Y419775D01*
X154460Y419718D01*
X154514Y419659D01*
X154566Y419597D01*
X154614Y419532D01*
X154659Y419465D01*
X154701Y419397D01*
X154740Y419326D01*
X154775Y419253D01*
X154807Y419179D01*
X154835Y419104D01*
X154859Y419027D01*
X154880Y418949D01*
X154897Y418870D01*
X154911Y418791D01*
X154920Y418711D01*
X154926Y418631D01*
X154928Y418550D01*
X154926Y418469D01*
X154920Y418389D01*
X154911Y418309D01*
X154897Y418230D01*
X154880Y418151D01*
X154859Y418073D01*
X154835Y417996D01*
X154807Y417921D01*
X154775Y417847D01*
X154740Y417774D01*
X154701Y417704D01*
X154659Y417635D01*
X154614Y417568D01*
X154566Y417503D01*
X154514Y417441D01*
X154460Y417382D01*
X154403Y417325D01*
X154344Y417271D01*
X154282Y417219D01*
X154217Y417171D01*
X154150Y417126D01*
X154082Y417084D01*
X154011Y417045D01*
X153938Y417010D01*
X153864Y416978D01*
X153789Y416950D01*
X153712Y416926D01*
X153634Y416905D01*
X153555Y416888D01*
X153476Y416874D01*
X153396Y416865D01*
X153316Y416859D01*
X153235Y416857D01*
X153235Y416856D02*
X151542Y416856D01*
X157993Y418888D02*
X159687Y420243D01*
X159687Y414147D01*
X161380Y414147D02*
X157993Y414147D01*
X164851Y414147D02*
X166883Y414147D01*
X166954Y414149D01*
X167025Y414154D01*
X167095Y414164D01*
X167165Y414177D01*
X167234Y414193D01*
X167302Y414213D01*
X167369Y414237D01*
X167434Y414264D01*
X167498Y414295D01*
X167561Y414329D01*
X167621Y414366D01*
X167679Y414406D01*
X167736Y414449D01*
X167790Y414495D01*
X167841Y414544D01*
X167890Y414595D01*
X167936Y414649D01*
X167979Y414706D01*
X168019Y414764D01*
X168056Y414825D01*
X168090Y414887D01*
X168121Y414951D01*
X168148Y415016D01*
X168172Y415083D01*
X168192Y415151D01*
X168208Y415220D01*
X168221Y415290D01*
X168231Y415360D01*
X168236Y415431D01*
X168238Y415502D01*
X168238Y416179D01*
X168236Y416250D01*
X168231Y416321D01*
X168221Y416391D01*
X168208Y416461D01*
X168192Y416530D01*
X168172Y416598D01*
X168148Y416665D01*
X168121Y416730D01*
X168090Y416794D01*
X168056Y416857D01*
X168019Y416917D01*
X167979Y416975D01*
X167936Y417032D01*
X167890Y417086D01*
X167841Y417137D01*
X167790Y417186D01*
X167736Y417232D01*
X167679Y417275D01*
X167621Y417315D01*
X167561Y417352D01*
X167498Y417386D01*
X167434Y417417D01*
X167369Y417444D01*
X167302Y417468D01*
X167234Y417488D01*
X167165Y417504D01*
X167095Y417517D01*
X167025Y417527D01*
X166954Y417532D01*
X166883Y417534D01*
X164851Y417534D01*
X164851Y420243D01*
X168238Y420243D01*
X114427Y397256D02*
X114681Y390144D01*
X114427Y397256D02*
X110109Y397256D01*
X110109Y390144D01*
X114681Y390144D01*
X114681Y403352D02*
X114427Y410464D01*
X110109Y410464D01*
X110109Y403352D01*
X114681Y403352D01*
X133477Y397256D02*
X133731Y390144D01*
X138049Y390144D01*
X138049Y397256D01*
X133477Y397256D01*
X133731Y403352D02*
X133477Y410464D01*
X133731Y403352D02*
X138049Y403352D01*
X138049Y410464D01*
X133477Y410464D01*
X114427Y406908D02*
X114427Y393700D01*
X114427Y406908D02*
X133731Y406908D01*
X133731Y393700D01*
X114427Y393700D01*
D17*
X131191Y395224D02*
X131261Y395226D01*
X131331Y395232D01*
X131400Y395241D01*
X131469Y395255D01*
X131537Y395272D01*
X131603Y395293D01*
X131669Y395317D01*
X131733Y395345D01*
X131795Y395377D01*
X131856Y395412D01*
X131915Y395450D01*
X131971Y395492D01*
X132025Y395536D01*
X132077Y395584D01*
X132125Y395634D01*
X132171Y395687D01*
X132214Y395742D01*
X132254Y395799D01*
X132291Y395859D01*
X132324Y395921D01*
X132354Y395984D01*
X132380Y396049D01*
X132403Y396115D01*
X132422Y396182D01*
X132437Y396251D01*
X132449Y396320D01*
X132457Y396389D01*
X132461Y396459D01*
X132461Y396529D01*
X132457Y396599D01*
X132449Y396668D01*
X132437Y396737D01*
X132422Y396806D01*
X132403Y396873D01*
X132380Y396939D01*
X132354Y397004D01*
X132324Y397067D01*
X132291Y397129D01*
X132254Y397189D01*
X132214Y397246D01*
X132171Y397301D01*
X132125Y397354D01*
X132077Y397404D01*
X132025Y397452D01*
X131971Y397496D01*
X131915Y397538D01*
X131856Y397576D01*
X131795Y397611D01*
X131733Y397643D01*
X131669Y397671D01*
X131603Y397695D01*
X131537Y397716D01*
X131469Y397733D01*
X131400Y397747D01*
X131331Y397756D01*
X131261Y397762D01*
X131191Y397764D01*
X130937Y397764D02*
X130867Y397755D01*
X130798Y397742D01*
X130730Y397725D01*
X130662Y397705D01*
X130596Y397681D01*
X130532Y397654D01*
X130469Y397623D01*
X130407Y397588D01*
X130348Y397550D01*
X130291Y397509D01*
X130236Y397465D01*
X130184Y397418D01*
X130134Y397368D01*
X130088Y397316D01*
X130044Y397261D01*
X130003Y397203D01*
X129966Y397144D01*
X129932Y397082D01*
X129901Y397019D01*
X129874Y396954D01*
X129850Y396888D01*
X129830Y396820D01*
X129814Y396752D01*
X129802Y396683D01*
X129794Y396613D01*
X129789Y396543D01*
X129788Y396472D01*
X129791Y396402D01*
X129798Y396332D01*
X129809Y396263D01*
X129824Y396194D01*
X129842Y396126D01*
X129864Y396059D01*
X129890Y395994D01*
X129919Y395930D01*
X129952Y395868D01*
X129988Y395807D01*
X130028Y395749D01*
X130071Y395693D01*
X130116Y395640D01*
X130165Y395589D01*
X130216Y395541D01*
X130270Y395495D01*
X130326Y395453D01*
X130384Y395414D01*
X130445Y395378D01*
X130507Y395346D01*
X130571Y395317D01*
X130637Y395292D01*
X130704Y395270D01*
X130772Y395252D01*
X130841Y395238D01*
X130910Y395227D01*
X130980Y395221D01*
X131051Y395218D01*
X131121Y395219D01*
X131191Y395224D01*
D10*
X125493Y417140D02*
X125493Y426140D01*
X143493Y426140D01*
X143493Y417140D01*
X125493Y417140D01*
D14*
X256579Y167446D02*
X256579Y162705D01*
X256577Y162634D01*
X256572Y162563D01*
X256562Y162493D01*
X256549Y162423D01*
X256533Y162354D01*
X256513Y162286D01*
X256489Y162219D01*
X256462Y162154D01*
X256431Y162090D01*
X256397Y162027D01*
X256360Y161967D01*
X256320Y161909D01*
X256277Y161852D01*
X256231Y161798D01*
X256182Y161747D01*
X256131Y161698D01*
X256077Y161652D01*
X256020Y161609D01*
X255962Y161569D01*
X255901Y161532D01*
X255839Y161498D01*
X255775Y161467D01*
X255710Y161440D01*
X255643Y161416D01*
X255575Y161396D01*
X255506Y161380D01*
X255436Y161367D01*
X255366Y161357D01*
X255295Y161352D01*
X255224Y161350D01*
X254547Y161350D01*
X260637Y161350D02*
X260637Y167446D01*
X262330Y167446D01*
X262411Y167444D01*
X262491Y167438D01*
X262571Y167429D01*
X262650Y167415D01*
X262729Y167398D01*
X262807Y167377D01*
X262884Y167353D01*
X262959Y167325D01*
X263033Y167293D01*
X263106Y167258D01*
X263177Y167219D01*
X263245Y167177D01*
X263312Y167132D01*
X263377Y167084D01*
X263439Y167032D01*
X263498Y166978D01*
X263555Y166921D01*
X263609Y166862D01*
X263661Y166800D01*
X263709Y166735D01*
X263754Y166668D01*
X263796Y166600D01*
X263835Y166529D01*
X263870Y166456D01*
X263902Y166382D01*
X263930Y166307D01*
X263954Y166230D01*
X263975Y166152D01*
X263992Y166073D01*
X264006Y165994D01*
X264015Y165914D01*
X264021Y165834D01*
X264023Y165753D01*
X264021Y165672D01*
X264015Y165592D01*
X264006Y165512D01*
X263992Y165433D01*
X263975Y165354D01*
X263954Y165276D01*
X263930Y165199D01*
X263902Y165124D01*
X263870Y165050D01*
X263835Y164977D01*
X263796Y164907D01*
X263754Y164838D01*
X263709Y164771D01*
X263661Y164706D01*
X263609Y164644D01*
X263555Y164585D01*
X263498Y164528D01*
X263439Y164474D01*
X263377Y164422D01*
X263312Y164374D01*
X263245Y164329D01*
X263177Y164287D01*
X263106Y164248D01*
X263033Y164213D01*
X262959Y164181D01*
X262884Y164153D01*
X262807Y164129D01*
X262729Y164108D01*
X262650Y164091D01*
X262571Y164077D01*
X262491Y164068D01*
X262411Y164062D01*
X262330Y164060D01*
X262330Y164059D02*
X260637Y164059D01*
X267088Y162705D02*
X268443Y167446D01*
X267088Y162705D02*
X270475Y162705D01*
X269459Y164059D02*
X269459Y161350D01*
D18*
X245977Y90193D02*
X245977Y77193D01*
X245977Y90193D02*
X274977Y90193D01*
X274977Y77193D01*
X245977Y77193D01*
D10*
X153852Y127271D02*
X144852Y127271D01*
X144852Y145271D01*
X153852Y145271D01*
X153852Y127271D01*
D19*
X93775Y425720D02*
X93154Y425720D01*
X93105Y425722D01*
X93057Y425728D01*
X93009Y425737D01*
X92962Y425750D01*
X92916Y425767D01*
X92872Y425788D01*
X92830Y425812D01*
X92789Y425839D01*
X92751Y425869D01*
X92715Y425902D01*
X92682Y425938D01*
X92652Y425976D01*
X92625Y426017D01*
X92601Y426059D01*
X92580Y426103D01*
X92563Y426149D01*
X92550Y426196D01*
X92541Y426244D01*
X92535Y426292D01*
X92533Y426341D01*
X92533Y427893D01*
X92535Y427942D01*
X92541Y427990D01*
X92550Y428038D01*
X92563Y428085D01*
X92580Y428131D01*
X92601Y428175D01*
X92625Y428217D01*
X92652Y428258D01*
X92682Y428296D01*
X92715Y428332D01*
X92751Y428365D01*
X92789Y428395D01*
X92830Y428422D01*
X92872Y428446D01*
X92916Y428467D01*
X92962Y428484D01*
X93009Y428497D01*
X93057Y428506D01*
X93105Y428512D01*
X93154Y428514D01*
X93775Y428514D01*
X94828Y425720D02*
X95604Y425720D01*
X95659Y425722D01*
X95714Y425728D01*
X95769Y425738D01*
X95823Y425751D01*
X95875Y425769D01*
X95926Y425790D01*
X95976Y425815D01*
X96024Y425843D01*
X96069Y425875D01*
X96112Y425910D01*
X96153Y425947D01*
X96190Y425988D01*
X96225Y426031D01*
X96257Y426076D01*
X96285Y426124D01*
X96310Y426174D01*
X96331Y426225D01*
X96349Y426277D01*
X96362Y426331D01*
X96372Y426386D01*
X96378Y426441D01*
X96380Y426496D01*
X96378Y426551D01*
X96372Y426606D01*
X96362Y426661D01*
X96349Y426715D01*
X96331Y426767D01*
X96310Y426818D01*
X96285Y426868D01*
X96257Y426916D01*
X96225Y426961D01*
X96190Y427004D01*
X96153Y427045D01*
X96112Y427082D01*
X96069Y427117D01*
X96024Y427149D01*
X95976Y427177D01*
X95926Y427202D01*
X95875Y427223D01*
X95823Y427241D01*
X95769Y427254D01*
X95714Y427264D01*
X95659Y427270D01*
X95604Y427272D01*
X95759Y428514D02*
X94828Y428514D01*
X95759Y428514D02*
X95808Y428512D01*
X95856Y428506D01*
X95904Y428497D01*
X95951Y428484D01*
X95997Y428467D01*
X96041Y428446D01*
X96083Y428422D01*
X96124Y428395D01*
X96162Y428365D01*
X96198Y428332D01*
X96231Y428296D01*
X96261Y428258D01*
X96288Y428217D01*
X96312Y428175D01*
X96333Y428131D01*
X96350Y428085D01*
X96363Y428038D01*
X96372Y427990D01*
X96378Y427942D01*
X96380Y427893D01*
X96378Y427844D01*
X96372Y427796D01*
X96363Y427748D01*
X96350Y427701D01*
X96333Y427655D01*
X96312Y427611D01*
X96288Y427569D01*
X96261Y427528D01*
X96231Y427490D01*
X96198Y427454D01*
X96162Y427421D01*
X96124Y427391D01*
X96083Y427364D01*
X96041Y427340D01*
X95997Y427319D01*
X95951Y427302D01*
X95904Y427289D01*
X95856Y427280D01*
X95808Y427274D01*
X95759Y427272D01*
X95138Y427272D01*
X97571Y427893D02*
X98347Y428514D01*
X98347Y425720D01*
X97571Y425720D02*
X99123Y425720D01*
D20*
X211650Y431700D02*
X211652Y431754D01*
X211658Y431808D01*
X211668Y431861D01*
X211681Y431914D01*
X211698Y431965D01*
X211719Y432015D01*
X211744Y432063D01*
X211772Y432110D01*
X211803Y432154D01*
X211837Y432196D01*
X211874Y432235D01*
X211914Y432272D01*
X211957Y432305D01*
X212002Y432336D01*
X212049Y432363D01*
X212097Y432386D01*
X212148Y432406D01*
X212199Y432423D01*
X212252Y432435D01*
X212305Y432444D01*
X212359Y432449D01*
X212414Y432450D01*
X212468Y432447D01*
X212521Y432440D01*
X212574Y432429D01*
X212627Y432415D01*
X212678Y432397D01*
X212727Y432375D01*
X212775Y432350D01*
X212821Y432321D01*
X212865Y432289D01*
X212906Y432254D01*
X212944Y432216D01*
X212980Y432175D01*
X213013Y432132D01*
X213043Y432087D01*
X213069Y432039D01*
X213092Y431990D01*
X213111Y431939D01*
X213126Y431888D01*
X213138Y431835D01*
X213146Y431781D01*
X213150Y431727D01*
X213150Y431673D01*
X213146Y431619D01*
X213138Y431565D01*
X213126Y431512D01*
X213111Y431461D01*
X213092Y431410D01*
X213069Y431361D01*
X213043Y431313D01*
X213013Y431268D01*
X212980Y431225D01*
X212944Y431184D01*
X212906Y431146D01*
X212865Y431111D01*
X212821Y431079D01*
X212775Y431050D01*
X212727Y431025D01*
X212678Y431003D01*
X212627Y430985D01*
X212574Y430971D01*
X212521Y430960D01*
X212468Y430953D01*
X212414Y430950D01*
X212359Y430951D01*
X212305Y430956D01*
X212252Y430965D01*
X212199Y430977D01*
X212148Y430994D01*
X212097Y431014D01*
X212049Y431037D01*
X212002Y431064D01*
X211957Y431095D01*
X211914Y431128D01*
X211874Y431165D01*
X211837Y431204D01*
X211803Y431246D01*
X211772Y431290D01*
X211744Y431337D01*
X211719Y431385D01*
X211698Y431435D01*
X211681Y431486D01*
X211668Y431539D01*
X211658Y431592D01*
X211652Y431646D01*
X211650Y431700D01*
D21*
X212444Y433650D02*
X213358Y433650D01*
X213358Y433649D02*
X213361Y433549D01*
X213369Y433450D01*
X213381Y433351D01*
X213397Y433252D01*
X213416Y433154D01*
X213440Y433057D01*
X213467Y432961D01*
X213498Y432866D01*
X213532Y432772D01*
X213570Y432680D01*
X213612Y432590D01*
X213658Y432501D01*
X213706Y432413D01*
X213759Y432328D01*
X213814Y432245D01*
X213873Y432165D01*
X213935Y432086D01*
X213999Y432010D01*
X214067Y431937D01*
X214138Y431867D01*
X214211Y431799D01*
X214287Y431734D01*
X214366Y431672D01*
X214446Y431613D01*
X214529Y431558D01*
X214614Y431506D01*
X214702Y431457D01*
X214790Y431412D01*
X214881Y431370D01*
X214973Y431332D01*
X215067Y431297D01*
X215162Y431266D01*
X215258Y431239D01*
X215355Y431216D01*
X215453Y431197D01*
X215552Y431181D01*
X215651Y431169D01*
X215750Y431161D01*
X215850Y431157D01*
X215950Y431157D01*
X216050Y431161D01*
X216149Y431169D01*
X216248Y431181D01*
X216347Y431197D01*
X216445Y431216D01*
X216542Y431239D01*
X216638Y431266D01*
X216733Y431297D01*
X216827Y431332D01*
X216919Y431370D01*
X217010Y431412D01*
X217098Y431457D01*
X217186Y431506D01*
X217271Y431558D01*
X217354Y431613D01*
X217434Y431672D01*
X217513Y431734D01*
X217589Y431799D01*
X217662Y431867D01*
X217733Y431937D01*
X217801Y432010D01*
X217865Y432086D01*
X217927Y432165D01*
X217986Y432245D01*
X218041Y432328D01*
X218094Y432413D01*
X218142Y432501D01*
X218188Y432590D01*
X218230Y432680D01*
X218268Y432772D01*
X218302Y432866D01*
X218333Y432961D01*
X218360Y433057D01*
X218384Y433154D01*
X218403Y433252D01*
X218419Y433351D01*
X218431Y433450D01*
X218439Y433549D01*
X218442Y433649D01*
X219356Y433650D01*
X219357Y433649D01*
X219353Y433532D01*
X219345Y433415D01*
X219334Y433299D01*
X219318Y433183D01*
X219299Y433068D01*
X219275Y432953D01*
X219248Y432840D01*
X219217Y432727D01*
X219182Y432615D01*
X219144Y432505D01*
X219102Y432396D01*
X219056Y432288D01*
X219006Y432182D01*
X218953Y432078D01*
X218896Y431976D01*
X218836Y431875D01*
X218773Y431777D01*
X218706Y431681D01*
X218636Y431587D01*
X218563Y431496D01*
X218487Y431407D01*
X218408Y431321D01*
X218326Y431238D01*
X218242Y431157D01*
X218154Y431079D01*
X218064Y431004D01*
X217972Y430933D01*
X217877Y430864D01*
X217780Y430799D01*
X217681Y430737D01*
X217580Y430679D01*
X217477Y430623D01*
X217372Y430572D01*
X217265Y430524D01*
X217157Y430480D01*
X217047Y430439D01*
X216936Y430402D01*
X216824Y430369D01*
X216711Y430339D01*
X216597Y430314D01*
X216482Y430292D01*
X216366Y430275D01*
X216250Y430261D01*
X216134Y430251D01*
X216017Y430245D01*
X215900Y430243D01*
X215783Y430245D01*
X215666Y430251D01*
X215550Y430261D01*
X215434Y430275D01*
X215318Y430292D01*
X215203Y430314D01*
X215089Y430339D01*
X214976Y430369D01*
X214864Y430402D01*
X214753Y430439D01*
X214643Y430480D01*
X214535Y430524D01*
X214428Y430572D01*
X214323Y430623D01*
X214220Y430679D01*
X214119Y430737D01*
X214020Y430799D01*
X213923Y430864D01*
X213828Y430933D01*
X213736Y431004D01*
X213646Y431079D01*
X213558Y431157D01*
X213474Y431238D01*
X213392Y431321D01*
X213313Y431407D01*
X213237Y431496D01*
X213164Y431587D01*
X213094Y431681D01*
X213027Y431777D01*
X212964Y431875D01*
X212904Y431976D01*
X212847Y432078D01*
X212794Y432182D01*
X212744Y432288D01*
X212698Y432396D01*
X212656Y432505D01*
X212618Y432615D01*
X212583Y432727D01*
X212552Y432840D01*
X212525Y432953D01*
X212501Y433068D01*
X212482Y433183D01*
X212466Y433299D01*
X212455Y433415D01*
X212447Y433532D01*
X212443Y433649D01*
X212539Y433649D01*
X212543Y433534D01*
X212551Y433420D01*
X212562Y433305D01*
X212578Y433191D01*
X212597Y433078D01*
X212620Y432966D01*
X212647Y432854D01*
X212678Y432743D01*
X212713Y432634D01*
X212751Y432525D01*
X212793Y432418D01*
X212839Y432313D01*
X212888Y432209D01*
X212941Y432107D01*
X212997Y432007D01*
X213056Y431908D01*
X213119Y431812D01*
X213185Y431718D01*
X213255Y431627D01*
X213327Y431537D01*
X213403Y431451D01*
X213481Y431367D01*
X213562Y431285D01*
X213646Y431207D01*
X213733Y431131D01*
X213822Y431059D01*
X213913Y430989D01*
X214007Y430923D01*
X214103Y430860D01*
X214201Y430800D01*
X214301Y430744D01*
X214403Y430691D01*
X214507Y430641D01*
X214612Y430595D01*
X214719Y430553D01*
X214827Y430515D01*
X214937Y430480D01*
X215048Y430449D01*
X215159Y430422D01*
X215272Y430398D01*
X215385Y430379D01*
X215499Y430363D01*
X215613Y430351D01*
X215728Y430343D01*
X215843Y430339D01*
X215957Y430339D01*
X216072Y430343D01*
X216187Y430351D01*
X216301Y430363D01*
X216415Y430379D01*
X216528Y430398D01*
X216641Y430422D01*
X216752Y430449D01*
X216863Y430480D01*
X216973Y430515D01*
X217081Y430553D01*
X217188Y430595D01*
X217293Y430641D01*
X217397Y430691D01*
X217499Y430744D01*
X217599Y430800D01*
X217697Y430860D01*
X217793Y430923D01*
X217887Y430989D01*
X217978Y431059D01*
X218067Y431131D01*
X218154Y431207D01*
X218238Y431285D01*
X218319Y431367D01*
X218397Y431451D01*
X218473Y431537D01*
X218545Y431627D01*
X218615Y431718D01*
X218681Y431812D01*
X218744Y431908D01*
X218803Y432007D01*
X218859Y432107D01*
X218912Y432209D01*
X218961Y432313D01*
X219007Y432418D01*
X219049Y432525D01*
X219087Y432634D01*
X219122Y432743D01*
X219153Y432854D01*
X219180Y432966D01*
X219203Y433078D01*
X219222Y433191D01*
X219238Y433305D01*
X219249Y433420D01*
X219257Y433534D01*
X219261Y433649D01*
X219165Y433649D01*
X219161Y433536D01*
X219153Y433424D01*
X219142Y433311D01*
X219126Y433200D01*
X219107Y433088D01*
X219084Y432978D01*
X219057Y432868D01*
X219027Y432760D01*
X218992Y432652D01*
X218954Y432546D01*
X218913Y432441D01*
X218867Y432338D01*
X218818Y432236D01*
X218766Y432136D01*
X218710Y432038D01*
X218651Y431942D01*
X218589Y431848D01*
X218523Y431756D01*
X218455Y431667D01*
X218383Y431580D01*
X218308Y431495D01*
X218230Y431413D01*
X218150Y431334D01*
X218067Y431258D01*
X217981Y431184D01*
X217893Y431114D01*
X217803Y431047D01*
X217710Y430982D01*
X217615Y430922D01*
X217518Y430864D01*
X217419Y430810D01*
X217318Y430759D01*
X217216Y430712D01*
X217112Y430668D01*
X217006Y430628D01*
X216899Y430592D01*
X216791Y430559D01*
X216682Y430530D01*
X216572Y430505D01*
X216461Y430484D01*
X216350Y430466D01*
X216238Y430453D01*
X216125Y430443D01*
X216013Y430437D01*
X215900Y430435D01*
X215787Y430437D01*
X215675Y430443D01*
X215562Y430453D01*
X215450Y430466D01*
X215339Y430484D01*
X215228Y430505D01*
X215118Y430530D01*
X215009Y430559D01*
X214901Y430592D01*
X214794Y430628D01*
X214688Y430668D01*
X214584Y430712D01*
X214482Y430759D01*
X214381Y430810D01*
X214282Y430864D01*
X214185Y430922D01*
X214090Y430982D01*
X213997Y431047D01*
X213907Y431114D01*
X213819Y431184D01*
X213733Y431258D01*
X213650Y431334D01*
X213570Y431413D01*
X213492Y431495D01*
X213417Y431580D01*
X213345Y431667D01*
X213277Y431756D01*
X213211Y431848D01*
X213149Y431942D01*
X213090Y432038D01*
X213034Y432136D01*
X212982Y432236D01*
X212933Y432338D01*
X212887Y432441D01*
X212846Y432546D01*
X212808Y432652D01*
X212773Y432760D01*
X212743Y432868D01*
X212716Y432978D01*
X212693Y433088D01*
X212674Y433200D01*
X212658Y433311D01*
X212647Y433424D01*
X212639Y433536D01*
X212635Y433649D01*
X212731Y433649D01*
X212735Y433537D01*
X212743Y433425D01*
X212755Y433314D01*
X212770Y433203D01*
X212790Y433093D01*
X212813Y432983D01*
X212840Y432875D01*
X212871Y432767D01*
X212906Y432661D01*
X212945Y432556D01*
X212987Y432452D01*
X213033Y432350D01*
X213082Y432249D01*
X213135Y432151D01*
X213192Y432054D01*
X213252Y431959D01*
X213315Y431867D01*
X213381Y431777D01*
X213451Y431689D01*
X213523Y431604D01*
X213599Y431521D01*
X213677Y431441D01*
X213758Y431364D01*
X213842Y431290D01*
X213929Y431219D01*
X214018Y431151D01*
X214109Y431086D01*
X214202Y431024D01*
X214298Y430966D01*
X214396Y430911D01*
X214495Y430859D01*
X214596Y430812D01*
X214699Y430767D01*
X214803Y430727D01*
X214909Y430690D01*
X215016Y430657D01*
X215124Y430627D01*
X215233Y430602D01*
X215343Y430580D01*
X215454Y430563D01*
X215565Y430549D01*
X215676Y430539D01*
X215788Y430533D01*
X215900Y430531D01*
X216012Y430533D01*
X216124Y430539D01*
X216235Y430549D01*
X216346Y430563D01*
X216457Y430580D01*
X216567Y430602D01*
X216676Y430627D01*
X216784Y430657D01*
X216891Y430690D01*
X216997Y430727D01*
X217101Y430767D01*
X217204Y430812D01*
X217305Y430859D01*
X217404Y430911D01*
X217502Y430966D01*
X217598Y431024D01*
X217691Y431086D01*
X217782Y431151D01*
X217871Y431219D01*
X217958Y431290D01*
X218042Y431364D01*
X218123Y431441D01*
X218201Y431521D01*
X218277Y431604D01*
X218349Y431689D01*
X218419Y431777D01*
X218485Y431867D01*
X218548Y431959D01*
X218608Y432054D01*
X218665Y432151D01*
X218718Y432249D01*
X218767Y432350D01*
X218813Y432452D01*
X218855Y432556D01*
X218894Y432661D01*
X218929Y432767D01*
X218960Y432875D01*
X218987Y432983D01*
X219010Y433093D01*
X219030Y433203D01*
X219045Y433314D01*
X219057Y433425D01*
X219065Y433537D01*
X219069Y433649D01*
X218973Y433649D01*
X218969Y433539D01*
X218961Y433430D01*
X218949Y433321D01*
X218934Y433212D01*
X218915Y433104D01*
X218891Y432997D01*
X218864Y432890D01*
X218834Y432785D01*
X218799Y432681D01*
X218761Y432578D01*
X218719Y432476D01*
X218673Y432376D01*
X218624Y432278D01*
X218572Y432182D01*
X218516Y432087D01*
X218456Y431995D01*
X218394Y431905D01*
X218328Y431817D01*
X218259Y431731D01*
X218188Y431648D01*
X218113Y431568D01*
X218035Y431490D01*
X217955Y431415D01*
X217872Y431343D01*
X217786Y431274D01*
X217699Y431208D01*
X217608Y431146D01*
X217516Y431086D01*
X217422Y431030D01*
X217325Y430978D01*
X217227Y430928D01*
X217127Y430883D01*
X217026Y430841D01*
X216923Y430802D01*
X216819Y430768D01*
X216714Y430737D01*
X216607Y430709D01*
X216500Y430686D01*
X216392Y430667D01*
X216283Y430651D01*
X216174Y430639D01*
X216065Y430631D01*
X215955Y430627D01*
X215845Y430627D01*
X215735Y430631D01*
X215626Y430639D01*
X215517Y430651D01*
X215408Y430667D01*
X215300Y430686D01*
X215193Y430709D01*
X215086Y430737D01*
X214981Y430768D01*
X214877Y430802D01*
X214774Y430841D01*
X214673Y430883D01*
X214573Y430928D01*
X214475Y430978D01*
X214378Y431030D01*
X214284Y431086D01*
X214192Y431146D01*
X214101Y431208D01*
X214014Y431274D01*
X213928Y431343D01*
X213845Y431415D01*
X213765Y431490D01*
X213687Y431568D01*
X213612Y431648D01*
X213541Y431731D01*
X213472Y431817D01*
X213406Y431905D01*
X213344Y431995D01*
X213284Y432087D01*
X213228Y432182D01*
X213176Y432278D01*
X213127Y432376D01*
X213081Y432476D01*
X213039Y432578D01*
X213001Y432681D01*
X212966Y432785D01*
X212936Y432890D01*
X212909Y432997D01*
X212885Y433104D01*
X212866Y433212D01*
X212851Y433321D01*
X212839Y433430D01*
X212831Y433539D01*
X212827Y433649D01*
X212923Y433649D01*
X212927Y433542D01*
X212935Y433434D01*
X212946Y433327D01*
X212962Y433221D01*
X212981Y433115D01*
X213004Y433010D01*
X213031Y432906D01*
X213061Y432803D01*
X213096Y432701D01*
X213134Y432600D01*
X213175Y432501D01*
X213220Y432403D01*
X213269Y432307D01*
X213321Y432213D01*
X213376Y432121D01*
X213435Y432031D01*
X213497Y431943D01*
X213562Y431857D01*
X213630Y431774D01*
X213701Y431693D01*
X213775Y431615D01*
X213852Y431540D01*
X213931Y431467D01*
X214013Y431397D01*
X214097Y431331D01*
X214184Y431267D01*
X214273Y431207D01*
X214364Y431150D01*
X214458Y431096D01*
X214553Y431045D01*
X214649Y430998D01*
X214748Y430955D01*
X214848Y430915D01*
X214949Y430879D01*
X215051Y430847D01*
X215155Y430818D01*
X215260Y430793D01*
X215365Y430771D01*
X215471Y430754D01*
X215578Y430740D01*
X215685Y430731D01*
X215792Y430725D01*
X215900Y430723D01*
X216008Y430725D01*
X216115Y430731D01*
X216222Y430740D01*
X216329Y430754D01*
X216435Y430771D01*
X216540Y430793D01*
X216645Y430818D01*
X216749Y430847D01*
X216851Y430879D01*
X216952Y430915D01*
X217052Y430955D01*
X217151Y430998D01*
X217247Y431045D01*
X217342Y431096D01*
X217436Y431150D01*
X217527Y431207D01*
X217616Y431267D01*
X217703Y431331D01*
X217787Y431397D01*
X217869Y431467D01*
X217948Y431540D01*
X218025Y431615D01*
X218099Y431693D01*
X218170Y431774D01*
X218238Y431857D01*
X218303Y431943D01*
X218365Y432031D01*
X218424Y432121D01*
X218479Y432213D01*
X218531Y432307D01*
X218580Y432403D01*
X218625Y432501D01*
X218666Y432600D01*
X218704Y432701D01*
X218739Y432803D01*
X218769Y432906D01*
X218796Y433010D01*
X218819Y433115D01*
X218838Y433221D01*
X218854Y433327D01*
X218865Y433434D01*
X218873Y433542D01*
X218877Y433649D01*
X218781Y433649D01*
X218777Y433543D01*
X218769Y433436D01*
X218757Y433330D01*
X218742Y433225D01*
X218722Y433120D01*
X218699Y433016D01*
X218672Y432913D01*
X218641Y432811D01*
X218606Y432711D01*
X218567Y432611D01*
X218525Y432514D01*
X218480Y432417D01*
X218430Y432323D01*
X218378Y432230D01*
X218322Y432140D01*
X218262Y432051D01*
X218200Y431965D01*
X218134Y431881D01*
X218065Y431800D01*
X217994Y431721D01*
X217919Y431645D01*
X217842Y431572D01*
X217762Y431501D01*
X217679Y431434D01*
X217594Y431370D01*
X217507Y431309D01*
X217417Y431251D01*
X217326Y431197D01*
X217232Y431146D01*
X217137Y431098D01*
X217040Y431054D01*
X216941Y431014D01*
X216841Y430977D01*
X216740Y430944D01*
X216637Y430915D01*
X216534Y430890D01*
X216430Y430868D01*
X216325Y430850D01*
X216219Y430837D01*
X216113Y430827D01*
X216007Y430821D01*
X215900Y430819D01*
X215793Y430821D01*
X215687Y430827D01*
X215581Y430837D01*
X215475Y430850D01*
X215370Y430868D01*
X215266Y430890D01*
X215163Y430915D01*
X215060Y430944D01*
X214959Y430977D01*
X214859Y431014D01*
X214760Y431054D01*
X214663Y431098D01*
X214568Y431146D01*
X214474Y431197D01*
X214383Y431251D01*
X214293Y431309D01*
X214206Y431370D01*
X214121Y431434D01*
X214038Y431501D01*
X213958Y431572D01*
X213881Y431645D01*
X213806Y431721D01*
X213735Y431800D01*
X213666Y431881D01*
X213600Y431965D01*
X213538Y432051D01*
X213478Y432140D01*
X213422Y432230D01*
X213370Y432323D01*
X213320Y432417D01*
X213275Y432514D01*
X213233Y432611D01*
X213194Y432711D01*
X213159Y432811D01*
X213128Y432913D01*
X213101Y433016D01*
X213078Y433120D01*
X213058Y433225D01*
X213043Y433330D01*
X213031Y433436D01*
X213023Y433543D01*
X213019Y433649D01*
X213115Y433649D01*
X213119Y433545D01*
X213127Y433441D01*
X213139Y433337D01*
X213154Y433234D01*
X213174Y433132D01*
X213197Y433031D01*
X213224Y432930D01*
X213254Y432830D01*
X213289Y432732D01*
X213327Y432635D01*
X213368Y432539D01*
X213413Y432446D01*
X213462Y432353D01*
X213514Y432263D01*
X213570Y432175D01*
X213628Y432089D01*
X213690Y432005D01*
X213755Y431924D01*
X213823Y431845D01*
X213894Y431768D01*
X213967Y431695D01*
X214044Y431624D01*
X214123Y431556D01*
X214204Y431491D01*
X214288Y431429D01*
X214374Y431370D01*
X214462Y431315D01*
X214553Y431263D01*
X214645Y431214D01*
X214738Y431169D01*
X214834Y431127D01*
X214931Y431089D01*
X215029Y431055D01*
X215129Y431024D01*
X215229Y430997D01*
X215331Y430974D01*
X215433Y430954D01*
X215536Y430939D01*
X215640Y430927D01*
X215744Y430919D01*
X215848Y430915D01*
X215952Y430915D01*
X216056Y430919D01*
X216160Y430927D01*
X216264Y430939D01*
X216367Y430954D01*
X216469Y430974D01*
X216571Y430997D01*
X216671Y431024D01*
X216771Y431055D01*
X216869Y431089D01*
X216966Y431127D01*
X217062Y431169D01*
X217155Y431214D01*
X217247Y431263D01*
X217338Y431315D01*
X217426Y431370D01*
X217512Y431429D01*
X217596Y431491D01*
X217677Y431556D01*
X217756Y431624D01*
X217833Y431695D01*
X217906Y431768D01*
X217977Y431845D01*
X218045Y431924D01*
X218110Y432005D01*
X218172Y432089D01*
X218230Y432175D01*
X218286Y432263D01*
X218338Y432353D01*
X218387Y432446D01*
X218432Y432539D01*
X218473Y432635D01*
X218511Y432732D01*
X218546Y432830D01*
X218576Y432930D01*
X218603Y433031D01*
X218626Y433132D01*
X218646Y433234D01*
X218661Y433337D01*
X218673Y433441D01*
X218681Y433545D01*
X218685Y433649D01*
X218589Y433649D01*
X218585Y433546D01*
X218577Y433443D01*
X218565Y433341D01*
X218549Y433239D01*
X218530Y433138D01*
X218506Y433038D01*
X218479Y432938D01*
X218448Y432840D01*
X218413Y432743D01*
X218374Y432648D01*
X218332Y432554D01*
X218287Y432461D01*
X218237Y432371D01*
X218185Y432282D01*
X218129Y432196D01*
X218070Y432111D01*
X218007Y432029D01*
X217942Y431950D01*
X217873Y431873D01*
X217802Y431799D01*
X217727Y431727D01*
X217650Y431659D01*
X217571Y431593D01*
X217489Y431531D01*
X217405Y431471D01*
X217318Y431415D01*
X217230Y431363D01*
X217139Y431314D01*
X217047Y431268D01*
X216953Y431226D01*
X216857Y431187D01*
X216760Y431152D01*
X216662Y431121D01*
X216563Y431094D01*
X216463Y431070D01*
X216361Y431051D01*
X216260Y431035D01*
X216157Y431023D01*
X216054Y431015D01*
X215952Y431011D01*
X215848Y431011D01*
X215746Y431015D01*
X215643Y431023D01*
X215540Y431035D01*
X215439Y431051D01*
X215337Y431070D01*
X215237Y431094D01*
X215138Y431121D01*
X215040Y431152D01*
X214943Y431187D01*
X214847Y431226D01*
X214753Y431268D01*
X214661Y431314D01*
X214570Y431363D01*
X214482Y431415D01*
X214395Y431471D01*
X214311Y431531D01*
X214229Y431593D01*
X214150Y431659D01*
X214073Y431727D01*
X213998Y431799D01*
X213927Y431873D01*
X213858Y431950D01*
X213793Y432029D01*
X213730Y432111D01*
X213671Y432196D01*
X213615Y432282D01*
X213563Y432371D01*
X213513Y432461D01*
X213468Y432554D01*
X213426Y432648D01*
X213387Y432743D01*
X213352Y432840D01*
X213321Y432938D01*
X213294Y433038D01*
X213270Y433138D01*
X213251Y433239D01*
X213235Y433341D01*
X213223Y433443D01*
X213215Y433546D01*
X213211Y433649D01*
X213308Y433649D01*
X213312Y433547D01*
X213319Y433446D01*
X213331Y433345D01*
X213347Y433244D01*
X213367Y433144D01*
X213391Y433045D01*
X213419Y432947D01*
X213450Y432850D01*
X213485Y432755D01*
X213524Y432661D01*
X213567Y432568D01*
X213613Y432478D01*
X213663Y432389D01*
X213716Y432302D01*
X213773Y432217D01*
X213833Y432135D01*
X213896Y432055D01*
X213962Y431978D01*
X214031Y431903D01*
X214103Y431831D01*
X214178Y431762D01*
X214255Y431696D01*
X214335Y431633D01*
X214417Y431573D01*
X214502Y431516D01*
X214589Y431463D01*
X214678Y431413D01*
X214768Y431367D01*
X214861Y431324D01*
X214955Y431285D01*
X215050Y431250D01*
X215147Y431219D01*
X215245Y431191D01*
X215344Y431167D01*
X215444Y431147D01*
X215545Y431131D01*
X215646Y431119D01*
X215747Y431111D01*
X215849Y431107D01*
X215951Y431107D01*
X216053Y431111D01*
X216154Y431119D01*
X216255Y431131D01*
X216356Y431147D01*
X216456Y431167D01*
X216555Y431191D01*
X216653Y431219D01*
X216750Y431250D01*
X216845Y431285D01*
X216939Y431324D01*
X217032Y431367D01*
X217122Y431413D01*
X217211Y431463D01*
X217298Y431516D01*
X217383Y431573D01*
X217465Y431633D01*
X217545Y431696D01*
X217622Y431762D01*
X217697Y431831D01*
X217769Y431903D01*
X217838Y431978D01*
X217904Y432055D01*
X217967Y432135D01*
X218027Y432217D01*
X218084Y432302D01*
X218137Y432389D01*
X218187Y432478D01*
X218233Y432568D01*
X218276Y432661D01*
X218315Y432755D01*
X218350Y432850D01*
X218381Y432947D01*
X218409Y433045D01*
X218433Y433144D01*
X218453Y433244D01*
X218469Y433345D01*
X218481Y433446D01*
X218488Y433547D01*
X218492Y433649D01*
D22*
X218878Y417225D02*
X218421Y417225D01*
X218422Y417225D02*
X218419Y417325D01*
X218412Y417424D01*
X218401Y417524D01*
X218386Y417622D01*
X218368Y417720D01*
X218345Y417817D01*
X218319Y417913D01*
X218289Y418008D01*
X218255Y418102D01*
X218218Y418194D01*
X218177Y418285D01*
X218132Y418374D01*
X218084Y418461D01*
X218032Y418547D01*
X217978Y418630D01*
X217919Y418711D01*
X217858Y418789D01*
X217794Y418865D01*
X217727Y418939D01*
X217656Y419010D01*
X217584Y419078D01*
X217508Y419143D01*
X217430Y419205D01*
X217350Y419264D01*
X217267Y419319D01*
X217182Y419372D01*
X217096Y419421D01*
X217007Y419466D01*
X216917Y419508D01*
X216825Y419546D01*
X216731Y419581D01*
X216636Y419612D01*
X216541Y419639D01*
X216444Y419663D01*
X216346Y419682D01*
X216248Y419698D01*
X216149Y419710D01*
X216049Y419718D01*
X215950Y419722D01*
X215850Y419722D01*
X215751Y419718D01*
X215651Y419710D01*
X215552Y419698D01*
X215454Y419682D01*
X215356Y419663D01*
X215259Y419639D01*
X215164Y419612D01*
X215069Y419581D01*
X214975Y419546D01*
X214883Y419508D01*
X214793Y419466D01*
X214704Y419421D01*
X214618Y419372D01*
X214533Y419319D01*
X214450Y419264D01*
X214370Y419205D01*
X214292Y419143D01*
X214216Y419078D01*
X214144Y419010D01*
X214073Y418939D01*
X214006Y418865D01*
X213942Y418789D01*
X213881Y418711D01*
X213822Y418630D01*
X213768Y418547D01*
X213716Y418461D01*
X213668Y418374D01*
X213623Y418285D01*
X213582Y418194D01*
X213545Y418102D01*
X213511Y418008D01*
X213481Y417913D01*
X213455Y417817D01*
X213432Y417720D01*
X213414Y417622D01*
X213399Y417524D01*
X213388Y417424D01*
X213381Y417325D01*
X213378Y417225D01*
X212922Y417225D01*
X212921Y417225D01*
X212924Y417334D01*
X212931Y417442D01*
X212942Y417549D01*
X212956Y417657D01*
X212975Y417763D01*
X212997Y417869D01*
X213023Y417974D01*
X213053Y418078D01*
X213087Y418181D01*
X213125Y418282D01*
X213166Y418383D01*
X213211Y418481D01*
X213259Y418578D01*
X213311Y418673D01*
X213366Y418766D01*
X213424Y418857D01*
X213486Y418946D01*
X213551Y419032D01*
X213619Y419117D01*
X213690Y419198D01*
X213764Y419277D01*
X213841Y419353D01*
X213921Y419427D01*
X214003Y419497D01*
X214088Y419564D01*
X214175Y419629D01*
X214264Y419690D01*
X214356Y419747D01*
X214449Y419802D01*
X214545Y419853D01*
X214642Y419900D01*
X214741Y419944D01*
X214841Y419985D01*
X214943Y420021D01*
X215046Y420054D01*
X215151Y420083D01*
X215256Y420109D01*
X215362Y420130D01*
X215469Y420148D01*
X215576Y420161D01*
X215684Y420171D01*
X215792Y420177D01*
X215900Y420179D01*
X216008Y420177D01*
X216116Y420171D01*
X216224Y420161D01*
X216331Y420148D01*
X216438Y420130D01*
X216544Y420109D01*
X216649Y420083D01*
X216754Y420054D01*
X216857Y420021D01*
X216959Y419985D01*
X217059Y419944D01*
X217158Y419900D01*
X217255Y419853D01*
X217351Y419802D01*
X217444Y419747D01*
X217536Y419690D01*
X217625Y419629D01*
X217712Y419564D01*
X217797Y419497D01*
X217879Y419427D01*
X217959Y419353D01*
X218036Y419277D01*
X218110Y419198D01*
X218181Y419117D01*
X218249Y419032D01*
X218314Y418946D01*
X218376Y418857D01*
X218434Y418766D01*
X218489Y418673D01*
X218541Y418578D01*
X218589Y418481D01*
X218634Y418383D01*
X218675Y418282D01*
X218713Y418181D01*
X218747Y418078D01*
X218777Y417974D01*
X218803Y417869D01*
X218825Y417763D01*
X218844Y417657D01*
X218858Y417549D01*
X218869Y417442D01*
X218876Y417334D01*
X218879Y417225D01*
X218832Y417225D01*
X218829Y417332D01*
X218822Y417438D01*
X218812Y417544D01*
X218797Y417650D01*
X218779Y417755D01*
X218757Y417859D01*
X218731Y417962D01*
X218702Y418065D01*
X218668Y418166D01*
X218631Y418266D01*
X218591Y418364D01*
X218547Y418461D01*
X218499Y418556D01*
X218448Y418650D01*
X218394Y418742D01*
X218336Y418831D01*
X218276Y418919D01*
X218212Y419004D01*
X218145Y419086D01*
X218075Y419167D01*
X218002Y419244D01*
X217926Y419319D01*
X217848Y419392D01*
X217767Y419461D01*
X217684Y419527D01*
X217598Y419590D01*
X217510Y419651D01*
X217420Y419707D01*
X217328Y419761D01*
X217234Y419811D01*
X217138Y419858D01*
X217041Y419901D01*
X216942Y419941D01*
X216842Y419977D01*
X216740Y420009D01*
X216638Y420038D01*
X216534Y420063D01*
X216430Y420084D01*
X216325Y420101D01*
X216219Y420115D01*
X216113Y420124D01*
X216006Y420130D01*
X215900Y420132D01*
X215794Y420130D01*
X215687Y420124D01*
X215581Y420115D01*
X215475Y420101D01*
X215370Y420084D01*
X215266Y420063D01*
X215162Y420038D01*
X215060Y420009D01*
X214958Y419977D01*
X214858Y419941D01*
X214759Y419901D01*
X214662Y419858D01*
X214566Y419811D01*
X214472Y419761D01*
X214380Y419707D01*
X214290Y419651D01*
X214202Y419590D01*
X214116Y419527D01*
X214033Y419461D01*
X213952Y419392D01*
X213874Y419319D01*
X213798Y419244D01*
X213725Y419167D01*
X213655Y419086D01*
X213588Y419004D01*
X213524Y418919D01*
X213464Y418831D01*
X213406Y418742D01*
X213352Y418650D01*
X213301Y418556D01*
X213253Y418461D01*
X213209Y418364D01*
X213169Y418266D01*
X213132Y418166D01*
X213098Y418065D01*
X213069Y417962D01*
X213043Y417859D01*
X213021Y417755D01*
X213003Y417650D01*
X212988Y417544D01*
X212978Y417438D01*
X212971Y417332D01*
X212968Y417225D01*
X213015Y417225D01*
X213018Y417331D01*
X213025Y417437D01*
X213035Y417543D01*
X213050Y417648D01*
X213068Y417752D01*
X213091Y417856D01*
X213117Y417959D01*
X213146Y418060D01*
X213180Y418161D01*
X213217Y418260D01*
X213258Y418358D01*
X213302Y418455D01*
X213350Y418549D01*
X213401Y418642D01*
X213456Y418733D01*
X213514Y418822D01*
X213575Y418908D01*
X213639Y418992D01*
X213707Y419074D01*
X213777Y419154D01*
X213850Y419230D01*
X213926Y419304D01*
X214005Y419375D01*
X214086Y419443D01*
X214170Y419509D01*
X214256Y419571D01*
X214344Y419629D01*
X214434Y419685D01*
X214527Y419737D01*
X214621Y419786D01*
X214717Y419831D01*
X214814Y419873D01*
X214913Y419911D01*
X215013Y419945D01*
X215115Y419976D01*
X215217Y420003D01*
X215321Y420026D01*
X215425Y420046D01*
X215530Y420061D01*
X215635Y420073D01*
X215741Y420081D01*
X215847Y420085D01*
X215953Y420085D01*
X216059Y420081D01*
X216165Y420073D01*
X216270Y420061D01*
X216375Y420046D01*
X216479Y420026D01*
X216583Y420003D01*
X216685Y419976D01*
X216787Y419945D01*
X216887Y419911D01*
X216986Y419873D01*
X217083Y419831D01*
X217179Y419786D01*
X217273Y419737D01*
X217366Y419685D01*
X217456Y419629D01*
X217544Y419571D01*
X217630Y419509D01*
X217714Y419443D01*
X217795Y419375D01*
X217874Y419304D01*
X217950Y419230D01*
X218023Y419154D01*
X218093Y419074D01*
X218161Y418992D01*
X218225Y418908D01*
X218286Y418822D01*
X218344Y418733D01*
X218399Y418642D01*
X218450Y418549D01*
X218498Y418455D01*
X218542Y418358D01*
X218583Y418260D01*
X218620Y418161D01*
X218654Y418060D01*
X218683Y417959D01*
X218709Y417856D01*
X218732Y417752D01*
X218750Y417648D01*
X218765Y417543D01*
X218775Y417437D01*
X218782Y417331D01*
X218785Y417225D01*
X218738Y417225D01*
X218735Y417331D01*
X218728Y417436D01*
X218717Y417541D01*
X218703Y417646D01*
X218684Y417750D01*
X218662Y417853D01*
X218636Y417955D01*
X218606Y418056D01*
X218572Y418156D01*
X218535Y418255D01*
X218494Y418352D01*
X218449Y418448D01*
X218401Y418542D01*
X218349Y418634D01*
X218294Y418724D01*
X218236Y418812D01*
X218174Y418897D01*
X218110Y418981D01*
X218042Y419062D01*
X217971Y419140D01*
X217898Y419216D01*
X217821Y419289D01*
X217742Y419359D01*
X217661Y419426D01*
X217577Y419490D01*
X217491Y419550D01*
X217402Y419608D01*
X217312Y419662D01*
X217219Y419713D01*
X217125Y419760D01*
X217029Y419804D01*
X216931Y419844D01*
X216832Y419881D01*
X216732Y419913D01*
X216630Y419942D01*
X216528Y419968D01*
X216425Y419989D01*
X216321Y420007D01*
X216216Y420020D01*
X216111Y420030D01*
X216006Y420036D01*
X215900Y420038D01*
X215794Y420036D01*
X215689Y420030D01*
X215584Y420020D01*
X215479Y420007D01*
X215375Y419989D01*
X215272Y419968D01*
X215170Y419942D01*
X215068Y419913D01*
X214968Y419881D01*
X214869Y419844D01*
X214771Y419804D01*
X214675Y419760D01*
X214581Y419713D01*
X214488Y419662D01*
X214398Y419608D01*
X214309Y419550D01*
X214223Y419490D01*
X214139Y419426D01*
X214058Y419359D01*
X213979Y419289D01*
X213902Y419216D01*
X213829Y419140D01*
X213758Y419062D01*
X213690Y418981D01*
X213626Y418897D01*
X213564Y418812D01*
X213506Y418724D01*
X213451Y418634D01*
X213399Y418542D01*
X213351Y418448D01*
X213306Y418352D01*
X213265Y418255D01*
X213228Y418156D01*
X213194Y418056D01*
X213164Y417955D01*
X213138Y417853D01*
X213116Y417750D01*
X213097Y417646D01*
X213083Y417541D01*
X213072Y417436D01*
X213065Y417331D01*
X213062Y417225D01*
X213109Y417225D01*
X213112Y417330D01*
X213119Y417435D01*
X213130Y417540D01*
X213144Y417644D01*
X213163Y417747D01*
X213186Y417850D01*
X213212Y417951D01*
X213242Y418052D01*
X213276Y418151D01*
X213314Y418249D01*
X213355Y418346D01*
X213400Y418441D01*
X213448Y418534D01*
X213500Y418625D01*
X213556Y418715D01*
X213614Y418802D01*
X213676Y418887D01*
X213741Y418969D01*
X213809Y419049D01*
X213880Y419126D01*
X213954Y419201D01*
X214031Y419273D01*
X214110Y419342D01*
X214192Y419407D01*
X214276Y419470D01*
X214363Y419530D01*
X214452Y419586D01*
X214542Y419639D01*
X214635Y419688D01*
X214730Y419734D01*
X214826Y419776D01*
X214923Y419815D01*
X215022Y419849D01*
X215123Y419881D01*
X215224Y419908D01*
X215326Y419931D01*
X215430Y419951D01*
X215533Y419967D01*
X215638Y419979D01*
X215743Y419987D01*
X215847Y419991D01*
X215953Y419991D01*
X216057Y419987D01*
X216162Y419979D01*
X216267Y419967D01*
X216370Y419951D01*
X216474Y419931D01*
X216576Y419908D01*
X216677Y419881D01*
X216778Y419849D01*
X216877Y419815D01*
X216974Y419776D01*
X217070Y419734D01*
X217165Y419688D01*
X217258Y419639D01*
X217348Y419586D01*
X217437Y419530D01*
X217524Y419470D01*
X217608Y419407D01*
X217690Y419342D01*
X217769Y419273D01*
X217846Y419201D01*
X217920Y419126D01*
X217991Y419049D01*
X218059Y418969D01*
X218124Y418887D01*
X218186Y418802D01*
X218244Y418715D01*
X218300Y418625D01*
X218352Y418534D01*
X218400Y418441D01*
X218445Y418346D01*
X218486Y418249D01*
X218524Y418151D01*
X218558Y418052D01*
X218588Y417951D01*
X218614Y417850D01*
X218637Y417747D01*
X218656Y417644D01*
X218670Y417540D01*
X218681Y417435D01*
X218688Y417330D01*
X218691Y417225D01*
X218644Y417225D01*
X218641Y417329D01*
X218634Y417432D01*
X218624Y417534D01*
X218609Y417637D01*
X218591Y417738D01*
X218569Y417839D01*
X218543Y417939D01*
X218513Y418038D01*
X218480Y418136D01*
X218443Y418232D01*
X218402Y418327D01*
X218358Y418420D01*
X218310Y418512D01*
X218259Y418602D01*
X218205Y418689D01*
X218147Y418775D01*
X218086Y418858D01*
X218022Y418939D01*
X217955Y419018D01*
X217885Y419094D01*
X217813Y419167D01*
X217737Y419238D01*
X217660Y419306D01*
X217579Y419370D01*
X217496Y419432D01*
X217411Y419490D01*
X217324Y419546D01*
X217235Y419598D01*
X217144Y419646D01*
X217051Y419691D01*
X216956Y419733D01*
X216860Y419771D01*
X216763Y419805D01*
X216664Y419835D01*
X216564Y419862D01*
X216464Y419885D01*
X216362Y419905D01*
X216260Y419920D01*
X216158Y419932D01*
X216055Y419940D01*
X215952Y419944D01*
X215848Y419944D01*
X215745Y419940D01*
X215642Y419932D01*
X215540Y419920D01*
X215438Y419905D01*
X215336Y419885D01*
X215236Y419862D01*
X215136Y419835D01*
X215037Y419805D01*
X214940Y419771D01*
X214844Y419733D01*
X214749Y419691D01*
X214656Y419646D01*
X214565Y419598D01*
X214476Y419546D01*
X214389Y419490D01*
X214304Y419432D01*
X214221Y419370D01*
X214140Y419306D01*
X214063Y419238D01*
X213987Y419167D01*
X213915Y419094D01*
X213845Y419018D01*
X213778Y418939D01*
X213714Y418858D01*
X213653Y418775D01*
X213595Y418689D01*
X213541Y418602D01*
X213490Y418512D01*
X213442Y418420D01*
X213398Y418327D01*
X213357Y418232D01*
X213320Y418136D01*
X213287Y418038D01*
X213257Y417939D01*
X213231Y417839D01*
X213209Y417738D01*
X213191Y417637D01*
X213176Y417534D01*
X213166Y417432D01*
X213159Y417329D01*
X213156Y417225D01*
X213203Y417225D01*
X213206Y417328D01*
X213213Y417431D01*
X213224Y417533D01*
X213238Y417634D01*
X213257Y417735D01*
X213279Y417836D01*
X213305Y417935D01*
X213335Y418033D01*
X213369Y418130D01*
X213406Y418226D01*
X213447Y418320D01*
X213491Y418413D01*
X213539Y418504D01*
X213590Y418593D01*
X213645Y418680D01*
X213703Y418764D01*
X213764Y418847D01*
X213828Y418927D01*
X213896Y419005D01*
X213966Y419080D01*
X214039Y419152D01*
X214114Y419221D01*
X214193Y419288D01*
X214273Y419351D01*
X214357Y419412D01*
X214442Y419469D01*
X214529Y419523D01*
X214619Y419573D01*
X214710Y419620D01*
X214803Y419664D01*
X214898Y419704D01*
X214994Y419740D01*
X215091Y419773D01*
X215190Y419802D01*
X215289Y419827D01*
X215390Y419848D01*
X215491Y419866D01*
X215593Y419879D01*
X215695Y419889D01*
X215797Y419895D01*
X215900Y419897D01*
X216003Y419895D01*
X216105Y419889D01*
X216207Y419879D01*
X216309Y419866D01*
X216410Y419848D01*
X216511Y419827D01*
X216610Y419802D01*
X216709Y419773D01*
X216806Y419740D01*
X216902Y419704D01*
X216997Y419664D01*
X217090Y419620D01*
X217181Y419573D01*
X217271Y419523D01*
X217358Y419469D01*
X217443Y419412D01*
X217527Y419351D01*
X217607Y419288D01*
X217686Y419221D01*
X217761Y419152D01*
X217834Y419080D01*
X217904Y419005D01*
X217972Y418927D01*
X218036Y418847D01*
X218097Y418764D01*
X218155Y418680D01*
X218210Y418593D01*
X218261Y418504D01*
X218309Y418413D01*
X218353Y418320D01*
X218394Y418226D01*
X218431Y418130D01*
X218465Y418033D01*
X218495Y417935D01*
X218521Y417836D01*
X218543Y417735D01*
X218562Y417634D01*
X218576Y417533D01*
X218587Y417431D01*
X218594Y417328D01*
X218597Y417225D01*
X218550Y417225D01*
X218547Y417328D01*
X218540Y417430D01*
X218529Y417531D01*
X218515Y417632D01*
X218496Y417733D01*
X218473Y417832D01*
X218447Y417931D01*
X218417Y418029D01*
X218383Y418125D01*
X218346Y418220D01*
X218305Y418313D01*
X218260Y418405D01*
X218212Y418495D01*
X218160Y418584D01*
X218105Y418670D01*
X218047Y418753D01*
X217985Y418835D01*
X217921Y418914D01*
X217853Y418991D01*
X217783Y419065D01*
X217710Y419136D01*
X217634Y419204D01*
X217555Y419270D01*
X217474Y419332D01*
X217391Y419391D01*
X217305Y419447D01*
X217218Y419499D01*
X217128Y419548D01*
X217037Y419594D01*
X216944Y419636D01*
X216849Y419674D01*
X216753Y419709D01*
X216656Y419740D01*
X216557Y419767D01*
X216458Y419791D01*
X216357Y419810D01*
X216256Y419826D01*
X216155Y419838D01*
X216053Y419846D01*
X215951Y419850D01*
X215849Y419850D01*
X215747Y419846D01*
X215645Y419838D01*
X215544Y419826D01*
X215443Y419810D01*
X215342Y419791D01*
X215243Y419767D01*
X215144Y419740D01*
X215047Y419709D01*
X214951Y419674D01*
X214856Y419636D01*
X214763Y419594D01*
X214672Y419548D01*
X214582Y419499D01*
X214495Y419447D01*
X214409Y419391D01*
X214326Y419332D01*
X214245Y419270D01*
X214166Y419204D01*
X214090Y419136D01*
X214017Y419065D01*
X213947Y418991D01*
X213879Y418914D01*
X213815Y418835D01*
X213753Y418753D01*
X213695Y418670D01*
X213640Y418584D01*
X213588Y418495D01*
X213540Y418405D01*
X213495Y418313D01*
X213454Y418220D01*
X213417Y418125D01*
X213383Y418029D01*
X213353Y417931D01*
X213327Y417832D01*
X213304Y417733D01*
X213285Y417632D01*
X213271Y417531D01*
X213260Y417430D01*
X213253Y417328D01*
X213250Y417225D01*
X213297Y417225D01*
X213300Y417327D01*
X213307Y417428D01*
X213318Y417529D01*
X213333Y417630D01*
X213351Y417730D01*
X213374Y417829D01*
X213401Y417927D01*
X213431Y418024D01*
X213465Y418119D01*
X213503Y418214D01*
X213544Y418307D01*
X213589Y418398D01*
X213637Y418487D01*
X213689Y418574D01*
X213745Y418659D01*
X213803Y418742D01*
X213865Y418823D01*
X213930Y418901D01*
X213998Y418977D01*
X214068Y419050D01*
X214142Y419120D01*
X214218Y419187D01*
X214297Y419251D01*
X214378Y419312D01*
X214462Y419370D01*
X214548Y419424D01*
X214635Y419475D01*
X214725Y419523D01*
X214817Y419567D01*
X214910Y419607D01*
X215004Y419644D01*
X215100Y419677D01*
X215198Y419706D01*
X215296Y419732D01*
X215395Y419754D01*
X215495Y419771D01*
X215596Y419785D01*
X215697Y419795D01*
X215798Y419801D01*
X215900Y419803D01*
X216002Y419801D01*
X216103Y419795D01*
X216204Y419785D01*
X216305Y419771D01*
X216405Y419754D01*
X216504Y419732D01*
X216602Y419706D01*
X216700Y419677D01*
X216796Y419644D01*
X216890Y419607D01*
X216983Y419567D01*
X217075Y419523D01*
X217165Y419475D01*
X217252Y419424D01*
X217338Y419370D01*
X217422Y419312D01*
X217503Y419251D01*
X217582Y419187D01*
X217658Y419120D01*
X217732Y419050D01*
X217802Y418977D01*
X217870Y418901D01*
X217935Y418823D01*
X217997Y418742D01*
X218055Y418659D01*
X218111Y418574D01*
X218163Y418487D01*
X218211Y418398D01*
X218256Y418307D01*
X218297Y418214D01*
X218335Y418119D01*
X218369Y418024D01*
X218399Y417927D01*
X218426Y417829D01*
X218449Y417730D01*
X218467Y417630D01*
X218482Y417529D01*
X218493Y417428D01*
X218500Y417327D01*
X218503Y417225D01*
X218456Y417225D01*
X218453Y417326D01*
X218446Y417427D01*
X218435Y417528D01*
X218420Y417627D01*
X218401Y417727D01*
X218378Y417825D01*
X218352Y417923D01*
X218321Y418019D01*
X218287Y418114D01*
X218249Y418207D01*
X218207Y418299D01*
X218162Y418390D01*
X218113Y418478D01*
X218061Y418565D01*
X218006Y418649D01*
X217947Y418731D01*
X217885Y418811D01*
X217820Y418888D01*
X217751Y418962D01*
X217680Y419034D01*
X217606Y419103D01*
X217530Y419169D01*
X217451Y419232D01*
X217369Y419291D01*
X217286Y419348D01*
X217200Y419401D01*
X217112Y419450D01*
X217022Y419497D01*
X216930Y419539D01*
X216837Y419578D01*
X216742Y419613D01*
X216646Y419645D01*
X216549Y419672D01*
X216451Y419696D01*
X216352Y419716D01*
X216252Y419732D01*
X216152Y419744D01*
X216051Y419752D01*
X215950Y419756D01*
X215850Y419756D01*
X215749Y419752D01*
X215648Y419744D01*
X215548Y419732D01*
X215448Y419716D01*
X215349Y419696D01*
X215251Y419672D01*
X215154Y419645D01*
X215058Y419613D01*
X214963Y419578D01*
X214870Y419539D01*
X214778Y419497D01*
X214688Y419450D01*
X214600Y419401D01*
X214514Y419348D01*
X214431Y419291D01*
X214349Y419232D01*
X214270Y419169D01*
X214194Y419103D01*
X214120Y419034D01*
X214049Y418962D01*
X213980Y418888D01*
X213915Y418811D01*
X213853Y418731D01*
X213794Y418649D01*
X213739Y418565D01*
X213687Y418478D01*
X213638Y418390D01*
X213593Y418299D01*
X213551Y418207D01*
X213513Y418114D01*
X213479Y418019D01*
X213448Y417923D01*
X213422Y417825D01*
X213399Y417727D01*
X213380Y417627D01*
X213365Y417528D01*
X213354Y417427D01*
X213347Y417326D01*
X213344Y417225D01*
D23*
X211900Y421950D02*
X211900Y429200D01*
X219900Y428950D02*
X219900Y421950D01*
D24*
X212400Y433200D03*
D25*
X213400Y431200D03*
D26*
X211650Y430825D03*
D27*
X219400Y432450D03*
D28*
X215900Y430075D03*
D29*
X212400Y419450D03*
X219400Y419450D03*
D30*
X215900Y420825D03*
D31*
X213650Y419450D03*
X218150Y419450D03*
D23*
X209042Y413258D02*
X197358Y413258D01*
X209042Y413258D02*
X209042Y418451D01*
X209042Y423164D02*
X209042Y428357D01*
X209042Y423164D02*
X197358Y423164D01*
X197358Y428357D01*
X202551Y427059D02*
X202551Y423164D01*
X197358Y433047D02*
X209042Y433047D01*
X197358Y433047D02*
X197358Y436293D01*
X197360Y436406D01*
X197366Y436519D01*
X197376Y436632D01*
X197390Y436745D01*
X197407Y436857D01*
X197429Y436968D01*
X197454Y437078D01*
X197484Y437188D01*
X197517Y437296D01*
X197554Y437403D01*
X197594Y437509D01*
X197639Y437613D01*
X197687Y437716D01*
X197738Y437817D01*
X197793Y437916D01*
X197851Y438013D01*
X197913Y438108D01*
X197978Y438201D01*
X198046Y438291D01*
X198117Y438379D01*
X198192Y438465D01*
X198269Y438548D01*
X198349Y438628D01*
X198432Y438705D01*
X198518Y438780D01*
X198606Y438851D01*
X198696Y438919D01*
X198789Y438984D01*
X198884Y439046D01*
X198981Y439104D01*
X199080Y439159D01*
X199181Y439210D01*
X199284Y439258D01*
X199388Y439303D01*
X199494Y439343D01*
X199601Y439380D01*
X199709Y439413D01*
X199819Y439443D01*
X199929Y439468D01*
X200040Y439490D01*
X200152Y439507D01*
X200265Y439521D01*
X200378Y439531D01*
X200491Y439537D01*
X200604Y439539D01*
X205796Y439539D01*
X205909Y439537D01*
X206022Y439531D01*
X206135Y439521D01*
X206248Y439507D01*
X206360Y439490D01*
X206471Y439468D01*
X206581Y439443D01*
X206691Y439413D01*
X206799Y439380D01*
X206906Y439343D01*
X207012Y439303D01*
X207116Y439258D01*
X207219Y439210D01*
X207320Y439159D01*
X207419Y439104D01*
X207516Y439046D01*
X207611Y438984D01*
X207704Y438919D01*
X207794Y438851D01*
X207882Y438780D01*
X207968Y438705D01*
X208051Y438628D01*
X208131Y438548D01*
X208208Y438465D01*
X208283Y438379D01*
X208354Y438291D01*
X208422Y438201D01*
X208487Y438108D01*
X208549Y438013D01*
X208607Y437916D01*
X208662Y437817D01*
X208713Y437716D01*
X208761Y437613D01*
X208806Y437509D01*
X208846Y437403D01*
X208883Y437296D01*
X208916Y437188D01*
X208946Y437078D01*
X208971Y436968D01*
X208993Y436857D01*
X209010Y436745D01*
X209024Y436632D01*
X209034Y436519D01*
X209040Y436406D01*
X209042Y436293D01*
X209042Y433047D01*
X199954Y444858D02*
X197358Y448104D01*
X209042Y448104D01*
X209042Y451349D02*
X209042Y444858D01*
D32*
X0Y19050D02*
X73Y17390D01*
X289Y15742D01*
X649Y14120D01*
X1149Y12535D01*
X1785Y10999D01*
X2552Y9525D01*
X3445Y8123D01*
X4457Y6805D01*
X5580Y5580D01*
X6805Y4457D01*
X8123Y3445D01*
X9525Y2552D01*
X10999Y1785D01*
X12535Y1149D01*
X14120Y649D01*
X15742Y289D01*
X17390Y73D01*
X19050Y0D01*
X361950Y0D01*
X363610Y73D01*
X365258Y289D01*
X366881Y649D01*
X368465Y1149D01*
X370001Y1785D01*
X371475Y2552D01*
X372877Y3445D01*
X374195Y4457D01*
X375420Y5580D01*
X376543Y6805D01*
X377555Y8123D01*
X378448Y9525D01*
X379215Y10999D01*
X379851Y12535D01*
X380351Y14120D01*
X380711Y15742D01*
X380928Y17390D01*
X381000Y19050D01*
X381000Y450850D01*
X380928Y452510D01*
X380711Y454158D01*
X380351Y455781D01*
X379851Y457365D01*
X379215Y458901D01*
X378448Y460375D01*
X377555Y461777D01*
X376543Y463095D01*
X375420Y464320D01*
X374195Y465443D01*
X372877Y466455D01*
X371475Y467348D01*
X370001Y468115D01*
X368465Y468751D01*
X366881Y469251D01*
X365258Y469611D01*
X363610Y469828D01*
X361950Y469900D01*
X19050Y469900D01*
X17390Y469828D01*
X15742Y469611D01*
X14120Y469251D01*
X12535Y468751D01*
X10999Y468115D01*
X9525Y467348D01*
X8123Y466455D01*
X6805Y465443D01*
X5580Y464320D01*
X4457Y463095D01*
X3445Y461777D01*
X2552Y460375D01*
X1785Y458901D01*
X1149Y457365D01*
X649Y455781D01*
X289Y454158D01*
X73Y452510D01*
X0Y450850D01*
X0Y304800D01*
X82550Y304800D01*
X84210Y304728D01*
X85858Y304511D01*
X87481Y304151D01*
X89065Y303651D01*
X90601Y303015D01*
X92075Y302248D01*
X93477Y301355D01*
X94795Y300343D01*
X96020Y299220D01*
X97143Y297995D01*
X98155Y296677D01*
X99048Y295275D01*
X99815Y293801D01*
X100451Y292265D01*
X100951Y290681D01*
X101311Y289058D01*
X101528Y287410D01*
X101600Y285750D01*
X101600Y133350D01*
X101528Y131690D01*
X101311Y130042D01*
X100951Y128420D01*
X100451Y126835D01*
X99815Y125299D01*
X99048Y123825D01*
X98155Y122423D01*
X97143Y121105D01*
X96020Y119880D01*
X94795Y118757D01*
X93477Y117745D01*
X92075Y116852D01*
X90601Y116085D01*
X89065Y115449D01*
X87481Y114949D01*
X85858Y114589D01*
X84210Y114373D01*
X82550Y114300D01*
X19050Y114300D01*
X17390Y114228D01*
X15742Y114011D01*
X14120Y113651D01*
X12535Y113151D01*
X10999Y112515D01*
X9525Y111748D01*
X8123Y110855D01*
X6805Y109843D01*
X5580Y108720D01*
X4457Y107495D01*
X3445Y106177D01*
X2552Y104775D01*
X1785Y103301D01*
X1149Y101765D01*
X649Y100181D01*
X289Y98558D01*
X73Y96910D01*
X0Y95250D01*
X0Y19050D01*
M02*
