G04 EAGLE Gerber RS-274X export*
G75*
%MOMM*%
%FSLAX34Y34*%
%LPD*%
%INReference Desginators Bottom*%
%IPPOS*%
%AMOC8*
5,1,8,0,0,1.08239X$1,22.5*%
G01*
%ADD10C,0.152400*%
%ADD11C,0.076200*%
%ADD12C,0.050000*%
%ADD13C,0.100000*%
%ADD14R,0.320000X1.350000*%
%ADD15C,0.127000*%
%ADD16R,0.250000X0.550000*%
%ADD17R,0.550000X0.250000*%
%ADD18C,0.140000*%
%ADD19C,0.050800*%
%ADD20C,0.025400*%
%ADD21C,0.254000*%


D10*
X212852Y228346D02*
X200152Y241046D01*
X181864Y241046D02*
X178816Y241046D01*
X178816Y242062D01*
X181864Y241808D01*
X181864Y241046D01*
X183896Y241046D02*
X186944Y241046D01*
X183896Y241046D02*
X183896Y242062D01*
X186944Y241808D01*
X186944Y241046D01*
X188976Y241046D02*
X192024Y241046D01*
X188976Y241046D02*
X188976Y241808D01*
X192024Y241808D01*
X192024Y241046D01*
X194056Y241046D02*
X197104Y241046D01*
X194056Y241046D02*
X194056Y241808D01*
X197104Y241808D01*
X197104Y241046D01*
X199136Y241046D02*
X202184Y241046D01*
X199136Y241046D02*
X199136Y241808D01*
X202184Y241808D01*
X202184Y241046D01*
X204216Y241046D02*
X207264Y241046D01*
X204216Y241046D02*
X204216Y241808D01*
X207264Y241808D01*
X207264Y241046D01*
X212852Y235458D02*
X212852Y232410D01*
X212852Y235458D02*
X213868Y235458D01*
X213614Y232410D01*
X212852Y232410D01*
X212852Y230378D02*
X212852Y227330D01*
X212852Y230378D02*
X213868Y230378D01*
X213614Y227330D01*
X212852Y227330D01*
X212852Y225298D02*
X212852Y222250D01*
X212852Y225298D02*
X213614Y225298D01*
X213614Y222250D01*
X212852Y222250D01*
X212852Y220218D02*
X212852Y217170D01*
X212852Y220218D02*
X213614Y220218D01*
X213614Y217170D01*
X212852Y217170D01*
X212852Y215138D02*
X212852Y212090D01*
X212852Y215138D02*
X213614Y215138D01*
X213614Y212090D01*
X212852Y212090D01*
X212852Y210058D02*
X212852Y207010D01*
X212852Y210058D02*
X213614Y210058D01*
X213614Y207010D01*
X212852Y207010D01*
X207264Y201422D02*
X204216Y201422D01*
X207264Y201422D02*
X207264Y200406D01*
X204216Y200406D01*
X204216Y201422D01*
X202184Y201422D02*
X199136Y201422D01*
X202184Y201422D02*
X202184Y200406D01*
X199136Y200406D01*
X199136Y201422D01*
X197104Y201422D02*
X194056Y201422D01*
X197104Y201422D02*
X197104Y200406D01*
X194056Y200406D01*
X194056Y201422D01*
X192024Y201422D02*
X188976Y201422D01*
X192024Y201422D02*
X192024Y200406D01*
X188976Y200406D01*
X188976Y201422D01*
X186944Y201422D02*
X183896Y201422D01*
X186944Y201422D02*
X186944Y200406D01*
X183896Y200406D01*
X183896Y201422D01*
X181864Y201422D02*
X178816Y201422D01*
X181864Y201422D02*
X181864Y200406D01*
X178816Y200406D01*
X178816Y201422D01*
X173228Y207010D02*
X173228Y210058D01*
X173228Y207010D02*
X172212Y207010D01*
X172466Y210058D01*
X173228Y210058D01*
X173228Y212090D02*
X173228Y215138D01*
X173228Y212090D02*
X172212Y212090D01*
X172466Y215138D01*
X173228Y215138D01*
X173228Y217170D02*
X173228Y220218D01*
X173228Y217170D02*
X172212Y217170D01*
X172466Y220218D01*
X173228Y220218D01*
X173228Y222250D02*
X173228Y225298D01*
X173228Y222250D02*
X172466Y222250D01*
X172466Y225298D01*
X173228Y225298D01*
X173228Y227330D02*
X173228Y230378D01*
X173228Y227330D02*
X172466Y227330D01*
X172466Y230378D01*
X173228Y230378D01*
X173228Y232410D02*
X173228Y235458D01*
X173228Y232410D02*
X172466Y232410D01*
X172466Y235458D01*
X173228Y235458D01*
X173228Y201422D02*
X212852Y201422D01*
X173228Y201422D02*
X173228Y241046D01*
X212852Y241046D01*
X212852Y201422D01*
D11*
X210347Y235148D02*
X210347Y239127D01*
X210347Y235148D02*
X208026Y232163D01*
X210347Y235148D02*
X212669Y232163D01*
X210347Y235148D02*
X206700Y236474D01*
X210347Y235148D02*
X213995Y236474D01*
D12*
X292889Y286831D02*
X301889Y286831D01*
X292889Y286831D02*
X292889Y268831D01*
X301889Y268831D01*
X301889Y286831D01*
X269549Y231030D02*
X260549Y231030D01*
X269549Y231030D02*
X269549Y249030D01*
X260549Y249030D01*
X260549Y231030D01*
X271289Y242515D02*
X271289Y251515D01*
X271289Y242515D02*
X289289Y242515D01*
X289289Y251515D01*
X271289Y251515D01*
D11*
X247927Y214735D02*
X234927Y214735D01*
X247927Y214735D02*
X247927Y243735D01*
X234927Y243735D01*
X234927Y214735D01*
D12*
X233862Y235441D02*
X224862Y235441D01*
X224862Y217441D01*
X233862Y217441D01*
X233862Y235441D01*
X249620Y315204D02*
X249620Y324204D01*
X231620Y324204D01*
X231620Y315204D01*
X249620Y315204D01*
X153780Y175442D02*
X153780Y166442D01*
X153780Y175442D02*
X135780Y175442D01*
X135780Y166442D01*
X153780Y166442D01*
X134891Y212035D02*
X134891Y221035D01*
X134891Y212035D02*
X152891Y212035D01*
X152891Y221035D01*
X134891Y221035D01*
X347798Y233062D02*
X356798Y233062D01*
X356798Y251062D01*
X347798Y251062D01*
X347798Y233062D01*
X332668Y249284D02*
X323668Y249284D01*
X323668Y231284D01*
X332668Y231284D01*
X332668Y249284D01*
X230570Y278628D02*
X230570Y287628D01*
X212570Y287628D01*
X212570Y278628D01*
X230570Y278628D01*
X231885Y347417D02*
X231885Y356417D01*
X213885Y356417D01*
X213885Y347417D01*
X231885Y347417D01*
X233371Y334535D02*
X242371Y334535D01*
X242371Y352535D01*
X233371Y352535D01*
X233371Y334535D01*
X230570Y312012D02*
X230570Y303012D01*
X230570Y312012D02*
X212570Y312012D01*
X212570Y303012D01*
X230570Y303012D01*
X210295Y331288D02*
X210295Y340288D01*
X192295Y340288D01*
X192295Y331288D01*
X210295Y331288D01*
X163720Y334717D02*
X163720Y343717D01*
X163720Y334717D02*
X181720Y334717D01*
X181720Y343717D01*
X163720Y343717D01*
D11*
X332000Y267485D02*
X332000Y254485D01*
X332000Y267485D02*
X303000Y267485D01*
X303000Y254485D01*
X332000Y254485D01*
D13*
X285970Y427644D02*
X249970Y427644D01*
X230470Y443644D02*
X230470Y463644D01*
X305470Y463644D02*
X305470Y443644D01*
X305470Y473894D02*
X299470Y473894D01*
X292970Y473894D01*
X242970Y473894D01*
X236470Y473894D01*
X230470Y473894D01*
X242970Y479894D02*
X292970Y479894D01*
X230470Y473894D02*
X230470Y466894D01*
X305470Y466894D02*
X305470Y473894D01*
X230470Y473894D02*
X227470Y476894D01*
X230470Y479894D02*
X236470Y473894D01*
X230470Y479894D02*
X227470Y476894D01*
X305470Y473894D02*
X308470Y476894D01*
X305470Y479894D02*
X299470Y473894D01*
X305470Y479894D02*
X308470Y476894D01*
X242970Y479894D02*
X242970Y473894D01*
X292970Y473894D02*
X292970Y479894D01*
D14*
X254970Y429144D03*
X261470Y429144D03*
X267970Y429144D03*
X274470Y429144D03*
X280970Y429144D03*
D10*
X306790Y218096D02*
X311531Y218096D01*
X306790Y218096D02*
X306719Y218094D01*
X306648Y218089D01*
X306578Y218079D01*
X306508Y218066D01*
X306439Y218050D01*
X306371Y218030D01*
X306304Y218006D01*
X306239Y217979D01*
X306175Y217948D01*
X306113Y217914D01*
X306052Y217877D01*
X305994Y217837D01*
X305937Y217794D01*
X305883Y217748D01*
X305832Y217699D01*
X305783Y217648D01*
X305737Y217594D01*
X305694Y217537D01*
X305654Y217479D01*
X305617Y217419D01*
X305583Y217356D01*
X305552Y217292D01*
X305525Y217227D01*
X305501Y217160D01*
X305481Y217092D01*
X305465Y217023D01*
X305452Y216953D01*
X305442Y216883D01*
X305437Y216812D01*
X305435Y216741D01*
X305435Y216064D01*
X305435Y222154D02*
X311531Y222154D01*
X311531Y223847D01*
X311529Y223928D01*
X311523Y224008D01*
X311514Y224088D01*
X311500Y224167D01*
X311483Y224246D01*
X311462Y224324D01*
X311438Y224401D01*
X311410Y224476D01*
X311378Y224550D01*
X311343Y224623D01*
X311304Y224694D01*
X311262Y224762D01*
X311217Y224829D01*
X311169Y224894D01*
X311117Y224956D01*
X311063Y225015D01*
X311006Y225072D01*
X310947Y225126D01*
X310885Y225178D01*
X310820Y225226D01*
X310753Y225271D01*
X310685Y225313D01*
X310614Y225352D01*
X310541Y225387D01*
X310467Y225419D01*
X310392Y225447D01*
X310315Y225471D01*
X310237Y225492D01*
X310158Y225509D01*
X310079Y225523D01*
X309999Y225532D01*
X309919Y225538D01*
X309838Y225540D01*
X309757Y225538D01*
X309677Y225532D01*
X309597Y225523D01*
X309518Y225509D01*
X309439Y225492D01*
X309361Y225471D01*
X309284Y225447D01*
X309209Y225419D01*
X309135Y225387D01*
X309062Y225352D01*
X308992Y225313D01*
X308923Y225271D01*
X308856Y225226D01*
X308791Y225178D01*
X308729Y225126D01*
X308670Y225072D01*
X308613Y225015D01*
X308559Y224956D01*
X308507Y224894D01*
X308459Y224829D01*
X308414Y224762D01*
X308372Y224694D01*
X308333Y224623D01*
X308298Y224550D01*
X308266Y224476D01*
X308238Y224401D01*
X308214Y224324D01*
X308193Y224246D01*
X308176Y224167D01*
X308162Y224088D01*
X308153Y224008D01*
X308147Y223928D01*
X308145Y223847D01*
X308144Y223847D02*
X308144Y222154D01*
X310176Y228605D02*
X311531Y230299D01*
X305435Y230299D01*
X305435Y231992D02*
X305435Y228605D01*
X294640Y258736D02*
X289899Y258736D01*
X289828Y258734D01*
X289757Y258729D01*
X289687Y258719D01*
X289617Y258706D01*
X289548Y258690D01*
X289480Y258670D01*
X289413Y258646D01*
X289348Y258619D01*
X289284Y258588D01*
X289222Y258554D01*
X289161Y258517D01*
X289103Y258477D01*
X289046Y258434D01*
X288992Y258388D01*
X288941Y258339D01*
X288892Y258288D01*
X288846Y258234D01*
X288803Y258177D01*
X288763Y258119D01*
X288726Y258059D01*
X288692Y257996D01*
X288661Y257932D01*
X288634Y257867D01*
X288610Y257800D01*
X288590Y257732D01*
X288574Y257663D01*
X288561Y257593D01*
X288551Y257523D01*
X288546Y257452D01*
X288544Y257381D01*
X288544Y256704D01*
X288544Y262794D02*
X294640Y262794D01*
X294640Y264487D01*
X294638Y264568D01*
X294632Y264648D01*
X294623Y264728D01*
X294609Y264807D01*
X294592Y264886D01*
X294571Y264964D01*
X294547Y265041D01*
X294519Y265116D01*
X294487Y265190D01*
X294452Y265263D01*
X294413Y265334D01*
X294371Y265402D01*
X294326Y265469D01*
X294278Y265534D01*
X294226Y265596D01*
X294172Y265655D01*
X294115Y265712D01*
X294056Y265766D01*
X293994Y265818D01*
X293929Y265866D01*
X293862Y265911D01*
X293794Y265953D01*
X293723Y265992D01*
X293650Y266027D01*
X293576Y266059D01*
X293501Y266087D01*
X293424Y266111D01*
X293346Y266132D01*
X293267Y266149D01*
X293188Y266163D01*
X293108Y266172D01*
X293028Y266178D01*
X292947Y266180D01*
X292866Y266178D01*
X292786Y266172D01*
X292706Y266163D01*
X292627Y266149D01*
X292548Y266132D01*
X292470Y266111D01*
X292393Y266087D01*
X292318Y266059D01*
X292244Y266027D01*
X292171Y265992D01*
X292101Y265953D01*
X292032Y265911D01*
X291965Y265866D01*
X291900Y265818D01*
X291838Y265766D01*
X291779Y265712D01*
X291722Y265655D01*
X291668Y265596D01*
X291616Y265534D01*
X291568Y265469D01*
X291523Y265402D01*
X291481Y265334D01*
X291442Y265263D01*
X291407Y265190D01*
X291375Y265116D01*
X291347Y265041D01*
X291323Y264964D01*
X291302Y264886D01*
X291285Y264807D01*
X291271Y264728D01*
X291262Y264648D01*
X291256Y264568D01*
X291254Y264487D01*
X291253Y264487D02*
X291253Y262794D01*
X294640Y271108D02*
X294638Y271185D01*
X294632Y271262D01*
X294622Y271339D01*
X294609Y271415D01*
X294591Y271490D01*
X294570Y271564D01*
X294545Y271637D01*
X294516Y271709D01*
X294484Y271779D01*
X294449Y271848D01*
X294409Y271914D01*
X294367Y271979D01*
X294321Y272041D01*
X294272Y272101D01*
X294221Y272158D01*
X294166Y272213D01*
X294109Y272264D01*
X294049Y272313D01*
X293987Y272359D01*
X293922Y272401D01*
X293856Y272441D01*
X293787Y272476D01*
X293717Y272508D01*
X293645Y272537D01*
X293572Y272562D01*
X293498Y272583D01*
X293423Y272601D01*
X293347Y272614D01*
X293270Y272624D01*
X293193Y272630D01*
X293116Y272632D01*
X294640Y271108D02*
X294638Y271023D01*
X294633Y270938D01*
X294623Y270854D01*
X294611Y270770D01*
X294594Y270687D01*
X294574Y270604D01*
X294550Y270523D01*
X294523Y270442D01*
X294493Y270363D01*
X294459Y270285D01*
X294421Y270209D01*
X294381Y270134D01*
X294337Y270062D01*
X294290Y269991D01*
X294240Y269922D01*
X294187Y269856D01*
X294132Y269792D01*
X294073Y269730D01*
X294012Y269671D01*
X293949Y269615D01*
X293883Y269561D01*
X293814Y269511D01*
X293744Y269463D01*
X293672Y269419D01*
X293598Y269377D01*
X293522Y269339D01*
X293444Y269305D01*
X293365Y269273D01*
X293285Y269245D01*
X291931Y272124D02*
X291986Y272179D01*
X292043Y272232D01*
X292103Y272281D01*
X292166Y272328D01*
X292230Y272372D01*
X292297Y272412D01*
X292365Y272450D01*
X292436Y272484D01*
X292507Y272515D01*
X292580Y272542D01*
X292654Y272566D01*
X292730Y272586D01*
X292806Y272602D01*
X292883Y272615D01*
X292960Y272625D01*
X293038Y272630D01*
X293116Y272632D01*
X291931Y272124D02*
X288544Y269245D01*
X288544Y272632D01*
D12*
X191571Y322216D02*
X182571Y322216D01*
X191571Y322216D02*
X191571Y340216D01*
X182571Y340216D01*
X182571Y322216D01*
X210295Y321382D02*
X210295Y330382D01*
X192295Y330382D01*
X192295Y321382D01*
X210295Y321382D01*
X162869Y325264D02*
X153869Y325264D01*
X162869Y325264D02*
X162869Y343264D01*
X153869Y343264D01*
X153869Y325264D01*
X181720Y325065D02*
X181720Y334065D01*
X163720Y334065D01*
X163720Y325065D01*
X181720Y325065D01*
X201621Y135746D02*
X210621Y135746D01*
X201621Y135746D02*
X201621Y117746D01*
X210621Y117746D01*
X210621Y135746D01*
X201096Y135746D02*
X192096Y135746D01*
X192096Y117746D01*
X201096Y117746D01*
X201096Y135746D01*
X167949Y102760D02*
X158949Y102760D01*
X167949Y102760D02*
X167949Y120760D01*
X158949Y120760D01*
X158949Y102760D01*
D10*
X162290Y59880D02*
X168386Y59880D01*
X168386Y61573D01*
X168384Y61654D01*
X168378Y61734D01*
X168369Y61814D01*
X168355Y61893D01*
X168338Y61972D01*
X168317Y62050D01*
X168293Y62127D01*
X168265Y62202D01*
X168233Y62276D01*
X168198Y62349D01*
X168159Y62420D01*
X168117Y62488D01*
X168072Y62555D01*
X168024Y62620D01*
X167972Y62682D01*
X167918Y62741D01*
X167861Y62798D01*
X167802Y62852D01*
X167740Y62904D01*
X167675Y62952D01*
X167608Y62997D01*
X167540Y63039D01*
X167469Y63078D01*
X167396Y63113D01*
X167322Y63145D01*
X167247Y63173D01*
X167170Y63197D01*
X167092Y63218D01*
X167013Y63235D01*
X166934Y63249D01*
X166854Y63258D01*
X166774Y63264D01*
X166693Y63266D01*
X166612Y63264D01*
X166532Y63258D01*
X166452Y63249D01*
X166373Y63235D01*
X166294Y63218D01*
X166216Y63197D01*
X166139Y63173D01*
X166064Y63145D01*
X165990Y63113D01*
X165917Y63078D01*
X165847Y63039D01*
X165778Y62997D01*
X165711Y62952D01*
X165646Y62904D01*
X165584Y62852D01*
X165525Y62798D01*
X165468Y62741D01*
X165414Y62682D01*
X165362Y62620D01*
X165314Y62555D01*
X165269Y62488D01*
X165227Y62420D01*
X165188Y62349D01*
X165153Y62276D01*
X165121Y62202D01*
X165093Y62127D01*
X165069Y62050D01*
X165048Y61972D01*
X165031Y61893D01*
X165017Y61814D01*
X165008Y61734D01*
X165002Y61654D01*
X165000Y61573D01*
X164999Y61573D02*
X164999Y59880D01*
X164999Y61912D02*
X162290Y63267D01*
X161613Y66314D02*
X161613Y69023D01*
X162290Y73950D02*
X162292Y74023D01*
X162298Y74097D01*
X162308Y74169D01*
X162322Y74241D01*
X162339Y74313D01*
X162361Y74383D01*
X162386Y74452D01*
X162415Y74519D01*
X162448Y74585D01*
X162484Y74649D01*
X162523Y74710D01*
X162566Y74770D01*
X162612Y74827D01*
X162661Y74882D01*
X162713Y74934D01*
X162768Y74983D01*
X162825Y75029D01*
X162885Y75072D01*
X162946Y75111D01*
X163010Y75147D01*
X163076Y75180D01*
X163143Y75209D01*
X163212Y75234D01*
X163283Y75256D01*
X163354Y75273D01*
X163426Y75287D01*
X163499Y75297D01*
X163572Y75303D01*
X163645Y75305D01*
X162290Y73950D02*
X162292Y73847D01*
X162297Y73745D01*
X162307Y73642D01*
X162319Y73541D01*
X162336Y73439D01*
X162356Y73338D01*
X162380Y73239D01*
X162407Y73140D01*
X162438Y73042D01*
X162472Y72945D01*
X162510Y72849D01*
X162551Y72755D01*
X162596Y72663D01*
X162644Y72572D01*
X162695Y72483D01*
X162749Y72395D01*
X162806Y72310D01*
X162867Y72227D01*
X162930Y72146D01*
X162996Y72068D01*
X163065Y71991D01*
X163137Y71918D01*
X167031Y72087D02*
X167102Y72089D01*
X167173Y72094D01*
X167243Y72104D01*
X167313Y72117D01*
X167382Y72133D01*
X167450Y72153D01*
X167517Y72177D01*
X167582Y72204D01*
X167646Y72235D01*
X167709Y72269D01*
X167769Y72306D01*
X167827Y72346D01*
X167884Y72389D01*
X167938Y72435D01*
X167989Y72484D01*
X168038Y72535D01*
X168084Y72589D01*
X168127Y72646D01*
X168167Y72704D01*
X168204Y72765D01*
X168238Y72827D01*
X168269Y72891D01*
X168296Y72956D01*
X168320Y73023D01*
X168340Y73091D01*
X168356Y73160D01*
X168369Y73230D01*
X168379Y73300D01*
X168384Y73371D01*
X168386Y73442D01*
X168384Y73538D01*
X168379Y73634D01*
X168370Y73730D01*
X168357Y73825D01*
X168341Y73920D01*
X168321Y74014D01*
X168297Y74107D01*
X168270Y74199D01*
X168240Y74291D01*
X168206Y74381D01*
X168169Y74469D01*
X168128Y74556D01*
X168085Y74642D01*
X168038Y74726D01*
X167987Y74808D01*
X167934Y74888D01*
X167878Y74966D01*
X165846Y72765D02*
X165883Y72705D01*
X165924Y72646D01*
X165968Y72590D01*
X166015Y72536D01*
X166065Y72485D01*
X166117Y72436D01*
X166171Y72390D01*
X166228Y72347D01*
X166287Y72306D01*
X166348Y72269D01*
X166411Y72235D01*
X166476Y72205D01*
X166542Y72178D01*
X166609Y72154D01*
X166678Y72134D01*
X166747Y72118D01*
X166818Y72105D01*
X166888Y72095D01*
X166960Y72090D01*
X167031Y72088D01*
X164830Y74628D02*
X164793Y74688D01*
X164752Y74747D01*
X164708Y74803D01*
X164661Y74857D01*
X164611Y74908D01*
X164559Y74957D01*
X164505Y75003D01*
X164448Y75047D01*
X164389Y75087D01*
X164328Y75124D01*
X164265Y75158D01*
X164200Y75188D01*
X164134Y75215D01*
X164067Y75239D01*
X163998Y75259D01*
X163929Y75275D01*
X163858Y75288D01*
X163788Y75298D01*
X163716Y75303D01*
X163645Y75305D01*
X164830Y74628D02*
X165846Y72765D01*
X162290Y78800D02*
X162290Y81509D01*
X162290Y78800D02*
X168386Y78800D01*
X168386Y81509D01*
X165677Y80832D02*
X165677Y78800D01*
X168386Y84720D02*
X162290Y84720D01*
X162290Y88107D02*
X168386Y84720D01*
X168386Y88107D02*
X162290Y88107D01*
X162290Y93610D02*
X162292Y93683D01*
X162298Y93757D01*
X162308Y93829D01*
X162322Y93901D01*
X162339Y93973D01*
X162361Y94043D01*
X162386Y94112D01*
X162415Y94179D01*
X162448Y94245D01*
X162484Y94309D01*
X162523Y94370D01*
X162566Y94430D01*
X162612Y94487D01*
X162661Y94542D01*
X162713Y94594D01*
X162768Y94643D01*
X162825Y94689D01*
X162885Y94732D01*
X162946Y94771D01*
X163010Y94807D01*
X163076Y94840D01*
X163143Y94869D01*
X163212Y94894D01*
X163283Y94916D01*
X163354Y94933D01*
X163426Y94947D01*
X163499Y94957D01*
X163572Y94963D01*
X163645Y94965D01*
X162290Y93610D02*
X162292Y93507D01*
X162297Y93405D01*
X162307Y93302D01*
X162319Y93201D01*
X162336Y93099D01*
X162356Y92998D01*
X162380Y92899D01*
X162407Y92800D01*
X162438Y92702D01*
X162472Y92605D01*
X162510Y92509D01*
X162551Y92415D01*
X162596Y92323D01*
X162644Y92232D01*
X162695Y92143D01*
X162749Y92055D01*
X162806Y91970D01*
X162867Y91887D01*
X162930Y91806D01*
X162996Y91728D01*
X163065Y91651D01*
X163137Y91578D01*
X167031Y91747D02*
X167102Y91749D01*
X167173Y91754D01*
X167243Y91764D01*
X167313Y91777D01*
X167382Y91793D01*
X167450Y91813D01*
X167517Y91837D01*
X167582Y91864D01*
X167646Y91895D01*
X167709Y91929D01*
X167769Y91966D01*
X167827Y92006D01*
X167884Y92049D01*
X167938Y92095D01*
X167989Y92144D01*
X168038Y92195D01*
X168084Y92249D01*
X168127Y92306D01*
X168167Y92364D01*
X168204Y92425D01*
X168238Y92487D01*
X168269Y92551D01*
X168296Y92616D01*
X168320Y92683D01*
X168340Y92751D01*
X168356Y92820D01*
X168369Y92890D01*
X168379Y92960D01*
X168384Y93031D01*
X168386Y93102D01*
X168384Y93198D01*
X168379Y93294D01*
X168370Y93390D01*
X168357Y93485D01*
X168341Y93580D01*
X168321Y93674D01*
X168297Y93767D01*
X168270Y93859D01*
X168240Y93951D01*
X168206Y94041D01*
X168169Y94129D01*
X168128Y94216D01*
X168085Y94302D01*
X168038Y94386D01*
X167987Y94468D01*
X167934Y94548D01*
X167878Y94626D01*
X165846Y92424D02*
X165883Y92364D01*
X165924Y92305D01*
X165968Y92249D01*
X166015Y92195D01*
X166065Y92144D01*
X166117Y92095D01*
X166171Y92049D01*
X166228Y92006D01*
X166287Y91965D01*
X166348Y91928D01*
X166411Y91894D01*
X166476Y91864D01*
X166542Y91837D01*
X166609Y91813D01*
X166678Y91793D01*
X166747Y91777D01*
X166818Y91764D01*
X166888Y91754D01*
X166960Y91749D01*
X167031Y91747D01*
X164830Y94288D02*
X164793Y94348D01*
X164752Y94407D01*
X164708Y94463D01*
X164661Y94517D01*
X164611Y94568D01*
X164559Y94617D01*
X164505Y94663D01*
X164448Y94707D01*
X164389Y94747D01*
X164328Y94784D01*
X164265Y94818D01*
X164200Y94848D01*
X164134Y94875D01*
X164067Y94899D01*
X163998Y94919D01*
X163929Y94935D01*
X163858Y94948D01*
X163788Y94958D01*
X163716Y94963D01*
X163645Y94965D01*
X164830Y94287D02*
X165846Y92425D01*
X162290Y98460D02*
X162290Y101169D01*
X162290Y98460D02*
X168386Y98460D01*
X168386Y101169D01*
X165677Y100492D02*
X165677Y98460D01*
D15*
X332544Y296298D02*
X332544Y366298D01*
X262544Y366298D01*
X262544Y296298D01*
X332544Y296298D01*
D16*
X325044Y299048D03*
X320044Y299048D03*
X315044Y299048D03*
X310044Y299048D03*
X305044Y299048D03*
X300044Y299048D03*
X295044Y299048D03*
X290044Y299048D03*
X285044Y299048D03*
X280044Y299048D03*
X275044Y299048D03*
D17*
X265294Y303798D03*
X265294Y308798D03*
X265294Y313798D03*
X265294Y318798D03*
X265294Y323798D03*
X265294Y328798D03*
X265294Y333798D03*
X265294Y338798D03*
X265294Y343798D03*
X265294Y348798D03*
X265294Y353798D03*
D16*
X270044Y363548D03*
X275044Y363548D03*
X280044Y363548D03*
X285044Y363548D03*
X290044Y363548D03*
X295044Y363548D03*
X300044Y363548D03*
X305044Y363548D03*
X310044Y363548D03*
X315044Y363548D03*
X320044Y363548D03*
D17*
X329794Y358798D03*
X329794Y353798D03*
X329794Y348798D03*
X329794Y343798D03*
X329794Y338798D03*
X329794Y333798D03*
X329794Y328798D03*
X329794Y323798D03*
X329794Y318798D03*
X329794Y313798D03*
X329794Y308798D03*
X265294Y358798D03*
D16*
X325044Y363548D03*
D17*
X329794Y303798D03*
D16*
X270044Y299048D03*
D15*
X272589Y240835D02*
X287989Y240835D01*
X287989Y230335D01*
X272589Y230335D01*
X272589Y240835D01*
X230585Y335618D02*
X215185Y335618D01*
X215185Y346118D01*
X230585Y346118D01*
X230585Y335618D01*
D10*
X187198Y317373D02*
X171450Y317373D01*
X187198Y317373D02*
X187198Y314833D01*
X187198Y310007D01*
X187198Y305181D01*
X187198Y300609D01*
X187198Y295783D01*
X187198Y288417D02*
X182372Y288417D01*
X176276Y288417D01*
X171450Y288417D01*
X171450Y290957D01*
X171450Y295783D01*
X171450Y300609D01*
X171450Y305181D01*
X171450Y310007D01*
X171450Y290957D02*
X164338Y290957D01*
X164338Y295783D01*
X171450Y295783D01*
X171450Y300609D02*
X164338Y300609D01*
X164338Y305181D01*
X171450Y305181D01*
X171450Y314833D02*
X171450Y317373D01*
X171450Y314833D02*
X171450Y310007D01*
X164338Y310007D01*
X164338Y314833D01*
X171450Y314833D01*
X187198Y314833D02*
X194310Y314833D01*
X194310Y310007D01*
X187198Y310007D01*
X187198Y305181D02*
X194310Y305181D01*
X194310Y300609D01*
X187198Y300609D01*
X187198Y290957D02*
X187198Y288417D01*
X187198Y290957D02*
X187198Y295783D01*
X194310Y295783D01*
X194310Y290957D01*
X187198Y290957D01*
X182372Y288417D02*
X182370Y288526D01*
X182364Y288634D01*
X182355Y288743D01*
X182341Y288851D01*
X182324Y288958D01*
X182302Y289065D01*
X182277Y289171D01*
X182249Y289276D01*
X182216Y289380D01*
X182180Y289482D01*
X182140Y289583D01*
X182097Y289683D01*
X182050Y289781D01*
X181999Y289878D01*
X181945Y289972D01*
X181888Y290065D01*
X181828Y290155D01*
X181764Y290244D01*
X181697Y290330D01*
X181628Y290413D01*
X181555Y290494D01*
X181479Y290572D01*
X181401Y290648D01*
X181320Y290721D01*
X181237Y290790D01*
X181151Y290857D01*
X181062Y290921D01*
X180972Y290981D01*
X180879Y291038D01*
X180785Y291092D01*
X180688Y291143D01*
X180590Y291190D01*
X180490Y291233D01*
X180389Y291273D01*
X180287Y291309D01*
X180183Y291342D01*
X180078Y291370D01*
X179972Y291395D01*
X179865Y291417D01*
X179758Y291434D01*
X179650Y291448D01*
X179541Y291457D01*
X179433Y291463D01*
X179324Y291465D01*
X179215Y291463D01*
X179107Y291457D01*
X178998Y291448D01*
X178890Y291434D01*
X178783Y291417D01*
X178676Y291395D01*
X178570Y291370D01*
X178465Y291342D01*
X178361Y291309D01*
X178259Y291273D01*
X178158Y291233D01*
X178058Y291190D01*
X177960Y291143D01*
X177863Y291092D01*
X177769Y291038D01*
X177676Y290981D01*
X177586Y290921D01*
X177497Y290857D01*
X177411Y290790D01*
X177328Y290721D01*
X177247Y290648D01*
X177169Y290572D01*
X177093Y290494D01*
X177020Y290413D01*
X176951Y290330D01*
X176884Y290244D01*
X176820Y290155D01*
X176760Y290065D01*
X176703Y289972D01*
X176649Y289878D01*
X176598Y289781D01*
X176551Y289683D01*
X176508Y289583D01*
X176468Y289482D01*
X176432Y289380D01*
X176399Y289276D01*
X176371Y289171D01*
X176346Y289065D01*
X176324Y288958D01*
X176307Y288851D01*
X176293Y288743D01*
X176284Y288634D01*
X176278Y288526D01*
X176276Y288417D01*
D11*
X172177Y290590D02*
X172177Y294569D01*
X174498Y297554D01*
X172177Y294569D02*
X169855Y297554D01*
X172177Y294569D02*
X175824Y293243D01*
X172177Y294569D02*
X168529Y293243D01*
D10*
X229362Y362966D02*
X229362Y365252D01*
X219710Y365252D02*
X219710Y362966D01*
X219710Y365252D02*
X229362Y365252D01*
X229362Y362966D02*
X219710Y362966D01*
X229362Y367792D02*
X229362Y370078D01*
X219710Y370078D02*
X219710Y367792D01*
X219710Y370078D02*
X229362Y370078D01*
X229362Y367792D02*
X219710Y367792D01*
X229362Y372872D02*
X229362Y375158D01*
X219710Y375158D02*
X219710Y372872D01*
X219710Y375158D02*
X229362Y375158D01*
X229362Y372872D02*
X219710Y372872D01*
X229362Y377952D02*
X229362Y380238D01*
X219710Y380238D02*
X219710Y377952D01*
X219710Y380238D02*
X229362Y380238D01*
X229362Y377952D02*
X219710Y377952D01*
X229362Y382778D02*
X229362Y385064D01*
X219710Y385064D02*
X219710Y382778D01*
X219710Y385064D02*
X229362Y385064D01*
X229362Y382778D02*
X219710Y382778D01*
X180340Y365252D02*
X180340Y362966D01*
X189738Y362966D02*
X189738Y365252D01*
X180340Y365252D01*
X180340Y362966D02*
X189738Y362966D01*
X180340Y367792D02*
X180340Y370078D01*
X189738Y370078D02*
X189738Y367792D01*
X189738Y370078D02*
X180340Y370078D01*
X180340Y367792D02*
X189738Y367792D01*
X180340Y372872D02*
X180340Y375158D01*
X189738Y375158D02*
X189738Y372872D01*
X189738Y375158D02*
X180340Y375158D01*
X180340Y372872D02*
X189738Y372872D01*
X180340Y377952D02*
X180340Y380238D01*
X189738Y380238D02*
X189738Y377952D01*
X189738Y380238D02*
X180340Y380238D01*
X180340Y377952D02*
X189738Y377952D01*
X180340Y382778D02*
X180340Y385064D01*
X189738Y385064D02*
X189738Y382778D01*
X189738Y385064D02*
X180340Y385064D01*
X180340Y382778D02*
X189738Y382778D01*
X191516Y364490D02*
X198628Y364490D01*
X219710Y360172D02*
X219710Y387858D01*
X218440Y389128D02*
X191008Y389128D01*
X191008Y359156D02*
X218440Y359156D01*
X189738Y360172D02*
X189738Y387858D01*
X189737Y387858D02*
X189741Y387929D01*
X189749Y387999D01*
X189760Y388069D01*
X189775Y388138D01*
X189794Y388206D01*
X189817Y388273D01*
X189843Y388339D01*
X189873Y388403D01*
X189906Y388466D01*
X189942Y388527D01*
X189982Y388585D01*
X190025Y388641D01*
X190071Y388695D01*
X190119Y388747D01*
X190171Y388795D01*
X190225Y388841D01*
X190281Y388884D01*
X190339Y388924D01*
X190400Y388960D01*
X190463Y388993D01*
X190527Y389023D01*
X190593Y389049D01*
X190660Y389072D01*
X190728Y389091D01*
X190797Y389106D01*
X190867Y389117D01*
X190937Y389125D01*
X191008Y389129D01*
X189738Y360172D02*
X189749Y360106D01*
X189764Y360042D01*
X189782Y359978D01*
X189803Y359915D01*
X189829Y359854D01*
X189857Y359794D01*
X189889Y359735D01*
X189925Y359679D01*
X189963Y359625D01*
X190004Y359573D01*
X190048Y359523D01*
X190095Y359476D01*
X190145Y359432D01*
X190196Y359390D01*
X190251Y359352D01*
X190307Y359317D01*
X190365Y359284D01*
X190425Y359255D01*
X190486Y359230D01*
X190549Y359208D01*
X190612Y359190D01*
X190677Y359175D01*
X190743Y359164D01*
X190809Y359156D01*
X190875Y359152D01*
X190941Y359152D01*
X191008Y359156D01*
X191516Y364490D02*
X191518Y364372D01*
X191524Y364255D01*
X191533Y364138D01*
X191547Y364021D01*
X191564Y363905D01*
X191586Y363789D01*
X191611Y363674D01*
X191640Y363560D01*
X191672Y363447D01*
X191709Y363335D01*
X191749Y363225D01*
X191792Y363116D01*
X191840Y363008D01*
X191890Y362902D01*
X191945Y362798D01*
X192002Y362695D01*
X192063Y362595D01*
X192128Y362496D01*
X192195Y362400D01*
X192266Y362306D01*
X192340Y362214D01*
X192416Y362125D01*
X192496Y362039D01*
X192578Y361955D01*
X192664Y361874D01*
X192751Y361796D01*
X192842Y361720D01*
X192935Y361648D01*
X193030Y361579D01*
X193127Y361513D01*
X193227Y361450D01*
X193328Y361391D01*
X193431Y361335D01*
X193537Y361283D01*
X193644Y361234D01*
X193752Y361188D01*
X193862Y361146D01*
X193973Y361108D01*
X194086Y361074D01*
X194199Y361043D01*
X194314Y361016D01*
X194429Y360993D01*
X194545Y360973D01*
X194661Y360958D01*
X194778Y360946D01*
X194896Y360938D01*
X195013Y360934D01*
X195131Y360934D01*
X195248Y360938D01*
X195366Y360946D01*
X195483Y360958D01*
X195599Y360973D01*
X195715Y360993D01*
X195830Y361016D01*
X195945Y361043D01*
X196058Y361074D01*
X196171Y361108D01*
X196282Y361146D01*
X196392Y361188D01*
X196500Y361234D01*
X196607Y361283D01*
X196713Y361335D01*
X196816Y361391D01*
X196917Y361450D01*
X197017Y361513D01*
X197114Y361579D01*
X197209Y361648D01*
X197302Y361720D01*
X197393Y361796D01*
X197480Y361874D01*
X197566Y361955D01*
X197648Y362039D01*
X197728Y362125D01*
X197804Y362214D01*
X197878Y362306D01*
X197949Y362400D01*
X198016Y362496D01*
X198081Y362595D01*
X198142Y362695D01*
X198199Y362798D01*
X198254Y362902D01*
X198304Y363008D01*
X198352Y363116D01*
X198395Y363225D01*
X198435Y363335D01*
X198472Y363447D01*
X198504Y363560D01*
X198533Y363674D01*
X198558Y363789D01*
X198580Y363905D01*
X198597Y364021D01*
X198611Y364138D01*
X198620Y364255D01*
X198626Y364372D01*
X198628Y364490D01*
X219711Y387858D02*
X219707Y387929D01*
X219699Y387999D01*
X219688Y388069D01*
X219673Y388138D01*
X219654Y388206D01*
X219631Y388273D01*
X219605Y388339D01*
X219575Y388403D01*
X219542Y388466D01*
X219506Y388527D01*
X219466Y388585D01*
X219423Y388641D01*
X219377Y388695D01*
X219329Y388747D01*
X219277Y388795D01*
X219223Y388841D01*
X219167Y388884D01*
X219109Y388924D01*
X219048Y388960D01*
X218985Y388993D01*
X218921Y389023D01*
X218855Y389049D01*
X218788Y389072D01*
X218720Y389091D01*
X218651Y389106D01*
X218581Y389117D01*
X218511Y389125D01*
X218440Y389129D01*
X219710Y360172D02*
X219699Y360106D01*
X219684Y360042D01*
X219666Y359978D01*
X219645Y359915D01*
X219619Y359854D01*
X219591Y359794D01*
X219559Y359735D01*
X219523Y359679D01*
X219485Y359625D01*
X219444Y359573D01*
X219400Y359523D01*
X219353Y359476D01*
X219303Y359432D01*
X219252Y359390D01*
X219197Y359352D01*
X219141Y359317D01*
X219083Y359284D01*
X219023Y359255D01*
X218962Y359230D01*
X218899Y359208D01*
X218836Y359190D01*
X218771Y359175D01*
X218705Y359164D01*
X218639Y359156D01*
X218573Y359152D01*
X218507Y359152D01*
X218440Y359156D01*
X319532Y205994D02*
X319532Y203708D01*
X309880Y203708D02*
X309880Y205994D01*
X319532Y205994D01*
X319532Y203708D02*
X309880Y203708D01*
X319532Y208534D02*
X319532Y210820D01*
X309880Y210820D02*
X309880Y208534D01*
X309880Y210820D02*
X319532Y210820D01*
X319532Y208534D02*
X309880Y208534D01*
X319532Y213614D02*
X319532Y215900D01*
X309880Y215900D02*
X309880Y213614D01*
X309880Y215900D02*
X319532Y215900D01*
X319532Y213614D02*
X309880Y213614D01*
X319532Y218694D02*
X319532Y220980D01*
X309880Y220980D02*
X309880Y218694D01*
X309880Y220980D02*
X319532Y220980D01*
X319532Y218694D02*
X309880Y218694D01*
X319532Y223520D02*
X319532Y225806D01*
X309880Y225806D02*
X309880Y223520D01*
X309880Y225806D02*
X319532Y225806D01*
X319532Y223520D02*
X309880Y223520D01*
X270510Y205994D02*
X270510Y203708D01*
X279908Y203708D02*
X279908Y205994D01*
X270510Y205994D01*
X270510Y203708D02*
X279908Y203708D01*
X270510Y208534D02*
X270510Y210820D01*
X279908Y210820D02*
X279908Y208534D01*
X279908Y210820D02*
X270510Y210820D01*
X270510Y208534D02*
X279908Y208534D01*
X270510Y213614D02*
X270510Y215900D01*
X279908Y215900D02*
X279908Y213614D01*
X279908Y215900D02*
X270510Y215900D01*
X270510Y213614D02*
X279908Y213614D01*
X270510Y218694D02*
X270510Y220980D01*
X279908Y220980D02*
X279908Y218694D01*
X279908Y220980D02*
X270510Y220980D01*
X270510Y218694D02*
X279908Y218694D01*
X270510Y223520D02*
X270510Y225806D01*
X279908Y225806D02*
X279908Y223520D01*
X279908Y225806D02*
X270510Y225806D01*
X270510Y223520D02*
X279908Y223520D01*
X281686Y205232D02*
X288798Y205232D01*
X309880Y200914D02*
X309880Y228600D01*
X308610Y229870D02*
X281178Y229870D01*
X281178Y199898D02*
X308610Y199898D01*
X279908Y200914D02*
X279908Y228600D01*
X279907Y228600D02*
X279911Y228671D01*
X279919Y228741D01*
X279930Y228811D01*
X279945Y228880D01*
X279964Y228948D01*
X279987Y229015D01*
X280013Y229081D01*
X280043Y229145D01*
X280076Y229208D01*
X280112Y229269D01*
X280152Y229327D01*
X280195Y229383D01*
X280241Y229437D01*
X280289Y229489D01*
X280341Y229537D01*
X280395Y229583D01*
X280451Y229626D01*
X280509Y229666D01*
X280570Y229702D01*
X280633Y229735D01*
X280697Y229765D01*
X280763Y229791D01*
X280830Y229814D01*
X280898Y229833D01*
X280967Y229848D01*
X281037Y229859D01*
X281107Y229867D01*
X281178Y229871D01*
X279908Y200914D02*
X279919Y200848D01*
X279934Y200784D01*
X279952Y200720D01*
X279973Y200657D01*
X279999Y200596D01*
X280027Y200536D01*
X280059Y200477D01*
X280095Y200421D01*
X280133Y200367D01*
X280174Y200315D01*
X280218Y200265D01*
X280265Y200218D01*
X280315Y200174D01*
X280366Y200132D01*
X280421Y200094D01*
X280477Y200059D01*
X280535Y200026D01*
X280595Y199997D01*
X280656Y199972D01*
X280719Y199950D01*
X280782Y199932D01*
X280847Y199917D01*
X280913Y199906D01*
X280979Y199898D01*
X281045Y199894D01*
X281111Y199894D01*
X281178Y199898D01*
X281686Y205232D02*
X281688Y205114D01*
X281694Y204997D01*
X281703Y204880D01*
X281717Y204763D01*
X281734Y204647D01*
X281756Y204531D01*
X281781Y204416D01*
X281810Y204302D01*
X281842Y204189D01*
X281879Y204077D01*
X281919Y203967D01*
X281962Y203858D01*
X282010Y203750D01*
X282060Y203644D01*
X282115Y203540D01*
X282172Y203437D01*
X282233Y203337D01*
X282298Y203238D01*
X282365Y203142D01*
X282436Y203048D01*
X282510Y202956D01*
X282586Y202867D01*
X282666Y202781D01*
X282748Y202697D01*
X282834Y202616D01*
X282921Y202538D01*
X283012Y202462D01*
X283105Y202390D01*
X283200Y202321D01*
X283297Y202255D01*
X283397Y202192D01*
X283498Y202133D01*
X283601Y202077D01*
X283707Y202025D01*
X283814Y201976D01*
X283922Y201930D01*
X284032Y201888D01*
X284143Y201850D01*
X284256Y201816D01*
X284369Y201785D01*
X284484Y201758D01*
X284599Y201735D01*
X284715Y201715D01*
X284831Y201700D01*
X284948Y201688D01*
X285066Y201680D01*
X285183Y201676D01*
X285301Y201676D01*
X285418Y201680D01*
X285536Y201688D01*
X285653Y201700D01*
X285769Y201715D01*
X285885Y201735D01*
X286000Y201758D01*
X286115Y201785D01*
X286228Y201816D01*
X286341Y201850D01*
X286452Y201888D01*
X286562Y201930D01*
X286670Y201976D01*
X286777Y202025D01*
X286883Y202077D01*
X286986Y202133D01*
X287087Y202192D01*
X287187Y202255D01*
X287284Y202321D01*
X287379Y202390D01*
X287472Y202462D01*
X287563Y202538D01*
X287650Y202616D01*
X287736Y202697D01*
X287818Y202781D01*
X287898Y202867D01*
X287974Y202956D01*
X288048Y203048D01*
X288119Y203142D01*
X288186Y203238D01*
X288251Y203337D01*
X288312Y203437D01*
X288369Y203540D01*
X288424Y203644D01*
X288474Y203750D01*
X288522Y203858D01*
X288565Y203967D01*
X288605Y204077D01*
X288642Y204189D01*
X288674Y204302D01*
X288703Y204416D01*
X288728Y204531D01*
X288750Y204647D01*
X288767Y204763D01*
X288781Y204880D01*
X288790Y204997D01*
X288796Y205114D01*
X288798Y205232D01*
X309881Y228600D02*
X309877Y228671D01*
X309869Y228741D01*
X309858Y228811D01*
X309843Y228880D01*
X309824Y228948D01*
X309801Y229015D01*
X309775Y229081D01*
X309745Y229145D01*
X309712Y229208D01*
X309676Y229269D01*
X309636Y229327D01*
X309593Y229383D01*
X309547Y229437D01*
X309499Y229489D01*
X309447Y229537D01*
X309393Y229583D01*
X309337Y229626D01*
X309279Y229666D01*
X309218Y229702D01*
X309155Y229735D01*
X309091Y229765D01*
X309025Y229791D01*
X308958Y229814D01*
X308890Y229833D01*
X308821Y229848D01*
X308751Y229859D01*
X308681Y229867D01*
X308610Y229871D01*
X309880Y200914D02*
X309869Y200848D01*
X309854Y200784D01*
X309836Y200720D01*
X309815Y200657D01*
X309789Y200596D01*
X309761Y200536D01*
X309729Y200477D01*
X309693Y200421D01*
X309655Y200367D01*
X309614Y200315D01*
X309570Y200265D01*
X309523Y200218D01*
X309473Y200174D01*
X309422Y200132D01*
X309367Y200094D01*
X309311Y200059D01*
X309253Y200026D01*
X309193Y199997D01*
X309132Y199972D01*
X309069Y199950D01*
X309006Y199932D01*
X308941Y199917D01*
X308875Y199906D01*
X308809Y199898D01*
X308743Y199894D01*
X308677Y199894D01*
X308610Y199898D01*
D15*
X335618Y233854D02*
X335618Y249254D01*
X346118Y249254D01*
X346118Y233854D01*
X335618Y233854D01*
D10*
X120015Y93726D02*
X116967Y93980D01*
X116967Y99060D01*
X120015Y99060D01*
X120015Y93726D01*
X123571Y93980D02*
X126619Y93726D01*
X123571Y93980D02*
X123571Y99060D01*
X126619Y99060D01*
X126619Y93726D01*
X130175Y93726D02*
X133223Y93726D01*
X130175Y93726D02*
X130175Y99060D01*
X133223Y99060D01*
X133223Y93726D01*
X133223Y80264D02*
X130175Y80518D01*
X133223Y80264D02*
X133223Y75184D01*
X130175Y75184D01*
X130175Y80518D01*
X126619Y80518D02*
X123571Y80518D01*
X126619Y80518D02*
X126619Y75184D01*
X123571Y75184D01*
X123571Y80518D01*
X120015Y80518D02*
X116967Y80518D01*
X120015Y80518D02*
X120015Y75184D01*
X116967Y75184D01*
X116967Y80518D01*
X136271Y80518D02*
X136271Y93726D01*
X136271Y80518D02*
X113919Y80518D01*
X113919Y84074D01*
X113919Y93726D01*
X136271Y93726D01*
X114173Y90170D02*
X114282Y90164D01*
X114390Y90154D01*
X114498Y90139D01*
X114606Y90121D01*
X114712Y90099D01*
X114818Y90074D01*
X114923Y90044D01*
X115027Y90011D01*
X115129Y89974D01*
X115230Y89934D01*
X115330Y89890D01*
X115428Y89842D01*
X115524Y89791D01*
X115618Y89737D01*
X115711Y89679D01*
X115801Y89618D01*
X115889Y89554D01*
X115974Y89486D01*
X116058Y89416D01*
X116138Y89343D01*
X116216Y89267D01*
X116291Y89188D01*
X116364Y89106D01*
X116433Y89022D01*
X116499Y88936D01*
X116562Y88847D01*
X116622Y88756D01*
X116679Y88663D01*
X116732Y88568D01*
X116782Y88471D01*
X116829Y88373D01*
X116872Y88273D01*
X116911Y88171D01*
X116947Y88068D01*
X116978Y87964D01*
X117007Y87859D01*
X117031Y87753D01*
X117052Y87646D01*
X117068Y87538D01*
X117081Y87430D01*
X117090Y87322D01*
X117096Y87213D01*
X117097Y87104D01*
X117094Y86995D01*
X117088Y86886D01*
X117078Y86778D01*
X117063Y86670D01*
X117045Y86562D01*
X117023Y86456D01*
X116998Y86350D01*
X116968Y86245D01*
X116935Y86141D01*
X116898Y86039D01*
X116858Y85938D01*
X116814Y85838D01*
X116766Y85740D01*
X116715Y85644D01*
X116661Y85550D01*
X116603Y85457D01*
X116542Y85367D01*
X116478Y85279D01*
X116410Y85194D01*
X116340Y85110D01*
X116267Y85030D01*
X116191Y84952D01*
X116112Y84877D01*
X116030Y84804D01*
X115946Y84735D01*
X115860Y84669D01*
X115771Y84606D01*
X115680Y84546D01*
X115587Y84489D01*
X115492Y84436D01*
X115395Y84386D01*
X115297Y84339D01*
X115197Y84296D01*
X115095Y84257D01*
X114992Y84221D01*
X114888Y84190D01*
X114783Y84161D01*
X114677Y84137D01*
X114570Y84116D01*
X114462Y84100D01*
X114354Y84087D01*
X114246Y84078D01*
X114137Y84072D01*
X114028Y84071D01*
X113919Y84074D01*
D11*
X118632Y91729D02*
X122611Y91729D01*
X125596Y89408D01*
X122611Y91729D02*
X125596Y94051D01*
X122611Y91729D02*
X121285Y88082D01*
X122611Y91729D02*
X121285Y95377D01*
D12*
X193366Y395241D02*
X202366Y395241D01*
X202366Y413241D01*
X193366Y413241D01*
X193366Y395241D01*
X179379Y395114D02*
X170379Y395114D01*
X179379Y395114D02*
X179379Y413114D01*
X170379Y413114D01*
X170379Y395114D01*
D15*
X181059Y395906D02*
X181059Y411306D01*
X191559Y411306D01*
X191559Y395906D01*
X181059Y395906D01*
D12*
X180484Y356798D02*
X180484Y347798D01*
X198484Y347798D01*
X198484Y356798D01*
X180484Y356798D01*
X270781Y200461D02*
X270781Y191461D01*
X288781Y191461D01*
X288781Y200461D01*
X270781Y200461D01*
D15*
X267150Y66950D02*
X151950Y66950D01*
X267150Y66950D02*
X267150Y85450D01*
X151950Y85450D01*
X151950Y66950D01*
D18*
X155850Y95200D02*
X155852Y95252D01*
X155858Y95304D01*
X155868Y95356D01*
X155881Y95406D01*
X155898Y95456D01*
X155919Y95504D01*
X155944Y95550D01*
X155972Y95594D01*
X156003Y95636D01*
X156037Y95676D01*
X156074Y95713D01*
X156114Y95747D01*
X156156Y95778D01*
X156200Y95806D01*
X156246Y95831D01*
X156294Y95852D01*
X156344Y95869D01*
X156394Y95882D01*
X156446Y95892D01*
X156498Y95898D01*
X156550Y95900D01*
X156602Y95898D01*
X156654Y95892D01*
X156706Y95882D01*
X156756Y95869D01*
X156806Y95852D01*
X156854Y95831D01*
X156900Y95806D01*
X156944Y95778D01*
X156986Y95747D01*
X157026Y95713D01*
X157063Y95676D01*
X157097Y95636D01*
X157128Y95594D01*
X157156Y95550D01*
X157181Y95504D01*
X157202Y95456D01*
X157219Y95406D01*
X157232Y95356D01*
X157242Y95304D01*
X157248Y95252D01*
X157250Y95200D01*
X157248Y95148D01*
X157242Y95096D01*
X157232Y95044D01*
X157219Y94994D01*
X157202Y94944D01*
X157181Y94896D01*
X157156Y94850D01*
X157128Y94806D01*
X157097Y94764D01*
X157063Y94724D01*
X157026Y94687D01*
X156986Y94653D01*
X156944Y94622D01*
X156900Y94594D01*
X156854Y94569D01*
X156806Y94548D01*
X156756Y94531D01*
X156706Y94518D01*
X156654Y94508D01*
X156602Y94502D01*
X156550Y94500D01*
X156498Y94502D01*
X156446Y94508D01*
X156394Y94518D01*
X156344Y94531D01*
X156294Y94548D01*
X156246Y94569D01*
X156200Y94594D01*
X156156Y94622D01*
X156114Y94653D01*
X156074Y94687D01*
X156037Y94724D01*
X156003Y94764D01*
X155972Y94806D01*
X155944Y94850D01*
X155919Y94896D01*
X155898Y94944D01*
X155881Y94994D01*
X155868Y95044D01*
X155858Y95096D01*
X155852Y95148D01*
X155850Y95200D01*
X155852Y95252D01*
X155858Y95304D01*
X155868Y95356D01*
X155881Y95406D01*
X155898Y95456D01*
X155919Y95504D01*
X155944Y95550D01*
X155972Y95594D01*
X156003Y95636D01*
X156037Y95676D01*
X156074Y95713D01*
X156114Y95747D01*
X156156Y95778D01*
X156200Y95806D01*
X156246Y95831D01*
X156294Y95852D01*
X156344Y95869D01*
X156394Y95882D01*
X156446Y95892D01*
X156498Y95898D01*
X156550Y95900D01*
X156602Y95898D01*
X156654Y95892D01*
X156706Y95882D01*
X156756Y95869D01*
X156806Y95852D01*
X156854Y95831D01*
X156900Y95806D01*
X156944Y95778D01*
X156986Y95747D01*
X157026Y95713D01*
X157063Y95676D01*
X157097Y95636D01*
X157128Y95594D01*
X157156Y95550D01*
X157181Y95504D01*
X157202Y95456D01*
X157219Y95406D01*
X157232Y95356D01*
X157242Y95304D01*
X157248Y95252D01*
X157250Y95200D01*
X157248Y95148D01*
X157242Y95096D01*
X157232Y95044D01*
X157219Y94994D01*
X157202Y94944D01*
X157181Y94896D01*
X157156Y94850D01*
X157128Y94806D01*
X157097Y94764D01*
X157063Y94724D01*
X157026Y94687D01*
X156986Y94653D01*
X156944Y94622D01*
X156900Y94594D01*
X156854Y94569D01*
X156806Y94548D01*
X156756Y94531D01*
X156706Y94518D01*
X156654Y94508D01*
X156602Y94502D01*
X156550Y94500D01*
X156498Y94502D01*
X156446Y94508D01*
X156394Y94518D01*
X156344Y94531D01*
X156294Y94548D01*
X156246Y94569D01*
X156200Y94594D01*
X156156Y94622D01*
X156114Y94653D01*
X156074Y94687D01*
X156037Y94724D01*
X156003Y94764D01*
X155972Y94806D01*
X155944Y94850D01*
X155919Y94896D01*
X155898Y94944D01*
X155881Y94994D01*
X155868Y95044D01*
X155858Y95096D01*
X155852Y95148D01*
X155850Y95200D01*
D19*
X152137Y54871D02*
X152137Y50507D01*
X152139Y50437D01*
X152145Y50367D01*
X152155Y50298D01*
X152168Y50230D01*
X152186Y50162D01*
X152207Y50095D01*
X152232Y50030D01*
X152260Y49966D01*
X152293Y49904D01*
X152328Y49844D01*
X152367Y49785D01*
X152409Y49730D01*
X152454Y49676D01*
X152502Y49625D01*
X152553Y49577D01*
X152607Y49532D01*
X152662Y49490D01*
X152721Y49451D01*
X152781Y49416D01*
X152843Y49383D01*
X152907Y49355D01*
X152972Y49330D01*
X153039Y49309D01*
X153107Y49291D01*
X153175Y49278D01*
X153244Y49268D01*
X153314Y49262D01*
X153384Y49260D01*
X153384Y49261D02*
X154007Y49261D01*
X149587Y53624D02*
X148029Y54871D01*
X148029Y49261D01*
X149587Y49261D02*
X146471Y49261D01*
D12*
X88121Y396058D02*
X88121Y405058D01*
X70121Y405058D01*
X70121Y396058D01*
X88121Y396058D01*
D20*
X85041Y399272D02*
X84420Y399272D01*
X85041Y399272D02*
X85090Y399274D01*
X85138Y399280D01*
X85186Y399289D01*
X85233Y399302D01*
X85279Y399319D01*
X85323Y399340D01*
X85365Y399364D01*
X85406Y399391D01*
X85444Y399421D01*
X85480Y399454D01*
X85513Y399490D01*
X85543Y399528D01*
X85570Y399569D01*
X85594Y399611D01*
X85615Y399655D01*
X85632Y399701D01*
X85645Y399748D01*
X85654Y399796D01*
X85660Y399844D01*
X85662Y399893D01*
X85662Y401445D01*
X85660Y401494D01*
X85654Y401542D01*
X85645Y401590D01*
X85632Y401637D01*
X85615Y401683D01*
X85594Y401727D01*
X85570Y401769D01*
X85543Y401810D01*
X85513Y401848D01*
X85480Y401884D01*
X85444Y401917D01*
X85406Y401947D01*
X85365Y401974D01*
X85323Y401998D01*
X85279Y402019D01*
X85233Y402036D01*
X85186Y402049D01*
X85138Y402058D01*
X85090Y402064D01*
X85041Y402066D01*
X84420Y402066D01*
X82514Y402067D02*
X82464Y402065D01*
X82415Y402060D01*
X82365Y402051D01*
X82317Y402039D01*
X82270Y402023D01*
X82224Y402004D01*
X82179Y401981D01*
X82136Y401956D01*
X82095Y401928D01*
X82056Y401896D01*
X82020Y401862D01*
X81986Y401826D01*
X81954Y401787D01*
X81926Y401746D01*
X81901Y401703D01*
X81878Y401658D01*
X81859Y401612D01*
X81843Y401565D01*
X81831Y401517D01*
X81822Y401467D01*
X81817Y401418D01*
X81815Y401368D01*
X82514Y402066D02*
X82570Y402064D01*
X82627Y402059D01*
X82682Y402050D01*
X82737Y402038D01*
X82791Y402022D01*
X82844Y402003D01*
X82896Y401980D01*
X82946Y401955D01*
X82995Y401926D01*
X83042Y401894D01*
X83086Y401860D01*
X83128Y401823D01*
X83168Y401783D01*
X83206Y401740D01*
X83240Y401696D01*
X83272Y401649D01*
X83300Y401600D01*
X83326Y401550D01*
X83348Y401498D01*
X83367Y401445D01*
X82049Y400825D02*
X82013Y400861D01*
X81980Y400899D01*
X81950Y400940D01*
X81923Y400982D01*
X81898Y401027D01*
X81877Y401073D01*
X81858Y401120D01*
X81843Y401168D01*
X81831Y401217D01*
X81823Y401267D01*
X81818Y401317D01*
X81816Y401368D01*
X82049Y400824D02*
X83368Y399272D01*
X81816Y399272D01*
X80625Y401756D02*
X80625Y402066D01*
X79072Y402066D01*
X79849Y399272D01*
D12*
X97773Y410663D02*
X97773Y419663D01*
X79773Y419663D01*
X79773Y410663D01*
X97773Y410663D01*
D20*
X94693Y413877D02*
X94072Y413877D01*
X94693Y413877D02*
X94742Y413879D01*
X94790Y413885D01*
X94838Y413894D01*
X94885Y413907D01*
X94931Y413924D01*
X94975Y413945D01*
X95017Y413969D01*
X95058Y413996D01*
X95096Y414026D01*
X95132Y414059D01*
X95165Y414095D01*
X95195Y414133D01*
X95222Y414174D01*
X95246Y414216D01*
X95267Y414260D01*
X95284Y414306D01*
X95297Y414353D01*
X95306Y414401D01*
X95312Y414449D01*
X95314Y414498D01*
X95314Y416050D01*
X95312Y416099D01*
X95306Y416147D01*
X95297Y416195D01*
X95284Y416242D01*
X95267Y416288D01*
X95246Y416332D01*
X95222Y416374D01*
X95195Y416415D01*
X95165Y416453D01*
X95132Y416489D01*
X95096Y416522D01*
X95058Y416552D01*
X95017Y416579D01*
X94975Y416603D01*
X94931Y416624D01*
X94885Y416641D01*
X94838Y416654D01*
X94790Y416663D01*
X94742Y416669D01*
X94693Y416671D01*
X94072Y416671D01*
X92166Y416672D02*
X92116Y416670D01*
X92067Y416665D01*
X92017Y416656D01*
X91969Y416644D01*
X91922Y416628D01*
X91876Y416609D01*
X91831Y416586D01*
X91788Y416561D01*
X91747Y416533D01*
X91708Y416501D01*
X91672Y416467D01*
X91638Y416431D01*
X91606Y416392D01*
X91578Y416351D01*
X91553Y416308D01*
X91530Y416263D01*
X91511Y416217D01*
X91495Y416170D01*
X91483Y416122D01*
X91474Y416072D01*
X91469Y416023D01*
X91467Y415973D01*
X92166Y416671D02*
X92222Y416669D01*
X92279Y416664D01*
X92334Y416655D01*
X92389Y416643D01*
X92443Y416627D01*
X92496Y416608D01*
X92548Y416585D01*
X92598Y416560D01*
X92647Y416531D01*
X92694Y416499D01*
X92738Y416465D01*
X92780Y416428D01*
X92820Y416388D01*
X92858Y416345D01*
X92892Y416301D01*
X92924Y416254D01*
X92952Y416205D01*
X92978Y416155D01*
X93000Y416103D01*
X93019Y416050D01*
X91701Y415430D02*
X91665Y415466D01*
X91632Y415504D01*
X91602Y415545D01*
X91575Y415587D01*
X91550Y415632D01*
X91529Y415678D01*
X91510Y415725D01*
X91495Y415773D01*
X91483Y415822D01*
X91475Y415872D01*
X91470Y415922D01*
X91468Y415973D01*
X91701Y415429D02*
X93020Y413877D01*
X91468Y413877D01*
X90277Y414653D02*
X90275Y414708D01*
X90269Y414763D01*
X90259Y414818D01*
X90246Y414872D01*
X90228Y414924D01*
X90207Y414975D01*
X90182Y415025D01*
X90154Y415073D01*
X90122Y415118D01*
X90087Y415161D01*
X90050Y415202D01*
X90009Y415239D01*
X89966Y415274D01*
X89921Y415306D01*
X89873Y415334D01*
X89823Y415359D01*
X89772Y415380D01*
X89720Y415398D01*
X89666Y415411D01*
X89611Y415421D01*
X89556Y415427D01*
X89501Y415429D01*
X89446Y415427D01*
X89391Y415421D01*
X89336Y415411D01*
X89282Y415398D01*
X89230Y415380D01*
X89179Y415359D01*
X89129Y415334D01*
X89081Y415306D01*
X89036Y415274D01*
X88993Y415239D01*
X88952Y415202D01*
X88915Y415161D01*
X88880Y415118D01*
X88848Y415073D01*
X88820Y415025D01*
X88795Y414975D01*
X88774Y414924D01*
X88756Y414872D01*
X88743Y414818D01*
X88733Y414763D01*
X88727Y414708D01*
X88725Y414653D01*
X88727Y414598D01*
X88733Y414543D01*
X88743Y414488D01*
X88756Y414434D01*
X88774Y414382D01*
X88795Y414331D01*
X88820Y414281D01*
X88848Y414233D01*
X88880Y414188D01*
X88915Y414145D01*
X88952Y414104D01*
X88993Y414067D01*
X89036Y414032D01*
X89081Y414000D01*
X89129Y413972D01*
X89179Y413947D01*
X89230Y413926D01*
X89282Y413908D01*
X89336Y413895D01*
X89391Y413885D01*
X89446Y413879D01*
X89501Y413877D01*
X89556Y413879D01*
X89611Y413885D01*
X89666Y413895D01*
X89720Y413908D01*
X89772Y413926D01*
X89823Y413947D01*
X89873Y413972D01*
X89921Y414000D01*
X89966Y414032D01*
X90009Y414067D01*
X90050Y414104D01*
X90087Y414145D01*
X90122Y414188D01*
X90154Y414233D01*
X90182Y414281D01*
X90207Y414331D01*
X90228Y414382D01*
X90246Y414434D01*
X90259Y414488D01*
X90269Y414543D01*
X90275Y414598D01*
X90277Y414653D01*
X90122Y416050D02*
X90120Y416099D01*
X90114Y416147D01*
X90105Y416195D01*
X90092Y416242D01*
X90075Y416288D01*
X90054Y416332D01*
X90030Y416374D01*
X90003Y416415D01*
X89973Y416453D01*
X89940Y416489D01*
X89904Y416522D01*
X89866Y416552D01*
X89825Y416579D01*
X89783Y416603D01*
X89739Y416624D01*
X89693Y416641D01*
X89646Y416654D01*
X89598Y416663D01*
X89550Y416669D01*
X89501Y416671D01*
X89452Y416669D01*
X89404Y416663D01*
X89356Y416654D01*
X89309Y416641D01*
X89263Y416624D01*
X89219Y416603D01*
X89177Y416579D01*
X89136Y416552D01*
X89098Y416522D01*
X89062Y416489D01*
X89029Y416453D01*
X88999Y416415D01*
X88972Y416374D01*
X88948Y416332D01*
X88927Y416288D01*
X88910Y416242D01*
X88897Y416195D01*
X88888Y416147D01*
X88882Y416099D01*
X88880Y416050D01*
X88882Y416001D01*
X88888Y415953D01*
X88897Y415905D01*
X88910Y415858D01*
X88927Y415812D01*
X88948Y415768D01*
X88972Y415726D01*
X88999Y415685D01*
X89029Y415647D01*
X89062Y415611D01*
X89098Y415578D01*
X89136Y415548D01*
X89177Y415521D01*
X89219Y415497D01*
X89263Y415476D01*
X89309Y415459D01*
X89356Y415446D01*
X89404Y415437D01*
X89452Y415431D01*
X89501Y415429D01*
X89550Y415431D01*
X89598Y415437D01*
X89646Y415446D01*
X89693Y415459D01*
X89739Y415476D01*
X89783Y415497D01*
X89825Y415521D01*
X89866Y415548D01*
X89904Y415578D01*
X89940Y415611D01*
X89973Y415647D01*
X90003Y415685D01*
X90030Y415726D01*
X90054Y415768D01*
X90075Y415812D01*
X90092Y415858D01*
X90105Y415905D01*
X90114Y415953D01*
X90120Y416001D01*
X90122Y416050D01*
D12*
X136796Y410265D02*
X136796Y401265D01*
X154796Y401265D01*
X154796Y410265D01*
X136796Y410265D01*
D20*
X144603Y404257D02*
X145224Y404257D01*
X145273Y404259D01*
X145321Y404265D01*
X145369Y404274D01*
X145416Y404287D01*
X145462Y404304D01*
X145506Y404325D01*
X145548Y404349D01*
X145589Y404376D01*
X145627Y404406D01*
X145663Y404439D01*
X145696Y404475D01*
X145726Y404513D01*
X145753Y404554D01*
X145777Y404596D01*
X145798Y404640D01*
X145815Y404686D01*
X145828Y404733D01*
X145837Y404781D01*
X145843Y404829D01*
X145845Y404878D01*
X145845Y406430D01*
X145843Y406479D01*
X145837Y406527D01*
X145828Y406575D01*
X145815Y406622D01*
X145798Y406668D01*
X145777Y406712D01*
X145753Y406754D01*
X145726Y406795D01*
X145696Y406833D01*
X145663Y406869D01*
X145627Y406902D01*
X145589Y406932D01*
X145548Y406959D01*
X145506Y406983D01*
X145462Y407004D01*
X145416Y407021D01*
X145369Y407034D01*
X145321Y407043D01*
X145273Y407049D01*
X145224Y407051D01*
X144603Y407051D01*
X143550Y404257D02*
X142774Y404257D01*
X142719Y404259D01*
X142664Y404265D01*
X142609Y404275D01*
X142555Y404288D01*
X142503Y404306D01*
X142452Y404327D01*
X142402Y404352D01*
X142354Y404380D01*
X142309Y404412D01*
X142266Y404447D01*
X142225Y404484D01*
X142188Y404525D01*
X142153Y404568D01*
X142121Y404613D01*
X142093Y404661D01*
X142068Y404711D01*
X142047Y404762D01*
X142029Y404814D01*
X142016Y404868D01*
X142006Y404923D01*
X142000Y404978D01*
X141998Y405033D01*
X142000Y405088D01*
X142006Y405143D01*
X142016Y405198D01*
X142029Y405252D01*
X142047Y405304D01*
X142068Y405355D01*
X142093Y405405D01*
X142121Y405453D01*
X142153Y405498D01*
X142188Y405541D01*
X142225Y405582D01*
X142266Y405619D01*
X142309Y405654D01*
X142354Y405686D01*
X142402Y405714D01*
X142452Y405739D01*
X142503Y405760D01*
X142555Y405778D01*
X142609Y405791D01*
X142664Y405801D01*
X142719Y405807D01*
X142774Y405809D01*
X142619Y407051D02*
X143550Y407051D01*
X142619Y407051D02*
X142570Y407049D01*
X142522Y407043D01*
X142474Y407034D01*
X142427Y407021D01*
X142381Y407004D01*
X142337Y406983D01*
X142295Y406959D01*
X142254Y406932D01*
X142216Y406902D01*
X142180Y406869D01*
X142147Y406833D01*
X142117Y406795D01*
X142090Y406754D01*
X142066Y406712D01*
X142045Y406668D01*
X142028Y406622D01*
X142015Y406575D01*
X142006Y406527D01*
X142000Y406479D01*
X141998Y406430D01*
X142000Y406381D01*
X142006Y406333D01*
X142015Y406285D01*
X142028Y406238D01*
X142045Y406192D01*
X142066Y406148D01*
X142090Y406106D01*
X142117Y406065D01*
X142147Y406027D01*
X142180Y405991D01*
X142216Y405958D01*
X142254Y405928D01*
X142295Y405901D01*
X142337Y405877D01*
X142381Y405856D01*
X142427Y405839D01*
X142474Y405826D01*
X142522Y405817D01*
X142570Y405811D01*
X142619Y405809D01*
X143240Y405809D01*
X140807Y404257D02*
X139876Y404257D01*
X139827Y404259D01*
X139779Y404265D01*
X139731Y404274D01*
X139684Y404287D01*
X139638Y404304D01*
X139594Y404325D01*
X139552Y404348D01*
X139511Y404376D01*
X139473Y404406D01*
X139437Y404439D01*
X139404Y404475D01*
X139374Y404513D01*
X139347Y404553D01*
X139323Y404596D01*
X139302Y404640D01*
X139285Y404686D01*
X139272Y404733D01*
X139263Y404781D01*
X139257Y404829D01*
X139255Y404878D01*
X139255Y405188D01*
X139257Y405237D01*
X139263Y405285D01*
X139272Y405333D01*
X139285Y405380D01*
X139302Y405426D01*
X139323Y405470D01*
X139347Y405512D01*
X139374Y405553D01*
X139404Y405591D01*
X139437Y405627D01*
X139473Y405660D01*
X139511Y405690D01*
X139552Y405718D01*
X139594Y405741D01*
X139638Y405762D01*
X139684Y405779D01*
X139731Y405792D01*
X139779Y405801D01*
X139827Y405807D01*
X139876Y405809D01*
X140807Y405809D01*
X140807Y407051D01*
X139255Y407051D01*
D12*
X102036Y382634D02*
X93036Y382634D01*
X93036Y364634D01*
X102036Y364634D01*
X102036Y382634D01*
D20*
X96028Y374827D02*
X96028Y374206D01*
X96030Y374157D01*
X96036Y374109D01*
X96045Y374061D01*
X96058Y374014D01*
X96075Y373968D01*
X96096Y373924D01*
X96120Y373882D01*
X96147Y373841D01*
X96177Y373803D01*
X96210Y373767D01*
X96246Y373734D01*
X96284Y373704D01*
X96325Y373677D01*
X96367Y373653D01*
X96411Y373632D01*
X96457Y373615D01*
X96504Y373602D01*
X96552Y373593D01*
X96600Y373587D01*
X96649Y373585D01*
X98201Y373585D01*
X98250Y373587D01*
X98298Y373593D01*
X98346Y373602D01*
X98393Y373615D01*
X98439Y373632D01*
X98483Y373653D01*
X98525Y373677D01*
X98566Y373704D01*
X98604Y373734D01*
X98640Y373767D01*
X98673Y373803D01*
X98703Y373841D01*
X98730Y373882D01*
X98754Y373924D01*
X98775Y373968D01*
X98792Y374014D01*
X98805Y374061D01*
X98814Y374109D01*
X98820Y374157D01*
X98822Y374206D01*
X98822Y374827D01*
X96028Y375880D02*
X96028Y376656D01*
X96030Y376711D01*
X96036Y376766D01*
X96046Y376821D01*
X96059Y376875D01*
X96077Y376927D01*
X96098Y376978D01*
X96123Y377028D01*
X96151Y377076D01*
X96183Y377121D01*
X96218Y377164D01*
X96255Y377205D01*
X96296Y377242D01*
X96339Y377277D01*
X96384Y377309D01*
X96432Y377337D01*
X96482Y377362D01*
X96533Y377383D01*
X96585Y377401D01*
X96639Y377414D01*
X96694Y377424D01*
X96749Y377430D01*
X96804Y377432D01*
X96859Y377430D01*
X96914Y377424D01*
X96969Y377414D01*
X97023Y377401D01*
X97075Y377383D01*
X97126Y377362D01*
X97176Y377337D01*
X97224Y377309D01*
X97269Y377277D01*
X97312Y377242D01*
X97353Y377205D01*
X97390Y377164D01*
X97425Y377121D01*
X97457Y377076D01*
X97485Y377028D01*
X97510Y376978D01*
X97531Y376927D01*
X97549Y376875D01*
X97562Y376821D01*
X97572Y376766D01*
X97578Y376711D01*
X97580Y376656D01*
X98822Y376811D02*
X98822Y375880D01*
X98822Y376811D02*
X98820Y376860D01*
X98814Y376908D01*
X98805Y376956D01*
X98792Y377003D01*
X98775Y377049D01*
X98754Y377093D01*
X98730Y377135D01*
X98703Y377176D01*
X98673Y377214D01*
X98640Y377250D01*
X98604Y377283D01*
X98566Y377313D01*
X98525Y377340D01*
X98483Y377364D01*
X98439Y377385D01*
X98393Y377402D01*
X98346Y377415D01*
X98298Y377424D01*
X98250Y377430D01*
X98201Y377432D01*
X98152Y377430D01*
X98104Y377424D01*
X98056Y377415D01*
X98009Y377402D01*
X97963Y377385D01*
X97919Y377364D01*
X97877Y377340D01*
X97836Y377313D01*
X97798Y377283D01*
X97762Y377250D01*
X97729Y377214D01*
X97699Y377176D01*
X97672Y377135D01*
X97648Y377093D01*
X97627Y377049D01*
X97610Y377003D01*
X97597Y376956D01*
X97588Y376908D01*
X97582Y376860D01*
X97580Y376811D01*
X97580Y376190D01*
X97580Y378623D02*
X97580Y379554D01*
X97578Y379603D01*
X97572Y379651D01*
X97563Y379699D01*
X97550Y379746D01*
X97533Y379792D01*
X97512Y379836D01*
X97488Y379878D01*
X97461Y379919D01*
X97431Y379957D01*
X97398Y379993D01*
X97362Y380026D01*
X97324Y380056D01*
X97283Y380083D01*
X97241Y380107D01*
X97197Y380128D01*
X97151Y380145D01*
X97104Y380158D01*
X97056Y380167D01*
X97008Y380173D01*
X96959Y380175D01*
X96804Y380175D01*
X96749Y380173D01*
X96694Y380167D01*
X96639Y380157D01*
X96585Y380144D01*
X96533Y380126D01*
X96482Y380105D01*
X96432Y380080D01*
X96384Y380052D01*
X96339Y380020D01*
X96296Y379985D01*
X96255Y379948D01*
X96218Y379907D01*
X96183Y379864D01*
X96151Y379819D01*
X96123Y379771D01*
X96098Y379721D01*
X96077Y379670D01*
X96059Y379618D01*
X96046Y379564D01*
X96036Y379509D01*
X96030Y379454D01*
X96028Y379399D01*
X96030Y379344D01*
X96036Y379289D01*
X96046Y379234D01*
X96059Y379180D01*
X96077Y379128D01*
X96098Y379077D01*
X96123Y379027D01*
X96151Y378979D01*
X96183Y378934D01*
X96218Y378891D01*
X96255Y378850D01*
X96296Y378813D01*
X96339Y378778D01*
X96384Y378746D01*
X96432Y378718D01*
X96482Y378693D01*
X96533Y378672D01*
X96585Y378654D01*
X96639Y378641D01*
X96694Y378631D01*
X96749Y378625D01*
X96804Y378623D01*
X97580Y378623D01*
X97650Y378625D01*
X97719Y378631D01*
X97788Y378641D01*
X97856Y378654D01*
X97924Y378672D01*
X97990Y378693D01*
X98055Y378718D01*
X98119Y378746D01*
X98181Y378778D01*
X98241Y378813D01*
X98299Y378852D01*
X98354Y378894D01*
X98408Y378939D01*
X98458Y378987D01*
X98506Y379037D01*
X98551Y379091D01*
X98593Y379146D01*
X98632Y379204D01*
X98667Y379264D01*
X98699Y379326D01*
X98727Y379390D01*
X98752Y379455D01*
X98773Y379521D01*
X98791Y379589D01*
X98804Y379657D01*
X98814Y379726D01*
X98820Y379795D01*
X98822Y379865D01*
D19*
X89928Y383766D02*
X89928Y388112D01*
X89928Y383766D02*
X89930Y383696D01*
X89936Y383627D01*
X89946Y383558D01*
X89959Y383490D01*
X89977Y383422D01*
X89998Y383356D01*
X90023Y383291D01*
X90051Y383227D01*
X90083Y383165D01*
X90118Y383105D01*
X90157Y383047D01*
X90199Y382992D01*
X90244Y382938D01*
X90292Y382888D01*
X90342Y382840D01*
X90396Y382795D01*
X90451Y382753D01*
X90509Y382714D01*
X90569Y382679D01*
X90631Y382647D01*
X90695Y382619D01*
X90760Y382594D01*
X90826Y382573D01*
X90894Y382555D01*
X90962Y382542D01*
X91031Y382532D01*
X91100Y382526D01*
X91170Y382524D01*
X91791Y382524D01*
X87120Y382524D02*
X87120Y388112D01*
X85568Y388112D01*
X85491Y388110D01*
X85413Y388104D01*
X85337Y388095D01*
X85260Y388081D01*
X85185Y388064D01*
X85111Y388043D01*
X85037Y388018D01*
X84965Y387990D01*
X84895Y387958D01*
X84826Y387923D01*
X84759Y387884D01*
X84694Y387842D01*
X84631Y387797D01*
X84570Y387749D01*
X84512Y387698D01*
X84457Y387644D01*
X84404Y387587D01*
X84355Y387528D01*
X84308Y387466D01*
X84264Y387402D01*
X84224Y387336D01*
X84187Y387268D01*
X84153Y387198D01*
X84123Y387127D01*
X84097Y387054D01*
X84074Y386980D01*
X84055Y386905D01*
X84040Y386830D01*
X84028Y386753D01*
X84020Y386676D01*
X84016Y386599D01*
X84016Y386521D01*
X84020Y386444D01*
X84028Y386367D01*
X84040Y386290D01*
X84055Y386215D01*
X84074Y386140D01*
X84097Y386066D01*
X84123Y385993D01*
X84153Y385922D01*
X84187Y385852D01*
X84224Y385784D01*
X84264Y385718D01*
X84308Y385654D01*
X84355Y385592D01*
X84404Y385533D01*
X84457Y385476D01*
X84512Y385422D01*
X84570Y385371D01*
X84631Y385323D01*
X84694Y385278D01*
X84759Y385236D01*
X84826Y385197D01*
X84895Y385162D01*
X84965Y385130D01*
X85037Y385102D01*
X85111Y385077D01*
X85185Y385056D01*
X85260Y385039D01*
X85337Y385025D01*
X85413Y385016D01*
X85491Y385010D01*
X85568Y385008D01*
X87120Y385008D01*
X81900Y386870D02*
X80348Y388112D01*
X80348Y382524D01*
X81900Y382524D02*
X78795Y382524D01*
X76414Y385628D02*
X74551Y385628D01*
X74551Y385629D02*
X74481Y385627D01*
X74412Y385621D01*
X74343Y385611D01*
X74275Y385598D01*
X74207Y385580D01*
X74141Y385559D01*
X74076Y385534D01*
X74012Y385506D01*
X73950Y385474D01*
X73890Y385439D01*
X73832Y385400D01*
X73777Y385358D01*
X73723Y385313D01*
X73673Y385265D01*
X73625Y385215D01*
X73580Y385161D01*
X73538Y385106D01*
X73499Y385048D01*
X73464Y384988D01*
X73432Y384926D01*
X73404Y384862D01*
X73379Y384797D01*
X73358Y384731D01*
X73340Y384663D01*
X73327Y384595D01*
X73317Y384526D01*
X73311Y384457D01*
X73309Y384387D01*
X73309Y384076D01*
X73311Y383999D01*
X73317Y383921D01*
X73326Y383845D01*
X73340Y383768D01*
X73357Y383693D01*
X73378Y383619D01*
X73403Y383545D01*
X73431Y383473D01*
X73463Y383403D01*
X73498Y383334D01*
X73537Y383267D01*
X73579Y383202D01*
X73624Y383139D01*
X73672Y383078D01*
X73723Y383020D01*
X73777Y382965D01*
X73834Y382912D01*
X73893Y382863D01*
X73955Y382816D01*
X74019Y382772D01*
X74085Y382732D01*
X74153Y382695D01*
X74223Y382661D01*
X74294Y382631D01*
X74367Y382605D01*
X74441Y382582D01*
X74516Y382563D01*
X74591Y382548D01*
X74668Y382536D01*
X74745Y382528D01*
X74822Y382524D01*
X74900Y382524D01*
X74977Y382528D01*
X75054Y382536D01*
X75131Y382548D01*
X75206Y382563D01*
X75281Y382582D01*
X75355Y382605D01*
X75428Y382631D01*
X75499Y382661D01*
X75569Y382695D01*
X75637Y382732D01*
X75703Y382772D01*
X75767Y382816D01*
X75829Y382863D01*
X75888Y382912D01*
X75945Y382965D01*
X75999Y383020D01*
X76050Y383078D01*
X76098Y383139D01*
X76143Y383202D01*
X76185Y383267D01*
X76224Y383334D01*
X76259Y383403D01*
X76291Y383473D01*
X76319Y383545D01*
X76344Y383619D01*
X76365Y383693D01*
X76382Y383768D01*
X76396Y383845D01*
X76405Y383921D01*
X76411Y383999D01*
X76413Y384076D01*
X76414Y384076D02*
X76414Y385628D01*
X76412Y385726D01*
X76406Y385823D01*
X76397Y385920D01*
X76383Y386017D01*
X76366Y386113D01*
X76345Y386208D01*
X76321Y386302D01*
X76292Y386396D01*
X76260Y386488D01*
X76225Y386579D01*
X76186Y386668D01*
X76143Y386756D01*
X76097Y386842D01*
X76048Y386926D01*
X75995Y387008D01*
X75940Y387088D01*
X75881Y387166D01*
X75819Y387241D01*
X75754Y387314D01*
X75686Y387384D01*
X75616Y387452D01*
X75543Y387517D01*
X75468Y387579D01*
X75390Y387638D01*
X75310Y387693D01*
X75228Y387746D01*
X75144Y387795D01*
X75058Y387841D01*
X74970Y387884D01*
X74881Y387923D01*
X74790Y387958D01*
X74698Y387990D01*
X74604Y388019D01*
X74510Y388043D01*
X74415Y388064D01*
X74319Y388081D01*
X74222Y388095D01*
X74125Y388104D01*
X74028Y388110D01*
X73930Y388112D01*
D12*
X96918Y422728D02*
X96918Y431728D01*
X96918Y422728D02*
X114918Y422728D01*
X114918Y431728D01*
X96918Y431728D01*
X21137Y364346D02*
X12137Y364346D01*
X12137Y346346D01*
X21137Y346346D01*
X21137Y364346D01*
D20*
X17923Y357610D02*
X15129Y357610D01*
X17923Y357610D02*
X17923Y358386D01*
X17921Y358441D01*
X17915Y358496D01*
X17905Y358551D01*
X17892Y358605D01*
X17874Y358657D01*
X17853Y358708D01*
X17828Y358758D01*
X17800Y358806D01*
X17768Y358851D01*
X17733Y358894D01*
X17696Y358935D01*
X17655Y358972D01*
X17612Y359007D01*
X17567Y359039D01*
X17519Y359067D01*
X17469Y359092D01*
X17418Y359113D01*
X17366Y359131D01*
X17312Y359144D01*
X17257Y359154D01*
X17202Y359160D01*
X17147Y359162D01*
X17092Y359160D01*
X17037Y359154D01*
X16982Y359144D01*
X16928Y359131D01*
X16876Y359113D01*
X16825Y359092D01*
X16775Y359067D01*
X16727Y359039D01*
X16682Y359007D01*
X16639Y358972D01*
X16598Y358935D01*
X16561Y358894D01*
X16526Y358851D01*
X16494Y358806D01*
X16466Y358758D01*
X16441Y358708D01*
X16420Y358657D01*
X16402Y358605D01*
X16389Y358551D01*
X16379Y358496D01*
X16373Y358441D01*
X16371Y358386D01*
X16371Y357610D01*
X16371Y358541D02*
X15129Y359162D01*
X15905Y360335D02*
X15960Y360337D01*
X16015Y360343D01*
X16070Y360353D01*
X16124Y360366D01*
X16176Y360384D01*
X16227Y360405D01*
X16277Y360430D01*
X16325Y360458D01*
X16370Y360490D01*
X16413Y360525D01*
X16454Y360562D01*
X16491Y360603D01*
X16526Y360646D01*
X16558Y360691D01*
X16586Y360739D01*
X16611Y360789D01*
X16632Y360840D01*
X16650Y360892D01*
X16663Y360946D01*
X16673Y361001D01*
X16679Y361056D01*
X16681Y361111D01*
X16679Y361166D01*
X16673Y361221D01*
X16663Y361276D01*
X16650Y361330D01*
X16632Y361382D01*
X16611Y361433D01*
X16586Y361483D01*
X16558Y361531D01*
X16526Y361576D01*
X16491Y361619D01*
X16454Y361660D01*
X16413Y361697D01*
X16370Y361732D01*
X16325Y361764D01*
X16277Y361792D01*
X16227Y361817D01*
X16176Y361838D01*
X16124Y361856D01*
X16070Y361869D01*
X16015Y361879D01*
X15960Y361885D01*
X15905Y361887D01*
X15850Y361885D01*
X15795Y361879D01*
X15740Y361869D01*
X15686Y361856D01*
X15634Y361838D01*
X15583Y361817D01*
X15533Y361792D01*
X15485Y361764D01*
X15440Y361732D01*
X15397Y361697D01*
X15356Y361660D01*
X15319Y361619D01*
X15284Y361576D01*
X15252Y361531D01*
X15224Y361483D01*
X15199Y361433D01*
X15178Y361382D01*
X15160Y361330D01*
X15147Y361276D01*
X15137Y361221D01*
X15131Y361166D01*
X15129Y361111D01*
X15131Y361056D01*
X15137Y361001D01*
X15147Y360946D01*
X15160Y360892D01*
X15178Y360840D01*
X15199Y360789D01*
X15224Y360739D01*
X15252Y360691D01*
X15284Y360646D01*
X15319Y360603D01*
X15356Y360562D01*
X15397Y360525D01*
X15440Y360490D01*
X15485Y360458D01*
X15533Y360430D01*
X15583Y360405D01*
X15634Y360384D01*
X15686Y360366D01*
X15740Y360353D01*
X15795Y360343D01*
X15850Y360337D01*
X15905Y360335D01*
X17302Y360490D02*
X17351Y360492D01*
X17399Y360498D01*
X17447Y360507D01*
X17494Y360520D01*
X17540Y360537D01*
X17584Y360558D01*
X17626Y360582D01*
X17667Y360609D01*
X17705Y360639D01*
X17741Y360672D01*
X17774Y360708D01*
X17804Y360746D01*
X17831Y360787D01*
X17855Y360829D01*
X17876Y360873D01*
X17893Y360919D01*
X17906Y360966D01*
X17915Y361014D01*
X17921Y361062D01*
X17923Y361111D01*
X17921Y361160D01*
X17915Y361208D01*
X17906Y361256D01*
X17893Y361303D01*
X17876Y361349D01*
X17855Y361393D01*
X17831Y361435D01*
X17804Y361476D01*
X17774Y361514D01*
X17741Y361550D01*
X17705Y361583D01*
X17667Y361613D01*
X17626Y361640D01*
X17584Y361664D01*
X17540Y361685D01*
X17494Y361702D01*
X17447Y361715D01*
X17399Y361724D01*
X17351Y361730D01*
X17302Y361732D01*
X17253Y361730D01*
X17205Y361724D01*
X17157Y361715D01*
X17110Y361702D01*
X17064Y361685D01*
X17020Y361664D01*
X16978Y361640D01*
X16937Y361613D01*
X16899Y361583D01*
X16863Y361550D01*
X16830Y361514D01*
X16800Y361476D01*
X16773Y361435D01*
X16749Y361393D01*
X16728Y361349D01*
X16711Y361303D01*
X16698Y361256D01*
X16689Y361208D01*
X16683Y361160D01*
X16681Y361111D01*
X16683Y361062D01*
X16689Y361014D01*
X16698Y360966D01*
X16711Y360919D01*
X16728Y360873D01*
X16749Y360829D01*
X16773Y360787D01*
X16800Y360746D01*
X16830Y360708D01*
X16863Y360672D01*
X16899Y360639D01*
X16937Y360609D01*
X16978Y360582D01*
X17020Y360558D01*
X17064Y360537D01*
X17110Y360520D01*
X17157Y360507D01*
X17205Y360498D01*
X17253Y360492D01*
X17302Y360490D01*
X17923Y357610D02*
X15129Y357610D01*
X17923Y357610D02*
X17923Y358386D01*
X17921Y358441D01*
X17915Y358496D01*
X17905Y358551D01*
X17892Y358605D01*
X17874Y358657D01*
X17853Y358708D01*
X17828Y358758D01*
X17800Y358806D01*
X17768Y358851D01*
X17733Y358894D01*
X17696Y358935D01*
X17655Y358972D01*
X17612Y359007D01*
X17567Y359039D01*
X17519Y359067D01*
X17469Y359092D01*
X17418Y359113D01*
X17366Y359131D01*
X17312Y359144D01*
X17257Y359154D01*
X17202Y359160D01*
X17147Y359162D01*
X17092Y359160D01*
X17037Y359154D01*
X16982Y359144D01*
X16928Y359131D01*
X16876Y359113D01*
X16825Y359092D01*
X16775Y359067D01*
X16727Y359039D01*
X16682Y359007D01*
X16639Y358972D01*
X16598Y358935D01*
X16561Y358894D01*
X16526Y358851D01*
X16494Y358806D01*
X16466Y358758D01*
X16441Y358708D01*
X16420Y358657D01*
X16402Y358605D01*
X16389Y358551D01*
X16379Y358496D01*
X16373Y358441D01*
X16371Y358386D01*
X16371Y357610D01*
X16371Y358541D02*
X15129Y359162D01*
X15905Y360335D02*
X15960Y360337D01*
X16015Y360343D01*
X16070Y360353D01*
X16124Y360366D01*
X16176Y360384D01*
X16227Y360405D01*
X16277Y360430D01*
X16325Y360458D01*
X16370Y360490D01*
X16413Y360525D01*
X16454Y360562D01*
X16491Y360603D01*
X16526Y360646D01*
X16558Y360691D01*
X16586Y360739D01*
X16611Y360789D01*
X16632Y360840D01*
X16650Y360892D01*
X16663Y360946D01*
X16673Y361001D01*
X16679Y361056D01*
X16681Y361111D01*
X16679Y361166D01*
X16673Y361221D01*
X16663Y361276D01*
X16650Y361330D01*
X16632Y361382D01*
X16611Y361433D01*
X16586Y361483D01*
X16558Y361531D01*
X16526Y361576D01*
X16491Y361619D01*
X16454Y361660D01*
X16413Y361697D01*
X16370Y361732D01*
X16325Y361764D01*
X16277Y361792D01*
X16227Y361817D01*
X16176Y361838D01*
X16124Y361856D01*
X16070Y361869D01*
X16015Y361879D01*
X15960Y361885D01*
X15905Y361887D01*
X15850Y361885D01*
X15795Y361879D01*
X15740Y361869D01*
X15686Y361856D01*
X15634Y361838D01*
X15583Y361817D01*
X15533Y361792D01*
X15485Y361764D01*
X15440Y361732D01*
X15397Y361697D01*
X15356Y361660D01*
X15319Y361619D01*
X15284Y361576D01*
X15252Y361531D01*
X15224Y361483D01*
X15199Y361433D01*
X15178Y361382D01*
X15160Y361330D01*
X15147Y361276D01*
X15137Y361221D01*
X15131Y361166D01*
X15129Y361111D01*
X15131Y361056D01*
X15137Y361001D01*
X15147Y360946D01*
X15160Y360892D01*
X15178Y360840D01*
X15199Y360789D01*
X15224Y360739D01*
X15252Y360691D01*
X15284Y360646D01*
X15319Y360603D01*
X15356Y360562D01*
X15397Y360525D01*
X15440Y360490D01*
X15485Y360458D01*
X15533Y360430D01*
X15583Y360405D01*
X15634Y360384D01*
X15686Y360366D01*
X15740Y360353D01*
X15795Y360343D01*
X15850Y360337D01*
X15905Y360335D01*
X17302Y360490D02*
X17351Y360492D01*
X17399Y360498D01*
X17447Y360507D01*
X17494Y360520D01*
X17540Y360537D01*
X17584Y360558D01*
X17626Y360582D01*
X17667Y360609D01*
X17705Y360639D01*
X17741Y360672D01*
X17774Y360708D01*
X17804Y360746D01*
X17831Y360787D01*
X17855Y360829D01*
X17876Y360873D01*
X17893Y360919D01*
X17906Y360966D01*
X17915Y361014D01*
X17921Y361062D01*
X17923Y361111D01*
X17921Y361160D01*
X17915Y361208D01*
X17906Y361256D01*
X17893Y361303D01*
X17876Y361349D01*
X17855Y361393D01*
X17831Y361435D01*
X17804Y361476D01*
X17774Y361514D01*
X17741Y361550D01*
X17705Y361583D01*
X17667Y361613D01*
X17626Y361640D01*
X17584Y361664D01*
X17540Y361685D01*
X17494Y361702D01*
X17447Y361715D01*
X17399Y361724D01*
X17351Y361730D01*
X17302Y361732D01*
X17253Y361730D01*
X17205Y361724D01*
X17157Y361715D01*
X17110Y361702D01*
X17064Y361685D01*
X17020Y361664D01*
X16978Y361640D01*
X16937Y361613D01*
X16899Y361583D01*
X16863Y361550D01*
X16830Y361514D01*
X16800Y361476D01*
X16773Y361435D01*
X16749Y361393D01*
X16728Y361349D01*
X16711Y361303D01*
X16698Y361256D01*
X16689Y361208D01*
X16683Y361160D01*
X16681Y361111D01*
X16683Y361062D01*
X16689Y361014D01*
X16698Y360966D01*
X16711Y360919D01*
X16728Y360873D01*
X16749Y360829D01*
X16773Y360787D01*
X16800Y360746D01*
X16830Y360708D01*
X16863Y360672D01*
X16899Y360639D01*
X16937Y360609D01*
X16978Y360582D01*
X17020Y360558D01*
X17064Y360537D01*
X17110Y360520D01*
X17157Y360507D01*
X17205Y360498D01*
X17253Y360492D01*
X17302Y360490D01*
D12*
X144509Y416759D02*
X144509Y425759D01*
X126509Y425759D01*
X126509Y416759D01*
X144509Y416759D01*
D20*
X141429Y419973D02*
X140808Y419973D01*
X141429Y419973D02*
X141478Y419975D01*
X141526Y419981D01*
X141574Y419990D01*
X141621Y420003D01*
X141667Y420020D01*
X141711Y420041D01*
X141753Y420065D01*
X141794Y420092D01*
X141832Y420122D01*
X141868Y420155D01*
X141901Y420191D01*
X141931Y420229D01*
X141958Y420270D01*
X141982Y420312D01*
X142003Y420356D01*
X142020Y420402D01*
X142033Y420449D01*
X142042Y420497D01*
X142048Y420545D01*
X142050Y420594D01*
X142050Y422146D01*
X142048Y422195D01*
X142042Y422243D01*
X142033Y422291D01*
X142020Y422338D01*
X142003Y422384D01*
X141982Y422428D01*
X141958Y422470D01*
X141931Y422511D01*
X141901Y422549D01*
X141868Y422585D01*
X141832Y422618D01*
X141794Y422648D01*
X141753Y422675D01*
X141711Y422699D01*
X141667Y422720D01*
X141621Y422737D01*
X141574Y422750D01*
X141526Y422759D01*
X141478Y422765D01*
X141429Y422767D01*
X140808Y422767D01*
X139756Y419973D02*
X138980Y419973D01*
X138925Y419975D01*
X138870Y419981D01*
X138815Y419991D01*
X138761Y420004D01*
X138709Y420022D01*
X138658Y420043D01*
X138608Y420068D01*
X138560Y420096D01*
X138515Y420128D01*
X138472Y420163D01*
X138431Y420200D01*
X138394Y420241D01*
X138359Y420284D01*
X138327Y420329D01*
X138299Y420377D01*
X138274Y420427D01*
X138253Y420478D01*
X138235Y420530D01*
X138222Y420584D01*
X138212Y420639D01*
X138206Y420694D01*
X138204Y420749D01*
X138206Y420804D01*
X138212Y420859D01*
X138222Y420914D01*
X138235Y420968D01*
X138253Y421020D01*
X138274Y421071D01*
X138299Y421121D01*
X138327Y421169D01*
X138359Y421214D01*
X138394Y421257D01*
X138431Y421298D01*
X138472Y421335D01*
X138515Y421370D01*
X138560Y421402D01*
X138608Y421430D01*
X138658Y421455D01*
X138709Y421476D01*
X138761Y421494D01*
X138815Y421507D01*
X138870Y421517D01*
X138925Y421523D01*
X138980Y421525D01*
X138825Y422767D02*
X139756Y422767D01*
X138825Y422767D02*
X138776Y422765D01*
X138728Y422759D01*
X138680Y422750D01*
X138633Y422737D01*
X138587Y422720D01*
X138543Y422699D01*
X138501Y422675D01*
X138460Y422648D01*
X138422Y422618D01*
X138386Y422585D01*
X138353Y422549D01*
X138323Y422511D01*
X138296Y422470D01*
X138272Y422428D01*
X138251Y422384D01*
X138234Y422338D01*
X138221Y422291D01*
X138212Y422243D01*
X138206Y422195D01*
X138204Y422146D01*
X138206Y422097D01*
X138212Y422049D01*
X138221Y422001D01*
X138234Y421954D01*
X138251Y421908D01*
X138272Y421864D01*
X138296Y421822D01*
X138323Y421781D01*
X138353Y421743D01*
X138386Y421707D01*
X138422Y421674D01*
X138460Y421644D01*
X138501Y421617D01*
X138543Y421593D01*
X138587Y421572D01*
X138633Y421555D01*
X138680Y421542D01*
X138728Y421533D01*
X138776Y421527D01*
X138825Y421525D01*
X139445Y421525D01*
X136159Y422768D02*
X136109Y422766D01*
X136060Y422761D01*
X136010Y422752D01*
X135962Y422740D01*
X135915Y422724D01*
X135869Y422705D01*
X135824Y422682D01*
X135781Y422657D01*
X135740Y422629D01*
X135701Y422597D01*
X135665Y422563D01*
X135631Y422527D01*
X135599Y422488D01*
X135571Y422447D01*
X135546Y422404D01*
X135523Y422359D01*
X135504Y422313D01*
X135488Y422266D01*
X135476Y422218D01*
X135467Y422168D01*
X135462Y422119D01*
X135460Y422069D01*
X136159Y422767D02*
X136215Y422765D01*
X136272Y422760D01*
X136327Y422751D01*
X136382Y422739D01*
X136436Y422723D01*
X136489Y422704D01*
X136541Y422681D01*
X136591Y422656D01*
X136640Y422627D01*
X136687Y422595D01*
X136731Y422561D01*
X136773Y422524D01*
X136813Y422484D01*
X136851Y422441D01*
X136885Y422397D01*
X136917Y422350D01*
X136945Y422301D01*
X136971Y422251D01*
X136993Y422199D01*
X137012Y422146D01*
X135694Y421526D02*
X135658Y421562D01*
X135625Y421600D01*
X135595Y421641D01*
X135568Y421683D01*
X135543Y421728D01*
X135522Y421774D01*
X135503Y421821D01*
X135488Y421869D01*
X135476Y421918D01*
X135468Y421968D01*
X135463Y422018D01*
X135461Y422069D01*
X135693Y421525D02*
X137013Y419973D01*
X135460Y419973D01*
D12*
X232300Y410900D02*
X232300Y401900D01*
X250300Y401900D01*
X250300Y410900D01*
X232300Y410900D01*
D20*
X241780Y407686D02*
X241780Y404892D01*
X241780Y407686D02*
X241004Y407686D01*
X240949Y407684D01*
X240894Y407678D01*
X240839Y407668D01*
X240785Y407655D01*
X240733Y407637D01*
X240682Y407616D01*
X240632Y407591D01*
X240584Y407563D01*
X240539Y407531D01*
X240496Y407496D01*
X240455Y407459D01*
X240418Y407418D01*
X240383Y407375D01*
X240351Y407330D01*
X240323Y407282D01*
X240298Y407232D01*
X240277Y407181D01*
X240259Y407129D01*
X240246Y407075D01*
X240236Y407020D01*
X240230Y406965D01*
X240228Y406910D01*
X240230Y406855D01*
X240236Y406800D01*
X240246Y406745D01*
X240259Y406691D01*
X240277Y406639D01*
X240298Y406588D01*
X240323Y406538D01*
X240351Y406490D01*
X240383Y406445D01*
X240418Y406402D01*
X240455Y406361D01*
X240496Y406324D01*
X240539Y406289D01*
X240584Y406257D01*
X240632Y406229D01*
X240682Y406204D01*
X240733Y406183D01*
X240785Y406165D01*
X240839Y406152D01*
X240894Y406142D01*
X240949Y406136D01*
X241004Y406134D01*
X241780Y406134D01*
X240848Y406134D02*
X240227Y404892D01*
X239054Y407065D02*
X238278Y407686D01*
X238278Y404892D01*
X239054Y404892D02*
X237502Y404892D01*
X236311Y407065D02*
X235535Y407686D01*
X235535Y404892D01*
X236311Y404892D02*
X234759Y404892D01*
X241780Y404892D02*
X241780Y407686D01*
X241004Y407686D01*
X240949Y407684D01*
X240894Y407678D01*
X240839Y407668D01*
X240785Y407655D01*
X240733Y407637D01*
X240682Y407616D01*
X240632Y407591D01*
X240584Y407563D01*
X240539Y407531D01*
X240496Y407496D01*
X240455Y407459D01*
X240418Y407418D01*
X240383Y407375D01*
X240351Y407330D01*
X240323Y407282D01*
X240298Y407232D01*
X240277Y407181D01*
X240259Y407129D01*
X240246Y407075D01*
X240236Y407020D01*
X240230Y406965D01*
X240228Y406910D01*
X240230Y406855D01*
X240236Y406800D01*
X240246Y406745D01*
X240259Y406691D01*
X240277Y406639D01*
X240298Y406588D01*
X240323Y406538D01*
X240351Y406490D01*
X240383Y406445D01*
X240418Y406402D01*
X240455Y406361D01*
X240496Y406324D01*
X240539Y406289D01*
X240584Y406257D01*
X240632Y406229D01*
X240682Y406204D01*
X240733Y406183D01*
X240785Y406165D01*
X240839Y406152D01*
X240894Y406142D01*
X240949Y406136D01*
X241004Y406134D01*
X241780Y406134D01*
X240848Y406134D02*
X240227Y404892D01*
X239054Y407065D02*
X238278Y407686D01*
X238278Y404892D01*
X239054Y404892D02*
X237502Y404892D01*
X236311Y407065D02*
X235535Y407686D01*
X235535Y404892D01*
X236311Y404892D02*
X234759Y404892D01*
D12*
X175624Y253801D02*
X175624Y244801D01*
X175624Y253801D02*
X157624Y253801D01*
X157624Y244801D01*
X175624Y244801D01*
D20*
X173165Y248015D02*
X173165Y250809D01*
X172389Y250809D01*
X172334Y250807D01*
X172279Y250801D01*
X172224Y250791D01*
X172170Y250778D01*
X172118Y250760D01*
X172067Y250739D01*
X172017Y250714D01*
X171969Y250686D01*
X171924Y250654D01*
X171881Y250619D01*
X171840Y250582D01*
X171803Y250541D01*
X171768Y250498D01*
X171736Y250453D01*
X171708Y250405D01*
X171683Y250355D01*
X171662Y250304D01*
X171644Y250252D01*
X171631Y250198D01*
X171621Y250143D01*
X171615Y250088D01*
X171613Y250033D01*
X171615Y249978D01*
X171621Y249923D01*
X171631Y249868D01*
X171644Y249814D01*
X171662Y249762D01*
X171683Y249711D01*
X171708Y249661D01*
X171736Y249613D01*
X171768Y249568D01*
X171803Y249525D01*
X171840Y249484D01*
X171881Y249447D01*
X171924Y249412D01*
X171969Y249380D01*
X172017Y249352D01*
X172067Y249327D01*
X172118Y249306D01*
X172170Y249288D01*
X172224Y249275D01*
X172279Y249265D01*
X172334Y249259D01*
X172389Y249257D01*
X173165Y249257D01*
X172234Y249257D02*
X171613Y248015D01*
X170440Y250188D02*
X169664Y250809D01*
X169664Y248015D01*
X170440Y248015D02*
X168888Y248015D01*
X166144Y250111D02*
X166146Y250161D01*
X166151Y250210D01*
X166160Y250260D01*
X166172Y250308D01*
X166188Y250355D01*
X166207Y250401D01*
X166230Y250446D01*
X166255Y250489D01*
X166283Y250530D01*
X166315Y250569D01*
X166349Y250605D01*
X166385Y250639D01*
X166424Y250671D01*
X166465Y250699D01*
X166508Y250724D01*
X166553Y250747D01*
X166599Y250766D01*
X166646Y250782D01*
X166694Y250794D01*
X166744Y250803D01*
X166793Y250808D01*
X166843Y250810D01*
X166843Y250809D02*
X166899Y250807D01*
X166956Y250802D01*
X167011Y250793D01*
X167066Y250781D01*
X167120Y250765D01*
X167173Y250746D01*
X167225Y250723D01*
X167275Y250698D01*
X167324Y250669D01*
X167371Y250637D01*
X167415Y250603D01*
X167457Y250566D01*
X167497Y250526D01*
X167535Y250483D01*
X167569Y250439D01*
X167601Y250392D01*
X167629Y250343D01*
X167655Y250293D01*
X167677Y250241D01*
X167696Y250188D01*
X166378Y249568D02*
X166342Y249604D01*
X166309Y249642D01*
X166279Y249683D01*
X166252Y249725D01*
X166227Y249770D01*
X166206Y249816D01*
X166187Y249863D01*
X166172Y249911D01*
X166160Y249960D01*
X166152Y250010D01*
X166147Y250060D01*
X166145Y250111D01*
X166377Y249567D02*
X167697Y248015D01*
X166144Y248015D01*
X173165Y248015D02*
X173165Y250809D01*
X172389Y250809D01*
X172334Y250807D01*
X172279Y250801D01*
X172224Y250791D01*
X172170Y250778D01*
X172118Y250760D01*
X172067Y250739D01*
X172017Y250714D01*
X171969Y250686D01*
X171924Y250654D01*
X171881Y250619D01*
X171840Y250582D01*
X171803Y250541D01*
X171768Y250498D01*
X171736Y250453D01*
X171708Y250405D01*
X171683Y250355D01*
X171662Y250304D01*
X171644Y250252D01*
X171631Y250198D01*
X171621Y250143D01*
X171615Y250088D01*
X171613Y250033D01*
X171615Y249978D01*
X171621Y249923D01*
X171631Y249868D01*
X171644Y249814D01*
X171662Y249762D01*
X171683Y249711D01*
X171708Y249661D01*
X171736Y249613D01*
X171768Y249568D01*
X171803Y249525D01*
X171840Y249484D01*
X171881Y249447D01*
X171924Y249412D01*
X171969Y249380D01*
X172017Y249352D01*
X172067Y249327D01*
X172118Y249306D01*
X172170Y249288D01*
X172224Y249275D01*
X172279Y249265D01*
X172334Y249259D01*
X172389Y249257D01*
X173165Y249257D01*
X172234Y249257D02*
X171613Y248015D01*
X170440Y250188D02*
X169664Y250809D01*
X169664Y248015D01*
X170440Y248015D02*
X168888Y248015D01*
X166144Y250111D02*
X166146Y250161D01*
X166151Y250210D01*
X166160Y250260D01*
X166172Y250308D01*
X166188Y250355D01*
X166207Y250401D01*
X166230Y250446D01*
X166255Y250489D01*
X166283Y250530D01*
X166315Y250569D01*
X166349Y250605D01*
X166385Y250639D01*
X166424Y250671D01*
X166465Y250699D01*
X166508Y250724D01*
X166553Y250747D01*
X166599Y250766D01*
X166646Y250782D01*
X166694Y250794D01*
X166744Y250803D01*
X166793Y250808D01*
X166843Y250810D01*
X166843Y250809D02*
X166899Y250807D01*
X166956Y250802D01*
X167011Y250793D01*
X167066Y250781D01*
X167120Y250765D01*
X167173Y250746D01*
X167225Y250723D01*
X167275Y250698D01*
X167324Y250669D01*
X167371Y250637D01*
X167415Y250603D01*
X167457Y250566D01*
X167497Y250526D01*
X167535Y250483D01*
X167569Y250439D01*
X167601Y250392D01*
X167629Y250343D01*
X167655Y250293D01*
X167677Y250241D01*
X167696Y250188D01*
X166378Y249568D02*
X166342Y249604D01*
X166309Y249642D01*
X166279Y249683D01*
X166252Y249725D01*
X166227Y249770D01*
X166206Y249816D01*
X166187Y249863D01*
X166172Y249911D01*
X166160Y249960D01*
X166152Y250010D01*
X166147Y250060D01*
X166145Y250111D01*
X166377Y249567D02*
X167697Y248015D01*
X166144Y248015D01*
D21*
X0Y19050D02*
X73Y17390D01*
X289Y15742D01*
X649Y14120D01*
X1149Y12535D01*
X1785Y10999D01*
X2552Y9525D01*
X3445Y8123D01*
X4457Y6805D01*
X5580Y5580D01*
X6805Y4457D01*
X8123Y3445D01*
X9525Y2552D01*
X10999Y1785D01*
X12535Y1149D01*
X14120Y649D01*
X15742Y289D01*
X17390Y73D01*
X19050Y0D01*
X361950Y0D01*
X363610Y73D01*
X365258Y289D01*
X366881Y649D01*
X368465Y1149D01*
X370001Y1785D01*
X371475Y2552D01*
X372877Y3445D01*
X374195Y4457D01*
X375420Y5580D01*
X376543Y6805D01*
X377555Y8123D01*
X378448Y9525D01*
X379215Y10999D01*
X379851Y12535D01*
X380351Y14120D01*
X380711Y15742D01*
X380928Y17390D01*
X381000Y19050D01*
X381000Y450850D01*
X380928Y452510D01*
X380711Y454158D01*
X380351Y455781D01*
X379851Y457365D01*
X379215Y458901D01*
X378448Y460375D01*
X377555Y461777D01*
X376543Y463095D01*
X375420Y464320D01*
X374195Y465443D01*
X372877Y466455D01*
X371475Y467348D01*
X370001Y468115D01*
X368465Y468751D01*
X366881Y469251D01*
X365258Y469611D01*
X363610Y469828D01*
X361950Y469900D01*
X19050Y469900D01*
X17390Y469828D01*
X15742Y469611D01*
X14120Y469251D01*
X12535Y468751D01*
X10999Y468115D01*
X9525Y467348D01*
X8123Y466455D01*
X6805Y465443D01*
X5580Y464320D01*
X4457Y463095D01*
X3445Y461777D01*
X2552Y460375D01*
X1785Y458901D01*
X1149Y457365D01*
X649Y455781D01*
X289Y454158D01*
X73Y452510D01*
X0Y450850D01*
X0Y304800D01*
X82550Y304800D01*
X84210Y304728D01*
X85858Y304511D01*
X87481Y304151D01*
X89065Y303651D01*
X90601Y303015D01*
X92075Y302248D01*
X93477Y301355D01*
X94795Y300343D01*
X96020Y299220D01*
X97143Y297995D01*
X98155Y296677D01*
X99048Y295275D01*
X99815Y293801D01*
X100451Y292265D01*
X100951Y290681D01*
X101311Y289058D01*
X101528Y287410D01*
X101600Y285750D01*
X101600Y133350D01*
X101528Y131690D01*
X101311Y130042D01*
X100951Y128420D01*
X100451Y126835D01*
X99815Y125299D01*
X99048Y123825D01*
X98155Y122423D01*
X97143Y121105D01*
X96020Y119880D01*
X94795Y118757D01*
X93477Y117745D01*
X92075Y116852D01*
X90601Y116085D01*
X89065Y115449D01*
X87481Y114949D01*
X85858Y114589D01*
X84210Y114373D01*
X82550Y114300D01*
X19050Y114300D01*
X17390Y114228D01*
X15742Y114011D01*
X14120Y113651D01*
X12535Y113151D01*
X10999Y112515D01*
X9525Y111748D01*
X8123Y110855D01*
X6805Y109843D01*
X5580Y108720D01*
X4457Y107495D01*
X3445Y106177D01*
X2552Y104775D01*
X1785Y103301D01*
X1149Y101765D01*
X649Y100181D01*
X289Y98558D01*
X73Y96910D01*
X0Y95250D01*
X0Y19050D01*
M02*
