G04 EAGLE Gerber RS-274X export*
G75*
%MOMM*%
%FSLAX34Y34*%
%LPD*%
%IN*%
%IPPOS*%
%AMOC8*
5,1,8,0,0,1.08239X$1,22.5*%
G01*
%ADD10C,0.254000*%


D10*
X0Y19050D02*
X73Y17390D01*
X289Y15742D01*
X649Y14120D01*
X1149Y12535D01*
X1785Y10999D01*
X2552Y9525D01*
X3445Y8123D01*
X4457Y6805D01*
X5580Y5580D01*
X6805Y4457D01*
X8123Y3445D01*
X9525Y2552D01*
X10999Y1785D01*
X12535Y1149D01*
X14120Y649D01*
X15742Y289D01*
X17390Y73D01*
X19050Y0D01*
X361950Y0D01*
X363610Y73D01*
X365258Y289D01*
X366881Y649D01*
X368465Y1149D01*
X370001Y1785D01*
X371475Y2552D01*
X372877Y3445D01*
X374195Y4457D01*
X375420Y5580D01*
X376543Y6805D01*
X377555Y8123D01*
X378448Y9525D01*
X379215Y10999D01*
X379851Y12535D01*
X380351Y14120D01*
X380711Y15742D01*
X380928Y17390D01*
X381000Y19050D01*
X381000Y450850D01*
X380928Y452510D01*
X380711Y454158D01*
X380351Y455781D01*
X379851Y457365D01*
X379215Y458901D01*
X378448Y460375D01*
X377555Y461777D01*
X376543Y463095D01*
X375420Y464320D01*
X374195Y465443D01*
X372877Y466455D01*
X371475Y467348D01*
X370001Y468115D01*
X368465Y468751D01*
X366881Y469251D01*
X365258Y469611D01*
X363610Y469828D01*
X361950Y469900D01*
X19050Y469900D01*
X17390Y469828D01*
X15742Y469611D01*
X14120Y469251D01*
X12535Y468751D01*
X10999Y468115D01*
X9525Y467348D01*
X8123Y466455D01*
X6805Y465443D01*
X5580Y464320D01*
X4457Y463095D01*
X3445Y461777D01*
X2552Y460375D01*
X1785Y458901D01*
X1149Y457365D01*
X649Y455781D01*
X289Y454158D01*
X73Y452510D01*
X0Y450850D01*
X0Y304800D01*
X82550Y304800D01*
X84210Y304728D01*
X85858Y304511D01*
X87481Y304151D01*
X89065Y303651D01*
X90601Y303015D01*
X92075Y302248D01*
X93477Y301355D01*
X94795Y300343D01*
X96020Y299220D01*
X97143Y297995D01*
X98155Y296677D01*
X99048Y295275D01*
X99815Y293801D01*
X100451Y292265D01*
X100951Y290681D01*
X101311Y289058D01*
X101528Y287410D01*
X101600Y285750D01*
X101600Y133350D01*
X101528Y131690D01*
X101311Y130042D01*
X100951Y128420D01*
X100451Y126835D01*
X99815Y125299D01*
X99048Y123825D01*
X98155Y122423D01*
X97143Y121105D01*
X96020Y119880D01*
X94795Y118757D01*
X93477Y117745D01*
X92075Y116852D01*
X90601Y116085D01*
X89065Y115449D01*
X87481Y114949D01*
X85858Y114589D01*
X84210Y114373D01*
X82550Y114300D01*
X19050Y114300D01*
X17390Y114228D01*
X15742Y114011D01*
X14120Y113651D01*
X12535Y113151D01*
X10999Y112515D01*
X9525Y111748D01*
X8123Y110855D01*
X6805Y109843D01*
X5580Y108720D01*
X4457Y107495D01*
X3445Y106177D01*
X2552Y104775D01*
X1785Y103301D01*
X1149Y101765D01*
X649Y100181D01*
X289Y98558D01*
X73Y96910D01*
X0Y95250D01*
X0Y19050D01*
X46355Y437628D02*
X46281Y436588D01*
X46132Y435555D01*
X45910Y434536D01*
X45616Y433535D01*
X45252Y432557D01*
X44819Y431608D01*
X44319Y430693D01*
X43755Y429815D01*
X43129Y428980D01*
X42446Y428192D01*
X41708Y427454D01*
X40920Y426771D01*
X40085Y426146D01*
X39207Y425581D01*
X38292Y425082D01*
X37343Y424648D01*
X36365Y424284D01*
X35364Y423990D01*
X34345Y423768D01*
X33312Y423619D01*
X32272Y423545D01*
X31228Y423545D01*
X30188Y423619D01*
X29155Y423768D01*
X28136Y423990D01*
X27135Y424284D01*
X26157Y424648D01*
X25208Y425082D01*
X24293Y425581D01*
X23415Y426146D01*
X22580Y426771D01*
X21792Y427454D01*
X21054Y428192D01*
X20371Y428980D01*
X19746Y429815D01*
X19181Y430693D01*
X18682Y431608D01*
X18248Y432557D01*
X17884Y433535D01*
X17590Y434536D01*
X17368Y435555D01*
X17219Y436588D01*
X17145Y437628D01*
X17145Y438672D01*
X17219Y439712D01*
X17368Y440745D01*
X17590Y441764D01*
X17884Y442765D01*
X18248Y443743D01*
X18682Y444692D01*
X19181Y445607D01*
X19746Y446485D01*
X20371Y447320D01*
X21054Y448108D01*
X21792Y448846D01*
X22580Y449529D01*
X23415Y450155D01*
X24293Y450719D01*
X25208Y451219D01*
X26157Y451652D01*
X27135Y452016D01*
X28136Y452310D01*
X29155Y452532D01*
X30188Y452681D01*
X31228Y452755D01*
X32272Y452755D01*
X33312Y452681D01*
X34345Y452532D01*
X35364Y452310D01*
X36365Y452016D01*
X37343Y451652D01*
X38292Y451219D01*
X39207Y450719D01*
X40085Y450155D01*
X40920Y449529D01*
X41708Y448846D01*
X42446Y448108D01*
X43129Y447320D01*
X43755Y446485D01*
X44319Y445607D01*
X44819Y444692D01*
X45252Y443743D01*
X45616Y442765D01*
X45910Y441764D01*
X46132Y440745D01*
X46281Y439712D01*
X46355Y438672D01*
X46355Y437628D01*
X363855Y437628D02*
X363781Y436588D01*
X363632Y435555D01*
X363410Y434536D01*
X363116Y433535D01*
X362752Y432557D01*
X362319Y431608D01*
X361819Y430693D01*
X361255Y429815D01*
X360629Y428980D01*
X359946Y428192D01*
X359208Y427454D01*
X358420Y426771D01*
X357585Y426146D01*
X356707Y425581D01*
X355792Y425082D01*
X354843Y424648D01*
X353865Y424284D01*
X352864Y423990D01*
X351845Y423768D01*
X350812Y423619D01*
X349772Y423545D01*
X348728Y423545D01*
X347688Y423619D01*
X346655Y423768D01*
X345636Y423990D01*
X344635Y424284D01*
X343657Y424648D01*
X342708Y425082D01*
X341793Y425581D01*
X340915Y426146D01*
X340080Y426771D01*
X339292Y427454D01*
X338554Y428192D01*
X337871Y428980D01*
X337246Y429815D01*
X336681Y430693D01*
X336182Y431608D01*
X335748Y432557D01*
X335384Y433535D01*
X335090Y434536D01*
X334868Y435555D01*
X334719Y436588D01*
X334645Y437628D01*
X334645Y438672D01*
X334719Y439712D01*
X334868Y440745D01*
X335090Y441764D01*
X335384Y442765D01*
X335748Y443743D01*
X336182Y444692D01*
X336681Y445607D01*
X337246Y446485D01*
X337871Y447320D01*
X338554Y448108D01*
X339292Y448846D01*
X340080Y449529D01*
X340915Y450155D01*
X341793Y450719D01*
X342708Y451219D01*
X343657Y451652D01*
X344635Y452016D01*
X345636Y452310D01*
X346655Y452532D01*
X347688Y452681D01*
X348728Y452755D01*
X349772Y452755D01*
X350812Y452681D01*
X351845Y452532D01*
X352864Y452310D01*
X353865Y452016D01*
X354843Y451652D01*
X355792Y451219D01*
X356707Y450719D01*
X357585Y450155D01*
X358420Y449529D01*
X359208Y448846D01*
X359946Y448108D01*
X360629Y447320D01*
X361255Y446485D01*
X361819Y445607D01*
X362319Y444692D01*
X362752Y443743D01*
X363116Y442765D01*
X363410Y441764D01*
X363632Y440745D01*
X363781Y439712D01*
X363855Y438672D01*
X363855Y437628D01*
X46355Y31228D02*
X46281Y30188D01*
X46132Y29155D01*
X45910Y28136D01*
X45616Y27135D01*
X45252Y26157D01*
X44819Y25208D01*
X44319Y24293D01*
X43755Y23415D01*
X43129Y22580D01*
X42446Y21792D01*
X41708Y21054D01*
X40920Y20371D01*
X40085Y19746D01*
X39207Y19181D01*
X38292Y18682D01*
X37343Y18248D01*
X36365Y17884D01*
X35364Y17590D01*
X34345Y17368D01*
X33312Y17219D01*
X32272Y17145D01*
X31228Y17145D01*
X30188Y17219D01*
X29155Y17368D01*
X28136Y17590D01*
X27135Y17884D01*
X26157Y18248D01*
X25208Y18682D01*
X24293Y19181D01*
X23415Y19746D01*
X22580Y20371D01*
X21792Y21054D01*
X21054Y21792D01*
X20371Y22580D01*
X19746Y23415D01*
X19181Y24293D01*
X18682Y25208D01*
X18248Y26157D01*
X17884Y27135D01*
X17590Y28136D01*
X17368Y29155D01*
X17219Y30188D01*
X17145Y31228D01*
X17145Y32272D01*
X17219Y33312D01*
X17368Y34345D01*
X17590Y35364D01*
X17884Y36365D01*
X18248Y37343D01*
X18682Y38292D01*
X19181Y39207D01*
X19746Y40085D01*
X20371Y40920D01*
X21054Y41708D01*
X21792Y42446D01*
X22580Y43129D01*
X23415Y43755D01*
X24293Y44319D01*
X25208Y44819D01*
X26157Y45252D01*
X27135Y45616D01*
X28136Y45910D01*
X29155Y46132D01*
X30188Y46281D01*
X31228Y46355D01*
X32272Y46355D01*
X33312Y46281D01*
X34345Y46132D01*
X35364Y45910D01*
X36365Y45616D01*
X37343Y45252D01*
X38292Y44819D01*
X39207Y44319D01*
X40085Y43755D01*
X40920Y43129D01*
X41708Y42446D01*
X42446Y41708D01*
X43129Y40920D01*
X43755Y40085D01*
X44319Y39207D01*
X44819Y38292D01*
X45252Y37343D01*
X45616Y36365D01*
X45910Y35364D01*
X46132Y34345D01*
X46281Y33312D01*
X46355Y32272D01*
X46355Y31228D01*
X363855Y31228D02*
X363781Y30188D01*
X363632Y29155D01*
X363410Y28136D01*
X363116Y27135D01*
X362752Y26157D01*
X362319Y25208D01*
X361819Y24293D01*
X361255Y23415D01*
X360629Y22580D01*
X359946Y21792D01*
X359208Y21054D01*
X358420Y20371D01*
X357585Y19746D01*
X356707Y19181D01*
X355792Y18682D01*
X354843Y18248D01*
X353865Y17884D01*
X352864Y17590D01*
X351845Y17368D01*
X350812Y17219D01*
X349772Y17145D01*
X348728Y17145D01*
X347688Y17219D01*
X346655Y17368D01*
X345636Y17590D01*
X344635Y17884D01*
X343657Y18248D01*
X342708Y18682D01*
X341793Y19181D01*
X340915Y19746D01*
X340080Y20371D01*
X339292Y21054D01*
X338554Y21792D01*
X337871Y22580D01*
X337246Y23415D01*
X336681Y24293D01*
X336182Y25208D01*
X335748Y26157D01*
X335384Y27135D01*
X335090Y28136D01*
X334868Y29155D01*
X334719Y30188D01*
X334645Y31228D01*
X334645Y32272D01*
X334719Y33312D01*
X334868Y34345D01*
X335090Y35364D01*
X335384Y36365D01*
X335748Y37343D01*
X336182Y38292D01*
X336681Y39207D01*
X337246Y40085D01*
X337871Y40920D01*
X338554Y41708D01*
X339292Y42446D01*
X340080Y43129D01*
X340915Y43755D01*
X341793Y44319D01*
X342708Y44819D01*
X343657Y45252D01*
X344635Y45616D01*
X345636Y45910D01*
X346655Y46132D01*
X347688Y46281D01*
X348728Y46355D01*
X349772Y46355D01*
X350812Y46281D01*
X351845Y46132D01*
X352864Y45910D01*
X353865Y45616D01*
X354843Y45252D01*
X355792Y44819D01*
X356707Y44319D01*
X357585Y43755D01*
X358420Y43129D01*
X359208Y42446D01*
X359946Y41708D01*
X360629Y40920D01*
X361255Y40085D01*
X361819Y39207D01*
X362319Y38292D01*
X362752Y37343D01*
X363116Y36365D01*
X363410Y35364D01*
X363632Y34345D01*
X363781Y33312D01*
X363855Y32272D01*
X363855Y31228D01*
X60328Y358023D02*
X60263Y357283D01*
X60134Y356553D01*
X59942Y355836D01*
X59688Y355138D01*
X59375Y354465D01*
X59004Y353823D01*
X58578Y353215D01*
X58101Y352646D01*
X57576Y352121D01*
X57007Y351644D01*
X56399Y351218D01*
X55757Y350847D01*
X55084Y350534D01*
X54386Y350280D01*
X53670Y350088D01*
X52939Y349959D01*
X52199Y349894D01*
X51457Y349894D01*
X50717Y349959D01*
X49987Y350088D01*
X49270Y350280D01*
X48572Y350534D01*
X47899Y350847D01*
X47257Y351218D01*
X46649Y351644D01*
X46080Y352121D01*
X45555Y352646D01*
X45078Y353215D01*
X44652Y353823D01*
X44281Y354465D01*
X43968Y355138D01*
X43714Y355836D01*
X43522Y356553D01*
X43393Y357283D01*
X43328Y358023D01*
X43328Y358765D01*
X43393Y359505D01*
X43522Y360236D01*
X43714Y360952D01*
X43968Y361650D01*
X44281Y362323D01*
X44652Y362965D01*
X45078Y363573D01*
X45555Y364142D01*
X46080Y364667D01*
X46649Y365144D01*
X47257Y365570D01*
X47899Y365941D01*
X48572Y366254D01*
X49270Y366508D01*
X49987Y366700D01*
X50717Y366829D01*
X51457Y366894D01*
X52199Y366894D01*
X52939Y366829D01*
X53670Y366700D01*
X54386Y366508D01*
X55084Y366254D01*
X55757Y365941D01*
X56399Y365570D01*
X57007Y365144D01*
X57576Y364667D01*
X58101Y364142D01*
X58578Y363573D01*
X59004Y362965D01*
X59375Y362323D01*
X59688Y361650D01*
X59942Y360952D01*
X60134Y360236D01*
X60263Y359505D01*
X60328Y358765D01*
X60328Y358023D01*
X130328Y358023D02*
X130263Y357283D01*
X130134Y356553D01*
X129942Y355836D01*
X129688Y355138D01*
X129375Y354465D01*
X129004Y353823D01*
X128578Y353215D01*
X128101Y352646D01*
X127576Y352121D01*
X127007Y351644D01*
X126399Y351218D01*
X125757Y350847D01*
X125084Y350534D01*
X124386Y350280D01*
X123670Y350088D01*
X122939Y349959D01*
X122199Y349894D01*
X121457Y349894D01*
X120717Y349959D01*
X119987Y350088D01*
X119270Y350280D01*
X118572Y350534D01*
X117899Y350847D01*
X117257Y351218D01*
X116649Y351644D01*
X116080Y352121D01*
X115555Y352646D01*
X115078Y353215D01*
X114652Y353823D01*
X114281Y354465D01*
X113968Y355138D01*
X113714Y355836D01*
X113522Y356553D01*
X113393Y357283D01*
X113328Y358023D01*
X113328Y358765D01*
X113393Y359505D01*
X113522Y360236D01*
X113714Y360952D01*
X113968Y361650D01*
X114281Y362323D01*
X114652Y362965D01*
X115078Y363573D01*
X115555Y364142D01*
X116080Y364667D01*
X116649Y365144D01*
X117257Y365570D01*
X117899Y365941D01*
X118572Y366254D01*
X119270Y366508D01*
X119987Y366700D01*
X120717Y366829D01*
X121457Y366894D01*
X122199Y366894D01*
X122939Y366829D01*
X123670Y366700D01*
X124386Y366508D01*
X125084Y366254D01*
X125757Y365941D01*
X126399Y365570D01*
X127007Y365144D01*
X127576Y364667D01*
X128101Y364142D01*
X128578Y363573D01*
X129004Y362965D01*
X129375Y362323D01*
X129688Y361650D01*
X129942Y360952D01*
X130134Y360236D01*
X130263Y359505D01*
X130328Y358765D01*
X130328Y358023D01*
M02*
