G04 EAGLE Gerber RS-274X export*
G75*
%MOMM*%
%FSLAX34Y34*%
%LPD*%
%INSilkscreen Bottom*%
%IPPOS*%
%AMOC8*
5,1,8,0,0,1.08239X$1,22.5*%
G01*
%ADD10C,0.152400*%
%ADD11C,0.076200*%
%ADD12C,0.100000*%
%ADD13C,0.406400*%
%ADD14C,0.127000*%
%ADD15C,0.101600*%
%ADD16C,0.203200*%
%ADD17C,0.050800*%
%ADD18C,0.150000*%
%ADD19C,0.025400*%
%ADD20C,0.254000*%

G36*
X187327Y247398D02*
X187327Y247398D01*
X187329Y247397D01*
X187372Y247417D01*
X187416Y247435D01*
X187416Y247437D01*
X187418Y247438D01*
X187451Y247523D01*
X187451Y250063D01*
X187450Y250065D01*
X187451Y250067D01*
X187431Y250110D01*
X187413Y250154D01*
X187411Y250154D01*
X187410Y250156D01*
X187325Y250189D01*
X183515Y250189D01*
X183513Y250188D01*
X183511Y250189D01*
X183468Y250169D01*
X183424Y250151D01*
X183424Y250149D01*
X183422Y250148D01*
X183389Y250063D01*
X183389Y247523D01*
X183390Y247521D01*
X183389Y247519D01*
X183409Y247476D01*
X183427Y247432D01*
X183429Y247432D01*
X183430Y247430D01*
X183515Y247397D01*
X187325Y247397D01*
X187327Y247398D01*
G37*
G36*
X192407Y192280D02*
X192407Y192280D01*
X192409Y192279D01*
X192452Y192299D01*
X192496Y192317D01*
X192496Y192319D01*
X192498Y192320D01*
X192531Y192405D01*
X192531Y194945D01*
X192530Y194947D01*
X192531Y194949D01*
X192511Y194992D01*
X192493Y195036D01*
X192491Y195036D01*
X192490Y195038D01*
X192405Y195071D01*
X188595Y195071D01*
X188593Y195070D01*
X188591Y195071D01*
X188548Y195051D01*
X188504Y195033D01*
X188504Y195031D01*
X188502Y195030D01*
X188469Y194945D01*
X188469Y192405D01*
X188470Y192403D01*
X188469Y192401D01*
X188489Y192358D01*
X188507Y192314D01*
X188509Y192314D01*
X188510Y192312D01*
X188595Y192279D01*
X192405Y192279D01*
X192407Y192280D01*
G37*
D10*
X312589Y380069D02*
X312591Y379998D01*
X312596Y379927D01*
X312606Y379857D01*
X312619Y379787D01*
X312635Y379718D01*
X312655Y379650D01*
X312679Y379583D01*
X312706Y379518D01*
X312737Y379454D01*
X312771Y379392D01*
X312808Y379331D01*
X312848Y379273D01*
X312891Y379216D01*
X312937Y379162D01*
X312986Y379111D01*
X313037Y379062D01*
X313091Y379016D01*
X313148Y378973D01*
X313206Y378933D01*
X313267Y378896D01*
X313329Y378862D01*
X313393Y378831D01*
X313458Y378804D01*
X313525Y378780D01*
X313593Y378760D01*
X313662Y378744D01*
X313732Y378731D01*
X313802Y378721D01*
X313873Y378716D01*
X313944Y378714D01*
X314047Y378716D01*
X314149Y378721D01*
X314252Y378731D01*
X314353Y378743D01*
X314455Y378760D01*
X314556Y378780D01*
X314655Y378804D01*
X314754Y378831D01*
X314852Y378862D01*
X314949Y378896D01*
X315045Y378934D01*
X315139Y378975D01*
X315231Y379020D01*
X315322Y379068D01*
X315411Y379119D01*
X315499Y379173D01*
X315584Y379230D01*
X315667Y379291D01*
X315748Y379354D01*
X315826Y379420D01*
X315903Y379489D01*
X315976Y379561D01*
X315807Y383455D02*
X315805Y383526D01*
X315800Y383597D01*
X315790Y383667D01*
X315777Y383737D01*
X315761Y383806D01*
X315741Y383874D01*
X315717Y383941D01*
X315690Y384006D01*
X315659Y384070D01*
X315625Y384133D01*
X315588Y384193D01*
X315548Y384251D01*
X315505Y384308D01*
X315459Y384362D01*
X315410Y384413D01*
X315359Y384462D01*
X315305Y384508D01*
X315248Y384551D01*
X315190Y384591D01*
X315130Y384628D01*
X315067Y384662D01*
X315003Y384693D01*
X314938Y384720D01*
X314871Y384744D01*
X314803Y384764D01*
X314734Y384780D01*
X314664Y384793D01*
X314594Y384803D01*
X314523Y384808D01*
X314452Y384810D01*
X314356Y384808D01*
X314260Y384803D01*
X314164Y384794D01*
X314069Y384781D01*
X313974Y384765D01*
X313880Y384745D01*
X313787Y384721D01*
X313695Y384694D01*
X313603Y384664D01*
X313513Y384630D01*
X313425Y384593D01*
X313338Y384552D01*
X313252Y384509D01*
X313168Y384462D01*
X313086Y384411D01*
X313006Y384358D01*
X312928Y384302D01*
X315130Y382270D02*
X315190Y382307D01*
X315249Y382348D01*
X315305Y382392D01*
X315359Y382439D01*
X315410Y382489D01*
X315459Y382541D01*
X315505Y382595D01*
X315549Y382652D01*
X315589Y382711D01*
X315626Y382772D01*
X315660Y382835D01*
X315690Y382900D01*
X315717Y382966D01*
X315741Y383033D01*
X315761Y383102D01*
X315777Y383171D01*
X315790Y383242D01*
X315800Y383312D01*
X315805Y383384D01*
X315807Y383455D01*
X313266Y381254D02*
X313206Y381217D01*
X313147Y381176D01*
X313091Y381132D01*
X313037Y381085D01*
X312986Y381035D01*
X312937Y380983D01*
X312891Y380929D01*
X312847Y380872D01*
X312807Y380813D01*
X312770Y380752D01*
X312736Y380689D01*
X312706Y380624D01*
X312679Y380558D01*
X312655Y380491D01*
X312635Y380422D01*
X312619Y380353D01*
X312606Y380282D01*
X312596Y380212D01*
X312591Y380140D01*
X312589Y380069D01*
X313267Y381254D02*
X315129Y382270D01*
X309685Y378714D02*
X307653Y384810D01*
X305621Y378714D01*
X306129Y380238D02*
X309177Y380238D01*
X302142Y378714D02*
X302142Y384810D01*
X300110Y381423D01*
X298078Y384810D01*
X298078Y378714D01*
X294031Y378714D02*
X294031Y384810D01*
X292337Y384810D01*
X292256Y384808D01*
X292176Y384802D01*
X292096Y384793D01*
X292017Y384779D01*
X291938Y384762D01*
X291860Y384741D01*
X291783Y384717D01*
X291708Y384689D01*
X291634Y384657D01*
X291561Y384622D01*
X291491Y384583D01*
X291422Y384541D01*
X291355Y384496D01*
X291290Y384448D01*
X291228Y384396D01*
X291169Y384342D01*
X291112Y384285D01*
X291058Y384226D01*
X291006Y384164D01*
X290958Y384099D01*
X290913Y384032D01*
X290871Y383964D01*
X290832Y383893D01*
X290797Y383820D01*
X290765Y383746D01*
X290737Y383671D01*
X290713Y383594D01*
X290692Y383516D01*
X290675Y383437D01*
X290661Y383358D01*
X290652Y383278D01*
X290646Y383198D01*
X290644Y383117D01*
X290644Y380407D01*
X290646Y380326D01*
X290652Y380246D01*
X290661Y380166D01*
X290675Y380087D01*
X290692Y380008D01*
X290713Y379930D01*
X290737Y379853D01*
X290765Y379778D01*
X290797Y379704D01*
X290832Y379631D01*
X290871Y379560D01*
X290913Y379492D01*
X290958Y379425D01*
X291006Y379360D01*
X291058Y379298D01*
X291112Y379239D01*
X291169Y379182D01*
X291228Y379128D01*
X291290Y379076D01*
X291355Y379028D01*
X291422Y378983D01*
X291491Y378941D01*
X291561Y378902D01*
X291634Y378867D01*
X291708Y378835D01*
X291783Y378807D01*
X291860Y378783D01*
X291938Y378762D01*
X292017Y378745D01*
X292096Y378731D01*
X292176Y378722D01*
X292256Y378716D01*
X292337Y378714D01*
X294031Y378714D01*
X285081Y384810D02*
X285004Y384808D01*
X284927Y384802D01*
X284850Y384792D01*
X284774Y384779D01*
X284699Y384761D01*
X284625Y384740D01*
X284552Y384715D01*
X284480Y384686D01*
X284410Y384654D01*
X284341Y384619D01*
X284275Y384579D01*
X284210Y384537D01*
X284148Y384491D01*
X284088Y384442D01*
X284031Y384391D01*
X283976Y384336D01*
X283925Y384279D01*
X283876Y384219D01*
X283830Y384157D01*
X283788Y384092D01*
X283748Y384026D01*
X283713Y383957D01*
X283681Y383887D01*
X283652Y383815D01*
X283627Y383742D01*
X283606Y383668D01*
X283588Y383593D01*
X283575Y383517D01*
X283565Y383440D01*
X283559Y383363D01*
X283557Y383286D01*
X285081Y384810D02*
X285166Y384808D01*
X285251Y384803D01*
X285335Y384793D01*
X285419Y384781D01*
X285502Y384764D01*
X285585Y384744D01*
X285666Y384720D01*
X285747Y384693D01*
X285826Y384663D01*
X285904Y384629D01*
X285980Y384591D01*
X286055Y384551D01*
X286127Y384507D01*
X286198Y384460D01*
X286267Y384410D01*
X286333Y384357D01*
X286397Y384302D01*
X286459Y384243D01*
X286518Y384182D01*
X286574Y384119D01*
X286628Y384053D01*
X286678Y383984D01*
X286726Y383914D01*
X286770Y383842D01*
X286812Y383768D01*
X286850Y383692D01*
X286885Y383614D01*
X286916Y383535D01*
X286944Y383455D01*
X284065Y382101D02*
X284010Y382156D01*
X283957Y382213D01*
X283908Y382273D01*
X283861Y382336D01*
X283817Y382400D01*
X283777Y382467D01*
X283739Y382535D01*
X283705Y382606D01*
X283674Y382677D01*
X283647Y382750D01*
X283623Y382824D01*
X283603Y382900D01*
X283587Y382976D01*
X283574Y383053D01*
X283564Y383130D01*
X283559Y383208D01*
X283557Y383286D01*
X284065Y382101D02*
X286944Y378714D01*
X283557Y378714D01*
X280086Y383455D02*
X278393Y384810D01*
X278393Y378714D01*
X280086Y378714D02*
X276699Y378714D01*
X216916Y258318D02*
X218948Y252222D01*
X214884Y252222D02*
X216916Y258318D01*
X215392Y253746D02*
X218440Y253746D01*
X210515Y252222D02*
X210515Y258318D01*
X208822Y258318D02*
X212209Y258318D01*
X204572Y258318D02*
X204572Y252222D01*
X206265Y258318D02*
X202878Y258318D01*
X199542Y258318D02*
X199542Y252222D01*
X198865Y252222D02*
X200220Y252222D01*
X200220Y258318D02*
X198865Y258318D01*
X195521Y258318D02*
X195521Y252222D01*
X192134Y252222D02*
X195521Y258318D01*
X192134Y258318D02*
X192134Y252222D01*
X186741Y255439D02*
X188773Y258318D01*
X186741Y255439D02*
X184709Y258318D01*
X186741Y255439D02*
X186741Y252222D01*
X181576Y253915D02*
X181574Y253996D01*
X181568Y254076D01*
X181559Y254156D01*
X181545Y254235D01*
X181528Y254314D01*
X181507Y254392D01*
X181483Y254469D01*
X181455Y254544D01*
X181423Y254618D01*
X181388Y254691D01*
X181349Y254762D01*
X181307Y254830D01*
X181262Y254897D01*
X181214Y254962D01*
X181162Y255024D01*
X181108Y255083D01*
X181051Y255140D01*
X180992Y255194D01*
X180930Y255246D01*
X180865Y255294D01*
X180798Y255339D01*
X180730Y255381D01*
X180659Y255420D01*
X180586Y255455D01*
X180512Y255487D01*
X180437Y255515D01*
X180360Y255539D01*
X180282Y255560D01*
X180203Y255577D01*
X180124Y255591D01*
X180044Y255600D01*
X179964Y255606D01*
X179883Y255608D01*
X179802Y255606D01*
X179722Y255600D01*
X179642Y255591D01*
X179563Y255577D01*
X179484Y255560D01*
X179406Y255539D01*
X179329Y255515D01*
X179254Y255487D01*
X179180Y255455D01*
X179107Y255420D01*
X179037Y255381D01*
X178968Y255339D01*
X178901Y255294D01*
X178836Y255246D01*
X178774Y255194D01*
X178715Y255140D01*
X178658Y255083D01*
X178604Y255024D01*
X178552Y254962D01*
X178504Y254897D01*
X178459Y254830D01*
X178417Y254762D01*
X178378Y254691D01*
X178343Y254618D01*
X178311Y254544D01*
X178283Y254469D01*
X178259Y254392D01*
X178238Y254314D01*
X178221Y254235D01*
X178207Y254156D01*
X178198Y254076D01*
X178192Y253996D01*
X178190Y253915D01*
X178192Y253834D01*
X178198Y253754D01*
X178207Y253674D01*
X178221Y253595D01*
X178238Y253516D01*
X178259Y253438D01*
X178283Y253361D01*
X178311Y253286D01*
X178343Y253212D01*
X178378Y253139D01*
X178417Y253069D01*
X178459Y253000D01*
X178504Y252933D01*
X178552Y252868D01*
X178604Y252806D01*
X178658Y252747D01*
X178715Y252690D01*
X178774Y252636D01*
X178836Y252584D01*
X178901Y252536D01*
X178968Y252491D01*
X179037Y252449D01*
X179107Y252410D01*
X179180Y252375D01*
X179254Y252343D01*
X179329Y252315D01*
X179406Y252291D01*
X179484Y252270D01*
X179563Y252253D01*
X179642Y252239D01*
X179722Y252230D01*
X179802Y252224D01*
X179883Y252222D01*
X179964Y252224D01*
X180044Y252230D01*
X180124Y252239D01*
X180203Y252253D01*
X180282Y252270D01*
X180360Y252291D01*
X180437Y252315D01*
X180512Y252343D01*
X180586Y252375D01*
X180659Y252410D01*
X180730Y252449D01*
X180798Y252491D01*
X180865Y252536D01*
X180930Y252584D01*
X180992Y252636D01*
X181051Y252690D01*
X181108Y252747D01*
X181162Y252806D01*
X181214Y252868D01*
X181262Y252933D01*
X181307Y253000D01*
X181349Y253069D01*
X181388Y253139D01*
X181423Y253212D01*
X181455Y253286D01*
X181483Y253361D01*
X181507Y253438D01*
X181528Y253516D01*
X181545Y253595D01*
X181559Y253674D01*
X181568Y253754D01*
X181574Y253834D01*
X181576Y253915D01*
X181238Y256963D02*
X181236Y257035D01*
X181230Y257107D01*
X181221Y257179D01*
X181207Y257249D01*
X181190Y257320D01*
X181169Y257389D01*
X181145Y257456D01*
X181117Y257523D01*
X181085Y257588D01*
X181050Y257651D01*
X181012Y257712D01*
X180971Y257771D01*
X180926Y257828D01*
X180879Y257882D01*
X180828Y257934D01*
X180775Y257983D01*
X180720Y258029D01*
X180662Y258072D01*
X180602Y258112D01*
X180540Y258148D01*
X180476Y258182D01*
X180410Y258211D01*
X180343Y258238D01*
X180274Y258260D01*
X180205Y258279D01*
X180134Y258295D01*
X180063Y258306D01*
X179991Y258314D01*
X179919Y258318D01*
X179847Y258318D01*
X179775Y258314D01*
X179703Y258306D01*
X179632Y258295D01*
X179561Y258279D01*
X179492Y258260D01*
X179423Y258238D01*
X179356Y258211D01*
X179290Y258182D01*
X179226Y258148D01*
X179164Y258112D01*
X179104Y258072D01*
X179046Y258029D01*
X178991Y257983D01*
X178938Y257934D01*
X178887Y257882D01*
X178840Y257828D01*
X178795Y257771D01*
X178754Y257712D01*
X178716Y257651D01*
X178681Y257588D01*
X178649Y257523D01*
X178621Y257456D01*
X178597Y257389D01*
X178576Y257320D01*
X178559Y257249D01*
X178545Y257179D01*
X178536Y257107D01*
X178530Y257035D01*
X178528Y256963D01*
X178530Y256891D01*
X178536Y256819D01*
X178545Y256747D01*
X178559Y256677D01*
X178576Y256606D01*
X178597Y256537D01*
X178621Y256470D01*
X178649Y256403D01*
X178681Y256338D01*
X178716Y256275D01*
X178754Y256214D01*
X178795Y256155D01*
X178840Y256098D01*
X178887Y256044D01*
X178938Y255992D01*
X178991Y255943D01*
X179046Y255897D01*
X179104Y255854D01*
X179164Y255814D01*
X179226Y255778D01*
X179290Y255744D01*
X179356Y255715D01*
X179423Y255688D01*
X179492Y255666D01*
X179561Y255647D01*
X179632Y255631D01*
X179703Y255620D01*
X179775Y255612D01*
X179847Y255608D01*
X179919Y255608D01*
X179991Y255612D01*
X180063Y255620D01*
X180134Y255631D01*
X180205Y255647D01*
X180274Y255666D01*
X180343Y255688D01*
X180410Y255715D01*
X180476Y255744D01*
X180540Y255778D01*
X180602Y255814D01*
X180662Y255854D01*
X180720Y255897D01*
X180775Y255943D01*
X180828Y255992D01*
X180879Y256044D01*
X180926Y256098D01*
X180971Y256155D01*
X181012Y256214D01*
X181050Y256275D01*
X181085Y256338D01*
X181117Y256403D01*
X181145Y256470D01*
X181169Y256537D01*
X181190Y256606D01*
X181207Y256677D01*
X181221Y256747D01*
X181230Y256819D01*
X181236Y256891D01*
X181238Y256963D01*
X174718Y256963D02*
X173025Y258318D01*
X173025Y252222D01*
X174718Y252222D02*
X171332Y252222D01*
X167860Y257641D02*
X167860Y258318D01*
X164474Y258318D01*
X166167Y252222D01*
X197510Y459486D02*
X198865Y459486D01*
X198936Y459488D01*
X199007Y459493D01*
X199077Y459503D01*
X199147Y459516D01*
X199216Y459532D01*
X199284Y459552D01*
X199351Y459576D01*
X199416Y459603D01*
X199480Y459634D01*
X199543Y459668D01*
X199603Y459705D01*
X199661Y459745D01*
X199718Y459788D01*
X199772Y459834D01*
X199823Y459883D01*
X199872Y459934D01*
X199918Y459988D01*
X199961Y460045D01*
X200001Y460103D01*
X200038Y460164D01*
X200072Y460226D01*
X200103Y460290D01*
X200130Y460355D01*
X200154Y460422D01*
X200174Y460490D01*
X200190Y460559D01*
X200203Y460629D01*
X200213Y460699D01*
X200218Y460770D01*
X200220Y460841D01*
X200220Y464227D01*
X200218Y464300D01*
X200212Y464373D01*
X200202Y464446D01*
X200188Y464518D01*
X200171Y464589D01*
X200149Y464660D01*
X200124Y464729D01*
X200095Y464796D01*
X200062Y464862D01*
X200026Y464926D01*
X199987Y464987D01*
X199944Y465047D01*
X199898Y465104D01*
X199849Y465159D01*
X199797Y465211D01*
X199742Y465260D01*
X199685Y465306D01*
X199625Y465348D01*
X199564Y465388D01*
X199500Y465424D01*
X199434Y465457D01*
X199367Y465486D01*
X199298Y465511D01*
X199228Y465533D01*
X199156Y465550D01*
X199084Y465564D01*
X199012Y465574D01*
X198938Y465580D01*
X198865Y465582D01*
X197510Y465582D01*
X194588Y462195D02*
X194588Y460841D01*
X194589Y462195D02*
X194587Y462267D01*
X194581Y462339D01*
X194572Y462411D01*
X194558Y462481D01*
X194541Y462552D01*
X194520Y462621D01*
X194496Y462688D01*
X194468Y462755D01*
X194436Y462820D01*
X194401Y462883D01*
X194363Y462944D01*
X194322Y463003D01*
X194277Y463060D01*
X194230Y463114D01*
X194179Y463166D01*
X194126Y463215D01*
X194071Y463261D01*
X194013Y463304D01*
X193953Y463344D01*
X193891Y463380D01*
X193827Y463414D01*
X193761Y463443D01*
X193694Y463470D01*
X193625Y463492D01*
X193556Y463511D01*
X193485Y463527D01*
X193414Y463538D01*
X193342Y463546D01*
X193270Y463550D01*
X193198Y463550D01*
X193126Y463546D01*
X193054Y463538D01*
X192983Y463527D01*
X192912Y463511D01*
X192843Y463492D01*
X192774Y463470D01*
X192707Y463443D01*
X192641Y463414D01*
X192577Y463380D01*
X192515Y463344D01*
X192455Y463304D01*
X192397Y463261D01*
X192342Y463215D01*
X192289Y463166D01*
X192238Y463114D01*
X192191Y463060D01*
X192146Y463003D01*
X192105Y462944D01*
X192067Y462883D01*
X192032Y462820D01*
X192000Y462755D01*
X191972Y462688D01*
X191948Y462621D01*
X191927Y462552D01*
X191910Y462481D01*
X191896Y462411D01*
X191887Y462339D01*
X191881Y462267D01*
X191879Y462195D01*
X191879Y460841D01*
X191881Y460769D01*
X191887Y460697D01*
X191896Y460625D01*
X191910Y460555D01*
X191927Y460484D01*
X191948Y460415D01*
X191972Y460348D01*
X192000Y460281D01*
X192032Y460216D01*
X192067Y460153D01*
X192105Y460092D01*
X192146Y460033D01*
X192191Y459976D01*
X192238Y459922D01*
X192289Y459870D01*
X192342Y459821D01*
X192397Y459775D01*
X192455Y459732D01*
X192515Y459692D01*
X192577Y459656D01*
X192641Y459622D01*
X192707Y459593D01*
X192774Y459566D01*
X192843Y459544D01*
X192912Y459525D01*
X192983Y459509D01*
X193054Y459498D01*
X193126Y459490D01*
X193198Y459486D01*
X193270Y459486D01*
X193342Y459490D01*
X193414Y459498D01*
X193485Y459509D01*
X193556Y459525D01*
X193625Y459544D01*
X193694Y459566D01*
X193761Y459593D01*
X193827Y459622D01*
X193891Y459656D01*
X193953Y459692D01*
X194013Y459732D01*
X194071Y459775D01*
X194126Y459821D01*
X194179Y459870D01*
X194230Y459922D01*
X194277Y459976D01*
X194322Y460033D01*
X194363Y460092D01*
X194401Y460153D01*
X194436Y460216D01*
X194468Y460281D01*
X194496Y460348D01*
X194520Y460415D01*
X194541Y460484D01*
X194558Y460555D01*
X194572Y460625D01*
X194581Y460697D01*
X194587Y460769D01*
X194589Y460841D01*
X188179Y459486D02*
X188179Y463550D01*
X185131Y463550D01*
X185070Y463548D01*
X185009Y463543D01*
X184948Y463533D01*
X184888Y463520D01*
X184829Y463504D01*
X184771Y463484D01*
X184714Y463460D01*
X184659Y463434D01*
X184605Y463403D01*
X184554Y463370D01*
X184504Y463334D01*
X184457Y463294D01*
X184413Y463252D01*
X184371Y463208D01*
X184331Y463161D01*
X184295Y463111D01*
X184262Y463060D01*
X184231Y463006D01*
X184205Y462951D01*
X184181Y462894D01*
X184161Y462836D01*
X184145Y462777D01*
X184132Y462717D01*
X184122Y462656D01*
X184117Y462595D01*
X184115Y462534D01*
X184115Y459486D01*
X186147Y459486D02*
X186147Y463550D01*
X179950Y463550D02*
X179950Y459486D01*
X179950Y463550D02*
X176902Y463550D01*
X176841Y463548D01*
X176780Y463543D01*
X176719Y463533D01*
X176659Y463520D01*
X176600Y463504D01*
X176542Y463484D01*
X176485Y463460D01*
X176430Y463434D01*
X176376Y463403D01*
X176325Y463370D01*
X176275Y463334D01*
X176228Y463294D01*
X176184Y463252D01*
X176142Y463208D01*
X176102Y463161D01*
X176066Y463111D01*
X176033Y463060D01*
X176002Y463006D01*
X175976Y462951D01*
X175952Y462894D01*
X175932Y462836D01*
X175916Y462777D01*
X175903Y462717D01*
X175893Y462656D01*
X175888Y462595D01*
X175886Y462534D01*
X175886Y459486D01*
X177918Y459486D02*
X177918Y463550D01*
X172186Y462195D02*
X172186Y460841D01*
X172186Y462195D02*
X172184Y462267D01*
X172178Y462339D01*
X172169Y462411D01*
X172155Y462481D01*
X172138Y462552D01*
X172117Y462621D01*
X172093Y462688D01*
X172065Y462755D01*
X172033Y462820D01*
X171998Y462883D01*
X171960Y462944D01*
X171919Y463003D01*
X171874Y463060D01*
X171827Y463114D01*
X171776Y463166D01*
X171723Y463215D01*
X171668Y463261D01*
X171610Y463304D01*
X171550Y463344D01*
X171488Y463380D01*
X171424Y463414D01*
X171358Y463443D01*
X171291Y463470D01*
X171222Y463492D01*
X171153Y463511D01*
X171082Y463527D01*
X171011Y463538D01*
X170939Y463546D01*
X170867Y463550D01*
X170795Y463550D01*
X170723Y463546D01*
X170651Y463538D01*
X170580Y463527D01*
X170509Y463511D01*
X170440Y463492D01*
X170371Y463470D01*
X170304Y463443D01*
X170238Y463414D01*
X170174Y463380D01*
X170112Y463344D01*
X170052Y463304D01*
X169994Y463261D01*
X169939Y463215D01*
X169886Y463166D01*
X169835Y463114D01*
X169788Y463060D01*
X169743Y463003D01*
X169702Y462944D01*
X169664Y462883D01*
X169629Y462820D01*
X169597Y462755D01*
X169569Y462688D01*
X169545Y462621D01*
X169524Y462552D01*
X169507Y462481D01*
X169493Y462411D01*
X169484Y462339D01*
X169478Y462267D01*
X169476Y462195D01*
X169476Y460841D01*
X169478Y460769D01*
X169484Y460697D01*
X169493Y460625D01*
X169507Y460555D01*
X169524Y460484D01*
X169545Y460415D01*
X169569Y460348D01*
X169597Y460281D01*
X169629Y460216D01*
X169664Y460153D01*
X169702Y460092D01*
X169743Y460033D01*
X169788Y459976D01*
X169835Y459922D01*
X169886Y459870D01*
X169939Y459821D01*
X169994Y459775D01*
X170052Y459732D01*
X170112Y459692D01*
X170174Y459656D01*
X170238Y459622D01*
X170304Y459593D01*
X170371Y459566D01*
X170440Y459544D01*
X170509Y459525D01*
X170580Y459509D01*
X170651Y459498D01*
X170723Y459490D01*
X170795Y459486D01*
X170867Y459486D01*
X170939Y459490D01*
X171011Y459498D01*
X171082Y459509D01*
X171153Y459525D01*
X171222Y459544D01*
X171291Y459566D01*
X171358Y459593D01*
X171424Y459622D01*
X171488Y459656D01*
X171550Y459692D01*
X171610Y459732D01*
X171668Y459775D01*
X171723Y459821D01*
X171776Y459870D01*
X171827Y459922D01*
X171874Y459976D01*
X171919Y460033D01*
X171960Y460092D01*
X171998Y460153D01*
X172033Y460216D01*
X172065Y460281D01*
X172093Y460348D01*
X172117Y460415D01*
X172138Y460484D01*
X172155Y460555D01*
X172169Y460625D01*
X172178Y460697D01*
X172184Y460769D01*
X172186Y460841D01*
X166014Y459486D02*
X166014Y463550D01*
X164320Y463550D01*
X164259Y463548D01*
X164198Y463543D01*
X164137Y463533D01*
X164077Y463520D01*
X164018Y463504D01*
X163960Y463484D01*
X163903Y463460D01*
X163848Y463434D01*
X163794Y463403D01*
X163743Y463370D01*
X163693Y463334D01*
X163646Y463294D01*
X163602Y463252D01*
X163560Y463208D01*
X163520Y463161D01*
X163484Y463111D01*
X163451Y463060D01*
X163420Y463006D01*
X163394Y462951D01*
X163370Y462894D01*
X163350Y462836D01*
X163334Y462777D01*
X163321Y462717D01*
X163311Y462656D01*
X163306Y462595D01*
X163304Y462534D01*
X163304Y459486D01*
X157919Y459486D02*
X157848Y459488D01*
X157777Y459493D01*
X157707Y459503D01*
X157637Y459516D01*
X157568Y459532D01*
X157500Y459552D01*
X157433Y459576D01*
X157368Y459603D01*
X157304Y459634D01*
X157242Y459668D01*
X157181Y459705D01*
X157123Y459745D01*
X157066Y459788D01*
X157012Y459834D01*
X156961Y459883D01*
X156912Y459934D01*
X156866Y459988D01*
X156823Y460045D01*
X156783Y460103D01*
X156746Y460164D01*
X156712Y460226D01*
X156681Y460290D01*
X156654Y460355D01*
X156630Y460422D01*
X156610Y460490D01*
X156594Y460559D01*
X156581Y460629D01*
X156571Y460699D01*
X156566Y460770D01*
X156564Y460841D01*
X157919Y459486D02*
X158022Y459488D01*
X158124Y459493D01*
X158227Y459503D01*
X158328Y459515D01*
X158430Y459532D01*
X158531Y459552D01*
X158630Y459576D01*
X158729Y459603D01*
X158827Y459634D01*
X158924Y459668D01*
X159020Y459706D01*
X159114Y459747D01*
X159206Y459792D01*
X159297Y459840D01*
X159386Y459891D01*
X159474Y459945D01*
X159559Y460002D01*
X159642Y460063D01*
X159723Y460126D01*
X159801Y460192D01*
X159878Y460261D01*
X159951Y460333D01*
X159782Y464227D02*
X159780Y464298D01*
X159775Y464369D01*
X159765Y464439D01*
X159752Y464509D01*
X159736Y464578D01*
X159716Y464646D01*
X159692Y464713D01*
X159665Y464778D01*
X159634Y464842D01*
X159600Y464905D01*
X159563Y464965D01*
X159523Y465023D01*
X159480Y465080D01*
X159434Y465134D01*
X159385Y465185D01*
X159334Y465234D01*
X159280Y465280D01*
X159223Y465323D01*
X159165Y465363D01*
X159105Y465400D01*
X159042Y465434D01*
X158978Y465465D01*
X158913Y465492D01*
X158846Y465516D01*
X158778Y465536D01*
X158709Y465552D01*
X158639Y465565D01*
X158569Y465575D01*
X158498Y465580D01*
X158427Y465582D01*
X158331Y465580D01*
X158235Y465575D01*
X158139Y465566D01*
X158044Y465553D01*
X157949Y465537D01*
X157855Y465517D01*
X157762Y465493D01*
X157670Y465466D01*
X157578Y465436D01*
X157488Y465402D01*
X157400Y465365D01*
X157313Y465324D01*
X157227Y465281D01*
X157143Y465234D01*
X157061Y465183D01*
X156981Y465130D01*
X156903Y465074D01*
X159105Y463042D02*
X159165Y463079D01*
X159224Y463120D01*
X159280Y463164D01*
X159334Y463211D01*
X159385Y463261D01*
X159434Y463313D01*
X159480Y463367D01*
X159524Y463424D01*
X159564Y463483D01*
X159601Y463544D01*
X159635Y463607D01*
X159665Y463672D01*
X159692Y463738D01*
X159716Y463805D01*
X159736Y463874D01*
X159752Y463943D01*
X159765Y464014D01*
X159775Y464084D01*
X159780Y464156D01*
X159782Y464227D01*
X157242Y462026D02*
X157182Y461989D01*
X157123Y461948D01*
X157067Y461904D01*
X157013Y461857D01*
X156962Y461807D01*
X156913Y461755D01*
X156867Y461701D01*
X156823Y461644D01*
X156783Y461585D01*
X156746Y461524D01*
X156712Y461461D01*
X156682Y461396D01*
X156655Y461330D01*
X156631Y461263D01*
X156611Y461194D01*
X156595Y461125D01*
X156582Y461054D01*
X156572Y460984D01*
X156567Y460912D01*
X156565Y460841D01*
X157242Y462026D02*
X159105Y463042D01*
X152425Y459486D02*
X150731Y459486D01*
X152425Y459486D02*
X152486Y459488D01*
X152547Y459493D01*
X152608Y459503D01*
X152668Y459516D01*
X152727Y459532D01*
X152785Y459552D01*
X152842Y459576D01*
X152897Y459602D01*
X152951Y459633D01*
X153002Y459666D01*
X153052Y459702D01*
X153099Y459742D01*
X153143Y459784D01*
X153185Y459828D01*
X153225Y459875D01*
X153261Y459925D01*
X153294Y459976D01*
X153325Y460030D01*
X153351Y460085D01*
X153375Y460142D01*
X153395Y460200D01*
X153411Y460259D01*
X153424Y460319D01*
X153434Y460380D01*
X153439Y460441D01*
X153441Y460502D01*
X153441Y462195D01*
X153439Y462267D01*
X153433Y462339D01*
X153424Y462411D01*
X153410Y462481D01*
X153393Y462552D01*
X153372Y462621D01*
X153348Y462688D01*
X153320Y462755D01*
X153288Y462820D01*
X153253Y462883D01*
X153215Y462944D01*
X153174Y463003D01*
X153129Y463060D01*
X153082Y463114D01*
X153031Y463166D01*
X152978Y463215D01*
X152923Y463261D01*
X152865Y463304D01*
X152805Y463344D01*
X152743Y463380D01*
X152679Y463414D01*
X152613Y463443D01*
X152546Y463470D01*
X152477Y463492D01*
X152408Y463511D01*
X152337Y463527D01*
X152266Y463538D01*
X152194Y463546D01*
X152122Y463550D01*
X152050Y463550D01*
X151978Y463546D01*
X151906Y463538D01*
X151835Y463527D01*
X151764Y463511D01*
X151695Y463492D01*
X151626Y463470D01*
X151559Y463443D01*
X151493Y463414D01*
X151429Y463380D01*
X151367Y463344D01*
X151307Y463304D01*
X151249Y463261D01*
X151194Y463215D01*
X151141Y463166D01*
X151090Y463114D01*
X151043Y463060D01*
X150998Y463003D01*
X150957Y462944D01*
X150919Y462883D01*
X150884Y462820D01*
X150852Y462755D01*
X150824Y462688D01*
X150800Y462621D01*
X150779Y462552D01*
X150762Y462481D01*
X150748Y462411D01*
X150739Y462339D01*
X150733Y462267D01*
X150731Y462195D01*
X150731Y461518D01*
X153441Y461518D01*
X147268Y459486D02*
X147268Y463550D01*
X145575Y463550D01*
X145514Y463548D01*
X145453Y463543D01*
X145392Y463533D01*
X145332Y463520D01*
X145273Y463504D01*
X145215Y463484D01*
X145158Y463460D01*
X145103Y463434D01*
X145049Y463403D01*
X144998Y463370D01*
X144948Y463334D01*
X144901Y463294D01*
X144857Y463252D01*
X144815Y463208D01*
X144775Y463161D01*
X144739Y463111D01*
X144706Y463060D01*
X144675Y463006D01*
X144649Y462951D01*
X144625Y462894D01*
X144605Y462836D01*
X144589Y462777D01*
X144576Y462717D01*
X144566Y462656D01*
X144561Y462595D01*
X144559Y462534D01*
X144559Y459486D01*
X140588Y461857D02*
X138895Y461179D01*
X140588Y461857D02*
X140641Y461880D01*
X140693Y461907D01*
X140742Y461937D01*
X140790Y461970D01*
X140835Y462007D01*
X140878Y462046D01*
X140918Y462088D01*
X140955Y462133D01*
X140989Y462179D01*
X141020Y462229D01*
X141047Y462280D01*
X141072Y462332D01*
X141092Y462386D01*
X141109Y462442D01*
X141123Y462498D01*
X141132Y462556D01*
X141138Y462613D01*
X141140Y462671D01*
X141138Y462729D01*
X141132Y462787D01*
X141123Y462844D01*
X141110Y462901D01*
X141093Y462956D01*
X141072Y463010D01*
X141048Y463063D01*
X141021Y463114D01*
X140990Y463163D01*
X140956Y463210D01*
X140919Y463255D01*
X140879Y463297D01*
X140836Y463336D01*
X140791Y463373D01*
X140743Y463406D01*
X140694Y463436D01*
X140643Y463463D01*
X140589Y463487D01*
X140535Y463507D01*
X140479Y463523D01*
X140423Y463535D01*
X140365Y463544D01*
X140307Y463549D01*
X140249Y463550D01*
X140250Y463550D02*
X140129Y463546D01*
X140008Y463539D01*
X139888Y463527D01*
X139768Y463512D01*
X139649Y463494D01*
X139530Y463471D01*
X139412Y463445D01*
X139295Y463415D01*
X139178Y463381D01*
X139063Y463344D01*
X138950Y463303D01*
X138837Y463259D01*
X138726Y463211D01*
X138895Y461179D02*
X138842Y461156D01*
X138790Y461129D01*
X138741Y461099D01*
X138693Y461066D01*
X138648Y461029D01*
X138605Y460990D01*
X138565Y460948D01*
X138528Y460903D01*
X138494Y460857D01*
X138463Y460807D01*
X138436Y460756D01*
X138411Y460704D01*
X138391Y460650D01*
X138374Y460594D01*
X138360Y460538D01*
X138351Y460480D01*
X138345Y460423D01*
X138343Y460365D01*
X138345Y460307D01*
X138351Y460249D01*
X138360Y460192D01*
X138373Y460135D01*
X138390Y460080D01*
X138411Y460026D01*
X138435Y459973D01*
X138462Y459922D01*
X138493Y459873D01*
X138527Y459826D01*
X138564Y459781D01*
X138604Y459739D01*
X138647Y459700D01*
X138692Y459663D01*
X138740Y459630D01*
X138789Y459600D01*
X138840Y459573D01*
X138894Y459549D01*
X138948Y459530D01*
X139004Y459513D01*
X139060Y459501D01*
X139118Y459492D01*
X139176Y459487D01*
X139234Y459486D01*
X139234Y459487D02*
X139380Y459491D01*
X139526Y459498D01*
X139672Y459510D01*
X139818Y459525D01*
X139963Y459544D01*
X140107Y459566D01*
X140251Y459592D01*
X140394Y459622D01*
X140537Y459655D01*
X140678Y459693D01*
X140819Y459733D01*
X140958Y459777D01*
X141097Y459825D01*
X134137Y459486D02*
X132443Y459486D01*
X134137Y459486D02*
X134198Y459488D01*
X134259Y459493D01*
X134320Y459503D01*
X134380Y459516D01*
X134439Y459532D01*
X134497Y459552D01*
X134554Y459576D01*
X134609Y459602D01*
X134663Y459633D01*
X134714Y459666D01*
X134764Y459702D01*
X134811Y459742D01*
X134855Y459784D01*
X134897Y459828D01*
X134937Y459875D01*
X134973Y459925D01*
X135006Y459976D01*
X135037Y460030D01*
X135063Y460085D01*
X135087Y460142D01*
X135107Y460200D01*
X135123Y460259D01*
X135136Y460319D01*
X135146Y460380D01*
X135151Y460441D01*
X135153Y460502D01*
X135153Y462195D01*
X135151Y462267D01*
X135145Y462339D01*
X135136Y462411D01*
X135122Y462481D01*
X135105Y462552D01*
X135084Y462621D01*
X135060Y462688D01*
X135032Y462755D01*
X135000Y462820D01*
X134965Y462883D01*
X134927Y462944D01*
X134886Y463003D01*
X134841Y463060D01*
X134794Y463114D01*
X134743Y463166D01*
X134690Y463215D01*
X134635Y463261D01*
X134577Y463304D01*
X134517Y463344D01*
X134455Y463380D01*
X134391Y463414D01*
X134325Y463443D01*
X134258Y463470D01*
X134189Y463492D01*
X134120Y463511D01*
X134049Y463527D01*
X133978Y463538D01*
X133906Y463546D01*
X133834Y463550D01*
X133762Y463550D01*
X133690Y463546D01*
X133618Y463538D01*
X133547Y463527D01*
X133476Y463511D01*
X133407Y463492D01*
X133338Y463470D01*
X133271Y463443D01*
X133205Y463414D01*
X133141Y463380D01*
X133079Y463344D01*
X133019Y463304D01*
X132961Y463261D01*
X132906Y463215D01*
X132853Y463166D01*
X132802Y463114D01*
X132755Y463060D01*
X132710Y463003D01*
X132669Y462944D01*
X132631Y462883D01*
X132596Y462820D01*
X132564Y462755D01*
X132536Y462688D01*
X132512Y462621D01*
X132491Y462552D01*
X132474Y462481D01*
X132460Y462411D01*
X132451Y462339D01*
X132445Y462267D01*
X132443Y462195D01*
X132443Y461518D01*
X135153Y461518D01*
X125204Y459486D02*
X125204Y465582D01*
X123511Y465582D01*
X123430Y465580D01*
X123350Y465574D01*
X123270Y465565D01*
X123191Y465551D01*
X123112Y465534D01*
X123034Y465513D01*
X122957Y465489D01*
X122882Y465461D01*
X122808Y465429D01*
X122735Y465394D01*
X122665Y465355D01*
X122596Y465313D01*
X122529Y465268D01*
X122464Y465220D01*
X122402Y465168D01*
X122343Y465114D01*
X122286Y465057D01*
X122232Y464998D01*
X122180Y464936D01*
X122132Y464871D01*
X122087Y464804D01*
X122045Y464736D01*
X122006Y464665D01*
X121971Y464592D01*
X121939Y464518D01*
X121911Y464443D01*
X121887Y464366D01*
X121866Y464288D01*
X121849Y464209D01*
X121835Y464130D01*
X121826Y464050D01*
X121820Y463970D01*
X121818Y463889D01*
X121818Y461179D01*
X121820Y461098D01*
X121826Y461018D01*
X121835Y460938D01*
X121849Y460859D01*
X121866Y460780D01*
X121887Y460702D01*
X121911Y460625D01*
X121939Y460550D01*
X121971Y460476D01*
X122006Y460403D01*
X122045Y460332D01*
X122087Y460264D01*
X122132Y460197D01*
X122180Y460132D01*
X122232Y460070D01*
X122286Y460011D01*
X122343Y459954D01*
X122402Y459900D01*
X122464Y459848D01*
X122529Y459800D01*
X122596Y459755D01*
X122665Y459713D01*
X122735Y459674D01*
X122808Y459639D01*
X122882Y459607D01*
X122957Y459579D01*
X123034Y459555D01*
X123112Y459534D01*
X123191Y459517D01*
X123270Y459503D01*
X123350Y459494D01*
X123430Y459488D01*
X123511Y459486D01*
X125204Y459486D01*
X117113Y461857D02*
X115589Y461857D01*
X117113Y461856D02*
X117181Y461854D01*
X117248Y461848D01*
X117315Y461839D01*
X117381Y461825D01*
X117447Y461808D01*
X117511Y461787D01*
X117574Y461763D01*
X117636Y461734D01*
X117696Y461703D01*
X117754Y461668D01*
X117810Y461630D01*
X117863Y461588D01*
X117914Y461544D01*
X117963Y461497D01*
X118009Y461447D01*
X118051Y461395D01*
X118091Y461340D01*
X118128Y461283D01*
X118161Y461224D01*
X118191Y461163D01*
X118217Y461101D01*
X118240Y461037D01*
X118259Y460972D01*
X118274Y460906D01*
X118286Y460840D01*
X118294Y460772D01*
X118298Y460705D01*
X118298Y460637D01*
X118294Y460570D01*
X118286Y460502D01*
X118274Y460436D01*
X118259Y460370D01*
X118240Y460305D01*
X118217Y460241D01*
X118191Y460179D01*
X118161Y460118D01*
X118128Y460059D01*
X118091Y460002D01*
X118051Y459947D01*
X118009Y459895D01*
X117963Y459845D01*
X117914Y459798D01*
X117863Y459754D01*
X117810Y459712D01*
X117754Y459674D01*
X117696Y459639D01*
X117636Y459608D01*
X117574Y459579D01*
X117511Y459555D01*
X117447Y459534D01*
X117381Y459517D01*
X117315Y459503D01*
X117248Y459494D01*
X117181Y459488D01*
X117113Y459486D01*
X115589Y459486D01*
X115589Y462534D01*
X115591Y462595D01*
X115596Y462656D01*
X115606Y462717D01*
X115619Y462777D01*
X115635Y462836D01*
X115655Y462894D01*
X115679Y462951D01*
X115705Y463006D01*
X115736Y463060D01*
X115769Y463111D01*
X115805Y463161D01*
X115845Y463208D01*
X115887Y463252D01*
X115931Y463294D01*
X115978Y463334D01*
X116028Y463370D01*
X116079Y463403D01*
X116133Y463434D01*
X116188Y463460D01*
X116245Y463484D01*
X116303Y463504D01*
X116362Y463520D01*
X116422Y463533D01*
X116483Y463543D01*
X116544Y463548D01*
X116605Y463550D01*
X117960Y463550D01*
X111836Y463550D02*
X111836Y460502D01*
X111834Y460441D01*
X111829Y460380D01*
X111819Y460319D01*
X111806Y460259D01*
X111790Y460200D01*
X111770Y460142D01*
X111746Y460085D01*
X111720Y460030D01*
X111689Y459976D01*
X111656Y459925D01*
X111620Y459875D01*
X111580Y459828D01*
X111538Y459784D01*
X111494Y459742D01*
X111447Y459702D01*
X111397Y459666D01*
X111346Y459633D01*
X111292Y459602D01*
X111237Y459576D01*
X111180Y459552D01*
X111122Y459532D01*
X111063Y459516D01*
X111003Y459503D01*
X110942Y459493D01*
X110881Y459488D01*
X110820Y459486D01*
X109126Y459486D01*
X109126Y463550D01*
X104709Y459486D02*
X103016Y459486D01*
X104709Y459486D02*
X104770Y459488D01*
X104831Y459493D01*
X104892Y459503D01*
X104952Y459516D01*
X105011Y459532D01*
X105069Y459552D01*
X105126Y459576D01*
X105181Y459602D01*
X105235Y459633D01*
X105286Y459666D01*
X105336Y459702D01*
X105383Y459742D01*
X105427Y459784D01*
X105469Y459828D01*
X105509Y459875D01*
X105545Y459925D01*
X105578Y459976D01*
X105609Y460030D01*
X105635Y460085D01*
X105659Y460142D01*
X105679Y460200D01*
X105695Y460259D01*
X105708Y460319D01*
X105718Y460380D01*
X105723Y460441D01*
X105725Y460502D01*
X105725Y462534D01*
X105723Y462595D01*
X105718Y462656D01*
X105708Y462717D01*
X105695Y462777D01*
X105679Y462836D01*
X105659Y462894D01*
X105635Y462951D01*
X105609Y463006D01*
X105578Y463060D01*
X105545Y463111D01*
X105509Y463161D01*
X105469Y463208D01*
X105427Y463252D01*
X105383Y463294D01*
X105336Y463334D01*
X105286Y463370D01*
X105235Y463403D01*
X105181Y463434D01*
X105126Y463460D01*
X105069Y463484D01*
X105011Y463504D01*
X104952Y463520D01*
X104892Y463533D01*
X104831Y463543D01*
X104770Y463548D01*
X104709Y463550D01*
X103016Y463550D01*
X103016Y458470D01*
X103018Y458409D01*
X103023Y458348D01*
X103033Y458287D01*
X103046Y458227D01*
X103062Y458168D01*
X103082Y458110D01*
X103106Y458053D01*
X103132Y457998D01*
X103163Y457944D01*
X103196Y457893D01*
X103232Y457843D01*
X103272Y457796D01*
X103314Y457752D01*
X103358Y457710D01*
X103405Y457670D01*
X103455Y457634D01*
X103506Y457601D01*
X103560Y457570D01*
X103615Y457544D01*
X103672Y457520D01*
X103730Y457500D01*
X103789Y457484D01*
X103849Y457471D01*
X103910Y457461D01*
X103971Y457456D01*
X104032Y457454D01*
X105387Y457454D01*
X99263Y459486D02*
X99263Y465582D01*
X99263Y463550D02*
X97569Y463550D01*
X97508Y463548D01*
X97447Y463543D01*
X97386Y463533D01*
X97326Y463520D01*
X97267Y463504D01*
X97209Y463484D01*
X97152Y463460D01*
X97097Y463434D01*
X97043Y463403D01*
X96992Y463370D01*
X96942Y463334D01*
X96895Y463294D01*
X96851Y463252D01*
X96809Y463208D01*
X96769Y463161D01*
X96733Y463111D01*
X96700Y463060D01*
X96669Y463006D01*
X96643Y462951D01*
X96619Y462894D01*
X96599Y462836D01*
X96583Y462777D01*
X96570Y462717D01*
X96560Y462656D01*
X96555Y462595D01*
X96553Y462534D01*
X96553Y459486D01*
X93763Y463550D02*
X91731Y463550D01*
X93086Y465582D02*
X93086Y460502D01*
X93084Y460441D01*
X93079Y460380D01*
X93069Y460319D01*
X93056Y460259D01*
X93040Y460200D01*
X93020Y460142D01*
X92996Y460085D01*
X92970Y460030D01*
X92939Y459976D01*
X92906Y459925D01*
X92870Y459875D01*
X92830Y459828D01*
X92788Y459784D01*
X92744Y459742D01*
X92697Y459702D01*
X92647Y459666D01*
X92596Y459633D01*
X92542Y459602D01*
X92487Y459576D01*
X92430Y459552D01*
X92372Y459532D01*
X92313Y459516D01*
X92253Y459503D01*
X92192Y459493D01*
X92131Y459488D01*
X92070Y459486D01*
X91731Y459486D01*
X87731Y459486D02*
X86038Y459486D01*
X87731Y459486D02*
X87792Y459488D01*
X87853Y459493D01*
X87914Y459503D01*
X87974Y459516D01*
X88033Y459532D01*
X88091Y459552D01*
X88148Y459576D01*
X88203Y459602D01*
X88257Y459633D01*
X88308Y459666D01*
X88358Y459702D01*
X88405Y459742D01*
X88449Y459784D01*
X88491Y459828D01*
X88531Y459875D01*
X88567Y459925D01*
X88600Y459976D01*
X88631Y460030D01*
X88657Y460085D01*
X88681Y460142D01*
X88701Y460200D01*
X88717Y460259D01*
X88730Y460319D01*
X88740Y460380D01*
X88745Y460441D01*
X88747Y460502D01*
X88747Y462195D01*
X88748Y462195D02*
X88746Y462267D01*
X88740Y462339D01*
X88731Y462411D01*
X88717Y462481D01*
X88700Y462552D01*
X88679Y462621D01*
X88655Y462688D01*
X88627Y462755D01*
X88595Y462820D01*
X88560Y462883D01*
X88522Y462944D01*
X88481Y463003D01*
X88436Y463060D01*
X88389Y463114D01*
X88338Y463166D01*
X88285Y463215D01*
X88230Y463261D01*
X88172Y463304D01*
X88112Y463344D01*
X88050Y463380D01*
X87986Y463414D01*
X87920Y463443D01*
X87853Y463470D01*
X87784Y463492D01*
X87715Y463511D01*
X87644Y463527D01*
X87573Y463538D01*
X87501Y463546D01*
X87429Y463550D01*
X87357Y463550D01*
X87285Y463546D01*
X87213Y463538D01*
X87142Y463527D01*
X87071Y463511D01*
X87002Y463492D01*
X86933Y463470D01*
X86866Y463443D01*
X86800Y463414D01*
X86736Y463380D01*
X86674Y463344D01*
X86614Y463304D01*
X86556Y463261D01*
X86501Y463215D01*
X86448Y463166D01*
X86397Y463114D01*
X86350Y463060D01*
X86305Y463003D01*
X86264Y462944D01*
X86226Y462883D01*
X86191Y462820D01*
X86159Y462755D01*
X86131Y462688D01*
X86107Y462621D01*
X86086Y462552D01*
X86069Y462481D01*
X86055Y462411D01*
X86046Y462339D01*
X86040Y462267D01*
X86038Y462195D01*
X86038Y461518D01*
X88747Y461518D01*
X82505Y459486D02*
X82505Y463550D01*
X80473Y463550D01*
X80473Y462873D01*
X73821Y462873D02*
X72127Y462873D01*
X72127Y462872D02*
X72046Y462870D01*
X71966Y462864D01*
X71886Y462855D01*
X71807Y462841D01*
X71728Y462824D01*
X71650Y462803D01*
X71573Y462779D01*
X71498Y462751D01*
X71424Y462719D01*
X71351Y462684D01*
X71281Y462645D01*
X71212Y462603D01*
X71145Y462558D01*
X71080Y462510D01*
X71018Y462458D01*
X70959Y462404D01*
X70902Y462347D01*
X70848Y462288D01*
X70796Y462226D01*
X70748Y462161D01*
X70703Y462094D01*
X70661Y462026D01*
X70622Y461955D01*
X70587Y461882D01*
X70555Y461808D01*
X70527Y461733D01*
X70503Y461656D01*
X70482Y461578D01*
X70465Y461499D01*
X70451Y461420D01*
X70442Y461340D01*
X70436Y461260D01*
X70434Y461179D01*
X70436Y461098D01*
X70442Y461018D01*
X70451Y460938D01*
X70465Y460859D01*
X70482Y460780D01*
X70503Y460702D01*
X70527Y460625D01*
X70555Y460550D01*
X70587Y460476D01*
X70622Y460403D01*
X70661Y460333D01*
X70703Y460264D01*
X70748Y460197D01*
X70796Y460132D01*
X70848Y460070D01*
X70902Y460011D01*
X70959Y459954D01*
X71018Y459900D01*
X71080Y459848D01*
X71145Y459800D01*
X71212Y459755D01*
X71280Y459713D01*
X71351Y459674D01*
X71424Y459639D01*
X71498Y459607D01*
X71573Y459579D01*
X71650Y459555D01*
X71728Y459534D01*
X71807Y459517D01*
X71886Y459503D01*
X71966Y459494D01*
X72046Y459488D01*
X72127Y459486D01*
X73821Y459486D01*
X73821Y465582D01*
X72127Y465582D01*
X72055Y465580D01*
X71983Y465574D01*
X71911Y465565D01*
X71841Y465551D01*
X71770Y465534D01*
X71701Y465513D01*
X71634Y465489D01*
X71567Y465461D01*
X71502Y465429D01*
X71439Y465394D01*
X71378Y465356D01*
X71319Y465315D01*
X71262Y465270D01*
X71208Y465223D01*
X71156Y465172D01*
X71107Y465119D01*
X71061Y465064D01*
X71018Y465006D01*
X70978Y464946D01*
X70942Y464884D01*
X70908Y464820D01*
X70879Y464754D01*
X70852Y464687D01*
X70830Y464618D01*
X70811Y464549D01*
X70795Y464478D01*
X70784Y464407D01*
X70776Y464335D01*
X70772Y464263D01*
X70772Y464191D01*
X70776Y464119D01*
X70784Y464047D01*
X70795Y463976D01*
X70811Y463905D01*
X70830Y463836D01*
X70852Y463767D01*
X70879Y463700D01*
X70908Y463634D01*
X70942Y463570D01*
X70978Y463508D01*
X71018Y463448D01*
X71061Y463390D01*
X71107Y463335D01*
X71156Y463282D01*
X71208Y463231D01*
X71262Y463184D01*
X71319Y463139D01*
X71378Y463098D01*
X71439Y463060D01*
X71502Y463025D01*
X71567Y462993D01*
X71634Y462965D01*
X71701Y462941D01*
X71770Y462920D01*
X71841Y462903D01*
X71911Y462889D01*
X71983Y462880D01*
X72055Y462874D01*
X72127Y462872D01*
X67488Y462195D02*
X67488Y460841D01*
X67488Y462195D02*
X67486Y462267D01*
X67480Y462339D01*
X67471Y462411D01*
X67457Y462481D01*
X67440Y462552D01*
X67419Y462621D01*
X67395Y462688D01*
X67367Y462755D01*
X67335Y462820D01*
X67300Y462883D01*
X67262Y462944D01*
X67221Y463003D01*
X67176Y463060D01*
X67129Y463114D01*
X67078Y463166D01*
X67025Y463215D01*
X66970Y463261D01*
X66912Y463304D01*
X66852Y463344D01*
X66790Y463380D01*
X66726Y463414D01*
X66660Y463443D01*
X66593Y463470D01*
X66524Y463492D01*
X66455Y463511D01*
X66384Y463527D01*
X66313Y463538D01*
X66241Y463546D01*
X66169Y463550D01*
X66097Y463550D01*
X66025Y463546D01*
X65953Y463538D01*
X65882Y463527D01*
X65811Y463511D01*
X65742Y463492D01*
X65673Y463470D01*
X65606Y463443D01*
X65540Y463414D01*
X65476Y463380D01*
X65414Y463344D01*
X65354Y463304D01*
X65296Y463261D01*
X65241Y463215D01*
X65188Y463166D01*
X65137Y463114D01*
X65090Y463060D01*
X65045Y463003D01*
X65004Y462944D01*
X64966Y462883D01*
X64931Y462820D01*
X64899Y462755D01*
X64871Y462688D01*
X64847Y462621D01*
X64826Y462552D01*
X64809Y462481D01*
X64795Y462411D01*
X64786Y462339D01*
X64780Y462267D01*
X64778Y462195D01*
X64778Y460841D01*
X64780Y460769D01*
X64786Y460697D01*
X64795Y460625D01*
X64809Y460555D01*
X64826Y460484D01*
X64847Y460415D01*
X64871Y460348D01*
X64899Y460281D01*
X64931Y460216D01*
X64966Y460153D01*
X65004Y460092D01*
X65045Y460033D01*
X65090Y459976D01*
X65137Y459922D01*
X65188Y459870D01*
X65241Y459821D01*
X65296Y459775D01*
X65354Y459732D01*
X65414Y459692D01*
X65476Y459656D01*
X65540Y459622D01*
X65606Y459593D01*
X65673Y459566D01*
X65742Y459544D01*
X65811Y459525D01*
X65882Y459509D01*
X65953Y459498D01*
X66025Y459490D01*
X66097Y459486D01*
X66169Y459486D01*
X66241Y459490D01*
X66313Y459498D01*
X66384Y459509D01*
X66455Y459525D01*
X66524Y459544D01*
X66593Y459566D01*
X66660Y459593D01*
X66726Y459622D01*
X66790Y459656D01*
X66852Y459692D01*
X66912Y459732D01*
X66970Y459775D01*
X67025Y459821D01*
X67078Y459870D01*
X67129Y459922D01*
X67176Y459976D01*
X67221Y460033D01*
X67262Y460092D01*
X67300Y460153D01*
X67335Y460216D01*
X67367Y460281D01*
X67395Y460348D01*
X67419Y460415D01*
X67440Y460484D01*
X67457Y460555D01*
X67471Y460625D01*
X67480Y460697D01*
X67486Y460769D01*
X67488Y460841D01*
X60421Y461857D02*
X58897Y461857D01*
X60421Y461856D02*
X60489Y461854D01*
X60556Y461848D01*
X60623Y461839D01*
X60689Y461825D01*
X60755Y461808D01*
X60819Y461787D01*
X60882Y461763D01*
X60944Y461734D01*
X61004Y461703D01*
X61062Y461668D01*
X61118Y461630D01*
X61171Y461588D01*
X61222Y461544D01*
X61271Y461497D01*
X61317Y461447D01*
X61359Y461395D01*
X61399Y461340D01*
X61436Y461283D01*
X61469Y461224D01*
X61499Y461163D01*
X61525Y461101D01*
X61548Y461037D01*
X61567Y460972D01*
X61582Y460906D01*
X61594Y460840D01*
X61602Y460772D01*
X61606Y460705D01*
X61606Y460637D01*
X61602Y460570D01*
X61594Y460502D01*
X61582Y460436D01*
X61567Y460370D01*
X61548Y460305D01*
X61525Y460241D01*
X61499Y460179D01*
X61469Y460118D01*
X61436Y460059D01*
X61399Y460002D01*
X61359Y459947D01*
X61317Y459895D01*
X61271Y459845D01*
X61222Y459798D01*
X61171Y459754D01*
X61118Y459712D01*
X61062Y459674D01*
X61004Y459639D01*
X60944Y459608D01*
X60882Y459579D01*
X60819Y459555D01*
X60755Y459534D01*
X60689Y459517D01*
X60623Y459503D01*
X60556Y459494D01*
X60489Y459488D01*
X60421Y459486D01*
X58897Y459486D01*
X58897Y462534D01*
X58899Y462595D01*
X58904Y462656D01*
X58914Y462717D01*
X58927Y462777D01*
X58943Y462836D01*
X58963Y462894D01*
X58987Y462951D01*
X59013Y463006D01*
X59044Y463060D01*
X59077Y463111D01*
X59113Y463161D01*
X59153Y463208D01*
X59195Y463252D01*
X59239Y463294D01*
X59286Y463334D01*
X59336Y463370D01*
X59387Y463403D01*
X59441Y463434D01*
X59496Y463460D01*
X59553Y463484D01*
X59611Y463504D01*
X59670Y463520D01*
X59730Y463533D01*
X59791Y463543D01*
X59852Y463548D01*
X59913Y463550D01*
X61267Y463550D01*
X55074Y463550D02*
X55074Y459486D01*
X55074Y463550D02*
X53042Y463550D01*
X53042Y462873D01*
X47924Y465582D02*
X47924Y459486D01*
X49617Y459486D01*
X49678Y459488D01*
X49739Y459493D01*
X49800Y459503D01*
X49860Y459516D01*
X49919Y459532D01*
X49977Y459552D01*
X50034Y459576D01*
X50089Y459602D01*
X50143Y459633D01*
X50194Y459666D01*
X50244Y459702D01*
X50291Y459742D01*
X50335Y459784D01*
X50377Y459828D01*
X50417Y459875D01*
X50453Y459925D01*
X50486Y459976D01*
X50517Y460030D01*
X50543Y460085D01*
X50567Y460142D01*
X50587Y460200D01*
X50603Y460259D01*
X50616Y460319D01*
X50626Y460380D01*
X50631Y460441D01*
X50633Y460502D01*
X50633Y462534D01*
X50631Y462595D01*
X50626Y462656D01*
X50616Y462717D01*
X50603Y462777D01*
X50587Y462836D01*
X50567Y462894D01*
X50543Y462951D01*
X50517Y463006D01*
X50486Y463060D01*
X50453Y463111D01*
X50417Y463161D01*
X50377Y463208D01*
X50335Y463252D01*
X50291Y463294D01*
X50244Y463334D01*
X50194Y463370D01*
X50143Y463403D01*
X50089Y463434D01*
X50034Y463460D01*
X49977Y463484D01*
X49919Y463504D01*
X49860Y463520D01*
X49800Y463533D01*
X49739Y463543D01*
X49678Y463548D01*
X49617Y463550D01*
X47924Y463550D01*
X40970Y463550D02*
X39616Y459486D01*
X38261Y463550D01*
X35137Y464227D02*
X33443Y465582D01*
X33443Y459486D01*
X31750Y459486D02*
X35137Y459486D01*
X197510Y451409D02*
X200220Y451409D01*
X200220Y457505D01*
X197510Y457505D01*
X198188Y454795D02*
X200220Y454795D01*
X194876Y455473D02*
X193521Y451409D01*
X192166Y455473D01*
X188145Y451409D02*
X186451Y451409D01*
X188145Y451409D02*
X188206Y451411D01*
X188267Y451416D01*
X188328Y451426D01*
X188388Y451439D01*
X188447Y451455D01*
X188505Y451475D01*
X188562Y451499D01*
X188617Y451525D01*
X188671Y451556D01*
X188722Y451589D01*
X188772Y451625D01*
X188819Y451665D01*
X188863Y451707D01*
X188905Y451751D01*
X188945Y451798D01*
X188981Y451848D01*
X189014Y451899D01*
X189045Y451953D01*
X189071Y452008D01*
X189095Y452065D01*
X189115Y452123D01*
X189131Y452182D01*
X189144Y452242D01*
X189154Y452303D01*
X189159Y452364D01*
X189161Y452425D01*
X189161Y454118D01*
X189159Y454190D01*
X189153Y454262D01*
X189144Y454334D01*
X189130Y454404D01*
X189113Y454475D01*
X189092Y454544D01*
X189068Y454611D01*
X189040Y454678D01*
X189008Y454743D01*
X188973Y454806D01*
X188935Y454867D01*
X188894Y454926D01*
X188849Y454983D01*
X188802Y455037D01*
X188751Y455089D01*
X188698Y455138D01*
X188643Y455184D01*
X188585Y455227D01*
X188525Y455267D01*
X188463Y455303D01*
X188399Y455337D01*
X188333Y455366D01*
X188266Y455393D01*
X188197Y455415D01*
X188128Y455434D01*
X188057Y455450D01*
X187986Y455461D01*
X187914Y455469D01*
X187842Y455473D01*
X187770Y455473D01*
X187698Y455469D01*
X187626Y455461D01*
X187555Y455450D01*
X187484Y455434D01*
X187415Y455415D01*
X187346Y455393D01*
X187279Y455366D01*
X187213Y455337D01*
X187149Y455303D01*
X187087Y455267D01*
X187027Y455227D01*
X186969Y455184D01*
X186914Y455138D01*
X186861Y455089D01*
X186810Y455037D01*
X186763Y454983D01*
X186718Y454926D01*
X186677Y454867D01*
X186639Y454806D01*
X186604Y454743D01*
X186572Y454678D01*
X186544Y454611D01*
X186520Y454544D01*
X186499Y454475D01*
X186482Y454404D01*
X186468Y454334D01*
X186459Y454262D01*
X186453Y454190D01*
X186451Y454118D01*
X186451Y453441D01*
X189161Y453441D01*
X179212Y451409D02*
X179212Y457505D01*
X179212Y454795D02*
X175826Y454795D01*
X175826Y457505D02*
X175826Y451409D01*
X172016Y452425D02*
X172016Y455473D01*
X172016Y452425D02*
X172014Y452364D01*
X172009Y452303D01*
X171999Y452242D01*
X171986Y452182D01*
X171970Y452123D01*
X171950Y452065D01*
X171926Y452008D01*
X171900Y451953D01*
X171869Y451899D01*
X171836Y451848D01*
X171800Y451798D01*
X171760Y451751D01*
X171718Y451707D01*
X171674Y451665D01*
X171627Y451625D01*
X171577Y451589D01*
X171526Y451556D01*
X171472Y451525D01*
X171417Y451499D01*
X171360Y451475D01*
X171302Y451455D01*
X171243Y451439D01*
X171183Y451426D01*
X171122Y451416D01*
X171061Y451411D01*
X171000Y451409D01*
X169306Y451409D01*
X169306Y455473D01*
X162067Y456827D02*
X162067Y457505D01*
X158681Y457505D01*
X160374Y451409D01*
X155557Y450732D02*
X152847Y458182D01*
X147860Y457505D02*
X147783Y457503D01*
X147706Y457497D01*
X147629Y457487D01*
X147553Y457474D01*
X147478Y457456D01*
X147404Y457435D01*
X147331Y457410D01*
X147259Y457381D01*
X147189Y457349D01*
X147120Y457314D01*
X147054Y457274D01*
X146989Y457232D01*
X146927Y457186D01*
X146867Y457137D01*
X146810Y457086D01*
X146755Y457031D01*
X146704Y456974D01*
X146655Y456914D01*
X146609Y456852D01*
X146567Y456787D01*
X146527Y456721D01*
X146492Y456652D01*
X146460Y456582D01*
X146431Y456510D01*
X146406Y456437D01*
X146385Y456363D01*
X146367Y456288D01*
X146354Y456212D01*
X146344Y456135D01*
X146338Y456058D01*
X146336Y455981D01*
X147860Y457505D02*
X147945Y457503D01*
X148030Y457498D01*
X148114Y457488D01*
X148198Y457476D01*
X148281Y457459D01*
X148364Y457439D01*
X148445Y457415D01*
X148526Y457388D01*
X148605Y457358D01*
X148683Y457324D01*
X148759Y457286D01*
X148834Y457246D01*
X148906Y457202D01*
X148977Y457155D01*
X149046Y457105D01*
X149112Y457052D01*
X149176Y456997D01*
X149238Y456938D01*
X149297Y456877D01*
X149353Y456814D01*
X149407Y456748D01*
X149457Y456679D01*
X149505Y456609D01*
X149549Y456537D01*
X149591Y456463D01*
X149629Y456387D01*
X149664Y456309D01*
X149695Y456230D01*
X149723Y456150D01*
X146844Y454796D02*
X146789Y454851D01*
X146736Y454908D01*
X146687Y454968D01*
X146640Y455031D01*
X146596Y455095D01*
X146556Y455162D01*
X146518Y455230D01*
X146484Y455301D01*
X146453Y455372D01*
X146426Y455445D01*
X146402Y455519D01*
X146382Y455595D01*
X146366Y455671D01*
X146353Y455748D01*
X146343Y455825D01*
X146338Y455903D01*
X146336Y455981D01*
X146844Y454795D02*
X149723Y451409D01*
X146336Y451409D01*
X143212Y450732D02*
X140503Y458182D01*
X135516Y457505D02*
X135439Y457503D01*
X135362Y457497D01*
X135285Y457487D01*
X135209Y457474D01*
X135134Y457456D01*
X135060Y457435D01*
X134987Y457410D01*
X134915Y457381D01*
X134845Y457349D01*
X134776Y457314D01*
X134710Y457274D01*
X134645Y457232D01*
X134583Y457186D01*
X134523Y457137D01*
X134466Y457086D01*
X134411Y457031D01*
X134360Y456974D01*
X134311Y456914D01*
X134265Y456852D01*
X134223Y456787D01*
X134183Y456721D01*
X134148Y456652D01*
X134116Y456582D01*
X134087Y456510D01*
X134062Y456437D01*
X134041Y456363D01*
X134023Y456288D01*
X134010Y456212D01*
X134000Y456135D01*
X133994Y456058D01*
X133992Y455981D01*
X135516Y457505D02*
X135601Y457503D01*
X135686Y457498D01*
X135770Y457488D01*
X135854Y457476D01*
X135937Y457459D01*
X136020Y457439D01*
X136101Y457415D01*
X136182Y457388D01*
X136261Y457358D01*
X136339Y457324D01*
X136415Y457286D01*
X136490Y457246D01*
X136562Y457202D01*
X136633Y457155D01*
X136702Y457105D01*
X136768Y457052D01*
X136832Y456997D01*
X136894Y456938D01*
X136953Y456877D01*
X137009Y456814D01*
X137063Y456748D01*
X137113Y456679D01*
X137161Y456609D01*
X137205Y456537D01*
X137247Y456463D01*
X137285Y456387D01*
X137320Y456309D01*
X137351Y456230D01*
X137379Y456150D01*
X134500Y454796D02*
X134445Y454851D01*
X134392Y454908D01*
X134343Y454968D01*
X134296Y455031D01*
X134252Y455095D01*
X134212Y455162D01*
X134174Y455230D01*
X134140Y455301D01*
X134109Y455372D01*
X134082Y455445D01*
X134058Y455519D01*
X134038Y455595D01*
X134022Y455671D01*
X134009Y455748D01*
X133999Y455825D01*
X133994Y455903D01*
X133992Y455981D01*
X134500Y454795D02*
X137379Y451409D01*
X133992Y451409D01*
X130520Y454457D02*
X130518Y454591D01*
X130513Y454725D01*
X130504Y454859D01*
X130491Y454992D01*
X130475Y455125D01*
X130456Y455258D01*
X130433Y455390D01*
X130406Y455521D01*
X130376Y455652D01*
X130342Y455781D01*
X130305Y455910D01*
X130265Y456038D01*
X130221Y456165D01*
X130174Y456290D01*
X130123Y456414D01*
X130069Y456537D01*
X130012Y456658D01*
X129989Y456722D01*
X129962Y456784D01*
X129931Y456844D01*
X129898Y456903D01*
X129861Y456959D01*
X129822Y457014D01*
X129779Y457067D01*
X129734Y457117D01*
X129686Y457164D01*
X129635Y457209D01*
X129583Y457252D01*
X129528Y457291D01*
X129471Y457327D01*
X129412Y457360D01*
X129351Y457390D01*
X129289Y457417D01*
X129225Y457440D01*
X129161Y457460D01*
X129095Y457476D01*
X129029Y457489D01*
X128962Y457498D01*
X128895Y457503D01*
X128827Y457505D01*
X128759Y457503D01*
X128692Y457498D01*
X128625Y457489D01*
X128559Y457476D01*
X128493Y457460D01*
X128429Y457440D01*
X128365Y457417D01*
X128303Y457390D01*
X128242Y457360D01*
X128183Y457327D01*
X128126Y457291D01*
X128071Y457252D01*
X128019Y457209D01*
X127968Y457164D01*
X127920Y457117D01*
X127875Y457067D01*
X127832Y457014D01*
X127793Y456959D01*
X127756Y456903D01*
X127723Y456844D01*
X127692Y456784D01*
X127665Y456722D01*
X127642Y456658D01*
X127643Y456658D02*
X127586Y456537D01*
X127532Y456414D01*
X127481Y456290D01*
X127434Y456165D01*
X127390Y456038D01*
X127350Y455910D01*
X127313Y455781D01*
X127279Y455652D01*
X127249Y455521D01*
X127222Y455390D01*
X127199Y455258D01*
X127180Y455125D01*
X127164Y454992D01*
X127151Y454859D01*
X127142Y454725D01*
X127137Y454591D01*
X127135Y454457D01*
X130521Y454457D02*
X130519Y454323D01*
X130514Y454189D01*
X130505Y454055D01*
X130492Y453922D01*
X130476Y453789D01*
X130457Y453656D01*
X130434Y453524D01*
X130407Y453393D01*
X130377Y453262D01*
X130343Y453132D01*
X130306Y453004D01*
X130266Y452876D01*
X130222Y452749D01*
X130175Y452624D01*
X130124Y452500D01*
X130070Y452377D01*
X130013Y452256D01*
X130012Y452256D02*
X129989Y452192D01*
X129962Y452130D01*
X129931Y452070D01*
X129898Y452011D01*
X129861Y451955D01*
X129822Y451900D01*
X129779Y451847D01*
X129734Y451797D01*
X129686Y451750D01*
X129635Y451705D01*
X129583Y451662D01*
X129528Y451623D01*
X129471Y451587D01*
X129412Y451554D01*
X129351Y451524D01*
X129289Y451497D01*
X129225Y451474D01*
X129161Y451454D01*
X129095Y451438D01*
X129029Y451425D01*
X128962Y451416D01*
X128895Y451411D01*
X128827Y451409D01*
X127642Y452256D02*
X127585Y452377D01*
X127531Y452500D01*
X127480Y452624D01*
X127433Y452749D01*
X127389Y452876D01*
X127349Y453004D01*
X127312Y453132D01*
X127278Y453262D01*
X127248Y453393D01*
X127221Y453524D01*
X127198Y453656D01*
X127179Y453789D01*
X127163Y453922D01*
X127150Y454055D01*
X127141Y454189D01*
X127136Y454323D01*
X127134Y454457D01*
X127642Y452256D02*
X127665Y452192D01*
X127692Y452130D01*
X127723Y452070D01*
X127756Y452011D01*
X127793Y451955D01*
X127832Y451900D01*
X127875Y451847D01*
X127920Y451797D01*
X127968Y451750D01*
X128019Y451705D01*
X128071Y451662D01*
X128126Y451623D01*
X128184Y451587D01*
X128242Y451554D01*
X128303Y451524D01*
X128365Y451497D01*
X128429Y451474D01*
X128493Y451454D01*
X128559Y451438D01*
X128625Y451425D01*
X128692Y451416D01*
X128759Y451411D01*
X128827Y451409D01*
X130182Y452763D02*
X127473Y456150D01*
X121800Y457505D02*
X121723Y457503D01*
X121646Y457497D01*
X121569Y457487D01*
X121493Y457474D01*
X121418Y457456D01*
X121344Y457435D01*
X121271Y457410D01*
X121199Y457381D01*
X121129Y457349D01*
X121060Y457314D01*
X120994Y457274D01*
X120929Y457232D01*
X120867Y457186D01*
X120807Y457137D01*
X120750Y457086D01*
X120695Y457031D01*
X120644Y456974D01*
X120595Y456914D01*
X120549Y456852D01*
X120507Y456787D01*
X120467Y456721D01*
X120432Y456652D01*
X120400Y456582D01*
X120371Y456510D01*
X120346Y456437D01*
X120325Y456363D01*
X120307Y456288D01*
X120294Y456212D01*
X120284Y456135D01*
X120278Y456058D01*
X120276Y455981D01*
X121800Y457505D02*
X121885Y457503D01*
X121970Y457498D01*
X122054Y457488D01*
X122138Y457476D01*
X122221Y457459D01*
X122304Y457439D01*
X122385Y457415D01*
X122466Y457388D01*
X122545Y457358D01*
X122623Y457324D01*
X122699Y457286D01*
X122774Y457246D01*
X122846Y457202D01*
X122917Y457155D01*
X122986Y457105D01*
X123052Y457052D01*
X123116Y456997D01*
X123178Y456938D01*
X123237Y456877D01*
X123293Y456814D01*
X123347Y456748D01*
X123397Y456679D01*
X123445Y456609D01*
X123489Y456537D01*
X123531Y456463D01*
X123569Y456387D01*
X123604Y456309D01*
X123635Y456230D01*
X123663Y456150D01*
X120784Y454796D02*
X120729Y454851D01*
X120676Y454908D01*
X120627Y454968D01*
X120580Y455031D01*
X120536Y455095D01*
X120496Y455162D01*
X120458Y455230D01*
X120424Y455301D01*
X120393Y455372D01*
X120366Y455445D01*
X120342Y455519D01*
X120322Y455595D01*
X120306Y455671D01*
X120293Y455748D01*
X120283Y455825D01*
X120278Y455903D01*
X120276Y455981D01*
X120784Y454795D02*
X123663Y451409D01*
X120276Y451409D01*
X116804Y454457D02*
X116802Y454591D01*
X116797Y454725D01*
X116788Y454859D01*
X116775Y454992D01*
X116759Y455125D01*
X116740Y455258D01*
X116717Y455390D01*
X116690Y455521D01*
X116660Y455652D01*
X116626Y455781D01*
X116589Y455910D01*
X116549Y456038D01*
X116505Y456165D01*
X116458Y456290D01*
X116407Y456414D01*
X116353Y456537D01*
X116296Y456658D01*
X116297Y456658D02*
X116274Y456722D01*
X116247Y456784D01*
X116216Y456844D01*
X116183Y456903D01*
X116146Y456959D01*
X116107Y457014D01*
X116064Y457067D01*
X116019Y457117D01*
X115971Y457164D01*
X115920Y457209D01*
X115868Y457252D01*
X115813Y457291D01*
X115756Y457327D01*
X115697Y457360D01*
X115636Y457390D01*
X115574Y457417D01*
X115510Y457440D01*
X115446Y457460D01*
X115380Y457476D01*
X115314Y457489D01*
X115247Y457498D01*
X115180Y457503D01*
X115112Y457505D01*
X115044Y457503D01*
X114977Y457498D01*
X114910Y457489D01*
X114844Y457476D01*
X114778Y457460D01*
X114714Y457440D01*
X114650Y457417D01*
X114588Y457390D01*
X114527Y457360D01*
X114468Y457327D01*
X114411Y457291D01*
X114356Y457252D01*
X114304Y457209D01*
X114253Y457164D01*
X114205Y457117D01*
X114160Y457067D01*
X114117Y457014D01*
X114078Y456959D01*
X114041Y456903D01*
X114008Y456844D01*
X113977Y456784D01*
X113950Y456722D01*
X113927Y456658D01*
X113870Y456537D01*
X113816Y456414D01*
X113765Y456290D01*
X113718Y456165D01*
X113674Y456038D01*
X113634Y455910D01*
X113597Y455781D01*
X113563Y455652D01*
X113533Y455521D01*
X113506Y455390D01*
X113483Y455258D01*
X113464Y455125D01*
X113448Y454992D01*
X113435Y454859D01*
X113426Y454725D01*
X113421Y454591D01*
X113419Y454457D01*
X116805Y454457D02*
X116803Y454323D01*
X116798Y454189D01*
X116789Y454055D01*
X116776Y453922D01*
X116760Y453789D01*
X116741Y453656D01*
X116718Y453524D01*
X116691Y453393D01*
X116661Y453262D01*
X116627Y453132D01*
X116590Y453004D01*
X116550Y452876D01*
X116506Y452749D01*
X116459Y452624D01*
X116408Y452500D01*
X116354Y452377D01*
X116297Y452256D01*
X116274Y452192D01*
X116247Y452130D01*
X116216Y452070D01*
X116183Y452011D01*
X116146Y451955D01*
X116107Y451900D01*
X116064Y451847D01*
X116019Y451797D01*
X115971Y451750D01*
X115920Y451705D01*
X115868Y451662D01*
X115813Y451623D01*
X115756Y451587D01*
X115697Y451554D01*
X115636Y451524D01*
X115574Y451497D01*
X115510Y451474D01*
X115446Y451454D01*
X115380Y451438D01*
X115314Y451425D01*
X115247Y451416D01*
X115180Y451411D01*
X115112Y451409D01*
X113926Y452256D02*
X113869Y452377D01*
X113815Y452500D01*
X113764Y452624D01*
X113717Y452749D01*
X113673Y452876D01*
X113633Y453004D01*
X113596Y453132D01*
X113562Y453262D01*
X113532Y453393D01*
X113505Y453524D01*
X113482Y453656D01*
X113463Y453789D01*
X113447Y453922D01*
X113434Y454055D01*
X113425Y454189D01*
X113420Y454323D01*
X113418Y454457D01*
X113927Y452256D02*
X113950Y452192D01*
X113977Y452130D01*
X114008Y452070D01*
X114041Y452011D01*
X114078Y451955D01*
X114117Y451900D01*
X114160Y451847D01*
X114205Y451797D01*
X114253Y451750D01*
X114304Y451705D01*
X114356Y451662D01*
X114411Y451623D01*
X114469Y451587D01*
X114527Y451554D01*
X114588Y451524D01*
X114650Y451497D01*
X114714Y451474D01*
X114778Y451454D01*
X114844Y451438D01*
X114910Y451425D01*
X114977Y451416D01*
X115044Y451411D01*
X115112Y451409D01*
X116466Y452763D02*
X113757Y456150D01*
X210058Y200152D02*
X214122Y200152D01*
X171958Y200152D02*
X171958Y204216D01*
X171958Y242316D02*
X176022Y242316D01*
X214122Y242316D02*
X214122Y238252D01*
X214122Y204216D02*
X214122Y200152D01*
X176022Y200152D02*
X171958Y200152D01*
X171958Y238252D02*
X171958Y242316D01*
X210058Y242316D02*
X214122Y242316D01*
D11*
X224825Y239127D02*
X224825Y235148D01*
X222504Y232163D01*
X224825Y235148D02*
X227147Y232163D01*
X224825Y235148D02*
X221178Y236474D01*
X224825Y235148D02*
X228473Y236474D01*
D12*
X230470Y466894D02*
X305470Y466894D01*
X230470Y466894D02*
X230470Y463644D01*
X305470Y463644D02*
X305470Y466894D01*
X230470Y443644D02*
X230470Y425144D01*
X305470Y425144D02*
X305470Y443644D01*
D10*
X306790Y218096D02*
X311531Y218096D01*
X306790Y218096D02*
X306719Y218094D01*
X306648Y218089D01*
X306578Y218079D01*
X306508Y218066D01*
X306439Y218050D01*
X306371Y218030D01*
X306304Y218006D01*
X306239Y217979D01*
X306175Y217948D01*
X306113Y217914D01*
X306052Y217877D01*
X305994Y217837D01*
X305937Y217794D01*
X305883Y217748D01*
X305832Y217699D01*
X305783Y217648D01*
X305737Y217594D01*
X305694Y217537D01*
X305654Y217479D01*
X305617Y217419D01*
X305583Y217356D01*
X305552Y217292D01*
X305525Y217227D01*
X305501Y217160D01*
X305481Y217092D01*
X305465Y217023D01*
X305452Y216953D01*
X305442Y216883D01*
X305437Y216812D01*
X305435Y216741D01*
X305435Y216064D01*
X305435Y222154D02*
X311531Y222154D01*
X311531Y223847D01*
X311529Y223928D01*
X311523Y224008D01*
X311514Y224088D01*
X311500Y224167D01*
X311483Y224246D01*
X311462Y224324D01*
X311438Y224401D01*
X311410Y224476D01*
X311378Y224550D01*
X311343Y224623D01*
X311304Y224694D01*
X311262Y224762D01*
X311217Y224829D01*
X311169Y224894D01*
X311117Y224956D01*
X311063Y225015D01*
X311006Y225072D01*
X310947Y225126D01*
X310885Y225178D01*
X310820Y225226D01*
X310753Y225271D01*
X310685Y225313D01*
X310614Y225352D01*
X310541Y225387D01*
X310467Y225419D01*
X310392Y225447D01*
X310315Y225471D01*
X310237Y225492D01*
X310158Y225509D01*
X310079Y225523D01*
X309999Y225532D01*
X309919Y225538D01*
X309838Y225540D01*
X309757Y225538D01*
X309677Y225532D01*
X309597Y225523D01*
X309518Y225509D01*
X309439Y225492D01*
X309361Y225471D01*
X309284Y225447D01*
X309209Y225419D01*
X309135Y225387D01*
X309062Y225352D01*
X308992Y225313D01*
X308923Y225271D01*
X308856Y225226D01*
X308791Y225178D01*
X308729Y225126D01*
X308670Y225072D01*
X308613Y225015D01*
X308559Y224956D01*
X308507Y224894D01*
X308459Y224829D01*
X308414Y224762D01*
X308372Y224694D01*
X308333Y224623D01*
X308298Y224550D01*
X308266Y224476D01*
X308238Y224401D01*
X308214Y224324D01*
X308193Y224246D01*
X308176Y224167D01*
X308162Y224088D01*
X308153Y224008D01*
X308147Y223928D01*
X308145Y223847D01*
X308144Y223847D02*
X308144Y222154D01*
X310176Y228605D02*
X311531Y230299D01*
X305435Y230299D01*
X305435Y231992D02*
X305435Y228605D01*
X294640Y258736D02*
X289899Y258736D01*
X289828Y258734D01*
X289757Y258729D01*
X289687Y258719D01*
X289617Y258706D01*
X289548Y258690D01*
X289480Y258670D01*
X289413Y258646D01*
X289348Y258619D01*
X289284Y258588D01*
X289222Y258554D01*
X289161Y258517D01*
X289103Y258477D01*
X289046Y258434D01*
X288992Y258388D01*
X288941Y258339D01*
X288892Y258288D01*
X288846Y258234D01*
X288803Y258177D01*
X288763Y258119D01*
X288726Y258059D01*
X288692Y257996D01*
X288661Y257932D01*
X288634Y257867D01*
X288610Y257800D01*
X288590Y257732D01*
X288574Y257663D01*
X288561Y257593D01*
X288551Y257523D01*
X288546Y257452D01*
X288544Y257381D01*
X288544Y256704D01*
X288544Y262794D02*
X294640Y262794D01*
X294640Y264487D01*
X294638Y264568D01*
X294632Y264648D01*
X294623Y264728D01*
X294609Y264807D01*
X294592Y264886D01*
X294571Y264964D01*
X294547Y265041D01*
X294519Y265116D01*
X294487Y265190D01*
X294452Y265263D01*
X294413Y265334D01*
X294371Y265402D01*
X294326Y265469D01*
X294278Y265534D01*
X294226Y265596D01*
X294172Y265655D01*
X294115Y265712D01*
X294056Y265766D01*
X293994Y265818D01*
X293929Y265866D01*
X293862Y265911D01*
X293794Y265953D01*
X293723Y265992D01*
X293650Y266027D01*
X293576Y266059D01*
X293501Y266087D01*
X293424Y266111D01*
X293346Y266132D01*
X293267Y266149D01*
X293188Y266163D01*
X293108Y266172D01*
X293028Y266178D01*
X292947Y266180D01*
X292866Y266178D01*
X292786Y266172D01*
X292706Y266163D01*
X292627Y266149D01*
X292548Y266132D01*
X292470Y266111D01*
X292393Y266087D01*
X292318Y266059D01*
X292244Y266027D01*
X292171Y265992D01*
X292101Y265953D01*
X292032Y265911D01*
X291965Y265866D01*
X291900Y265818D01*
X291838Y265766D01*
X291779Y265712D01*
X291722Y265655D01*
X291668Y265596D01*
X291616Y265534D01*
X291568Y265469D01*
X291523Y265402D01*
X291481Y265334D01*
X291442Y265263D01*
X291407Y265190D01*
X291375Y265116D01*
X291347Y265041D01*
X291323Y264964D01*
X291302Y264886D01*
X291285Y264807D01*
X291271Y264728D01*
X291262Y264648D01*
X291256Y264568D01*
X291254Y264487D01*
X291253Y264487D02*
X291253Y262794D01*
X294640Y271108D02*
X294638Y271185D01*
X294632Y271262D01*
X294622Y271339D01*
X294609Y271415D01*
X294591Y271490D01*
X294570Y271564D01*
X294545Y271637D01*
X294516Y271709D01*
X294484Y271779D01*
X294449Y271848D01*
X294409Y271914D01*
X294367Y271979D01*
X294321Y272041D01*
X294272Y272101D01*
X294221Y272158D01*
X294166Y272213D01*
X294109Y272264D01*
X294049Y272313D01*
X293987Y272359D01*
X293922Y272401D01*
X293856Y272441D01*
X293787Y272476D01*
X293717Y272508D01*
X293645Y272537D01*
X293572Y272562D01*
X293498Y272583D01*
X293423Y272601D01*
X293347Y272614D01*
X293270Y272624D01*
X293193Y272630D01*
X293116Y272632D01*
X294640Y271108D02*
X294638Y271023D01*
X294633Y270938D01*
X294623Y270854D01*
X294611Y270770D01*
X294594Y270687D01*
X294574Y270604D01*
X294550Y270523D01*
X294523Y270442D01*
X294493Y270363D01*
X294459Y270285D01*
X294421Y270209D01*
X294381Y270134D01*
X294337Y270062D01*
X294290Y269991D01*
X294240Y269922D01*
X294187Y269856D01*
X294132Y269792D01*
X294073Y269730D01*
X294012Y269671D01*
X293949Y269615D01*
X293883Y269561D01*
X293814Y269511D01*
X293744Y269463D01*
X293672Y269419D01*
X293598Y269377D01*
X293522Y269339D01*
X293444Y269305D01*
X293365Y269273D01*
X293285Y269245D01*
X291931Y272124D02*
X291986Y272179D01*
X292043Y272232D01*
X292103Y272281D01*
X292166Y272328D01*
X292230Y272372D01*
X292297Y272412D01*
X292365Y272450D01*
X292436Y272484D01*
X292507Y272515D01*
X292580Y272542D01*
X292654Y272566D01*
X292730Y272586D01*
X292806Y272602D01*
X292883Y272615D01*
X292960Y272625D01*
X293038Y272630D01*
X293116Y272632D01*
X291931Y272124D02*
X288544Y269245D01*
X288544Y272632D01*
X168386Y59880D02*
X162290Y59880D01*
X168386Y59880D02*
X168386Y61573D01*
X168384Y61654D01*
X168378Y61734D01*
X168369Y61814D01*
X168355Y61893D01*
X168338Y61972D01*
X168317Y62050D01*
X168293Y62127D01*
X168265Y62202D01*
X168233Y62276D01*
X168198Y62349D01*
X168159Y62420D01*
X168117Y62488D01*
X168072Y62555D01*
X168024Y62620D01*
X167972Y62682D01*
X167918Y62741D01*
X167861Y62798D01*
X167802Y62852D01*
X167740Y62904D01*
X167675Y62952D01*
X167608Y62997D01*
X167540Y63039D01*
X167469Y63078D01*
X167396Y63113D01*
X167322Y63145D01*
X167247Y63173D01*
X167170Y63197D01*
X167092Y63218D01*
X167013Y63235D01*
X166934Y63249D01*
X166854Y63258D01*
X166774Y63264D01*
X166693Y63266D01*
X166612Y63264D01*
X166532Y63258D01*
X166452Y63249D01*
X166373Y63235D01*
X166294Y63218D01*
X166216Y63197D01*
X166139Y63173D01*
X166064Y63145D01*
X165990Y63113D01*
X165917Y63078D01*
X165847Y63039D01*
X165778Y62997D01*
X165711Y62952D01*
X165646Y62904D01*
X165584Y62852D01*
X165525Y62798D01*
X165468Y62741D01*
X165414Y62682D01*
X165362Y62620D01*
X165314Y62555D01*
X165269Y62488D01*
X165227Y62420D01*
X165188Y62349D01*
X165153Y62276D01*
X165121Y62202D01*
X165093Y62127D01*
X165069Y62050D01*
X165048Y61972D01*
X165031Y61893D01*
X165017Y61814D01*
X165008Y61734D01*
X165002Y61654D01*
X165000Y61573D01*
X164999Y61573D02*
X164999Y59880D01*
X164999Y61912D02*
X162290Y63267D01*
X161613Y66314D02*
X161613Y69023D01*
X162290Y73950D02*
X162292Y74023D01*
X162298Y74097D01*
X162308Y74169D01*
X162322Y74241D01*
X162339Y74313D01*
X162361Y74383D01*
X162386Y74452D01*
X162415Y74519D01*
X162448Y74585D01*
X162484Y74649D01*
X162523Y74710D01*
X162566Y74770D01*
X162612Y74827D01*
X162661Y74882D01*
X162713Y74934D01*
X162768Y74983D01*
X162825Y75029D01*
X162885Y75072D01*
X162946Y75111D01*
X163010Y75147D01*
X163076Y75180D01*
X163143Y75209D01*
X163212Y75234D01*
X163283Y75256D01*
X163354Y75273D01*
X163426Y75287D01*
X163499Y75297D01*
X163572Y75303D01*
X163645Y75305D01*
X162290Y73950D02*
X162292Y73847D01*
X162297Y73745D01*
X162307Y73642D01*
X162319Y73541D01*
X162336Y73439D01*
X162356Y73338D01*
X162380Y73239D01*
X162407Y73140D01*
X162438Y73042D01*
X162472Y72945D01*
X162510Y72849D01*
X162551Y72755D01*
X162596Y72663D01*
X162644Y72572D01*
X162695Y72483D01*
X162749Y72395D01*
X162806Y72310D01*
X162867Y72227D01*
X162930Y72146D01*
X162996Y72068D01*
X163065Y71991D01*
X163137Y71918D01*
X167031Y72087D02*
X167102Y72089D01*
X167173Y72094D01*
X167243Y72104D01*
X167313Y72117D01*
X167382Y72133D01*
X167450Y72153D01*
X167517Y72177D01*
X167582Y72204D01*
X167646Y72235D01*
X167709Y72269D01*
X167769Y72306D01*
X167827Y72346D01*
X167884Y72389D01*
X167938Y72435D01*
X167989Y72484D01*
X168038Y72535D01*
X168084Y72589D01*
X168127Y72646D01*
X168167Y72704D01*
X168204Y72765D01*
X168238Y72827D01*
X168269Y72891D01*
X168296Y72956D01*
X168320Y73023D01*
X168340Y73091D01*
X168356Y73160D01*
X168369Y73230D01*
X168379Y73300D01*
X168384Y73371D01*
X168386Y73442D01*
X168384Y73538D01*
X168379Y73634D01*
X168370Y73730D01*
X168357Y73825D01*
X168341Y73920D01*
X168321Y74014D01*
X168297Y74107D01*
X168270Y74199D01*
X168240Y74291D01*
X168206Y74381D01*
X168169Y74469D01*
X168128Y74556D01*
X168085Y74642D01*
X168038Y74726D01*
X167987Y74808D01*
X167934Y74888D01*
X167878Y74966D01*
X165846Y72765D02*
X165883Y72705D01*
X165924Y72646D01*
X165968Y72590D01*
X166015Y72536D01*
X166065Y72485D01*
X166117Y72436D01*
X166171Y72390D01*
X166228Y72347D01*
X166287Y72306D01*
X166348Y72269D01*
X166411Y72235D01*
X166476Y72205D01*
X166542Y72178D01*
X166609Y72154D01*
X166678Y72134D01*
X166747Y72118D01*
X166818Y72105D01*
X166888Y72095D01*
X166960Y72090D01*
X167031Y72088D01*
X164830Y74628D02*
X164793Y74688D01*
X164752Y74747D01*
X164708Y74803D01*
X164661Y74857D01*
X164611Y74908D01*
X164559Y74957D01*
X164505Y75003D01*
X164448Y75047D01*
X164389Y75087D01*
X164328Y75124D01*
X164265Y75158D01*
X164200Y75188D01*
X164134Y75215D01*
X164067Y75239D01*
X163998Y75259D01*
X163929Y75275D01*
X163858Y75288D01*
X163788Y75298D01*
X163716Y75303D01*
X163645Y75305D01*
X164830Y74628D02*
X165846Y72765D01*
X162290Y78800D02*
X162290Y81509D01*
X162290Y78800D02*
X168386Y78800D01*
X168386Y81509D01*
X165677Y80832D02*
X165677Y78800D01*
X168386Y84720D02*
X162290Y84720D01*
X162290Y88107D02*
X168386Y84720D01*
X168386Y88107D02*
X162290Y88107D01*
X162290Y93610D02*
X162292Y93683D01*
X162298Y93757D01*
X162308Y93829D01*
X162322Y93901D01*
X162339Y93973D01*
X162361Y94043D01*
X162386Y94112D01*
X162415Y94179D01*
X162448Y94245D01*
X162484Y94309D01*
X162523Y94370D01*
X162566Y94430D01*
X162612Y94487D01*
X162661Y94542D01*
X162713Y94594D01*
X162768Y94643D01*
X162825Y94689D01*
X162885Y94732D01*
X162946Y94771D01*
X163010Y94807D01*
X163076Y94840D01*
X163143Y94869D01*
X163212Y94894D01*
X163283Y94916D01*
X163354Y94933D01*
X163426Y94947D01*
X163499Y94957D01*
X163572Y94963D01*
X163645Y94965D01*
X162290Y93610D02*
X162292Y93507D01*
X162297Y93405D01*
X162307Y93302D01*
X162319Y93201D01*
X162336Y93099D01*
X162356Y92998D01*
X162380Y92899D01*
X162407Y92800D01*
X162438Y92702D01*
X162472Y92605D01*
X162510Y92509D01*
X162551Y92415D01*
X162596Y92323D01*
X162644Y92232D01*
X162695Y92143D01*
X162749Y92055D01*
X162806Y91970D01*
X162867Y91887D01*
X162930Y91806D01*
X162996Y91728D01*
X163065Y91651D01*
X163137Y91578D01*
X167031Y91747D02*
X167102Y91749D01*
X167173Y91754D01*
X167243Y91764D01*
X167313Y91777D01*
X167382Y91793D01*
X167450Y91813D01*
X167517Y91837D01*
X167582Y91864D01*
X167646Y91895D01*
X167709Y91929D01*
X167769Y91966D01*
X167827Y92006D01*
X167884Y92049D01*
X167938Y92095D01*
X167989Y92144D01*
X168038Y92195D01*
X168084Y92249D01*
X168127Y92306D01*
X168167Y92364D01*
X168204Y92425D01*
X168238Y92487D01*
X168269Y92551D01*
X168296Y92616D01*
X168320Y92683D01*
X168340Y92751D01*
X168356Y92820D01*
X168369Y92890D01*
X168379Y92960D01*
X168384Y93031D01*
X168386Y93102D01*
X168384Y93198D01*
X168379Y93294D01*
X168370Y93390D01*
X168357Y93485D01*
X168341Y93580D01*
X168321Y93674D01*
X168297Y93767D01*
X168270Y93859D01*
X168240Y93951D01*
X168206Y94041D01*
X168169Y94129D01*
X168128Y94216D01*
X168085Y94302D01*
X168038Y94386D01*
X167987Y94468D01*
X167934Y94548D01*
X167878Y94626D01*
X165846Y92424D02*
X165883Y92364D01*
X165924Y92305D01*
X165968Y92249D01*
X166015Y92195D01*
X166065Y92144D01*
X166117Y92095D01*
X166171Y92049D01*
X166228Y92006D01*
X166287Y91965D01*
X166348Y91928D01*
X166411Y91894D01*
X166476Y91864D01*
X166542Y91837D01*
X166609Y91813D01*
X166678Y91793D01*
X166747Y91777D01*
X166818Y91764D01*
X166888Y91754D01*
X166960Y91749D01*
X167031Y91747D01*
X164830Y94288D02*
X164793Y94348D01*
X164752Y94407D01*
X164708Y94463D01*
X164661Y94517D01*
X164611Y94568D01*
X164559Y94617D01*
X164505Y94663D01*
X164448Y94707D01*
X164389Y94747D01*
X164328Y94784D01*
X164265Y94818D01*
X164200Y94848D01*
X164134Y94875D01*
X164067Y94899D01*
X163998Y94919D01*
X163929Y94935D01*
X163858Y94948D01*
X163788Y94958D01*
X163716Y94963D01*
X163645Y94965D01*
X164830Y94287D02*
X165846Y92425D01*
X162290Y98460D02*
X162290Y101169D01*
X162290Y98460D02*
X168386Y98460D01*
X168386Y101169D01*
X165677Y100492D02*
X165677Y98460D01*
D13*
X256954Y292518D02*
X256956Y292589D01*
X256962Y292660D01*
X256972Y292731D01*
X256986Y292801D01*
X257004Y292870D01*
X257025Y292937D01*
X257051Y293004D01*
X257080Y293069D01*
X257112Y293132D01*
X257149Y293194D01*
X257188Y293253D01*
X257231Y293310D01*
X257277Y293364D01*
X257326Y293416D01*
X257378Y293465D01*
X257432Y293511D01*
X257489Y293554D01*
X257548Y293593D01*
X257610Y293630D01*
X257673Y293662D01*
X257738Y293691D01*
X257805Y293717D01*
X257872Y293738D01*
X257941Y293756D01*
X258011Y293770D01*
X258082Y293780D01*
X258153Y293786D01*
X258224Y293788D01*
X258295Y293786D01*
X258366Y293780D01*
X258437Y293770D01*
X258507Y293756D01*
X258576Y293738D01*
X258643Y293717D01*
X258710Y293691D01*
X258775Y293662D01*
X258838Y293630D01*
X258900Y293593D01*
X258959Y293554D01*
X259016Y293511D01*
X259070Y293465D01*
X259122Y293416D01*
X259171Y293364D01*
X259217Y293310D01*
X259260Y293253D01*
X259299Y293194D01*
X259336Y293132D01*
X259368Y293069D01*
X259397Y293004D01*
X259423Y292937D01*
X259444Y292870D01*
X259462Y292801D01*
X259476Y292731D01*
X259486Y292660D01*
X259492Y292589D01*
X259494Y292518D01*
X259492Y292447D01*
X259486Y292376D01*
X259476Y292305D01*
X259462Y292235D01*
X259444Y292166D01*
X259423Y292099D01*
X259397Y292032D01*
X259368Y291967D01*
X259336Y291904D01*
X259299Y291842D01*
X259260Y291783D01*
X259217Y291726D01*
X259171Y291672D01*
X259122Y291620D01*
X259070Y291571D01*
X259016Y291525D01*
X258959Y291482D01*
X258900Y291443D01*
X258838Y291406D01*
X258775Y291374D01*
X258710Y291345D01*
X258643Y291319D01*
X258576Y291298D01*
X258507Y291280D01*
X258437Y291266D01*
X258366Y291256D01*
X258295Y291250D01*
X258224Y291248D01*
X258153Y291250D01*
X258082Y291256D01*
X258011Y291266D01*
X257941Y291280D01*
X257872Y291298D01*
X257805Y291319D01*
X257738Y291345D01*
X257673Y291374D01*
X257610Y291406D01*
X257548Y291443D01*
X257489Y291482D01*
X257432Y291525D01*
X257378Y291571D01*
X257326Y291620D01*
X257277Y291672D01*
X257231Y291726D01*
X257188Y291783D01*
X257149Y291842D01*
X257112Y291904D01*
X257080Y291967D01*
X257051Y292032D01*
X257025Y292099D01*
X257004Y292166D01*
X256986Y292235D01*
X256972Y292305D01*
X256962Y292376D01*
X256956Y292447D01*
X256954Y292518D01*
D14*
X333544Y295298D02*
X333544Y300798D01*
X333544Y295298D02*
X328044Y295298D01*
X333544Y361798D02*
X333544Y367298D01*
X328044Y367298D01*
X267044Y295298D02*
X261544Y295298D01*
X261544Y300798D01*
X261544Y367298D02*
X267044Y367298D01*
X261544Y367298D02*
X261544Y361798D01*
D15*
X276289Y243085D02*
X275289Y241085D01*
X276289Y243085D02*
X274289Y243085D01*
X275289Y241085D01*
D14*
X272589Y240835D02*
X287989Y240835D01*
X287989Y230335D01*
X272589Y230335D01*
X272589Y240835D01*
D15*
X226885Y333368D02*
X227885Y335368D01*
X226885Y333368D02*
X228885Y333368D01*
X227885Y335368D01*
D14*
X230585Y335618D02*
X215185Y335618D01*
X215185Y346118D01*
X230585Y346118D01*
X230585Y335618D01*
D10*
X188468Y318643D02*
X170180Y318643D01*
X170180Y287147D02*
X188468Y287147D01*
D11*
X164557Y284917D02*
X164557Y280938D01*
X164557Y284917D02*
X166878Y287902D01*
X164557Y284917D02*
X162235Y287902D01*
X164557Y284917D02*
X168204Y283591D01*
X164557Y284917D02*
X160909Y283591D01*
D15*
X333368Y237554D02*
X335368Y236554D01*
X333368Y237554D02*
X333368Y235554D01*
X335368Y236554D01*
D14*
X335618Y233854D02*
X335618Y249254D01*
X346118Y249254D01*
X346118Y233854D01*
X335618Y233854D01*
X140100Y209548D02*
X139997Y209546D01*
X139894Y209540D01*
X139791Y209531D01*
X139688Y209518D01*
X139586Y209501D01*
X139485Y209480D01*
X139385Y209456D01*
X139285Y209428D01*
X139187Y209397D01*
X139090Y209361D01*
X138994Y209323D01*
X138900Y209281D01*
X138807Y209235D01*
X138716Y209186D01*
X138627Y209134D01*
X138540Y209079D01*
X138455Y209020D01*
X138372Y208958D01*
X138291Y208894D01*
X138213Y208826D01*
X138137Y208756D01*
X138064Y208683D01*
X137994Y208607D01*
X137926Y208529D01*
X137862Y208448D01*
X137800Y208365D01*
X137741Y208280D01*
X137686Y208193D01*
X137634Y208104D01*
X137585Y208013D01*
X137539Y207920D01*
X137497Y207826D01*
X137459Y207730D01*
X137423Y207633D01*
X137392Y207535D01*
X137364Y207435D01*
X137340Y207335D01*
X137319Y207234D01*
X137302Y207132D01*
X137289Y207029D01*
X137280Y206926D01*
X137274Y206823D01*
X137272Y206720D01*
X137272Y180376D01*
X137274Y180273D01*
X137280Y180170D01*
X137289Y180067D01*
X137302Y179964D01*
X137319Y179862D01*
X137340Y179761D01*
X137364Y179661D01*
X137392Y179561D01*
X137423Y179463D01*
X137459Y179366D01*
X137497Y179270D01*
X137539Y179176D01*
X137585Y179083D01*
X137634Y178992D01*
X137686Y178903D01*
X137741Y178816D01*
X137800Y178731D01*
X137862Y178648D01*
X137926Y178567D01*
X137994Y178489D01*
X138064Y178413D01*
X138137Y178340D01*
X138213Y178270D01*
X138291Y178202D01*
X138372Y178138D01*
X138455Y178076D01*
X138540Y178017D01*
X138627Y177962D01*
X138716Y177910D01*
X138807Y177861D01*
X138900Y177815D01*
X138994Y177773D01*
X139090Y177735D01*
X139187Y177699D01*
X139285Y177668D01*
X139385Y177640D01*
X139485Y177616D01*
X139586Y177595D01*
X139688Y177578D01*
X139791Y177565D01*
X139894Y177556D01*
X139997Y177550D01*
X140100Y177548D01*
X149036Y177548D01*
X149128Y177550D01*
X149221Y177556D01*
X149313Y177565D01*
X149404Y177578D01*
X149495Y177596D01*
X149585Y177616D01*
X149674Y177641D01*
X149762Y177669D01*
X149849Y177701D01*
X149934Y177736D01*
X150018Y177775D01*
X150100Y177817D01*
X150181Y177863D01*
X150259Y177912D01*
X150335Y177964D01*
X150409Y178019D01*
X150481Y178078D01*
X150550Y178139D01*
X150617Y178203D01*
X150681Y178270D01*
X150742Y178339D01*
X150801Y178411D01*
X150856Y178485D01*
X150908Y178561D01*
X150957Y178639D01*
X151003Y178720D01*
X151045Y178802D01*
X151084Y178886D01*
X151119Y178971D01*
X151151Y179058D01*
X151179Y179146D01*
X151204Y179235D01*
X151224Y179325D01*
X151242Y179416D01*
X151255Y179507D01*
X151264Y179599D01*
X151270Y179692D01*
X151272Y179784D01*
X151272Y206386D01*
X151270Y206496D01*
X151264Y206607D01*
X151255Y206717D01*
X151241Y206826D01*
X151224Y206935D01*
X151203Y207043D01*
X151178Y207151D01*
X151150Y207258D01*
X151117Y207363D01*
X151081Y207467D01*
X151042Y207571D01*
X150999Y207672D01*
X150952Y207772D01*
X150902Y207870D01*
X150848Y207967D01*
X150792Y208062D01*
X150731Y208154D01*
X150668Y208245D01*
X150602Y208333D01*
X150532Y208418D01*
X150460Y208502D01*
X150385Y208583D01*
X150307Y208661D01*
X150226Y208736D01*
X150142Y208808D01*
X150057Y208878D01*
X149969Y208944D01*
X149878Y209007D01*
X149786Y209068D01*
X149691Y209124D01*
X149594Y209178D01*
X149496Y209228D01*
X149396Y209275D01*
X149295Y209318D01*
X149191Y209357D01*
X149087Y209393D01*
X148982Y209426D01*
X148875Y209454D01*
X148767Y209479D01*
X148659Y209500D01*
X148550Y209517D01*
X148441Y209531D01*
X148331Y209540D01*
X148220Y209546D01*
X148110Y209548D01*
X140100Y209548D01*
X148272Y203548D02*
X148272Y182548D01*
X148272Y203548D02*
X148270Y203655D01*
X148264Y203762D01*
X148255Y203869D01*
X148241Y203975D01*
X148224Y204081D01*
X148203Y204186D01*
X148179Y204290D01*
X148150Y204393D01*
X148118Y204495D01*
X148083Y204596D01*
X148043Y204696D01*
X148001Y204794D01*
X147954Y204891D01*
X147905Y204986D01*
X147852Y205079D01*
X147795Y205170D01*
X147736Y205259D01*
X147673Y205346D01*
X147608Y205430D01*
X147539Y205512D01*
X147467Y205592D01*
X147393Y205669D01*
X147316Y205743D01*
X147236Y205815D01*
X147154Y205884D01*
X147070Y205949D01*
X146983Y206012D01*
X146894Y206071D01*
X146803Y206128D01*
X146710Y206181D01*
X146615Y206230D01*
X146518Y206277D01*
X146420Y206319D01*
X146320Y206359D01*
X146219Y206394D01*
X146117Y206426D01*
X146014Y206455D01*
X145910Y206479D01*
X145805Y206500D01*
X145699Y206517D01*
X145593Y206531D01*
X145486Y206540D01*
X145379Y206546D01*
X145272Y206548D01*
X143272Y206548D01*
X143165Y206546D01*
X143058Y206540D01*
X142951Y206531D01*
X142845Y206517D01*
X142739Y206500D01*
X142634Y206479D01*
X142530Y206455D01*
X142427Y206426D01*
X142325Y206394D01*
X142224Y206359D01*
X142124Y206320D01*
X142026Y206277D01*
X141929Y206231D01*
X141834Y206181D01*
X141741Y206128D01*
X141650Y206072D01*
X141561Y206012D01*
X141474Y205950D01*
X141390Y205884D01*
X141307Y205815D01*
X141228Y205744D01*
X141151Y205669D01*
X141076Y205592D01*
X141005Y205513D01*
X140936Y205430D01*
X140870Y205346D01*
X140808Y205259D01*
X140748Y205170D01*
X140692Y205079D01*
X140639Y204986D01*
X140589Y204891D01*
X140543Y204794D01*
X140500Y204696D01*
X140461Y204596D01*
X140426Y204495D01*
X140394Y204393D01*
X140365Y204290D01*
X140341Y204186D01*
X140320Y204081D01*
X140303Y203975D01*
X140289Y203869D01*
X140280Y203762D01*
X140274Y203655D01*
X140272Y203548D01*
X140272Y183548D01*
X140254Y183450D01*
X140240Y183350D01*
X140230Y183251D01*
X140224Y183151D01*
X140222Y183051D01*
X140224Y182951D01*
X140230Y182851D01*
X140239Y182751D01*
X140253Y182652D01*
X140270Y182553D01*
X140292Y182455D01*
X140317Y182358D01*
X140346Y182263D01*
X140379Y182168D01*
X140415Y182075D01*
X140455Y181983D01*
X140499Y181893D01*
X140546Y181804D01*
X140596Y181718D01*
X140650Y181634D01*
X140707Y181551D01*
X140768Y181471D01*
X140831Y181394D01*
X140898Y181319D01*
X140967Y181247D01*
X141039Y181177D01*
X141114Y181111D01*
X141191Y181047D01*
X141271Y180987D01*
X141353Y180929D01*
X141437Y180875D01*
X141524Y180824D01*
X141612Y180777D01*
X141702Y180733D01*
X141794Y180693D01*
X141887Y180657D01*
X141981Y180624D01*
X142077Y180594D01*
X142174Y180569D01*
X142272Y180548D01*
X145272Y180548D01*
X145371Y180530D01*
X145470Y180516D01*
X145570Y180506D01*
X145670Y180500D01*
X145770Y180498D01*
X145870Y180500D01*
X145970Y180506D01*
X146069Y180515D01*
X146169Y180529D01*
X146267Y180546D01*
X146365Y180568D01*
X146462Y180593D01*
X146558Y180622D01*
X146653Y180655D01*
X146746Y180691D01*
X146838Y180731D01*
X146928Y180775D01*
X147016Y180822D01*
X147103Y180872D01*
X147187Y180926D01*
X147269Y180983D01*
X147349Y181044D01*
X147427Y181107D01*
X147501Y181174D01*
X147574Y181243D01*
X147643Y181315D01*
X147710Y181390D01*
X147773Y181467D01*
X147834Y181547D01*
X147891Y181629D01*
X147945Y181713D01*
X147996Y181800D01*
X148043Y181888D01*
X148087Y181978D01*
X148127Y182070D01*
X148164Y182163D01*
X148197Y182257D01*
X148226Y182353D01*
X148251Y182450D01*
X148273Y182548D01*
X246570Y279574D02*
X246673Y279576D01*
X246776Y279582D01*
X246879Y279591D01*
X246982Y279604D01*
X247084Y279621D01*
X247185Y279642D01*
X247285Y279666D01*
X247385Y279694D01*
X247483Y279725D01*
X247580Y279761D01*
X247676Y279799D01*
X247770Y279841D01*
X247863Y279887D01*
X247954Y279936D01*
X248043Y279988D01*
X248130Y280043D01*
X248215Y280102D01*
X248298Y280164D01*
X248379Y280228D01*
X248457Y280296D01*
X248533Y280366D01*
X248606Y280439D01*
X248676Y280515D01*
X248744Y280593D01*
X248808Y280674D01*
X248870Y280757D01*
X248929Y280842D01*
X248984Y280929D01*
X249036Y281018D01*
X249085Y281109D01*
X249131Y281202D01*
X249173Y281296D01*
X249211Y281392D01*
X249247Y281489D01*
X249278Y281587D01*
X249306Y281687D01*
X249330Y281787D01*
X249351Y281888D01*
X249368Y281990D01*
X249381Y282093D01*
X249390Y282196D01*
X249396Y282299D01*
X249398Y282402D01*
X249398Y308746D01*
X249396Y308849D01*
X249390Y308952D01*
X249381Y309055D01*
X249368Y309158D01*
X249351Y309260D01*
X249330Y309361D01*
X249306Y309461D01*
X249278Y309561D01*
X249247Y309659D01*
X249211Y309756D01*
X249173Y309852D01*
X249131Y309946D01*
X249085Y310039D01*
X249036Y310130D01*
X248984Y310219D01*
X248929Y310306D01*
X248870Y310391D01*
X248808Y310474D01*
X248744Y310555D01*
X248676Y310633D01*
X248606Y310709D01*
X248533Y310782D01*
X248457Y310852D01*
X248379Y310920D01*
X248298Y310984D01*
X248215Y311046D01*
X248130Y311105D01*
X248043Y311160D01*
X247954Y311212D01*
X247863Y311261D01*
X247770Y311307D01*
X247676Y311349D01*
X247580Y311387D01*
X247483Y311423D01*
X247385Y311454D01*
X247285Y311482D01*
X247185Y311506D01*
X247084Y311527D01*
X246982Y311544D01*
X246879Y311557D01*
X246776Y311566D01*
X246673Y311572D01*
X246570Y311574D01*
X237634Y311574D01*
X237542Y311572D01*
X237449Y311566D01*
X237357Y311557D01*
X237266Y311544D01*
X237175Y311526D01*
X237085Y311506D01*
X236996Y311481D01*
X236908Y311453D01*
X236821Y311421D01*
X236736Y311386D01*
X236652Y311347D01*
X236570Y311305D01*
X236489Y311259D01*
X236411Y311210D01*
X236335Y311158D01*
X236261Y311103D01*
X236189Y311044D01*
X236120Y310983D01*
X236053Y310919D01*
X235989Y310852D01*
X235928Y310783D01*
X235869Y310711D01*
X235814Y310637D01*
X235762Y310561D01*
X235713Y310483D01*
X235667Y310402D01*
X235625Y310320D01*
X235586Y310236D01*
X235551Y310151D01*
X235519Y310064D01*
X235491Y309976D01*
X235466Y309887D01*
X235446Y309797D01*
X235428Y309706D01*
X235415Y309615D01*
X235406Y309523D01*
X235400Y309430D01*
X235398Y309338D01*
X235398Y282736D01*
X235400Y282626D01*
X235406Y282515D01*
X235415Y282405D01*
X235429Y282296D01*
X235446Y282187D01*
X235467Y282079D01*
X235492Y281971D01*
X235520Y281864D01*
X235553Y281759D01*
X235589Y281655D01*
X235628Y281551D01*
X235671Y281450D01*
X235718Y281350D01*
X235768Y281252D01*
X235822Y281155D01*
X235878Y281060D01*
X235939Y280968D01*
X236002Y280877D01*
X236068Y280789D01*
X236138Y280704D01*
X236210Y280620D01*
X236285Y280539D01*
X236363Y280461D01*
X236444Y280386D01*
X236528Y280314D01*
X236613Y280244D01*
X236701Y280178D01*
X236792Y280115D01*
X236884Y280054D01*
X236979Y279998D01*
X237076Y279944D01*
X237174Y279894D01*
X237274Y279847D01*
X237375Y279804D01*
X237479Y279765D01*
X237583Y279729D01*
X237688Y279696D01*
X237795Y279668D01*
X237903Y279643D01*
X238011Y279622D01*
X238120Y279605D01*
X238229Y279591D01*
X238339Y279582D01*
X238450Y279576D01*
X238560Y279574D01*
X246570Y279574D01*
X238398Y285574D02*
X238398Y306574D01*
X238398Y285574D02*
X238400Y285467D01*
X238406Y285360D01*
X238415Y285253D01*
X238429Y285147D01*
X238446Y285041D01*
X238467Y284936D01*
X238491Y284832D01*
X238520Y284729D01*
X238552Y284627D01*
X238587Y284526D01*
X238627Y284426D01*
X238669Y284328D01*
X238716Y284231D01*
X238765Y284136D01*
X238818Y284043D01*
X238875Y283952D01*
X238934Y283863D01*
X238997Y283776D01*
X239062Y283692D01*
X239131Y283610D01*
X239203Y283530D01*
X239277Y283453D01*
X239354Y283379D01*
X239434Y283307D01*
X239516Y283238D01*
X239600Y283173D01*
X239687Y283110D01*
X239776Y283051D01*
X239867Y282994D01*
X239960Y282941D01*
X240055Y282892D01*
X240152Y282845D01*
X240250Y282803D01*
X240350Y282763D01*
X240451Y282728D01*
X240553Y282696D01*
X240656Y282667D01*
X240760Y282643D01*
X240865Y282622D01*
X240971Y282605D01*
X241077Y282591D01*
X241184Y282582D01*
X241291Y282576D01*
X241398Y282574D01*
X243398Y282574D01*
X243505Y282576D01*
X243612Y282582D01*
X243719Y282591D01*
X243825Y282605D01*
X243931Y282622D01*
X244036Y282643D01*
X244140Y282667D01*
X244243Y282696D01*
X244345Y282728D01*
X244446Y282763D01*
X244546Y282802D01*
X244644Y282845D01*
X244741Y282891D01*
X244836Y282941D01*
X244929Y282994D01*
X245020Y283050D01*
X245109Y283110D01*
X245196Y283172D01*
X245280Y283238D01*
X245363Y283307D01*
X245442Y283378D01*
X245519Y283453D01*
X245594Y283530D01*
X245665Y283609D01*
X245734Y283692D01*
X245800Y283776D01*
X245862Y283863D01*
X245922Y283952D01*
X245978Y284043D01*
X246031Y284136D01*
X246081Y284231D01*
X246127Y284328D01*
X246170Y284426D01*
X246209Y284526D01*
X246244Y284627D01*
X246276Y284729D01*
X246305Y284832D01*
X246329Y284936D01*
X246350Y285041D01*
X246367Y285147D01*
X246381Y285253D01*
X246390Y285360D01*
X246396Y285467D01*
X246398Y285574D01*
X246398Y305574D01*
X246416Y305672D01*
X246430Y305772D01*
X246440Y305871D01*
X246446Y305971D01*
X246448Y306071D01*
X246446Y306171D01*
X246440Y306271D01*
X246431Y306371D01*
X246417Y306470D01*
X246400Y306569D01*
X246378Y306667D01*
X246353Y306764D01*
X246324Y306859D01*
X246291Y306954D01*
X246255Y307047D01*
X246215Y307139D01*
X246171Y307229D01*
X246124Y307318D01*
X246074Y307404D01*
X246020Y307488D01*
X245963Y307571D01*
X245902Y307651D01*
X245839Y307728D01*
X245772Y307803D01*
X245703Y307875D01*
X245631Y307945D01*
X245556Y308011D01*
X245479Y308075D01*
X245399Y308135D01*
X245317Y308193D01*
X245233Y308247D01*
X245146Y308298D01*
X245058Y308345D01*
X244968Y308389D01*
X244876Y308429D01*
X244783Y308465D01*
X244689Y308498D01*
X244593Y308528D01*
X244496Y308553D01*
X244398Y308574D01*
X241398Y308574D01*
X241299Y308592D01*
X241200Y308606D01*
X241100Y308616D01*
X241000Y308622D01*
X240900Y308624D01*
X240800Y308622D01*
X240700Y308616D01*
X240601Y308607D01*
X240501Y308593D01*
X240403Y308576D01*
X240305Y308554D01*
X240208Y308529D01*
X240112Y308500D01*
X240017Y308467D01*
X239924Y308431D01*
X239832Y308391D01*
X239742Y308347D01*
X239654Y308300D01*
X239567Y308250D01*
X239483Y308196D01*
X239401Y308139D01*
X239321Y308078D01*
X239243Y308015D01*
X239169Y307948D01*
X239096Y307879D01*
X239027Y307807D01*
X238960Y307732D01*
X238897Y307655D01*
X238836Y307575D01*
X238779Y307493D01*
X238725Y307409D01*
X238674Y307322D01*
X238627Y307234D01*
X238583Y307144D01*
X238543Y307052D01*
X238506Y306959D01*
X238473Y306865D01*
X238444Y306769D01*
X238419Y306672D01*
X238397Y306574D01*
D16*
X352506Y224200D02*
X352506Y210200D01*
X352506Y224200D02*
X378506Y224200D01*
X378506Y182200D02*
X352506Y182200D01*
X352506Y196200D01*
X378506Y210200D02*
X378506Y224200D01*
X378506Y196200D02*
X378506Y182200D01*
X351506Y210200D02*
X351506Y223200D01*
X351506Y196200D02*
X351506Y183200D01*
X350506Y210200D02*
X350506Y224200D01*
X350506Y196200D02*
X350506Y182200D01*
X350506Y224200D02*
X352506Y224200D01*
X352506Y210200D02*
X350506Y210200D01*
X350506Y196200D02*
X352506Y196200D01*
X352506Y182200D02*
X350506Y182200D01*
D10*
X137287Y95250D02*
X137287Y78994D01*
X112903Y78994D02*
X112903Y95250D01*
D11*
X111689Y101381D02*
X107710Y101381D01*
X111689Y101381D02*
X114674Y99060D01*
X111689Y101381D02*
X114674Y103703D01*
X111689Y101381D02*
X110363Y97734D01*
X111689Y101381D02*
X110363Y105029D01*
D15*
X180809Y398606D02*
X178809Y399606D01*
X178809Y397606D01*
X180809Y398606D01*
D14*
X181059Y395906D02*
X181059Y411306D01*
X191559Y411306D01*
X191559Y395906D01*
X181059Y395906D01*
D17*
X152137Y54871D02*
X152137Y50507D01*
X152139Y50437D01*
X152145Y50367D01*
X152155Y50298D01*
X152168Y50230D01*
X152186Y50162D01*
X152207Y50095D01*
X152232Y50030D01*
X152260Y49966D01*
X152293Y49904D01*
X152328Y49844D01*
X152367Y49785D01*
X152409Y49730D01*
X152454Y49676D01*
X152502Y49625D01*
X152553Y49577D01*
X152607Y49532D01*
X152662Y49490D01*
X152721Y49451D01*
X152781Y49416D01*
X152843Y49383D01*
X152907Y49355D01*
X152972Y49330D01*
X153039Y49309D01*
X153107Y49291D01*
X153175Y49278D01*
X153244Y49268D01*
X153314Y49262D01*
X153384Y49260D01*
X153384Y49261D02*
X154007Y49261D01*
X149587Y53624D02*
X148029Y54871D01*
X148029Y49261D01*
X149587Y49261D02*
X146471Y49261D01*
D18*
X99300Y385050D02*
X99300Y390050D01*
X99300Y385050D02*
X104300Y385050D01*
X124300Y385050D02*
X129300Y385050D01*
X129300Y390050D01*
X99300Y410050D02*
X99300Y415050D01*
X104300Y415050D01*
X124300Y415050D02*
X129300Y415050D01*
X129300Y410050D01*
D15*
X93378Y386296D02*
X93378Y382402D01*
X91106Y379481D01*
X93378Y382402D02*
X95650Y379481D01*
X93378Y382402D02*
X89808Y383700D01*
X93378Y382402D02*
X96948Y383700D01*
D19*
X85041Y399272D02*
X84420Y399272D01*
X85041Y399272D02*
X85090Y399274D01*
X85138Y399280D01*
X85186Y399289D01*
X85233Y399302D01*
X85279Y399319D01*
X85323Y399340D01*
X85365Y399364D01*
X85406Y399391D01*
X85444Y399421D01*
X85480Y399454D01*
X85513Y399490D01*
X85543Y399528D01*
X85570Y399569D01*
X85594Y399611D01*
X85615Y399655D01*
X85632Y399701D01*
X85645Y399748D01*
X85654Y399796D01*
X85660Y399844D01*
X85662Y399893D01*
X85662Y401445D01*
X85660Y401494D01*
X85654Y401542D01*
X85645Y401590D01*
X85632Y401637D01*
X85615Y401683D01*
X85594Y401727D01*
X85570Y401769D01*
X85543Y401810D01*
X85513Y401848D01*
X85480Y401884D01*
X85444Y401917D01*
X85406Y401947D01*
X85365Y401974D01*
X85323Y401998D01*
X85279Y402019D01*
X85233Y402036D01*
X85186Y402049D01*
X85138Y402058D01*
X85090Y402064D01*
X85041Y402066D01*
X84420Y402066D01*
X82514Y402067D02*
X82464Y402065D01*
X82415Y402060D01*
X82365Y402051D01*
X82317Y402039D01*
X82270Y402023D01*
X82224Y402004D01*
X82179Y401981D01*
X82136Y401956D01*
X82095Y401928D01*
X82056Y401896D01*
X82020Y401862D01*
X81986Y401826D01*
X81954Y401787D01*
X81926Y401746D01*
X81901Y401703D01*
X81878Y401658D01*
X81859Y401612D01*
X81843Y401565D01*
X81831Y401517D01*
X81822Y401467D01*
X81817Y401418D01*
X81815Y401368D01*
X82514Y402066D02*
X82570Y402064D01*
X82627Y402059D01*
X82682Y402050D01*
X82737Y402038D01*
X82791Y402022D01*
X82844Y402003D01*
X82896Y401980D01*
X82946Y401955D01*
X82995Y401926D01*
X83042Y401894D01*
X83086Y401860D01*
X83128Y401823D01*
X83168Y401783D01*
X83206Y401740D01*
X83240Y401696D01*
X83272Y401649D01*
X83300Y401600D01*
X83326Y401550D01*
X83348Y401498D01*
X83367Y401445D01*
X82049Y400825D02*
X82013Y400861D01*
X81980Y400899D01*
X81950Y400940D01*
X81923Y400982D01*
X81898Y401027D01*
X81877Y401073D01*
X81858Y401120D01*
X81843Y401168D01*
X81831Y401217D01*
X81823Y401267D01*
X81818Y401317D01*
X81816Y401368D01*
X82049Y400824D02*
X83368Y399272D01*
X81816Y399272D01*
X80625Y401756D02*
X80625Y402066D01*
X79072Y402066D01*
X79849Y399272D01*
X94072Y413877D02*
X94693Y413877D01*
X94742Y413879D01*
X94790Y413885D01*
X94838Y413894D01*
X94885Y413907D01*
X94931Y413924D01*
X94975Y413945D01*
X95017Y413969D01*
X95058Y413996D01*
X95096Y414026D01*
X95132Y414059D01*
X95165Y414095D01*
X95195Y414133D01*
X95222Y414174D01*
X95246Y414216D01*
X95267Y414260D01*
X95284Y414306D01*
X95297Y414353D01*
X95306Y414401D01*
X95312Y414449D01*
X95314Y414498D01*
X95314Y416050D01*
X95312Y416099D01*
X95306Y416147D01*
X95297Y416195D01*
X95284Y416242D01*
X95267Y416288D01*
X95246Y416332D01*
X95222Y416374D01*
X95195Y416415D01*
X95165Y416453D01*
X95132Y416489D01*
X95096Y416522D01*
X95058Y416552D01*
X95017Y416579D01*
X94975Y416603D01*
X94931Y416624D01*
X94885Y416641D01*
X94838Y416654D01*
X94790Y416663D01*
X94742Y416669D01*
X94693Y416671D01*
X94072Y416671D01*
X92166Y416672D02*
X92116Y416670D01*
X92067Y416665D01*
X92017Y416656D01*
X91969Y416644D01*
X91922Y416628D01*
X91876Y416609D01*
X91831Y416586D01*
X91788Y416561D01*
X91747Y416533D01*
X91708Y416501D01*
X91672Y416467D01*
X91638Y416431D01*
X91606Y416392D01*
X91578Y416351D01*
X91553Y416308D01*
X91530Y416263D01*
X91511Y416217D01*
X91495Y416170D01*
X91483Y416122D01*
X91474Y416072D01*
X91469Y416023D01*
X91467Y415973D01*
X92166Y416671D02*
X92222Y416669D01*
X92279Y416664D01*
X92334Y416655D01*
X92389Y416643D01*
X92443Y416627D01*
X92496Y416608D01*
X92548Y416585D01*
X92598Y416560D01*
X92647Y416531D01*
X92694Y416499D01*
X92738Y416465D01*
X92780Y416428D01*
X92820Y416388D01*
X92858Y416345D01*
X92892Y416301D01*
X92924Y416254D01*
X92952Y416205D01*
X92978Y416155D01*
X93000Y416103D01*
X93019Y416050D01*
X91701Y415430D02*
X91665Y415466D01*
X91632Y415504D01*
X91602Y415545D01*
X91575Y415587D01*
X91550Y415632D01*
X91529Y415678D01*
X91510Y415725D01*
X91495Y415773D01*
X91483Y415822D01*
X91475Y415872D01*
X91470Y415922D01*
X91468Y415973D01*
X91701Y415429D02*
X93020Y413877D01*
X91468Y413877D01*
X90277Y414653D02*
X90275Y414708D01*
X90269Y414763D01*
X90259Y414818D01*
X90246Y414872D01*
X90228Y414924D01*
X90207Y414975D01*
X90182Y415025D01*
X90154Y415073D01*
X90122Y415118D01*
X90087Y415161D01*
X90050Y415202D01*
X90009Y415239D01*
X89966Y415274D01*
X89921Y415306D01*
X89873Y415334D01*
X89823Y415359D01*
X89772Y415380D01*
X89720Y415398D01*
X89666Y415411D01*
X89611Y415421D01*
X89556Y415427D01*
X89501Y415429D01*
X89446Y415427D01*
X89391Y415421D01*
X89336Y415411D01*
X89282Y415398D01*
X89230Y415380D01*
X89179Y415359D01*
X89129Y415334D01*
X89081Y415306D01*
X89036Y415274D01*
X88993Y415239D01*
X88952Y415202D01*
X88915Y415161D01*
X88880Y415118D01*
X88848Y415073D01*
X88820Y415025D01*
X88795Y414975D01*
X88774Y414924D01*
X88756Y414872D01*
X88743Y414818D01*
X88733Y414763D01*
X88727Y414708D01*
X88725Y414653D01*
X88727Y414598D01*
X88733Y414543D01*
X88743Y414488D01*
X88756Y414434D01*
X88774Y414382D01*
X88795Y414331D01*
X88820Y414281D01*
X88848Y414233D01*
X88880Y414188D01*
X88915Y414145D01*
X88952Y414104D01*
X88993Y414067D01*
X89036Y414032D01*
X89081Y414000D01*
X89129Y413972D01*
X89179Y413947D01*
X89230Y413926D01*
X89282Y413908D01*
X89336Y413895D01*
X89391Y413885D01*
X89446Y413879D01*
X89501Y413877D01*
X89556Y413879D01*
X89611Y413885D01*
X89666Y413895D01*
X89720Y413908D01*
X89772Y413926D01*
X89823Y413947D01*
X89873Y413972D01*
X89921Y414000D01*
X89966Y414032D01*
X90009Y414067D01*
X90050Y414104D01*
X90087Y414145D01*
X90122Y414188D01*
X90154Y414233D01*
X90182Y414281D01*
X90207Y414331D01*
X90228Y414382D01*
X90246Y414434D01*
X90259Y414488D01*
X90269Y414543D01*
X90275Y414598D01*
X90277Y414653D01*
X90122Y416050D02*
X90120Y416099D01*
X90114Y416147D01*
X90105Y416195D01*
X90092Y416242D01*
X90075Y416288D01*
X90054Y416332D01*
X90030Y416374D01*
X90003Y416415D01*
X89973Y416453D01*
X89940Y416489D01*
X89904Y416522D01*
X89866Y416552D01*
X89825Y416579D01*
X89783Y416603D01*
X89739Y416624D01*
X89693Y416641D01*
X89646Y416654D01*
X89598Y416663D01*
X89550Y416669D01*
X89501Y416671D01*
X89452Y416669D01*
X89404Y416663D01*
X89356Y416654D01*
X89309Y416641D01*
X89263Y416624D01*
X89219Y416603D01*
X89177Y416579D01*
X89136Y416552D01*
X89098Y416522D01*
X89062Y416489D01*
X89029Y416453D01*
X88999Y416415D01*
X88972Y416374D01*
X88948Y416332D01*
X88927Y416288D01*
X88910Y416242D01*
X88897Y416195D01*
X88888Y416147D01*
X88882Y416099D01*
X88880Y416050D01*
X88882Y416001D01*
X88888Y415953D01*
X88897Y415905D01*
X88910Y415858D01*
X88927Y415812D01*
X88948Y415768D01*
X88972Y415726D01*
X88999Y415685D01*
X89029Y415647D01*
X89062Y415611D01*
X89098Y415578D01*
X89136Y415548D01*
X89177Y415521D01*
X89219Y415497D01*
X89263Y415476D01*
X89309Y415459D01*
X89356Y415446D01*
X89404Y415437D01*
X89452Y415431D01*
X89501Y415429D01*
X89550Y415431D01*
X89598Y415437D01*
X89646Y415446D01*
X89693Y415459D01*
X89739Y415476D01*
X89783Y415497D01*
X89825Y415521D01*
X89866Y415548D01*
X89904Y415578D01*
X89940Y415611D01*
X89973Y415647D01*
X90003Y415685D01*
X90030Y415726D01*
X90054Y415768D01*
X90075Y415812D01*
X90092Y415858D01*
X90105Y415905D01*
X90114Y415953D01*
X90120Y416001D01*
X90122Y416050D01*
X144603Y404257D02*
X145224Y404257D01*
X145273Y404259D01*
X145321Y404265D01*
X145369Y404274D01*
X145416Y404287D01*
X145462Y404304D01*
X145506Y404325D01*
X145548Y404349D01*
X145589Y404376D01*
X145627Y404406D01*
X145663Y404439D01*
X145696Y404475D01*
X145726Y404513D01*
X145753Y404554D01*
X145777Y404596D01*
X145798Y404640D01*
X145815Y404686D01*
X145828Y404733D01*
X145837Y404781D01*
X145843Y404829D01*
X145845Y404878D01*
X145845Y406430D01*
X145843Y406479D01*
X145837Y406527D01*
X145828Y406575D01*
X145815Y406622D01*
X145798Y406668D01*
X145777Y406712D01*
X145753Y406754D01*
X145726Y406795D01*
X145696Y406833D01*
X145663Y406869D01*
X145627Y406902D01*
X145589Y406932D01*
X145548Y406959D01*
X145506Y406983D01*
X145462Y407004D01*
X145416Y407021D01*
X145369Y407034D01*
X145321Y407043D01*
X145273Y407049D01*
X145224Y407051D01*
X144603Y407051D01*
X143550Y404257D02*
X142774Y404257D01*
X142719Y404259D01*
X142664Y404265D01*
X142609Y404275D01*
X142555Y404288D01*
X142503Y404306D01*
X142452Y404327D01*
X142402Y404352D01*
X142354Y404380D01*
X142309Y404412D01*
X142266Y404447D01*
X142225Y404484D01*
X142188Y404525D01*
X142153Y404568D01*
X142121Y404613D01*
X142093Y404661D01*
X142068Y404711D01*
X142047Y404762D01*
X142029Y404814D01*
X142016Y404868D01*
X142006Y404923D01*
X142000Y404978D01*
X141998Y405033D01*
X142000Y405088D01*
X142006Y405143D01*
X142016Y405198D01*
X142029Y405252D01*
X142047Y405304D01*
X142068Y405355D01*
X142093Y405405D01*
X142121Y405453D01*
X142153Y405498D01*
X142188Y405541D01*
X142225Y405582D01*
X142266Y405619D01*
X142309Y405654D01*
X142354Y405686D01*
X142402Y405714D01*
X142452Y405739D01*
X142503Y405760D01*
X142555Y405778D01*
X142609Y405791D01*
X142664Y405801D01*
X142719Y405807D01*
X142774Y405809D01*
X142619Y407051D02*
X143550Y407051D01*
X142619Y407051D02*
X142570Y407049D01*
X142522Y407043D01*
X142474Y407034D01*
X142427Y407021D01*
X142381Y407004D01*
X142337Y406983D01*
X142295Y406959D01*
X142254Y406932D01*
X142216Y406902D01*
X142180Y406869D01*
X142147Y406833D01*
X142117Y406795D01*
X142090Y406754D01*
X142066Y406712D01*
X142045Y406668D01*
X142028Y406622D01*
X142015Y406575D01*
X142006Y406527D01*
X142000Y406479D01*
X141998Y406430D01*
X142000Y406381D01*
X142006Y406333D01*
X142015Y406285D01*
X142028Y406238D01*
X142045Y406192D01*
X142066Y406148D01*
X142090Y406106D01*
X142117Y406065D01*
X142147Y406027D01*
X142180Y405991D01*
X142216Y405958D01*
X142254Y405928D01*
X142295Y405901D01*
X142337Y405877D01*
X142381Y405856D01*
X142427Y405839D01*
X142474Y405826D01*
X142522Y405817D01*
X142570Y405811D01*
X142619Y405809D01*
X143240Y405809D01*
X140807Y404257D02*
X139876Y404257D01*
X139827Y404259D01*
X139779Y404265D01*
X139731Y404274D01*
X139684Y404287D01*
X139638Y404304D01*
X139594Y404325D01*
X139552Y404348D01*
X139511Y404376D01*
X139473Y404406D01*
X139437Y404439D01*
X139404Y404475D01*
X139374Y404513D01*
X139347Y404553D01*
X139323Y404596D01*
X139302Y404640D01*
X139285Y404686D01*
X139272Y404733D01*
X139263Y404781D01*
X139257Y404829D01*
X139255Y404878D01*
X139255Y405188D01*
X139257Y405237D01*
X139263Y405285D01*
X139272Y405333D01*
X139285Y405380D01*
X139302Y405426D01*
X139323Y405470D01*
X139347Y405512D01*
X139374Y405553D01*
X139404Y405591D01*
X139437Y405627D01*
X139473Y405660D01*
X139511Y405690D01*
X139552Y405718D01*
X139594Y405741D01*
X139638Y405762D01*
X139684Y405779D01*
X139731Y405792D01*
X139779Y405801D01*
X139827Y405807D01*
X139876Y405809D01*
X140807Y405809D01*
X140807Y407051D01*
X139255Y407051D01*
X96028Y374827D02*
X96028Y374206D01*
X96030Y374157D01*
X96036Y374109D01*
X96045Y374061D01*
X96058Y374014D01*
X96075Y373968D01*
X96096Y373924D01*
X96120Y373882D01*
X96147Y373841D01*
X96177Y373803D01*
X96210Y373767D01*
X96246Y373734D01*
X96284Y373704D01*
X96325Y373677D01*
X96367Y373653D01*
X96411Y373632D01*
X96457Y373615D01*
X96504Y373602D01*
X96552Y373593D01*
X96600Y373587D01*
X96649Y373585D01*
X98201Y373585D01*
X98250Y373587D01*
X98298Y373593D01*
X98346Y373602D01*
X98393Y373615D01*
X98439Y373632D01*
X98483Y373653D01*
X98525Y373677D01*
X98566Y373704D01*
X98604Y373734D01*
X98640Y373767D01*
X98673Y373803D01*
X98703Y373841D01*
X98730Y373882D01*
X98754Y373924D01*
X98775Y373968D01*
X98792Y374014D01*
X98805Y374061D01*
X98814Y374109D01*
X98820Y374157D01*
X98822Y374206D01*
X98822Y374827D01*
X96028Y375880D02*
X96028Y376656D01*
X96030Y376711D01*
X96036Y376766D01*
X96046Y376821D01*
X96059Y376875D01*
X96077Y376927D01*
X96098Y376978D01*
X96123Y377028D01*
X96151Y377076D01*
X96183Y377121D01*
X96218Y377164D01*
X96255Y377205D01*
X96296Y377242D01*
X96339Y377277D01*
X96384Y377309D01*
X96432Y377337D01*
X96482Y377362D01*
X96533Y377383D01*
X96585Y377401D01*
X96639Y377414D01*
X96694Y377424D01*
X96749Y377430D01*
X96804Y377432D01*
X96859Y377430D01*
X96914Y377424D01*
X96969Y377414D01*
X97023Y377401D01*
X97075Y377383D01*
X97126Y377362D01*
X97176Y377337D01*
X97224Y377309D01*
X97269Y377277D01*
X97312Y377242D01*
X97353Y377205D01*
X97390Y377164D01*
X97425Y377121D01*
X97457Y377076D01*
X97485Y377028D01*
X97510Y376978D01*
X97531Y376927D01*
X97549Y376875D01*
X97562Y376821D01*
X97572Y376766D01*
X97578Y376711D01*
X97580Y376656D01*
X98822Y376811D02*
X98822Y375880D01*
X98822Y376811D02*
X98820Y376860D01*
X98814Y376908D01*
X98805Y376956D01*
X98792Y377003D01*
X98775Y377049D01*
X98754Y377093D01*
X98730Y377135D01*
X98703Y377176D01*
X98673Y377214D01*
X98640Y377250D01*
X98604Y377283D01*
X98566Y377313D01*
X98525Y377340D01*
X98483Y377364D01*
X98439Y377385D01*
X98393Y377402D01*
X98346Y377415D01*
X98298Y377424D01*
X98250Y377430D01*
X98201Y377432D01*
X98152Y377430D01*
X98104Y377424D01*
X98056Y377415D01*
X98009Y377402D01*
X97963Y377385D01*
X97919Y377364D01*
X97877Y377340D01*
X97836Y377313D01*
X97798Y377283D01*
X97762Y377250D01*
X97729Y377214D01*
X97699Y377176D01*
X97672Y377135D01*
X97648Y377093D01*
X97627Y377049D01*
X97610Y377003D01*
X97597Y376956D01*
X97588Y376908D01*
X97582Y376860D01*
X97580Y376811D01*
X97580Y376190D01*
X97580Y378623D02*
X97580Y379554D01*
X97578Y379603D01*
X97572Y379651D01*
X97563Y379699D01*
X97550Y379746D01*
X97533Y379792D01*
X97512Y379836D01*
X97488Y379878D01*
X97461Y379919D01*
X97431Y379957D01*
X97398Y379993D01*
X97362Y380026D01*
X97324Y380056D01*
X97283Y380083D01*
X97241Y380107D01*
X97197Y380128D01*
X97151Y380145D01*
X97104Y380158D01*
X97056Y380167D01*
X97008Y380173D01*
X96959Y380175D01*
X96804Y380175D01*
X96749Y380173D01*
X96694Y380167D01*
X96639Y380157D01*
X96585Y380144D01*
X96533Y380126D01*
X96482Y380105D01*
X96432Y380080D01*
X96384Y380052D01*
X96339Y380020D01*
X96296Y379985D01*
X96255Y379948D01*
X96218Y379907D01*
X96183Y379864D01*
X96151Y379819D01*
X96123Y379771D01*
X96098Y379721D01*
X96077Y379670D01*
X96059Y379618D01*
X96046Y379564D01*
X96036Y379509D01*
X96030Y379454D01*
X96028Y379399D01*
X96030Y379344D01*
X96036Y379289D01*
X96046Y379234D01*
X96059Y379180D01*
X96077Y379128D01*
X96098Y379077D01*
X96123Y379027D01*
X96151Y378979D01*
X96183Y378934D01*
X96218Y378891D01*
X96255Y378850D01*
X96296Y378813D01*
X96339Y378778D01*
X96384Y378746D01*
X96432Y378718D01*
X96482Y378693D01*
X96533Y378672D01*
X96585Y378654D01*
X96639Y378641D01*
X96694Y378631D01*
X96749Y378625D01*
X96804Y378623D01*
X97580Y378623D01*
X97650Y378625D01*
X97719Y378631D01*
X97788Y378641D01*
X97856Y378654D01*
X97924Y378672D01*
X97990Y378693D01*
X98055Y378718D01*
X98119Y378746D01*
X98181Y378778D01*
X98241Y378813D01*
X98299Y378852D01*
X98354Y378894D01*
X98408Y378939D01*
X98458Y378987D01*
X98506Y379037D01*
X98551Y379091D01*
X98593Y379146D01*
X98632Y379204D01*
X98667Y379264D01*
X98699Y379326D01*
X98727Y379390D01*
X98752Y379455D01*
X98773Y379521D01*
X98791Y379589D01*
X98804Y379657D01*
X98814Y379726D01*
X98820Y379795D01*
X98822Y379865D01*
D17*
X89928Y383766D02*
X89928Y388112D01*
X89928Y383766D02*
X89930Y383696D01*
X89936Y383627D01*
X89946Y383558D01*
X89959Y383490D01*
X89977Y383422D01*
X89998Y383356D01*
X90023Y383291D01*
X90051Y383227D01*
X90083Y383165D01*
X90118Y383105D01*
X90157Y383047D01*
X90199Y382992D01*
X90244Y382938D01*
X90292Y382888D01*
X90342Y382840D01*
X90396Y382795D01*
X90451Y382753D01*
X90509Y382714D01*
X90569Y382679D01*
X90631Y382647D01*
X90695Y382619D01*
X90760Y382594D01*
X90826Y382573D01*
X90894Y382555D01*
X90962Y382542D01*
X91031Y382532D01*
X91100Y382526D01*
X91170Y382524D01*
X91791Y382524D01*
X87120Y382524D02*
X87120Y388112D01*
X85568Y388112D01*
X85491Y388110D01*
X85413Y388104D01*
X85337Y388095D01*
X85260Y388081D01*
X85185Y388064D01*
X85111Y388043D01*
X85037Y388018D01*
X84965Y387990D01*
X84895Y387958D01*
X84826Y387923D01*
X84759Y387884D01*
X84694Y387842D01*
X84631Y387797D01*
X84570Y387749D01*
X84512Y387698D01*
X84457Y387644D01*
X84404Y387587D01*
X84355Y387528D01*
X84308Y387466D01*
X84264Y387402D01*
X84224Y387336D01*
X84187Y387268D01*
X84153Y387198D01*
X84123Y387127D01*
X84097Y387054D01*
X84074Y386980D01*
X84055Y386905D01*
X84040Y386830D01*
X84028Y386753D01*
X84020Y386676D01*
X84016Y386599D01*
X84016Y386521D01*
X84020Y386444D01*
X84028Y386367D01*
X84040Y386290D01*
X84055Y386215D01*
X84074Y386140D01*
X84097Y386066D01*
X84123Y385993D01*
X84153Y385922D01*
X84187Y385852D01*
X84224Y385784D01*
X84264Y385718D01*
X84308Y385654D01*
X84355Y385592D01*
X84404Y385533D01*
X84457Y385476D01*
X84512Y385422D01*
X84570Y385371D01*
X84631Y385323D01*
X84694Y385278D01*
X84759Y385236D01*
X84826Y385197D01*
X84895Y385162D01*
X84965Y385130D01*
X85037Y385102D01*
X85111Y385077D01*
X85185Y385056D01*
X85260Y385039D01*
X85337Y385025D01*
X85413Y385016D01*
X85491Y385010D01*
X85568Y385008D01*
X87120Y385008D01*
X81900Y386870D02*
X80348Y388112D01*
X80348Y382524D01*
X81900Y382524D02*
X78795Y382524D01*
X76414Y385628D02*
X74551Y385628D01*
X74551Y385629D02*
X74481Y385627D01*
X74412Y385621D01*
X74343Y385611D01*
X74275Y385598D01*
X74207Y385580D01*
X74141Y385559D01*
X74076Y385534D01*
X74012Y385506D01*
X73950Y385474D01*
X73890Y385439D01*
X73832Y385400D01*
X73777Y385358D01*
X73723Y385313D01*
X73673Y385265D01*
X73625Y385215D01*
X73580Y385161D01*
X73538Y385106D01*
X73499Y385048D01*
X73464Y384988D01*
X73432Y384926D01*
X73404Y384862D01*
X73379Y384797D01*
X73358Y384731D01*
X73340Y384663D01*
X73327Y384595D01*
X73317Y384526D01*
X73311Y384457D01*
X73309Y384387D01*
X73309Y384076D01*
X73311Y383999D01*
X73317Y383921D01*
X73326Y383845D01*
X73340Y383768D01*
X73357Y383693D01*
X73378Y383619D01*
X73403Y383545D01*
X73431Y383473D01*
X73463Y383403D01*
X73498Y383334D01*
X73537Y383267D01*
X73579Y383202D01*
X73624Y383139D01*
X73672Y383078D01*
X73723Y383020D01*
X73777Y382965D01*
X73834Y382912D01*
X73893Y382863D01*
X73955Y382816D01*
X74019Y382772D01*
X74085Y382732D01*
X74153Y382695D01*
X74223Y382661D01*
X74294Y382631D01*
X74367Y382605D01*
X74441Y382582D01*
X74516Y382563D01*
X74591Y382548D01*
X74668Y382536D01*
X74745Y382528D01*
X74822Y382524D01*
X74900Y382524D01*
X74977Y382528D01*
X75054Y382536D01*
X75131Y382548D01*
X75206Y382563D01*
X75281Y382582D01*
X75355Y382605D01*
X75428Y382631D01*
X75499Y382661D01*
X75569Y382695D01*
X75637Y382732D01*
X75703Y382772D01*
X75767Y382816D01*
X75829Y382863D01*
X75888Y382912D01*
X75945Y382965D01*
X75999Y383020D01*
X76050Y383078D01*
X76098Y383139D01*
X76143Y383202D01*
X76185Y383267D01*
X76224Y383334D01*
X76259Y383403D01*
X76291Y383473D01*
X76319Y383545D01*
X76344Y383619D01*
X76365Y383693D01*
X76382Y383768D01*
X76396Y383845D01*
X76405Y383921D01*
X76411Y383999D01*
X76413Y384076D01*
X76414Y384076D02*
X76414Y385628D01*
X76412Y385726D01*
X76406Y385823D01*
X76397Y385920D01*
X76383Y386017D01*
X76366Y386113D01*
X76345Y386208D01*
X76321Y386302D01*
X76292Y386396D01*
X76260Y386488D01*
X76225Y386579D01*
X76186Y386668D01*
X76143Y386756D01*
X76097Y386842D01*
X76048Y386926D01*
X75995Y387008D01*
X75940Y387088D01*
X75881Y387166D01*
X75819Y387241D01*
X75754Y387314D01*
X75686Y387384D01*
X75616Y387452D01*
X75543Y387517D01*
X75468Y387579D01*
X75390Y387638D01*
X75310Y387693D01*
X75228Y387746D01*
X75144Y387795D01*
X75058Y387841D01*
X74970Y387884D01*
X74881Y387923D01*
X74790Y387958D01*
X74698Y387990D01*
X74604Y388019D01*
X74510Y388043D01*
X74415Y388064D01*
X74319Y388081D01*
X74222Y388095D01*
X74125Y388104D01*
X74028Y388110D01*
X73930Y388112D01*
D19*
X17923Y357610D02*
X15129Y357610D01*
X17923Y357610D02*
X17923Y358386D01*
X17921Y358441D01*
X17915Y358496D01*
X17905Y358551D01*
X17892Y358605D01*
X17874Y358657D01*
X17853Y358708D01*
X17828Y358758D01*
X17800Y358806D01*
X17768Y358851D01*
X17733Y358894D01*
X17696Y358935D01*
X17655Y358972D01*
X17612Y359007D01*
X17567Y359039D01*
X17519Y359067D01*
X17469Y359092D01*
X17418Y359113D01*
X17366Y359131D01*
X17312Y359144D01*
X17257Y359154D01*
X17202Y359160D01*
X17147Y359162D01*
X17092Y359160D01*
X17037Y359154D01*
X16982Y359144D01*
X16928Y359131D01*
X16876Y359113D01*
X16825Y359092D01*
X16775Y359067D01*
X16727Y359039D01*
X16682Y359007D01*
X16639Y358972D01*
X16598Y358935D01*
X16561Y358894D01*
X16526Y358851D01*
X16494Y358806D01*
X16466Y358758D01*
X16441Y358708D01*
X16420Y358657D01*
X16402Y358605D01*
X16389Y358551D01*
X16379Y358496D01*
X16373Y358441D01*
X16371Y358386D01*
X16371Y357610D01*
X16371Y358541D02*
X15129Y359162D01*
X15905Y360335D02*
X15960Y360337D01*
X16015Y360343D01*
X16070Y360353D01*
X16124Y360366D01*
X16176Y360384D01*
X16227Y360405D01*
X16277Y360430D01*
X16325Y360458D01*
X16370Y360490D01*
X16413Y360525D01*
X16454Y360562D01*
X16491Y360603D01*
X16526Y360646D01*
X16558Y360691D01*
X16586Y360739D01*
X16611Y360789D01*
X16632Y360840D01*
X16650Y360892D01*
X16663Y360946D01*
X16673Y361001D01*
X16679Y361056D01*
X16681Y361111D01*
X16679Y361166D01*
X16673Y361221D01*
X16663Y361276D01*
X16650Y361330D01*
X16632Y361382D01*
X16611Y361433D01*
X16586Y361483D01*
X16558Y361531D01*
X16526Y361576D01*
X16491Y361619D01*
X16454Y361660D01*
X16413Y361697D01*
X16370Y361732D01*
X16325Y361764D01*
X16277Y361792D01*
X16227Y361817D01*
X16176Y361838D01*
X16124Y361856D01*
X16070Y361869D01*
X16015Y361879D01*
X15960Y361885D01*
X15905Y361887D01*
X15850Y361885D01*
X15795Y361879D01*
X15740Y361869D01*
X15686Y361856D01*
X15634Y361838D01*
X15583Y361817D01*
X15533Y361792D01*
X15485Y361764D01*
X15440Y361732D01*
X15397Y361697D01*
X15356Y361660D01*
X15319Y361619D01*
X15284Y361576D01*
X15252Y361531D01*
X15224Y361483D01*
X15199Y361433D01*
X15178Y361382D01*
X15160Y361330D01*
X15147Y361276D01*
X15137Y361221D01*
X15131Y361166D01*
X15129Y361111D01*
X15131Y361056D01*
X15137Y361001D01*
X15147Y360946D01*
X15160Y360892D01*
X15178Y360840D01*
X15199Y360789D01*
X15224Y360739D01*
X15252Y360691D01*
X15284Y360646D01*
X15319Y360603D01*
X15356Y360562D01*
X15397Y360525D01*
X15440Y360490D01*
X15485Y360458D01*
X15533Y360430D01*
X15583Y360405D01*
X15634Y360384D01*
X15686Y360366D01*
X15740Y360353D01*
X15795Y360343D01*
X15850Y360337D01*
X15905Y360335D01*
X17302Y360490D02*
X17351Y360492D01*
X17399Y360498D01*
X17447Y360507D01*
X17494Y360520D01*
X17540Y360537D01*
X17584Y360558D01*
X17626Y360582D01*
X17667Y360609D01*
X17705Y360639D01*
X17741Y360672D01*
X17774Y360708D01*
X17804Y360746D01*
X17831Y360787D01*
X17855Y360829D01*
X17876Y360873D01*
X17893Y360919D01*
X17906Y360966D01*
X17915Y361014D01*
X17921Y361062D01*
X17923Y361111D01*
X17921Y361160D01*
X17915Y361208D01*
X17906Y361256D01*
X17893Y361303D01*
X17876Y361349D01*
X17855Y361393D01*
X17831Y361435D01*
X17804Y361476D01*
X17774Y361514D01*
X17741Y361550D01*
X17705Y361583D01*
X17667Y361613D01*
X17626Y361640D01*
X17584Y361664D01*
X17540Y361685D01*
X17494Y361702D01*
X17447Y361715D01*
X17399Y361724D01*
X17351Y361730D01*
X17302Y361732D01*
X17253Y361730D01*
X17205Y361724D01*
X17157Y361715D01*
X17110Y361702D01*
X17064Y361685D01*
X17020Y361664D01*
X16978Y361640D01*
X16937Y361613D01*
X16899Y361583D01*
X16863Y361550D01*
X16830Y361514D01*
X16800Y361476D01*
X16773Y361435D01*
X16749Y361393D01*
X16728Y361349D01*
X16711Y361303D01*
X16698Y361256D01*
X16689Y361208D01*
X16683Y361160D01*
X16681Y361111D01*
X16683Y361062D01*
X16689Y361014D01*
X16698Y360966D01*
X16711Y360919D01*
X16728Y360873D01*
X16749Y360829D01*
X16773Y360787D01*
X16800Y360746D01*
X16830Y360708D01*
X16863Y360672D01*
X16899Y360639D01*
X16937Y360609D01*
X16978Y360582D01*
X17020Y360558D01*
X17064Y360537D01*
X17110Y360520D01*
X17157Y360507D01*
X17205Y360498D01*
X17253Y360492D01*
X17302Y360490D01*
X140808Y419973D02*
X141429Y419973D01*
X141478Y419975D01*
X141526Y419981D01*
X141574Y419990D01*
X141621Y420003D01*
X141667Y420020D01*
X141711Y420041D01*
X141753Y420065D01*
X141794Y420092D01*
X141832Y420122D01*
X141868Y420155D01*
X141901Y420191D01*
X141931Y420229D01*
X141958Y420270D01*
X141982Y420312D01*
X142003Y420356D01*
X142020Y420402D01*
X142033Y420449D01*
X142042Y420497D01*
X142048Y420545D01*
X142050Y420594D01*
X142050Y422146D01*
X142048Y422195D01*
X142042Y422243D01*
X142033Y422291D01*
X142020Y422338D01*
X142003Y422384D01*
X141982Y422428D01*
X141958Y422470D01*
X141931Y422511D01*
X141901Y422549D01*
X141868Y422585D01*
X141832Y422618D01*
X141794Y422648D01*
X141753Y422675D01*
X141711Y422699D01*
X141667Y422720D01*
X141621Y422737D01*
X141574Y422750D01*
X141526Y422759D01*
X141478Y422765D01*
X141429Y422767D01*
X140808Y422767D01*
X139756Y419973D02*
X138980Y419973D01*
X138925Y419975D01*
X138870Y419981D01*
X138815Y419991D01*
X138761Y420004D01*
X138709Y420022D01*
X138658Y420043D01*
X138608Y420068D01*
X138560Y420096D01*
X138515Y420128D01*
X138472Y420163D01*
X138431Y420200D01*
X138394Y420241D01*
X138359Y420284D01*
X138327Y420329D01*
X138299Y420377D01*
X138274Y420427D01*
X138253Y420478D01*
X138235Y420530D01*
X138222Y420584D01*
X138212Y420639D01*
X138206Y420694D01*
X138204Y420749D01*
X138206Y420804D01*
X138212Y420859D01*
X138222Y420914D01*
X138235Y420968D01*
X138253Y421020D01*
X138274Y421071D01*
X138299Y421121D01*
X138327Y421169D01*
X138359Y421214D01*
X138394Y421257D01*
X138431Y421298D01*
X138472Y421335D01*
X138515Y421370D01*
X138560Y421402D01*
X138608Y421430D01*
X138658Y421455D01*
X138709Y421476D01*
X138761Y421494D01*
X138815Y421507D01*
X138870Y421517D01*
X138925Y421523D01*
X138980Y421525D01*
X138825Y422767D02*
X139756Y422767D01*
X138825Y422767D02*
X138776Y422765D01*
X138728Y422759D01*
X138680Y422750D01*
X138633Y422737D01*
X138587Y422720D01*
X138543Y422699D01*
X138501Y422675D01*
X138460Y422648D01*
X138422Y422618D01*
X138386Y422585D01*
X138353Y422549D01*
X138323Y422511D01*
X138296Y422470D01*
X138272Y422428D01*
X138251Y422384D01*
X138234Y422338D01*
X138221Y422291D01*
X138212Y422243D01*
X138206Y422195D01*
X138204Y422146D01*
X138206Y422097D01*
X138212Y422049D01*
X138221Y422001D01*
X138234Y421954D01*
X138251Y421908D01*
X138272Y421864D01*
X138296Y421822D01*
X138323Y421781D01*
X138353Y421743D01*
X138386Y421707D01*
X138422Y421674D01*
X138460Y421644D01*
X138501Y421617D01*
X138543Y421593D01*
X138587Y421572D01*
X138633Y421555D01*
X138680Y421542D01*
X138728Y421533D01*
X138776Y421527D01*
X138825Y421525D01*
X139445Y421525D01*
X136159Y422768D02*
X136109Y422766D01*
X136060Y422761D01*
X136010Y422752D01*
X135962Y422740D01*
X135915Y422724D01*
X135869Y422705D01*
X135824Y422682D01*
X135781Y422657D01*
X135740Y422629D01*
X135701Y422597D01*
X135665Y422563D01*
X135631Y422527D01*
X135599Y422488D01*
X135571Y422447D01*
X135546Y422404D01*
X135523Y422359D01*
X135504Y422313D01*
X135488Y422266D01*
X135476Y422218D01*
X135467Y422168D01*
X135462Y422119D01*
X135460Y422069D01*
X136159Y422767D02*
X136215Y422765D01*
X136272Y422760D01*
X136327Y422751D01*
X136382Y422739D01*
X136436Y422723D01*
X136489Y422704D01*
X136541Y422681D01*
X136591Y422656D01*
X136640Y422627D01*
X136687Y422595D01*
X136731Y422561D01*
X136773Y422524D01*
X136813Y422484D01*
X136851Y422441D01*
X136885Y422397D01*
X136917Y422350D01*
X136945Y422301D01*
X136971Y422251D01*
X136993Y422199D01*
X137012Y422146D01*
X135694Y421526D02*
X135658Y421562D01*
X135625Y421600D01*
X135595Y421641D01*
X135568Y421683D01*
X135543Y421728D01*
X135522Y421774D01*
X135503Y421821D01*
X135488Y421869D01*
X135476Y421918D01*
X135468Y421968D01*
X135463Y422018D01*
X135461Y422069D01*
X135693Y421525D02*
X137013Y419973D01*
X135460Y419973D01*
X241780Y407686D02*
X241780Y404892D01*
X241780Y407686D02*
X241004Y407686D01*
X240949Y407684D01*
X240894Y407678D01*
X240839Y407668D01*
X240785Y407655D01*
X240733Y407637D01*
X240682Y407616D01*
X240632Y407591D01*
X240584Y407563D01*
X240539Y407531D01*
X240496Y407496D01*
X240455Y407459D01*
X240418Y407418D01*
X240383Y407375D01*
X240351Y407330D01*
X240323Y407282D01*
X240298Y407232D01*
X240277Y407181D01*
X240259Y407129D01*
X240246Y407075D01*
X240236Y407020D01*
X240230Y406965D01*
X240228Y406910D01*
X240230Y406855D01*
X240236Y406800D01*
X240246Y406745D01*
X240259Y406691D01*
X240277Y406639D01*
X240298Y406588D01*
X240323Y406538D01*
X240351Y406490D01*
X240383Y406445D01*
X240418Y406402D01*
X240455Y406361D01*
X240496Y406324D01*
X240539Y406289D01*
X240584Y406257D01*
X240632Y406229D01*
X240682Y406204D01*
X240733Y406183D01*
X240785Y406165D01*
X240839Y406152D01*
X240894Y406142D01*
X240949Y406136D01*
X241004Y406134D01*
X241780Y406134D01*
X240848Y406134D02*
X240227Y404892D01*
X239054Y407065D02*
X238278Y407686D01*
X238278Y404892D01*
X239054Y404892D02*
X237502Y404892D01*
X236311Y407065D02*
X235535Y407686D01*
X235535Y404892D01*
X236311Y404892D02*
X234759Y404892D01*
X173165Y250809D02*
X173165Y248015D01*
X173165Y250809D02*
X172389Y250809D01*
X172334Y250807D01*
X172279Y250801D01*
X172224Y250791D01*
X172170Y250778D01*
X172118Y250760D01*
X172067Y250739D01*
X172017Y250714D01*
X171969Y250686D01*
X171924Y250654D01*
X171881Y250619D01*
X171840Y250582D01*
X171803Y250541D01*
X171768Y250498D01*
X171736Y250453D01*
X171708Y250405D01*
X171683Y250355D01*
X171662Y250304D01*
X171644Y250252D01*
X171631Y250198D01*
X171621Y250143D01*
X171615Y250088D01*
X171613Y250033D01*
X171615Y249978D01*
X171621Y249923D01*
X171631Y249868D01*
X171644Y249814D01*
X171662Y249762D01*
X171683Y249711D01*
X171708Y249661D01*
X171736Y249613D01*
X171768Y249568D01*
X171803Y249525D01*
X171840Y249484D01*
X171881Y249447D01*
X171924Y249412D01*
X171969Y249380D01*
X172017Y249352D01*
X172067Y249327D01*
X172118Y249306D01*
X172170Y249288D01*
X172224Y249275D01*
X172279Y249265D01*
X172334Y249259D01*
X172389Y249257D01*
X173165Y249257D01*
X172234Y249257D02*
X171613Y248015D01*
X170440Y250188D02*
X169664Y250809D01*
X169664Y248015D01*
X170440Y248015D02*
X168888Y248015D01*
X166144Y250111D02*
X166146Y250161D01*
X166151Y250210D01*
X166160Y250260D01*
X166172Y250308D01*
X166188Y250355D01*
X166207Y250401D01*
X166230Y250446D01*
X166255Y250489D01*
X166283Y250530D01*
X166315Y250569D01*
X166349Y250605D01*
X166385Y250639D01*
X166424Y250671D01*
X166465Y250699D01*
X166508Y250724D01*
X166553Y250747D01*
X166599Y250766D01*
X166646Y250782D01*
X166694Y250794D01*
X166744Y250803D01*
X166793Y250808D01*
X166843Y250810D01*
X166843Y250809D02*
X166899Y250807D01*
X166956Y250802D01*
X167011Y250793D01*
X167066Y250781D01*
X167120Y250765D01*
X167173Y250746D01*
X167225Y250723D01*
X167275Y250698D01*
X167324Y250669D01*
X167371Y250637D01*
X167415Y250603D01*
X167457Y250566D01*
X167497Y250526D01*
X167535Y250483D01*
X167569Y250439D01*
X167601Y250392D01*
X167629Y250343D01*
X167655Y250293D01*
X167677Y250241D01*
X167696Y250188D01*
X166378Y249568D02*
X166342Y249604D01*
X166309Y249642D01*
X166279Y249683D01*
X166252Y249725D01*
X166227Y249770D01*
X166206Y249816D01*
X166187Y249863D01*
X166172Y249911D01*
X166160Y249960D01*
X166152Y250010D01*
X166147Y250060D01*
X166145Y250111D01*
X166377Y249567D02*
X167697Y248015D01*
X166144Y248015D01*
D20*
X0Y19050D02*
X73Y17390D01*
X289Y15742D01*
X649Y14120D01*
X1149Y12535D01*
X1785Y10999D01*
X2552Y9525D01*
X3445Y8123D01*
X4457Y6805D01*
X5580Y5580D01*
X6805Y4457D01*
X8123Y3445D01*
X9525Y2552D01*
X10999Y1785D01*
X12535Y1149D01*
X14120Y649D01*
X15742Y289D01*
X17390Y73D01*
X19050Y0D01*
X361950Y0D01*
X363610Y73D01*
X365258Y289D01*
X366881Y649D01*
X368465Y1149D01*
X370001Y1785D01*
X371475Y2552D01*
X372877Y3445D01*
X374195Y4457D01*
X375420Y5580D01*
X376543Y6805D01*
X377555Y8123D01*
X378448Y9525D01*
X379215Y10999D01*
X379851Y12535D01*
X380351Y14120D01*
X380711Y15742D01*
X380928Y17390D01*
X381000Y19050D01*
X381000Y450850D01*
X380928Y452510D01*
X380711Y454158D01*
X380351Y455781D01*
X379851Y457365D01*
X379215Y458901D01*
X378448Y460375D01*
X377555Y461777D01*
X376543Y463095D01*
X375420Y464320D01*
X374195Y465443D01*
X372877Y466455D01*
X371475Y467348D01*
X370001Y468115D01*
X368465Y468751D01*
X366881Y469251D01*
X365258Y469611D01*
X363610Y469828D01*
X361950Y469900D01*
X19050Y469900D01*
X17390Y469828D01*
X15742Y469611D01*
X14120Y469251D01*
X12535Y468751D01*
X10999Y468115D01*
X9525Y467348D01*
X8123Y466455D01*
X6805Y465443D01*
X5580Y464320D01*
X4457Y463095D01*
X3445Y461777D01*
X2552Y460375D01*
X1785Y458901D01*
X1149Y457365D01*
X649Y455781D01*
X289Y454158D01*
X73Y452510D01*
X0Y450850D01*
X0Y304800D01*
X82550Y304800D01*
X84210Y304728D01*
X85858Y304511D01*
X87481Y304151D01*
X89065Y303651D01*
X90601Y303015D01*
X92075Y302248D01*
X93477Y301355D01*
X94795Y300343D01*
X96020Y299220D01*
X97143Y297995D01*
X98155Y296677D01*
X99048Y295275D01*
X99815Y293801D01*
X100451Y292265D01*
X100951Y290681D01*
X101311Y289058D01*
X101528Y287410D01*
X101600Y285750D01*
X101600Y133350D01*
X101528Y131690D01*
X101311Y130042D01*
X100951Y128420D01*
X100451Y126835D01*
X99815Y125299D01*
X99048Y123825D01*
X98155Y122423D01*
X97143Y121105D01*
X96020Y119880D01*
X94795Y118757D01*
X93477Y117745D01*
X92075Y116852D01*
X90601Y116085D01*
X89065Y115449D01*
X87481Y114949D01*
X85858Y114589D01*
X84210Y114373D01*
X82550Y114300D01*
X19050Y114300D01*
X17390Y114228D01*
X15742Y114011D01*
X14120Y113651D01*
X12535Y113151D01*
X10999Y112515D01*
X9525Y111748D01*
X8123Y110855D01*
X6805Y109843D01*
X5580Y108720D01*
X4457Y107495D01*
X3445Y106177D01*
X2552Y104775D01*
X1785Y103301D01*
X1149Y101765D01*
X649Y100181D01*
X289Y98558D01*
X73Y96910D01*
X0Y95250D01*
X0Y19050D01*
M02*
