G04 EAGLE Gerber RS-274X export*
G75*
%MOMM*%
%FSLAX34Y34*%
%LPD*%
%INSilkscreen Bottom*%
%IPPOS*%
%AMOC8*
5,1,8,0,0,1.08239X$1,22.5*%
G01*
%ADD10C,0.101600*%
%ADD11C,0.152400*%
%ADD12C,0.076200*%
%ADD13C,0.100000*%
%ADD14C,0.406400*%
%ADD15C,0.127000*%
%ADD16C,0.203200*%
%ADD17C,0.150000*%
%ADD18C,0.254000*%

G36*
X187327Y247398D02*
X187327Y247398D01*
X187329Y247397D01*
X187372Y247417D01*
X187416Y247435D01*
X187416Y247437D01*
X187418Y247438D01*
X187451Y247523D01*
X187451Y250063D01*
X187450Y250065D01*
X187451Y250067D01*
X187431Y250110D01*
X187413Y250154D01*
X187411Y250154D01*
X187410Y250156D01*
X187325Y250189D01*
X183515Y250189D01*
X183513Y250188D01*
X183511Y250189D01*
X183468Y250169D01*
X183424Y250151D01*
X183424Y250149D01*
X183422Y250148D01*
X183389Y250063D01*
X183389Y247523D01*
X183390Y247521D01*
X183389Y247519D01*
X183409Y247476D01*
X183427Y247432D01*
X183429Y247432D01*
X183430Y247430D01*
X183515Y247397D01*
X187325Y247397D01*
X187327Y247398D01*
G37*
G36*
X192407Y192280D02*
X192407Y192280D01*
X192409Y192279D01*
X192452Y192299D01*
X192496Y192317D01*
X192496Y192319D01*
X192498Y192320D01*
X192531Y192405D01*
X192531Y194945D01*
X192530Y194947D01*
X192531Y194949D01*
X192511Y194992D01*
X192493Y195036D01*
X192491Y195036D01*
X192490Y195038D01*
X192405Y195071D01*
X188595Y195071D01*
X188593Y195070D01*
X188591Y195071D01*
X188548Y195051D01*
X188504Y195033D01*
X188504Y195031D01*
X188502Y195030D01*
X188469Y194945D01*
X188469Y192405D01*
X188470Y192403D01*
X188469Y192401D01*
X188489Y192358D01*
X188507Y192314D01*
X188509Y192314D01*
X188510Y192312D01*
X188595Y192279D01*
X192405Y192279D01*
X192407Y192280D01*
G37*
D10*
X316978Y383469D02*
X316980Y383370D01*
X316986Y383270D01*
X316995Y383171D01*
X317008Y383073D01*
X317025Y382975D01*
X317046Y382877D01*
X317071Y382781D01*
X317099Y382686D01*
X317131Y382592D01*
X317166Y382499D01*
X317205Y382407D01*
X317248Y382317D01*
X317293Y382229D01*
X317343Y382142D01*
X317395Y382058D01*
X317451Y381975D01*
X317509Y381895D01*
X317571Y381817D01*
X317636Y381742D01*
X317704Y381669D01*
X317774Y381599D01*
X317847Y381531D01*
X317922Y381466D01*
X318000Y381404D01*
X318080Y381346D01*
X318163Y381290D01*
X318247Y381238D01*
X318334Y381188D01*
X318422Y381143D01*
X318512Y381100D01*
X318604Y381061D01*
X318697Y381026D01*
X318791Y380994D01*
X318886Y380966D01*
X318982Y380941D01*
X319080Y380920D01*
X319178Y380903D01*
X319276Y380890D01*
X319375Y380881D01*
X319475Y380875D01*
X319574Y380873D01*
X319718Y380875D01*
X319863Y380881D01*
X320007Y380890D01*
X320150Y380903D01*
X320294Y380920D01*
X320437Y380941D01*
X320579Y380966D01*
X320720Y380994D01*
X320861Y381026D01*
X321001Y381062D01*
X321140Y381101D01*
X321278Y381144D01*
X321414Y381191D01*
X321550Y381241D01*
X321684Y381295D01*
X321816Y381352D01*
X321947Y381413D01*
X322076Y381477D01*
X322204Y381545D01*
X322330Y381616D01*
X322454Y381690D01*
X322575Y381767D01*
X322695Y381848D01*
X322813Y381931D01*
X322928Y382018D01*
X323041Y382108D01*
X323152Y382201D01*
X323260Y382296D01*
X323366Y382395D01*
X323469Y382496D01*
X323144Y389961D02*
X323142Y390060D01*
X323136Y390160D01*
X323127Y390259D01*
X323114Y390357D01*
X323097Y390455D01*
X323076Y390553D01*
X323051Y390649D01*
X323023Y390744D01*
X322991Y390838D01*
X322956Y390931D01*
X322917Y391023D01*
X322874Y391113D01*
X322829Y391201D01*
X322779Y391288D01*
X322727Y391372D01*
X322671Y391455D01*
X322613Y391535D01*
X322551Y391613D01*
X322486Y391688D01*
X322418Y391761D01*
X322348Y391831D01*
X322275Y391899D01*
X322200Y391964D01*
X322122Y392026D01*
X322042Y392084D01*
X321959Y392140D01*
X321875Y392192D01*
X321788Y392242D01*
X321700Y392287D01*
X321610Y392330D01*
X321518Y392369D01*
X321425Y392404D01*
X321331Y392436D01*
X321236Y392464D01*
X321140Y392489D01*
X321042Y392510D01*
X320944Y392527D01*
X320846Y392540D01*
X320747Y392549D01*
X320647Y392555D01*
X320548Y392557D01*
X320412Y392555D01*
X320276Y392549D01*
X320140Y392540D01*
X320004Y392527D01*
X319869Y392509D01*
X319735Y392489D01*
X319601Y392464D01*
X319467Y392436D01*
X319335Y392403D01*
X319204Y392368D01*
X319073Y392328D01*
X318944Y392285D01*
X318816Y392239D01*
X318690Y392188D01*
X318564Y392135D01*
X318441Y392077D01*
X318319Y392017D01*
X318199Y391953D01*
X318080Y391885D01*
X317964Y391815D01*
X317850Y391741D01*
X317737Y391664D01*
X317627Y391583D01*
X321846Y387689D02*
X321932Y387742D01*
X322016Y387799D01*
X322098Y387858D01*
X322178Y387921D01*
X322255Y387987D01*
X322330Y388055D01*
X322402Y388127D01*
X322471Y388201D01*
X322537Y388278D01*
X322600Y388357D01*
X322660Y388439D01*
X322717Y388523D01*
X322771Y388609D01*
X322821Y388697D01*
X322868Y388787D01*
X322912Y388878D01*
X322951Y388972D01*
X322988Y389066D01*
X323020Y389162D01*
X323049Y389260D01*
X323074Y389358D01*
X323095Y389457D01*
X323113Y389557D01*
X323126Y389657D01*
X323136Y389758D01*
X323142Y389860D01*
X323144Y389961D01*
X318276Y385741D02*
X318190Y385688D01*
X318106Y385631D01*
X318024Y385572D01*
X317944Y385509D01*
X317867Y385443D01*
X317792Y385375D01*
X317720Y385303D01*
X317651Y385229D01*
X317585Y385152D01*
X317522Y385073D01*
X317462Y384991D01*
X317405Y384907D01*
X317351Y384821D01*
X317301Y384733D01*
X317254Y384643D01*
X317210Y384552D01*
X317171Y384458D01*
X317134Y384364D01*
X317102Y384268D01*
X317073Y384170D01*
X317048Y384072D01*
X317027Y383973D01*
X317009Y383873D01*
X316996Y383773D01*
X316986Y383672D01*
X316980Y383570D01*
X316978Y383469D01*
X318276Y385741D02*
X321846Y387689D01*
X313069Y380873D02*
X309174Y392557D01*
X305280Y380873D01*
X306253Y383794D02*
X312095Y383794D01*
X300496Y380873D02*
X300496Y392557D01*
X296601Y386066D01*
X292707Y392557D01*
X292707Y380873D01*
X286893Y380873D02*
X286893Y392557D01*
X283648Y392557D01*
X283535Y392555D01*
X283422Y392549D01*
X283309Y392539D01*
X283196Y392525D01*
X283084Y392508D01*
X282973Y392486D01*
X282863Y392461D01*
X282753Y392431D01*
X282645Y392398D01*
X282538Y392361D01*
X282432Y392321D01*
X282328Y392276D01*
X282225Y392228D01*
X282124Y392177D01*
X282025Y392122D01*
X281928Y392064D01*
X281833Y392002D01*
X281740Y391937D01*
X281650Y391869D01*
X281562Y391798D01*
X281476Y391723D01*
X281393Y391646D01*
X281313Y391566D01*
X281236Y391483D01*
X281161Y391397D01*
X281090Y391309D01*
X281022Y391219D01*
X280957Y391126D01*
X280895Y391031D01*
X280837Y390934D01*
X280782Y390835D01*
X280731Y390734D01*
X280683Y390631D01*
X280638Y390527D01*
X280598Y390421D01*
X280561Y390314D01*
X280528Y390206D01*
X280498Y390096D01*
X280473Y389986D01*
X280451Y389875D01*
X280434Y389763D01*
X280420Y389650D01*
X280410Y389537D01*
X280404Y389424D01*
X280402Y389311D01*
X280402Y384119D01*
X280404Y384006D01*
X280410Y383893D01*
X280420Y383780D01*
X280434Y383667D01*
X280451Y383555D01*
X280473Y383444D01*
X280498Y383334D01*
X280528Y383224D01*
X280561Y383116D01*
X280598Y383009D01*
X280638Y382903D01*
X280683Y382799D01*
X280731Y382696D01*
X280782Y382595D01*
X280837Y382496D01*
X280895Y382399D01*
X280957Y382304D01*
X281022Y382211D01*
X281090Y382121D01*
X281161Y382033D01*
X281236Y381947D01*
X281313Y381864D01*
X281393Y381784D01*
X281476Y381707D01*
X281562Y381632D01*
X281650Y381561D01*
X281740Y381493D01*
X281833Y381428D01*
X281928Y381366D01*
X282025Y381308D01*
X282124Y381253D01*
X282225Y381202D01*
X282328Y381154D01*
X282432Y381109D01*
X282538Y381069D01*
X282645Y381032D01*
X282753Y380999D01*
X282863Y380969D01*
X282973Y380944D01*
X283084Y380922D01*
X283196Y380905D01*
X283309Y380891D01*
X283422Y380881D01*
X283535Y380875D01*
X283648Y380873D01*
X286893Y380873D01*
X271512Y392557D02*
X271405Y392555D01*
X271299Y392549D01*
X271193Y392539D01*
X271087Y392526D01*
X270981Y392508D01*
X270877Y392487D01*
X270773Y392462D01*
X270670Y392433D01*
X270569Y392401D01*
X270469Y392364D01*
X270370Y392324D01*
X270272Y392281D01*
X270176Y392234D01*
X270082Y392183D01*
X269990Y392129D01*
X269900Y392072D01*
X269812Y392012D01*
X269727Y391948D01*
X269644Y391881D01*
X269563Y391811D01*
X269485Y391739D01*
X269409Y391663D01*
X269337Y391585D01*
X269267Y391504D01*
X269200Y391421D01*
X269136Y391336D01*
X269076Y391248D01*
X269019Y391158D01*
X268965Y391066D01*
X268914Y390972D01*
X268867Y390876D01*
X268824Y390778D01*
X268784Y390679D01*
X268747Y390579D01*
X268715Y390478D01*
X268686Y390375D01*
X268661Y390271D01*
X268640Y390167D01*
X268622Y390061D01*
X268609Y389955D01*
X268599Y389849D01*
X268593Y389743D01*
X268591Y389636D01*
X271512Y392557D02*
X271633Y392555D01*
X271754Y392549D01*
X271874Y392539D01*
X271995Y392526D01*
X272114Y392508D01*
X272234Y392487D01*
X272352Y392462D01*
X272469Y392433D01*
X272586Y392400D01*
X272701Y392364D01*
X272815Y392323D01*
X272928Y392280D01*
X273040Y392232D01*
X273149Y392181D01*
X273257Y392126D01*
X273364Y392068D01*
X273468Y392007D01*
X273570Y391942D01*
X273670Y391874D01*
X273768Y391803D01*
X273864Y391729D01*
X273957Y391652D01*
X274047Y391571D01*
X274135Y391488D01*
X274220Y391402D01*
X274303Y391313D01*
X274382Y391222D01*
X274459Y391128D01*
X274532Y391032D01*
X274602Y390934D01*
X274669Y390833D01*
X274733Y390730D01*
X274794Y390625D01*
X274851Y390518D01*
X274904Y390410D01*
X274954Y390300D01*
X275000Y390188D01*
X275043Y390075D01*
X275082Y389960D01*
X269565Y387364D02*
X269486Y387442D01*
X269410Y387522D01*
X269337Y387605D01*
X269267Y387691D01*
X269200Y387778D01*
X269136Y387869D01*
X269076Y387961D01*
X269018Y388055D01*
X268964Y388152D01*
X268914Y388250D01*
X268867Y388350D01*
X268823Y388451D01*
X268783Y388554D01*
X268747Y388659D01*
X268715Y388764D01*
X268686Y388871D01*
X268661Y388978D01*
X268639Y389087D01*
X268622Y389196D01*
X268608Y389305D01*
X268599Y389415D01*
X268593Y389526D01*
X268591Y389636D01*
X269565Y387364D02*
X275082Y380873D01*
X268591Y380873D01*
X263652Y389961D02*
X260407Y392557D01*
X260407Y380873D01*
X263652Y380873D02*
X257161Y380873D01*
X217974Y263144D02*
X221869Y251460D01*
X214080Y251460D02*
X217974Y263144D01*
X215053Y254381D02*
X220895Y254381D01*
X207306Y251460D02*
X207306Y263144D01*
X204061Y263144D02*
X210552Y263144D01*
X197400Y263144D02*
X197400Y251460D01*
X200646Y263144D02*
X194155Y263144D01*
X189018Y263144D02*
X189018Y251460D01*
X187720Y251460D02*
X190317Y251460D01*
X190317Y263144D02*
X187720Y263144D01*
X182739Y263144D02*
X182739Y251460D01*
X176248Y251460D02*
X182739Y263144D01*
X176248Y263144D02*
X176248Y251460D01*
X167682Y257627D02*
X171577Y263144D01*
X167682Y257627D02*
X163788Y263144D01*
X167682Y257627D02*
X167682Y251460D01*
X204404Y452882D02*
X207001Y452882D01*
X207100Y452884D01*
X207200Y452890D01*
X207299Y452899D01*
X207397Y452912D01*
X207495Y452929D01*
X207593Y452950D01*
X207689Y452975D01*
X207784Y453003D01*
X207878Y453035D01*
X207971Y453070D01*
X208063Y453109D01*
X208153Y453152D01*
X208241Y453197D01*
X208328Y453247D01*
X208412Y453299D01*
X208495Y453355D01*
X208575Y453413D01*
X208653Y453475D01*
X208728Y453540D01*
X208801Y453608D01*
X208871Y453678D01*
X208939Y453751D01*
X209004Y453826D01*
X209066Y453904D01*
X209124Y453984D01*
X209180Y454067D01*
X209232Y454151D01*
X209282Y454238D01*
X209327Y454326D01*
X209370Y454416D01*
X209409Y454508D01*
X209444Y454601D01*
X209476Y454695D01*
X209504Y454790D01*
X209529Y454886D01*
X209550Y454984D01*
X209567Y455082D01*
X209580Y455180D01*
X209589Y455279D01*
X209595Y455379D01*
X209597Y455478D01*
X209597Y461970D01*
X209595Y462069D01*
X209589Y462169D01*
X209580Y462268D01*
X209567Y462366D01*
X209550Y462464D01*
X209529Y462562D01*
X209504Y462658D01*
X209476Y462753D01*
X209444Y462847D01*
X209409Y462940D01*
X209370Y463032D01*
X209327Y463122D01*
X209282Y463210D01*
X209232Y463297D01*
X209180Y463381D01*
X209124Y463464D01*
X209066Y463544D01*
X209004Y463622D01*
X208939Y463697D01*
X208871Y463770D01*
X208801Y463840D01*
X208728Y463908D01*
X208653Y463973D01*
X208575Y464035D01*
X208495Y464093D01*
X208412Y464149D01*
X208328Y464201D01*
X208241Y464251D01*
X208153Y464296D01*
X208063Y464339D01*
X207971Y464378D01*
X207878Y464413D01*
X207784Y464445D01*
X207689Y464473D01*
X207593Y464498D01*
X207495Y464519D01*
X207397Y464536D01*
X207299Y464549D01*
X207200Y464558D01*
X207100Y464564D01*
X207001Y464566D01*
X204404Y464566D01*
X193929Y455478D02*
X193931Y455379D01*
X193937Y455279D01*
X193946Y455180D01*
X193959Y455082D01*
X193976Y454984D01*
X193997Y454886D01*
X194022Y454790D01*
X194050Y454695D01*
X194082Y454601D01*
X194117Y454508D01*
X194156Y454416D01*
X194199Y454326D01*
X194244Y454238D01*
X194294Y454151D01*
X194346Y454067D01*
X194402Y453984D01*
X194460Y453904D01*
X194522Y453826D01*
X194587Y453751D01*
X194655Y453678D01*
X194725Y453608D01*
X194798Y453540D01*
X194873Y453475D01*
X194951Y453413D01*
X195031Y453355D01*
X195114Y453299D01*
X195198Y453247D01*
X195285Y453197D01*
X195373Y453152D01*
X195463Y453109D01*
X195555Y453070D01*
X195648Y453035D01*
X195742Y453003D01*
X195837Y452975D01*
X195933Y452950D01*
X196031Y452929D01*
X196129Y452912D01*
X196227Y452899D01*
X196326Y452890D01*
X196426Y452884D01*
X196525Y452882D01*
X196669Y452884D01*
X196814Y452890D01*
X196958Y452899D01*
X197101Y452912D01*
X197245Y452929D01*
X197388Y452950D01*
X197530Y452975D01*
X197671Y453003D01*
X197812Y453035D01*
X197952Y453071D01*
X198091Y453110D01*
X198229Y453153D01*
X198365Y453200D01*
X198501Y453250D01*
X198635Y453304D01*
X198767Y453361D01*
X198898Y453422D01*
X199027Y453486D01*
X199155Y453554D01*
X199281Y453625D01*
X199405Y453699D01*
X199526Y453776D01*
X199646Y453857D01*
X199764Y453940D01*
X199879Y454027D01*
X199992Y454117D01*
X200103Y454210D01*
X200211Y454305D01*
X200317Y454404D01*
X200420Y454505D01*
X200095Y461970D02*
X200093Y462069D01*
X200087Y462169D01*
X200078Y462268D01*
X200065Y462366D01*
X200048Y462464D01*
X200027Y462562D01*
X200002Y462658D01*
X199974Y462753D01*
X199942Y462847D01*
X199907Y462940D01*
X199868Y463032D01*
X199825Y463122D01*
X199780Y463210D01*
X199730Y463297D01*
X199678Y463381D01*
X199622Y463464D01*
X199564Y463544D01*
X199502Y463622D01*
X199437Y463697D01*
X199369Y463770D01*
X199299Y463840D01*
X199226Y463908D01*
X199151Y463973D01*
X199073Y464035D01*
X198993Y464093D01*
X198910Y464149D01*
X198826Y464201D01*
X198739Y464251D01*
X198651Y464296D01*
X198561Y464339D01*
X198469Y464378D01*
X198376Y464413D01*
X198282Y464445D01*
X198187Y464473D01*
X198091Y464498D01*
X197993Y464519D01*
X197895Y464536D01*
X197797Y464549D01*
X197698Y464558D01*
X197598Y464564D01*
X197499Y464566D01*
X197363Y464564D01*
X197227Y464558D01*
X197091Y464549D01*
X196955Y464536D01*
X196820Y464518D01*
X196686Y464498D01*
X196552Y464473D01*
X196418Y464445D01*
X196286Y464412D01*
X196155Y464377D01*
X196024Y464337D01*
X195895Y464294D01*
X195767Y464248D01*
X195641Y464197D01*
X195515Y464144D01*
X195392Y464086D01*
X195270Y464026D01*
X195150Y463962D01*
X195031Y463894D01*
X194915Y463824D01*
X194801Y463750D01*
X194688Y463673D01*
X194578Y463592D01*
X198797Y459698D02*
X198883Y459751D01*
X198967Y459808D01*
X199049Y459867D01*
X199129Y459930D01*
X199206Y459996D01*
X199281Y460064D01*
X199353Y460136D01*
X199422Y460210D01*
X199488Y460287D01*
X199551Y460366D01*
X199611Y460448D01*
X199668Y460532D01*
X199722Y460618D01*
X199772Y460706D01*
X199819Y460796D01*
X199863Y460887D01*
X199902Y460981D01*
X199939Y461075D01*
X199971Y461171D01*
X200000Y461269D01*
X200025Y461367D01*
X200046Y461466D01*
X200064Y461566D01*
X200077Y461666D01*
X200087Y461767D01*
X200093Y461869D01*
X200095Y461970D01*
X195227Y457750D02*
X195141Y457697D01*
X195057Y457640D01*
X194975Y457581D01*
X194895Y457518D01*
X194818Y457452D01*
X194743Y457384D01*
X194671Y457312D01*
X194602Y457238D01*
X194536Y457161D01*
X194473Y457082D01*
X194413Y457000D01*
X194356Y456916D01*
X194302Y456830D01*
X194252Y456742D01*
X194205Y456652D01*
X194161Y456561D01*
X194122Y456467D01*
X194085Y456373D01*
X194053Y456277D01*
X194024Y456179D01*
X193999Y456081D01*
X193978Y455982D01*
X193960Y455882D01*
X193947Y455782D01*
X193937Y455681D01*
X193931Y455579D01*
X193929Y455478D01*
X195227Y457750D02*
X198797Y459698D01*
X182894Y464566D02*
X182894Y452882D01*
X182894Y464566D02*
X179648Y464566D01*
X179535Y464564D01*
X179422Y464558D01*
X179309Y464548D01*
X179196Y464534D01*
X179084Y464517D01*
X178973Y464495D01*
X178863Y464470D01*
X178753Y464440D01*
X178645Y464407D01*
X178538Y464370D01*
X178432Y464330D01*
X178328Y464285D01*
X178225Y464237D01*
X178124Y464186D01*
X178025Y464131D01*
X177928Y464073D01*
X177833Y464011D01*
X177740Y463946D01*
X177650Y463878D01*
X177562Y463807D01*
X177476Y463732D01*
X177393Y463655D01*
X177313Y463575D01*
X177236Y463492D01*
X177161Y463406D01*
X177090Y463318D01*
X177022Y463228D01*
X176957Y463135D01*
X176895Y463040D01*
X176837Y462943D01*
X176782Y462844D01*
X176731Y462743D01*
X176683Y462640D01*
X176638Y462536D01*
X176598Y462430D01*
X176561Y462323D01*
X176528Y462215D01*
X176498Y462105D01*
X176473Y461995D01*
X176451Y461884D01*
X176434Y461772D01*
X176420Y461659D01*
X176410Y461546D01*
X176404Y461433D01*
X176402Y461320D01*
X176403Y461320D02*
X176403Y456128D01*
X176402Y456128D02*
X176404Y456015D01*
X176410Y455902D01*
X176420Y455789D01*
X176434Y455676D01*
X176451Y455564D01*
X176473Y455453D01*
X176498Y455343D01*
X176528Y455233D01*
X176561Y455125D01*
X176598Y455018D01*
X176638Y454912D01*
X176683Y454808D01*
X176731Y454705D01*
X176782Y454604D01*
X176837Y454505D01*
X176895Y454408D01*
X176957Y454313D01*
X177022Y454220D01*
X177090Y454130D01*
X177161Y454042D01*
X177236Y453956D01*
X177313Y453873D01*
X177393Y453793D01*
X177476Y453716D01*
X177562Y453641D01*
X177650Y453570D01*
X177740Y453502D01*
X177833Y453437D01*
X177928Y453375D01*
X178025Y453317D01*
X178124Y453262D01*
X178225Y453211D01*
X178328Y453163D01*
X178432Y453118D01*
X178538Y453078D01*
X178645Y453041D01*
X178753Y453008D01*
X178863Y452978D01*
X178973Y452953D01*
X179084Y452931D01*
X179196Y452914D01*
X179309Y452900D01*
X179422Y452890D01*
X179535Y452884D01*
X179648Y452882D01*
X182894Y452882D01*
X168983Y457426D02*
X166062Y457426D01*
X168983Y457426D02*
X169077Y457424D01*
X169171Y457418D01*
X169264Y457409D01*
X169357Y457395D01*
X169449Y457378D01*
X169541Y457356D01*
X169631Y457332D01*
X169721Y457303D01*
X169809Y457271D01*
X169896Y457235D01*
X169981Y457195D01*
X170064Y457152D01*
X170146Y457106D01*
X170226Y457056D01*
X170303Y457003D01*
X170378Y456947D01*
X170451Y456888D01*
X170522Y456826D01*
X170590Y456761D01*
X170655Y456693D01*
X170717Y456622D01*
X170776Y456549D01*
X170832Y456474D01*
X170885Y456397D01*
X170935Y456317D01*
X170981Y456235D01*
X171024Y456152D01*
X171064Y456067D01*
X171100Y455980D01*
X171132Y455892D01*
X171161Y455802D01*
X171185Y455712D01*
X171207Y455620D01*
X171224Y455528D01*
X171238Y455435D01*
X171247Y455342D01*
X171253Y455248D01*
X171255Y455154D01*
X171253Y455060D01*
X171247Y454966D01*
X171238Y454873D01*
X171224Y454780D01*
X171207Y454688D01*
X171185Y454596D01*
X171161Y454506D01*
X171132Y454416D01*
X171100Y454328D01*
X171064Y454241D01*
X171024Y454156D01*
X170981Y454073D01*
X170935Y453991D01*
X170885Y453911D01*
X170832Y453834D01*
X170776Y453759D01*
X170717Y453686D01*
X170655Y453615D01*
X170590Y453547D01*
X170522Y453482D01*
X170451Y453420D01*
X170378Y453361D01*
X170303Y453305D01*
X170226Y453252D01*
X170146Y453202D01*
X170064Y453156D01*
X169981Y453113D01*
X169896Y453073D01*
X169809Y453037D01*
X169721Y453005D01*
X169631Y452976D01*
X169541Y452952D01*
X169449Y452930D01*
X169357Y452913D01*
X169264Y452899D01*
X169171Y452890D01*
X169077Y452884D01*
X168983Y452882D01*
X166062Y452882D01*
X166062Y458724D01*
X166064Y458811D01*
X166070Y458899D01*
X166080Y458985D01*
X166093Y459072D01*
X166111Y459157D01*
X166132Y459242D01*
X166157Y459326D01*
X166186Y459408D01*
X166219Y459489D01*
X166255Y459569D01*
X166294Y459647D01*
X166338Y459723D01*
X166384Y459797D01*
X166434Y459868D01*
X166487Y459938D01*
X166543Y460005D01*
X166602Y460070D01*
X166664Y460131D01*
X166728Y460190D01*
X166795Y460246D01*
X166865Y460299D01*
X166936Y460349D01*
X167010Y460395D01*
X167086Y460439D01*
X167164Y460478D01*
X167244Y460514D01*
X167325Y460547D01*
X167407Y460576D01*
X167491Y460601D01*
X167576Y460622D01*
X167661Y460640D01*
X167748Y460653D01*
X167835Y460663D01*
X167922Y460669D01*
X168009Y460671D01*
X170606Y460671D01*
X160528Y460671D02*
X160528Y454829D01*
X160526Y454742D01*
X160520Y454654D01*
X160510Y454568D01*
X160497Y454481D01*
X160479Y454396D01*
X160458Y454311D01*
X160433Y454227D01*
X160404Y454145D01*
X160371Y454064D01*
X160335Y453984D01*
X160296Y453906D01*
X160252Y453830D01*
X160206Y453756D01*
X160156Y453685D01*
X160103Y453615D01*
X160047Y453548D01*
X159988Y453484D01*
X159926Y453422D01*
X159862Y453363D01*
X159795Y453307D01*
X159725Y453254D01*
X159654Y453204D01*
X159580Y453158D01*
X159504Y453114D01*
X159426Y453075D01*
X159346Y453039D01*
X159265Y453006D01*
X159183Y452977D01*
X159099Y452952D01*
X159014Y452931D01*
X158929Y452913D01*
X158842Y452900D01*
X158756Y452890D01*
X158668Y452884D01*
X158581Y452882D01*
X155335Y452882D01*
X155335Y460671D01*
X148352Y452882D02*
X145107Y452882D01*
X148352Y452882D02*
X148439Y452884D01*
X148527Y452890D01*
X148613Y452900D01*
X148700Y452913D01*
X148785Y452931D01*
X148870Y452952D01*
X148954Y452977D01*
X149036Y453006D01*
X149117Y453039D01*
X149197Y453075D01*
X149275Y453114D01*
X149351Y453158D01*
X149425Y453204D01*
X149496Y453254D01*
X149566Y453307D01*
X149633Y453363D01*
X149697Y453422D01*
X149759Y453484D01*
X149818Y453548D01*
X149874Y453615D01*
X149927Y453685D01*
X149977Y453756D01*
X150023Y453830D01*
X150067Y453906D01*
X150106Y453984D01*
X150142Y454064D01*
X150175Y454145D01*
X150204Y454227D01*
X150229Y454311D01*
X150250Y454396D01*
X150268Y454481D01*
X150281Y454568D01*
X150291Y454654D01*
X150297Y454742D01*
X150299Y454829D01*
X150300Y454829D02*
X150300Y458724D01*
X150299Y458724D02*
X150297Y458811D01*
X150291Y458899D01*
X150281Y458985D01*
X150268Y459072D01*
X150250Y459157D01*
X150229Y459242D01*
X150204Y459326D01*
X150175Y459408D01*
X150142Y459489D01*
X150106Y459569D01*
X150067Y459647D01*
X150023Y459723D01*
X149977Y459797D01*
X149927Y459868D01*
X149874Y459938D01*
X149818Y460005D01*
X149759Y460069D01*
X149697Y460131D01*
X149633Y460190D01*
X149566Y460246D01*
X149496Y460299D01*
X149425Y460349D01*
X149351Y460395D01*
X149275Y460439D01*
X149197Y460478D01*
X149117Y460514D01*
X149036Y460547D01*
X148954Y460576D01*
X148870Y460601D01*
X148785Y460622D01*
X148700Y460640D01*
X148613Y460653D01*
X148527Y460663D01*
X148439Y460669D01*
X148352Y460671D01*
X145107Y460671D01*
X145107Y450935D01*
X145109Y450848D01*
X145115Y450760D01*
X145125Y450674D01*
X145138Y450587D01*
X145156Y450502D01*
X145177Y450417D01*
X145202Y450333D01*
X145231Y450251D01*
X145264Y450170D01*
X145300Y450090D01*
X145339Y450012D01*
X145383Y449936D01*
X145429Y449862D01*
X145479Y449791D01*
X145532Y449721D01*
X145588Y449654D01*
X145647Y449590D01*
X145709Y449528D01*
X145773Y449469D01*
X145840Y449413D01*
X145910Y449360D01*
X145981Y449310D01*
X146055Y449264D01*
X146131Y449220D01*
X146209Y449181D01*
X146289Y449145D01*
X146370Y449112D01*
X146452Y449083D01*
X146536Y449058D01*
X146621Y449037D01*
X146706Y449019D01*
X146793Y449006D01*
X146879Y448996D01*
X146967Y448990D01*
X147054Y448988D01*
X147054Y448987D02*
X149651Y448987D01*
X139573Y452882D02*
X139573Y464566D01*
X139573Y460671D02*
X136327Y460671D01*
X136240Y460669D01*
X136152Y460663D01*
X136066Y460653D01*
X135979Y460640D01*
X135894Y460622D01*
X135809Y460601D01*
X135725Y460576D01*
X135643Y460547D01*
X135562Y460514D01*
X135482Y460478D01*
X135404Y460439D01*
X135328Y460395D01*
X135254Y460349D01*
X135183Y460299D01*
X135113Y460246D01*
X135046Y460190D01*
X134982Y460131D01*
X134920Y460070D01*
X134861Y460005D01*
X134805Y459938D01*
X134752Y459868D01*
X134702Y459797D01*
X134656Y459723D01*
X134613Y459647D01*
X134573Y459569D01*
X134537Y459489D01*
X134504Y459408D01*
X134475Y459326D01*
X134450Y459242D01*
X134429Y459157D01*
X134411Y459072D01*
X134398Y458985D01*
X134388Y458899D01*
X134382Y458811D01*
X134380Y458724D01*
X134380Y452882D01*
X130253Y460671D02*
X126359Y460671D01*
X128955Y464566D02*
X128955Y454829D01*
X128953Y454742D01*
X128947Y454654D01*
X128937Y454568D01*
X128924Y454481D01*
X128906Y454396D01*
X128885Y454311D01*
X128860Y454227D01*
X128831Y454145D01*
X128798Y454064D01*
X128762Y453984D01*
X128723Y453906D01*
X128679Y453830D01*
X128633Y453756D01*
X128583Y453685D01*
X128530Y453615D01*
X128474Y453548D01*
X128415Y453484D01*
X128353Y453422D01*
X128289Y453363D01*
X128222Y453307D01*
X128152Y453254D01*
X128081Y453204D01*
X128007Y453158D01*
X127931Y453114D01*
X127853Y453075D01*
X127773Y453039D01*
X127692Y453006D01*
X127610Y452977D01*
X127526Y452952D01*
X127441Y452931D01*
X127356Y452913D01*
X127269Y452900D01*
X127183Y452890D01*
X127095Y452884D01*
X127008Y452882D01*
X126359Y452882D01*
X120100Y452882D02*
X116854Y452882D01*
X120100Y452882D02*
X120187Y452884D01*
X120275Y452890D01*
X120361Y452900D01*
X120448Y452913D01*
X120533Y452931D01*
X120618Y452952D01*
X120702Y452977D01*
X120784Y453006D01*
X120865Y453039D01*
X120945Y453075D01*
X121023Y453114D01*
X121099Y453158D01*
X121173Y453204D01*
X121244Y453254D01*
X121314Y453307D01*
X121381Y453363D01*
X121445Y453422D01*
X121507Y453484D01*
X121566Y453548D01*
X121622Y453615D01*
X121675Y453685D01*
X121725Y453756D01*
X121771Y453830D01*
X121815Y453906D01*
X121854Y453984D01*
X121890Y454064D01*
X121923Y454145D01*
X121952Y454227D01*
X121977Y454311D01*
X121998Y454396D01*
X122016Y454481D01*
X122029Y454568D01*
X122039Y454654D01*
X122045Y454742D01*
X122047Y454829D01*
X122047Y458075D01*
X122046Y458075D02*
X122044Y458176D01*
X122038Y458276D01*
X122028Y458376D01*
X122015Y458476D01*
X121997Y458575D01*
X121976Y458674D01*
X121951Y458771D01*
X121922Y458868D01*
X121889Y458963D01*
X121853Y459057D01*
X121813Y459149D01*
X121770Y459240D01*
X121723Y459329D01*
X121673Y459416D01*
X121619Y459502D01*
X121562Y459585D01*
X121502Y459665D01*
X121439Y459744D01*
X121372Y459820D01*
X121303Y459893D01*
X121231Y459963D01*
X121157Y460031D01*
X121080Y460096D01*
X121000Y460157D01*
X120918Y460216D01*
X120834Y460271D01*
X120748Y460323D01*
X120660Y460372D01*
X120570Y460417D01*
X120478Y460459D01*
X120385Y460497D01*
X120290Y460531D01*
X120195Y460562D01*
X120098Y460589D01*
X120000Y460612D01*
X119901Y460632D01*
X119801Y460647D01*
X119701Y460659D01*
X119601Y460667D01*
X119500Y460671D01*
X119400Y460671D01*
X119299Y460667D01*
X119199Y460659D01*
X119099Y460647D01*
X118999Y460632D01*
X118900Y460612D01*
X118802Y460589D01*
X118705Y460562D01*
X118610Y460531D01*
X118515Y460497D01*
X118422Y460459D01*
X118330Y460417D01*
X118240Y460372D01*
X118152Y460323D01*
X118066Y460271D01*
X117982Y460216D01*
X117900Y460157D01*
X117820Y460096D01*
X117743Y460031D01*
X117669Y459963D01*
X117597Y459893D01*
X117528Y459820D01*
X117461Y459744D01*
X117398Y459665D01*
X117338Y459585D01*
X117281Y459502D01*
X117227Y459416D01*
X117177Y459329D01*
X117130Y459240D01*
X117087Y459149D01*
X117047Y459057D01*
X117011Y458963D01*
X116978Y458868D01*
X116949Y458771D01*
X116924Y458674D01*
X116903Y458575D01*
X116885Y458476D01*
X116872Y458376D01*
X116862Y458276D01*
X116856Y458176D01*
X116854Y458075D01*
X116854Y456777D01*
X122047Y456777D01*
X111694Y452882D02*
X111694Y460671D01*
X107799Y460671D01*
X107799Y459373D01*
X95368Y452882D02*
X92771Y452882D01*
X95368Y452882D02*
X95467Y452884D01*
X95567Y452890D01*
X95666Y452899D01*
X95764Y452912D01*
X95862Y452929D01*
X95960Y452950D01*
X96056Y452975D01*
X96151Y453003D01*
X96245Y453035D01*
X96338Y453070D01*
X96430Y453109D01*
X96520Y453152D01*
X96608Y453197D01*
X96695Y453247D01*
X96779Y453299D01*
X96862Y453355D01*
X96942Y453413D01*
X97020Y453475D01*
X97095Y453540D01*
X97168Y453608D01*
X97238Y453678D01*
X97306Y453751D01*
X97371Y453826D01*
X97433Y453904D01*
X97491Y453984D01*
X97547Y454067D01*
X97599Y454151D01*
X97649Y454238D01*
X97694Y454326D01*
X97737Y454416D01*
X97776Y454508D01*
X97811Y454601D01*
X97843Y454695D01*
X97871Y454790D01*
X97896Y454886D01*
X97917Y454984D01*
X97934Y455082D01*
X97947Y455180D01*
X97956Y455279D01*
X97962Y455379D01*
X97964Y455478D01*
X97964Y461970D01*
X97962Y462069D01*
X97956Y462169D01*
X97947Y462268D01*
X97934Y462366D01*
X97917Y462464D01*
X97896Y462562D01*
X97871Y462658D01*
X97843Y462753D01*
X97811Y462847D01*
X97776Y462940D01*
X97737Y463032D01*
X97694Y463122D01*
X97649Y463210D01*
X97599Y463297D01*
X97547Y463381D01*
X97491Y463464D01*
X97433Y463544D01*
X97371Y463622D01*
X97306Y463697D01*
X97238Y463770D01*
X97168Y463840D01*
X97095Y463908D01*
X97020Y463973D01*
X96942Y464035D01*
X96862Y464093D01*
X96779Y464149D01*
X96695Y464201D01*
X96608Y464251D01*
X96520Y464296D01*
X96430Y464339D01*
X96338Y464378D01*
X96245Y464413D01*
X96151Y464445D01*
X96056Y464473D01*
X95960Y464498D01*
X95862Y464519D01*
X95764Y464536D01*
X95666Y464549D01*
X95567Y464558D01*
X95467Y464564D01*
X95368Y464566D01*
X92771Y464566D01*
X86306Y457426D02*
X83385Y457426D01*
X86306Y457426D02*
X86400Y457424D01*
X86494Y457418D01*
X86587Y457409D01*
X86680Y457395D01*
X86772Y457378D01*
X86864Y457356D01*
X86954Y457332D01*
X87044Y457303D01*
X87132Y457271D01*
X87219Y457235D01*
X87304Y457195D01*
X87387Y457152D01*
X87469Y457106D01*
X87549Y457056D01*
X87626Y457003D01*
X87701Y456947D01*
X87774Y456888D01*
X87845Y456826D01*
X87913Y456761D01*
X87978Y456693D01*
X88040Y456622D01*
X88099Y456549D01*
X88155Y456474D01*
X88208Y456397D01*
X88258Y456317D01*
X88304Y456235D01*
X88347Y456152D01*
X88387Y456067D01*
X88423Y455980D01*
X88455Y455892D01*
X88484Y455802D01*
X88508Y455712D01*
X88530Y455620D01*
X88547Y455528D01*
X88561Y455435D01*
X88570Y455342D01*
X88576Y455248D01*
X88578Y455154D01*
X88576Y455060D01*
X88570Y454966D01*
X88561Y454873D01*
X88547Y454780D01*
X88530Y454688D01*
X88508Y454596D01*
X88484Y454506D01*
X88455Y454416D01*
X88423Y454328D01*
X88387Y454241D01*
X88347Y454156D01*
X88304Y454073D01*
X88258Y453991D01*
X88208Y453911D01*
X88155Y453834D01*
X88099Y453759D01*
X88040Y453686D01*
X87978Y453615D01*
X87913Y453547D01*
X87845Y453482D01*
X87774Y453420D01*
X87701Y453361D01*
X87626Y453305D01*
X87549Y453252D01*
X87469Y453202D01*
X87387Y453156D01*
X87304Y453113D01*
X87219Y453073D01*
X87132Y453037D01*
X87044Y453005D01*
X86954Y452976D01*
X86864Y452952D01*
X86772Y452930D01*
X86680Y452913D01*
X86587Y452899D01*
X86494Y452890D01*
X86400Y452884D01*
X86306Y452882D01*
X83385Y452882D01*
X83385Y458724D01*
X83387Y458811D01*
X83393Y458899D01*
X83403Y458985D01*
X83416Y459072D01*
X83434Y459157D01*
X83455Y459242D01*
X83480Y459326D01*
X83509Y459408D01*
X83542Y459489D01*
X83578Y459569D01*
X83617Y459647D01*
X83661Y459723D01*
X83707Y459797D01*
X83757Y459868D01*
X83810Y459938D01*
X83866Y460005D01*
X83925Y460070D01*
X83987Y460131D01*
X84051Y460190D01*
X84118Y460246D01*
X84188Y460299D01*
X84259Y460349D01*
X84333Y460395D01*
X84409Y460439D01*
X84487Y460478D01*
X84567Y460514D01*
X84648Y460547D01*
X84730Y460576D01*
X84814Y460601D01*
X84899Y460622D01*
X84984Y460640D01*
X85071Y460653D01*
X85158Y460663D01*
X85245Y460669D01*
X85332Y460671D01*
X87929Y460671D01*
X77785Y460671D02*
X77785Y452882D01*
X77785Y460671D02*
X73890Y460671D01*
X73890Y459373D01*
X65097Y464566D02*
X65097Y452882D01*
X68343Y452882D01*
X68430Y452884D01*
X68518Y452890D01*
X68604Y452900D01*
X68691Y452913D01*
X68776Y452931D01*
X68861Y452952D01*
X68945Y452977D01*
X69027Y453006D01*
X69108Y453039D01*
X69188Y453075D01*
X69266Y453114D01*
X69342Y453158D01*
X69416Y453204D01*
X69487Y453254D01*
X69557Y453307D01*
X69624Y453363D01*
X69688Y453422D01*
X69750Y453484D01*
X69809Y453548D01*
X69865Y453615D01*
X69918Y453685D01*
X69968Y453756D01*
X70014Y453830D01*
X70058Y453906D01*
X70097Y453984D01*
X70133Y454064D01*
X70166Y454145D01*
X70195Y454227D01*
X70220Y454311D01*
X70241Y454396D01*
X70259Y454481D01*
X70272Y454568D01*
X70282Y454654D01*
X70288Y454742D01*
X70290Y454829D01*
X70290Y458724D01*
X70288Y458811D01*
X70282Y458899D01*
X70272Y458985D01*
X70259Y459072D01*
X70241Y459157D01*
X70220Y459242D01*
X70195Y459326D01*
X70166Y459408D01*
X70133Y459489D01*
X70097Y459569D01*
X70058Y459647D01*
X70014Y459723D01*
X69968Y459797D01*
X69918Y459868D01*
X69865Y459938D01*
X69809Y460005D01*
X69750Y460069D01*
X69688Y460131D01*
X69624Y460190D01*
X69557Y460246D01*
X69487Y460299D01*
X69416Y460349D01*
X69342Y460395D01*
X69266Y460439D01*
X69188Y460478D01*
X69108Y460514D01*
X69027Y460547D01*
X68945Y460576D01*
X68861Y460601D01*
X68776Y460622D01*
X68691Y460640D01*
X68604Y460653D01*
X68518Y460663D01*
X68430Y460669D01*
X68343Y460671D01*
X65097Y460671D01*
X54229Y460671D02*
X51633Y452882D01*
X49036Y460671D01*
X41021Y464566D02*
X40914Y464564D01*
X40808Y464558D01*
X40702Y464548D01*
X40596Y464535D01*
X40490Y464517D01*
X40386Y464496D01*
X40282Y464471D01*
X40179Y464442D01*
X40078Y464410D01*
X39978Y464373D01*
X39879Y464333D01*
X39781Y464290D01*
X39685Y464243D01*
X39591Y464192D01*
X39499Y464138D01*
X39409Y464081D01*
X39321Y464021D01*
X39236Y463957D01*
X39153Y463890D01*
X39072Y463820D01*
X38994Y463748D01*
X38918Y463672D01*
X38846Y463594D01*
X38776Y463513D01*
X38709Y463430D01*
X38645Y463345D01*
X38585Y463257D01*
X38528Y463167D01*
X38474Y463075D01*
X38423Y462981D01*
X38376Y462885D01*
X38333Y462787D01*
X38293Y462688D01*
X38256Y462588D01*
X38224Y462487D01*
X38195Y462384D01*
X38170Y462280D01*
X38149Y462176D01*
X38131Y462070D01*
X38118Y461964D01*
X38108Y461858D01*
X38102Y461752D01*
X38100Y461645D01*
X41021Y464566D02*
X41142Y464564D01*
X41263Y464558D01*
X41383Y464548D01*
X41504Y464535D01*
X41623Y464517D01*
X41743Y464496D01*
X41861Y464471D01*
X41978Y464442D01*
X42095Y464409D01*
X42210Y464373D01*
X42324Y464332D01*
X42437Y464289D01*
X42549Y464241D01*
X42658Y464190D01*
X42766Y464135D01*
X42873Y464077D01*
X42977Y464016D01*
X43079Y463951D01*
X43179Y463883D01*
X43277Y463812D01*
X43373Y463738D01*
X43466Y463661D01*
X43556Y463580D01*
X43644Y463497D01*
X43729Y463411D01*
X43812Y463322D01*
X43891Y463231D01*
X43968Y463137D01*
X44041Y463041D01*
X44111Y462943D01*
X44178Y462842D01*
X44242Y462739D01*
X44303Y462634D01*
X44360Y462527D01*
X44413Y462419D01*
X44463Y462309D01*
X44509Y462197D01*
X44552Y462084D01*
X44591Y461969D01*
X39074Y459373D02*
X38995Y459451D01*
X38919Y459531D01*
X38846Y459614D01*
X38776Y459700D01*
X38709Y459787D01*
X38645Y459878D01*
X38585Y459970D01*
X38527Y460064D01*
X38473Y460161D01*
X38423Y460259D01*
X38376Y460359D01*
X38332Y460460D01*
X38292Y460563D01*
X38256Y460668D01*
X38224Y460773D01*
X38195Y460880D01*
X38170Y460987D01*
X38148Y461096D01*
X38131Y461205D01*
X38117Y461314D01*
X38108Y461424D01*
X38102Y461535D01*
X38100Y461645D01*
X39074Y459373D02*
X44591Y452882D01*
X38100Y452882D01*
X204404Y439420D02*
X209597Y439420D01*
X209597Y451104D01*
X204404Y451104D01*
X205702Y445911D02*
X209597Y445911D01*
X200589Y447209D02*
X197992Y439420D01*
X195396Y447209D01*
X189116Y439420D02*
X185871Y439420D01*
X189116Y439420D02*
X189203Y439422D01*
X189291Y439428D01*
X189377Y439438D01*
X189464Y439451D01*
X189549Y439469D01*
X189634Y439490D01*
X189718Y439515D01*
X189800Y439544D01*
X189881Y439577D01*
X189961Y439613D01*
X190039Y439652D01*
X190115Y439696D01*
X190189Y439742D01*
X190260Y439792D01*
X190330Y439845D01*
X190397Y439901D01*
X190461Y439960D01*
X190523Y440022D01*
X190582Y440086D01*
X190638Y440153D01*
X190691Y440223D01*
X190741Y440294D01*
X190787Y440368D01*
X190831Y440444D01*
X190870Y440522D01*
X190906Y440602D01*
X190939Y440683D01*
X190968Y440765D01*
X190993Y440849D01*
X191014Y440934D01*
X191032Y441019D01*
X191045Y441106D01*
X191055Y441192D01*
X191061Y441280D01*
X191063Y441367D01*
X191064Y441367D02*
X191064Y444613D01*
X191063Y444613D02*
X191061Y444714D01*
X191055Y444814D01*
X191045Y444914D01*
X191032Y445014D01*
X191014Y445113D01*
X190993Y445212D01*
X190968Y445309D01*
X190939Y445406D01*
X190906Y445501D01*
X190870Y445595D01*
X190830Y445687D01*
X190787Y445778D01*
X190740Y445867D01*
X190690Y445954D01*
X190636Y446040D01*
X190579Y446123D01*
X190519Y446203D01*
X190456Y446282D01*
X190389Y446358D01*
X190320Y446431D01*
X190248Y446501D01*
X190174Y446569D01*
X190097Y446634D01*
X190017Y446695D01*
X189935Y446754D01*
X189851Y446809D01*
X189765Y446861D01*
X189677Y446910D01*
X189587Y446955D01*
X189495Y446997D01*
X189402Y447035D01*
X189307Y447069D01*
X189212Y447100D01*
X189115Y447127D01*
X189017Y447150D01*
X188918Y447170D01*
X188818Y447185D01*
X188718Y447197D01*
X188618Y447205D01*
X188517Y447209D01*
X188417Y447209D01*
X188316Y447205D01*
X188216Y447197D01*
X188116Y447185D01*
X188016Y447170D01*
X187917Y447150D01*
X187819Y447127D01*
X187722Y447100D01*
X187627Y447069D01*
X187532Y447035D01*
X187439Y446997D01*
X187347Y446955D01*
X187257Y446910D01*
X187169Y446861D01*
X187083Y446809D01*
X186999Y446754D01*
X186917Y446695D01*
X186837Y446634D01*
X186760Y446569D01*
X186686Y446501D01*
X186614Y446431D01*
X186545Y446358D01*
X186478Y446282D01*
X186415Y446203D01*
X186355Y446123D01*
X186298Y446040D01*
X186244Y445954D01*
X186194Y445867D01*
X186147Y445778D01*
X186104Y445687D01*
X186064Y445595D01*
X186028Y445501D01*
X185995Y445406D01*
X185966Y445309D01*
X185941Y445212D01*
X185920Y445113D01*
X185902Y445014D01*
X185889Y444914D01*
X185879Y444814D01*
X185873Y444714D01*
X185871Y444613D01*
X185871Y443315D01*
X191064Y443315D01*
X174568Y439420D02*
X174568Y451104D01*
X174568Y445911D02*
X168077Y445911D01*
X168077Y451104D02*
X168077Y439420D01*
X162489Y441367D02*
X162489Y447209D01*
X162488Y441367D02*
X162486Y441280D01*
X162480Y441192D01*
X162470Y441106D01*
X162457Y441019D01*
X162439Y440934D01*
X162418Y440849D01*
X162393Y440765D01*
X162364Y440683D01*
X162331Y440602D01*
X162295Y440522D01*
X162256Y440444D01*
X162212Y440368D01*
X162166Y440294D01*
X162116Y440223D01*
X162063Y440153D01*
X162007Y440086D01*
X161948Y440022D01*
X161886Y439960D01*
X161822Y439901D01*
X161755Y439845D01*
X161685Y439792D01*
X161614Y439742D01*
X161540Y439696D01*
X161464Y439652D01*
X161386Y439613D01*
X161306Y439577D01*
X161225Y439544D01*
X161143Y439515D01*
X161059Y439490D01*
X160974Y439469D01*
X160889Y439451D01*
X160802Y439438D01*
X160716Y439428D01*
X160628Y439422D01*
X160541Y439420D01*
X157296Y439420D01*
X157296Y447209D01*
X143396Y444613D02*
X139502Y444613D01*
X143396Y444613D02*
X143495Y444615D01*
X143595Y444621D01*
X143694Y444630D01*
X143792Y444643D01*
X143890Y444660D01*
X143988Y444681D01*
X144084Y444706D01*
X144179Y444734D01*
X144273Y444766D01*
X144366Y444801D01*
X144458Y444840D01*
X144548Y444883D01*
X144636Y444928D01*
X144723Y444978D01*
X144807Y445030D01*
X144890Y445086D01*
X144970Y445144D01*
X145048Y445206D01*
X145123Y445271D01*
X145196Y445339D01*
X145266Y445409D01*
X145334Y445482D01*
X145399Y445557D01*
X145461Y445635D01*
X145519Y445715D01*
X145575Y445798D01*
X145627Y445882D01*
X145677Y445969D01*
X145722Y446057D01*
X145765Y446147D01*
X145804Y446239D01*
X145839Y446332D01*
X145871Y446426D01*
X145899Y446521D01*
X145924Y446617D01*
X145945Y446715D01*
X145962Y446813D01*
X145975Y446911D01*
X145984Y447010D01*
X145990Y447110D01*
X145992Y447209D01*
X145993Y447209D02*
X145993Y447858D01*
X145991Y447971D01*
X145985Y448084D01*
X145975Y448197D01*
X145961Y448310D01*
X145944Y448422D01*
X145922Y448533D01*
X145897Y448643D01*
X145867Y448753D01*
X145834Y448861D01*
X145797Y448968D01*
X145757Y449074D01*
X145712Y449178D01*
X145664Y449281D01*
X145613Y449382D01*
X145558Y449481D01*
X145500Y449578D01*
X145438Y449673D01*
X145373Y449766D01*
X145305Y449856D01*
X145234Y449944D01*
X145159Y450030D01*
X145082Y450113D01*
X145002Y450193D01*
X144919Y450270D01*
X144833Y450345D01*
X144745Y450416D01*
X144655Y450484D01*
X144562Y450549D01*
X144467Y450611D01*
X144370Y450669D01*
X144271Y450724D01*
X144170Y450775D01*
X144067Y450823D01*
X143963Y450868D01*
X143857Y450908D01*
X143750Y450945D01*
X143642Y450978D01*
X143532Y451008D01*
X143422Y451033D01*
X143311Y451055D01*
X143199Y451072D01*
X143086Y451086D01*
X142973Y451096D01*
X142860Y451102D01*
X142747Y451104D01*
X142634Y451102D01*
X142521Y451096D01*
X142408Y451086D01*
X142295Y451072D01*
X142183Y451055D01*
X142072Y451033D01*
X141962Y451008D01*
X141852Y450978D01*
X141744Y450945D01*
X141637Y450908D01*
X141531Y450868D01*
X141427Y450823D01*
X141324Y450775D01*
X141223Y450724D01*
X141124Y450669D01*
X141027Y450611D01*
X140932Y450549D01*
X140839Y450484D01*
X140749Y450416D01*
X140661Y450345D01*
X140575Y450270D01*
X140492Y450193D01*
X140412Y450113D01*
X140335Y450030D01*
X140260Y449944D01*
X140189Y449856D01*
X140121Y449766D01*
X140056Y449673D01*
X139994Y449578D01*
X139936Y449481D01*
X139881Y449382D01*
X139830Y449281D01*
X139782Y449178D01*
X139737Y449074D01*
X139697Y448968D01*
X139660Y448861D01*
X139627Y448753D01*
X139597Y448643D01*
X139572Y448533D01*
X139550Y448422D01*
X139533Y448310D01*
X139519Y448197D01*
X139509Y448084D01*
X139503Y447971D01*
X139501Y447858D01*
X139502Y447858D02*
X139502Y444613D01*
X139501Y444613D02*
X139503Y444470D01*
X139509Y444327D01*
X139519Y444184D01*
X139533Y444042D01*
X139550Y443900D01*
X139572Y443758D01*
X139597Y443617D01*
X139627Y443477D01*
X139660Y443338D01*
X139697Y443200D01*
X139738Y443063D01*
X139782Y442927D01*
X139831Y442792D01*
X139883Y442659D01*
X139938Y442527D01*
X139998Y442397D01*
X140061Y442268D01*
X140127Y442141D01*
X140197Y442017D01*
X140270Y441894D01*
X140347Y441773D01*
X140427Y441654D01*
X140510Y441538D01*
X140596Y441423D01*
X140685Y441312D01*
X140778Y441202D01*
X140873Y441096D01*
X140972Y440992D01*
X141073Y440891D01*
X141177Y440792D01*
X141283Y440697D01*
X141393Y440604D01*
X141504Y440515D01*
X141619Y440429D01*
X141735Y440346D01*
X141854Y440266D01*
X141975Y440189D01*
X142097Y440116D01*
X142222Y440046D01*
X142349Y439980D01*
X142478Y439917D01*
X142608Y439857D01*
X142740Y439802D01*
X142873Y439750D01*
X143008Y439701D01*
X143144Y439657D01*
X143281Y439616D01*
X143419Y439579D01*
X143558Y439546D01*
X143698Y439516D01*
X143839Y439491D01*
X143981Y439469D01*
X144123Y439452D01*
X144265Y439438D01*
X144408Y439428D01*
X144551Y439422D01*
X144694Y439420D01*
X135057Y438122D02*
X129864Y452402D01*
X125419Y448508D02*
X122173Y451104D01*
X122173Y439420D01*
X118928Y439420D02*
X125419Y439420D01*
X110419Y451104D02*
X110312Y451102D01*
X110206Y451096D01*
X110100Y451086D01*
X109994Y451073D01*
X109888Y451055D01*
X109784Y451034D01*
X109680Y451009D01*
X109577Y450980D01*
X109476Y450948D01*
X109376Y450911D01*
X109277Y450871D01*
X109179Y450828D01*
X109083Y450781D01*
X108989Y450730D01*
X108897Y450676D01*
X108807Y450619D01*
X108719Y450559D01*
X108634Y450495D01*
X108551Y450428D01*
X108470Y450358D01*
X108392Y450286D01*
X108316Y450210D01*
X108244Y450132D01*
X108174Y450051D01*
X108107Y449968D01*
X108043Y449883D01*
X107983Y449795D01*
X107926Y449705D01*
X107872Y449613D01*
X107821Y449519D01*
X107774Y449423D01*
X107731Y449325D01*
X107691Y449226D01*
X107654Y449126D01*
X107622Y449025D01*
X107593Y448922D01*
X107568Y448818D01*
X107547Y448714D01*
X107529Y448608D01*
X107516Y448502D01*
X107506Y448396D01*
X107500Y448290D01*
X107498Y448183D01*
X110419Y451104D02*
X110540Y451102D01*
X110661Y451096D01*
X110781Y451086D01*
X110902Y451073D01*
X111021Y451055D01*
X111141Y451034D01*
X111259Y451009D01*
X111376Y450980D01*
X111493Y450947D01*
X111608Y450911D01*
X111722Y450870D01*
X111835Y450827D01*
X111947Y450779D01*
X112056Y450728D01*
X112164Y450673D01*
X112271Y450615D01*
X112375Y450554D01*
X112477Y450489D01*
X112577Y450421D01*
X112675Y450350D01*
X112771Y450276D01*
X112864Y450199D01*
X112954Y450118D01*
X113042Y450035D01*
X113127Y449949D01*
X113210Y449860D01*
X113289Y449769D01*
X113366Y449675D01*
X113439Y449579D01*
X113509Y449481D01*
X113576Y449380D01*
X113640Y449277D01*
X113701Y449172D01*
X113758Y449065D01*
X113811Y448957D01*
X113861Y448847D01*
X113907Y448735D01*
X113950Y448622D01*
X113989Y448507D01*
X108472Y445911D02*
X108393Y445989D01*
X108317Y446069D01*
X108244Y446152D01*
X108174Y446238D01*
X108107Y446325D01*
X108043Y446416D01*
X107983Y446508D01*
X107925Y446602D01*
X107871Y446699D01*
X107821Y446797D01*
X107774Y446897D01*
X107730Y446998D01*
X107690Y447101D01*
X107654Y447206D01*
X107622Y447311D01*
X107593Y447418D01*
X107568Y447525D01*
X107546Y447634D01*
X107529Y447743D01*
X107515Y447852D01*
X107506Y447962D01*
X107500Y448073D01*
X107498Y448183D01*
X108471Y445911D02*
X113989Y439420D01*
X107498Y439420D01*
X103053Y438122D02*
X97860Y452402D01*
X89845Y451104D02*
X89738Y451102D01*
X89632Y451096D01*
X89526Y451086D01*
X89420Y451073D01*
X89314Y451055D01*
X89210Y451034D01*
X89106Y451009D01*
X89003Y450980D01*
X88902Y450948D01*
X88802Y450911D01*
X88703Y450871D01*
X88605Y450828D01*
X88509Y450781D01*
X88415Y450730D01*
X88323Y450676D01*
X88233Y450619D01*
X88145Y450559D01*
X88060Y450495D01*
X87977Y450428D01*
X87896Y450358D01*
X87818Y450286D01*
X87742Y450210D01*
X87670Y450132D01*
X87600Y450051D01*
X87533Y449968D01*
X87469Y449883D01*
X87409Y449795D01*
X87352Y449705D01*
X87298Y449613D01*
X87247Y449519D01*
X87200Y449423D01*
X87157Y449325D01*
X87117Y449226D01*
X87080Y449126D01*
X87048Y449025D01*
X87019Y448922D01*
X86994Y448818D01*
X86973Y448714D01*
X86955Y448608D01*
X86942Y448502D01*
X86932Y448396D01*
X86926Y448290D01*
X86924Y448183D01*
X89845Y451104D02*
X89966Y451102D01*
X90087Y451096D01*
X90207Y451086D01*
X90328Y451073D01*
X90447Y451055D01*
X90567Y451034D01*
X90685Y451009D01*
X90802Y450980D01*
X90919Y450947D01*
X91034Y450911D01*
X91148Y450870D01*
X91261Y450827D01*
X91373Y450779D01*
X91482Y450728D01*
X91590Y450673D01*
X91697Y450615D01*
X91801Y450554D01*
X91903Y450489D01*
X92003Y450421D01*
X92101Y450350D01*
X92197Y450276D01*
X92290Y450199D01*
X92380Y450118D01*
X92468Y450035D01*
X92553Y449949D01*
X92636Y449860D01*
X92715Y449769D01*
X92792Y449675D01*
X92865Y449579D01*
X92935Y449481D01*
X93002Y449380D01*
X93066Y449277D01*
X93127Y449172D01*
X93184Y449065D01*
X93237Y448957D01*
X93287Y448847D01*
X93333Y448735D01*
X93376Y448622D01*
X93415Y448507D01*
X87898Y445911D02*
X87819Y445989D01*
X87743Y446069D01*
X87670Y446152D01*
X87600Y446238D01*
X87533Y446325D01*
X87469Y446416D01*
X87409Y446508D01*
X87351Y446602D01*
X87297Y446699D01*
X87247Y446797D01*
X87200Y446897D01*
X87156Y446998D01*
X87116Y447101D01*
X87080Y447206D01*
X87048Y447311D01*
X87019Y447418D01*
X86994Y447525D01*
X86972Y447634D01*
X86955Y447743D01*
X86941Y447852D01*
X86932Y447962D01*
X86926Y448073D01*
X86924Y448183D01*
X87897Y445911D02*
X93415Y439420D01*
X86924Y439420D01*
X81985Y445262D02*
X81982Y445492D01*
X81974Y445722D01*
X81960Y445951D01*
X81941Y446180D01*
X81916Y446409D01*
X81886Y446637D01*
X81851Y446864D01*
X81810Y447090D01*
X81764Y447315D01*
X81712Y447539D01*
X81655Y447762D01*
X81593Y447983D01*
X81525Y448203D01*
X81452Y448421D01*
X81374Y448637D01*
X81291Y448851D01*
X81203Y449064D01*
X81110Y449274D01*
X81011Y449481D01*
X80978Y449571D01*
X80942Y449660D01*
X80902Y449748D01*
X80858Y449833D01*
X80811Y449917D01*
X80761Y449999D01*
X80707Y450079D01*
X80651Y450156D01*
X80591Y450232D01*
X80528Y450305D01*
X80463Y450375D01*
X80394Y450443D01*
X80323Y450507D01*
X80250Y450569D01*
X80174Y450628D01*
X80096Y450684D01*
X80015Y450737D01*
X79933Y450786D01*
X79849Y450832D01*
X79762Y450875D01*
X79675Y450914D01*
X79585Y450950D01*
X79495Y450982D01*
X79403Y451010D01*
X79310Y451035D01*
X79216Y451056D01*
X79122Y451073D01*
X79027Y451087D01*
X78931Y451096D01*
X78835Y451102D01*
X78739Y451104D01*
X78643Y451102D01*
X78547Y451096D01*
X78451Y451087D01*
X78356Y451073D01*
X78262Y451056D01*
X78168Y451035D01*
X78075Y451010D01*
X77983Y450982D01*
X77893Y450950D01*
X77803Y450914D01*
X77716Y450875D01*
X77629Y450832D01*
X77545Y450786D01*
X77463Y450737D01*
X77382Y450684D01*
X77304Y450628D01*
X77228Y450569D01*
X77155Y450507D01*
X77084Y450443D01*
X77015Y450375D01*
X76950Y450305D01*
X76887Y450232D01*
X76827Y450157D01*
X76771Y450079D01*
X76717Y449999D01*
X76667Y449917D01*
X76620Y449833D01*
X76577Y449748D01*
X76536Y449660D01*
X76500Y449571D01*
X76467Y449481D01*
X76468Y449481D02*
X76369Y449273D01*
X76276Y449063D01*
X76188Y448851D01*
X76105Y448637D01*
X76027Y448420D01*
X75954Y448202D01*
X75886Y447983D01*
X75824Y447761D01*
X75767Y447539D01*
X75715Y447315D01*
X75669Y447090D01*
X75628Y446864D01*
X75593Y446636D01*
X75563Y446409D01*
X75538Y446180D01*
X75519Y445951D01*
X75505Y445722D01*
X75497Y445492D01*
X75494Y445262D01*
X81985Y445262D02*
X81982Y445032D01*
X81974Y444802D01*
X81960Y444573D01*
X81941Y444344D01*
X81916Y444115D01*
X81886Y443887D01*
X81851Y443660D01*
X81810Y443434D01*
X81764Y443209D01*
X81712Y442985D01*
X81655Y442762D01*
X81593Y442541D01*
X81525Y442321D01*
X81452Y442103D01*
X81374Y441887D01*
X81291Y441673D01*
X81203Y441461D01*
X81110Y441250D01*
X81011Y441043D01*
X80978Y440953D01*
X80942Y440864D01*
X80901Y440776D01*
X80858Y440691D01*
X80811Y440607D01*
X80761Y440525D01*
X80707Y440445D01*
X80651Y440368D01*
X80591Y440292D01*
X80528Y440219D01*
X80463Y440149D01*
X80394Y440081D01*
X80323Y440017D01*
X80250Y439955D01*
X80174Y439896D01*
X80096Y439840D01*
X80015Y439787D01*
X79933Y439738D01*
X79849Y439692D01*
X79762Y439649D01*
X79675Y439610D01*
X79585Y439574D01*
X79495Y439542D01*
X79403Y439514D01*
X79310Y439489D01*
X79216Y439468D01*
X79122Y439451D01*
X79027Y439437D01*
X78931Y439428D01*
X78835Y439422D01*
X78739Y439420D01*
X76467Y441043D02*
X76368Y441250D01*
X76275Y441461D01*
X76187Y441673D01*
X76104Y441887D01*
X76026Y442103D01*
X75953Y442321D01*
X75885Y442541D01*
X75823Y442762D01*
X75766Y442985D01*
X75714Y443209D01*
X75668Y443434D01*
X75627Y443660D01*
X75592Y443887D01*
X75562Y444115D01*
X75537Y444344D01*
X75518Y444573D01*
X75504Y444802D01*
X75496Y445032D01*
X75493Y445262D01*
X76467Y441043D02*
X76500Y440953D01*
X76536Y440864D01*
X76577Y440776D01*
X76620Y440691D01*
X76667Y440607D01*
X76717Y440525D01*
X76771Y440445D01*
X76827Y440367D01*
X76887Y440292D01*
X76950Y440219D01*
X77015Y440149D01*
X77084Y440081D01*
X77155Y440017D01*
X77228Y439955D01*
X77304Y439896D01*
X77382Y439840D01*
X77463Y439787D01*
X77545Y439738D01*
X77629Y439692D01*
X77716Y439649D01*
X77803Y439610D01*
X77893Y439574D01*
X77983Y439542D01*
X78075Y439514D01*
X78168Y439489D01*
X78262Y439468D01*
X78356Y439451D01*
X78451Y439437D01*
X78547Y439428D01*
X78643Y439422D01*
X78739Y439420D01*
X81336Y442016D02*
X76143Y448508D01*
X66985Y451104D02*
X66878Y451102D01*
X66772Y451096D01*
X66666Y451086D01*
X66560Y451073D01*
X66454Y451055D01*
X66350Y451034D01*
X66246Y451009D01*
X66143Y450980D01*
X66042Y450948D01*
X65942Y450911D01*
X65843Y450871D01*
X65745Y450828D01*
X65649Y450781D01*
X65555Y450730D01*
X65463Y450676D01*
X65373Y450619D01*
X65285Y450559D01*
X65200Y450495D01*
X65117Y450428D01*
X65036Y450358D01*
X64958Y450286D01*
X64882Y450210D01*
X64810Y450132D01*
X64740Y450051D01*
X64673Y449968D01*
X64609Y449883D01*
X64549Y449795D01*
X64492Y449705D01*
X64438Y449613D01*
X64387Y449519D01*
X64340Y449423D01*
X64297Y449325D01*
X64257Y449226D01*
X64220Y449126D01*
X64188Y449025D01*
X64159Y448922D01*
X64134Y448818D01*
X64113Y448714D01*
X64095Y448608D01*
X64082Y448502D01*
X64072Y448396D01*
X64066Y448290D01*
X64064Y448183D01*
X66985Y451104D02*
X67106Y451102D01*
X67227Y451096D01*
X67347Y451086D01*
X67468Y451073D01*
X67587Y451055D01*
X67707Y451034D01*
X67825Y451009D01*
X67942Y450980D01*
X68059Y450947D01*
X68174Y450911D01*
X68288Y450870D01*
X68401Y450827D01*
X68513Y450779D01*
X68622Y450728D01*
X68730Y450673D01*
X68837Y450615D01*
X68941Y450554D01*
X69043Y450489D01*
X69143Y450421D01*
X69241Y450350D01*
X69337Y450276D01*
X69430Y450199D01*
X69520Y450118D01*
X69608Y450035D01*
X69693Y449949D01*
X69776Y449860D01*
X69855Y449769D01*
X69932Y449675D01*
X70005Y449579D01*
X70075Y449481D01*
X70142Y449380D01*
X70206Y449277D01*
X70267Y449172D01*
X70324Y449065D01*
X70377Y448957D01*
X70427Y448847D01*
X70473Y448735D01*
X70516Y448622D01*
X70555Y448507D01*
X65038Y445911D02*
X64959Y445989D01*
X64883Y446069D01*
X64810Y446152D01*
X64740Y446238D01*
X64673Y446325D01*
X64609Y446416D01*
X64549Y446508D01*
X64491Y446602D01*
X64437Y446699D01*
X64387Y446797D01*
X64340Y446897D01*
X64296Y446998D01*
X64256Y447101D01*
X64220Y447206D01*
X64188Y447311D01*
X64159Y447418D01*
X64134Y447525D01*
X64112Y447634D01*
X64095Y447743D01*
X64081Y447852D01*
X64072Y447962D01*
X64066Y448073D01*
X64064Y448183D01*
X65037Y445911D02*
X70555Y439420D01*
X64064Y439420D01*
X59125Y445262D02*
X59122Y445492D01*
X59114Y445722D01*
X59100Y445951D01*
X59081Y446180D01*
X59056Y446409D01*
X59026Y446637D01*
X58991Y446864D01*
X58950Y447090D01*
X58904Y447315D01*
X58852Y447539D01*
X58795Y447762D01*
X58733Y447983D01*
X58665Y448203D01*
X58592Y448421D01*
X58514Y448637D01*
X58431Y448851D01*
X58343Y449064D01*
X58250Y449274D01*
X58151Y449481D01*
X58118Y449571D01*
X58082Y449660D01*
X58042Y449748D01*
X57998Y449833D01*
X57951Y449917D01*
X57901Y449999D01*
X57847Y450079D01*
X57791Y450156D01*
X57731Y450232D01*
X57668Y450305D01*
X57603Y450375D01*
X57534Y450443D01*
X57463Y450507D01*
X57390Y450569D01*
X57314Y450628D01*
X57236Y450684D01*
X57155Y450737D01*
X57073Y450786D01*
X56989Y450832D01*
X56902Y450875D01*
X56815Y450914D01*
X56725Y450950D01*
X56635Y450982D01*
X56543Y451010D01*
X56450Y451035D01*
X56356Y451056D01*
X56262Y451073D01*
X56167Y451087D01*
X56071Y451096D01*
X55975Y451102D01*
X55879Y451104D01*
X55783Y451102D01*
X55687Y451096D01*
X55591Y451087D01*
X55496Y451073D01*
X55402Y451056D01*
X55308Y451035D01*
X55215Y451010D01*
X55123Y450982D01*
X55033Y450950D01*
X54943Y450914D01*
X54856Y450875D01*
X54769Y450832D01*
X54685Y450786D01*
X54603Y450737D01*
X54522Y450684D01*
X54444Y450628D01*
X54368Y450569D01*
X54295Y450507D01*
X54224Y450443D01*
X54155Y450375D01*
X54090Y450305D01*
X54027Y450232D01*
X53967Y450157D01*
X53911Y450079D01*
X53857Y449999D01*
X53807Y449917D01*
X53760Y449833D01*
X53717Y449748D01*
X53676Y449660D01*
X53640Y449571D01*
X53607Y449481D01*
X53608Y449481D02*
X53509Y449273D01*
X53416Y449063D01*
X53328Y448851D01*
X53245Y448637D01*
X53167Y448420D01*
X53094Y448202D01*
X53026Y447983D01*
X52964Y447761D01*
X52907Y447539D01*
X52855Y447315D01*
X52809Y447090D01*
X52768Y446864D01*
X52733Y446636D01*
X52703Y446409D01*
X52678Y446180D01*
X52659Y445951D01*
X52645Y445722D01*
X52637Y445492D01*
X52634Y445262D01*
X59125Y445262D02*
X59122Y445032D01*
X59114Y444802D01*
X59100Y444573D01*
X59081Y444344D01*
X59056Y444115D01*
X59026Y443887D01*
X58991Y443660D01*
X58950Y443434D01*
X58904Y443209D01*
X58852Y442985D01*
X58795Y442762D01*
X58733Y442541D01*
X58665Y442321D01*
X58592Y442103D01*
X58514Y441887D01*
X58431Y441673D01*
X58343Y441461D01*
X58250Y441250D01*
X58151Y441043D01*
X58118Y440953D01*
X58082Y440864D01*
X58041Y440776D01*
X57998Y440691D01*
X57951Y440607D01*
X57901Y440525D01*
X57847Y440445D01*
X57791Y440368D01*
X57731Y440292D01*
X57668Y440219D01*
X57603Y440149D01*
X57534Y440081D01*
X57463Y440017D01*
X57390Y439955D01*
X57314Y439896D01*
X57236Y439840D01*
X57155Y439787D01*
X57073Y439738D01*
X56989Y439692D01*
X56902Y439649D01*
X56815Y439610D01*
X56725Y439574D01*
X56635Y439542D01*
X56543Y439514D01*
X56450Y439489D01*
X56356Y439468D01*
X56262Y439451D01*
X56167Y439437D01*
X56071Y439428D01*
X55975Y439422D01*
X55879Y439420D01*
X53607Y441043D02*
X53508Y441250D01*
X53415Y441461D01*
X53327Y441673D01*
X53244Y441887D01*
X53166Y442103D01*
X53093Y442321D01*
X53025Y442541D01*
X52963Y442762D01*
X52906Y442985D01*
X52854Y443209D01*
X52808Y443434D01*
X52767Y443660D01*
X52732Y443887D01*
X52702Y444115D01*
X52677Y444344D01*
X52658Y444573D01*
X52644Y444802D01*
X52636Y445032D01*
X52633Y445262D01*
X53607Y441043D02*
X53640Y440953D01*
X53676Y440864D01*
X53717Y440776D01*
X53760Y440691D01*
X53807Y440607D01*
X53857Y440525D01*
X53911Y440445D01*
X53967Y440367D01*
X54027Y440292D01*
X54090Y440219D01*
X54155Y440149D01*
X54224Y440081D01*
X54295Y440017D01*
X54368Y439955D01*
X54444Y439896D01*
X54522Y439840D01*
X54603Y439787D01*
X54685Y439738D01*
X54769Y439692D01*
X54856Y439649D01*
X54943Y439610D01*
X55033Y439574D01*
X55123Y439542D01*
X55215Y439514D01*
X55308Y439489D01*
X55402Y439468D01*
X55496Y439451D01*
X55591Y439437D01*
X55687Y439428D01*
X55783Y439422D01*
X55879Y439420D01*
X58476Y442016D02*
X53283Y448508D01*
D11*
X210058Y200152D02*
X214122Y200152D01*
X171958Y200152D02*
X171958Y204216D01*
X171958Y242316D02*
X176022Y242316D01*
X214122Y242316D02*
X214122Y238252D01*
X214122Y204216D02*
X214122Y200152D01*
X176022Y200152D02*
X171958Y200152D01*
X171958Y238252D02*
X171958Y242316D01*
X210058Y242316D02*
X214122Y242316D01*
D12*
X224825Y239127D02*
X224825Y235148D01*
X222504Y232163D01*
X224825Y235148D02*
X227147Y232163D01*
X224825Y235148D02*
X221178Y236474D01*
X224825Y235148D02*
X228473Y236474D01*
D13*
X230470Y466894D02*
X305470Y466894D01*
X230470Y466894D02*
X230470Y463644D01*
X305470Y463644D02*
X305470Y466894D01*
X230470Y443644D02*
X230470Y425144D01*
X305470Y425144D02*
X305470Y443644D01*
D14*
X256954Y292518D02*
X256956Y292589D01*
X256962Y292660D01*
X256972Y292731D01*
X256986Y292801D01*
X257004Y292870D01*
X257025Y292937D01*
X257051Y293004D01*
X257080Y293069D01*
X257112Y293132D01*
X257149Y293194D01*
X257188Y293253D01*
X257231Y293310D01*
X257277Y293364D01*
X257326Y293416D01*
X257378Y293465D01*
X257432Y293511D01*
X257489Y293554D01*
X257548Y293593D01*
X257610Y293630D01*
X257673Y293662D01*
X257738Y293691D01*
X257805Y293717D01*
X257872Y293738D01*
X257941Y293756D01*
X258011Y293770D01*
X258082Y293780D01*
X258153Y293786D01*
X258224Y293788D01*
X258295Y293786D01*
X258366Y293780D01*
X258437Y293770D01*
X258507Y293756D01*
X258576Y293738D01*
X258643Y293717D01*
X258710Y293691D01*
X258775Y293662D01*
X258838Y293630D01*
X258900Y293593D01*
X258959Y293554D01*
X259016Y293511D01*
X259070Y293465D01*
X259122Y293416D01*
X259171Y293364D01*
X259217Y293310D01*
X259260Y293253D01*
X259299Y293194D01*
X259336Y293132D01*
X259368Y293069D01*
X259397Y293004D01*
X259423Y292937D01*
X259444Y292870D01*
X259462Y292801D01*
X259476Y292731D01*
X259486Y292660D01*
X259492Y292589D01*
X259494Y292518D01*
X259492Y292447D01*
X259486Y292376D01*
X259476Y292305D01*
X259462Y292235D01*
X259444Y292166D01*
X259423Y292099D01*
X259397Y292032D01*
X259368Y291967D01*
X259336Y291904D01*
X259299Y291842D01*
X259260Y291783D01*
X259217Y291726D01*
X259171Y291672D01*
X259122Y291620D01*
X259070Y291571D01*
X259016Y291525D01*
X258959Y291482D01*
X258900Y291443D01*
X258838Y291406D01*
X258775Y291374D01*
X258710Y291345D01*
X258643Y291319D01*
X258576Y291298D01*
X258507Y291280D01*
X258437Y291266D01*
X258366Y291256D01*
X258295Y291250D01*
X258224Y291248D01*
X258153Y291250D01*
X258082Y291256D01*
X258011Y291266D01*
X257941Y291280D01*
X257872Y291298D01*
X257805Y291319D01*
X257738Y291345D01*
X257673Y291374D01*
X257610Y291406D01*
X257548Y291443D01*
X257489Y291482D01*
X257432Y291525D01*
X257378Y291571D01*
X257326Y291620D01*
X257277Y291672D01*
X257231Y291726D01*
X257188Y291783D01*
X257149Y291842D01*
X257112Y291904D01*
X257080Y291967D01*
X257051Y292032D01*
X257025Y292099D01*
X257004Y292166D01*
X256986Y292235D01*
X256972Y292305D01*
X256962Y292376D01*
X256956Y292447D01*
X256954Y292518D01*
D15*
X333544Y295298D02*
X333544Y300798D01*
X333544Y295298D02*
X328044Y295298D01*
X333544Y361798D02*
X333544Y367298D01*
X328044Y367298D01*
X267044Y295298D02*
X261544Y295298D01*
X261544Y300798D01*
X261544Y367298D02*
X267044Y367298D01*
X261544Y367298D02*
X261544Y361798D01*
D10*
X276289Y243085D02*
X275289Y241085D01*
X276289Y243085D02*
X274289Y243085D01*
X275289Y241085D01*
D15*
X272589Y240835D02*
X287989Y240835D01*
X287989Y230335D01*
X272589Y230335D01*
X272589Y240835D01*
D10*
X226885Y333368D02*
X227885Y335368D01*
X226885Y333368D02*
X228885Y333368D01*
X227885Y335368D01*
D15*
X230585Y335618D02*
X215185Y335618D01*
X215185Y346118D01*
X230585Y346118D01*
X230585Y335618D01*
D11*
X188468Y318643D02*
X170180Y318643D01*
X170180Y287147D02*
X188468Y287147D01*
D12*
X164557Y284917D02*
X164557Y280938D01*
X164557Y284917D02*
X166878Y287902D01*
X164557Y284917D02*
X162235Y287902D01*
X164557Y284917D02*
X168204Y283591D01*
X164557Y284917D02*
X160909Y283591D01*
D10*
X333368Y237554D02*
X335368Y236554D01*
X333368Y237554D02*
X333368Y235554D01*
X335368Y236554D01*
D15*
X335618Y233854D02*
X335618Y249254D01*
X346118Y249254D01*
X346118Y233854D01*
X335618Y233854D01*
X140100Y209548D02*
X139997Y209546D01*
X139894Y209540D01*
X139791Y209531D01*
X139688Y209518D01*
X139586Y209501D01*
X139485Y209480D01*
X139385Y209456D01*
X139285Y209428D01*
X139187Y209397D01*
X139090Y209361D01*
X138994Y209323D01*
X138900Y209281D01*
X138807Y209235D01*
X138716Y209186D01*
X138627Y209134D01*
X138540Y209079D01*
X138455Y209020D01*
X138372Y208958D01*
X138291Y208894D01*
X138213Y208826D01*
X138137Y208756D01*
X138064Y208683D01*
X137994Y208607D01*
X137926Y208529D01*
X137862Y208448D01*
X137800Y208365D01*
X137741Y208280D01*
X137686Y208193D01*
X137634Y208104D01*
X137585Y208013D01*
X137539Y207920D01*
X137497Y207826D01*
X137459Y207730D01*
X137423Y207633D01*
X137392Y207535D01*
X137364Y207435D01*
X137340Y207335D01*
X137319Y207234D01*
X137302Y207132D01*
X137289Y207029D01*
X137280Y206926D01*
X137274Y206823D01*
X137272Y206720D01*
X137272Y180376D01*
X137274Y180273D01*
X137280Y180170D01*
X137289Y180067D01*
X137302Y179964D01*
X137319Y179862D01*
X137340Y179761D01*
X137364Y179661D01*
X137392Y179561D01*
X137423Y179463D01*
X137459Y179366D01*
X137497Y179270D01*
X137539Y179176D01*
X137585Y179083D01*
X137634Y178992D01*
X137686Y178903D01*
X137741Y178816D01*
X137800Y178731D01*
X137862Y178648D01*
X137926Y178567D01*
X137994Y178489D01*
X138064Y178413D01*
X138137Y178340D01*
X138213Y178270D01*
X138291Y178202D01*
X138372Y178138D01*
X138455Y178076D01*
X138540Y178017D01*
X138627Y177962D01*
X138716Y177910D01*
X138807Y177861D01*
X138900Y177815D01*
X138994Y177773D01*
X139090Y177735D01*
X139187Y177699D01*
X139285Y177668D01*
X139385Y177640D01*
X139485Y177616D01*
X139586Y177595D01*
X139688Y177578D01*
X139791Y177565D01*
X139894Y177556D01*
X139997Y177550D01*
X140100Y177548D01*
X149036Y177548D01*
X149128Y177550D01*
X149221Y177556D01*
X149313Y177565D01*
X149404Y177578D01*
X149495Y177596D01*
X149585Y177616D01*
X149674Y177641D01*
X149762Y177669D01*
X149849Y177701D01*
X149934Y177736D01*
X150018Y177775D01*
X150100Y177817D01*
X150181Y177863D01*
X150259Y177912D01*
X150335Y177964D01*
X150409Y178019D01*
X150481Y178078D01*
X150550Y178139D01*
X150617Y178203D01*
X150681Y178270D01*
X150742Y178339D01*
X150801Y178411D01*
X150856Y178485D01*
X150908Y178561D01*
X150957Y178639D01*
X151003Y178720D01*
X151045Y178802D01*
X151084Y178886D01*
X151119Y178971D01*
X151151Y179058D01*
X151179Y179146D01*
X151204Y179235D01*
X151224Y179325D01*
X151242Y179416D01*
X151255Y179507D01*
X151264Y179599D01*
X151270Y179692D01*
X151272Y179784D01*
X151272Y206386D01*
X151270Y206496D01*
X151264Y206607D01*
X151255Y206717D01*
X151241Y206826D01*
X151224Y206935D01*
X151203Y207043D01*
X151178Y207151D01*
X151150Y207258D01*
X151117Y207363D01*
X151081Y207467D01*
X151042Y207571D01*
X150999Y207672D01*
X150952Y207772D01*
X150902Y207870D01*
X150848Y207967D01*
X150792Y208062D01*
X150731Y208154D01*
X150668Y208245D01*
X150602Y208333D01*
X150532Y208418D01*
X150460Y208502D01*
X150385Y208583D01*
X150307Y208661D01*
X150226Y208736D01*
X150142Y208808D01*
X150057Y208878D01*
X149969Y208944D01*
X149878Y209007D01*
X149786Y209068D01*
X149691Y209124D01*
X149594Y209178D01*
X149496Y209228D01*
X149396Y209275D01*
X149295Y209318D01*
X149191Y209357D01*
X149087Y209393D01*
X148982Y209426D01*
X148875Y209454D01*
X148767Y209479D01*
X148659Y209500D01*
X148550Y209517D01*
X148441Y209531D01*
X148331Y209540D01*
X148220Y209546D01*
X148110Y209548D01*
X140100Y209548D01*
X148272Y203548D02*
X148272Y182548D01*
X148272Y203548D02*
X148270Y203655D01*
X148264Y203762D01*
X148255Y203869D01*
X148241Y203975D01*
X148224Y204081D01*
X148203Y204186D01*
X148179Y204290D01*
X148150Y204393D01*
X148118Y204495D01*
X148083Y204596D01*
X148043Y204696D01*
X148001Y204794D01*
X147954Y204891D01*
X147905Y204986D01*
X147852Y205079D01*
X147795Y205170D01*
X147736Y205259D01*
X147673Y205346D01*
X147608Y205430D01*
X147539Y205512D01*
X147467Y205592D01*
X147393Y205669D01*
X147316Y205743D01*
X147236Y205815D01*
X147154Y205884D01*
X147070Y205949D01*
X146983Y206012D01*
X146894Y206071D01*
X146803Y206128D01*
X146710Y206181D01*
X146615Y206230D01*
X146518Y206277D01*
X146420Y206319D01*
X146320Y206359D01*
X146219Y206394D01*
X146117Y206426D01*
X146014Y206455D01*
X145910Y206479D01*
X145805Y206500D01*
X145699Y206517D01*
X145593Y206531D01*
X145486Y206540D01*
X145379Y206546D01*
X145272Y206548D01*
X143272Y206548D01*
X143165Y206546D01*
X143058Y206540D01*
X142951Y206531D01*
X142845Y206517D01*
X142739Y206500D01*
X142634Y206479D01*
X142530Y206455D01*
X142427Y206426D01*
X142325Y206394D01*
X142224Y206359D01*
X142124Y206320D01*
X142026Y206277D01*
X141929Y206231D01*
X141834Y206181D01*
X141741Y206128D01*
X141650Y206072D01*
X141561Y206012D01*
X141474Y205950D01*
X141390Y205884D01*
X141307Y205815D01*
X141228Y205744D01*
X141151Y205669D01*
X141076Y205592D01*
X141005Y205513D01*
X140936Y205430D01*
X140870Y205346D01*
X140808Y205259D01*
X140748Y205170D01*
X140692Y205079D01*
X140639Y204986D01*
X140589Y204891D01*
X140543Y204794D01*
X140500Y204696D01*
X140461Y204596D01*
X140426Y204495D01*
X140394Y204393D01*
X140365Y204290D01*
X140341Y204186D01*
X140320Y204081D01*
X140303Y203975D01*
X140289Y203869D01*
X140280Y203762D01*
X140274Y203655D01*
X140272Y203548D01*
X140272Y183548D01*
X140254Y183450D01*
X140240Y183350D01*
X140230Y183251D01*
X140224Y183151D01*
X140222Y183051D01*
X140224Y182951D01*
X140230Y182851D01*
X140239Y182751D01*
X140253Y182652D01*
X140270Y182553D01*
X140292Y182455D01*
X140317Y182358D01*
X140346Y182263D01*
X140379Y182168D01*
X140415Y182075D01*
X140455Y181983D01*
X140499Y181893D01*
X140546Y181804D01*
X140596Y181718D01*
X140650Y181634D01*
X140707Y181551D01*
X140768Y181471D01*
X140831Y181394D01*
X140898Y181319D01*
X140967Y181247D01*
X141039Y181177D01*
X141114Y181111D01*
X141191Y181047D01*
X141271Y180987D01*
X141353Y180929D01*
X141437Y180875D01*
X141524Y180824D01*
X141612Y180777D01*
X141702Y180733D01*
X141794Y180693D01*
X141887Y180657D01*
X141981Y180624D01*
X142077Y180594D01*
X142174Y180569D01*
X142272Y180548D01*
X145272Y180548D01*
X145371Y180530D01*
X145470Y180516D01*
X145570Y180506D01*
X145670Y180500D01*
X145770Y180498D01*
X145870Y180500D01*
X145970Y180506D01*
X146069Y180515D01*
X146169Y180529D01*
X146267Y180546D01*
X146365Y180568D01*
X146462Y180593D01*
X146558Y180622D01*
X146653Y180655D01*
X146746Y180691D01*
X146838Y180731D01*
X146928Y180775D01*
X147016Y180822D01*
X147103Y180872D01*
X147187Y180926D01*
X147269Y180983D01*
X147349Y181044D01*
X147427Y181107D01*
X147501Y181174D01*
X147574Y181243D01*
X147643Y181315D01*
X147710Y181390D01*
X147773Y181467D01*
X147834Y181547D01*
X147891Y181629D01*
X147945Y181713D01*
X147996Y181800D01*
X148043Y181888D01*
X148087Y181978D01*
X148127Y182070D01*
X148164Y182163D01*
X148197Y182257D01*
X148226Y182353D01*
X148251Y182450D01*
X148273Y182548D01*
X246570Y279574D02*
X246673Y279576D01*
X246776Y279582D01*
X246879Y279591D01*
X246982Y279604D01*
X247084Y279621D01*
X247185Y279642D01*
X247285Y279666D01*
X247385Y279694D01*
X247483Y279725D01*
X247580Y279761D01*
X247676Y279799D01*
X247770Y279841D01*
X247863Y279887D01*
X247954Y279936D01*
X248043Y279988D01*
X248130Y280043D01*
X248215Y280102D01*
X248298Y280164D01*
X248379Y280228D01*
X248457Y280296D01*
X248533Y280366D01*
X248606Y280439D01*
X248676Y280515D01*
X248744Y280593D01*
X248808Y280674D01*
X248870Y280757D01*
X248929Y280842D01*
X248984Y280929D01*
X249036Y281018D01*
X249085Y281109D01*
X249131Y281202D01*
X249173Y281296D01*
X249211Y281392D01*
X249247Y281489D01*
X249278Y281587D01*
X249306Y281687D01*
X249330Y281787D01*
X249351Y281888D01*
X249368Y281990D01*
X249381Y282093D01*
X249390Y282196D01*
X249396Y282299D01*
X249398Y282402D01*
X249398Y308746D01*
X249396Y308849D01*
X249390Y308952D01*
X249381Y309055D01*
X249368Y309158D01*
X249351Y309260D01*
X249330Y309361D01*
X249306Y309461D01*
X249278Y309561D01*
X249247Y309659D01*
X249211Y309756D01*
X249173Y309852D01*
X249131Y309946D01*
X249085Y310039D01*
X249036Y310130D01*
X248984Y310219D01*
X248929Y310306D01*
X248870Y310391D01*
X248808Y310474D01*
X248744Y310555D01*
X248676Y310633D01*
X248606Y310709D01*
X248533Y310782D01*
X248457Y310852D01*
X248379Y310920D01*
X248298Y310984D01*
X248215Y311046D01*
X248130Y311105D01*
X248043Y311160D01*
X247954Y311212D01*
X247863Y311261D01*
X247770Y311307D01*
X247676Y311349D01*
X247580Y311387D01*
X247483Y311423D01*
X247385Y311454D01*
X247285Y311482D01*
X247185Y311506D01*
X247084Y311527D01*
X246982Y311544D01*
X246879Y311557D01*
X246776Y311566D01*
X246673Y311572D01*
X246570Y311574D01*
X237634Y311574D01*
X237542Y311572D01*
X237449Y311566D01*
X237357Y311557D01*
X237266Y311544D01*
X237175Y311526D01*
X237085Y311506D01*
X236996Y311481D01*
X236908Y311453D01*
X236821Y311421D01*
X236736Y311386D01*
X236652Y311347D01*
X236570Y311305D01*
X236489Y311259D01*
X236411Y311210D01*
X236335Y311158D01*
X236261Y311103D01*
X236189Y311044D01*
X236120Y310983D01*
X236053Y310919D01*
X235989Y310852D01*
X235928Y310783D01*
X235869Y310711D01*
X235814Y310637D01*
X235762Y310561D01*
X235713Y310483D01*
X235667Y310402D01*
X235625Y310320D01*
X235586Y310236D01*
X235551Y310151D01*
X235519Y310064D01*
X235491Y309976D01*
X235466Y309887D01*
X235446Y309797D01*
X235428Y309706D01*
X235415Y309615D01*
X235406Y309523D01*
X235400Y309430D01*
X235398Y309338D01*
X235398Y282736D01*
X235400Y282626D01*
X235406Y282515D01*
X235415Y282405D01*
X235429Y282296D01*
X235446Y282187D01*
X235467Y282079D01*
X235492Y281971D01*
X235520Y281864D01*
X235553Y281759D01*
X235589Y281655D01*
X235628Y281551D01*
X235671Y281450D01*
X235718Y281350D01*
X235768Y281252D01*
X235822Y281155D01*
X235878Y281060D01*
X235939Y280968D01*
X236002Y280877D01*
X236068Y280789D01*
X236138Y280704D01*
X236210Y280620D01*
X236285Y280539D01*
X236363Y280461D01*
X236444Y280386D01*
X236528Y280314D01*
X236613Y280244D01*
X236701Y280178D01*
X236792Y280115D01*
X236884Y280054D01*
X236979Y279998D01*
X237076Y279944D01*
X237174Y279894D01*
X237274Y279847D01*
X237375Y279804D01*
X237479Y279765D01*
X237583Y279729D01*
X237688Y279696D01*
X237795Y279668D01*
X237903Y279643D01*
X238011Y279622D01*
X238120Y279605D01*
X238229Y279591D01*
X238339Y279582D01*
X238450Y279576D01*
X238560Y279574D01*
X246570Y279574D01*
X238398Y285574D02*
X238398Y306574D01*
X238398Y285574D02*
X238400Y285467D01*
X238406Y285360D01*
X238415Y285253D01*
X238429Y285147D01*
X238446Y285041D01*
X238467Y284936D01*
X238491Y284832D01*
X238520Y284729D01*
X238552Y284627D01*
X238587Y284526D01*
X238627Y284426D01*
X238669Y284328D01*
X238716Y284231D01*
X238765Y284136D01*
X238818Y284043D01*
X238875Y283952D01*
X238934Y283863D01*
X238997Y283776D01*
X239062Y283692D01*
X239131Y283610D01*
X239203Y283530D01*
X239277Y283453D01*
X239354Y283379D01*
X239434Y283307D01*
X239516Y283238D01*
X239600Y283173D01*
X239687Y283110D01*
X239776Y283051D01*
X239867Y282994D01*
X239960Y282941D01*
X240055Y282892D01*
X240152Y282845D01*
X240250Y282803D01*
X240350Y282763D01*
X240451Y282728D01*
X240553Y282696D01*
X240656Y282667D01*
X240760Y282643D01*
X240865Y282622D01*
X240971Y282605D01*
X241077Y282591D01*
X241184Y282582D01*
X241291Y282576D01*
X241398Y282574D01*
X243398Y282574D01*
X243505Y282576D01*
X243612Y282582D01*
X243719Y282591D01*
X243825Y282605D01*
X243931Y282622D01*
X244036Y282643D01*
X244140Y282667D01*
X244243Y282696D01*
X244345Y282728D01*
X244446Y282763D01*
X244546Y282802D01*
X244644Y282845D01*
X244741Y282891D01*
X244836Y282941D01*
X244929Y282994D01*
X245020Y283050D01*
X245109Y283110D01*
X245196Y283172D01*
X245280Y283238D01*
X245363Y283307D01*
X245442Y283378D01*
X245519Y283453D01*
X245594Y283530D01*
X245665Y283609D01*
X245734Y283692D01*
X245800Y283776D01*
X245862Y283863D01*
X245922Y283952D01*
X245978Y284043D01*
X246031Y284136D01*
X246081Y284231D01*
X246127Y284328D01*
X246170Y284426D01*
X246209Y284526D01*
X246244Y284627D01*
X246276Y284729D01*
X246305Y284832D01*
X246329Y284936D01*
X246350Y285041D01*
X246367Y285147D01*
X246381Y285253D01*
X246390Y285360D01*
X246396Y285467D01*
X246398Y285574D01*
X246398Y305574D01*
X246416Y305672D01*
X246430Y305772D01*
X246440Y305871D01*
X246446Y305971D01*
X246448Y306071D01*
X246446Y306171D01*
X246440Y306271D01*
X246431Y306371D01*
X246417Y306470D01*
X246400Y306569D01*
X246378Y306667D01*
X246353Y306764D01*
X246324Y306859D01*
X246291Y306954D01*
X246255Y307047D01*
X246215Y307139D01*
X246171Y307229D01*
X246124Y307318D01*
X246074Y307404D01*
X246020Y307488D01*
X245963Y307571D01*
X245902Y307651D01*
X245839Y307728D01*
X245772Y307803D01*
X245703Y307875D01*
X245631Y307945D01*
X245556Y308011D01*
X245479Y308075D01*
X245399Y308135D01*
X245317Y308193D01*
X245233Y308247D01*
X245146Y308298D01*
X245058Y308345D01*
X244968Y308389D01*
X244876Y308429D01*
X244783Y308465D01*
X244689Y308498D01*
X244593Y308528D01*
X244496Y308553D01*
X244398Y308574D01*
X241398Y308574D01*
X241299Y308592D01*
X241200Y308606D01*
X241100Y308616D01*
X241000Y308622D01*
X240900Y308624D01*
X240800Y308622D01*
X240700Y308616D01*
X240601Y308607D01*
X240501Y308593D01*
X240403Y308576D01*
X240305Y308554D01*
X240208Y308529D01*
X240112Y308500D01*
X240017Y308467D01*
X239924Y308431D01*
X239832Y308391D01*
X239742Y308347D01*
X239654Y308300D01*
X239567Y308250D01*
X239483Y308196D01*
X239401Y308139D01*
X239321Y308078D01*
X239243Y308015D01*
X239169Y307948D01*
X239096Y307879D01*
X239027Y307807D01*
X238960Y307732D01*
X238897Y307655D01*
X238836Y307575D01*
X238779Y307493D01*
X238725Y307409D01*
X238674Y307322D01*
X238627Y307234D01*
X238583Y307144D01*
X238543Y307052D01*
X238506Y306959D01*
X238473Y306865D01*
X238444Y306769D01*
X238419Y306672D01*
X238397Y306574D01*
D16*
X352506Y224200D02*
X352506Y210200D01*
X352506Y224200D02*
X378506Y224200D01*
X378506Y182200D02*
X352506Y182200D01*
X352506Y196200D01*
X378506Y210200D02*
X378506Y224200D01*
X378506Y196200D02*
X378506Y182200D01*
X351506Y210200D02*
X351506Y223200D01*
X351506Y196200D02*
X351506Y183200D01*
X350506Y210200D02*
X350506Y224200D01*
X350506Y196200D02*
X350506Y182200D01*
X350506Y224200D02*
X352506Y224200D01*
X352506Y210200D02*
X350506Y210200D01*
X350506Y196200D02*
X352506Y196200D01*
X352506Y182200D02*
X350506Y182200D01*
D11*
X137287Y95250D02*
X137287Y78994D01*
X112903Y78994D02*
X112903Y95250D01*
D12*
X111689Y101381D02*
X107710Y101381D01*
X111689Y101381D02*
X114674Y99060D01*
X111689Y101381D02*
X114674Y103703D01*
X111689Y101381D02*
X110363Y97734D01*
X111689Y101381D02*
X110363Y105029D01*
D10*
X180809Y398606D02*
X178809Y399606D01*
X178809Y397606D01*
X180809Y398606D01*
D15*
X181059Y395906D02*
X181059Y411306D01*
X191559Y411306D01*
X191559Y395906D01*
X181059Y395906D01*
D17*
X99300Y390050D02*
X99300Y385050D01*
X104300Y385050D01*
X124300Y385050D02*
X129300Y385050D01*
X129300Y390050D01*
X99300Y410050D02*
X99300Y415050D01*
X104300Y415050D01*
X124300Y415050D02*
X129300Y415050D01*
X129300Y410050D01*
D10*
X93378Y386296D02*
X93378Y382402D01*
X91106Y379481D01*
X93378Y382402D02*
X95650Y379481D01*
X93378Y382402D02*
X89808Y383700D01*
X93378Y382402D02*
X96948Y383700D01*
D18*
X0Y19050D02*
X73Y17390D01*
X289Y15742D01*
X649Y14120D01*
X1149Y12535D01*
X1785Y10999D01*
X2552Y9525D01*
X3445Y8123D01*
X4457Y6805D01*
X5580Y5580D01*
X6805Y4457D01*
X8123Y3445D01*
X9525Y2552D01*
X10999Y1785D01*
X12535Y1149D01*
X14120Y649D01*
X15742Y289D01*
X17390Y73D01*
X19050Y0D01*
X361950Y0D01*
X363610Y73D01*
X365258Y289D01*
X366881Y649D01*
X368465Y1149D01*
X370001Y1785D01*
X371475Y2552D01*
X372877Y3445D01*
X374195Y4457D01*
X375420Y5580D01*
X376543Y6805D01*
X377555Y8123D01*
X378448Y9525D01*
X379215Y10999D01*
X379851Y12535D01*
X380351Y14120D01*
X380711Y15742D01*
X380928Y17390D01*
X381000Y19050D01*
X381000Y450850D01*
X380928Y452510D01*
X380711Y454158D01*
X380351Y455781D01*
X379851Y457365D01*
X379215Y458901D01*
X378448Y460375D01*
X377555Y461777D01*
X376543Y463095D01*
X375420Y464320D01*
X374195Y465443D01*
X372877Y466455D01*
X371475Y467348D01*
X370001Y468115D01*
X368465Y468751D01*
X366881Y469251D01*
X365258Y469611D01*
X363610Y469828D01*
X361950Y469900D01*
X19050Y469900D01*
X17390Y469828D01*
X15742Y469611D01*
X14120Y469251D01*
X12535Y468751D01*
X10999Y468115D01*
X9525Y467348D01*
X8123Y466455D01*
X6805Y465443D01*
X5580Y464320D01*
X4457Y463095D01*
X3445Y461777D01*
X2552Y460375D01*
X1785Y458901D01*
X1149Y457365D01*
X649Y455781D01*
X289Y454158D01*
X73Y452510D01*
X0Y450850D01*
X0Y304800D01*
X82550Y304800D01*
X84210Y304728D01*
X85858Y304511D01*
X87481Y304151D01*
X89065Y303651D01*
X90601Y303015D01*
X92075Y302248D01*
X93477Y301355D01*
X94795Y300343D01*
X96020Y299220D01*
X97143Y297995D01*
X98155Y296677D01*
X99048Y295275D01*
X99815Y293801D01*
X100451Y292265D01*
X100951Y290681D01*
X101311Y289058D01*
X101528Y287410D01*
X101600Y285750D01*
X101600Y133350D01*
X101528Y131690D01*
X101311Y130042D01*
X100951Y128420D01*
X100451Y126835D01*
X99815Y125299D01*
X99048Y123825D01*
X98155Y122423D01*
X97143Y121105D01*
X96020Y119880D01*
X94795Y118757D01*
X93477Y117745D01*
X92075Y116852D01*
X90601Y116085D01*
X89065Y115449D01*
X87481Y114949D01*
X85858Y114589D01*
X84210Y114373D01*
X82550Y114300D01*
X19050Y114300D01*
X17390Y114228D01*
X15742Y114011D01*
X14120Y113651D01*
X12535Y113151D01*
X10999Y112515D01*
X9525Y111748D01*
X8123Y110855D01*
X6805Y109843D01*
X5580Y108720D01*
X4457Y107495D01*
X3445Y106177D01*
X2552Y104775D01*
X1785Y103301D01*
X1149Y101765D01*
X649Y100181D01*
X289Y98558D01*
X73Y96910D01*
X0Y95250D01*
X0Y19050D01*
M02*
