G04 EAGLE Gerber RS-274X export*
G75*
%MOMM*%
%FSLAX34Y34*%
%LPD*%
%INReference Desginators Bottom*%
%IPPOS*%
%AMOC8*
5,1,8,0,0,1.08239X$1,22.5*%
G01*
%ADD10C,0.050800*%
%ADD11C,0.050000*%
%ADD12C,0.025400*%
%ADD13C,0.127000*%
%ADD14C,0.140000*%
%ADD15C,0.076200*%
%ADD16C,0.152400*%
%ADD17C,0.254000*%
%ADD18C,0.200000*%
%ADD19C,0.101600*%


D10*
X195216Y308366D02*
X195216Y341366D01*
X213216Y341366D01*
X213216Y308366D01*
X195216Y308366D01*
X199568Y315686D02*
X199568Y316928D01*
X199568Y315686D02*
X199570Y315616D01*
X199576Y315547D01*
X199586Y315478D01*
X199599Y315410D01*
X199617Y315342D01*
X199638Y315276D01*
X199663Y315211D01*
X199691Y315147D01*
X199723Y315085D01*
X199758Y315025D01*
X199797Y314967D01*
X199839Y314912D01*
X199884Y314858D01*
X199932Y314808D01*
X199982Y314760D01*
X200036Y314715D01*
X200091Y314673D01*
X200149Y314634D01*
X200209Y314599D01*
X200271Y314567D01*
X200335Y314539D01*
X200400Y314514D01*
X200466Y314493D01*
X200534Y314475D01*
X200602Y314462D01*
X200671Y314452D01*
X200740Y314446D01*
X200810Y314444D01*
X203914Y314444D01*
X203984Y314446D01*
X204053Y314452D01*
X204122Y314462D01*
X204190Y314475D01*
X204258Y314493D01*
X204324Y314514D01*
X204389Y314539D01*
X204453Y314567D01*
X204515Y314599D01*
X204575Y314634D01*
X204633Y314673D01*
X204688Y314715D01*
X204742Y314760D01*
X204792Y314808D01*
X204840Y314858D01*
X204885Y314912D01*
X204927Y314967D01*
X204966Y315025D01*
X205001Y315085D01*
X205033Y315147D01*
X205061Y315211D01*
X205086Y315276D01*
X205107Y315342D01*
X205125Y315410D01*
X205138Y315478D01*
X205148Y315547D01*
X205154Y315616D01*
X205156Y315686D01*
X205156Y316928D01*
X203914Y319032D02*
X205156Y320584D01*
X199568Y320584D01*
X199568Y319032D02*
X199568Y322137D01*
X202362Y324519D02*
X202493Y324521D01*
X202623Y324526D01*
X202753Y324536D01*
X202883Y324549D01*
X203013Y324565D01*
X203142Y324585D01*
X203270Y324609D01*
X203397Y324637D01*
X203524Y324668D01*
X203650Y324703D01*
X203775Y324741D01*
X203899Y324783D01*
X204021Y324828D01*
X204142Y324877D01*
X204262Y324929D01*
X204380Y324985D01*
X204380Y324984D02*
X204440Y325007D01*
X204500Y325033D01*
X204557Y325062D01*
X204613Y325095D01*
X204667Y325131D01*
X204719Y325169D01*
X204769Y325211D01*
X204816Y325255D01*
X204861Y325302D01*
X204903Y325352D01*
X204942Y325403D01*
X204978Y325457D01*
X205011Y325513D01*
X205041Y325570D01*
X205068Y325629D01*
X205091Y325690D01*
X205111Y325751D01*
X205127Y325814D01*
X205140Y325878D01*
X205149Y325942D01*
X205154Y326006D01*
X205156Y326071D01*
X205154Y326136D01*
X205149Y326200D01*
X205140Y326264D01*
X205127Y326328D01*
X205111Y326391D01*
X205091Y326452D01*
X205068Y326513D01*
X205041Y326572D01*
X205011Y326629D01*
X204978Y326685D01*
X204942Y326739D01*
X204903Y326790D01*
X204861Y326840D01*
X204816Y326887D01*
X204769Y326931D01*
X204719Y326973D01*
X204667Y327011D01*
X204613Y327047D01*
X204557Y327080D01*
X204500Y327109D01*
X204440Y327135D01*
X204380Y327158D01*
X204380Y327157D02*
X204262Y327213D01*
X204142Y327265D01*
X204021Y327314D01*
X203899Y327359D01*
X203775Y327401D01*
X203650Y327439D01*
X203524Y327474D01*
X203398Y327505D01*
X203270Y327533D01*
X203142Y327557D01*
X203013Y327577D01*
X202883Y327593D01*
X202753Y327606D01*
X202623Y327616D01*
X202493Y327621D01*
X202362Y327623D01*
X202362Y324519D02*
X202231Y324521D01*
X202101Y324526D01*
X201971Y324536D01*
X201841Y324549D01*
X201711Y324565D01*
X201582Y324585D01*
X201454Y324609D01*
X201327Y324637D01*
X201200Y324668D01*
X201074Y324703D01*
X200949Y324741D01*
X200825Y324783D01*
X200703Y324828D01*
X200582Y324877D01*
X200462Y324929D01*
X200344Y324985D01*
X200344Y324984D02*
X200284Y325007D01*
X200224Y325033D01*
X200167Y325062D01*
X200111Y325095D01*
X200057Y325131D01*
X200005Y325169D01*
X199955Y325211D01*
X199908Y325255D01*
X199863Y325302D01*
X199821Y325352D01*
X199782Y325403D01*
X199746Y325457D01*
X199713Y325513D01*
X199683Y325570D01*
X199656Y325629D01*
X199633Y325690D01*
X199613Y325751D01*
X199597Y325814D01*
X199584Y325878D01*
X199575Y325942D01*
X199570Y326006D01*
X199568Y326071D01*
X200344Y327157D02*
X200462Y327213D01*
X200582Y327265D01*
X200703Y327314D01*
X200825Y327359D01*
X200949Y327401D01*
X201074Y327439D01*
X201200Y327474D01*
X201326Y327505D01*
X201454Y327533D01*
X201582Y327557D01*
X201711Y327577D01*
X201841Y327593D01*
X201971Y327606D01*
X202101Y327616D01*
X202231Y327621D01*
X202362Y327623D01*
X200344Y327158D02*
X200284Y327135D01*
X200224Y327109D01*
X200167Y327080D01*
X200111Y327047D01*
X200057Y327011D01*
X200005Y326973D01*
X199955Y326931D01*
X199908Y326887D01*
X199863Y326840D01*
X199821Y326790D01*
X199782Y326739D01*
X199746Y326685D01*
X199713Y326629D01*
X199683Y326572D01*
X199656Y326513D01*
X199633Y326452D01*
X199613Y326391D01*
X199597Y326328D01*
X199584Y326264D01*
X199575Y326200D01*
X199570Y326136D01*
X199568Y326071D01*
X200810Y324829D02*
X203914Y327313D01*
X204535Y330005D02*
X205156Y330005D01*
X205156Y333109D01*
X199568Y331557D01*
D11*
X213432Y204072D02*
X222432Y204072D01*
X213432Y204072D02*
X213432Y186072D01*
X222432Y186072D01*
X222432Y204072D01*
D12*
X216424Y193522D02*
X216424Y192901D01*
X216426Y192852D01*
X216432Y192804D01*
X216441Y192756D01*
X216454Y192709D01*
X216471Y192663D01*
X216492Y192619D01*
X216516Y192577D01*
X216543Y192536D01*
X216573Y192498D01*
X216606Y192462D01*
X216642Y192429D01*
X216680Y192399D01*
X216721Y192372D01*
X216763Y192348D01*
X216807Y192327D01*
X216853Y192310D01*
X216900Y192297D01*
X216948Y192288D01*
X216996Y192282D01*
X217045Y192280D01*
X218597Y192280D01*
X218646Y192282D01*
X218694Y192288D01*
X218742Y192297D01*
X218789Y192310D01*
X218835Y192327D01*
X218879Y192348D01*
X218921Y192372D01*
X218962Y192399D01*
X219000Y192429D01*
X219036Y192462D01*
X219069Y192498D01*
X219099Y192536D01*
X219126Y192577D01*
X219150Y192619D01*
X219171Y192663D01*
X219188Y192709D01*
X219201Y192756D01*
X219210Y192804D01*
X219216Y192852D01*
X219218Y192901D01*
X219218Y193522D01*
X218597Y194574D02*
X219218Y195350D01*
X216424Y195350D01*
X216424Y194574D02*
X216424Y196127D01*
X217821Y197317D02*
X217916Y197319D01*
X218011Y197325D01*
X218105Y197335D01*
X218199Y197348D01*
X218292Y197366D01*
X218385Y197387D01*
X218477Y197412D01*
X218567Y197441D01*
X218656Y197474D01*
X218744Y197510D01*
X218830Y197550D01*
X218830Y197551D02*
X218872Y197567D01*
X218912Y197586D01*
X218950Y197609D01*
X218987Y197634D01*
X219022Y197662D01*
X219054Y197692D01*
X219084Y197725D01*
X219111Y197760D01*
X219136Y197798D01*
X219157Y197837D01*
X219175Y197877D01*
X219191Y197919D01*
X219203Y197962D01*
X219211Y198005D01*
X219216Y198050D01*
X219218Y198094D01*
X219216Y198138D01*
X219211Y198183D01*
X219203Y198226D01*
X219191Y198269D01*
X219175Y198311D01*
X219157Y198351D01*
X219136Y198390D01*
X219111Y198428D01*
X219084Y198463D01*
X219054Y198496D01*
X219022Y198526D01*
X218987Y198554D01*
X218950Y198579D01*
X218912Y198602D01*
X218872Y198621D01*
X218830Y198637D01*
X218830Y198636D02*
X218744Y198676D01*
X218656Y198712D01*
X218567Y198745D01*
X218476Y198774D01*
X218385Y198799D01*
X218292Y198820D01*
X218199Y198838D01*
X218105Y198851D01*
X218011Y198861D01*
X217916Y198867D01*
X217821Y198869D01*
X217821Y197317D02*
X217726Y197319D01*
X217631Y197325D01*
X217537Y197335D01*
X217443Y197348D01*
X217350Y197366D01*
X217257Y197387D01*
X217166Y197412D01*
X217075Y197441D01*
X216986Y197474D01*
X216898Y197510D01*
X216812Y197550D01*
X216812Y197551D02*
X216770Y197567D01*
X216730Y197586D01*
X216692Y197609D01*
X216655Y197634D01*
X216620Y197662D01*
X216588Y197692D01*
X216558Y197725D01*
X216531Y197760D01*
X216506Y197798D01*
X216485Y197837D01*
X216467Y197877D01*
X216451Y197919D01*
X216439Y197962D01*
X216431Y198005D01*
X216426Y198050D01*
X216424Y198094D01*
X216812Y198637D02*
X216898Y198677D01*
X216986Y198713D01*
X217075Y198746D01*
X217165Y198775D01*
X217257Y198800D01*
X217350Y198821D01*
X217443Y198839D01*
X217537Y198852D01*
X217631Y198862D01*
X217726Y198868D01*
X217821Y198870D01*
X216812Y198637D02*
X216770Y198621D01*
X216730Y198602D01*
X216692Y198579D01*
X216655Y198554D01*
X216620Y198526D01*
X216588Y198496D01*
X216558Y198463D01*
X216531Y198428D01*
X216506Y198390D01*
X216485Y198351D01*
X216467Y198311D01*
X216451Y198269D01*
X216439Y198226D01*
X216431Y198183D01*
X216426Y198138D01*
X216424Y198094D01*
X217045Y197473D02*
X218597Y198715D01*
X216424Y200061D02*
X216424Y200992D01*
X216426Y201041D01*
X216432Y201089D01*
X216441Y201137D01*
X216454Y201184D01*
X216471Y201230D01*
X216492Y201274D01*
X216516Y201316D01*
X216543Y201357D01*
X216573Y201395D01*
X216606Y201431D01*
X216642Y201464D01*
X216680Y201494D01*
X216721Y201521D01*
X216763Y201545D01*
X216807Y201566D01*
X216853Y201583D01*
X216900Y201596D01*
X216948Y201605D01*
X216996Y201611D01*
X217045Y201613D01*
X217355Y201613D01*
X217404Y201611D01*
X217452Y201605D01*
X217500Y201596D01*
X217547Y201583D01*
X217593Y201566D01*
X217637Y201545D01*
X217679Y201521D01*
X217720Y201494D01*
X217758Y201464D01*
X217794Y201431D01*
X217827Y201395D01*
X217857Y201357D01*
X217884Y201316D01*
X217908Y201274D01*
X217929Y201230D01*
X217946Y201184D01*
X217959Y201137D01*
X217968Y201089D01*
X217974Y201041D01*
X217976Y200992D01*
X217976Y200061D01*
X219218Y200061D01*
X219218Y201613D01*
D11*
X313762Y216044D02*
X322762Y216044D01*
X322762Y234044D01*
X313762Y234044D01*
X313762Y216044D01*
D12*
X316976Y221664D02*
X316976Y222285D01*
X316976Y221664D02*
X316978Y221615D01*
X316984Y221567D01*
X316993Y221519D01*
X317006Y221472D01*
X317023Y221426D01*
X317044Y221382D01*
X317068Y221340D01*
X317095Y221299D01*
X317125Y221261D01*
X317158Y221225D01*
X317194Y221192D01*
X317232Y221162D01*
X317273Y221135D01*
X317315Y221111D01*
X317359Y221090D01*
X317405Y221073D01*
X317452Y221060D01*
X317500Y221051D01*
X317548Y221045D01*
X317597Y221043D01*
X319149Y221043D01*
X319198Y221045D01*
X319246Y221051D01*
X319294Y221060D01*
X319341Y221073D01*
X319387Y221090D01*
X319431Y221111D01*
X319473Y221135D01*
X319514Y221162D01*
X319552Y221192D01*
X319588Y221225D01*
X319621Y221261D01*
X319651Y221299D01*
X319678Y221340D01*
X319702Y221382D01*
X319723Y221426D01*
X319740Y221472D01*
X319753Y221519D01*
X319762Y221567D01*
X319768Y221615D01*
X319770Y221664D01*
X319770Y222285D01*
X319149Y223337D02*
X319770Y224113D01*
X316976Y224113D01*
X316976Y223337D02*
X316976Y224889D01*
X319149Y226080D02*
X319770Y226856D01*
X316976Y226856D01*
X316976Y226080D02*
X316976Y227633D01*
X317597Y228824D02*
X319770Y229444D01*
X317597Y228824D02*
X317597Y230376D01*
X318218Y229910D02*
X316976Y229910D01*
D11*
X46156Y71772D02*
X37156Y71772D01*
X46156Y71772D02*
X46156Y89772D01*
X37156Y89772D01*
X37156Y71772D01*
D12*
X40370Y74852D02*
X40370Y75473D01*
X40370Y74852D02*
X40372Y74803D01*
X40378Y74755D01*
X40387Y74707D01*
X40400Y74660D01*
X40417Y74614D01*
X40438Y74570D01*
X40462Y74528D01*
X40489Y74487D01*
X40519Y74449D01*
X40552Y74413D01*
X40588Y74380D01*
X40626Y74350D01*
X40667Y74323D01*
X40709Y74299D01*
X40753Y74278D01*
X40799Y74261D01*
X40846Y74248D01*
X40894Y74239D01*
X40942Y74233D01*
X40991Y74231D01*
X42543Y74231D01*
X42592Y74233D01*
X42640Y74239D01*
X42688Y74248D01*
X42735Y74261D01*
X42781Y74278D01*
X42825Y74299D01*
X42867Y74323D01*
X42908Y74350D01*
X42946Y74380D01*
X42982Y74413D01*
X43015Y74449D01*
X43045Y74487D01*
X43072Y74528D01*
X43096Y74570D01*
X43117Y74614D01*
X43134Y74660D01*
X43147Y74707D01*
X43156Y74755D01*
X43162Y74803D01*
X43164Y74852D01*
X43164Y75473D01*
X42543Y76525D02*
X43164Y77301D01*
X40370Y77301D01*
X40370Y76525D02*
X40370Y78077D01*
X41767Y79268D02*
X41862Y79270D01*
X41957Y79276D01*
X42051Y79286D01*
X42145Y79299D01*
X42238Y79317D01*
X42331Y79338D01*
X42423Y79363D01*
X42513Y79392D01*
X42602Y79425D01*
X42690Y79461D01*
X42776Y79501D01*
X42818Y79517D01*
X42858Y79536D01*
X42896Y79559D01*
X42933Y79584D01*
X42968Y79612D01*
X43000Y79642D01*
X43030Y79675D01*
X43057Y79710D01*
X43082Y79748D01*
X43103Y79787D01*
X43121Y79827D01*
X43137Y79869D01*
X43149Y79912D01*
X43157Y79955D01*
X43162Y80000D01*
X43164Y80044D01*
X43162Y80088D01*
X43157Y80133D01*
X43149Y80176D01*
X43137Y80219D01*
X43121Y80261D01*
X43103Y80301D01*
X43082Y80340D01*
X43057Y80378D01*
X43030Y80413D01*
X43000Y80446D01*
X42968Y80476D01*
X42933Y80504D01*
X42896Y80529D01*
X42858Y80552D01*
X42818Y80571D01*
X42776Y80587D01*
X42690Y80627D01*
X42602Y80663D01*
X42513Y80696D01*
X42422Y80725D01*
X42331Y80750D01*
X42238Y80771D01*
X42145Y80789D01*
X42051Y80802D01*
X41957Y80812D01*
X41862Y80818D01*
X41767Y80820D01*
X41767Y79268D02*
X41672Y79270D01*
X41577Y79276D01*
X41483Y79286D01*
X41389Y79299D01*
X41296Y79317D01*
X41203Y79338D01*
X41112Y79363D01*
X41021Y79392D01*
X40932Y79425D01*
X40844Y79461D01*
X40758Y79501D01*
X40716Y79517D01*
X40676Y79536D01*
X40638Y79559D01*
X40601Y79584D01*
X40566Y79612D01*
X40534Y79642D01*
X40504Y79675D01*
X40477Y79710D01*
X40452Y79748D01*
X40431Y79787D01*
X40413Y79827D01*
X40397Y79869D01*
X40385Y79912D01*
X40377Y79955D01*
X40372Y80000D01*
X40370Y80044D01*
X40758Y80588D02*
X40844Y80628D01*
X40932Y80664D01*
X41021Y80697D01*
X41111Y80726D01*
X41203Y80751D01*
X41296Y80772D01*
X41389Y80790D01*
X41483Y80803D01*
X41577Y80813D01*
X41672Y80819D01*
X41767Y80821D01*
X40758Y80587D02*
X40716Y80571D01*
X40676Y80552D01*
X40638Y80529D01*
X40601Y80504D01*
X40566Y80476D01*
X40534Y80446D01*
X40504Y80413D01*
X40477Y80378D01*
X40452Y80340D01*
X40431Y80301D01*
X40413Y80261D01*
X40397Y80219D01*
X40385Y80176D01*
X40377Y80133D01*
X40372Y80088D01*
X40370Y80044D01*
X40991Y79424D02*
X42543Y80665D01*
X42543Y82012D02*
X43164Y82788D01*
X40370Y82788D01*
X40370Y82012D02*
X40370Y83564D01*
D11*
X215718Y309008D02*
X224718Y309008D01*
X224718Y327008D01*
X215718Y327008D01*
X215718Y309008D01*
D12*
X218932Y312088D02*
X218932Y312709D01*
X218932Y312088D02*
X218934Y312039D01*
X218940Y311991D01*
X218949Y311943D01*
X218962Y311896D01*
X218979Y311850D01*
X219000Y311806D01*
X219024Y311764D01*
X219051Y311723D01*
X219081Y311685D01*
X219114Y311649D01*
X219150Y311616D01*
X219188Y311586D01*
X219229Y311559D01*
X219271Y311535D01*
X219315Y311514D01*
X219361Y311497D01*
X219408Y311484D01*
X219456Y311475D01*
X219504Y311469D01*
X219553Y311467D01*
X221105Y311467D01*
X221154Y311469D01*
X221202Y311475D01*
X221250Y311484D01*
X221297Y311497D01*
X221343Y311514D01*
X221387Y311535D01*
X221429Y311559D01*
X221470Y311586D01*
X221508Y311616D01*
X221544Y311649D01*
X221577Y311685D01*
X221607Y311723D01*
X221634Y311764D01*
X221658Y311806D01*
X221679Y311850D01*
X221696Y311896D01*
X221709Y311943D01*
X221718Y311991D01*
X221724Y312039D01*
X221726Y312088D01*
X221726Y312709D01*
X221105Y313761D02*
X221726Y314537D01*
X218932Y314537D01*
X218932Y313761D02*
X218932Y315313D01*
X220329Y316504D02*
X220424Y316506D01*
X220519Y316512D01*
X220613Y316522D01*
X220707Y316535D01*
X220800Y316553D01*
X220893Y316574D01*
X220985Y316599D01*
X221075Y316628D01*
X221164Y316661D01*
X221252Y316697D01*
X221338Y316737D01*
X221380Y316753D01*
X221420Y316772D01*
X221458Y316795D01*
X221495Y316820D01*
X221530Y316848D01*
X221562Y316878D01*
X221592Y316911D01*
X221619Y316946D01*
X221644Y316984D01*
X221665Y317023D01*
X221683Y317063D01*
X221699Y317105D01*
X221711Y317148D01*
X221719Y317191D01*
X221724Y317236D01*
X221726Y317280D01*
X221724Y317324D01*
X221719Y317369D01*
X221711Y317412D01*
X221699Y317455D01*
X221683Y317497D01*
X221665Y317537D01*
X221644Y317576D01*
X221619Y317614D01*
X221592Y317649D01*
X221562Y317682D01*
X221530Y317712D01*
X221495Y317740D01*
X221458Y317765D01*
X221420Y317788D01*
X221380Y317807D01*
X221338Y317823D01*
X221252Y317863D01*
X221164Y317899D01*
X221075Y317932D01*
X220984Y317961D01*
X220893Y317986D01*
X220800Y318007D01*
X220707Y318025D01*
X220613Y318038D01*
X220519Y318048D01*
X220424Y318054D01*
X220329Y318056D01*
X220329Y316504D02*
X220234Y316506D01*
X220139Y316512D01*
X220045Y316522D01*
X219951Y316535D01*
X219858Y316553D01*
X219765Y316574D01*
X219674Y316599D01*
X219583Y316628D01*
X219494Y316661D01*
X219406Y316697D01*
X219320Y316737D01*
X219278Y316753D01*
X219238Y316772D01*
X219200Y316795D01*
X219163Y316820D01*
X219128Y316848D01*
X219096Y316878D01*
X219066Y316911D01*
X219039Y316946D01*
X219014Y316984D01*
X218993Y317023D01*
X218975Y317063D01*
X218959Y317105D01*
X218947Y317148D01*
X218939Y317191D01*
X218934Y317236D01*
X218932Y317280D01*
X219320Y317824D02*
X219406Y317864D01*
X219494Y317900D01*
X219583Y317933D01*
X219673Y317962D01*
X219765Y317987D01*
X219858Y318008D01*
X219951Y318026D01*
X220045Y318039D01*
X220139Y318049D01*
X220234Y318055D01*
X220329Y318057D01*
X219320Y317823D02*
X219278Y317807D01*
X219238Y317788D01*
X219200Y317765D01*
X219163Y317740D01*
X219128Y317712D01*
X219096Y317682D01*
X219066Y317649D01*
X219039Y317614D01*
X219014Y317576D01*
X218993Y317537D01*
X218975Y317497D01*
X218959Y317455D01*
X218947Y317412D01*
X218939Y317369D01*
X218934Y317324D01*
X218932Y317280D01*
X219553Y316660D02*
X221105Y317901D01*
X218932Y319248D02*
X218932Y320024D01*
X218934Y320079D01*
X218940Y320134D01*
X218950Y320189D01*
X218963Y320243D01*
X218981Y320295D01*
X219002Y320346D01*
X219027Y320396D01*
X219055Y320444D01*
X219087Y320489D01*
X219122Y320532D01*
X219159Y320573D01*
X219200Y320610D01*
X219243Y320645D01*
X219288Y320677D01*
X219336Y320705D01*
X219386Y320730D01*
X219437Y320751D01*
X219489Y320769D01*
X219543Y320782D01*
X219598Y320792D01*
X219653Y320798D01*
X219708Y320800D01*
X219763Y320798D01*
X219818Y320792D01*
X219873Y320782D01*
X219927Y320769D01*
X219979Y320751D01*
X220030Y320730D01*
X220080Y320705D01*
X220128Y320677D01*
X220173Y320645D01*
X220216Y320610D01*
X220257Y320573D01*
X220294Y320532D01*
X220329Y320489D01*
X220361Y320444D01*
X220389Y320396D01*
X220414Y320346D01*
X220435Y320295D01*
X220453Y320243D01*
X220466Y320189D01*
X220476Y320134D01*
X220482Y320079D01*
X220484Y320024D01*
X221726Y320179D02*
X221726Y319248D01*
X221726Y320179D02*
X221724Y320228D01*
X221718Y320276D01*
X221709Y320324D01*
X221696Y320371D01*
X221679Y320417D01*
X221658Y320461D01*
X221634Y320503D01*
X221607Y320544D01*
X221577Y320582D01*
X221544Y320618D01*
X221508Y320651D01*
X221470Y320681D01*
X221429Y320708D01*
X221387Y320732D01*
X221343Y320753D01*
X221297Y320770D01*
X221250Y320783D01*
X221202Y320792D01*
X221154Y320798D01*
X221105Y320800D01*
X221056Y320798D01*
X221008Y320792D01*
X220960Y320783D01*
X220913Y320770D01*
X220867Y320753D01*
X220823Y320732D01*
X220781Y320708D01*
X220740Y320681D01*
X220702Y320651D01*
X220666Y320618D01*
X220633Y320582D01*
X220603Y320544D01*
X220576Y320503D01*
X220552Y320461D01*
X220531Y320417D01*
X220514Y320371D01*
X220501Y320324D01*
X220492Y320276D01*
X220486Y320228D01*
X220484Y320179D01*
X220484Y319558D01*
D11*
X78630Y389962D02*
X78630Y398962D01*
X78630Y389962D02*
X96630Y389962D01*
X96630Y398962D01*
X78630Y398962D01*
D12*
X89180Y392954D02*
X89801Y392954D01*
X89850Y392956D01*
X89898Y392962D01*
X89946Y392971D01*
X89993Y392984D01*
X90039Y393001D01*
X90083Y393022D01*
X90125Y393046D01*
X90166Y393073D01*
X90204Y393103D01*
X90240Y393136D01*
X90273Y393172D01*
X90303Y393210D01*
X90330Y393251D01*
X90354Y393293D01*
X90375Y393337D01*
X90392Y393383D01*
X90405Y393430D01*
X90414Y393478D01*
X90420Y393526D01*
X90422Y393575D01*
X90422Y395127D01*
X90420Y395176D01*
X90414Y395224D01*
X90405Y395272D01*
X90392Y395319D01*
X90375Y395365D01*
X90354Y395409D01*
X90330Y395451D01*
X90303Y395492D01*
X90273Y395530D01*
X90240Y395566D01*
X90204Y395599D01*
X90166Y395629D01*
X90125Y395656D01*
X90083Y395680D01*
X90039Y395701D01*
X89993Y395718D01*
X89946Y395731D01*
X89898Y395740D01*
X89850Y395746D01*
X89801Y395748D01*
X89180Y395748D01*
X87274Y395749D02*
X87224Y395747D01*
X87175Y395742D01*
X87125Y395733D01*
X87077Y395721D01*
X87030Y395705D01*
X86984Y395686D01*
X86939Y395663D01*
X86896Y395638D01*
X86855Y395610D01*
X86816Y395578D01*
X86780Y395544D01*
X86746Y395508D01*
X86714Y395469D01*
X86686Y395428D01*
X86661Y395385D01*
X86638Y395340D01*
X86619Y395294D01*
X86603Y395247D01*
X86591Y395199D01*
X86582Y395149D01*
X86577Y395100D01*
X86575Y395050D01*
X87274Y395748D02*
X87330Y395746D01*
X87387Y395741D01*
X87442Y395732D01*
X87497Y395720D01*
X87551Y395704D01*
X87604Y395685D01*
X87656Y395662D01*
X87706Y395637D01*
X87755Y395608D01*
X87802Y395576D01*
X87846Y395542D01*
X87888Y395505D01*
X87928Y395465D01*
X87966Y395422D01*
X88000Y395378D01*
X88032Y395331D01*
X88060Y395282D01*
X88086Y395232D01*
X88108Y395180D01*
X88127Y395127D01*
X86809Y394507D02*
X86773Y394543D01*
X86740Y394581D01*
X86710Y394622D01*
X86683Y394664D01*
X86658Y394709D01*
X86637Y394755D01*
X86618Y394802D01*
X86603Y394850D01*
X86591Y394899D01*
X86583Y394949D01*
X86578Y394999D01*
X86576Y395050D01*
X86808Y394506D02*
X88128Y392954D01*
X86575Y392954D01*
X85385Y394351D02*
X85383Y394446D01*
X85377Y394541D01*
X85367Y394635D01*
X85354Y394729D01*
X85336Y394822D01*
X85315Y394915D01*
X85290Y395007D01*
X85261Y395097D01*
X85228Y395186D01*
X85192Y395274D01*
X85152Y395360D01*
X85151Y395360D02*
X85135Y395402D01*
X85116Y395442D01*
X85093Y395480D01*
X85068Y395517D01*
X85040Y395552D01*
X85010Y395584D01*
X84977Y395614D01*
X84942Y395641D01*
X84904Y395666D01*
X84865Y395687D01*
X84825Y395705D01*
X84783Y395721D01*
X84740Y395733D01*
X84697Y395741D01*
X84652Y395746D01*
X84608Y395748D01*
X84564Y395746D01*
X84519Y395741D01*
X84476Y395733D01*
X84433Y395721D01*
X84391Y395705D01*
X84351Y395687D01*
X84312Y395666D01*
X84274Y395641D01*
X84239Y395614D01*
X84206Y395584D01*
X84176Y395552D01*
X84148Y395517D01*
X84123Y395480D01*
X84100Y395442D01*
X84081Y395402D01*
X84065Y395360D01*
X84066Y395360D02*
X84026Y395274D01*
X83990Y395186D01*
X83957Y395097D01*
X83928Y395006D01*
X83903Y394915D01*
X83882Y394822D01*
X83864Y394729D01*
X83851Y394635D01*
X83841Y394541D01*
X83835Y394446D01*
X83833Y394351D01*
X85385Y394351D02*
X85383Y394256D01*
X85377Y394161D01*
X85367Y394067D01*
X85354Y393973D01*
X85336Y393880D01*
X85315Y393787D01*
X85290Y393696D01*
X85261Y393605D01*
X85228Y393516D01*
X85192Y393428D01*
X85152Y393342D01*
X85151Y393342D02*
X85135Y393300D01*
X85116Y393260D01*
X85093Y393222D01*
X85068Y393185D01*
X85040Y393150D01*
X85010Y393118D01*
X84977Y393088D01*
X84942Y393061D01*
X84904Y393036D01*
X84865Y393015D01*
X84825Y392997D01*
X84783Y392981D01*
X84740Y392969D01*
X84697Y392961D01*
X84652Y392956D01*
X84608Y392954D01*
X84065Y393342D02*
X84025Y393428D01*
X83989Y393516D01*
X83956Y393605D01*
X83927Y393695D01*
X83902Y393787D01*
X83881Y393880D01*
X83863Y393973D01*
X83850Y394067D01*
X83840Y394161D01*
X83834Y394256D01*
X83832Y394351D01*
X84065Y393342D02*
X84081Y393300D01*
X84100Y393260D01*
X84123Y393222D01*
X84148Y393185D01*
X84176Y393150D01*
X84206Y393118D01*
X84239Y393088D01*
X84274Y393061D01*
X84312Y393036D01*
X84351Y393015D01*
X84391Y392997D01*
X84433Y392981D01*
X84476Y392969D01*
X84519Y392961D01*
X84564Y392956D01*
X84608Y392954D01*
X85229Y393575D02*
X83987Y395127D01*
X82641Y395127D02*
X81865Y395748D01*
X81865Y392954D01*
X82641Y392954D02*
X81089Y392954D01*
D11*
X72246Y377372D02*
X72246Y368372D01*
X72246Y377372D02*
X54246Y377372D01*
X54246Y368372D01*
X72246Y368372D01*
D12*
X69166Y371586D02*
X68545Y371586D01*
X69166Y371586D02*
X69215Y371588D01*
X69263Y371594D01*
X69311Y371603D01*
X69358Y371616D01*
X69404Y371633D01*
X69448Y371654D01*
X69490Y371678D01*
X69531Y371705D01*
X69569Y371735D01*
X69605Y371768D01*
X69638Y371804D01*
X69668Y371842D01*
X69695Y371883D01*
X69719Y371925D01*
X69740Y371969D01*
X69757Y372015D01*
X69770Y372062D01*
X69779Y372110D01*
X69785Y372158D01*
X69787Y372207D01*
X69787Y373759D01*
X69785Y373808D01*
X69779Y373856D01*
X69770Y373904D01*
X69757Y373951D01*
X69740Y373997D01*
X69719Y374041D01*
X69695Y374083D01*
X69668Y374124D01*
X69638Y374162D01*
X69605Y374198D01*
X69569Y374231D01*
X69531Y374261D01*
X69490Y374288D01*
X69448Y374312D01*
X69404Y374333D01*
X69358Y374350D01*
X69311Y374363D01*
X69263Y374372D01*
X69215Y374378D01*
X69166Y374380D01*
X68545Y374380D01*
X66639Y374381D02*
X66589Y374379D01*
X66540Y374374D01*
X66490Y374365D01*
X66442Y374353D01*
X66395Y374337D01*
X66349Y374318D01*
X66304Y374295D01*
X66261Y374270D01*
X66220Y374242D01*
X66181Y374210D01*
X66145Y374176D01*
X66111Y374140D01*
X66079Y374101D01*
X66051Y374060D01*
X66026Y374017D01*
X66003Y373972D01*
X65984Y373926D01*
X65968Y373879D01*
X65956Y373831D01*
X65947Y373781D01*
X65942Y373732D01*
X65940Y373682D01*
X66639Y374380D02*
X66695Y374378D01*
X66752Y374373D01*
X66807Y374364D01*
X66862Y374352D01*
X66916Y374336D01*
X66969Y374317D01*
X67021Y374294D01*
X67071Y374269D01*
X67120Y374240D01*
X67167Y374208D01*
X67211Y374174D01*
X67253Y374137D01*
X67293Y374097D01*
X67331Y374054D01*
X67365Y374010D01*
X67397Y373963D01*
X67425Y373914D01*
X67451Y373864D01*
X67473Y373812D01*
X67492Y373759D01*
X66174Y373139D02*
X66138Y373175D01*
X66105Y373213D01*
X66075Y373254D01*
X66048Y373296D01*
X66023Y373341D01*
X66002Y373387D01*
X65983Y373434D01*
X65968Y373482D01*
X65956Y373531D01*
X65948Y373581D01*
X65943Y373631D01*
X65941Y373682D01*
X66174Y373138D02*
X67493Y371586D01*
X65941Y371586D01*
X64750Y372983D02*
X64748Y373078D01*
X64742Y373173D01*
X64732Y373267D01*
X64719Y373361D01*
X64701Y373454D01*
X64680Y373547D01*
X64655Y373639D01*
X64626Y373729D01*
X64593Y373818D01*
X64557Y373906D01*
X64517Y373992D01*
X64501Y374034D01*
X64482Y374074D01*
X64459Y374112D01*
X64434Y374149D01*
X64406Y374184D01*
X64376Y374216D01*
X64343Y374246D01*
X64308Y374273D01*
X64270Y374298D01*
X64231Y374319D01*
X64191Y374337D01*
X64149Y374353D01*
X64106Y374365D01*
X64063Y374373D01*
X64018Y374378D01*
X63974Y374380D01*
X63930Y374378D01*
X63885Y374373D01*
X63842Y374365D01*
X63799Y374353D01*
X63757Y374337D01*
X63717Y374319D01*
X63678Y374298D01*
X63640Y374273D01*
X63605Y374246D01*
X63572Y374216D01*
X63542Y374184D01*
X63514Y374149D01*
X63489Y374112D01*
X63466Y374074D01*
X63447Y374034D01*
X63431Y373992D01*
X63391Y373906D01*
X63355Y373818D01*
X63322Y373729D01*
X63293Y373638D01*
X63268Y373547D01*
X63247Y373454D01*
X63229Y373361D01*
X63216Y373267D01*
X63206Y373173D01*
X63200Y373078D01*
X63198Y372983D01*
X64750Y372983D02*
X64748Y372888D01*
X64742Y372793D01*
X64732Y372699D01*
X64719Y372605D01*
X64701Y372512D01*
X64680Y372419D01*
X64655Y372328D01*
X64626Y372237D01*
X64593Y372148D01*
X64557Y372060D01*
X64517Y371974D01*
X64501Y371932D01*
X64482Y371892D01*
X64459Y371854D01*
X64434Y371817D01*
X64406Y371782D01*
X64376Y371750D01*
X64343Y371720D01*
X64308Y371693D01*
X64270Y371668D01*
X64231Y371647D01*
X64191Y371629D01*
X64149Y371613D01*
X64106Y371601D01*
X64063Y371593D01*
X64018Y371588D01*
X63974Y371586D01*
X63430Y371974D02*
X63390Y372060D01*
X63354Y372148D01*
X63321Y372237D01*
X63292Y372327D01*
X63267Y372419D01*
X63246Y372512D01*
X63228Y372605D01*
X63215Y372699D01*
X63205Y372793D01*
X63199Y372888D01*
X63197Y372983D01*
X63431Y371974D02*
X63447Y371932D01*
X63466Y371892D01*
X63489Y371854D01*
X63514Y371817D01*
X63542Y371782D01*
X63572Y371750D01*
X63605Y371720D01*
X63640Y371693D01*
X63678Y371668D01*
X63717Y371647D01*
X63757Y371629D01*
X63799Y371613D01*
X63842Y371601D01*
X63885Y371593D01*
X63930Y371588D01*
X63974Y371586D01*
X64594Y372207D02*
X63353Y373759D01*
X62006Y371586D02*
X61230Y371586D01*
X61175Y371588D01*
X61120Y371594D01*
X61065Y371604D01*
X61011Y371617D01*
X60959Y371635D01*
X60908Y371656D01*
X60858Y371681D01*
X60810Y371709D01*
X60765Y371741D01*
X60722Y371776D01*
X60681Y371813D01*
X60644Y371854D01*
X60609Y371897D01*
X60577Y371942D01*
X60549Y371990D01*
X60524Y372040D01*
X60503Y372091D01*
X60485Y372143D01*
X60472Y372197D01*
X60462Y372252D01*
X60456Y372307D01*
X60454Y372362D01*
X60456Y372417D01*
X60462Y372472D01*
X60472Y372527D01*
X60485Y372581D01*
X60503Y372633D01*
X60524Y372684D01*
X60549Y372734D01*
X60577Y372782D01*
X60609Y372827D01*
X60644Y372870D01*
X60681Y372911D01*
X60722Y372948D01*
X60765Y372983D01*
X60810Y373015D01*
X60858Y373043D01*
X60908Y373068D01*
X60959Y373089D01*
X61011Y373107D01*
X61065Y373120D01*
X61120Y373130D01*
X61175Y373136D01*
X61230Y373138D01*
X61075Y374380D02*
X62006Y374380D01*
X61075Y374380D02*
X61026Y374378D01*
X60978Y374372D01*
X60930Y374363D01*
X60883Y374350D01*
X60837Y374333D01*
X60793Y374312D01*
X60751Y374288D01*
X60710Y374261D01*
X60672Y374231D01*
X60636Y374198D01*
X60603Y374162D01*
X60573Y374124D01*
X60546Y374083D01*
X60522Y374041D01*
X60501Y373997D01*
X60484Y373951D01*
X60471Y373904D01*
X60462Y373856D01*
X60456Y373808D01*
X60454Y373759D01*
X60456Y373710D01*
X60462Y373662D01*
X60471Y373614D01*
X60484Y373567D01*
X60501Y373521D01*
X60522Y373477D01*
X60546Y373435D01*
X60573Y373394D01*
X60603Y373356D01*
X60636Y373320D01*
X60672Y373287D01*
X60710Y373257D01*
X60751Y373230D01*
X60793Y373206D01*
X60837Y373185D01*
X60883Y373168D01*
X60930Y373155D01*
X60978Y373146D01*
X61026Y373140D01*
X61075Y373138D01*
X61696Y373138D01*
D11*
X117928Y283862D02*
X126928Y283862D01*
X126928Y301862D01*
X117928Y301862D01*
X117928Y283862D01*
D12*
X121142Y286942D02*
X121142Y287563D01*
X121142Y286942D02*
X121144Y286893D01*
X121150Y286845D01*
X121159Y286797D01*
X121172Y286750D01*
X121189Y286704D01*
X121210Y286660D01*
X121234Y286618D01*
X121261Y286577D01*
X121291Y286539D01*
X121324Y286503D01*
X121360Y286470D01*
X121398Y286440D01*
X121439Y286413D01*
X121481Y286389D01*
X121525Y286368D01*
X121571Y286351D01*
X121618Y286338D01*
X121666Y286329D01*
X121714Y286323D01*
X121763Y286321D01*
X123315Y286321D01*
X123364Y286323D01*
X123412Y286329D01*
X123460Y286338D01*
X123507Y286351D01*
X123553Y286368D01*
X123597Y286389D01*
X123639Y286413D01*
X123680Y286440D01*
X123718Y286470D01*
X123754Y286503D01*
X123787Y286539D01*
X123817Y286577D01*
X123844Y286618D01*
X123868Y286660D01*
X123889Y286704D01*
X123906Y286750D01*
X123919Y286797D01*
X123928Y286845D01*
X123934Y286893D01*
X123936Y286942D01*
X123936Y287563D01*
X123937Y289469D02*
X123935Y289519D01*
X123930Y289568D01*
X123921Y289618D01*
X123909Y289666D01*
X123893Y289713D01*
X123874Y289759D01*
X123851Y289804D01*
X123826Y289847D01*
X123798Y289888D01*
X123766Y289927D01*
X123732Y289963D01*
X123696Y289997D01*
X123657Y290029D01*
X123616Y290057D01*
X123573Y290082D01*
X123528Y290105D01*
X123482Y290124D01*
X123435Y290140D01*
X123387Y290152D01*
X123337Y290161D01*
X123288Y290166D01*
X123238Y290168D01*
X123936Y289469D02*
X123934Y289413D01*
X123929Y289356D01*
X123920Y289301D01*
X123908Y289246D01*
X123892Y289192D01*
X123873Y289139D01*
X123851Y289087D01*
X123825Y289037D01*
X123796Y288988D01*
X123764Y288941D01*
X123730Y288897D01*
X123693Y288855D01*
X123653Y288815D01*
X123610Y288777D01*
X123566Y288743D01*
X123519Y288711D01*
X123471Y288683D01*
X123420Y288657D01*
X123368Y288635D01*
X123315Y288616D01*
X122695Y289934D02*
X122731Y289970D01*
X122769Y290003D01*
X122810Y290033D01*
X122853Y290060D01*
X122897Y290085D01*
X122943Y290106D01*
X122990Y290125D01*
X123038Y290140D01*
X123087Y290152D01*
X123137Y290160D01*
X123187Y290165D01*
X123238Y290167D01*
X122694Y289935D02*
X121142Y288615D01*
X121142Y290167D01*
X122539Y291358D02*
X122634Y291360D01*
X122729Y291366D01*
X122823Y291376D01*
X122917Y291389D01*
X123010Y291407D01*
X123103Y291428D01*
X123195Y291453D01*
X123285Y291482D01*
X123374Y291515D01*
X123462Y291551D01*
X123548Y291591D01*
X123590Y291607D01*
X123630Y291626D01*
X123668Y291649D01*
X123705Y291674D01*
X123740Y291702D01*
X123772Y291732D01*
X123802Y291765D01*
X123829Y291800D01*
X123854Y291838D01*
X123875Y291877D01*
X123893Y291917D01*
X123909Y291959D01*
X123921Y292002D01*
X123929Y292045D01*
X123934Y292090D01*
X123936Y292134D01*
X123934Y292178D01*
X123929Y292223D01*
X123921Y292266D01*
X123909Y292309D01*
X123893Y292351D01*
X123875Y292391D01*
X123854Y292430D01*
X123829Y292468D01*
X123802Y292503D01*
X123772Y292536D01*
X123740Y292566D01*
X123705Y292594D01*
X123668Y292619D01*
X123630Y292642D01*
X123590Y292661D01*
X123548Y292677D01*
X123462Y292717D01*
X123374Y292753D01*
X123285Y292786D01*
X123194Y292815D01*
X123103Y292840D01*
X123010Y292861D01*
X122917Y292879D01*
X122823Y292892D01*
X122729Y292902D01*
X122634Y292908D01*
X122539Y292910D01*
X122539Y291358D02*
X122444Y291360D01*
X122349Y291366D01*
X122255Y291376D01*
X122161Y291389D01*
X122068Y291407D01*
X121975Y291428D01*
X121884Y291453D01*
X121793Y291482D01*
X121704Y291515D01*
X121616Y291551D01*
X121530Y291591D01*
X121488Y291607D01*
X121448Y291626D01*
X121410Y291649D01*
X121373Y291674D01*
X121338Y291702D01*
X121306Y291732D01*
X121276Y291765D01*
X121249Y291800D01*
X121224Y291838D01*
X121203Y291877D01*
X121185Y291917D01*
X121169Y291959D01*
X121157Y292002D01*
X121149Y292045D01*
X121144Y292090D01*
X121142Y292134D01*
X121530Y292678D02*
X121616Y292718D01*
X121704Y292754D01*
X121793Y292787D01*
X121883Y292816D01*
X121975Y292841D01*
X122068Y292862D01*
X122161Y292880D01*
X122255Y292893D01*
X122349Y292903D01*
X122444Y292909D01*
X122539Y292911D01*
X121530Y292677D02*
X121488Y292661D01*
X121448Y292642D01*
X121410Y292619D01*
X121373Y292594D01*
X121338Y292566D01*
X121306Y292536D01*
X121276Y292503D01*
X121249Y292468D01*
X121224Y292430D01*
X121203Y292391D01*
X121185Y292351D01*
X121169Y292309D01*
X121157Y292266D01*
X121149Y292223D01*
X121144Y292178D01*
X121142Y292134D01*
X121763Y291514D02*
X123315Y292755D01*
X122384Y294722D02*
X122384Y295654D01*
X122384Y294722D02*
X122386Y294673D01*
X122392Y294625D01*
X122401Y294577D01*
X122414Y294530D01*
X122431Y294484D01*
X122452Y294440D01*
X122476Y294398D01*
X122503Y294357D01*
X122533Y294319D01*
X122566Y294283D01*
X122602Y294250D01*
X122640Y294220D01*
X122681Y294192D01*
X122723Y294169D01*
X122767Y294148D01*
X122813Y294131D01*
X122860Y294118D01*
X122908Y294109D01*
X122956Y294103D01*
X123005Y294101D01*
X123005Y294102D02*
X123160Y294102D01*
X123215Y294104D01*
X123270Y294110D01*
X123325Y294120D01*
X123379Y294133D01*
X123431Y294151D01*
X123482Y294172D01*
X123532Y294197D01*
X123580Y294225D01*
X123625Y294257D01*
X123668Y294292D01*
X123709Y294329D01*
X123746Y294370D01*
X123781Y294413D01*
X123813Y294458D01*
X123841Y294506D01*
X123866Y294556D01*
X123887Y294607D01*
X123905Y294659D01*
X123918Y294713D01*
X123928Y294768D01*
X123934Y294823D01*
X123936Y294878D01*
X123934Y294933D01*
X123928Y294988D01*
X123918Y295043D01*
X123905Y295097D01*
X123887Y295149D01*
X123866Y295200D01*
X123841Y295250D01*
X123813Y295298D01*
X123781Y295343D01*
X123746Y295386D01*
X123709Y295427D01*
X123668Y295464D01*
X123625Y295499D01*
X123580Y295531D01*
X123532Y295559D01*
X123482Y295584D01*
X123431Y295605D01*
X123379Y295623D01*
X123325Y295636D01*
X123270Y295646D01*
X123215Y295652D01*
X123160Y295654D01*
X122384Y295654D01*
X122314Y295652D01*
X122245Y295646D01*
X122176Y295636D01*
X122108Y295623D01*
X122040Y295605D01*
X121974Y295584D01*
X121909Y295559D01*
X121845Y295531D01*
X121783Y295499D01*
X121723Y295464D01*
X121665Y295425D01*
X121610Y295383D01*
X121556Y295338D01*
X121506Y295290D01*
X121458Y295240D01*
X121413Y295186D01*
X121371Y295131D01*
X121332Y295073D01*
X121297Y295013D01*
X121265Y294951D01*
X121237Y294887D01*
X121212Y294822D01*
X121191Y294756D01*
X121173Y294688D01*
X121160Y294620D01*
X121150Y294551D01*
X121144Y294482D01*
X121142Y294412D01*
D11*
X147900Y283862D02*
X156900Y283862D01*
X156900Y301862D01*
X147900Y301862D01*
X147900Y283862D01*
D12*
X150606Y287958D02*
X150606Y288579D01*
X150606Y287958D02*
X150608Y287909D01*
X150614Y287861D01*
X150623Y287813D01*
X150636Y287766D01*
X150653Y287720D01*
X150674Y287676D01*
X150698Y287634D01*
X150725Y287593D01*
X150755Y287555D01*
X150788Y287519D01*
X150824Y287486D01*
X150862Y287456D01*
X150903Y287429D01*
X150945Y287405D01*
X150989Y287384D01*
X151035Y287367D01*
X151082Y287354D01*
X151130Y287345D01*
X151178Y287339D01*
X151227Y287337D01*
X152779Y287337D01*
X152828Y287339D01*
X152876Y287345D01*
X152924Y287354D01*
X152971Y287367D01*
X153017Y287384D01*
X153061Y287405D01*
X153103Y287429D01*
X153144Y287456D01*
X153182Y287486D01*
X153218Y287519D01*
X153251Y287555D01*
X153281Y287593D01*
X153308Y287634D01*
X153332Y287676D01*
X153353Y287720D01*
X153370Y287766D01*
X153383Y287813D01*
X153392Y287861D01*
X153398Y287909D01*
X153400Y287958D01*
X153400Y288579D01*
X153401Y290485D02*
X153399Y290535D01*
X153394Y290584D01*
X153385Y290634D01*
X153373Y290682D01*
X153357Y290729D01*
X153338Y290775D01*
X153315Y290820D01*
X153290Y290863D01*
X153262Y290904D01*
X153230Y290943D01*
X153196Y290979D01*
X153160Y291013D01*
X153121Y291045D01*
X153080Y291073D01*
X153037Y291098D01*
X152992Y291121D01*
X152946Y291140D01*
X152899Y291156D01*
X152851Y291168D01*
X152801Y291177D01*
X152752Y291182D01*
X152702Y291184D01*
X153400Y290485D02*
X153398Y290429D01*
X153393Y290372D01*
X153384Y290317D01*
X153372Y290262D01*
X153356Y290208D01*
X153337Y290155D01*
X153315Y290103D01*
X153289Y290053D01*
X153260Y290004D01*
X153228Y289957D01*
X153194Y289913D01*
X153157Y289871D01*
X153117Y289831D01*
X153074Y289793D01*
X153030Y289759D01*
X152983Y289727D01*
X152935Y289699D01*
X152884Y289673D01*
X152832Y289651D01*
X152779Y289632D01*
X152159Y290950D02*
X152195Y290986D01*
X152233Y291019D01*
X152274Y291049D01*
X152317Y291076D01*
X152361Y291101D01*
X152407Y291122D01*
X152454Y291141D01*
X152502Y291156D01*
X152551Y291168D01*
X152601Y291176D01*
X152651Y291181D01*
X152702Y291183D01*
X152158Y290951D02*
X150606Y289631D01*
X150606Y291183D01*
X152003Y292374D02*
X152098Y292376D01*
X152193Y292382D01*
X152287Y292392D01*
X152381Y292405D01*
X152474Y292423D01*
X152567Y292444D01*
X152659Y292469D01*
X152749Y292498D01*
X152838Y292531D01*
X152926Y292567D01*
X153012Y292607D01*
X153054Y292623D01*
X153094Y292642D01*
X153132Y292665D01*
X153169Y292690D01*
X153204Y292718D01*
X153236Y292748D01*
X153266Y292781D01*
X153293Y292816D01*
X153318Y292854D01*
X153339Y292893D01*
X153357Y292933D01*
X153373Y292975D01*
X153385Y293018D01*
X153393Y293061D01*
X153398Y293106D01*
X153400Y293150D01*
X153398Y293194D01*
X153393Y293239D01*
X153385Y293282D01*
X153373Y293325D01*
X153357Y293367D01*
X153339Y293407D01*
X153318Y293446D01*
X153293Y293484D01*
X153266Y293519D01*
X153236Y293552D01*
X153204Y293582D01*
X153169Y293610D01*
X153132Y293635D01*
X153094Y293658D01*
X153054Y293677D01*
X153012Y293693D01*
X152926Y293733D01*
X152838Y293769D01*
X152749Y293802D01*
X152658Y293831D01*
X152567Y293856D01*
X152474Y293877D01*
X152381Y293895D01*
X152287Y293908D01*
X152193Y293918D01*
X152098Y293924D01*
X152003Y293926D01*
X152003Y292374D02*
X151908Y292376D01*
X151813Y292382D01*
X151719Y292392D01*
X151625Y292405D01*
X151532Y292423D01*
X151439Y292444D01*
X151348Y292469D01*
X151257Y292498D01*
X151168Y292531D01*
X151080Y292567D01*
X150994Y292607D01*
X150952Y292623D01*
X150912Y292642D01*
X150874Y292665D01*
X150837Y292690D01*
X150802Y292718D01*
X150770Y292748D01*
X150740Y292781D01*
X150713Y292816D01*
X150688Y292854D01*
X150667Y292893D01*
X150649Y292933D01*
X150633Y292975D01*
X150621Y293018D01*
X150613Y293061D01*
X150608Y293106D01*
X150606Y293150D01*
X150994Y293694D02*
X151080Y293734D01*
X151168Y293770D01*
X151257Y293803D01*
X151347Y293832D01*
X151439Y293857D01*
X151532Y293878D01*
X151625Y293896D01*
X151719Y293909D01*
X151813Y293919D01*
X151908Y293925D01*
X152003Y293927D01*
X150994Y293693D02*
X150952Y293677D01*
X150912Y293658D01*
X150874Y293635D01*
X150837Y293610D01*
X150802Y293582D01*
X150770Y293552D01*
X150740Y293519D01*
X150713Y293484D01*
X150688Y293446D01*
X150667Y293407D01*
X150649Y293367D01*
X150633Y293325D01*
X150621Y293282D01*
X150613Y293239D01*
X150608Y293194D01*
X150606Y293150D01*
X151227Y292530D02*
X152779Y293771D01*
X153090Y295118D02*
X153400Y295118D01*
X153400Y296670D01*
X150606Y295894D01*
D11*
X325700Y216044D02*
X334700Y216044D01*
X334700Y234044D01*
X325700Y234044D01*
X325700Y216044D01*
D12*
X328914Y219124D02*
X328914Y219745D01*
X328914Y219124D02*
X328916Y219075D01*
X328922Y219027D01*
X328931Y218979D01*
X328944Y218932D01*
X328961Y218886D01*
X328982Y218842D01*
X329006Y218800D01*
X329033Y218759D01*
X329063Y218721D01*
X329096Y218685D01*
X329132Y218652D01*
X329170Y218622D01*
X329211Y218595D01*
X329253Y218571D01*
X329297Y218550D01*
X329343Y218533D01*
X329390Y218520D01*
X329438Y218511D01*
X329486Y218505D01*
X329535Y218503D01*
X331087Y218503D01*
X331136Y218505D01*
X331184Y218511D01*
X331232Y218520D01*
X331279Y218533D01*
X331325Y218550D01*
X331369Y218571D01*
X331411Y218595D01*
X331452Y218622D01*
X331490Y218652D01*
X331526Y218685D01*
X331559Y218721D01*
X331589Y218759D01*
X331616Y218800D01*
X331640Y218842D01*
X331661Y218886D01*
X331678Y218932D01*
X331691Y218979D01*
X331700Y219027D01*
X331706Y219075D01*
X331708Y219124D01*
X331708Y219745D01*
X331087Y220797D02*
X331708Y221573D01*
X328914Y221573D01*
X328914Y220797D02*
X328914Y222349D01*
X330311Y223540D02*
X330406Y223542D01*
X330501Y223548D01*
X330595Y223558D01*
X330689Y223571D01*
X330782Y223589D01*
X330875Y223610D01*
X330967Y223635D01*
X331057Y223664D01*
X331146Y223697D01*
X331234Y223733D01*
X331320Y223773D01*
X331362Y223789D01*
X331402Y223808D01*
X331440Y223831D01*
X331477Y223856D01*
X331512Y223884D01*
X331544Y223914D01*
X331574Y223947D01*
X331601Y223982D01*
X331626Y224020D01*
X331647Y224059D01*
X331665Y224099D01*
X331681Y224141D01*
X331693Y224184D01*
X331701Y224227D01*
X331706Y224272D01*
X331708Y224316D01*
X331706Y224360D01*
X331701Y224405D01*
X331693Y224448D01*
X331681Y224491D01*
X331665Y224533D01*
X331647Y224573D01*
X331626Y224612D01*
X331601Y224650D01*
X331574Y224685D01*
X331544Y224718D01*
X331512Y224748D01*
X331477Y224776D01*
X331440Y224801D01*
X331402Y224824D01*
X331362Y224843D01*
X331320Y224859D01*
X331234Y224899D01*
X331146Y224935D01*
X331057Y224968D01*
X330966Y224997D01*
X330875Y225022D01*
X330782Y225043D01*
X330689Y225061D01*
X330595Y225074D01*
X330501Y225084D01*
X330406Y225090D01*
X330311Y225092D01*
X330311Y223540D02*
X330216Y223542D01*
X330121Y223548D01*
X330027Y223558D01*
X329933Y223571D01*
X329840Y223589D01*
X329747Y223610D01*
X329656Y223635D01*
X329565Y223664D01*
X329476Y223697D01*
X329388Y223733D01*
X329302Y223773D01*
X329260Y223789D01*
X329220Y223808D01*
X329182Y223831D01*
X329145Y223856D01*
X329110Y223884D01*
X329078Y223914D01*
X329048Y223947D01*
X329021Y223982D01*
X328996Y224020D01*
X328975Y224059D01*
X328957Y224099D01*
X328941Y224141D01*
X328929Y224184D01*
X328921Y224227D01*
X328916Y224272D01*
X328914Y224316D01*
X329302Y224860D02*
X329388Y224900D01*
X329476Y224936D01*
X329565Y224969D01*
X329655Y224998D01*
X329747Y225023D01*
X329840Y225044D01*
X329933Y225062D01*
X330027Y225075D01*
X330121Y225085D01*
X330216Y225091D01*
X330311Y225093D01*
X329302Y224859D02*
X329260Y224843D01*
X329220Y224824D01*
X329182Y224801D01*
X329145Y224776D01*
X329110Y224748D01*
X329078Y224718D01*
X329048Y224685D01*
X329021Y224650D01*
X328996Y224612D01*
X328975Y224573D01*
X328957Y224533D01*
X328941Y224491D01*
X328929Y224448D01*
X328921Y224405D01*
X328916Y224360D01*
X328914Y224316D01*
X329535Y223696D02*
X331087Y224937D01*
X329535Y226284D02*
X331708Y226904D01*
X329535Y226284D02*
X329535Y227836D01*
X330156Y227370D02*
X328914Y227370D01*
D11*
X325700Y212708D02*
X334700Y212708D01*
X325700Y212708D02*
X325700Y194708D01*
X334700Y194708D01*
X334700Y212708D01*
D12*
X328692Y202158D02*
X328692Y201537D01*
X328694Y201488D01*
X328700Y201440D01*
X328709Y201392D01*
X328722Y201345D01*
X328739Y201299D01*
X328760Y201255D01*
X328784Y201213D01*
X328811Y201172D01*
X328841Y201134D01*
X328874Y201098D01*
X328910Y201065D01*
X328948Y201035D01*
X328989Y201008D01*
X329031Y200984D01*
X329075Y200963D01*
X329121Y200946D01*
X329168Y200933D01*
X329216Y200924D01*
X329264Y200918D01*
X329313Y200916D01*
X330865Y200916D01*
X330914Y200918D01*
X330962Y200924D01*
X331010Y200933D01*
X331057Y200946D01*
X331103Y200963D01*
X331147Y200984D01*
X331189Y201008D01*
X331230Y201035D01*
X331268Y201065D01*
X331304Y201098D01*
X331337Y201134D01*
X331367Y201172D01*
X331394Y201213D01*
X331418Y201255D01*
X331439Y201299D01*
X331456Y201345D01*
X331469Y201392D01*
X331478Y201440D01*
X331484Y201488D01*
X331486Y201537D01*
X331486Y202158D01*
X330865Y203210D02*
X331486Y203986D01*
X328692Y203986D01*
X328692Y203210D02*
X328692Y204763D01*
X330089Y205953D02*
X330184Y205955D01*
X330279Y205961D01*
X330373Y205971D01*
X330467Y205984D01*
X330560Y206002D01*
X330653Y206023D01*
X330745Y206048D01*
X330835Y206077D01*
X330924Y206110D01*
X331012Y206146D01*
X331098Y206186D01*
X331098Y206187D02*
X331140Y206203D01*
X331180Y206222D01*
X331218Y206245D01*
X331255Y206270D01*
X331290Y206298D01*
X331322Y206328D01*
X331352Y206361D01*
X331379Y206396D01*
X331404Y206434D01*
X331425Y206473D01*
X331443Y206513D01*
X331459Y206555D01*
X331471Y206598D01*
X331479Y206641D01*
X331484Y206686D01*
X331486Y206730D01*
X331484Y206774D01*
X331479Y206819D01*
X331471Y206862D01*
X331459Y206905D01*
X331443Y206947D01*
X331425Y206987D01*
X331404Y207026D01*
X331379Y207064D01*
X331352Y207099D01*
X331322Y207132D01*
X331290Y207162D01*
X331255Y207190D01*
X331218Y207215D01*
X331180Y207238D01*
X331140Y207257D01*
X331098Y207273D01*
X331098Y207272D02*
X331012Y207312D01*
X330924Y207348D01*
X330835Y207381D01*
X330744Y207410D01*
X330653Y207435D01*
X330560Y207456D01*
X330467Y207474D01*
X330373Y207487D01*
X330279Y207497D01*
X330184Y207503D01*
X330089Y207505D01*
X330089Y205953D02*
X329994Y205955D01*
X329899Y205961D01*
X329805Y205971D01*
X329711Y205984D01*
X329618Y206002D01*
X329525Y206023D01*
X329434Y206048D01*
X329343Y206077D01*
X329254Y206110D01*
X329166Y206146D01*
X329080Y206186D01*
X329080Y206187D02*
X329038Y206203D01*
X328998Y206222D01*
X328960Y206245D01*
X328923Y206270D01*
X328888Y206298D01*
X328856Y206328D01*
X328826Y206361D01*
X328799Y206396D01*
X328774Y206434D01*
X328753Y206473D01*
X328735Y206513D01*
X328719Y206555D01*
X328707Y206598D01*
X328699Y206641D01*
X328694Y206686D01*
X328692Y206730D01*
X329080Y207273D02*
X329166Y207313D01*
X329254Y207349D01*
X329343Y207382D01*
X329433Y207411D01*
X329525Y207436D01*
X329618Y207457D01*
X329711Y207475D01*
X329805Y207488D01*
X329899Y207498D01*
X329994Y207504D01*
X330089Y207506D01*
X329080Y207273D02*
X329038Y207257D01*
X328998Y207238D01*
X328960Y207215D01*
X328923Y207190D01*
X328888Y207162D01*
X328856Y207132D01*
X328826Y207099D01*
X328799Y207064D01*
X328774Y207026D01*
X328753Y206987D01*
X328735Y206947D01*
X328719Y206905D01*
X328707Y206862D01*
X328699Y206819D01*
X328694Y206774D01*
X328692Y206730D01*
X329313Y206109D02*
X330865Y207351D01*
X330244Y208697D02*
X330244Y209628D01*
X330242Y209677D01*
X330236Y209725D01*
X330227Y209773D01*
X330214Y209820D01*
X330197Y209866D01*
X330176Y209910D01*
X330152Y209952D01*
X330125Y209993D01*
X330095Y210031D01*
X330062Y210067D01*
X330026Y210100D01*
X329988Y210130D01*
X329947Y210157D01*
X329905Y210181D01*
X329861Y210202D01*
X329815Y210219D01*
X329768Y210232D01*
X329720Y210241D01*
X329672Y210247D01*
X329623Y210249D01*
X329468Y210249D01*
X329413Y210247D01*
X329358Y210241D01*
X329303Y210231D01*
X329249Y210218D01*
X329197Y210200D01*
X329146Y210179D01*
X329096Y210154D01*
X329048Y210126D01*
X329003Y210094D01*
X328960Y210059D01*
X328919Y210022D01*
X328882Y209981D01*
X328847Y209938D01*
X328815Y209893D01*
X328787Y209845D01*
X328762Y209795D01*
X328741Y209744D01*
X328723Y209692D01*
X328710Y209638D01*
X328700Y209583D01*
X328694Y209528D01*
X328692Y209473D01*
X328694Y209418D01*
X328700Y209363D01*
X328710Y209308D01*
X328723Y209254D01*
X328741Y209202D01*
X328762Y209151D01*
X328787Y209101D01*
X328815Y209053D01*
X328847Y209008D01*
X328882Y208965D01*
X328919Y208924D01*
X328960Y208887D01*
X329003Y208852D01*
X329048Y208820D01*
X329096Y208792D01*
X329146Y208767D01*
X329197Y208746D01*
X329249Y208728D01*
X329303Y208715D01*
X329358Y208705D01*
X329413Y208699D01*
X329468Y208697D01*
X330244Y208697D01*
X330314Y208699D01*
X330383Y208705D01*
X330452Y208715D01*
X330520Y208728D01*
X330588Y208746D01*
X330654Y208767D01*
X330719Y208792D01*
X330783Y208820D01*
X330845Y208852D01*
X330905Y208887D01*
X330963Y208926D01*
X331018Y208968D01*
X331072Y209013D01*
X331122Y209061D01*
X331170Y209111D01*
X331215Y209165D01*
X331257Y209220D01*
X331296Y209278D01*
X331331Y209338D01*
X331363Y209400D01*
X331391Y209464D01*
X331416Y209529D01*
X331437Y209595D01*
X331455Y209663D01*
X331468Y209731D01*
X331478Y209800D01*
X331484Y209869D01*
X331486Y209939D01*
D11*
X232338Y204072D02*
X223338Y204072D01*
X223338Y186072D01*
X232338Y186072D01*
X232338Y204072D01*
D12*
X226330Y193522D02*
X226330Y192901D01*
X226332Y192852D01*
X226338Y192804D01*
X226347Y192756D01*
X226360Y192709D01*
X226377Y192663D01*
X226398Y192619D01*
X226422Y192577D01*
X226449Y192536D01*
X226479Y192498D01*
X226512Y192462D01*
X226548Y192429D01*
X226586Y192399D01*
X226627Y192372D01*
X226669Y192348D01*
X226713Y192327D01*
X226759Y192310D01*
X226806Y192297D01*
X226854Y192288D01*
X226902Y192282D01*
X226951Y192280D01*
X228503Y192280D01*
X228552Y192282D01*
X228600Y192288D01*
X228648Y192297D01*
X228695Y192310D01*
X228741Y192327D01*
X228785Y192348D01*
X228827Y192372D01*
X228868Y192399D01*
X228906Y192429D01*
X228942Y192462D01*
X228975Y192498D01*
X229005Y192536D01*
X229032Y192577D01*
X229056Y192619D01*
X229077Y192663D01*
X229094Y192709D01*
X229107Y192756D01*
X229116Y192804D01*
X229122Y192852D01*
X229124Y192901D01*
X229124Y193522D01*
X228503Y194574D02*
X229124Y195350D01*
X226330Y195350D01*
X226330Y194574D02*
X226330Y196127D01*
X228503Y197318D02*
X229124Y198094D01*
X226330Y198094D01*
X226330Y197318D02*
X226330Y198870D01*
X228503Y200061D02*
X229124Y200837D01*
X226330Y200837D01*
X226330Y200061D02*
X226330Y201613D01*
D11*
X313508Y212454D02*
X322508Y212454D01*
X313508Y212454D02*
X313508Y194454D01*
X322508Y194454D01*
X322508Y212454D01*
D12*
X316500Y201904D02*
X316500Y201283D01*
X316502Y201234D01*
X316508Y201186D01*
X316517Y201138D01*
X316530Y201091D01*
X316547Y201045D01*
X316568Y201001D01*
X316592Y200959D01*
X316619Y200918D01*
X316649Y200880D01*
X316682Y200844D01*
X316718Y200811D01*
X316756Y200781D01*
X316797Y200754D01*
X316839Y200730D01*
X316883Y200709D01*
X316929Y200692D01*
X316976Y200679D01*
X317024Y200670D01*
X317072Y200664D01*
X317121Y200662D01*
X318673Y200662D01*
X318722Y200664D01*
X318770Y200670D01*
X318818Y200679D01*
X318865Y200692D01*
X318911Y200709D01*
X318955Y200730D01*
X318997Y200754D01*
X319038Y200781D01*
X319076Y200811D01*
X319112Y200844D01*
X319145Y200880D01*
X319175Y200918D01*
X319202Y200959D01*
X319226Y201001D01*
X319247Y201045D01*
X319264Y201091D01*
X319277Y201138D01*
X319286Y201186D01*
X319292Y201234D01*
X319294Y201283D01*
X319294Y201904D01*
X318673Y202956D02*
X319294Y203732D01*
X316500Y203732D01*
X316500Y202956D02*
X316500Y204509D01*
X318673Y205700D02*
X319294Y206476D01*
X316500Y206476D01*
X316500Y205700D02*
X316500Y207252D01*
X318596Y209996D02*
X318646Y209994D01*
X318695Y209989D01*
X318745Y209980D01*
X318793Y209968D01*
X318840Y209952D01*
X318886Y209933D01*
X318931Y209910D01*
X318974Y209885D01*
X319015Y209857D01*
X319054Y209825D01*
X319090Y209791D01*
X319124Y209755D01*
X319156Y209716D01*
X319184Y209675D01*
X319209Y209632D01*
X319232Y209587D01*
X319251Y209541D01*
X319267Y209494D01*
X319279Y209446D01*
X319288Y209396D01*
X319293Y209347D01*
X319295Y209297D01*
X319294Y209297D02*
X319292Y209241D01*
X319287Y209184D01*
X319278Y209129D01*
X319266Y209074D01*
X319250Y209020D01*
X319231Y208967D01*
X319209Y208915D01*
X319183Y208865D01*
X319154Y208816D01*
X319122Y208769D01*
X319088Y208725D01*
X319051Y208683D01*
X319011Y208643D01*
X318968Y208605D01*
X318924Y208571D01*
X318877Y208539D01*
X318829Y208511D01*
X318778Y208485D01*
X318726Y208463D01*
X318673Y208444D01*
X318053Y209762D02*
X318089Y209798D01*
X318127Y209831D01*
X318168Y209861D01*
X318211Y209888D01*
X318255Y209913D01*
X318301Y209934D01*
X318348Y209953D01*
X318396Y209968D01*
X318445Y209980D01*
X318495Y209988D01*
X318545Y209993D01*
X318596Y209995D01*
X318052Y209762D02*
X316500Y208443D01*
X316500Y209995D01*
D11*
X217280Y206574D02*
X217280Y215574D01*
X199280Y215574D01*
X199280Y206574D01*
X217280Y206574D01*
D12*
X214200Y209788D02*
X213579Y209788D01*
X214200Y209788D02*
X214249Y209790D01*
X214297Y209796D01*
X214345Y209805D01*
X214392Y209818D01*
X214438Y209835D01*
X214482Y209856D01*
X214524Y209880D01*
X214565Y209907D01*
X214603Y209937D01*
X214639Y209970D01*
X214672Y210006D01*
X214702Y210044D01*
X214729Y210085D01*
X214753Y210127D01*
X214774Y210171D01*
X214791Y210217D01*
X214804Y210264D01*
X214813Y210312D01*
X214819Y210360D01*
X214821Y210409D01*
X214821Y211961D01*
X214819Y212010D01*
X214813Y212058D01*
X214804Y212106D01*
X214791Y212153D01*
X214774Y212199D01*
X214753Y212243D01*
X214729Y212285D01*
X214702Y212326D01*
X214672Y212364D01*
X214639Y212400D01*
X214603Y212433D01*
X214565Y212463D01*
X214524Y212490D01*
X214482Y212514D01*
X214438Y212535D01*
X214392Y212552D01*
X214345Y212565D01*
X214297Y212574D01*
X214249Y212580D01*
X214200Y212582D01*
X213579Y212582D01*
X212527Y211961D02*
X211751Y212582D01*
X211751Y209788D01*
X212527Y209788D02*
X210975Y209788D01*
X209784Y211961D02*
X209008Y212582D01*
X209008Y209788D01*
X209784Y209788D02*
X208231Y209788D01*
X207040Y209788D02*
X206264Y209788D01*
X206209Y209790D01*
X206154Y209796D01*
X206099Y209806D01*
X206045Y209819D01*
X205993Y209837D01*
X205942Y209858D01*
X205892Y209883D01*
X205844Y209911D01*
X205799Y209943D01*
X205756Y209978D01*
X205715Y210015D01*
X205678Y210056D01*
X205643Y210099D01*
X205611Y210144D01*
X205583Y210192D01*
X205558Y210242D01*
X205537Y210293D01*
X205519Y210345D01*
X205506Y210399D01*
X205496Y210454D01*
X205490Y210509D01*
X205488Y210564D01*
X205490Y210619D01*
X205496Y210674D01*
X205506Y210729D01*
X205519Y210783D01*
X205537Y210835D01*
X205558Y210886D01*
X205583Y210936D01*
X205611Y210984D01*
X205643Y211029D01*
X205678Y211072D01*
X205715Y211113D01*
X205756Y211150D01*
X205799Y211185D01*
X205844Y211217D01*
X205892Y211245D01*
X205942Y211270D01*
X205993Y211291D01*
X206045Y211309D01*
X206099Y211322D01*
X206154Y211332D01*
X206209Y211338D01*
X206264Y211340D01*
X206109Y212582D02*
X207040Y212582D01*
X206109Y212582D02*
X206060Y212580D01*
X206012Y212574D01*
X205964Y212565D01*
X205917Y212552D01*
X205871Y212535D01*
X205827Y212514D01*
X205785Y212490D01*
X205744Y212463D01*
X205706Y212433D01*
X205670Y212400D01*
X205637Y212364D01*
X205607Y212326D01*
X205580Y212285D01*
X205556Y212243D01*
X205535Y212199D01*
X205518Y212153D01*
X205505Y212106D01*
X205496Y212058D01*
X205490Y212010D01*
X205488Y211961D01*
X205490Y211912D01*
X205496Y211864D01*
X205505Y211816D01*
X205518Y211769D01*
X205535Y211723D01*
X205556Y211679D01*
X205580Y211637D01*
X205607Y211596D01*
X205637Y211558D01*
X205670Y211522D01*
X205706Y211489D01*
X205744Y211459D01*
X205785Y211432D01*
X205827Y211408D01*
X205871Y211387D01*
X205917Y211370D01*
X205964Y211357D01*
X206012Y211348D01*
X206060Y211342D01*
X206109Y211340D01*
X206730Y211340D01*
D11*
X110926Y344822D02*
X101926Y344822D01*
X110926Y344822D02*
X110926Y362822D01*
X101926Y362822D01*
X101926Y344822D01*
D12*
X105140Y347902D02*
X105140Y348523D01*
X105140Y347902D02*
X105142Y347853D01*
X105148Y347805D01*
X105157Y347757D01*
X105170Y347710D01*
X105187Y347664D01*
X105208Y347620D01*
X105232Y347578D01*
X105259Y347537D01*
X105289Y347499D01*
X105322Y347463D01*
X105358Y347430D01*
X105396Y347400D01*
X105437Y347373D01*
X105479Y347349D01*
X105523Y347328D01*
X105569Y347311D01*
X105616Y347298D01*
X105664Y347289D01*
X105712Y347283D01*
X105761Y347281D01*
X107313Y347281D01*
X107362Y347283D01*
X107410Y347289D01*
X107458Y347298D01*
X107505Y347311D01*
X107551Y347328D01*
X107595Y347349D01*
X107637Y347373D01*
X107678Y347400D01*
X107716Y347430D01*
X107752Y347463D01*
X107785Y347499D01*
X107815Y347537D01*
X107842Y347578D01*
X107866Y347620D01*
X107887Y347664D01*
X107904Y347710D01*
X107917Y347757D01*
X107926Y347805D01*
X107932Y347853D01*
X107934Y347902D01*
X107934Y348523D01*
X107935Y350429D02*
X107933Y350479D01*
X107928Y350528D01*
X107919Y350578D01*
X107907Y350626D01*
X107891Y350673D01*
X107872Y350719D01*
X107849Y350764D01*
X107824Y350807D01*
X107796Y350848D01*
X107764Y350887D01*
X107730Y350923D01*
X107694Y350957D01*
X107655Y350989D01*
X107614Y351017D01*
X107571Y351042D01*
X107526Y351065D01*
X107480Y351084D01*
X107433Y351100D01*
X107385Y351112D01*
X107335Y351121D01*
X107286Y351126D01*
X107236Y351128D01*
X107934Y350429D02*
X107932Y350373D01*
X107927Y350316D01*
X107918Y350261D01*
X107906Y350206D01*
X107890Y350152D01*
X107871Y350099D01*
X107849Y350047D01*
X107823Y349997D01*
X107794Y349948D01*
X107762Y349901D01*
X107728Y349857D01*
X107691Y349815D01*
X107651Y349775D01*
X107608Y349737D01*
X107564Y349703D01*
X107517Y349671D01*
X107469Y349643D01*
X107418Y349617D01*
X107366Y349595D01*
X107313Y349576D01*
X106693Y350894D02*
X106729Y350930D01*
X106767Y350963D01*
X106808Y350993D01*
X106851Y351020D01*
X106895Y351045D01*
X106941Y351066D01*
X106988Y351085D01*
X107036Y351100D01*
X107085Y351112D01*
X107135Y351120D01*
X107185Y351125D01*
X107236Y351127D01*
X106692Y350895D02*
X105140Y349575D01*
X105140Y351127D01*
X106537Y352318D02*
X106632Y352320D01*
X106727Y352326D01*
X106821Y352336D01*
X106915Y352349D01*
X107008Y352367D01*
X107101Y352388D01*
X107193Y352413D01*
X107283Y352442D01*
X107372Y352475D01*
X107460Y352511D01*
X107546Y352551D01*
X107588Y352567D01*
X107628Y352586D01*
X107666Y352609D01*
X107703Y352634D01*
X107738Y352662D01*
X107770Y352692D01*
X107800Y352725D01*
X107827Y352760D01*
X107852Y352798D01*
X107873Y352837D01*
X107891Y352877D01*
X107907Y352919D01*
X107919Y352962D01*
X107927Y353005D01*
X107932Y353050D01*
X107934Y353094D01*
X107932Y353138D01*
X107927Y353183D01*
X107919Y353226D01*
X107907Y353269D01*
X107891Y353311D01*
X107873Y353351D01*
X107852Y353390D01*
X107827Y353428D01*
X107800Y353463D01*
X107770Y353496D01*
X107738Y353526D01*
X107703Y353554D01*
X107666Y353579D01*
X107628Y353602D01*
X107588Y353621D01*
X107546Y353637D01*
X107460Y353677D01*
X107372Y353713D01*
X107283Y353746D01*
X107192Y353775D01*
X107101Y353800D01*
X107008Y353821D01*
X106915Y353839D01*
X106821Y353852D01*
X106727Y353862D01*
X106632Y353868D01*
X106537Y353870D01*
X106537Y352318D02*
X106442Y352320D01*
X106347Y352326D01*
X106253Y352336D01*
X106159Y352349D01*
X106066Y352367D01*
X105973Y352388D01*
X105882Y352413D01*
X105791Y352442D01*
X105702Y352475D01*
X105614Y352511D01*
X105528Y352551D01*
X105486Y352567D01*
X105446Y352586D01*
X105408Y352609D01*
X105371Y352634D01*
X105336Y352662D01*
X105304Y352692D01*
X105274Y352725D01*
X105247Y352760D01*
X105222Y352798D01*
X105201Y352837D01*
X105183Y352877D01*
X105167Y352919D01*
X105155Y352962D01*
X105147Y353005D01*
X105142Y353050D01*
X105140Y353094D01*
X105528Y353638D02*
X105614Y353678D01*
X105702Y353714D01*
X105791Y353747D01*
X105881Y353776D01*
X105973Y353801D01*
X106066Y353822D01*
X106159Y353840D01*
X106253Y353853D01*
X106347Y353863D01*
X106442Y353869D01*
X106537Y353871D01*
X105528Y353637D02*
X105486Y353621D01*
X105446Y353602D01*
X105408Y353579D01*
X105371Y353554D01*
X105336Y353526D01*
X105304Y353496D01*
X105274Y353463D01*
X105247Y353428D01*
X105222Y353390D01*
X105201Y353351D01*
X105183Y353311D01*
X105167Y353269D01*
X105155Y353226D01*
X105147Y353183D01*
X105142Y353138D01*
X105140Y353094D01*
X105761Y352474D02*
X107313Y353715D01*
X105761Y355062D02*
X107934Y355682D01*
X105761Y355062D02*
X105761Y356614D01*
X106382Y356148D02*
X105140Y356148D01*
D10*
X62220Y314596D02*
X29220Y314596D01*
X29220Y332596D01*
X62220Y332596D01*
X62220Y314596D01*
X51344Y321996D02*
X50102Y321996D01*
X51344Y321996D02*
X51414Y321998D01*
X51483Y322004D01*
X51552Y322014D01*
X51620Y322027D01*
X51688Y322045D01*
X51754Y322066D01*
X51819Y322091D01*
X51883Y322119D01*
X51945Y322151D01*
X52005Y322186D01*
X52063Y322225D01*
X52118Y322267D01*
X52172Y322312D01*
X52222Y322360D01*
X52270Y322410D01*
X52315Y322464D01*
X52357Y322519D01*
X52396Y322577D01*
X52431Y322637D01*
X52463Y322699D01*
X52491Y322763D01*
X52516Y322828D01*
X52537Y322894D01*
X52555Y322962D01*
X52568Y323030D01*
X52578Y323099D01*
X52584Y323168D01*
X52586Y323238D01*
X52586Y326342D01*
X52584Y326412D01*
X52578Y326481D01*
X52568Y326550D01*
X52555Y326618D01*
X52537Y326686D01*
X52516Y326752D01*
X52491Y326817D01*
X52463Y326881D01*
X52431Y326943D01*
X52396Y327003D01*
X52357Y327061D01*
X52315Y327116D01*
X52270Y327170D01*
X52222Y327220D01*
X52172Y327268D01*
X52118Y327313D01*
X52063Y327355D01*
X52005Y327394D01*
X51945Y327429D01*
X51883Y327461D01*
X51819Y327489D01*
X51754Y327514D01*
X51688Y327535D01*
X51620Y327553D01*
X51552Y327566D01*
X51483Y327576D01*
X51414Y327582D01*
X51344Y327584D01*
X50102Y327584D01*
X46290Y327584D02*
X46217Y327582D01*
X46144Y327576D01*
X46071Y327567D01*
X46000Y327553D01*
X45928Y327536D01*
X45858Y327516D01*
X45789Y327491D01*
X45722Y327463D01*
X45656Y327432D01*
X45592Y327397D01*
X45529Y327359D01*
X45469Y327317D01*
X45411Y327273D01*
X45355Y327225D01*
X45302Y327175D01*
X45252Y327122D01*
X45204Y327066D01*
X45160Y327008D01*
X45118Y326948D01*
X45080Y326886D01*
X45045Y326821D01*
X45014Y326755D01*
X44986Y326688D01*
X44961Y326619D01*
X44941Y326549D01*
X44924Y326477D01*
X44910Y326406D01*
X44901Y326333D01*
X44895Y326260D01*
X44893Y326187D01*
X46290Y327584D02*
X46374Y327582D01*
X46457Y327576D01*
X46540Y327567D01*
X46622Y327553D01*
X46704Y327536D01*
X46785Y327514D01*
X46865Y327489D01*
X46943Y327461D01*
X47021Y327429D01*
X47096Y327393D01*
X47170Y327354D01*
X47242Y327311D01*
X47312Y327265D01*
X47379Y327216D01*
X47445Y327163D01*
X47507Y327108D01*
X47567Y327050D01*
X47625Y326989D01*
X47679Y326926D01*
X47731Y326860D01*
X47779Y326792D01*
X47824Y326721D01*
X47866Y326649D01*
X47904Y326574D01*
X47939Y326498D01*
X47970Y326421D01*
X47998Y326342D01*
X45360Y325101D02*
X45306Y325154D01*
X45255Y325211D01*
X45207Y325270D01*
X45162Y325331D01*
X45121Y325394D01*
X45082Y325460D01*
X45047Y325527D01*
X45015Y325596D01*
X44987Y325667D01*
X44963Y325738D01*
X44942Y325811D01*
X44925Y325885D01*
X44911Y325960D01*
X44902Y326035D01*
X44896Y326111D01*
X44894Y326187D01*
X45359Y325100D02*
X47998Y321996D01*
X44893Y321996D01*
X42511Y324790D02*
X42509Y324921D01*
X42504Y325051D01*
X42494Y325181D01*
X42481Y325311D01*
X42465Y325441D01*
X42445Y325570D01*
X42421Y325698D01*
X42393Y325825D01*
X42362Y325952D01*
X42327Y326078D01*
X42289Y326203D01*
X42247Y326327D01*
X42202Y326449D01*
X42153Y326570D01*
X42101Y326690D01*
X42045Y326808D01*
X42046Y326808D02*
X42023Y326868D01*
X41997Y326928D01*
X41968Y326985D01*
X41935Y327041D01*
X41899Y327095D01*
X41861Y327147D01*
X41819Y327197D01*
X41775Y327244D01*
X41728Y327289D01*
X41678Y327331D01*
X41627Y327370D01*
X41573Y327406D01*
X41517Y327439D01*
X41460Y327469D01*
X41401Y327496D01*
X41340Y327519D01*
X41279Y327539D01*
X41216Y327555D01*
X41152Y327568D01*
X41088Y327577D01*
X41024Y327582D01*
X40959Y327584D01*
X40894Y327582D01*
X40830Y327577D01*
X40766Y327568D01*
X40702Y327555D01*
X40639Y327539D01*
X40578Y327519D01*
X40517Y327496D01*
X40458Y327469D01*
X40401Y327439D01*
X40345Y327406D01*
X40291Y327370D01*
X40240Y327331D01*
X40190Y327289D01*
X40143Y327244D01*
X40099Y327197D01*
X40057Y327147D01*
X40019Y327095D01*
X39983Y327041D01*
X39950Y326985D01*
X39921Y326928D01*
X39895Y326868D01*
X39872Y326808D01*
X39873Y326808D02*
X39817Y326690D01*
X39765Y326570D01*
X39716Y326449D01*
X39671Y326327D01*
X39629Y326203D01*
X39591Y326078D01*
X39556Y325952D01*
X39525Y325826D01*
X39497Y325698D01*
X39473Y325570D01*
X39453Y325441D01*
X39437Y325311D01*
X39424Y325181D01*
X39414Y325051D01*
X39409Y324921D01*
X39407Y324790D01*
X42511Y324790D02*
X42509Y324659D01*
X42504Y324529D01*
X42494Y324399D01*
X42481Y324269D01*
X42465Y324139D01*
X42445Y324011D01*
X42421Y323882D01*
X42393Y323755D01*
X42362Y323628D01*
X42327Y323502D01*
X42289Y323377D01*
X42247Y323254D01*
X42202Y323131D01*
X42153Y323010D01*
X42101Y322890D01*
X42045Y322772D01*
X42046Y322772D02*
X42023Y322712D01*
X41997Y322652D01*
X41968Y322595D01*
X41935Y322539D01*
X41899Y322485D01*
X41861Y322433D01*
X41819Y322383D01*
X41775Y322336D01*
X41728Y322291D01*
X41678Y322249D01*
X41627Y322210D01*
X41573Y322174D01*
X41517Y322141D01*
X41460Y322111D01*
X41401Y322084D01*
X41340Y322061D01*
X41279Y322041D01*
X41216Y322025D01*
X41152Y322012D01*
X41088Y322003D01*
X41024Y321998D01*
X40959Y321996D01*
X39873Y322772D02*
X39817Y322890D01*
X39765Y323010D01*
X39716Y323131D01*
X39671Y323253D01*
X39629Y323377D01*
X39591Y323502D01*
X39556Y323628D01*
X39525Y323754D01*
X39497Y323882D01*
X39473Y324010D01*
X39453Y324139D01*
X39437Y324269D01*
X39424Y324399D01*
X39414Y324529D01*
X39409Y324659D01*
X39407Y324790D01*
X39872Y322772D02*
X39895Y322712D01*
X39921Y322652D01*
X39950Y322595D01*
X39983Y322539D01*
X40019Y322485D01*
X40057Y322433D01*
X40099Y322383D01*
X40143Y322336D01*
X40190Y322291D01*
X40240Y322249D01*
X40291Y322210D01*
X40345Y322174D01*
X40401Y322141D01*
X40458Y322111D01*
X40517Y322084D01*
X40578Y322061D01*
X40639Y322041D01*
X40702Y322025D01*
X40766Y322012D01*
X40830Y322003D01*
X40894Y321998D01*
X40959Y321996D01*
X42201Y323238D02*
X39717Y326342D01*
X37025Y321996D02*
X35162Y321996D01*
X35092Y321998D01*
X35023Y322004D01*
X34954Y322014D01*
X34886Y322027D01*
X34818Y322045D01*
X34752Y322066D01*
X34687Y322091D01*
X34623Y322119D01*
X34561Y322151D01*
X34501Y322186D01*
X34443Y322225D01*
X34388Y322267D01*
X34334Y322312D01*
X34284Y322360D01*
X34236Y322410D01*
X34191Y322464D01*
X34149Y322519D01*
X34110Y322577D01*
X34075Y322637D01*
X34043Y322699D01*
X34015Y322763D01*
X33990Y322828D01*
X33969Y322894D01*
X33951Y322962D01*
X33938Y323030D01*
X33928Y323099D01*
X33922Y323168D01*
X33920Y323238D01*
X33921Y323238D02*
X33921Y323859D01*
X33920Y323859D02*
X33922Y323929D01*
X33928Y323998D01*
X33938Y324067D01*
X33951Y324135D01*
X33969Y324203D01*
X33990Y324269D01*
X34015Y324334D01*
X34043Y324398D01*
X34075Y324460D01*
X34110Y324520D01*
X34149Y324578D01*
X34191Y324633D01*
X34236Y324687D01*
X34284Y324737D01*
X34334Y324785D01*
X34388Y324830D01*
X34443Y324872D01*
X34501Y324911D01*
X34561Y324946D01*
X34623Y324978D01*
X34687Y325006D01*
X34752Y325031D01*
X34818Y325052D01*
X34886Y325070D01*
X34954Y325083D01*
X35023Y325093D01*
X35092Y325099D01*
X35162Y325101D01*
X35162Y325100D02*
X37025Y325100D01*
X37025Y327584D01*
X33921Y327584D01*
D13*
X152900Y404400D02*
X278900Y404400D01*
X278900Y433800D01*
X152900Y433800D01*
X152900Y404400D01*
D14*
X162200Y438100D02*
X162202Y438152D01*
X162208Y438204D01*
X162218Y438256D01*
X162231Y438306D01*
X162248Y438356D01*
X162269Y438404D01*
X162294Y438450D01*
X162322Y438494D01*
X162353Y438536D01*
X162387Y438576D01*
X162424Y438613D01*
X162464Y438647D01*
X162506Y438678D01*
X162550Y438706D01*
X162596Y438731D01*
X162644Y438752D01*
X162694Y438769D01*
X162744Y438782D01*
X162796Y438792D01*
X162848Y438798D01*
X162900Y438800D01*
X162952Y438798D01*
X163004Y438792D01*
X163056Y438782D01*
X163106Y438769D01*
X163156Y438752D01*
X163204Y438731D01*
X163250Y438706D01*
X163294Y438678D01*
X163336Y438647D01*
X163376Y438613D01*
X163413Y438576D01*
X163447Y438536D01*
X163478Y438494D01*
X163506Y438450D01*
X163531Y438404D01*
X163552Y438356D01*
X163569Y438306D01*
X163582Y438256D01*
X163592Y438204D01*
X163598Y438152D01*
X163600Y438100D01*
X163598Y438048D01*
X163592Y437996D01*
X163582Y437944D01*
X163569Y437894D01*
X163552Y437844D01*
X163531Y437796D01*
X163506Y437750D01*
X163478Y437706D01*
X163447Y437664D01*
X163413Y437624D01*
X163376Y437587D01*
X163336Y437553D01*
X163294Y437522D01*
X163250Y437494D01*
X163204Y437469D01*
X163156Y437448D01*
X163106Y437431D01*
X163056Y437418D01*
X163004Y437408D01*
X162952Y437402D01*
X162900Y437400D01*
X162848Y437402D01*
X162796Y437408D01*
X162744Y437418D01*
X162694Y437431D01*
X162644Y437448D01*
X162596Y437469D01*
X162550Y437494D01*
X162506Y437522D01*
X162464Y437553D01*
X162424Y437587D01*
X162387Y437624D01*
X162353Y437664D01*
X162322Y437706D01*
X162294Y437750D01*
X162269Y437796D01*
X162248Y437844D01*
X162231Y437894D01*
X162218Y437944D01*
X162208Y437996D01*
X162202Y438048D01*
X162200Y438100D01*
D10*
X227599Y423171D02*
X227599Y418807D01*
X227601Y418737D01*
X227607Y418667D01*
X227617Y418598D01*
X227630Y418530D01*
X227648Y418462D01*
X227669Y418395D01*
X227694Y418330D01*
X227722Y418266D01*
X227755Y418204D01*
X227790Y418144D01*
X227829Y418085D01*
X227871Y418030D01*
X227916Y417976D01*
X227964Y417925D01*
X228015Y417877D01*
X228069Y417832D01*
X228124Y417790D01*
X228183Y417751D01*
X228243Y417716D01*
X228305Y417683D01*
X228369Y417655D01*
X228434Y417630D01*
X228501Y417609D01*
X228569Y417591D01*
X228637Y417578D01*
X228706Y417568D01*
X228776Y417562D01*
X228846Y417560D01*
X228846Y417561D02*
X229469Y417561D01*
X225049Y417561D02*
X223491Y417561D01*
X223413Y417563D01*
X223336Y417569D01*
X223259Y417578D01*
X223182Y417592D01*
X223107Y417609D01*
X223032Y417630D01*
X222958Y417655D01*
X222886Y417683D01*
X222815Y417715D01*
X222746Y417751D01*
X222679Y417790D01*
X222613Y417832D01*
X222550Y417877D01*
X222490Y417926D01*
X222431Y417977D01*
X222376Y418031D01*
X222323Y418088D01*
X222273Y418148D01*
X222226Y418210D01*
X222182Y418274D01*
X222142Y418340D01*
X222105Y418408D01*
X222071Y418478D01*
X222041Y418550D01*
X222014Y418623D01*
X221991Y418697D01*
X221972Y418772D01*
X221957Y418848D01*
X221945Y418925D01*
X221937Y419003D01*
X221933Y419080D01*
X221933Y419158D01*
X221937Y419235D01*
X221945Y419313D01*
X221957Y419390D01*
X221972Y419466D01*
X221991Y419541D01*
X222014Y419615D01*
X222041Y419688D01*
X222071Y419760D01*
X222105Y419830D01*
X222142Y419898D01*
X222182Y419964D01*
X222226Y420028D01*
X222273Y420090D01*
X222323Y420150D01*
X222376Y420207D01*
X222431Y420261D01*
X222490Y420312D01*
X222550Y420361D01*
X222613Y420406D01*
X222679Y420448D01*
X222746Y420487D01*
X222815Y420523D01*
X222886Y420555D01*
X222958Y420583D01*
X223032Y420608D01*
X223107Y420629D01*
X223182Y420646D01*
X223259Y420660D01*
X223336Y420669D01*
X223413Y420675D01*
X223491Y420677D01*
X223179Y423171D02*
X225049Y423171D01*
X223179Y423171D02*
X223109Y423169D01*
X223039Y423163D01*
X222970Y423153D01*
X222902Y423140D01*
X222834Y423122D01*
X222767Y423101D01*
X222702Y423076D01*
X222638Y423048D01*
X222576Y423015D01*
X222516Y422980D01*
X222457Y422941D01*
X222402Y422899D01*
X222348Y422854D01*
X222297Y422806D01*
X222249Y422755D01*
X222204Y422701D01*
X222162Y422646D01*
X222123Y422587D01*
X222088Y422527D01*
X222055Y422465D01*
X222027Y422401D01*
X222002Y422336D01*
X221981Y422269D01*
X221963Y422201D01*
X221950Y422133D01*
X221940Y422064D01*
X221934Y421994D01*
X221932Y421924D01*
X221934Y421854D01*
X221940Y421784D01*
X221950Y421715D01*
X221963Y421647D01*
X221981Y421579D01*
X222002Y421512D01*
X222027Y421447D01*
X222055Y421383D01*
X222088Y421321D01*
X222123Y421261D01*
X222162Y421202D01*
X222204Y421147D01*
X222249Y421093D01*
X222297Y421042D01*
X222348Y420994D01*
X222402Y420949D01*
X222457Y420907D01*
X222516Y420868D01*
X222576Y420833D01*
X222638Y420800D01*
X222702Y420772D01*
X222767Y420747D01*
X222834Y420726D01*
X222902Y420708D01*
X222970Y420695D01*
X223039Y420685D01*
X223109Y420679D01*
X223179Y420677D01*
X224426Y420677D01*
X219543Y420366D02*
X219541Y420497D01*
X219536Y420628D01*
X219526Y420759D01*
X219513Y420889D01*
X219497Y421019D01*
X219476Y421149D01*
X219452Y421277D01*
X219425Y421405D01*
X219393Y421533D01*
X219358Y421659D01*
X219320Y421784D01*
X219278Y421909D01*
X219233Y422031D01*
X219184Y422153D01*
X219131Y422273D01*
X219076Y422392D01*
X219053Y422453D01*
X219027Y422512D01*
X218997Y422570D01*
X218964Y422626D01*
X218929Y422681D01*
X218890Y422733D01*
X218848Y422783D01*
X218804Y422830D01*
X218756Y422875D01*
X218707Y422917D01*
X218655Y422956D01*
X218601Y422993D01*
X218545Y423026D01*
X218488Y423056D01*
X218428Y423082D01*
X218368Y423106D01*
X218306Y423125D01*
X218243Y423142D01*
X218179Y423155D01*
X218115Y423164D01*
X218050Y423169D01*
X217985Y423171D01*
X217920Y423169D01*
X217855Y423164D01*
X217791Y423155D01*
X217727Y423142D01*
X217664Y423125D01*
X217602Y423106D01*
X217542Y423082D01*
X217482Y423056D01*
X217425Y423026D01*
X217369Y422993D01*
X217315Y422956D01*
X217263Y422917D01*
X217214Y422875D01*
X217166Y422830D01*
X217122Y422783D01*
X217080Y422733D01*
X217041Y422681D01*
X217006Y422626D01*
X216973Y422570D01*
X216943Y422512D01*
X216917Y422453D01*
X216894Y422392D01*
X216838Y422273D01*
X216785Y422153D01*
X216736Y422032D01*
X216691Y421909D01*
X216649Y421784D01*
X216611Y421659D01*
X216576Y421533D01*
X216544Y421406D01*
X216517Y421277D01*
X216493Y421149D01*
X216472Y421019D01*
X216456Y420889D01*
X216443Y420759D01*
X216433Y420628D01*
X216428Y420497D01*
X216426Y420366D01*
X219543Y420366D02*
X219541Y420235D01*
X219536Y420104D01*
X219526Y419973D01*
X219513Y419843D01*
X219497Y419713D01*
X219476Y419583D01*
X219452Y419455D01*
X219425Y419327D01*
X219393Y419199D01*
X219358Y419073D01*
X219320Y418948D01*
X219278Y418824D01*
X219233Y418701D01*
X219184Y418579D01*
X219131Y418459D01*
X219076Y418340D01*
X219053Y418279D01*
X219027Y418220D01*
X218997Y418162D01*
X218964Y418106D01*
X218929Y418051D01*
X218890Y417999D01*
X218848Y417949D01*
X218804Y417902D01*
X218756Y417857D01*
X218707Y417815D01*
X218655Y417776D01*
X218601Y417739D01*
X218545Y417706D01*
X218488Y417676D01*
X218428Y417650D01*
X218368Y417626D01*
X218306Y417607D01*
X218243Y417590D01*
X218179Y417577D01*
X218115Y417568D01*
X218050Y417563D01*
X217985Y417561D01*
X216895Y418340D02*
X216839Y418459D01*
X216786Y418579D01*
X216737Y418700D01*
X216692Y418823D01*
X216650Y418948D01*
X216612Y419073D01*
X216577Y419199D01*
X216545Y419326D01*
X216518Y419455D01*
X216494Y419583D01*
X216473Y419713D01*
X216457Y419843D01*
X216444Y419973D01*
X216434Y420104D01*
X216429Y420235D01*
X216427Y420366D01*
X216894Y418340D02*
X216917Y418279D01*
X216943Y418220D01*
X216973Y418162D01*
X217006Y418106D01*
X217041Y418051D01*
X217080Y417999D01*
X217122Y417949D01*
X217166Y417902D01*
X217214Y417857D01*
X217263Y417815D01*
X217315Y417776D01*
X217369Y417739D01*
X217425Y417706D01*
X217482Y417676D01*
X217542Y417650D01*
X217602Y417626D01*
X217664Y417607D01*
X217727Y417590D01*
X217791Y417577D01*
X217855Y417568D01*
X217920Y417563D01*
X217985Y417561D01*
X219232Y418807D02*
X216738Y421924D01*
X212323Y423170D02*
X212250Y423168D01*
X212176Y423162D01*
X212104Y423153D01*
X212032Y423139D01*
X211960Y423122D01*
X211890Y423101D01*
X211821Y423077D01*
X211753Y423049D01*
X211687Y423017D01*
X211622Y422982D01*
X211559Y422944D01*
X211499Y422902D01*
X211441Y422858D01*
X211385Y422810D01*
X211332Y422759D01*
X211281Y422706D01*
X211233Y422650D01*
X211189Y422592D01*
X211147Y422532D01*
X211109Y422469D01*
X211074Y422405D01*
X211042Y422338D01*
X211014Y422270D01*
X210990Y422201D01*
X210969Y422131D01*
X210952Y422059D01*
X210938Y421987D01*
X210929Y421915D01*
X210923Y421841D01*
X210921Y421768D01*
X212323Y423171D02*
X212407Y423169D01*
X212491Y423163D01*
X212574Y423153D01*
X212657Y423140D01*
X212739Y423122D01*
X212820Y423101D01*
X212900Y423076D01*
X212979Y423047D01*
X213056Y423015D01*
X213132Y422979D01*
X213206Y422940D01*
X213279Y422897D01*
X213349Y422851D01*
X213417Y422801D01*
X213482Y422749D01*
X213545Y422693D01*
X213605Y422635D01*
X213663Y422574D01*
X213718Y422510D01*
X213769Y422444D01*
X213818Y422376D01*
X213863Y422305D01*
X213905Y422232D01*
X213943Y422158D01*
X213978Y422081D01*
X214010Y422003D01*
X214037Y421924D01*
X211388Y420677D02*
X211335Y420731D01*
X211284Y420788D01*
X211235Y420847D01*
X211190Y420909D01*
X211148Y420972D01*
X211110Y421038D01*
X211075Y421105D01*
X211043Y421175D01*
X211015Y421246D01*
X210990Y421318D01*
X210969Y421391D01*
X210952Y421465D01*
X210938Y421540D01*
X210929Y421616D01*
X210923Y421692D01*
X210921Y421768D01*
X211388Y420677D02*
X214037Y417561D01*
X210921Y417561D01*
D13*
X105918Y274828D02*
X65278Y274828D01*
X105918Y274828D02*
X105918Y315468D01*
X65278Y315468D02*
X65278Y274828D01*
X65278Y315468D02*
X105918Y315468D01*
X60198Y307848D02*
X60198Y282448D01*
D10*
X98594Y292630D02*
X98594Y297122D01*
X98594Y292630D02*
X96598Y292630D01*
X92359Y295999D02*
X92361Y296064D01*
X92367Y296129D01*
X92376Y296194D01*
X92389Y296258D01*
X92406Y296321D01*
X92427Y296383D01*
X92451Y296444D01*
X92478Y296503D01*
X92509Y296561D01*
X92544Y296616D01*
X92581Y296670D01*
X92622Y296721D01*
X92665Y296770D01*
X92711Y296816D01*
X92760Y296859D01*
X92811Y296900D01*
X92865Y296937D01*
X92921Y296972D01*
X92978Y297003D01*
X93037Y297030D01*
X93098Y297054D01*
X93160Y297075D01*
X93223Y297092D01*
X93287Y297105D01*
X93352Y297114D01*
X93417Y297120D01*
X93482Y297122D01*
X93555Y297120D01*
X93627Y297115D01*
X93699Y297106D01*
X93770Y297093D01*
X93841Y297077D01*
X93911Y297057D01*
X93980Y297033D01*
X94047Y297007D01*
X94113Y296977D01*
X94178Y296943D01*
X94240Y296907D01*
X94301Y296867D01*
X94360Y296824D01*
X94416Y296779D01*
X94470Y296730D01*
X94522Y296679D01*
X94571Y296626D01*
X94617Y296570D01*
X94661Y296512D01*
X94701Y296451D01*
X94738Y296389D01*
X94772Y296325D01*
X94803Y296259D01*
X94831Y296192D01*
X94855Y296124D01*
X92733Y295126D02*
X92687Y295172D01*
X92644Y295220D01*
X92603Y295271D01*
X92565Y295324D01*
X92530Y295379D01*
X92499Y295436D01*
X92470Y295494D01*
X92444Y295554D01*
X92422Y295615D01*
X92403Y295677D01*
X92387Y295741D01*
X92375Y295805D01*
X92366Y295869D01*
X92361Y295934D01*
X92359Y295999D01*
X92733Y295126D02*
X94854Y292630D01*
X92359Y292630D01*
X90354Y294876D02*
X90352Y294996D01*
X90346Y295116D01*
X90337Y295235D01*
X90323Y295354D01*
X90306Y295473D01*
X90284Y295591D01*
X90259Y295708D01*
X90230Y295825D01*
X90198Y295940D01*
X90161Y296055D01*
X90121Y296168D01*
X90078Y296279D01*
X90030Y296390D01*
X89980Y296498D01*
X89979Y296498D02*
X89958Y296555D01*
X89933Y296609D01*
X89904Y296663D01*
X89872Y296714D01*
X89837Y296763D01*
X89799Y296809D01*
X89757Y296853D01*
X89713Y296894D01*
X89667Y296932D01*
X89618Y296967D01*
X89566Y296999D01*
X89513Y297027D01*
X89458Y297052D01*
X89402Y297073D01*
X89344Y297091D01*
X89286Y297104D01*
X89226Y297114D01*
X89166Y297120D01*
X89106Y297122D01*
X89046Y297120D01*
X88986Y297114D01*
X88926Y297104D01*
X88868Y297091D01*
X88810Y297073D01*
X88754Y297052D01*
X88699Y297027D01*
X88646Y296999D01*
X88594Y296967D01*
X88545Y296932D01*
X88499Y296894D01*
X88455Y296853D01*
X88413Y296809D01*
X88375Y296763D01*
X88340Y296714D01*
X88308Y296663D01*
X88279Y296610D01*
X88254Y296555D01*
X88233Y296498D01*
X88232Y296498D02*
X88182Y296390D01*
X88134Y296279D01*
X88091Y296168D01*
X88051Y296055D01*
X88014Y295940D01*
X87982Y295825D01*
X87953Y295708D01*
X87928Y295591D01*
X87906Y295473D01*
X87889Y295354D01*
X87875Y295235D01*
X87866Y295116D01*
X87860Y294996D01*
X87858Y294876D01*
X90354Y294876D02*
X90352Y294756D01*
X90346Y294636D01*
X90337Y294517D01*
X90323Y294398D01*
X90306Y294279D01*
X90284Y294161D01*
X90259Y294044D01*
X90230Y293927D01*
X90198Y293812D01*
X90161Y293698D01*
X90121Y293584D01*
X90078Y293473D01*
X90030Y293363D01*
X89980Y293254D01*
X89979Y293254D02*
X89958Y293197D01*
X89933Y293143D01*
X89904Y293089D01*
X89872Y293038D01*
X89837Y292989D01*
X89799Y292943D01*
X89757Y292899D01*
X89713Y292858D01*
X89667Y292820D01*
X89618Y292785D01*
X89566Y292753D01*
X89513Y292725D01*
X89458Y292700D01*
X89402Y292679D01*
X89344Y292661D01*
X89286Y292648D01*
X89226Y292638D01*
X89166Y292632D01*
X89106Y292630D01*
X88233Y293254D02*
X88183Y293363D01*
X88135Y293473D01*
X88092Y293584D01*
X88052Y293698D01*
X88015Y293812D01*
X87983Y293927D01*
X87954Y294044D01*
X87929Y294161D01*
X87907Y294279D01*
X87890Y294398D01*
X87876Y294517D01*
X87867Y294636D01*
X87861Y294756D01*
X87859Y294876D01*
X88233Y293254D02*
X88254Y293197D01*
X88279Y293142D01*
X88308Y293089D01*
X88340Y293038D01*
X88375Y292989D01*
X88413Y292943D01*
X88455Y292899D01*
X88499Y292858D01*
X88545Y292820D01*
X88594Y292785D01*
X88646Y292753D01*
X88699Y292725D01*
X88754Y292700D01*
X88810Y292679D01*
X88868Y292661D01*
X88926Y292648D01*
X88986Y292638D01*
X89046Y292632D01*
X89106Y292630D01*
X90105Y293628D02*
X88108Y296124D01*
X85854Y296124D02*
X84606Y297122D01*
X84606Y292630D01*
X83359Y292630D02*
X85854Y292630D01*
D11*
X38244Y103814D02*
X38244Y94814D01*
X56244Y94814D01*
X56244Y103814D01*
X38244Y103814D01*
D12*
X50467Y100600D02*
X50467Y97806D01*
X50467Y100600D02*
X49691Y100600D01*
X49636Y100598D01*
X49581Y100592D01*
X49526Y100582D01*
X49472Y100569D01*
X49420Y100551D01*
X49369Y100530D01*
X49319Y100505D01*
X49271Y100477D01*
X49226Y100445D01*
X49183Y100410D01*
X49142Y100373D01*
X49105Y100332D01*
X49070Y100289D01*
X49038Y100244D01*
X49010Y100196D01*
X48985Y100146D01*
X48964Y100095D01*
X48946Y100043D01*
X48933Y99989D01*
X48923Y99934D01*
X48917Y99879D01*
X48915Y99824D01*
X48917Y99769D01*
X48923Y99714D01*
X48933Y99659D01*
X48946Y99605D01*
X48964Y99553D01*
X48985Y99502D01*
X49010Y99452D01*
X49038Y99404D01*
X49070Y99359D01*
X49105Y99316D01*
X49142Y99275D01*
X49183Y99238D01*
X49226Y99203D01*
X49271Y99171D01*
X49319Y99143D01*
X49369Y99118D01*
X49420Y99097D01*
X49472Y99079D01*
X49526Y99066D01*
X49581Y99056D01*
X49636Y99050D01*
X49691Y99048D01*
X50467Y99048D01*
X49536Y99048D02*
X48915Y97806D01*
X47742Y99979D02*
X46966Y100600D01*
X46966Y97806D01*
X47742Y97806D02*
X46189Y97806D01*
X44999Y99203D02*
X44997Y99298D01*
X44991Y99393D01*
X44981Y99487D01*
X44968Y99581D01*
X44950Y99674D01*
X44929Y99767D01*
X44904Y99859D01*
X44875Y99949D01*
X44842Y100038D01*
X44806Y100126D01*
X44766Y100212D01*
X44765Y100212D02*
X44749Y100254D01*
X44730Y100294D01*
X44707Y100332D01*
X44682Y100369D01*
X44654Y100404D01*
X44624Y100436D01*
X44591Y100466D01*
X44556Y100493D01*
X44518Y100518D01*
X44479Y100539D01*
X44439Y100557D01*
X44397Y100573D01*
X44354Y100585D01*
X44311Y100593D01*
X44266Y100598D01*
X44222Y100600D01*
X44178Y100598D01*
X44133Y100593D01*
X44090Y100585D01*
X44047Y100573D01*
X44005Y100557D01*
X43965Y100539D01*
X43926Y100518D01*
X43888Y100493D01*
X43853Y100466D01*
X43820Y100436D01*
X43790Y100404D01*
X43762Y100369D01*
X43737Y100332D01*
X43714Y100294D01*
X43695Y100254D01*
X43679Y100212D01*
X43680Y100212D02*
X43640Y100126D01*
X43604Y100038D01*
X43571Y99949D01*
X43542Y99858D01*
X43517Y99767D01*
X43496Y99674D01*
X43478Y99581D01*
X43465Y99487D01*
X43455Y99393D01*
X43449Y99298D01*
X43447Y99203D01*
X44999Y99203D02*
X44997Y99108D01*
X44991Y99013D01*
X44981Y98919D01*
X44968Y98825D01*
X44950Y98732D01*
X44929Y98639D01*
X44904Y98548D01*
X44875Y98457D01*
X44842Y98368D01*
X44806Y98280D01*
X44766Y98194D01*
X44765Y98194D02*
X44749Y98152D01*
X44730Y98112D01*
X44707Y98074D01*
X44682Y98037D01*
X44654Y98002D01*
X44624Y97970D01*
X44591Y97940D01*
X44556Y97913D01*
X44518Y97888D01*
X44479Y97867D01*
X44439Y97849D01*
X44397Y97833D01*
X44354Y97821D01*
X44311Y97813D01*
X44266Y97808D01*
X44222Y97806D01*
X43679Y98194D02*
X43639Y98280D01*
X43603Y98368D01*
X43570Y98457D01*
X43541Y98547D01*
X43516Y98639D01*
X43495Y98732D01*
X43477Y98825D01*
X43464Y98919D01*
X43454Y99013D01*
X43448Y99108D01*
X43446Y99203D01*
X43679Y98194D02*
X43695Y98152D01*
X43714Y98112D01*
X43737Y98074D01*
X43762Y98037D01*
X43790Y98002D01*
X43820Y97970D01*
X43853Y97940D01*
X43888Y97913D01*
X43926Y97888D01*
X43965Y97867D01*
X44005Y97849D01*
X44047Y97833D01*
X44090Y97821D01*
X44133Y97813D01*
X44178Y97808D01*
X44222Y97806D01*
X44843Y98427D02*
X43601Y99979D01*
X42255Y99979D02*
X41479Y100600D01*
X41479Y97806D01*
X42255Y97806D02*
X40703Y97806D01*
D11*
X25510Y105990D02*
X25510Y114990D01*
X7510Y114990D01*
X7510Y105990D01*
X25510Y105990D01*
D12*
X23051Y109204D02*
X23051Y111998D01*
X22275Y111998D01*
X22220Y111996D01*
X22165Y111990D01*
X22110Y111980D01*
X22056Y111967D01*
X22004Y111949D01*
X21953Y111928D01*
X21903Y111903D01*
X21855Y111875D01*
X21810Y111843D01*
X21767Y111808D01*
X21726Y111771D01*
X21689Y111730D01*
X21654Y111687D01*
X21622Y111642D01*
X21594Y111594D01*
X21569Y111544D01*
X21548Y111493D01*
X21530Y111441D01*
X21517Y111387D01*
X21507Y111332D01*
X21501Y111277D01*
X21499Y111222D01*
X21501Y111167D01*
X21507Y111112D01*
X21517Y111057D01*
X21530Y111003D01*
X21548Y110951D01*
X21569Y110900D01*
X21594Y110850D01*
X21622Y110802D01*
X21654Y110757D01*
X21689Y110714D01*
X21726Y110673D01*
X21767Y110636D01*
X21810Y110601D01*
X21855Y110569D01*
X21903Y110541D01*
X21953Y110516D01*
X22004Y110495D01*
X22056Y110477D01*
X22110Y110464D01*
X22165Y110454D01*
X22220Y110448D01*
X22275Y110446D01*
X23051Y110446D01*
X22120Y110446D02*
X21499Y109204D01*
X20326Y111377D02*
X19550Y111998D01*
X19550Y109204D01*
X20326Y109204D02*
X18774Y109204D01*
X17583Y110601D02*
X17581Y110696D01*
X17575Y110791D01*
X17565Y110885D01*
X17552Y110979D01*
X17534Y111072D01*
X17513Y111165D01*
X17488Y111257D01*
X17459Y111347D01*
X17426Y111436D01*
X17390Y111524D01*
X17350Y111610D01*
X17334Y111652D01*
X17315Y111692D01*
X17292Y111730D01*
X17267Y111767D01*
X17239Y111802D01*
X17209Y111834D01*
X17176Y111864D01*
X17141Y111891D01*
X17103Y111916D01*
X17064Y111937D01*
X17024Y111955D01*
X16982Y111971D01*
X16939Y111983D01*
X16896Y111991D01*
X16851Y111996D01*
X16807Y111998D01*
X16763Y111996D01*
X16718Y111991D01*
X16675Y111983D01*
X16632Y111971D01*
X16590Y111955D01*
X16550Y111937D01*
X16511Y111916D01*
X16473Y111891D01*
X16438Y111864D01*
X16405Y111834D01*
X16375Y111802D01*
X16347Y111767D01*
X16322Y111730D01*
X16299Y111692D01*
X16280Y111652D01*
X16264Y111610D01*
X16224Y111524D01*
X16188Y111436D01*
X16155Y111347D01*
X16126Y111256D01*
X16101Y111165D01*
X16080Y111072D01*
X16062Y110979D01*
X16049Y110885D01*
X16039Y110791D01*
X16033Y110696D01*
X16031Y110601D01*
X17583Y110601D02*
X17581Y110506D01*
X17575Y110411D01*
X17565Y110317D01*
X17552Y110223D01*
X17534Y110130D01*
X17513Y110037D01*
X17488Y109946D01*
X17459Y109855D01*
X17426Y109766D01*
X17390Y109678D01*
X17350Y109592D01*
X17334Y109550D01*
X17315Y109510D01*
X17292Y109472D01*
X17267Y109435D01*
X17239Y109400D01*
X17209Y109368D01*
X17176Y109338D01*
X17141Y109311D01*
X17103Y109286D01*
X17064Y109265D01*
X17024Y109247D01*
X16982Y109231D01*
X16939Y109219D01*
X16896Y109211D01*
X16851Y109206D01*
X16807Y109204D01*
X16263Y109592D02*
X16223Y109678D01*
X16187Y109766D01*
X16154Y109855D01*
X16125Y109945D01*
X16100Y110037D01*
X16079Y110130D01*
X16061Y110223D01*
X16048Y110317D01*
X16038Y110411D01*
X16032Y110506D01*
X16030Y110601D01*
X16264Y109592D02*
X16280Y109550D01*
X16299Y109510D01*
X16322Y109472D01*
X16347Y109435D01*
X16375Y109400D01*
X16405Y109368D01*
X16438Y109338D01*
X16473Y109311D01*
X16511Y109286D01*
X16550Y109265D01*
X16590Y109247D01*
X16632Y109231D01*
X16675Y109219D01*
X16718Y109211D01*
X16763Y109206D01*
X16807Y109204D01*
X17427Y109825D02*
X16186Y111377D01*
X13986Y111999D02*
X13936Y111997D01*
X13887Y111992D01*
X13837Y111983D01*
X13789Y111971D01*
X13742Y111955D01*
X13696Y111936D01*
X13651Y111913D01*
X13608Y111888D01*
X13567Y111860D01*
X13528Y111828D01*
X13492Y111794D01*
X13458Y111758D01*
X13426Y111719D01*
X13398Y111678D01*
X13373Y111635D01*
X13350Y111590D01*
X13331Y111544D01*
X13315Y111497D01*
X13303Y111449D01*
X13294Y111399D01*
X13289Y111350D01*
X13287Y111300D01*
X13986Y111998D02*
X14042Y111996D01*
X14099Y111991D01*
X14154Y111982D01*
X14209Y111970D01*
X14263Y111954D01*
X14316Y111935D01*
X14368Y111912D01*
X14418Y111887D01*
X14467Y111858D01*
X14514Y111826D01*
X14558Y111792D01*
X14600Y111755D01*
X14640Y111715D01*
X14678Y111672D01*
X14712Y111628D01*
X14744Y111581D01*
X14772Y111532D01*
X14798Y111482D01*
X14820Y111430D01*
X14839Y111377D01*
X13520Y110757D02*
X13484Y110793D01*
X13451Y110831D01*
X13421Y110872D01*
X13394Y110914D01*
X13369Y110959D01*
X13348Y111005D01*
X13329Y111052D01*
X13314Y111100D01*
X13302Y111149D01*
X13294Y111199D01*
X13289Y111249D01*
X13287Y111300D01*
X13520Y110756D02*
X14839Y109204D01*
X13287Y109204D01*
D11*
X53704Y204796D02*
X53704Y213796D01*
X35704Y213796D01*
X35704Y204796D01*
X53704Y204796D01*
D12*
X51245Y208010D02*
X51245Y210804D01*
X50469Y210804D01*
X50414Y210802D01*
X50359Y210796D01*
X50304Y210786D01*
X50250Y210773D01*
X50198Y210755D01*
X50147Y210734D01*
X50097Y210709D01*
X50049Y210681D01*
X50004Y210649D01*
X49961Y210614D01*
X49920Y210577D01*
X49883Y210536D01*
X49848Y210493D01*
X49816Y210448D01*
X49788Y210400D01*
X49763Y210350D01*
X49742Y210299D01*
X49724Y210247D01*
X49711Y210193D01*
X49701Y210138D01*
X49695Y210083D01*
X49693Y210028D01*
X49695Y209973D01*
X49701Y209918D01*
X49711Y209863D01*
X49724Y209809D01*
X49742Y209757D01*
X49763Y209706D01*
X49788Y209656D01*
X49816Y209608D01*
X49848Y209563D01*
X49883Y209520D01*
X49920Y209479D01*
X49961Y209442D01*
X50004Y209407D01*
X50049Y209375D01*
X50097Y209347D01*
X50147Y209322D01*
X50198Y209301D01*
X50250Y209283D01*
X50304Y209270D01*
X50359Y209260D01*
X50414Y209254D01*
X50469Y209252D01*
X51245Y209252D01*
X50314Y209252D02*
X49693Y208010D01*
X48520Y210183D02*
X47744Y210804D01*
X47744Y208010D01*
X48520Y208010D02*
X46968Y208010D01*
X45777Y209407D02*
X45775Y209502D01*
X45769Y209597D01*
X45759Y209691D01*
X45746Y209785D01*
X45728Y209878D01*
X45707Y209971D01*
X45682Y210063D01*
X45653Y210153D01*
X45620Y210242D01*
X45584Y210330D01*
X45544Y210416D01*
X45528Y210458D01*
X45509Y210498D01*
X45486Y210536D01*
X45461Y210573D01*
X45433Y210608D01*
X45403Y210640D01*
X45370Y210670D01*
X45335Y210697D01*
X45297Y210722D01*
X45258Y210743D01*
X45218Y210761D01*
X45176Y210777D01*
X45133Y210789D01*
X45090Y210797D01*
X45045Y210802D01*
X45001Y210804D01*
X44957Y210802D01*
X44912Y210797D01*
X44869Y210789D01*
X44826Y210777D01*
X44784Y210761D01*
X44744Y210743D01*
X44705Y210722D01*
X44667Y210697D01*
X44632Y210670D01*
X44599Y210640D01*
X44569Y210608D01*
X44541Y210573D01*
X44516Y210536D01*
X44493Y210498D01*
X44474Y210458D01*
X44458Y210416D01*
X44418Y210330D01*
X44382Y210242D01*
X44349Y210153D01*
X44320Y210062D01*
X44295Y209971D01*
X44274Y209878D01*
X44256Y209785D01*
X44243Y209691D01*
X44233Y209597D01*
X44227Y209502D01*
X44225Y209407D01*
X45777Y209407D02*
X45775Y209312D01*
X45769Y209217D01*
X45759Y209123D01*
X45746Y209029D01*
X45728Y208936D01*
X45707Y208843D01*
X45682Y208752D01*
X45653Y208661D01*
X45620Y208572D01*
X45584Y208484D01*
X45544Y208398D01*
X45528Y208356D01*
X45509Y208316D01*
X45486Y208278D01*
X45461Y208241D01*
X45433Y208206D01*
X45403Y208174D01*
X45370Y208144D01*
X45335Y208117D01*
X45297Y208092D01*
X45258Y208071D01*
X45218Y208053D01*
X45176Y208037D01*
X45133Y208025D01*
X45090Y208017D01*
X45045Y208012D01*
X45001Y208010D01*
X44457Y208398D02*
X44417Y208484D01*
X44381Y208572D01*
X44348Y208661D01*
X44319Y208751D01*
X44294Y208843D01*
X44273Y208936D01*
X44255Y209029D01*
X44242Y209123D01*
X44232Y209217D01*
X44226Y209312D01*
X44224Y209407D01*
X44458Y208398D02*
X44474Y208356D01*
X44493Y208316D01*
X44516Y208278D01*
X44541Y208241D01*
X44569Y208206D01*
X44599Y208174D01*
X44632Y208144D01*
X44667Y208117D01*
X44705Y208092D01*
X44744Y208071D01*
X44784Y208053D01*
X44826Y208037D01*
X44869Y208025D01*
X44912Y208017D01*
X44957Y208012D01*
X45001Y208010D01*
X45621Y208631D02*
X44380Y210183D01*
X43033Y209562D02*
X42102Y209562D01*
X42053Y209560D01*
X42005Y209554D01*
X41957Y209545D01*
X41910Y209532D01*
X41864Y209515D01*
X41820Y209494D01*
X41778Y209470D01*
X41737Y209443D01*
X41699Y209413D01*
X41663Y209380D01*
X41630Y209344D01*
X41600Y209306D01*
X41573Y209265D01*
X41549Y209223D01*
X41528Y209179D01*
X41511Y209133D01*
X41498Y209086D01*
X41489Y209038D01*
X41483Y208990D01*
X41481Y208941D01*
X41481Y208786D01*
X41483Y208731D01*
X41489Y208676D01*
X41499Y208621D01*
X41512Y208567D01*
X41530Y208515D01*
X41551Y208464D01*
X41576Y208414D01*
X41604Y208366D01*
X41636Y208321D01*
X41671Y208278D01*
X41708Y208237D01*
X41749Y208200D01*
X41792Y208165D01*
X41837Y208133D01*
X41885Y208105D01*
X41935Y208080D01*
X41986Y208059D01*
X42038Y208041D01*
X42092Y208028D01*
X42147Y208018D01*
X42202Y208012D01*
X42257Y208010D01*
X42312Y208012D01*
X42367Y208018D01*
X42422Y208028D01*
X42476Y208041D01*
X42528Y208059D01*
X42579Y208080D01*
X42629Y208105D01*
X42677Y208133D01*
X42722Y208165D01*
X42765Y208200D01*
X42806Y208237D01*
X42843Y208278D01*
X42878Y208321D01*
X42910Y208366D01*
X42938Y208414D01*
X42963Y208464D01*
X42984Y208515D01*
X43002Y208567D01*
X43015Y208621D01*
X43025Y208676D01*
X43031Y208731D01*
X43033Y208786D01*
X43033Y209562D01*
X43034Y209562D02*
X43032Y209632D01*
X43026Y209701D01*
X43016Y209770D01*
X43003Y209838D01*
X42985Y209906D01*
X42964Y209972D01*
X42939Y210037D01*
X42911Y210101D01*
X42879Y210163D01*
X42844Y210223D01*
X42805Y210281D01*
X42763Y210336D01*
X42718Y210390D01*
X42670Y210440D01*
X42620Y210488D01*
X42566Y210533D01*
X42511Y210575D01*
X42453Y210614D01*
X42393Y210649D01*
X42331Y210681D01*
X42267Y210709D01*
X42202Y210734D01*
X42136Y210755D01*
X42068Y210773D01*
X42000Y210786D01*
X41931Y210796D01*
X41862Y210802D01*
X41792Y210804D01*
D11*
X46592Y114736D02*
X46592Y105736D01*
X46592Y114736D02*
X28592Y114736D01*
X28592Y105736D01*
X46592Y105736D01*
D12*
X44133Y108950D02*
X44133Y111744D01*
X43357Y111744D01*
X43302Y111742D01*
X43247Y111736D01*
X43192Y111726D01*
X43138Y111713D01*
X43086Y111695D01*
X43035Y111674D01*
X42985Y111649D01*
X42937Y111621D01*
X42892Y111589D01*
X42849Y111554D01*
X42808Y111517D01*
X42771Y111476D01*
X42736Y111433D01*
X42704Y111388D01*
X42676Y111340D01*
X42651Y111290D01*
X42630Y111239D01*
X42612Y111187D01*
X42599Y111133D01*
X42589Y111078D01*
X42583Y111023D01*
X42581Y110968D01*
X42583Y110913D01*
X42589Y110858D01*
X42599Y110803D01*
X42612Y110749D01*
X42630Y110697D01*
X42651Y110646D01*
X42676Y110596D01*
X42704Y110548D01*
X42736Y110503D01*
X42771Y110460D01*
X42808Y110419D01*
X42849Y110382D01*
X42892Y110347D01*
X42937Y110315D01*
X42985Y110287D01*
X43035Y110262D01*
X43086Y110241D01*
X43138Y110223D01*
X43192Y110210D01*
X43247Y110200D01*
X43302Y110194D01*
X43357Y110192D01*
X44133Y110192D01*
X43202Y110192D02*
X42581Y108950D01*
X41408Y111123D02*
X40632Y111744D01*
X40632Y108950D01*
X41408Y108950D02*
X39856Y108950D01*
X38665Y110347D02*
X38663Y110442D01*
X38657Y110537D01*
X38647Y110631D01*
X38634Y110725D01*
X38616Y110818D01*
X38595Y110911D01*
X38570Y111003D01*
X38541Y111093D01*
X38508Y111182D01*
X38472Y111270D01*
X38432Y111356D01*
X38416Y111398D01*
X38397Y111438D01*
X38374Y111476D01*
X38349Y111513D01*
X38321Y111548D01*
X38291Y111580D01*
X38258Y111610D01*
X38223Y111637D01*
X38185Y111662D01*
X38146Y111683D01*
X38106Y111701D01*
X38064Y111717D01*
X38021Y111729D01*
X37978Y111737D01*
X37933Y111742D01*
X37889Y111744D01*
X37845Y111742D01*
X37800Y111737D01*
X37757Y111729D01*
X37714Y111717D01*
X37672Y111701D01*
X37632Y111683D01*
X37593Y111662D01*
X37555Y111637D01*
X37520Y111610D01*
X37487Y111580D01*
X37457Y111548D01*
X37429Y111513D01*
X37404Y111476D01*
X37381Y111438D01*
X37362Y111398D01*
X37346Y111356D01*
X37306Y111270D01*
X37270Y111182D01*
X37237Y111093D01*
X37208Y111002D01*
X37183Y110911D01*
X37162Y110818D01*
X37144Y110725D01*
X37131Y110631D01*
X37121Y110537D01*
X37115Y110442D01*
X37113Y110347D01*
X38665Y110347D02*
X38663Y110252D01*
X38657Y110157D01*
X38647Y110063D01*
X38634Y109969D01*
X38616Y109876D01*
X38595Y109783D01*
X38570Y109692D01*
X38541Y109601D01*
X38508Y109512D01*
X38472Y109424D01*
X38432Y109338D01*
X38416Y109296D01*
X38397Y109256D01*
X38374Y109218D01*
X38349Y109181D01*
X38321Y109146D01*
X38291Y109114D01*
X38258Y109084D01*
X38223Y109057D01*
X38185Y109032D01*
X38146Y109011D01*
X38106Y108993D01*
X38064Y108977D01*
X38021Y108965D01*
X37978Y108957D01*
X37933Y108952D01*
X37889Y108950D01*
X37345Y109338D02*
X37305Y109424D01*
X37269Y109512D01*
X37236Y109601D01*
X37207Y109691D01*
X37182Y109783D01*
X37161Y109876D01*
X37143Y109969D01*
X37130Y110063D01*
X37120Y110157D01*
X37114Y110252D01*
X37112Y110347D01*
X37346Y109338D02*
X37362Y109296D01*
X37381Y109256D01*
X37404Y109218D01*
X37429Y109181D01*
X37457Y109146D01*
X37487Y109114D01*
X37520Y109084D01*
X37555Y109057D01*
X37593Y109032D01*
X37632Y109011D01*
X37672Y108993D01*
X37714Y108977D01*
X37757Y108965D01*
X37800Y108957D01*
X37845Y108952D01*
X37889Y108950D01*
X38509Y109571D02*
X37268Y111123D01*
X35921Y108950D02*
X34990Y108950D01*
X34941Y108952D01*
X34893Y108958D01*
X34845Y108967D01*
X34798Y108980D01*
X34752Y108997D01*
X34708Y109018D01*
X34666Y109041D01*
X34625Y109069D01*
X34587Y109099D01*
X34551Y109132D01*
X34518Y109168D01*
X34488Y109206D01*
X34461Y109246D01*
X34437Y109289D01*
X34416Y109333D01*
X34399Y109379D01*
X34386Y109426D01*
X34377Y109474D01*
X34371Y109522D01*
X34369Y109571D01*
X34369Y109881D01*
X34371Y109930D01*
X34377Y109978D01*
X34386Y110026D01*
X34399Y110073D01*
X34416Y110119D01*
X34437Y110163D01*
X34461Y110205D01*
X34488Y110246D01*
X34518Y110284D01*
X34551Y110320D01*
X34587Y110353D01*
X34625Y110383D01*
X34666Y110411D01*
X34708Y110434D01*
X34752Y110455D01*
X34798Y110472D01*
X34845Y110485D01*
X34893Y110494D01*
X34941Y110500D01*
X34990Y110502D01*
X35921Y110502D01*
X35921Y111744D01*
X34369Y111744D01*
D15*
X118386Y192636D02*
X118386Y205636D01*
X89386Y205636D01*
X89386Y192636D01*
X118386Y192636D01*
X118386Y205636D01*
X89386Y205636D01*
X89386Y192636D01*
X118386Y192636D01*
D10*
X113707Y195864D02*
X113707Y201452D01*
X112155Y201452D01*
X112078Y201450D01*
X112000Y201444D01*
X111924Y201435D01*
X111847Y201421D01*
X111772Y201404D01*
X111698Y201383D01*
X111624Y201358D01*
X111552Y201330D01*
X111482Y201298D01*
X111413Y201263D01*
X111346Y201224D01*
X111281Y201182D01*
X111218Y201137D01*
X111157Y201089D01*
X111099Y201038D01*
X111044Y200984D01*
X110991Y200927D01*
X110942Y200868D01*
X110895Y200806D01*
X110851Y200742D01*
X110811Y200676D01*
X110774Y200608D01*
X110740Y200538D01*
X110710Y200467D01*
X110684Y200394D01*
X110661Y200320D01*
X110642Y200245D01*
X110627Y200170D01*
X110615Y200093D01*
X110607Y200016D01*
X110603Y199939D01*
X110603Y199861D01*
X110607Y199784D01*
X110615Y199707D01*
X110627Y199630D01*
X110642Y199555D01*
X110661Y199480D01*
X110684Y199406D01*
X110710Y199333D01*
X110740Y199262D01*
X110774Y199192D01*
X110811Y199124D01*
X110851Y199058D01*
X110895Y198994D01*
X110942Y198932D01*
X110991Y198873D01*
X111044Y198816D01*
X111099Y198762D01*
X111157Y198711D01*
X111218Y198663D01*
X111281Y198618D01*
X111346Y198576D01*
X111413Y198537D01*
X111482Y198502D01*
X111552Y198470D01*
X111624Y198442D01*
X111698Y198417D01*
X111772Y198396D01*
X111847Y198379D01*
X111924Y198365D01*
X112000Y198356D01*
X112078Y198350D01*
X112155Y198348D01*
X113707Y198348D01*
X111845Y198348D02*
X110603Y195864D01*
X105153Y200055D02*
X105155Y200128D01*
X105161Y200201D01*
X105170Y200274D01*
X105184Y200345D01*
X105201Y200417D01*
X105221Y200487D01*
X105246Y200556D01*
X105274Y200623D01*
X105305Y200689D01*
X105340Y200754D01*
X105378Y200816D01*
X105420Y200876D01*
X105464Y200934D01*
X105512Y200990D01*
X105562Y201043D01*
X105615Y201093D01*
X105671Y201141D01*
X105729Y201185D01*
X105789Y201227D01*
X105852Y201265D01*
X105916Y201300D01*
X105982Y201331D01*
X106049Y201359D01*
X106118Y201384D01*
X106188Y201404D01*
X106260Y201421D01*
X106331Y201435D01*
X106404Y201444D01*
X106477Y201450D01*
X106550Y201452D01*
X106634Y201450D01*
X106717Y201444D01*
X106800Y201435D01*
X106882Y201421D01*
X106964Y201404D01*
X107045Y201382D01*
X107125Y201357D01*
X107203Y201329D01*
X107281Y201297D01*
X107356Y201261D01*
X107430Y201222D01*
X107502Y201179D01*
X107572Y201133D01*
X107639Y201084D01*
X107705Y201031D01*
X107767Y200976D01*
X107827Y200918D01*
X107885Y200857D01*
X107939Y200794D01*
X107991Y200728D01*
X108039Y200660D01*
X108084Y200589D01*
X108126Y200517D01*
X108164Y200442D01*
X108199Y200366D01*
X108230Y200289D01*
X108258Y200210D01*
X105619Y198969D02*
X105565Y199022D01*
X105514Y199079D01*
X105466Y199138D01*
X105421Y199199D01*
X105380Y199262D01*
X105341Y199328D01*
X105306Y199395D01*
X105274Y199464D01*
X105246Y199535D01*
X105222Y199606D01*
X105201Y199679D01*
X105184Y199753D01*
X105170Y199828D01*
X105161Y199903D01*
X105155Y199979D01*
X105153Y200055D01*
X105618Y198968D02*
X108257Y195864D01*
X105153Y195864D01*
X102771Y198658D02*
X102769Y198789D01*
X102764Y198919D01*
X102754Y199049D01*
X102741Y199179D01*
X102725Y199309D01*
X102705Y199438D01*
X102681Y199566D01*
X102653Y199693D01*
X102622Y199820D01*
X102587Y199946D01*
X102549Y200071D01*
X102507Y200195D01*
X102462Y200317D01*
X102413Y200438D01*
X102361Y200558D01*
X102305Y200676D01*
X102306Y200676D02*
X102283Y200736D01*
X102257Y200796D01*
X102228Y200853D01*
X102195Y200909D01*
X102159Y200963D01*
X102121Y201015D01*
X102079Y201065D01*
X102035Y201112D01*
X101988Y201157D01*
X101938Y201199D01*
X101887Y201238D01*
X101833Y201274D01*
X101777Y201307D01*
X101720Y201337D01*
X101661Y201364D01*
X101600Y201387D01*
X101539Y201407D01*
X101476Y201423D01*
X101412Y201436D01*
X101348Y201445D01*
X101284Y201450D01*
X101219Y201452D01*
X101154Y201450D01*
X101090Y201445D01*
X101026Y201436D01*
X100962Y201423D01*
X100899Y201407D01*
X100838Y201387D01*
X100777Y201364D01*
X100718Y201337D01*
X100661Y201307D01*
X100605Y201274D01*
X100551Y201238D01*
X100500Y201199D01*
X100450Y201157D01*
X100403Y201112D01*
X100359Y201065D01*
X100317Y201015D01*
X100279Y200963D01*
X100243Y200909D01*
X100210Y200853D01*
X100181Y200796D01*
X100155Y200736D01*
X100132Y200676D01*
X100076Y200558D01*
X100024Y200438D01*
X99975Y200317D01*
X99930Y200195D01*
X99888Y200071D01*
X99850Y199946D01*
X99815Y199820D01*
X99784Y199694D01*
X99756Y199566D01*
X99732Y199438D01*
X99712Y199309D01*
X99696Y199179D01*
X99683Y199049D01*
X99673Y198919D01*
X99668Y198789D01*
X99666Y198658D01*
X102771Y198658D02*
X102769Y198527D01*
X102764Y198397D01*
X102754Y198267D01*
X102741Y198137D01*
X102725Y198007D01*
X102705Y197879D01*
X102681Y197750D01*
X102653Y197623D01*
X102622Y197496D01*
X102587Y197370D01*
X102549Y197245D01*
X102507Y197122D01*
X102462Y196999D01*
X102413Y196878D01*
X102361Y196758D01*
X102305Y196640D01*
X102306Y196640D02*
X102283Y196580D01*
X102257Y196520D01*
X102228Y196463D01*
X102195Y196407D01*
X102159Y196353D01*
X102121Y196301D01*
X102079Y196251D01*
X102035Y196204D01*
X101988Y196159D01*
X101938Y196117D01*
X101887Y196078D01*
X101833Y196042D01*
X101777Y196009D01*
X101720Y195979D01*
X101661Y195952D01*
X101600Y195929D01*
X101539Y195909D01*
X101476Y195893D01*
X101412Y195880D01*
X101348Y195871D01*
X101284Y195866D01*
X101219Y195864D01*
X100132Y196640D02*
X100076Y196758D01*
X100024Y196878D01*
X99975Y196999D01*
X99930Y197121D01*
X99888Y197245D01*
X99850Y197370D01*
X99815Y197496D01*
X99784Y197622D01*
X99756Y197750D01*
X99732Y197878D01*
X99712Y198007D01*
X99696Y198137D01*
X99683Y198267D01*
X99673Y198397D01*
X99668Y198527D01*
X99666Y198658D01*
X100132Y196640D02*
X100155Y196580D01*
X100181Y196520D01*
X100210Y196463D01*
X100243Y196407D01*
X100279Y196353D01*
X100317Y196301D01*
X100359Y196251D01*
X100403Y196204D01*
X100450Y196159D01*
X100500Y196117D01*
X100551Y196078D01*
X100605Y196042D01*
X100661Y196009D01*
X100718Y195979D01*
X100777Y195952D01*
X100838Y195929D01*
X100899Y195909D01*
X100962Y195893D01*
X101026Y195880D01*
X101090Y195871D01*
X101154Y195866D01*
X101219Y195864D01*
X102460Y197106D02*
X99977Y200210D01*
X97284Y200831D02*
X97284Y201452D01*
X94180Y201452D01*
X95732Y195864D01*
D16*
X77724Y321818D02*
X77724Y344678D01*
X96520Y344678D01*
X96520Y321818D01*
X77724Y321818D01*
X93218Y323088D02*
X95250Y325120D01*
X78994Y323088D02*
X78994Y343408D01*
X95250Y343408D01*
X95250Y323088D01*
X78994Y323088D01*
D17*
X99822Y320548D03*
D12*
X94326Y331823D02*
X94326Y334391D01*
X94327Y331823D02*
X94325Y331761D01*
X94319Y331699D01*
X94309Y331638D01*
X94296Y331577D01*
X94279Y331518D01*
X94258Y331459D01*
X94233Y331402D01*
X94205Y331347D01*
X94173Y331294D01*
X94138Y331242D01*
X94100Y331193D01*
X94059Y331147D01*
X94015Y331103D01*
X93969Y331062D01*
X93920Y331024D01*
X93868Y330989D01*
X93815Y330957D01*
X93760Y330929D01*
X93703Y330904D01*
X93644Y330883D01*
X93585Y330866D01*
X93524Y330853D01*
X93463Y330843D01*
X93401Y330837D01*
X93339Y330835D01*
X93277Y330837D01*
X93215Y330843D01*
X93154Y330853D01*
X93093Y330866D01*
X93034Y330883D01*
X92975Y330904D01*
X92918Y330929D01*
X92863Y330957D01*
X92810Y330989D01*
X92758Y331024D01*
X92709Y331062D01*
X92663Y331103D01*
X92619Y331147D01*
X92578Y331193D01*
X92540Y331242D01*
X92505Y331294D01*
X92473Y331347D01*
X92445Y331402D01*
X92420Y331459D01*
X92399Y331518D01*
X92382Y331577D01*
X92369Y331638D01*
X92359Y331699D01*
X92353Y331761D01*
X92351Y331823D01*
X92351Y334391D01*
X89697Y334391D02*
X89639Y334389D01*
X89581Y334383D01*
X89524Y334374D01*
X89467Y334361D01*
X89411Y334344D01*
X89357Y334323D01*
X89304Y334299D01*
X89253Y334272D01*
X89203Y334241D01*
X89156Y334207D01*
X89111Y334170D01*
X89068Y334131D01*
X89029Y334088D01*
X88992Y334043D01*
X88958Y333996D01*
X88927Y333947D01*
X88900Y333895D01*
X88876Y333842D01*
X88855Y333788D01*
X88838Y333732D01*
X88825Y333675D01*
X88816Y333618D01*
X88810Y333560D01*
X88808Y333502D01*
X89697Y334391D02*
X89762Y334389D01*
X89827Y334384D01*
X89892Y334374D01*
X89956Y334361D01*
X90019Y334345D01*
X90081Y334324D01*
X90142Y334301D01*
X90201Y334274D01*
X90259Y334243D01*
X90315Y334209D01*
X90369Y334173D01*
X90420Y334133D01*
X90470Y334090D01*
X90516Y334044D01*
X90561Y333996D01*
X90602Y333946D01*
X90640Y333893D01*
X90675Y333838D01*
X90707Y333781D01*
X90736Y333722D01*
X90762Y333662D01*
X90783Y333601D01*
X89104Y332811D02*
X89063Y332853D01*
X89023Y332898D01*
X88987Y332945D01*
X88954Y332994D01*
X88924Y333046D01*
X88897Y333099D01*
X88874Y333153D01*
X88854Y333209D01*
X88837Y333267D01*
X88825Y333325D01*
X88815Y333383D01*
X88810Y333443D01*
X88808Y333502D01*
X89104Y332811D02*
X90783Y330835D01*
X88808Y330835D01*
X87354Y332613D02*
X87352Y332715D01*
X87347Y332817D01*
X87338Y332919D01*
X87326Y333021D01*
X87310Y333122D01*
X87290Y333222D01*
X87267Y333322D01*
X87241Y333420D01*
X87211Y333518D01*
X87177Y333615D01*
X87141Y333710D01*
X87101Y333804D01*
X87058Y333897D01*
X87057Y333897D02*
X87038Y333947D01*
X87016Y333995D01*
X86989Y334042D01*
X86960Y334086D01*
X86927Y334128D01*
X86892Y334168D01*
X86853Y334205D01*
X86812Y334239D01*
X86769Y334270D01*
X86723Y334298D01*
X86676Y334322D01*
X86627Y334343D01*
X86576Y334360D01*
X86525Y334374D01*
X86472Y334383D01*
X86419Y334389D01*
X86366Y334391D01*
X86313Y334389D01*
X86260Y334383D01*
X86207Y334374D01*
X86156Y334360D01*
X86105Y334343D01*
X86056Y334322D01*
X86009Y334298D01*
X85963Y334270D01*
X85920Y334239D01*
X85879Y334205D01*
X85840Y334168D01*
X85805Y334128D01*
X85772Y334086D01*
X85743Y334042D01*
X85716Y333995D01*
X85694Y333947D01*
X85675Y333897D01*
X85632Y333804D01*
X85592Y333710D01*
X85556Y333615D01*
X85522Y333518D01*
X85492Y333420D01*
X85466Y333322D01*
X85443Y333222D01*
X85423Y333122D01*
X85407Y333021D01*
X85395Y332919D01*
X85386Y332817D01*
X85381Y332715D01*
X85379Y332613D01*
X87354Y332613D02*
X87352Y332511D01*
X87347Y332409D01*
X87338Y332307D01*
X87326Y332205D01*
X87310Y332104D01*
X87290Y332004D01*
X87267Y331904D01*
X87241Y331805D01*
X87211Y331708D01*
X87177Y331611D01*
X87141Y331516D01*
X87101Y331421D01*
X87058Y331329D01*
X87057Y331329D02*
X87038Y331279D01*
X87016Y331231D01*
X86989Y331184D01*
X86960Y331140D01*
X86927Y331098D01*
X86892Y331058D01*
X86853Y331021D01*
X86812Y330987D01*
X86769Y330956D01*
X86723Y330928D01*
X86676Y330904D01*
X86627Y330883D01*
X86576Y330866D01*
X86525Y330852D01*
X86472Y330843D01*
X86419Y330837D01*
X86366Y330835D01*
X85674Y331329D02*
X85631Y331421D01*
X85591Y331516D01*
X85555Y331611D01*
X85521Y331708D01*
X85491Y331805D01*
X85465Y331904D01*
X85442Y332004D01*
X85422Y332104D01*
X85406Y332205D01*
X85394Y332307D01*
X85385Y332409D01*
X85380Y332511D01*
X85378Y332613D01*
X85675Y331329D02*
X85694Y331279D01*
X85716Y331231D01*
X85743Y331184D01*
X85772Y331140D01*
X85805Y331098D01*
X85840Y331058D01*
X85879Y331021D01*
X85920Y330987D01*
X85963Y330956D01*
X86009Y330928D01*
X86056Y330904D01*
X86105Y330883D01*
X86156Y330866D01*
X86207Y330852D01*
X86260Y330843D01*
X86313Y330837D01*
X86366Y330835D01*
X87157Y331625D02*
X85576Y333601D01*
X82839Y334391D02*
X82781Y334389D01*
X82723Y334383D01*
X82666Y334374D01*
X82609Y334361D01*
X82553Y334344D01*
X82499Y334323D01*
X82446Y334299D01*
X82395Y334272D01*
X82345Y334241D01*
X82298Y334207D01*
X82253Y334170D01*
X82210Y334131D01*
X82171Y334088D01*
X82134Y334043D01*
X82100Y333996D01*
X82069Y333947D01*
X82042Y333895D01*
X82018Y333842D01*
X81997Y333788D01*
X81980Y333732D01*
X81967Y333675D01*
X81958Y333618D01*
X81952Y333560D01*
X81950Y333502D01*
X82839Y334391D02*
X82904Y334389D01*
X82969Y334384D01*
X83034Y334374D01*
X83098Y334361D01*
X83161Y334345D01*
X83223Y334324D01*
X83284Y334301D01*
X83343Y334274D01*
X83401Y334243D01*
X83457Y334209D01*
X83511Y334173D01*
X83562Y334133D01*
X83612Y334090D01*
X83658Y334044D01*
X83703Y333996D01*
X83744Y333946D01*
X83782Y333893D01*
X83817Y333838D01*
X83849Y333781D01*
X83878Y333722D01*
X83904Y333662D01*
X83925Y333601D01*
X82246Y332811D02*
X82205Y332853D01*
X82165Y332898D01*
X82129Y332945D01*
X82096Y332994D01*
X82066Y333046D01*
X82039Y333099D01*
X82016Y333153D01*
X81996Y333209D01*
X81979Y333267D01*
X81967Y333325D01*
X81957Y333383D01*
X81952Y333443D01*
X81950Y333502D01*
X82246Y332811D02*
X83925Y330835D01*
X81950Y330835D01*
D18*
X75772Y389401D02*
X75774Y389464D01*
X75780Y389526D01*
X75790Y389588D01*
X75803Y389650D01*
X75821Y389710D01*
X75842Y389769D01*
X75867Y389827D01*
X75896Y389883D01*
X75928Y389937D01*
X75963Y389989D01*
X76001Y390038D01*
X76043Y390086D01*
X76087Y390130D01*
X76135Y390172D01*
X76184Y390210D01*
X76236Y390245D01*
X76290Y390277D01*
X76346Y390306D01*
X76404Y390331D01*
X76463Y390352D01*
X76523Y390370D01*
X76585Y390383D01*
X76647Y390393D01*
X76709Y390399D01*
X76772Y390401D01*
X76835Y390399D01*
X76897Y390393D01*
X76959Y390383D01*
X77021Y390370D01*
X77081Y390352D01*
X77140Y390331D01*
X77198Y390306D01*
X77254Y390277D01*
X77308Y390245D01*
X77360Y390210D01*
X77409Y390172D01*
X77457Y390130D01*
X77501Y390086D01*
X77543Y390038D01*
X77581Y389989D01*
X77616Y389937D01*
X77648Y389883D01*
X77677Y389827D01*
X77702Y389769D01*
X77723Y389710D01*
X77741Y389650D01*
X77754Y389588D01*
X77764Y389526D01*
X77770Y389464D01*
X77772Y389401D01*
X77770Y389338D01*
X77764Y389276D01*
X77754Y389214D01*
X77741Y389152D01*
X77723Y389092D01*
X77702Y389033D01*
X77677Y388975D01*
X77648Y388919D01*
X77616Y388865D01*
X77581Y388813D01*
X77543Y388764D01*
X77501Y388716D01*
X77457Y388672D01*
X77409Y388630D01*
X77360Y388592D01*
X77308Y388557D01*
X77254Y388525D01*
X77198Y388496D01*
X77140Y388471D01*
X77081Y388450D01*
X77021Y388432D01*
X76959Y388419D01*
X76897Y388409D01*
X76835Y388403D01*
X76772Y388401D01*
X76709Y388403D01*
X76647Y388409D01*
X76585Y388419D01*
X76523Y388432D01*
X76463Y388450D01*
X76404Y388471D01*
X76346Y388496D01*
X76290Y388525D01*
X76236Y388557D01*
X76184Y388592D01*
X76135Y388630D01*
X76087Y388672D01*
X76043Y388716D01*
X76001Y388764D01*
X75963Y388813D01*
X75928Y388865D01*
X75896Y388919D01*
X75867Y388975D01*
X75842Y389033D01*
X75821Y389092D01*
X75803Y389152D01*
X75790Y389214D01*
X75780Y389276D01*
X75774Y389338D01*
X75772Y389401D01*
D13*
X95757Y385671D02*
X95757Y370741D01*
X81027Y370741D02*
X81027Y385671D01*
X81027Y370741D02*
X95757Y370741D01*
X95757Y385671D02*
X81027Y385671D01*
X96842Y373981D02*
X96842Y369756D01*
X92617Y369756D01*
X96842Y382431D02*
X96842Y386656D01*
X92617Y386656D01*
X79942Y386656D02*
X79942Y382431D01*
X79942Y386656D02*
X84167Y386656D01*
X79942Y373981D02*
X79942Y369756D01*
X84167Y369756D01*
D12*
X87128Y371483D02*
X89696Y371483D01*
X87128Y371483D02*
X87066Y371485D01*
X87004Y371491D01*
X86943Y371501D01*
X86882Y371514D01*
X86823Y371531D01*
X86764Y371552D01*
X86707Y371577D01*
X86652Y371605D01*
X86599Y371637D01*
X86547Y371672D01*
X86498Y371710D01*
X86452Y371751D01*
X86408Y371795D01*
X86367Y371841D01*
X86329Y371890D01*
X86294Y371942D01*
X86262Y371995D01*
X86234Y372050D01*
X86209Y372107D01*
X86188Y372166D01*
X86171Y372225D01*
X86158Y372286D01*
X86148Y372347D01*
X86142Y372409D01*
X86140Y372471D01*
X86142Y372533D01*
X86148Y372595D01*
X86158Y372656D01*
X86171Y372717D01*
X86188Y372776D01*
X86209Y372835D01*
X86234Y372892D01*
X86262Y372947D01*
X86294Y373000D01*
X86329Y373052D01*
X86367Y373101D01*
X86408Y373147D01*
X86452Y373191D01*
X86498Y373232D01*
X86547Y373270D01*
X86599Y373305D01*
X86652Y373337D01*
X86707Y373365D01*
X86764Y373390D01*
X86823Y373411D01*
X86882Y373428D01*
X86943Y373441D01*
X87004Y373451D01*
X87066Y373457D01*
X87128Y373459D01*
X89696Y373459D01*
X89696Y376113D02*
X89694Y376171D01*
X89688Y376229D01*
X89679Y376286D01*
X89666Y376343D01*
X89649Y376399D01*
X89628Y376453D01*
X89604Y376506D01*
X89577Y376558D01*
X89546Y376607D01*
X89512Y376654D01*
X89475Y376699D01*
X89436Y376742D01*
X89393Y376781D01*
X89348Y376818D01*
X89301Y376852D01*
X89252Y376883D01*
X89200Y376910D01*
X89147Y376934D01*
X89093Y376955D01*
X89037Y376972D01*
X88980Y376985D01*
X88923Y376994D01*
X88865Y377000D01*
X88807Y377002D01*
X89696Y376113D02*
X89694Y376048D01*
X89689Y375983D01*
X89679Y375918D01*
X89666Y375854D01*
X89650Y375791D01*
X89629Y375729D01*
X89606Y375668D01*
X89579Y375609D01*
X89548Y375551D01*
X89514Y375495D01*
X89478Y375441D01*
X89438Y375390D01*
X89395Y375340D01*
X89349Y375294D01*
X89301Y375249D01*
X89251Y375208D01*
X89198Y375170D01*
X89143Y375135D01*
X89086Y375103D01*
X89027Y375074D01*
X88967Y375048D01*
X88906Y375027D01*
X88116Y376706D02*
X88158Y376747D01*
X88203Y376787D01*
X88250Y376823D01*
X88299Y376856D01*
X88351Y376886D01*
X88404Y376913D01*
X88458Y376936D01*
X88514Y376956D01*
X88572Y376973D01*
X88630Y376985D01*
X88688Y376995D01*
X88748Y377000D01*
X88807Y377002D01*
X88116Y376706D02*
X86140Y375027D01*
X86140Y377002D01*
X87918Y378456D02*
X88020Y378458D01*
X88122Y378463D01*
X88224Y378472D01*
X88326Y378484D01*
X88427Y378500D01*
X88527Y378520D01*
X88627Y378543D01*
X88725Y378569D01*
X88823Y378599D01*
X88920Y378633D01*
X89015Y378669D01*
X89109Y378709D01*
X89202Y378752D01*
X89252Y378771D01*
X89300Y378793D01*
X89347Y378820D01*
X89391Y378849D01*
X89433Y378882D01*
X89473Y378917D01*
X89510Y378956D01*
X89544Y378997D01*
X89575Y379040D01*
X89603Y379086D01*
X89627Y379133D01*
X89648Y379182D01*
X89665Y379233D01*
X89679Y379284D01*
X89688Y379337D01*
X89694Y379390D01*
X89696Y379443D01*
X89694Y379496D01*
X89688Y379549D01*
X89679Y379602D01*
X89665Y379653D01*
X89648Y379704D01*
X89627Y379753D01*
X89603Y379800D01*
X89575Y379846D01*
X89544Y379889D01*
X89510Y379930D01*
X89473Y379969D01*
X89433Y380004D01*
X89391Y380037D01*
X89347Y380067D01*
X89300Y380093D01*
X89252Y380115D01*
X89202Y380134D01*
X89202Y380135D02*
X89109Y380178D01*
X89015Y380218D01*
X88920Y380254D01*
X88823Y380288D01*
X88725Y380318D01*
X88627Y380344D01*
X88527Y380367D01*
X88427Y380387D01*
X88326Y380403D01*
X88224Y380415D01*
X88122Y380424D01*
X88020Y380429D01*
X87918Y380431D01*
X87918Y378455D02*
X87816Y378457D01*
X87714Y378462D01*
X87612Y378471D01*
X87510Y378483D01*
X87409Y378499D01*
X87309Y378519D01*
X87209Y378542D01*
X87110Y378568D01*
X87013Y378598D01*
X86916Y378632D01*
X86821Y378668D01*
X86726Y378708D01*
X86634Y378751D01*
X86634Y378752D02*
X86584Y378771D01*
X86536Y378793D01*
X86489Y378820D01*
X86445Y378849D01*
X86403Y378882D01*
X86363Y378917D01*
X86326Y378956D01*
X86292Y378997D01*
X86261Y379040D01*
X86233Y379086D01*
X86209Y379133D01*
X86188Y379182D01*
X86171Y379233D01*
X86157Y379284D01*
X86148Y379337D01*
X86142Y379390D01*
X86140Y379443D01*
X86634Y380135D02*
X86726Y380178D01*
X86821Y380218D01*
X86916Y380254D01*
X87013Y380288D01*
X87110Y380318D01*
X87209Y380344D01*
X87309Y380367D01*
X87409Y380387D01*
X87510Y380403D01*
X87612Y380415D01*
X87714Y380424D01*
X87816Y380429D01*
X87918Y380431D01*
X86634Y380134D02*
X86584Y380115D01*
X86536Y380093D01*
X86489Y380066D01*
X86445Y380037D01*
X86403Y380004D01*
X86363Y379969D01*
X86326Y379930D01*
X86292Y379889D01*
X86261Y379846D01*
X86233Y379800D01*
X86209Y379753D01*
X86188Y379704D01*
X86171Y379653D01*
X86157Y379602D01*
X86148Y379549D01*
X86142Y379496D01*
X86140Y379443D01*
X86930Y378653D02*
X88906Y380234D01*
X88906Y381884D02*
X89696Y382872D01*
X86140Y382872D01*
X86140Y381884D02*
X86140Y383860D01*
D13*
X132926Y301324D02*
X132926Y285924D01*
X132926Y301324D02*
X143426Y301324D01*
X143426Y285924D01*
X132926Y285924D01*
D19*
X132676Y288624D02*
X130676Y289624D01*
X130676Y287624D01*
X132676Y288624D01*
D13*
X132926Y285924D02*
X132926Y301324D01*
X143426Y301324D01*
X143426Y285924D01*
X132926Y285924D01*
D12*
X136547Y286492D02*
X139115Y286492D01*
X136547Y286492D02*
X136485Y286494D01*
X136423Y286500D01*
X136362Y286510D01*
X136301Y286523D01*
X136242Y286540D01*
X136183Y286561D01*
X136126Y286586D01*
X136071Y286614D01*
X136018Y286646D01*
X135966Y286681D01*
X135917Y286719D01*
X135871Y286760D01*
X135827Y286804D01*
X135786Y286850D01*
X135748Y286899D01*
X135713Y286951D01*
X135681Y287004D01*
X135653Y287059D01*
X135628Y287116D01*
X135607Y287175D01*
X135590Y287234D01*
X135577Y287295D01*
X135567Y287356D01*
X135561Y287418D01*
X135559Y287480D01*
X135561Y287542D01*
X135567Y287604D01*
X135577Y287665D01*
X135590Y287726D01*
X135607Y287785D01*
X135628Y287844D01*
X135653Y287901D01*
X135681Y287956D01*
X135713Y288009D01*
X135748Y288061D01*
X135786Y288110D01*
X135827Y288156D01*
X135871Y288200D01*
X135917Y288241D01*
X135966Y288279D01*
X136018Y288314D01*
X136071Y288346D01*
X136126Y288374D01*
X136183Y288399D01*
X136242Y288420D01*
X136301Y288437D01*
X136362Y288450D01*
X136423Y288460D01*
X136485Y288466D01*
X136547Y288468D01*
X139115Y288468D01*
X139115Y291122D02*
X139113Y291180D01*
X139107Y291238D01*
X139098Y291295D01*
X139085Y291352D01*
X139068Y291408D01*
X139047Y291462D01*
X139023Y291515D01*
X138996Y291567D01*
X138965Y291616D01*
X138931Y291663D01*
X138894Y291708D01*
X138855Y291751D01*
X138812Y291790D01*
X138767Y291827D01*
X138720Y291861D01*
X138671Y291892D01*
X138619Y291919D01*
X138566Y291943D01*
X138512Y291964D01*
X138456Y291981D01*
X138399Y291994D01*
X138342Y292003D01*
X138284Y292009D01*
X138226Y292011D01*
X139115Y291122D02*
X139113Y291057D01*
X139108Y290992D01*
X139098Y290927D01*
X139085Y290863D01*
X139069Y290800D01*
X139048Y290738D01*
X139025Y290677D01*
X138998Y290618D01*
X138967Y290560D01*
X138933Y290504D01*
X138897Y290450D01*
X138857Y290399D01*
X138814Y290349D01*
X138768Y290303D01*
X138720Y290258D01*
X138670Y290217D01*
X138617Y290179D01*
X138562Y290144D01*
X138505Y290112D01*
X138446Y290083D01*
X138386Y290057D01*
X138325Y290036D01*
X137535Y291715D02*
X137577Y291756D01*
X137622Y291796D01*
X137669Y291832D01*
X137718Y291865D01*
X137770Y291895D01*
X137823Y291922D01*
X137877Y291945D01*
X137933Y291965D01*
X137991Y291982D01*
X138049Y291994D01*
X138107Y292004D01*
X138167Y292009D01*
X138226Y292011D01*
X137535Y291715D02*
X135559Y290036D01*
X135559Y292011D01*
X137337Y293465D02*
X137439Y293467D01*
X137541Y293472D01*
X137643Y293481D01*
X137745Y293493D01*
X137846Y293509D01*
X137946Y293529D01*
X138046Y293552D01*
X138144Y293578D01*
X138242Y293608D01*
X138339Y293642D01*
X138434Y293678D01*
X138528Y293718D01*
X138621Y293761D01*
X138671Y293780D01*
X138719Y293802D01*
X138766Y293829D01*
X138810Y293858D01*
X138852Y293891D01*
X138892Y293926D01*
X138929Y293965D01*
X138963Y294006D01*
X138994Y294049D01*
X139022Y294095D01*
X139046Y294142D01*
X139067Y294191D01*
X139084Y294242D01*
X139098Y294293D01*
X139107Y294346D01*
X139113Y294399D01*
X139115Y294452D01*
X139113Y294505D01*
X139107Y294558D01*
X139098Y294611D01*
X139084Y294662D01*
X139067Y294713D01*
X139046Y294762D01*
X139022Y294809D01*
X138994Y294855D01*
X138963Y294898D01*
X138929Y294939D01*
X138892Y294978D01*
X138852Y295013D01*
X138810Y295046D01*
X138766Y295076D01*
X138719Y295102D01*
X138671Y295124D01*
X138621Y295143D01*
X138621Y295144D02*
X138528Y295187D01*
X138434Y295227D01*
X138339Y295263D01*
X138242Y295297D01*
X138144Y295327D01*
X138046Y295353D01*
X137946Y295376D01*
X137846Y295396D01*
X137745Y295412D01*
X137643Y295424D01*
X137541Y295433D01*
X137439Y295438D01*
X137337Y295440D01*
X137337Y293464D02*
X137235Y293466D01*
X137133Y293471D01*
X137031Y293480D01*
X136929Y293492D01*
X136828Y293508D01*
X136728Y293528D01*
X136628Y293551D01*
X136529Y293577D01*
X136432Y293607D01*
X136335Y293641D01*
X136240Y293677D01*
X136145Y293717D01*
X136053Y293760D01*
X136053Y293761D02*
X136003Y293780D01*
X135955Y293802D01*
X135908Y293829D01*
X135864Y293858D01*
X135822Y293891D01*
X135782Y293926D01*
X135745Y293965D01*
X135711Y294006D01*
X135680Y294049D01*
X135652Y294095D01*
X135628Y294142D01*
X135607Y294191D01*
X135590Y294242D01*
X135576Y294293D01*
X135567Y294346D01*
X135561Y294399D01*
X135559Y294452D01*
X136053Y295144D02*
X136145Y295187D01*
X136240Y295227D01*
X136335Y295263D01*
X136432Y295297D01*
X136529Y295327D01*
X136628Y295353D01*
X136728Y295376D01*
X136828Y295396D01*
X136929Y295412D01*
X137031Y295424D01*
X137133Y295433D01*
X137235Y295438D01*
X137337Y295440D01*
X136053Y295143D02*
X136003Y295124D01*
X135955Y295102D01*
X135908Y295075D01*
X135864Y295046D01*
X135822Y295013D01*
X135782Y294978D01*
X135745Y294939D01*
X135711Y294898D01*
X135680Y294855D01*
X135652Y294809D01*
X135628Y294762D01*
X135607Y294713D01*
X135590Y294662D01*
X135576Y294611D01*
X135567Y294558D01*
X135561Y294505D01*
X135559Y294452D01*
X136349Y293662D02*
X138325Y295243D01*
X135559Y296893D02*
X135559Y298079D01*
X135561Y298133D01*
X135566Y298187D01*
X135576Y298240D01*
X135588Y298292D01*
X135605Y298344D01*
X135624Y298394D01*
X135648Y298442D01*
X135674Y298489D01*
X135704Y298535D01*
X135736Y298578D01*
X135772Y298618D01*
X135810Y298656D01*
X135850Y298692D01*
X135893Y298724D01*
X135939Y298754D01*
X135986Y298780D01*
X136034Y298804D01*
X136084Y298823D01*
X136136Y298840D01*
X136188Y298852D01*
X136241Y298862D01*
X136295Y298867D01*
X136349Y298869D01*
X136744Y298869D01*
X136798Y298867D01*
X136852Y298862D01*
X136905Y298852D01*
X136957Y298840D01*
X137009Y298823D01*
X137059Y298804D01*
X137107Y298780D01*
X137154Y298754D01*
X137200Y298724D01*
X137243Y298692D01*
X137283Y298656D01*
X137321Y298618D01*
X137357Y298578D01*
X137389Y298535D01*
X137419Y298489D01*
X137445Y298442D01*
X137469Y298394D01*
X137488Y298344D01*
X137505Y298292D01*
X137517Y298240D01*
X137527Y298187D01*
X137532Y298133D01*
X137534Y298079D01*
X137535Y298079D02*
X137535Y296893D01*
X139115Y296893D01*
X139115Y298869D01*
D13*
X191502Y305576D02*
X221502Y305576D01*
X221502Y275576D02*
X191502Y275576D01*
X191502Y305576D01*
X221502Y305576D02*
X221502Y275576D01*
X221502Y305576D02*
X191502Y305576D01*
X191502Y275576D02*
X221502Y275576D01*
X191502Y275576D02*
X191502Y305576D01*
X221502Y305576D02*
X221502Y275576D01*
D15*
X219240Y286385D02*
X219240Y293751D01*
X219240Y286385D02*
X215966Y286385D01*
X213160Y292114D02*
X211114Y293751D01*
X211114Y286385D01*
X213160Y286385D02*
X209067Y286385D01*
X205844Y290068D02*
X205842Y290221D01*
X205836Y290374D01*
X205827Y290526D01*
X205813Y290679D01*
X205796Y290831D01*
X205775Y290982D01*
X205750Y291133D01*
X205721Y291283D01*
X205689Y291433D01*
X205652Y291581D01*
X205612Y291729D01*
X205569Y291876D01*
X205521Y292021D01*
X205470Y292165D01*
X205416Y292308D01*
X205357Y292450D01*
X205296Y292589D01*
X205230Y292728D01*
X205204Y292798D01*
X205174Y292867D01*
X205142Y292935D01*
X205105Y293001D01*
X205066Y293065D01*
X205023Y293127D01*
X204978Y293186D01*
X204929Y293244D01*
X204878Y293298D01*
X204824Y293351D01*
X204767Y293400D01*
X204708Y293447D01*
X204647Y293490D01*
X204584Y293531D01*
X204519Y293568D01*
X204452Y293603D01*
X204383Y293633D01*
X204313Y293661D01*
X204242Y293684D01*
X204170Y293705D01*
X204097Y293721D01*
X204023Y293734D01*
X203948Y293744D01*
X203873Y293749D01*
X203798Y293751D01*
X203723Y293749D01*
X203648Y293744D01*
X203573Y293734D01*
X203499Y293721D01*
X203426Y293705D01*
X203354Y293684D01*
X203283Y293661D01*
X203213Y293633D01*
X203144Y293603D01*
X203077Y293568D01*
X203012Y293531D01*
X202949Y293490D01*
X202888Y293447D01*
X202829Y293400D01*
X202772Y293351D01*
X202718Y293298D01*
X202667Y293244D01*
X202619Y293186D01*
X202573Y293127D01*
X202530Y293065D01*
X202491Y293001D01*
X202455Y292935D01*
X202422Y292868D01*
X202392Y292798D01*
X202366Y292728D01*
X202301Y292590D01*
X202239Y292450D01*
X202181Y292308D01*
X202126Y292165D01*
X202075Y292021D01*
X202027Y291876D01*
X201984Y291729D01*
X201944Y291582D01*
X201907Y291433D01*
X201875Y291283D01*
X201846Y291133D01*
X201821Y290982D01*
X201800Y290831D01*
X201783Y290679D01*
X201769Y290526D01*
X201760Y290374D01*
X201754Y290221D01*
X201752Y290068D01*
X205845Y290068D02*
X205843Y289915D01*
X205837Y289762D01*
X205828Y289609D01*
X205814Y289457D01*
X205797Y289305D01*
X205776Y289154D01*
X205751Y289003D01*
X205722Y288852D01*
X205690Y288703D01*
X205653Y288554D01*
X205613Y288407D01*
X205570Y288260D01*
X205522Y288115D01*
X205471Y287970D01*
X205416Y287828D01*
X205358Y287686D01*
X205296Y287546D01*
X205231Y287408D01*
X205230Y287408D02*
X205204Y287338D01*
X205174Y287268D01*
X205142Y287201D01*
X205105Y287135D01*
X205066Y287071D01*
X205023Y287009D01*
X204977Y286950D01*
X204929Y286892D01*
X204878Y286838D01*
X204824Y286785D01*
X204767Y286736D01*
X204708Y286689D01*
X204647Y286646D01*
X204584Y286605D01*
X204519Y286568D01*
X204452Y286533D01*
X204383Y286503D01*
X204313Y286475D01*
X204242Y286452D01*
X204170Y286431D01*
X204097Y286415D01*
X204023Y286402D01*
X203948Y286392D01*
X203873Y286387D01*
X203798Y286385D01*
X202366Y287408D02*
X202301Y287546D01*
X202239Y287686D01*
X202181Y287828D01*
X202126Y287971D01*
X202075Y288115D01*
X202027Y288260D01*
X201984Y288407D01*
X201944Y288555D01*
X201907Y288703D01*
X201875Y288853D01*
X201846Y289003D01*
X201821Y289154D01*
X201800Y289305D01*
X201783Y289457D01*
X201769Y289610D01*
X201760Y289762D01*
X201754Y289915D01*
X201752Y290068D01*
X202366Y287408D02*
X202392Y287337D01*
X202422Y287268D01*
X202455Y287201D01*
X202491Y287135D01*
X202530Y287071D01*
X202573Y287009D01*
X202619Y286950D01*
X202667Y286892D01*
X202718Y286838D01*
X202772Y286785D01*
X202829Y286736D01*
X202888Y286689D01*
X202949Y286646D01*
X203012Y286605D01*
X203077Y286568D01*
X203144Y286533D01*
X203213Y286503D01*
X203283Y286475D01*
X203354Y286452D01*
X203426Y286431D01*
X203499Y286415D01*
X203573Y286402D01*
X203648Y286392D01*
X203723Y286387D01*
X203798Y286385D01*
X205435Y288022D02*
X202161Y292114D01*
X198529Y292114D02*
X196483Y293751D01*
X196483Y286385D01*
X198529Y286385D02*
X194437Y286385D01*
D13*
X133364Y365238D02*
X103364Y365238D01*
X133364Y365238D02*
X133364Y395238D01*
X103364Y395238D01*
X103364Y365238D01*
X133364Y365238D01*
X112364Y395238D02*
X103364Y395238D01*
X124364Y395238D02*
X133364Y395238D01*
D15*
X132511Y378295D02*
X132511Y371501D01*
X132509Y371400D01*
X132503Y371299D01*
X132493Y371198D01*
X132480Y371097D01*
X132462Y370997D01*
X132441Y370898D01*
X132415Y370800D01*
X132386Y370703D01*
X132353Y370607D01*
X132317Y370513D01*
X132277Y370420D01*
X132233Y370328D01*
X132186Y370239D01*
X132135Y370151D01*
X132081Y370065D01*
X132024Y369982D01*
X131963Y369900D01*
X131900Y369821D01*
X131833Y369745D01*
X131763Y369671D01*
X131691Y369600D01*
X131616Y369532D01*
X131538Y369467D01*
X131458Y369405D01*
X131376Y369346D01*
X131291Y369290D01*
X131204Y369238D01*
X131116Y369189D01*
X131025Y369144D01*
X130933Y369102D01*
X130839Y369063D01*
X130744Y369029D01*
X130647Y368998D01*
X130550Y368971D01*
X130451Y368947D01*
X130352Y368928D01*
X130252Y368912D01*
X130151Y368900D01*
X130050Y368892D01*
X129949Y368888D01*
X129847Y368888D01*
X129746Y368892D01*
X129645Y368900D01*
X129544Y368912D01*
X129444Y368928D01*
X129345Y368947D01*
X129246Y368971D01*
X129149Y368998D01*
X129052Y369029D01*
X128957Y369063D01*
X128863Y369102D01*
X128771Y369144D01*
X128680Y369189D01*
X128592Y369238D01*
X128505Y369290D01*
X128420Y369346D01*
X128338Y369405D01*
X128258Y369467D01*
X128180Y369532D01*
X128105Y369600D01*
X128033Y369671D01*
X127963Y369745D01*
X127896Y369821D01*
X127833Y369900D01*
X127772Y369982D01*
X127715Y370065D01*
X127661Y370151D01*
X127610Y370239D01*
X127563Y370328D01*
X127519Y370420D01*
X127479Y370513D01*
X127443Y370607D01*
X127410Y370703D01*
X127381Y370800D01*
X127355Y370898D01*
X127334Y370997D01*
X127316Y371097D01*
X127303Y371198D01*
X127293Y371299D01*
X127287Y371400D01*
X127285Y371501D01*
X127285Y378295D01*
X123054Y376205D02*
X120441Y378295D01*
X120441Y368888D01*
X123054Y368888D02*
X117828Y368888D01*
D16*
X125250Y103500D02*
X125250Y23500D01*
X119888Y23500D01*
X65250Y23500D02*
X65250Y103500D01*
X70612Y103500D01*
X81788Y104140D02*
X83312Y104140D01*
X94488Y104140D02*
X96012Y104140D01*
X107188Y104140D02*
X108712Y104140D01*
X119888Y103500D02*
X125250Y103500D01*
X108712Y22860D02*
X107188Y22860D01*
X96012Y22860D02*
X94488Y22860D01*
X83312Y22860D02*
X81788Y22860D01*
X70612Y23500D02*
X65250Y23500D01*
X63500Y112268D02*
X63554Y112270D01*
X63608Y112276D01*
X63662Y112285D01*
X63715Y112299D01*
X63766Y112316D01*
X63817Y112337D01*
X63865Y112361D01*
X63912Y112389D01*
X63957Y112420D01*
X63999Y112454D01*
X64039Y112491D01*
X64076Y112531D01*
X64110Y112573D01*
X64141Y112618D01*
X64169Y112665D01*
X64193Y112713D01*
X64214Y112764D01*
X64231Y112815D01*
X64245Y112868D01*
X64254Y112922D01*
X64260Y112976D01*
X64262Y113030D01*
X64260Y113084D01*
X64254Y113138D01*
X64245Y113192D01*
X64231Y113245D01*
X64214Y113296D01*
X64193Y113347D01*
X64169Y113395D01*
X64141Y113442D01*
X64110Y113487D01*
X64076Y113529D01*
X64039Y113569D01*
X63999Y113606D01*
X63957Y113640D01*
X63912Y113671D01*
X63865Y113699D01*
X63817Y113723D01*
X63766Y113744D01*
X63715Y113761D01*
X63662Y113775D01*
X63608Y113784D01*
X63554Y113790D01*
X63500Y113792D01*
X63446Y113790D01*
X63392Y113784D01*
X63338Y113775D01*
X63285Y113761D01*
X63234Y113744D01*
X63183Y113723D01*
X63135Y113699D01*
X63088Y113671D01*
X63043Y113640D01*
X63001Y113606D01*
X62961Y113569D01*
X62924Y113529D01*
X62890Y113487D01*
X62859Y113442D01*
X62831Y113395D01*
X62807Y113347D01*
X62786Y113296D01*
X62769Y113245D01*
X62755Y113192D01*
X62746Y113138D01*
X62740Y113084D01*
X62738Y113030D01*
X62740Y112976D01*
X62746Y112922D01*
X62755Y112868D01*
X62769Y112815D01*
X62786Y112764D01*
X62807Y112713D01*
X62831Y112665D01*
X62859Y112618D01*
X62890Y112573D01*
X62924Y112531D01*
X62961Y112491D01*
X63001Y112454D01*
X63043Y112420D01*
X63088Y112389D01*
X63135Y112361D01*
X63183Y112337D01*
X63234Y112316D01*
X63285Y112299D01*
X63338Y112285D01*
X63392Y112276D01*
X63446Y112270D01*
X63500Y112268D01*
X125250Y103500D02*
X125250Y23500D01*
X65250Y23500D01*
X65250Y103500D01*
X125250Y103500D01*
X63500Y112014D02*
X63554Y112016D01*
X63608Y112022D01*
X63662Y112031D01*
X63715Y112045D01*
X63766Y112062D01*
X63817Y112083D01*
X63865Y112107D01*
X63912Y112135D01*
X63957Y112166D01*
X63999Y112200D01*
X64039Y112237D01*
X64076Y112277D01*
X64110Y112319D01*
X64141Y112364D01*
X64169Y112411D01*
X64193Y112459D01*
X64214Y112510D01*
X64231Y112561D01*
X64245Y112614D01*
X64254Y112668D01*
X64260Y112722D01*
X64262Y112776D01*
X64260Y112830D01*
X64254Y112884D01*
X64245Y112938D01*
X64231Y112991D01*
X64214Y113042D01*
X64193Y113093D01*
X64169Y113141D01*
X64141Y113188D01*
X64110Y113233D01*
X64076Y113275D01*
X64039Y113315D01*
X63999Y113352D01*
X63957Y113386D01*
X63912Y113417D01*
X63865Y113445D01*
X63817Y113469D01*
X63766Y113490D01*
X63715Y113507D01*
X63662Y113521D01*
X63608Y113530D01*
X63554Y113536D01*
X63500Y113538D01*
X63446Y113536D01*
X63392Y113530D01*
X63338Y113521D01*
X63285Y113507D01*
X63234Y113490D01*
X63183Y113469D01*
X63135Y113445D01*
X63088Y113417D01*
X63043Y113386D01*
X63001Y113352D01*
X62961Y113315D01*
X62924Y113275D01*
X62890Y113233D01*
X62859Y113188D01*
X62831Y113141D01*
X62807Y113093D01*
X62786Y113042D01*
X62769Y112991D01*
X62755Y112938D01*
X62746Y112884D01*
X62740Y112830D01*
X62738Y112776D01*
X62740Y112722D01*
X62746Y112668D01*
X62755Y112614D01*
X62769Y112561D01*
X62786Y112510D01*
X62807Y112459D01*
X62831Y112411D01*
X62859Y112364D01*
X62890Y112319D01*
X62924Y112277D01*
X62961Y112237D01*
X63001Y112200D01*
X63043Y112166D01*
X63088Y112135D01*
X63135Y112107D01*
X63183Y112083D01*
X63234Y112062D01*
X63285Y112045D01*
X63338Y112031D01*
X63392Y112022D01*
X63446Y112016D01*
X63500Y112014D01*
D15*
X98947Y56515D02*
X107569Y56515D01*
X98947Y56515D02*
X98833Y56517D01*
X98718Y56523D01*
X98604Y56533D01*
X98491Y56547D01*
X98377Y56564D01*
X98265Y56586D01*
X98153Y56611D01*
X98043Y56641D01*
X97933Y56674D01*
X97825Y56711D01*
X97718Y56751D01*
X97612Y56796D01*
X97508Y56843D01*
X97406Y56895D01*
X97306Y56950D01*
X97207Y57008D01*
X97111Y57070D01*
X97016Y57135D01*
X96925Y57203D01*
X96835Y57275D01*
X96748Y57349D01*
X96664Y57426D01*
X96582Y57507D01*
X96503Y57590D01*
X96427Y57675D01*
X96354Y57764D01*
X96285Y57854D01*
X96218Y57947D01*
X96155Y58043D01*
X96095Y58140D01*
X96038Y58240D01*
X95985Y58341D01*
X95935Y58444D01*
X95889Y58549D01*
X95846Y58655D01*
X95808Y58763D01*
X95773Y58872D01*
X95742Y58982D01*
X95714Y59093D01*
X95691Y59205D01*
X95671Y59318D01*
X95655Y59431D01*
X95643Y59545D01*
X95635Y59659D01*
X95631Y59774D01*
X95631Y59888D01*
X95635Y60003D01*
X95643Y60117D01*
X95655Y60231D01*
X95671Y60344D01*
X95691Y60457D01*
X95714Y60569D01*
X95742Y60680D01*
X95773Y60790D01*
X95808Y60899D01*
X95846Y61007D01*
X95889Y61113D01*
X95935Y61218D01*
X95985Y61321D01*
X96038Y61422D01*
X96095Y61522D01*
X96155Y61619D01*
X96218Y61715D01*
X96285Y61808D01*
X96354Y61898D01*
X96427Y61987D01*
X96503Y62072D01*
X96582Y62155D01*
X96664Y62236D01*
X96748Y62313D01*
X96835Y62387D01*
X96925Y62459D01*
X97016Y62527D01*
X97111Y62592D01*
X97207Y62654D01*
X97306Y62712D01*
X97406Y62767D01*
X97508Y62819D01*
X97612Y62866D01*
X97718Y62911D01*
X97825Y62951D01*
X97933Y62988D01*
X98043Y63021D01*
X98153Y63051D01*
X98265Y63076D01*
X98377Y63098D01*
X98491Y63115D01*
X98604Y63129D01*
X98718Y63139D01*
X98833Y63145D01*
X98947Y63147D01*
X107569Y63147D01*
X107570Y71974D02*
X107568Y72081D01*
X107562Y72187D01*
X107553Y72293D01*
X107540Y72399D01*
X107523Y72504D01*
X107502Y72609D01*
X107477Y72712D01*
X107449Y72815D01*
X107417Y72917D01*
X107382Y73017D01*
X107343Y73116D01*
X107300Y73214D01*
X107254Y73310D01*
X107205Y73405D01*
X107152Y73497D01*
X107096Y73588D01*
X107037Y73676D01*
X106975Y73763D01*
X106909Y73847D01*
X106841Y73929D01*
X106770Y74008D01*
X106696Y74085D01*
X106619Y74159D01*
X106540Y74230D01*
X106458Y74298D01*
X106374Y74364D01*
X106287Y74426D01*
X106199Y74485D01*
X106108Y74541D01*
X106016Y74594D01*
X105921Y74643D01*
X105825Y74689D01*
X105727Y74732D01*
X105628Y74771D01*
X105528Y74806D01*
X105426Y74838D01*
X105323Y74866D01*
X105220Y74891D01*
X105115Y74912D01*
X105010Y74929D01*
X104904Y74942D01*
X104798Y74951D01*
X104692Y74957D01*
X104585Y74959D01*
X107569Y71974D02*
X107567Y71853D01*
X107561Y71733D01*
X107552Y71613D01*
X107539Y71493D01*
X107522Y71374D01*
X107501Y71255D01*
X107477Y71137D01*
X107448Y71020D01*
X107417Y70904D01*
X107381Y70788D01*
X107342Y70674D01*
X107299Y70562D01*
X107253Y70450D01*
X107204Y70340D01*
X107150Y70232D01*
X107094Y70126D01*
X107034Y70021D01*
X106971Y69918D01*
X106905Y69818D01*
X106836Y69719D01*
X106763Y69623D01*
X106688Y69529D01*
X106610Y69437D01*
X106528Y69348D01*
X106444Y69261D01*
X106358Y69178D01*
X106269Y69096D01*
X106177Y69018D01*
X106083Y68943D01*
X105986Y68871D01*
X105888Y68801D01*
X105787Y68735D01*
X105684Y68672D01*
X105579Y68613D01*
X105473Y68556D01*
X105364Y68503D01*
X105255Y68454D01*
X105143Y68408D01*
X105030Y68365D01*
X104916Y68327D01*
X102263Y73964D02*
X102343Y74044D01*
X102425Y74122D01*
X102509Y74196D01*
X102597Y74268D01*
X102687Y74336D01*
X102779Y74402D01*
X102873Y74464D01*
X102969Y74522D01*
X103068Y74577D01*
X103168Y74629D01*
X103270Y74677D01*
X103374Y74722D01*
X103479Y74762D01*
X103586Y74799D01*
X103694Y74833D01*
X103803Y74862D01*
X103913Y74888D01*
X104024Y74909D01*
X104135Y74927D01*
X104247Y74941D01*
X104359Y74951D01*
X104472Y74957D01*
X104585Y74959D01*
X102263Y73963D02*
X95631Y68326D01*
X95631Y74958D01*
D11*
X118000Y160600D02*
X118000Y169600D01*
X118000Y160600D02*
X136000Y160600D01*
X136000Y169600D01*
X118000Y169600D01*
D12*
X123064Y163592D02*
X123684Y163592D01*
X123733Y163594D01*
X123781Y163600D01*
X123829Y163609D01*
X123876Y163622D01*
X123922Y163639D01*
X123966Y163660D01*
X124008Y163684D01*
X124049Y163711D01*
X124087Y163741D01*
X124123Y163774D01*
X124156Y163810D01*
X124186Y163848D01*
X124213Y163889D01*
X124237Y163931D01*
X124258Y163975D01*
X124275Y164021D01*
X124288Y164068D01*
X124297Y164116D01*
X124303Y164164D01*
X124305Y164213D01*
X124305Y165765D01*
X124303Y165814D01*
X124297Y165862D01*
X124288Y165910D01*
X124275Y165957D01*
X124258Y166003D01*
X124237Y166047D01*
X124213Y166089D01*
X124186Y166130D01*
X124156Y166168D01*
X124123Y166204D01*
X124087Y166237D01*
X124049Y166267D01*
X124008Y166294D01*
X123966Y166318D01*
X123922Y166339D01*
X123876Y166356D01*
X123829Y166369D01*
X123781Y166378D01*
X123733Y166384D01*
X123684Y166386D01*
X123064Y166386D01*
X122011Y165765D02*
X121235Y166386D01*
X121235Y163592D01*
X122011Y163592D02*
X120459Y163592D01*
D13*
X71798Y380158D02*
X71798Y395558D01*
X71798Y380158D02*
X61298Y380158D01*
X61298Y395558D01*
X71798Y395558D01*
D19*
X72048Y392858D02*
X74048Y391858D01*
X74048Y393858D01*
X72048Y392858D01*
D13*
X71798Y395558D02*
X71798Y380158D01*
X61298Y380158D01*
X61298Y395558D01*
X71798Y395558D01*
D10*
X72244Y383502D02*
X68278Y383502D01*
X68201Y383504D01*
X68124Y383510D01*
X68047Y383520D01*
X67971Y383533D01*
X67896Y383551D01*
X67821Y383572D01*
X67748Y383597D01*
X67676Y383626D01*
X67606Y383658D01*
X67537Y383694D01*
X67471Y383733D01*
X67406Y383776D01*
X67344Y383821D01*
X67284Y383870D01*
X67227Y383922D01*
X67172Y383977D01*
X67120Y384034D01*
X67071Y384094D01*
X67026Y384156D01*
X66983Y384221D01*
X66944Y384287D01*
X66908Y384356D01*
X66876Y384426D01*
X66847Y384498D01*
X66822Y384571D01*
X66801Y384646D01*
X66783Y384721D01*
X66770Y384797D01*
X66760Y384874D01*
X66754Y384951D01*
X66752Y385028D01*
X66754Y385105D01*
X66760Y385182D01*
X66770Y385259D01*
X66783Y385335D01*
X66801Y385410D01*
X66822Y385485D01*
X66847Y385558D01*
X66876Y385630D01*
X66908Y385700D01*
X66944Y385769D01*
X66983Y385835D01*
X67026Y385900D01*
X67071Y385962D01*
X67120Y386022D01*
X67172Y386079D01*
X67227Y386134D01*
X67284Y386186D01*
X67344Y386235D01*
X67406Y386280D01*
X67471Y386323D01*
X67537Y386362D01*
X67606Y386398D01*
X67676Y386430D01*
X67748Y386459D01*
X67821Y386484D01*
X67896Y386505D01*
X67971Y386523D01*
X68047Y386536D01*
X68124Y386546D01*
X68201Y386552D01*
X68278Y386554D01*
X68278Y386553D02*
X72244Y386553D01*
X72244Y390302D02*
X67972Y389082D01*
X67972Y392133D01*
X69193Y391218D02*
X66752Y391218D01*
D11*
X55300Y384700D02*
X46300Y384700D01*
X55300Y384700D02*
X55300Y402700D01*
X46300Y402700D01*
X46300Y384700D01*
D12*
X49514Y387780D02*
X49514Y388401D01*
X49514Y387780D02*
X49516Y387731D01*
X49522Y387683D01*
X49531Y387635D01*
X49544Y387588D01*
X49561Y387542D01*
X49582Y387498D01*
X49606Y387456D01*
X49633Y387415D01*
X49663Y387377D01*
X49696Y387341D01*
X49732Y387308D01*
X49770Y387278D01*
X49811Y387251D01*
X49853Y387227D01*
X49897Y387206D01*
X49943Y387189D01*
X49990Y387176D01*
X50038Y387167D01*
X50086Y387161D01*
X50135Y387159D01*
X51687Y387159D01*
X51736Y387161D01*
X51784Y387167D01*
X51832Y387176D01*
X51879Y387189D01*
X51925Y387206D01*
X51969Y387227D01*
X52011Y387251D01*
X52052Y387278D01*
X52090Y387308D01*
X52126Y387341D01*
X52159Y387377D01*
X52189Y387415D01*
X52216Y387456D01*
X52240Y387498D01*
X52261Y387542D01*
X52278Y387588D01*
X52291Y387635D01*
X52300Y387683D01*
X52306Y387731D01*
X52308Y387780D01*
X52308Y388401D01*
X52309Y390307D02*
X52307Y390357D01*
X52302Y390406D01*
X52293Y390456D01*
X52281Y390504D01*
X52265Y390551D01*
X52246Y390597D01*
X52223Y390642D01*
X52198Y390685D01*
X52170Y390726D01*
X52138Y390765D01*
X52104Y390801D01*
X52068Y390835D01*
X52029Y390867D01*
X51988Y390895D01*
X51945Y390920D01*
X51900Y390943D01*
X51854Y390962D01*
X51807Y390978D01*
X51759Y390990D01*
X51709Y390999D01*
X51660Y391004D01*
X51610Y391006D01*
X52308Y390307D02*
X52306Y390251D01*
X52301Y390194D01*
X52292Y390139D01*
X52280Y390084D01*
X52264Y390030D01*
X52245Y389977D01*
X52223Y389925D01*
X52197Y389875D01*
X52168Y389826D01*
X52136Y389779D01*
X52102Y389735D01*
X52065Y389693D01*
X52025Y389653D01*
X51982Y389615D01*
X51938Y389581D01*
X51891Y389549D01*
X51843Y389521D01*
X51792Y389495D01*
X51740Y389473D01*
X51687Y389454D01*
X51067Y390772D02*
X51103Y390808D01*
X51141Y390841D01*
X51182Y390871D01*
X51225Y390898D01*
X51269Y390923D01*
X51315Y390944D01*
X51362Y390963D01*
X51410Y390978D01*
X51459Y390990D01*
X51509Y390998D01*
X51559Y391003D01*
X51610Y391005D01*
X51066Y390773D02*
X49514Y389453D01*
X49514Y391005D01*
D17*
X0Y19050D02*
X73Y17390D01*
X289Y15742D01*
X649Y14120D01*
X1149Y12535D01*
X1785Y10999D01*
X2552Y9525D01*
X3445Y8123D01*
X4457Y6805D01*
X5580Y5580D01*
X6805Y4457D01*
X8123Y3445D01*
X9525Y2552D01*
X10999Y1785D01*
X12535Y1149D01*
X14120Y649D01*
X15742Y289D01*
X17390Y73D01*
X19050Y0D01*
X361950Y0D01*
X363610Y73D01*
X365258Y289D01*
X366881Y649D01*
X368465Y1149D01*
X370001Y1785D01*
X371475Y2552D01*
X372877Y3445D01*
X374195Y4457D01*
X375420Y5580D01*
X376543Y6805D01*
X377555Y8123D01*
X378448Y9525D01*
X379215Y10999D01*
X379851Y12535D01*
X380351Y14120D01*
X380711Y15742D01*
X380928Y17390D01*
X381000Y19050D01*
X381000Y444500D01*
X381192Y446449D01*
X381214Y448408D01*
X381064Y450360D01*
X380746Y452293D01*
X380260Y454190D01*
X379610Y456038D01*
X378802Y457822D01*
X377841Y459529D01*
X376736Y461145D01*
X375493Y462660D01*
X374124Y464060D01*
X372637Y465335D01*
X371045Y466476D01*
X369360Y467474D01*
X367594Y468321D01*
X365761Y469011D01*
X363875Y469539D01*
X361950Y469900D01*
X25400Y469900D01*
X23186Y469803D01*
X20989Y469514D01*
X18826Y469035D01*
X16713Y468368D01*
X14666Y467520D01*
X12700Y466497D01*
X10831Y465306D01*
X9073Y463958D01*
X7440Y462461D01*
X5942Y460827D01*
X4594Y459069D01*
X3403Y457200D01*
X2380Y455235D01*
X1532Y453187D01*
X865Y451074D01*
X386Y448911D01*
X97Y446714D01*
X0Y444500D01*
X0Y19050D01*
M02*
