G04 EAGLE Gerber RS-274X export*
G75*
%MOMM*%
%FSLAX34Y34*%
%LPD*%
%INReference Designators Top*%
%IPPOS*%
%AMOC8*
5,1,8,0,0,1.08239X$1,22.5*%
G01*
%ADD10C,0.050800*%
%ADD11C,0.050000*%
%ADD12C,0.025400*%
%ADD13C,0.076200*%
%ADD14C,0.127000*%
%ADD15C,0.203200*%
%ADD16C,0.101600*%
%ADD17C,0.152400*%
%ADD18C,0.254000*%


D10*
X344434Y319422D02*
X377434Y319422D01*
X377434Y337422D01*
X344434Y337422D01*
X344434Y319422D01*
X350230Y325806D02*
X351472Y325806D01*
X350230Y325806D02*
X350160Y325808D01*
X350091Y325814D01*
X350022Y325824D01*
X349954Y325837D01*
X349886Y325855D01*
X349820Y325876D01*
X349755Y325901D01*
X349691Y325929D01*
X349629Y325961D01*
X349569Y325996D01*
X349511Y326035D01*
X349456Y326077D01*
X349402Y326122D01*
X349352Y326170D01*
X349304Y326220D01*
X349259Y326274D01*
X349217Y326329D01*
X349178Y326387D01*
X349143Y326447D01*
X349111Y326509D01*
X349083Y326573D01*
X349058Y326638D01*
X349037Y326704D01*
X349019Y326772D01*
X349006Y326840D01*
X348996Y326909D01*
X348990Y326978D01*
X348988Y327048D01*
X348988Y330152D01*
X348990Y330222D01*
X348996Y330291D01*
X349006Y330360D01*
X349019Y330428D01*
X349037Y330496D01*
X349058Y330562D01*
X349083Y330627D01*
X349111Y330691D01*
X349143Y330753D01*
X349178Y330813D01*
X349217Y330871D01*
X349259Y330926D01*
X349304Y330980D01*
X349352Y331030D01*
X349402Y331078D01*
X349456Y331123D01*
X349511Y331165D01*
X349569Y331204D01*
X349629Y331239D01*
X349691Y331271D01*
X349755Y331299D01*
X349820Y331324D01*
X349886Y331345D01*
X349954Y331363D01*
X350022Y331376D01*
X350091Y331386D01*
X350160Y331392D01*
X350230Y331394D01*
X351472Y331394D01*
X353576Y330152D02*
X355128Y331394D01*
X355128Y325806D01*
X353576Y325806D02*
X356681Y325806D01*
X359063Y330152D02*
X360615Y331394D01*
X360615Y325806D01*
X359063Y325806D02*
X362167Y325806D01*
X364549Y325806D02*
X366412Y325806D01*
X366482Y325808D01*
X366551Y325814D01*
X366620Y325824D01*
X366688Y325837D01*
X366756Y325855D01*
X366822Y325876D01*
X366887Y325901D01*
X366951Y325929D01*
X367013Y325961D01*
X367073Y325996D01*
X367131Y326035D01*
X367186Y326077D01*
X367240Y326122D01*
X367290Y326170D01*
X367338Y326220D01*
X367383Y326274D01*
X367425Y326329D01*
X367464Y326387D01*
X367499Y326447D01*
X367531Y326509D01*
X367559Y326573D01*
X367584Y326638D01*
X367605Y326704D01*
X367623Y326772D01*
X367636Y326840D01*
X367646Y326909D01*
X367652Y326978D01*
X367654Y327048D01*
X367653Y327048D02*
X367653Y327669D01*
X367654Y327669D02*
X367652Y327739D01*
X367646Y327808D01*
X367636Y327877D01*
X367623Y327945D01*
X367605Y328013D01*
X367584Y328079D01*
X367559Y328144D01*
X367531Y328208D01*
X367499Y328270D01*
X367464Y328330D01*
X367425Y328388D01*
X367383Y328443D01*
X367338Y328497D01*
X367290Y328547D01*
X367240Y328595D01*
X367186Y328640D01*
X367131Y328682D01*
X367073Y328721D01*
X367013Y328756D01*
X366951Y328788D01*
X366887Y328816D01*
X366822Y328841D01*
X366756Y328862D01*
X366688Y328880D01*
X366620Y328893D01*
X366551Y328903D01*
X366482Y328909D01*
X366412Y328911D01*
X366412Y328910D02*
X364549Y328910D01*
X364549Y331394D01*
X367653Y331394D01*
D11*
X355490Y192460D02*
X355490Y183460D01*
X355490Y192460D02*
X373490Y192460D01*
X373490Y183460D01*
X355490Y183460D01*
D12*
X358570Y186674D02*
X359191Y186674D01*
X358570Y186674D02*
X358521Y186676D01*
X358473Y186682D01*
X358425Y186691D01*
X358378Y186704D01*
X358332Y186721D01*
X358288Y186742D01*
X358246Y186766D01*
X358205Y186793D01*
X358167Y186823D01*
X358131Y186856D01*
X358098Y186892D01*
X358068Y186930D01*
X358041Y186971D01*
X358017Y187013D01*
X357996Y187057D01*
X357979Y187103D01*
X357966Y187150D01*
X357957Y187198D01*
X357951Y187246D01*
X357949Y187295D01*
X357949Y188847D01*
X357951Y188896D01*
X357957Y188944D01*
X357966Y188992D01*
X357979Y189039D01*
X357996Y189085D01*
X358017Y189129D01*
X358041Y189171D01*
X358068Y189212D01*
X358098Y189250D01*
X358131Y189286D01*
X358167Y189319D01*
X358205Y189349D01*
X358246Y189376D01*
X358288Y189400D01*
X358332Y189421D01*
X358378Y189438D01*
X358425Y189451D01*
X358473Y189460D01*
X358521Y189466D01*
X358570Y189468D01*
X359191Y189468D01*
X360243Y188847D02*
X361019Y189468D01*
X361019Y186674D01*
X360243Y186674D02*
X361795Y186674D01*
X362986Y188071D02*
X362988Y188166D01*
X362994Y188261D01*
X363004Y188355D01*
X363017Y188449D01*
X363035Y188542D01*
X363056Y188635D01*
X363081Y188727D01*
X363110Y188817D01*
X363143Y188906D01*
X363179Y188994D01*
X363219Y189080D01*
X363235Y189122D01*
X363254Y189162D01*
X363277Y189200D01*
X363302Y189237D01*
X363330Y189272D01*
X363360Y189304D01*
X363393Y189334D01*
X363428Y189361D01*
X363466Y189386D01*
X363505Y189407D01*
X363545Y189425D01*
X363587Y189441D01*
X363630Y189453D01*
X363673Y189461D01*
X363718Y189466D01*
X363762Y189468D01*
X363806Y189466D01*
X363851Y189461D01*
X363894Y189453D01*
X363937Y189441D01*
X363979Y189425D01*
X364019Y189407D01*
X364058Y189386D01*
X364096Y189361D01*
X364131Y189334D01*
X364164Y189304D01*
X364194Y189272D01*
X364222Y189237D01*
X364247Y189200D01*
X364270Y189162D01*
X364289Y189122D01*
X364305Y189080D01*
X364345Y188994D01*
X364381Y188906D01*
X364414Y188817D01*
X364443Y188726D01*
X364468Y188635D01*
X364489Y188542D01*
X364507Y188449D01*
X364520Y188355D01*
X364530Y188261D01*
X364536Y188166D01*
X364538Y188071D01*
X362986Y188071D02*
X362988Y187976D01*
X362994Y187881D01*
X363004Y187787D01*
X363017Y187693D01*
X363035Y187600D01*
X363056Y187507D01*
X363081Y187416D01*
X363110Y187325D01*
X363143Y187236D01*
X363179Y187148D01*
X363219Y187062D01*
X363235Y187020D01*
X363254Y186980D01*
X363277Y186942D01*
X363302Y186905D01*
X363330Y186870D01*
X363360Y186838D01*
X363393Y186808D01*
X363428Y186781D01*
X363466Y186756D01*
X363505Y186735D01*
X363545Y186717D01*
X363587Y186701D01*
X363630Y186689D01*
X363673Y186681D01*
X363718Y186676D01*
X363762Y186674D01*
X364306Y187062D02*
X364346Y187148D01*
X364382Y187236D01*
X364415Y187325D01*
X364444Y187415D01*
X364469Y187507D01*
X364490Y187600D01*
X364508Y187693D01*
X364521Y187787D01*
X364531Y187881D01*
X364537Y187976D01*
X364539Y188071D01*
X364305Y187062D02*
X364289Y187020D01*
X364270Y186980D01*
X364247Y186942D01*
X364222Y186905D01*
X364194Y186870D01*
X364164Y186838D01*
X364131Y186808D01*
X364096Y186781D01*
X364058Y186756D01*
X364019Y186735D01*
X363979Y186717D01*
X363937Y186701D01*
X363894Y186689D01*
X363851Y186681D01*
X363806Y186676D01*
X363762Y186674D01*
X363142Y187295D02*
X364383Y188847D01*
X365730Y187450D02*
X365732Y187505D01*
X365738Y187560D01*
X365748Y187615D01*
X365761Y187669D01*
X365779Y187721D01*
X365800Y187772D01*
X365825Y187822D01*
X365853Y187870D01*
X365885Y187915D01*
X365920Y187958D01*
X365957Y187999D01*
X365998Y188036D01*
X366041Y188071D01*
X366086Y188103D01*
X366134Y188131D01*
X366184Y188156D01*
X366235Y188177D01*
X366287Y188195D01*
X366341Y188208D01*
X366396Y188218D01*
X366451Y188224D01*
X366506Y188226D01*
X366561Y188224D01*
X366616Y188218D01*
X366671Y188208D01*
X366725Y188195D01*
X366777Y188177D01*
X366828Y188156D01*
X366878Y188131D01*
X366926Y188103D01*
X366971Y188071D01*
X367014Y188036D01*
X367055Y187999D01*
X367092Y187958D01*
X367127Y187915D01*
X367159Y187870D01*
X367187Y187822D01*
X367212Y187772D01*
X367233Y187721D01*
X367251Y187669D01*
X367264Y187615D01*
X367274Y187560D01*
X367280Y187505D01*
X367282Y187450D01*
X367280Y187395D01*
X367274Y187340D01*
X367264Y187285D01*
X367251Y187231D01*
X367233Y187179D01*
X367212Y187128D01*
X367187Y187078D01*
X367159Y187030D01*
X367127Y186985D01*
X367092Y186942D01*
X367055Y186901D01*
X367014Y186864D01*
X366971Y186829D01*
X366926Y186797D01*
X366878Y186769D01*
X366828Y186744D01*
X366777Y186723D01*
X366725Y186705D01*
X366671Y186692D01*
X366616Y186682D01*
X366561Y186676D01*
X366506Y186674D01*
X366451Y186676D01*
X366396Y186682D01*
X366341Y186692D01*
X366287Y186705D01*
X366235Y186723D01*
X366184Y186744D01*
X366134Y186769D01*
X366086Y186797D01*
X366041Y186829D01*
X365998Y186864D01*
X365957Y186901D01*
X365920Y186942D01*
X365885Y186985D01*
X365853Y187030D01*
X365825Y187078D01*
X365800Y187128D01*
X365779Y187179D01*
X365761Y187231D01*
X365748Y187285D01*
X365738Y187340D01*
X365732Y187395D01*
X365730Y187450D01*
X365885Y188847D02*
X365887Y188896D01*
X365893Y188944D01*
X365902Y188992D01*
X365915Y189039D01*
X365932Y189085D01*
X365953Y189129D01*
X365977Y189171D01*
X366004Y189212D01*
X366034Y189250D01*
X366067Y189286D01*
X366103Y189319D01*
X366141Y189349D01*
X366182Y189376D01*
X366224Y189400D01*
X366268Y189421D01*
X366314Y189438D01*
X366361Y189451D01*
X366409Y189460D01*
X366457Y189466D01*
X366506Y189468D01*
X366555Y189466D01*
X366603Y189460D01*
X366651Y189451D01*
X366698Y189438D01*
X366744Y189421D01*
X366788Y189400D01*
X366830Y189376D01*
X366871Y189349D01*
X366909Y189319D01*
X366945Y189286D01*
X366978Y189250D01*
X367008Y189212D01*
X367035Y189171D01*
X367059Y189129D01*
X367080Y189085D01*
X367097Y189039D01*
X367110Y188992D01*
X367119Y188944D01*
X367125Y188896D01*
X367127Y188847D01*
X367125Y188798D01*
X367119Y188750D01*
X367110Y188702D01*
X367097Y188655D01*
X367080Y188609D01*
X367059Y188565D01*
X367035Y188523D01*
X367008Y188482D01*
X366978Y188444D01*
X366945Y188408D01*
X366909Y188375D01*
X366871Y188345D01*
X366830Y188318D01*
X366788Y188294D01*
X366744Y188273D01*
X366698Y188256D01*
X366651Y188243D01*
X366603Y188234D01*
X366555Y188228D01*
X366506Y188226D01*
X366457Y188228D01*
X366409Y188234D01*
X366361Y188243D01*
X366314Y188256D01*
X366268Y188273D01*
X366224Y188294D01*
X366182Y188318D01*
X366141Y188345D01*
X366103Y188375D01*
X366067Y188408D01*
X366034Y188444D01*
X366004Y188482D01*
X365977Y188523D01*
X365953Y188565D01*
X365932Y188609D01*
X365915Y188655D01*
X365902Y188702D01*
X365893Y188750D01*
X365887Y188798D01*
X365885Y188847D01*
D10*
X373236Y195336D02*
X373236Y228336D01*
X355236Y228336D01*
X355236Y195336D01*
X373236Y195336D01*
X367868Y204688D02*
X367868Y205930D01*
X367868Y204688D02*
X367866Y204618D01*
X367860Y204549D01*
X367850Y204480D01*
X367837Y204412D01*
X367819Y204344D01*
X367798Y204278D01*
X367773Y204213D01*
X367745Y204149D01*
X367713Y204087D01*
X367678Y204027D01*
X367639Y203969D01*
X367597Y203914D01*
X367552Y203860D01*
X367504Y203810D01*
X367454Y203762D01*
X367400Y203717D01*
X367345Y203675D01*
X367287Y203636D01*
X367227Y203601D01*
X367165Y203569D01*
X367101Y203541D01*
X367036Y203516D01*
X366970Y203495D01*
X366902Y203477D01*
X366834Y203464D01*
X366765Y203454D01*
X366696Y203448D01*
X366626Y203446D01*
X363522Y203446D01*
X363452Y203448D01*
X363383Y203454D01*
X363314Y203464D01*
X363246Y203477D01*
X363178Y203495D01*
X363112Y203516D01*
X363047Y203541D01*
X362983Y203569D01*
X362921Y203601D01*
X362861Y203636D01*
X362803Y203675D01*
X362748Y203717D01*
X362694Y203762D01*
X362644Y203810D01*
X362596Y203860D01*
X362551Y203914D01*
X362509Y203969D01*
X362470Y204027D01*
X362435Y204087D01*
X362403Y204149D01*
X362375Y204213D01*
X362350Y204278D01*
X362329Y204344D01*
X362311Y204412D01*
X362298Y204480D01*
X362288Y204549D01*
X362282Y204618D01*
X362280Y204688D01*
X362280Y205930D01*
X363522Y208034D02*
X362280Y209586D01*
X367868Y209586D01*
X367868Y208034D02*
X367868Y211139D01*
X363522Y213521D02*
X362280Y215073D01*
X367868Y215073D01*
X367868Y213521D02*
X367868Y216625D01*
X365074Y219007D02*
X364943Y219009D01*
X364813Y219014D01*
X364683Y219024D01*
X364553Y219037D01*
X364423Y219053D01*
X364294Y219073D01*
X364166Y219097D01*
X364039Y219125D01*
X363912Y219156D01*
X363786Y219191D01*
X363661Y219229D01*
X363537Y219271D01*
X363415Y219316D01*
X363294Y219365D01*
X363174Y219417D01*
X363056Y219473D01*
X363056Y219472D02*
X362996Y219495D01*
X362936Y219521D01*
X362879Y219550D01*
X362823Y219583D01*
X362769Y219619D01*
X362717Y219657D01*
X362667Y219699D01*
X362620Y219743D01*
X362575Y219790D01*
X362533Y219840D01*
X362494Y219891D01*
X362458Y219945D01*
X362425Y220001D01*
X362395Y220058D01*
X362368Y220117D01*
X362345Y220178D01*
X362325Y220239D01*
X362309Y220302D01*
X362296Y220366D01*
X362287Y220430D01*
X362282Y220494D01*
X362280Y220559D01*
X362282Y220624D01*
X362287Y220688D01*
X362296Y220752D01*
X362309Y220816D01*
X362325Y220879D01*
X362345Y220940D01*
X362368Y221001D01*
X362395Y221060D01*
X362425Y221117D01*
X362458Y221173D01*
X362494Y221227D01*
X362533Y221278D01*
X362575Y221328D01*
X362620Y221375D01*
X362667Y221419D01*
X362717Y221461D01*
X362769Y221499D01*
X362823Y221535D01*
X362879Y221568D01*
X362936Y221597D01*
X362996Y221623D01*
X363056Y221646D01*
X363174Y221702D01*
X363294Y221754D01*
X363415Y221803D01*
X363537Y221848D01*
X363661Y221890D01*
X363786Y221928D01*
X363912Y221963D01*
X364038Y221994D01*
X364166Y222022D01*
X364294Y222046D01*
X364423Y222066D01*
X364553Y222082D01*
X364683Y222095D01*
X364813Y222105D01*
X364943Y222110D01*
X365074Y222112D01*
X365074Y219007D02*
X365205Y219009D01*
X365335Y219014D01*
X365465Y219024D01*
X365595Y219037D01*
X365725Y219053D01*
X365854Y219073D01*
X365982Y219097D01*
X366109Y219125D01*
X366236Y219156D01*
X366362Y219191D01*
X366487Y219229D01*
X366611Y219271D01*
X366733Y219316D01*
X366854Y219365D01*
X366974Y219417D01*
X367092Y219473D01*
X367092Y219472D02*
X367152Y219495D01*
X367212Y219521D01*
X367269Y219550D01*
X367325Y219583D01*
X367379Y219619D01*
X367431Y219657D01*
X367481Y219699D01*
X367528Y219743D01*
X367573Y219790D01*
X367615Y219840D01*
X367654Y219891D01*
X367690Y219945D01*
X367723Y220001D01*
X367753Y220058D01*
X367780Y220117D01*
X367803Y220178D01*
X367823Y220239D01*
X367839Y220302D01*
X367852Y220366D01*
X367861Y220430D01*
X367866Y220494D01*
X367868Y220559D01*
X367092Y221646D02*
X366974Y221702D01*
X366854Y221754D01*
X366733Y221803D01*
X366611Y221848D01*
X366487Y221890D01*
X366362Y221928D01*
X366236Y221963D01*
X366110Y221994D01*
X365982Y222022D01*
X365854Y222046D01*
X365725Y222066D01*
X365595Y222082D01*
X365465Y222095D01*
X365335Y222105D01*
X365205Y222110D01*
X365074Y222112D01*
X367092Y221646D02*
X367152Y221623D01*
X367212Y221597D01*
X367269Y221568D01*
X367325Y221535D01*
X367379Y221499D01*
X367431Y221461D01*
X367481Y221419D01*
X367528Y221375D01*
X367573Y221328D01*
X367615Y221278D01*
X367654Y221227D01*
X367690Y221173D01*
X367723Y221117D01*
X367753Y221060D01*
X367780Y221001D01*
X367803Y220940D01*
X367823Y220879D01*
X367839Y220816D01*
X367852Y220752D01*
X367861Y220688D01*
X367866Y220624D01*
X367868Y220559D01*
X366626Y219317D02*
X363522Y221801D01*
D11*
X134040Y237600D02*
X125040Y237600D01*
X134040Y237600D02*
X134040Y219600D01*
X125040Y219600D01*
X125040Y237600D01*
D12*
X131048Y227050D02*
X131048Y226429D01*
X131046Y226380D01*
X131040Y226332D01*
X131031Y226284D01*
X131018Y226237D01*
X131001Y226191D01*
X130980Y226147D01*
X130956Y226105D01*
X130929Y226064D01*
X130899Y226026D01*
X130866Y225990D01*
X130830Y225957D01*
X130792Y225927D01*
X130751Y225900D01*
X130709Y225876D01*
X130665Y225855D01*
X130619Y225838D01*
X130572Y225825D01*
X130524Y225816D01*
X130476Y225810D01*
X130427Y225808D01*
X128875Y225808D01*
X128826Y225810D01*
X128778Y225816D01*
X128730Y225825D01*
X128683Y225838D01*
X128637Y225855D01*
X128593Y225876D01*
X128551Y225899D01*
X128510Y225927D01*
X128472Y225957D01*
X128436Y225990D01*
X128403Y226026D01*
X128373Y226064D01*
X128346Y226104D01*
X128322Y226147D01*
X128301Y226191D01*
X128284Y226237D01*
X128271Y226284D01*
X128262Y226332D01*
X128256Y226380D01*
X128254Y226429D01*
X128254Y227050D01*
X128875Y228102D02*
X128254Y228878D01*
X131048Y228878D01*
X131048Y228102D02*
X131048Y229655D01*
X128875Y230846D02*
X128254Y231622D01*
X131048Y231622D01*
X131048Y230846D02*
X131048Y232398D01*
X130272Y233589D02*
X130217Y233591D01*
X130162Y233597D01*
X130107Y233607D01*
X130053Y233620D01*
X130001Y233638D01*
X129950Y233659D01*
X129900Y233684D01*
X129852Y233712D01*
X129807Y233744D01*
X129764Y233779D01*
X129723Y233816D01*
X129686Y233857D01*
X129651Y233900D01*
X129619Y233945D01*
X129591Y233993D01*
X129566Y234043D01*
X129545Y234094D01*
X129527Y234146D01*
X129514Y234200D01*
X129504Y234255D01*
X129498Y234310D01*
X129496Y234365D01*
X129498Y234420D01*
X129504Y234475D01*
X129514Y234530D01*
X129527Y234584D01*
X129545Y234636D01*
X129566Y234687D01*
X129591Y234737D01*
X129619Y234785D01*
X129651Y234830D01*
X129686Y234873D01*
X129723Y234914D01*
X129764Y234951D01*
X129807Y234986D01*
X129852Y235018D01*
X129900Y235046D01*
X129950Y235071D01*
X130001Y235092D01*
X130053Y235110D01*
X130107Y235123D01*
X130162Y235133D01*
X130217Y235139D01*
X130272Y235141D01*
X130327Y235139D01*
X130382Y235133D01*
X130437Y235123D01*
X130491Y235110D01*
X130543Y235092D01*
X130594Y235071D01*
X130644Y235046D01*
X130692Y235018D01*
X130737Y234986D01*
X130780Y234951D01*
X130821Y234914D01*
X130858Y234873D01*
X130893Y234830D01*
X130925Y234785D01*
X130953Y234737D01*
X130978Y234687D01*
X130999Y234636D01*
X131017Y234584D01*
X131030Y234530D01*
X131040Y234475D01*
X131046Y234420D01*
X131048Y234365D01*
X131046Y234310D01*
X131040Y234255D01*
X131030Y234200D01*
X131017Y234146D01*
X130999Y234094D01*
X130978Y234043D01*
X130953Y233993D01*
X130925Y233945D01*
X130893Y233900D01*
X130858Y233857D01*
X130821Y233816D01*
X130780Y233779D01*
X130737Y233744D01*
X130692Y233712D01*
X130644Y233684D01*
X130594Y233659D01*
X130543Y233638D01*
X130491Y233620D01*
X130437Y233607D01*
X130382Y233597D01*
X130327Y233591D01*
X130272Y233589D01*
X128875Y233744D02*
X128826Y233746D01*
X128778Y233752D01*
X128730Y233761D01*
X128683Y233774D01*
X128637Y233791D01*
X128593Y233812D01*
X128551Y233836D01*
X128510Y233863D01*
X128472Y233893D01*
X128436Y233926D01*
X128403Y233962D01*
X128373Y234000D01*
X128346Y234041D01*
X128322Y234083D01*
X128301Y234127D01*
X128284Y234173D01*
X128271Y234220D01*
X128262Y234268D01*
X128256Y234316D01*
X128254Y234365D01*
X128256Y234414D01*
X128262Y234462D01*
X128271Y234510D01*
X128284Y234557D01*
X128301Y234603D01*
X128322Y234647D01*
X128346Y234689D01*
X128373Y234730D01*
X128403Y234768D01*
X128436Y234804D01*
X128472Y234837D01*
X128510Y234867D01*
X128551Y234894D01*
X128593Y234918D01*
X128637Y234939D01*
X128683Y234956D01*
X128730Y234969D01*
X128778Y234978D01*
X128826Y234984D01*
X128875Y234986D01*
X128924Y234984D01*
X128972Y234978D01*
X129020Y234969D01*
X129067Y234956D01*
X129113Y234939D01*
X129157Y234918D01*
X129199Y234894D01*
X129240Y234867D01*
X129278Y234837D01*
X129314Y234804D01*
X129347Y234768D01*
X129377Y234730D01*
X129404Y234689D01*
X129428Y234647D01*
X129449Y234603D01*
X129466Y234557D01*
X129479Y234510D01*
X129488Y234462D01*
X129494Y234414D01*
X129496Y234365D01*
X129494Y234316D01*
X129488Y234268D01*
X129479Y234220D01*
X129466Y234173D01*
X129449Y234127D01*
X129428Y234083D01*
X129404Y234041D01*
X129377Y234000D01*
X129347Y233962D01*
X129314Y233926D01*
X129278Y233893D01*
X129240Y233863D01*
X129199Y233836D01*
X129157Y233812D01*
X129113Y233791D01*
X129067Y233774D01*
X129020Y233761D01*
X128972Y233752D01*
X128924Y233746D01*
X128875Y233744D01*
D11*
X125040Y199026D02*
X134040Y199026D01*
X125040Y199026D02*
X125040Y217026D01*
X134040Y217026D01*
X134040Y199026D01*
D12*
X130826Y202106D02*
X130826Y202727D01*
X130826Y202106D02*
X130824Y202057D01*
X130818Y202009D01*
X130809Y201961D01*
X130796Y201914D01*
X130779Y201868D01*
X130758Y201824D01*
X130734Y201782D01*
X130707Y201741D01*
X130677Y201703D01*
X130644Y201667D01*
X130608Y201634D01*
X130570Y201604D01*
X130529Y201577D01*
X130487Y201553D01*
X130443Y201532D01*
X130397Y201515D01*
X130350Y201502D01*
X130302Y201493D01*
X130254Y201487D01*
X130205Y201485D01*
X128653Y201485D01*
X128604Y201487D01*
X128556Y201493D01*
X128508Y201502D01*
X128461Y201515D01*
X128415Y201532D01*
X128371Y201553D01*
X128329Y201576D01*
X128288Y201604D01*
X128250Y201634D01*
X128214Y201667D01*
X128181Y201703D01*
X128151Y201741D01*
X128124Y201781D01*
X128100Y201824D01*
X128079Y201868D01*
X128062Y201914D01*
X128049Y201961D01*
X128040Y202009D01*
X128034Y202057D01*
X128032Y202106D01*
X128032Y202727D01*
X128653Y203779D02*
X128032Y204555D01*
X130826Y204555D01*
X130826Y203779D02*
X130826Y205331D01*
X128653Y206522D02*
X128032Y207298D01*
X130826Y207298D01*
X130826Y206522D02*
X130826Y208075D01*
X129584Y209886D02*
X129584Y210818D01*
X129584Y209886D02*
X129582Y209837D01*
X129576Y209789D01*
X129567Y209741D01*
X129554Y209694D01*
X129537Y209648D01*
X129516Y209604D01*
X129492Y209562D01*
X129465Y209521D01*
X129435Y209483D01*
X129402Y209447D01*
X129366Y209414D01*
X129328Y209384D01*
X129287Y209357D01*
X129245Y209333D01*
X129201Y209312D01*
X129155Y209295D01*
X129108Y209282D01*
X129060Y209273D01*
X129012Y209267D01*
X128963Y209265D01*
X128963Y209266D02*
X128808Y209266D01*
X128753Y209268D01*
X128698Y209274D01*
X128643Y209284D01*
X128589Y209297D01*
X128537Y209315D01*
X128486Y209336D01*
X128436Y209361D01*
X128388Y209389D01*
X128343Y209421D01*
X128300Y209456D01*
X128259Y209493D01*
X128222Y209534D01*
X128187Y209577D01*
X128155Y209622D01*
X128127Y209670D01*
X128102Y209720D01*
X128081Y209771D01*
X128063Y209823D01*
X128050Y209877D01*
X128040Y209932D01*
X128034Y209987D01*
X128032Y210042D01*
X128034Y210097D01*
X128040Y210152D01*
X128050Y210207D01*
X128063Y210261D01*
X128081Y210313D01*
X128102Y210364D01*
X128127Y210414D01*
X128155Y210462D01*
X128187Y210507D01*
X128222Y210550D01*
X128259Y210591D01*
X128300Y210628D01*
X128343Y210663D01*
X128388Y210695D01*
X128436Y210723D01*
X128486Y210748D01*
X128537Y210769D01*
X128589Y210787D01*
X128643Y210800D01*
X128698Y210810D01*
X128753Y210816D01*
X128808Y210818D01*
X129584Y210818D01*
X129654Y210816D01*
X129723Y210810D01*
X129792Y210800D01*
X129860Y210787D01*
X129928Y210769D01*
X129994Y210748D01*
X130059Y210723D01*
X130123Y210695D01*
X130185Y210663D01*
X130245Y210628D01*
X130303Y210589D01*
X130358Y210547D01*
X130412Y210502D01*
X130462Y210454D01*
X130510Y210404D01*
X130555Y210350D01*
X130597Y210295D01*
X130636Y210237D01*
X130671Y210177D01*
X130703Y210115D01*
X130731Y210051D01*
X130756Y209986D01*
X130777Y209920D01*
X130795Y209852D01*
X130808Y209784D01*
X130818Y209715D01*
X130824Y209646D01*
X130826Y209576D01*
D11*
X64698Y105266D02*
X55698Y105266D01*
X64698Y105266D02*
X64698Y87266D01*
X55698Y87266D01*
X55698Y105266D01*
D12*
X61198Y92176D02*
X61198Y91555D01*
X61196Y91506D01*
X61190Y91458D01*
X61181Y91410D01*
X61168Y91363D01*
X61151Y91317D01*
X61130Y91273D01*
X61106Y91231D01*
X61079Y91190D01*
X61049Y91152D01*
X61016Y91116D01*
X60980Y91083D01*
X60942Y91053D01*
X60901Y91026D01*
X60859Y91002D01*
X60815Y90981D01*
X60769Y90964D01*
X60722Y90951D01*
X60674Y90942D01*
X60626Y90936D01*
X60577Y90934D01*
X59025Y90934D01*
X58976Y90936D01*
X58928Y90942D01*
X58880Y90951D01*
X58833Y90964D01*
X58787Y90981D01*
X58743Y91002D01*
X58701Y91025D01*
X58660Y91053D01*
X58622Y91083D01*
X58586Y91116D01*
X58553Y91152D01*
X58523Y91190D01*
X58496Y91230D01*
X58472Y91273D01*
X58451Y91317D01*
X58434Y91363D01*
X58421Y91410D01*
X58412Y91458D01*
X58406Y91506D01*
X58404Y91555D01*
X58404Y92176D01*
X58404Y94082D02*
X58406Y94132D01*
X58411Y94181D01*
X58420Y94231D01*
X58432Y94279D01*
X58448Y94326D01*
X58467Y94372D01*
X58490Y94417D01*
X58515Y94460D01*
X58543Y94501D01*
X58575Y94540D01*
X58609Y94576D01*
X58645Y94610D01*
X58684Y94642D01*
X58725Y94670D01*
X58768Y94695D01*
X58813Y94718D01*
X58859Y94737D01*
X58906Y94753D01*
X58954Y94765D01*
X59004Y94774D01*
X59053Y94779D01*
X59103Y94781D01*
X58404Y94082D02*
X58406Y94026D01*
X58411Y93969D01*
X58420Y93914D01*
X58432Y93859D01*
X58448Y93805D01*
X58467Y93752D01*
X58490Y93700D01*
X58515Y93650D01*
X58544Y93601D01*
X58576Y93554D01*
X58610Y93510D01*
X58647Y93468D01*
X58687Y93428D01*
X58730Y93390D01*
X58774Y93356D01*
X58821Y93324D01*
X58870Y93296D01*
X58920Y93270D01*
X58972Y93248D01*
X59025Y93229D01*
X59646Y94547D02*
X59610Y94583D01*
X59572Y94616D01*
X59531Y94646D01*
X59489Y94673D01*
X59444Y94698D01*
X59398Y94719D01*
X59351Y94738D01*
X59303Y94753D01*
X59254Y94765D01*
X59204Y94773D01*
X59154Y94778D01*
X59103Y94780D01*
X59646Y94548D02*
X61198Y93228D01*
X61198Y94781D01*
X59801Y95971D02*
X59706Y95973D01*
X59611Y95979D01*
X59517Y95989D01*
X59423Y96002D01*
X59330Y96020D01*
X59237Y96041D01*
X59145Y96066D01*
X59055Y96095D01*
X58966Y96128D01*
X58878Y96164D01*
X58792Y96204D01*
X58792Y96205D02*
X58750Y96221D01*
X58710Y96240D01*
X58672Y96263D01*
X58635Y96288D01*
X58600Y96316D01*
X58568Y96346D01*
X58538Y96379D01*
X58511Y96414D01*
X58486Y96452D01*
X58465Y96491D01*
X58447Y96531D01*
X58431Y96573D01*
X58419Y96616D01*
X58411Y96659D01*
X58406Y96704D01*
X58404Y96748D01*
X58406Y96792D01*
X58411Y96837D01*
X58419Y96880D01*
X58431Y96923D01*
X58447Y96965D01*
X58465Y97005D01*
X58486Y97044D01*
X58511Y97082D01*
X58538Y97117D01*
X58568Y97150D01*
X58600Y97180D01*
X58635Y97208D01*
X58672Y97233D01*
X58710Y97256D01*
X58750Y97275D01*
X58792Y97291D01*
X58792Y97290D02*
X58878Y97330D01*
X58966Y97366D01*
X59055Y97399D01*
X59146Y97428D01*
X59237Y97453D01*
X59330Y97474D01*
X59423Y97492D01*
X59517Y97505D01*
X59611Y97515D01*
X59706Y97521D01*
X59801Y97523D01*
X59801Y95971D02*
X59896Y95973D01*
X59991Y95979D01*
X60085Y95989D01*
X60179Y96002D01*
X60272Y96020D01*
X60365Y96041D01*
X60457Y96066D01*
X60547Y96095D01*
X60636Y96128D01*
X60724Y96164D01*
X60810Y96204D01*
X60810Y96205D02*
X60852Y96221D01*
X60892Y96240D01*
X60930Y96263D01*
X60967Y96288D01*
X61002Y96316D01*
X61034Y96346D01*
X61064Y96379D01*
X61091Y96414D01*
X61116Y96452D01*
X61137Y96491D01*
X61155Y96531D01*
X61171Y96573D01*
X61183Y96616D01*
X61191Y96659D01*
X61196Y96704D01*
X61198Y96748D01*
X60810Y97290D02*
X60724Y97330D01*
X60636Y97366D01*
X60547Y97399D01*
X60456Y97428D01*
X60365Y97453D01*
X60272Y97474D01*
X60179Y97492D01*
X60085Y97505D01*
X59991Y97515D01*
X59896Y97521D01*
X59801Y97523D01*
X60810Y97291D02*
X60852Y97275D01*
X60892Y97256D01*
X60930Y97233D01*
X60967Y97208D01*
X61002Y97180D01*
X61034Y97150D01*
X61064Y97117D01*
X61091Y97082D01*
X61116Y97044D01*
X61137Y97005D01*
X61155Y96965D01*
X61171Y96923D01*
X61183Y96880D01*
X61191Y96837D01*
X61196Y96792D01*
X61198Y96748D01*
X60577Y96127D02*
X59025Y97369D01*
X60422Y98715D02*
X60367Y98717D01*
X60312Y98723D01*
X60257Y98733D01*
X60203Y98746D01*
X60151Y98764D01*
X60100Y98785D01*
X60050Y98810D01*
X60002Y98838D01*
X59957Y98870D01*
X59914Y98905D01*
X59873Y98942D01*
X59836Y98983D01*
X59801Y99026D01*
X59769Y99071D01*
X59741Y99119D01*
X59716Y99169D01*
X59695Y99220D01*
X59677Y99272D01*
X59664Y99326D01*
X59654Y99381D01*
X59648Y99436D01*
X59646Y99491D01*
X59648Y99546D01*
X59654Y99601D01*
X59664Y99656D01*
X59677Y99710D01*
X59695Y99762D01*
X59716Y99813D01*
X59741Y99863D01*
X59769Y99911D01*
X59801Y99956D01*
X59836Y99999D01*
X59873Y100040D01*
X59914Y100077D01*
X59957Y100112D01*
X60002Y100144D01*
X60050Y100172D01*
X60100Y100197D01*
X60151Y100218D01*
X60203Y100236D01*
X60257Y100249D01*
X60312Y100259D01*
X60367Y100265D01*
X60422Y100267D01*
X60477Y100265D01*
X60532Y100259D01*
X60587Y100249D01*
X60641Y100236D01*
X60693Y100218D01*
X60744Y100197D01*
X60794Y100172D01*
X60842Y100144D01*
X60887Y100112D01*
X60930Y100077D01*
X60971Y100040D01*
X61008Y99999D01*
X61043Y99956D01*
X61075Y99911D01*
X61103Y99863D01*
X61128Y99813D01*
X61149Y99762D01*
X61167Y99710D01*
X61180Y99656D01*
X61190Y99601D01*
X61196Y99546D01*
X61198Y99491D01*
X61196Y99436D01*
X61190Y99381D01*
X61180Y99326D01*
X61167Y99272D01*
X61149Y99220D01*
X61128Y99169D01*
X61103Y99119D01*
X61075Y99071D01*
X61043Y99026D01*
X61008Y98983D01*
X60971Y98942D01*
X60930Y98905D01*
X60887Y98870D01*
X60842Y98838D01*
X60794Y98810D01*
X60744Y98785D01*
X60693Y98764D01*
X60641Y98746D01*
X60587Y98733D01*
X60532Y98723D01*
X60477Y98717D01*
X60422Y98715D01*
X59025Y98870D02*
X58976Y98872D01*
X58928Y98878D01*
X58880Y98887D01*
X58833Y98900D01*
X58787Y98917D01*
X58743Y98938D01*
X58701Y98962D01*
X58660Y98989D01*
X58622Y99019D01*
X58586Y99052D01*
X58553Y99088D01*
X58523Y99126D01*
X58496Y99167D01*
X58472Y99209D01*
X58451Y99253D01*
X58434Y99299D01*
X58421Y99346D01*
X58412Y99394D01*
X58406Y99442D01*
X58404Y99491D01*
X58406Y99540D01*
X58412Y99588D01*
X58421Y99636D01*
X58434Y99683D01*
X58451Y99729D01*
X58472Y99773D01*
X58496Y99815D01*
X58523Y99856D01*
X58553Y99894D01*
X58586Y99930D01*
X58622Y99963D01*
X58660Y99993D01*
X58701Y100020D01*
X58743Y100044D01*
X58787Y100065D01*
X58833Y100082D01*
X58880Y100095D01*
X58928Y100104D01*
X58976Y100110D01*
X59025Y100112D01*
X59074Y100110D01*
X59122Y100104D01*
X59170Y100095D01*
X59217Y100082D01*
X59263Y100065D01*
X59307Y100044D01*
X59349Y100020D01*
X59390Y99993D01*
X59428Y99963D01*
X59464Y99930D01*
X59497Y99894D01*
X59527Y99856D01*
X59554Y99815D01*
X59578Y99773D01*
X59599Y99729D01*
X59616Y99683D01*
X59629Y99636D01*
X59638Y99588D01*
X59644Y99540D01*
X59646Y99491D01*
X59644Y99442D01*
X59638Y99394D01*
X59629Y99346D01*
X59616Y99299D01*
X59599Y99253D01*
X59578Y99209D01*
X59554Y99167D01*
X59527Y99126D01*
X59497Y99088D01*
X59464Y99052D01*
X59428Y99019D01*
X59390Y98989D01*
X59349Y98962D01*
X59307Y98938D01*
X59263Y98917D01*
X59217Y98900D01*
X59170Y98887D01*
X59122Y98878D01*
X59074Y98872D01*
X59025Y98870D01*
D11*
X86178Y105266D02*
X95178Y105266D01*
X95178Y87266D01*
X86178Y87266D01*
X86178Y105266D01*
D12*
X92186Y91668D02*
X92186Y91047D01*
X92184Y90998D01*
X92178Y90950D01*
X92169Y90902D01*
X92156Y90855D01*
X92139Y90809D01*
X92118Y90765D01*
X92094Y90723D01*
X92067Y90682D01*
X92037Y90644D01*
X92004Y90608D01*
X91968Y90575D01*
X91930Y90545D01*
X91889Y90518D01*
X91847Y90494D01*
X91803Y90473D01*
X91757Y90456D01*
X91710Y90443D01*
X91662Y90434D01*
X91614Y90428D01*
X91565Y90426D01*
X90013Y90426D01*
X89964Y90428D01*
X89916Y90434D01*
X89868Y90443D01*
X89821Y90456D01*
X89775Y90473D01*
X89731Y90494D01*
X89689Y90517D01*
X89648Y90545D01*
X89610Y90575D01*
X89574Y90608D01*
X89541Y90644D01*
X89511Y90682D01*
X89484Y90722D01*
X89460Y90765D01*
X89439Y90809D01*
X89422Y90855D01*
X89409Y90902D01*
X89400Y90950D01*
X89394Y90998D01*
X89392Y91047D01*
X89392Y91668D01*
X89392Y93574D02*
X89394Y93624D01*
X89399Y93673D01*
X89408Y93723D01*
X89420Y93771D01*
X89436Y93818D01*
X89455Y93864D01*
X89478Y93909D01*
X89503Y93952D01*
X89531Y93993D01*
X89563Y94032D01*
X89597Y94068D01*
X89633Y94102D01*
X89672Y94134D01*
X89713Y94162D01*
X89756Y94187D01*
X89801Y94210D01*
X89847Y94229D01*
X89894Y94245D01*
X89942Y94257D01*
X89992Y94266D01*
X90041Y94271D01*
X90091Y94273D01*
X89392Y93574D02*
X89394Y93518D01*
X89399Y93461D01*
X89408Y93406D01*
X89420Y93351D01*
X89436Y93297D01*
X89455Y93244D01*
X89478Y93192D01*
X89503Y93142D01*
X89532Y93093D01*
X89564Y93046D01*
X89598Y93002D01*
X89635Y92960D01*
X89675Y92920D01*
X89718Y92882D01*
X89762Y92848D01*
X89809Y92816D01*
X89858Y92788D01*
X89908Y92762D01*
X89960Y92740D01*
X90013Y92721D01*
X90634Y94039D02*
X90598Y94075D01*
X90560Y94108D01*
X90519Y94138D01*
X90477Y94165D01*
X90432Y94190D01*
X90386Y94211D01*
X90339Y94230D01*
X90291Y94245D01*
X90242Y94257D01*
X90192Y94265D01*
X90142Y94270D01*
X90091Y94272D01*
X90634Y94040D02*
X92186Y92720D01*
X92186Y94273D01*
X90789Y95463D02*
X90694Y95465D01*
X90599Y95471D01*
X90505Y95481D01*
X90411Y95494D01*
X90318Y95512D01*
X90225Y95533D01*
X90133Y95558D01*
X90043Y95587D01*
X89954Y95620D01*
X89866Y95656D01*
X89780Y95696D01*
X89780Y95697D02*
X89738Y95713D01*
X89698Y95732D01*
X89660Y95755D01*
X89623Y95780D01*
X89588Y95808D01*
X89556Y95838D01*
X89526Y95871D01*
X89499Y95906D01*
X89474Y95944D01*
X89453Y95983D01*
X89435Y96023D01*
X89419Y96065D01*
X89407Y96108D01*
X89399Y96151D01*
X89394Y96196D01*
X89392Y96240D01*
X89394Y96284D01*
X89399Y96329D01*
X89407Y96372D01*
X89419Y96415D01*
X89435Y96457D01*
X89453Y96497D01*
X89474Y96536D01*
X89499Y96574D01*
X89526Y96609D01*
X89556Y96642D01*
X89588Y96672D01*
X89623Y96700D01*
X89660Y96725D01*
X89698Y96748D01*
X89738Y96767D01*
X89780Y96783D01*
X89780Y96782D02*
X89866Y96822D01*
X89954Y96858D01*
X90043Y96891D01*
X90134Y96920D01*
X90225Y96945D01*
X90318Y96966D01*
X90411Y96984D01*
X90505Y96997D01*
X90599Y97007D01*
X90694Y97013D01*
X90789Y97015D01*
X90789Y95463D02*
X90884Y95465D01*
X90979Y95471D01*
X91073Y95481D01*
X91167Y95494D01*
X91260Y95512D01*
X91353Y95533D01*
X91445Y95558D01*
X91535Y95587D01*
X91624Y95620D01*
X91712Y95656D01*
X91798Y95696D01*
X91798Y95697D02*
X91840Y95713D01*
X91880Y95732D01*
X91918Y95755D01*
X91955Y95780D01*
X91990Y95808D01*
X92022Y95838D01*
X92052Y95871D01*
X92079Y95906D01*
X92104Y95944D01*
X92125Y95983D01*
X92143Y96023D01*
X92159Y96065D01*
X92171Y96108D01*
X92179Y96151D01*
X92184Y96196D01*
X92186Y96240D01*
X91798Y96782D02*
X91712Y96822D01*
X91624Y96858D01*
X91535Y96891D01*
X91444Y96920D01*
X91353Y96945D01*
X91260Y96966D01*
X91167Y96984D01*
X91073Y96997D01*
X90979Y97007D01*
X90884Y97013D01*
X90789Y97015D01*
X91798Y96783D02*
X91840Y96767D01*
X91880Y96748D01*
X91918Y96725D01*
X91955Y96700D01*
X91990Y96672D01*
X92022Y96642D01*
X92052Y96609D01*
X92079Y96574D01*
X92104Y96536D01*
X92125Y96497D01*
X92143Y96457D01*
X92159Y96415D01*
X92171Y96372D01*
X92179Y96329D01*
X92184Y96284D01*
X92186Y96240D01*
X91565Y95619D02*
X90013Y96861D01*
X90634Y98207D02*
X90634Y99138D01*
X90636Y99187D01*
X90642Y99235D01*
X90651Y99283D01*
X90664Y99330D01*
X90681Y99376D01*
X90702Y99420D01*
X90726Y99462D01*
X90753Y99503D01*
X90783Y99541D01*
X90816Y99577D01*
X90852Y99610D01*
X90890Y99640D01*
X90931Y99668D01*
X90973Y99691D01*
X91017Y99712D01*
X91063Y99729D01*
X91110Y99742D01*
X91158Y99751D01*
X91206Y99757D01*
X91255Y99759D01*
X91410Y99759D01*
X91465Y99757D01*
X91520Y99751D01*
X91575Y99741D01*
X91629Y99728D01*
X91681Y99710D01*
X91732Y99689D01*
X91782Y99664D01*
X91830Y99636D01*
X91875Y99604D01*
X91918Y99569D01*
X91959Y99532D01*
X91996Y99491D01*
X92031Y99448D01*
X92063Y99403D01*
X92091Y99355D01*
X92116Y99305D01*
X92137Y99254D01*
X92155Y99202D01*
X92168Y99148D01*
X92178Y99093D01*
X92184Y99038D01*
X92186Y98983D01*
X92184Y98928D01*
X92178Y98873D01*
X92168Y98818D01*
X92155Y98764D01*
X92137Y98712D01*
X92116Y98661D01*
X92091Y98611D01*
X92063Y98563D01*
X92031Y98518D01*
X91996Y98475D01*
X91959Y98434D01*
X91918Y98397D01*
X91875Y98362D01*
X91830Y98330D01*
X91782Y98302D01*
X91732Y98277D01*
X91681Y98256D01*
X91629Y98238D01*
X91575Y98225D01*
X91520Y98215D01*
X91465Y98209D01*
X91410Y98207D01*
X90634Y98207D01*
X90564Y98209D01*
X90495Y98215D01*
X90426Y98225D01*
X90358Y98238D01*
X90290Y98256D01*
X90224Y98277D01*
X90159Y98302D01*
X90095Y98330D01*
X90033Y98362D01*
X89973Y98397D01*
X89915Y98436D01*
X89860Y98478D01*
X89806Y98523D01*
X89756Y98571D01*
X89708Y98621D01*
X89663Y98675D01*
X89621Y98730D01*
X89582Y98788D01*
X89547Y98848D01*
X89515Y98910D01*
X89487Y98974D01*
X89462Y99039D01*
X89441Y99105D01*
X89423Y99173D01*
X89410Y99241D01*
X89400Y99310D01*
X89394Y99379D01*
X89392Y99449D01*
D11*
X324684Y216044D02*
X333684Y216044D01*
X324684Y216044D02*
X324684Y234044D01*
X333684Y234044D01*
X333684Y216044D01*
D12*
X330470Y219124D02*
X330470Y219745D01*
X330470Y219124D02*
X330468Y219075D01*
X330462Y219027D01*
X330453Y218979D01*
X330440Y218932D01*
X330423Y218886D01*
X330402Y218842D01*
X330378Y218800D01*
X330351Y218759D01*
X330321Y218721D01*
X330288Y218685D01*
X330252Y218652D01*
X330214Y218622D01*
X330173Y218595D01*
X330131Y218571D01*
X330087Y218550D01*
X330041Y218533D01*
X329994Y218520D01*
X329946Y218511D01*
X329898Y218505D01*
X329849Y218503D01*
X328297Y218503D01*
X328248Y218505D01*
X328200Y218511D01*
X328152Y218520D01*
X328105Y218533D01*
X328059Y218550D01*
X328015Y218571D01*
X327973Y218594D01*
X327932Y218622D01*
X327894Y218652D01*
X327858Y218685D01*
X327825Y218721D01*
X327795Y218759D01*
X327768Y218799D01*
X327744Y218842D01*
X327723Y218886D01*
X327706Y218932D01*
X327693Y218979D01*
X327684Y219027D01*
X327678Y219075D01*
X327676Y219124D01*
X327676Y219745D01*
X328297Y220797D02*
X327676Y221573D01*
X330470Y221573D01*
X330470Y220797D02*
X330470Y222349D01*
X329073Y223540D02*
X328978Y223542D01*
X328883Y223548D01*
X328789Y223558D01*
X328695Y223571D01*
X328602Y223589D01*
X328509Y223610D01*
X328417Y223635D01*
X328327Y223664D01*
X328238Y223697D01*
X328150Y223733D01*
X328064Y223773D01*
X328022Y223789D01*
X327982Y223808D01*
X327944Y223831D01*
X327907Y223856D01*
X327872Y223884D01*
X327840Y223914D01*
X327810Y223947D01*
X327783Y223982D01*
X327758Y224020D01*
X327737Y224059D01*
X327719Y224099D01*
X327703Y224141D01*
X327691Y224184D01*
X327683Y224227D01*
X327678Y224272D01*
X327676Y224316D01*
X327678Y224360D01*
X327683Y224405D01*
X327691Y224448D01*
X327703Y224491D01*
X327719Y224533D01*
X327737Y224573D01*
X327758Y224612D01*
X327783Y224650D01*
X327810Y224685D01*
X327840Y224718D01*
X327872Y224748D01*
X327907Y224776D01*
X327944Y224801D01*
X327982Y224824D01*
X328022Y224843D01*
X328064Y224859D01*
X328150Y224899D01*
X328238Y224935D01*
X328327Y224968D01*
X328418Y224997D01*
X328509Y225022D01*
X328602Y225043D01*
X328695Y225061D01*
X328789Y225074D01*
X328883Y225084D01*
X328978Y225090D01*
X329073Y225092D01*
X329073Y223540D02*
X329168Y223542D01*
X329263Y223548D01*
X329357Y223558D01*
X329451Y223571D01*
X329544Y223589D01*
X329637Y223610D01*
X329729Y223635D01*
X329819Y223664D01*
X329908Y223697D01*
X329996Y223733D01*
X330082Y223773D01*
X330124Y223789D01*
X330164Y223808D01*
X330202Y223831D01*
X330239Y223856D01*
X330274Y223884D01*
X330306Y223914D01*
X330336Y223947D01*
X330363Y223982D01*
X330388Y224020D01*
X330409Y224059D01*
X330427Y224099D01*
X330443Y224141D01*
X330455Y224184D01*
X330463Y224227D01*
X330468Y224272D01*
X330470Y224316D01*
X330082Y224859D02*
X329996Y224899D01*
X329908Y224935D01*
X329819Y224968D01*
X329728Y224997D01*
X329637Y225022D01*
X329544Y225043D01*
X329451Y225061D01*
X329357Y225074D01*
X329263Y225084D01*
X329168Y225090D01*
X329073Y225092D01*
X330082Y224859D02*
X330124Y224843D01*
X330164Y224824D01*
X330202Y224801D01*
X330239Y224776D01*
X330274Y224748D01*
X330306Y224718D01*
X330336Y224685D01*
X330363Y224650D01*
X330388Y224612D01*
X330409Y224573D01*
X330427Y224533D01*
X330443Y224491D01*
X330455Y224448D01*
X330463Y224405D01*
X330468Y224360D01*
X330470Y224316D01*
X329849Y223696D02*
X328297Y224937D01*
X327676Y227137D02*
X327678Y227187D01*
X327683Y227236D01*
X327692Y227286D01*
X327704Y227334D01*
X327720Y227381D01*
X327739Y227427D01*
X327762Y227472D01*
X327787Y227515D01*
X327815Y227556D01*
X327847Y227595D01*
X327881Y227631D01*
X327917Y227665D01*
X327956Y227697D01*
X327997Y227725D01*
X328040Y227750D01*
X328085Y227773D01*
X328131Y227792D01*
X328178Y227808D01*
X328226Y227820D01*
X328276Y227829D01*
X328325Y227834D01*
X328375Y227836D01*
X327676Y227137D02*
X327678Y227081D01*
X327683Y227024D01*
X327692Y226969D01*
X327704Y226914D01*
X327720Y226860D01*
X327739Y226807D01*
X327762Y226755D01*
X327787Y226705D01*
X327816Y226656D01*
X327848Y226609D01*
X327882Y226565D01*
X327919Y226523D01*
X327959Y226483D01*
X328002Y226445D01*
X328046Y226411D01*
X328093Y226379D01*
X328142Y226351D01*
X328192Y226325D01*
X328244Y226303D01*
X328297Y226284D01*
X328918Y227603D02*
X328882Y227639D01*
X328844Y227672D01*
X328803Y227702D01*
X328761Y227729D01*
X328716Y227754D01*
X328670Y227775D01*
X328623Y227794D01*
X328575Y227809D01*
X328526Y227821D01*
X328476Y227829D01*
X328426Y227834D01*
X328375Y227836D01*
X328918Y227603D02*
X330470Y226284D01*
X330470Y227836D01*
D11*
X333430Y212708D02*
X324430Y212708D01*
X333430Y212708D02*
X333430Y194708D01*
X324430Y194708D01*
X324430Y212708D01*
D12*
X330438Y202158D02*
X330438Y201537D01*
X330436Y201488D01*
X330430Y201440D01*
X330421Y201392D01*
X330408Y201345D01*
X330391Y201299D01*
X330370Y201255D01*
X330346Y201213D01*
X330319Y201172D01*
X330289Y201134D01*
X330256Y201098D01*
X330220Y201065D01*
X330182Y201035D01*
X330141Y201008D01*
X330099Y200984D01*
X330055Y200963D01*
X330009Y200946D01*
X329962Y200933D01*
X329914Y200924D01*
X329866Y200918D01*
X329817Y200916D01*
X328265Y200916D01*
X328216Y200918D01*
X328168Y200924D01*
X328120Y200933D01*
X328073Y200946D01*
X328027Y200963D01*
X327983Y200984D01*
X327941Y201007D01*
X327900Y201035D01*
X327862Y201065D01*
X327826Y201098D01*
X327793Y201134D01*
X327763Y201172D01*
X327736Y201212D01*
X327712Y201255D01*
X327691Y201299D01*
X327674Y201345D01*
X327661Y201392D01*
X327652Y201440D01*
X327646Y201488D01*
X327644Y201537D01*
X327644Y202158D01*
X328265Y203210D02*
X327644Y203986D01*
X330438Y203986D01*
X330438Y203210D02*
X330438Y204763D01*
X329041Y205953D02*
X328946Y205955D01*
X328851Y205961D01*
X328757Y205971D01*
X328663Y205984D01*
X328570Y206002D01*
X328477Y206023D01*
X328385Y206048D01*
X328295Y206077D01*
X328206Y206110D01*
X328118Y206146D01*
X328032Y206186D01*
X328032Y206187D02*
X327990Y206203D01*
X327950Y206222D01*
X327912Y206245D01*
X327875Y206270D01*
X327840Y206298D01*
X327808Y206328D01*
X327778Y206361D01*
X327751Y206396D01*
X327726Y206434D01*
X327705Y206473D01*
X327687Y206513D01*
X327671Y206555D01*
X327659Y206598D01*
X327651Y206641D01*
X327646Y206686D01*
X327644Y206730D01*
X327646Y206774D01*
X327651Y206819D01*
X327659Y206862D01*
X327671Y206905D01*
X327687Y206947D01*
X327705Y206987D01*
X327726Y207026D01*
X327751Y207064D01*
X327778Y207099D01*
X327808Y207132D01*
X327840Y207162D01*
X327875Y207190D01*
X327912Y207215D01*
X327950Y207238D01*
X327990Y207257D01*
X328032Y207273D01*
X328032Y207272D02*
X328118Y207312D01*
X328206Y207348D01*
X328295Y207381D01*
X328386Y207410D01*
X328477Y207435D01*
X328570Y207456D01*
X328663Y207474D01*
X328757Y207487D01*
X328851Y207497D01*
X328946Y207503D01*
X329041Y207505D01*
X329041Y205953D02*
X329136Y205955D01*
X329231Y205961D01*
X329325Y205971D01*
X329419Y205984D01*
X329512Y206002D01*
X329605Y206023D01*
X329697Y206048D01*
X329787Y206077D01*
X329876Y206110D01*
X329964Y206146D01*
X330050Y206186D01*
X330050Y206187D02*
X330092Y206203D01*
X330132Y206222D01*
X330170Y206245D01*
X330207Y206270D01*
X330242Y206298D01*
X330274Y206328D01*
X330304Y206361D01*
X330331Y206396D01*
X330356Y206434D01*
X330377Y206473D01*
X330395Y206513D01*
X330411Y206555D01*
X330423Y206598D01*
X330431Y206641D01*
X330436Y206686D01*
X330438Y206730D01*
X330050Y207272D02*
X329964Y207312D01*
X329876Y207348D01*
X329787Y207381D01*
X329696Y207410D01*
X329605Y207435D01*
X329512Y207456D01*
X329419Y207474D01*
X329325Y207487D01*
X329231Y207497D01*
X329136Y207503D01*
X329041Y207505D01*
X330050Y207273D02*
X330092Y207257D01*
X330132Y207238D01*
X330170Y207215D01*
X330207Y207190D01*
X330242Y207162D01*
X330274Y207132D01*
X330304Y207099D01*
X330331Y207064D01*
X330356Y207026D01*
X330377Y206987D01*
X330395Y206947D01*
X330411Y206905D01*
X330423Y206862D01*
X330431Y206819D01*
X330436Y206774D01*
X330438Y206730D01*
X329817Y206109D02*
X328265Y207351D01*
X329196Y209318D02*
X329196Y210249D01*
X329196Y209318D02*
X329194Y209269D01*
X329188Y209221D01*
X329179Y209173D01*
X329166Y209126D01*
X329149Y209080D01*
X329128Y209036D01*
X329104Y208994D01*
X329077Y208953D01*
X329047Y208915D01*
X329014Y208879D01*
X328978Y208846D01*
X328940Y208816D01*
X328899Y208789D01*
X328857Y208765D01*
X328813Y208744D01*
X328767Y208727D01*
X328720Y208714D01*
X328672Y208705D01*
X328624Y208699D01*
X328575Y208697D01*
X328420Y208697D01*
X328365Y208699D01*
X328310Y208705D01*
X328255Y208715D01*
X328201Y208728D01*
X328149Y208746D01*
X328098Y208767D01*
X328048Y208792D01*
X328000Y208820D01*
X327955Y208852D01*
X327912Y208887D01*
X327871Y208924D01*
X327834Y208965D01*
X327799Y209008D01*
X327767Y209053D01*
X327739Y209101D01*
X327714Y209151D01*
X327693Y209202D01*
X327675Y209254D01*
X327662Y209308D01*
X327652Y209363D01*
X327646Y209418D01*
X327644Y209473D01*
X327646Y209528D01*
X327652Y209583D01*
X327662Y209638D01*
X327675Y209692D01*
X327693Y209744D01*
X327714Y209795D01*
X327739Y209845D01*
X327767Y209893D01*
X327799Y209938D01*
X327834Y209981D01*
X327871Y210022D01*
X327912Y210059D01*
X327955Y210094D01*
X328000Y210126D01*
X328048Y210154D01*
X328098Y210179D01*
X328149Y210200D01*
X328201Y210218D01*
X328255Y210231D01*
X328310Y210241D01*
X328365Y210247D01*
X328420Y210249D01*
X329196Y210249D01*
X329266Y210247D01*
X329335Y210241D01*
X329404Y210231D01*
X329472Y210218D01*
X329540Y210200D01*
X329606Y210179D01*
X329671Y210154D01*
X329735Y210126D01*
X329797Y210094D01*
X329857Y210059D01*
X329915Y210020D01*
X329970Y209978D01*
X330024Y209933D01*
X330074Y209885D01*
X330122Y209835D01*
X330167Y209781D01*
X330209Y209726D01*
X330248Y209668D01*
X330283Y209608D01*
X330315Y209546D01*
X330343Y209482D01*
X330368Y209417D01*
X330389Y209351D01*
X330407Y209283D01*
X330420Y209215D01*
X330430Y209146D01*
X330436Y209077D01*
X330438Y209007D01*
D13*
X135150Y323192D02*
X135150Y336192D01*
X135150Y323192D02*
X106150Y323192D01*
X106150Y336192D01*
X135150Y336192D01*
D10*
X112920Y327376D02*
X111678Y327376D01*
X111608Y327378D01*
X111539Y327384D01*
X111470Y327394D01*
X111402Y327407D01*
X111334Y327425D01*
X111268Y327446D01*
X111203Y327471D01*
X111139Y327499D01*
X111077Y327531D01*
X111017Y327566D01*
X110959Y327605D01*
X110904Y327647D01*
X110850Y327692D01*
X110800Y327740D01*
X110752Y327790D01*
X110707Y327844D01*
X110665Y327899D01*
X110626Y327957D01*
X110591Y328017D01*
X110559Y328079D01*
X110531Y328143D01*
X110506Y328208D01*
X110485Y328274D01*
X110467Y328342D01*
X110454Y328410D01*
X110444Y328479D01*
X110438Y328548D01*
X110436Y328618D01*
X110436Y331722D01*
X110438Y331792D01*
X110444Y331861D01*
X110454Y331930D01*
X110467Y331998D01*
X110485Y332066D01*
X110506Y332132D01*
X110531Y332197D01*
X110559Y332261D01*
X110591Y332323D01*
X110626Y332383D01*
X110665Y332441D01*
X110707Y332496D01*
X110752Y332550D01*
X110800Y332600D01*
X110850Y332648D01*
X110904Y332693D01*
X110959Y332735D01*
X111017Y332774D01*
X111077Y332809D01*
X111139Y332841D01*
X111203Y332869D01*
X111268Y332894D01*
X111334Y332915D01*
X111402Y332933D01*
X111470Y332946D01*
X111539Y332956D01*
X111608Y332962D01*
X111678Y332964D01*
X112920Y332964D01*
X116732Y332964D02*
X116805Y332962D01*
X116878Y332956D01*
X116951Y332947D01*
X117022Y332933D01*
X117094Y332916D01*
X117164Y332896D01*
X117233Y332871D01*
X117300Y332843D01*
X117366Y332812D01*
X117431Y332777D01*
X117493Y332739D01*
X117553Y332697D01*
X117611Y332653D01*
X117667Y332605D01*
X117720Y332555D01*
X117770Y332502D01*
X117818Y332446D01*
X117862Y332388D01*
X117904Y332328D01*
X117942Y332266D01*
X117977Y332201D01*
X118008Y332135D01*
X118036Y332068D01*
X118061Y331999D01*
X118081Y331929D01*
X118098Y331857D01*
X118112Y331786D01*
X118121Y331713D01*
X118127Y331640D01*
X118129Y331567D01*
X116732Y332964D02*
X116648Y332962D01*
X116565Y332956D01*
X116482Y332947D01*
X116400Y332933D01*
X116318Y332916D01*
X116237Y332894D01*
X116157Y332869D01*
X116079Y332841D01*
X116001Y332809D01*
X115926Y332773D01*
X115852Y332734D01*
X115780Y332691D01*
X115710Y332645D01*
X115643Y332596D01*
X115577Y332543D01*
X115515Y332488D01*
X115455Y332430D01*
X115397Y332369D01*
X115343Y332306D01*
X115291Y332240D01*
X115243Y332172D01*
X115198Y332101D01*
X115156Y332029D01*
X115118Y331954D01*
X115083Y331878D01*
X115052Y331801D01*
X115024Y331722D01*
X117662Y330481D02*
X117716Y330534D01*
X117767Y330591D01*
X117815Y330650D01*
X117860Y330711D01*
X117901Y330774D01*
X117940Y330840D01*
X117975Y330907D01*
X118007Y330976D01*
X118035Y331047D01*
X118059Y331118D01*
X118080Y331191D01*
X118097Y331265D01*
X118111Y331340D01*
X118120Y331415D01*
X118126Y331491D01*
X118128Y331567D01*
X117663Y330480D02*
X115024Y327376D01*
X118129Y327376D01*
X120511Y330170D02*
X120513Y330301D01*
X120518Y330431D01*
X120528Y330561D01*
X120541Y330691D01*
X120557Y330821D01*
X120577Y330950D01*
X120601Y331078D01*
X120629Y331205D01*
X120660Y331332D01*
X120695Y331458D01*
X120733Y331583D01*
X120775Y331707D01*
X120820Y331829D01*
X120869Y331950D01*
X120921Y332070D01*
X120977Y332188D01*
X120976Y332188D02*
X120999Y332248D01*
X121025Y332308D01*
X121054Y332365D01*
X121087Y332421D01*
X121123Y332475D01*
X121161Y332527D01*
X121203Y332577D01*
X121247Y332624D01*
X121294Y332669D01*
X121344Y332711D01*
X121395Y332750D01*
X121449Y332786D01*
X121505Y332819D01*
X121562Y332849D01*
X121621Y332876D01*
X121682Y332899D01*
X121743Y332919D01*
X121806Y332935D01*
X121870Y332948D01*
X121934Y332957D01*
X121998Y332962D01*
X122063Y332964D01*
X122128Y332962D01*
X122192Y332957D01*
X122256Y332948D01*
X122320Y332935D01*
X122383Y332919D01*
X122444Y332899D01*
X122505Y332876D01*
X122564Y332849D01*
X122621Y332819D01*
X122677Y332786D01*
X122731Y332750D01*
X122782Y332711D01*
X122832Y332669D01*
X122879Y332624D01*
X122923Y332577D01*
X122965Y332527D01*
X123003Y332475D01*
X123039Y332421D01*
X123072Y332365D01*
X123101Y332308D01*
X123127Y332248D01*
X123150Y332188D01*
X123149Y332188D02*
X123205Y332070D01*
X123257Y331950D01*
X123306Y331829D01*
X123351Y331707D01*
X123393Y331583D01*
X123431Y331458D01*
X123466Y331332D01*
X123497Y331206D01*
X123525Y331078D01*
X123549Y330950D01*
X123569Y330821D01*
X123585Y330691D01*
X123598Y330561D01*
X123608Y330431D01*
X123613Y330301D01*
X123615Y330170D01*
X120511Y330170D02*
X120513Y330039D01*
X120518Y329909D01*
X120528Y329779D01*
X120541Y329649D01*
X120557Y329519D01*
X120577Y329390D01*
X120601Y329262D01*
X120629Y329135D01*
X120660Y329008D01*
X120695Y328882D01*
X120733Y328757D01*
X120775Y328633D01*
X120820Y328511D01*
X120869Y328390D01*
X120921Y328270D01*
X120977Y328152D01*
X120976Y328152D02*
X120999Y328092D01*
X121025Y328032D01*
X121054Y327975D01*
X121087Y327919D01*
X121123Y327865D01*
X121161Y327813D01*
X121203Y327763D01*
X121247Y327716D01*
X121294Y327671D01*
X121344Y327629D01*
X121395Y327590D01*
X121449Y327554D01*
X121505Y327521D01*
X121562Y327491D01*
X121621Y327464D01*
X121682Y327441D01*
X121743Y327421D01*
X121806Y327405D01*
X121870Y327392D01*
X121934Y327383D01*
X121998Y327378D01*
X122063Y327376D01*
X123149Y328152D02*
X123205Y328270D01*
X123257Y328390D01*
X123306Y328511D01*
X123351Y328633D01*
X123393Y328757D01*
X123431Y328882D01*
X123466Y329008D01*
X123497Y329134D01*
X123525Y329262D01*
X123549Y329390D01*
X123569Y329519D01*
X123585Y329649D01*
X123598Y329779D01*
X123608Y329909D01*
X123613Y330039D01*
X123615Y330170D01*
X123150Y328152D02*
X123127Y328092D01*
X123101Y328032D01*
X123072Y327975D01*
X123039Y327919D01*
X123003Y327865D01*
X122965Y327813D01*
X122923Y327763D01*
X122879Y327716D01*
X122832Y327671D01*
X122782Y327629D01*
X122731Y327590D01*
X122677Y327554D01*
X122621Y327521D01*
X122564Y327491D01*
X122505Y327464D01*
X122444Y327441D01*
X122383Y327421D01*
X122320Y327405D01*
X122256Y327392D01*
X122192Y327383D01*
X122128Y327378D01*
X122063Y327376D01*
X120821Y328618D02*
X123305Y331722D01*
X127704Y332964D02*
X127777Y332962D01*
X127850Y332956D01*
X127923Y332947D01*
X127994Y332933D01*
X128066Y332916D01*
X128136Y332896D01*
X128205Y332871D01*
X128272Y332843D01*
X128338Y332812D01*
X128403Y332777D01*
X128465Y332739D01*
X128525Y332697D01*
X128583Y332653D01*
X128639Y332605D01*
X128692Y332555D01*
X128742Y332502D01*
X128790Y332446D01*
X128834Y332388D01*
X128876Y332328D01*
X128914Y332266D01*
X128949Y332201D01*
X128980Y332135D01*
X129008Y332068D01*
X129033Y331999D01*
X129053Y331929D01*
X129070Y331857D01*
X129084Y331786D01*
X129093Y331713D01*
X129099Y331640D01*
X129101Y331567D01*
X127704Y332964D02*
X127620Y332962D01*
X127537Y332956D01*
X127454Y332947D01*
X127372Y332933D01*
X127290Y332916D01*
X127209Y332894D01*
X127129Y332869D01*
X127051Y332841D01*
X126973Y332809D01*
X126898Y332773D01*
X126824Y332734D01*
X126752Y332691D01*
X126682Y332645D01*
X126615Y332596D01*
X126549Y332543D01*
X126487Y332488D01*
X126427Y332430D01*
X126369Y332369D01*
X126315Y332306D01*
X126263Y332240D01*
X126215Y332172D01*
X126170Y332101D01*
X126128Y332029D01*
X126090Y331954D01*
X126055Y331878D01*
X126024Y331801D01*
X125996Y331722D01*
X128635Y330481D02*
X128689Y330534D01*
X128740Y330591D01*
X128788Y330650D01*
X128833Y330711D01*
X128874Y330774D01*
X128913Y330840D01*
X128948Y330907D01*
X128980Y330976D01*
X129008Y331047D01*
X129032Y331118D01*
X129053Y331191D01*
X129070Y331265D01*
X129084Y331340D01*
X129093Y331415D01*
X129099Y331491D01*
X129101Y331567D01*
X128636Y330480D02*
X125997Y327376D01*
X129101Y327376D01*
D14*
X353188Y275716D02*
X353188Y259716D01*
X353188Y275716D02*
X369188Y275716D01*
X369188Y259716D01*
X353188Y259716D01*
D12*
X354742Y266045D02*
X354742Y269601D01*
X355730Y269601D01*
X355792Y269599D01*
X355854Y269593D01*
X355915Y269583D01*
X355976Y269570D01*
X356035Y269553D01*
X356094Y269532D01*
X356151Y269507D01*
X356206Y269479D01*
X356259Y269447D01*
X356311Y269412D01*
X356360Y269374D01*
X356406Y269333D01*
X356450Y269289D01*
X356491Y269243D01*
X356529Y269194D01*
X356564Y269142D01*
X356596Y269089D01*
X356624Y269034D01*
X356649Y268977D01*
X356670Y268918D01*
X356687Y268859D01*
X356700Y268798D01*
X356710Y268737D01*
X356716Y268675D01*
X356718Y268613D01*
X356718Y267033D01*
X356716Y266971D01*
X356710Y266909D01*
X356700Y266848D01*
X356687Y266787D01*
X356670Y266728D01*
X356649Y266669D01*
X356624Y266612D01*
X356596Y266557D01*
X356564Y266504D01*
X356529Y266452D01*
X356491Y266403D01*
X356450Y266357D01*
X356406Y266313D01*
X356360Y266272D01*
X356311Y266234D01*
X356259Y266199D01*
X356206Y266167D01*
X356151Y266139D01*
X356094Y266114D01*
X356035Y266093D01*
X355976Y266076D01*
X355915Y266063D01*
X355854Y266053D01*
X355792Y266047D01*
X355730Y266045D01*
X354742Y266045D01*
X359372Y269601D02*
X359430Y269599D01*
X359488Y269593D01*
X359545Y269584D01*
X359602Y269571D01*
X359658Y269554D01*
X359712Y269533D01*
X359765Y269509D01*
X359817Y269482D01*
X359866Y269451D01*
X359913Y269417D01*
X359958Y269380D01*
X360001Y269341D01*
X360040Y269298D01*
X360077Y269253D01*
X360111Y269206D01*
X360142Y269157D01*
X360169Y269105D01*
X360193Y269052D01*
X360214Y268998D01*
X360231Y268942D01*
X360244Y268885D01*
X360253Y268828D01*
X360259Y268770D01*
X360261Y268712D01*
X359372Y269601D02*
X359307Y269599D01*
X359242Y269594D01*
X359177Y269584D01*
X359113Y269571D01*
X359050Y269555D01*
X358988Y269534D01*
X358927Y269511D01*
X358868Y269484D01*
X358810Y269453D01*
X358754Y269419D01*
X358700Y269383D01*
X358649Y269343D01*
X358599Y269300D01*
X358553Y269254D01*
X358508Y269206D01*
X358467Y269156D01*
X358429Y269103D01*
X358394Y269048D01*
X358362Y268991D01*
X358333Y268932D01*
X358307Y268872D01*
X358286Y268811D01*
X359965Y268021D02*
X360006Y268063D01*
X360046Y268108D01*
X360082Y268155D01*
X360115Y268204D01*
X360145Y268256D01*
X360172Y268309D01*
X360195Y268363D01*
X360215Y268419D01*
X360232Y268477D01*
X360244Y268535D01*
X360254Y268593D01*
X360259Y268653D01*
X360261Y268712D01*
X359965Y268021D02*
X358286Y266045D01*
X360261Y266045D01*
X361715Y267823D02*
X361717Y267925D01*
X361722Y268027D01*
X361731Y268129D01*
X361743Y268231D01*
X361759Y268332D01*
X361779Y268432D01*
X361802Y268532D01*
X361828Y268630D01*
X361858Y268728D01*
X361892Y268825D01*
X361928Y268920D01*
X361968Y269014D01*
X362011Y269107D01*
X362030Y269157D01*
X362052Y269205D01*
X362079Y269252D01*
X362108Y269296D01*
X362141Y269338D01*
X362176Y269378D01*
X362215Y269415D01*
X362256Y269449D01*
X362299Y269480D01*
X362345Y269508D01*
X362392Y269532D01*
X362441Y269553D01*
X362492Y269570D01*
X362543Y269584D01*
X362596Y269593D01*
X362649Y269599D01*
X362702Y269601D01*
X362755Y269599D01*
X362808Y269593D01*
X362861Y269584D01*
X362912Y269570D01*
X362963Y269553D01*
X363012Y269532D01*
X363059Y269508D01*
X363105Y269480D01*
X363148Y269449D01*
X363189Y269415D01*
X363228Y269378D01*
X363263Y269338D01*
X363296Y269296D01*
X363326Y269252D01*
X363352Y269205D01*
X363374Y269157D01*
X363393Y269107D01*
X363394Y269107D02*
X363437Y269014D01*
X363477Y268920D01*
X363513Y268825D01*
X363547Y268728D01*
X363577Y268630D01*
X363603Y268532D01*
X363626Y268432D01*
X363646Y268332D01*
X363662Y268231D01*
X363674Y268129D01*
X363683Y268027D01*
X363688Y267925D01*
X363690Y267823D01*
X361714Y267823D02*
X361716Y267721D01*
X361721Y267619D01*
X361730Y267517D01*
X361742Y267415D01*
X361758Y267314D01*
X361778Y267214D01*
X361801Y267114D01*
X361827Y267015D01*
X361857Y266918D01*
X361891Y266821D01*
X361927Y266726D01*
X361967Y266631D01*
X362010Y266539D01*
X362011Y266539D02*
X362030Y266489D01*
X362052Y266441D01*
X362079Y266394D01*
X362108Y266350D01*
X362141Y266308D01*
X362176Y266268D01*
X362215Y266231D01*
X362256Y266197D01*
X362299Y266166D01*
X362345Y266138D01*
X362392Y266114D01*
X362441Y266093D01*
X362492Y266076D01*
X362543Y266062D01*
X362596Y266053D01*
X362649Y266047D01*
X362702Y266045D01*
X363394Y266539D02*
X363437Y266631D01*
X363477Y266726D01*
X363513Y266821D01*
X363547Y266918D01*
X363577Y267015D01*
X363603Y267114D01*
X363626Y267214D01*
X363646Y267314D01*
X363662Y267415D01*
X363674Y267517D01*
X363683Y267619D01*
X363688Y267721D01*
X363690Y267823D01*
X363393Y266539D02*
X363374Y266489D01*
X363352Y266441D01*
X363325Y266394D01*
X363296Y266350D01*
X363263Y266308D01*
X363228Y266268D01*
X363189Y266231D01*
X363148Y266197D01*
X363105Y266166D01*
X363059Y266138D01*
X363012Y266114D01*
X362963Y266093D01*
X362912Y266076D01*
X362861Y266062D01*
X362808Y266053D01*
X362755Y266047D01*
X362702Y266045D01*
X361912Y266835D02*
X363493Y268811D01*
X366230Y269601D02*
X366288Y269599D01*
X366346Y269593D01*
X366403Y269584D01*
X366460Y269571D01*
X366516Y269554D01*
X366570Y269533D01*
X366623Y269509D01*
X366675Y269482D01*
X366724Y269451D01*
X366771Y269417D01*
X366816Y269380D01*
X366859Y269341D01*
X366898Y269298D01*
X366935Y269253D01*
X366969Y269206D01*
X367000Y269157D01*
X367027Y269105D01*
X367051Y269052D01*
X367072Y268998D01*
X367089Y268942D01*
X367102Y268885D01*
X367111Y268828D01*
X367117Y268770D01*
X367119Y268712D01*
X366230Y269601D02*
X366165Y269599D01*
X366100Y269594D01*
X366035Y269584D01*
X365971Y269571D01*
X365908Y269555D01*
X365846Y269534D01*
X365785Y269511D01*
X365726Y269484D01*
X365668Y269453D01*
X365612Y269419D01*
X365558Y269383D01*
X365507Y269343D01*
X365457Y269300D01*
X365411Y269254D01*
X365366Y269206D01*
X365325Y269156D01*
X365287Y269103D01*
X365252Y269048D01*
X365220Y268991D01*
X365191Y268932D01*
X365165Y268872D01*
X365144Y268811D01*
X366823Y268021D02*
X366864Y268063D01*
X366904Y268108D01*
X366940Y268155D01*
X366973Y268204D01*
X367003Y268256D01*
X367030Y268309D01*
X367053Y268363D01*
X367073Y268419D01*
X367090Y268477D01*
X367102Y268535D01*
X367112Y268593D01*
X367117Y268653D01*
X367119Y268712D01*
X366823Y268021D02*
X365143Y266045D01*
X367119Y266045D01*
D15*
X5560Y295270D02*
X5560Y215270D01*
X5560Y295270D02*
X80560Y295270D01*
X80560Y215270D02*
X5560Y215270D01*
X55560Y223270D02*
X55560Y287270D01*
X55560Y223270D02*
X80560Y223270D01*
X80560Y215270D01*
X80560Y287270D02*
X80560Y295270D01*
X80560Y287270D02*
X55560Y287270D01*
D16*
X32456Y240623D02*
X23368Y240623D01*
X32456Y240622D02*
X32555Y240620D01*
X32655Y240614D01*
X32754Y240605D01*
X32852Y240592D01*
X32950Y240575D01*
X33048Y240554D01*
X33144Y240529D01*
X33239Y240501D01*
X33333Y240469D01*
X33426Y240434D01*
X33518Y240395D01*
X33608Y240352D01*
X33696Y240307D01*
X33783Y240257D01*
X33867Y240205D01*
X33950Y240149D01*
X34030Y240091D01*
X34108Y240029D01*
X34183Y239964D01*
X34256Y239896D01*
X34326Y239826D01*
X34394Y239753D01*
X34459Y239678D01*
X34521Y239600D01*
X34579Y239520D01*
X34635Y239437D01*
X34687Y239353D01*
X34737Y239266D01*
X34782Y239178D01*
X34825Y239088D01*
X34864Y238996D01*
X34899Y238903D01*
X34931Y238809D01*
X34959Y238714D01*
X34984Y238618D01*
X35005Y238520D01*
X35022Y238422D01*
X35035Y238324D01*
X35044Y238225D01*
X35050Y238125D01*
X35052Y238026D01*
X35052Y236728D01*
X23368Y249466D02*
X23370Y249573D01*
X23376Y249679D01*
X23386Y249785D01*
X23399Y249891D01*
X23417Y249997D01*
X23438Y250101D01*
X23463Y250205D01*
X23492Y250308D01*
X23524Y250409D01*
X23561Y250509D01*
X23601Y250608D01*
X23644Y250706D01*
X23691Y250802D01*
X23742Y250896D01*
X23796Y250988D01*
X23853Y251078D01*
X23913Y251166D01*
X23977Y251251D01*
X24044Y251334D01*
X24114Y251415D01*
X24186Y251493D01*
X24262Y251569D01*
X24340Y251641D01*
X24421Y251711D01*
X24504Y251778D01*
X24589Y251842D01*
X24677Y251902D01*
X24767Y251959D01*
X24859Y252013D01*
X24953Y252064D01*
X25049Y252111D01*
X25147Y252154D01*
X25246Y252194D01*
X25346Y252231D01*
X25447Y252263D01*
X25550Y252292D01*
X25654Y252317D01*
X25758Y252338D01*
X25864Y252356D01*
X25970Y252369D01*
X26076Y252379D01*
X26182Y252385D01*
X26289Y252387D01*
X23368Y249466D02*
X23370Y249345D01*
X23376Y249224D01*
X23386Y249104D01*
X23399Y248983D01*
X23417Y248864D01*
X23438Y248744D01*
X23463Y248626D01*
X23492Y248509D01*
X23525Y248392D01*
X23561Y248277D01*
X23602Y248163D01*
X23645Y248050D01*
X23693Y247938D01*
X23744Y247829D01*
X23799Y247721D01*
X23857Y247614D01*
X23918Y247510D01*
X23983Y247408D01*
X24051Y247308D01*
X24122Y247210D01*
X24196Y247114D01*
X24273Y247021D01*
X24354Y246931D01*
X24437Y246843D01*
X24523Y246758D01*
X24612Y246675D01*
X24703Y246596D01*
X24797Y246519D01*
X24893Y246446D01*
X24991Y246376D01*
X25092Y246309D01*
X25195Y246245D01*
X25300Y246185D01*
X25407Y246127D01*
X25515Y246074D01*
X25625Y246024D01*
X25737Y245978D01*
X25850Y245935D01*
X25965Y245896D01*
X28561Y251413D02*
X28483Y251492D01*
X28403Y251568D01*
X28320Y251641D01*
X28234Y251711D01*
X28147Y251778D01*
X28056Y251842D01*
X27964Y251902D01*
X27870Y251960D01*
X27773Y252014D01*
X27675Y252064D01*
X27575Y252111D01*
X27474Y252155D01*
X27371Y252195D01*
X27266Y252231D01*
X27161Y252263D01*
X27054Y252292D01*
X26947Y252317D01*
X26838Y252339D01*
X26729Y252356D01*
X26620Y252370D01*
X26510Y252379D01*
X26399Y252385D01*
X26289Y252387D01*
X28561Y251414D02*
X35052Y245896D01*
X35052Y252387D01*
X29210Y257326D02*
X28980Y257329D01*
X28750Y257337D01*
X28521Y257351D01*
X28292Y257370D01*
X28063Y257395D01*
X27835Y257425D01*
X27608Y257460D01*
X27382Y257501D01*
X27157Y257547D01*
X26933Y257599D01*
X26710Y257656D01*
X26489Y257718D01*
X26269Y257786D01*
X26051Y257859D01*
X25835Y257937D01*
X25621Y258020D01*
X25409Y258108D01*
X25198Y258201D01*
X24991Y258300D01*
X24901Y258333D01*
X24812Y258369D01*
X24724Y258409D01*
X24639Y258453D01*
X24555Y258500D01*
X24473Y258550D01*
X24393Y258604D01*
X24316Y258660D01*
X24240Y258720D01*
X24167Y258783D01*
X24097Y258848D01*
X24029Y258917D01*
X23965Y258988D01*
X23903Y259061D01*
X23844Y259137D01*
X23788Y259215D01*
X23735Y259296D01*
X23686Y259378D01*
X23640Y259462D01*
X23597Y259549D01*
X23558Y259636D01*
X23522Y259726D01*
X23490Y259816D01*
X23462Y259908D01*
X23437Y260001D01*
X23416Y260095D01*
X23399Y260189D01*
X23385Y260284D01*
X23376Y260380D01*
X23370Y260476D01*
X23368Y260572D01*
X23370Y260668D01*
X23376Y260764D01*
X23385Y260860D01*
X23399Y260955D01*
X23416Y261049D01*
X23437Y261143D01*
X23462Y261236D01*
X23490Y261328D01*
X23522Y261418D01*
X23558Y261508D01*
X23597Y261596D01*
X23640Y261682D01*
X23686Y261766D01*
X23735Y261848D01*
X23788Y261929D01*
X23844Y262007D01*
X23903Y262083D01*
X23965Y262156D01*
X24029Y262227D01*
X24097Y262296D01*
X24167Y262361D01*
X24240Y262424D01*
X24316Y262484D01*
X24393Y262540D01*
X24473Y262594D01*
X24555Y262644D01*
X24639Y262691D01*
X24724Y262735D01*
X24812Y262775D01*
X24901Y262811D01*
X24991Y262844D01*
X24991Y262843D02*
X25198Y262942D01*
X25409Y263035D01*
X25621Y263123D01*
X25835Y263206D01*
X26051Y263284D01*
X26269Y263357D01*
X26489Y263425D01*
X26710Y263487D01*
X26933Y263544D01*
X27157Y263596D01*
X27382Y263642D01*
X27608Y263683D01*
X27835Y263718D01*
X28063Y263748D01*
X28292Y263773D01*
X28521Y263792D01*
X28750Y263806D01*
X28980Y263814D01*
X29210Y263817D01*
X29210Y257326D02*
X29440Y257329D01*
X29670Y257337D01*
X29899Y257351D01*
X30128Y257370D01*
X30357Y257395D01*
X30585Y257425D01*
X30812Y257460D01*
X31038Y257501D01*
X31263Y257547D01*
X31487Y257599D01*
X31710Y257656D01*
X31931Y257718D01*
X32151Y257786D01*
X32369Y257859D01*
X32585Y257937D01*
X32799Y258020D01*
X33011Y258108D01*
X33222Y258201D01*
X33429Y258300D01*
X33519Y258333D01*
X33608Y258369D01*
X33696Y258410D01*
X33781Y258453D01*
X33865Y258500D01*
X33947Y258550D01*
X34027Y258604D01*
X34104Y258660D01*
X34180Y258720D01*
X34253Y258783D01*
X34323Y258848D01*
X34391Y258917D01*
X34455Y258988D01*
X34517Y259061D01*
X34576Y259137D01*
X34632Y259215D01*
X34685Y259296D01*
X34734Y259378D01*
X34780Y259462D01*
X34823Y259549D01*
X34862Y259636D01*
X34898Y259726D01*
X34930Y259816D01*
X34958Y259908D01*
X34983Y260001D01*
X35004Y260095D01*
X35021Y260189D01*
X35035Y260284D01*
X35044Y260380D01*
X35050Y260476D01*
X35052Y260572D01*
X33429Y262843D02*
X33222Y262942D01*
X33011Y263035D01*
X32799Y263123D01*
X32585Y263206D01*
X32369Y263284D01*
X32151Y263357D01*
X31931Y263425D01*
X31710Y263487D01*
X31487Y263544D01*
X31263Y263596D01*
X31038Y263642D01*
X30812Y263683D01*
X30585Y263718D01*
X30357Y263748D01*
X30128Y263773D01*
X29899Y263792D01*
X29670Y263806D01*
X29440Y263814D01*
X29210Y263817D01*
X33429Y262844D02*
X33519Y262811D01*
X33608Y262775D01*
X33696Y262735D01*
X33781Y262691D01*
X33865Y262644D01*
X33947Y262594D01*
X34027Y262540D01*
X34104Y262484D01*
X34180Y262424D01*
X34253Y262361D01*
X34323Y262296D01*
X34391Y262227D01*
X34455Y262156D01*
X34517Y262083D01*
X34576Y262007D01*
X34632Y261929D01*
X34685Y261848D01*
X34734Y261766D01*
X34780Y261682D01*
X34823Y261595D01*
X34862Y261508D01*
X34898Y261418D01*
X34930Y261328D01*
X34958Y261236D01*
X34983Y261143D01*
X35004Y261049D01*
X35021Y260955D01*
X35035Y260860D01*
X35044Y260764D01*
X35050Y260668D01*
X35052Y260572D01*
X32456Y257975D02*
X25964Y263168D01*
X25964Y268756D02*
X23368Y272002D01*
X35052Y272002D01*
X35052Y275247D02*
X35052Y268756D01*
D14*
X146550Y90900D02*
X272550Y90900D01*
X272550Y61500D01*
X146550Y61500D01*
X146550Y90900D01*
D10*
X200568Y80787D02*
X200568Y76424D01*
X200569Y76424D02*
X200567Y76354D01*
X200561Y76284D01*
X200551Y76215D01*
X200538Y76147D01*
X200520Y76079D01*
X200499Y76012D01*
X200474Y75947D01*
X200446Y75883D01*
X200413Y75821D01*
X200378Y75761D01*
X200339Y75702D01*
X200297Y75647D01*
X200252Y75593D01*
X200204Y75542D01*
X200153Y75494D01*
X200099Y75449D01*
X200044Y75407D01*
X199985Y75368D01*
X199925Y75333D01*
X199863Y75300D01*
X199799Y75272D01*
X199734Y75247D01*
X199667Y75226D01*
X199599Y75208D01*
X199531Y75195D01*
X199462Y75185D01*
X199392Y75179D01*
X199322Y75177D01*
X198699Y75177D01*
X203119Y75177D02*
X204677Y75177D01*
X204677Y75178D02*
X204755Y75180D01*
X204832Y75186D01*
X204909Y75195D01*
X204986Y75209D01*
X205061Y75226D01*
X205136Y75247D01*
X205210Y75272D01*
X205282Y75300D01*
X205353Y75332D01*
X205422Y75368D01*
X205489Y75407D01*
X205555Y75449D01*
X205618Y75494D01*
X205678Y75543D01*
X205737Y75594D01*
X205792Y75648D01*
X205845Y75705D01*
X205895Y75765D01*
X205942Y75827D01*
X205986Y75891D01*
X206026Y75957D01*
X206063Y76025D01*
X206097Y76095D01*
X206127Y76167D01*
X206154Y76240D01*
X206177Y76314D01*
X206196Y76389D01*
X206211Y76465D01*
X206223Y76542D01*
X206231Y76620D01*
X206235Y76697D01*
X206235Y76775D01*
X206231Y76852D01*
X206223Y76930D01*
X206211Y77007D01*
X206196Y77083D01*
X206177Y77158D01*
X206154Y77232D01*
X206127Y77305D01*
X206097Y77377D01*
X206063Y77447D01*
X206026Y77515D01*
X205986Y77581D01*
X205942Y77645D01*
X205895Y77707D01*
X205845Y77767D01*
X205792Y77824D01*
X205737Y77878D01*
X205678Y77929D01*
X205618Y77978D01*
X205555Y78023D01*
X205489Y78065D01*
X205422Y78104D01*
X205353Y78140D01*
X205282Y78172D01*
X205210Y78200D01*
X205136Y78225D01*
X205061Y78246D01*
X204986Y78263D01*
X204909Y78277D01*
X204832Y78286D01*
X204755Y78292D01*
X204677Y78294D01*
X204989Y80787D02*
X203119Y80787D01*
X204989Y80788D02*
X205059Y80786D01*
X205129Y80780D01*
X205198Y80770D01*
X205266Y80757D01*
X205334Y80739D01*
X205401Y80718D01*
X205466Y80693D01*
X205530Y80665D01*
X205592Y80632D01*
X205652Y80597D01*
X205711Y80558D01*
X205766Y80516D01*
X205820Y80471D01*
X205871Y80423D01*
X205919Y80372D01*
X205964Y80318D01*
X206006Y80263D01*
X206045Y80204D01*
X206080Y80144D01*
X206113Y80082D01*
X206141Y80018D01*
X206166Y79953D01*
X206187Y79886D01*
X206205Y79818D01*
X206218Y79750D01*
X206228Y79681D01*
X206234Y79611D01*
X206236Y79541D01*
X206234Y79471D01*
X206228Y79401D01*
X206218Y79332D01*
X206205Y79264D01*
X206187Y79196D01*
X206166Y79129D01*
X206141Y79064D01*
X206113Y79000D01*
X206080Y78938D01*
X206045Y78878D01*
X206006Y78819D01*
X205964Y78764D01*
X205919Y78710D01*
X205871Y78659D01*
X205820Y78611D01*
X205766Y78566D01*
X205711Y78524D01*
X205652Y78485D01*
X205592Y78450D01*
X205530Y78417D01*
X205466Y78389D01*
X205401Y78364D01*
X205334Y78343D01*
X205266Y78325D01*
X205198Y78312D01*
X205129Y78302D01*
X205059Y78296D01*
X204989Y78294D01*
X203742Y78294D01*
X208625Y77982D02*
X208627Y78113D01*
X208632Y78244D01*
X208642Y78375D01*
X208655Y78505D01*
X208671Y78635D01*
X208692Y78765D01*
X208716Y78893D01*
X208743Y79022D01*
X208775Y79149D01*
X208810Y79275D01*
X208848Y79400D01*
X208890Y79525D01*
X208935Y79647D01*
X208984Y79769D01*
X209037Y79889D01*
X209092Y80008D01*
X209115Y80069D01*
X209141Y80128D01*
X209171Y80186D01*
X209204Y80242D01*
X209239Y80297D01*
X209278Y80349D01*
X209320Y80399D01*
X209364Y80446D01*
X209412Y80491D01*
X209461Y80533D01*
X209513Y80572D01*
X209567Y80609D01*
X209623Y80642D01*
X209680Y80672D01*
X209740Y80698D01*
X209800Y80722D01*
X209862Y80741D01*
X209925Y80758D01*
X209989Y80771D01*
X210053Y80780D01*
X210118Y80785D01*
X210183Y80787D01*
X210248Y80785D01*
X210313Y80780D01*
X210377Y80771D01*
X210441Y80758D01*
X210504Y80741D01*
X210566Y80722D01*
X210626Y80698D01*
X210686Y80672D01*
X210743Y80642D01*
X210799Y80609D01*
X210853Y80572D01*
X210905Y80533D01*
X210954Y80491D01*
X211002Y80446D01*
X211046Y80399D01*
X211088Y80349D01*
X211127Y80297D01*
X211162Y80242D01*
X211195Y80186D01*
X211225Y80128D01*
X211251Y80069D01*
X211274Y80008D01*
X211330Y79889D01*
X211383Y79769D01*
X211432Y79648D01*
X211477Y79525D01*
X211519Y79400D01*
X211557Y79275D01*
X211592Y79149D01*
X211624Y79022D01*
X211651Y78893D01*
X211675Y78765D01*
X211696Y78635D01*
X211712Y78505D01*
X211725Y78375D01*
X211735Y78244D01*
X211740Y78113D01*
X211742Y77982D01*
X208625Y77982D02*
X208627Y77851D01*
X208632Y77720D01*
X208642Y77589D01*
X208655Y77459D01*
X208671Y77329D01*
X208692Y77199D01*
X208716Y77071D01*
X208743Y76943D01*
X208775Y76815D01*
X208810Y76689D01*
X208848Y76564D01*
X208890Y76439D01*
X208935Y76317D01*
X208984Y76195D01*
X209037Y76075D01*
X209092Y75956D01*
X209115Y75895D01*
X209141Y75836D01*
X209171Y75778D01*
X209204Y75722D01*
X209239Y75667D01*
X209278Y75615D01*
X209320Y75565D01*
X209364Y75518D01*
X209412Y75473D01*
X209461Y75431D01*
X209513Y75392D01*
X209567Y75355D01*
X209623Y75322D01*
X209680Y75292D01*
X209740Y75266D01*
X209800Y75242D01*
X209862Y75223D01*
X209925Y75206D01*
X209989Y75193D01*
X210053Y75184D01*
X210118Y75179D01*
X210183Y75177D01*
X211273Y75956D02*
X211329Y76075D01*
X211382Y76195D01*
X211431Y76316D01*
X211476Y76439D01*
X211518Y76564D01*
X211556Y76689D01*
X211591Y76815D01*
X211623Y76942D01*
X211650Y77071D01*
X211674Y77199D01*
X211695Y77329D01*
X211711Y77459D01*
X211724Y77589D01*
X211734Y77720D01*
X211739Y77851D01*
X211741Y77982D01*
X211274Y75956D02*
X211251Y75895D01*
X211225Y75836D01*
X211195Y75778D01*
X211162Y75722D01*
X211127Y75667D01*
X211088Y75615D01*
X211046Y75565D01*
X211002Y75518D01*
X210954Y75473D01*
X210905Y75431D01*
X210853Y75392D01*
X210799Y75355D01*
X210743Y75322D01*
X210686Y75292D01*
X210626Y75266D01*
X210566Y75242D01*
X210504Y75223D01*
X210441Y75206D01*
X210377Y75193D01*
X210313Y75184D01*
X210248Y75179D01*
X210183Y75177D01*
X208936Y76424D02*
X211430Y79541D01*
X214131Y79541D02*
X215689Y80787D01*
X215689Y75177D01*
X214131Y75177D02*
X217247Y75177D01*
D13*
X338432Y228114D02*
X351432Y228114D01*
X351432Y199114D01*
X338432Y199114D01*
X338432Y228114D01*
D10*
X341660Y203908D02*
X347248Y203908D01*
X347248Y206392D01*
X342902Y208469D02*
X341660Y210021D01*
X347248Y210021D01*
X347248Y208469D02*
X347248Y211573D01*
X344454Y213955D02*
X344323Y213957D01*
X344193Y213962D01*
X344063Y213972D01*
X343933Y213985D01*
X343803Y214001D01*
X343674Y214021D01*
X343546Y214045D01*
X343419Y214073D01*
X343292Y214104D01*
X343166Y214139D01*
X343041Y214177D01*
X342917Y214219D01*
X342795Y214264D01*
X342674Y214313D01*
X342554Y214365D01*
X342436Y214421D01*
X342436Y214420D02*
X342376Y214443D01*
X342316Y214469D01*
X342259Y214498D01*
X342203Y214531D01*
X342149Y214567D01*
X342097Y214605D01*
X342047Y214647D01*
X342000Y214691D01*
X341955Y214738D01*
X341913Y214788D01*
X341874Y214839D01*
X341838Y214893D01*
X341805Y214949D01*
X341775Y215006D01*
X341748Y215065D01*
X341725Y215126D01*
X341705Y215187D01*
X341689Y215250D01*
X341676Y215314D01*
X341667Y215378D01*
X341662Y215442D01*
X341660Y215507D01*
X341662Y215572D01*
X341667Y215636D01*
X341676Y215700D01*
X341689Y215764D01*
X341705Y215827D01*
X341725Y215888D01*
X341748Y215949D01*
X341775Y216008D01*
X341805Y216065D01*
X341838Y216121D01*
X341874Y216175D01*
X341913Y216226D01*
X341955Y216276D01*
X342000Y216323D01*
X342047Y216367D01*
X342097Y216409D01*
X342149Y216447D01*
X342203Y216483D01*
X342259Y216516D01*
X342316Y216545D01*
X342376Y216571D01*
X342436Y216594D01*
X342554Y216650D01*
X342674Y216702D01*
X342795Y216751D01*
X342917Y216796D01*
X343041Y216838D01*
X343166Y216876D01*
X343292Y216911D01*
X343418Y216942D01*
X343546Y216970D01*
X343674Y216994D01*
X343803Y217014D01*
X343933Y217030D01*
X344063Y217043D01*
X344193Y217053D01*
X344323Y217058D01*
X344454Y217060D01*
X344454Y213955D02*
X344585Y213957D01*
X344715Y213962D01*
X344845Y213972D01*
X344975Y213985D01*
X345105Y214001D01*
X345234Y214021D01*
X345362Y214045D01*
X345489Y214073D01*
X345616Y214104D01*
X345742Y214139D01*
X345867Y214177D01*
X345991Y214219D01*
X346113Y214264D01*
X346234Y214313D01*
X346354Y214365D01*
X346472Y214421D01*
X346472Y214420D02*
X346532Y214443D01*
X346592Y214469D01*
X346649Y214498D01*
X346705Y214531D01*
X346759Y214567D01*
X346811Y214605D01*
X346861Y214647D01*
X346908Y214691D01*
X346953Y214738D01*
X346995Y214788D01*
X347034Y214839D01*
X347070Y214893D01*
X347103Y214949D01*
X347133Y215006D01*
X347160Y215065D01*
X347183Y215126D01*
X347203Y215187D01*
X347219Y215250D01*
X347232Y215314D01*
X347241Y215378D01*
X347246Y215442D01*
X347248Y215507D01*
X346472Y216594D02*
X346354Y216650D01*
X346234Y216702D01*
X346113Y216751D01*
X345991Y216796D01*
X345867Y216838D01*
X345742Y216876D01*
X345616Y216911D01*
X345490Y216942D01*
X345362Y216970D01*
X345234Y216994D01*
X345105Y217014D01*
X344975Y217030D01*
X344845Y217043D01*
X344715Y217053D01*
X344585Y217058D01*
X344454Y217060D01*
X346472Y216594D02*
X346532Y216571D01*
X346592Y216545D01*
X346649Y216516D01*
X346705Y216483D01*
X346759Y216447D01*
X346811Y216409D01*
X346861Y216367D01*
X346908Y216323D01*
X346953Y216276D01*
X346995Y216226D01*
X347034Y216175D01*
X347070Y216121D01*
X347103Y216065D01*
X347133Y216008D01*
X347160Y215949D01*
X347183Y215888D01*
X347203Y215827D01*
X347219Y215764D01*
X347232Y215700D01*
X347241Y215636D01*
X347246Y215572D01*
X347248Y215507D01*
X346006Y214266D02*
X342902Y216749D01*
X341660Y221149D02*
X341662Y221222D01*
X341668Y221295D01*
X341677Y221368D01*
X341691Y221439D01*
X341708Y221511D01*
X341728Y221581D01*
X341753Y221650D01*
X341781Y221717D01*
X341812Y221783D01*
X341847Y221848D01*
X341885Y221910D01*
X341927Y221970D01*
X341971Y222028D01*
X342019Y222084D01*
X342069Y222137D01*
X342122Y222187D01*
X342178Y222235D01*
X342236Y222279D01*
X342296Y222321D01*
X342359Y222359D01*
X342423Y222394D01*
X342489Y222425D01*
X342556Y222453D01*
X342625Y222478D01*
X342695Y222498D01*
X342767Y222515D01*
X342838Y222529D01*
X342911Y222538D01*
X342984Y222544D01*
X343057Y222546D01*
X341660Y221149D02*
X341662Y221065D01*
X341668Y220982D01*
X341677Y220899D01*
X341691Y220816D01*
X341708Y220735D01*
X341730Y220654D01*
X341755Y220574D01*
X341783Y220496D01*
X341815Y220418D01*
X341851Y220343D01*
X341890Y220269D01*
X341933Y220197D01*
X341979Y220127D01*
X342028Y220060D01*
X342081Y219994D01*
X342136Y219932D01*
X342194Y219872D01*
X342255Y219814D01*
X342318Y219760D01*
X342384Y219708D01*
X342452Y219660D01*
X342523Y219615D01*
X342595Y219573D01*
X342670Y219535D01*
X342746Y219500D01*
X342823Y219469D01*
X342902Y219441D01*
X344143Y222080D02*
X344090Y222134D01*
X344033Y222185D01*
X343974Y222233D01*
X343913Y222278D01*
X343850Y222319D01*
X343784Y222358D01*
X343717Y222393D01*
X343648Y222425D01*
X343577Y222453D01*
X343506Y222477D01*
X343433Y222498D01*
X343359Y222515D01*
X343284Y222529D01*
X343209Y222538D01*
X343133Y222544D01*
X343057Y222546D01*
X344144Y222080D02*
X347248Y219442D01*
X347248Y222546D01*
D11*
X367864Y124604D02*
X376864Y124604D01*
X367864Y124604D02*
X367864Y142604D01*
X376864Y142604D01*
X376864Y124604D01*
D12*
X373650Y127063D02*
X370856Y127063D01*
X370856Y127839D01*
X370858Y127894D01*
X370864Y127949D01*
X370874Y128004D01*
X370887Y128058D01*
X370905Y128110D01*
X370926Y128161D01*
X370951Y128211D01*
X370979Y128259D01*
X371011Y128304D01*
X371046Y128347D01*
X371083Y128388D01*
X371124Y128425D01*
X371167Y128460D01*
X371212Y128492D01*
X371260Y128520D01*
X371310Y128545D01*
X371361Y128566D01*
X371413Y128584D01*
X371467Y128597D01*
X371522Y128607D01*
X371577Y128613D01*
X371632Y128615D01*
X371687Y128613D01*
X371742Y128607D01*
X371797Y128597D01*
X371851Y128584D01*
X371903Y128566D01*
X371954Y128545D01*
X372004Y128520D01*
X372052Y128492D01*
X372097Y128460D01*
X372140Y128425D01*
X372181Y128388D01*
X372218Y128347D01*
X372253Y128304D01*
X372285Y128259D01*
X372313Y128211D01*
X372338Y128161D01*
X372359Y128110D01*
X372377Y128058D01*
X372390Y128004D01*
X372400Y127949D01*
X372406Y127894D01*
X372408Y127839D01*
X372408Y127063D01*
X372408Y127994D02*
X373650Y128615D01*
X371477Y129788D02*
X370856Y130564D01*
X373650Y130564D01*
X373650Y129788D02*
X373650Y131340D01*
X372253Y132531D02*
X372158Y132533D01*
X372063Y132539D01*
X371969Y132549D01*
X371875Y132562D01*
X371782Y132580D01*
X371689Y132601D01*
X371597Y132626D01*
X371507Y132655D01*
X371418Y132688D01*
X371330Y132724D01*
X371244Y132764D01*
X371202Y132780D01*
X371162Y132799D01*
X371124Y132822D01*
X371087Y132847D01*
X371052Y132875D01*
X371020Y132905D01*
X370990Y132938D01*
X370963Y132973D01*
X370938Y133011D01*
X370917Y133050D01*
X370899Y133090D01*
X370883Y133132D01*
X370871Y133175D01*
X370863Y133218D01*
X370858Y133263D01*
X370856Y133307D01*
X370858Y133351D01*
X370863Y133396D01*
X370871Y133439D01*
X370883Y133482D01*
X370899Y133524D01*
X370917Y133564D01*
X370938Y133603D01*
X370963Y133641D01*
X370990Y133676D01*
X371020Y133709D01*
X371052Y133739D01*
X371087Y133767D01*
X371124Y133792D01*
X371162Y133815D01*
X371202Y133834D01*
X371244Y133850D01*
X371330Y133890D01*
X371418Y133926D01*
X371507Y133959D01*
X371598Y133988D01*
X371689Y134013D01*
X371782Y134034D01*
X371875Y134052D01*
X371969Y134065D01*
X372063Y134075D01*
X372158Y134081D01*
X372253Y134083D01*
X372253Y132531D02*
X372348Y132533D01*
X372443Y132539D01*
X372537Y132549D01*
X372631Y132562D01*
X372724Y132580D01*
X372817Y132601D01*
X372909Y132626D01*
X372999Y132655D01*
X373088Y132688D01*
X373176Y132724D01*
X373262Y132764D01*
X373304Y132780D01*
X373344Y132799D01*
X373382Y132822D01*
X373419Y132847D01*
X373454Y132875D01*
X373486Y132905D01*
X373516Y132938D01*
X373543Y132973D01*
X373568Y133011D01*
X373589Y133050D01*
X373607Y133090D01*
X373623Y133132D01*
X373635Y133175D01*
X373643Y133218D01*
X373648Y133263D01*
X373650Y133307D01*
X373262Y133850D02*
X373176Y133890D01*
X373088Y133926D01*
X372999Y133959D01*
X372908Y133988D01*
X372817Y134013D01*
X372724Y134034D01*
X372631Y134052D01*
X372537Y134065D01*
X372443Y134075D01*
X372348Y134081D01*
X372253Y134083D01*
X373262Y133850D02*
X373304Y133834D01*
X373344Y133815D01*
X373382Y133792D01*
X373419Y133767D01*
X373454Y133739D01*
X373486Y133709D01*
X373516Y133676D01*
X373543Y133641D01*
X373568Y133603D01*
X373589Y133564D01*
X373607Y133524D01*
X373623Y133482D01*
X373635Y133439D01*
X373643Y133396D01*
X373648Y133351D01*
X373650Y133307D01*
X373029Y132687D02*
X371477Y133928D01*
X373650Y135275D02*
X373650Y136051D01*
X373648Y136106D01*
X373642Y136161D01*
X373632Y136216D01*
X373619Y136270D01*
X373601Y136322D01*
X373580Y136373D01*
X373555Y136423D01*
X373527Y136471D01*
X373495Y136516D01*
X373460Y136559D01*
X373423Y136600D01*
X373382Y136637D01*
X373339Y136672D01*
X373294Y136704D01*
X373246Y136732D01*
X373196Y136757D01*
X373145Y136778D01*
X373093Y136796D01*
X373039Y136809D01*
X372984Y136819D01*
X372929Y136825D01*
X372874Y136827D01*
X372819Y136825D01*
X372764Y136819D01*
X372709Y136809D01*
X372655Y136796D01*
X372603Y136778D01*
X372552Y136757D01*
X372502Y136732D01*
X372454Y136704D01*
X372409Y136672D01*
X372366Y136637D01*
X372325Y136600D01*
X372288Y136559D01*
X372253Y136516D01*
X372221Y136471D01*
X372193Y136423D01*
X372168Y136373D01*
X372147Y136322D01*
X372129Y136270D01*
X372116Y136216D01*
X372106Y136161D01*
X372100Y136106D01*
X372098Y136051D01*
X370856Y136206D02*
X370856Y135275D01*
X370856Y136206D02*
X370858Y136255D01*
X370864Y136303D01*
X370873Y136351D01*
X370886Y136398D01*
X370903Y136444D01*
X370924Y136488D01*
X370948Y136530D01*
X370975Y136571D01*
X371005Y136609D01*
X371038Y136645D01*
X371074Y136678D01*
X371112Y136708D01*
X371153Y136735D01*
X371195Y136759D01*
X371239Y136780D01*
X371285Y136797D01*
X371332Y136810D01*
X371380Y136819D01*
X371428Y136825D01*
X371477Y136827D01*
X371526Y136825D01*
X371574Y136819D01*
X371622Y136810D01*
X371669Y136797D01*
X371715Y136780D01*
X371759Y136759D01*
X371801Y136735D01*
X371842Y136708D01*
X371880Y136678D01*
X371916Y136645D01*
X371949Y136609D01*
X371979Y136571D01*
X372006Y136530D01*
X372030Y136488D01*
X372051Y136444D01*
X372068Y136398D01*
X372081Y136351D01*
X372090Y136303D01*
X372096Y136255D01*
X372098Y136206D01*
X372098Y135585D01*
D11*
X363148Y124604D02*
X354148Y124604D01*
X354148Y142604D01*
X363148Y142604D01*
X363148Y124604D01*
D12*
X359934Y127063D02*
X357140Y127063D01*
X357140Y127839D01*
X357142Y127894D01*
X357148Y127949D01*
X357158Y128004D01*
X357171Y128058D01*
X357189Y128110D01*
X357210Y128161D01*
X357235Y128211D01*
X357263Y128259D01*
X357295Y128304D01*
X357330Y128347D01*
X357367Y128388D01*
X357408Y128425D01*
X357451Y128460D01*
X357496Y128492D01*
X357544Y128520D01*
X357594Y128545D01*
X357645Y128566D01*
X357697Y128584D01*
X357751Y128597D01*
X357806Y128607D01*
X357861Y128613D01*
X357916Y128615D01*
X357971Y128613D01*
X358026Y128607D01*
X358081Y128597D01*
X358135Y128584D01*
X358187Y128566D01*
X358238Y128545D01*
X358288Y128520D01*
X358336Y128492D01*
X358381Y128460D01*
X358424Y128425D01*
X358465Y128388D01*
X358502Y128347D01*
X358537Y128304D01*
X358569Y128259D01*
X358597Y128211D01*
X358622Y128161D01*
X358643Y128110D01*
X358661Y128058D01*
X358674Y128004D01*
X358684Y127949D01*
X358690Y127894D01*
X358692Y127839D01*
X358692Y127063D01*
X358692Y127994D02*
X359934Y128615D01*
X357761Y129788D02*
X357140Y130564D01*
X359934Y130564D01*
X359934Y129788D02*
X359934Y131340D01*
X358537Y132531D02*
X358442Y132533D01*
X358347Y132539D01*
X358253Y132549D01*
X358159Y132562D01*
X358066Y132580D01*
X357973Y132601D01*
X357881Y132626D01*
X357791Y132655D01*
X357702Y132688D01*
X357614Y132724D01*
X357528Y132764D01*
X357486Y132780D01*
X357446Y132799D01*
X357408Y132822D01*
X357371Y132847D01*
X357336Y132875D01*
X357304Y132905D01*
X357274Y132938D01*
X357247Y132973D01*
X357222Y133011D01*
X357201Y133050D01*
X357183Y133090D01*
X357167Y133132D01*
X357155Y133175D01*
X357147Y133218D01*
X357142Y133263D01*
X357140Y133307D01*
X357142Y133351D01*
X357147Y133396D01*
X357155Y133439D01*
X357167Y133482D01*
X357183Y133524D01*
X357201Y133564D01*
X357222Y133603D01*
X357247Y133641D01*
X357274Y133676D01*
X357304Y133709D01*
X357336Y133739D01*
X357371Y133767D01*
X357408Y133792D01*
X357446Y133815D01*
X357486Y133834D01*
X357528Y133850D01*
X357614Y133890D01*
X357702Y133926D01*
X357791Y133959D01*
X357882Y133988D01*
X357973Y134013D01*
X358066Y134034D01*
X358159Y134052D01*
X358253Y134065D01*
X358347Y134075D01*
X358442Y134081D01*
X358537Y134083D01*
X358537Y132531D02*
X358632Y132533D01*
X358727Y132539D01*
X358821Y132549D01*
X358915Y132562D01*
X359008Y132580D01*
X359101Y132601D01*
X359193Y132626D01*
X359283Y132655D01*
X359372Y132688D01*
X359460Y132724D01*
X359546Y132764D01*
X359588Y132780D01*
X359628Y132799D01*
X359666Y132822D01*
X359703Y132847D01*
X359738Y132875D01*
X359770Y132905D01*
X359800Y132938D01*
X359827Y132973D01*
X359852Y133011D01*
X359873Y133050D01*
X359891Y133090D01*
X359907Y133132D01*
X359919Y133175D01*
X359927Y133218D01*
X359932Y133263D01*
X359934Y133307D01*
X359546Y133850D02*
X359460Y133890D01*
X359372Y133926D01*
X359283Y133959D01*
X359192Y133988D01*
X359101Y134013D01*
X359008Y134034D01*
X358915Y134052D01*
X358821Y134065D01*
X358727Y134075D01*
X358632Y134081D01*
X358537Y134083D01*
X359546Y133850D02*
X359588Y133834D01*
X359628Y133815D01*
X359666Y133792D01*
X359703Y133767D01*
X359738Y133739D01*
X359770Y133709D01*
X359800Y133676D01*
X359827Y133641D01*
X359852Y133603D01*
X359873Y133564D01*
X359891Y133524D01*
X359907Y133482D01*
X359919Y133439D01*
X359927Y133396D01*
X359932Y133351D01*
X359934Y133307D01*
X359313Y132687D02*
X357761Y133928D01*
X359313Y135275D02*
X357140Y135895D01*
X359313Y135275D02*
X359313Y136827D01*
X358692Y136361D02*
X359934Y136361D01*
D11*
X349686Y275700D02*
X340686Y275700D01*
X349686Y275700D02*
X349686Y257700D01*
X340686Y257700D01*
X340686Y275700D01*
D12*
X343900Y263477D02*
X346694Y263477D01*
X343900Y263477D02*
X343900Y264253D01*
X343902Y264308D01*
X343908Y264363D01*
X343918Y264418D01*
X343931Y264472D01*
X343949Y264524D01*
X343970Y264575D01*
X343995Y264625D01*
X344023Y264673D01*
X344055Y264718D01*
X344090Y264761D01*
X344127Y264802D01*
X344168Y264839D01*
X344211Y264874D01*
X344256Y264906D01*
X344304Y264934D01*
X344354Y264959D01*
X344405Y264980D01*
X344457Y264998D01*
X344511Y265011D01*
X344566Y265021D01*
X344621Y265027D01*
X344676Y265029D01*
X344731Y265027D01*
X344786Y265021D01*
X344841Y265011D01*
X344895Y264998D01*
X344947Y264980D01*
X344998Y264959D01*
X345048Y264934D01*
X345096Y264906D01*
X345141Y264874D01*
X345184Y264839D01*
X345225Y264802D01*
X345262Y264761D01*
X345297Y264718D01*
X345329Y264673D01*
X345357Y264625D01*
X345382Y264575D01*
X345403Y264524D01*
X345421Y264472D01*
X345434Y264418D01*
X345444Y264363D01*
X345450Y264308D01*
X345452Y264253D01*
X345452Y263477D01*
X345452Y264409D02*
X346694Y265029D01*
X344599Y267755D02*
X344549Y267753D01*
X344500Y267748D01*
X344450Y267739D01*
X344402Y267727D01*
X344355Y267711D01*
X344309Y267692D01*
X344264Y267669D01*
X344221Y267644D01*
X344180Y267616D01*
X344141Y267584D01*
X344105Y267550D01*
X344071Y267514D01*
X344039Y267475D01*
X344011Y267434D01*
X343986Y267391D01*
X343963Y267346D01*
X343944Y267300D01*
X343928Y267253D01*
X343916Y267205D01*
X343907Y267155D01*
X343902Y267106D01*
X343900Y267056D01*
X343902Y267000D01*
X343907Y266943D01*
X343916Y266888D01*
X343928Y266833D01*
X343944Y266779D01*
X343963Y266726D01*
X343986Y266674D01*
X344011Y266624D01*
X344040Y266575D01*
X344072Y266528D01*
X344106Y266484D01*
X344143Y266442D01*
X344183Y266402D01*
X344226Y266364D01*
X344270Y266330D01*
X344317Y266298D01*
X344366Y266270D01*
X344416Y266244D01*
X344468Y266222D01*
X344521Y266203D01*
X345142Y267521D02*
X345106Y267557D01*
X345068Y267590D01*
X345027Y267620D01*
X344985Y267647D01*
X344940Y267672D01*
X344894Y267693D01*
X344847Y267712D01*
X344799Y267727D01*
X344750Y267739D01*
X344700Y267747D01*
X344650Y267752D01*
X344599Y267754D01*
X345142Y267522D02*
X346694Y266202D01*
X346694Y267755D01*
X345297Y268945D02*
X345202Y268947D01*
X345107Y268953D01*
X345013Y268963D01*
X344919Y268976D01*
X344826Y268994D01*
X344733Y269015D01*
X344641Y269040D01*
X344551Y269069D01*
X344462Y269102D01*
X344374Y269138D01*
X344288Y269178D01*
X344288Y269179D02*
X344246Y269195D01*
X344206Y269214D01*
X344168Y269237D01*
X344131Y269262D01*
X344096Y269290D01*
X344064Y269320D01*
X344034Y269353D01*
X344007Y269388D01*
X343982Y269426D01*
X343961Y269465D01*
X343943Y269505D01*
X343927Y269547D01*
X343915Y269590D01*
X343907Y269633D01*
X343902Y269678D01*
X343900Y269722D01*
X343902Y269766D01*
X343907Y269811D01*
X343915Y269854D01*
X343927Y269897D01*
X343943Y269939D01*
X343961Y269979D01*
X343982Y270018D01*
X344007Y270056D01*
X344034Y270091D01*
X344064Y270124D01*
X344096Y270154D01*
X344131Y270182D01*
X344168Y270207D01*
X344206Y270230D01*
X344246Y270249D01*
X344288Y270265D01*
X344288Y270264D02*
X344374Y270304D01*
X344462Y270340D01*
X344551Y270373D01*
X344642Y270402D01*
X344733Y270427D01*
X344826Y270448D01*
X344919Y270466D01*
X345013Y270479D01*
X345107Y270489D01*
X345202Y270495D01*
X345297Y270497D01*
X345297Y268945D02*
X345392Y268947D01*
X345487Y268953D01*
X345581Y268963D01*
X345675Y268976D01*
X345768Y268994D01*
X345861Y269015D01*
X345953Y269040D01*
X346043Y269069D01*
X346132Y269102D01*
X346220Y269138D01*
X346306Y269178D01*
X346306Y269179D02*
X346348Y269195D01*
X346388Y269214D01*
X346426Y269237D01*
X346463Y269262D01*
X346498Y269290D01*
X346530Y269320D01*
X346560Y269353D01*
X346587Y269388D01*
X346612Y269426D01*
X346633Y269465D01*
X346651Y269505D01*
X346667Y269547D01*
X346679Y269590D01*
X346687Y269633D01*
X346692Y269678D01*
X346694Y269722D01*
X346306Y270264D02*
X346220Y270304D01*
X346132Y270340D01*
X346043Y270373D01*
X345952Y270402D01*
X345861Y270427D01*
X345768Y270448D01*
X345675Y270466D01*
X345581Y270479D01*
X345487Y270489D01*
X345392Y270495D01*
X345297Y270497D01*
X346306Y270265D02*
X346348Y270249D01*
X346388Y270230D01*
X346426Y270207D01*
X346463Y270182D01*
X346498Y270154D01*
X346530Y270124D01*
X346560Y270091D01*
X346587Y270056D01*
X346612Y270018D01*
X346633Y269979D01*
X346651Y269939D01*
X346667Y269897D01*
X346679Y269854D01*
X346687Y269811D01*
X346692Y269766D01*
X346694Y269722D01*
X346073Y269101D02*
X344521Y270343D01*
X346073Y271689D02*
X343900Y272310D01*
X346073Y271689D02*
X346073Y273241D01*
X345452Y272775D02*
X346694Y272775D01*
D11*
X359482Y251570D02*
X368482Y251570D01*
X368482Y233570D01*
X359482Y233570D01*
X359482Y251570D01*
D12*
X362696Y237315D02*
X365490Y237315D01*
X362696Y237315D02*
X362696Y238091D01*
X362698Y238146D01*
X362704Y238201D01*
X362714Y238256D01*
X362727Y238310D01*
X362745Y238362D01*
X362766Y238413D01*
X362791Y238463D01*
X362819Y238511D01*
X362851Y238556D01*
X362886Y238599D01*
X362923Y238640D01*
X362964Y238677D01*
X363007Y238712D01*
X363052Y238744D01*
X363100Y238772D01*
X363150Y238797D01*
X363201Y238818D01*
X363253Y238836D01*
X363307Y238849D01*
X363362Y238859D01*
X363417Y238865D01*
X363472Y238867D01*
X363527Y238865D01*
X363582Y238859D01*
X363637Y238849D01*
X363691Y238836D01*
X363743Y238818D01*
X363794Y238797D01*
X363844Y238772D01*
X363892Y238744D01*
X363937Y238712D01*
X363980Y238677D01*
X364021Y238640D01*
X364058Y238599D01*
X364093Y238556D01*
X364125Y238511D01*
X364153Y238463D01*
X364178Y238413D01*
X364199Y238362D01*
X364217Y238310D01*
X364230Y238256D01*
X364240Y238201D01*
X364246Y238146D01*
X364248Y238091D01*
X364248Y237315D01*
X364248Y238247D02*
X365490Y238867D01*
X363395Y241593D02*
X363345Y241591D01*
X363296Y241586D01*
X363246Y241577D01*
X363198Y241565D01*
X363151Y241549D01*
X363105Y241530D01*
X363060Y241507D01*
X363017Y241482D01*
X362976Y241454D01*
X362937Y241422D01*
X362901Y241388D01*
X362867Y241352D01*
X362835Y241313D01*
X362807Y241272D01*
X362782Y241229D01*
X362759Y241184D01*
X362740Y241138D01*
X362724Y241091D01*
X362712Y241043D01*
X362703Y240993D01*
X362698Y240944D01*
X362696Y240894D01*
X362698Y240838D01*
X362703Y240781D01*
X362712Y240726D01*
X362724Y240671D01*
X362740Y240617D01*
X362759Y240564D01*
X362782Y240512D01*
X362807Y240462D01*
X362836Y240413D01*
X362868Y240366D01*
X362902Y240322D01*
X362939Y240280D01*
X362979Y240240D01*
X363022Y240202D01*
X363066Y240168D01*
X363113Y240136D01*
X363162Y240108D01*
X363212Y240082D01*
X363264Y240060D01*
X363317Y240041D01*
X363938Y241359D02*
X363902Y241395D01*
X363864Y241428D01*
X363823Y241458D01*
X363781Y241485D01*
X363736Y241510D01*
X363690Y241531D01*
X363643Y241550D01*
X363595Y241565D01*
X363546Y241577D01*
X363496Y241585D01*
X363446Y241590D01*
X363395Y241592D01*
X363938Y241360D02*
X365490Y240040D01*
X365490Y241593D01*
X364093Y242783D02*
X363998Y242785D01*
X363903Y242791D01*
X363809Y242801D01*
X363715Y242814D01*
X363622Y242832D01*
X363529Y242853D01*
X363437Y242878D01*
X363347Y242907D01*
X363258Y242940D01*
X363170Y242976D01*
X363084Y243016D01*
X363084Y243017D02*
X363042Y243033D01*
X363002Y243052D01*
X362964Y243075D01*
X362927Y243100D01*
X362892Y243128D01*
X362860Y243158D01*
X362830Y243191D01*
X362803Y243226D01*
X362778Y243264D01*
X362757Y243303D01*
X362739Y243343D01*
X362723Y243385D01*
X362711Y243428D01*
X362703Y243471D01*
X362698Y243516D01*
X362696Y243560D01*
X362698Y243604D01*
X362703Y243649D01*
X362711Y243692D01*
X362723Y243735D01*
X362739Y243777D01*
X362757Y243817D01*
X362778Y243856D01*
X362803Y243894D01*
X362830Y243929D01*
X362860Y243962D01*
X362892Y243992D01*
X362927Y244020D01*
X362964Y244045D01*
X363002Y244068D01*
X363042Y244087D01*
X363084Y244103D01*
X363084Y244102D02*
X363170Y244142D01*
X363258Y244178D01*
X363347Y244211D01*
X363438Y244240D01*
X363529Y244265D01*
X363622Y244286D01*
X363715Y244304D01*
X363809Y244317D01*
X363903Y244327D01*
X363998Y244333D01*
X364093Y244335D01*
X364093Y242783D02*
X364188Y242785D01*
X364283Y242791D01*
X364377Y242801D01*
X364471Y242814D01*
X364564Y242832D01*
X364657Y242853D01*
X364749Y242878D01*
X364839Y242907D01*
X364928Y242940D01*
X365016Y242976D01*
X365102Y243016D01*
X365102Y243017D02*
X365144Y243033D01*
X365184Y243052D01*
X365222Y243075D01*
X365259Y243100D01*
X365294Y243128D01*
X365326Y243158D01*
X365356Y243191D01*
X365383Y243226D01*
X365408Y243264D01*
X365429Y243303D01*
X365447Y243343D01*
X365463Y243385D01*
X365475Y243428D01*
X365483Y243471D01*
X365488Y243516D01*
X365490Y243560D01*
X365102Y244102D02*
X365016Y244142D01*
X364928Y244178D01*
X364839Y244211D01*
X364748Y244240D01*
X364657Y244265D01*
X364564Y244286D01*
X364471Y244304D01*
X364377Y244317D01*
X364283Y244327D01*
X364188Y244333D01*
X364093Y244335D01*
X365102Y244103D02*
X365144Y244087D01*
X365184Y244068D01*
X365222Y244045D01*
X365259Y244020D01*
X365294Y243992D01*
X365326Y243962D01*
X365356Y243929D01*
X365383Y243894D01*
X365408Y243856D01*
X365429Y243817D01*
X365447Y243777D01*
X365463Y243735D01*
X365475Y243692D01*
X365483Y243649D01*
X365488Y243604D01*
X365490Y243560D01*
X364869Y242939D02*
X363317Y244181D01*
X362696Y246381D02*
X362698Y246431D01*
X362703Y246480D01*
X362712Y246530D01*
X362724Y246578D01*
X362740Y246625D01*
X362759Y246671D01*
X362782Y246716D01*
X362807Y246759D01*
X362835Y246800D01*
X362867Y246839D01*
X362901Y246875D01*
X362937Y246909D01*
X362976Y246941D01*
X363017Y246969D01*
X363060Y246994D01*
X363105Y247017D01*
X363151Y247036D01*
X363198Y247052D01*
X363246Y247064D01*
X363296Y247073D01*
X363345Y247078D01*
X363395Y247080D01*
X362696Y246381D02*
X362698Y246325D01*
X362703Y246268D01*
X362712Y246213D01*
X362724Y246158D01*
X362740Y246104D01*
X362759Y246051D01*
X362782Y245999D01*
X362807Y245949D01*
X362836Y245900D01*
X362868Y245853D01*
X362902Y245809D01*
X362939Y245767D01*
X362979Y245727D01*
X363022Y245689D01*
X363066Y245655D01*
X363113Y245623D01*
X363162Y245595D01*
X363212Y245569D01*
X363264Y245547D01*
X363317Y245528D01*
X363938Y246846D02*
X363902Y246882D01*
X363864Y246915D01*
X363823Y246945D01*
X363781Y246972D01*
X363736Y246997D01*
X363690Y247018D01*
X363643Y247037D01*
X363595Y247052D01*
X363546Y247064D01*
X363496Y247072D01*
X363446Y247077D01*
X363395Y247079D01*
X363938Y246846D02*
X365490Y245527D01*
X365490Y247079D01*
D11*
X356544Y251316D02*
X347544Y251316D01*
X356544Y251316D02*
X356544Y233316D01*
X347544Y233316D01*
X347544Y251316D01*
D12*
X350758Y239093D02*
X353552Y239093D01*
X350758Y239093D02*
X350758Y239869D01*
X350760Y239924D01*
X350766Y239979D01*
X350776Y240034D01*
X350789Y240088D01*
X350807Y240140D01*
X350828Y240191D01*
X350853Y240241D01*
X350881Y240289D01*
X350913Y240334D01*
X350948Y240377D01*
X350985Y240418D01*
X351026Y240455D01*
X351069Y240490D01*
X351114Y240522D01*
X351162Y240550D01*
X351212Y240575D01*
X351263Y240596D01*
X351315Y240614D01*
X351369Y240627D01*
X351424Y240637D01*
X351479Y240643D01*
X351534Y240645D01*
X351589Y240643D01*
X351644Y240637D01*
X351699Y240627D01*
X351753Y240614D01*
X351805Y240596D01*
X351856Y240575D01*
X351906Y240550D01*
X351954Y240522D01*
X351999Y240490D01*
X352042Y240455D01*
X352083Y240418D01*
X352120Y240377D01*
X352155Y240334D01*
X352187Y240289D01*
X352215Y240241D01*
X352240Y240191D01*
X352261Y240140D01*
X352279Y240088D01*
X352292Y240034D01*
X352302Y239979D01*
X352308Y239924D01*
X352310Y239869D01*
X352310Y239093D01*
X352310Y240025D02*
X353552Y240645D01*
X351457Y243371D02*
X351407Y243369D01*
X351358Y243364D01*
X351308Y243355D01*
X351260Y243343D01*
X351213Y243327D01*
X351167Y243308D01*
X351122Y243285D01*
X351079Y243260D01*
X351038Y243232D01*
X350999Y243200D01*
X350963Y243166D01*
X350929Y243130D01*
X350897Y243091D01*
X350869Y243050D01*
X350844Y243007D01*
X350821Y242962D01*
X350802Y242916D01*
X350786Y242869D01*
X350774Y242821D01*
X350765Y242771D01*
X350760Y242722D01*
X350758Y242672D01*
X350760Y242616D01*
X350765Y242559D01*
X350774Y242504D01*
X350786Y242449D01*
X350802Y242395D01*
X350821Y242342D01*
X350844Y242290D01*
X350869Y242240D01*
X350898Y242191D01*
X350930Y242144D01*
X350964Y242100D01*
X351001Y242058D01*
X351041Y242018D01*
X351084Y241980D01*
X351128Y241946D01*
X351175Y241914D01*
X351224Y241886D01*
X351274Y241860D01*
X351326Y241838D01*
X351379Y241819D01*
X352000Y243137D02*
X351964Y243173D01*
X351926Y243206D01*
X351885Y243236D01*
X351843Y243263D01*
X351798Y243288D01*
X351752Y243309D01*
X351705Y243328D01*
X351657Y243343D01*
X351608Y243355D01*
X351558Y243363D01*
X351508Y243368D01*
X351457Y243370D01*
X352000Y243138D02*
X353552Y241818D01*
X353552Y243371D01*
X352155Y244561D02*
X352060Y244563D01*
X351965Y244569D01*
X351871Y244579D01*
X351777Y244592D01*
X351684Y244610D01*
X351591Y244631D01*
X351499Y244656D01*
X351409Y244685D01*
X351320Y244718D01*
X351232Y244754D01*
X351146Y244794D01*
X351146Y244795D02*
X351104Y244811D01*
X351064Y244830D01*
X351026Y244853D01*
X350989Y244878D01*
X350954Y244906D01*
X350922Y244936D01*
X350892Y244969D01*
X350865Y245004D01*
X350840Y245042D01*
X350819Y245081D01*
X350801Y245121D01*
X350785Y245163D01*
X350773Y245206D01*
X350765Y245249D01*
X350760Y245294D01*
X350758Y245338D01*
X350760Y245382D01*
X350765Y245427D01*
X350773Y245470D01*
X350785Y245513D01*
X350801Y245555D01*
X350819Y245595D01*
X350840Y245634D01*
X350865Y245672D01*
X350892Y245707D01*
X350922Y245740D01*
X350954Y245770D01*
X350989Y245798D01*
X351026Y245823D01*
X351064Y245846D01*
X351104Y245865D01*
X351146Y245881D01*
X351146Y245880D02*
X351232Y245920D01*
X351320Y245956D01*
X351409Y245989D01*
X351500Y246018D01*
X351591Y246043D01*
X351684Y246064D01*
X351777Y246082D01*
X351871Y246095D01*
X351965Y246105D01*
X352060Y246111D01*
X352155Y246113D01*
X352155Y244561D02*
X352250Y244563D01*
X352345Y244569D01*
X352439Y244579D01*
X352533Y244592D01*
X352626Y244610D01*
X352719Y244631D01*
X352811Y244656D01*
X352901Y244685D01*
X352990Y244718D01*
X353078Y244754D01*
X353164Y244794D01*
X353164Y244795D02*
X353206Y244811D01*
X353246Y244830D01*
X353284Y244853D01*
X353321Y244878D01*
X353356Y244906D01*
X353388Y244936D01*
X353418Y244969D01*
X353445Y245004D01*
X353470Y245042D01*
X353491Y245081D01*
X353509Y245121D01*
X353525Y245163D01*
X353537Y245206D01*
X353545Y245249D01*
X353550Y245294D01*
X353552Y245338D01*
X353164Y245880D02*
X353078Y245920D01*
X352990Y245956D01*
X352901Y245989D01*
X352810Y246018D01*
X352719Y246043D01*
X352626Y246064D01*
X352533Y246082D01*
X352439Y246095D01*
X352345Y246105D01*
X352250Y246111D01*
X352155Y246113D01*
X353164Y245881D02*
X353206Y245865D01*
X353246Y245846D01*
X353284Y245823D01*
X353321Y245798D01*
X353356Y245770D01*
X353388Y245740D01*
X353418Y245707D01*
X353445Y245672D01*
X353470Y245634D01*
X353491Y245595D01*
X353509Y245555D01*
X353525Y245513D01*
X353537Y245470D01*
X353545Y245427D01*
X353550Y245382D01*
X353552Y245338D01*
X352931Y244717D02*
X351379Y245959D01*
X353552Y247305D02*
X353552Y248081D01*
X353550Y248136D01*
X353544Y248191D01*
X353534Y248246D01*
X353521Y248300D01*
X353503Y248352D01*
X353482Y248403D01*
X353457Y248453D01*
X353429Y248501D01*
X353397Y248546D01*
X353362Y248589D01*
X353325Y248630D01*
X353284Y248667D01*
X353241Y248702D01*
X353196Y248734D01*
X353148Y248762D01*
X353098Y248787D01*
X353047Y248808D01*
X352995Y248826D01*
X352941Y248839D01*
X352886Y248849D01*
X352831Y248855D01*
X352776Y248857D01*
X352721Y248855D01*
X352666Y248849D01*
X352611Y248839D01*
X352557Y248826D01*
X352505Y248808D01*
X352454Y248787D01*
X352404Y248762D01*
X352356Y248734D01*
X352311Y248702D01*
X352268Y248667D01*
X352227Y248630D01*
X352190Y248589D01*
X352155Y248546D01*
X352123Y248501D01*
X352095Y248453D01*
X352070Y248403D01*
X352049Y248352D01*
X352031Y248300D01*
X352018Y248246D01*
X352008Y248191D01*
X352002Y248136D01*
X352000Y248081D01*
X350758Y248236D02*
X350758Y247305D01*
X350758Y248236D02*
X350760Y248285D01*
X350766Y248333D01*
X350775Y248381D01*
X350788Y248428D01*
X350805Y248474D01*
X350826Y248518D01*
X350850Y248560D01*
X350877Y248601D01*
X350907Y248639D01*
X350940Y248675D01*
X350976Y248708D01*
X351014Y248738D01*
X351055Y248765D01*
X351097Y248789D01*
X351141Y248810D01*
X351187Y248827D01*
X351234Y248840D01*
X351282Y248849D01*
X351330Y248855D01*
X351379Y248857D01*
X351428Y248855D01*
X351476Y248849D01*
X351524Y248840D01*
X351571Y248827D01*
X351617Y248810D01*
X351661Y248789D01*
X351703Y248765D01*
X351744Y248738D01*
X351782Y248708D01*
X351818Y248675D01*
X351851Y248639D01*
X351881Y248601D01*
X351908Y248560D01*
X351932Y248518D01*
X351953Y248474D01*
X351970Y248428D01*
X351983Y248381D01*
X351992Y248333D01*
X351998Y248285D01*
X352000Y248236D01*
X352000Y247615D01*
D13*
X356258Y366754D02*
X343258Y366754D01*
X343258Y395754D01*
X356258Y395754D01*
X356258Y366754D01*
X343258Y366754D01*
X343258Y395754D01*
X356258Y395754D01*
X356258Y366754D01*
D10*
X352806Y369855D02*
X347218Y369855D01*
X347218Y371407D01*
X347220Y371484D01*
X347226Y371562D01*
X347235Y371638D01*
X347249Y371715D01*
X347266Y371790D01*
X347287Y371864D01*
X347312Y371938D01*
X347340Y372010D01*
X347372Y372080D01*
X347407Y372149D01*
X347446Y372216D01*
X347488Y372281D01*
X347533Y372344D01*
X347581Y372405D01*
X347632Y372463D01*
X347686Y372518D01*
X347743Y372571D01*
X347802Y372620D01*
X347864Y372667D01*
X347928Y372711D01*
X347994Y372751D01*
X348062Y372788D01*
X348132Y372822D01*
X348203Y372852D01*
X348276Y372878D01*
X348350Y372901D01*
X348425Y372920D01*
X348500Y372935D01*
X348577Y372947D01*
X348654Y372955D01*
X348731Y372959D01*
X348809Y372959D01*
X348886Y372955D01*
X348963Y372947D01*
X349040Y372935D01*
X349115Y372920D01*
X349190Y372901D01*
X349264Y372878D01*
X349337Y372852D01*
X349408Y372822D01*
X349478Y372788D01*
X349546Y372751D01*
X349612Y372711D01*
X349676Y372667D01*
X349738Y372620D01*
X349797Y372571D01*
X349854Y372518D01*
X349908Y372463D01*
X349959Y372405D01*
X350007Y372344D01*
X350052Y372281D01*
X350094Y372216D01*
X350133Y372149D01*
X350168Y372080D01*
X350200Y372010D01*
X350228Y371938D01*
X350253Y371864D01*
X350274Y371790D01*
X350291Y371715D01*
X350305Y371638D01*
X350314Y371562D01*
X350320Y371484D01*
X350322Y371407D01*
X350322Y369855D01*
X350322Y371717D02*
X352806Y372959D01*
X348615Y378409D02*
X348542Y378407D01*
X348469Y378401D01*
X348396Y378392D01*
X348325Y378378D01*
X348253Y378361D01*
X348183Y378341D01*
X348114Y378316D01*
X348047Y378288D01*
X347981Y378257D01*
X347917Y378222D01*
X347854Y378184D01*
X347794Y378142D01*
X347736Y378098D01*
X347680Y378050D01*
X347627Y378000D01*
X347577Y377947D01*
X347529Y377891D01*
X347485Y377833D01*
X347443Y377773D01*
X347405Y377711D01*
X347370Y377646D01*
X347339Y377580D01*
X347311Y377513D01*
X347286Y377444D01*
X347266Y377374D01*
X347249Y377302D01*
X347235Y377231D01*
X347226Y377158D01*
X347220Y377085D01*
X347218Y377012D01*
X347220Y376928D01*
X347226Y376845D01*
X347235Y376762D01*
X347249Y376679D01*
X347266Y376598D01*
X347288Y376517D01*
X347313Y376437D01*
X347341Y376359D01*
X347373Y376281D01*
X347409Y376206D01*
X347448Y376132D01*
X347491Y376060D01*
X347537Y375990D01*
X347586Y375923D01*
X347639Y375857D01*
X347694Y375795D01*
X347752Y375735D01*
X347813Y375677D01*
X347876Y375623D01*
X347942Y375571D01*
X348010Y375523D01*
X348081Y375478D01*
X348153Y375436D01*
X348228Y375398D01*
X348304Y375363D01*
X348381Y375332D01*
X348460Y375304D01*
X349701Y377943D02*
X349648Y377997D01*
X349591Y378048D01*
X349532Y378096D01*
X349471Y378141D01*
X349408Y378182D01*
X349342Y378221D01*
X349275Y378256D01*
X349206Y378288D01*
X349135Y378316D01*
X349064Y378340D01*
X348991Y378361D01*
X348917Y378378D01*
X348842Y378392D01*
X348767Y378401D01*
X348691Y378407D01*
X348615Y378409D01*
X349702Y377944D02*
X352806Y375305D01*
X352806Y378409D01*
X350012Y380791D02*
X349881Y380793D01*
X349751Y380798D01*
X349621Y380808D01*
X349491Y380821D01*
X349361Y380837D01*
X349232Y380857D01*
X349104Y380881D01*
X348977Y380909D01*
X348850Y380940D01*
X348724Y380975D01*
X348599Y381013D01*
X348475Y381055D01*
X348353Y381100D01*
X348232Y381149D01*
X348112Y381201D01*
X347994Y381257D01*
X347994Y381256D02*
X347934Y381279D01*
X347874Y381305D01*
X347817Y381334D01*
X347761Y381367D01*
X347707Y381403D01*
X347655Y381441D01*
X347605Y381483D01*
X347558Y381527D01*
X347513Y381574D01*
X347471Y381624D01*
X347432Y381675D01*
X347396Y381729D01*
X347363Y381785D01*
X347333Y381842D01*
X347306Y381901D01*
X347283Y381962D01*
X347263Y382023D01*
X347247Y382086D01*
X347234Y382150D01*
X347225Y382214D01*
X347220Y382278D01*
X347218Y382343D01*
X347220Y382408D01*
X347225Y382472D01*
X347234Y382536D01*
X347247Y382600D01*
X347263Y382663D01*
X347283Y382724D01*
X347306Y382785D01*
X347333Y382844D01*
X347363Y382901D01*
X347396Y382957D01*
X347432Y383011D01*
X347471Y383062D01*
X347513Y383112D01*
X347558Y383159D01*
X347605Y383203D01*
X347655Y383245D01*
X347707Y383283D01*
X347761Y383319D01*
X347817Y383352D01*
X347874Y383381D01*
X347934Y383407D01*
X347994Y383430D01*
X348112Y383486D01*
X348232Y383538D01*
X348353Y383587D01*
X348475Y383632D01*
X348599Y383674D01*
X348724Y383712D01*
X348850Y383747D01*
X348976Y383778D01*
X349104Y383806D01*
X349232Y383830D01*
X349361Y383850D01*
X349491Y383866D01*
X349621Y383879D01*
X349751Y383889D01*
X349881Y383894D01*
X350012Y383896D01*
X350012Y380791D02*
X350143Y380793D01*
X350273Y380798D01*
X350403Y380808D01*
X350533Y380821D01*
X350663Y380837D01*
X350792Y380857D01*
X350920Y380881D01*
X351047Y380909D01*
X351174Y380940D01*
X351300Y380975D01*
X351425Y381013D01*
X351549Y381055D01*
X351671Y381100D01*
X351792Y381149D01*
X351912Y381201D01*
X352030Y381257D01*
X352030Y381256D02*
X352090Y381279D01*
X352150Y381305D01*
X352207Y381334D01*
X352263Y381367D01*
X352317Y381403D01*
X352369Y381441D01*
X352419Y381483D01*
X352466Y381527D01*
X352511Y381574D01*
X352553Y381624D01*
X352592Y381675D01*
X352628Y381729D01*
X352661Y381785D01*
X352691Y381842D01*
X352718Y381901D01*
X352741Y381962D01*
X352761Y382023D01*
X352777Y382086D01*
X352790Y382150D01*
X352799Y382214D01*
X352804Y382278D01*
X352806Y382343D01*
X352030Y383430D02*
X351912Y383486D01*
X351792Y383538D01*
X351671Y383587D01*
X351549Y383632D01*
X351425Y383674D01*
X351300Y383712D01*
X351174Y383747D01*
X351048Y383778D01*
X350920Y383806D01*
X350792Y383830D01*
X350663Y383850D01*
X350533Y383866D01*
X350403Y383879D01*
X350273Y383889D01*
X350143Y383894D01*
X350012Y383896D01*
X352030Y383430D02*
X352090Y383407D01*
X352150Y383381D01*
X352207Y383352D01*
X352263Y383319D01*
X352317Y383283D01*
X352369Y383245D01*
X352419Y383203D01*
X352466Y383159D01*
X352511Y383112D01*
X352553Y383062D01*
X352592Y383011D01*
X352628Y382957D01*
X352661Y382901D01*
X352691Y382844D01*
X352718Y382785D01*
X352741Y382724D01*
X352761Y382663D01*
X352777Y382600D01*
X352790Y382536D01*
X352799Y382472D01*
X352804Y382408D01*
X352806Y382343D01*
X351564Y381102D02*
X348460Y383585D01*
X349702Y386278D02*
X349702Y388140D01*
X349701Y388140D02*
X349703Y388210D01*
X349709Y388279D01*
X349719Y388348D01*
X349732Y388416D01*
X349750Y388484D01*
X349771Y388550D01*
X349796Y388615D01*
X349824Y388679D01*
X349856Y388741D01*
X349891Y388801D01*
X349930Y388859D01*
X349972Y388914D01*
X350017Y388968D01*
X350065Y389018D01*
X350115Y389066D01*
X350169Y389111D01*
X350224Y389153D01*
X350282Y389192D01*
X350342Y389227D01*
X350404Y389259D01*
X350468Y389287D01*
X350533Y389312D01*
X350599Y389333D01*
X350667Y389351D01*
X350735Y389364D01*
X350804Y389374D01*
X350873Y389380D01*
X350943Y389382D01*
X351254Y389382D01*
X351331Y389380D01*
X351409Y389374D01*
X351485Y389365D01*
X351562Y389351D01*
X351637Y389334D01*
X351711Y389313D01*
X351785Y389288D01*
X351857Y389260D01*
X351927Y389228D01*
X351996Y389193D01*
X352063Y389154D01*
X352128Y389112D01*
X352191Y389067D01*
X352252Y389019D01*
X352310Y388968D01*
X352365Y388914D01*
X352418Y388857D01*
X352467Y388798D01*
X352514Y388736D01*
X352558Y388672D01*
X352598Y388606D01*
X352635Y388538D01*
X352669Y388468D01*
X352699Y388397D01*
X352725Y388324D01*
X352748Y388250D01*
X352767Y388175D01*
X352782Y388100D01*
X352794Y388023D01*
X352802Y387946D01*
X352806Y387869D01*
X352806Y387791D01*
X352802Y387714D01*
X352794Y387637D01*
X352782Y387560D01*
X352767Y387485D01*
X352748Y387410D01*
X352725Y387336D01*
X352699Y387263D01*
X352669Y387192D01*
X352635Y387122D01*
X352598Y387054D01*
X352558Y386988D01*
X352514Y386924D01*
X352467Y386862D01*
X352418Y386803D01*
X352365Y386746D01*
X352310Y386692D01*
X352252Y386641D01*
X352191Y386593D01*
X352128Y386548D01*
X352063Y386506D01*
X351996Y386467D01*
X351927Y386432D01*
X351857Y386400D01*
X351785Y386372D01*
X351711Y386347D01*
X351637Y386326D01*
X351562Y386309D01*
X351485Y386295D01*
X351409Y386286D01*
X351331Y386280D01*
X351254Y386278D01*
X349702Y386278D01*
X349702Y386277D02*
X349604Y386279D01*
X349507Y386285D01*
X349410Y386294D01*
X349313Y386308D01*
X349217Y386325D01*
X349122Y386346D01*
X349028Y386370D01*
X348934Y386399D01*
X348842Y386431D01*
X348751Y386466D01*
X348662Y386505D01*
X348574Y386548D01*
X348488Y386594D01*
X348404Y386643D01*
X348322Y386696D01*
X348242Y386751D01*
X348164Y386810D01*
X348089Y386872D01*
X348016Y386937D01*
X347946Y387005D01*
X347878Y387075D01*
X347813Y387148D01*
X347751Y387223D01*
X347692Y387301D01*
X347637Y387381D01*
X347584Y387463D01*
X347535Y387547D01*
X347489Y387633D01*
X347446Y387721D01*
X347407Y387810D01*
X347372Y387901D01*
X347340Y387993D01*
X347311Y388087D01*
X347287Y388181D01*
X347266Y388276D01*
X347249Y388372D01*
X347235Y388469D01*
X347226Y388566D01*
X347220Y388663D01*
X347218Y388761D01*
D13*
X91462Y120800D02*
X91462Y107800D01*
X62462Y107800D01*
X62462Y120800D01*
X91462Y120800D01*
X91462Y107800D01*
X62462Y107800D01*
X62462Y120800D01*
X91462Y120800D01*
D10*
X66240Y117064D02*
X66240Y111476D01*
X66240Y117064D02*
X67792Y117064D01*
X67869Y117062D01*
X67947Y117056D01*
X68023Y117047D01*
X68100Y117033D01*
X68175Y117016D01*
X68249Y116995D01*
X68323Y116970D01*
X68395Y116942D01*
X68465Y116910D01*
X68534Y116875D01*
X68601Y116836D01*
X68666Y116794D01*
X68729Y116749D01*
X68790Y116701D01*
X68848Y116650D01*
X68903Y116596D01*
X68956Y116539D01*
X69005Y116480D01*
X69052Y116418D01*
X69096Y116354D01*
X69136Y116288D01*
X69173Y116220D01*
X69207Y116150D01*
X69237Y116079D01*
X69263Y116006D01*
X69286Y115932D01*
X69305Y115857D01*
X69320Y115782D01*
X69332Y115705D01*
X69340Y115628D01*
X69344Y115551D01*
X69344Y115473D01*
X69340Y115396D01*
X69332Y115319D01*
X69320Y115242D01*
X69305Y115167D01*
X69286Y115092D01*
X69263Y115018D01*
X69237Y114945D01*
X69207Y114874D01*
X69173Y114804D01*
X69136Y114736D01*
X69096Y114670D01*
X69052Y114606D01*
X69005Y114544D01*
X68956Y114485D01*
X68903Y114428D01*
X68848Y114374D01*
X68790Y114323D01*
X68729Y114275D01*
X68666Y114230D01*
X68601Y114188D01*
X68534Y114149D01*
X68465Y114114D01*
X68395Y114082D01*
X68323Y114054D01*
X68249Y114029D01*
X68175Y114008D01*
X68100Y113991D01*
X68023Y113977D01*
X67947Y113968D01*
X67869Y113962D01*
X67792Y113960D01*
X66240Y113960D01*
X68103Y113960D02*
X69344Y111476D01*
X74795Y115667D02*
X74793Y115740D01*
X74787Y115813D01*
X74778Y115886D01*
X74764Y115957D01*
X74747Y116029D01*
X74727Y116099D01*
X74702Y116168D01*
X74674Y116235D01*
X74643Y116301D01*
X74608Y116366D01*
X74570Y116428D01*
X74528Y116488D01*
X74484Y116546D01*
X74436Y116602D01*
X74386Y116655D01*
X74333Y116705D01*
X74277Y116753D01*
X74219Y116797D01*
X74159Y116839D01*
X74097Y116877D01*
X74032Y116912D01*
X73966Y116943D01*
X73899Y116971D01*
X73830Y116996D01*
X73760Y117016D01*
X73688Y117033D01*
X73617Y117047D01*
X73544Y117056D01*
X73471Y117062D01*
X73398Y117064D01*
X73314Y117062D01*
X73231Y117056D01*
X73148Y117047D01*
X73066Y117033D01*
X72984Y117016D01*
X72903Y116994D01*
X72823Y116969D01*
X72745Y116941D01*
X72667Y116909D01*
X72592Y116873D01*
X72518Y116834D01*
X72446Y116791D01*
X72376Y116745D01*
X72309Y116696D01*
X72243Y116643D01*
X72181Y116588D01*
X72121Y116530D01*
X72063Y116469D01*
X72009Y116406D01*
X71957Y116340D01*
X71909Y116272D01*
X71864Y116201D01*
X71822Y116129D01*
X71784Y116054D01*
X71749Y115978D01*
X71718Y115901D01*
X71690Y115822D01*
X74328Y114581D02*
X74382Y114634D01*
X74433Y114691D01*
X74481Y114750D01*
X74526Y114811D01*
X74567Y114874D01*
X74606Y114940D01*
X74641Y115007D01*
X74673Y115076D01*
X74701Y115147D01*
X74725Y115218D01*
X74746Y115291D01*
X74763Y115365D01*
X74777Y115440D01*
X74786Y115515D01*
X74792Y115591D01*
X74794Y115667D01*
X74329Y114580D02*
X71690Y111476D01*
X74795Y111476D01*
X77177Y114270D02*
X77179Y114401D01*
X77184Y114531D01*
X77194Y114661D01*
X77207Y114791D01*
X77223Y114921D01*
X77243Y115050D01*
X77267Y115178D01*
X77295Y115305D01*
X77326Y115432D01*
X77361Y115558D01*
X77399Y115683D01*
X77441Y115807D01*
X77486Y115929D01*
X77535Y116050D01*
X77587Y116170D01*
X77643Y116288D01*
X77642Y116288D02*
X77665Y116348D01*
X77691Y116408D01*
X77720Y116465D01*
X77753Y116521D01*
X77789Y116575D01*
X77827Y116627D01*
X77869Y116677D01*
X77913Y116724D01*
X77960Y116769D01*
X78010Y116811D01*
X78061Y116850D01*
X78115Y116886D01*
X78171Y116919D01*
X78228Y116949D01*
X78287Y116976D01*
X78348Y116999D01*
X78409Y117019D01*
X78472Y117035D01*
X78536Y117048D01*
X78600Y117057D01*
X78664Y117062D01*
X78729Y117064D01*
X78794Y117062D01*
X78858Y117057D01*
X78922Y117048D01*
X78986Y117035D01*
X79049Y117019D01*
X79110Y116999D01*
X79171Y116976D01*
X79230Y116949D01*
X79287Y116919D01*
X79343Y116886D01*
X79397Y116850D01*
X79448Y116811D01*
X79498Y116769D01*
X79545Y116724D01*
X79589Y116677D01*
X79631Y116627D01*
X79669Y116575D01*
X79705Y116521D01*
X79738Y116465D01*
X79767Y116408D01*
X79793Y116348D01*
X79816Y116288D01*
X79815Y116288D02*
X79871Y116170D01*
X79923Y116050D01*
X79972Y115929D01*
X80017Y115807D01*
X80059Y115683D01*
X80097Y115558D01*
X80132Y115432D01*
X80163Y115306D01*
X80191Y115178D01*
X80215Y115050D01*
X80235Y114921D01*
X80251Y114791D01*
X80264Y114661D01*
X80274Y114531D01*
X80279Y114401D01*
X80281Y114270D01*
X77177Y114270D02*
X77179Y114139D01*
X77184Y114009D01*
X77194Y113879D01*
X77207Y113749D01*
X77223Y113619D01*
X77243Y113490D01*
X77267Y113362D01*
X77295Y113235D01*
X77326Y113108D01*
X77361Y112982D01*
X77399Y112857D01*
X77441Y112733D01*
X77486Y112611D01*
X77535Y112490D01*
X77587Y112370D01*
X77643Y112252D01*
X77642Y112252D02*
X77665Y112192D01*
X77691Y112132D01*
X77720Y112075D01*
X77753Y112019D01*
X77789Y111965D01*
X77827Y111913D01*
X77869Y111863D01*
X77913Y111816D01*
X77960Y111771D01*
X78010Y111729D01*
X78061Y111690D01*
X78115Y111654D01*
X78171Y111621D01*
X78228Y111591D01*
X78287Y111564D01*
X78348Y111541D01*
X78409Y111521D01*
X78472Y111505D01*
X78536Y111492D01*
X78600Y111483D01*
X78664Y111478D01*
X78729Y111476D01*
X79815Y112252D02*
X79871Y112370D01*
X79923Y112490D01*
X79972Y112611D01*
X80017Y112733D01*
X80059Y112857D01*
X80097Y112982D01*
X80132Y113108D01*
X80163Y113234D01*
X80191Y113362D01*
X80215Y113490D01*
X80235Y113619D01*
X80251Y113749D01*
X80264Y113879D01*
X80274Y114009D01*
X80279Y114139D01*
X80281Y114270D01*
X79816Y112252D02*
X79793Y112192D01*
X79767Y112132D01*
X79738Y112075D01*
X79705Y112019D01*
X79669Y111965D01*
X79631Y111913D01*
X79589Y111863D01*
X79545Y111816D01*
X79498Y111771D01*
X79448Y111729D01*
X79397Y111690D01*
X79343Y111654D01*
X79287Y111621D01*
X79230Y111591D01*
X79171Y111564D01*
X79110Y111541D01*
X79049Y111521D01*
X78986Y111505D01*
X78922Y111492D01*
X78858Y111483D01*
X78794Y111478D01*
X78729Y111476D01*
X77487Y112718D02*
X79971Y115822D01*
X82663Y113028D02*
X82665Y113105D01*
X82671Y113183D01*
X82680Y113259D01*
X82694Y113336D01*
X82711Y113411D01*
X82732Y113485D01*
X82757Y113559D01*
X82785Y113631D01*
X82817Y113701D01*
X82852Y113770D01*
X82891Y113837D01*
X82933Y113902D01*
X82978Y113965D01*
X83026Y114026D01*
X83077Y114084D01*
X83131Y114139D01*
X83188Y114192D01*
X83247Y114241D01*
X83309Y114288D01*
X83373Y114332D01*
X83439Y114372D01*
X83507Y114409D01*
X83577Y114443D01*
X83648Y114473D01*
X83721Y114499D01*
X83795Y114522D01*
X83870Y114541D01*
X83945Y114556D01*
X84022Y114568D01*
X84099Y114576D01*
X84176Y114580D01*
X84254Y114580D01*
X84331Y114576D01*
X84408Y114568D01*
X84485Y114556D01*
X84560Y114541D01*
X84635Y114522D01*
X84709Y114499D01*
X84782Y114473D01*
X84853Y114443D01*
X84923Y114409D01*
X84991Y114372D01*
X85057Y114332D01*
X85121Y114288D01*
X85183Y114241D01*
X85242Y114192D01*
X85299Y114139D01*
X85353Y114084D01*
X85404Y114026D01*
X85452Y113965D01*
X85497Y113902D01*
X85539Y113837D01*
X85578Y113770D01*
X85613Y113701D01*
X85645Y113631D01*
X85673Y113559D01*
X85698Y113485D01*
X85719Y113411D01*
X85736Y113336D01*
X85750Y113259D01*
X85759Y113183D01*
X85765Y113105D01*
X85767Y113028D01*
X85765Y112951D01*
X85759Y112873D01*
X85750Y112797D01*
X85736Y112720D01*
X85719Y112645D01*
X85698Y112571D01*
X85673Y112497D01*
X85645Y112425D01*
X85613Y112355D01*
X85578Y112286D01*
X85539Y112219D01*
X85497Y112154D01*
X85452Y112091D01*
X85404Y112030D01*
X85353Y111972D01*
X85299Y111917D01*
X85242Y111864D01*
X85183Y111815D01*
X85121Y111768D01*
X85057Y111724D01*
X84991Y111684D01*
X84923Y111647D01*
X84853Y111613D01*
X84782Y111583D01*
X84709Y111557D01*
X84635Y111534D01*
X84560Y111515D01*
X84485Y111500D01*
X84408Y111488D01*
X84331Y111480D01*
X84254Y111476D01*
X84176Y111476D01*
X84099Y111480D01*
X84022Y111488D01*
X83945Y111500D01*
X83870Y111515D01*
X83795Y111534D01*
X83721Y111557D01*
X83648Y111583D01*
X83577Y111613D01*
X83507Y111647D01*
X83439Y111684D01*
X83373Y111724D01*
X83309Y111768D01*
X83247Y111815D01*
X83188Y111864D01*
X83131Y111917D01*
X83077Y111972D01*
X83026Y112030D01*
X82978Y112091D01*
X82933Y112154D01*
X82891Y112219D01*
X82852Y112286D01*
X82817Y112355D01*
X82785Y112425D01*
X82757Y112497D01*
X82732Y112571D01*
X82711Y112645D01*
X82694Y112720D01*
X82680Y112797D01*
X82671Y112873D01*
X82665Y112951D01*
X82663Y113028D01*
X82973Y115822D02*
X82975Y115892D01*
X82981Y115961D01*
X82991Y116030D01*
X83004Y116098D01*
X83022Y116166D01*
X83043Y116232D01*
X83068Y116297D01*
X83096Y116361D01*
X83128Y116423D01*
X83163Y116483D01*
X83202Y116541D01*
X83244Y116596D01*
X83289Y116650D01*
X83337Y116700D01*
X83387Y116748D01*
X83441Y116793D01*
X83496Y116835D01*
X83554Y116874D01*
X83614Y116909D01*
X83676Y116941D01*
X83740Y116969D01*
X83805Y116994D01*
X83871Y117015D01*
X83939Y117033D01*
X84007Y117046D01*
X84076Y117056D01*
X84145Y117062D01*
X84215Y117064D01*
X84285Y117062D01*
X84354Y117056D01*
X84423Y117046D01*
X84491Y117033D01*
X84559Y117015D01*
X84625Y116994D01*
X84690Y116969D01*
X84754Y116941D01*
X84816Y116909D01*
X84876Y116874D01*
X84934Y116835D01*
X84989Y116793D01*
X85043Y116748D01*
X85093Y116700D01*
X85141Y116650D01*
X85186Y116596D01*
X85228Y116541D01*
X85267Y116483D01*
X85302Y116423D01*
X85334Y116361D01*
X85362Y116297D01*
X85387Y116232D01*
X85408Y116166D01*
X85426Y116098D01*
X85439Y116030D01*
X85449Y115961D01*
X85455Y115892D01*
X85457Y115822D01*
X85455Y115752D01*
X85449Y115683D01*
X85439Y115614D01*
X85426Y115546D01*
X85408Y115478D01*
X85387Y115412D01*
X85362Y115347D01*
X85334Y115283D01*
X85302Y115221D01*
X85267Y115161D01*
X85228Y115103D01*
X85186Y115048D01*
X85141Y114994D01*
X85093Y114944D01*
X85043Y114896D01*
X84989Y114851D01*
X84934Y114809D01*
X84876Y114770D01*
X84816Y114735D01*
X84754Y114703D01*
X84690Y114675D01*
X84625Y114650D01*
X84559Y114629D01*
X84491Y114611D01*
X84423Y114598D01*
X84354Y114588D01*
X84285Y114582D01*
X84215Y114580D01*
X84145Y114582D01*
X84076Y114588D01*
X84007Y114598D01*
X83939Y114611D01*
X83871Y114629D01*
X83805Y114650D01*
X83740Y114675D01*
X83676Y114703D01*
X83614Y114735D01*
X83554Y114770D01*
X83496Y114809D01*
X83441Y114851D01*
X83387Y114896D01*
X83337Y114944D01*
X83289Y114994D01*
X83244Y115048D01*
X83202Y115103D01*
X83163Y115161D01*
X83128Y115221D01*
X83096Y115283D01*
X83068Y115347D01*
X83043Y115412D01*
X83022Y115478D01*
X83004Y115546D01*
X82991Y115614D01*
X82981Y115683D01*
X82975Y115752D01*
X82973Y115822D01*
D14*
X31264Y103352D02*
X764Y103352D01*
X31264Y103352D02*
X31264Y68352D01*
X764Y68352D01*
X764Y77352D01*
X764Y94352D01*
X764Y103352D01*
X764Y94352D02*
X-4236Y94352D01*
X-4236Y77352D01*
X764Y77352D01*
D13*
X6332Y81881D02*
X6410Y81883D01*
X6488Y81888D01*
X6565Y81898D01*
X6642Y81911D01*
X6718Y81927D01*
X6793Y81947D01*
X6867Y81971D01*
X6940Y81998D01*
X7012Y82029D01*
X7082Y82063D01*
X7151Y82100D01*
X7217Y82141D01*
X7282Y82185D01*
X7344Y82231D01*
X7404Y82281D01*
X7462Y82333D01*
X7517Y82388D01*
X7569Y82446D01*
X7619Y82506D01*
X7665Y82568D01*
X7709Y82633D01*
X7750Y82700D01*
X7787Y82768D01*
X7821Y82838D01*
X7852Y82910D01*
X7879Y82983D01*
X7903Y83057D01*
X7923Y83132D01*
X7939Y83208D01*
X7952Y83285D01*
X7962Y83362D01*
X7967Y83440D01*
X7969Y83518D01*
X6332Y81881D02*
X6218Y81883D01*
X6105Y81888D01*
X5991Y81898D01*
X5878Y81911D01*
X5766Y81928D01*
X5654Y81948D01*
X5543Y81972D01*
X5432Y82000D01*
X5323Y82031D01*
X5215Y82066D01*
X5108Y82105D01*
X5002Y82147D01*
X4898Y82192D01*
X4795Y82241D01*
X4694Y82294D01*
X4595Y82349D01*
X4497Y82408D01*
X4402Y82470D01*
X4309Y82535D01*
X4217Y82603D01*
X4129Y82674D01*
X4042Y82748D01*
X3958Y82825D01*
X3877Y82904D01*
X4081Y87610D02*
X4083Y87688D01*
X4088Y87766D01*
X4098Y87843D01*
X4111Y87920D01*
X4127Y87996D01*
X4147Y88071D01*
X4171Y88145D01*
X4198Y88218D01*
X4229Y88290D01*
X4263Y88360D01*
X4300Y88429D01*
X4341Y88495D01*
X4385Y88560D01*
X4431Y88622D01*
X4481Y88682D01*
X4533Y88740D01*
X4588Y88795D01*
X4646Y88847D01*
X4706Y88897D01*
X4768Y88943D01*
X4833Y88987D01*
X4900Y89028D01*
X4968Y89065D01*
X5038Y89099D01*
X5110Y89130D01*
X5183Y89157D01*
X5257Y89181D01*
X5332Y89201D01*
X5408Y89217D01*
X5485Y89230D01*
X5562Y89240D01*
X5640Y89245D01*
X5718Y89247D01*
X5828Y89245D01*
X5937Y89239D01*
X6047Y89229D01*
X6155Y89216D01*
X6264Y89198D01*
X6371Y89177D01*
X6478Y89151D01*
X6584Y89122D01*
X6689Y89090D01*
X6792Y89053D01*
X6894Y89013D01*
X6995Y88969D01*
X7094Y88921D01*
X7191Y88871D01*
X7286Y88816D01*
X7379Y88758D01*
X7470Y88697D01*
X7559Y88633D01*
X4900Y86177D02*
X4833Y86219D01*
X4768Y86263D01*
X4706Y86311D01*
X4646Y86361D01*
X4588Y86414D01*
X4533Y86470D01*
X4481Y86529D01*
X4431Y86589D01*
X4384Y86653D01*
X4341Y86718D01*
X4300Y86785D01*
X4263Y86854D01*
X4229Y86925D01*
X4198Y86997D01*
X4171Y87071D01*
X4147Y87145D01*
X4127Y87221D01*
X4111Y87298D01*
X4098Y87375D01*
X4088Y87453D01*
X4083Y87532D01*
X4081Y87610D01*
X7151Y84950D02*
X7217Y84908D01*
X7282Y84864D01*
X7344Y84817D01*
X7404Y84766D01*
X7462Y84713D01*
X7517Y84657D01*
X7570Y84599D01*
X7619Y84538D01*
X7666Y84475D01*
X7709Y84410D01*
X7750Y84343D01*
X7787Y84274D01*
X7821Y84203D01*
X7852Y84131D01*
X7879Y84057D01*
X7903Y83982D01*
X7923Y83907D01*
X7939Y83830D01*
X7952Y83753D01*
X7962Y83675D01*
X7967Y83596D01*
X7969Y83518D01*
X7151Y84950D02*
X4900Y86178D01*
X10948Y87610D02*
X12994Y89247D01*
X12994Y81881D01*
X10948Y81881D02*
X15041Y81881D01*
X18264Y85564D02*
X18266Y85717D01*
X18272Y85870D01*
X18281Y86022D01*
X18295Y86175D01*
X18312Y86327D01*
X18333Y86478D01*
X18358Y86629D01*
X18387Y86779D01*
X18419Y86929D01*
X18456Y87077D01*
X18496Y87225D01*
X18539Y87372D01*
X18587Y87517D01*
X18638Y87661D01*
X18692Y87804D01*
X18751Y87946D01*
X18812Y88085D01*
X18878Y88224D01*
X18904Y88294D01*
X18934Y88364D01*
X18967Y88431D01*
X19003Y88497D01*
X19042Y88561D01*
X19085Y88623D01*
X19131Y88682D01*
X19179Y88740D01*
X19230Y88794D01*
X19284Y88847D01*
X19341Y88896D01*
X19400Y88943D01*
X19461Y88986D01*
X19524Y89027D01*
X19589Y89064D01*
X19656Y89099D01*
X19725Y89129D01*
X19795Y89157D01*
X19866Y89180D01*
X19938Y89201D01*
X20011Y89217D01*
X20085Y89230D01*
X20160Y89240D01*
X20235Y89245D01*
X20310Y89247D01*
X20385Y89245D01*
X20460Y89240D01*
X20535Y89230D01*
X20609Y89217D01*
X20682Y89201D01*
X20754Y89180D01*
X20825Y89157D01*
X20895Y89129D01*
X20964Y89099D01*
X21031Y89064D01*
X21096Y89027D01*
X21159Y88986D01*
X21220Y88943D01*
X21279Y88896D01*
X21336Y88847D01*
X21390Y88794D01*
X21441Y88740D01*
X21490Y88682D01*
X21535Y88623D01*
X21578Y88561D01*
X21617Y88497D01*
X21654Y88431D01*
X21686Y88363D01*
X21716Y88294D01*
X21742Y88224D01*
X21807Y88086D01*
X21869Y87946D01*
X21927Y87804D01*
X21982Y87661D01*
X22033Y87517D01*
X22081Y87372D01*
X22124Y87225D01*
X22164Y87078D01*
X22201Y86929D01*
X22233Y86779D01*
X22262Y86629D01*
X22287Y86478D01*
X22308Y86327D01*
X22325Y86175D01*
X22339Y86022D01*
X22348Y85870D01*
X22354Y85717D01*
X22356Y85564D01*
X18263Y85564D02*
X18265Y85411D01*
X18271Y85258D01*
X18280Y85105D01*
X18294Y84953D01*
X18311Y84801D01*
X18332Y84650D01*
X18357Y84499D01*
X18386Y84348D01*
X18418Y84199D01*
X18455Y84050D01*
X18495Y83903D01*
X18538Y83756D01*
X18586Y83611D01*
X18637Y83466D01*
X18692Y83324D01*
X18750Y83182D01*
X18812Y83042D01*
X18877Y82904D01*
X18878Y82904D02*
X18904Y82833D01*
X18934Y82764D01*
X18967Y82697D01*
X19003Y82631D01*
X19042Y82567D01*
X19085Y82505D01*
X19131Y82446D01*
X19179Y82388D01*
X19230Y82334D01*
X19284Y82281D01*
X19341Y82232D01*
X19400Y82185D01*
X19461Y82142D01*
X19524Y82101D01*
X19589Y82064D01*
X19656Y82029D01*
X19725Y81999D01*
X19795Y81971D01*
X19866Y81948D01*
X19938Y81927D01*
X20011Y81911D01*
X20085Y81898D01*
X20160Y81888D01*
X20235Y81883D01*
X20310Y81881D01*
X21742Y82904D02*
X21807Y83042D01*
X21869Y83182D01*
X21927Y83324D01*
X21982Y83467D01*
X22033Y83611D01*
X22081Y83756D01*
X22124Y83903D01*
X22164Y84051D01*
X22201Y84199D01*
X22233Y84349D01*
X22262Y84499D01*
X22287Y84650D01*
X22308Y84801D01*
X22325Y84953D01*
X22339Y85106D01*
X22348Y85258D01*
X22354Y85411D01*
X22356Y85564D01*
X21742Y82904D02*
X21716Y82834D01*
X21686Y82764D01*
X21654Y82697D01*
X21617Y82631D01*
X21578Y82567D01*
X21535Y82505D01*
X21489Y82446D01*
X21441Y82388D01*
X21390Y82334D01*
X21336Y82281D01*
X21279Y82232D01*
X21220Y82185D01*
X21159Y82142D01*
X21096Y82101D01*
X21031Y82064D01*
X20964Y82029D01*
X20895Y81999D01*
X20825Y81971D01*
X20754Y81948D01*
X20682Y81927D01*
X20609Y81911D01*
X20535Y81898D01*
X20460Y81888D01*
X20385Y81883D01*
X20310Y81881D01*
X18673Y83518D02*
X21947Y87610D01*
X25579Y87610D02*
X27625Y89247D01*
X27625Y81881D01*
X25579Y81881D02*
X29671Y81881D01*
D14*
X37892Y322354D02*
X11892Y322354D01*
X37892Y322354D02*
X37892Y389354D01*
X11892Y389354D01*
X11892Y354854D01*
X11892Y341854D01*
X11892Y322354D01*
X11892Y354854D02*
X-3108Y354854D01*
X-3108Y341854D01*
X11892Y341854D01*
X24201Y350326D02*
X24266Y350324D01*
X24330Y350318D01*
X24394Y350308D01*
X24458Y350295D01*
X24520Y350277D01*
X24581Y350256D01*
X24641Y350232D01*
X24699Y350203D01*
X24756Y350171D01*
X24810Y350136D01*
X24862Y350098D01*
X24912Y350056D01*
X24959Y350012D01*
X25003Y349965D01*
X25045Y349915D01*
X25083Y349863D01*
X25118Y349809D01*
X25150Y349752D01*
X25179Y349694D01*
X25203Y349634D01*
X25224Y349573D01*
X25242Y349511D01*
X25255Y349447D01*
X25265Y349383D01*
X25271Y349319D01*
X25273Y349254D01*
X25271Y349160D01*
X25265Y349066D01*
X25255Y348972D01*
X25242Y348879D01*
X25224Y348787D01*
X25203Y348695D01*
X25178Y348604D01*
X25149Y348514D01*
X25116Y348426D01*
X25080Y348339D01*
X25040Y348254D01*
X24997Y348170D01*
X24950Y348089D01*
X24900Y348009D01*
X24847Y347931D01*
X24790Y347856D01*
X24731Y347783D01*
X24668Y347713D01*
X24603Y347645D01*
X21519Y347780D02*
X21454Y347782D01*
X21390Y347788D01*
X21326Y347798D01*
X21262Y347811D01*
X21200Y347829D01*
X21139Y347850D01*
X21079Y347874D01*
X21021Y347903D01*
X20964Y347935D01*
X20910Y347970D01*
X20858Y348008D01*
X20808Y348050D01*
X20761Y348094D01*
X20717Y348141D01*
X20675Y348191D01*
X20637Y348243D01*
X20602Y348297D01*
X20570Y348354D01*
X20541Y348412D01*
X20517Y348472D01*
X20496Y348533D01*
X20478Y348595D01*
X20465Y348659D01*
X20455Y348723D01*
X20449Y348787D01*
X20447Y348852D01*
X20449Y348938D01*
X20454Y349024D01*
X20464Y349110D01*
X20477Y349195D01*
X20493Y349280D01*
X20513Y349364D01*
X20537Y349447D01*
X20564Y349529D01*
X20595Y349609D01*
X20629Y349689D01*
X20667Y349766D01*
X20708Y349842D01*
X20752Y349916D01*
X20799Y349989D01*
X20849Y350059D01*
X22457Y348316D02*
X22424Y348263D01*
X22387Y348212D01*
X22348Y348163D01*
X22306Y348116D01*
X22261Y348072D01*
X22214Y348031D01*
X22165Y347992D01*
X22113Y347956D01*
X22059Y347923D01*
X22004Y347894D01*
X21947Y347868D01*
X21888Y347845D01*
X21829Y347825D01*
X21768Y347809D01*
X21707Y347796D01*
X21644Y347787D01*
X21582Y347782D01*
X21519Y347780D01*
X23263Y349790D02*
X23296Y349843D01*
X23333Y349894D01*
X23372Y349943D01*
X23414Y349990D01*
X23459Y350034D01*
X23506Y350075D01*
X23555Y350114D01*
X23607Y350150D01*
X23661Y350183D01*
X23716Y350212D01*
X23773Y350238D01*
X23832Y350261D01*
X23891Y350281D01*
X23952Y350297D01*
X24013Y350310D01*
X24076Y350319D01*
X24138Y350324D01*
X24201Y350326D01*
X23262Y349790D02*
X22458Y348316D01*
X20447Y354423D02*
X20449Y354491D01*
X20455Y354558D01*
X20464Y354625D01*
X20477Y354692D01*
X20494Y354757D01*
X20515Y354822D01*
X20539Y354885D01*
X20567Y354947D01*
X20598Y355007D01*
X20632Y355065D01*
X20670Y355121D01*
X20710Y355176D01*
X20754Y355227D01*
X20801Y355276D01*
X20850Y355323D01*
X20901Y355367D01*
X20956Y355407D01*
X21012Y355445D01*
X21070Y355479D01*
X21130Y355510D01*
X21192Y355538D01*
X21255Y355562D01*
X21320Y355583D01*
X21385Y355600D01*
X21452Y355613D01*
X21519Y355622D01*
X21586Y355628D01*
X21654Y355630D01*
X20447Y354423D02*
X20449Y354345D01*
X20455Y354267D01*
X20465Y354190D01*
X20478Y354113D01*
X20496Y354037D01*
X20517Y353962D01*
X20542Y353888D01*
X20571Y353816D01*
X20603Y353745D01*
X20639Y353676D01*
X20678Y353608D01*
X20721Y353543D01*
X20767Y353480D01*
X20816Y353419D01*
X20868Y353361D01*
X20923Y353306D01*
X20980Y353253D01*
X21040Y353204D01*
X21103Y353157D01*
X21168Y353114D01*
X21234Y353074D01*
X21303Y353037D01*
X21374Y353004D01*
X21446Y352974D01*
X21520Y352948D01*
X22592Y355228D02*
X22543Y355277D01*
X22491Y355324D01*
X22436Y355367D01*
X22379Y355408D01*
X22320Y355446D01*
X22259Y355480D01*
X22196Y355511D01*
X22132Y355539D01*
X22066Y355563D01*
X22000Y355583D01*
X21932Y355600D01*
X21863Y355613D01*
X21794Y355622D01*
X21724Y355628D01*
X21654Y355630D01*
X22592Y355228D02*
X25273Y352949D01*
X25273Y355630D01*
X22860Y358435D02*
X22740Y358437D01*
X22620Y358442D01*
X22500Y358451D01*
X22380Y358464D01*
X22261Y358480D01*
X22142Y358500D01*
X22024Y358524D01*
X21907Y358551D01*
X21791Y358581D01*
X21676Y358615D01*
X21561Y358653D01*
X21448Y358694D01*
X21337Y358738D01*
X21226Y358786D01*
X21117Y358837D01*
X21117Y358838D02*
X21060Y358859D01*
X21004Y358885D01*
X20949Y358913D01*
X20897Y358945D01*
X20846Y358981D01*
X20798Y359019D01*
X20752Y359060D01*
X20709Y359104D01*
X20669Y359150D01*
X20632Y359199D01*
X20598Y359251D01*
X20567Y359304D01*
X20539Y359359D01*
X20515Y359415D01*
X20494Y359473D01*
X20477Y359532D01*
X20464Y359592D01*
X20455Y359653D01*
X20449Y359715D01*
X20447Y359776D01*
X20449Y359837D01*
X20455Y359899D01*
X20464Y359960D01*
X20477Y360020D01*
X20494Y360079D01*
X20515Y360137D01*
X20539Y360193D01*
X20567Y360248D01*
X20598Y360301D01*
X20632Y360353D01*
X20669Y360402D01*
X20709Y360448D01*
X20752Y360492D01*
X20798Y360533D01*
X20846Y360571D01*
X20897Y360607D01*
X20949Y360639D01*
X21004Y360667D01*
X21060Y360693D01*
X21117Y360714D01*
X21226Y360765D01*
X21337Y360813D01*
X21448Y360857D01*
X21561Y360898D01*
X21676Y360936D01*
X21791Y360970D01*
X21907Y361000D01*
X22024Y361027D01*
X22142Y361051D01*
X22261Y361071D01*
X22380Y361087D01*
X22500Y361100D01*
X22620Y361109D01*
X22740Y361114D01*
X22860Y361116D01*
X22860Y358435D02*
X22980Y358437D01*
X23100Y358442D01*
X23220Y358451D01*
X23340Y358464D01*
X23459Y358480D01*
X23578Y358500D01*
X23696Y358524D01*
X23813Y358551D01*
X23929Y358581D01*
X24044Y358615D01*
X24159Y358653D01*
X24272Y358694D01*
X24383Y358738D01*
X24494Y358786D01*
X24603Y358837D01*
X24603Y358838D02*
X24660Y358859D01*
X24716Y358885D01*
X24771Y358913D01*
X24823Y358945D01*
X24874Y358981D01*
X24922Y359019D01*
X24968Y359060D01*
X25011Y359104D01*
X25051Y359150D01*
X25088Y359199D01*
X25122Y359251D01*
X25153Y359304D01*
X25181Y359359D01*
X25205Y359415D01*
X25226Y359473D01*
X25243Y359532D01*
X25256Y359592D01*
X25265Y359653D01*
X25271Y359715D01*
X25273Y359776D01*
X24603Y360714D02*
X24494Y360765D01*
X24383Y360813D01*
X24272Y360857D01*
X24159Y360898D01*
X24044Y360936D01*
X23929Y360970D01*
X23813Y361000D01*
X23696Y361027D01*
X23578Y361051D01*
X23459Y361071D01*
X23340Y361087D01*
X23220Y361100D01*
X23100Y361109D01*
X22980Y361114D01*
X22860Y361116D01*
X24603Y360714D02*
X24660Y360693D01*
X24716Y360667D01*
X24771Y360639D01*
X24823Y360607D01*
X24874Y360571D01*
X24922Y360533D01*
X24968Y360492D01*
X25011Y360448D01*
X25051Y360401D01*
X25088Y360353D01*
X25122Y360301D01*
X25153Y360248D01*
X25181Y360193D01*
X25205Y360137D01*
X25226Y360079D01*
X25243Y360020D01*
X25256Y359960D01*
X25265Y359899D01*
X25271Y359837D01*
X25273Y359776D01*
X24201Y358703D02*
X21519Y360848D01*
X21519Y363922D02*
X20447Y365262D01*
X25273Y365262D01*
X25273Y363922D02*
X25273Y366603D01*
X182758Y244724D02*
X182758Y164724D01*
X182758Y244724D02*
X262758Y244724D01*
X262758Y164724D01*
X182758Y164724D01*
D16*
X203454Y204414D02*
X203454Y212852D01*
X203454Y204414D02*
X203456Y204301D01*
X203462Y204188D01*
X203472Y204075D01*
X203486Y203962D01*
X203503Y203850D01*
X203525Y203739D01*
X203550Y203629D01*
X203580Y203519D01*
X203613Y203411D01*
X203650Y203304D01*
X203690Y203198D01*
X203735Y203094D01*
X203783Y202991D01*
X203834Y202890D01*
X203889Y202791D01*
X203947Y202694D01*
X204009Y202599D01*
X204074Y202506D01*
X204142Y202416D01*
X204213Y202328D01*
X204288Y202242D01*
X204365Y202159D01*
X204445Y202079D01*
X204528Y202002D01*
X204614Y201927D01*
X204702Y201856D01*
X204792Y201788D01*
X204885Y201723D01*
X204980Y201661D01*
X205077Y201603D01*
X205176Y201548D01*
X205277Y201497D01*
X205380Y201449D01*
X205484Y201404D01*
X205590Y201364D01*
X205697Y201327D01*
X205805Y201294D01*
X205915Y201264D01*
X206025Y201239D01*
X206136Y201217D01*
X206248Y201200D01*
X206361Y201186D01*
X206474Y201176D01*
X206587Y201170D01*
X206700Y201168D01*
X206813Y201170D01*
X206926Y201176D01*
X207039Y201186D01*
X207152Y201200D01*
X207264Y201217D01*
X207375Y201239D01*
X207485Y201264D01*
X207595Y201294D01*
X207703Y201327D01*
X207810Y201364D01*
X207916Y201404D01*
X208020Y201449D01*
X208123Y201497D01*
X208224Y201548D01*
X208323Y201603D01*
X208420Y201661D01*
X208515Y201723D01*
X208608Y201788D01*
X208698Y201856D01*
X208786Y201927D01*
X208872Y202002D01*
X208955Y202079D01*
X209035Y202159D01*
X209112Y202242D01*
X209187Y202328D01*
X209258Y202416D01*
X209326Y202506D01*
X209391Y202599D01*
X209453Y202694D01*
X209511Y202791D01*
X209566Y202890D01*
X209617Y202991D01*
X209665Y203094D01*
X209710Y203198D01*
X209750Y203304D01*
X209787Y203411D01*
X209820Y203519D01*
X209850Y203629D01*
X209875Y203739D01*
X209897Y203850D01*
X209914Y203962D01*
X209928Y204075D01*
X209938Y204188D01*
X209944Y204301D01*
X209946Y204414D01*
X209945Y204414D02*
X209945Y212852D01*
X215265Y210256D02*
X218511Y212852D01*
X218511Y201168D01*
X221756Y201168D02*
X215265Y201168D01*
X226695Y207010D02*
X226698Y207240D01*
X226706Y207470D01*
X226720Y207699D01*
X226739Y207928D01*
X226764Y208157D01*
X226794Y208384D01*
X226829Y208612D01*
X226870Y208838D01*
X226916Y209063D01*
X226968Y209287D01*
X227025Y209509D01*
X227087Y209731D01*
X227155Y209950D01*
X227228Y210168D01*
X227306Y210385D01*
X227389Y210599D01*
X227477Y210811D01*
X227570Y211021D01*
X227669Y211229D01*
X227668Y211229D02*
X227701Y211319D01*
X227737Y211408D01*
X227777Y211496D01*
X227821Y211581D01*
X227868Y211665D01*
X227918Y211747D01*
X227972Y211827D01*
X228028Y211904D01*
X228088Y211980D01*
X228151Y212053D01*
X228216Y212123D01*
X228285Y212191D01*
X228356Y212255D01*
X228429Y212317D01*
X228505Y212376D01*
X228583Y212432D01*
X228664Y212485D01*
X228746Y212534D01*
X228830Y212580D01*
X228917Y212623D01*
X229004Y212662D01*
X229094Y212698D01*
X229184Y212730D01*
X229276Y212758D01*
X229369Y212783D01*
X229463Y212804D01*
X229557Y212821D01*
X229652Y212835D01*
X229748Y212844D01*
X229844Y212850D01*
X229940Y212852D01*
X230036Y212850D01*
X230132Y212844D01*
X230228Y212835D01*
X230323Y212821D01*
X230417Y212804D01*
X230511Y212783D01*
X230604Y212758D01*
X230696Y212730D01*
X230786Y212698D01*
X230876Y212662D01*
X230963Y212623D01*
X231050Y212580D01*
X231134Y212534D01*
X231216Y212485D01*
X231297Y212432D01*
X231375Y212376D01*
X231451Y212317D01*
X231524Y212255D01*
X231595Y212191D01*
X231664Y212123D01*
X231729Y212053D01*
X231792Y211980D01*
X231852Y211904D01*
X231908Y211827D01*
X231962Y211747D01*
X232012Y211665D01*
X232059Y211581D01*
X232103Y211496D01*
X232143Y211408D01*
X232179Y211319D01*
X232212Y211229D01*
X232213Y211229D02*
X232312Y211022D01*
X232405Y210812D01*
X232493Y210599D01*
X232576Y210385D01*
X232654Y210169D01*
X232727Y209951D01*
X232795Y209731D01*
X232857Y209510D01*
X232914Y209287D01*
X232966Y209063D01*
X233012Y208838D01*
X233053Y208612D01*
X233088Y208385D01*
X233118Y208157D01*
X233143Y207928D01*
X233162Y207699D01*
X233176Y207470D01*
X233184Y207240D01*
X233187Y207010D01*
X226695Y207010D02*
X226698Y206780D01*
X226706Y206550D01*
X226720Y206321D01*
X226739Y206092D01*
X226764Y205863D01*
X226794Y205635D01*
X226829Y205408D01*
X226870Y205182D01*
X226916Y204957D01*
X226968Y204733D01*
X227025Y204510D01*
X227087Y204289D01*
X227155Y204069D01*
X227228Y203851D01*
X227306Y203635D01*
X227389Y203421D01*
X227477Y203209D01*
X227570Y202998D01*
X227669Y202791D01*
X227668Y202791D02*
X227701Y202701D01*
X227737Y202612D01*
X227778Y202524D01*
X227821Y202439D01*
X227868Y202355D01*
X227918Y202273D01*
X227972Y202193D01*
X228028Y202116D01*
X228088Y202040D01*
X228151Y201967D01*
X228216Y201897D01*
X228285Y201829D01*
X228356Y201765D01*
X228429Y201703D01*
X228505Y201644D01*
X228583Y201588D01*
X228664Y201535D01*
X228746Y201486D01*
X228830Y201440D01*
X228917Y201397D01*
X229004Y201358D01*
X229094Y201322D01*
X229184Y201290D01*
X229276Y201262D01*
X229369Y201237D01*
X229463Y201216D01*
X229557Y201199D01*
X229652Y201185D01*
X229748Y201176D01*
X229844Y201170D01*
X229940Y201168D01*
X232212Y202791D02*
X232311Y202998D01*
X232404Y203209D01*
X232492Y203421D01*
X232575Y203635D01*
X232653Y203851D01*
X232726Y204069D01*
X232794Y204289D01*
X232856Y204510D01*
X232913Y204733D01*
X232965Y204957D01*
X233011Y205182D01*
X233052Y205408D01*
X233087Y205635D01*
X233117Y205863D01*
X233142Y206092D01*
X233161Y206321D01*
X233175Y206550D01*
X233183Y206780D01*
X233186Y207010D01*
X232212Y202791D02*
X232179Y202701D01*
X232143Y202612D01*
X232103Y202524D01*
X232059Y202439D01*
X232012Y202355D01*
X231962Y202273D01*
X231908Y202193D01*
X231852Y202116D01*
X231792Y202040D01*
X231729Y201967D01*
X231664Y201897D01*
X231595Y201829D01*
X231524Y201765D01*
X231451Y201703D01*
X231375Y201644D01*
X231297Y201588D01*
X231216Y201535D01*
X231134Y201486D01*
X231050Y201440D01*
X230963Y201397D01*
X230876Y201358D01*
X230786Y201322D01*
X230696Y201290D01*
X230604Y201262D01*
X230511Y201237D01*
X230417Y201216D01*
X230323Y201199D01*
X230228Y201185D01*
X230132Y201176D01*
X230036Y201170D01*
X229940Y201168D01*
X227344Y203764D02*
X232537Y210256D01*
X238125Y210256D02*
X241370Y212852D01*
X241370Y201168D01*
X238125Y201168D02*
X244616Y201168D01*
D14*
X69934Y103458D02*
X69934Y88058D01*
X80434Y88058D01*
X80434Y103458D01*
X69934Y103458D01*
D12*
X74091Y91529D02*
X76109Y91529D01*
X76164Y91531D01*
X76219Y91537D01*
X76274Y91547D01*
X76328Y91560D01*
X76380Y91578D01*
X76431Y91599D01*
X76481Y91624D01*
X76529Y91652D01*
X76574Y91684D01*
X76617Y91719D01*
X76658Y91756D01*
X76695Y91797D01*
X76730Y91840D01*
X76762Y91885D01*
X76790Y91933D01*
X76815Y91983D01*
X76836Y92034D01*
X76854Y92086D01*
X76867Y92140D01*
X76877Y92195D01*
X76883Y92250D01*
X76885Y92305D01*
X76883Y92360D01*
X76877Y92415D01*
X76867Y92470D01*
X76854Y92524D01*
X76836Y92576D01*
X76815Y92627D01*
X76790Y92677D01*
X76762Y92725D01*
X76730Y92770D01*
X76695Y92813D01*
X76658Y92854D01*
X76617Y92891D01*
X76574Y92926D01*
X76529Y92958D01*
X76481Y92986D01*
X76431Y93011D01*
X76380Y93032D01*
X76328Y93050D01*
X76274Y93063D01*
X76219Y93073D01*
X76164Y93079D01*
X76109Y93081D01*
X74091Y93081D01*
X74091Y95217D02*
X74093Y95267D01*
X74098Y95316D01*
X74107Y95366D01*
X74119Y95414D01*
X74135Y95461D01*
X74154Y95507D01*
X74177Y95552D01*
X74202Y95595D01*
X74230Y95636D01*
X74262Y95675D01*
X74296Y95711D01*
X74332Y95745D01*
X74371Y95777D01*
X74412Y95805D01*
X74455Y95830D01*
X74500Y95853D01*
X74546Y95872D01*
X74593Y95888D01*
X74641Y95900D01*
X74691Y95909D01*
X74740Y95914D01*
X74790Y95916D01*
X74091Y95217D02*
X74093Y95161D01*
X74098Y95104D01*
X74107Y95049D01*
X74119Y94994D01*
X74135Y94940D01*
X74154Y94887D01*
X74177Y94835D01*
X74202Y94785D01*
X74231Y94736D01*
X74263Y94689D01*
X74297Y94645D01*
X74334Y94603D01*
X74374Y94563D01*
X74417Y94525D01*
X74461Y94491D01*
X74508Y94459D01*
X74557Y94431D01*
X74607Y94405D01*
X74659Y94383D01*
X74712Y94364D01*
X75333Y95683D02*
X75297Y95719D01*
X75259Y95752D01*
X75218Y95782D01*
X75176Y95809D01*
X75131Y95834D01*
X75085Y95855D01*
X75038Y95874D01*
X74990Y95889D01*
X74941Y95901D01*
X74891Y95909D01*
X74841Y95914D01*
X74790Y95916D01*
X75333Y95683D02*
X76885Y94364D01*
X76885Y95916D01*
X75488Y97107D02*
X75393Y97109D01*
X75298Y97115D01*
X75204Y97125D01*
X75110Y97138D01*
X75017Y97156D01*
X74924Y97177D01*
X74832Y97202D01*
X74742Y97231D01*
X74653Y97264D01*
X74565Y97300D01*
X74479Y97340D01*
X74437Y97356D01*
X74397Y97375D01*
X74359Y97398D01*
X74322Y97423D01*
X74287Y97451D01*
X74255Y97481D01*
X74225Y97514D01*
X74198Y97549D01*
X74173Y97587D01*
X74152Y97626D01*
X74134Y97666D01*
X74118Y97708D01*
X74106Y97751D01*
X74098Y97794D01*
X74093Y97839D01*
X74091Y97883D01*
X74093Y97927D01*
X74098Y97972D01*
X74106Y98015D01*
X74118Y98058D01*
X74134Y98100D01*
X74152Y98140D01*
X74173Y98179D01*
X74198Y98217D01*
X74225Y98252D01*
X74255Y98285D01*
X74287Y98315D01*
X74322Y98343D01*
X74359Y98368D01*
X74397Y98391D01*
X74437Y98410D01*
X74479Y98426D01*
X74565Y98466D01*
X74653Y98502D01*
X74742Y98535D01*
X74833Y98564D01*
X74924Y98589D01*
X75017Y98610D01*
X75110Y98628D01*
X75204Y98641D01*
X75298Y98651D01*
X75393Y98657D01*
X75488Y98659D01*
X75488Y97107D02*
X75583Y97109D01*
X75678Y97115D01*
X75772Y97125D01*
X75866Y97138D01*
X75959Y97156D01*
X76052Y97177D01*
X76144Y97202D01*
X76234Y97231D01*
X76323Y97264D01*
X76411Y97300D01*
X76497Y97340D01*
X76539Y97356D01*
X76579Y97375D01*
X76617Y97398D01*
X76654Y97423D01*
X76689Y97451D01*
X76721Y97481D01*
X76751Y97514D01*
X76778Y97549D01*
X76803Y97587D01*
X76824Y97626D01*
X76842Y97666D01*
X76858Y97708D01*
X76870Y97751D01*
X76878Y97794D01*
X76883Y97839D01*
X76885Y97883D01*
X76497Y98426D02*
X76411Y98466D01*
X76323Y98502D01*
X76234Y98535D01*
X76143Y98564D01*
X76052Y98589D01*
X75959Y98610D01*
X75866Y98628D01*
X75772Y98641D01*
X75678Y98651D01*
X75583Y98657D01*
X75488Y98659D01*
X76497Y98426D02*
X76539Y98410D01*
X76579Y98391D01*
X76617Y98368D01*
X76654Y98343D01*
X76689Y98315D01*
X76721Y98285D01*
X76751Y98252D01*
X76778Y98217D01*
X76803Y98179D01*
X76824Y98140D01*
X76842Y98100D01*
X76858Y98058D01*
X76870Y98015D01*
X76878Y97972D01*
X76883Y97927D01*
X76885Y97883D01*
X76264Y97262D02*
X74712Y98504D01*
X76264Y99850D02*
X74091Y100471D01*
X76264Y99850D02*
X76264Y101402D01*
X75643Y100937D02*
X76885Y100937D01*
D14*
X124446Y245858D02*
X154446Y245858D01*
X124446Y245858D02*
X124446Y275858D01*
X154446Y275858D01*
X154446Y245858D01*
D10*
X128336Y258600D02*
X128336Y262636D01*
X128336Y258600D02*
X128338Y258523D01*
X128344Y258445D01*
X128353Y258369D01*
X128367Y258292D01*
X128384Y258217D01*
X128405Y258143D01*
X128430Y258069D01*
X128458Y257997D01*
X128490Y257927D01*
X128525Y257858D01*
X128564Y257791D01*
X128606Y257726D01*
X128651Y257663D01*
X128699Y257602D01*
X128750Y257544D01*
X128804Y257489D01*
X128861Y257436D01*
X128920Y257387D01*
X128982Y257340D01*
X129046Y257296D01*
X129112Y257256D01*
X129180Y257219D01*
X129250Y257185D01*
X129321Y257155D01*
X129394Y257129D01*
X129468Y257106D01*
X129543Y257087D01*
X129618Y257072D01*
X129695Y257060D01*
X129772Y257052D01*
X129849Y257048D01*
X129927Y257048D01*
X130004Y257052D01*
X130081Y257060D01*
X130158Y257072D01*
X130233Y257087D01*
X130308Y257106D01*
X130382Y257129D01*
X130455Y257155D01*
X130526Y257185D01*
X130596Y257219D01*
X130664Y257256D01*
X130730Y257296D01*
X130794Y257340D01*
X130856Y257387D01*
X130915Y257436D01*
X130972Y257489D01*
X131026Y257544D01*
X131077Y257602D01*
X131125Y257663D01*
X131170Y257726D01*
X131212Y257791D01*
X131251Y257858D01*
X131286Y257927D01*
X131318Y257997D01*
X131346Y258069D01*
X131371Y258143D01*
X131392Y258217D01*
X131409Y258292D01*
X131423Y258369D01*
X131432Y258445D01*
X131438Y258523D01*
X131440Y258600D01*
X131440Y262636D01*
X135712Y262636D02*
X135785Y262634D01*
X135858Y262628D01*
X135931Y262619D01*
X136002Y262605D01*
X136074Y262588D01*
X136144Y262568D01*
X136213Y262543D01*
X136280Y262515D01*
X136346Y262484D01*
X136411Y262449D01*
X136473Y262411D01*
X136533Y262369D01*
X136591Y262325D01*
X136647Y262277D01*
X136700Y262227D01*
X136750Y262174D01*
X136798Y262118D01*
X136842Y262060D01*
X136884Y262000D01*
X136922Y261938D01*
X136957Y261873D01*
X136988Y261807D01*
X137016Y261740D01*
X137041Y261671D01*
X137061Y261601D01*
X137078Y261529D01*
X137092Y261458D01*
X137101Y261385D01*
X137107Y261312D01*
X137109Y261239D01*
X135712Y262636D02*
X135628Y262634D01*
X135545Y262628D01*
X135462Y262619D01*
X135380Y262605D01*
X135298Y262588D01*
X135217Y262566D01*
X135137Y262541D01*
X135059Y262513D01*
X134981Y262481D01*
X134906Y262445D01*
X134832Y262406D01*
X134760Y262363D01*
X134690Y262317D01*
X134623Y262268D01*
X134557Y262215D01*
X134495Y262160D01*
X134435Y262102D01*
X134377Y262041D01*
X134323Y261978D01*
X134271Y261912D01*
X134223Y261844D01*
X134178Y261773D01*
X134136Y261701D01*
X134098Y261626D01*
X134063Y261550D01*
X134032Y261473D01*
X134004Y261394D01*
X136643Y260153D02*
X136697Y260206D01*
X136748Y260263D01*
X136796Y260322D01*
X136841Y260383D01*
X136882Y260446D01*
X136921Y260512D01*
X136956Y260579D01*
X136988Y260648D01*
X137016Y260719D01*
X137040Y260790D01*
X137061Y260863D01*
X137078Y260937D01*
X137092Y261012D01*
X137101Y261087D01*
X137107Y261163D01*
X137109Y261239D01*
X136644Y260152D02*
X134005Y257048D01*
X137109Y257048D01*
X139491Y259842D02*
X139493Y259973D01*
X139498Y260103D01*
X139508Y260233D01*
X139521Y260363D01*
X139537Y260493D01*
X139557Y260622D01*
X139581Y260750D01*
X139609Y260877D01*
X139640Y261004D01*
X139675Y261130D01*
X139713Y261255D01*
X139755Y261379D01*
X139800Y261501D01*
X139849Y261622D01*
X139901Y261742D01*
X139957Y261860D01*
X139956Y261860D02*
X139979Y261920D01*
X140005Y261980D01*
X140034Y262037D01*
X140067Y262093D01*
X140103Y262147D01*
X140141Y262199D01*
X140183Y262249D01*
X140227Y262296D01*
X140274Y262341D01*
X140324Y262383D01*
X140375Y262422D01*
X140429Y262458D01*
X140485Y262491D01*
X140542Y262521D01*
X140601Y262548D01*
X140662Y262571D01*
X140723Y262591D01*
X140786Y262607D01*
X140850Y262620D01*
X140914Y262629D01*
X140978Y262634D01*
X141043Y262636D01*
X141108Y262634D01*
X141172Y262629D01*
X141236Y262620D01*
X141300Y262607D01*
X141363Y262591D01*
X141424Y262571D01*
X141485Y262548D01*
X141544Y262521D01*
X141601Y262491D01*
X141657Y262458D01*
X141711Y262422D01*
X141762Y262383D01*
X141812Y262341D01*
X141859Y262296D01*
X141903Y262249D01*
X141945Y262199D01*
X141983Y262147D01*
X142019Y262093D01*
X142052Y262037D01*
X142081Y261980D01*
X142107Y261920D01*
X142130Y261860D01*
X142186Y261742D01*
X142238Y261622D01*
X142287Y261501D01*
X142332Y261379D01*
X142374Y261255D01*
X142412Y261130D01*
X142447Y261004D01*
X142478Y260878D01*
X142506Y260750D01*
X142530Y260622D01*
X142550Y260493D01*
X142566Y260363D01*
X142579Y260233D01*
X142589Y260103D01*
X142594Y259973D01*
X142596Y259842D01*
X139491Y259842D02*
X139493Y259711D01*
X139498Y259581D01*
X139508Y259451D01*
X139521Y259321D01*
X139537Y259191D01*
X139557Y259062D01*
X139581Y258934D01*
X139609Y258807D01*
X139640Y258680D01*
X139675Y258554D01*
X139713Y258429D01*
X139755Y258305D01*
X139800Y258183D01*
X139849Y258062D01*
X139901Y257942D01*
X139957Y257824D01*
X139956Y257824D02*
X139979Y257764D01*
X140005Y257704D01*
X140034Y257647D01*
X140067Y257591D01*
X140103Y257537D01*
X140141Y257485D01*
X140183Y257435D01*
X140227Y257388D01*
X140274Y257343D01*
X140324Y257301D01*
X140375Y257262D01*
X140429Y257226D01*
X140485Y257193D01*
X140542Y257163D01*
X140601Y257136D01*
X140662Y257113D01*
X140723Y257093D01*
X140786Y257077D01*
X140850Y257064D01*
X140914Y257055D01*
X140978Y257050D01*
X141043Y257048D01*
X142130Y257824D02*
X142186Y257942D01*
X142238Y258062D01*
X142287Y258183D01*
X142332Y258305D01*
X142374Y258429D01*
X142412Y258554D01*
X142447Y258680D01*
X142478Y258806D01*
X142506Y258934D01*
X142530Y259062D01*
X142550Y259191D01*
X142566Y259321D01*
X142579Y259451D01*
X142589Y259581D01*
X142594Y259711D01*
X142596Y259842D01*
X142130Y257824D02*
X142107Y257764D01*
X142081Y257704D01*
X142052Y257647D01*
X142019Y257591D01*
X141983Y257537D01*
X141945Y257485D01*
X141903Y257435D01*
X141859Y257388D01*
X141812Y257343D01*
X141762Y257301D01*
X141711Y257262D01*
X141657Y257226D01*
X141601Y257193D01*
X141544Y257163D01*
X141485Y257136D01*
X141424Y257113D01*
X141363Y257093D01*
X141300Y257077D01*
X141236Y257064D01*
X141172Y257055D01*
X141108Y257050D01*
X141043Y257048D01*
X139802Y258290D02*
X142285Y261394D01*
X144978Y257048D02*
X146530Y257048D01*
X146607Y257050D01*
X146685Y257056D01*
X146761Y257065D01*
X146838Y257079D01*
X146913Y257096D01*
X146987Y257117D01*
X147061Y257142D01*
X147133Y257170D01*
X147203Y257202D01*
X147272Y257237D01*
X147339Y257276D01*
X147404Y257318D01*
X147467Y257363D01*
X147528Y257411D01*
X147586Y257462D01*
X147641Y257516D01*
X147694Y257573D01*
X147743Y257632D01*
X147790Y257694D01*
X147834Y257758D01*
X147874Y257824D01*
X147911Y257892D01*
X147945Y257962D01*
X147975Y258033D01*
X148001Y258106D01*
X148024Y258180D01*
X148043Y258255D01*
X148058Y258330D01*
X148070Y258407D01*
X148078Y258484D01*
X148082Y258561D01*
X148082Y258639D01*
X148078Y258716D01*
X148070Y258793D01*
X148058Y258870D01*
X148043Y258945D01*
X148024Y259020D01*
X148001Y259094D01*
X147975Y259167D01*
X147945Y259238D01*
X147911Y259308D01*
X147874Y259376D01*
X147834Y259442D01*
X147790Y259506D01*
X147743Y259568D01*
X147694Y259627D01*
X147641Y259684D01*
X147586Y259738D01*
X147528Y259789D01*
X147467Y259837D01*
X147404Y259882D01*
X147339Y259924D01*
X147272Y259963D01*
X147203Y259998D01*
X147133Y260030D01*
X147061Y260058D01*
X146987Y260083D01*
X146913Y260104D01*
X146838Y260121D01*
X146761Y260135D01*
X146685Y260144D01*
X146607Y260150D01*
X146530Y260152D01*
X146840Y262636D02*
X144978Y262636D01*
X146840Y262636D02*
X146910Y262634D01*
X146979Y262628D01*
X147048Y262618D01*
X147116Y262605D01*
X147184Y262587D01*
X147250Y262566D01*
X147315Y262541D01*
X147379Y262513D01*
X147441Y262481D01*
X147501Y262446D01*
X147559Y262407D01*
X147614Y262365D01*
X147668Y262320D01*
X147718Y262272D01*
X147766Y262222D01*
X147811Y262168D01*
X147853Y262113D01*
X147892Y262055D01*
X147927Y261995D01*
X147959Y261933D01*
X147987Y261869D01*
X148012Y261804D01*
X148033Y261738D01*
X148051Y261670D01*
X148064Y261602D01*
X148074Y261533D01*
X148080Y261464D01*
X148082Y261394D01*
X148080Y261324D01*
X148074Y261255D01*
X148064Y261186D01*
X148051Y261118D01*
X148033Y261050D01*
X148012Y260984D01*
X147987Y260919D01*
X147959Y260855D01*
X147927Y260793D01*
X147892Y260733D01*
X147853Y260675D01*
X147811Y260620D01*
X147766Y260566D01*
X147718Y260516D01*
X147668Y260468D01*
X147614Y260423D01*
X147559Y260381D01*
X147501Y260342D01*
X147441Y260307D01*
X147379Y260275D01*
X147315Y260247D01*
X147250Y260222D01*
X147184Y260201D01*
X147116Y260183D01*
X147048Y260170D01*
X146979Y260160D01*
X146910Y260154D01*
X146840Y260152D01*
X145598Y260152D01*
D14*
X154305Y233426D02*
X154305Y201422D01*
X139319Y201422D01*
X139319Y233426D01*
X154305Y233426D01*
D13*
X147131Y206798D02*
X143653Y204343D01*
X147131Y206798D02*
X143653Y209254D01*
X147131Y206798D02*
X151019Y206798D01*
X145289Y212067D02*
X143653Y214114D01*
X151019Y214114D01*
X151019Y216160D02*
X151019Y212067D01*
X147336Y219383D02*
X147183Y219385D01*
X147030Y219391D01*
X146878Y219400D01*
X146725Y219414D01*
X146573Y219431D01*
X146422Y219452D01*
X146271Y219477D01*
X146121Y219506D01*
X145971Y219538D01*
X145823Y219575D01*
X145675Y219615D01*
X145528Y219658D01*
X145383Y219706D01*
X145239Y219757D01*
X145096Y219811D01*
X144954Y219870D01*
X144815Y219931D01*
X144676Y219997D01*
X144606Y220023D01*
X144536Y220053D01*
X144469Y220086D01*
X144403Y220122D01*
X144339Y220161D01*
X144277Y220204D01*
X144218Y220250D01*
X144160Y220298D01*
X144106Y220349D01*
X144053Y220403D01*
X144004Y220460D01*
X143957Y220519D01*
X143914Y220580D01*
X143873Y220643D01*
X143836Y220708D01*
X143801Y220775D01*
X143771Y220844D01*
X143743Y220914D01*
X143720Y220985D01*
X143699Y221057D01*
X143683Y221130D01*
X143670Y221204D01*
X143660Y221279D01*
X143655Y221354D01*
X143653Y221429D01*
X143655Y221504D01*
X143660Y221579D01*
X143670Y221654D01*
X143683Y221728D01*
X143699Y221801D01*
X143720Y221873D01*
X143743Y221944D01*
X143771Y222014D01*
X143801Y222083D01*
X143836Y222150D01*
X143873Y222215D01*
X143914Y222278D01*
X143957Y222339D01*
X144004Y222398D01*
X144053Y222455D01*
X144106Y222509D01*
X144160Y222560D01*
X144218Y222609D01*
X144277Y222654D01*
X144339Y222697D01*
X144403Y222736D01*
X144469Y222773D01*
X144537Y222805D01*
X144606Y222835D01*
X144676Y222861D01*
X144814Y222926D01*
X144954Y222988D01*
X145096Y223046D01*
X145239Y223101D01*
X145383Y223152D01*
X145528Y223200D01*
X145675Y223243D01*
X145822Y223283D01*
X145971Y223320D01*
X146121Y223352D01*
X146271Y223381D01*
X146422Y223406D01*
X146573Y223427D01*
X146725Y223444D01*
X146878Y223458D01*
X147030Y223467D01*
X147183Y223473D01*
X147336Y223475D01*
X147336Y219383D02*
X147489Y219385D01*
X147642Y219391D01*
X147794Y219400D01*
X147947Y219414D01*
X148099Y219431D01*
X148250Y219452D01*
X148401Y219477D01*
X148551Y219506D01*
X148701Y219538D01*
X148849Y219575D01*
X148997Y219615D01*
X149144Y219658D01*
X149289Y219706D01*
X149433Y219757D01*
X149576Y219811D01*
X149718Y219870D01*
X149857Y219931D01*
X149996Y219997D01*
X149995Y219997D02*
X150066Y220023D01*
X150135Y220053D01*
X150202Y220086D01*
X150268Y220122D01*
X150332Y220161D01*
X150394Y220204D01*
X150453Y220250D01*
X150511Y220298D01*
X150565Y220349D01*
X150618Y220403D01*
X150667Y220460D01*
X150714Y220519D01*
X150757Y220580D01*
X150798Y220643D01*
X150835Y220708D01*
X150870Y220775D01*
X150900Y220844D01*
X150928Y220914D01*
X150951Y220985D01*
X150972Y221057D01*
X150988Y221130D01*
X151001Y221204D01*
X151011Y221279D01*
X151016Y221354D01*
X151018Y221429D01*
X149996Y222861D02*
X149858Y222926D01*
X149718Y222988D01*
X149576Y223046D01*
X149433Y223101D01*
X149289Y223152D01*
X149144Y223200D01*
X148997Y223243D01*
X148850Y223283D01*
X148701Y223320D01*
X148551Y223352D01*
X148401Y223381D01*
X148250Y223406D01*
X148099Y223427D01*
X147947Y223444D01*
X147794Y223458D01*
X147642Y223467D01*
X147489Y223473D01*
X147336Y223475D01*
X149995Y222861D02*
X150065Y222835D01*
X150135Y222805D01*
X150202Y222772D01*
X150268Y222736D01*
X150332Y222697D01*
X150394Y222654D01*
X150453Y222608D01*
X150511Y222560D01*
X150565Y222509D01*
X150618Y222455D01*
X150667Y222398D01*
X150714Y222339D01*
X150757Y222278D01*
X150798Y222215D01*
X150835Y222150D01*
X150870Y222083D01*
X150900Y222014D01*
X150928Y221944D01*
X150951Y221873D01*
X150972Y221801D01*
X150988Y221728D01*
X151001Y221654D01*
X151011Y221579D01*
X151016Y221504D01*
X151018Y221429D01*
X149382Y219792D02*
X145289Y223066D01*
X143652Y228949D02*
X143654Y229034D01*
X143660Y229119D01*
X143670Y229203D01*
X143683Y229287D01*
X143701Y229371D01*
X143722Y229453D01*
X143747Y229534D01*
X143776Y229614D01*
X143809Y229693D01*
X143845Y229770D01*
X143885Y229845D01*
X143928Y229919D01*
X143974Y229990D01*
X144024Y230059D01*
X144077Y230126D01*
X144133Y230190D01*
X144192Y230251D01*
X144253Y230310D01*
X144317Y230366D01*
X144384Y230419D01*
X144453Y230469D01*
X144524Y230515D01*
X144598Y230558D01*
X144673Y230598D01*
X144750Y230634D01*
X144829Y230667D01*
X144909Y230696D01*
X144990Y230721D01*
X145072Y230742D01*
X145156Y230760D01*
X145240Y230773D01*
X145324Y230783D01*
X145409Y230789D01*
X145494Y230791D01*
X143652Y228949D02*
X143654Y228853D01*
X143660Y228757D01*
X143670Y228662D01*
X143683Y228567D01*
X143701Y228472D01*
X143722Y228379D01*
X143747Y228286D01*
X143776Y228195D01*
X143808Y228104D01*
X143844Y228015D01*
X143884Y227928D01*
X143927Y227842D01*
X143973Y227758D01*
X144023Y227676D01*
X144077Y227596D01*
X144133Y227519D01*
X144193Y227444D01*
X144255Y227371D01*
X144321Y227301D01*
X144389Y227233D01*
X144460Y227168D01*
X144533Y227107D01*
X144609Y227048D01*
X144688Y226992D01*
X144768Y226940D01*
X144851Y226891D01*
X144935Y226845D01*
X145021Y226803D01*
X145109Y226765D01*
X145198Y226730D01*
X145289Y226698D01*
X146926Y230176D02*
X146867Y230236D01*
X146805Y230293D01*
X146741Y230348D01*
X146674Y230399D01*
X146605Y230448D01*
X146535Y230494D01*
X146462Y230537D01*
X146388Y230577D01*
X146312Y230613D01*
X146234Y230646D01*
X146155Y230676D01*
X146075Y230703D01*
X145994Y230726D01*
X145912Y230745D01*
X145830Y230761D01*
X145746Y230774D01*
X145662Y230783D01*
X145578Y230788D01*
X145494Y230790D01*
X146926Y230176D02*
X151019Y226698D01*
X151019Y230790D01*
D17*
X134112Y172212D02*
X136652Y169672D01*
X136652Y172212D02*
X136652Y157988D01*
X136652Y172212D02*
X117348Y172212D01*
X117348Y157988D01*
X136652Y157988D01*
D13*
X116205Y167527D02*
X116205Y176149D01*
X116205Y167527D02*
X116207Y167413D01*
X116213Y167298D01*
X116223Y167184D01*
X116237Y167071D01*
X116254Y166957D01*
X116276Y166845D01*
X116301Y166733D01*
X116331Y166623D01*
X116364Y166513D01*
X116401Y166405D01*
X116441Y166298D01*
X116486Y166192D01*
X116533Y166088D01*
X116585Y165986D01*
X116640Y165886D01*
X116698Y165787D01*
X116760Y165691D01*
X116825Y165596D01*
X116893Y165505D01*
X116965Y165415D01*
X117039Y165328D01*
X117116Y165244D01*
X117197Y165162D01*
X117280Y165083D01*
X117365Y165007D01*
X117454Y164934D01*
X117544Y164865D01*
X117637Y164798D01*
X117733Y164735D01*
X117830Y164675D01*
X117930Y164618D01*
X118031Y164565D01*
X118134Y164515D01*
X118239Y164469D01*
X118345Y164426D01*
X118453Y164388D01*
X118562Y164353D01*
X118672Y164322D01*
X118783Y164294D01*
X118895Y164271D01*
X119008Y164251D01*
X119121Y164235D01*
X119235Y164223D01*
X119349Y164215D01*
X119464Y164211D01*
X119578Y164211D01*
X119693Y164215D01*
X119807Y164223D01*
X119921Y164235D01*
X120034Y164251D01*
X120147Y164271D01*
X120259Y164294D01*
X120370Y164322D01*
X120480Y164353D01*
X120589Y164388D01*
X120697Y164426D01*
X120803Y164469D01*
X120908Y164515D01*
X121011Y164565D01*
X121112Y164618D01*
X121212Y164675D01*
X121309Y164735D01*
X121405Y164798D01*
X121498Y164865D01*
X121588Y164934D01*
X121677Y165007D01*
X121762Y165083D01*
X121845Y165162D01*
X121926Y165244D01*
X122003Y165328D01*
X122077Y165415D01*
X122149Y165505D01*
X122217Y165596D01*
X122282Y165691D01*
X122344Y165787D01*
X122402Y165886D01*
X122457Y165986D01*
X122509Y166088D01*
X122556Y166192D01*
X122601Y166298D01*
X122641Y166405D01*
X122678Y166513D01*
X122711Y166623D01*
X122741Y166733D01*
X122766Y166845D01*
X122788Y166957D01*
X122805Y167071D01*
X122819Y167184D01*
X122829Y167298D01*
X122835Y167413D01*
X122837Y167527D01*
X122837Y176149D01*
X128016Y164211D02*
X131332Y164211D01*
X131446Y164213D01*
X131561Y164219D01*
X131675Y164229D01*
X131788Y164243D01*
X131902Y164260D01*
X132014Y164282D01*
X132126Y164307D01*
X132236Y164337D01*
X132346Y164370D01*
X132454Y164407D01*
X132561Y164447D01*
X132667Y164492D01*
X132771Y164539D01*
X132873Y164591D01*
X132973Y164646D01*
X133072Y164704D01*
X133168Y164766D01*
X133263Y164831D01*
X133354Y164899D01*
X133444Y164971D01*
X133531Y165045D01*
X133615Y165122D01*
X133697Y165203D01*
X133776Y165286D01*
X133852Y165371D01*
X133925Y165460D01*
X133994Y165550D01*
X134061Y165643D01*
X134124Y165739D01*
X134184Y165836D01*
X134241Y165936D01*
X134294Y166037D01*
X134344Y166140D01*
X134390Y166245D01*
X134433Y166351D01*
X134471Y166459D01*
X134506Y166568D01*
X134537Y166678D01*
X134565Y166789D01*
X134588Y166901D01*
X134608Y167014D01*
X134624Y167127D01*
X134636Y167241D01*
X134644Y167355D01*
X134648Y167470D01*
X134648Y167584D01*
X134644Y167699D01*
X134636Y167813D01*
X134624Y167927D01*
X134608Y168040D01*
X134588Y168153D01*
X134565Y168265D01*
X134537Y168376D01*
X134506Y168486D01*
X134471Y168595D01*
X134433Y168703D01*
X134390Y168809D01*
X134344Y168914D01*
X134294Y169017D01*
X134241Y169118D01*
X134184Y169218D01*
X134124Y169315D01*
X134061Y169411D01*
X133994Y169504D01*
X133925Y169594D01*
X133852Y169683D01*
X133776Y169768D01*
X133697Y169851D01*
X133615Y169932D01*
X133531Y170009D01*
X133444Y170083D01*
X133354Y170155D01*
X133263Y170223D01*
X133168Y170288D01*
X133072Y170350D01*
X132973Y170408D01*
X132873Y170463D01*
X132771Y170515D01*
X132667Y170562D01*
X132561Y170607D01*
X132454Y170647D01*
X132346Y170684D01*
X132236Y170717D01*
X132126Y170747D01*
X132014Y170772D01*
X131902Y170794D01*
X131788Y170811D01*
X131675Y170825D01*
X131561Y170835D01*
X131446Y170841D01*
X131332Y170843D01*
X131995Y176149D02*
X128016Y176149D01*
X131995Y176149D02*
X132097Y176147D01*
X132198Y176141D01*
X132299Y176131D01*
X132400Y176118D01*
X132500Y176100D01*
X132599Y176079D01*
X132698Y176054D01*
X132795Y176025D01*
X132892Y175993D01*
X132987Y175957D01*
X133080Y175917D01*
X133172Y175874D01*
X133262Y175827D01*
X133351Y175776D01*
X133437Y175723D01*
X133521Y175666D01*
X133603Y175606D01*
X133683Y175543D01*
X133760Y175477D01*
X133835Y175408D01*
X133907Y175336D01*
X133976Y175261D01*
X134042Y175184D01*
X134105Y175104D01*
X134165Y175022D01*
X134222Y174938D01*
X134275Y174852D01*
X134326Y174763D01*
X134373Y174673D01*
X134416Y174581D01*
X134456Y174488D01*
X134492Y174393D01*
X134524Y174296D01*
X134553Y174199D01*
X134578Y174100D01*
X134599Y174001D01*
X134617Y173901D01*
X134630Y173800D01*
X134640Y173699D01*
X134646Y173598D01*
X134648Y173496D01*
X134646Y173394D01*
X134640Y173293D01*
X134630Y173192D01*
X134617Y173091D01*
X134599Y172991D01*
X134578Y172892D01*
X134553Y172793D01*
X134524Y172696D01*
X134492Y172599D01*
X134456Y172504D01*
X134416Y172411D01*
X134373Y172319D01*
X134326Y172229D01*
X134275Y172140D01*
X134222Y172054D01*
X134165Y171970D01*
X134105Y171888D01*
X134042Y171808D01*
X133976Y171731D01*
X133907Y171656D01*
X133835Y171584D01*
X133760Y171515D01*
X133683Y171449D01*
X133603Y171386D01*
X133521Y171326D01*
X133437Y171269D01*
X133351Y171216D01*
X133262Y171165D01*
X133172Y171118D01*
X133080Y171075D01*
X132987Y171035D01*
X132892Y170999D01*
X132795Y170967D01*
X132698Y170938D01*
X132599Y170913D01*
X132500Y170892D01*
X132400Y170874D01*
X132299Y170861D01*
X132198Y170851D01*
X132097Y170845D01*
X131995Y170843D01*
X129342Y170843D01*
X104775Y399161D02*
X104775Y407783D01*
X104773Y407897D01*
X104767Y408012D01*
X104757Y408126D01*
X104743Y408239D01*
X104726Y408353D01*
X104704Y408465D01*
X104679Y408577D01*
X104649Y408687D01*
X104616Y408797D01*
X104579Y408905D01*
X104539Y409012D01*
X104494Y409118D01*
X104447Y409222D01*
X104395Y409324D01*
X104340Y409424D01*
X104282Y409523D01*
X104220Y409619D01*
X104155Y409714D01*
X104087Y409805D01*
X104015Y409895D01*
X103941Y409982D01*
X103864Y410066D01*
X103783Y410148D01*
X103700Y410227D01*
X103615Y410303D01*
X103526Y410376D01*
X103436Y410445D01*
X103343Y410512D01*
X103247Y410575D01*
X103150Y410635D01*
X103050Y410692D01*
X102949Y410745D01*
X102846Y410795D01*
X102741Y410841D01*
X102635Y410884D01*
X102527Y410922D01*
X102418Y410957D01*
X102308Y410988D01*
X102197Y411016D01*
X102085Y411039D01*
X101972Y411059D01*
X101859Y411075D01*
X101745Y411087D01*
X101631Y411095D01*
X101516Y411099D01*
X101402Y411099D01*
X101287Y411095D01*
X101173Y411087D01*
X101059Y411075D01*
X100946Y411059D01*
X100833Y411039D01*
X100721Y411016D01*
X100610Y410988D01*
X100500Y410957D01*
X100391Y410922D01*
X100283Y410884D01*
X100177Y410841D01*
X100072Y410795D01*
X99969Y410745D01*
X99868Y410692D01*
X99768Y410635D01*
X99671Y410575D01*
X99575Y410512D01*
X99482Y410445D01*
X99392Y410376D01*
X99303Y410303D01*
X99218Y410227D01*
X99135Y410148D01*
X99054Y410066D01*
X98977Y409982D01*
X98903Y409895D01*
X98831Y409805D01*
X98763Y409714D01*
X98698Y409619D01*
X98636Y409523D01*
X98578Y409424D01*
X98523Y409324D01*
X98471Y409222D01*
X98424Y409118D01*
X98379Y409012D01*
X98339Y408905D01*
X98302Y408797D01*
X98269Y408687D01*
X98239Y408577D01*
X98214Y408465D01*
X98192Y408353D01*
X98175Y408239D01*
X98161Y408126D01*
X98151Y408012D01*
X98145Y407897D01*
X98143Y407783D01*
X98143Y399161D01*
X92964Y411099D02*
X88985Y411099D01*
X88883Y411097D01*
X88782Y411091D01*
X88681Y411081D01*
X88580Y411068D01*
X88480Y411050D01*
X88381Y411029D01*
X88282Y411004D01*
X88185Y410975D01*
X88088Y410943D01*
X87993Y410907D01*
X87900Y410867D01*
X87808Y410824D01*
X87718Y410777D01*
X87629Y410726D01*
X87543Y410673D01*
X87459Y410616D01*
X87377Y410556D01*
X87297Y410493D01*
X87220Y410427D01*
X87145Y410358D01*
X87073Y410286D01*
X87004Y410211D01*
X86938Y410134D01*
X86875Y410054D01*
X86815Y409972D01*
X86758Y409888D01*
X86705Y409802D01*
X86654Y409713D01*
X86607Y409623D01*
X86564Y409531D01*
X86524Y409438D01*
X86488Y409343D01*
X86456Y409247D01*
X86427Y409149D01*
X86402Y409051D01*
X86381Y408951D01*
X86363Y408851D01*
X86350Y408750D01*
X86340Y408649D01*
X86334Y408548D01*
X86332Y408446D01*
X86332Y407120D01*
X86334Y407018D01*
X86340Y406917D01*
X86350Y406816D01*
X86363Y406715D01*
X86381Y406615D01*
X86402Y406516D01*
X86427Y406417D01*
X86456Y406320D01*
X86488Y406223D01*
X86524Y406128D01*
X86564Y406035D01*
X86607Y405943D01*
X86654Y405853D01*
X86705Y405764D01*
X86758Y405678D01*
X86815Y405594D01*
X86875Y405512D01*
X86938Y405432D01*
X87004Y405355D01*
X87073Y405280D01*
X87145Y405208D01*
X87220Y405139D01*
X87297Y405073D01*
X87377Y405010D01*
X87459Y404950D01*
X87543Y404893D01*
X87629Y404840D01*
X87718Y404789D01*
X87808Y404742D01*
X87900Y404699D01*
X87993Y404659D01*
X88088Y404623D01*
X88185Y404591D01*
X88282Y404562D01*
X88381Y404537D01*
X88480Y404516D01*
X88580Y404498D01*
X88681Y404485D01*
X88782Y404475D01*
X88883Y404469D01*
X88985Y404467D01*
X92964Y404467D01*
X92964Y399161D01*
X86332Y399161D01*
D11*
X99894Y424578D02*
X108894Y424578D01*
X99894Y424578D02*
X99894Y442578D01*
X108894Y442578D01*
X108894Y424578D01*
D12*
X105680Y427037D02*
X102886Y427037D01*
X102886Y427813D01*
X102888Y427868D01*
X102894Y427923D01*
X102904Y427978D01*
X102917Y428032D01*
X102935Y428084D01*
X102956Y428135D01*
X102981Y428185D01*
X103009Y428233D01*
X103041Y428278D01*
X103076Y428321D01*
X103113Y428362D01*
X103154Y428399D01*
X103197Y428434D01*
X103242Y428466D01*
X103290Y428494D01*
X103340Y428519D01*
X103391Y428540D01*
X103443Y428558D01*
X103497Y428571D01*
X103552Y428581D01*
X103607Y428587D01*
X103662Y428589D01*
X103717Y428587D01*
X103772Y428581D01*
X103827Y428571D01*
X103881Y428558D01*
X103933Y428540D01*
X103984Y428519D01*
X104034Y428494D01*
X104082Y428466D01*
X104127Y428434D01*
X104170Y428399D01*
X104211Y428362D01*
X104248Y428321D01*
X104283Y428278D01*
X104315Y428233D01*
X104343Y428185D01*
X104368Y428135D01*
X104389Y428084D01*
X104407Y428032D01*
X104420Y427978D01*
X104430Y427923D01*
X104436Y427868D01*
X104438Y427813D01*
X104438Y427037D01*
X104438Y427968D02*
X105680Y428589D01*
X103507Y429762D02*
X102886Y430538D01*
X105680Y430538D01*
X105680Y429762D02*
X105680Y431314D01*
D14*
X90812Y424848D02*
X90812Y444848D01*
X90812Y424848D02*
X75812Y424848D01*
X75812Y444848D01*
X90812Y444848D01*
D16*
X75169Y436494D02*
X75169Y431302D01*
X75169Y436494D02*
X75171Y436607D01*
X75177Y436720D01*
X75187Y436833D01*
X75201Y436946D01*
X75218Y437058D01*
X75240Y437169D01*
X75265Y437279D01*
X75295Y437389D01*
X75328Y437497D01*
X75365Y437604D01*
X75405Y437710D01*
X75450Y437814D01*
X75498Y437917D01*
X75549Y438018D01*
X75604Y438117D01*
X75662Y438214D01*
X75724Y438309D01*
X75789Y438402D01*
X75857Y438492D01*
X75928Y438580D01*
X76003Y438666D01*
X76080Y438749D01*
X76160Y438829D01*
X76243Y438906D01*
X76329Y438981D01*
X76417Y439052D01*
X76507Y439120D01*
X76600Y439185D01*
X76695Y439247D01*
X76792Y439305D01*
X76891Y439360D01*
X76992Y439411D01*
X77095Y439459D01*
X77199Y439504D01*
X77305Y439544D01*
X77412Y439581D01*
X77520Y439614D01*
X77630Y439644D01*
X77740Y439669D01*
X77851Y439691D01*
X77963Y439708D01*
X78076Y439722D01*
X78189Y439732D01*
X78302Y439738D01*
X78415Y439740D01*
X78528Y439738D01*
X78641Y439732D01*
X78754Y439722D01*
X78867Y439708D01*
X78979Y439691D01*
X79090Y439669D01*
X79200Y439644D01*
X79310Y439614D01*
X79418Y439581D01*
X79525Y439544D01*
X79631Y439504D01*
X79735Y439459D01*
X79838Y439411D01*
X79939Y439360D01*
X80038Y439305D01*
X80135Y439247D01*
X80230Y439185D01*
X80323Y439120D01*
X80413Y439052D01*
X80501Y438981D01*
X80587Y438906D01*
X80670Y438829D01*
X80750Y438749D01*
X80827Y438666D01*
X80902Y438580D01*
X80973Y438492D01*
X81041Y438402D01*
X81106Y438309D01*
X81168Y438214D01*
X81226Y438117D01*
X81281Y438018D01*
X81332Y437917D01*
X81380Y437814D01*
X81425Y437710D01*
X81465Y437604D01*
X81502Y437497D01*
X81535Y437389D01*
X81565Y437279D01*
X81590Y437169D01*
X81612Y437058D01*
X81629Y436946D01*
X81643Y436833D01*
X81653Y436720D01*
X81659Y436607D01*
X81661Y436494D01*
X81660Y436494D02*
X81660Y431302D01*
X81661Y431302D02*
X81659Y431189D01*
X81653Y431076D01*
X81643Y430963D01*
X81629Y430850D01*
X81612Y430738D01*
X81590Y430627D01*
X81565Y430517D01*
X81535Y430407D01*
X81502Y430299D01*
X81465Y430192D01*
X81425Y430086D01*
X81380Y429982D01*
X81332Y429879D01*
X81281Y429778D01*
X81226Y429679D01*
X81168Y429582D01*
X81106Y429487D01*
X81041Y429394D01*
X80973Y429304D01*
X80902Y429216D01*
X80827Y429130D01*
X80750Y429047D01*
X80670Y428967D01*
X80587Y428890D01*
X80501Y428815D01*
X80413Y428744D01*
X80323Y428676D01*
X80230Y428611D01*
X80135Y428549D01*
X80038Y428491D01*
X79939Y428436D01*
X79838Y428385D01*
X79735Y428337D01*
X79631Y428292D01*
X79525Y428252D01*
X79418Y428215D01*
X79310Y428182D01*
X79200Y428152D01*
X79090Y428127D01*
X78979Y428105D01*
X78867Y428088D01*
X78754Y428074D01*
X78641Y428064D01*
X78528Y428058D01*
X78415Y428056D01*
X78302Y428058D01*
X78189Y428064D01*
X78076Y428074D01*
X77963Y428088D01*
X77851Y428105D01*
X77740Y428127D01*
X77630Y428152D01*
X77520Y428182D01*
X77412Y428215D01*
X77305Y428252D01*
X77199Y428292D01*
X77095Y428337D01*
X76992Y428385D01*
X76891Y428436D01*
X76792Y428491D01*
X76695Y428549D01*
X76600Y428611D01*
X76507Y428676D01*
X76417Y428744D01*
X76329Y428815D01*
X76243Y428890D01*
X76160Y428967D01*
X76080Y429047D01*
X76003Y429130D01*
X75928Y429216D01*
X75857Y429304D01*
X75789Y429394D01*
X75724Y429487D01*
X75662Y429582D01*
X75604Y429679D01*
X75549Y429778D01*
X75498Y429879D01*
X75450Y429982D01*
X75405Y430086D01*
X75365Y430192D01*
X75328Y430299D01*
X75295Y430407D01*
X75265Y430517D01*
X75240Y430627D01*
X75218Y430738D01*
X75201Y430850D01*
X75187Y430963D01*
X75177Y431076D01*
X75171Y431189D01*
X75169Y431302D01*
X80362Y430652D02*
X82958Y428056D01*
X86313Y437144D02*
X89558Y439740D01*
X89558Y428056D01*
X86313Y428056D02*
X92804Y428056D01*
D18*
X0Y19050D02*
X73Y17390D01*
X289Y15742D01*
X649Y14120D01*
X1149Y12535D01*
X1785Y10999D01*
X2552Y9525D01*
X3445Y8123D01*
X4457Y6805D01*
X5580Y5580D01*
X6805Y4457D01*
X8123Y3445D01*
X9525Y2552D01*
X10999Y1785D01*
X12535Y1149D01*
X14120Y649D01*
X15742Y289D01*
X17390Y73D01*
X19050Y0D01*
X361950Y0D01*
X363610Y73D01*
X365258Y289D01*
X366881Y649D01*
X368465Y1149D01*
X370001Y1785D01*
X371475Y2552D01*
X372877Y3445D01*
X374195Y4457D01*
X375420Y5580D01*
X376543Y6805D01*
X377555Y8123D01*
X378448Y9525D01*
X379215Y10999D01*
X379851Y12535D01*
X380351Y14120D01*
X380711Y15742D01*
X380928Y17390D01*
X381000Y19050D01*
X381000Y444500D01*
X381192Y446449D01*
X381214Y448408D01*
X381064Y450360D01*
X380746Y452293D01*
X380260Y454190D01*
X379610Y456038D01*
X378802Y457822D01*
X377841Y459529D01*
X376736Y461145D01*
X375493Y462660D01*
X374124Y464060D01*
X372637Y465335D01*
X371045Y466476D01*
X369360Y467474D01*
X367594Y468321D01*
X365761Y469011D01*
X363875Y469539D01*
X361950Y469900D01*
X25400Y469900D01*
X23186Y469803D01*
X20989Y469514D01*
X18826Y469035D01*
X16713Y468368D01*
X14666Y467520D01*
X12700Y466497D01*
X10831Y465306D01*
X9073Y463958D01*
X7440Y462461D01*
X5942Y460827D01*
X4594Y459069D01*
X3403Y457200D01*
X2380Y455235D01*
X1532Y453187D01*
X865Y451074D01*
X386Y448911D01*
X97Y446714D01*
X0Y444500D01*
X0Y19050D01*
M02*
