G04 EAGLE Gerber RS-274X export*
G75*
%MOMM*%
%FSLAX34Y34*%
%LPD*%
%INCopper Layer 2*%
%IPPOS*%
%AMOC8*
5,1,8,0,0,1.08239X$1,22.5*%
G01*
%ADD10C,0.403200*%
%ADD11C,0.355600*%
%ADD12C,0.254000*%
%ADD13C,0.101600*%
%ADD14C,0.127000*%
%ADD15C,0.254000*%

G36*
X57538Y2556D02*
X57538Y2556D01*
X57657Y2563D01*
X57695Y2576D01*
X57736Y2581D01*
X57846Y2624D01*
X57959Y2661D01*
X57994Y2683D01*
X58031Y2698D01*
X58127Y2767D01*
X58228Y2831D01*
X58256Y2861D01*
X58289Y2884D01*
X58365Y2976D01*
X58446Y3063D01*
X58466Y3098D01*
X58491Y3129D01*
X58542Y3237D01*
X58600Y3341D01*
X58610Y3381D01*
X58627Y3417D01*
X58649Y3534D01*
X58679Y3649D01*
X58683Y3709D01*
X58687Y3729D01*
X58685Y3750D01*
X58689Y3810D01*
X58689Y6082D01*
X60466Y7859D01*
X61669Y7859D01*
X61787Y7874D01*
X61906Y7881D01*
X61944Y7894D01*
X61985Y7899D01*
X62095Y7942D01*
X62209Y7979D01*
X62243Y8001D01*
X62280Y8016D01*
X62377Y8085D01*
X62477Y8149D01*
X62505Y8179D01*
X62538Y8202D01*
X62614Y8294D01*
X62695Y8381D01*
X62715Y8416D01*
X62740Y8447D01*
X62791Y8555D01*
X62849Y8659D01*
X62859Y8699D01*
X62876Y8735D01*
X62898Y8852D01*
X62928Y8967D01*
X62932Y9027D01*
X62936Y9047D01*
X62935Y9068D01*
X62938Y9128D01*
X62938Y11416D01*
X64715Y13193D01*
X67227Y13193D01*
X69004Y11416D01*
X69004Y8904D01*
X67227Y7127D01*
X66024Y7127D01*
X65906Y7112D01*
X65787Y7105D01*
X65749Y7092D01*
X65708Y7087D01*
X65598Y7044D01*
X65485Y7007D01*
X65450Y6985D01*
X65413Y6970D01*
X65317Y6901D01*
X65216Y6837D01*
X65188Y6807D01*
X65155Y6784D01*
X65079Y6692D01*
X64998Y6605D01*
X64978Y6570D01*
X64953Y6539D01*
X64902Y6431D01*
X64844Y6327D01*
X64834Y6287D01*
X64817Y6251D01*
X64795Y6134D01*
X64765Y6019D01*
X64761Y5959D01*
X64757Y5939D01*
X64759Y5918D01*
X64755Y5858D01*
X64755Y3810D01*
X64770Y3692D01*
X64777Y3573D01*
X64790Y3535D01*
X64795Y3494D01*
X64838Y3384D01*
X64875Y3271D01*
X64897Y3236D01*
X64912Y3199D01*
X64981Y3103D01*
X65045Y3002D01*
X65075Y2974D01*
X65098Y2941D01*
X65190Y2865D01*
X65277Y2784D01*
X65312Y2764D01*
X65343Y2739D01*
X65451Y2688D01*
X65555Y2630D01*
X65595Y2620D01*
X65631Y2603D01*
X65748Y2581D01*
X65863Y2551D01*
X65923Y2547D01*
X65943Y2543D01*
X65964Y2545D01*
X66024Y2541D01*
X361950Y2541D01*
X361972Y2543D01*
X362050Y2545D01*
X364434Y2732D01*
X364501Y2746D01*
X364570Y2751D01*
X364726Y2790D01*
X369261Y4264D01*
X369368Y4314D01*
X369479Y4358D01*
X369530Y4391D01*
X369549Y4399D01*
X369564Y4412D01*
X369615Y4444D01*
X373472Y7247D01*
X373559Y7328D01*
X373650Y7404D01*
X373689Y7451D01*
X373704Y7465D01*
X373715Y7482D01*
X373753Y7528D01*
X376556Y11385D01*
X376575Y11420D01*
X376600Y11451D01*
X376634Y11522D01*
X376677Y11589D01*
X376699Y11646D01*
X376709Y11664D01*
X376714Y11683D01*
X376736Y11738D01*
X376736Y11739D01*
X378210Y16274D01*
X378222Y16342D01*
X378245Y16407D01*
X378268Y16566D01*
X378455Y18950D01*
X378455Y18956D01*
X378456Y18960D01*
X378455Y18980D01*
X378459Y19050D01*
X378459Y443230D01*
X378458Y443239D01*
X378459Y443248D01*
X378438Y443396D01*
X378419Y443546D01*
X378416Y443554D01*
X378415Y443563D01*
X378358Y443700D01*
X378330Y443773D01*
X378447Y444591D01*
X378447Y444601D01*
X378449Y444610D01*
X378459Y444771D01*
X378459Y445679D01*
X378480Y445743D01*
X378520Y445835D01*
X378529Y445893D01*
X378548Y445949D01*
X378568Y446109D01*
X378680Y447878D01*
X378676Y447947D01*
X378681Y448015D01*
X378664Y448176D01*
X377664Y453921D01*
X377629Y454035D01*
X377602Y454150D01*
X377577Y454206D01*
X377571Y454225D01*
X377560Y454243D01*
X377536Y454297D01*
X374810Y459453D01*
X374741Y459550D01*
X374679Y459651D01*
X374639Y459696D01*
X374627Y459713D01*
X374611Y459726D01*
X374571Y459770D01*
X370385Y463831D01*
X370290Y463903D01*
X370200Y463980D01*
X370147Y464010D01*
X370131Y464022D01*
X370112Y464030D01*
X370060Y464060D01*
X364824Y466628D01*
X364759Y466651D01*
X364698Y466682D01*
X364543Y466727D01*
X361860Y467329D01*
X361800Y467334D01*
X361743Y467349D01*
X361582Y467359D01*
X25400Y467359D01*
X25378Y467357D01*
X25300Y467355D01*
X21923Y467090D01*
X21855Y467076D01*
X21786Y467071D01*
X21693Y467047D01*
X21685Y467046D01*
X21677Y467043D01*
X21630Y467031D01*
X15206Y464944D01*
X15099Y464894D01*
X14988Y464850D01*
X14937Y464817D01*
X14918Y464809D01*
X14903Y464796D01*
X14852Y464764D01*
X9388Y460793D01*
X9301Y460712D01*
X9209Y460636D01*
X9171Y460590D01*
X9156Y460576D01*
X9145Y460558D01*
X9107Y460512D01*
X5136Y455048D01*
X5079Y454944D01*
X5015Y454844D01*
X4993Y454787D01*
X4983Y454769D01*
X4978Y454749D01*
X4956Y454694D01*
X2869Y448270D01*
X2856Y448202D01*
X2833Y448136D01*
X2810Y447977D01*
X2545Y444600D01*
X2546Y444578D01*
X2541Y444500D01*
X2541Y93209D01*
X2547Y93159D01*
X2545Y93110D01*
X2567Y93002D01*
X2581Y92893D01*
X2599Y92847D01*
X2609Y92798D01*
X2657Y92700D01*
X2698Y92598D01*
X2727Y92557D01*
X2749Y92513D01*
X2820Y92429D01*
X2884Y92340D01*
X2923Y92309D01*
X2955Y92271D01*
X3045Y92208D01*
X3129Y92137D01*
X3174Y92116D01*
X3215Y92088D01*
X3318Y92049D01*
X3417Y92002D01*
X3466Y91993D01*
X3512Y91975D01*
X3622Y91963D01*
X3729Y91942D01*
X3779Y91945D01*
X3828Y91940D01*
X3937Y91955D01*
X4047Y91962D01*
X4094Y91977D01*
X4143Y91984D01*
X4296Y92036D01*
X6364Y92893D01*
X9165Y92893D01*
X11752Y91821D01*
X13733Y89840D01*
X14805Y87253D01*
X14805Y84451D01*
X13733Y81864D01*
X11752Y79883D01*
X9165Y78811D01*
X6364Y78811D01*
X4296Y79668D01*
X4248Y79681D01*
X4203Y79702D01*
X4095Y79723D01*
X3989Y79752D01*
X3939Y79753D01*
X3890Y79762D01*
X3781Y79755D01*
X3671Y79757D01*
X3623Y79745D01*
X3573Y79742D01*
X3469Y79708D01*
X3362Y79683D01*
X3318Y79659D01*
X3271Y79644D01*
X3178Y79585D01*
X3081Y79534D01*
X3044Y79501D01*
X3002Y79474D01*
X2927Y79394D01*
X2845Y79320D01*
X2818Y79279D01*
X2784Y79242D01*
X2731Y79146D01*
X2671Y79054D01*
X2654Y79007D01*
X2630Y78964D01*
X2603Y78858D01*
X2567Y78753D01*
X2563Y78704D01*
X2551Y78656D01*
X2541Y78495D01*
X2541Y19050D01*
X2543Y19028D01*
X2545Y18950D01*
X2732Y16566D01*
X2746Y16499D01*
X2751Y16430D01*
X2790Y16274D01*
X4264Y11739D01*
X4314Y11632D01*
X4358Y11521D01*
X4391Y11470D01*
X4399Y11451D01*
X4412Y11436D01*
X4444Y11385D01*
X7247Y7528D01*
X7328Y7441D01*
X7404Y7350D01*
X7451Y7311D01*
X7465Y7296D01*
X7482Y7285D01*
X7528Y7247D01*
X11385Y4444D01*
X11489Y4387D01*
X11589Y4323D01*
X11646Y4301D01*
X11664Y4291D01*
X11684Y4286D01*
X11739Y4264D01*
X16274Y2790D01*
X16342Y2778D01*
X16407Y2755D01*
X16566Y2732D01*
X18950Y2545D01*
X18972Y2546D01*
X19050Y2541D01*
X57420Y2541D01*
X57538Y2556D01*
G37*
%LPC*%
G36*
X209680Y66801D02*
X209680Y66801D01*
X208020Y68462D01*
X207942Y68522D01*
X207870Y68590D01*
X207817Y68619D01*
X207769Y68656D01*
X207678Y68696D01*
X207591Y68744D01*
X207533Y68759D01*
X207477Y68783D01*
X207379Y68798D01*
X207283Y68823D01*
X207183Y68829D01*
X207163Y68833D01*
X207151Y68831D01*
X207123Y68833D01*
X205852Y68833D01*
X204215Y70470D01*
X204215Y72786D01*
X204573Y73143D01*
X204646Y73237D01*
X204725Y73327D01*
X204743Y73363D01*
X204768Y73395D01*
X204815Y73504D01*
X204870Y73610D01*
X204878Y73649D01*
X204894Y73687D01*
X204913Y73804D01*
X204939Y73920D01*
X204938Y73961D01*
X204944Y74001D01*
X204933Y74119D01*
X204930Y74238D01*
X204918Y74277D01*
X204914Y74317D01*
X204874Y74429D01*
X204841Y74544D01*
X204821Y74579D01*
X204807Y74617D01*
X204740Y74715D01*
X204680Y74818D01*
X204640Y74863D01*
X204628Y74880D01*
X204613Y74893D01*
X204573Y74938D01*
X203199Y76312D01*
X203199Y78628D01*
X204836Y80265D01*
X207152Y80265D01*
X208907Y78510D01*
X209016Y78425D01*
X209123Y78336D01*
X209142Y78327D01*
X209158Y78315D01*
X209286Y78259D01*
X209411Y78200D01*
X209431Y78197D01*
X209450Y78189D01*
X209588Y78167D01*
X209724Y78141D01*
X209744Y78142D01*
X209764Y78139D01*
X209903Y78152D01*
X210041Y78160D01*
X210060Y78167D01*
X210080Y78168D01*
X210212Y78216D01*
X210343Y78258D01*
X210361Y78269D01*
X210380Y78276D01*
X210495Y78354D01*
X210612Y78429D01*
X210626Y78443D01*
X210643Y78455D01*
X210735Y78559D01*
X210830Y78660D01*
X210840Y78678D01*
X210853Y78693D01*
X210917Y78817D01*
X210984Y78939D01*
X210989Y78958D01*
X210998Y78976D01*
X211028Y79112D01*
X211063Y79247D01*
X211065Y79275D01*
X211068Y79287D01*
X211067Y79307D01*
X211073Y79407D01*
X211073Y81139D01*
X211061Y81237D01*
X211058Y81336D01*
X211041Y81394D01*
X211033Y81454D01*
X210997Y81546D01*
X210969Y81641D01*
X210939Y81694D01*
X210916Y81750D01*
X210858Y81830D01*
X210808Y81915D01*
X210742Y81991D01*
X210730Y82007D01*
X210720Y82015D01*
X210702Y82036D01*
X209295Y83442D01*
X209295Y103378D01*
X209280Y103496D01*
X209273Y103615D01*
X209260Y103653D01*
X209255Y103694D01*
X209212Y103804D01*
X209175Y103917D01*
X209153Y103952D01*
X209138Y103989D01*
X209069Y104085D01*
X209005Y104186D01*
X208975Y104214D01*
X208952Y104247D01*
X208860Y104323D01*
X208773Y104404D01*
X208738Y104424D01*
X208707Y104449D01*
X208599Y104500D01*
X208495Y104558D01*
X208455Y104568D01*
X208419Y104585D01*
X208302Y104607D01*
X208187Y104637D01*
X208127Y104641D01*
X208107Y104645D01*
X208086Y104643D01*
X208026Y104647D01*
X206360Y104647D01*
X204723Y106284D01*
X204723Y108600D01*
X206360Y110237D01*
X208026Y110237D01*
X208144Y110252D01*
X208263Y110259D01*
X208301Y110272D01*
X208342Y110277D01*
X208452Y110320D01*
X208565Y110357D01*
X208600Y110379D01*
X208637Y110394D01*
X208733Y110463D01*
X208834Y110527D01*
X208862Y110557D01*
X208895Y110580D01*
X208971Y110672D01*
X209052Y110759D01*
X209072Y110794D01*
X209097Y110825D01*
X209148Y110933D01*
X209206Y111037D01*
X209216Y111077D01*
X209233Y111113D01*
X209255Y111230D01*
X209285Y111345D01*
X209289Y111405D01*
X209293Y111425D01*
X209291Y111446D01*
X209295Y111506D01*
X209295Y133699D01*
X209278Y133836D01*
X209265Y133975D01*
X209258Y133994D01*
X209255Y134014D01*
X209204Y134143D01*
X209157Y134274D01*
X209146Y134291D01*
X209138Y134310D01*
X209057Y134422D01*
X208979Y134537D01*
X208963Y134551D01*
X208952Y134567D01*
X208844Y134656D01*
X208740Y134748D01*
X208722Y134757D01*
X208707Y134770D01*
X208581Y134829D01*
X208457Y134893D01*
X208437Y134897D01*
X208419Y134906D01*
X208282Y134932D01*
X208147Y134962D01*
X208126Y134962D01*
X208107Y134965D01*
X207968Y134957D01*
X207829Y134953D01*
X207809Y134947D01*
X207789Y134946D01*
X207657Y134903D01*
X207523Y134864D01*
X207506Y134854D01*
X207487Y134848D01*
X207369Y134773D01*
X207249Y134703D01*
X207228Y134684D01*
X207218Y134677D01*
X207204Y134662D01*
X207129Y134596D01*
X205628Y133095D01*
X203312Y133095D01*
X201675Y134732D01*
X201675Y137048D01*
X203312Y138685D01*
X205628Y138685D01*
X207129Y137184D01*
X207238Y137099D01*
X207345Y137010D01*
X207364Y137001D01*
X207380Y136989D01*
X207508Y136933D01*
X207633Y136874D01*
X207653Y136871D01*
X207672Y136863D01*
X207810Y136841D01*
X207946Y136815D01*
X207966Y136816D01*
X207986Y136813D01*
X208125Y136826D01*
X208263Y136834D01*
X208282Y136841D01*
X208302Y136842D01*
X208434Y136890D01*
X208565Y136932D01*
X208583Y136943D01*
X208602Y136950D01*
X208717Y137028D01*
X208834Y137103D01*
X208848Y137117D01*
X208865Y137129D01*
X208957Y137233D01*
X209052Y137334D01*
X209062Y137352D01*
X209075Y137367D01*
X209139Y137491D01*
X209206Y137613D01*
X209211Y137632D01*
X209220Y137650D01*
X209250Y137786D01*
X209285Y137921D01*
X209287Y137949D01*
X209290Y137961D01*
X209289Y137981D01*
X209295Y138081D01*
X209295Y159382D01*
X209798Y159885D01*
X209883Y159994D01*
X209972Y160101D01*
X209981Y160120D01*
X209993Y160136D01*
X210048Y160264D01*
X210108Y160389D01*
X210111Y160409D01*
X210120Y160428D01*
X210141Y160566D01*
X210167Y160702D01*
X210166Y160722D01*
X210169Y160742D01*
X210156Y160881D01*
X210148Y161019D01*
X210141Y161038D01*
X210140Y161058D01*
X210092Y161189D01*
X210050Y161321D01*
X210039Y161339D01*
X210032Y161358D01*
X209954Y161472D01*
X209879Y161590D01*
X209865Y161604D01*
X209853Y161621D01*
X209749Y161713D01*
X209648Y161808D01*
X209630Y161818D01*
X209615Y161831D01*
X209491Y161894D01*
X209369Y161962D01*
X209350Y161967D01*
X209332Y161976D01*
X209196Y162006D01*
X209061Y162041D01*
X209033Y162043D01*
X209021Y162046D01*
X209001Y162045D01*
X208901Y162051D01*
X208138Y162051D01*
X206882Y163307D01*
X206788Y163380D01*
X206699Y163459D01*
X206663Y163477D01*
X206631Y163502D01*
X206522Y163549D01*
X206416Y163604D01*
X206377Y163612D01*
X206339Y163628D01*
X206222Y163647D01*
X206106Y163673D01*
X206065Y163672D01*
X206025Y163678D01*
X205907Y163667D01*
X205788Y163664D01*
X205749Y163652D01*
X205709Y163649D01*
X205596Y163608D01*
X205482Y163575D01*
X205447Y163555D01*
X205409Y163541D01*
X205311Y163474D01*
X205208Y163414D01*
X205163Y163374D01*
X205146Y163362D01*
X205133Y163347D01*
X205087Y163307D01*
X179696Y137916D01*
X179636Y137838D01*
X179568Y137766D01*
X179539Y137713D01*
X179502Y137665D01*
X179462Y137574D01*
X179414Y137487D01*
X179399Y137429D01*
X179375Y137373D01*
X179360Y137275D01*
X179335Y137179D01*
X179329Y137079D01*
X179325Y137059D01*
X179327Y137047D01*
X179325Y137019D01*
X179325Y82709D01*
X179337Y82611D01*
X179340Y82512D01*
X179357Y82454D01*
X179365Y82394D01*
X179401Y82302D01*
X179429Y82207D01*
X179459Y82154D01*
X179482Y82098D01*
X179540Y82018D01*
X179590Y81933D01*
X179656Y81857D01*
X179668Y81841D01*
X179678Y81833D01*
X179696Y81812D01*
X180966Y80542D01*
X181060Y80469D01*
X181150Y80390D01*
X181168Y80381D01*
X181183Y80368D01*
X181202Y80359D01*
X181218Y80347D01*
X181326Y80300D01*
X181433Y80245D01*
X181453Y80241D01*
X181471Y80232D01*
X181491Y80229D01*
X181510Y80221D01*
X181626Y80202D01*
X181743Y80176D01*
X181764Y80176D01*
X181783Y80173D01*
X181804Y80174D01*
X181824Y80171D01*
X181941Y80182D01*
X182061Y80185D01*
X182081Y80191D01*
X182101Y80192D01*
X182120Y80199D01*
X182140Y80201D01*
X182252Y80241D01*
X182367Y80274D01*
X182384Y80284D01*
X182403Y80290D01*
X182421Y80301D01*
X182440Y80308D01*
X182538Y80375D01*
X182641Y80435D01*
X182662Y80454D01*
X182672Y80461D01*
X182686Y80475D01*
X182703Y80487D01*
X182716Y80502D01*
X182761Y80542D01*
X184262Y82043D01*
X186578Y82043D01*
X188215Y80406D01*
X188215Y78090D01*
X186578Y76453D01*
X184242Y76453D01*
X184233Y76469D01*
X184214Y76490D01*
X184207Y76500D01*
X184192Y76514D01*
X184126Y76589D01*
X182254Y78462D01*
X182160Y78535D01*
X182070Y78614D01*
X182052Y78623D01*
X182037Y78636D01*
X182018Y78645D01*
X182002Y78657D01*
X181894Y78704D01*
X181787Y78759D01*
X181767Y78763D01*
X181749Y78772D01*
X181729Y78775D01*
X181710Y78783D01*
X181594Y78802D01*
X181477Y78828D01*
X181456Y78828D01*
X181437Y78831D01*
X181416Y78830D01*
X181396Y78833D01*
X181279Y78822D01*
X181159Y78819D01*
X181139Y78813D01*
X181119Y78812D01*
X181100Y78805D01*
X181080Y78803D01*
X180968Y78763D01*
X180853Y78730D01*
X180836Y78720D01*
X180817Y78714D01*
X180799Y78703D01*
X180780Y78696D01*
X180682Y78629D01*
X180579Y78569D01*
X180558Y78550D01*
X180548Y78543D01*
X180534Y78528D01*
X180517Y78517D01*
X180504Y78502D01*
X180459Y78462D01*
X178958Y76961D01*
X178562Y76961D01*
X178444Y76946D01*
X178325Y76939D01*
X178287Y76926D01*
X178246Y76921D01*
X178136Y76878D01*
X178023Y76841D01*
X177988Y76819D01*
X177951Y76804D01*
X177855Y76735D01*
X177754Y76671D01*
X177726Y76641D01*
X177693Y76618D01*
X177617Y76526D01*
X177536Y76439D01*
X177516Y76404D01*
X177491Y76373D01*
X177440Y76265D01*
X177382Y76161D01*
X177372Y76121D01*
X177355Y76085D01*
X177333Y75968D01*
X177303Y75853D01*
X177299Y75793D01*
X177295Y75773D01*
X177297Y75752D01*
X177293Y75692D01*
X177293Y75296D01*
X175656Y73659D01*
X173340Y73659D01*
X171703Y75296D01*
X171703Y77612D01*
X173340Y79249D01*
X173736Y79249D01*
X173854Y79264D01*
X173973Y79271D01*
X174011Y79284D01*
X174052Y79289D01*
X174162Y79332D01*
X174275Y79369D01*
X174310Y79391D01*
X174347Y79406D01*
X174443Y79475D01*
X174544Y79539D01*
X174572Y79569D01*
X174605Y79592D01*
X174681Y79684D01*
X174762Y79771D01*
X174782Y79806D01*
X174807Y79837D01*
X174858Y79945D01*
X174916Y80049D01*
X174926Y80089D01*
X174943Y80125D01*
X174965Y80242D01*
X174995Y80357D01*
X174999Y80417D01*
X175003Y80437D01*
X175001Y80458D01*
X175005Y80518D01*
X175005Y80914D01*
X175904Y81812D01*
X175964Y81890D01*
X176032Y81962D01*
X176061Y82015D01*
X176098Y82063D01*
X176138Y82154D01*
X176186Y82241D01*
X176201Y82299D01*
X176225Y82355D01*
X176240Y82453D01*
X176265Y82549D01*
X176271Y82649D01*
X176275Y82669D01*
X176273Y82681D01*
X176275Y82709D01*
X176275Y138808D01*
X177540Y140072D01*
X209432Y171964D01*
X209492Y172042D01*
X209560Y172114D01*
X209589Y172167D01*
X209626Y172215D01*
X209666Y172306D01*
X209714Y172393D01*
X209729Y172451D01*
X209753Y172507D01*
X209768Y172605D01*
X209793Y172701D01*
X209799Y172800D01*
X209803Y172821D01*
X209801Y172833D01*
X209803Y172861D01*
X209803Y174752D01*
X209788Y174870D01*
X209781Y174989D01*
X209768Y175027D01*
X209763Y175068D01*
X209720Y175178D01*
X209683Y175291D01*
X209661Y175326D01*
X209646Y175363D01*
X209577Y175459D01*
X209513Y175560D01*
X209483Y175588D01*
X209460Y175621D01*
X209368Y175697D01*
X209281Y175778D01*
X209246Y175798D01*
X209215Y175823D01*
X209107Y175874D01*
X209003Y175932D01*
X208963Y175942D01*
X208927Y175959D01*
X208810Y175981D01*
X208695Y176011D01*
X208635Y176015D01*
X208615Y176019D01*
X208594Y176017D01*
X208534Y176021D01*
X206725Y176021D01*
X206670Y176050D01*
X206631Y176058D01*
X206594Y176074D01*
X206476Y176093D01*
X206360Y176119D01*
X206319Y176118D01*
X206279Y176124D01*
X206161Y176113D01*
X206042Y176110D01*
X206003Y176098D01*
X205963Y176095D01*
X205851Y176054D01*
X205736Y176021D01*
X205702Y176001D01*
X205664Y175987D01*
X205565Y175920D01*
X205462Y175860D01*
X205417Y175820D01*
X205400Y175808D01*
X205387Y175793D01*
X205341Y175753D01*
X184268Y154680D01*
X183004Y153415D01*
X169672Y153415D01*
X169554Y153400D01*
X169435Y153393D01*
X169397Y153380D01*
X169356Y153375D01*
X169246Y153332D01*
X169133Y153295D01*
X169098Y153273D01*
X169061Y153258D01*
X168965Y153189D01*
X168864Y153125D01*
X168836Y153095D01*
X168803Y153072D01*
X168727Y152980D01*
X168646Y152893D01*
X168626Y152858D01*
X168601Y152827D01*
X168550Y152719D01*
X168492Y152615D01*
X168482Y152575D01*
X168465Y152539D01*
X168443Y152422D01*
X168413Y152307D01*
X168409Y152247D01*
X168405Y152227D01*
X168407Y152206D01*
X168403Y152146D01*
X168403Y150480D01*
X166766Y148843D01*
X164450Y148843D01*
X162813Y150480D01*
X162813Y152146D01*
X162798Y152264D01*
X162791Y152383D01*
X162778Y152421D01*
X162773Y152462D01*
X162730Y152572D01*
X162693Y152685D01*
X162671Y152720D01*
X162656Y152757D01*
X162587Y152853D01*
X162523Y152954D01*
X162493Y152982D01*
X162470Y153015D01*
X162378Y153091D01*
X162291Y153172D01*
X162256Y153192D01*
X162225Y153217D01*
X162117Y153268D01*
X162013Y153326D01*
X161973Y153336D01*
X161937Y153353D01*
X161820Y153375D01*
X161705Y153405D01*
X161645Y153409D01*
X161625Y153413D01*
X161604Y153411D01*
X161544Y153415D01*
X142907Y153415D01*
X142770Y153398D01*
X142631Y153385D01*
X142612Y153378D01*
X142592Y153375D01*
X142463Y153324D01*
X142332Y153277D01*
X142315Y153266D01*
X142296Y153258D01*
X142184Y153177D01*
X142069Y153099D01*
X142055Y153083D01*
X142039Y153072D01*
X141950Y152964D01*
X141858Y152860D01*
X141849Y152842D01*
X141836Y152827D01*
X141777Y152701D01*
X141713Y152577D01*
X141709Y152557D01*
X141700Y152539D01*
X141674Y152402D01*
X141644Y152267D01*
X141644Y152246D01*
X141641Y152227D01*
X141649Y152088D01*
X141653Y151949D01*
X141659Y151929D01*
X141660Y151909D01*
X141703Y151777D01*
X141742Y151643D01*
X141752Y151626D01*
X141758Y151607D01*
X141833Y151489D01*
X141903Y151369D01*
X141922Y151348D01*
X141929Y151338D01*
X141944Y151324D01*
X142010Y151249D01*
X143765Y149494D01*
X143765Y147178D01*
X142128Y145541D01*
X139812Y145541D01*
X139327Y146026D01*
X139233Y146100D01*
X139144Y146178D01*
X139126Y146187D01*
X139111Y146200D01*
X139092Y146209D01*
X139076Y146221D01*
X138966Y146269D01*
X138861Y146322D01*
X138841Y146327D01*
X138823Y146336D01*
X138803Y146339D01*
X138784Y146347D01*
X138666Y146366D01*
X138551Y146392D01*
X138531Y146392D01*
X138510Y146395D01*
X138490Y146394D01*
X138470Y146397D01*
X138351Y146386D01*
X138233Y146382D01*
X138214Y146377D01*
X138193Y146376D01*
X138174Y146369D01*
X138154Y146368D01*
X138041Y146327D01*
X137927Y146294D01*
X137910Y146284D01*
X137891Y146278D01*
X137873Y146267D01*
X137854Y146260D01*
X137755Y146193D01*
X137653Y146133D01*
X137632Y146114D01*
X137622Y146107D01*
X137608Y146093D01*
X137591Y146081D01*
X137578Y146066D01*
X137532Y146026D01*
X135524Y144017D01*
X134253Y144017D01*
X134155Y144005D01*
X134056Y144002D01*
X133998Y143985D01*
X133938Y143977D01*
X133846Y143941D01*
X133751Y143913D01*
X133698Y143883D01*
X133642Y143860D01*
X133562Y143802D01*
X133477Y143752D01*
X133401Y143686D01*
X133385Y143674D01*
X133377Y143664D01*
X133356Y143646D01*
X86478Y96768D01*
X86418Y96690D01*
X86350Y96618D01*
X86321Y96565D01*
X86284Y96517D01*
X86244Y96426D01*
X86196Y96339D01*
X86181Y96281D01*
X86157Y96225D01*
X86142Y96127D01*
X86117Y96031D01*
X86111Y95931D01*
X86107Y95911D01*
X86109Y95899D01*
X86107Y95871D01*
X86107Y94600D01*
X84470Y92963D01*
X82154Y92963D01*
X80517Y94600D01*
X80517Y96916D01*
X82154Y98553D01*
X83425Y98553D01*
X83523Y98565D01*
X83622Y98568D01*
X83680Y98585D01*
X83740Y98593D01*
X83832Y98629D01*
X83927Y98657D01*
X83980Y98687D01*
X84036Y98710D01*
X84116Y98768D01*
X84201Y98818D01*
X84277Y98884D01*
X84293Y98896D01*
X84301Y98906D01*
X84322Y98924D01*
X128518Y143121D01*
X128603Y143230D01*
X128692Y143337D01*
X128701Y143356D01*
X128713Y143372D01*
X128769Y143500D01*
X128828Y143625D01*
X128831Y143645D01*
X128840Y143664D01*
X128861Y143802D01*
X128887Y143938D01*
X128886Y143958D01*
X128889Y143978D01*
X128876Y144117D01*
X128868Y144255D01*
X128861Y144274D01*
X128860Y144294D01*
X128812Y144426D01*
X128770Y144557D01*
X128759Y144575D01*
X128752Y144594D01*
X128674Y144709D01*
X128599Y144826D01*
X128585Y144840D01*
X128573Y144857D01*
X128469Y144949D01*
X128368Y145044D01*
X128350Y145054D01*
X128335Y145067D01*
X128211Y145130D01*
X128089Y145198D01*
X128070Y145203D01*
X128052Y145212D01*
X127916Y145242D01*
X127781Y145277D01*
X127753Y145279D01*
X127741Y145282D01*
X127721Y145281D01*
X127621Y145287D01*
X126096Y145287D01*
X124459Y146924D01*
X124459Y147828D01*
X124444Y147946D01*
X124437Y148065D01*
X124424Y148103D01*
X124419Y148144D01*
X124376Y148254D01*
X124339Y148367D01*
X124317Y148402D01*
X124302Y148439D01*
X124233Y148535D01*
X124169Y148636D01*
X124139Y148664D01*
X124116Y148697D01*
X124024Y148773D01*
X123937Y148854D01*
X123902Y148874D01*
X123871Y148899D01*
X123763Y148950D01*
X123659Y149008D01*
X123619Y149018D01*
X123583Y149035D01*
X123466Y149057D01*
X123351Y149087D01*
X123310Y149090D01*
X121665Y150734D01*
X121665Y153050D01*
X123318Y154702D01*
X123427Y154709D01*
X123465Y154722D01*
X123506Y154727D01*
X123616Y154770D01*
X123729Y154807D01*
X123764Y154829D01*
X123801Y154844D01*
X123897Y154913D01*
X123998Y154977D01*
X124026Y155007D01*
X124059Y155030D01*
X124135Y155122D01*
X124216Y155209D01*
X124236Y155244D01*
X124261Y155275D01*
X124312Y155383D01*
X124370Y155487D01*
X124380Y155527D01*
X124397Y155563D01*
X124419Y155680D01*
X124449Y155795D01*
X124453Y155855D01*
X124457Y155875D01*
X124455Y155896D01*
X124459Y155956D01*
X124459Y156860D01*
X126096Y158497D01*
X128412Y158497D01*
X130072Y156836D01*
X130150Y156776D01*
X130222Y156708D01*
X130275Y156679D01*
X130323Y156642D01*
X130414Y156602D01*
X130501Y156554D01*
X130559Y156539D01*
X130615Y156515D01*
X130713Y156500D01*
X130809Y156475D01*
X130909Y156469D01*
X130929Y156465D01*
X130941Y156467D01*
X130969Y156465D01*
X181215Y156465D01*
X181313Y156477D01*
X181412Y156480D01*
X181470Y156497D01*
X181530Y156505D01*
X181622Y156541D01*
X181717Y156569D01*
X181770Y156599D01*
X181826Y156622D01*
X181906Y156680D01*
X181991Y156730D01*
X182067Y156796D01*
X182083Y156808D01*
X182091Y156818D01*
X182112Y156836D01*
X199130Y173855D01*
X199215Y173964D01*
X199304Y174071D01*
X199313Y174090D01*
X199325Y174106D01*
X199381Y174234D01*
X199440Y174359D01*
X199443Y174379D01*
X199452Y174398D01*
X199473Y174536D01*
X199499Y174672D01*
X199498Y174692D01*
X199501Y174712D01*
X199488Y174851D01*
X199480Y174989D01*
X199473Y175008D01*
X199472Y175028D01*
X199424Y175160D01*
X199382Y175291D01*
X199371Y175309D01*
X199364Y175328D01*
X199286Y175443D01*
X199211Y175560D01*
X199197Y175574D01*
X199185Y175591D01*
X199081Y175683D01*
X198980Y175778D01*
X198962Y175788D01*
X198947Y175801D01*
X198823Y175864D01*
X198701Y175932D01*
X198682Y175937D01*
X198664Y175946D01*
X198528Y175976D01*
X198393Y176011D01*
X198365Y176013D01*
X198353Y176016D01*
X198333Y176015D01*
X198233Y176021D01*
X195692Y176021D01*
X194055Y177658D01*
X194055Y179974D01*
X195692Y181611D01*
X198008Y181611D01*
X198238Y181380D01*
X198333Y181307D01*
X198422Y181228D01*
X198458Y181210D01*
X198490Y181185D01*
X198599Y181138D01*
X198705Y181083D01*
X198744Y181075D01*
X198782Y181059D01*
X198899Y181040D01*
X199015Y181014D01*
X199056Y181015D01*
X199096Y181009D01*
X199214Y181020D01*
X199333Y181023D01*
X199372Y181035D01*
X199412Y181039D01*
X199524Y181079D01*
X199639Y181112D01*
X199674Y181132D01*
X199712Y181146D01*
X199810Y181213D01*
X199913Y181273D01*
X199958Y181313D01*
X199975Y181325D01*
X199988Y181340D01*
X200033Y181380D01*
X200264Y181611D01*
X200660Y181611D01*
X200778Y181626D01*
X200897Y181633D01*
X200935Y181646D01*
X200976Y181651D01*
X201086Y181694D01*
X201199Y181731D01*
X201234Y181753D01*
X201271Y181768D01*
X201367Y181837D01*
X201468Y181901D01*
X201496Y181931D01*
X201529Y181954D01*
X201605Y182046D01*
X201686Y182133D01*
X201706Y182168D01*
X201731Y182199D01*
X201782Y182307D01*
X201840Y182411D01*
X201850Y182451D01*
X201867Y182487D01*
X201889Y182604D01*
X201919Y182719D01*
X201923Y182779D01*
X201927Y182799D01*
X201925Y182820D01*
X201929Y182880D01*
X201929Y183276D01*
X203566Y184913D01*
X206107Y184913D01*
X206244Y184930D01*
X206383Y184943D01*
X206402Y184950D01*
X206422Y184953D01*
X206551Y185004D01*
X206682Y185051D01*
X206699Y185062D01*
X206718Y185070D01*
X206830Y185151D01*
X206945Y185229D01*
X206959Y185245D01*
X206975Y185256D01*
X207064Y185364D01*
X207156Y185468D01*
X207165Y185486D01*
X207178Y185501D01*
X207237Y185627D01*
X207301Y185751D01*
X207305Y185771D01*
X207314Y185789D01*
X207340Y185925D01*
X207370Y186061D01*
X207370Y186082D01*
X207373Y186101D01*
X207365Y186240D01*
X207361Y186379D01*
X207355Y186399D01*
X207354Y186419D01*
X207311Y186551D01*
X207272Y186685D01*
X207262Y186702D01*
X207256Y186721D01*
X207181Y186839D01*
X207111Y186959D01*
X207092Y186980D01*
X207085Y186990D01*
X207071Y187004D01*
X207004Y187079D01*
X201811Y192272D01*
X201702Y192357D01*
X201595Y192446D01*
X201576Y192455D01*
X201560Y192467D01*
X201432Y192523D01*
X201307Y192582D01*
X201287Y192585D01*
X201268Y192594D01*
X201130Y192615D01*
X200994Y192641D01*
X200974Y192640D01*
X200954Y192643D01*
X200815Y192630D01*
X200677Y192622D01*
X200658Y192615D01*
X200638Y192614D01*
X200506Y192566D01*
X200375Y192524D01*
X200357Y192513D01*
X200338Y192506D01*
X200223Y192428D01*
X200106Y192353D01*
X200092Y192339D01*
X200075Y192327D01*
X199983Y192223D01*
X199888Y192122D01*
X199878Y192104D01*
X199865Y192089D01*
X199801Y191965D01*
X199734Y191843D01*
X199729Y191824D01*
X199720Y191806D01*
X199690Y191670D01*
X199655Y191535D01*
X199653Y191507D01*
X199650Y191495D01*
X199651Y191475D01*
X199645Y191375D01*
X199645Y188580D01*
X198008Y186943D01*
X195692Y186943D01*
X194055Y188580D01*
X194055Y190896D01*
X194413Y191254D01*
X194486Y191348D01*
X194565Y191437D01*
X194583Y191473D01*
X194608Y191505D01*
X194655Y191614D01*
X194710Y191720D01*
X194718Y191759D01*
X194734Y191797D01*
X194753Y191914D01*
X194779Y192030D01*
X194778Y192071D01*
X194784Y192111D01*
X194773Y192229D01*
X194770Y192348D01*
X194758Y192387D01*
X194754Y192427D01*
X194714Y192539D01*
X194681Y192654D01*
X194661Y192689D01*
X194647Y192727D01*
X194580Y192825D01*
X194520Y192928D01*
X194480Y192973D01*
X194468Y192990D01*
X194453Y193003D01*
X194413Y193049D01*
X194055Y193406D01*
X194055Y195722D01*
X195692Y197359D01*
X197104Y197359D01*
X197222Y197374D01*
X197341Y197381D01*
X197379Y197394D01*
X197420Y197399D01*
X197530Y197442D01*
X197643Y197479D01*
X197678Y197501D01*
X197715Y197516D01*
X197811Y197585D01*
X197912Y197649D01*
X197940Y197679D01*
X197973Y197702D01*
X198049Y197794D01*
X198130Y197881D01*
X198150Y197916D01*
X198175Y197947D01*
X198226Y198055D01*
X198284Y198159D01*
X198294Y198199D01*
X198311Y198235D01*
X198333Y198352D01*
X198363Y198467D01*
X198367Y198527D01*
X198371Y198547D01*
X198369Y198568D01*
X198373Y198628D01*
X198373Y208534D01*
X198358Y208652D01*
X198351Y208771D01*
X198338Y208809D01*
X198333Y208850D01*
X198290Y208960D01*
X198253Y209073D01*
X198231Y209108D01*
X198216Y209145D01*
X198147Y209241D01*
X198083Y209342D01*
X198053Y209370D01*
X198030Y209403D01*
X197938Y209479D01*
X197851Y209560D01*
X197816Y209580D01*
X197785Y209605D01*
X197677Y209656D01*
X197573Y209714D01*
X197533Y209724D01*
X197497Y209741D01*
X197380Y209763D01*
X197265Y209793D01*
X197205Y209797D01*
X197185Y209801D01*
X197164Y209799D01*
X197104Y209803D01*
X195438Y209803D01*
X193801Y211440D01*
X193801Y213756D01*
X195438Y215393D01*
X195834Y215393D01*
X195952Y215408D01*
X196071Y215415D01*
X196109Y215428D01*
X196150Y215433D01*
X196260Y215476D01*
X196373Y215513D01*
X196408Y215535D01*
X196445Y215550D01*
X196541Y215619D01*
X196642Y215683D01*
X196670Y215713D01*
X196703Y215736D01*
X196779Y215828D01*
X196860Y215915D01*
X196880Y215950D01*
X196905Y215981D01*
X196956Y216089D01*
X197014Y216193D01*
X197024Y216233D01*
X197041Y216269D01*
X197063Y216386D01*
X197093Y216501D01*
X197097Y216561D01*
X197101Y216581D01*
X197099Y216602D01*
X197103Y216662D01*
X197103Y218582D01*
X198740Y220219D01*
X201056Y220219D01*
X202693Y218582D01*
X202693Y216266D01*
X201795Y215368D01*
X201734Y215290D01*
X201666Y215218D01*
X201637Y215165D01*
X201600Y215117D01*
X201560Y215026D01*
X201512Y214939D01*
X201497Y214881D01*
X201473Y214825D01*
X201458Y214727D01*
X201433Y214631D01*
X201427Y214531D01*
X201423Y214511D01*
X201425Y214499D01*
X201423Y214471D01*
X201423Y206490D01*
X201440Y206352D01*
X201453Y206214D01*
X201460Y206195D01*
X201463Y206174D01*
X201514Y206045D01*
X201561Y205914D01*
X201572Y205897D01*
X201580Y205879D01*
X201661Y205766D01*
X201739Y205651D01*
X201755Y205638D01*
X201766Y205621D01*
X201874Y205533D01*
X201978Y205441D01*
X201996Y205431D01*
X202011Y205419D01*
X202137Y205359D01*
X202261Y205296D01*
X202281Y205292D01*
X202299Y205283D01*
X202436Y205257D01*
X202571Y205226D01*
X202592Y205227D01*
X202611Y205223D01*
X202750Y205232D01*
X202889Y205236D01*
X202909Y205242D01*
X202929Y205243D01*
X203061Y205286D01*
X203195Y205324D01*
X203212Y205335D01*
X203231Y205341D01*
X203349Y205415D01*
X203469Y205486D01*
X203490Y205505D01*
X203500Y205511D01*
X203514Y205526D01*
X203589Y205592D01*
X204230Y206233D01*
X204759Y206233D01*
X204857Y206245D01*
X204956Y206248D01*
X205014Y206265D01*
X205075Y206273D01*
X205167Y206309D01*
X205262Y206337D01*
X205314Y206367D01*
X205370Y206390D01*
X205450Y206448D01*
X205536Y206498D01*
X205611Y206564D01*
X205628Y206576D01*
X205635Y206586D01*
X205657Y206604D01*
X208111Y209059D01*
X215916Y209059D01*
X216034Y209074D01*
X216153Y209081D01*
X216191Y209094D01*
X216232Y209099D01*
X216342Y209142D01*
X216455Y209179D01*
X216490Y209201D01*
X216527Y209216D01*
X216623Y209285D01*
X216724Y209349D01*
X216752Y209379D01*
X216785Y209402D01*
X216861Y209494D01*
X216942Y209581D01*
X216962Y209616D01*
X216987Y209647D01*
X217038Y209755D01*
X217096Y209859D01*
X217106Y209899D01*
X217123Y209935D01*
X217145Y210052D01*
X217175Y210167D01*
X217179Y210227D01*
X217183Y210247D01*
X217181Y210268D01*
X217185Y210328D01*
X217185Y212330D01*
X218962Y214107D01*
X221474Y214107D01*
X222890Y212691D01*
X222984Y212618D01*
X223073Y212539D01*
X223109Y212521D01*
X223141Y212496D01*
X223251Y212449D01*
X223357Y212395D01*
X223396Y212386D01*
X223433Y212370D01*
X223551Y212351D01*
X223667Y212325D01*
X223707Y212326D01*
X223747Y212320D01*
X223866Y212331D01*
X223985Y212335D01*
X224024Y212346D01*
X224064Y212350D01*
X224176Y212390D01*
X224290Y212423D01*
X224325Y212444D01*
X224363Y212457D01*
X224462Y212524D01*
X224564Y212585D01*
X224609Y212624D01*
X224626Y212636D01*
X224640Y212651D01*
X224685Y212691D01*
X225101Y213107D01*
X241859Y213107D01*
X241957Y213119D01*
X242056Y213122D01*
X242114Y213139D01*
X242175Y213147D01*
X242267Y213183D01*
X242362Y213211D01*
X242414Y213241D01*
X242470Y213264D01*
X242550Y213322D01*
X242636Y213372D01*
X242711Y213438D01*
X242728Y213450D01*
X242735Y213460D01*
X242757Y213478D01*
X243655Y214377D01*
X262985Y214377D01*
X263123Y214394D01*
X263261Y214407D01*
X263280Y214414D01*
X263300Y214417D01*
X263430Y214468D01*
X263560Y214515D01*
X263577Y214526D01*
X263596Y214534D01*
X263708Y214615D01*
X263823Y214693D01*
X263837Y214709D01*
X263853Y214720D01*
X263942Y214828D01*
X264034Y214932D01*
X264043Y214950D01*
X264056Y214965D01*
X264115Y215091D01*
X264179Y215215D01*
X264183Y215235D01*
X264192Y215253D01*
X264218Y215389D01*
X264248Y215525D01*
X264248Y215546D01*
X264251Y215565D01*
X264243Y215704D01*
X264239Y215843D01*
X264233Y215863D01*
X264232Y215883D01*
X264189Y216015D01*
X264150Y216149D01*
X264140Y216166D01*
X264134Y216185D01*
X264059Y216303D01*
X263989Y216423D01*
X263970Y216444D01*
X263963Y216454D01*
X263949Y216468D01*
X263882Y216544D01*
X263651Y216774D01*
X263651Y219090D01*
X265288Y220727D01*
X267604Y220727D01*
X269241Y219090D01*
X269241Y216774D01*
X269010Y216544D01*
X268925Y216434D01*
X268836Y216327D01*
X268827Y216308D01*
X268815Y216292D01*
X268759Y216164D01*
X268700Y216039D01*
X268697Y216019D01*
X268689Y216000D01*
X268667Y215862D01*
X268641Y215726D01*
X268642Y215706D01*
X268639Y215686D01*
X268652Y215547D01*
X268660Y215409D01*
X268667Y215390D01*
X268668Y215370D01*
X268716Y215239D01*
X268758Y215107D01*
X268769Y215089D01*
X268776Y215070D01*
X268854Y214956D01*
X268929Y214838D01*
X268943Y214824D01*
X268955Y214807D01*
X269059Y214715D01*
X269160Y214620D01*
X269178Y214610D01*
X269193Y214597D01*
X269317Y214534D01*
X269439Y214466D01*
X269458Y214461D01*
X269476Y214452D01*
X269612Y214422D01*
X269747Y214387D01*
X269775Y214385D01*
X269787Y214382D01*
X269807Y214383D01*
X269907Y214377D01*
X293211Y214377D01*
X293349Y214394D01*
X293487Y214407D01*
X293506Y214414D01*
X293526Y214417D01*
X293656Y214468D01*
X293786Y214515D01*
X293803Y214526D01*
X293822Y214534D01*
X293934Y214615D01*
X294049Y214693D01*
X294063Y214709D01*
X294079Y214720D01*
X294168Y214828D01*
X294260Y214932D01*
X294269Y214950D01*
X294282Y214965D01*
X294341Y215091D01*
X294405Y215215D01*
X294409Y215235D01*
X294418Y215253D01*
X294444Y215389D01*
X294474Y215525D01*
X294474Y215546D01*
X294477Y215565D01*
X294469Y215704D01*
X294465Y215843D01*
X294459Y215863D01*
X294458Y215883D01*
X294415Y216015D01*
X294376Y216149D01*
X294366Y216166D01*
X294360Y216185D01*
X294285Y216303D01*
X294215Y216423D01*
X294196Y216444D01*
X294189Y216454D01*
X294175Y216468D01*
X294108Y216544D01*
X293877Y216774D01*
X293877Y219090D01*
X295514Y220727D01*
X297830Y220727D01*
X299467Y219090D01*
X299467Y216774D01*
X299236Y216544D01*
X299151Y216434D01*
X299062Y216327D01*
X299053Y216308D01*
X299041Y216292D01*
X298985Y216164D01*
X298926Y216039D01*
X298923Y216019D01*
X298915Y216000D01*
X298893Y215862D01*
X298867Y215726D01*
X298868Y215706D01*
X298865Y215686D01*
X298878Y215547D01*
X298886Y215409D01*
X298893Y215390D01*
X298894Y215370D01*
X298942Y215239D01*
X298984Y215107D01*
X298995Y215089D01*
X299002Y215070D01*
X299080Y214956D01*
X299155Y214838D01*
X299169Y214824D01*
X299181Y214807D01*
X299285Y214715D01*
X299386Y214620D01*
X299404Y214610D01*
X299419Y214597D01*
X299543Y214534D01*
X299665Y214466D01*
X299684Y214461D01*
X299702Y214452D01*
X299838Y214422D01*
X299973Y214387D01*
X300001Y214385D01*
X300013Y214382D01*
X300033Y214383D01*
X300133Y214377D01*
X332248Y214377D01*
X332366Y214392D01*
X332485Y214399D01*
X332523Y214412D01*
X332564Y214417D01*
X332674Y214460D01*
X332787Y214497D01*
X332822Y214519D01*
X332859Y214534D01*
X332955Y214603D01*
X333056Y214667D01*
X333084Y214697D01*
X333117Y214720D01*
X333193Y214812D01*
X333274Y214899D01*
X333294Y214934D01*
X333319Y214965D01*
X333370Y215073D01*
X333428Y215177D01*
X333438Y215217D01*
X333455Y215253D01*
X333477Y215370D01*
X333507Y215485D01*
X333511Y215545D01*
X333515Y215565D01*
X333513Y215586D01*
X333517Y215646D01*
X333517Y217156D01*
X335294Y218933D01*
X337806Y218933D01*
X339583Y217156D01*
X339583Y214644D01*
X337806Y212867D01*
X337499Y212867D01*
X337361Y212850D01*
X337223Y212837D01*
X337204Y212830D01*
X337183Y212827D01*
X337054Y212776D01*
X336923Y212729D01*
X336906Y212718D01*
X336888Y212710D01*
X336775Y212629D01*
X336660Y212551D01*
X336647Y212535D01*
X336630Y212524D01*
X336541Y212416D01*
X336450Y212312D01*
X336440Y212294D01*
X336428Y212279D01*
X336368Y212153D01*
X336305Y212029D01*
X336301Y212009D01*
X336292Y211991D01*
X336266Y211855D01*
X336235Y211719D01*
X336236Y211698D01*
X336232Y211679D01*
X336241Y211540D01*
X336245Y211401D01*
X336251Y211381D01*
X336252Y211361D01*
X336295Y211229D01*
X336333Y211095D01*
X336344Y211078D01*
X336350Y211059D01*
X336424Y210941D01*
X336495Y210821D01*
X336514Y210800D01*
X336520Y210790D01*
X336535Y210776D01*
X336601Y210700D01*
X337141Y210160D01*
X337220Y210100D01*
X337292Y210032D01*
X337345Y210003D01*
X337393Y209966D01*
X337484Y209926D01*
X337570Y209878D01*
X337629Y209863D01*
X337685Y209839D01*
X337782Y209824D01*
X337878Y209799D01*
X337978Y209793D01*
X337999Y209789D01*
X338011Y209791D01*
X338039Y209789D01*
X338568Y209789D01*
X340345Y208012D01*
X340345Y205500D01*
X338568Y203723D01*
X336056Y203723D01*
X334279Y205500D01*
X334279Y206029D01*
X334267Y206127D01*
X334264Y206226D01*
X334247Y206284D01*
X334239Y206345D01*
X334203Y206437D01*
X334175Y206532D01*
X334145Y206584D01*
X334122Y206640D01*
X334064Y206720D01*
X334014Y206806D01*
X333948Y206881D01*
X333936Y206898D01*
X333926Y206905D01*
X333908Y206927D01*
X331403Y209432D01*
X331324Y209492D01*
X331252Y209560D01*
X331199Y209589D01*
X331151Y209626D01*
X331060Y209666D01*
X330974Y209714D01*
X330915Y209729D01*
X330859Y209753D01*
X330761Y209768D01*
X330666Y209793D01*
X330566Y209799D01*
X330545Y209803D01*
X330533Y209801D01*
X330505Y209803D01*
X297180Y209803D01*
X297062Y209788D01*
X296943Y209781D01*
X296905Y209768D01*
X296864Y209763D01*
X296754Y209720D01*
X296641Y209683D01*
X296606Y209661D01*
X296569Y209646D01*
X296473Y209577D01*
X296372Y209513D01*
X296344Y209483D01*
X296311Y209460D01*
X296235Y209368D01*
X296154Y209281D01*
X296134Y209246D01*
X296109Y209215D01*
X296058Y209107D01*
X296000Y209003D01*
X295990Y208963D01*
X295973Y208927D01*
X295951Y208810D01*
X295921Y208695D01*
X295917Y208635D01*
X295913Y208615D01*
X295915Y208594D01*
X295911Y208534D01*
X295911Y206106D01*
X294274Y204469D01*
X291958Y204469D01*
X290321Y206106D01*
X290321Y208534D01*
X290306Y208652D01*
X290299Y208771D01*
X290286Y208809D01*
X290281Y208850D01*
X290238Y208960D01*
X290201Y209073D01*
X290179Y209108D01*
X290164Y209145D01*
X290095Y209241D01*
X290031Y209342D01*
X290001Y209370D01*
X289978Y209403D01*
X289886Y209479D01*
X289799Y209560D01*
X289764Y209580D01*
X289733Y209605D01*
X289625Y209656D01*
X289521Y209714D01*
X289481Y209724D01*
X289445Y209741D01*
X289328Y209763D01*
X289213Y209793D01*
X289153Y209797D01*
X289133Y209801D01*
X289112Y209799D01*
X289052Y209803D01*
X253492Y209803D01*
X253374Y209788D01*
X253255Y209781D01*
X253217Y209768D01*
X253176Y209763D01*
X253066Y209720D01*
X252953Y209683D01*
X252918Y209661D01*
X252881Y209646D01*
X252785Y209577D01*
X252684Y209513D01*
X252656Y209483D01*
X252623Y209460D01*
X252547Y209368D01*
X252466Y209281D01*
X252446Y209246D01*
X252421Y209215D01*
X252370Y209107D01*
X252312Y209003D01*
X252302Y208963D01*
X252285Y208927D01*
X252263Y208810D01*
X252233Y208695D01*
X252229Y208635D01*
X252225Y208615D01*
X252227Y208594D01*
X252223Y208534D01*
X252223Y206106D01*
X251738Y205622D01*
X251665Y205528D01*
X251586Y205438D01*
X251568Y205402D01*
X251543Y205370D01*
X251496Y205261D01*
X251441Y205155D01*
X251433Y205116D01*
X251417Y205078D01*
X251398Y204961D01*
X251372Y204845D01*
X251373Y204804D01*
X251367Y204764D01*
X251378Y204646D01*
X251381Y204527D01*
X251393Y204488D01*
X251397Y204448D01*
X251437Y204336D01*
X251470Y204221D01*
X251490Y204186D01*
X251504Y204148D01*
X251571Y204050D01*
X251631Y203947D01*
X251671Y203902D01*
X251683Y203885D01*
X251698Y203872D01*
X251738Y203827D01*
X252223Y203342D01*
X252223Y201026D01*
X250595Y199398D01*
X250522Y199304D01*
X250443Y199215D01*
X250425Y199179D01*
X250400Y199147D01*
X250352Y199038D01*
X250298Y198932D01*
X250290Y198893D01*
X250274Y198855D01*
X250255Y198738D01*
X250229Y198622D01*
X250230Y198581D01*
X250224Y198541D01*
X250235Y198423D01*
X250238Y198304D01*
X250250Y198265D01*
X250254Y198225D01*
X250294Y198113D01*
X250327Y197998D01*
X250347Y197963D01*
X250361Y197925D01*
X250428Y197827D01*
X250488Y197724D01*
X250528Y197679D01*
X250540Y197662D01*
X250555Y197649D01*
X250595Y197603D01*
X251461Y196738D01*
X251461Y194422D01*
X250562Y193524D01*
X250502Y193446D01*
X250434Y193374D01*
X250405Y193321D01*
X250368Y193273D01*
X250328Y193182D01*
X250280Y193095D01*
X250265Y193037D01*
X250241Y192981D01*
X250226Y192883D01*
X250201Y192787D01*
X250195Y192687D01*
X250191Y192667D01*
X250193Y192655D01*
X250191Y192627D01*
X250191Y189625D01*
X250203Y189527D01*
X250206Y189428D01*
X250223Y189370D01*
X250231Y189310D01*
X250267Y189218D01*
X250295Y189123D01*
X250325Y189070D01*
X250348Y189014D01*
X250406Y188934D01*
X250456Y188849D01*
X250522Y188773D01*
X250534Y188757D01*
X250544Y188749D01*
X250562Y188728D01*
X270003Y169288D01*
X270003Y156972D01*
X270018Y156854D01*
X270025Y156735D01*
X270038Y156697D01*
X270043Y156656D01*
X270086Y156546D01*
X270123Y156433D01*
X270145Y156398D01*
X270160Y156361D01*
X270229Y156265D01*
X270293Y156164D01*
X270323Y156136D01*
X270346Y156103D01*
X270438Y156027D01*
X270525Y155946D01*
X270560Y155926D01*
X270591Y155901D01*
X270699Y155850D01*
X270803Y155792D01*
X270843Y155782D01*
X270879Y155765D01*
X270996Y155743D01*
X271111Y155713D01*
X271171Y155709D01*
X271191Y155705D01*
X271212Y155707D01*
X271272Y155703D01*
X272938Y155703D01*
X274575Y154066D01*
X274575Y151750D01*
X272938Y150113D01*
X271526Y150113D01*
X271408Y150098D01*
X271289Y150091D01*
X271251Y150078D01*
X271210Y150073D01*
X271100Y150030D01*
X270987Y149993D01*
X270952Y149971D01*
X270915Y149956D01*
X270819Y149887D01*
X270718Y149823D01*
X270690Y149793D01*
X270657Y149770D01*
X270581Y149678D01*
X270500Y149591D01*
X270480Y149556D01*
X270455Y149525D01*
X270404Y149417D01*
X270346Y149313D01*
X270336Y149273D01*
X270319Y149237D01*
X270297Y149120D01*
X270267Y149005D01*
X270263Y148945D01*
X270259Y148925D01*
X270261Y148904D01*
X270257Y148844D01*
X270257Y116462D01*
X236988Y83193D01*
X236903Y83084D01*
X236814Y82977D01*
X236805Y82958D01*
X236793Y82942D01*
X236737Y82814D01*
X236678Y82689D01*
X236675Y82669D01*
X236666Y82650D01*
X236645Y82512D01*
X236619Y82376D01*
X236620Y82356D01*
X236617Y82336D01*
X236630Y82197D01*
X236638Y82059D01*
X236645Y82040D01*
X236646Y82020D01*
X236694Y81888D01*
X236736Y81757D01*
X236747Y81739D01*
X236754Y81720D01*
X236832Y81605D01*
X236907Y81488D01*
X236921Y81474D01*
X236933Y81457D01*
X237037Y81365D01*
X237138Y81270D01*
X237156Y81260D01*
X237171Y81247D01*
X237295Y81183D01*
X237417Y81116D01*
X237436Y81111D01*
X237454Y81102D01*
X237590Y81072D01*
X237725Y81037D01*
X237753Y81035D01*
X237765Y81032D01*
X237785Y81033D01*
X237885Y81027D01*
X239156Y81027D01*
X240021Y80161D01*
X240115Y80088D01*
X240205Y80009D01*
X240241Y79991D01*
X240273Y79966D01*
X240382Y79919D01*
X240488Y79864D01*
X240527Y79856D01*
X240565Y79840D01*
X240682Y79821D01*
X240798Y79795D01*
X240839Y79796D01*
X240879Y79790D01*
X240997Y79801D01*
X241116Y79804D01*
X241155Y79816D01*
X241195Y79820D01*
X241308Y79860D01*
X241422Y79893D01*
X241456Y79913D01*
X241495Y79927D01*
X241593Y79994D01*
X241696Y80054D01*
X241741Y80094D01*
X241758Y80106D01*
X241771Y80121D01*
X241816Y80161D01*
X243190Y81535D01*
X245506Y81535D01*
X247143Y79898D01*
X247143Y77582D01*
X245506Y75945D01*
X243190Y75945D01*
X242324Y76811D01*
X242230Y76884D01*
X242141Y76963D01*
X242105Y76981D01*
X242073Y77006D01*
X241964Y77053D01*
X241858Y77108D01*
X241819Y77116D01*
X241781Y77132D01*
X241664Y77151D01*
X241548Y77177D01*
X241507Y77176D01*
X241467Y77182D01*
X241349Y77171D01*
X241230Y77168D01*
X241191Y77156D01*
X241151Y77152D01*
X241039Y77112D01*
X240924Y77079D01*
X240889Y77059D01*
X240851Y77045D01*
X240753Y76978D01*
X240650Y76918D01*
X240605Y76878D01*
X240588Y76866D01*
X240575Y76851D01*
X240529Y76811D01*
X239156Y75437D01*
X236840Y75437D01*
X235108Y77169D01*
X235083Y77247D01*
X235061Y77282D01*
X235046Y77319D01*
X234977Y77415D01*
X234913Y77516D01*
X234883Y77544D01*
X234860Y77577D01*
X234768Y77653D01*
X234681Y77734D01*
X234646Y77754D01*
X234615Y77779D01*
X234507Y77830D01*
X234403Y77888D01*
X234363Y77898D01*
X234327Y77915D01*
X234210Y77937D01*
X234095Y77967D01*
X234035Y77971D01*
X234015Y77975D01*
X233994Y77973D01*
X233934Y77977D01*
X231553Y77977D01*
X231415Y77960D01*
X231277Y77947D01*
X231258Y77940D01*
X231238Y77937D01*
X231109Y77886D01*
X230977Y77839D01*
X230961Y77828D01*
X230942Y77820D01*
X230830Y77739D01*
X230714Y77660D01*
X230701Y77645D01*
X230685Y77634D01*
X230596Y77527D01*
X230504Y77422D01*
X230495Y77404D01*
X230482Y77389D01*
X230423Y77263D01*
X230359Y77139D01*
X230355Y77119D01*
X230346Y77101D01*
X230320Y76965D01*
X230290Y76828D01*
X230290Y76808D01*
X230287Y76789D01*
X230295Y76650D01*
X230299Y76511D01*
X230305Y76491D01*
X230306Y76471D01*
X230349Y76339D01*
X230379Y76237D01*
X230379Y73772D01*
X228742Y72135D01*
X226426Y72135D01*
X224662Y73899D01*
X224568Y73972D01*
X224479Y74051D01*
X224443Y74069D01*
X224411Y74094D01*
X224302Y74142D01*
X224196Y74196D01*
X224157Y74204D01*
X224119Y74220D01*
X224002Y74239D01*
X223886Y74265D01*
X223845Y74264D01*
X223805Y74270D01*
X223687Y74259D01*
X223568Y74256D01*
X223529Y74244D01*
X223489Y74241D01*
X223377Y74200D01*
X223262Y74167D01*
X223227Y74147D01*
X223189Y74133D01*
X223091Y74066D01*
X222988Y74006D01*
X222943Y73966D01*
X222926Y73954D01*
X222913Y73939D01*
X222867Y73899D01*
X220336Y71368D01*
X220276Y71290D01*
X220208Y71218D01*
X220179Y71165D01*
X220142Y71117D01*
X220102Y71026D01*
X220054Y70939D01*
X220039Y70881D01*
X220015Y70825D01*
X220000Y70727D01*
X219975Y70631D01*
X219969Y70531D01*
X219965Y70511D01*
X219967Y70499D01*
X219965Y70471D01*
X219965Y69472D01*
X217294Y66801D01*
X209680Y66801D01*
G37*
%LPD*%
G36*
X235262Y86259D02*
X235262Y86259D01*
X235401Y86263D01*
X235421Y86269D01*
X235441Y86270D01*
X235573Y86313D01*
X235707Y86352D01*
X235724Y86362D01*
X235743Y86368D01*
X235861Y86443D01*
X235981Y86513D01*
X236002Y86532D01*
X236012Y86539D01*
X236026Y86553D01*
X236101Y86620D01*
X256026Y106545D01*
X256111Y106654D01*
X256200Y106761D01*
X256209Y106780D01*
X256221Y106796D01*
X256277Y106924D01*
X256336Y107049D01*
X256339Y107069D01*
X256348Y107088D01*
X256369Y107226D01*
X256395Y107362D01*
X256394Y107382D01*
X256397Y107402D01*
X256384Y107541D01*
X256376Y107679D01*
X256369Y107698D01*
X256368Y107718D01*
X256320Y107850D01*
X256278Y107981D01*
X256267Y107999D01*
X256260Y108018D01*
X256182Y108133D01*
X256107Y108250D01*
X256093Y108264D01*
X256081Y108281D01*
X255977Y108373D01*
X255876Y108468D01*
X255858Y108478D01*
X255843Y108491D01*
X255719Y108554D01*
X255597Y108622D01*
X255578Y108627D01*
X255560Y108636D01*
X255424Y108666D01*
X255289Y108701D01*
X255261Y108703D01*
X255249Y108706D01*
X255229Y108705D01*
X255129Y108711D01*
X254874Y108711D01*
X253237Y110348D01*
X253237Y112664D01*
X254874Y114301D01*
X257190Y114301D01*
X258827Y112664D01*
X258827Y112409D01*
X258844Y112272D01*
X258857Y112133D01*
X258864Y112114D01*
X258867Y112094D01*
X258918Y111965D01*
X258965Y111834D01*
X258976Y111817D01*
X258984Y111798D01*
X259065Y111686D01*
X259143Y111570D01*
X259159Y111557D01*
X259170Y111541D01*
X259278Y111452D01*
X259382Y111360D01*
X259400Y111351D01*
X259415Y111338D01*
X259541Y111279D01*
X259665Y111215D01*
X259685Y111211D01*
X259703Y111202D01*
X259839Y111176D01*
X259975Y111146D01*
X259996Y111146D01*
X260015Y111143D01*
X260154Y111151D01*
X260293Y111155D01*
X260313Y111161D01*
X260333Y111162D01*
X260465Y111205D01*
X260599Y111244D01*
X260616Y111254D01*
X260635Y111260D01*
X260753Y111335D01*
X260873Y111405D01*
X260894Y111424D01*
X260904Y111431D01*
X260918Y111446D01*
X260993Y111512D01*
X266836Y117354D01*
X266896Y117432D01*
X266964Y117504D01*
X266993Y117557D01*
X267030Y117605D01*
X267070Y117696D01*
X267118Y117783D01*
X267133Y117841D01*
X267157Y117897D01*
X267172Y117995D01*
X267197Y118091D01*
X267203Y118191D01*
X267207Y118211D01*
X267205Y118223D01*
X267207Y118251D01*
X267207Y145542D01*
X267192Y145660D01*
X267185Y145779D01*
X267172Y145817D01*
X267167Y145858D01*
X267124Y145968D01*
X267087Y146081D01*
X267065Y146116D01*
X267050Y146153D01*
X266981Y146249D01*
X266917Y146350D01*
X266887Y146378D01*
X266864Y146411D01*
X266772Y146487D01*
X266685Y146568D01*
X266650Y146588D01*
X266619Y146613D01*
X266511Y146664D01*
X266407Y146722D01*
X266367Y146732D01*
X266331Y146749D01*
X266214Y146771D01*
X266099Y146801D01*
X266039Y146805D01*
X266019Y146809D01*
X265998Y146807D01*
X265938Y146811D01*
X264272Y146811D01*
X262635Y148448D01*
X262635Y149719D01*
X262623Y149817D01*
X262620Y149916D01*
X262603Y149974D01*
X262595Y150034D01*
X262559Y150126D01*
X262531Y150221D01*
X262501Y150274D01*
X262478Y150330D01*
X262420Y150410D01*
X262370Y150495D01*
X262304Y150571D01*
X262292Y150587D01*
X262282Y150595D01*
X262264Y150616D01*
X256939Y155941D01*
X256844Y156014D01*
X256755Y156093D01*
X256719Y156111D01*
X256687Y156136D01*
X256578Y156184D01*
X256472Y156238D01*
X256433Y156246D01*
X256395Y156262D01*
X256278Y156281D01*
X256162Y156307D01*
X256121Y156306D01*
X256081Y156312D01*
X255963Y156301D01*
X255844Y156298D01*
X255805Y156286D01*
X255765Y156283D01*
X255653Y156242D01*
X255538Y156209D01*
X255503Y156189D01*
X255465Y156175D01*
X255367Y156108D01*
X255264Y156048D01*
X255219Y156008D01*
X255202Y155996D01*
X255189Y155981D01*
X255144Y155941D01*
X253888Y154685D01*
X251572Y154685D01*
X249935Y156322D01*
X249935Y158638D01*
X251191Y159894D01*
X251264Y159988D01*
X251343Y160077D01*
X251361Y160113D01*
X251386Y160145D01*
X251433Y160254D01*
X251488Y160360D01*
X251496Y160399D01*
X251512Y160437D01*
X251531Y160554D01*
X251557Y160670D01*
X251556Y160711D01*
X251562Y160751D01*
X251551Y160869D01*
X251548Y160988D01*
X251536Y161027D01*
X251533Y161067D01*
X251492Y161180D01*
X251459Y161294D01*
X251439Y161329D01*
X251425Y161367D01*
X251358Y161465D01*
X251298Y161568D01*
X251258Y161613D01*
X251246Y161630D01*
X251231Y161643D01*
X251191Y161689D01*
X249192Y163688D01*
X249097Y163761D01*
X249008Y163840D01*
X248972Y163858D01*
X248940Y163883D01*
X248831Y163931D01*
X248725Y163985D01*
X248686Y163993D01*
X248648Y164009D01*
X248531Y164028D01*
X248415Y164054D01*
X248374Y164053D01*
X248334Y164059D01*
X248216Y164048D01*
X248097Y164045D01*
X248058Y164033D01*
X248018Y164030D01*
X247906Y163989D01*
X247791Y163956D01*
X247757Y163936D01*
X247718Y163922D01*
X247620Y163855D01*
X247517Y163795D01*
X247472Y163755D01*
X247455Y163743D01*
X247442Y163728D01*
X247397Y163688D01*
X245760Y162051D01*
X243444Y162051D01*
X241807Y163688D01*
X241807Y166004D01*
X243444Y167641D01*
X243517Y167735D01*
X243596Y167824D01*
X243614Y167860D01*
X243639Y167892D01*
X243687Y168001D01*
X243741Y168107D01*
X243749Y168146D01*
X243765Y168184D01*
X243784Y168301D01*
X243810Y168417D01*
X243809Y168458D01*
X243815Y168498D01*
X243804Y168616D01*
X243801Y168735D01*
X243789Y168774D01*
X243786Y168814D01*
X243745Y168927D01*
X243712Y169041D01*
X243692Y169076D01*
X243678Y169114D01*
X243611Y169212D01*
X243551Y169315D01*
X243511Y169360D01*
X243499Y169377D01*
X243484Y169390D01*
X243444Y169436D01*
X236976Y175904D01*
X236969Y175961D01*
X236966Y176060D01*
X236949Y176118D01*
X236941Y176178D01*
X236905Y176270D01*
X236877Y176365D01*
X236847Y176418D01*
X236824Y176474D01*
X236766Y176554D01*
X236716Y176639D01*
X236650Y176715D01*
X236638Y176731D01*
X236628Y176739D01*
X236609Y176760D01*
X235711Y177658D01*
X235711Y179974D01*
X237348Y181611D01*
X239664Y181611D01*
X240148Y181126D01*
X240242Y181053D01*
X240332Y180974D01*
X240368Y180956D01*
X240400Y180931D01*
X240509Y180884D01*
X240615Y180829D01*
X240654Y180821D01*
X240692Y180805D01*
X240809Y180786D01*
X240925Y180760D01*
X240966Y180761D01*
X241006Y180755D01*
X241124Y180766D01*
X241243Y180769D01*
X241282Y180781D01*
X241322Y180785D01*
X241434Y180825D01*
X241549Y180858D01*
X241584Y180878D01*
X241622Y180892D01*
X241720Y180959D01*
X241823Y181019D01*
X241868Y181059D01*
X241885Y181071D01*
X241898Y181086D01*
X241943Y181126D01*
X242428Y181611D01*
X244602Y181611D01*
X244720Y181626D01*
X244839Y181633D01*
X244877Y181646D01*
X244918Y181651D01*
X245028Y181694D01*
X245141Y181731D01*
X245176Y181753D01*
X245213Y181768D01*
X245309Y181837D01*
X245410Y181901D01*
X245438Y181931D01*
X245471Y181954D01*
X245547Y182046D01*
X245628Y182133D01*
X245648Y182168D01*
X245673Y182199D01*
X245724Y182307D01*
X245782Y182411D01*
X245792Y182451D01*
X245809Y182487D01*
X245831Y182604D01*
X245861Y182719D01*
X245865Y182779D01*
X245869Y182799D01*
X245867Y182820D01*
X245871Y182880D01*
X245871Y184546D01*
X247254Y185929D01*
X247327Y186023D01*
X247406Y186112D01*
X247424Y186148D01*
X247449Y186180D01*
X247496Y186289D01*
X247551Y186395D01*
X247559Y186435D01*
X247575Y186472D01*
X247594Y186589D01*
X247620Y186705D01*
X247619Y186746D01*
X247625Y186786D01*
X247614Y186905D01*
X247611Y187023D01*
X247599Y187062D01*
X247596Y187102D01*
X247555Y187215D01*
X247522Y187329D01*
X247502Y187364D01*
X247488Y187402D01*
X247421Y187500D01*
X247361Y187603D01*
X247321Y187648D01*
X247309Y187665D01*
X247294Y187678D01*
X247254Y187724D01*
X247141Y187836D01*
X247141Y188563D01*
X247124Y188701D01*
X247111Y188839D01*
X247104Y188858D01*
X247101Y188878D01*
X247050Y189007D01*
X247003Y189138D01*
X246992Y189155D01*
X246984Y189174D01*
X246903Y189286D01*
X246825Y189401D01*
X246809Y189415D01*
X246798Y189431D01*
X246690Y189520D01*
X246586Y189612D01*
X246568Y189621D01*
X246553Y189634D01*
X246427Y189693D01*
X246303Y189757D01*
X246283Y189761D01*
X246265Y189770D01*
X246128Y189796D01*
X245993Y189826D01*
X245972Y189826D01*
X245953Y189829D01*
X245814Y189821D01*
X245675Y189817D01*
X245655Y189811D01*
X245635Y189810D01*
X245503Y189767D01*
X245369Y189728D01*
X245352Y189718D01*
X245333Y189712D01*
X245215Y189637D01*
X245095Y189567D01*
X245074Y189548D01*
X245064Y189541D01*
X245050Y189526D01*
X244975Y189460D01*
X244236Y188721D01*
X241920Y188721D01*
X240419Y190222D01*
X240310Y190307D01*
X240203Y190396D01*
X240184Y190405D01*
X240168Y190417D01*
X240040Y190473D01*
X239915Y190532D01*
X239895Y190535D01*
X239876Y190543D01*
X239738Y190565D01*
X239602Y190591D01*
X239582Y190590D01*
X239562Y190593D01*
X239423Y190580D01*
X239285Y190572D01*
X239266Y190565D01*
X239246Y190564D01*
X239114Y190516D01*
X238983Y190474D01*
X238965Y190463D01*
X238946Y190456D01*
X238831Y190378D01*
X238714Y190303D01*
X238700Y190289D01*
X238683Y190277D01*
X238591Y190173D01*
X238496Y190072D01*
X238486Y190054D01*
X238473Y190039D01*
X238409Y189915D01*
X238342Y189793D01*
X238337Y189774D01*
X238328Y189756D01*
X238298Y189620D01*
X238263Y189485D01*
X238261Y189457D01*
X238258Y189445D01*
X238259Y189425D01*
X238254Y189344D01*
X236616Y187705D01*
X234300Y187705D01*
X232663Y189342D01*
X232663Y191658D01*
X234300Y193295D01*
X236616Y193295D01*
X238117Y191794D01*
X238226Y191709D01*
X238333Y191620D01*
X238352Y191611D01*
X238368Y191599D01*
X238496Y191543D01*
X238621Y191484D01*
X238641Y191481D01*
X238660Y191473D01*
X238798Y191451D01*
X238934Y191425D01*
X238954Y191426D01*
X238974Y191423D01*
X239113Y191436D01*
X239251Y191444D01*
X239270Y191451D01*
X239290Y191452D01*
X239422Y191500D01*
X239553Y191542D01*
X239571Y191553D01*
X239590Y191560D01*
X239705Y191638D01*
X239822Y191713D01*
X239836Y191727D01*
X239853Y191739D01*
X239945Y191843D01*
X240040Y191944D01*
X240050Y191962D01*
X240063Y191977D01*
X240127Y192101D01*
X240194Y192223D01*
X240199Y192242D01*
X240208Y192260D01*
X240238Y192396D01*
X240273Y192531D01*
X240275Y192559D01*
X240278Y192571D01*
X240277Y192591D01*
X240282Y192672D01*
X240768Y193159D01*
X240853Y193268D01*
X240942Y193375D01*
X240951Y193394D01*
X240963Y193410D01*
X241018Y193538D01*
X241078Y193663D01*
X241081Y193683D01*
X241089Y193702D01*
X241111Y193840D01*
X241137Y193976D01*
X241136Y193996D01*
X241139Y194016D01*
X241126Y194155D01*
X241118Y194293D01*
X241111Y194312D01*
X241110Y194332D01*
X241062Y194463D01*
X241020Y194595D01*
X241009Y194613D01*
X241002Y194632D01*
X240924Y194746D01*
X240849Y194864D01*
X240835Y194878D01*
X240823Y194895D01*
X240719Y194987D01*
X240618Y195082D01*
X240600Y195092D01*
X240585Y195105D01*
X240461Y195168D01*
X240339Y195236D01*
X240320Y195241D01*
X240302Y195250D01*
X240194Y195274D01*
X238505Y196962D01*
X238505Y199278D01*
X240142Y200915D01*
X242458Y200915D01*
X244095Y199278D01*
X244095Y198025D01*
X244112Y197888D01*
X244125Y197749D01*
X244132Y197730D01*
X244135Y197710D01*
X244186Y197581D01*
X244233Y197450D01*
X244244Y197433D01*
X244252Y197414D01*
X244333Y197302D01*
X244411Y197187D01*
X244427Y197173D01*
X244438Y197157D01*
X244546Y197068D01*
X244650Y196976D01*
X244668Y196967D01*
X244683Y196954D01*
X244809Y196895D01*
X244933Y196831D01*
X244953Y196827D01*
X244971Y196818D01*
X245107Y196792D01*
X245243Y196762D01*
X245264Y196762D01*
X245283Y196759D01*
X245422Y196767D01*
X245561Y196771D01*
X245581Y196777D01*
X245601Y196778D01*
X245733Y196821D01*
X245867Y196860D01*
X245884Y196870D01*
X245903Y196876D01*
X246021Y196951D01*
X246141Y197021D01*
X246162Y197040D01*
X246172Y197047D01*
X246186Y197061D01*
X246261Y197128D01*
X247499Y198365D01*
X247572Y198460D01*
X247651Y198549D01*
X247669Y198585D01*
X247694Y198617D01*
X247741Y198726D01*
X247796Y198832D01*
X247804Y198871D01*
X247820Y198909D01*
X247839Y199026D01*
X247865Y199142D01*
X247864Y199183D01*
X247870Y199223D01*
X247859Y199341D01*
X247856Y199460D01*
X247844Y199499D01*
X247840Y199539D01*
X247800Y199652D01*
X247767Y199766D01*
X247747Y199800D01*
X247733Y199839D01*
X247666Y199937D01*
X247606Y200040D01*
X247572Y200078D01*
X247569Y200083D01*
X247564Y200087D01*
X247554Y200102D01*
X247539Y200115D01*
X247499Y200160D01*
X246633Y201026D01*
X246633Y202692D01*
X246618Y202810D01*
X246611Y202929D01*
X246598Y202967D01*
X246593Y203008D01*
X246550Y203118D01*
X246513Y203231D01*
X246491Y203266D01*
X246476Y203303D01*
X246407Y203399D01*
X246343Y203500D01*
X246313Y203528D01*
X246290Y203561D01*
X246198Y203637D01*
X246111Y203718D01*
X246076Y203738D01*
X246045Y203763D01*
X245937Y203814D01*
X245833Y203872D01*
X245793Y203882D01*
X245757Y203899D01*
X245640Y203921D01*
X245525Y203951D01*
X245465Y203955D01*
X245445Y203959D01*
X245424Y203957D01*
X245364Y203961D01*
X242936Y203961D01*
X241299Y205598D01*
X241299Y207264D01*
X241284Y207382D01*
X241277Y207501D01*
X241264Y207539D01*
X241259Y207580D01*
X241216Y207690D01*
X241179Y207803D01*
X241157Y207838D01*
X241142Y207875D01*
X241073Y207971D01*
X241009Y208072D01*
X240979Y208100D01*
X240956Y208133D01*
X240864Y208209D01*
X240777Y208290D01*
X240742Y208310D01*
X240711Y208335D01*
X240603Y208386D01*
X240499Y208444D01*
X240459Y208454D01*
X240423Y208471D01*
X240306Y208493D01*
X240191Y208523D01*
X240131Y208527D01*
X240111Y208531D01*
X240090Y208529D01*
X240030Y208533D01*
X227521Y208533D01*
X227423Y208521D01*
X227324Y208518D01*
X227266Y208501D01*
X227205Y208493D01*
X227113Y208457D01*
X227018Y208429D01*
X226966Y208399D01*
X226910Y208376D01*
X226830Y208318D01*
X226744Y208268D01*
X226669Y208202D01*
X226652Y208190D01*
X226645Y208180D01*
X226623Y208162D01*
X222947Y204485D01*
X210531Y204485D01*
X210433Y204473D01*
X210334Y204470D01*
X210276Y204453D01*
X210215Y204445D01*
X210123Y204409D01*
X210028Y204381D01*
X209976Y204351D01*
X209920Y204328D01*
X209840Y204270D01*
X209754Y204220D01*
X209679Y204154D01*
X209662Y204142D01*
X209655Y204132D01*
X209633Y204114D01*
X208890Y203371D01*
X208830Y203292D01*
X208762Y203220D01*
X208733Y203167D01*
X208696Y203119D01*
X208656Y203028D01*
X208608Y202942D01*
X208593Y202883D01*
X208569Y202827D01*
X208554Y202729D01*
X208529Y202634D01*
X208523Y202534D01*
X208519Y202513D01*
X208521Y202501D01*
X208519Y202473D01*
X208519Y201944D01*
X206742Y200167D01*
X204230Y200167D01*
X203589Y200808D01*
X203480Y200892D01*
X203373Y200981D01*
X203354Y200990D01*
X203338Y201003D01*
X203211Y201058D01*
X203085Y201117D01*
X203065Y201121D01*
X203046Y201129D01*
X202908Y201151D01*
X202772Y201177D01*
X202752Y201176D01*
X202732Y201179D01*
X202593Y201166D01*
X202455Y201157D01*
X202436Y201151D01*
X202416Y201149D01*
X202284Y201102D01*
X202153Y201059D01*
X202135Y201048D01*
X202116Y201041D01*
X202001Y200963D01*
X201884Y200889D01*
X201870Y200874D01*
X201853Y200863D01*
X201761Y200759D01*
X201666Y200657D01*
X201656Y200639D01*
X201643Y200624D01*
X201580Y200501D01*
X201512Y200379D01*
X201507Y200359D01*
X201498Y200341D01*
X201468Y200205D01*
X201433Y200071D01*
X201431Y200043D01*
X201428Y200031D01*
X201429Y200010D01*
X201423Y199910D01*
X201423Y197499D01*
X201435Y197401D01*
X201438Y197302D01*
X201455Y197244D01*
X201463Y197184D01*
X201499Y197092D01*
X201527Y196997D01*
X201557Y196944D01*
X201580Y196888D01*
X201638Y196808D01*
X201688Y196723D01*
X201754Y196647D01*
X201766Y196631D01*
X201776Y196623D01*
X201794Y196602D01*
X212853Y185544D01*
X212853Y171072D01*
X211588Y169808D01*
X210835Y169055D01*
X210762Y168960D01*
X210683Y168871D01*
X210665Y168835D01*
X210640Y168803D01*
X210592Y168694D01*
X210538Y168588D01*
X210530Y168549D01*
X210514Y168511D01*
X210495Y168394D01*
X210469Y168278D01*
X210470Y168237D01*
X210464Y168197D01*
X210475Y168079D01*
X210478Y167960D01*
X210490Y167921D01*
X210493Y167881D01*
X210534Y167769D01*
X210567Y167654D01*
X210587Y167619D01*
X210601Y167581D01*
X210668Y167483D01*
X210728Y167380D01*
X210768Y167335D01*
X210780Y167318D01*
X210795Y167305D01*
X210835Y167260D01*
X212091Y166004D01*
X212091Y165241D01*
X212108Y165104D01*
X212121Y164965D01*
X212128Y164946D01*
X212131Y164926D01*
X212182Y164797D01*
X212229Y164666D01*
X212240Y164649D01*
X212248Y164630D01*
X212329Y164518D01*
X212407Y164403D01*
X212423Y164389D01*
X212434Y164373D01*
X212542Y164284D01*
X212646Y164192D01*
X212664Y164183D01*
X212679Y164170D01*
X212805Y164111D01*
X212929Y164047D01*
X212949Y164043D01*
X212967Y164034D01*
X213103Y164008D01*
X213239Y163978D01*
X213260Y163978D01*
X213279Y163975D01*
X213418Y163983D01*
X213557Y163987D01*
X213577Y163993D01*
X213597Y163994D01*
X213729Y164037D01*
X213863Y164076D01*
X213880Y164086D01*
X213899Y164092D01*
X214017Y164167D01*
X214137Y164237D01*
X214158Y164256D01*
X214168Y164263D01*
X214182Y164277D01*
X214257Y164344D01*
X223768Y173855D01*
X223853Y173964D01*
X223942Y174071D01*
X223951Y174090D01*
X223963Y174106D01*
X224019Y174234D01*
X224078Y174359D01*
X224081Y174379D01*
X224090Y174398D01*
X224111Y174536D01*
X224137Y174672D01*
X224136Y174692D01*
X224139Y174712D01*
X224126Y174851D01*
X224118Y174989D01*
X224111Y175008D01*
X224110Y175028D01*
X224062Y175160D01*
X224020Y175291D01*
X224009Y175309D01*
X224002Y175328D01*
X223924Y175443D01*
X223849Y175560D01*
X223835Y175574D01*
X223823Y175591D01*
X223719Y175683D01*
X223618Y175778D01*
X223600Y175788D01*
X223585Y175801D01*
X223461Y175864D01*
X223339Y175932D01*
X223320Y175937D01*
X223302Y175946D01*
X223166Y175976D01*
X223031Y176011D01*
X223003Y176013D01*
X222991Y176016D01*
X222971Y176015D01*
X222871Y176021D01*
X222362Y176021D01*
X222004Y176379D01*
X221910Y176452D01*
X221821Y176531D01*
X221785Y176549D01*
X221753Y176574D01*
X221644Y176621D01*
X221538Y176676D01*
X221499Y176684D01*
X221461Y176700D01*
X221344Y176719D01*
X221228Y176745D01*
X221187Y176744D01*
X221147Y176750D01*
X221029Y176739D01*
X220910Y176736D01*
X220871Y176724D01*
X220831Y176720D01*
X220719Y176680D01*
X220604Y176647D01*
X220569Y176627D01*
X220531Y176613D01*
X220433Y176546D01*
X220330Y176486D01*
X220285Y176446D01*
X220268Y176434D01*
X220255Y176419D01*
X220209Y176379D01*
X219852Y176021D01*
X217536Y176021D01*
X215899Y177658D01*
X215899Y179974D01*
X217536Y181611D01*
X219852Y181611D01*
X220209Y181253D01*
X220303Y181180D01*
X220393Y181101D01*
X220429Y181083D01*
X220461Y181058D01*
X220570Y181011D01*
X220676Y180956D01*
X220715Y180948D01*
X220753Y180932D01*
X220870Y180913D01*
X220986Y180887D01*
X221027Y180888D01*
X221067Y180882D01*
X221185Y180893D01*
X221304Y180896D01*
X221343Y180908D01*
X221383Y180912D01*
X221495Y180952D01*
X221610Y180985D01*
X221645Y181005D01*
X221683Y181019D01*
X221781Y181086D01*
X221884Y181146D01*
X221929Y181186D01*
X221946Y181198D01*
X221959Y181213D01*
X222004Y181253D01*
X222362Y181611D01*
X224678Y181611D01*
X226306Y179983D01*
X226400Y179910D01*
X226489Y179831D01*
X226525Y179813D01*
X226557Y179788D01*
X226666Y179741D01*
X226772Y179686D01*
X226811Y179678D01*
X226849Y179662D01*
X226966Y179643D01*
X227082Y179617D01*
X227123Y179618D01*
X227163Y179612D01*
X227281Y179623D01*
X227400Y179626D01*
X227439Y179638D01*
X227479Y179642D01*
X227591Y179682D01*
X227706Y179715D01*
X227741Y179735D01*
X227779Y179749D01*
X227877Y179816D01*
X227980Y179876D01*
X228025Y179916D01*
X228042Y179928D01*
X228055Y179943D01*
X228101Y179983D01*
X229220Y181103D01*
X231536Y181103D01*
X233173Y179466D01*
X233173Y177150D01*
X231536Y175513D01*
X230265Y175513D01*
X230167Y175501D01*
X230068Y175498D01*
X230010Y175481D01*
X229950Y175473D01*
X229858Y175437D01*
X229763Y175409D01*
X229710Y175379D01*
X229654Y175356D01*
X229574Y175298D01*
X229489Y175248D01*
X229413Y175182D01*
X229397Y175170D01*
X229389Y175160D01*
X229368Y175142D01*
X222519Y168293D01*
X222446Y168198D01*
X222367Y168109D01*
X222349Y168073D01*
X222324Y168041D01*
X222277Y167932D01*
X222222Y167826D01*
X222214Y167787D01*
X222198Y167749D01*
X222179Y167632D01*
X222153Y167516D01*
X222154Y167475D01*
X222148Y167435D01*
X222159Y167317D01*
X222162Y167198D01*
X222174Y167159D01*
X222177Y167119D01*
X222218Y167006D01*
X222251Y166892D01*
X222271Y166858D01*
X222285Y166819D01*
X222352Y166721D01*
X222412Y166618D01*
X222452Y166573D01*
X222464Y166556D01*
X222479Y166543D01*
X222519Y166498D01*
X223131Y165886D01*
X223240Y165801D01*
X223347Y165712D01*
X223366Y165703D01*
X223382Y165691D01*
X223510Y165635D01*
X223635Y165576D01*
X223655Y165573D01*
X223674Y165565D01*
X223812Y165543D01*
X223948Y165517D01*
X223968Y165518D01*
X223988Y165515D01*
X224127Y165528D01*
X224265Y165536D01*
X224284Y165543D01*
X224304Y165544D01*
X224436Y165592D01*
X224567Y165634D01*
X224585Y165645D01*
X224604Y165652D01*
X224719Y165730D01*
X224836Y165805D01*
X224850Y165819D01*
X224867Y165831D01*
X224959Y165935D01*
X225054Y166036D01*
X225064Y166054D01*
X225077Y166069D01*
X225141Y166193D01*
X225208Y166315D01*
X225213Y166334D01*
X225222Y166352D01*
X225246Y166460D01*
X226934Y168149D01*
X229250Y168149D01*
X230887Y166512D01*
X230887Y164196D01*
X229250Y162559D01*
X228854Y162559D01*
X228736Y162544D01*
X228617Y162537D01*
X228579Y162524D01*
X228538Y162519D01*
X228428Y162476D01*
X228315Y162439D01*
X228280Y162417D01*
X228243Y162402D01*
X228147Y162333D01*
X228046Y162269D01*
X228018Y162239D01*
X227985Y162216D01*
X227909Y162124D01*
X227828Y162037D01*
X227808Y162002D01*
X227783Y161971D01*
X227732Y161863D01*
X227674Y161759D01*
X227664Y161719D01*
X227647Y161683D01*
X227625Y161566D01*
X227595Y161451D01*
X227591Y161391D01*
X227587Y161371D01*
X227589Y161350D01*
X227585Y161290D01*
X227585Y159116D01*
X225948Y157479D01*
X223632Y157479D01*
X221995Y159116D01*
X221995Y159512D01*
X221980Y159630D01*
X221973Y159749D01*
X221960Y159787D01*
X221955Y159828D01*
X221912Y159938D01*
X221875Y160051D01*
X221853Y160086D01*
X221838Y160123D01*
X221769Y160219D01*
X221705Y160320D01*
X221675Y160348D01*
X221652Y160381D01*
X221560Y160457D01*
X221473Y160538D01*
X221438Y160558D01*
X221407Y160583D01*
X221299Y160634D01*
X221195Y160692D01*
X221155Y160702D01*
X221119Y160719D01*
X221002Y160741D01*
X220887Y160771D01*
X220827Y160775D01*
X220807Y160779D01*
X220786Y160777D01*
X220726Y160781D01*
X220330Y160781D01*
X218566Y162545D01*
X218472Y162618D01*
X218383Y162697D01*
X218347Y162715D01*
X218315Y162740D01*
X218206Y162788D01*
X218100Y162842D01*
X218061Y162850D01*
X218023Y162866D01*
X217906Y162885D01*
X217790Y162911D01*
X217749Y162910D01*
X217709Y162916D01*
X217591Y162905D01*
X217472Y162902D01*
X217433Y162890D01*
X217393Y162887D01*
X217280Y162846D01*
X217166Y162813D01*
X217131Y162793D01*
X217093Y162779D01*
X216995Y162712D01*
X216892Y162652D01*
X216847Y162612D01*
X216830Y162600D01*
X216817Y162585D01*
X216771Y162545D01*
X212716Y158490D01*
X212656Y158412D01*
X212588Y158340D01*
X212559Y158287D01*
X212522Y158239D01*
X212482Y158148D01*
X212434Y158061D01*
X212419Y158003D01*
X212395Y157947D01*
X212380Y157849D01*
X212355Y157753D01*
X212349Y157653D01*
X212345Y157633D01*
X212347Y157621D01*
X212345Y157593D01*
X212345Y104299D01*
X212362Y104162D01*
X212375Y104023D01*
X212382Y104004D01*
X212385Y103984D01*
X212436Y103855D01*
X212483Y103724D01*
X212494Y103707D01*
X212502Y103688D01*
X212583Y103576D01*
X212661Y103461D01*
X212677Y103447D01*
X212688Y103431D01*
X212796Y103342D01*
X212900Y103250D01*
X212918Y103241D01*
X212933Y103228D01*
X213059Y103169D01*
X213183Y103105D01*
X213203Y103101D01*
X213221Y103092D01*
X213357Y103066D01*
X213493Y103036D01*
X213514Y103036D01*
X213533Y103033D01*
X213672Y103041D01*
X213811Y103045D01*
X213831Y103051D01*
X213851Y103052D01*
X213983Y103095D01*
X214117Y103134D01*
X214134Y103144D01*
X214153Y103150D01*
X214271Y103225D01*
X214391Y103295D01*
X214412Y103314D01*
X214422Y103321D01*
X214436Y103336D01*
X214511Y103402D01*
X216266Y105157D01*
X217424Y105157D01*
X217542Y105172D01*
X217661Y105179D01*
X217699Y105192D01*
X217740Y105197D01*
X217850Y105240D01*
X217963Y105277D01*
X217998Y105299D01*
X218035Y105314D01*
X218131Y105383D01*
X218232Y105447D01*
X218260Y105477D01*
X218293Y105500D01*
X218369Y105592D01*
X218450Y105679D01*
X218470Y105714D01*
X218495Y105745D01*
X218546Y105853D01*
X218604Y105957D01*
X218614Y105997D01*
X218631Y106033D01*
X218653Y106150D01*
X218683Y106265D01*
X218687Y106325D01*
X218691Y106345D01*
X218689Y106366D01*
X218693Y106426D01*
X218693Y106822D01*
X220330Y108459D01*
X221601Y108459D01*
X221699Y108471D01*
X221798Y108474D01*
X221856Y108491D01*
X221916Y108499D01*
X222008Y108535D01*
X222103Y108563D01*
X222156Y108593D01*
X222212Y108616D01*
X222292Y108674D01*
X222377Y108724D01*
X222453Y108790D01*
X222469Y108802D01*
X222477Y108812D01*
X222498Y108830D01*
X234427Y120759D01*
X234500Y120854D01*
X234579Y120943D01*
X234597Y120979D01*
X234622Y121011D01*
X234670Y121120D01*
X234724Y121226D01*
X234732Y121265D01*
X234748Y121303D01*
X234767Y121420D01*
X234793Y121536D01*
X234792Y121577D01*
X234798Y121617D01*
X234787Y121735D01*
X234784Y121854D01*
X234772Y121893D01*
X234769Y121933D01*
X234728Y122045D01*
X234695Y122160D01*
X234675Y122195D01*
X234661Y122233D01*
X234594Y122331D01*
X234534Y122434D01*
X234494Y122479D01*
X234482Y122496D01*
X234467Y122509D01*
X234427Y122554D01*
X233171Y123810D01*
X233171Y126126D01*
X234808Y127763D01*
X237124Y127763D01*
X238380Y126507D01*
X238474Y126434D01*
X238563Y126355D01*
X238599Y126337D01*
X238631Y126312D01*
X238740Y126264D01*
X238846Y126210D01*
X238885Y126202D01*
X238923Y126186D01*
X239040Y126167D01*
X239156Y126141D01*
X239197Y126142D01*
X239237Y126136D01*
X239355Y126147D01*
X239474Y126150D01*
X239513Y126162D01*
X239553Y126165D01*
X239666Y126206D01*
X239780Y126239D01*
X239815Y126259D01*
X239853Y126273D01*
X239951Y126340D01*
X240054Y126400D01*
X240099Y126440D01*
X240116Y126452D01*
X240129Y126467D01*
X240175Y126507D01*
X244738Y131070D01*
X244798Y131148D01*
X244866Y131220D01*
X244895Y131273D01*
X244932Y131321D01*
X244972Y131412D01*
X245020Y131499D01*
X245035Y131557D01*
X245059Y131613D01*
X245074Y131711D01*
X245099Y131807D01*
X245105Y131907D01*
X245109Y131927D01*
X245107Y131939D01*
X245109Y131967D01*
X245109Y133238D01*
X246746Y134875D01*
X249062Y134875D01*
X250699Y133238D01*
X250699Y130922D01*
X249062Y129285D01*
X247791Y129285D01*
X247693Y129273D01*
X247594Y129270D01*
X247536Y129253D01*
X247476Y129245D01*
X247384Y129209D01*
X247289Y129181D01*
X247236Y129151D01*
X247180Y129128D01*
X247100Y129070D01*
X247015Y129020D01*
X246939Y128954D01*
X246923Y128942D01*
X246915Y128932D01*
X246894Y128914D01*
X233568Y115588D01*
X233495Y115493D01*
X233416Y115404D01*
X233398Y115368D01*
X233373Y115336D01*
X233325Y115227D01*
X233271Y115121D01*
X233263Y115082D01*
X233247Y115044D01*
X233228Y114927D01*
X233202Y114811D01*
X233203Y114770D01*
X233197Y114730D01*
X233208Y114612D01*
X233211Y114493D01*
X233223Y114454D01*
X233226Y114414D01*
X233267Y114302D01*
X233300Y114187D01*
X233320Y114153D01*
X233334Y114114D01*
X233401Y114016D01*
X233461Y113913D01*
X233501Y113868D01*
X233513Y113851D01*
X233528Y113838D01*
X233568Y113793D01*
X235205Y112156D01*
X235205Y109840D01*
X234306Y108942D01*
X234246Y108864D01*
X234178Y108792D01*
X234149Y108739D01*
X234112Y108691D01*
X234072Y108600D01*
X234024Y108513D01*
X234009Y108455D01*
X233985Y108399D01*
X233970Y108301D01*
X233945Y108205D01*
X233939Y108105D01*
X233935Y108085D01*
X233937Y108073D01*
X233935Y108045D01*
X233935Y87517D01*
X233952Y87380D01*
X233965Y87241D01*
X233972Y87222D01*
X233975Y87202D01*
X234026Y87073D01*
X234073Y86942D01*
X234084Y86925D01*
X234092Y86906D01*
X234173Y86794D01*
X234251Y86679D01*
X234267Y86665D01*
X234278Y86649D01*
X234386Y86560D01*
X234490Y86468D01*
X234508Y86459D01*
X234523Y86446D01*
X234649Y86387D01*
X234773Y86323D01*
X234793Y86319D01*
X234811Y86310D01*
X234947Y86284D01*
X235083Y86254D01*
X235104Y86254D01*
X235123Y86251D01*
X235262Y86259D01*
G37*
%LPC*%
G36*
X55395Y129412D02*
X55395Y129412D01*
X52641Y130553D01*
X50533Y132661D01*
X49392Y135415D01*
X49392Y138397D01*
X50533Y141151D01*
X52641Y143259D01*
X55395Y144400D01*
X58377Y144400D01*
X60897Y143356D01*
X60964Y143338D01*
X61028Y143310D01*
X61117Y143296D01*
X61203Y143272D01*
X61273Y143271D01*
X61342Y143260D01*
X61432Y143268D01*
X61521Y143267D01*
X61589Y143283D01*
X61659Y143290D01*
X61743Y143320D01*
X61831Y143341D01*
X61892Y143374D01*
X61958Y143397D01*
X62032Y143448D01*
X62112Y143490D01*
X62163Y143537D01*
X62221Y143576D01*
X62280Y143643D01*
X62347Y143704D01*
X62385Y143762D01*
X62432Y143814D01*
X62472Y143894D01*
X62522Y143969D01*
X62544Y144036D01*
X62576Y144098D01*
X62596Y144185D01*
X62625Y144270D01*
X62630Y144340D01*
X62646Y144408D01*
X62643Y144498D01*
X62650Y144587D01*
X62638Y144656D01*
X62636Y144726D01*
X62611Y144812D01*
X62596Y144901D01*
X62567Y144964D01*
X62548Y145031D01*
X62502Y145109D01*
X62465Y145191D01*
X62422Y145245D01*
X62386Y145305D01*
X62280Y145426D01*
X59915Y147790D01*
X57721Y153089D01*
X57721Y158823D01*
X59915Y164122D01*
X60758Y164965D01*
X60843Y165074D01*
X60932Y165181D01*
X60941Y165200D01*
X60953Y165216D01*
X61008Y165343D01*
X61068Y165469D01*
X61072Y165489D01*
X61080Y165508D01*
X61102Y165646D01*
X61128Y165782D01*
X61126Y165802D01*
X61129Y165822D01*
X61116Y165961D01*
X61108Y166099D01*
X61102Y166118D01*
X61100Y166138D01*
X61052Y166270D01*
X61010Y166401D01*
X60999Y166419D01*
X60992Y166438D01*
X60914Y166553D01*
X60840Y166670D01*
X60825Y166684D01*
X60813Y166701D01*
X60709Y166793D01*
X60608Y166888D01*
X60590Y166898D01*
X60575Y166911D01*
X60451Y166974D01*
X60329Y167042D01*
X60310Y167047D01*
X60292Y167056D01*
X60156Y167086D01*
X60022Y167121D01*
X59993Y167123D01*
X59981Y167126D01*
X59961Y167125D01*
X59861Y167131D01*
X58325Y167131D01*
X58227Y167119D01*
X58128Y167116D01*
X58070Y167099D01*
X58010Y167091D01*
X57918Y167055D01*
X57823Y167027D01*
X57770Y166997D01*
X57714Y166974D01*
X57634Y166916D01*
X57549Y166866D01*
X57473Y166800D01*
X57457Y166788D01*
X57449Y166778D01*
X57428Y166760D01*
X56530Y165861D01*
X54214Y165861D01*
X52577Y167498D01*
X52577Y169814D01*
X54214Y171451D01*
X56530Y171451D01*
X57151Y170830D01*
X57244Y170757D01*
X57334Y170678D01*
X57370Y170660D01*
X57402Y170635D01*
X57511Y170588D01*
X57617Y170533D01*
X57656Y170525D01*
X57694Y170509D01*
X57811Y170490D01*
X57927Y170464D01*
X57968Y170465D01*
X58008Y170459D01*
X58126Y170470D01*
X58245Y170473D01*
X58284Y170485D01*
X58324Y170488D01*
X58436Y170529D01*
X58551Y170562D01*
X58586Y170582D01*
X58624Y170596D01*
X58722Y170663D01*
X58825Y170723D01*
X58870Y170763D01*
X58887Y170775D01*
X58900Y170790D01*
X58946Y170830D01*
X61096Y172980D01*
X62387Y174272D01*
X62423Y174275D01*
X62442Y174282D01*
X62462Y174285D01*
X62591Y174336D01*
X62722Y174383D01*
X62739Y174394D01*
X62758Y174402D01*
X62871Y174483D01*
X62986Y174561D01*
X62999Y174577D01*
X63015Y174588D01*
X63104Y174696D01*
X63196Y174800D01*
X63205Y174818D01*
X63218Y174833D01*
X63277Y174959D01*
X63341Y175083D01*
X63345Y175103D01*
X63354Y175121D01*
X63380Y175257D01*
X63410Y175393D01*
X63410Y175414D01*
X63414Y175433D01*
X63405Y175572D01*
X63401Y175711D01*
X63395Y175731D01*
X63394Y175751D01*
X63351Y175883D01*
X63312Y176017D01*
X63302Y176034D01*
X63296Y176053D01*
X63221Y176171D01*
X63151Y176291D01*
X63132Y176312D01*
X63126Y176322D01*
X63111Y176336D01*
X63044Y176411D01*
X59915Y179540D01*
X57721Y184839D01*
X57721Y190573D01*
X59915Y195872D01*
X63970Y199927D01*
X69269Y202121D01*
X75003Y202121D01*
X80302Y199927D01*
X84357Y195872D01*
X86551Y190573D01*
X86551Y184839D01*
X84419Y179690D01*
X84400Y179623D01*
X84373Y179559D01*
X84359Y179470D01*
X84335Y179384D01*
X84334Y179314D01*
X84323Y179245D01*
X84331Y179155D01*
X84330Y179066D01*
X84346Y178998D01*
X84353Y178928D01*
X84383Y178844D01*
X84404Y178756D01*
X84437Y178695D01*
X84460Y178629D01*
X84511Y178555D01*
X84553Y178475D01*
X84600Y178424D01*
X84639Y178366D01*
X84706Y178306D01*
X84767Y178240D01*
X84825Y178202D01*
X84877Y178155D01*
X84957Y178115D01*
X85032Y178065D01*
X85098Y178043D01*
X85160Y178011D01*
X85248Y177991D01*
X85333Y177962D01*
X85403Y177956D01*
X85471Y177941D01*
X85560Y177944D01*
X85650Y177937D01*
X85719Y177949D01*
X85789Y177951D01*
X85875Y177976D01*
X85963Y177991D01*
X86027Y178020D01*
X86094Y178039D01*
X86171Y178085D01*
X86253Y178122D01*
X86308Y178165D01*
X86368Y178201D01*
X86489Y178307D01*
X89798Y181616D01*
X91062Y182881D01*
X93059Y182881D01*
X93197Y182898D01*
X93335Y182911D01*
X93354Y182918D01*
X93374Y182921D01*
X93504Y182972D01*
X93634Y183019D01*
X93651Y183030D01*
X93670Y183038D01*
X93782Y183119D01*
X93897Y183197D01*
X93911Y183213D01*
X93927Y183224D01*
X94016Y183332D01*
X94108Y183436D01*
X94117Y183454D01*
X94130Y183469D01*
X94189Y183595D01*
X94253Y183719D01*
X94257Y183739D01*
X94266Y183757D01*
X94292Y183894D01*
X94322Y184029D01*
X94322Y184050D01*
X94325Y184069D01*
X94317Y184208D01*
X94313Y184347D01*
X94307Y184367D01*
X94306Y184387D01*
X94263Y184519D01*
X94224Y184653D01*
X94214Y184670D01*
X94208Y184689D01*
X94133Y184807D01*
X94063Y184927D01*
X94044Y184948D01*
X94037Y184958D01*
X94022Y184972D01*
X93956Y185047D01*
X92709Y186294D01*
X92709Y188610D01*
X94346Y190247D01*
X96662Y190247D01*
X97560Y189348D01*
X97638Y189288D01*
X97710Y189220D01*
X97763Y189191D01*
X97811Y189154D01*
X97902Y189114D01*
X97989Y189066D01*
X98047Y189051D01*
X98103Y189027D01*
X98201Y189012D01*
X98297Y188987D01*
X98397Y188981D01*
X98417Y188977D01*
X98429Y188979D01*
X98457Y188977D01*
X119493Y188977D01*
X119591Y188989D01*
X119690Y188992D01*
X119748Y189009D01*
X119808Y189017D01*
X119900Y189053D01*
X119995Y189081D01*
X120048Y189111D01*
X120104Y189134D01*
X120184Y189192D01*
X120269Y189242D01*
X120345Y189308D01*
X120361Y189320D01*
X120369Y189330D01*
X120390Y189348D01*
X163960Y232919D01*
X207359Y232919D01*
X207457Y232931D01*
X207556Y232934D01*
X207614Y232951D01*
X207674Y232959D01*
X207766Y232995D01*
X207861Y233023D01*
X207914Y233053D01*
X207970Y233076D01*
X208050Y233134D01*
X208135Y233184D01*
X208211Y233250D01*
X208227Y233262D01*
X208235Y233272D01*
X208256Y233290D01*
X209154Y234189D01*
X211470Y234189D01*
X212082Y233577D01*
X212176Y233504D01*
X212265Y233425D01*
X212301Y233407D01*
X212333Y233382D01*
X212442Y233335D01*
X212548Y233280D01*
X212587Y233272D01*
X212625Y233256D01*
X212742Y233237D01*
X212858Y233211D01*
X212899Y233212D01*
X212939Y233206D01*
X213057Y233217D01*
X213176Y233220D01*
X213215Y233232D01*
X213255Y233236D01*
X213367Y233276D01*
X213482Y233309D01*
X213517Y233329D01*
X213555Y233343D01*
X213653Y233410D01*
X213756Y233470D01*
X213801Y233510D01*
X213818Y233522D01*
X213831Y233537D01*
X213877Y233577D01*
X214234Y233935D01*
X216550Y233935D01*
X218187Y232298D01*
X218187Y229982D01*
X216550Y228345D01*
X215279Y228345D01*
X215181Y228333D01*
X215082Y228330D01*
X215024Y228313D01*
X214964Y228305D01*
X214872Y228269D01*
X214777Y228241D01*
X214724Y228211D01*
X214668Y228188D01*
X214588Y228130D01*
X214503Y228080D01*
X214427Y228014D01*
X214411Y228002D01*
X214403Y227992D01*
X214382Y227974D01*
X212976Y226567D01*
X165495Y226567D01*
X165397Y226555D01*
X165298Y226552D01*
X165240Y226535D01*
X165180Y226527D01*
X165088Y226491D01*
X164993Y226463D01*
X164940Y226433D01*
X164884Y226410D01*
X164804Y226352D01*
X164719Y226302D01*
X164643Y226236D01*
X164627Y226224D01*
X164619Y226214D01*
X164598Y226196D01*
X120085Y181683D01*
X120012Y181589D01*
X119933Y181499D01*
X119915Y181464D01*
X119890Y181432D01*
X119843Y181322D01*
X119789Y181216D01*
X119780Y181177D01*
X119764Y181140D01*
X119745Y181022D01*
X119719Y180906D01*
X119720Y180866D01*
X119714Y180826D01*
X119725Y180707D01*
X119729Y180588D01*
X119740Y180549D01*
X119744Y180509D01*
X119784Y180397D01*
X119817Y180283D01*
X119838Y180248D01*
X119851Y180210D01*
X119918Y180111D01*
X119979Y180009D01*
X120019Y179963D01*
X120030Y179947D01*
X120045Y179933D01*
X120085Y179888D01*
X121538Y178435D01*
X121538Y175923D01*
X119761Y174146D01*
X117249Y174146D01*
X115472Y175923D01*
X115472Y178562D01*
X115457Y178680D01*
X115450Y178799D01*
X115437Y178837D01*
X115432Y178878D01*
X115389Y178988D01*
X115352Y179101D01*
X115330Y179136D01*
X115315Y179173D01*
X115246Y179269D01*
X115182Y179370D01*
X115152Y179398D01*
X115129Y179431D01*
X115037Y179507D01*
X114950Y179588D01*
X114915Y179608D01*
X114884Y179633D01*
X114776Y179684D01*
X114672Y179742D01*
X114632Y179752D01*
X114596Y179769D01*
X114479Y179791D01*
X114364Y179821D01*
X114304Y179825D01*
X114284Y179829D01*
X114263Y179827D01*
X114203Y179831D01*
X92851Y179831D01*
X92753Y179819D01*
X92654Y179816D01*
X92596Y179799D01*
X92536Y179791D01*
X92444Y179755D01*
X92349Y179727D01*
X92296Y179697D01*
X92240Y179674D01*
X92160Y179616D01*
X92075Y179566D01*
X91999Y179500D01*
X91983Y179488D01*
X91975Y179478D01*
X91954Y179460D01*
X83690Y171195D01*
X79395Y171195D01*
X79326Y171187D01*
X79256Y171188D01*
X79168Y171167D01*
X79079Y171155D01*
X79014Y171130D01*
X78947Y171113D01*
X78867Y171071D01*
X78784Y171038D01*
X78727Y170997D01*
X78665Y170965D01*
X78599Y170904D01*
X78526Y170852D01*
X78482Y170798D01*
X78430Y170751D01*
X78381Y170676D01*
X78323Y170607D01*
X78294Y170543D01*
X78255Y170485D01*
X78226Y170400D01*
X78188Y170319D01*
X78175Y170250D01*
X78152Y170184D01*
X78145Y170095D01*
X78128Y170007D01*
X78133Y169937D01*
X78127Y169867D01*
X78142Y169779D01*
X78148Y169689D01*
X78169Y169623D01*
X78181Y169554D01*
X78218Y169472D01*
X78246Y169387D01*
X78283Y169328D01*
X78312Y169264D01*
X78368Y169194D01*
X78416Y169118D01*
X78467Y169070D01*
X78511Y169016D01*
X78582Y168961D01*
X78648Y168900D01*
X78709Y168866D01*
X78765Y168824D01*
X78909Y168753D01*
X80302Y168177D01*
X84357Y164122D01*
X86551Y158823D01*
X86551Y153089D01*
X84357Y147790D01*
X80302Y143735D01*
X75003Y141541D01*
X69269Y141541D01*
X64205Y143638D01*
X64137Y143657D01*
X64073Y143684D01*
X63985Y143699D01*
X63898Y143722D01*
X63828Y143723D01*
X63759Y143734D01*
X63670Y143726D01*
X63580Y143727D01*
X63512Y143711D01*
X63443Y143704D01*
X63358Y143674D01*
X63271Y143653D01*
X63209Y143620D01*
X63143Y143597D01*
X63069Y143546D01*
X62990Y143504D01*
X62938Y143457D01*
X62880Y143418D01*
X62821Y143351D01*
X62754Y143290D01*
X62716Y143232D01*
X62670Y143180D01*
X62629Y143100D01*
X62580Y143025D01*
X62557Y142959D01*
X62525Y142897D01*
X62505Y142809D01*
X62476Y142724D01*
X62471Y142654D01*
X62456Y142586D01*
X62458Y142497D01*
X62451Y142407D01*
X62463Y142338D01*
X62465Y142268D01*
X62490Y142182D01*
X62506Y142094D01*
X62534Y142030D01*
X62554Y141963D01*
X62599Y141885D01*
X62636Y141804D01*
X62680Y141749D01*
X62715Y141689D01*
X62822Y141568D01*
X63239Y141151D01*
X64380Y138397D01*
X64380Y135415D01*
X63239Y132661D01*
X61131Y130553D01*
X58377Y129412D01*
X55395Y129412D01*
G37*
%LPD*%
%LPC*%
G36*
X28339Y421004D02*
X28339Y421004D01*
X22038Y423615D01*
X17215Y428438D01*
X14604Y434739D01*
X14604Y441561D01*
X17215Y447862D01*
X22038Y452685D01*
X28339Y455296D01*
X35161Y455296D01*
X41462Y452685D01*
X46285Y447862D01*
X48896Y441561D01*
X48896Y434739D01*
X46285Y428438D01*
X41462Y423615D01*
X35161Y421004D01*
X28339Y421004D01*
G37*
%LPD*%
%LPC*%
G36*
X345839Y14604D02*
X345839Y14604D01*
X339538Y17215D01*
X334715Y22038D01*
X332104Y28339D01*
X332104Y35161D01*
X334715Y41462D01*
X339538Y46285D01*
X345839Y48896D01*
X352661Y48896D01*
X358962Y46285D01*
X363785Y41462D01*
X366396Y35161D01*
X366396Y28339D01*
X363785Y22038D01*
X358962Y17215D01*
X352661Y14604D01*
X345839Y14604D01*
G37*
%LPD*%
%LPC*%
G36*
X28339Y14604D02*
X28339Y14604D01*
X22038Y17215D01*
X17215Y22038D01*
X14604Y28339D01*
X14604Y35161D01*
X17215Y41462D01*
X22038Y46285D01*
X28339Y48896D01*
X35161Y48896D01*
X41462Y46285D01*
X46285Y41462D01*
X48896Y35161D01*
X48896Y28339D01*
X46285Y22038D01*
X41462Y17215D01*
X35161Y14604D01*
X28339Y14604D01*
G37*
%LPD*%
%LPC*%
G36*
X345839Y421004D02*
X345839Y421004D01*
X339538Y423615D01*
X334715Y428438D01*
X332104Y434739D01*
X332104Y441561D01*
X334715Y447862D01*
X339538Y452685D01*
X345839Y455296D01*
X352661Y455296D01*
X358962Y452685D01*
X363785Y447862D01*
X366396Y441561D01*
X366396Y434739D01*
X363785Y428438D01*
X358962Y423615D01*
X352661Y421004D01*
X345839Y421004D01*
G37*
%LPD*%
%LPC*%
G36*
X237856Y384809D02*
X237856Y384809D01*
X236219Y386446D01*
X236219Y388762D01*
X236704Y389247D01*
X236789Y389356D01*
X236878Y389463D01*
X236887Y389482D01*
X236899Y389498D01*
X236954Y389626D01*
X237014Y389751D01*
X237017Y389771D01*
X237025Y389790D01*
X237047Y389928D01*
X237073Y390064D01*
X237072Y390084D01*
X237075Y390104D01*
X237062Y390243D01*
X237054Y390381D01*
X237047Y390400D01*
X237046Y390420D01*
X236998Y390551D01*
X236956Y390683D01*
X236945Y390701D01*
X236938Y390720D01*
X236860Y390834D01*
X236785Y390952D01*
X236771Y390966D01*
X236759Y390983D01*
X236655Y391075D01*
X236554Y391170D01*
X236536Y391180D01*
X236521Y391193D01*
X236397Y391256D01*
X236275Y391324D01*
X236256Y391329D01*
X236238Y391338D01*
X236102Y391368D01*
X235967Y391403D01*
X235939Y391405D01*
X235927Y391408D01*
X235907Y391407D01*
X235807Y391413D01*
X188161Y391413D01*
X188063Y391401D01*
X187964Y391398D01*
X187905Y391381D01*
X187845Y391373D01*
X187753Y391337D01*
X187658Y391309D01*
X187606Y391279D01*
X187550Y391256D01*
X187470Y391198D01*
X187384Y391148D01*
X187309Y391082D01*
X187292Y391070D01*
X187284Y391060D01*
X187263Y391042D01*
X186889Y390667D01*
X184377Y390667D01*
X182600Y392444D01*
X182600Y394956D01*
X184377Y396733D01*
X186889Y396733D01*
X187263Y396358D01*
X187342Y396298D01*
X187414Y396230D01*
X187467Y396201D01*
X187515Y396164D01*
X187606Y396124D01*
X187692Y396076D01*
X187751Y396061D01*
X187806Y396037D01*
X187904Y396022D01*
X188000Y395997D01*
X188100Y395991D01*
X188121Y395987D01*
X188133Y395989D01*
X188161Y395987D01*
X359422Y395987D01*
X359520Y395999D01*
X359619Y396002D01*
X359677Y396019D01*
X359738Y396027D01*
X359830Y396063D01*
X359925Y396091D01*
X359977Y396121D01*
X360033Y396144D01*
X360113Y396202D01*
X360199Y396252D01*
X360274Y396318D01*
X360291Y396330D01*
X360298Y396340D01*
X360320Y396358D01*
X360694Y396733D01*
X363206Y396733D01*
X364983Y394956D01*
X364983Y392444D01*
X363206Y390667D01*
X360694Y390667D01*
X360320Y391042D01*
X360241Y391102D01*
X360169Y391170D01*
X360116Y391199D01*
X360068Y391236D01*
X359977Y391276D01*
X359891Y391324D01*
X359832Y391339D01*
X359776Y391363D01*
X359678Y391378D01*
X359583Y391403D01*
X359483Y391409D01*
X359462Y391413D01*
X359450Y391411D01*
X359422Y391413D01*
X242221Y391413D01*
X242083Y391396D01*
X241945Y391383D01*
X241926Y391376D01*
X241906Y391373D01*
X241777Y391322D01*
X241646Y391275D01*
X241629Y391264D01*
X241610Y391256D01*
X241498Y391175D01*
X241383Y391097D01*
X241369Y391081D01*
X241353Y391070D01*
X241264Y390962D01*
X241172Y390858D01*
X241163Y390840D01*
X241150Y390825D01*
X241091Y390699D01*
X241027Y390575D01*
X241023Y390555D01*
X241014Y390537D01*
X240988Y390400D01*
X240958Y390265D01*
X240958Y390244D01*
X240955Y390225D01*
X240963Y390086D01*
X240967Y389947D01*
X240973Y389927D01*
X240974Y389907D01*
X241017Y389775D01*
X241056Y389641D01*
X241066Y389624D01*
X241072Y389605D01*
X241147Y389487D01*
X241217Y389367D01*
X241236Y389346D01*
X241243Y389336D01*
X241258Y389322D01*
X241324Y389247D01*
X241809Y388762D01*
X241809Y386446D01*
X240172Y384809D01*
X237856Y384809D01*
G37*
%LPD*%
%LPC*%
G36*
X35095Y129412D02*
X35095Y129412D01*
X32341Y130553D01*
X30233Y132661D01*
X29092Y135415D01*
X29092Y138397D01*
X30233Y141151D01*
X30650Y141568D01*
X30693Y141623D01*
X30743Y141672D01*
X30790Y141748D01*
X30845Y141819D01*
X30873Y141884D01*
X30910Y141943D01*
X30936Y142029D01*
X30972Y142111D01*
X30983Y142180D01*
X31003Y142247D01*
X31007Y142336D01*
X31022Y142425D01*
X31015Y142495D01*
X31018Y142565D01*
X31000Y142652D01*
X30992Y142742D01*
X30968Y142808D01*
X30954Y142876D01*
X30915Y142957D01*
X30884Y143041D01*
X30845Y143099D01*
X30814Y143162D01*
X30756Y143230D01*
X30706Y143304D01*
X30653Y143351D01*
X30608Y143404D01*
X30534Y143455D01*
X30467Y143515D01*
X30405Y143547D01*
X30348Y143587D01*
X30264Y143619D01*
X30184Y143660D01*
X30116Y143675D01*
X30051Y143700D01*
X29961Y143710D01*
X29874Y143729D01*
X29804Y143727D01*
X29735Y143735D01*
X29646Y143722D01*
X29556Y143720D01*
X29489Y143700D01*
X29420Y143690D01*
X29267Y143638D01*
X24203Y141541D01*
X18469Y141541D01*
X13170Y143735D01*
X9115Y147790D01*
X6921Y153089D01*
X6921Y158823D01*
X9115Y164122D01*
X13170Y168177D01*
X18469Y170371D01*
X24203Y170371D01*
X29502Y168177D01*
X33557Y164122D01*
X35751Y158823D01*
X35751Y153089D01*
X33557Y147790D01*
X31192Y145426D01*
X31149Y145371D01*
X31099Y145322D01*
X31052Y145246D01*
X30997Y145175D01*
X30970Y145111D01*
X30933Y145051D01*
X30907Y144966D01*
X30871Y144883D01*
X30860Y144814D01*
X30839Y144747D01*
X30835Y144658D01*
X30821Y144569D01*
X30828Y144499D01*
X30824Y144430D01*
X30842Y144342D01*
X30851Y144252D01*
X30875Y144186D01*
X30889Y144118D01*
X30928Y144038D01*
X30959Y143953D01*
X30998Y143895D01*
X31028Y143832D01*
X31087Y143764D01*
X31137Y143690D01*
X31189Y143644D01*
X31235Y143590D01*
X31308Y143539D01*
X31376Y143479D01*
X31438Y143448D01*
X31495Y143407D01*
X31579Y143376D01*
X31659Y143335D01*
X31727Y143319D01*
X31792Y143295D01*
X31881Y143285D01*
X31969Y143265D01*
X32039Y143267D01*
X32108Y143259D01*
X32197Y143272D01*
X32287Y143275D01*
X32354Y143294D01*
X32423Y143304D01*
X32575Y143356D01*
X35095Y144400D01*
X38077Y144400D01*
X40831Y143259D01*
X41012Y143077D01*
X41122Y142992D01*
X41229Y142903D01*
X41248Y142895D01*
X41264Y142882D01*
X41391Y142827D01*
X41517Y142768D01*
X41537Y142764D01*
X41556Y142756D01*
X41693Y142734D01*
X41830Y142708D01*
X41850Y142709D01*
X41870Y142706D01*
X42008Y142719D01*
X42147Y142728D01*
X42166Y142734D01*
X42186Y142736D01*
X42318Y142783D01*
X42449Y142826D01*
X42466Y142837D01*
X42486Y142843D01*
X42601Y142922D01*
X42718Y142996D01*
X42732Y143011D01*
X42749Y143022D01*
X42841Y143126D01*
X42936Y143228D01*
X42946Y143245D01*
X42959Y143260D01*
X43023Y143385D01*
X43090Y143506D01*
X43095Y143526D01*
X43104Y143544D01*
X43134Y143680D01*
X43169Y143814D01*
X43171Y143842D01*
X43174Y143854D01*
X43173Y143874D01*
X43179Y143975D01*
X43179Y145938D01*
X44816Y147575D01*
X47132Y147575D01*
X48769Y145938D01*
X48769Y143622D01*
X47132Y141985D01*
X44493Y141985D01*
X44443Y141979D01*
X44394Y141981D01*
X44286Y141959D01*
X44177Y141945D01*
X44131Y141927D01*
X44082Y141917D01*
X43984Y141869D01*
X43882Y141828D01*
X43841Y141799D01*
X43797Y141777D01*
X43713Y141706D01*
X43624Y141642D01*
X43593Y141603D01*
X43555Y141571D01*
X43492Y141481D01*
X43421Y141397D01*
X43400Y141352D01*
X43372Y141311D01*
X43333Y141208D01*
X43286Y141109D01*
X43277Y141060D01*
X43259Y141014D01*
X43247Y140904D01*
X43226Y140797D01*
X43229Y140747D01*
X43224Y140698D01*
X43239Y140589D01*
X43246Y140479D01*
X43261Y140432D01*
X43268Y140383D01*
X43320Y140230D01*
X44080Y138397D01*
X44080Y135415D01*
X42939Y132661D01*
X40831Y130553D01*
X38077Y129412D01*
X35095Y129412D01*
G37*
%LPD*%
%LPC*%
G36*
X160034Y397017D02*
X160034Y397017D01*
X158257Y398794D01*
X158257Y401335D01*
X158325Y401417D01*
X158334Y401436D01*
X158346Y401452D01*
X158402Y401579D01*
X158461Y401705D01*
X158465Y401725D01*
X158473Y401744D01*
X158495Y401881D01*
X158521Y402018D01*
X158520Y402038D01*
X158523Y402058D01*
X158510Y402196D01*
X158501Y402335D01*
X158495Y402354D01*
X158493Y402374D01*
X158446Y402505D01*
X158403Y402637D01*
X158392Y402655D01*
X158385Y402674D01*
X158307Y402789D01*
X158233Y402906D01*
X158218Y402920D01*
X158207Y402937D01*
X158103Y403029D01*
X158001Y403124D01*
X157983Y403134D01*
X157968Y403147D01*
X157845Y403210D01*
X157723Y403278D01*
X157703Y403283D01*
X157685Y403292D01*
X157549Y403322D01*
X157535Y403326D01*
X155717Y405144D01*
X155717Y407686D01*
X155702Y407804D01*
X155695Y407923D01*
X155682Y407961D01*
X155677Y408002D01*
X155634Y408112D01*
X155597Y408225D01*
X155575Y408260D01*
X155560Y408297D01*
X155491Y408393D01*
X155427Y408494D01*
X155397Y408522D01*
X155374Y408555D01*
X155282Y408631D01*
X155195Y408712D01*
X155160Y408732D01*
X155129Y408757D01*
X155021Y408808D01*
X154917Y408866D01*
X154877Y408876D01*
X154841Y408893D01*
X154724Y408915D01*
X154609Y408945D01*
X154549Y408949D01*
X154529Y408953D01*
X154508Y408951D01*
X154448Y408955D01*
X124146Y408955D01*
X124137Y408961D01*
X124078Y408976D01*
X124023Y409000D01*
X123925Y409015D01*
X123829Y409040D01*
X123729Y409046D01*
X123708Y409050D01*
X123696Y409048D01*
X123668Y409050D01*
X83758Y409050D01*
X83660Y409038D01*
X83561Y409035D01*
X83503Y409018D01*
X83443Y409010D01*
X83351Y408974D01*
X83255Y408946D01*
X83203Y408916D01*
X83147Y408893D01*
X83067Y408835D01*
X82981Y408785D01*
X82906Y408719D01*
X82890Y408707D01*
X82882Y408697D01*
X82861Y408679D01*
X81851Y407669D01*
X79339Y407669D01*
X77562Y409446D01*
X77562Y411958D01*
X79339Y413735D01*
X81851Y413735D01*
X82861Y412725D01*
X82939Y412665D01*
X83011Y412597D01*
X83064Y412568D01*
X83112Y412531D01*
X83203Y412491D01*
X83290Y412443D01*
X83348Y412428D01*
X83404Y412404D01*
X83502Y412389D01*
X83597Y412364D01*
X83697Y412358D01*
X83718Y412354D01*
X83730Y412356D01*
X83758Y412354D01*
X122190Y412354D01*
X122308Y412369D01*
X122427Y412376D01*
X122465Y412389D01*
X122506Y412394D01*
X122616Y412437D01*
X122729Y412474D01*
X122764Y412496D01*
X122801Y412511D01*
X122897Y412580D01*
X122998Y412644D01*
X123026Y412674D01*
X123059Y412697D01*
X123135Y412789D01*
X123216Y412876D01*
X123236Y412911D01*
X123261Y412942D01*
X123312Y413050D01*
X123370Y413154D01*
X123380Y413194D01*
X123397Y413230D01*
X123419Y413347D01*
X123449Y413462D01*
X123453Y413522D01*
X123457Y413542D01*
X123455Y413563D01*
X123459Y413623D01*
X123459Y415530D01*
X125236Y417307D01*
X127748Y417307D01*
X129525Y415530D01*
X129525Y413528D01*
X129540Y413410D01*
X129547Y413291D01*
X129560Y413253D01*
X129565Y413212D01*
X129608Y413102D01*
X129645Y412989D01*
X129667Y412954D01*
X129682Y412917D01*
X129751Y412821D01*
X129815Y412720D01*
X129845Y412692D01*
X129868Y412659D01*
X129960Y412583D01*
X130047Y412502D01*
X130082Y412482D01*
X130113Y412457D01*
X130221Y412406D01*
X130325Y412348D01*
X130365Y412338D01*
X130401Y412321D01*
X130518Y412299D01*
X130633Y412269D01*
X130693Y412265D01*
X130713Y412261D01*
X130734Y412263D01*
X130794Y412259D01*
X199136Y412259D01*
X199254Y412274D01*
X199373Y412281D01*
X199411Y412294D01*
X199452Y412299D01*
X199562Y412342D01*
X199675Y412379D01*
X199710Y412401D01*
X199747Y412416D01*
X199843Y412485D01*
X199944Y412549D01*
X199972Y412579D01*
X200005Y412602D01*
X200081Y412694D01*
X200162Y412781D01*
X200182Y412816D01*
X200207Y412847D01*
X200258Y412955D01*
X200316Y413059D01*
X200326Y413099D01*
X200343Y413135D01*
X200365Y413252D01*
X200395Y413367D01*
X200399Y413427D01*
X200403Y413447D01*
X200401Y413468D01*
X200405Y413528D01*
X200405Y415686D01*
X202042Y417323D01*
X204376Y417323D01*
X204387Y417314D01*
X204477Y417235D01*
X204512Y417217D01*
X204544Y417192D01*
X204654Y417145D01*
X204760Y417091D01*
X204799Y417082D01*
X204836Y417066D01*
X204954Y417047D01*
X205070Y417021D01*
X205111Y417022D01*
X205150Y417016D01*
X205269Y417027D01*
X205388Y417031D01*
X205427Y417042D01*
X205467Y417046D01*
X205579Y417086D01*
X205693Y417119D01*
X205728Y417140D01*
X205766Y417153D01*
X205865Y417220D01*
X205967Y417281D01*
X206013Y417320D01*
X206029Y417332D01*
X206043Y417347D01*
X206088Y417387D01*
X206770Y418069D01*
X207010Y418069D01*
X207128Y418084D01*
X207247Y418091D01*
X207285Y418104D01*
X207326Y418109D01*
X207436Y418152D01*
X207549Y418189D01*
X207584Y418211D01*
X207621Y418226D01*
X207717Y418295D01*
X207818Y418359D01*
X207846Y418389D01*
X207879Y418412D01*
X207955Y418504D01*
X208036Y418591D01*
X208056Y418626D01*
X208081Y418657D01*
X208132Y418765D01*
X208190Y418869D01*
X208200Y418909D01*
X208217Y418945D01*
X208239Y419062D01*
X208269Y419177D01*
X208273Y419237D01*
X208277Y419257D01*
X208275Y419278D01*
X208279Y419338D01*
X208279Y419957D01*
X208262Y420095D01*
X208249Y420233D01*
X208242Y420252D01*
X208239Y420272D01*
X208188Y420402D01*
X208141Y420532D01*
X208130Y420549D01*
X208122Y420568D01*
X208041Y420680D01*
X207963Y420796D01*
X207947Y420809D01*
X207936Y420825D01*
X207828Y420914D01*
X207724Y421006D01*
X207706Y421015D01*
X207691Y421028D01*
X207565Y421087D01*
X207441Y421151D01*
X207421Y421155D01*
X207403Y421164D01*
X207267Y421190D01*
X207131Y421220D01*
X207110Y421220D01*
X207091Y421223D01*
X206952Y421215D01*
X206813Y421211D01*
X206793Y421205D01*
X206773Y421204D01*
X206641Y421161D01*
X206507Y421122D01*
X206490Y421112D01*
X206471Y421106D01*
X206353Y421031D01*
X206233Y420961D01*
X206212Y420942D01*
X206202Y420935D01*
X206188Y420920D01*
X206139Y420877D01*
X203820Y420877D01*
X202183Y422514D01*
X202183Y424830D01*
X203820Y426467D01*
X206136Y426467D01*
X207773Y424830D01*
X207773Y424085D01*
X207790Y423947D01*
X207803Y423809D01*
X207810Y423790D01*
X207813Y423770D01*
X207864Y423640D01*
X207911Y423510D01*
X207922Y423493D01*
X207930Y423474D01*
X208011Y423362D01*
X208089Y423246D01*
X208105Y423233D01*
X208116Y423217D01*
X208224Y423128D01*
X208328Y423036D01*
X208346Y423027D01*
X208361Y423014D01*
X208487Y422955D01*
X208611Y422891D01*
X208631Y422887D01*
X208649Y422878D01*
X208785Y422852D01*
X208921Y422822D01*
X208942Y422822D01*
X208961Y422819D01*
X209100Y422827D01*
X209239Y422831D01*
X209259Y422837D01*
X209279Y422838D01*
X209411Y422881D01*
X209545Y422920D01*
X209562Y422930D01*
X209581Y422936D01*
X209699Y423011D01*
X209819Y423081D01*
X209840Y423100D01*
X209850Y423107D01*
X209864Y423122D01*
X209913Y423165D01*
X212232Y423165D01*
X213869Y421528D01*
X213869Y419053D01*
X213836Y418985D01*
X213833Y418965D01*
X213825Y418947D01*
X213803Y418809D01*
X213777Y418672D01*
X213778Y418652D01*
X213775Y418632D01*
X213788Y418494D01*
X213796Y418355D01*
X213803Y418336D01*
X213804Y418316D01*
X213852Y418185D01*
X213894Y418053D01*
X213905Y418036D01*
X213912Y418017D01*
X213990Y417902D01*
X214065Y417784D01*
X214079Y417770D01*
X214091Y417753D01*
X214195Y417661D01*
X214296Y417566D01*
X214314Y417556D01*
X214329Y417543D01*
X214453Y417480D01*
X214575Y417412D01*
X214594Y417407D01*
X214612Y417398D01*
X214748Y417368D01*
X214883Y417333D01*
X214911Y417331D01*
X214922Y417329D01*
X214943Y417329D01*
X215043Y417323D01*
X216154Y417323D01*
X216272Y417338D01*
X216391Y417345D01*
X216429Y417358D01*
X216470Y417363D01*
X216580Y417406D01*
X216693Y417443D01*
X216728Y417465D01*
X216765Y417480D01*
X216861Y417549D01*
X216962Y417613D01*
X216990Y417643D01*
X217023Y417666D01*
X217099Y417758D01*
X217180Y417845D01*
X217200Y417880D01*
X217225Y417911D01*
X217276Y418019D01*
X217334Y418123D01*
X217344Y418163D01*
X217361Y418199D01*
X217383Y418316D01*
X217413Y418431D01*
X217417Y418491D01*
X217421Y418511D01*
X217419Y418532D01*
X217423Y418592D01*
X217423Y419242D01*
X219060Y420879D01*
X221376Y420879D01*
X223013Y419242D01*
X223013Y417989D01*
X223030Y417851D01*
X223043Y417713D01*
X223050Y417694D01*
X223053Y417674D01*
X223104Y417544D01*
X223151Y417414D01*
X223162Y417397D01*
X223170Y417378D01*
X223251Y417266D01*
X223329Y417151D01*
X223345Y417137D01*
X223356Y417121D01*
X223464Y417032D01*
X223568Y416940D01*
X223586Y416931D01*
X223601Y416918D01*
X223727Y416859D01*
X223851Y416795D01*
X223871Y416791D01*
X223889Y416782D01*
X224025Y416756D01*
X224161Y416726D01*
X224182Y416726D01*
X224201Y416723D01*
X224340Y416731D01*
X224479Y416735D01*
X224499Y416741D01*
X224519Y416742D01*
X224651Y416785D01*
X224785Y416824D01*
X224802Y416834D01*
X224821Y416840D01*
X224939Y416915D01*
X225059Y416985D01*
X225080Y417004D01*
X225090Y417011D01*
X225104Y417025D01*
X225180Y417092D01*
X225410Y417323D01*
X227726Y417323D01*
X228719Y416330D01*
X228813Y416257D01*
X228902Y416178D01*
X228938Y416160D01*
X228970Y416135D01*
X229079Y416088D01*
X229185Y416033D01*
X229224Y416025D01*
X229262Y416009D01*
X229379Y415990D01*
X229495Y415964D01*
X229536Y415965D01*
X229576Y415959D01*
X229694Y415970D01*
X229813Y415973D01*
X229852Y415985D01*
X229892Y415989D01*
X230004Y416029D01*
X230119Y416062D01*
X230154Y416082D01*
X230192Y416096D01*
X230290Y416163D01*
X230393Y416223D01*
X230438Y416263D01*
X230455Y416275D01*
X230468Y416290D01*
X230514Y416330D01*
X231506Y417323D01*
X233822Y417323D01*
X235459Y415686D01*
X235459Y413370D01*
X233822Y411733D01*
X231506Y411733D01*
X230514Y412726D01*
X230419Y412799D01*
X230330Y412878D01*
X230294Y412896D01*
X230262Y412921D01*
X230153Y412968D01*
X230047Y413023D01*
X230008Y413031D01*
X229970Y413047D01*
X229853Y413066D01*
X229737Y413092D01*
X229696Y413091D01*
X229656Y413097D01*
X229538Y413086D01*
X229419Y413083D01*
X229380Y413071D01*
X229340Y413067D01*
X229227Y413027D01*
X229113Y412994D01*
X229079Y412974D01*
X229040Y412960D01*
X228942Y412893D01*
X228839Y412833D01*
X228794Y412793D01*
X228777Y412781D01*
X228764Y412766D01*
X228719Y412726D01*
X227726Y411733D01*
X225410Y411733D01*
X223773Y413370D01*
X223773Y414623D01*
X223756Y414761D01*
X223743Y414899D01*
X223736Y414918D01*
X223733Y414938D01*
X223682Y415068D01*
X223635Y415198D01*
X223624Y415215D01*
X223616Y415234D01*
X223535Y415346D01*
X223457Y415461D01*
X223441Y415475D01*
X223430Y415491D01*
X223322Y415580D01*
X223218Y415672D01*
X223200Y415681D01*
X223185Y415694D01*
X223059Y415753D01*
X222935Y415817D01*
X222915Y415821D01*
X222897Y415830D01*
X222761Y415856D01*
X222625Y415886D01*
X222604Y415886D01*
X222585Y415889D01*
X222446Y415881D01*
X222307Y415877D01*
X222287Y415871D01*
X222267Y415870D01*
X222135Y415827D01*
X222001Y415788D01*
X221984Y415778D01*
X221965Y415772D01*
X221847Y415697D01*
X221727Y415627D01*
X221706Y415608D01*
X221696Y415601D01*
X221682Y415586D01*
X221606Y415520D01*
X221376Y415289D01*
X220218Y415289D01*
X220100Y415274D01*
X219981Y415267D01*
X219943Y415254D01*
X219902Y415249D01*
X219792Y415206D01*
X219679Y415169D01*
X219644Y415147D01*
X219607Y415132D01*
X219511Y415063D01*
X219410Y414999D01*
X219382Y414969D01*
X219349Y414946D01*
X219273Y414854D01*
X219192Y414767D01*
X219172Y414732D01*
X219147Y414701D01*
X219096Y414593D01*
X219038Y414489D01*
X219028Y414449D01*
X219011Y414413D01*
X218989Y414296D01*
X218959Y414181D01*
X218955Y414120D01*
X218951Y414101D01*
X218953Y414080D01*
X218949Y414020D01*
X218949Y413370D01*
X217312Y411733D01*
X214996Y411733D01*
X213268Y413462D01*
X213221Y413592D01*
X213210Y413609D01*
X213202Y413627D01*
X213121Y413740D01*
X213043Y413855D01*
X213027Y413868D01*
X213016Y413885D01*
X212908Y413973D01*
X212804Y414065D01*
X212786Y414075D01*
X212771Y414087D01*
X212645Y414147D01*
X212521Y414210D01*
X212501Y414214D01*
X212483Y414223D01*
X212346Y414249D01*
X212211Y414280D01*
X212190Y414279D01*
X212171Y414283D01*
X212032Y414274D01*
X211893Y414270D01*
X211873Y414264D01*
X211853Y414263D01*
X211721Y414220D01*
X211587Y414182D01*
X211570Y414171D01*
X211551Y414165D01*
X211433Y414091D01*
X211313Y414020D01*
X211292Y414001D01*
X211282Y413995D01*
X211268Y413980D01*
X211193Y413914D01*
X210049Y412771D01*
X209989Y412692D01*
X209921Y412620D01*
X209892Y412567D01*
X209855Y412519D01*
X209815Y412428D01*
X209767Y412342D01*
X209752Y412283D01*
X209728Y412227D01*
X209713Y412130D01*
X209688Y412034D01*
X209682Y411934D01*
X209678Y411913D01*
X209680Y411901D01*
X209678Y411873D01*
X209678Y411812D01*
X206821Y408955D01*
X163052Y408955D01*
X162934Y408940D01*
X162815Y408933D01*
X162777Y408920D01*
X162736Y408915D01*
X162626Y408872D01*
X162513Y408835D01*
X162478Y408813D01*
X162441Y408798D01*
X162345Y408729D01*
X162244Y408665D01*
X162216Y408635D01*
X162183Y408612D01*
X162107Y408520D01*
X162026Y408433D01*
X162006Y408398D01*
X161981Y408367D01*
X161930Y408259D01*
X161872Y408155D01*
X161862Y408115D01*
X161845Y408079D01*
X161823Y407962D01*
X161793Y407847D01*
X161789Y407787D01*
X161785Y407767D01*
X161787Y407746D01*
X161783Y407686D01*
X161783Y405115D01*
X161715Y405033D01*
X161706Y405014D01*
X161694Y404998D01*
X161638Y404871D01*
X161579Y404745D01*
X161575Y404725D01*
X161567Y404706D01*
X161545Y404569D01*
X161519Y404432D01*
X161520Y404412D01*
X161517Y404392D01*
X161530Y404254D01*
X161539Y404115D01*
X161545Y404096D01*
X161547Y404076D01*
X161594Y403945D01*
X161637Y403813D01*
X161648Y403795D01*
X161655Y403776D01*
X161733Y403661D01*
X161807Y403544D01*
X161822Y403530D01*
X161833Y403513D01*
X161937Y403421D01*
X162039Y403326D01*
X162057Y403316D01*
X162072Y403303D01*
X162195Y403240D01*
X162317Y403172D01*
X162337Y403167D01*
X162355Y403158D01*
X162491Y403128D01*
X162505Y403124D01*
X164323Y401306D01*
X164323Y398794D01*
X162546Y397017D01*
X160034Y397017D01*
G37*
%LPD*%
%LPC*%
G36*
X18469Y173291D02*
X18469Y173291D01*
X13170Y175485D01*
X9115Y179540D01*
X6921Y184839D01*
X6921Y190573D01*
X9115Y195872D01*
X13170Y199927D01*
X18469Y202121D01*
X24203Y202121D01*
X29502Y199927D01*
X33557Y195872D01*
X35751Y190573D01*
X35751Y184839D01*
X33557Y179540D01*
X29502Y175485D01*
X24203Y173291D01*
X18469Y173291D01*
G37*
%LPD*%
%LPC*%
G36*
X145654Y279145D02*
X145654Y279145D01*
X144017Y280782D01*
X144017Y283098D01*
X145654Y284735D01*
X146925Y284735D01*
X147023Y284747D01*
X147122Y284750D01*
X147180Y284767D01*
X147240Y284775D01*
X147332Y284811D01*
X147427Y284839D01*
X147480Y284869D01*
X147536Y284892D01*
X147616Y284950D01*
X147701Y285000D01*
X147777Y285066D01*
X147793Y285078D01*
X147801Y285088D01*
X147822Y285106D01*
X200908Y338193D01*
X200993Y338302D01*
X201082Y338409D01*
X201091Y338428D01*
X201103Y338444D01*
X201159Y338572D01*
X201218Y338697D01*
X201221Y338717D01*
X201230Y338736D01*
X201251Y338874D01*
X201277Y339010D01*
X201276Y339030D01*
X201279Y339050D01*
X201266Y339189D01*
X201258Y339327D01*
X201251Y339346D01*
X201250Y339366D01*
X201202Y339498D01*
X201160Y339629D01*
X201149Y339647D01*
X201142Y339666D01*
X201064Y339781D01*
X200989Y339898D01*
X200975Y339912D01*
X200963Y339929D01*
X200859Y340021D01*
X200758Y340116D01*
X200740Y340126D01*
X200725Y340139D01*
X200601Y340202D01*
X200479Y340270D01*
X200460Y340275D01*
X200442Y340284D01*
X200306Y340314D01*
X200171Y340349D01*
X200143Y340351D01*
X200131Y340354D01*
X200111Y340353D01*
X200011Y340359D01*
X199756Y340359D01*
X198119Y341996D01*
X198119Y344312D01*
X199756Y345949D01*
X202072Y345949D01*
X202557Y345464D01*
X202666Y345379D01*
X202773Y345290D01*
X202792Y345281D01*
X202808Y345269D01*
X202936Y345214D01*
X203061Y345154D01*
X203081Y345151D01*
X203100Y345143D01*
X203238Y345121D01*
X203374Y345095D01*
X203394Y345096D01*
X203414Y345093D01*
X203553Y345106D01*
X203691Y345114D01*
X203710Y345121D01*
X203730Y345122D01*
X203861Y345170D01*
X203993Y345212D01*
X204011Y345223D01*
X204030Y345230D01*
X204144Y345308D01*
X204262Y345383D01*
X204276Y345397D01*
X204293Y345409D01*
X204385Y345513D01*
X204480Y345614D01*
X204490Y345632D01*
X204503Y345647D01*
X204566Y345771D01*
X204634Y345893D01*
X204639Y345912D01*
X204648Y345930D01*
X204678Y346066D01*
X204713Y346201D01*
X204715Y346229D01*
X204718Y346241D01*
X204717Y346261D01*
X204723Y346361D01*
X204723Y348630D01*
X206360Y350267D01*
X208682Y350267D01*
X208747Y350217D01*
X208836Y350138D01*
X208872Y350120D01*
X208904Y350095D01*
X209013Y350048D01*
X209119Y349993D01*
X209158Y349985D01*
X209196Y349969D01*
X209313Y349950D01*
X209429Y349924D01*
X209470Y349925D01*
X209510Y349919D01*
X209628Y349930D01*
X209747Y349933D01*
X209786Y349945D01*
X209826Y349949D01*
X209939Y349989D01*
X210053Y350022D01*
X210087Y350042D01*
X210126Y350056D01*
X210224Y350123D01*
X210327Y350183D01*
X210372Y350223D01*
X210389Y350235D01*
X210402Y350250D01*
X210447Y350290D01*
X210932Y350775D01*
X213248Y350775D01*
X214885Y349138D01*
X214885Y346822D01*
X213248Y345185D01*
X212739Y345185D01*
X212641Y345173D01*
X212542Y345170D01*
X212484Y345153D01*
X212424Y345145D01*
X212332Y345109D01*
X212237Y345081D01*
X212184Y345051D01*
X212128Y345028D01*
X212048Y344970D01*
X211963Y344920D01*
X211887Y344854D01*
X211871Y344842D01*
X211863Y344832D01*
X211842Y344814D01*
X149978Y282950D01*
X149918Y282872D01*
X149850Y282800D01*
X149821Y282747D01*
X149784Y282699D01*
X149744Y282608D01*
X149696Y282521D01*
X149681Y282463D01*
X149657Y282407D01*
X149642Y282309D01*
X149617Y282213D01*
X149611Y282113D01*
X149607Y282093D01*
X149609Y282081D01*
X149607Y282053D01*
X149607Y280782D01*
X147970Y279145D01*
X145654Y279145D01*
G37*
%LPD*%
%LPC*%
G36*
X24363Y78811D02*
X24363Y78811D01*
X21776Y79883D01*
X19795Y81864D01*
X18723Y84451D01*
X18723Y87252D01*
X19625Y89430D01*
X19639Y89478D01*
X19660Y89523D01*
X19680Y89631D01*
X19709Y89737D01*
X19710Y89787D01*
X19719Y89836D01*
X19713Y89945D01*
X19714Y90055D01*
X19703Y90103D01*
X19700Y90153D01*
X19666Y90257D01*
X19640Y90364D01*
X19617Y90408D01*
X19602Y90455D01*
X19543Y90548D01*
X19491Y90645D01*
X19458Y90682D01*
X19431Y90724D01*
X19351Y90799D01*
X19278Y90881D01*
X19236Y90908D01*
X19200Y90942D01*
X19104Y90995D01*
X19012Y91055D01*
X18965Y91072D01*
X18921Y91096D01*
X18815Y91123D01*
X18711Y91159D01*
X18661Y91163D01*
X18613Y91175D01*
X18453Y91185D01*
X17638Y91185D01*
X16001Y92822D01*
X16001Y95138D01*
X17638Y96775D01*
X19954Y96775D01*
X21591Y95138D01*
X21591Y93644D01*
X21597Y93594D01*
X21595Y93545D01*
X21617Y93437D01*
X21631Y93328D01*
X21649Y93282D01*
X21659Y93233D01*
X21707Y93135D01*
X21748Y93033D01*
X21777Y92992D01*
X21799Y92948D01*
X21870Y92864D01*
X21934Y92775D01*
X21973Y92743D01*
X22005Y92706D01*
X22095Y92643D01*
X22179Y92572D01*
X22224Y92551D01*
X22265Y92523D01*
X22368Y92484D01*
X22467Y92437D01*
X22516Y92428D01*
X22562Y92410D01*
X22672Y92398D01*
X22779Y92377D01*
X22829Y92380D01*
X22878Y92375D01*
X22987Y92390D01*
X23097Y92397D01*
X23144Y92412D01*
X23193Y92419D01*
X23346Y92471D01*
X24364Y92893D01*
X27165Y92893D01*
X29752Y91821D01*
X31733Y89840D01*
X32805Y87253D01*
X32805Y84451D01*
X31733Y81864D01*
X29752Y79883D01*
X27165Y78811D01*
X24363Y78811D01*
G37*
%LPD*%
%LPC*%
G36*
X45245Y180212D02*
X45245Y180212D01*
X42491Y181353D01*
X40383Y183461D01*
X39242Y186215D01*
X39242Y189197D01*
X40383Y191951D01*
X42491Y194059D01*
X45245Y195200D01*
X48227Y195200D01*
X50981Y194059D01*
X53089Y191951D01*
X54230Y189197D01*
X54230Y186215D01*
X53089Y183461D01*
X50981Y181353D01*
X48227Y180212D01*
X45245Y180212D01*
G37*
%LPD*%
%LPC*%
G36*
X23442Y333563D02*
X23442Y333563D01*
X20762Y334673D01*
X18711Y336724D01*
X17601Y339404D01*
X17601Y342304D01*
X18711Y344984D01*
X20762Y347035D01*
X23442Y348145D01*
X26342Y348145D01*
X29022Y347035D01*
X31073Y344984D01*
X32183Y342304D01*
X32183Y339404D01*
X31073Y336724D01*
X29022Y334673D01*
X26342Y333563D01*
X23442Y333563D01*
G37*
%LPD*%
%LPC*%
G36*
X23442Y363563D02*
X23442Y363563D01*
X20762Y364673D01*
X18711Y366724D01*
X17601Y369404D01*
X17601Y372304D01*
X18711Y374984D01*
X20762Y377035D01*
X23442Y378145D01*
X26342Y378145D01*
X29022Y377035D01*
X31073Y374984D01*
X32183Y372304D01*
X32183Y369404D01*
X31073Y366724D01*
X29022Y364673D01*
X26342Y363563D01*
X23442Y363563D01*
G37*
%LPD*%
%LPC*%
G36*
X246746Y217423D02*
X246746Y217423D01*
X245109Y219060D01*
X245109Y221376D01*
X245721Y221987D01*
X245794Y222081D01*
X245873Y222171D01*
X245891Y222207D01*
X245916Y222239D01*
X245963Y222348D01*
X246018Y222454D01*
X246026Y222493D01*
X246042Y222531D01*
X246061Y222648D01*
X246087Y222764D01*
X246086Y222805D01*
X246092Y222845D01*
X246081Y222963D01*
X246078Y223082D01*
X246066Y223121D01*
X246062Y223161D01*
X246022Y223274D01*
X245989Y223388D01*
X245969Y223422D01*
X245955Y223461D01*
X245888Y223559D01*
X245871Y223588D01*
X245871Y225948D01*
X246356Y226433D01*
X246429Y226527D01*
X246508Y226616D01*
X246526Y226652D01*
X246551Y226684D01*
X246598Y226793D01*
X246653Y226899D01*
X246661Y226938D01*
X246677Y226976D01*
X246696Y227093D01*
X246722Y227209D01*
X246721Y227250D01*
X246727Y227290D01*
X246716Y227408D01*
X246713Y227527D01*
X246701Y227566D01*
X246697Y227606D01*
X246657Y227719D01*
X246624Y227833D01*
X246604Y227868D01*
X246590Y227906D01*
X246523Y228004D01*
X246463Y228107D01*
X246423Y228152D01*
X246411Y228169D01*
X246396Y228182D01*
X246356Y228228D01*
X245881Y228703D01*
X245786Y228776D01*
X245697Y228855D01*
X245661Y228873D01*
X245629Y228898D01*
X245520Y228945D01*
X245414Y229000D01*
X245375Y229008D01*
X245337Y229024D01*
X245220Y229043D01*
X245104Y229069D01*
X245063Y229068D01*
X245023Y229074D01*
X244905Y229063D01*
X244786Y229060D01*
X244747Y229048D01*
X244707Y229044D01*
X244594Y229004D01*
X244480Y228971D01*
X244446Y228951D01*
X244407Y228937D01*
X244309Y228870D01*
X244206Y228810D01*
X244161Y228770D01*
X244144Y228758D01*
X244131Y228743D01*
X244086Y228703D01*
X243220Y227837D01*
X240904Y227837D01*
X239150Y229592D01*
X239055Y229665D01*
X238966Y229744D01*
X238930Y229762D01*
X238898Y229787D01*
X238789Y229834D01*
X238683Y229889D01*
X238644Y229897D01*
X238606Y229913D01*
X238489Y229932D01*
X238373Y229958D01*
X238332Y229957D01*
X238292Y229963D01*
X238174Y229952D01*
X238055Y229949D01*
X238016Y229937D01*
X237976Y229933D01*
X237863Y229893D01*
X237749Y229860D01*
X237715Y229840D01*
X237676Y229826D01*
X237578Y229759D01*
X237475Y229699D01*
X237430Y229659D01*
X237413Y229647D01*
X237400Y229632D01*
X237355Y229592D01*
X236362Y228599D01*
X234046Y228599D01*
X233689Y228957D01*
X233595Y229030D01*
X233505Y229109D01*
X233469Y229127D01*
X233437Y229152D01*
X233328Y229199D01*
X233222Y229254D01*
X233183Y229262D01*
X233145Y229278D01*
X233028Y229297D01*
X232912Y229323D01*
X232871Y229322D01*
X232831Y229328D01*
X232713Y229317D01*
X232594Y229314D01*
X232555Y229302D01*
X232515Y229298D01*
X232403Y229258D01*
X232288Y229225D01*
X232253Y229205D01*
X232215Y229191D01*
X232117Y229124D01*
X232014Y229064D01*
X231969Y229024D01*
X231952Y229012D01*
X231939Y228997D01*
X231894Y228957D01*
X231282Y228345D01*
X228966Y228345D01*
X228481Y228830D01*
X228372Y228915D01*
X228265Y229004D01*
X228246Y229013D01*
X228230Y229025D01*
X228102Y229080D01*
X227977Y229140D01*
X227957Y229143D01*
X227938Y229151D01*
X227800Y229173D01*
X227664Y229199D01*
X227644Y229198D01*
X227624Y229201D01*
X227485Y229188D01*
X227347Y229180D01*
X227328Y229173D01*
X227308Y229172D01*
X227177Y229124D01*
X227135Y229111D01*
X227172Y229185D01*
X227240Y229307D01*
X227245Y229326D01*
X227254Y229344D01*
X227284Y229480D01*
X227319Y229615D01*
X227321Y229643D01*
X227324Y229655D01*
X227323Y229675D01*
X227329Y229775D01*
X227329Y232298D01*
X228966Y233935D01*
X231282Y233935D01*
X231640Y233577D01*
X231734Y233504D01*
X231823Y233425D01*
X231859Y233407D01*
X231891Y233382D01*
X232000Y233335D01*
X232106Y233280D01*
X232145Y233272D01*
X232183Y233256D01*
X232300Y233237D01*
X232416Y233211D01*
X232457Y233212D01*
X232497Y233206D01*
X232615Y233217D01*
X232734Y233220D01*
X232773Y233232D01*
X232813Y233236D01*
X232925Y233276D01*
X233040Y233309D01*
X233075Y233329D01*
X233113Y233343D01*
X233211Y233410D01*
X233314Y233470D01*
X233359Y233510D01*
X233376Y233522D01*
X233389Y233537D01*
X233435Y233577D01*
X234046Y234189D01*
X236362Y234189D01*
X238117Y232434D01*
X238211Y232361D01*
X238300Y232282D01*
X238336Y232264D01*
X238368Y232239D01*
X238477Y232192D01*
X238583Y232137D01*
X238622Y232129D01*
X238660Y232113D01*
X238777Y232094D01*
X238893Y232068D01*
X238934Y232069D01*
X238974Y232063D01*
X239092Y232074D01*
X239211Y232077D01*
X239250Y232089D01*
X239290Y232093D01*
X239402Y232133D01*
X239517Y232166D01*
X239552Y232186D01*
X239590Y232200D01*
X239688Y232267D01*
X239791Y232327D01*
X239836Y232367D01*
X239853Y232379D01*
X239866Y232394D01*
X239912Y232434D01*
X240904Y233427D01*
X243220Y233427D01*
X244848Y231799D01*
X244942Y231726D01*
X245031Y231647D01*
X245067Y231629D01*
X245099Y231604D01*
X245208Y231557D01*
X245314Y231502D01*
X245353Y231494D01*
X245391Y231478D01*
X245508Y231459D01*
X245624Y231433D01*
X245665Y231434D01*
X245705Y231428D01*
X245823Y231439D01*
X245942Y231442D01*
X245981Y231454D01*
X246021Y231458D01*
X246133Y231498D01*
X246248Y231531D01*
X246283Y231551D01*
X246321Y231565D01*
X246419Y231632D01*
X246522Y231692D01*
X246567Y231732D01*
X246584Y231744D01*
X246597Y231759D01*
X246643Y231799D01*
X247508Y232665D01*
X249824Y232665D01*
X251461Y231028D01*
X251461Y228712D01*
X250976Y228228D01*
X250903Y228134D01*
X250824Y228044D01*
X250806Y228008D01*
X250781Y227976D01*
X250734Y227867D01*
X250679Y227761D01*
X250671Y227722D01*
X250655Y227684D01*
X250636Y227567D01*
X250610Y227451D01*
X250611Y227410D01*
X250605Y227370D01*
X250616Y227252D01*
X250619Y227133D01*
X250631Y227094D01*
X250635Y227054D01*
X250675Y226942D01*
X250708Y226827D01*
X250728Y226792D01*
X250742Y226754D01*
X250809Y226656D01*
X250869Y226553D01*
X250909Y226508D01*
X250921Y226491D01*
X250936Y226478D01*
X250976Y226433D01*
X251461Y225948D01*
X251461Y223632D01*
X250849Y223020D01*
X250776Y222926D01*
X250697Y222837D01*
X250682Y222808D01*
X250677Y222802D01*
X250674Y222795D01*
X250654Y222769D01*
X250606Y222660D01*
X250552Y222554D01*
X250545Y222522D01*
X250541Y222514D01*
X250540Y222506D01*
X250528Y222477D01*
X250509Y222359D01*
X250483Y222244D01*
X250484Y222212D01*
X250482Y222201D01*
X250482Y222192D01*
X250478Y222163D01*
X250489Y222044D01*
X250493Y221926D01*
X250501Y221898D01*
X250501Y221884D01*
X250505Y221873D01*
X250508Y221847D01*
X250548Y221734D01*
X250581Y221620D01*
X250594Y221598D01*
X250599Y221582D01*
X250607Y221569D01*
X250615Y221547D01*
X250682Y221449D01*
X250699Y221420D01*
X250699Y219060D01*
X249062Y217423D01*
X246746Y217423D01*
G37*
%LPD*%
%LPC*%
G36*
X184008Y415035D02*
X184008Y415035D01*
X182371Y416672D01*
X182371Y419100D01*
X182356Y419218D01*
X182349Y419337D01*
X182336Y419375D01*
X182331Y419416D01*
X182288Y419526D01*
X182251Y419639D01*
X182229Y419674D01*
X182214Y419711D01*
X182145Y419807D01*
X182081Y419908D01*
X182051Y419936D01*
X182028Y419969D01*
X181936Y420045D01*
X181849Y420126D01*
X181814Y420146D01*
X181783Y420171D01*
X181675Y420222D01*
X181571Y420280D01*
X181531Y420290D01*
X181495Y420307D01*
X181378Y420329D01*
X181263Y420359D01*
X181203Y420363D01*
X181183Y420367D01*
X181162Y420365D01*
X181102Y420369D01*
X178674Y420369D01*
X177037Y422006D01*
X177037Y424322D01*
X178674Y425959D01*
X180990Y425959D01*
X181348Y425601D01*
X181442Y425528D01*
X181531Y425449D01*
X181567Y425431D01*
X181599Y425406D01*
X181708Y425359D01*
X181814Y425304D01*
X181853Y425296D01*
X181891Y425280D01*
X182008Y425261D01*
X182124Y425235D01*
X182165Y425236D01*
X182205Y425230D01*
X182323Y425241D01*
X182442Y425244D01*
X182481Y425256D01*
X182521Y425260D01*
X182633Y425300D01*
X182748Y425333D01*
X182783Y425353D01*
X182821Y425367D01*
X182919Y425434D01*
X183022Y425494D01*
X183067Y425534D01*
X183084Y425546D01*
X183097Y425561D01*
X183143Y425601D01*
X183754Y426213D01*
X186070Y426213D01*
X187707Y424576D01*
X187707Y422260D01*
X187095Y421648D01*
X187022Y421554D01*
X186943Y421465D01*
X186925Y421429D01*
X186900Y421397D01*
X186853Y421288D01*
X186798Y421182D01*
X186790Y421143D01*
X186774Y421105D01*
X186755Y420988D01*
X186729Y420872D01*
X186730Y420831D01*
X186724Y420791D01*
X186735Y420673D01*
X186738Y420554D01*
X186750Y420515D01*
X186754Y420475D01*
X186794Y420363D01*
X186827Y420248D01*
X186847Y420213D01*
X186861Y420175D01*
X186928Y420077D01*
X186988Y419974D01*
X187028Y419929D01*
X187040Y419912D01*
X187055Y419899D01*
X187095Y419853D01*
X187961Y418988D01*
X187961Y416672D01*
X186324Y415035D01*
X184008Y415035D01*
G37*
%LPD*%
%LPC*%
G36*
X246746Y241045D02*
X246746Y241045D01*
X245109Y242682D01*
X245109Y244998D01*
X246746Y246635D01*
X249062Y246635D01*
X249547Y246150D01*
X249641Y246077D01*
X249730Y245998D01*
X249766Y245980D01*
X249798Y245955D01*
X249907Y245908D01*
X250013Y245853D01*
X250052Y245845D01*
X250090Y245829D01*
X250207Y245810D01*
X250323Y245784D01*
X250364Y245785D01*
X250404Y245779D01*
X250522Y245790D01*
X250641Y245793D01*
X250680Y245805D01*
X250720Y245809D01*
X250832Y245849D01*
X250947Y245882D01*
X250982Y245902D01*
X251020Y245916D01*
X251118Y245983D01*
X251221Y246043D01*
X251266Y246083D01*
X251283Y246095D01*
X251296Y246110D01*
X251342Y246150D01*
X251826Y246635D01*
X252222Y246635D01*
X252340Y246650D01*
X252459Y246657D01*
X252497Y246670D01*
X252538Y246675D01*
X252648Y246718D01*
X252761Y246755D01*
X252796Y246777D01*
X252833Y246792D01*
X252929Y246861D01*
X253030Y246925D01*
X253058Y246955D01*
X253091Y246978D01*
X253167Y247070D01*
X253248Y247157D01*
X253268Y247192D01*
X253293Y247223D01*
X253344Y247331D01*
X253402Y247435D01*
X253412Y247475D01*
X253429Y247511D01*
X253451Y247628D01*
X253481Y247743D01*
X253485Y247803D01*
X253489Y247823D01*
X253487Y247844D01*
X253491Y247904D01*
X253491Y250078D01*
X255128Y251715D01*
X257444Y251715D01*
X259081Y250078D01*
X259081Y247762D01*
X257444Y246125D01*
X257048Y246125D01*
X256930Y246110D01*
X256811Y246103D01*
X256773Y246090D01*
X256732Y246085D01*
X256622Y246042D01*
X256509Y246005D01*
X256474Y245983D01*
X256437Y245968D01*
X256341Y245899D01*
X256240Y245835D01*
X256212Y245805D01*
X256179Y245782D01*
X256103Y245690D01*
X256022Y245603D01*
X256002Y245568D01*
X255977Y245537D01*
X255926Y245429D01*
X255868Y245325D01*
X255858Y245285D01*
X255841Y245249D01*
X255819Y245132D01*
X255789Y245017D01*
X255785Y244957D01*
X255781Y244937D01*
X255783Y244916D01*
X255779Y244856D01*
X255779Y242682D01*
X254142Y241045D01*
X251826Y241045D01*
X251342Y241530D01*
X251248Y241603D01*
X251158Y241682D01*
X251122Y241700D01*
X251090Y241725D01*
X250981Y241772D01*
X250875Y241827D01*
X250836Y241835D01*
X250798Y241851D01*
X250681Y241870D01*
X250565Y241896D01*
X250524Y241895D01*
X250484Y241901D01*
X250366Y241890D01*
X250247Y241887D01*
X250208Y241875D01*
X250168Y241871D01*
X250056Y241831D01*
X249941Y241798D01*
X249906Y241778D01*
X249868Y241764D01*
X249770Y241697D01*
X249667Y241637D01*
X249622Y241597D01*
X249605Y241585D01*
X249592Y241570D01*
X249547Y241530D01*
X249062Y241045D01*
X246746Y241045D01*
G37*
%LPD*%
%LPC*%
G36*
X260716Y187705D02*
X260716Y187705D01*
X259079Y189342D01*
X259079Y191658D01*
X259564Y192142D01*
X259637Y192236D01*
X259716Y192326D01*
X259734Y192362D01*
X259759Y192394D01*
X259806Y192503D01*
X259861Y192609D01*
X259869Y192648D01*
X259885Y192686D01*
X259904Y192803D01*
X259930Y192919D01*
X259929Y192960D01*
X259935Y193000D01*
X259924Y193118D01*
X259921Y193237D01*
X259909Y193276D01*
X259905Y193316D01*
X259865Y193428D01*
X259832Y193543D01*
X259812Y193578D01*
X259798Y193616D01*
X259731Y193714D01*
X259671Y193817D01*
X259631Y193862D01*
X259619Y193879D01*
X259604Y193892D01*
X259564Y193937D01*
X259079Y194422D01*
X259079Y196738D01*
X260716Y198375D01*
X263032Y198375D01*
X263517Y197890D01*
X263611Y197817D01*
X263700Y197738D01*
X263736Y197720D01*
X263768Y197695D01*
X263877Y197648D01*
X263983Y197593D01*
X264022Y197585D01*
X264060Y197569D01*
X264177Y197550D01*
X264293Y197524D01*
X264334Y197525D01*
X264374Y197519D01*
X264492Y197530D01*
X264611Y197533D01*
X264650Y197545D01*
X264690Y197549D01*
X264802Y197589D01*
X264917Y197622D01*
X264952Y197642D01*
X264990Y197656D01*
X265088Y197723D01*
X265191Y197783D01*
X265236Y197823D01*
X265253Y197835D01*
X265266Y197850D01*
X265312Y197890D01*
X265796Y198375D01*
X268112Y198375D01*
X269749Y196738D01*
X269749Y194422D01*
X268112Y192785D01*
X265938Y192785D01*
X265820Y192770D01*
X265701Y192763D01*
X265663Y192750D01*
X265622Y192745D01*
X265512Y192702D01*
X265399Y192665D01*
X265364Y192643D01*
X265327Y192628D01*
X265231Y192559D01*
X265130Y192495D01*
X265102Y192465D01*
X265069Y192442D01*
X264993Y192350D01*
X264912Y192263D01*
X264892Y192228D01*
X264867Y192197D01*
X264816Y192089D01*
X264758Y191985D01*
X264748Y191945D01*
X264731Y191909D01*
X264709Y191792D01*
X264679Y191677D01*
X264675Y191617D01*
X264671Y191597D01*
X264673Y191576D01*
X264669Y191516D01*
X264669Y189342D01*
X263032Y187705D01*
X260716Y187705D01*
G37*
%LPD*%
%LPC*%
G36*
X209818Y269509D02*
X209818Y269509D01*
X208041Y271286D01*
X208041Y273798D01*
X209818Y275575D01*
X212330Y275575D01*
X213225Y274680D01*
X213319Y274607D01*
X213408Y274529D01*
X213444Y274510D01*
X213476Y274485D01*
X213585Y274438D01*
X213691Y274384D01*
X213730Y274375D01*
X213768Y274359D01*
X213885Y274340D01*
X214001Y274314D01*
X214042Y274316D01*
X214082Y274309D01*
X214200Y274320D01*
X214319Y274324D01*
X214358Y274335D01*
X214398Y274339D01*
X214510Y274379D01*
X214625Y274412D01*
X214660Y274433D01*
X214698Y274447D01*
X214796Y274514D01*
X214899Y274574D01*
X214944Y274614D01*
X214961Y274625D01*
X214974Y274641D01*
X215020Y274680D01*
X216930Y276591D01*
X219442Y276591D01*
X221219Y274814D01*
X221219Y272302D01*
X219442Y270525D01*
X216930Y270525D01*
X216036Y271420D01*
X215942Y271492D01*
X215852Y271571D01*
X215816Y271590D01*
X215784Y271614D01*
X215675Y271662D01*
X215569Y271716D01*
X215530Y271725D01*
X215492Y271741D01*
X215375Y271760D01*
X215259Y271786D01*
X215218Y271784D01*
X215178Y271791D01*
X215060Y271780D01*
X214941Y271776D01*
X214902Y271765D01*
X214862Y271761D01*
X214749Y271721D01*
X214635Y271688D01*
X214601Y271667D01*
X214562Y271653D01*
X214464Y271586D01*
X214361Y271526D01*
X214316Y271486D01*
X214299Y271475D01*
X214286Y271459D01*
X214241Y271420D01*
X212330Y269509D01*
X209818Y269509D01*
G37*
%LPD*%
%LPC*%
G36*
X270270Y427751D02*
X270270Y427751D01*
X268493Y429528D01*
X268493Y432040D01*
X269404Y432951D01*
X269488Y433060D01*
X269577Y433167D01*
X269586Y433186D01*
X269599Y433202D01*
X269654Y433329D01*
X269713Y433455D01*
X269717Y433475D01*
X269725Y433494D01*
X269747Y433632D01*
X269773Y433768D01*
X269772Y433788D01*
X269775Y433808D01*
X269762Y433947D01*
X269753Y434085D01*
X269747Y434104D01*
X269745Y434124D01*
X269698Y434256D01*
X269655Y434387D01*
X269644Y434405D01*
X269637Y434424D01*
X269559Y434539D01*
X269485Y434656D01*
X269470Y434670D01*
X269459Y434687D01*
X269354Y434779D01*
X269253Y434874D01*
X269236Y434884D01*
X269220Y434897D01*
X269096Y434961D01*
X268975Y435028D01*
X268955Y435033D01*
X268937Y435042D01*
X268801Y435072D01*
X268667Y435107D01*
X268639Y435109D01*
X268627Y435112D01*
X268606Y435111D01*
X268506Y435117D01*
X266968Y435117D01*
X265191Y436894D01*
X265191Y439406D01*
X266968Y441183D01*
X269480Y441183D01*
X271257Y439406D01*
X271257Y436894D01*
X270346Y435983D01*
X270262Y435874D01*
X270173Y435767D01*
X270164Y435748D01*
X270151Y435732D01*
X270096Y435605D01*
X270037Y435479D01*
X270033Y435459D01*
X270025Y435440D01*
X270003Y435302D01*
X269977Y435166D01*
X269978Y435146D01*
X269975Y435126D01*
X269988Y434987D01*
X269997Y434849D01*
X270003Y434830D01*
X270005Y434810D01*
X270052Y434678D01*
X270095Y434547D01*
X270106Y434529D01*
X270113Y434510D01*
X270191Y434395D01*
X270265Y434278D01*
X270280Y434264D01*
X270291Y434247D01*
X270396Y434155D01*
X270497Y434060D01*
X270514Y434050D01*
X270530Y434037D01*
X270654Y433973D01*
X270775Y433906D01*
X270795Y433901D01*
X270813Y433892D01*
X270949Y433862D01*
X271083Y433827D01*
X271111Y433825D01*
X271123Y433822D01*
X271144Y433823D01*
X271244Y433817D01*
X272782Y433817D01*
X274559Y432040D01*
X274559Y429528D01*
X272782Y427751D01*
X270270Y427751D01*
G37*
%LPD*%
%LPC*%
G36*
X217536Y44957D02*
X217536Y44957D01*
X215899Y46594D01*
X215899Y48910D01*
X217576Y50586D01*
X217580Y50587D01*
X217709Y50638D01*
X217840Y50685D01*
X217857Y50696D01*
X217876Y50704D01*
X217988Y50785D01*
X218103Y50863D01*
X218117Y50879D01*
X218133Y50890D01*
X218222Y50998D01*
X218314Y51102D01*
X218323Y51120D01*
X218336Y51135D01*
X218395Y51261D01*
X218459Y51385D01*
X218463Y51405D01*
X218472Y51423D01*
X218498Y51560D01*
X218528Y51695D01*
X218528Y51716D01*
X218531Y51735D01*
X218523Y51874D01*
X218519Y52013D01*
X218513Y52033D01*
X218512Y52053D01*
X218469Y52185D01*
X218430Y52319D01*
X218420Y52336D01*
X218414Y52355D01*
X218339Y52473D01*
X218269Y52593D01*
X218250Y52614D01*
X218243Y52624D01*
X218228Y52638D01*
X218162Y52713D01*
X217677Y53198D01*
X217677Y55514D01*
X219314Y57151D01*
X221630Y57151D01*
X223267Y55514D01*
X223267Y53753D01*
X223284Y53615D01*
X223297Y53477D01*
X223304Y53458D01*
X223307Y53438D01*
X223358Y53309D01*
X223405Y53178D01*
X223416Y53161D01*
X223424Y53142D01*
X223505Y53030D01*
X223578Y52922D01*
X223462Y52915D01*
X223323Y52911D01*
X223303Y52905D01*
X223283Y52904D01*
X223151Y52861D01*
X223017Y52822D01*
X223000Y52812D01*
X222981Y52806D01*
X222863Y52731D01*
X222743Y52661D01*
X222722Y52642D01*
X222712Y52635D01*
X222698Y52620D01*
X222623Y52554D01*
X221590Y51522D01*
X221586Y51521D01*
X221457Y51470D01*
X221326Y51423D01*
X221309Y51412D01*
X221290Y51404D01*
X221178Y51323D01*
X221063Y51245D01*
X221049Y51229D01*
X221033Y51218D01*
X220944Y51110D01*
X220852Y51006D01*
X220843Y50988D01*
X220830Y50973D01*
X220771Y50847D01*
X220707Y50723D01*
X220703Y50703D01*
X220694Y50685D01*
X220668Y50548D01*
X220638Y50413D01*
X220638Y50392D01*
X220635Y50373D01*
X220643Y50234D01*
X220647Y50095D01*
X220653Y50075D01*
X220654Y50055D01*
X220697Y49923D01*
X220736Y49789D01*
X220746Y49772D01*
X220752Y49753D01*
X220827Y49635D01*
X220897Y49515D01*
X220916Y49494D01*
X220923Y49484D01*
X220938Y49470D01*
X221004Y49395D01*
X221489Y48910D01*
X221489Y46594D01*
X219852Y44957D01*
X217536Y44957D01*
G37*
%LPD*%
%LPC*%
G36*
X176896Y44957D02*
X176896Y44957D01*
X175259Y46594D01*
X175259Y48910D01*
X176506Y50157D01*
X176579Y50251D01*
X176658Y50340D01*
X176676Y50376D01*
X176701Y50408D01*
X176748Y50517D01*
X176803Y50623D01*
X176811Y50662D01*
X176827Y50700D01*
X176846Y50817D01*
X176872Y50933D01*
X176871Y50974D01*
X176877Y51014D01*
X176866Y51132D01*
X176863Y51251D01*
X176851Y51290D01*
X176847Y51330D01*
X176807Y51442D01*
X176774Y51557D01*
X176754Y51592D01*
X176740Y51630D01*
X176673Y51728D01*
X176613Y51831D01*
X176573Y51876D01*
X176561Y51893D01*
X176546Y51906D01*
X176506Y51952D01*
X175259Y53198D01*
X175259Y55514D01*
X176896Y57151D01*
X179212Y57151D01*
X180849Y55514D01*
X180849Y53198D01*
X179602Y51952D01*
X179529Y51857D01*
X179450Y51768D01*
X179432Y51732D01*
X179407Y51700D01*
X179360Y51591D01*
X179305Y51485D01*
X179297Y51446D01*
X179281Y51408D01*
X179262Y51291D01*
X179236Y51175D01*
X179237Y51134D01*
X179231Y51094D01*
X179242Y50976D01*
X179245Y50857D01*
X179257Y50818D01*
X179261Y50778D01*
X179301Y50665D01*
X179334Y50551D01*
X179354Y50517D01*
X179368Y50478D01*
X179435Y50380D01*
X179495Y50277D01*
X179535Y50232D01*
X179547Y50215D01*
X179562Y50202D01*
X179602Y50157D01*
X180849Y48910D01*
X180849Y46594D01*
X179212Y44957D01*
X176896Y44957D01*
G37*
%LPD*%
%LPC*%
G36*
X235062Y250443D02*
X235062Y250443D01*
X233942Y251563D01*
X233848Y251636D01*
X233759Y251715D01*
X233723Y251733D01*
X233691Y251758D01*
X233582Y251806D01*
X233476Y251860D01*
X233436Y251868D01*
X233399Y251884D01*
X233281Y251903D01*
X233166Y251929D01*
X233125Y251928D01*
X233085Y251934D01*
X232966Y251923D01*
X232848Y251919D01*
X232809Y251908D01*
X232769Y251904D01*
X232656Y251864D01*
X232542Y251831D01*
X232507Y251811D01*
X232469Y251797D01*
X232371Y251730D01*
X232342Y251713D01*
X229982Y251713D01*
X228345Y253350D01*
X228345Y255666D01*
X229982Y257303D01*
X232298Y257303D01*
X233417Y256183D01*
X233512Y256110D01*
X233601Y256031D01*
X233637Y256013D01*
X233669Y255988D01*
X233778Y255941D01*
X233884Y255886D01*
X233923Y255878D01*
X233961Y255862D01*
X234078Y255843D01*
X234194Y255817D01*
X234235Y255818D01*
X234275Y255812D01*
X234393Y255823D01*
X234512Y255826D01*
X234551Y255838D01*
X234591Y255842D01*
X234704Y255882D01*
X234818Y255915D01*
X234852Y255935D01*
X234891Y255949D01*
X234989Y256016D01*
X235018Y256033D01*
X237378Y256033D01*
X239015Y254396D01*
X239015Y252080D01*
X237378Y250443D01*
X235062Y250443D01*
G37*
%LPD*%
%LPC*%
G36*
X222108Y219201D02*
X222108Y219201D01*
X220471Y220838D01*
X220471Y223154D01*
X220829Y223512D01*
X220902Y223606D01*
X220981Y223695D01*
X220999Y223731D01*
X221024Y223763D01*
X221071Y223872D01*
X221126Y223978D01*
X221134Y224018D01*
X221150Y224055D01*
X221169Y224172D01*
X221195Y224288D01*
X221194Y224329D01*
X221200Y224369D01*
X221189Y224488D01*
X221185Y224606D01*
X221174Y224645D01*
X221170Y224685D01*
X221130Y224798D01*
X221097Y224912D01*
X221077Y224947D01*
X221063Y224985D01*
X220996Y225083D01*
X220936Y225186D01*
X220896Y225231D01*
X220884Y225248D01*
X220869Y225261D01*
X220829Y225307D01*
X220725Y225410D01*
X220725Y227726D01*
X222362Y229363D01*
X224678Y229363D01*
X225163Y228878D01*
X225272Y228793D01*
X225379Y228704D01*
X225398Y228695D01*
X225414Y228683D01*
X225542Y228628D01*
X225667Y228568D01*
X225687Y228565D01*
X225706Y228557D01*
X225844Y228535D01*
X225980Y228509D01*
X226000Y228510D01*
X226020Y228507D01*
X226159Y228520D01*
X226297Y228528D01*
X226316Y228535D01*
X226336Y228536D01*
X226467Y228584D01*
X226509Y228597D01*
X226472Y228523D01*
X226404Y228401D01*
X226399Y228382D01*
X226390Y228364D01*
X226360Y228228D01*
X226325Y228093D01*
X226323Y228065D01*
X226320Y228053D01*
X226321Y228033D01*
X226315Y227933D01*
X226315Y225410D01*
X225957Y225053D01*
X225884Y224959D01*
X225805Y224869D01*
X225787Y224833D01*
X225762Y224801D01*
X225715Y224692D01*
X225660Y224586D01*
X225652Y224547D01*
X225636Y224509D01*
X225617Y224391D01*
X225591Y224276D01*
X225592Y224235D01*
X225586Y224195D01*
X225597Y224077D01*
X225600Y223958D01*
X225612Y223919D01*
X225616Y223879D01*
X225656Y223767D01*
X225689Y223652D01*
X225709Y223617D01*
X225723Y223579D01*
X225790Y223481D01*
X225850Y223378D01*
X225890Y223333D01*
X225902Y223316D01*
X225917Y223303D01*
X225957Y223258D01*
X226061Y223154D01*
X226061Y220838D01*
X224424Y219201D01*
X222108Y219201D01*
G37*
%LPD*%
%LPC*%
G36*
X281290Y218439D02*
X281290Y218439D01*
X280933Y218797D01*
X280839Y218870D01*
X280749Y218949D01*
X280713Y218967D01*
X280681Y218992D01*
X280572Y219039D01*
X280466Y219094D01*
X280427Y219102D01*
X280389Y219118D01*
X280272Y219137D01*
X280156Y219163D01*
X280115Y219162D01*
X280075Y219168D01*
X279957Y219157D01*
X279838Y219154D01*
X279799Y219142D01*
X279759Y219138D01*
X279647Y219098D01*
X279532Y219065D01*
X279497Y219045D01*
X279459Y219031D01*
X279361Y218964D01*
X279258Y218904D01*
X279213Y218864D01*
X279196Y218852D01*
X279183Y218837D01*
X279138Y218797D01*
X279034Y218693D01*
X276718Y218693D01*
X275081Y220330D01*
X275081Y222646D01*
X276718Y224283D01*
X279034Y224283D01*
X279392Y223925D01*
X279486Y223852D01*
X279575Y223773D01*
X279611Y223755D01*
X279643Y223730D01*
X279752Y223683D01*
X279858Y223628D01*
X279898Y223620D01*
X279935Y223604D01*
X280052Y223585D01*
X280168Y223559D01*
X280209Y223560D01*
X280249Y223554D01*
X280368Y223565D01*
X280486Y223569D01*
X280525Y223580D01*
X280565Y223584D01*
X280678Y223624D01*
X280792Y223657D01*
X280827Y223677D01*
X280865Y223691D01*
X280963Y223758D01*
X281066Y223818D01*
X281111Y223858D01*
X281128Y223870D01*
X281141Y223885D01*
X281187Y223925D01*
X281290Y224029D01*
X283606Y224029D01*
X285243Y222392D01*
X285243Y220076D01*
X283606Y218439D01*
X281290Y218439D01*
G37*
%LPD*%
%LPC*%
G36*
X74944Y416067D02*
X74944Y416067D01*
X73167Y417844D01*
X73167Y420356D01*
X74944Y422133D01*
X77456Y422133D01*
X79233Y420356D01*
X79233Y417844D01*
X77456Y416067D01*
X74944Y416067D01*
G37*
%LPD*%
%LPC*%
G36*
X82746Y384029D02*
X82746Y384029D01*
X80969Y385806D01*
X80969Y388318D01*
X82746Y390095D01*
X85258Y390095D01*
X87035Y388318D01*
X87035Y385806D01*
X85258Y384029D01*
X82746Y384029D01*
G37*
%LPD*%
%LPC*%
G36*
X55894Y352567D02*
X55894Y352567D01*
X54117Y354344D01*
X54117Y356856D01*
X55894Y358633D01*
X58406Y358633D01*
X60183Y356856D01*
X60183Y354344D01*
X58406Y352567D01*
X55894Y352567D01*
G37*
%LPD*%
%LPC*%
G36*
X53354Y333517D02*
X53354Y333517D01*
X51577Y335294D01*
X51577Y337806D01*
X53354Y339583D01*
X55866Y339583D01*
X57643Y337806D01*
X57643Y335294D01*
X55866Y333517D01*
X53354Y333517D01*
G37*
%LPD*%
%LPC*%
G36*
X100344Y329961D02*
X100344Y329961D01*
X98567Y331738D01*
X98567Y334250D01*
X100344Y336027D01*
X102856Y336027D01*
X104633Y334250D01*
X104633Y331738D01*
X102856Y329961D01*
X100344Y329961D01*
G37*
%LPD*%
%LPC*%
G36*
X73928Y326659D02*
X73928Y326659D01*
X72151Y328436D01*
X72151Y330948D01*
X73928Y332725D01*
X76440Y332725D01*
X78217Y330948D01*
X78217Y328436D01*
X76440Y326659D01*
X73928Y326659D01*
G37*
%LPD*%
%LPC*%
G36*
X68102Y79517D02*
X68102Y79517D01*
X66325Y81294D01*
X66325Y83806D01*
X68102Y85583D01*
X70614Y85583D01*
X72391Y83806D01*
X72391Y81294D01*
X70614Y79517D01*
X68102Y79517D01*
G37*
%LPD*%
%LPC*%
G36*
X43194Y301767D02*
X43194Y301767D01*
X41417Y303544D01*
X41417Y306056D01*
X43194Y307833D01*
X45706Y307833D01*
X47483Y306056D01*
X47483Y303544D01*
X45706Y301767D01*
X43194Y301767D01*
G37*
%LPD*%
%LPC*%
G36*
X49544Y104917D02*
X49544Y104917D01*
X47767Y106694D01*
X47767Y109206D01*
X49544Y110983D01*
X52056Y110983D01*
X53833Y109206D01*
X53833Y106694D01*
X52056Y104917D01*
X49544Y104917D01*
G37*
%LPD*%
%LPC*%
G36*
X119648Y278653D02*
X119648Y278653D01*
X117871Y280430D01*
X117871Y282942D01*
X119648Y284719D01*
X122160Y284719D01*
X123937Y282942D01*
X123937Y280430D01*
X122160Y278653D01*
X119648Y278653D01*
G37*
%LPD*%
%LPC*%
G36*
X86120Y121427D02*
X86120Y121427D01*
X84343Y123204D01*
X84343Y125716D01*
X86120Y127493D01*
X88632Y127493D01*
X90409Y125716D01*
X90409Y123204D01*
X88632Y121427D01*
X86120Y121427D01*
G37*
%LPD*%
%LPC*%
G36*
X93994Y354345D02*
X93994Y354345D01*
X92217Y356122D01*
X92217Y358634D01*
X93994Y360411D01*
X96506Y360411D01*
X98283Y358634D01*
X98283Y356122D01*
X96506Y354345D01*
X93994Y354345D01*
G37*
%LPD*%
%LPC*%
G36*
X106694Y143017D02*
X106694Y143017D01*
X104917Y144794D01*
X104917Y147306D01*
X106694Y149083D01*
X109206Y149083D01*
X110983Y147306D01*
X110983Y144794D01*
X109206Y143017D01*
X106694Y143017D01*
G37*
%LPD*%
%LPC*%
G36*
X354344Y149367D02*
X354344Y149367D01*
X352567Y151144D01*
X352567Y153656D01*
X354344Y155433D01*
X356856Y155433D01*
X358633Y153656D01*
X358633Y151144D01*
X356856Y149367D01*
X354344Y149367D01*
G37*
%LPD*%
%LPC*%
G36*
X124982Y354345D02*
X124982Y354345D01*
X123205Y356122D01*
X123205Y358634D01*
X124982Y360411D01*
X127494Y360411D01*
X129271Y358634D01*
X129271Y356122D01*
X127494Y354345D01*
X124982Y354345D01*
G37*
%LPD*%
%LPC*%
G36*
X113044Y164353D02*
X113044Y164353D01*
X111267Y166130D01*
X111267Y168642D01*
X113044Y170419D01*
X115556Y170419D01*
X117333Y168642D01*
X117333Y166130D01*
X115556Y164353D01*
X113044Y164353D01*
G37*
%LPD*%
%LPC*%
G36*
X79262Y345709D02*
X79262Y345709D01*
X77485Y347486D01*
X77485Y349998D01*
X79262Y351775D01*
X81774Y351775D01*
X83551Y349998D01*
X83551Y347486D01*
X81774Y345709D01*
X79262Y345709D01*
G37*
%LPD*%
%LPC*%
G36*
X65546Y362219D02*
X65546Y362219D01*
X63769Y363996D01*
X63769Y366508D01*
X65546Y368285D01*
X68058Y368285D01*
X69835Y366508D01*
X69835Y363996D01*
X68058Y362219D01*
X65546Y362219D01*
G37*
%LPD*%
%LPC*%
G36*
X43194Y365267D02*
X43194Y365267D01*
X41417Y367044D01*
X41417Y369556D01*
X43194Y371333D01*
X45706Y371333D01*
X47483Y369556D01*
X47483Y367044D01*
X45706Y365267D01*
X43194Y365267D01*
G37*
%LPD*%
%LPC*%
G36*
X138444Y371617D02*
X138444Y371617D01*
X136667Y373394D01*
X136667Y375906D01*
X138444Y377683D01*
X140956Y377683D01*
X142733Y375906D01*
X142733Y373394D01*
X140956Y371617D01*
X138444Y371617D01*
G37*
%LPD*%
%LPC*%
G36*
X96026Y374919D02*
X96026Y374919D01*
X94249Y376696D01*
X94249Y379208D01*
X96026Y380985D01*
X98538Y380985D01*
X100315Y379208D01*
X100315Y376696D01*
X98538Y374919D01*
X96026Y374919D01*
G37*
%LPD*%
%LPC*%
G36*
X68086Y34813D02*
X68086Y34813D01*
X66309Y36590D01*
X66309Y39102D01*
X68086Y40879D01*
X70598Y40879D01*
X72375Y39102D01*
X72375Y36590D01*
X70598Y34813D01*
X68086Y34813D01*
G37*
%LPD*%
%LPC*%
G36*
X30494Y204231D02*
X30494Y204231D01*
X28717Y206008D01*
X28717Y208520D01*
X30494Y210297D01*
X33006Y210297D01*
X34783Y208520D01*
X34783Y206008D01*
X33006Y204231D01*
X30494Y204231D01*
G37*
%LPD*%
%LPC*%
G36*
X95010Y383809D02*
X95010Y383809D01*
X93233Y385586D01*
X93233Y388098D01*
X95010Y389875D01*
X97522Y389875D01*
X99299Y388098D01*
X99299Y385586D01*
X97522Y383809D01*
X95010Y383809D01*
G37*
%LPD*%
%LPC*%
G36*
X113044Y445531D02*
X113044Y445531D01*
X111267Y447308D01*
X111267Y449820D01*
X113044Y451597D01*
X115556Y451597D01*
X117333Y449820D01*
X117333Y447308D01*
X115556Y445531D01*
X113044Y445531D01*
G37*
%LPD*%
%LPC*%
G36*
X93994Y206517D02*
X93994Y206517D01*
X92217Y208294D01*
X92217Y210806D01*
X93994Y212583D01*
X96506Y212583D01*
X98283Y210806D01*
X98283Y208294D01*
X96506Y206517D01*
X93994Y206517D01*
G37*
%LPD*%
%LPC*%
G36*
X42178Y383047D02*
X42178Y383047D01*
X40401Y384824D01*
X40401Y387336D01*
X42178Y389113D01*
X44690Y389113D01*
X46467Y387336D01*
X46467Y384824D01*
X44690Y383047D01*
X42178Y383047D01*
G37*
%LPD*%
%LPC*%
G36*
X226426Y48259D02*
X226426Y48259D01*
X224789Y49896D01*
X224789Y51657D01*
X224772Y51795D01*
X224759Y51933D01*
X224752Y51952D01*
X224749Y51972D01*
X224698Y52101D01*
X224651Y52232D01*
X224640Y52249D01*
X224632Y52268D01*
X224551Y52380D01*
X224478Y52488D01*
X224594Y52495D01*
X224733Y52499D01*
X224753Y52505D01*
X224773Y52506D01*
X224905Y52549D01*
X225039Y52588D01*
X225056Y52598D01*
X225075Y52604D01*
X225193Y52679D01*
X225313Y52749D01*
X225334Y52768D01*
X225344Y52775D01*
X225358Y52790D01*
X225433Y52856D01*
X226426Y53849D01*
X228742Y53849D01*
X230379Y52212D01*
X230379Y49896D01*
X228742Y48259D01*
X226426Y48259D01*
G37*
%LPD*%
%LPC*%
G36*
X180452Y68833D02*
X180452Y68833D01*
X178815Y70470D01*
X178815Y72786D01*
X180452Y74423D01*
X182788Y74423D01*
X182797Y74407D01*
X182816Y74386D01*
X182823Y74376D01*
X182838Y74362D01*
X182904Y74287D01*
X184405Y72786D01*
X184405Y70470D01*
X182768Y68833D01*
X180452Y68833D01*
G37*
%LPD*%
%LPC*%
G36*
X182484Y211835D02*
X182484Y211835D01*
X180847Y213472D01*
X180847Y215788D01*
X182484Y217425D01*
X184800Y217425D01*
X186437Y215788D01*
X186437Y213472D01*
X184800Y211835D01*
X182484Y211835D01*
G37*
%LPD*%
%LPC*%
G36*
X172578Y211581D02*
X172578Y211581D01*
X170941Y213218D01*
X170941Y215534D01*
X172578Y217171D01*
X174894Y217171D01*
X176531Y215534D01*
X176531Y213218D01*
X174894Y211581D01*
X172578Y211581D01*
G37*
%LPD*%
%LPC*%
G36*
X262494Y228091D02*
X262494Y228091D01*
X260857Y229728D01*
X260857Y232044D01*
X262494Y233681D01*
X264810Y233681D01*
X266447Y232044D01*
X266447Y229728D01*
X264810Y228091D01*
X262494Y228091D01*
G37*
%LPD*%
%LPC*%
G36*
X122032Y231647D02*
X122032Y231647D01*
X120395Y233284D01*
X120395Y235600D01*
X122032Y237237D01*
X124348Y237237D01*
X125985Y235600D01*
X125985Y233284D01*
X124348Y231647D01*
X122032Y231647D01*
G37*
%LPD*%
%LPC*%
G36*
X175880Y202945D02*
X175880Y202945D01*
X174243Y204582D01*
X174243Y206898D01*
X175880Y208535D01*
X178196Y208535D01*
X179833Y206898D01*
X179833Y204582D01*
X178196Y202945D01*
X175880Y202945D01*
G37*
%LPD*%
%LPC*%
G36*
X131684Y237489D02*
X131684Y237489D01*
X130047Y239126D01*
X130047Y241442D01*
X131684Y243079D01*
X134000Y243079D01*
X135637Y241442D01*
X135637Y239126D01*
X134000Y237489D01*
X131684Y237489D01*
G37*
%LPD*%
%LPC*%
G36*
X285354Y199389D02*
X285354Y199389D01*
X283717Y201026D01*
X283717Y203342D01*
X285354Y204979D01*
X287670Y204979D01*
X289307Y203342D01*
X289307Y201026D01*
X287670Y199389D01*
X285354Y199389D01*
G37*
%LPD*%
%LPC*%
G36*
X195438Y241045D02*
X195438Y241045D01*
X193801Y242682D01*
X193801Y244998D01*
X195438Y246635D01*
X197754Y246635D01*
X199391Y244998D01*
X199391Y242682D01*
X197754Y241045D01*
X195438Y241045D01*
G37*
%LPD*%
%LPC*%
G36*
X223378Y241045D02*
X223378Y241045D01*
X221741Y242682D01*
X221741Y244998D01*
X223378Y246635D01*
X225694Y246635D01*
X227331Y244998D01*
X227331Y242682D01*
X225694Y241045D01*
X223378Y241045D01*
G37*
%LPD*%
%LPC*%
G36*
X233284Y241807D02*
X233284Y241807D01*
X231647Y243444D01*
X231647Y245760D01*
X233284Y247397D01*
X235600Y247397D01*
X237237Y245760D01*
X237237Y243444D01*
X235600Y241807D01*
X233284Y241807D01*
G37*
%LPD*%
%LPC*%
G36*
X180960Y186435D02*
X180960Y186435D01*
X179323Y188072D01*
X179323Y190388D01*
X180960Y192025D01*
X183276Y192025D01*
X184913Y190388D01*
X184913Y188072D01*
X183276Y186435D01*
X180960Y186435D01*
G37*
%LPD*%
%LPC*%
G36*
X273416Y185165D02*
X273416Y185165D01*
X271779Y186802D01*
X271779Y189118D01*
X273416Y190755D01*
X275732Y190755D01*
X277369Y189118D01*
X277369Y186802D01*
X275732Y185165D01*
X273416Y185165D01*
G37*
%LPD*%
%LPC*%
G36*
X280274Y179323D02*
X280274Y179323D01*
X278637Y180960D01*
X278637Y183276D01*
X280274Y184913D01*
X282590Y184913D01*
X284227Y183276D01*
X284227Y180960D01*
X282590Y179323D01*
X280274Y179323D01*
G37*
%LPD*%
%LPC*%
G36*
X158100Y179323D02*
X158100Y179323D01*
X156463Y180960D01*
X156463Y183276D01*
X158100Y184913D01*
X160416Y184913D01*
X162053Y183276D01*
X162053Y180960D01*
X160416Y179323D01*
X158100Y179323D01*
G37*
%LPD*%
%LPC*%
G36*
X182484Y176021D02*
X182484Y176021D01*
X180847Y177658D01*
X180847Y179974D01*
X182484Y181611D01*
X184800Y181611D01*
X186437Y179974D01*
X186437Y177658D01*
X184800Y176021D01*
X182484Y176021D01*
G37*
%LPD*%
%LPC*%
G36*
X135748Y171195D02*
X135748Y171195D01*
X134111Y172832D01*
X134111Y175148D01*
X135748Y176785D01*
X138064Y176785D01*
X139701Y175148D01*
X139701Y172832D01*
X138064Y171195D01*
X135748Y171195D01*
G37*
%LPD*%
%LPC*%
G36*
X180706Y260603D02*
X180706Y260603D01*
X179069Y262240D01*
X179069Y264556D01*
X180706Y266193D01*
X183022Y266193D01*
X184659Y264556D01*
X184659Y262240D01*
X183022Y260603D01*
X180706Y260603D01*
G37*
%LPD*%
%LPC*%
G36*
X250556Y264159D02*
X250556Y264159D01*
X248919Y265796D01*
X248919Y268112D01*
X250556Y269749D01*
X252872Y269749D01*
X254509Y268112D01*
X254509Y265796D01*
X252872Y264159D01*
X250556Y264159D01*
G37*
%LPD*%
%LPC*%
G36*
X172578Y268477D02*
X172578Y268477D01*
X170941Y270114D01*
X170941Y272430D01*
X172578Y274067D01*
X174894Y274067D01*
X176531Y272430D01*
X176531Y270114D01*
X174894Y268477D01*
X172578Y268477D01*
G37*
%LPD*%
%LPC*%
G36*
X238110Y147827D02*
X238110Y147827D01*
X236473Y149464D01*
X236473Y151780D01*
X238110Y153417D01*
X240426Y153417D01*
X242063Y151780D01*
X242063Y149464D01*
X240426Y147827D01*
X238110Y147827D01*
G37*
%LPD*%
%LPC*%
G36*
X84948Y270509D02*
X84948Y270509D01*
X83311Y272146D01*
X83311Y274462D01*
X84948Y276099D01*
X87264Y276099D01*
X88901Y274462D01*
X88901Y272146D01*
X87264Y270509D01*
X84948Y270509D01*
G37*
%LPD*%
%LPC*%
G36*
X227950Y131063D02*
X227950Y131063D01*
X226313Y132700D01*
X226313Y135016D01*
X227950Y136653D01*
X230266Y136653D01*
X231903Y135016D01*
X231903Y132700D01*
X230266Y131063D01*
X227950Y131063D01*
G37*
%LPD*%
%LPC*%
G36*
X148956Y122173D02*
X148956Y122173D01*
X147319Y123810D01*
X147319Y126126D01*
X148956Y127763D01*
X151272Y127763D01*
X152909Y126126D01*
X152909Y123810D01*
X151272Y122173D01*
X148956Y122173D01*
G37*
%LPD*%
%LPC*%
G36*
X247762Y272287D02*
X247762Y272287D01*
X246125Y273924D01*
X246125Y276240D01*
X247762Y277877D01*
X250078Y277877D01*
X251715Y276240D01*
X251715Y273924D01*
X250078Y272287D01*
X247762Y272287D01*
G37*
%LPD*%
%LPC*%
G36*
X119238Y118109D02*
X119238Y118109D01*
X117601Y119746D01*
X117601Y122062D01*
X119238Y123699D01*
X121554Y123699D01*
X123191Y122062D01*
X123191Y119746D01*
X121554Y118109D01*
X119238Y118109D01*
G37*
%LPD*%
%LPC*%
G36*
X144892Y291337D02*
X144892Y291337D01*
X143255Y292974D01*
X143255Y295290D01*
X144892Y296927D01*
X147208Y296927D01*
X148845Y295290D01*
X148845Y292974D01*
X147208Y291337D01*
X144892Y291337D01*
G37*
%LPD*%
%LPC*%
G36*
X217282Y326135D02*
X217282Y326135D01*
X215645Y327772D01*
X215645Y330088D01*
X217282Y331725D01*
X219598Y331725D01*
X221235Y330088D01*
X221235Y327772D01*
X219598Y326135D01*
X217282Y326135D01*
G37*
%LPD*%
%LPC*%
G36*
X232014Y354329D02*
X232014Y354329D01*
X230377Y355966D01*
X230377Y358282D01*
X232014Y359919D01*
X234330Y359919D01*
X235967Y358282D01*
X235967Y355966D01*
X234330Y354329D01*
X232014Y354329D01*
G37*
%LPD*%
%LPC*%
G36*
X157084Y73913D02*
X157084Y73913D01*
X155447Y75550D01*
X155447Y77866D01*
X157084Y79503D01*
X159400Y79503D01*
X161037Y77866D01*
X161037Y75550D01*
X159400Y73913D01*
X157084Y73913D01*
G37*
%LPD*%
%LPC*%
G36*
X196200Y73405D02*
X196200Y73405D01*
X194563Y75042D01*
X194563Y77358D01*
X196200Y78995D01*
X198516Y78995D01*
X200153Y77358D01*
X200153Y75042D01*
X198516Y73405D01*
X196200Y73405D01*
G37*
%LPD*%
%LPC*%
G36*
X225410Y360171D02*
X225410Y360171D01*
X223773Y361808D01*
X223773Y364124D01*
X225410Y365761D01*
X227726Y365761D01*
X229363Y364124D01*
X229363Y361808D01*
X227726Y360171D01*
X225410Y360171D01*
G37*
%LPD*%
%LPC*%
G36*
X221092Y369315D02*
X221092Y369315D01*
X219455Y370952D01*
X219455Y373268D01*
X221092Y374905D01*
X223408Y374905D01*
X225045Y373268D01*
X225045Y370952D01*
X223408Y369315D01*
X221092Y369315D01*
G37*
%LPD*%
%LPC*%
G36*
X238618Y371347D02*
X238618Y371347D01*
X236981Y372984D01*
X236981Y375300D01*
X238618Y376937D01*
X240934Y376937D01*
X242571Y375300D01*
X242571Y372984D01*
X240934Y371347D01*
X238618Y371347D01*
G37*
%LPD*%
%LPC*%
G36*
X244460Y378205D02*
X244460Y378205D01*
X242823Y379842D01*
X242823Y382158D01*
X244460Y383795D01*
X246776Y383795D01*
X248413Y382158D01*
X248413Y379842D01*
X246776Y378205D01*
X244460Y378205D01*
G37*
%LPD*%
%LPC*%
G36*
X171054Y386841D02*
X171054Y386841D01*
X169417Y388478D01*
X169417Y390794D01*
X171054Y392431D01*
X173370Y392431D01*
X175007Y390794D01*
X175007Y388478D01*
X173370Y386841D01*
X171054Y386841D01*
G37*
%LPD*%
%LPC*%
G36*
X198994Y438149D02*
X198994Y438149D01*
X197357Y439786D01*
X197357Y442102D01*
X198994Y443739D01*
X201310Y443739D01*
X202947Y442102D01*
X202947Y439786D01*
X201310Y438149D01*
X198994Y438149D01*
G37*
%LPD*%
%LPC*%
G36*
X113904Y38861D02*
X113904Y38861D01*
X112267Y40498D01*
X112267Y42814D01*
X113904Y44451D01*
X116220Y44451D01*
X117857Y42814D01*
X117857Y40498D01*
X116220Y38861D01*
X113904Y38861D01*
G37*
%LPD*%
%LPC*%
G36*
X230490Y438149D02*
X230490Y438149D01*
X228853Y439786D01*
X228853Y442102D01*
X230490Y443739D01*
X232806Y443739D01*
X234443Y442102D01*
X234443Y439786D01*
X232806Y438149D01*
X230490Y438149D01*
G37*
%LPD*%
%LPC*%
G36*
X180452Y12699D02*
X180452Y12699D01*
X178815Y14336D01*
X178815Y16652D01*
X180452Y18289D01*
X182768Y18289D01*
X184405Y16652D01*
X184405Y14336D01*
X182768Y12699D01*
X180452Y12699D01*
G37*
%LPD*%
D10*
X85598Y316484D03*
X87122Y353060D03*
X162052Y432562D03*
X209788Y191639D03*
D11*
X19304Y77724D03*
X138938Y165100D03*
X114300Y86360D03*
X98552Y423164D03*
X158242Y265938D03*
X336550Y229616D03*
X336550Y199136D03*
X128778Y298450D03*
X123190Y224790D03*
D10*
X311150Y107950D03*
X311150Y69850D03*
X336550Y107950D03*
X285750Y107950D03*
X285750Y69850D03*
X285750Y38100D03*
X260350Y38100D03*
X234950Y38100D03*
X209550Y38100D03*
X177800Y38100D03*
X152400Y38100D03*
X95250Y38100D03*
X82550Y19050D03*
X120650Y19050D03*
X152400Y19050D03*
X209550Y19050D03*
X234950Y19050D03*
X260350Y19050D03*
X311150Y6350D03*
X368300Y69850D03*
X364744Y118110D03*
X336550Y139700D03*
X311150Y139700D03*
X285750Y139700D03*
X311150Y171450D03*
X336550Y171450D03*
X311150Y203200D03*
X311150Y234950D03*
X311150Y260350D03*
X311150Y285750D03*
X311150Y317500D03*
X311150Y349250D03*
X311150Y381000D03*
X285750Y381000D03*
X285750Y349250D03*
X285750Y317500D03*
X285750Y285750D03*
X285750Y260350D03*
X285750Y234950D03*
X336550Y285750D03*
X336550Y317500D03*
X336550Y349250D03*
X336550Y381000D03*
X368300Y381000D03*
X279400Y457200D03*
X196850Y457200D03*
X158750Y457200D03*
X120650Y457200D03*
X82550Y457200D03*
X158750Y425450D03*
X158750Y381000D03*
X158750Y349250D03*
X158750Y317500D03*
X127000Y317500D03*
X25400Y304800D03*
X12700Y304800D03*
X12700Y355600D03*
X285750Y412750D03*
X190500Y361950D03*
X190500Y336550D03*
X190500Y311150D03*
X165100Y254000D03*
X101600Y254000D03*
X101600Y234950D03*
X82550Y228600D03*
X69850Y228600D03*
X57150Y228600D03*
X38100Y234950D03*
X38100Y247650D03*
X38100Y260350D03*
X38100Y273050D03*
X19050Y260350D03*
X19050Y234950D03*
X69850Y209550D03*
X12700Y209550D03*
X19050Y133350D03*
X76200Y133350D03*
X64770Y75184D03*
X133350Y76200D03*
X133350Y57150D03*
X152400Y107950D03*
X139700Y120650D03*
X263144Y72644D03*
X221996Y113792D03*
X203200Y119888D03*
X184150Y131318D03*
X152400Y137668D03*
X154178Y160528D03*
X146050Y184150D03*
X221234Y183642D03*
X240284Y185166D03*
X216408Y220980D03*
X190500Y260350D03*
X242062Y418592D03*
X262382Y422656D03*
X176022Y416814D03*
X85344Y416306D03*
X173736Y166116D03*
X249428Y121158D03*
X342900Y247650D03*
X218186Y273558D03*
X211074Y272542D03*
X337312Y206756D03*
X205486Y203200D03*
D12*
X222000Y206772D02*
X226048Y210820D01*
X209058Y206772D02*
X205486Y203200D01*
X209058Y206772D02*
X222000Y206772D01*
X243332Y210820D02*
X244602Y212090D01*
X243332Y210820D02*
X226048Y210820D01*
X244602Y212090D02*
X331978Y212090D01*
X337312Y206756D01*
D11*
X18796Y93980D03*
D13*
X146812Y281940D02*
X212090Y347218D01*
X212090Y347980D01*
D11*
X212090Y347980D03*
X146812Y281940D03*
D10*
X69342Y37846D03*
D11*
X183642Y214630D03*
X174498Y76454D03*
D13*
X199898Y196342D02*
X199898Y217424D01*
X199898Y196342D02*
X211328Y184912D01*
X211328Y171704D01*
X177800Y138176D01*
X177800Y79756D01*
D11*
X199898Y217424D03*
X177800Y79756D03*
D13*
X58928Y168656D02*
X55372Y168656D01*
X58928Y168656D02*
X62992Y172720D01*
X83058Y172720D01*
X91694Y181356D01*
X117602Y181356D01*
X164338Y228092D01*
X212344Y228092D01*
X215392Y231140D01*
D11*
X55372Y168656D03*
X215392Y231140D03*
X218440Y328930D03*
D13*
X210312Y231394D02*
X164592Y231394D01*
X120650Y187452D01*
X95504Y187452D01*
D11*
X210312Y231394D03*
X95504Y187452D03*
X216154Y414528D03*
X226568Y362966D03*
X196596Y212598D03*
X181864Y263398D03*
X184912Y423418D03*
X173736Y214376D03*
X173736Y271272D03*
X179832Y423164D03*
X45974Y144780D03*
X248666Y178816D03*
X244602Y164846D03*
X261874Y170434D03*
X217424Y102362D03*
X248666Y183388D03*
X205994Y77470D03*
X223520Y178816D03*
X221488Y163576D03*
D10*
X84002Y387062D03*
D11*
X86106Y273304D03*
X218694Y178816D03*
X204470Y135890D03*
X123190Y234442D03*
D10*
X61722Y4826D03*
X65971Y10160D03*
X96266Y386842D03*
D11*
X132842Y240284D03*
X181610Y15494D03*
X181610Y71628D03*
X243586Y178816D03*
X239268Y150622D03*
D13*
X247904Y132080D02*
X221488Y105664D01*
D11*
X247904Y132080D03*
X221488Y105664D03*
X252730Y157480D03*
X207518Y107442D03*
X207518Y347472D03*
X203200Y414528D03*
X204978Y423672D03*
X230124Y231140D03*
X196596Y243840D03*
X200152Y440944D03*
X234442Y244602D03*
X239776Y374142D03*
X211074Y420370D03*
X224536Y243840D03*
X222250Y372110D03*
X220218Y418084D03*
X223266Y221996D03*
X177038Y205740D03*
X158242Y76708D03*
X196850Y189738D03*
X178054Y47752D03*
X196850Y194564D03*
X178054Y54356D03*
X182118Y189230D03*
X185420Y79248D03*
X228092Y165354D03*
X197358Y76200D03*
D13*
X232410Y85598D02*
X232410Y110998D01*
X232410Y85598D02*
X218440Y71628D01*
X218440Y70104D01*
X216662Y68326D01*
X210312Y68326D01*
X207010Y71628D01*
D11*
X232410Y110998D03*
X207010Y71628D03*
X244094Y206756D03*
X263652Y230886D03*
X266446Y217932D03*
X296672Y217932D03*
X249428Y207264D03*
X293116Y207264D03*
X282448Y221234D03*
X233172Y357124D03*
X243078Y191516D03*
X236220Y253238D03*
X277876Y221488D03*
X248920Y275082D03*
D10*
X97282Y377952D03*
X66802Y365252D03*
X54610Y336550D03*
X185633Y393700D03*
X361950Y393700D03*
D12*
X185633Y393700D01*
D10*
X95250Y209550D03*
D13*
X134366Y146812D02*
X83312Y95758D01*
D11*
X134366Y146812D03*
X83312Y95758D03*
D10*
X126492Y414274D03*
X114300Y448564D03*
X95250Y357378D03*
X161290Y400050D03*
X44450Y304800D03*
X76200Y419100D03*
X44450Y368300D03*
X158750Y406400D03*
D11*
X136906Y173990D03*
X172212Y389636D03*
D10*
X120904Y281686D03*
D11*
X146050Y294132D03*
D10*
X336550Y215900D03*
X355600Y152400D03*
X50800Y107950D03*
X31750Y207264D03*
X220218Y211074D03*
X271526Y430784D03*
X268224Y438150D03*
X101600Y332994D03*
X80518Y348742D03*
X75184Y329692D03*
X126238Y357378D03*
X139700Y374650D03*
D13*
X206248Y178816D02*
X208026Y178816D01*
X206248Y178816D02*
X182372Y154940D01*
X131318Y154940D01*
X128270Y151892D01*
X124460Y151892D01*
D11*
X208026Y178816D03*
X124460Y151892D03*
D10*
X69358Y82550D03*
D11*
X150114Y124968D03*
X115062Y41656D03*
X165608Y151638D03*
X201422Y178816D03*
X127254Y148082D03*
X204724Y182118D03*
X159258Y182118D03*
X140970Y148336D03*
X120396Y120904D03*
X266954Y195580D03*
X227584Y51054D03*
X274574Y187960D03*
X220472Y54356D03*
X235458Y190500D03*
X229108Y133858D03*
X271780Y152908D03*
X227584Y74930D03*
X247904Y220218D03*
X256032Y111506D03*
X248666Y224790D03*
X281432Y182118D03*
X261874Y190500D03*
X237998Y78232D03*
D13*
X248666Y188468D02*
X248666Y195580D01*
X248666Y188468D02*
X268478Y168656D01*
X268478Y151384D01*
X268732Y151130D01*
X268732Y117094D01*
X232410Y80772D01*
D11*
X248666Y195580D03*
X232410Y80772D03*
X261874Y195580D03*
X244348Y78740D03*
X249428Y202184D03*
X286512Y202184D03*
X224790Y160274D03*
X218694Y47752D03*
X196850Y178816D03*
X183642Y178816D03*
X209296Y164846D03*
X200914Y343154D03*
D10*
X87376Y124460D03*
X80595Y410702D03*
D14*
X124878Y410702D01*
X124973Y410607D01*
X206137Y410607D01*
X208026Y412496D02*
X208026Y415036D01*
D10*
X208026Y415036D03*
D14*
X208026Y412496D02*
X206137Y410607D01*
D10*
X114300Y167386D03*
D11*
X241300Y198120D03*
X251714Y266954D03*
X252984Y243840D03*
X231648Y440944D03*
X248666Y229870D03*
X256286Y248920D03*
X232664Y414528D03*
X223520Y226568D03*
X226568Y414528D03*
X247904Y243840D03*
X242062Y230632D03*
X245618Y381000D03*
X235204Y231394D03*
X231140Y254508D03*
X239014Y387604D03*
D13*
X230378Y178308D02*
X210820Y158750D01*
X210820Y84074D01*
X212598Y82296D01*
X212598Y75692D01*
X211074Y74168D01*
D11*
X230378Y178308D03*
X211074Y74168D03*
X235966Y124968D03*
X215138Y71628D03*
D13*
X238506Y176530D02*
X238506Y178816D01*
X238506Y176530D02*
X265430Y149606D01*
D11*
X238506Y178816D03*
X265430Y149606D03*
D10*
X57150Y355600D03*
D11*
X127254Y155702D03*
X185166Y417830D03*
D10*
X43434Y386080D03*
X107950Y146050D03*
X118505Y177179D03*
D15*
X0Y19050D02*
X73Y17390D01*
X289Y15742D01*
X649Y14120D01*
X1149Y12535D01*
X1785Y10999D01*
X2552Y9525D01*
X3445Y8123D01*
X4457Y6805D01*
X5580Y5580D01*
X6805Y4457D01*
X8123Y3445D01*
X9525Y2552D01*
X10999Y1785D01*
X12535Y1149D01*
X14120Y649D01*
X15742Y289D01*
X17390Y73D01*
X19050Y0D01*
X361950Y0D01*
X363610Y73D01*
X365258Y289D01*
X366881Y649D01*
X368465Y1149D01*
X370001Y1785D01*
X371475Y2552D01*
X372877Y3445D01*
X374195Y4457D01*
X375420Y5580D01*
X376543Y6805D01*
X377555Y8123D01*
X378448Y9525D01*
X379215Y10999D01*
X379851Y12535D01*
X380351Y14120D01*
X380711Y15742D01*
X380928Y17390D01*
X381000Y19050D01*
X381000Y444500D01*
X381192Y446449D01*
X381214Y448408D01*
X381064Y450360D01*
X380746Y452293D01*
X380260Y454190D01*
X379610Y456038D01*
X378802Y457822D01*
X377841Y459529D01*
X376736Y461145D01*
X375493Y462660D01*
X374124Y464060D01*
X372637Y465335D01*
X371045Y466476D01*
X369360Y467474D01*
X367594Y468321D01*
X365761Y469011D01*
X363875Y469539D01*
X361950Y469900D01*
X25400Y469900D01*
X23186Y469803D01*
X20989Y469514D01*
X18826Y469035D01*
X16713Y468368D01*
X14666Y467520D01*
X12700Y466497D01*
X10831Y465306D01*
X9073Y463958D01*
X7440Y462461D01*
X5942Y460827D01*
X4594Y459069D01*
X3403Y457200D01*
X2380Y455235D01*
X1532Y453187D01*
X865Y451074D01*
X386Y448911D01*
X97Y446714D01*
X0Y444500D01*
X0Y19050D01*
M02*
