G04 EAGLE Gerber RS-274X export*
G75*
%MOMM*%
%FSLAX34Y34*%
%LPD*%
%IN*%
%IPPOS*%
%AMOC8*
5,1,8,0,0,1.08239X$1,22.5*%
G01*
%ADD10C,0.254000*%


D10*
X0Y19050D02*
X73Y17390D01*
X289Y15742D01*
X649Y14120D01*
X1149Y12535D01*
X1785Y10999D01*
X2552Y9525D01*
X3445Y8123D01*
X4457Y6805D01*
X5580Y5580D01*
X6805Y4457D01*
X8123Y3445D01*
X9525Y2552D01*
X10999Y1785D01*
X12535Y1149D01*
X14120Y649D01*
X15742Y289D01*
X17390Y73D01*
X19050Y0D01*
X361950Y0D01*
X363610Y73D01*
X365258Y289D01*
X366881Y649D01*
X368465Y1149D01*
X370001Y1785D01*
X371475Y2552D01*
X372877Y3445D01*
X374195Y4457D01*
X375420Y5580D01*
X376543Y6805D01*
X377555Y8123D01*
X378448Y9525D01*
X379215Y10999D01*
X379851Y12535D01*
X380351Y14120D01*
X380711Y15742D01*
X380928Y17390D01*
X381000Y19050D01*
X381000Y444500D01*
X381192Y446449D01*
X381214Y448408D01*
X381064Y450360D01*
X380746Y452293D01*
X380260Y454190D01*
X379610Y456038D01*
X378802Y457822D01*
X377841Y459529D01*
X376736Y461145D01*
X375493Y462660D01*
X374124Y464060D01*
X372637Y465335D01*
X371045Y466476D01*
X369360Y467474D01*
X367594Y468321D01*
X365761Y469011D01*
X363875Y469539D01*
X361950Y469900D01*
X25400Y469900D01*
X23186Y469803D01*
X20989Y469514D01*
X18826Y469035D01*
X16713Y468368D01*
X14666Y467520D01*
X12700Y466497D01*
X10831Y465306D01*
X9073Y463958D01*
X7440Y462461D01*
X5942Y460827D01*
X4594Y459069D01*
X3403Y457200D01*
X2380Y455235D01*
X1532Y453187D01*
X865Y451074D01*
X386Y448911D01*
X97Y446714D01*
X0Y444500D01*
X0Y19050D01*
X46355Y31228D02*
X46281Y30188D01*
X46132Y29155D01*
X45910Y28136D01*
X45616Y27135D01*
X45252Y26157D01*
X44819Y25208D01*
X44319Y24293D01*
X43755Y23415D01*
X43129Y22580D01*
X42446Y21792D01*
X41708Y21054D01*
X40920Y20371D01*
X40085Y19746D01*
X39207Y19181D01*
X38292Y18682D01*
X37343Y18248D01*
X36365Y17884D01*
X35364Y17590D01*
X34345Y17368D01*
X33312Y17219D01*
X32272Y17145D01*
X31228Y17145D01*
X30188Y17219D01*
X29155Y17368D01*
X28136Y17590D01*
X27135Y17884D01*
X26157Y18248D01*
X25208Y18682D01*
X24293Y19181D01*
X23415Y19746D01*
X22580Y20371D01*
X21792Y21054D01*
X21054Y21792D01*
X20371Y22580D01*
X19746Y23415D01*
X19181Y24293D01*
X18682Y25208D01*
X18248Y26157D01*
X17884Y27135D01*
X17590Y28136D01*
X17368Y29155D01*
X17219Y30188D01*
X17145Y31228D01*
X17145Y32272D01*
X17219Y33312D01*
X17368Y34345D01*
X17590Y35364D01*
X17884Y36365D01*
X18248Y37343D01*
X18682Y38292D01*
X19181Y39207D01*
X19746Y40085D01*
X20371Y40920D01*
X21054Y41708D01*
X21792Y42446D01*
X22580Y43129D01*
X23415Y43755D01*
X24293Y44319D01*
X25208Y44819D01*
X26157Y45252D01*
X27135Y45616D01*
X28136Y45910D01*
X29155Y46132D01*
X30188Y46281D01*
X31228Y46355D01*
X32272Y46355D01*
X33312Y46281D01*
X34345Y46132D01*
X35364Y45910D01*
X36365Y45616D01*
X37343Y45252D01*
X38292Y44819D01*
X39207Y44319D01*
X40085Y43755D01*
X40920Y43129D01*
X41708Y42446D01*
X42446Y41708D01*
X43129Y40920D01*
X43755Y40085D01*
X44319Y39207D01*
X44819Y38292D01*
X45252Y37343D01*
X45616Y36365D01*
X45910Y35364D01*
X46132Y34345D01*
X46281Y33312D01*
X46355Y32272D01*
X46355Y31228D01*
X363855Y31228D02*
X363781Y30188D01*
X363632Y29155D01*
X363410Y28136D01*
X363116Y27135D01*
X362752Y26157D01*
X362319Y25208D01*
X361819Y24293D01*
X361255Y23415D01*
X360629Y22580D01*
X359946Y21792D01*
X359208Y21054D01*
X358420Y20371D01*
X357585Y19746D01*
X356707Y19181D01*
X355792Y18682D01*
X354843Y18248D01*
X353865Y17884D01*
X352864Y17590D01*
X351845Y17368D01*
X350812Y17219D01*
X349772Y17145D01*
X348728Y17145D01*
X347688Y17219D01*
X346655Y17368D01*
X345636Y17590D01*
X344635Y17884D01*
X343657Y18248D01*
X342708Y18682D01*
X341793Y19181D01*
X340915Y19746D01*
X340080Y20371D01*
X339292Y21054D01*
X338554Y21792D01*
X337871Y22580D01*
X337246Y23415D01*
X336681Y24293D01*
X336182Y25208D01*
X335748Y26157D01*
X335384Y27135D01*
X335090Y28136D01*
X334868Y29155D01*
X334719Y30188D01*
X334645Y31228D01*
X334645Y32272D01*
X334719Y33312D01*
X334868Y34345D01*
X335090Y35364D01*
X335384Y36365D01*
X335748Y37343D01*
X336182Y38292D01*
X336681Y39207D01*
X337246Y40085D01*
X337871Y40920D01*
X338554Y41708D01*
X339292Y42446D01*
X340080Y43129D01*
X340915Y43755D01*
X341793Y44319D01*
X342708Y44819D01*
X343657Y45252D01*
X344635Y45616D01*
X345636Y45910D01*
X346655Y46132D01*
X347688Y46281D01*
X348728Y46355D01*
X349772Y46355D01*
X350812Y46281D01*
X351845Y46132D01*
X352864Y45910D01*
X353865Y45616D01*
X354843Y45252D01*
X355792Y44819D01*
X356707Y44319D01*
X357585Y43755D01*
X358420Y43129D01*
X359208Y42446D01*
X359946Y41708D01*
X360629Y40920D01*
X361255Y40085D01*
X361819Y39207D01*
X362319Y38292D01*
X362752Y37343D01*
X363116Y36365D01*
X363410Y35364D01*
X363632Y34345D01*
X363781Y33312D01*
X363855Y32272D01*
X363855Y31228D01*
X363855Y437628D02*
X363781Y436588D01*
X363632Y435555D01*
X363410Y434536D01*
X363116Y433535D01*
X362752Y432557D01*
X362319Y431608D01*
X361819Y430693D01*
X361255Y429815D01*
X360629Y428980D01*
X359946Y428192D01*
X359208Y427454D01*
X358420Y426771D01*
X357585Y426146D01*
X356707Y425581D01*
X355792Y425082D01*
X354843Y424648D01*
X353865Y424284D01*
X352864Y423990D01*
X351845Y423768D01*
X350812Y423619D01*
X349772Y423545D01*
X348728Y423545D01*
X347688Y423619D01*
X346655Y423768D01*
X345636Y423990D01*
X344635Y424284D01*
X343657Y424648D01*
X342708Y425082D01*
X341793Y425581D01*
X340915Y426146D01*
X340080Y426771D01*
X339292Y427454D01*
X338554Y428192D01*
X337871Y428980D01*
X337246Y429815D01*
X336681Y430693D01*
X336182Y431608D01*
X335748Y432557D01*
X335384Y433535D01*
X335090Y434536D01*
X334868Y435555D01*
X334719Y436588D01*
X334645Y437628D01*
X334645Y438672D01*
X334719Y439712D01*
X334868Y440745D01*
X335090Y441764D01*
X335384Y442765D01*
X335748Y443743D01*
X336182Y444692D01*
X336681Y445607D01*
X337246Y446485D01*
X337871Y447320D01*
X338554Y448108D01*
X339292Y448846D01*
X340080Y449529D01*
X340915Y450155D01*
X341793Y450719D01*
X342708Y451219D01*
X343657Y451652D01*
X344635Y452016D01*
X345636Y452310D01*
X346655Y452532D01*
X347688Y452681D01*
X348728Y452755D01*
X349772Y452755D01*
X350812Y452681D01*
X351845Y452532D01*
X352864Y452310D01*
X353865Y452016D01*
X354843Y451652D01*
X355792Y451219D01*
X356707Y450719D01*
X357585Y450155D01*
X358420Y449529D01*
X359208Y448846D01*
X359946Y448108D01*
X360629Y447320D01*
X361255Y446485D01*
X361819Y445607D01*
X362319Y444692D01*
X362752Y443743D01*
X363116Y442765D01*
X363410Y441764D01*
X363632Y440745D01*
X363781Y439712D01*
X363855Y438672D01*
X363855Y437628D01*
X46355Y437628D02*
X46281Y436588D01*
X46132Y435555D01*
X45910Y434536D01*
X45616Y433535D01*
X45252Y432557D01*
X44819Y431608D01*
X44319Y430693D01*
X43755Y429815D01*
X43129Y428980D01*
X42446Y428192D01*
X41708Y427454D01*
X40920Y426771D01*
X40085Y426146D01*
X39207Y425581D01*
X38292Y425082D01*
X37343Y424648D01*
X36365Y424284D01*
X35364Y423990D01*
X34345Y423768D01*
X33312Y423619D01*
X32272Y423545D01*
X31228Y423545D01*
X30188Y423619D01*
X29155Y423768D01*
X28136Y423990D01*
X27135Y424284D01*
X26157Y424648D01*
X25208Y425082D01*
X24293Y425581D01*
X23415Y426146D01*
X22580Y426771D01*
X21792Y427454D01*
X21054Y428192D01*
X20371Y428980D01*
X19746Y429815D01*
X19181Y430693D01*
X18682Y431608D01*
X18248Y432557D01*
X17884Y433535D01*
X17590Y434536D01*
X17368Y435555D01*
X17219Y436588D01*
X17145Y437628D01*
X17145Y438672D01*
X17219Y439712D01*
X17368Y440745D01*
X17590Y441764D01*
X17884Y442765D01*
X18248Y443743D01*
X18682Y444692D01*
X19181Y445607D01*
X19746Y446485D01*
X20371Y447320D01*
X21054Y448108D01*
X21792Y448846D01*
X22580Y449529D01*
X23415Y450155D01*
X24293Y450719D01*
X25208Y451219D01*
X26157Y451652D01*
X27135Y452016D01*
X28136Y452310D01*
X29155Y452532D01*
X30188Y452681D01*
X31228Y452755D01*
X32272Y452755D01*
X33312Y452681D01*
X34345Y452532D01*
X35364Y452310D01*
X36365Y452016D01*
X37343Y451652D01*
X38292Y451219D01*
X39207Y450719D01*
X40085Y450155D01*
X40920Y449529D01*
X41708Y448846D01*
X42446Y448108D01*
X43129Y447320D01*
X43755Y446485D01*
X44319Y445607D01*
X44819Y444692D01*
X45252Y443743D01*
X45616Y442765D01*
X45910Y441764D01*
X46132Y440745D01*
X46281Y439712D01*
X46355Y438672D01*
X46355Y437628D01*
X46458Y182753D02*
X45905Y182815D01*
X45363Y182939D01*
X44838Y183123D01*
X44336Y183364D01*
X43865Y183660D01*
X43430Y184007D01*
X43037Y184400D01*
X42690Y184835D01*
X42394Y185306D01*
X42153Y185808D01*
X41969Y186333D01*
X41845Y186875D01*
X41783Y187428D01*
X41783Y187984D01*
X41845Y188537D01*
X41969Y189079D01*
X42153Y189604D01*
X42394Y190106D01*
X42690Y190577D01*
X43037Y191012D01*
X43430Y191405D01*
X43865Y191752D01*
X44336Y192048D01*
X44838Y192289D01*
X45363Y192473D01*
X45905Y192597D01*
X46458Y192659D01*
X47014Y192659D01*
X47567Y192597D01*
X48109Y192473D01*
X48634Y192289D01*
X49136Y192048D01*
X49607Y191752D01*
X50042Y191405D01*
X50435Y191012D01*
X50782Y190577D01*
X51078Y190106D01*
X51319Y189604D01*
X51503Y189079D01*
X51627Y188537D01*
X51689Y187984D01*
X51689Y187428D01*
X51627Y186875D01*
X51503Y186333D01*
X51319Y185808D01*
X51078Y185306D01*
X50782Y184835D01*
X50435Y184400D01*
X50042Y184007D01*
X49607Y183660D01*
X49136Y183364D01*
X48634Y183123D01*
X48109Y182939D01*
X47567Y182815D01*
X47014Y182753D01*
X46458Y182753D01*
X56608Y131953D02*
X56055Y132015D01*
X55513Y132139D01*
X54988Y132323D01*
X54486Y132564D01*
X54015Y132860D01*
X53580Y133207D01*
X53187Y133600D01*
X52840Y134035D01*
X52544Y134506D01*
X52303Y135008D01*
X52119Y135533D01*
X51995Y136075D01*
X51933Y136628D01*
X51933Y137184D01*
X51995Y137737D01*
X52119Y138279D01*
X52303Y138804D01*
X52544Y139306D01*
X52840Y139777D01*
X53187Y140212D01*
X53580Y140605D01*
X54015Y140952D01*
X54486Y141248D01*
X54988Y141489D01*
X55513Y141673D01*
X56055Y141797D01*
X56608Y141859D01*
X57164Y141859D01*
X57717Y141797D01*
X58259Y141673D01*
X58784Y141489D01*
X59286Y141248D01*
X59757Y140952D01*
X60192Y140605D01*
X60585Y140212D01*
X60932Y139777D01*
X61228Y139306D01*
X61469Y138804D01*
X61653Y138279D01*
X61777Y137737D01*
X61839Y137184D01*
X61839Y136628D01*
X61777Y136075D01*
X61653Y135533D01*
X61469Y135008D01*
X61228Y134506D01*
X60932Y134035D01*
X60585Y133600D01*
X60192Y133207D01*
X59757Y132860D01*
X59286Y132564D01*
X58784Y132323D01*
X58259Y132139D01*
X57717Y132015D01*
X57164Y131953D01*
X56608Y131953D01*
X36308Y131953D02*
X35755Y132015D01*
X35213Y132139D01*
X34688Y132323D01*
X34186Y132564D01*
X33715Y132860D01*
X33280Y133207D01*
X32887Y133600D01*
X32540Y134035D01*
X32244Y134506D01*
X32003Y135008D01*
X31819Y135533D01*
X31695Y136075D01*
X31633Y136628D01*
X31633Y137184D01*
X31695Y137737D01*
X31819Y138279D01*
X32003Y138804D01*
X32244Y139306D01*
X32540Y139777D01*
X32887Y140212D01*
X33280Y140605D01*
X33715Y140952D01*
X34186Y141248D01*
X34688Y141489D01*
X35213Y141673D01*
X35755Y141797D01*
X36308Y141859D01*
X36864Y141859D01*
X37417Y141797D01*
X37959Y141673D01*
X38484Y141489D01*
X38986Y141248D01*
X39457Y140952D01*
X39892Y140605D01*
X40285Y140212D01*
X40632Y139777D01*
X40928Y139306D01*
X41169Y138804D01*
X41353Y138279D01*
X41477Y137737D01*
X41539Y137184D01*
X41539Y136628D01*
X41477Y136075D01*
X41353Y135533D01*
X41169Y135008D01*
X40928Y134506D01*
X40632Y134035D01*
X40285Y133600D01*
X39892Y133207D01*
X39457Y132860D01*
X38986Y132564D01*
X38484Y132323D01*
X37959Y132139D01*
X37417Y132015D01*
X36864Y131953D01*
X36308Y131953D01*
X71669Y175832D02*
X70739Y175905D01*
X69818Y176051D01*
X68910Y176269D01*
X68023Y176557D01*
X67161Y176914D01*
X66329Y177338D01*
X65534Y177825D01*
X64779Y178374D01*
X64069Y178980D01*
X63410Y179639D01*
X62804Y180349D01*
X62255Y181104D01*
X61768Y181899D01*
X61344Y182731D01*
X60987Y183593D01*
X60699Y184480D01*
X60481Y185388D01*
X60335Y186309D01*
X60262Y187239D01*
X60262Y188173D01*
X60335Y189103D01*
X60481Y190024D01*
X60699Y190932D01*
X60987Y191819D01*
X61344Y192681D01*
X61768Y193513D01*
X62255Y194308D01*
X62804Y195063D01*
X63410Y195773D01*
X64069Y196432D01*
X64779Y197038D01*
X65534Y197587D01*
X66329Y198074D01*
X67161Y198498D01*
X68023Y198855D01*
X68910Y199144D01*
X69818Y199361D01*
X70739Y199507D01*
X71669Y199581D01*
X72603Y199581D01*
X73533Y199507D01*
X74454Y199361D01*
X75362Y199144D01*
X76249Y198855D01*
X77111Y198498D01*
X77943Y198074D01*
X78738Y197587D01*
X79493Y197038D01*
X80203Y196432D01*
X80862Y195773D01*
X81468Y195063D01*
X82017Y194308D01*
X82504Y193513D01*
X82928Y192681D01*
X83285Y191819D01*
X83574Y190932D01*
X83791Y190024D01*
X83937Y189103D01*
X84011Y188173D01*
X84011Y187239D01*
X83937Y186309D01*
X83791Y185388D01*
X83574Y184480D01*
X83285Y183593D01*
X82928Y182731D01*
X82504Y181899D01*
X82017Y181104D01*
X81468Y180349D01*
X80862Y179639D01*
X80203Y178980D01*
X79493Y178374D01*
X78738Y177825D01*
X77943Y177338D01*
X77111Y176914D01*
X76249Y176557D01*
X75362Y176269D01*
X74454Y176051D01*
X73533Y175905D01*
X72603Y175832D01*
X71669Y175832D01*
X71669Y144082D02*
X70739Y144155D01*
X69818Y144301D01*
X68910Y144519D01*
X68023Y144807D01*
X67161Y145164D01*
X66329Y145588D01*
X65534Y146075D01*
X64779Y146624D01*
X64069Y147230D01*
X63410Y147889D01*
X62804Y148599D01*
X62255Y149354D01*
X61768Y150149D01*
X61344Y150981D01*
X60987Y151843D01*
X60699Y152730D01*
X60481Y153638D01*
X60335Y154559D01*
X60262Y155489D01*
X60262Y156423D01*
X60335Y157353D01*
X60481Y158274D01*
X60699Y159182D01*
X60987Y160069D01*
X61344Y160931D01*
X61768Y161763D01*
X62255Y162558D01*
X62804Y163313D01*
X63410Y164023D01*
X64069Y164682D01*
X64779Y165288D01*
X65534Y165837D01*
X66329Y166324D01*
X67161Y166748D01*
X68023Y167105D01*
X68910Y167394D01*
X69818Y167611D01*
X70739Y167757D01*
X71669Y167831D01*
X72603Y167831D01*
X73533Y167757D01*
X74454Y167611D01*
X75362Y167394D01*
X76249Y167105D01*
X77111Y166748D01*
X77943Y166324D01*
X78738Y165837D01*
X79493Y165288D01*
X80203Y164682D01*
X80862Y164023D01*
X81468Y163313D01*
X82017Y162558D01*
X82504Y161763D01*
X82928Y160931D01*
X83285Y160069D01*
X83574Y159182D01*
X83791Y158274D01*
X83937Y157353D01*
X84011Y156423D01*
X84011Y155489D01*
X83937Y154559D01*
X83791Y153638D01*
X83574Y152730D01*
X83285Y151843D01*
X82928Y150981D01*
X82504Y150149D01*
X82017Y149354D01*
X81468Y148599D01*
X80862Y147889D01*
X80203Y147230D01*
X79493Y146624D01*
X78738Y146075D01*
X77943Y145588D01*
X77111Y145164D01*
X76249Y144807D01*
X75362Y144519D01*
X74454Y144301D01*
X73533Y144155D01*
X72603Y144082D01*
X71669Y144082D01*
X20869Y144082D02*
X19939Y144155D01*
X19018Y144301D01*
X18110Y144519D01*
X17223Y144807D01*
X16361Y145164D01*
X15529Y145588D01*
X14734Y146075D01*
X13979Y146624D01*
X13269Y147230D01*
X12610Y147889D01*
X12004Y148599D01*
X11455Y149354D01*
X10968Y150149D01*
X10544Y150981D01*
X10187Y151843D01*
X9899Y152730D01*
X9681Y153638D01*
X9535Y154559D01*
X9462Y155489D01*
X9462Y156423D01*
X9535Y157353D01*
X9681Y158274D01*
X9899Y159182D01*
X10187Y160069D01*
X10544Y160931D01*
X10968Y161763D01*
X11455Y162558D01*
X12004Y163313D01*
X12610Y164023D01*
X13269Y164682D01*
X13979Y165288D01*
X14734Y165837D01*
X15529Y166324D01*
X16361Y166748D01*
X17223Y167105D01*
X18110Y167394D01*
X19018Y167611D01*
X19939Y167757D01*
X20869Y167831D01*
X21803Y167831D01*
X22733Y167757D01*
X23654Y167611D01*
X24562Y167394D01*
X25449Y167105D01*
X26311Y166748D01*
X27143Y166324D01*
X27938Y165837D01*
X28693Y165288D01*
X29403Y164682D01*
X30062Y164023D01*
X30668Y163313D01*
X31217Y162558D01*
X31704Y161763D01*
X32128Y160931D01*
X32485Y160069D01*
X32774Y159182D01*
X32991Y158274D01*
X33137Y157353D01*
X33211Y156423D01*
X33211Y155489D01*
X33137Y154559D01*
X32991Y153638D01*
X32774Y152730D01*
X32485Y151843D01*
X32128Y150981D01*
X31704Y150149D01*
X31217Y149354D01*
X30668Y148599D01*
X30062Y147889D01*
X29403Y147230D01*
X28693Y146624D01*
X27938Y146075D01*
X27143Y145588D01*
X26311Y145164D01*
X25449Y144807D01*
X24562Y144519D01*
X23654Y144301D01*
X22733Y144155D01*
X21803Y144082D01*
X20869Y144082D01*
X20869Y175832D02*
X19939Y175905D01*
X19018Y176051D01*
X18110Y176269D01*
X17223Y176557D01*
X16361Y176914D01*
X15529Y177338D01*
X14734Y177825D01*
X13979Y178374D01*
X13269Y178980D01*
X12610Y179639D01*
X12004Y180349D01*
X11455Y181104D01*
X10968Y181899D01*
X10544Y182731D01*
X10187Y183593D01*
X9899Y184480D01*
X9681Y185388D01*
X9535Y186309D01*
X9462Y187239D01*
X9462Y188173D01*
X9535Y189103D01*
X9681Y190024D01*
X9899Y190932D01*
X10187Y191819D01*
X10544Y192681D01*
X10968Y193513D01*
X11455Y194308D01*
X12004Y195063D01*
X12610Y195773D01*
X13269Y196432D01*
X13979Y197038D01*
X14734Y197587D01*
X15529Y198074D01*
X16361Y198498D01*
X17223Y198855D01*
X18110Y199144D01*
X19018Y199361D01*
X19939Y199507D01*
X20869Y199581D01*
X21803Y199581D01*
X22733Y199507D01*
X23654Y199361D01*
X24562Y199144D01*
X25449Y198855D01*
X26311Y198498D01*
X27143Y198074D01*
X27938Y197587D01*
X28693Y197038D01*
X29403Y196432D01*
X30062Y195773D01*
X30668Y195063D01*
X31217Y194308D01*
X31704Y193513D01*
X32128Y192681D01*
X32485Y191819D01*
X32774Y190932D01*
X32991Y190024D01*
X33137Y189103D01*
X33211Y188173D01*
X33211Y187239D01*
X33137Y186309D01*
X32991Y185388D01*
X32774Y184480D01*
X32485Y183593D01*
X32128Y182731D01*
X31704Y181899D01*
X31217Y181104D01*
X30668Y180349D01*
X30062Y179639D01*
X29403Y178980D01*
X28693Y178374D01*
X27938Y177825D01*
X27143Y177338D01*
X26311Y176914D01*
X25449Y176557D01*
X24562Y176269D01*
X23654Y176051D01*
X22733Y175905D01*
X21803Y175832D01*
X20869Y175832D01*
X7469Y81352D02*
X6884Y81429D01*
X6314Y81582D01*
X5769Y81807D01*
X5259Y82102D01*
X4791Y82461D01*
X4373Y82879D01*
X4014Y83347D01*
X3719Y83857D01*
X3494Y84402D01*
X3341Y84972D01*
X3264Y85557D01*
X3264Y86147D01*
X3341Y86732D01*
X3494Y87302D01*
X3719Y87847D01*
X4014Y88357D01*
X4373Y88825D01*
X4791Y89243D01*
X5259Y89602D01*
X5769Y89897D01*
X6314Y90122D01*
X6884Y90275D01*
X7469Y90352D01*
X8059Y90352D01*
X8644Y90275D01*
X9214Y90122D01*
X9759Y89897D01*
X10269Y89602D01*
X10737Y89243D01*
X11155Y88825D01*
X11514Y88357D01*
X11809Y87847D01*
X12034Y87302D01*
X12187Y86732D01*
X12264Y86147D01*
X12264Y85557D01*
X12187Y84972D01*
X12034Y84402D01*
X11809Y83857D01*
X11514Y83347D01*
X11155Y82879D01*
X10737Y82461D01*
X10269Y82102D01*
X9759Y81807D01*
X9214Y81582D01*
X8644Y81429D01*
X8059Y81352D01*
X7469Y81352D01*
X25469Y81352D02*
X24884Y81429D01*
X24314Y81582D01*
X23769Y81807D01*
X23259Y82102D01*
X22791Y82461D01*
X22373Y82879D01*
X22014Y83347D01*
X21719Y83857D01*
X21494Y84402D01*
X21341Y84972D01*
X21264Y85557D01*
X21264Y86147D01*
X21341Y86732D01*
X21494Y87302D01*
X21719Y87847D01*
X22014Y88357D01*
X22373Y88825D01*
X22791Y89243D01*
X23259Y89602D01*
X23769Y89897D01*
X24314Y90122D01*
X24884Y90275D01*
X25469Y90352D01*
X26059Y90352D01*
X26644Y90275D01*
X27214Y90122D01*
X27759Y89897D01*
X28269Y89602D01*
X28737Y89243D01*
X29155Y88825D01*
X29514Y88357D01*
X29809Y87847D01*
X30034Y87302D01*
X30187Y86732D01*
X30264Y86147D01*
X30264Y85557D01*
X30187Y84972D01*
X30034Y84402D01*
X29809Y83857D01*
X29514Y83347D01*
X29155Y82879D01*
X28737Y82461D01*
X28269Y82102D01*
X27759Y81807D01*
X27214Y81582D01*
X26644Y81429D01*
X26059Y81352D01*
X25469Y81352D01*
X25159Y345604D02*
X25689Y345544D01*
X26209Y345426D01*
X26713Y345249D01*
X27193Y345018D01*
X27645Y344734D01*
X28062Y344401D01*
X28439Y344024D01*
X28772Y343607D01*
X29056Y343155D01*
X29287Y342675D01*
X29464Y342171D01*
X29582Y341651D01*
X29642Y341121D01*
X29642Y340587D01*
X29582Y340057D01*
X29464Y339537D01*
X29287Y339033D01*
X29056Y338553D01*
X28772Y338101D01*
X28439Y337684D01*
X28062Y337307D01*
X27645Y336974D01*
X27193Y336690D01*
X26713Y336459D01*
X26209Y336282D01*
X25689Y336164D01*
X25159Y336104D01*
X24625Y336104D01*
X24095Y336164D01*
X23575Y336282D01*
X23071Y336459D01*
X22591Y336690D01*
X22139Y336974D01*
X21722Y337307D01*
X21345Y337684D01*
X21012Y338101D01*
X20728Y338553D01*
X20497Y339033D01*
X20320Y339537D01*
X20202Y340057D01*
X20142Y340587D01*
X20142Y341121D01*
X20202Y341651D01*
X20320Y342171D01*
X20497Y342675D01*
X20728Y343155D01*
X21012Y343607D01*
X21345Y344024D01*
X21722Y344401D01*
X22139Y344734D01*
X22591Y345018D01*
X23071Y345249D01*
X23575Y345426D01*
X24095Y345544D01*
X24625Y345604D01*
X25159Y345604D01*
X25159Y375604D02*
X25689Y375544D01*
X26209Y375426D01*
X26713Y375249D01*
X27193Y375018D01*
X27645Y374734D01*
X28062Y374401D01*
X28439Y374024D01*
X28772Y373607D01*
X29056Y373155D01*
X29287Y372675D01*
X29464Y372171D01*
X29582Y371651D01*
X29642Y371121D01*
X29642Y370587D01*
X29582Y370057D01*
X29464Y369537D01*
X29287Y369033D01*
X29056Y368553D01*
X28772Y368101D01*
X28439Y367684D01*
X28062Y367307D01*
X27645Y366974D01*
X27193Y366690D01*
X26713Y366459D01*
X26209Y366282D01*
X25689Y366164D01*
X25159Y366104D01*
X24625Y366104D01*
X24095Y366164D01*
X23575Y366282D01*
X23071Y366459D01*
X22591Y366690D01*
X22139Y366974D01*
X21722Y367307D01*
X21345Y367684D01*
X21012Y368101D01*
X20728Y368553D01*
X20497Y369033D01*
X20320Y369537D01*
X20202Y370057D01*
X20142Y370587D01*
X20142Y371121D01*
X20202Y371651D01*
X20320Y372171D01*
X20497Y372675D01*
X20728Y373155D01*
X21012Y373607D01*
X21345Y374024D01*
X21722Y374401D01*
X22139Y374734D01*
X22591Y375018D01*
X23071Y375249D01*
X23575Y375426D01*
X24095Y375544D01*
X24625Y375604D01*
X25159Y375604D01*
M02*
