G04 EAGLE Gerber RS-274X export*
G75*
%MOMM*%
%FSLAX34Y34*%
%LPD*%
%INSilkscreen Top*%
%IPPOS*%
%AMOC8*
5,1,8,0,0,1.08239X$1,22.5*%
G01*
%ADD10C,0.500000*%
%ADD11C,0.127000*%
%ADD12C,0.177800*%
%ADD13C,0.140000*%
%ADD14C,0.359206*%
%ADD15C,0.203200*%
%ADD16C,0.254000*%
%ADD17C,0.101600*%
%ADD18R,0.500000X0.500000*%
%ADD19C,0.050800*%
%ADD20C,0.152400*%
%ADD21C,0.254000*%


D10*
X348818Y252986D03*
D11*
X5560Y232770D02*
X5560Y277770D01*
X40560Y295270D02*
X80560Y295270D01*
X80560Y286770D01*
X55560Y286770D01*
X55560Y272770D01*
X55560Y237770D02*
X55560Y223770D01*
X80560Y223770D01*
X80560Y215270D01*
X40560Y215270D01*
D12*
X90791Y279019D02*
X90791Y287316D01*
X94940Y283168D02*
X86642Y283168D01*
X90791Y230166D02*
X90791Y221869D01*
D13*
X155850Y57200D02*
X155852Y57252D01*
X155858Y57304D01*
X155868Y57356D01*
X155881Y57406D01*
X155898Y57456D01*
X155919Y57504D01*
X155944Y57550D01*
X155972Y57594D01*
X156003Y57636D01*
X156037Y57676D01*
X156074Y57713D01*
X156114Y57747D01*
X156156Y57778D01*
X156200Y57806D01*
X156246Y57831D01*
X156294Y57852D01*
X156344Y57869D01*
X156394Y57882D01*
X156446Y57892D01*
X156498Y57898D01*
X156550Y57900D01*
X156602Y57898D01*
X156654Y57892D01*
X156706Y57882D01*
X156756Y57869D01*
X156806Y57852D01*
X156854Y57831D01*
X156900Y57806D01*
X156944Y57778D01*
X156986Y57747D01*
X157026Y57713D01*
X157063Y57676D01*
X157097Y57636D01*
X157128Y57594D01*
X157156Y57550D01*
X157181Y57504D01*
X157202Y57456D01*
X157219Y57406D01*
X157232Y57356D01*
X157242Y57304D01*
X157248Y57252D01*
X157250Y57200D01*
X157248Y57148D01*
X157242Y57096D01*
X157232Y57044D01*
X157219Y56994D01*
X157202Y56944D01*
X157181Y56896D01*
X157156Y56850D01*
X157128Y56806D01*
X157097Y56764D01*
X157063Y56724D01*
X157026Y56687D01*
X156986Y56653D01*
X156944Y56622D01*
X156900Y56594D01*
X156854Y56569D01*
X156806Y56548D01*
X156756Y56531D01*
X156706Y56518D01*
X156654Y56508D01*
X156602Y56502D01*
X156550Y56500D01*
X156498Y56502D01*
X156446Y56508D01*
X156394Y56518D01*
X156344Y56531D01*
X156294Y56548D01*
X156246Y56569D01*
X156200Y56594D01*
X156156Y56622D01*
X156114Y56653D01*
X156074Y56687D01*
X156037Y56724D01*
X156003Y56764D01*
X155972Y56806D01*
X155944Y56850D01*
X155919Y56896D01*
X155898Y56944D01*
X155881Y56994D01*
X155868Y57044D01*
X155858Y57096D01*
X155852Y57148D01*
X155850Y57200D01*
D14*
X29464Y120142D03*
D15*
X29162Y321084D02*
X20622Y321084D01*
X20622Y390624D02*
X29162Y390624D01*
X10622Y382854D02*
X10622Y328854D01*
X39162Y354584D02*
X39162Y372124D01*
D16*
X170688Y242824D02*
X170690Y242895D01*
X170696Y242966D01*
X170706Y243037D01*
X170720Y243107D01*
X170738Y243176D01*
X170759Y243243D01*
X170785Y243310D01*
X170814Y243375D01*
X170846Y243438D01*
X170883Y243500D01*
X170922Y243559D01*
X170965Y243616D01*
X171011Y243670D01*
X171060Y243722D01*
X171112Y243771D01*
X171166Y243817D01*
X171223Y243860D01*
X171282Y243899D01*
X171344Y243936D01*
X171407Y243968D01*
X171472Y243997D01*
X171539Y244023D01*
X171606Y244044D01*
X171675Y244062D01*
X171745Y244076D01*
X171816Y244086D01*
X171887Y244092D01*
X171958Y244094D01*
X172029Y244092D01*
X172100Y244086D01*
X172171Y244076D01*
X172241Y244062D01*
X172310Y244044D01*
X172377Y244023D01*
X172444Y243997D01*
X172509Y243968D01*
X172572Y243936D01*
X172634Y243899D01*
X172693Y243860D01*
X172750Y243817D01*
X172804Y243771D01*
X172856Y243722D01*
X172905Y243670D01*
X172951Y243616D01*
X172994Y243559D01*
X173033Y243500D01*
X173070Y243438D01*
X173102Y243375D01*
X173131Y243310D01*
X173157Y243243D01*
X173178Y243176D01*
X173196Y243107D01*
X173210Y243037D01*
X173220Y242966D01*
X173226Y242895D01*
X173228Y242824D01*
X173226Y242753D01*
X173220Y242682D01*
X173210Y242611D01*
X173196Y242541D01*
X173178Y242472D01*
X173157Y242405D01*
X173131Y242338D01*
X173102Y242273D01*
X173070Y242210D01*
X173033Y242148D01*
X172994Y242089D01*
X172951Y242032D01*
X172905Y241978D01*
X172856Y241926D01*
X172804Y241877D01*
X172750Y241831D01*
X172693Y241788D01*
X172634Y241749D01*
X172572Y241712D01*
X172509Y241680D01*
X172444Y241651D01*
X172377Y241625D01*
X172310Y241604D01*
X172241Y241586D01*
X172171Y241572D01*
X172100Y241562D01*
X172029Y241556D01*
X171958Y241554D01*
X171887Y241556D01*
X171816Y241562D01*
X171745Y241572D01*
X171675Y241586D01*
X171606Y241604D01*
X171539Y241625D01*
X171472Y241651D01*
X171407Y241680D01*
X171344Y241712D01*
X171282Y241749D01*
X171223Y241788D01*
X171166Y241831D01*
X171112Y241877D01*
X171060Y241926D01*
X171011Y241978D01*
X170965Y242032D01*
X170922Y242089D01*
X170883Y242148D01*
X170846Y242210D01*
X170814Y242273D01*
X170785Y242338D01*
X170759Y242405D01*
X170738Y242472D01*
X170720Y242541D01*
X170706Y242611D01*
X170696Y242682D01*
X170690Y242753D01*
X170688Y242824D01*
D11*
X182758Y244724D02*
X182758Y164724D01*
X182758Y244724D02*
X262758Y244724D01*
X262758Y164724D01*
X182758Y164724D01*
D17*
X69684Y100758D02*
X67684Y99758D01*
X67684Y101758D01*
X69684Y100758D01*
D11*
X69934Y103458D02*
X69934Y88058D01*
X80434Y88058D01*
X80434Y103458D01*
X69934Y103458D01*
X153446Y241858D02*
X153446Y245858D01*
X153446Y241858D02*
X125446Y241858D01*
X125446Y245858D01*
X153446Y275858D02*
X153446Y279858D01*
X125446Y279858D01*
X125446Y275858D01*
D18*
X158946Y243358D03*
D11*
X154305Y233426D02*
X154305Y201422D01*
X139319Y201422D01*
X139319Y233426D01*
X154305Y233426D01*
X159194Y292148D02*
X147764Y292148D01*
X147764Y288973D02*
X147764Y295323D01*
X159194Y300047D02*
X159194Y305127D01*
X159194Y300047D02*
X147764Y300047D01*
X147764Y305127D01*
X152844Y303857D02*
X152844Y300047D01*
X147764Y310055D02*
X159194Y310055D01*
X154114Y313865D02*
X147764Y310055D01*
X154114Y313865D02*
X147764Y317675D01*
X159194Y317675D01*
X159194Y323834D02*
X147764Y323834D01*
X147764Y327009D01*
X147766Y327120D01*
X147772Y327230D01*
X147781Y327341D01*
X147795Y327451D01*
X147812Y327560D01*
X147833Y327669D01*
X147858Y327777D01*
X147887Y327884D01*
X147919Y327990D01*
X147955Y328095D01*
X147995Y328198D01*
X148038Y328300D01*
X148085Y328401D01*
X148136Y328500D01*
X148189Y328597D01*
X148246Y328691D01*
X148307Y328784D01*
X148370Y328875D01*
X148437Y328964D01*
X148507Y329050D01*
X148580Y329133D01*
X148655Y329215D01*
X148733Y329293D01*
X148815Y329368D01*
X148898Y329441D01*
X148984Y329511D01*
X149073Y329578D01*
X149164Y329641D01*
X149257Y329702D01*
X149352Y329759D01*
X149448Y329812D01*
X149547Y329863D01*
X149648Y329910D01*
X149750Y329953D01*
X149853Y329993D01*
X149958Y330029D01*
X150064Y330061D01*
X150171Y330090D01*
X150279Y330115D01*
X150388Y330136D01*
X150497Y330153D01*
X150607Y330167D01*
X150718Y330176D01*
X150828Y330182D01*
X150939Y330184D01*
X151050Y330182D01*
X151160Y330176D01*
X151271Y330167D01*
X151381Y330153D01*
X151490Y330136D01*
X151599Y330115D01*
X151707Y330090D01*
X151814Y330061D01*
X151920Y330029D01*
X152025Y329993D01*
X152128Y329953D01*
X152230Y329910D01*
X152331Y329863D01*
X152430Y329812D01*
X152527Y329759D01*
X152621Y329702D01*
X152714Y329641D01*
X152805Y329578D01*
X152894Y329511D01*
X152980Y329441D01*
X153063Y329368D01*
X153145Y329293D01*
X153223Y329215D01*
X153298Y329133D01*
X153371Y329050D01*
X153441Y328964D01*
X153508Y328875D01*
X153571Y328784D01*
X153632Y328691D01*
X153689Y328597D01*
X153742Y328500D01*
X153793Y328401D01*
X153840Y328300D01*
X153883Y328198D01*
X153923Y328095D01*
X153959Y327990D01*
X153991Y327884D01*
X154020Y327777D01*
X154045Y327669D01*
X154066Y327560D01*
X154083Y327451D01*
X154097Y327341D01*
X154106Y327230D01*
X154112Y327120D01*
X154114Y327009D01*
X154114Y323834D01*
X73327Y34100D02*
X73325Y34000D01*
X73319Y33901D01*
X73309Y33801D01*
X73296Y33703D01*
X73278Y33604D01*
X73257Y33507D01*
X73232Y33411D01*
X73203Y33315D01*
X73170Y33221D01*
X73134Y33128D01*
X73094Y33037D01*
X73050Y32947D01*
X73003Y32859D01*
X72953Y32773D01*
X72899Y32689D01*
X72842Y32607D01*
X72782Y32528D01*
X72718Y32450D01*
X72652Y32376D01*
X72583Y32304D01*
X72511Y32235D01*
X72437Y32169D01*
X72359Y32105D01*
X72280Y32045D01*
X72198Y31988D01*
X72114Y31934D01*
X72028Y31884D01*
X71940Y31837D01*
X71850Y31793D01*
X71759Y31753D01*
X71666Y31717D01*
X71572Y31684D01*
X71476Y31655D01*
X71380Y31630D01*
X71283Y31609D01*
X71184Y31591D01*
X71086Y31578D01*
X70986Y31568D01*
X70887Y31562D01*
X70787Y31560D01*
X70646Y31562D01*
X70505Y31567D01*
X70364Y31577D01*
X70223Y31590D01*
X70083Y31606D01*
X69943Y31627D01*
X69804Y31651D01*
X69665Y31679D01*
X69528Y31710D01*
X69391Y31745D01*
X69255Y31783D01*
X69120Y31825D01*
X68987Y31871D01*
X68854Y31920D01*
X68723Y31973D01*
X68594Y32029D01*
X68465Y32088D01*
X68339Y32151D01*
X68214Y32217D01*
X68091Y32286D01*
X67970Y32359D01*
X67851Y32435D01*
X67733Y32514D01*
X67618Y32595D01*
X67506Y32680D01*
X67395Y32768D01*
X67287Y32859D01*
X67181Y32952D01*
X67078Y33049D01*
X66977Y33148D01*
X67295Y40450D02*
X67297Y40550D01*
X67303Y40649D01*
X67313Y40749D01*
X67326Y40847D01*
X67344Y40946D01*
X67365Y41043D01*
X67390Y41139D01*
X67419Y41235D01*
X67452Y41329D01*
X67488Y41422D01*
X67528Y41513D01*
X67572Y41603D01*
X67619Y41691D01*
X67669Y41777D01*
X67723Y41861D01*
X67780Y41943D01*
X67840Y42022D01*
X67904Y42100D01*
X67970Y42174D01*
X68039Y42246D01*
X68111Y42315D01*
X68185Y42381D01*
X68263Y42445D01*
X68342Y42505D01*
X68424Y42562D01*
X68508Y42616D01*
X68594Y42666D01*
X68682Y42713D01*
X68772Y42757D01*
X68863Y42797D01*
X68956Y42833D01*
X69050Y42866D01*
X69146Y42895D01*
X69242Y42920D01*
X69339Y42941D01*
X69438Y42959D01*
X69536Y42972D01*
X69636Y42982D01*
X69735Y42988D01*
X69835Y42990D01*
X69835Y42991D02*
X69968Y42989D01*
X70101Y42984D01*
X70234Y42974D01*
X70367Y42961D01*
X70499Y42944D01*
X70631Y42924D01*
X70762Y42900D01*
X70892Y42872D01*
X71022Y42841D01*
X71150Y42806D01*
X71278Y42767D01*
X71404Y42725D01*
X71529Y42679D01*
X71653Y42630D01*
X71776Y42578D01*
X71897Y42522D01*
X72016Y42462D01*
X72134Y42400D01*
X72249Y42334D01*
X72363Y42265D01*
X72475Y42192D01*
X72585Y42117D01*
X72693Y42038D01*
X68564Y38227D02*
X68480Y38279D01*
X68397Y38334D01*
X68317Y38393D01*
X68239Y38454D01*
X68164Y38518D01*
X68091Y38586D01*
X68020Y38656D01*
X67953Y38728D01*
X67888Y38803D01*
X67826Y38881D01*
X67767Y38961D01*
X67711Y39043D01*
X67659Y39127D01*
X67610Y39213D01*
X67564Y39301D01*
X67521Y39391D01*
X67482Y39482D01*
X67447Y39575D01*
X67415Y39669D01*
X67387Y39764D01*
X67362Y39860D01*
X67342Y39957D01*
X67324Y40055D01*
X67311Y40153D01*
X67302Y40252D01*
X67296Y40351D01*
X67294Y40450D01*
X72057Y36323D02*
X72141Y36271D01*
X72224Y36216D01*
X72304Y36157D01*
X72382Y36096D01*
X72457Y36032D01*
X72530Y35964D01*
X72601Y35894D01*
X72668Y35822D01*
X72733Y35747D01*
X72795Y35669D01*
X72854Y35589D01*
X72910Y35507D01*
X72962Y35423D01*
X73011Y35337D01*
X73057Y35249D01*
X73100Y35159D01*
X73139Y35068D01*
X73174Y34975D01*
X73206Y34881D01*
X73234Y34786D01*
X73259Y34690D01*
X73279Y34593D01*
X73297Y34495D01*
X73310Y34397D01*
X73319Y34298D01*
X73325Y34199D01*
X73327Y34100D01*
X72057Y36323D02*
X68565Y38228D01*
X80439Y42990D02*
X80439Y31560D01*
X77264Y42990D02*
X83614Y42990D01*
X87932Y39815D02*
X87932Y34735D01*
X87932Y39815D02*
X87934Y39926D01*
X87940Y40036D01*
X87949Y40147D01*
X87963Y40257D01*
X87980Y40366D01*
X88001Y40475D01*
X88026Y40583D01*
X88055Y40690D01*
X88087Y40796D01*
X88123Y40901D01*
X88163Y41004D01*
X88206Y41106D01*
X88253Y41207D01*
X88304Y41306D01*
X88357Y41402D01*
X88414Y41497D01*
X88475Y41590D01*
X88538Y41681D01*
X88605Y41770D01*
X88675Y41856D01*
X88748Y41939D01*
X88823Y42021D01*
X88901Y42099D01*
X88983Y42174D01*
X89066Y42247D01*
X89152Y42317D01*
X89241Y42384D01*
X89332Y42447D01*
X89425Y42508D01*
X89520Y42565D01*
X89616Y42618D01*
X89715Y42669D01*
X89816Y42716D01*
X89918Y42759D01*
X90021Y42799D01*
X90126Y42835D01*
X90232Y42867D01*
X90339Y42896D01*
X90447Y42921D01*
X90556Y42942D01*
X90665Y42959D01*
X90775Y42973D01*
X90886Y42982D01*
X90996Y42988D01*
X91107Y42990D01*
X91218Y42988D01*
X91328Y42982D01*
X91439Y42973D01*
X91549Y42959D01*
X91658Y42942D01*
X91767Y42921D01*
X91875Y42896D01*
X91982Y42867D01*
X92088Y42835D01*
X92193Y42799D01*
X92296Y42759D01*
X92398Y42716D01*
X92499Y42669D01*
X92598Y42618D01*
X92695Y42565D01*
X92789Y42508D01*
X92882Y42447D01*
X92973Y42384D01*
X93062Y42317D01*
X93148Y42247D01*
X93231Y42174D01*
X93313Y42099D01*
X93391Y42021D01*
X93466Y41939D01*
X93539Y41856D01*
X93609Y41770D01*
X93676Y41681D01*
X93739Y41590D01*
X93800Y41497D01*
X93857Y41403D01*
X93910Y41306D01*
X93961Y41207D01*
X94008Y41106D01*
X94051Y41004D01*
X94091Y40901D01*
X94127Y40796D01*
X94159Y40690D01*
X94188Y40583D01*
X94213Y40475D01*
X94234Y40366D01*
X94251Y40257D01*
X94265Y40147D01*
X94274Y40036D01*
X94280Y39926D01*
X94282Y39815D01*
X94282Y34735D01*
X94280Y34624D01*
X94274Y34514D01*
X94265Y34403D01*
X94251Y34293D01*
X94234Y34184D01*
X94213Y34075D01*
X94188Y33967D01*
X94159Y33860D01*
X94127Y33754D01*
X94091Y33649D01*
X94051Y33546D01*
X94008Y33444D01*
X93961Y33343D01*
X93910Y33244D01*
X93857Y33147D01*
X93800Y33053D01*
X93739Y32960D01*
X93676Y32869D01*
X93609Y32780D01*
X93539Y32694D01*
X93466Y32611D01*
X93391Y32529D01*
X93313Y32451D01*
X93231Y32376D01*
X93148Y32303D01*
X93062Y32233D01*
X92973Y32166D01*
X92882Y32103D01*
X92789Y32042D01*
X92694Y31985D01*
X92598Y31932D01*
X92499Y31881D01*
X92398Y31834D01*
X92296Y31791D01*
X92193Y31751D01*
X92088Y31715D01*
X91982Y31683D01*
X91875Y31654D01*
X91767Y31629D01*
X91658Y31608D01*
X91549Y31591D01*
X91439Y31577D01*
X91328Y31568D01*
X91218Y31562D01*
X91107Y31560D01*
X90996Y31562D01*
X90886Y31568D01*
X90775Y31577D01*
X90665Y31591D01*
X90556Y31608D01*
X90447Y31629D01*
X90339Y31654D01*
X90232Y31683D01*
X90126Y31715D01*
X90021Y31751D01*
X89918Y31791D01*
X89816Y31834D01*
X89715Y31881D01*
X89616Y31932D01*
X89520Y31985D01*
X89425Y32042D01*
X89332Y32103D01*
X89241Y32166D01*
X89152Y32233D01*
X89066Y32303D01*
X88983Y32376D01*
X88901Y32451D01*
X88823Y32529D01*
X88748Y32611D01*
X88675Y32694D01*
X88605Y32780D01*
X88538Y32869D01*
X88475Y32960D01*
X88414Y33053D01*
X88357Y33148D01*
X88304Y33244D01*
X88253Y33343D01*
X88206Y33444D01*
X88163Y33546D01*
X88123Y33649D01*
X88087Y33754D01*
X88055Y33860D01*
X88026Y33967D01*
X88001Y34075D01*
X87980Y34184D01*
X87963Y34293D01*
X87949Y34403D01*
X87940Y34514D01*
X87934Y34624D01*
X87932Y34735D01*
X99826Y31560D02*
X99826Y42990D01*
X103001Y42990D01*
X103112Y42988D01*
X103222Y42982D01*
X103333Y42973D01*
X103443Y42959D01*
X103552Y42942D01*
X103661Y42921D01*
X103769Y42896D01*
X103876Y42867D01*
X103982Y42835D01*
X104087Y42799D01*
X104190Y42759D01*
X104292Y42716D01*
X104393Y42669D01*
X104492Y42618D01*
X104589Y42565D01*
X104683Y42508D01*
X104776Y42447D01*
X104867Y42384D01*
X104956Y42317D01*
X105042Y42247D01*
X105125Y42174D01*
X105207Y42099D01*
X105285Y42021D01*
X105360Y41939D01*
X105433Y41856D01*
X105503Y41770D01*
X105570Y41681D01*
X105633Y41590D01*
X105694Y41497D01*
X105751Y41402D01*
X105804Y41306D01*
X105855Y41207D01*
X105902Y41106D01*
X105945Y41004D01*
X105985Y40901D01*
X106021Y40796D01*
X106053Y40690D01*
X106082Y40583D01*
X106107Y40475D01*
X106128Y40366D01*
X106145Y40257D01*
X106159Y40147D01*
X106168Y40036D01*
X106174Y39926D01*
X106176Y39815D01*
X106174Y39704D01*
X106168Y39594D01*
X106159Y39483D01*
X106145Y39373D01*
X106128Y39264D01*
X106107Y39155D01*
X106082Y39047D01*
X106053Y38940D01*
X106021Y38834D01*
X105985Y38729D01*
X105945Y38626D01*
X105902Y38524D01*
X105855Y38423D01*
X105804Y38324D01*
X105751Y38227D01*
X105694Y38133D01*
X105633Y38040D01*
X105570Y37949D01*
X105503Y37860D01*
X105433Y37774D01*
X105360Y37691D01*
X105285Y37609D01*
X105207Y37531D01*
X105125Y37456D01*
X105042Y37383D01*
X104956Y37313D01*
X104867Y37246D01*
X104776Y37183D01*
X104683Y37122D01*
X104588Y37065D01*
X104492Y37012D01*
X104393Y36961D01*
X104292Y36914D01*
X104190Y36871D01*
X104087Y36831D01*
X103982Y36795D01*
X103876Y36763D01*
X103769Y36734D01*
X103661Y36709D01*
X103552Y36688D01*
X103443Y36671D01*
X103333Y36657D01*
X103222Y36648D01*
X103112Y36642D01*
X103001Y36640D01*
X99826Y36640D01*
X103636Y36640D02*
X106176Y31560D01*
X358712Y76025D02*
X358812Y76023D01*
X358911Y76017D01*
X359011Y76007D01*
X359109Y75994D01*
X359208Y75976D01*
X359305Y75955D01*
X359401Y75930D01*
X359497Y75901D01*
X359591Y75868D01*
X359684Y75832D01*
X359775Y75792D01*
X359865Y75748D01*
X359953Y75701D01*
X360039Y75651D01*
X360123Y75597D01*
X360205Y75540D01*
X360284Y75480D01*
X360362Y75416D01*
X360436Y75350D01*
X360508Y75281D01*
X360577Y75209D01*
X360643Y75135D01*
X360707Y75057D01*
X360767Y74978D01*
X360824Y74896D01*
X360878Y74812D01*
X360928Y74726D01*
X360975Y74638D01*
X361019Y74548D01*
X361059Y74457D01*
X361095Y74364D01*
X361128Y74270D01*
X361157Y74174D01*
X361182Y74078D01*
X361203Y73981D01*
X361221Y73882D01*
X361234Y73784D01*
X361244Y73684D01*
X361250Y73585D01*
X361252Y73485D01*
X361250Y73344D01*
X361245Y73203D01*
X361235Y73062D01*
X361222Y72921D01*
X361206Y72781D01*
X361185Y72641D01*
X361161Y72502D01*
X361133Y72363D01*
X361102Y72226D01*
X361067Y72089D01*
X361029Y71953D01*
X360987Y71818D01*
X360941Y71685D01*
X360892Y71552D01*
X360839Y71421D01*
X360783Y71292D01*
X360724Y71163D01*
X360661Y71037D01*
X360595Y70912D01*
X360526Y70789D01*
X360453Y70668D01*
X360377Y70549D01*
X360298Y70431D01*
X360217Y70316D01*
X360132Y70204D01*
X360044Y70093D01*
X359953Y69985D01*
X359860Y69879D01*
X359763Y69776D01*
X359664Y69675D01*
X352362Y69993D02*
X352262Y69995D01*
X352163Y70001D01*
X352063Y70011D01*
X351965Y70024D01*
X351866Y70042D01*
X351769Y70063D01*
X351673Y70088D01*
X351577Y70117D01*
X351483Y70150D01*
X351390Y70186D01*
X351299Y70226D01*
X351209Y70270D01*
X351121Y70317D01*
X351035Y70367D01*
X350951Y70421D01*
X350869Y70478D01*
X350790Y70538D01*
X350712Y70602D01*
X350638Y70668D01*
X350566Y70737D01*
X350497Y70809D01*
X350431Y70883D01*
X350367Y70961D01*
X350307Y71040D01*
X350250Y71122D01*
X350196Y71206D01*
X350146Y71292D01*
X350099Y71380D01*
X350055Y71470D01*
X350015Y71561D01*
X349979Y71654D01*
X349946Y71748D01*
X349917Y71844D01*
X349892Y71940D01*
X349871Y72037D01*
X349853Y72136D01*
X349840Y72234D01*
X349830Y72334D01*
X349824Y72433D01*
X349822Y72533D01*
X349824Y72666D01*
X349829Y72799D01*
X349839Y72932D01*
X349852Y73065D01*
X349869Y73197D01*
X349889Y73329D01*
X349913Y73460D01*
X349941Y73590D01*
X349972Y73720D01*
X350007Y73848D01*
X350046Y73976D01*
X350088Y74102D01*
X350134Y74227D01*
X350183Y74351D01*
X350235Y74474D01*
X350291Y74595D01*
X350351Y74714D01*
X350413Y74832D01*
X350479Y74947D01*
X350548Y75061D01*
X350621Y75173D01*
X350696Y75283D01*
X350775Y75391D01*
X354585Y71262D02*
X354533Y71178D01*
X354478Y71095D01*
X354419Y71015D01*
X354358Y70937D01*
X354294Y70862D01*
X354226Y70789D01*
X354156Y70718D01*
X354084Y70651D01*
X354009Y70586D01*
X353931Y70524D01*
X353851Y70465D01*
X353769Y70409D01*
X353685Y70357D01*
X353599Y70308D01*
X353511Y70262D01*
X353421Y70219D01*
X353330Y70180D01*
X353237Y70145D01*
X353143Y70113D01*
X353048Y70085D01*
X352952Y70060D01*
X352855Y70040D01*
X352757Y70022D01*
X352659Y70009D01*
X352560Y70000D01*
X352461Y69994D01*
X352362Y69992D01*
X356489Y74755D02*
X356541Y74839D01*
X356596Y74922D01*
X356655Y75002D01*
X356716Y75080D01*
X356780Y75155D01*
X356848Y75228D01*
X356918Y75299D01*
X356990Y75366D01*
X357065Y75431D01*
X357143Y75493D01*
X357223Y75552D01*
X357305Y75608D01*
X357389Y75660D01*
X357475Y75709D01*
X357563Y75755D01*
X357653Y75798D01*
X357744Y75837D01*
X357837Y75872D01*
X357931Y75904D01*
X358026Y75932D01*
X358122Y75957D01*
X358219Y75977D01*
X358317Y75995D01*
X358415Y76008D01*
X358514Y76017D01*
X358613Y76023D01*
X358712Y76025D01*
X356490Y74755D02*
X354585Y71263D01*
X349822Y81105D02*
X361252Y81105D01*
X349822Y81105D02*
X349822Y84280D01*
X349824Y84391D01*
X349830Y84501D01*
X349839Y84612D01*
X349853Y84722D01*
X349870Y84831D01*
X349891Y84940D01*
X349916Y85048D01*
X349945Y85155D01*
X349977Y85261D01*
X350013Y85366D01*
X350053Y85469D01*
X350096Y85571D01*
X350143Y85672D01*
X350194Y85771D01*
X350247Y85868D01*
X350304Y85962D01*
X350365Y86055D01*
X350428Y86146D01*
X350495Y86235D01*
X350565Y86321D01*
X350638Y86404D01*
X350713Y86486D01*
X350791Y86564D01*
X350873Y86639D01*
X350956Y86712D01*
X351042Y86782D01*
X351131Y86849D01*
X351222Y86912D01*
X351315Y86973D01*
X351410Y87030D01*
X351506Y87083D01*
X351605Y87134D01*
X351706Y87181D01*
X351808Y87224D01*
X351911Y87264D01*
X352016Y87300D01*
X352122Y87332D01*
X352229Y87361D01*
X352337Y87386D01*
X352446Y87407D01*
X352555Y87424D01*
X352665Y87438D01*
X352776Y87447D01*
X352886Y87453D01*
X352997Y87455D01*
X358077Y87455D01*
X358188Y87453D01*
X358298Y87447D01*
X358409Y87438D01*
X358519Y87424D01*
X358628Y87407D01*
X358737Y87386D01*
X358845Y87361D01*
X358952Y87332D01*
X359058Y87300D01*
X359163Y87264D01*
X359266Y87224D01*
X359368Y87181D01*
X359469Y87134D01*
X359568Y87083D01*
X359665Y87030D01*
X359759Y86973D01*
X359852Y86912D01*
X359943Y86849D01*
X360032Y86782D01*
X360118Y86712D01*
X360201Y86639D01*
X360283Y86564D01*
X360361Y86486D01*
X360436Y86404D01*
X360509Y86321D01*
X360579Y86235D01*
X360646Y86146D01*
X360709Y86055D01*
X360770Y85962D01*
X360827Y85868D01*
X360880Y85771D01*
X360931Y85672D01*
X360978Y85571D01*
X361021Y85469D01*
X361061Y85366D01*
X361097Y85261D01*
X361129Y85155D01*
X361158Y85048D01*
X361183Y84940D01*
X361204Y84831D01*
X361221Y84722D01*
X361235Y84612D01*
X361244Y84501D01*
X361250Y84391D01*
X361252Y84280D01*
X361252Y81105D01*
X361252Y92281D02*
X349822Y96091D01*
X361252Y99901D01*
X358395Y98949D02*
X358395Y93234D01*
X374968Y78921D02*
X375068Y78919D01*
X375167Y78913D01*
X375267Y78903D01*
X375365Y78890D01*
X375464Y78872D01*
X375561Y78851D01*
X375657Y78826D01*
X375753Y78797D01*
X375847Y78764D01*
X375940Y78728D01*
X376031Y78688D01*
X376121Y78644D01*
X376209Y78597D01*
X376295Y78547D01*
X376379Y78493D01*
X376461Y78436D01*
X376540Y78376D01*
X376618Y78312D01*
X376692Y78246D01*
X376764Y78177D01*
X376833Y78105D01*
X376899Y78031D01*
X376963Y77953D01*
X377023Y77874D01*
X377080Y77792D01*
X377134Y77708D01*
X377184Y77622D01*
X377231Y77534D01*
X377275Y77444D01*
X377315Y77353D01*
X377351Y77260D01*
X377384Y77166D01*
X377413Y77070D01*
X377438Y76974D01*
X377459Y76877D01*
X377477Y76778D01*
X377490Y76680D01*
X377500Y76580D01*
X377506Y76481D01*
X377508Y76381D01*
X377506Y76240D01*
X377501Y76099D01*
X377491Y75958D01*
X377478Y75817D01*
X377462Y75677D01*
X377441Y75537D01*
X377417Y75398D01*
X377389Y75259D01*
X377358Y75122D01*
X377323Y74985D01*
X377285Y74849D01*
X377243Y74714D01*
X377197Y74581D01*
X377148Y74448D01*
X377095Y74317D01*
X377039Y74188D01*
X376980Y74059D01*
X376917Y73933D01*
X376851Y73808D01*
X376782Y73685D01*
X376709Y73564D01*
X376633Y73445D01*
X376554Y73327D01*
X376473Y73212D01*
X376388Y73100D01*
X376300Y72989D01*
X376209Y72881D01*
X376116Y72775D01*
X376019Y72672D01*
X375920Y72571D01*
X368618Y72888D02*
X368518Y72890D01*
X368419Y72896D01*
X368319Y72906D01*
X368221Y72919D01*
X368122Y72937D01*
X368025Y72958D01*
X367929Y72983D01*
X367833Y73012D01*
X367739Y73045D01*
X367646Y73081D01*
X367555Y73121D01*
X367465Y73165D01*
X367377Y73212D01*
X367291Y73262D01*
X367207Y73316D01*
X367125Y73373D01*
X367046Y73433D01*
X366968Y73497D01*
X366894Y73563D01*
X366822Y73632D01*
X366753Y73704D01*
X366687Y73778D01*
X366623Y73856D01*
X366563Y73935D01*
X366506Y74017D01*
X366452Y74101D01*
X366402Y74187D01*
X366355Y74275D01*
X366311Y74365D01*
X366271Y74456D01*
X366235Y74549D01*
X366202Y74643D01*
X366173Y74739D01*
X366148Y74835D01*
X366127Y74932D01*
X366109Y75031D01*
X366096Y75129D01*
X366086Y75229D01*
X366080Y75328D01*
X366078Y75428D01*
X366080Y75561D01*
X366085Y75694D01*
X366095Y75827D01*
X366108Y75960D01*
X366125Y76092D01*
X366145Y76224D01*
X366169Y76355D01*
X366197Y76485D01*
X366228Y76615D01*
X366263Y76743D01*
X366302Y76871D01*
X366344Y76997D01*
X366390Y77122D01*
X366439Y77246D01*
X366491Y77369D01*
X366547Y77490D01*
X366607Y77609D01*
X366669Y77727D01*
X366735Y77842D01*
X366804Y77956D01*
X366877Y78068D01*
X366952Y78178D01*
X367031Y78286D01*
X370841Y74158D02*
X370789Y74074D01*
X370734Y73991D01*
X370675Y73911D01*
X370614Y73833D01*
X370550Y73758D01*
X370482Y73685D01*
X370412Y73614D01*
X370340Y73547D01*
X370265Y73482D01*
X370187Y73420D01*
X370107Y73361D01*
X370025Y73305D01*
X369941Y73253D01*
X369855Y73204D01*
X369767Y73158D01*
X369677Y73115D01*
X369586Y73076D01*
X369493Y73041D01*
X369399Y73009D01*
X369304Y72981D01*
X369208Y72956D01*
X369111Y72936D01*
X369013Y72918D01*
X368915Y72905D01*
X368816Y72896D01*
X368717Y72890D01*
X368618Y72888D01*
X372745Y77651D02*
X372797Y77735D01*
X372852Y77818D01*
X372911Y77898D01*
X372972Y77976D01*
X373036Y78051D01*
X373104Y78124D01*
X373174Y78195D01*
X373246Y78262D01*
X373321Y78327D01*
X373399Y78389D01*
X373479Y78448D01*
X373561Y78504D01*
X373645Y78556D01*
X373731Y78605D01*
X373819Y78651D01*
X373909Y78694D01*
X374000Y78733D01*
X374093Y78768D01*
X374187Y78800D01*
X374282Y78828D01*
X374378Y78853D01*
X374475Y78873D01*
X374573Y78891D01*
X374671Y78904D01*
X374770Y78913D01*
X374869Y78919D01*
X374968Y78921D01*
X372746Y77651D02*
X370841Y74158D01*
X377508Y86122D02*
X377508Y88662D01*
X377508Y86122D02*
X377506Y86022D01*
X377500Y85923D01*
X377490Y85823D01*
X377477Y85725D01*
X377459Y85626D01*
X377438Y85529D01*
X377413Y85433D01*
X377384Y85337D01*
X377351Y85243D01*
X377315Y85150D01*
X377275Y85059D01*
X377231Y84969D01*
X377184Y84881D01*
X377134Y84795D01*
X377080Y84711D01*
X377023Y84629D01*
X376963Y84550D01*
X376899Y84472D01*
X376833Y84398D01*
X376764Y84326D01*
X376692Y84257D01*
X376618Y84191D01*
X376540Y84127D01*
X376461Y84067D01*
X376379Y84010D01*
X376295Y83956D01*
X376209Y83906D01*
X376121Y83859D01*
X376031Y83815D01*
X375940Y83775D01*
X375847Y83739D01*
X375753Y83706D01*
X375657Y83677D01*
X375561Y83652D01*
X375464Y83631D01*
X375365Y83613D01*
X375267Y83600D01*
X375167Y83590D01*
X375068Y83584D01*
X374968Y83582D01*
X368618Y83582D01*
X368518Y83584D01*
X368419Y83590D01*
X368319Y83600D01*
X368221Y83613D01*
X368122Y83631D01*
X368025Y83652D01*
X367929Y83677D01*
X367833Y83706D01*
X367739Y83739D01*
X367646Y83775D01*
X367555Y83815D01*
X367465Y83859D01*
X367377Y83906D01*
X367291Y83956D01*
X367207Y84010D01*
X367125Y84067D01*
X367046Y84127D01*
X366968Y84191D01*
X366894Y84257D01*
X366822Y84326D01*
X366753Y84398D01*
X366687Y84472D01*
X366623Y84550D01*
X366563Y84629D01*
X366506Y84711D01*
X366452Y84795D01*
X366402Y84881D01*
X366355Y84969D01*
X366311Y85059D01*
X366271Y85150D01*
X366235Y85243D01*
X366202Y85337D01*
X366173Y85433D01*
X366148Y85529D01*
X366127Y85626D01*
X366109Y85725D01*
X366096Y85823D01*
X366086Y85923D01*
X366080Y86022D01*
X366078Y86122D01*
X366078Y88662D01*
X366078Y93551D02*
X377508Y93551D01*
X377508Y98631D01*
D12*
X94672Y353441D02*
X94672Y360807D01*
X96718Y360807D01*
X96807Y360805D01*
X96896Y360799D01*
X96985Y360789D01*
X97073Y360776D01*
X97161Y360759D01*
X97248Y360737D01*
X97333Y360712D01*
X97418Y360684D01*
X97501Y360651D01*
X97583Y360615D01*
X97663Y360576D01*
X97741Y360533D01*
X97817Y360487D01*
X97892Y360437D01*
X97964Y360384D01*
X98033Y360328D01*
X98100Y360269D01*
X98165Y360208D01*
X98226Y360143D01*
X98285Y360076D01*
X98341Y360007D01*
X98394Y359935D01*
X98444Y359860D01*
X98490Y359784D01*
X98533Y359706D01*
X98572Y359626D01*
X98608Y359544D01*
X98641Y359461D01*
X98669Y359376D01*
X98694Y359291D01*
X98716Y359204D01*
X98733Y359116D01*
X98746Y359028D01*
X98756Y358939D01*
X98762Y358850D01*
X98764Y358761D01*
X98762Y358672D01*
X98756Y358583D01*
X98746Y358494D01*
X98733Y358406D01*
X98716Y358318D01*
X98694Y358231D01*
X98669Y358146D01*
X98641Y358061D01*
X98608Y357978D01*
X98572Y357896D01*
X98533Y357816D01*
X98490Y357738D01*
X98444Y357662D01*
X98394Y357587D01*
X98341Y357515D01*
X98285Y357446D01*
X98226Y357379D01*
X98165Y357314D01*
X98100Y357253D01*
X98033Y357194D01*
X97964Y357138D01*
X97892Y357085D01*
X97817Y357035D01*
X97741Y356989D01*
X97663Y356946D01*
X97583Y356907D01*
X97501Y356871D01*
X97418Y356838D01*
X97333Y356810D01*
X97248Y356785D01*
X97161Y356763D01*
X97073Y356746D01*
X96985Y356733D01*
X96896Y356723D01*
X96807Y356717D01*
X96718Y356715D01*
X94672Y356715D01*
X97127Y356715D02*
X98764Y353441D01*
X103113Y353441D02*
X106386Y353441D01*
X103113Y353441D02*
X103113Y360807D01*
X106386Y360807D01*
X105568Y357533D02*
X103113Y357533D01*
X113082Y357533D02*
X114309Y357533D01*
X114309Y353441D01*
X111854Y353441D01*
X111776Y353443D01*
X111698Y353448D01*
X111621Y353458D01*
X111544Y353471D01*
X111468Y353487D01*
X111393Y353507D01*
X111319Y353531D01*
X111246Y353558D01*
X111174Y353589D01*
X111104Y353623D01*
X111036Y353660D01*
X110969Y353701D01*
X110904Y353745D01*
X110842Y353791D01*
X110782Y353841D01*
X110724Y353893D01*
X110669Y353948D01*
X110617Y354006D01*
X110567Y354066D01*
X110521Y354128D01*
X110477Y354193D01*
X110436Y354260D01*
X110399Y354328D01*
X110365Y354398D01*
X110334Y354470D01*
X110307Y354543D01*
X110283Y354617D01*
X110263Y354692D01*
X110247Y354768D01*
X110234Y354845D01*
X110224Y354922D01*
X110219Y355000D01*
X110217Y355078D01*
X110217Y359170D01*
X110219Y359250D01*
X110225Y359330D01*
X110235Y359410D01*
X110248Y359489D01*
X110266Y359568D01*
X110287Y359645D01*
X110313Y359721D01*
X110342Y359796D01*
X110374Y359870D01*
X110410Y359942D01*
X110450Y360012D01*
X110493Y360079D01*
X110539Y360145D01*
X110589Y360208D01*
X110641Y360269D01*
X110696Y360328D01*
X110755Y360383D01*
X110815Y360435D01*
X110879Y360485D01*
X110945Y360531D01*
X111012Y360574D01*
X111082Y360614D01*
X111154Y360650D01*
X111228Y360682D01*
X111302Y360711D01*
X111379Y360737D01*
X111456Y360758D01*
X111535Y360776D01*
X111614Y360789D01*
X111694Y360799D01*
X111774Y360805D01*
X111854Y360807D01*
X114309Y360807D01*
X118094Y353850D02*
X118094Y353441D01*
X118094Y353850D02*
X118503Y353850D01*
X118503Y353441D01*
X118094Y353441D01*
X122013Y355487D02*
X122013Y358761D01*
X122015Y358850D01*
X122021Y358939D01*
X122031Y359028D01*
X122044Y359116D01*
X122061Y359204D01*
X122083Y359291D01*
X122108Y359376D01*
X122136Y359461D01*
X122169Y359544D01*
X122205Y359626D01*
X122244Y359706D01*
X122287Y359784D01*
X122333Y359860D01*
X122383Y359935D01*
X122436Y360007D01*
X122492Y360076D01*
X122551Y360143D01*
X122612Y360208D01*
X122677Y360269D01*
X122744Y360328D01*
X122813Y360384D01*
X122885Y360437D01*
X122960Y360487D01*
X123036Y360533D01*
X123114Y360576D01*
X123194Y360615D01*
X123276Y360651D01*
X123359Y360684D01*
X123444Y360712D01*
X123529Y360737D01*
X123616Y360759D01*
X123704Y360776D01*
X123792Y360789D01*
X123881Y360799D01*
X123970Y360805D01*
X124059Y360807D01*
X124148Y360805D01*
X124237Y360799D01*
X124326Y360789D01*
X124414Y360776D01*
X124502Y360759D01*
X124589Y360737D01*
X124674Y360712D01*
X124759Y360684D01*
X124842Y360651D01*
X124924Y360615D01*
X125004Y360576D01*
X125082Y360533D01*
X125158Y360487D01*
X125233Y360437D01*
X125305Y360384D01*
X125374Y360328D01*
X125441Y360269D01*
X125506Y360208D01*
X125567Y360143D01*
X125626Y360076D01*
X125682Y360007D01*
X125735Y359935D01*
X125785Y359860D01*
X125831Y359784D01*
X125874Y359706D01*
X125913Y359626D01*
X125949Y359544D01*
X125982Y359461D01*
X126010Y359376D01*
X126035Y359291D01*
X126057Y359204D01*
X126074Y359116D01*
X126087Y359028D01*
X126097Y358939D01*
X126103Y358850D01*
X126105Y358761D01*
X126105Y355487D01*
X126103Y355398D01*
X126097Y355309D01*
X126087Y355220D01*
X126074Y355132D01*
X126057Y355044D01*
X126035Y354957D01*
X126010Y354872D01*
X125982Y354787D01*
X125949Y354704D01*
X125913Y354622D01*
X125874Y354542D01*
X125831Y354464D01*
X125785Y354388D01*
X125735Y354313D01*
X125682Y354241D01*
X125626Y354172D01*
X125567Y354105D01*
X125506Y354040D01*
X125441Y353979D01*
X125374Y353920D01*
X125305Y353864D01*
X125233Y353811D01*
X125158Y353761D01*
X125082Y353715D01*
X125004Y353672D01*
X124924Y353633D01*
X124842Y353597D01*
X124759Y353564D01*
X124674Y353536D01*
X124589Y353511D01*
X124502Y353489D01*
X124414Y353472D01*
X124326Y353459D01*
X124237Y353449D01*
X124148Y353443D01*
X124059Y353441D01*
X123970Y353443D01*
X123881Y353449D01*
X123792Y353459D01*
X123704Y353472D01*
X123616Y353489D01*
X123529Y353511D01*
X123444Y353536D01*
X123359Y353564D01*
X123276Y353597D01*
X123194Y353633D01*
X123114Y353672D01*
X123036Y353715D01*
X122960Y353761D01*
X122885Y353811D01*
X122813Y353864D01*
X122744Y353920D01*
X122677Y353979D01*
X122612Y354040D01*
X122551Y354105D01*
X122492Y354172D01*
X122436Y354241D01*
X122383Y354313D01*
X122333Y354388D01*
X122287Y354464D01*
X122244Y354542D01*
X122205Y354622D01*
X122169Y354704D01*
X122136Y354787D01*
X122108Y354872D01*
X122083Y354957D01*
X122061Y355044D01*
X122044Y355132D01*
X122031Y355220D01*
X122021Y355309D01*
X122015Y355398D01*
X122013Y355487D01*
X130517Y355487D02*
X130517Y360807D01*
X130517Y355487D02*
X130519Y355398D01*
X130525Y355309D01*
X130535Y355220D01*
X130548Y355132D01*
X130565Y355044D01*
X130587Y354957D01*
X130612Y354872D01*
X130640Y354787D01*
X130673Y354704D01*
X130709Y354622D01*
X130748Y354542D01*
X130791Y354464D01*
X130837Y354388D01*
X130887Y354313D01*
X130940Y354241D01*
X130996Y354172D01*
X131055Y354105D01*
X131116Y354040D01*
X131181Y353979D01*
X131248Y353920D01*
X131317Y353864D01*
X131389Y353811D01*
X131464Y353761D01*
X131540Y353715D01*
X131618Y353672D01*
X131698Y353633D01*
X131780Y353597D01*
X131863Y353564D01*
X131948Y353536D01*
X132033Y353511D01*
X132120Y353489D01*
X132208Y353472D01*
X132296Y353459D01*
X132385Y353449D01*
X132474Y353443D01*
X132563Y353441D01*
X132652Y353443D01*
X132741Y353449D01*
X132830Y353459D01*
X132918Y353472D01*
X133006Y353489D01*
X133093Y353511D01*
X133178Y353536D01*
X133263Y353564D01*
X133346Y353597D01*
X133428Y353633D01*
X133508Y353672D01*
X133586Y353715D01*
X133662Y353761D01*
X133737Y353811D01*
X133809Y353864D01*
X133878Y353920D01*
X133945Y353979D01*
X134010Y354040D01*
X134071Y354105D01*
X134130Y354172D01*
X134186Y354241D01*
X134239Y354313D01*
X134289Y354388D01*
X134335Y354464D01*
X134378Y354542D01*
X134417Y354622D01*
X134453Y354704D01*
X134486Y354787D01*
X134514Y354872D01*
X134539Y354957D01*
X134561Y355044D01*
X134578Y355132D01*
X134591Y355220D01*
X134601Y355309D01*
X134607Y355398D01*
X134609Y355487D01*
X134609Y360807D01*
X140518Y360807D02*
X140518Y353441D01*
X138472Y360807D02*
X142564Y360807D01*
X58801Y318481D02*
X51435Y318481D01*
X51435Y320527D01*
X51437Y320616D01*
X51443Y320705D01*
X51453Y320794D01*
X51466Y320882D01*
X51483Y320970D01*
X51505Y321057D01*
X51530Y321142D01*
X51558Y321227D01*
X51591Y321310D01*
X51627Y321392D01*
X51666Y321472D01*
X51709Y321550D01*
X51755Y321626D01*
X51805Y321701D01*
X51858Y321773D01*
X51914Y321842D01*
X51973Y321909D01*
X52034Y321974D01*
X52099Y322035D01*
X52166Y322094D01*
X52235Y322150D01*
X52307Y322203D01*
X52382Y322253D01*
X52458Y322299D01*
X52536Y322342D01*
X52616Y322381D01*
X52698Y322417D01*
X52781Y322450D01*
X52866Y322478D01*
X52951Y322503D01*
X53038Y322525D01*
X53126Y322542D01*
X53214Y322555D01*
X53303Y322565D01*
X53392Y322571D01*
X53481Y322573D01*
X53570Y322571D01*
X53659Y322565D01*
X53748Y322555D01*
X53836Y322542D01*
X53924Y322525D01*
X54011Y322503D01*
X54096Y322478D01*
X54181Y322450D01*
X54264Y322417D01*
X54346Y322381D01*
X54426Y322342D01*
X54504Y322299D01*
X54580Y322253D01*
X54655Y322203D01*
X54727Y322150D01*
X54796Y322094D01*
X54863Y322035D01*
X54928Y321974D01*
X54989Y321909D01*
X55048Y321842D01*
X55104Y321773D01*
X55157Y321701D01*
X55207Y321626D01*
X55253Y321550D01*
X55296Y321472D01*
X55335Y321392D01*
X55371Y321310D01*
X55404Y321227D01*
X55432Y321142D01*
X55457Y321057D01*
X55479Y320970D01*
X55496Y320882D01*
X55509Y320794D01*
X55519Y320705D01*
X55525Y320616D01*
X55527Y320527D01*
X55527Y318481D01*
X55527Y320937D02*
X58801Y322574D01*
X58801Y326922D02*
X58801Y330196D01*
X58801Y326922D02*
X51435Y326922D01*
X51435Y330196D01*
X54709Y329378D02*
X54709Y326922D01*
X54709Y336891D02*
X54709Y338119D01*
X58801Y338119D01*
X58801Y335664D01*
X58799Y335586D01*
X58794Y335508D01*
X58784Y335431D01*
X58771Y335354D01*
X58755Y335278D01*
X58735Y335203D01*
X58711Y335129D01*
X58684Y335056D01*
X58653Y334984D01*
X58619Y334914D01*
X58582Y334846D01*
X58541Y334779D01*
X58497Y334714D01*
X58451Y334652D01*
X58401Y334592D01*
X58349Y334534D01*
X58294Y334479D01*
X58236Y334427D01*
X58176Y334377D01*
X58114Y334331D01*
X58049Y334287D01*
X57983Y334246D01*
X57914Y334209D01*
X57844Y334175D01*
X57772Y334144D01*
X57699Y334117D01*
X57625Y334093D01*
X57550Y334073D01*
X57474Y334057D01*
X57397Y334044D01*
X57320Y334034D01*
X57242Y334029D01*
X57164Y334027D01*
X53072Y334027D01*
X52992Y334029D01*
X52912Y334035D01*
X52832Y334045D01*
X52753Y334058D01*
X52674Y334076D01*
X52597Y334097D01*
X52521Y334123D01*
X52446Y334152D01*
X52372Y334184D01*
X52300Y334220D01*
X52230Y334260D01*
X52163Y334303D01*
X52097Y334349D01*
X52034Y334399D01*
X51973Y334451D01*
X51914Y334506D01*
X51859Y334565D01*
X51807Y334625D01*
X51757Y334689D01*
X51711Y334754D01*
X51668Y334822D01*
X51628Y334892D01*
X51592Y334964D01*
X51560Y335038D01*
X51531Y335112D01*
X51506Y335189D01*
X51484Y335266D01*
X51466Y335345D01*
X51453Y335424D01*
X51443Y335503D01*
X51437Y335584D01*
X51435Y335664D01*
X51435Y338119D01*
X58392Y341903D02*
X58801Y341903D01*
X58392Y341903D02*
X58392Y342312D01*
X58801Y342312D01*
X58801Y341903D01*
X58801Y346223D02*
X51435Y346223D01*
X58801Y345404D02*
X58801Y347041D01*
X51435Y347041D02*
X51435Y345404D01*
X51435Y351034D02*
X58801Y351034D01*
X58801Y355127D02*
X51435Y351034D01*
X51435Y355127D02*
X58801Y355127D01*
D17*
X91285Y197612D02*
X91285Y185928D01*
X91285Y197612D02*
X94530Y197612D01*
X94643Y197610D01*
X94756Y197604D01*
X94869Y197594D01*
X94982Y197580D01*
X95094Y197563D01*
X95205Y197541D01*
X95315Y197516D01*
X95425Y197486D01*
X95533Y197453D01*
X95640Y197416D01*
X95746Y197376D01*
X95850Y197331D01*
X95953Y197283D01*
X96054Y197232D01*
X96153Y197177D01*
X96250Y197119D01*
X96345Y197057D01*
X96438Y196992D01*
X96528Y196924D01*
X96616Y196853D01*
X96702Y196778D01*
X96785Y196701D01*
X96865Y196621D01*
X96942Y196538D01*
X97017Y196452D01*
X97088Y196364D01*
X97156Y196274D01*
X97221Y196181D01*
X97283Y196086D01*
X97341Y195989D01*
X97396Y195890D01*
X97447Y195789D01*
X97495Y195686D01*
X97540Y195582D01*
X97580Y195476D01*
X97617Y195369D01*
X97650Y195261D01*
X97680Y195151D01*
X97705Y195041D01*
X97727Y194930D01*
X97744Y194818D01*
X97758Y194705D01*
X97768Y194592D01*
X97774Y194479D01*
X97776Y194366D01*
X97776Y189174D01*
X97774Y189061D01*
X97768Y188948D01*
X97758Y188835D01*
X97744Y188722D01*
X97727Y188610D01*
X97705Y188499D01*
X97680Y188389D01*
X97650Y188279D01*
X97617Y188171D01*
X97580Y188064D01*
X97540Y187958D01*
X97495Y187854D01*
X97447Y187751D01*
X97396Y187650D01*
X97341Y187551D01*
X97283Y187454D01*
X97221Y187359D01*
X97156Y187266D01*
X97088Y187176D01*
X97017Y187088D01*
X96942Y187002D01*
X96865Y186919D01*
X96785Y186839D01*
X96702Y186762D01*
X96616Y186687D01*
X96528Y186616D01*
X96438Y186548D01*
X96345Y186483D01*
X96250Y186421D01*
X96153Y186363D01*
X96054Y186308D01*
X95953Y186257D01*
X95850Y186209D01*
X95746Y186164D01*
X95640Y186124D01*
X95533Y186087D01*
X95425Y186054D01*
X95315Y186024D01*
X95205Y185999D01*
X95094Y185977D01*
X94982Y185960D01*
X94869Y185946D01*
X94756Y185936D01*
X94643Y185930D01*
X94530Y185928D01*
X91285Y185928D01*
X105579Y185928D02*
X105579Y197612D01*
X102334Y197612D02*
X108825Y197612D01*
X113456Y197612D02*
X113456Y185928D01*
X113456Y197612D02*
X116702Y197612D01*
X116815Y197610D01*
X116928Y197604D01*
X117041Y197594D01*
X117154Y197580D01*
X117266Y197563D01*
X117377Y197541D01*
X117487Y197516D01*
X117597Y197486D01*
X117705Y197453D01*
X117812Y197416D01*
X117918Y197376D01*
X118022Y197331D01*
X118125Y197283D01*
X118226Y197232D01*
X118325Y197177D01*
X118422Y197119D01*
X118517Y197057D01*
X118610Y196992D01*
X118700Y196924D01*
X118788Y196853D01*
X118874Y196778D01*
X118957Y196701D01*
X119037Y196621D01*
X119114Y196538D01*
X119189Y196452D01*
X119260Y196364D01*
X119328Y196274D01*
X119393Y196181D01*
X119455Y196086D01*
X119513Y195989D01*
X119568Y195890D01*
X119619Y195789D01*
X119667Y195686D01*
X119712Y195582D01*
X119752Y195476D01*
X119789Y195369D01*
X119822Y195261D01*
X119852Y195151D01*
X119877Y195041D01*
X119899Y194930D01*
X119916Y194818D01*
X119930Y194705D01*
X119940Y194592D01*
X119946Y194479D01*
X119948Y194366D01*
X119946Y194253D01*
X119940Y194140D01*
X119930Y194027D01*
X119916Y193914D01*
X119899Y193802D01*
X119877Y193691D01*
X119852Y193581D01*
X119822Y193471D01*
X119789Y193363D01*
X119752Y193256D01*
X119712Y193150D01*
X119667Y193046D01*
X119619Y192943D01*
X119568Y192842D01*
X119513Y192743D01*
X119455Y192646D01*
X119393Y192551D01*
X119328Y192458D01*
X119260Y192368D01*
X119189Y192280D01*
X119114Y192194D01*
X119037Y192111D01*
X118957Y192031D01*
X118874Y191954D01*
X118788Y191879D01*
X118700Y191808D01*
X118610Y191740D01*
X118517Y191675D01*
X118422Y191613D01*
X118325Y191555D01*
X118226Y191500D01*
X118125Y191449D01*
X118022Y191401D01*
X117918Y191356D01*
X117812Y191316D01*
X117705Y191279D01*
X117597Y191246D01*
X117487Y191216D01*
X117377Y191191D01*
X117266Y191169D01*
X117154Y191152D01*
X117041Y191138D01*
X116928Y191128D01*
X116815Y191122D01*
X116702Y191120D01*
X116702Y191121D02*
X113456Y191121D01*
X117351Y191121D02*
X119948Y185928D01*
X124305Y185928D02*
X124305Y186577D01*
X124954Y186577D01*
X124954Y185928D01*
X124305Y185928D01*
X132898Y185928D02*
X132997Y185930D01*
X133097Y185936D01*
X133196Y185945D01*
X133294Y185958D01*
X133392Y185975D01*
X133490Y185996D01*
X133586Y186021D01*
X133681Y186049D01*
X133775Y186081D01*
X133868Y186116D01*
X133960Y186155D01*
X134050Y186198D01*
X134138Y186243D01*
X134225Y186293D01*
X134309Y186345D01*
X134392Y186401D01*
X134472Y186459D01*
X134550Y186521D01*
X134625Y186586D01*
X134698Y186654D01*
X134768Y186724D01*
X134836Y186797D01*
X134901Y186872D01*
X134963Y186950D01*
X135021Y187030D01*
X135077Y187113D01*
X135129Y187197D01*
X135179Y187284D01*
X135224Y187372D01*
X135267Y187462D01*
X135306Y187554D01*
X135341Y187647D01*
X135373Y187741D01*
X135401Y187836D01*
X135426Y187932D01*
X135447Y188030D01*
X135464Y188128D01*
X135477Y188226D01*
X135486Y188325D01*
X135492Y188425D01*
X135494Y188524D01*
X132898Y185928D02*
X132754Y185930D01*
X132609Y185936D01*
X132465Y185945D01*
X132322Y185958D01*
X132178Y185975D01*
X132035Y185996D01*
X131893Y186021D01*
X131752Y186049D01*
X131611Y186081D01*
X131471Y186117D01*
X131332Y186156D01*
X131194Y186199D01*
X131058Y186246D01*
X130922Y186296D01*
X130788Y186350D01*
X130656Y186407D01*
X130525Y186468D01*
X130396Y186532D01*
X130268Y186600D01*
X130142Y186670D01*
X130018Y186745D01*
X129897Y186822D01*
X129777Y186903D01*
X129659Y186986D01*
X129544Y187073D01*
X129431Y187163D01*
X129320Y187256D01*
X129212Y187351D01*
X129106Y187450D01*
X129003Y187551D01*
X129329Y195016D02*
X129331Y195115D01*
X129337Y195215D01*
X129346Y195314D01*
X129359Y195412D01*
X129376Y195510D01*
X129397Y195608D01*
X129422Y195704D01*
X129450Y195799D01*
X129482Y195893D01*
X129517Y195986D01*
X129556Y196078D01*
X129599Y196168D01*
X129644Y196256D01*
X129694Y196343D01*
X129746Y196427D01*
X129802Y196510D01*
X129860Y196590D01*
X129922Y196668D01*
X129987Y196743D01*
X130055Y196816D01*
X130125Y196886D01*
X130198Y196954D01*
X130273Y197019D01*
X130351Y197081D01*
X130431Y197139D01*
X130514Y197195D01*
X130598Y197247D01*
X130685Y197297D01*
X130773Y197342D01*
X130863Y197385D01*
X130955Y197424D01*
X131048Y197459D01*
X131142Y197491D01*
X131237Y197519D01*
X131334Y197544D01*
X131431Y197565D01*
X131529Y197582D01*
X131627Y197595D01*
X131726Y197604D01*
X131826Y197610D01*
X131925Y197612D01*
X132061Y197610D01*
X132197Y197604D01*
X132333Y197595D01*
X132469Y197582D01*
X132604Y197564D01*
X132738Y197544D01*
X132872Y197519D01*
X133006Y197491D01*
X133138Y197458D01*
X133269Y197423D01*
X133400Y197383D01*
X133529Y197340D01*
X133657Y197294D01*
X133783Y197243D01*
X133909Y197190D01*
X134032Y197132D01*
X134154Y197072D01*
X134274Y197008D01*
X134393Y196940D01*
X134509Y196870D01*
X134623Y196796D01*
X134736Y196719D01*
X134846Y196638D01*
X130626Y192744D02*
X130540Y192797D01*
X130456Y192854D01*
X130374Y192913D01*
X130294Y192976D01*
X130217Y193042D01*
X130142Y193110D01*
X130070Y193182D01*
X130001Y193256D01*
X129935Y193333D01*
X129872Y193412D01*
X129812Y193494D01*
X129755Y193578D01*
X129701Y193664D01*
X129651Y193752D01*
X129604Y193842D01*
X129560Y193933D01*
X129521Y194027D01*
X129484Y194121D01*
X129452Y194217D01*
X129423Y194315D01*
X129398Y194413D01*
X129377Y194512D01*
X129359Y194612D01*
X129346Y194712D01*
X129336Y194813D01*
X129330Y194915D01*
X129328Y195016D01*
X134197Y190796D02*
X134283Y190743D01*
X134367Y190686D01*
X134449Y190627D01*
X134529Y190564D01*
X134606Y190498D01*
X134681Y190430D01*
X134753Y190358D01*
X134822Y190284D01*
X134888Y190207D01*
X134951Y190128D01*
X135011Y190046D01*
X135068Y189962D01*
X135122Y189876D01*
X135172Y189788D01*
X135219Y189698D01*
X135263Y189607D01*
X135302Y189513D01*
X135339Y189419D01*
X135371Y189323D01*
X135400Y189225D01*
X135425Y189127D01*
X135446Y189028D01*
X135464Y188928D01*
X135477Y188828D01*
X135487Y188727D01*
X135493Y188625D01*
X135495Y188524D01*
X134197Y190796D02*
X130627Y192744D01*
X139629Y197612D02*
X142226Y185928D01*
X144822Y193717D01*
X147419Y185928D01*
X150015Y197612D01*
D19*
X341122Y338817D02*
X345468Y338817D01*
X345468Y338818D02*
X345538Y338816D01*
X345607Y338810D01*
X345676Y338800D01*
X345744Y338787D01*
X345812Y338769D01*
X345878Y338748D01*
X345943Y338723D01*
X346007Y338695D01*
X346069Y338663D01*
X346129Y338628D01*
X346187Y338589D01*
X346242Y338547D01*
X346296Y338502D01*
X346346Y338454D01*
X346394Y338404D01*
X346439Y338350D01*
X346481Y338295D01*
X346520Y338237D01*
X346555Y338177D01*
X346587Y338115D01*
X346615Y338051D01*
X346640Y337986D01*
X346661Y337920D01*
X346679Y337852D01*
X346692Y337784D01*
X346702Y337715D01*
X346708Y337646D01*
X346710Y337576D01*
X346710Y336955D01*
X346710Y341625D02*
X341122Y341625D01*
X341122Y343177D01*
X341124Y343254D01*
X341130Y343332D01*
X341139Y343408D01*
X341153Y343485D01*
X341170Y343560D01*
X341191Y343634D01*
X341216Y343708D01*
X341244Y343780D01*
X341276Y343850D01*
X341311Y343919D01*
X341350Y343986D01*
X341392Y344051D01*
X341437Y344114D01*
X341485Y344175D01*
X341536Y344233D01*
X341590Y344288D01*
X341647Y344341D01*
X341706Y344390D01*
X341768Y344437D01*
X341832Y344481D01*
X341898Y344521D01*
X341966Y344558D01*
X342036Y344592D01*
X342107Y344622D01*
X342180Y344648D01*
X342254Y344671D01*
X342329Y344690D01*
X342404Y344705D01*
X342481Y344717D01*
X342558Y344725D01*
X342635Y344729D01*
X342713Y344729D01*
X342790Y344725D01*
X342867Y344717D01*
X342944Y344705D01*
X343019Y344690D01*
X343094Y344671D01*
X343168Y344648D01*
X343241Y344622D01*
X343312Y344592D01*
X343382Y344558D01*
X343450Y344521D01*
X343516Y344481D01*
X343580Y344437D01*
X343642Y344390D01*
X343701Y344341D01*
X343758Y344288D01*
X343812Y344233D01*
X343863Y344175D01*
X343911Y344114D01*
X343956Y344051D01*
X343998Y343986D01*
X344037Y343919D01*
X344072Y343850D01*
X344104Y343780D01*
X344132Y343708D01*
X344157Y343634D01*
X344178Y343560D01*
X344195Y343485D01*
X344209Y343408D01*
X344218Y343332D01*
X344224Y343254D01*
X344226Y343177D01*
X344226Y341625D01*
X346400Y346597D02*
X346710Y346597D01*
X346400Y346597D02*
X346400Y346907D01*
X346710Y346907D01*
X346710Y346597D01*
X346710Y349306D02*
X341122Y349306D01*
X341122Y350858D01*
X341124Y350935D01*
X341130Y351013D01*
X341139Y351089D01*
X341153Y351166D01*
X341170Y351241D01*
X341191Y351315D01*
X341216Y351389D01*
X341244Y351461D01*
X341276Y351531D01*
X341311Y351600D01*
X341350Y351667D01*
X341392Y351732D01*
X341437Y351795D01*
X341485Y351856D01*
X341536Y351914D01*
X341590Y351969D01*
X341647Y352022D01*
X341706Y352071D01*
X341768Y352118D01*
X341832Y352162D01*
X341898Y352202D01*
X341966Y352239D01*
X342036Y352273D01*
X342107Y352303D01*
X342180Y352329D01*
X342254Y352352D01*
X342329Y352371D01*
X342404Y352386D01*
X342481Y352398D01*
X342558Y352406D01*
X342635Y352410D01*
X342713Y352410D01*
X342790Y352406D01*
X342867Y352398D01*
X342944Y352386D01*
X343019Y352371D01*
X343094Y352352D01*
X343168Y352329D01*
X343241Y352303D01*
X343312Y352273D01*
X343382Y352239D01*
X343450Y352202D01*
X343516Y352162D01*
X343580Y352118D01*
X343642Y352071D01*
X343701Y352022D01*
X343758Y351969D01*
X343812Y351914D01*
X343863Y351856D01*
X343911Y351795D01*
X343956Y351732D01*
X343998Y351667D01*
X344037Y351600D01*
X344072Y351531D01*
X344104Y351461D01*
X344132Y351389D01*
X344157Y351315D01*
X344178Y351241D01*
X344195Y351166D01*
X344209Y351089D01*
X344218Y351013D01*
X344224Y350935D01*
X344226Y350858D01*
X344226Y349306D01*
X346710Y354745D02*
X341122Y354745D01*
X341122Y356298D01*
X341124Y356375D01*
X341130Y356453D01*
X341139Y356529D01*
X341153Y356606D01*
X341170Y356681D01*
X341191Y356755D01*
X341216Y356829D01*
X341244Y356901D01*
X341276Y356971D01*
X341311Y357040D01*
X341350Y357107D01*
X341392Y357172D01*
X341437Y357235D01*
X341485Y357296D01*
X341536Y357354D01*
X341590Y357409D01*
X341647Y357462D01*
X341706Y357511D01*
X341768Y357558D01*
X341832Y357602D01*
X341898Y357642D01*
X341966Y357679D01*
X342036Y357713D01*
X342107Y357743D01*
X342180Y357769D01*
X342254Y357792D01*
X342329Y357811D01*
X342404Y357826D01*
X342481Y357838D01*
X342558Y357846D01*
X342635Y357850D01*
X342713Y357850D01*
X342790Y357846D01*
X342867Y357838D01*
X342944Y357826D01*
X343019Y357811D01*
X343094Y357792D01*
X343168Y357769D01*
X343241Y357743D01*
X343312Y357713D01*
X343382Y357679D01*
X343450Y357642D01*
X343516Y357602D01*
X343580Y357558D01*
X343642Y357511D01*
X343701Y357462D01*
X343758Y357409D01*
X343812Y357354D01*
X343863Y357296D01*
X343911Y357235D01*
X343956Y357172D01*
X343998Y357107D01*
X344037Y357040D01*
X344072Y356971D01*
X344104Y356901D01*
X344132Y356829D01*
X344157Y356755D01*
X344178Y356681D01*
X344195Y356606D01*
X344209Y356529D01*
X344218Y356453D01*
X344224Y356375D01*
X344226Y356298D01*
X344226Y354745D01*
X344226Y356608D02*
X346710Y357850D01*
X345158Y360196D02*
X342674Y360196D01*
X342597Y360198D01*
X342519Y360204D01*
X342443Y360213D01*
X342366Y360227D01*
X342291Y360244D01*
X342217Y360265D01*
X342143Y360290D01*
X342071Y360318D01*
X342001Y360350D01*
X341932Y360385D01*
X341865Y360424D01*
X341800Y360466D01*
X341737Y360511D01*
X341676Y360559D01*
X341618Y360610D01*
X341563Y360664D01*
X341510Y360721D01*
X341461Y360780D01*
X341414Y360842D01*
X341370Y360906D01*
X341330Y360972D01*
X341293Y361040D01*
X341259Y361110D01*
X341229Y361181D01*
X341203Y361254D01*
X341180Y361328D01*
X341161Y361403D01*
X341146Y361478D01*
X341134Y361555D01*
X341126Y361632D01*
X341122Y361709D01*
X341122Y361787D01*
X341126Y361864D01*
X341134Y361941D01*
X341146Y362018D01*
X341161Y362093D01*
X341180Y362168D01*
X341203Y362242D01*
X341229Y362315D01*
X341259Y362386D01*
X341293Y362456D01*
X341330Y362524D01*
X341370Y362590D01*
X341414Y362654D01*
X341461Y362716D01*
X341510Y362775D01*
X341563Y362832D01*
X341618Y362886D01*
X341676Y362937D01*
X341737Y362985D01*
X341800Y363030D01*
X341865Y363072D01*
X341932Y363111D01*
X342001Y363146D01*
X342071Y363178D01*
X342143Y363206D01*
X342217Y363231D01*
X342291Y363252D01*
X342366Y363269D01*
X342443Y363283D01*
X342519Y363292D01*
X342597Y363298D01*
X342674Y363300D01*
X345158Y363300D01*
X345235Y363298D01*
X345313Y363292D01*
X345389Y363283D01*
X345466Y363269D01*
X345541Y363252D01*
X345615Y363231D01*
X345689Y363206D01*
X345761Y363178D01*
X345831Y363146D01*
X345900Y363111D01*
X345967Y363072D01*
X346032Y363030D01*
X346095Y362985D01*
X346156Y362937D01*
X346214Y362886D01*
X346269Y362832D01*
X346322Y362775D01*
X346371Y362716D01*
X346418Y362654D01*
X346462Y362590D01*
X346502Y362524D01*
X346539Y362456D01*
X346573Y362386D01*
X346603Y362315D01*
X346629Y362242D01*
X346652Y362168D01*
X346671Y362093D01*
X346686Y362018D01*
X346698Y361941D01*
X346706Y361864D01*
X346710Y361787D01*
X346710Y361709D01*
X346706Y361632D01*
X346698Y361555D01*
X346686Y361478D01*
X346671Y361403D01*
X346652Y361328D01*
X346629Y361254D01*
X346603Y361181D01*
X346573Y361110D01*
X346539Y361040D01*
X346502Y360972D01*
X346462Y360906D01*
X346418Y360842D01*
X346371Y360780D01*
X346322Y360721D01*
X346269Y360664D01*
X346214Y360610D01*
X346156Y360559D01*
X346095Y360511D01*
X346032Y360466D01*
X345967Y360424D01*
X345900Y360385D01*
X345831Y360350D01*
X345761Y360318D01*
X345689Y360290D01*
X345615Y360265D01*
X345541Y360244D01*
X345466Y360227D01*
X345389Y360213D01*
X345313Y360204D01*
X345235Y360198D01*
X345158Y360196D01*
X346710Y366908D02*
X346710Y368149D01*
X346710Y366908D02*
X346708Y366838D01*
X346702Y366769D01*
X346692Y366700D01*
X346679Y366632D01*
X346661Y366564D01*
X346640Y366498D01*
X346615Y366433D01*
X346587Y366369D01*
X346555Y366307D01*
X346520Y366247D01*
X346481Y366189D01*
X346439Y366134D01*
X346394Y366080D01*
X346346Y366030D01*
X346296Y365982D01*
X346242Y365937D01*
X346187Y365895D01*
X346129Y365856D01*
X346069Y365821D01*
X346007Y365789D01*
X345943Y365761D01*
X345878Y365736D01*
X345812Y365715D01*
X345744Y365697D01*
X345676Y365684D01*
X345607Y365674D01*
X345538Y365668D01*
X345468Y365666D01*
X342364Y365666D01*
X342294Y365668D01*
X342225Y365674D01*
X342156Y365684D01*
X342088Y365697D01*
X342020Y365715D01*
X341954Y365736D01*
X341889Y365761D01*
X341825Y365789D01*
X341763Y365821D01*
X341703Y365856D01*
X341645Y365895D01*
X341590Y365937D01*
X341536Y365982D01*
X341486Y366030D01*
X341438Y366080D01*
X341393Y366134D01*
X341351Y366189D01*
X341312Y366247D01*
X341277Y366307D01*
X341245Y366369D01*
X341217Y366433D01*
X341192Y366498D01*
X341171Y366564D01*
X341153Y366632D01*
X341140Y366700D01*
X341130Y366769D01*
X341124Y366838D01*
X341122Y366908D01*
X341122Y368149D01*
D20*
X119634Y417068D02*
X95250Y417068D01*
X95250Y412750D01*
X95250Y395732D02*
X119634Y395732D01*
X119634Y398780D01*
X119634Y414020D02*
X119634Y417068D01*
X95250Y400050D02*
X95250Y395732D01*
D21*
X0Y19050D02*
X73Y17390D01*
X289Y15742D01*
X649Y14120D01*
X1149Y12535D01*
X1785Y10999D01*
X2552Y9525D01*
X3445Y8123D01*
X4457Y6805D01*
X5580Y5580D01*
X6805Y4457D01*
X8123Y3445D01*
X9525Y2552D01*
X10999Y1785D01*
X12535Y1149D01*
X14120Y649D01*
X15742Y289D01*
X17390Y73D01*
X19050Y0D01*
X361950Y0D01*
X363610Y73D01*
X365258Y289D01*
X366881Y649D01*
X368465Y1149D01*
X370001Y1785D01*
X371475Y2552D01*
X372877Y3445D01*
X374195Y4457D01*
X375420Y5580D01*
X376543Y6805D01*
X377555Y8123D01*
X378448Y9525D01*
X379215Y10999D01*
X379851Y12535D01*
X380351Y14120D01*
X380711Y15742D01*
X380928Y17390D01*
X381000Y19050D01*
X381000Y444500D01*
X381192Y446449D01*
X381214Y448408D01*
X381064Y450360D01*
X380746Y452293D01*
X380260Y454190D01*
X379610Y456038D01*
X378802Y457822D01*
X377841Y459529D01*
X376736Y461145D01*
X375493Y462660D01*
X374124Y464060D01*
X372637Y465335D01*
X371045Y466476D01*
X369360Y467474D01*
X367594Y468321D01*
X365761Y469011D01*
X363875Y469539D01*
X361950Y469900D01*
X25400Y469900D01*
X23186Y469803D01*
X20989Y469514D01*
X18826Y469035D01*
X16713Y468368D01*
X14666Y467520D01*
X12700Y466497D01*
X10831Y465306D01*
X9073Y463958D01*
X7440Y462461D01*
X5942Y460827D01*
X4594Y459069D01*
X3403Y457200D01*
X2380Y455235D01*
X1532Y453187D01*
X865Y451074D01*
X386Y448911D01*
X97Y446714D01*
X0Y444500D01*
X0Y19050D01*
M02*
