G04 EAGLE Gerber RS-274X export*
G75*
%MOMM*%
%FSLAX34Y34*%
%LPD*%
%INSoldermask Bottom*%
%IPPOS*%
%AMOC8*
5,1,8,0,0,1.08239X$1,22.5*%
G01*
%ADD10C,3.124200*%
%ADD11R,1.653200X1.353200*%
%ADD12R,0.823200X0.823200*%
%ADD13R,1.353200X1.653200*%
%ADD14C,1.193800*%
%ADD15C,2.578100*%
%ADD16R,0.246381X0.787400*%
%ADD17R,9.937600X0.812800*%
%ADD18R,1.168400X3.606800*%
%ADD19R,0.703200X0.703200*%
%ADD20R,1.003200X1.003200*%
%ADD21C,1.103200*%
%ADD22C,1.153200*%
%ADD23C,0.304800*%
%ADD24C,0.292100*%
%ADD25C,0.325000*%
%ADD26R,1.203200X1.203200*%
%ADD27R,1.016000X2.870200*%
%ADD28R,0.803200X0.653200*%
%ADD29R,2.003200X2.803200*%
%ADD30R,0.753200X1.203200*%
%ADD31R,4.775200X4.013200*%
%ADD32C,0.606400*%
%ADD33C,0.254000*%


D10*
X31750Y31750D03*
X349250Y31750D03*
X349250Y438150D03*
X31750Y438150D03*
D11*
X204216Y315866D03*
X204216Y333866D03*
D12*
X217932Y199572D03*
X217932Y190572D03*
X318262Y220544D03*
X318262Y229544D03*
X41656Y76272D03*
X41656Y85272D03*
X220218Y313508D03*
X220218Y322508D03*
X83130Y394462D03*
X92130Y394462D03*
X67746Y372872D03*
X58746Y372872D03*
X122428Y288362D03*
X122428Y297362D03*
X152400Y288362D03*
X152400Y297362D03*
X330200Y220544D03*
X330200Y229544D03*
X330200Y208208D03*
X330200Y199208D03*
X227838Y199572D03*
X227838Y190572D03*
X318008Y207954D03*
X318008Y198954D03*
X212780Y211074D03*
X203780Y211074D03*
X106426Y349322D03*
X106426Y358322D03*
D13*
X54720Y323596D03*
X36720Y323596D03*
D14*
X46736Y187706D03*
X56886Y136906D03*
X36586Y136906D03*
D15*
X72136Y187706D03*
X72136Y155956D03*
X21336Y155956D03*
X21336Y187706D03*
D16*
X207906Y434467D03*
X203906Y434467D03*
X199906Y434467D03*
X195906Y434467D03*
X191906Y434467D03*
X187906Y434467D03*
X183906Y434467D03*
X179906Y434467D03*
X175906Y434467D03*
X171906Y434467D03*
X167906Y434467D03*
X251906Y434467D03*
X247906Y434467D03*
X243906Y434467D03*
X239906Y434467D03*
X235906Y434467D03*
X231906Y434467D03*
X227906Y434467D03*
X223906Y434467D03*
X219906Y434467D03*
X215906Y434467D03*
X211906Y434467D03*
X203906Y403733D03*
X199906Y403733D03*
X195906Y403733D03*
X191906Y403733D03*
X187906Y403733D03*
X183906Y403733D03*
X179906Y403733D03*
X175906Y403733D03*
X171906Y403733D03*
X167906Y403733D03*
X251906Y403733D03*
X247906Y403733D03*
X243906Y403733D03*
X239906Y403733D03*
X235906Y403733D03*
X231906Y403733D03*
X227906Y403733D03*
X223906Y403733D03*
X219906Y403733D03*
X215906Y403733D03*
X211906Y403733D03*
X207906Y403733D03*
D17*
X215900Y434340D03*
X215900Y403860D03*
D16*
X263906Y434467D03*
X259906Y434467D03*
X255906Y434467D03*
X263906Y403733D03*
X259906Y403733D03*
X255906Y403733D03*
D18*
X97409Y295148D03*
X73787Y295148D03*
D19*
X42744Y99314D03*
X51744Y99314D03*
X21010Y110490D03*
X12010Y110490D03*
X49204Y209296D03*
X40204Y209296D03*
X42092Y110236D03*
X33092Y110236D03*
D20*
X96386Y199136D03*
X111386Y199136D03*
D21*
X7764Y85852D03*
X25764Y85852D03*
D22*
X24892Y340854D03*
X24892Y370854D03*
D23*
X91122Y327248D03*
X91122Y331248D03*
X91122Y335248D03*
X91122Y339248D03*
X87122Y327248D03*
X87122Y331248D03*
X87122Y335248D03*
X87122Y339248D03*
X83122Y327248D03*
X83122Y331248D03*
X83122Y335248D03*
X83122Y339248D03*
D24*
X88392Y378206D03*
X92392Y382206D03*
X88392Y382206D03*
X92392Y378206D03*
X84392Y382206D03*
X92392Y374206D03*
X84392Y374206D03*
X84392Y378206D03*
X88392Y374206D03*
D25*
X140676Y288624D03*
X135676Y288624D03*
X140676Y293624D03*
X135676Y293624D03*
X140676Y298624D03*
X135676Y298624D03*
D26*
X225044Y337820D03*
D27*
X195502Y290576D03*
X217502Y290576D03*
D28*
X104864Y370738D03*
X104864Y380238D03*
X104864Y389738D03*
X131864Y389738D03*
X131864Y380238D03*
X131864Y370738D03*
D29*
X118364Y380238D03*
D30*
X76200Y100960D03*
X88900Y100960D03*
X101600Y100960D03*
X114300Y100960D03*
X114300Y26040D03*
X101600Y26040D03*
X88900Y26040D03*
X76200Y26040D03*
D31*
X95250Y63500D03*
D12*
X122500Y165100D03*
X131500Y165100D03*
D25*
X64048Y392858D03*
X69048Y392858D03*
X64048Y387858D03*
X69048Y387858D03*
X64048Y382858D03*
X69048Y382858D03*
D12*
X50800Y389200D03*
X50800Y398200D03*
D32*
X85598Y316484D03*
X87122Y353060D03*
X162052Y432562D03*
X209788Y191639D03*
X311150Y107950D03*
X311150Y69850D03*
X336550Y69850D03*
X336550Y107950D03*
X285750Y107950D03*
X285750Y69850D03*
X285750Y38100D03*
X311150Y38100D03*
X260350Y38100D03*
X234950Y38100D03*
X209550Y38100D03*
X177800Y38100D03*
X152400Y38100D03*
X95250Y38100D03*
X82550Y19050D03*
X120650Y19050D03*
X152400Y19050D03*
X209550Y19050D03*
X234950Y19050D03*
X260350Y19050D03*
X311150Y6350D03*
X368300Y69850D03*
X361950Y88900D03*
X336550Y139700D03*
X311150Y139700D03*
X285750Y139700D03*
X311150Y171450D03*
X336550Y171450D03*
X311150Y203200D03*
X311150Y234950D03*
X311150Y260350D03*
X311150Y285750D03*
X311150Y317500D03*
X311150Y349250D03*
X311150Y381000D03*
X285750Y381000D03*
X285750Y349250D03*
X285750Y317500D03*
X285750Y285750D03*
X285750Y260350D03*
X285750Y234950D03*
X336550Y285750D03*
X336550Y317500D03*
X336550Y349250D03*
X336550Y381000D03*
X368300Y381000D03*
X279400Y457200D03*
X234950Y457200D03*
X196850Y457200D03*
X158750Y457200D03*
X120650Y457200D03*
X82550Y457200D03*
X158750Y425450D03*
X158750Y381000D03*
X158750Y349250D03*
X158750Y317500D03*
X127000Y317500D03*
X25400Y304800D03*
X12700Y304800D03*
X12700Y355600D03*
X285750Y412750D03*
X190500Y361950D03*
X190500Y336550D03*
X190500Y311150D03*
X165100Y254000D03*
X101600Y254000D03*
X101600Y234950D03*
X82550Y228600D03*
X69850Y228600D03*
X57150Y228600D03*
X38100Y234950D03*
X38100Y247650D03*
X38100Y260350D03*
X38100Y273050D03*
X19050Y260350D03*
X19050Y234950D03*
X69850Y209550D03*
X12700Y209550D03*
X19050Y133350D03*
X76200Y133350D03*
X63500Y76200D03*
X133350Y76200D03*
X133350Y57150D03*
X152400Y107950D03*
X139700Y120650D03*
X263144Y72644D03*
X221996Y113792D03*
X203200Y119888D03*
X184150Y131318D03*
X152400Y137668D03*
X154178Y160528D03*
X165100Y196850D03*
X221234Y183642D03*
X240284Y185166D03*
X216408Y220980D03*
X190500Y260350D03*
X242062Y418592D03*
X262382Y422656D03*
X176022Y416814D03*
X85344Y416306D03*
X173736Y166116D03*
X249428Y121158D03*
X342900Y247650D03*
X218186Y273558D03*
X211074Y272542D03*
X337312Y206756D03*
X205486Y203200D03*
X63500Y25400D03*
X49604Y5154D03*
X84002Y387062D03*
X53271Y16510D03*
X96266Y386842D03*
X97282Y377952D03*
X66802Y365252D03*
X54610Y336550D03*
X185633Y393700D03*
X361950Y393700D03*
X95250Y209550D03*
X126492Y414274D03*
X114300Y448564D03*
X95250Y357378D03*
X161290Y400050D03*
X44450Y304800D03*
X76200Y419100D03*
X44450Y368300D03*
X158750Y406400D03*
X120904Y281686D03*
X336550Y215900D03*
X355600Y152400D03*
X50800Y107950D03*
X31750Y207264D03*
X220218Y211074D03*
X271526Y430784D03*
X268224Y438150D03*
X101600Y332994D03*
X80518Y348742D03*
X75184Y329692D03*
X126238Y357378D03*
X139700Y374650D03*
X87376Y124460D03*
X80595Y410702D03*
X208026Y415036D03*
X114300Y167386D03*
X57150Y355600D03*
X43434Y386080D03*
X107950Y146050D03*
X118505Y177179D03*
D33*
X0Y19050D02*
X73Y17390D01*
X289Y15742D01*
X649Y14120D01*
X1149Y12535D01*
X1785Y10999D01*
X2552Y9525D01*
X3445Y8123D01*
X4457Y6805D01*
X5580Y5580D01*
X6805Y4457D01*
X8123Y3445D01*
X9525Y2552D01*
X10999Y1785D01*
X12535Y1149D01*
X14120Y649D01*
X15742Y289D01*
X17390Y73D01*
X19050Y0D01*
X361950Y0D01*
X363610Y73D01*
X365258Y289D01*
X366881Y649D01*
X368465Y1149D01*
X370001Y1785D01*
X371475Y2552D01*
X372877Y3445D01*
X374195Y4457D01*
X375420Y5580D01*
X376543Y6805D01*
X377555Y8123D01*
X378448Y9525D01*
X379215Y10999D01*
X379851Y12535D01*
X380351Y14120D01*
X380711Y15742D01*
X380928Y17390D01*
X381000Y19050D01*
X381000Y444500D01*
X381192Y446449D01*
X381214Y448408D01*
X381064Y450360D01*
X380746Y452293D01*
X380260Y454190D01*
X379610Y456038D01*
X378802Y457822D01*
X377841Y459529D01*
X376736Y461145D01*
X375493Y462660D01*
X374124Y464060D01*
X372637Y465335D01*
X371045Y466476D01*
X369360Y467474D01*
X367594Y468321D01*
X365761Y469011D01*
X363875Y469539D01*
X361950Y469900D01*
X25400Y469900D01*
X23186Y469803D01*
X20989Y469514D01*
X18826Y469035D01*
X16713Y468368D01*
X14666Y467520D01*
X12700Y466497D01*
X10831Y465306D01*
X9073Y463958D01*
X7440Y462461D01*
X5942Y460827D01*
X4594Y459069D01*
X3403Y457200D01*
X2380Y455235D01*
X1532Y453187D01*
X865Y451074D01*
X386Y448911D01*
X97Y446714D01*
X0Y444500D01*
X0Y19050D01*
M02*
