G04 EAGLE Gerber RS-274X export*
G75*
%MOMM*%
%FSLAX34Y34*%
%LPD*%
%INSolderpaste Top*%
%IPPOS*%
%AMOC8*
5,1,8,0,0,1.08239X$1,22.5*%
G01*
%ADD10R,1.150000X1.450000*%
%ADD11R,0.620000X0.620000*%
%ADD12R,1.450000X1.150000*%
%ADD13R,0.950000X1.000000*%
%ADD14R,0.700000X0.600000*%
%ADD15R,4.600000X1.000000*%
%ADD16R,3.400000X1.600000*%
%ADD17R,2.235200X2.489200*%
%ADD18R,2.489200X2.235200*%
%ADD19R,0.195575X0.685800*%
%ADD20R,0.800000X0.800000*%
%ADD21R,0.500000X0.500000*%
%ADD22R,1.050000X1.400000*%
%ADD23R,1.500000X0.700000*%
%ADD24R,0.600000X1.000000*%
%ADD25R,0.800000X1.000000*%
%ADD26C,0.250000*%
%ADD27C,0.254000*%
%ADD28R,1.600000X2.500000*%
%ADD29C,0.450000*%
%ADD30R,1.905000X1.092200*%
%ADD31R,2.235200X2.057400*%
%ADD32R,2.057400X2.235200*%
%ADD33C,0.304800*%
%ADD34R,2.000000X1.100000*%
%ADD35R,0.309213X0.500000*%
%ADD36R,0.309213X0.650000*%
%ADD37C,0.200000*%


D10*
X351934Y328422D03*
X369934Y328422D03*
D11*
X359990Y187960D03*
X368990Y187960D03*
D12*
X364236Y202836D03*
X364236Y220836D03*
D11*
X129540Y233100D03*
X129540Y224100D03*
X129540Y203526D03*
X129540Y212526D03*
X60198Y100766D03*
X60198Y91766D03*
X90678Y100766D03*
X90678Y91766D03*
X329184Y220544D03*
X329184Y229544D03*
X328930Y208208D03*
X328930Y199208D03*
D13*
X112650Y329692D03*
X128650Y329692D03*
D14*
X356188Y260716D03*
X356188Y274716D03*
X366188Y260716D03*
X366188Y274716D03*
D15*
X72560Y245270D03*
X72560Y265270D03*
D16*
X20560Y221270D03*
X20560Y289270D03*
D17*
X357378Y296164D03*
D18*
X122174Y431800D03*
D17*
X121158Y133096D03*
D19*
X201531Y60833D03*
X197531Y60833D03*
X193531Y60833D03*
X189531Y60833D03*
X185531Y60833D03*
X181531Y60833D03*
X177531Y60833D03*
X173531Y60833D03*
X169531Y60833D03*
X165531Y60833D03*
X161531Y60833D03*
X245531Y60833D03*
X241531Y60833D03*
X237531Y60833D03*
X233531Y60833D03*
X229531Y60833D03*
X225531Y60833D03*
X221531Y60833D03*
X217531Y60833D03*
X213531Y60833D03*
X209531Y60833D03*
X205531Y60833D03*
X201531Y91567D03*
X197531Y91567D03*
X193531Y91567D03*
X189531Y91567D03*
X185531Y91567D03*
X181531Y91567D03*
X177531Y91567D03*
X173531Y91567D03*
X169531Y91567D03*
X165531Y91567D03*
X161531Y91567D03*
X245531Y91567D03*
X241531Y91567D03*
X237531Y91567D03*
X233531Y91567D03*
X229531Y91567D03*
X225531Y91567D03*
X221531Y91567D03*
X217531Y91567D03*
X213531Y91567D03*
X209531Y91567D03*
X205531Y91567D03*
X257531Y60833D03*
X253531Y60833D03*
X249531Y60833D03*
X257531Y91567D03*
X253531Y91567D03*
X249531Y91567D03*
D20*
X344932Y206114D03*
X344932Y221114D03*
D21*
X372364Y129104D03*
X372364Y138104D03*
X358648Y129104D03*
X358648Y138104D03*
X345186Y271200D03*
X345186Y262200D03*
X363982Y247070D03*
X363982Y238070D03*
X352044Y246816D03*
X352044Y237816D03*
D20*
X349758Y388754D03*
X349758Y373754D03*
X69462Y114300D03*
X84462Y114300D03*
D22*
X24014Y103852D03*
X24014Y67852D03*
X9514Y103852D03*
X9514Y67852D03*
D23*
X42392Y333354D03*
X42392Y348354D03*
X42392Y378354D03*
D24*
X14892Y319354D03*
D25*
X35892Y319354D03*
D24*
X14892Y392354D03*
D25*
X35892Y392354D03*
D26*
X187758Y239724D03*
X187758Y234724D03*
X187758Y229724D03*
X187758Y224724D03*
X187758Y219724D03*
X187758Y214724D03*
X187758Y209724D03*
X187758Y204724D03*
X187758Y199724D03*
X187758Y194724D03*
X187758Y189724D03*
X187758Y184724D03*
X187758Y179724D03*
X187758Y174724D03*
X187758Y169724D03*
X192758Y169724D03*
X192758Y174724D03*
X192758Y179724D03*
X192758Y184724D03*
X192758Y189724D03*
X192758Y194724D03*
X192758Y199724D03*
X192758Y204724D03*
X192758Y209724D03*
X192758Y214724D03*
X192758Y219724D03*
X192758Y224724D03*
X192758Y229724D03*
X192758Y234724D03*
X192758Y239724D03*
X252758Y239724D03*
X252758Y234724D03*
X252758Y229724D03*
X252758Y224724D03*
X252758Y219724D03*
X252758Y214724D03*
X252758Y209724D03*
X252758Y204724D03*
X252758Y199724D03*
X252758Y194724D03*
X252758Y189724D03*
X252758Y184724D03*
X252758Y179724D03*
X252758Y174724D03*
X252758Y169724D03*
X257758Y169724D03*
X257758Y174724D03*
X257758Y179724D03*
X257758Y184724D03*
X257758Y189724D03*
X257758Y194724D03*
X257758Y199724D03*
X257758Y204724D03*
X257758Y209724D03*
X257758Y214724D03*
X257758Y219724D03*
X257758Y224724D03*
X257758Y229724D03*
X257758Y234724D03*
X257758Y239724D03*
X197758Y239724D03*
X197758Y234724D03*
X202758Y234724D03*
X202758Y239724D03*
X207758Y239724D03*
X207758Y234724D03*
X212758Y234724D03*
X212758Y239724D03*
X217758Y239724D03*
X217758Y234724D03*
X222758Y234724D03*
X222758Y239724D03*
X227758Y239724D03*
X227758Y234724D03*
X232758Y234724D03*
X232758Y239724D03*
X237758Y239724D03*
X237758Y234724D03*
X242758Y234724D03*
X242758Y239724D03*
X247758Y239724D03*
X247758Y234724D03*
X197758Y174724D03*
X197758Y169724D03*
X202758Y169724D03*
X202758Y174724D03*
X207758Y174724D03*
X207758Y169724D03*
X212758Y169724D03*
X212758Y174724D03*
X217758Y174724D03*
X217758Y169724D03*
X222758Y169724D03*
X222758Y174724D03*
X227758Y174724D03*
X227758Y169724D03*
X232758Y169724D03*
X232758Y174724D03*
X237758Y174724D03*
X237758Y169724D03*
X242758Y169724D03*
X242758Y174724D03*
X247758Y174724D03*
X247758Y169724D03*
X212758Y204724D03*
X232758Y204724D03*
X212758Y209724D03*
X232758Y209724D03*
X212758Y199724D03*
X232758Y199724D03*
X212758Y214724D03*
X232758Y214724D03*
X212758Y194724D03*
X232758Y194724D03*
X217758Y214724D03*
X217758Y194724D03*
X222758Y214724D03*
X222758Y194724D03*
X227758Y214724D03*
X227758Y194724D03*
D27*
X77684Y100758D03*
X72684Y100758D03*
X77684Y95758D03*
X72684Y95758D03*
X77684Y90758D03*
X72684Y90758D03*
D28*
X139446Y260858D03*
D29*
X151946Y260858D02*
X155946Y260858D01*
X126946Y260858D02*
X122946Y260858D01*
X151946Y270858D02*
X155946Y270858D01*
X155946Y250858D02*
X151946Y250858D01*
X126946Y250858D02*
X122946Y250858D01*
X122946Y270858D02*
X126946Y270858D01*
D30*
X146812Y229870D03*
X146812Y204978D03*
D31*
X66548Y400685D03*
D32*
X123825Y345186D03*
D31*
X64770Y343027D03*
D33*
X119500Y160100D03*
X119500Y165100D03*
X119500Y170100D03*
X124500Y160100D03*
X124500Y170100D03*
X129500Y160100D03*
X129500Y170100D03*
X134500Y160100D03*
X134500Y165100D03*
X134500Y170100D03*
D17*
X101600Y171450D03*
X354584Y352552D03*
D34*
X114100Y406400D03*
D20*
X95100Y406400D03*
D21*
X104394Y429078D03*
X104394Y438078D03*
D35*
X88312Y443848D03*
D36*
X83312Y426598D03*
D35*
X78312Y443848D03*
D37*
X77812Y438848D02*
X88812Y438848D01*
X88812Y430848D01*
X77812Y430848D01*
X77812Y438848D01*
X77812Y432748D02*
X88812Y432748D01*
X88812Y434648D02*
X77812Y434648D01*
X77812Y436548D02*
X88812Y436548D01*
X88812Y438448D02*
X77812Y438448D01*
D27*
X0Y19050D02*
X73Y17390D01*
X289Y15742D01*
X649Y14120D01*
X1149Y12535D01*
X1785Y10999D01*
X2552Y9525D01*
X3445Y8123D01*
X4457Y6805D01*
X5580Y5580D01*
X6805Y4457D01*
X8123Y3445D01*
X9525Y2552D01*
X10999Y1785D01*
X12535Y1149D01*
X14120Y649D01*
X15742Y289D01*
X17390Y73D01*
X19050Y0D01*
X361950Y0D01*
X363610Y73D01*
X365258Y289D01*
X366881Y649D01*
X368465Y1149D01*
X370001Y1785D01*
X371475Y2552D01*
X372877Y3445D01*
X374195Y4457D01*
X375420Y5580D01*
X376543Y6805D01*
X377555Y8123D01*
X378448Y9525D01*
X379215Y10999D01*
X379851Y12535D01*
X380351Y14120D01*
X380711Y15742D01*
X380928Y17390D01*
X381000Y19050D01*
X381000Y444500D01*
X381192Y446449D01*
X381214Y448408D01*
X381064Y450360D01*
X380746Y452293D01*
X380260Y454190D01*
X379610Y456038D01*
X378802Y457822D01*
X377841Y459529D01*
X376736Y461145D01*
X375493Y462660D01*
X374124Y464060D01*
X372637Y465335D01*
X371045Y466476D01*
X369360Y467474D01*
X367594Y468321D01*
X365761Y469011D01*
X363875Y469539D01*
X361950Y469900D01*
X25400Y469900D01*
X23186Y469803D01*
X20989Y469514D01*
X18826Y469035D01*
X16713Y468368D01*
X14666Y467520D01*
X12700Y466497D01*
X10831Y465306D01*
X9073Y463958D01*
X7440Y462461D01*
X5942Y460827D01*
X4594Y459069D01*
X3403Y457200D01*
X2380Y455235D01*
X1532Y453187D01*
X865Y451074D01*
X386Y448911D01*
X97Y446714D01*
X0Y444500D01*
X0Y19050D01*
M02*
