G04 EAGLE Gerber RS-274X export*
G75*
%MOMM*%
%FSLAX34Y34*%
%LPD*%
%INSoldermask Bottom*%
%IPPOS*%
%AMOC8*
5,1,8,0,0,1.08239X$1,22.5*%
G01*
%ADD10C,1.177000*%
%ADD11C,2.027000*%
%ADD12C,1.549400*%
%ADD13C,0.777000*%
%ADD14C,1.803400*%
%ADD15C,1.027000*%
%ADD16C,1.651000*%
%ADD17C,0.533400*%
%ADD18C,0.680200*%


D10*
X56650Y441350D03*
X56650Y396850D03*
D11*
X25400Y464100D03*
X25400Y374100D03*
D12*
X63500Y523400D03*
X63500Y543400D03*
X63500Y701200D03*
X63500Y721200D03*
D13*
X692200Y682300D03*
X692200Y562300D03*
D14*
X466090Y331470D03*
X466090Y306070D03*
X466090Y280670D03*
X466090Y255270D03*
X466090Y229870D03*
X466090Y204470D03*
X466090Y179070D03*
X466090Y153670D03*
X466090Y128270D03*
X466090Y102870D03*
X466090Y77470D03*
X466090Y52070D03*
X88900Y812800D03*
X114300Y812800D03*
X139700Y812800D03*
X165100Y812800D03*
X190500Y812800D03*
X215900Y812800D03*
X241300Y812800D03*
X266700Y812800D03*
X292100Y812800D03*
X317500Y812800D03*
X342900Y812800D03*
X368300Y812800D03*
X419100Y812800D03*
X444500Y812800D03*
X469900Y812800D03*
X495300Y812800D03*
X520700Y812800D03*
X546100Y812800D03*
X571500Y812800D03*
X596900Y812800D03*
X622300Y812800D03*
X647700Y812800D03*
X673100Y812800D03*
X698500Y812800D03*
X647700Y50800D03*
X673100Y50800D03*
X698500Y50800D03*
X723900Y50800D03*
X749300Y50800D03*
X774700Y50800D03*
X800100Y50800D03*
X825500Y50800D03*
X850900Y50800D03*
X876300Y50800D03*
X901700Y50800D03*
X927100Y50800D03*
X1028700Y812800D03*
X1003300Y812800D03*
X977900Y812800D03*
X952500Y812800D03*
X927100Y812800D03*
X901700Y812800D03*
X876300Y812800D03*
X850900Y812800D03*
X825500Y812800D03*
X800100Y812800D03*
X774700Y812800D03*
X749300Y812800D03*
D15*
X25400Y607300D03*
X25400Y637300D03*
D16*
X279400Y749300D03*
X279400Y723900D03*
X609600Y127000D03*
X584200Y127000D03*
X228600Y406400D03*
X228600Y431800D03*
X520700Y444500D03*
X520700Y469900D03*
D17*
X686816Y228600D03*
X367792Y247396D03*
X130048Y426212D03*
X695960Y259080D03*
X341376Y265684D03*
X125984Y420116D03*
X238760Y651256D03*
X230124Y659892D03*
X205740Y596392D03*
X209296Y607060D03*
X233680Y648716D03*
X202184Y622300D03*
X556768Y127000D03*
X299720Y375412D03*
X122936Y136144D03*
X60960Y283972D03*
X382524Y213360D03*
X720852Y231648D03*
X725424Y259080D03*
X711200Y259080D03*
X657860Y312420D03*
X652780Y317500D03*
X827024Y101600D03*
X708152Y127000D03*
X904748Y165608D03*
X744220Y315976D03*
X768096Y308864D03*
X904748Y154432D03*
X835152Y285496D03*
X913892Y463296D03*
X935736Y401828D03*
X630428Y334772D03*
X783844Y446532D03*
X658368Y613156D03*
X612648Y331216D03*
X330200Y243332D03*
X362204Y249936D03*
X340360Y249936D03*
X673100Y224536D03*
X480568Y236728D03*
X335280Y245872D03*
X725932Y372872D03*
X608076Y293116D03*
X330200Y305308D03*
X164084Y226060D03*
X340360Y185928D03*
X343408Y164084D03*
X419100Y187960D03*
X400812Y178308D03*
X381000Y207772D03*
X413512Y211328D03*
X366268Y239268D03*
X520700Y619760D03*
X531368Y247904D03*
X482092Y215392D03*
X355600Y243332D03*
X690880Y328168D03*
X578104Y251968D03*
X378460Y174244D03*
X722376Y376936D03*
X686816Y350520D03*
X683260Y326136D03*
X574548Y247904D03*
X349504Y296672D03*
X349504Y268224D03*
X772160Y305308D03*
X879348Y187960D03*
X754380Y365760D03*
X759460Y378968D03*
X748792Y570484D03*
X704088Y615188D03*
X744220Y342392D03*
X755396Y386080D03*
X764032Y547116D03*
X694436Y624332D03*
X624332Y314960D03*
X696976Y647700D03*
X660908Y222504D03*
X536956Y234696D03*
X526796Y244856D03*
X540512Y312928D03*
X581152Y364236D03*
X581152Y557276D03*
X589280Y557276D03*
X696468Y659892D03*
X745236Y786384D03*
X753364Y794512D03*
X708660Y285496D03*
X708660Y311404D03*
X708660Y342392D03*
X737108Y375920D03*
X765556Y529844D03*
X726440Y653288D03*
X744220Y287020D03*
X732028Y319024D03*
X734568Y342392D03*
X745744Y373888D03*
X769620Y547116D03*
X722376Y680212D03*
X144780Y625856D03*
X503936Y657352D03*
X744220Y295148D03*
X775716Y354584D03*
X524764Y609600D03*
X732028Y259588D03*
X148336Y630936D03*
X509524Y657352D03*
X727964Y579628D03*
X683260Y569976D03*
X551688Y592328D03*
X676148Y372872D03*
X717804Y575056D03*
X796544Y279400D03*
X798068Y365252D03*
X777748Y297180D03*
X794004Y361188D03*
X779780Y552196D03*
X656844Y668020D03*
X915924Y342900D03*
X945896Y342900D03*
X678688Y347980D03*
X762508Y352552D03*
X981964Y330200D03*
X894080Y356108D03*
X779780Y369824D03*
X771652Y369824D03*
X931672Y299212D03*
X946912Y299212D03*
X874776Y321564D03*
X981964Y317500D03*
X935736Y324104D03*
X921004Y427228D03*
X935736Y427228D03*
X929132Y502920D03*
X919480Y498348D03*
X630428Y314960D03*
X693928Y575056D03*
X620268Y322072D03*
X626364Y327660D03*
X693420Y643636D03*
X665988Y236728D03*
X548640Y291084D03*
X589280Y366776D03*
X714248Y643636D03*
X820928Y294132D03*
X769112Y339852D03*
X728980Y640080D03*
X740664Y338328D03*
X728980Y634492D03*
X695960Y372872D03*
X699516Y620776D03*
X652780Y332232D03*
X925576Y510032D03*
X452120Y657860D03*
X677672Y124460D03*
X555752Y614680D03*
X543052Y246888D03*
X482600Y648716D03*
X443992Y648716D03*
X701040Y328168D03*
X770636Y164084D03*
X511556Y586740D03*
X541528Y556768D03*
X402844Y705612D03*
X520192Y600964D03*
X503428Y602488D03*
X672084Y124460D03*
X442976Y152400D03*
X267208Y408432D03*
X671576Y101600D03*
X671576Y152400D03*
X712216Y418084D03*
X375412Y741172D03*
X798576Y330200D03*
X437388Y741172D03*
X904748Y111760D03*
X904748Y143256D03*
X332232Y408432D03*
X557784Y264160D03*
X715772Y372872D03*
X696976Y692404D03*
X644144Y392684D03*
X340868Y565404D03*
X231140Y472440D03*
X503936Y612648D03*
X699008Y197612D03*
X350520Y188468D03*
X548640Y297180D03*
X630428Y282448D03*
X1033272Y237236D03*
X1030224Y317500D03*
D18*
X50800Y774700D03*
X152400Y774700D03*
X266700Y774700D03*
X406400Y774700D03*
X342900Y698500D03*
X457200Y685800D03*
X342900Y635000D03*
X393700Y571500D03*
X482600Y571500D03*
X552450Y640080D03*
X596900Y635000D03*
X469900Y774700D03*
X546100Y711200D03*
X635000Y711200D03*
X711200Y711200D03*
X711200Y660400D03*
X704850Y589280D03*
X711200Y532130D03*
X609600Y533400D03*
X571500Y508000D03*
X444500Y444500D03*
X355600Y342900D03*
X254000Y330200D03*
X177800Y368300D03*
X190500Y495300D03*
X76200Y482600D03*
X76200Y317500D03*
X76200Y165100D03*
X76200Y76200D03*
X152400Y25400D03*
X203200Y88900D03*
X190500Y177800D03*
X292100Y190500D03*
X292100Y228600D03*
X317500Y101600D03*
X406400Y101600D03*
X520700Y101600D03*
X520700Y177800D03*
X406400Y254000D03*
X393700Y190500D03*
X383540Y227330D03*
X701040Y100330D03*
X624840Y214630D03*
X736600Y139700D03*
X800100Y101600D03*
X800100Y228600D03*
X939800Y228600D03*
X1003300Y165100D03*
X1003300Y38100D03*
X939800Y76200D03*
X876300Y292100D03*
X838200Y330200D03*
X838200Y381000D03*
X838200Y457200D03*
X1003300Y381000D03*
X1003300Y558800D03*
X901700Y558800D03*
X812800Y596900D03*
X825500Y736600D03*
X990600Y736600D03*
X825500Y533400D03*
X736600Y419100D03*
X596900Y419100D03*
X673100Y317500D03*
X508000Y355600D03*
X685800Y457200D03*
X673100Y266700D03*
X703580Y222250D03*
X636270Y147320D03*
X293370Y523240D03*
X279400Y584200D03*
X127000Y596900D03*
X266700Y647700D03*
X165100Y647700D03*
X88900Y660400D03*
X88900Y711200D03*
X139700Y711200D03*
X508000Y273050D03*
X661670Y290830D03*
X839470Y163830D03*
X607060Y834390D03*
X453390Y834390D03*
X266700Y838200D03*
X787400Y292100D03*
D17*
X702564Y277368D03*
X749808Y252984D03*
X816864Y252984D03*
X619252Y264160D03*
X630428Y267208D03*
X744220Y272288D03*
X718312Y307340D03*
X712724Y338328D03*
X728980Y609600D03*
X812292Y302768D03*
X644652Y675132D03*
X378460Y732028D03*
X405384Y710692D03*
M02*
