G04 EAGLE Gerber RS-274X export*
G75*
%MOMM*%
%FSLAX34Y34*%
%LPD*%
%INSoldermask Top*%
%IPPOS*%
%AMOC8*
5,1,8,0,0,1.08239X$1,22.5*%
G01*
%ADD10R,1.627000X0.427000*%
%ADD11R,0.427000X1.627000*%
%ADD12R,1.477000X0.527000*%
%ADD13C,1.177000*%
%ADD14C,2.027000*%
%ADD15R,1.127000X1.127000*%
%ADD16R,2.413000X2.921000*%
%ADD17C,1.549400*%
%ADD18R,1.327000X0.827000*%
%ADD19R,1.327000X0.927000*%
%ADD20R,0.939800X0.431800*%
%ADD21R,0.431800X0.939800*%
%ADD22R,2.327000X2.327000*%
%ADD23R,0.627000X0.627000*%
%ADD24R,0.747000X0.747000*%
%ADD25R,1.327000X1.127000*%
%ADD26R,0.927000X1.127000*%
%ADD27R,2.927000X1.127000*%
%ADD28R,2.027000X1.427000*%
%ADD29R,0.889000X1.651000*%
%ADD30R,2.827000X2.827000*%
%ADD31R,0.427000X0.927000*%
%ADD32R,0.927000X0.427000*%
%ADD33R,0.827000X0.527000*%
%ADD34R,2.327000X1.177000*%
%ADD35R,1.527000X1.127000*%
%ADD36R,5.727000X2.227000*%
%ADD37R,1.397000X0.635000*%
%ADD38R,1.127000X1.227000*%
%ADD39C,0.367031*%
%ADD40C,0.325000*%
%ADD41R,1.227000X1.127000*%
%ADD42R,0.927000X0.927000*%
%ADD43C,0.327000*%
%ADD44R,1.927000X1.927000*%
%ADD45R,1.127000X0.377000*%
%ADD46R,2.227000X1.527000*%
%ADD47C,0.777000*%
%ADD48R,1.227000X1.427000*%
%ADD49R,1.527000X0.877000*%
%ADD50C,1.803400*%
%ADD51R,1.177000X2.327000*%
%ADD52R,1.127000X0.927000*%
%ADD53R,1.627000X0.827000*%
%ADD54R,0.727000X1.127000*%
%ADD55C,1.027000*%
%ADD56R,1.277000X1.577000*%
%ADD57R,1.077000X1.127000*%
%ADD58R,0.431800X0.914400*%
%ADD59R,2.616200X1.879600*%
%ADD60R,5.127000X2.227000*%
%ADD61R,1.577000X1.277000*%
%ADD62R,1.127000X1.277000*%
%ADD63R,1.127000X1.077000*%
%ADD64R,1.397000X0.762000*%
%ADD65R,0.762000X1.397000*%
%ADD66C,1.651000*%
%ADD67C,0.533400*%
%ADD68C,0.680200*%


D10*
X641500Y342300D03*
X641500Y337300D03*
X641500Y332300D03*
X641500Y327300D03*
X641500Y322300D03*
X641500Y317300D03*
X641500Y312300D03*
X641500Y307300D03*
X641500Y302300D03*
X641500Y297300D03*
X641500Y292300D03*
X641500Y287300D03*
X641500Y282300D03*
X641500Y277300D03*
X641500Y272300D03*
X641500Y267300D03*
D11*
X661000Y247800D03*
X666000Y247800D03*
X671000Y247800D03*
X676000Y247800D03*
X681000Y247800D03*
X686000Y247800D03*
X691000Y247800D03*
X696000Y247800D03*
X701000Y247800D03*
X706000Y247800D03*
X711000Y247800D03*
X716000Y247800D03*
X721000Y247800D03*
X726000Y247800D03*
X731000Y247800D03*
X736000Y247800D03*
D10*
X755500Y267300D03*
X755500Y272300D03*
X755500Y277300D03*
X755500Y282300D03*
X755500Y287300D03*
X755500Y292300D03*
X755500Y297300D03*
X755500Y302300D03*
X755500Y307300D03*
X755500Y312300D03*
X755500Y317300D03*
X755500Y322300D03*
X755500Y327300D03*
X755500Y332300D03*
X755500Y337300D03*
X755500Y342300D03*
D11*
X736000Y361800D03*
X731000Y361800D03*
X726000Y361800D03*
X721000Y361800D03*
X716000Y361800D03*
X711000Y361800D03*
X706000Y361800D03*
X701000Y361800D03*
X696000Y361800D03*
X691000Y361800D03*
X686000Y361800D03*
X681000Y361800D03*
X676000Y361800D03*
X671000Y361800D03*
X666000Y361800D03*
X661000Y361800D03*
D12*
X53400Y432100D03*
X53400Y425600D03*
X53400Y419100D03*
X53400Y412600D03*
X53400Y406100D03*
D13*
X56650Y441350D03*
X56650Y396850D03*
D14*
X25400Y464100D03*
X25400Y374100D03*
D15*
X114300Y416400D03*
X114300Y396400D03*
X165100Y416400D03*
X165100Y396400D03*
X139700Y416400D03*
X139700Y396400D03*
D16*
X227470Y681990D03*
X186550Y681990D03*
D17*
X63500Y523400D03*
X63500Y543400D03*
D18*
X158200Y558800D03*
X121200Y558800D03*
D19*
X195580Y545990D03*
X195580Y563990D03*
D17*
X63500Y701200D03*
X63500Y721200D03*
D20*
X209677Y632300D03*
X209677Y627300D03*
X209677Y622300D03*
X209677Y617300D03*
X209677Y612300D03*
D21*
X218600Y603377D03*
X223600Y603377D03*
X228600Y603377D03*
X233600Y603377D03*
X238600Y603377D03*
D20*
X247523Y612300D03*
X247523Y617300D03*
X247523Y622300D03*
X247523Y627300D03*
X247523Y632300D03*
D21*
X238600Y641223D03*
X233600Y641223D03*
X228600Y641223D03*
X223600Y641223D03*
X218600Y641223D03*
D22*
X228600Y622300D03*
D23*
X196850Y587320D03*
X196850Y596320D03*
X283900Y626110D03*
X274900Y626110D03*
X283900Y613410D03*
X274900Y613410D03*
X165680Y622300D03*
X174680Y622300D03*
X187960Y622990D03*
X187960Y613990D03*
D24*
X131500Y533400D03*
X122500Y533400D03*
X131500Y515620D03*
X122500Y515620D03*
X139700Y663520D03*
X139700Y672520D03*
X195000Y652780D03*
X186000Y652780D03*
X131500Y497840D03*
X122500Y497840D03*
D23*
X122500Y482600D03*
X131500Y482600D03*
D24*
X444500Y732100D03*
X444500Y741100D03*
X655900Y152400D03*
X664900Y152400D03*
X368300Y732100D03*
X368300Y741100D03*
X655900Y101600D03*
X664900Y101600D03*
X607750Y303530D03*
X598750Y303530D03*
D18*
X895350Y198370D03*
X895350Y187370D03*
X895350Y176370D03*
X895350Y165370D03*
X895350Y154370D03*
X895350Y143370D03*
X895350Y132370D03*
X895350Y121370D03*
X895350Y111870D03*
D25*
X895350Y213870D03*
X938350Y102370D03*
D26*
X1000350Y102370D03*
D27*
X1041850Y102370D03*
D28*
X1046350Y237370D03*
D23*
X842700Y101600D03*
X833700Y101600D03*
D29*
X996950Y662940D03*
X996950Y607060D03*
X958850Y662940D03*
X958850Y607060D03*
D30*
X342900Y215900D03*
D31*
X330400Y195900D03*
X335400Y195900D03*
X340400Y195900D03*
X345400Y195900D03*
X350400Y195900D03*
X355400Y195900D03*
X355400Y235900D03*
X350400Y235900D03*
X345400Y235900D03*
X340400Y235900D03*
X335400Y235900D03*
X330400Y235900D03*
D32*
X362900Y203400D03*
X362900Y208400D03*
X362900Y213400D03*
X362900Y218400D03*
X362900Y223400D03*
X362900Y228400D03*
X322900Y228400D03*
X322900Y223400D03*
X322900Y218400D03*
X322900Y213400D03*
X322900Y208400D03*
X322900Y203400D03*
D33*
X150740Y189080D03*
X150740Y195580D03*
X150740Y202080D03*
X133740Y202080D03*
X133740Y189080D03*
X133740Y195580D03*
D23*
X340360Y296490D03*
X340360Y305490D03*
D24*
X148590Y220290D03*
X148590Y229290D03*
D23*
X116760Y135890D03*
X106760Y135890D03*
D24*
X389200Y213360D03*
X398200Y213360D03*
D23*
X389890Y177220D03*
X389890Y168220D03*
D24*
X427300Y152400D03*
X436300Y152400D03*
X311730Y165100D03*
X320730Y165100D03*
D34*
X22860Y164880D03*
X22860Y137380D03*
D26*
X38110Y151130D03*
D35*
X28370Y274320D03*
X50370Y283820D03*
X50370Y264820D03*
D24*
X696540Y417830D03*
X705540Y417830D03*
X678870Y417830D03*
X669870Y417830D03*
D36*
X733300Y457200D03*
X638300Y457200D03*
D24*
X706120Y206430D03*
X706120Y197430D03*
X727710Y207700D03*
X727710Y198700D03*
X782900Y330200D03*
X791900Y330200D03*
D29*
X958850Y416560D03*
X958850Y472440D03*
X996950Y416560D03*
X996950Y472440D03*
D23*
X918900Y469900D03*
X909900Y469900D03*
X914400Y427300D03*
X914400Y436300D03*
X910590Y502230D03*
X910590Y511230D03*
D24*
X935990Y502230D03*
X935990Y511230D03*
D37*
X1040130Y304800D03*
X991870Y304800D03*
X1040130Y317500D03*
X991870Y317500D03*
X1040130Y330200D03*
X991870Y330200D03*
X1040130Y342900D03*
X991870Y342900D03*
X1040130Y355600D03*
X991870Y355600D03*
D23*
X922600Y292100D03*
X931600Y292100D03*
X922600Y317500D03*
X931600Y317500D03*
X922600Y342900D03*
X931600Y342900D03*
D24*
X565150Y394390D03*
X565150Y385390D03*
X752420Y223520D03*
X761420Y223520D03*
X659820Y392430D03*
X650820Y392430D03*
X615370Y337820D03*
X606370Y337820D03*
X742950Y207700D03*
X742950Y198700D03*
D23*
X555570Y297180D03*
X564570Y297180D03*
X782900Y571500D03*
X791900Y571500D03*
X782900Y558800D03*
X791900Y558800D03*
D38*
X685800Y211700D03*
X685800Y194700D03*
D39*
X135700Y631000D03*
X135700Y635000D03*
X135700Y639000D03*
X139700Y631000D03*
X139700Y635000D03*
X139700Y639000D03*
X143700Y631000D03*
X143700Y635000D03*
X143700Y639000D03*
D24*
X93400Y635000D03*
X84400Y635000D03*
X173300Y637540D03*
X182300Y637540D03*
D40*
X403900Y731600D03*
X408900Y731600D03*
X403900Y736600D03*
X408900Y736600D03*
X403900Y741600D03*
X408900Y741600D03*
X655400Y129500D03*
X655400Y124500D03*
X660400Y129500D03*
X660400Y124500D03*
X665400Y129500D03*
X665400Y124500D03*
D24*
X274320Y399360D03*
X274320Y408360D03*
X325120Y399360D03*
X325120Y408360D03*
D40*
X297220Y398860D03*
X302220Y398860D03*
X297220Y403860D03*
X302220Y403860D03*
X297220Y408860D03*
X302220Y408860D03*
D41*
X122800Y228600D03*
X105800Y228600D03*
D38*
X95250Y182000D03*
X95250Y199000D03*
D41*
X66920Y228600D03*
X49920Y228600D03*
D38*
X63500Y182000D03*
X63500Y199000D03*
D42*
X284600Y444500D03*
X299600Y444500D03*
X614800Y165100D03*
X629800Y165100D03*
X320160Y740410D03*
X335160Y740410D03*
X513200Y393700D03*
X528200Y393700D03*
D43*
X516000Y647000D02*
X516000Y653000D01*
X512000Y653000D02*
X512000Y647000D01*
X508000Y647000D02*
X508000Y653000D01*
X504000Y653000D02*
X504000Y647000D01*
X500000Y647000D02*
X500000Y653000D01*
X496000Y643000D02*
X490000Y643000D01*
X490000Y639000D02*
X496000Y639000D01*
X496000Y635000D02*
X490000Y635000D01*
X490000Y631000D02*
X496000Y631000D01*
X496000Y627000D02*
X490000Y627000D01*
X500000Y623000D02*
X500000Y617000D01*
X504000Y617000D02*
X504000Y623000D01*
X508000Y623000D02*
X508000Y617000D01*
X512000Y617000D02*
X512000Y623000D01*
X516000Y623000D02*
X516000Y617000D01*
X520000Y627000D02*
X526000Y627000D01*
X526000Y631000D02*
X520000Y631000D01*
X520000Y635000D02*
X526000Y635000D01*
X526000Y639000D02*
X520000Y639000D01*
X520000Y643000D02*
X526000Y643000D01*
D44*
X508000Y635000D03*
D23*
X500960Y595630D03*
X509960Y595630D03*
X558800Y664900D03*
X558800Y655900D03*
D45*
X684700Y669800D03*
X737700Y669800D03*
X684700Y664800D03*
X737700Y664800D03*
X684700Y659800D03*
X737700Y659800D03*
X684700Y654800D03*
X737700Y654800D03*
X684700Y649800D03*
X737700Y649800D03*
X684700Y644800D03*
X737700Y644800D03*
X684700Y639800D03*
X737700Y639800D03*
X684700Y634800D03*
X737700Y634800D03*
X684700Y629800D03*
X737700Y629800D03*
X684700Y624800D03*
X737700Y624800D03*
X684700Y619800D03*
X737700Y619800D03*
X684700Y614800D03*
X737700Y614800D03*
X684700Y609800D03*
X737700Y609800D03*
X684700Y604800D03*
X737700Y604800D03*
X684700Y599800D03*
X737700Y599800D03*
X684700Y594800D03*
X737700Y594800D03*
X684700Y589800D03*
X737700Y589800D03*
X684700Y584800D03*
X737700Y584800D03*
X684700Y579800D03*
X737700Y579800D03*
X684700Y574800D03*
X737700Y574800D03*
D46*
X711200Y692300D03*
X711200Y552300D03*
D47*
X692200Y682300D03*
X692200Y562300D03*
D48*
X346600Y151200D03*
X346600Y128200D03*
X364600Y128200D03*
X364600Y151200D03*
D24*
X328930Y150550D03*
X328930Y141550D03*
X383540Y122500D03*
X383540Y131500D03*
D49*
X589280Y279080D03*
X589280Y264480D03*
D24*
X573460Y279400D03*
X564460Y279400D03*
X573460Y264160D03*
X564460Y264160D03*
D50*
X466090Y331470D03*
X466090Y306070D03*
X466090Y280670D03*
X466090Y255270D03*
X466090Y229870D03*
X466090Y204470D03*
X466090Y179070D03*
X466090Y153670D03*
X466090Y128270D03*
X466090Y102870D03*
X466090Y77470D03*
X466090Y52070D03*
X88900Y812800D03*
X114300Y812800D03*
X139700Y812800D03*
X165100Y812800D03*
X190500Y812800D03*
X215900Y812800D03*
X241300Y812800D03*
X266700Y812800D03*
X292100Y812800D03*
X317500Y812800D03*
X342900Y812800D03*
X368300Y812800D03*
X419100Y812800D03*
X444500Y812800D03*
X469900Y812800D03*
X495300Y812800D03*
X520700Y812800D03*
X546100Y812800D03*
X571500Y812800D03*
X596900Y812800D03*
X622300Y812800D03*
X647700Y812800D03*
X673100Y812800D03*
X698500Y812800D03*
X647700Y50800D03*
X673100Y50800D03*
X698500Y50800D03*
X723900Y50800D03*
X749300Y50800D03*
X774700Y50800D03*
X800100Y50800D03*
X825500Y50800D03*
X850900Y50800D03*
X876300Y50800D03*
X901700Y50800D03*
X927100Y50800D03*
X1028700Y812800D03*
X1003300Y812800D03*
X977900Y812800D03*
X952500Y812800D03*
X927100Y812800D03*
X901700Y812800D03*
X876300Y812800D03*
X850900Y812800D03*
X825500Y812800D03*
X800100Y812800D03*
X774700Y812800D03*
X749300Y812800D03*
D34*
X121920Y63280D03*
X121920Y35780D03*
D26*
X137170Y49530D03*
D51*
X152180Y318770D03*
X124680Y318770D03*
D52*
X138430Y303520D03*
D53*
X42900Y599800D03*
X42900Y614800D03*
X42900Y644800D03*
D54*
X15400Y585800D03*
D26*
X36400Y585800D03*
D54*
X15400Y658800D03*
D26*
X36400Y658800D03*
D55*
X25400Y607300D03*
X25400Y637300D03*
D56*
X326280Y603250D03*
X344280Y603250D03*
D57*
X324740Y574040D03*
X340740Y574040D03*
D58*
X274200Y548005D03*
X269200Y548005D03*
X264200Y548005D03*
X259200Y548005D03*
X259200Y518795D03*
X264200Y518795D03*
X269200Y518795D03*
X274200Y518795D03*
D59*
X266700Y533400D03*
D60*
X330200Y524000D03*
X330200Y492000D03*
D61*
X242570Y490330D03*
X242570Y472330D03*
X270510Y490330D03*
X270510Y472330D03*
D34*
X213360Y241080D03*
X213360Y213580D03*
D26*
X228610Y227330D03*
D34*
X241300Y100550D03*
X241300Y128050D03*
D26*
X226050Y114300D03*
D62*
X419100Y202250D03*
X419100Y178750D03*
D57*
X272670Y43180D03*
X288670Y43180D03*
X272670Y67310D03*
X288670Y67310D03*
D63*
X209550Y308230D03*
X209550Y324230D03*
D57*
X189610Y41910D03*
X173610Y41910D03*
X148970Y97790D03*
X132970Y97790D03*
X189610Y68580D03*
X173610Y68580D03*
X239140Y68580D03*
X223140Y68580D03*
D63*
X152400Y287400D03*
X152400Y271400D03*
X185420Y271400D03*
X185420Y287400D03*
D42*
X209550Y286900D03*
X209550Y271900D03*
X238640Y41910D03*
X223640Y41910D03*
X173990Y90290D03*
X173990Y105290D03*
X272930Y16510D03*
X257930Y16510D03*
D64*
X260350Y687578D03*
X260350Y679450D03*
X260350Y671322D03*
D65*
X394462Y695960D03*
X402590Y695960D03*
X410718Y695960D03*
D66*
X279400Y749300D03*
X279400Y723900D03*
X609600Y127000D03*
X584200Y127000D03*
X228600Y406400D03*
X228600Y431800D03*
X520700Y444500D03*
X520700Y469900D03*
D41*
X1024500Y266700D03*
X1007500Y266700D03*
D64*
X290830Y155956D03*
X290830Y164084D03*
D65*
X258826Y208280D03*
X266954Y208280D03*
X257556Y278130D03*
X265684Y278130D03*
D64*
X212090Y164084D03*
X212090Y155956D03*
X171450Y239776D03*
X171450Y247904D03*
X152400Y143764D03*
X152400Y135636D03*
D41*
X258200Y231140D03*
X275200Y231140D03*
X275200Y251460D03*
X258200Y251460D03*
D38*
X265430Y171060D03*
X265430Y154060D03*
X237490Y154060D03*
X237490Y171060D03*
D64*
X698500Y135128D03*
X698500Y127000D03*
X698500Y118872D03*
D65*
X291592Y365760D03*
X299720Y365760D03*
X307848Y365760D03*
D67*
X686816Y228600D03*
X367792Y247396D03*
X130048Y426212D03*
X695960Y259080D03*
X341376Y265684D03*
X125984Y420116D03*
X238760Y651256D03*
X230124Y659892D03*
X205740Y596392D03*
X209296Y607060D03*
X233680Y648716D03*
X202184Y622300D03*
X556768Y127000D03*
X299720Y375412D03*
X122936Y136144D03*
X60960Y283972D03*
X382524Y213360D03*
X720852Y231648D03*
X725424Y259080D03*
X711200Y259080D03*
X657860Y312420D03*
X652780Y317500D03*
X827024Y101600D03*
X708152Y127000D03*
X904748Y165608D03*
X744220Y315976D03*
X768096Y308864D03*
X904748Y154432D03*
X835152Y285496D03*
X913892Y463296D03*
X935736Y401828D03*
X630428Y334772D03*
X783844Y446532D03*
X658368Y613156D03*
X612648Y331216D03*
X330200Y243332D03*
X362204Y249936D03*
X340360Y249936D03*
X673100Y224536D03*
X480568Y236728D03*
X335280Y245872D03*
X725932Y372872D03*
X608076Y293116D03*
X330200Y305308D03*
X164084Y226060D03*
X340360Y185928D03*
X343408Y164084D03*
X419100Y187960D03*
X400812Y178308D03*
X381000Y207772D03*
X413512Y211328D03*
X366268Y239268D03*
X520700Y619760D03*
X531368Y247904D03*
X482092Y215392D03*
X355600Y243332D03*
X690880Y328168D03*
X578104Y251968D03*
X378460Y174244D03*
X722376Y376936D03*
X686816Y350520D03*
X683260Y326136D03*
X574548Y247904D03*
X349504Y296672D03*
X349504Y268224D03*
X772160Y305308D03*
X879348Y187960D03*
X754380Y365760D03*
X759460Y378968D03*
X748792Y570484D03*
X704088Y615188D03*
X744220Y342392D03*
X755396Y386080D03*
X764032Y547116D03*
X694436Y624332D03*
X624332Y314960D03*
X696976Y647700D03*
X660908Y222504D03*
X536956Y234696D03*
X526796Y244856D03*
X540512Y312928D03*
X581152Y364236D03*
X581152Y557276D03*
X589280Y557276D03*
X696468Y659892D03*
X745236Y786384D03*
X753364Y794512D03*
X708660Y285496D03*
X708660Y311404D03*
X708660Y342392D03*
X737108Y375920D03*
X765556Y529844D03*
X726440Y653288D03*
X744220Y287020D03*
X732028Y319024D03*
X734568Y342392D03*
X745744Y373888D03*
X769620Y547116D03*
X722376Y680212D03*
X144780Y625856D03*
X503936Y657352D03*
X744220Y295148D03*
X775716Y354584D03*
X524764Y609600D03*
X732028Y259588D03*
X148336Y630936D03*
X509524Y657352D03*
X727964Y579628D03*
X683260Y569976D03*
X551688Y592328D03*
X676148Y372872D03*
X717804Y575056D03*
X796544Y279400D03*
X798068Y365252D03*
X777748Y297180D03*
X794004Y361188D03*
X779780Y552196D03*
X656844Y668020D03*
X915924Y342900D03*
X945896Y342900D03*
X678688Y347980D03*
X762508Y352552D03*
X981964Y330200D03*
X894080Y356108D03*
X779780Y369824D03*
X771652Y369824D03*
X931672Y299212D03*
X946912Y299212D03*
X874776Y321564D03*
X981964Y317500D03*
X935736Y324104D03*
X921004Y427228D03*
X935736Y427228D03*
X929132Y502920D03*
X919480Y498348D03*
X630428Y314960D03*
X693928Y575056D03*
X620268Y322072D03*
X626364Y327660D03*
X693420Y643636D03*
X665988Y236728D03*
X548640Y291084D03*
X589280Y366776D03*
X714248Y643636D03*
X820928Y294132D03*
X769112Y339852D03*
X728980Y640080D03*
X740664Y338328D03*
X728980Y634492D03*
X695960Y372872D03*
X699516Y620776D03*
X652780Y332232D03*
X925576Y510032D03*
X452120Y657860D03*
X677672Y124460D03*
X555752Y614680D03*
X543052Y246888D03*
X482600Y648716D03*
X443992Y648716D03*
X701040Y328168D03*
X770636Y164084D03*
X511556Y586740D03*
X541528Y556768D03*
X402844Y705612D03*
X520192Y600964D03*
X503428Y602488D03*
X672084Y124460D03*
X442976Y152400D03*
X267208Y408432D03*
X671576Y101600D03*
X671576Y152400D03*
X712216Y418084D03*
X375412Y741172D03*
X798576Y330200D03*
X437388Y741172D03*
X904748Y111760D03*
X904748Y143256D03*
X332232Y408432D03*
X557784Y264160D03*
X715772Y372872D03*
X696976Y692404D03*
X644144Y392684D03*
X340868Y565404D03*
X231140Y472440D03*
X503936Y612648D03*
X699008Y197612D03*
X350520Y188468D03*
X548640Y297180D03*
X630428Y282448D03*
X1033272Y237236D03*
X1030224Y317500D03*
D68*
X50800Y774700D03*
X152400Y774700D03*
X266700Y774700D03*
X406400Y774700D03*
X342900Y698500D03*
X457200Y685800D03*
X342900Y635000D03*
X393700Y571500D03*
X482600Y571500D03*
X552450Y640080D03*
X596900Y635000D03*
X469900Y774700D03*
X546100Y711200D03*
X635000Y711200D03*
X711200Y711200D03*
X711200Y660400D03*
X704850Y589280D03*
X711200Y532130D03*
X609600Y533400D03*
X571500Y508000D03*
X444500Y444500D03*
X355600Y342900D03*
X254000Y330200D03*
X177800Y368300D03*
X190500Y495300D03*
X76200Y482600D03*
X76200Y317500D03*
X76200Y165100D03*
X76200Y76200D03*
X152400Y25400D03*
X203200Y88900D03*
X190500Y177800D03*
X292100Y190500D03*
X292100Y228600D03*
X317500Y101600D03*
X406400Y101600D03*
X520700Y101600D03*
X520700Y177800D03*
X406400Y254000D03*
X393700Y190500D03*
X383540Y227330D03*
X701040Y100330D03*
X624840Y214630D03*
X736600Y139700D03*
X800100Y101600D03*
X800100Y228600D03*
X939800Y228600D03*
X1003300Y165100D03*
X1003300Y38100D03*
X939800Y76200D03*
X876300Y292100D03*
X838200Y330200D03*
X838200Y381000D03*
X838200Y457200D03*
X1003300Y381000D03*
X1003300Y558800D03*
X901700Y558800D03*
X812800Y596900D03*
X825500Y736600D03*
X990600Y736600D03*
X825500Y533400D03*
X736600Y419100D03*
X596900Y419100D03*
X673100Y317500D03*
X508000Y355600D03*
X685800Y457200D03*
X673100Y266700D03*
X703580Y222250D03*
X636270Y147320D03*
X293370Y523240D03*
X279400Y584200D03*
X127000Y596900D03*
X266700Y647700D03*
X165100Y647700D03*
X88900Y660400D03*
X88900Y711200D03*
X139700Y711200D03*
X508000Y273050D03*
X661670Y290830D03*
X839470Y163830D03*
X607060Y834390D03*
X453390Y834390D03*
X266700Y838200D03*
X787400Y292100D03*
D67*
X702564Y277368D03*
X749808Y252984D03*
X816864Y252984D03*
X619252Y264160D03*
X630428Y267208D03*
X744220Y272288D03*
X718312Y307340D03*
X712724Y338328D03*
X728980Y609600D03*
X812292Y302768D03*
X644652Y675132D03*
X378460Y732028D03*
X405384Y710692D03*
M02*
