G04 EAGLE Gerber RS-274X export*
G75*
%MOMM*%
%FSLAX34Y34*%
%LPD*%
%IN*%
%IPPOS*%
%AMOC8*
5,1,8,0,0,1.08239X$1,22.5*%
G01*
%ADD10C,0.254000*%


D10*
X0Y0D02*
X1066600Y0D01*
X1066600Y847600D01*
X0Y847600D01*
X0Y0D01*
X691987Y679050D02*
X691565Y679106D01*
X691153Y679216D01*
X690759Y679379D01*
X690391Y679592D01*
X690053Y679851D01*
X689751Y680153D01*
X689492Y680491D01*
X689279Y680859D01*
X689116Y681253D01*
X689006Y681665D01*
X688950Y682087D01*
X688950Y682513D01*
X689006Y682935D01*
X689116Y683347D01*
X689279Y683741D01*
X689492Y684109D01*
X689751Y684447D01*
X690053Y684749D01*
X690391Y685008D01*
X690759Y685221D01*
X691153Y685384D01*
X691565Y685494D01*
X691987Y685550D01*
X692413Y685550D01*
X692835Y685494D01*
X693247Y685384D01*
X693641Y685221D01*
X694009Y685008D01*
X694347Y684749D01*
X694649Y684447D01*
X694908Y684109D01*
X695121Y683741D01*
X695284Y683347D01*
X695394Y682935D01*
X695450Y682513D01*
X695450Y682087D01*
X695394Y681665D01*
X695284Y681253D01*
X695121Y680859D01*
X694908Y680491D01*
X694649Y680153D01*
X694347Y679851D01*
X694009Y679592D01*
X693641Y679379D01*
X693247Y679216D01*
X692835Y679106D01*
X692413Y679050D01*
X691987Y679050D01*
X691987Y559050D02*
X691565Y559106D01*
X691153Y559216D01*
X690759Y559379D01*
X690391Y559592D01*
X690053Y559851D01*
X689751Y560153D01*
X689492Y560491D01*
X689279Y560859D01*
X689116Y561253D01*
X689006Y561665D01*
X688950Y562087D01*
X688950Y562513D01*
X689006Y562935D01*
X689116Y563347D01*
X689279Y563741D01*
X689492Y564109D01*
X689751Y564447D01*
X690053Y564749D01*
X690391Y565008D01*
X690759Y565221D01*
X691153Y565384D01*
X691565Y565494D01*
X691987Y565550D01*
X692413Y565550D01*
X692835Y565494D01*
X693247Y565384D01*
X693641Y565221D01*
X694009Y565008D01*
X694347Y564749D01*
X694649Y564447D01*
X694908Y564109D01*
X695121Y563741D01*
X695284Y563347D01*
X695394Y562935D01*
X695450Y562513D01*
X695450Y562087D01*
X695394Y561665D01*
X695284Y561253D01*
X695121Y560859D01*
X694908Y560491D01*
X694649Y560153D01*
X694347Y559851D01*
X694009Y559592D01*
X693641Y559379D01*
X693247Y559216D01*
X692835Y559106D01*
X692413Y559050D01*
X691987Y559050D01*
X25695Y611800D02*
X26280Y611723D01*
X26850Y611570D01*
X27395Y611345D01*
X27905Y611050D01*
X28373Y610691D01*
X28791Y610273D01*
X29150Y609805D01*
X29445Y609295D01*
X29670Y608750D01*
X29823Y608180D01*
X29900Y607595D01*
X29900Y607005D01*
X29823Y606420D01*
X29670Y605850D01*
X29445Y605305D01*
X29150Y604795D01*
X28791Y604327D01*
X28373Y603909D01*
X27905Y603550D01*
X27395Y603255D01*
X26850Y603030D01*
X26280Y602877D01*
X25695Y602800D01*
X25105Y602800D01*
X24520Y602877D01*
X23950Y603030D01*
X23405Y603255D01*
X22895Y603550D01*
X22427Y603909D01*
X22009Y604327D01*
X21650Y604795D01*
X21355Y605305D01*
X21130Y605850D01*
X20977Y606420D01*
X20900Y607005D01*
X20900Y607595D01*
X20977Y608180D01*
X21130Y608750D01*
X21355Y609295D01*
X21650Y609805D01*
X22009Y610273D01*
X22427Y610691D01*
X22895Y611050D01*
X23405Y611345D01*
X23950Y611570D01*
X24520Y611723D01*
X25105Y611800D01*
X25695Y611800D01*
X25695Y641800D02*
X26280Y641723D01*
X26850Y641570D01*
X27395Y641345D01*
X27905Y641050D01*
X28373Y640691D01*
X28791Y640273D01*
X29150Y639805D01*
X29445Y639295D01*
X29670Y638750D01*
X29823Y638180D01*
X29900Y637595D01*
X29900Y637005D01*
X29823Y636420D01*
X29670Y635850D01*
X29445Y635305D01*
X29150Y634795D01*
X28791Y634327D01*
X28373Y633909D01*
X27905Y633550D01*
X27395Y633255D01*
X26850Y633030D01*
X26280Y632877D01*
X25695Y632800D01*
X25105Y632800D01*
X24520Y632877D01*
X23950Y633030D01*
X23405Y633255D01*
X22895Y633550D01*
X22427Y633909D01*
X22009Y634327D01*
X21650Y634795D01*
X21355Y635305D01*
X21130Y635850D01*
X20977Y636420D01*
X20900Y637005D01*
X20900Y637595D01*
X20977Y638180D01*
X21130Y638750D01*
X21355Y639295D01*
X21650Y639805D01*
X22009Y640273D01*
X22427Y640691D01*
X22895Y641050D01*
X23405Y641345D01*
X23950Y641570D01*
X24520Y641723D01*
X25105Y641800D01*
X25695Y641800D01*
M02*
