G04 EAGLE Gerber RS-274X export*
G75*
%MOMM*%
%FSLAX34Y34*%
%LPD*%
%INSilkscreen Bottom*%
%IPPOS*%
%AMOC8*
5,1,8,0,0,1.08239X$1,22.5*%
G01*
%ADD10C,0.127000*%
%ADD11C,0.304800*%
%ADD12C,0.203200*%
%ADD13C,0.101600*%
%ADD14C,0.254000*%
%ADD15C,0.150000*%
%ADD16C,0.152400*%
%ADD17C,0.200000*%
%ADD18C,0.070000*%
%ADD19R,1.800000X0.600000*%
%ADD20R,1.100000X0.600000*%
%ADD21C,0.076200*%
%ADD22C,0.500000*%
%ADD23C,0.508000*%
%ADD24C,0.254000*%


D10*
X208600Y302250D02*
X208600Y269250D01*
X248600Y269250D01*
X248600Y302250D01*
X208600Y302250D01*
X239258Y265350D02*
X239260Y265425D01*
X239266Y265501D01*
X239276Y265576D01*
X239290Y265650D01*
X239307Y265723D01*
X239329Y265796D01*
X239354Y265867D01*
X239383Y265937D01*
X239415Y266005D01*
X239451Y266071D01*
X239491Y266135D01*
X239533Y266198D01*
X239579Y266257D01*
X239628Y266315D01*
X239680Y266370D01*
X239735Y266422D01*
X239793Y266471D01*
X239852Y266517D01*
X239915Y266559D01*
X239979Y266599D01*
X240045Y266635D01*
X240113Y266667D01*
X240183Y266696D01*
X240254Y266721D01*
X240327Y266743D01*
X240400Y266760D01*
X240474Y266774D01*
X240549Y266784D01*
X240625Y266790D01*
X240700Y266792D01*
X240775Y266790D01*
X240851Y266784D01*
X240926Y266774D01*
X241000Y266760D01*
X241073Y266743D01*
X241146Y266721D01*
X241217Y266696D01*
X241287Y266667D01*
X241355Y266635D01*
X241421Y266599D01*
X241485Y266559D01*
X241548Y266517D01*
X241607Y266471D01*
X241665Y266422D01*
X241720Y266370D01*
X241772Y266315D01*
X241821Y266257D01*
X241867Y266198D01*
X241909Y266135D01*
X241949Y266071D01*
X241985Y266005D01*
X242017Y265937D01*
X242046Y265867D01*
X242071Y265796D01*
X242093Y265723D01*
X242110Y265650D01*
X242124Y265576D01*
X242134Y265501D01*
X242140Y265425D01*
X242142Y265350D01*
X242140Y265275D01*
X242134Y265199D01*
X242124Y265124D01*
X242110Y265050D01*
X242093Y264977D01*
X242071Y264904D01*
X242046Y264833D01*
X242017Y264763D01*
X241985Y264695D01*
X241949Y264629D01*
X241909Y264565D01*
X241867Y264502D01*
X241821Y264443D01*
X241772Y264385D01*
X241720Y264330D01*
X241665Y264278D01*
X241607Y264229D01*
X241548Y264183D01*
X241485Y264141D01*
X241421Y264101D01*
X241355Y264065D01*
X241287Y264033D01*
X241217Y264004D01*
X241146Y263979D01*
X241073Y263957D01*
X241000Y263940D01*
X240926Y263926D01*
X240851Y263916D01*
X240775Y263910D01*
X240700Y263908D01*
X240625Y263910D01*
X240549Y263916D01*
X240474Y263926D01*
X240400Y263940D01*
X240327Y263957D01*
X240254Y263979D01*
X240183Y264004D01*
X240113Y264033D01*
X240045Y264065D01*
X239979Y264101D01*
X239915Y264141D01*
X239852Y264183D01*
X239793Y264229D01*
X239735Y264278D01*
X239680Y264330D01*
X239628Y264385D01*
X239579Y264443D01*
X239533Y264502D01*
X239491Y264565D01*
X239451Y264629D01*
X239415Y264695D01*
X239383Y264763D01*
X239354Y264833D01*
X239329Y264904D01*
X239307Y264977D01*
X239290Y265050D01*
X239276Y265124D01*
X239266Y265199D01*
X239260Y265275D01*
X239258Y265350D01*
D11*
X41333Y247815D02*
X41335Y247969D01*
X41341Y248124D01*
X41351Y248278D01*
X41365Y248432D01*
X41383Y248585D01*
X41404Y248738D01*
X41430Y248891D01*
X41460Y249042D01*
X41493Y249193D01*
X41531Y249343D01*
X41572Y249492D01*
X41617Y249640D01*
X41666Y249786D01*
X41719Y249932D01*
X41775Y250075D01*
X41835Y250218D01*
X41899Y250358D01*
X41966Y250498D01*
X42037Y250635D01*
X42111Y250770D01*
X42189Y250904D01*
X42270Y251035D01*
X42355Y251164D01*
X42443Y251292D01*
X42534Y251416D01*
X42628Y251539D01*
X42726Y251659D01*
X42826Y251776D01*
X42930Y251891D01*
X43036Y252003D01*
X43145Y252112D01*
X43257Y252218D01*
X43372Y252322D01*
X43489Y252422D01*
X43609Y252520D01*
X43732Y252614D01*
X43856Y252705D01*
X43984Y252793D01*
X44113Y252878D01*
X44244Y252959D01*
X44378Y253037D01*
X44513Y253111D01*
X44650Y253182D01*
X44790Y253249D01*
X44930Y253313D01*
X45073Y253373D01*
X45216Y253429D01*
X45362Y253482D01*
X45508Y253531D01*
X45656Y253576D01*
X45805Y253617D01*
X45955Y253655D01*
X46106Y253688D01*
X46257Y253718D01*
X46410Y253744D01*
X46563Y253765D01*
X46716Y253783D01*
X46870Y253797D01*
X47024Y253807D01*
X47179Y253813D01*
X47333Y253815D01*
X47487Y253813D01*
X47642Y253807D01*
X47796Y253797D01*
X47950Y253783D01*
X48103Y253765D01*
X48256Y253744D01*
X48409Y253718D01*
X48560Y253688D01*
X48711Y253655D01*
X48861Y253617D01*
X49010Y253576D01*
X49158Y253531D01*
X49304Y253482D01*
X49450Y253429D01*
X49593Y253373D01*
X49736Y253313D01*
X49876Y253249D01*
X50016Y253182D01*
X50153Y253111D01*
X50288Y253037D01*
X50422Y252959D01*
X50553Y252878D01*
X50682Y252793D01*
X50810Y252705D01*
X50934Y252614D01*
X51057Y252520D01*
X51177Y252422D01*
X51294Y252322D01*
X51409Y252218D01*
X51521Y252112D01*
X51630Y252003D01*
X51736Y251891D01*
X51840Y251776D01*
X51940Y251659D01*
X52038Y251539D01*
X52132Y251416D01*
X52223Y251292D01*
X52311Y251164D01*
X52396Y251035D01*
X52477Y250904D01*
X52555Y250770D01*
X52629Y250635D01*
X52700Y250498D01*
X52767Y250358D01*
X52831Y250218D01*
X52891Y250075D01*
X52947Y249932D01*
X53000Y249786D01*
X53049Y249640D01*
X53094Y249492D01*
X53135Y249343D01*
X53173Y249193D01*
X53206Y249042D01*
X53236Y248891D01*
X53262Y248738D01*
X53283Y248585D01*
X53301Y248432D01*
X53315Y248278D01*
X53325Y248124D01*
X53331Y247969D01*
X53333Y247815D01*
X53331Y247661D01*
X53325Y247506D01*
X53315Y247352D01*
X53301Y247198D01*
X53283Y247045D01*
X53262Y246892D01*
X53236Y246739D01*
X53206Y246588D01*
X53173Y246437D01*
X53135Y246287D01*
X53094Y246138D01*
X53049Y245990D01*
X53000Y245844D01*
X52947Y245698D01*
X52891Y245555D01*
X52831Y245412D01*
X52767Y245272D01*
X52700Y245132D01*
X52629Y244995D01*
X52555Y244860D01*
X52477Y244726D01*
X52396Y244595D01*
X52311Y244466D01*
X52223Y244338D01*
X52132Y244214D01*
X52038Y244091D01*
X51940Y243971D01*
X51840Y243854D01*
X51736Y243739D01*
X51630Y243627D01*
X51521Y243518D01*
X51409Y243412D01*
X51294Y243308D01*
X51177Y243208D01*
X51057Y243110D01*
X50934Y243016D01*
X50810Y242925D01*
X50682Y242837D01*
X50553Y242752D01*
X50422Y242671D01*
X50288Y242593D01*
X50153Y242519D01*
X50016Y242448D01*
X49876Y242381D01*
X49736Y242317D01*
X49593Y242257D01*
X49450Y242201D01*
X49304Y242148D01*
X49158Y242099D01*
X49010Y242054D01*
X48861Y242013D01*
X48711Y241975D01*
X48560Y241942D01*
X48409Y241912D01*
X48256Y241886D01*
X48103Y241865D01*
X47950Y241847D01*
X47796Y241833D01*
X47642Y241823D01*
X47487Y241817D01*
X47333Y241815D01*
X47179Y241817D01*
X47024Y241823D01*
X46870Y241833D01*
X46716Y241847D01*
X46563Y241865D01*
X46410Y241886D01*
X46257Y241912D01*
X46106Y241942D01*
X45955Y241975D01*
X45805Y242013D01*
X45656Y242054D01*
X45508Y242099D01*
X45362Y242148D01*
X45216Y242201D01*
X45073Y242257D01*
X44930Y242317D01*
X44790Y242381D01*
X44650Y242448D01*
X44513Y242519D01*
X44378Y242593D01*
X44244Y242671D01*
X44113Y242752D01*
X43984Y242837D01*
X43856Y242925D01*
X43732Y243016D01*
X43609Y243110D01*
X43489Y243208D01*
X43372Y243308D01*
X43257Y243412D01*
X43145Y243518D01*
X43036Y243627D01*
X42930Y243739D01*
X42826Y243854D01*
X42726Y243971D01*
X42628Y244091D01*
X42534Y244214D01*
X42443Y244338D01*
X42355Y244466D01*
X42270Y244595D01*
X42189Y244726D01*
X42111Y244860D01*
X42037Y244995D01*
X41966Y245132D01*
X41899Y245272D01*
X41835Y245412D01*
X41775Y245555D01*
X41719Y245698D01*
X41666Y245844D01*
X41617Y245990D01*
X41572Y246138D01*
X41531Y246287D01*
X41493Y246437D01*
X41460Y246588D01*
X41430Y246739D01*
X41404Y246892D01*
X41383Y247045D01*
X41365Y247198D01*
X41351Y247352D01*
X41341Y247506D01*
X41335Y247661D01*
X41333Y247815D01*
D10*
X57734Y231414D02*
X57734Y227414D01*
X57734Y231414D02*
X63734Y237414D01*
X67734Y237414D01*
X247734Y237414D02*
X257734Y237414D01*
X257734Y229414D01*
X257734Y47414D02*
X257734Y37414D01*
X247734Y37414D01*
X57734Y37414D02*
X57734Y47414D01*
X57734Y37414D02*
X67734Y37414D01*
D12*
X300602Y154004D02*
X300602Y164004D01*
X315602Y164004D02*
X315602Y154004D01*
D13*
X287020Y164044D02*
X277932Y164044D01*
X277932Y164043D02*
X277833Y164041D01*
X277733Y164035D01*
X277634Y164026D01*
X277536Y164013D01*
X277438Y163996D01*
X277340Y163975D01*
X277244Y163950D01*
X277149Y163922D01*
X277055Y163890D01*
X276962Y163855D01*
X276870Y163816D01*
X276780Y163773D01*
X276692Y163728D01*
X276605Y163678D01*
X276521Y163626D01*
X276438Y163570D01*
X276358Y163512D01*
X276280Y163450D01*
X276205Y163385D01*
X276132Y163317D01*
X276062Y163247D01*
X275994Y163174D01*
X275929Y163099D01*
X275867Y163021D01*
X275809Y162941D01*
X275753Y162858D01*
X275701Y162774D01*
X275651Y162687D01*
X275606Y162599D01*
X275563Y162509D01*
X275524Y162417D01*
X275489Y162324D01*
X275457Y162230D01*
X275429Y162135D01*
X275404Y162039D01*
X275383Y161941D01*
X275366Y161843D01*
X275353Y161745D01*
X275344Y161646D01*
X275338Y161546D01*
X275336Y161447D01*
X275336Y160149D01*
X275336Y169868D02*
X287020Y169868D01*
X287020Y173113D01*
X287018Y173226D01*
X287012Y173339D01*
X287002Y173452D01*
X286988Y173565D01*
X286971Y173677D01*
X286949Y173788D01*
X286924Y173898D01*
X286894Y174008D01*
X286861Y174116D01*
X286824Y174223D01*
X286784Y174329D01*
X286739Y174433D01*
X286691Y174536D01*
X286640Y174637D01*
X286585Y174736D01*
X286527Y174833D01*
X286465Y174928D01*
X286400Y175021D01*
X286332Y175111D01*
X286261Y175199D01*
X286186Y175285D01*
X286109Y175368D01*
X286029Y175448D01*
X285946Y175525D01*
X285860Y175600D01*
X285772Y175671D01*
X285682Y175739D01*
X285589Y175804D01*
X285494Y175866D01*
X285397Y175924D01*
X285298Y175979D01*
X285197Y176030D01*
X285094Y176078D01*
X284990Y176123D01*
X284884Y176163D01*
X284777Y176200D01*
X284669Y176233D01*
X284559Y176263D01*
X284449Y176288D01*
X284338Y176310D01*
X284226Y176327D01*
X284113Y176341D01*
X284000Y176351D01*
X283887Y176357D01*
X283774Y176359D01*
X283661Y176357D01*
X283548Y176351D01*
X283435Y176341D01*
X283322Y176327D01*
X283210Y176310D01*
X283099Y176288D01*
X282989Y176263D01*
X282879Y176233D01*
X282771Y176200D01*
X282664Y176163D01*
X282558Y176123D01*
X282454Y176078D01*
X282351Y176030D01*
X282250Y175979D01*
X282151Y175924D01*
X282054Y175866D01*
X281959Y175804D01*
X281866Y175739D01*
X281776Y175671D01*
X281688Y175600D01*
X281602Y175525D01*
X281519Y175448D01*
X281439Y175368D01*
X281362Y175285D01*
X281287Y175199D01*
X281216Y175111D01*
X281148Y175021D01*
X281083Y174928D01*
X281021Y174833D01*
X280963Y174736D01*
X280908Y174637D01*
X280857Y174536D01*
X280809Y174433D01*
X280764Y174329D01*
X280724Y174223D01*
X280687Y174116D01*
X280654Y174008D01*
X280624Y173898D01*
X280599Y173788D01*
X280577Y173677D01*
X280560Y173565D01*
X280546Y173452D01*
X280536Y173339D01*
X280530Y173226D01*
X280528Y173113D01*
X280529Y173113D02*
X280529Y169868D01*
X275985Y180239D02*
X275336Y180239D01*
X275985Y180239D02*
X275985Y180888D01*
X275336Y180888D01*
X275336Y180239D01*
X275336Y186279D02*
X287020Y186279D01*
X275336Y184981D02*
X275336Y187577D01*
X287020Y187577D02*
X287020Y184981D01*
X287020Y192728D02*
X275336Y192728D01*
X287020Y192728D02*
X287020Y195973D01*
X287018Y196086D01*
X287012Y196199D01*
X287002Y196312D01*
X286988Y196425D01*
X286971Y196537D01*
X286949Y196648D01*
X286924Y196758D01*
X286894Y196868D01*
X286861Y196976D01*
X286824Y197083D01*
X286784Y197189D01*
X286739Y197293D01*
X286691Y197396D01*
X286640Y197497D01*
X286585Y197596D01*
X286527Y197693D01*
X286465Y197788D01*
X286400Y197881D01*
X286332Y197971D01*
X286261Y198059D01*
X286186Y198145D01*
X286109Y198228D01*
X286029Y198308D01*
X285946Y198385D01*
X285860Y198460D01*
X285772Y198531D01*
X285682Y198599D01*
X285589Y198664D01*
X285494Y198726D01*
X285397Y198784D01*
X285298Y198839D01*
X285197Y198890D01*
X285094Y198938D01*
X284990Y198983D01*
X284884Y199023D01*
X284777Y199060D01*
X284669Y199093D01*
X284559Y199123D01*
X284449Y199148D01*
X284338Y199170D01*
X284226Y199187D01*
X284113Y199201D01*
X284000Y199211D01*
X283887Y199217D01*
X283774Y199219D01*
X283661Y199217D01*
X283548Y199211D01*
X283435Y199201D01*
X283322Y199187D01*
X283210Y199170D01*
X283099Y199148D01*
X282989Y199123D01*
X282879Y199093D01*
X282771Y199060D01*
X282664Y199023D01*
X282558Y198983D01*
X282454Y198938D01*
X282351Y198890D01*
X282250Y198839D01*
X282151Y198784D01*
X282054Y198726D01*
X281959Y198664D01*
X281866Y198599D01*
X281776Y198531D01*
X281688Y198460D01*
X281602Y198385D01*
X281519Y198308D01*
X281439Y198228D01*
X281362Y198145D01*
X281287Y198059D01*
X281216Y197971D01*
X281148Y197881D01*
X281083Y197788D01*
X281021Y197693D01*
X280963Y197596D01*
X280908Y197497D01*
X280857Y197396D01*
X280809Y197293D01*
X280764Y197189D01*
X280724Y197083D01*
X280687Y196976D01*
X280654Y196868D01*
X280624Y196758D01*
X280599Y196648D01*
X280577Y196537D01*
X280560Y196425D01*
X280546Y196312D01*
X280536Y196199D01*
X280530Y196086D01*
X280528Y195973D01*
X280529Y195973D02*
X280529Y192728D01*
X275985Y203099D02*
X275336Y203099D01*
X275985Y203099D02*
X275985Y203748D01*
X275336Y203748D01*
X275336Y203099D01*
X278582Y208560D02*
X287020Y208560D01*
X278582Y208560D02*
X278469Y208562D01*
X278356Y208568D01*
X278243Y208578D01*
X278130Y208592D01*
X278018Y208609D01*
X277907Y208631D01*
X277797Y208656D01*
X277687Y208686D01*
X277579Y208719D01*
X277472Y208756D01*
X277366Y208796D01*
X277262Y208841D01*
X277159Y208889D01*
X277058Y208940D01*
X276959Y208995D01*
X276862Y209053D01*
X276767Y209115D01*
X276674Y209180D01*
X276584Y209248D01*
X276496Y209319D01*
X276410Y209394D01*
X276327Y209471D01*
X276247Y209551D01*
X276170Y209634D01*
X276095Y209720D01*
X276024Y209808D01*
X275956Y209898D01*
X275891Y209991D01*
X275829Y210086D01*
X275771Y210183D01*
X275716Y210282D01*
X275665Y210383D01*
X275617Y210486D01*
X275572Y210590D01*
X275532Y210696D01*
X275495Y210803D01*
X275462Y210911D01*
X275432Y211021D01*
X275407Y211131D01*
X275385Y211242D01*
X275368Y211354D01*
X275354Y211467D01*
X275344Y211580D01*
X275338Y211693D01*
X275336Y211806D01*
X275338Y211919D01*
X275344Y212032D01*
X275354Y212145D01*
X275368Y212258D01*
X275385Y212370D01*
X275407Y212481D01*
X275432Y212591D01*
X275462Y212701D01*
X275495Y212809D01*
X275532Y212916D01*
X275572Y213022D01*
X275617Y213126D01*
X275665Y213229D01*
X275716Y213330D01*
X275771Y213429D01*
X275829Y213526D01*
X275891Y213621D01*
X275956Y213714D01*
X276024Y213804D01*
X276095Y213892D01*
X276170Y213978D01*
X276247Y214061D01*
X276327Y214141D01*
X276410Y214218D01*
X276496Y214293D01*
X276584Y214364D01*
X276674Y214432D01*
X276767Y214497D01*
X276862Y214559D01*
X276959Y214617D01*
X277058Y214672D01*
X277159Y214723D01*
X277262Y214771D01*
X277366Y214816D01*
X277472Y214856D01*
X277579Y214893D01*
X277687Y214926D01*
X277797Y214956D01*
X277907Y214981D01*
X278018Y215003D01*
X278130Y215020D01*
X278243Y215034D01*
X278356Y215044D01*
X278469Y215050D01*
X278582Y215052D01*
X278582Y215051D02*
X287020Y215051D01*
X287020Y222855D02*
X275336Y222855D01*
X287020Y219609D02*
X287020Y226100D01*
X287020Y230771D02*
X275336Y230771D01*
X280529Y234666D02*
X287020Y230771D01*
X280529Y234666D02*
X287020Y238560D01*
X275336Y238560D01*
X275336Y244953D02*
X287020Y244953D01*
X275336Y243654D02*
X275336Y246251D01*
X287020Y246251D02*
X287020Y243654D01*
D14*
X506815Y22860D02*
X506815Y14958D01*
X506817Y14865D01*
X506823Y14772D01*
X506832Y14679D01*
X506846Y14586D01*
X506863Y14495D01*
X506884Y14404D01*
X506909Y14314D01*
X506937Y14225D01*
X506969Y14137D01*
X507005Y14051D01*
X507044Y13966D01*
X507087Y13883D01*
X507133Y13802D01*
X507183Y13723D01*
X507235Y13646D01*
X507291Y13571D01*
X507350Y13499D01*
X507412Y13429D01*
X507476Y13361D01*
X507544Y13297D01*
X507614Y13235D01*
X507686Y13176D01*
X507761Y13120D01*
X507838Y13068D01*
X507917Y13018D01*
X507998Y12972D01*
X508081Y12929D01*
X508166Y12890D01*
X508252Y12854D01*
X508340Y12822D01*
X508429Y12794D01*
X508519Y12769D01*
X508610Y12748D01*
X508701Y12731D01*
X508794Y12717D01*
X508887Y12708D01*
X508980Y12702D01*
X509073Y12700D01*
X510202Y12700D01*
X500053Y12700D02*
X500053Y22860D01*
X497231Y22860D01*
X497125Y22858D01*
X497020Y22852D01*
X496915Y22842D01*
X496810Y22828D01*
X496706Y22811D01*
X496603Y22789D01*
X496501Y22764D01*
X496399Y22735D01*
X496299Y22702D01*
X496200Y22665D01*
X496103Y22625D01*
X496007Y22581D01*
X495912Y22533D01*
X495820Y22482D01*
X495730Y22427D01*
X495641Y22370D01*
X495555Y22309D01*
X495472Y22244D01*
X495390Y22177D01*
X495312Y22107D01*
X495236Y22033D01*
X495162Y21957D01*
X495092Y21879D01*
X495025Y21797D01*
X494960Y21714D01*
X494899Y21628D01*
X494842Y21539D01*
X494787Y21449D01*
X494736Y21357D01*
X494688Y21262D01*
X494644Y21166D01*
X494604Y21069D01*
X494567Y20970D01*
X494534Y20870D01*
X494505Y20768D01*
X494480Y20666D01*
X494458Y20563D01*
X494441Y20459D01*
X494427Y20354D01*
X494417Y20249D01*
X494411Y20144D01*
X494409Y20038D01*
X494411Y19932D01*
X494417Y19827D01*
X494427Y19722D01*
X494441Y19617D01*
X494458Y19513D01*
X494480Y19410D01*
X494505Y19308D01*
X494534Y19206D01*
X494567Y19106D01*
X494604Y19007D01*
X494644Y18910D01*
X494688Y18814D01*
X494736Y18719D01*
X494787Y18627D01*
X494842Y18537D01*
X494899Y18448D01*
X494960Y18362D01*
X495025Y18279D01*
X495092Y18197D01*
X495162Y18119D01*
X495236Y18043D01*
X495312Y17969D01*
X495390Y17899D01*
X495472Y17832D01*
X495555Y17767D01*
X495641Y17706D01*
X495730Y17649D01*
X495820Y17594D01*
X495912Y17543D01*
X496007Y17495D01*
X496103Y17451D01*
X496200Y17411D01*
X496299Y17374D01*
X496399Y17341D01*
X496501Y17312D01*
X496603Y17287D01*
X496706Y17265D01*
X496810Y17248D01*
X496915Y17234D01*
X497020Y17224D01*
X497125Y17218D01*
X497231Y17216D01*
X500053Y17216D01*
X490189Y13264D02*
X490189Y12700D01*
X490189Y13264D02*
X489625Y13264D01*
X489625Y12700D01*
X490189Y12700D01*
X484051Y12700D02*
X484051Y22860D01*
X481229Y22860D01*
X481123Y22858D01*
X481018Y22852D01*
X480913Y22842D01*
X480808Y22828D01*
X480704Y22811D01*
X480601Y22789D01*
X480499Y22764D01*
X480397Y22735D01*
X480297Y22702D01*
X480198Y22665D01*
X480101Y22625D01*
X480005Y22581D01*
X479910Y22533D01*
X479818Y22482D01*
X479728Y22427D01*
X479639Y22370D01*
X479553Y22309D01*
X479470Y22244D01*
X479388Y22177D01*
X479310Y22107D01*
X479234Y22033D01*
X479160Y21957D01*
X479090Y21879D01*
X479023Y21797D01*
X478958Y21714D01*
X478897Y21628D01*
X478840Y21539D01*
X478785Y21449D01*
X478734Y21357D01*
X478686Y21262D01*
X478642Y21166D01*
X478602Y21069D01*
X478565Y20970D01*
X478532Y20870D01*
X478503Y20768D01*
X478478Y20666D01*
X478456Y20563D01*
X478439Y20459D01*
X478425Y20354D01*
X478415Y20249D01*
X478409Y20144D01*
X478407Y20038D01*
X478409Y19932D01*
X478415Y19827D01*
X478425Y19722D01*
X478439Y19617D01*
X478456Y19513D01*
X478478Y19410D01*
X478503Y19308D01*
X478532Y19206D01*
X478565Y19106D01*
X478602Y19007D01*
X478642Y18910D01*
X478686Y18814D01*
X478734Y18719D01*
X478785Y18627D01*
X478840Y18537D01*
X478897Y18448D01*
X478958Y18362D01*
X479023Y18279D01*
X479090Y18197D01*
X479160Y18119D01*
X479234Y18043D01*
X479310Y17969D01*
X479388Y17899D01*
X479470Y17832D01*
X479553Y17767D01*
X479639Y17706D01*
X479728Y17649D01*
X479818Y17594D01*
X479910Y17543D01*
X480005Y17495D01*
X480101Y17451D01*
X480198Y17411D01*
X480297Y17374D01*
X480397Y17341D01*
X480499Y17312D01*
X480601Y17287D01*
X480704Y17265D01*
X480808Y17248D01*
X480913Y17234D01*
X481018Y17224D01*
X481123Y17218D01*
X481229Y17216D01*
X484051Y17216D01*
X474187Y13264D02*
X474187Y12700D01*
X474187Y13264D02*
X473623Y13264D01*
X473623Y12700D01*
X474187Y12700D01*
X468049Y12700D02*
X468049Y22860D01*
X465227Y22860D01*
X465121Y22858D01*
X465016Y22852D01*
X464911Y22842D01*
X464806Y22828D01*
X464702Y22811D01*
X464599Y22789D01*
X464497Y22764D01*
X464395Y22735D01*
X464295Y22702D01*
X464196Y22665D01*
X464099Y22625D01*
X464003Y22581D01*
X463908Y22533D01*
X463816Y22482D01*
X463726Y22427D01*
X463637Y22370D01*
X463551Y22309D01*
X463468Y22244D01*
X463386Y22177D01*
X463308Y22107D01*
X463232Y22033D01*
X463158Y21957D01*
X463088Y21879D01*
X463021Y21797D01*
X462956Y21714D01*
X462895Y21628D01*
X462838Y21539D01*
X462783Y21449D01*
X462732Y21357D01*
X462684Y21262D01*
X462640Y21166D01*
X462600Y21069D01*
X462563Y20970D01*
X462530Y20870D01*
X462501Y20768D01*
X462476Y20666D01*
X462454Y20563D01*
X462437Y20459D01*
X462423Y20354D01*
X462413Y20249D01*
X462407Y20144D01*
X462405Y20038D01*
X462407Y19932D01*
X462413Y19827D01*
X462423Y19722D01*
X462437Y19617D01*
X462454Y19513D01*
X462476Y19410D01*
X462501Y19308D01*
X462530Y19206D01*
X462563Y19106D01*
X462600Y19007D01*
X462640Y18910D01*
X462684Y18814D01*
X462732Y18719D01*
X462783Y18627D01*
X462838Y18537D01*
X462895Y18448D01*
X462956Y18362D01*
X463021Y18279D01*
X463088Y18197D01*
X463158Y18119D01*
X463232Y18043D01*
X463308Y17969D01*
X463386Y17899D01*
X463468Y17832D01*
X463551Y17767D01*
X463637Y17706D01*
X463726Y17649D01*
X463816Y17594D01*
X463908Y17543D01*
X464003Y17495D01*
X464099Y17451D01*
X464196Y17411D01*
X464295Y17374D01*
X464395Y17341D01*
X464497Y17312D01*
X464599Y17287D01*
X464702Y17265D01*
X464806Y17248D01*
X464911Y17234D01*
X465016Y17224D01*
X465121Y17218D01*
X465227Y17216D01*
X468049Y17216D01*
X456787Y12700D02*
X456787Y22860D01*
X453964Y22860D01*
X453858Y22858D01*
X453753Y22852D01*
X453648Y22842D01*
X453543Y22828D01*
X453439Y22811D01*
X453336Y22789D01*
X453234Y22764D01*
X453132Y22735D01*
X453032Y22702D01*
X452933Y22665D01*
X452836Y22625D01*
X452740Y22581D01*
X452645Y22533D01*
X452553Y22482D01*
X452463Y22427D01*
X452374Y22370D01*
X452288Y22309D01*
X452205Y22244D01*
X452123Y22177D01*
X452045Y22107D01*
X451969Y22033D01*
X451895Y21957D01*
X451825Y21879D01*
X451758Y21797D01*
X451693Y21714D01*
X451632Y21628D01*
X451575Y21539D01*
X451520Y21449D01*
X451469Y21357D01*
X451421Y21262D01*
X451377Y21166D01*
X451337Y21069D01*
X451300Y20970D01*
X451267Y20870D01*
X451238Y20768D01*
X451213Y20666D01*
X451191Y20563D01*
X451174Y20459D01*
X451160Y20354D01*
X451150Y20249D01*
X451144Y20144D01*
X451142Y20038D01*
X451144Y19932D01*
X451150Y19827D01*
X451160Y19722D01*
X451174Y19617D01*
X451191Y19513D01*
X451213Y19410D01*
X451238Y19308D01*
X451267Y19206D01*
X451300Y19106D01*
X451337Y19007D01*
X451377Y18910D01*
X451421Y18814D01*
X451469Y18719D01*
X451520Y18627D01*
X451575Y18537D01*
X451632Y18448D01*
X451693Y18362D01*
X451758Y18279D01*
X451825Y18197D01*
X451895Y18119D01*
X451969Y18043D01*
X452045Y17969D01*
X452123Y17899D01*
X452205Y17832D01*
X452288Y17767D01*
X452374Y17706D01*
X452463Y17649D01*
X452553Y17594D01*
X452645Y17543D01*
X452740Y17495D01*
X452836Y17451D01*
X452933Y17411D01*
X453032Y17374D01*
X453132Y17341D01*
X453234Y17312D01*
X453336Y17287D01*
X453439Y17265D01*
X453543Y17248D01*
X453648Y17234D01*
X453753Y17224D01*
X453858Y17218D01*
X453964Y17216D01*
X456787Y17216D01*
X453400Y17216D02*
X451142Y12700D01*
X445485Y15522D02*
X445485Y20038D01*
X445483Y20144D01*
X445477Y20249D01*
X445467Y20354D01*
X445453Y20459D01*
X445436Y20563D01*
X445414Y20666D01*
X445389Y20768D01*
X445360Y20870D01*
X445327Y20970D01*
X445290Y21069D01*
X445250Y21166D01*
X445206Y21262D01*
X445158Y21357D01*
X445107Y21449D01*
X445052Y21539D01*
X444995Y21628D01*
X444934Y21714D01*
X444869Y21797D01*
X444802Y21879D01*
X444732Y21957D01*
X444658Y22033D01*
X444582Y22107D01*
X444504Y22177D01*
X444422Y22244D01*
X444339Y22309D01*
X444253Y22370D01*
X444164Y22427D01*
X444074Y22482D01*
X443982Y22533D01*
X443887Y22581D01*
X443791Y22625D01*
X443694Y22665D01*
X443595Y22702D01*
X443495Y22735D01*
X443393Y22764D01*
X443291Y22789D01*
X443188Y22811D01*
X443084Y22828D01*
X442979Y22842D01*
X442874Y22852D01*
X442769Y22858D01*
X442663Y22860D01*
X442557Y22858D01*
X442452Y22852D01*
X442347Y22842D01*
X442242Y22828D01*
X442138Y22811D01*
X442035Y22789D01*
X441933Y22764D01*
X441831Y22735D01*
X441731Y22702D01*
X441632Y22665D01*
X441535Y22625D01*
X441439Y22581D01*
X441344Y22533D01*
X441252Y22482D01*
X441162Y22427D01*
X441073Y22370D01*
X440987Y22309D01*
X440904Y22244D01*
X440822Y22177D01*
X440744Y22107D01*
X440668Y22033D01*
X440594Y21957D01*
X440524Y21879D01*
X440457Y21797D01*
X440392Y21714D01*
X440331Y21628D01*
X440274Y21539D01*
X440219Y21449D01*
X440168Y21357D01*
X440120Y21262D01*
X440076Y21166D01*
X440036Y21069D01*
X439999Y20970D01*
X439966Y20870D01*
X439937Y20768D01*
X439912Y20666D01*
X439890Y20563D01*
X439873Y20459D01*
X439859Y20354D01*
X439849Y20249D01*
X439843Y20144D01*
X439841Y20038D01*
X439841Y15522D01*
X439843Y15416D01*
X439849Y15311D01*
X439859Y15206D01*
X439873Y15101D01*
X439890Y14997D01*
X439912Y14894D01*
X439937Y14792D01*
X439966Y14690D01*
X439999Y14590D01*
X440036Y14491D01*
X440076Y14394D01*
X440120Y14298D01*
X440168Y14203D01*
X440219Y14111D01*
X440274Y14021D01*
X440331Y13932D01*
X440392Y13846D01*
X440457Y13763D01*
X440524Y13681D01*
X440594Y13603D01*
X440668Y13527D01*
X440744Y13453D01*
X440822Y13383D01*
X440904Y13316D01*
X440987Y13251D01*
X441073Y13190D01*
X441162Y13133D01*
X441252Y13078D01*
X441344Y13027D01*
X441439Y12979D01*
X441535Y12935D01*
X441632Y12895D01*
X441731Y12858D01*
X441831Y12825D01*
X441933Y12796D01*
X442035Y12771D01*
X442138Y12749D01*
X442242Y12732D01*
X442347Y12718D01*
X442452Y12708D01*
X442557Y12702D01*
X442663Y12700D01*
X442769Y12702D01*
X442874Y12708D01*
X442979Y12718D01*
X443084Y12732D01*
X443188Y12749D01*
X443291Y12771D01*
X443393Y12796D01*
X443495Y12825D01*
X443595Y12858D01*
X443694Y12895D01*
X443791Y12935D01*
X443887Y12979D01*
X443982Y13027D01*
X444074Y13078D01*
X444164Y13133D01*
X444253Y13190D01*
X444339Y13251D01*
X444422Y13316D01*
X444504Y13383D01*
X444582Y13453D01*
X444658Y13527D01*
X444732Y13603D01*
X444802Y13681D01*
X444869Y13763D01*
X444934Y13846D01*
X444995Y13932D01*
X445052Y14021D01*
X445107Y14111D01*
X445158Y14203D01*
X445206Y14298D01*
X445250Y14394D01*
X445290Y14491D01*
X445327Y14590D01*
X445360Y14690D01*
X445389Y14792D01*
X445414Y14894D01*
X445436Y14997D01*
X445453Y15101D01*
X445467Y15206D01*
X445477Y15311D01*
X445483Y15416D01*
X445485Y15522D01*
X431856Y12700D02*
X429598Y12700D01*
X431856Y12700D02*
X431949Y12702D01*
X432042Y12708D01*
X432135Y12717D01*
X432228Y12731D01*
X432319Y12748D01*
X432410Y12769D01*
X432500Y12794D01*
X432589Y12822D01*
X432677Y12854D01*
X432763Y12890D01*
X432848Y12929D01*
X432931Y12972D01*
X433012Y13018D01*
X433091Y13068D01*
X433168Y13120D01*
X433243Y13176D01*
X433315Y13235D01*
X433385Y13297D01*
X433453Y13361D01*
X433517Y13429D01*
X433579Y13499D01*
X433638Y13571D01*
X433694Y13646D01*
X433746Y13723D01*
X433796Y13802D01*
X433842Y13883D01*
X433885Y13966D01*
X433924Y14051D01*
X433960Y14137D01*
X433992Y14225D01*
X434020Y14314D01*
X434045Y14404D01*
X434066Y14495D01*
X434083Y14586D01*
X434097Y14679D01*
X434106Y14772D01*
X434112Y14865D01*
X434114Y14958D01*
X434113Y14958D02*
X434113Y20602D01*
X434114Y20602D02*
X434112Y20695D01*
X434106Y20788D01*
X434097Y20881D01*
X434083Y20974D01*
X434066Y21065D01*
X434045Y21156D01*
X434020Y21246D01*
X433992Y21335D01*
X433960Y21423D01*
X433924Y21509D01*
X433885Y21594D01*
X433842Y21677D01*
X433796Y21758D01*
X433746Y21837D01*
X433694Y21914D01*
X433638Y21989D01*
X433579Y22061D01*
X433517Y22131D01*
X433453Y22199D01*
X433385Y22263D01*
X433315Y22325D01*
X433243Y22384D01*
X433168Y22440D01*
X433091Y22492D01*
X433012Y22542D01*
X432931Y22588D01*
X432848Y22631D01*
X432763Y22670D01*
X432677Y22706D01*
X432589Y22738D01*
X432500Y22766D01*
X432410Y22791D01*
X432319Y22812D01*
X432228Y22829D01*
X432135Y22843D01*
X432042Y22852D01*
X431949Y22858D01*
X431856Y22860D01*
X429598Y22860D01*
X529308Y389020D02*
X537210Y389020D01*
X529308Y389020D02*
X529215Y389018D01*
X529122Y389012D01*
X529029Y389003D01*
X528936Y388989D01*
X528845Y388972D01*
X528754Y388951D01*
X528664Y388926D01*
X528575Y388898D01*
X528487Y388866D01*
X528401Y388830D01*
X528316Y388791D01*
X528233Y388748D01*
X528152Y388702D01*
X528073Y388652D01*
X527996Y388600D01*
X527921Y388544D01*
X527849Y388485D01*
X527779Y388423D01*
X527711Y388359D01*
X527647Y388291D01*
X527585Y388221D01*
X527526Y388149D01*
X527470Y388074D01*
X527418Y387997D01*
X527368Y387918D01*
X527322Y387837D01*
X527279Y387754D01*
X527240Y387669D01*
X527204Y387583D01*
X527172Y387495D01*
X527144Y387406D01*
X527119Y387316D01*
X527098Y387225D01*
X527081Y387134D01*
X527067Y387041D01*
X527058Y386948D01*
X527052Y386855D01*
X527050Y386762D01*
X527050Y385633D01*
X527050Y395782D02*
X537210Y395782D01*
X537210Y398604D01*
X537208Y398710D01*
X537202Y398815D01*
X537192Y398920D01*
X537178Y399025D01*
X537161Y399129D01*
X537139Y399232D01*
X537114Y399334D01*
X537085Y399436D01*
X537052Y399536D01*
X537015Y399635D01*
X536975Y399732D01*
X536931Y399828D01*
X536883Y399923D01*
X536832Y400015D01*
X536777Y400105D01*
X536720Y400194D01*
X536659Y400280D01*
X536594Y400363D01*
X536527Y400445D01*
X536457Y400523D01*
X536383Y400599D01*
X536307Y400673D01*
X536229Y400743D01*
X536147Y400810D01*
X536064Y400875D01*
X535978Y400936D01*
X535889Y400993D01*
X535799Y401048D01*
X535707Y401099D01*
X535612Y401147D01*
X535516Y401191D01*
X535419Y401231D01*
X535320Y401268D01*
X535220Y401301D01*
X535118Y401330D01*
X535016Y401355D01*
X534913Y401377D01*
X534809Y401394D01*
X534704Y401408D01*
X534599Y401418D01*
X534494Y401424D01*
X534388Y401426D01*
X534282Y401424D01*
X534177Y401418D01*
X534072Y401408D01*
X533967Y401394D01*
X533863Y401377D01*
X533760Y401355D01*
X533658Y401330D01*
X533556Y401301D01*
X533456Y401268D01*
X533357Y401231D01*
X533260Y401191D01*
X533164Y401147D01*
X533069Y401099D01*
X532977Y401048D01*
X532887Y400993D01*
X532798Y400936D01*
X532712Y400875D01*
X532629Y400810D01*
X532547Y400743D01*
X532469Y400673D01*
X532393Y400599D01*
X532319Y400523D01*
X532249Y400445D01*
X532182Y400363D01*
X532117Y400280D01*
X532056Y400194D01*
X531999Y400105D01*
X531944Y400015D01*
X531893Y399923D01*
X531845Y399828D01*
X531801Y399732D01*
X531761Y399635D01*
X531724Y399536D01*
X531691Y399436D01*
X531662Y399334D01*
X531637Y399232D01*
X531615Y399129D01*
X531598Y399025D01*
X531584Y398920D01*
X531574Y398815D01*
X531568Y398710D01*
X531566Y398604D01*
X531566Y395782D01*
X527614Y405646D02*
X527050Y405646D01*
X527614Y405646D02*
X527614Y406210D01*
X527050Y406210D01*
X527050Y405646D01*
X527050Y411784D02*
X537210Y411784D01*
X537210Y414606D01*
X537208Y414712D01*
X537202Y414817D01*
X537192Y414922D01*
X537178Y415027D01*
X537161Y415131D01*
X537139Y415234D01*
X537114Y415336D01*
X537085Y415438D01*
X537052Y415538D01*
X537015Y415637D01*
X536975Y415734D01*
X536931Y415830D01*
X536883Y415925D01*
X536832Y416017D01*
X536777Y416107D01*
X536720Y416196D01*
X536659Y416282D01*
X536594Y416365D01*
X536527Y416447D01*
X536457Y416525D01*
X536383Y416601D01*
X536307Y416675D01*
X536229Y416745D01*
X536147Y416812D01*
X536064Y416877D01*
X535978Y416938D01*
X535889Y416995D01*
X535799Y417050D01*
X535707Y417101D01*
X535612Y417149D01*
X535516Y417193D01*
X535419Y417233D01*
X535320Y417270D01*
X535220Y417303D01*
X535118Y417332D01*
X535016Y417357D01*
X534913Y417379D01*
X534809Y417396D01*
X534704Y417410D01*
X534599Y417420D01*
X534494Y417426D01*
X534388Y417428D01*
X534282Y417426D01*
X534177Y417420D01*
X534072Y417410D01*
X533967Y417396D01*
X533863Y417379D01*
X533760Y417357D01*
X533658Y417332D01*
X533556Y417303D01*
X533456Y417270D01*
X533357Y417233D01*
X533260Y417193D01*
X533164Y417149D01*
X533069Y417101D01*
X532977Y417050D01*
X532887Y416995D01*
X532798Y416938D01*
X532712Y416877D01*
X532629Y416812D01*
X532547Y416745D01*
X532469Y416675D01*
X532393Y416601D01*
X532319Y416525D01*
X532249Y416447D01*
X532182Y416365D01*
X532117Y416282D01*
X532056Y416196D01*
X531999Y416107D01*
X531944Y416017D01*
X531893Y415925D01*
X531845Y415830D01*
X531801Y415734D01*
X531761Y415637D01*
X531724Y415538D01*
X531691Y415438D01*
X531662Y415336D01*
X531637Y415234D01*
X531615Y415131D01*
X531598Y415027D01*
X531584Y414922D01*
X531574Y414817D01*
X531568Y414712D01*
X531566Y414606D01*
X531566Y411784D01*
X527614Y421648D02*
X527050Y421648D01*
X527614Y421648D02*
X527614Y422212D01*
X527050Y422212D01*
X527050Y421648D01*
X527050Y430114D02*
X527052Y430207D01*
X527058Y430300D01*
X527067Y430393D01*
X527081Y430486D01*
X527098Y430577D01*
X527119Y430668D01*
X527144Y430758D01*
X527172Y430847D01*
X527204Y430935D01*
X527240Y431021D01*
X527279Y431106D01*
X527322Y431189D01*
X527368Y431270D01*
X527418Y431349D01*
X527470Y431426D01*
X527526Y431501D01*
X527585Y431573D01*
X527647Y431643D01*
X527711Y431711D01*
X527779Y431775D01*
X527849Y431837D01*
X527921Y431896D01*
X527996Y431952D01*
X528073Y432004D01*
X528152Y432054D01*
X528233Y432100D01*
X528316Y432143D01*
X528401Y432182D01*
X528487Y432218D01*
X528575Y432250D01*
X528664Y432278D01*
X528754Y432303D01*
X528845Y432324D01*
X528936Y432341D01*
X529029Y432355D01*
X529122Y432364D01*
X529215Y432370D01*
X529308Y432372D01*
X527050Y430114D02*
X527052Y429980D01*
X527058Y429845D01*
X527067Y429711D01*
X527080Y429577D01*
X527097Y429444D01*
X527118Y429311D01*
X527143Y429179D01*
X527171Y429047D01*
X527203Y428916D01*
X527238Y428787D01*
X527278Y428658D01*
X527321Y428531D01*
X527367Y428404D01*
X527417Y428279D01*
X527470Y428156D01*
X527527Y428034D01*
X527588Y427914D01*
X527651Y427795D01*
X527718Y427679D01*
X527789Y427564D01*
X527862Y427452D01*
X527939Y427341D01*
X528019Y427233D01*
X528101Y427127D01*
X528187Y427023D01*
X528276Y426922D01*
X528367Y426823D01*
X528461Y426727D01*
X534952Y427010D02*
X535045Y427012D01*
X535138Y427018D01*
X535231Y427027D01*
X535324Y427041D01*
X535415Y427058D01*
X535506Y427079D01*
X535596Y427104D01*
X535685Y427132D01*
X535773Y427164D01*
X535859Y427200D01*
X535944Y427239D01*
X536027Y427282D01*
X536108Y427328D01*
X536187Y427378D01*
X536264Y427430D01*
X536339Y427486D01*
X536411Y427545D01*
X536481Y427607D01*
X536549Y427671D01*
X536613Y427739D01*
X536675Y427809D01*
X536734Y427881D01*
X536790Y427956D01*
X536842Y428033D01*
X536892Y428112D01*
X536938Y428193D01*
X536981Y428276D01*
X537020Y428361D01*
X537056Y428447D01*
X537088Y428535D01*
X537116Y428624D01*
X537141Y428714D01*
X537162Y428805D01*
X537179Y428896D01*
X537193Y428989D01*
X537202Y429082D01*
X537208Y429175D01*
X537210Y429268D01*
X537208Y429398D01*
X537202Y429527D01*
X537192Y429657D01*
X537178Y429786D01*
X537160Y429914D01*
X537139Y430042D01*
X537113Y430169D01*
X537083Y430295D01*
X537050Y430421D01*
X537013Y430545D01*
X536972Y430668D01*
X536927Y430790D01*
X536879Y430910D01*
X536826Y431029D01*
X536771Y431146D01*
X536711Y431261D01*
X536649Y431375D01*
X536582Y431486D01*
X536513Y431596D01*
X536440Y431703D01*
X536363Y431808D01*
X532977Y428139D02*
X533027Y428058D01*
X533080Y427979D01*
X533136Y427902D01*
X533196Y427828D01*
X533259Y427757D01*
X533325Y427688D01*
X533393Y427621D01*
X533464Y427558D01*
X533538Y427498D01*
X533614Y427441D01*
X533693Y427387D01*
X533773Y427336D01*
X533856Y427289D01*
X533941Y427245D01*
X534027Y427205D01*
X534115Y427168D01*
X534204Y427135D01*
X534295Y427106D01*
X534387Y427081D01*
X534479Y427059D01*
X534573Y427042D01*
X534667Y427028D01*
X534762Y427018D01*
X534857Y427012D01*
X534952Y427010D01*
X531284Y431243D02*
X531233Y431324D01*
X531180Y431403D01*
X531124Y431480D01*
X531064Y431554D01*
X531001Y431625D01*
X530935Y431694D01*
X530867Y431761D01*
X530796Y431824D01*
X530722Y431884D01*
X530646Y431941D01*
X530567Y431995D01*
X530487Y432046D01*
X530404Y432093D01*
X530319Y432137D01*
X530233Y432177D01*
X530145Y432214D01*
X530056Y432247D01*
X529965Y432276D01*
X529874Y432301D01*
X529781Y432323D01*
X529687Y432340D01*
X529593Y432354D01*
X529498Y432364D01*
X529403Y432370D01*
X529308Y432372D01*
X531283Y431243D02*
X532977Y428139D01*
X537210Y439837D02*
X527050Y439837D01*
X537210Y437015D02*
X537210Y442659D01*
X534388Y447683D02*
X529872Y447683D01*
X534388Y447683D02*
X534494Y447685D01*
X534599Y447691D01*
X534704Y447701D01*
X534809Y447715D01*
X534913Y447732D01*
X535016Y447754D01*
X535118Y447779D01*
X535220Y447808D01*
X535320Y447841D01*
X535419Y447878D01*
X535516Y447918D01*
X535612Y447962D01*
X535707Y448010D01*
X535799Y448061D01*
X535889Y448116D01*
X535978Y448173D01*
X536064Y448234D01*
X536147Y448299D01*
X536229Y448366D01*
X536307Y448436D01*
X536383Y448510D01*
X536457Y448586D01*
X536527Y448664D01*
X536594Y448746D01*
X536659Y448829D01*
X536720Y448915D01*
X536777Y449004D01*
X536832Y449094D01*
X536883Y449186D01*
X536931Y449281D01*
X536975Y449377D01*
X537015Y449474D01*
X537052Y449573D01*
X537085Y449673D01*
X537114Y449775D01*
X537139Y449877D01*
X537161Y449980D01*
X537178Y450084D01*
X537192Y450189D01*
X537202Y450294D01*
X537208Y450399D01*
X537210Y450505D01*
X537208Y450611D01*
X537202Y450716D01*
X537192Y450821D01*
X537178Y450926D01*
X537161Y451030D01*
X537139Y451133D01*
X537114Y451235D01*
X537085Y451337D01*
X537052Y451437D01*
X537015Y451536D01*
X536975Y451633D01*
X536931Y451729D01*
X536883Y451824D01*
X536832Y451916D01*
X536777Y452006D01*
X536720Y452095D01*
X536659Y452181D01*
X536594Y452264D01*
X536527Y452346D01*
X536457Y452424D01*
X536383Y452500D01*
X536307Y452574D01*
X536229Y452644D01*
X536147Y452711D01*
X536064Y452776D01*
X535978Y452837D01*
X535889Y452894D01*
X535799Y452949D01*
X535707Y453000D01*
X535612Y453048D01*
X535516Y453092D01*
X535419Y453132D01*
X535320Y453169D01*
X535220Y453202D01*
X535118Y453231D01*
X535016Y453256D01*
X534913Y453278D01*
X534809Y453295D01*
X534704Y453309D01*
X534599Y453319D01*
X534494Y453325D01*
X534388Y453327D01*
X529872Y453327D01*
X529766Y453325D01*
X529661Y453319D01*
X529556Y453309D01*
X529451Y453295D01*
X529347Y453278D01*
X529244Y453256D01*
X529142Y453231D01*
X529040Y453202D01*
X528940Y453169D01*
X528841Y453132D01*
X528744Y453092D01*
X528648Y453048D01*
X528553Y453000D01*
X528461Y452949D01*
X528371Y452894D01*
X528282Y452837D01*
X528196Y452776D01*
X528113Y452711D01*
X528031Y452644D01*
X527953Y452574D01*
X527877Y452500D01*
X527803Y452424D01*
X527733Y452346D01*
X527666Y452264D01*
X527601Y452181D01*
X527540Y452095D01*
X527483Y452006D01*
X527428Y451916D01*
X527377Y451824D01*
X527329Y451729D01*
X527285Y451633D01*
X527245Y451536D01*
X527208Y451437D01*
X527175Y451337D01*
X527146Y451235D01*
X527121Y451133D01*
X527099Y451030D01*
X527082Y450926D01*
X527068Y450821D01*
X527058Y450716D01*
X527052Y450611D01*
X527050Y450505D01*
X527052Y450399D01*
X527058Y450294D01*
X527068Y450189D01*
X527082Y450084D01*
X527099Y449980D01*
X527121Y449877D01*
X527146Y449775D01*
X527175Y449673D01*
X527208Y449573D01*
X527245Y449474D01*
X527285Y449377D01*
X527329Y449281D01*
X527377Y449186D01*
X527428Y449094D01*
X527483Y449004D01*
X527540Y448915D01*
X527601Y448829D01*
X527666Y448746D01*
X527733Y448664D01*
X527803Y448586D01*
X527877Y448510D01*
X527953Y448436D01*
X528031Y448366D01*
X528113Y448299D01*
X528196Y448234D01*
X528282Y448173D01*
X528371Y448116D01*
X528461Y448061D01*
X528553Y448010D01*
X528648Y447962D01*
X528744Y447918D01*
X528841Y447878D01*
X528940Y447841D01*
X529040Y447808D01*
X529142Y447779D01*
X529244Y447754D01*
X529347Y447732D01*
X529451Y447715D01*
X529556Y447701D01*
X529661Y447691D01*
X529766Y447685D01*
X529872Y447683D01*
X527050Y459623D02*
X537210Y459623D01*
X537210Y462445D01*
X537208Y462551D01*
X537202Y462656D01*
X537192Y462761D01*
X537178Y462866D01*
X537161Y462970D01*
X537139Y463073D01*
X537114Y463175D01*
X537085Y463277D01*
X537052Y463377D01*
X537015Y463476D01*
X536975Y463573D01*
X536931Y463669D01*
X536883Y463764D01*
X536832Y463856D01*
X536777Y463946D01*
X536720Y464035D01*
X536659Y464121D01*
X536594Y464204D01*
X536527Y464286D01*
X536457Y464364D01*
X536383Y464440D01*
X536307Y464514D01*
X536229Y464584D01*
X536147Y464651D01*
X536064Y464716D01*
X535978Y464777D01*
X535889Y464834D01*
X535799Y464889D01*
X535707Y464940D01*
X535612Y464988D01*
X535516Y465032D01*
X535419Y465072D01*
X535320Y465109D01*
X535220Y465142D01*
X535118Y465171D01*
X535016Y465196D01*
X534913Y465218D01*
X534809Y465235D01*
X534704Y465249D01*
X534599Y465259D01*
X534494Y465265D01*
X534388Y465267D01*
X534282Y465265D01*
X534177Y465259D01*
X534072Y465249D01*
X533967Y465235D01*
X533863Y465218D01*
X533760Y465196D01*
X533658Y465171D01*
X533556Y465142D01*
X533456Y465109D01*
X533357Y465072D01*
X533260Y465032D01*
X533164Y464988D01*
X533069Y464940D01*
X532977Y464889D01*
X532887Y464834D01*
X532798Y464777D01*
X532712Y464716D01*
X532629Y464651D01*
X532547Y464584D01*
X532469Y464514D01*
X532393Y464440D01*
X532319Y464364D01*
X532249Y464286D01*
X532182Y464204D01*
X532117Y464121D01*
X532056Y464035D01*
X531999Y463946D01*
X531944Y463856D01*
X531893Y463764D01*
X531845Y463669D01*
X531801Y463573D01*
X531761Y463476D01*
X531724Y463377D01*
X531691Y463277D01*
X531662Y463175D01*
X531637Y463073D01*
X531615Y462970D01*
X531598Y462866D01*
X531584Y462761D01*
X531574Y462656D01*
X531568Y462551D01*
X531566Y462445D01*
X531566Y459623D01*
X531566Y463009D02*
X527050Y465267D01*
X443676Y561058D02*
X443676Y568960D01*
X443676Y561058D02*
X443678Y560965D01*
X443684Y560872D01*
X443693Y560779D01*
X443707Y560686D01*
X443724Y560595D01*
X443745Y560504D01*
X443770Y560414D01*
X443798Y560325D01*
X443830Y560237D01*
X443866Y560151D01*
X443905Y560066D01*
X443948Y559983D01*
X443994Y559902D01*
X444044Y559823D01*
X444096Y559746D01*
X444152Y559671D01*
X444211Y559599D01*
X444273Y559529D01*
X444337Y559461D01*
X444405Y559397D01*
X444475Y559335D01*
X444547Y559276D01*
X444622Y559220D01*
X444699Y559168D01*
X444778Y559118D01*
X444859Y559072D01*
X444942Y559029D01*
X445027Y558990D01*
X445113Y558954D01*
X445201Y558922D01*
X445290Y558894D01*
X445380Y558869D01*
X445471Y558848D01*
X445562Y558831D01*
X445655Y558817D01*
X445748Y558808D01*
X445841Y558802D01*
X445934Y558800D01*
X447063Y558800D01*
X436914Y558800D02*
X436914Y568960D01*
X434091Y568960D01*
X433985Y568958D01*
X433880Y568952D01*
X433775Y568942D01*
X433670Y568928D01*
X433566Y568911D01*
X433463Y568889D01*
X433361Y568864D01*
X433259Y568835D01*
X433159Y568802D01*
X433060Y568765D01*
X432963Y568725D01*
X432867Y568681D01*
X432772Y568633D01*
X432680Y568582D01*
X432590Y568527D01*
X432501Y568470D01*
X432415Y568409D01*
X432332Y568344D01*
X432250Y568277D01*
X432172Y568207D01*
X432096Y568133D01*
X432022Y568057D01*
X431952Y567979D01*
X431885Y567897D01*
X431820Y567814D01*
X431759Y567728D01*
X431702Y567639D01*
X431647Y567549D01*
X431596Y567457D01*
X431548Y567362D01*
X431504Y567266D01*
X431464Y567169D01*
X431427Y567070D01*
X431394Y566970D01*
X431365Y566868D01*
X431340Y566766D01*
X431318Y566663D01*
X431301Y566559D01*
X431287Y566454D01*
X431277Y566349D01*
X431271Y566244D01*
X431269Y566138D01*
X431271Y566032D01*
X431277Y565927D01*
X431287Y565822D01*
X431301Y565717D01*
X431318Y565613D01*
X431340Y565510D01*
X431365Y565408D01*
X431394Y565306D01*
X431427Y565206D01*
X431464Y565107D01*
X431504Y565010D01*
X431548Y564914D01*
X431596Y564819D01*
X431647Y564727D01*
X431702Y564637D01*
X431759Y564548D01*
X431820Y564462D01*
X431885Y564379D01*
X431952Y564297D01*
X432022Y564219D01*
X432096Y564143D01*
X432172Y564069D01*
X432250Y563999D01*
X432332Y563932D01*
X432415Y563867D01*
X432501Y563806D01*
X432590Y563749D01*
X432680Y563694D01*
X432772Y563643D01*
X432867Y563595D01*
X432963Y563551D01*
X433060Y563511D01*
X433159Y563474D01*
X433259Y563441D01*
X433361Y563412D01*
X433463Y563387D01*
X433566Y563365D01*
X433670Y563348D01*
X433775Y563334D01*
X433880Y563324D01*
X433985Y563318D01*
X434091Y563316D01*
X436914Y563316D01*
X427050Y559364D02*
X427050Y558800D01*
X427050Y559364D02*
X426485Y559364D01*
X426485Y558800D01*
X427050Y558800D01*
X420912Y558800D02*
X420912Y568960D01*
X418089Y568960D01*
X417983Y568958D01*
X417878Y568952D01*
X417773Y568942D01*
X417668Y568928D01*
X417564Y568911D01*
X417461Y568889D01*
X417359Y568864D01*
X417257Y568835D01*
X417157Y568802D01*
X417058Y568765D01*
X416961Y568725D01*
X416865Y568681D01*
X416770Y568633D01*
X416678Y568582D01*
X416588Y568527D01*
X416499Y568470D01*
X416413Y568409D01*
X416330Y568344D01*
X416248Y568277D01*
X416170Y568207D01*
X416094Y568133D01*
X416020Y568057D01*
X415950Y567979D01*
X415883Y567897D01*
X415818Y567814D01*
X415757Y567728D01*
X415700Y567639D01*
X415645Y567549D01*
X415594Y567457D01*
X415546Y567362D01*
X415502Y567266D01*
X415462Y567169D01*
X415425Y567070D01*
X415392Y566970D01*
X415363Y566868D01*
X415338Y566766D01*
X415316Y566663D01*
X415299Y566559D01*
X415285Y566454D01*
X415275Y566349D01*
X415269Y566244D01*
X415267Y566138D01*
X415269Y566032D01*
X415275Y565927D01*
X415285Y565822D01*
X415299Y565717D01*
X415316Y565613D01*
X415338Y565510D01*
X415363Y565408D01*
X415392Y565306D01*
X415425Y565206D01*
X415462Y565107D01*
X415502Y565010D01*
X415546Y564914D01*
X415594Y564819D01*
X415645Y564727D01*
X415700Y564637D01*
X415757Y564548D01*
X415818Y564462D01*
X415883Y564379D01*
X415950Y564297D01*
X416020Y564219D01*
X416094Y564143D01*
X416170Y564069D01*
X416248Y563999D01*
X416330Y563932D01*
X416413Y563867D01*
X416499Y563806D01*
X416588Y563749D01*
X416678Y563694D01*
X416770Y563643D01*
X416865Y563595D01*
X416961Y563551D01*
X417058Y563511D01*
X417157Y563474D01*
X417257Y563441D01*
X417359Y563412D01*
X417461Y563387D01*
X417564Y563365D01*
X417668Y563348D01*
X417773Y563334D01*
X417878Y563324D01*
X417983Y563318D01*
X418089Y563316D01*
X420912Y563316D01*
X411048Y559364D02*
X411048Y558800D01*
X411048Y559364D02*
X410484Y559364D01*
X410484Y558800D01*
X411048Y558800D01*
X403527Y558800D02*
X403527Y568960D01*
X406349Y568960D02*
X400705Y568960D01*
X395260Y558800D02*
X390745Y558800D01*
X395260Y558800D02*
X395260Y568960D01*
X390745Y568960D01*
X391874Y564444D02*
X395260Y564444D01*
X385196Y568960D02*
X385196Y558800D01*
X381810Y563316D02*
X385196Y568960D01*
X381810Y563316D02*
X378423Y568960D01*
X378423Y558800D01*
X371382Y558800D02*
X371382Y568960D01*
X368559Y568960D01*
X368453Y568958D01*
X368348Y568952D01*
X368243Y568942D01*
X368138Y568928D01*
X368034Y568911D01*
X367931Y568889D01*
X367829Y568864D01*
X367727Y568835D01*
X367627Y568802D01*
X367528Y568765D01*
X367431Y568725D01*
X367335Y568681D01*
X367240Y568633D01*
X367148Y568582D01*
X367058Y568527D01*
X366969Y568470D01*
X366883Y568409D01*
X366800Y568344D01*
X366718Y568277D01*
X366640Y568207D01*
X366564Y568133D01*
X366490Y568057D01*
X366420Y567979D01*
X366353Y567897D01*
X366288Y567814D01*
X366227Y567728D01*
X366170Y567639D01*
X366115Y567549D01*
X366064Y567457D01*
X366016Y567362D01*
X365972Y567266D01*
X365932Y567169D01*
X365895Y567070D01*
X365862Y566970D01*
X365833Y566868D01*
X365808Y566766D01*
X365786Y566663D01*
X365769Y566559D01*
X365755Y566454D01*
X365745Y566349D01*
X365739Y566244D01*
X365737Y566138D01*
X365739Y566032D01*
X365745Y565927D01*
X365755Y565822D01*
X365769Y565717D01*
X365786Y565613D01*
X365808Y565510D01*
X365833Y565408D01*
X365862Y565306D01*
X365895Y565206D01*
X365932Y565107D01*
X365972Y565010D01*
X366016Y564914D01*
X366064Y564819D01*
X366115Y564727D01*
X366170Y564637D01*
X366227Y564548D01*
X366288Y564462D01*
X366353Y564379D01*
X366420Y564297D01*
X366490Y564219D01*
X366564Y564143D01*
X366640Y564069D01*
X366718Y563999D01*
X366800Y563932D01*
X366883Y563867D01*
X366969Y563806D01*
X367058Y563749D01*
X367148Y563694D01*
X367240Y563643D01*
X367335Y563595D01*
X367431Y563551D01*
X367528Y563511D01*
X367627Y563474D01*
X367727Y563441D01*
X367829Y563412D01*
X367931Y563387D01*
X368034Y563365D01*
X368138Y563348D01*
X368243Y563334D01*
X368348Y563324D01*
X368453Y563318D01*
X368559Y563316D01*
X371382Y563316D01*
X552177Y175260D02*
X552177Y167358D01*
X552179Y167265D01*
X552185Y167172D01*
X552194Y167079D01*
X552208Y166986D01*
X552225Y166895D01*
X552246Y166804D01*
X552271Y166714D01*
X552299Y166625D01*
X552331Y166537D01*
X552367Y166451D01*
X552406Y166366D01*
X552449Y166283D01*
X552495Y166202D01*
X552545Y166123D01*
X552597Y166046D01*
X552653Y165971D01*
X552712Y165899D01*
X552774Y165829D01*
X552838Y165761D01*
X552906Y165697D01*
X552976Y165635D01*
X553048Y165576D01*
X553123Y165520D01*
X553200Y165468D01*
X553279Y165418D01*
X553360Y165372D01*
X553443Y165329D01*
X553528Y165290D01*
X553614Y165254D01*
X553702Y165222D01*
X553791Y165194D01*
X553881Y165169D01*
X553972Y165148D01*
X554063Y165131D01*
X554156Y165117D01*
X554249Y165108D01*
X554342Y165102D01*
X554435Y165100D01*
X555564Y165100D01*
X545415Y165100D02*
X545415Y175260D01*
X542593Y175260D01*
X542487Y175258D01*
X542382Y175252D01*
X542277Y175242D01*
X542172Y175228D01*
X542068Y175211D01*
X541965Y175189D01*
X541863Y175164D01*
X541761Y175135D01*
X541661Y175102D01*
X541562Y175065D01*
X541465Y175025D01*
X541369Y174981D01*
X541274Y174933D01*
X541182Y174882D01*
X541092Y174827D01*
X541003Y174770D01*
X540917Y174709D01*
X540834Y174644D01*
X540752Y174577D01*
X540674Y174507D01*
X540598Y174433D01*
X540524Y174357D01*
X540454Y174279D01*
X540387Y174197D01*
X540322Y174114D01*
X540261Y174028D01*
X540204Y173939D01*
X540149Y173849D01*
X540098Y173757D01*
X540050Y173662D01*
X540006Y173566D01*
X539966Y173469D01*
X539929Y173370D01*
X539896Y173270D01*
X539867Y173168D01*
X539842Y173066D01*
X539820Y172963D01*
X539803Y172859D01*
X539789Y172754D01*
X539779Y172649D01*
X539773Y172544D01*
X539771Y172438D01*
X539773Y172332D01*
X539779Y172227D01*
X539789Y172122D01*
X539803Y172017D01*
X539820Y171913D01*
X539842Y171810D01*
X539867Y171708D01*
X539896Y171606D01*
X539929Y171506D01*
X539966Y171407D01*
X540006Y171310D01*
X540050Y171214D01*
X540098Y171119D01*
X540149Y171027D01*
X540204Y170937D01*
X540261Y170848D01*
X540322Y170762D01*
X540387Y170679D01*
X540454Y170597D01*
X540524Y170519D01*
X540598Y170443D01*
X540674Y170369D01*
X540752Y170299D01*
X540834Y170232D01*
X540917Y170167D01*
X541003Y170106D01*
X541092Y170049D01*
X541182Y169994D01*
X541274Y169943D01*
X541369Y169895D01*
X541465Y169851D01*
X541562Y169811D01*
X541661Y169774D01*
X541761Y169741D01*
X541863Y169712D01*
X541965Y169687D01*
X542068Y169665D01*
X542172Y169648D01*
X542277Y169634D01*
X542382Y169624D01*
X542487Y169618D01*
X542593Y169616D01*
X545415Y169616D01*
X535551Y165664D02*
X535551Y165100D01*
X535551Y165664D02*
X534987Y165664D01*
X534987Y165100D01*
X535551Y165100D01*
X529413Y165100D02*
X529413Y175260D01*
X526591Y175260D01*
X526485Y175258D01*
X526380Y175252D01*
X526275Y175242D01*
X526170Y175228D01*
X526066Y175211D01*
X525963Y175189D01*
X525861Y175164D01*
X525759Y175135D01*
X525659Y175102D01*
X525560Y175065D01*
X525463Y175025D01*
X525367Y174981D01*
X525272Y174933D01*
X525180Y174882D01*
X525090Y174827D01*
X525001Y174770D01*
X524915Y174709D01*
X524832Y174644D01*
X524750Y174577D01*
X524672Y174507D01*
X524596Y174433D01*
X524522Y174357D01*
X524452Y174279D01*
X524385Y174197D01*
X524320Y174114D01*
X524259Y174028D01*
X524202Y173939D01*
X524147Y173849D01*
X524096Y173757D01*
X524048Y173662D01*
X524004Y173566D01*
X523964Y173469D01*
X523927Y173370D01*
X523894Y173270D01*
X523865Y173168D01*
X523840Y173066D01*
X523818Y172963D01*
X523801Y172859D01*
X523787Y172754D01*
X523777Y172649D01*
X523771Y172544D01*
X523769Y172438D01*
X523771Y172332D01*
X523777Y172227D01*
X523787Y172122D01*
X523801Y172017D01*
X523818Y171913D01*
X523840Y171810D01*
X523865Y171708D01*
X523894Y171606D01*
X523927Y171506D01*
X523964Y171407D01*
X524004Y171310D01*
X524048Y171214D01*
X524096Y171119D01*
X524147Y171027D01*
X524202Y170937D01*
X524259Y170848D01*
X524320Y170762D01*
X524385Y170679D01*
X524452Y170597D01*
X524522Y170519D01*
X524596Y170443D01*
X524672Y170369D01*
X524750Y170299D01*
X524832Y170232D01*
X524915Y170167D01*
X525001Y170106D01*
X525090Y170049D01*
X525180Y169994D01*
X525272Y169943D01*
X525367Y169895D01*
X525463Y169851D01*
X525560Y169811D01*
X525659Y169774D01*
X525759Y169741D01*
X525861Y169712D01*
X525963Y169687D01*
X526066Y169665D01*
X526170Y169648D01*
X526275Y169634D01*
X526380Y169624D01*
X526485Y169618D01*
X526591Y169616D01*
X529413Y169616D01*
X519549Y165664D02*
X519549Y165100D01*
X519549Y165664D02*
X518985Y165664D01*
X518985Y165100D01*
X519549Y165100D01*
X513707Y165100D02*
X513707Y175260D01*
X510885Y175260D01*
X510779Y175258D01*
X510674Y175252D01*
X510569Y175242D01*
X510464Y175228D01*
X510360Y175211D01*
X510257Y175189D01*
X510155Y175164D01*
X510053Y175135D01*
X509953Y175102D01*
X509854Y175065D01*
X509757Y175025D01*
X509661Y174981D01*
X509566Y174933D01*
X509474Y174882D01*
X509384Y174827D01*
X509295Y174770D01*
X509209Y174709D01*
X509126Y174644D01*
X509044Y174577D01*
X508966Y174507D01*
X508890Y174433D01*
X508816Y174357D01*
X508746Y174279D01*
X508679Y174197D01*
X508614Y174114D01*
X508553Y174028D01*
X508496Y173939D01*
X508441Y173849D01*
X508390Y173757D01*
X508342Y173662D01*
X508298Y173566D01*
X508258Y173469D01*
X508221Y173370D01*
X508188Y173270D01*
X508159Y173168D01*
X508134Y173066D01*
X508112Y172963D01*
X508095Y172859D01*
X508081Y172754D01*
X508071Y172649D01*
X508065Y172544D01*
X508063Y172438D01*
X508063Y167922D01*
X508065Y167816D01*
X508071Y167711D01*
X508081Y167606D01*
X508095Y167501D01*
X508112Y167397D01*
X508134Y167294D01*
X508159Y167192D01*
X508188Y167090D01*
X508221Y166990D01*
X508258Y166891D01*
X508298Y166794D01*
X508342Y166698D01*
X508390Y166603D01*
X508441Y166511D01*
X508496Y166421D01*
X508553Y166332D01*
X508614Y166246D01*
X508679Y166163D01*
X508746Y166081D01*
X508816Y166003D01*
X508890Y165927D01*
X508966Y165853D01*
X509044Y165783D01*
X509126Y165716D01*
X509209Y165651D01*
X509295Y165590D01*
X509384Y165533D01*
X509474Y165478D01*
X509566Y165427D01*
X509661Y165379D01*
X509757Y165335D01*
X509854Y165295D01*
X509953Y165258D01*
X510053Y165225D01*
X510155Y165196D01*
X510257Y165171D01*
X510360Y165149D01*
X510464Y165132D01*
X510569Y165118D01*
X510674Y165108D01*
X510779Y165102D01*
X510885Y165100D01*
X513707Y165100D01*
X499836Y165100D02*
X499836Y175260D01*
X502658Y175260D02*
X497014Y175260D01*
X491480Y175260D02*
X491480Y165100D01*
X491480Y175260D02*
X488658Y175260D01*
X488552Y175258D01*
X488447Y175252D01*
X488342Y175242D01*
X488237Y175228D01*
X488133Y175211D01*
X488030Y175189D01*
X487928Y175164D01*
X487826Y175135D01*
X487726Y175102D01*
X487627Y175065D01*
X487530Y175025D01*
X487434Y174981D01*
X487339Y174933D01*
X487247Y174882D01*
X487157Y174827D01*
X487068Y174770D01*
X486982Y174709D01*
X486899Y174644D01*
X486817Y174577D01*
X486739Y174507D01*
X486663Y174433D01*
X486589Y174357D01*
X486519Y174279D01*
X486452Y174197D01*
X486387Y174114D01*
X486326Y174028D01*
X486269Y173939D01*
X486214Y173849D01*
X486163Y173757D01*
X486115Y173662D01*
X486071Y173566D01*
X486031Y173469D01*
X485994Y173370D01*
X485961Y173270D01*
X485932Y173168D01*
X485907Y173066D01*
X485885Y172963D01*
X485868Y172859D01*
X485854Y172754D01*
X485844Y172649D01*
X485838Y172544D01*
X485836Y172438D01*
X485838Y172332D01*
X485844Y172227D01*
X485854Y172122D01*
X485868Y172017D01*
X485885Y171913D01*
X485907Y171810D01*
X485932Y171708D01*
X485961Y171606D01*
X485994Y171506D01*
X486031Y171407D01*
X486071Y171310D01*
X486115Y171214D01*
X486163Y171119D01*
X486214Y171027D01*
X486269Y170937D01*
X486326Y170848D01*
X486387Y170762D01*
X486452Y170679D01*
X486519Y170597D01*
X486589Y170519D01*
X486663Y170443D01*
X486739Y170369D01*
X486817Y170299D01*
X486899Y170232D01*
X486982Y170167D01*
X487068Y170106D01*
X487157Y170049D01*
X487247Y169994D01*
X487339Y169943D01*
X487434Y169895D01*
X487530Y169851D01*
X487627Y169811D01*
X487726Y169774D01*
X487826Y169741D01*
X487928Y169712D01*
X488030Y169687D01*
X488133Y169665D01*
X488237Y169648D01*
X488342Y169634D01*
X488447Y169624D01*
X488552Y169618D01*
X488658Y169616D01*
X491480Y169616D01*
X488094Y169616D02*
X485836Y165100D01*
X454660Y338792D02*
X446758Y338792D01*
X446665Y338790D01*
X446572Y338784D01*
X446479Y338775D01*
X446386Y338761D01*
X446295Y338744D01*
X446204Y338723D01*
X446114Y338698D01*
X446025Y338670D01*
X445937Y338638D01*
X445851Y338602D01*
X445766Y338563D01*
X445683Y338520D01*
X445602Y338474D01*
X445523Y338424D01*
X445446Y338372D01*
X445371Y338316D01*
X445299Y338257D01*
X445229Y338195D01*
X445161Y338131D01*
X445097Y338063D01*
X445035Y337993D01*
X444976Y337921D01*
X444920Y337846D01*
X444868Y337769D01*
X444818Y337690D01*
X444772Y337609D01*
X444729Y337526D01*
X444690Y337441D01*
X444654Y337355D01*
X444622Y337267D01*
X444594Y337178D01*
X444569Y337088D01*
X444548Y336997D01*
X444531Y336906D01*
X444517Y336813D01*
X444508Y336720D01*
X444502Y336627D01*
X444500Y336534D01*
X444500Y335405D01*
X444500Y345555D02*
X454660Y345555D01*
X454660Y348377D01*
X454658Y348483D01*
X454652Y348588D01*
X454642Y348693D01*
X454628Y348798D01*
X454611Y348902D01*
X454589Y349005D01*
X454564Y349107D01*
X454535Y349209D01*
X454502Y349309D01*
X454465Y349408D01*
X454425Y349505D01*
X454381Y349601D01*
X454333Y349696D01*
X454282Y349788D01*
X454227Y349878D01*
X454170Y349967D01*
X454109Y350053D01*
X454044Y350136D01*
X453977Y350218D01*
X453907Y350296D01*
X453833Y350372D01*
X453757Y350446D01*
X453679Y350516D01*
X453597Y350583D01*
X453514Y350648D01*
X453428Y350709D01*
X453339Y350766D01*
X453249Y350821D01*
X453157Y350872D01*
X453062Y350920D01*
X452966Y350964D01*
X452869Y351004D01*
X452770Y351041D01*
X452670Y351074D01*
X452568Y351103D01*
X452466Y351128D01*
X452363Y351150D01*
X452259Y351167D01*
X452154Y351181D01*
X452049Y351191D01*
X451944Y351197D01*
X451838Y351199D01*
X451732Y351197D01*
X451627Y351191D01*
X451522Y351181D01*
X451417Y351167D01*
X451313Y351150D01*
X451210Y351128D01*
X451108Y351103D01*
X451006Y351074D01*
X450906Y351041D01*
X450807Y351004D01*
X450710Y350964D01*
X450614Y350920D01*
X450519Y350872D01*
X450427Y350821D01*
X450337Y350766D01*
X450248Y350709D01*
X450162Y350648D01*
X450079Y350583D01*
X449997Y350516D01*
X449919Y350446D01*
X449843Y350372D01*
X449769Y350296D01*
X449699Y350218D01*
X449632Y350136D01*
X449567Y350053D01*
X449506Y349967D01*
X449449Y349878D01*
X449394Y349788D01*
X449343Y349696D01*
X449295Y349601D01*
X449251Y349505D01*
X449211Y349408D01*
X449174Y349309D01*
X449141Y349209D01*
X449112Y349107D01*
X449087Y349005D01*
X449065Y348902D01*
X449048Y348798D01*
X449034Y348693D01*
X449024Y348588D01*
X449018Y348483D01*
X449016Y348377D01*
X449016Y345555D01*
X445064Y355418D02*
X444500Y355418D01*
X445064Y355418D02*
X445064Y355983D01*
X444500Y355983D01*
X444500Y355418D01*
X444500Y361300D02*
X444500Y365815D01*
X444500Y361300D02*
X454660Y361300D01*
X454660Y365815D01*
X450144Y364686D02*
X450144Y361300D01*
X454660Y371166D02*
X444500Y371166D01*
X444500Y376811D02*
X454660Y371166D01*
X454660Y376811D02*
X444500Y376811D01*
X444500Y382088D02*
X445064Y382088D01*
X445064Y382653D01*
X444500Y382653D01*
X444500Y382088D01*
X444500Y390371D02*
X454660Y386985D01*
X454660Y393758D02*
X444500Y390371D01*
X444500Y399558D02*
X454660Y399558D01*
X449016Y402944D01*
X454660Y406331D01*
X444500Y406331D01*
X444500Y413116D02*
X444500Y417631D01*
X444500Y413116D02*
X454660Y413116D01*
X454660Y417631D01*
X450144Y416502D02*
X450144Y413116D01*
X444500Y422037D02*
X454660Y425423D01*
X444500Y428810D01*
X447040Y427963D02*
X447040Y422883D01*
X444500Y437037D02*
X444502Y437130D01*
X444508Y437223D01*
X444517Y437316D01*
X444531Y437409D01*
X444548Y437500D01*
X444569Y437591D01*
X444594Y437681D01*
X444622Y437770D01*
X444654Y437858D01*
X444690Y437944D01*
X444729Y438029D01*
X444772Y438112D01*
X444818Y438193D01*
X444868Y438272D01*
X444920Y438349D01*
X444976Y438424D01*
X445035Y438496D01*
X445097Y438566D01*
X445161Y438634D01*
X445229Y438698D01*
X445299Y438760D01*
X445371Y438819D01*
X445446Y438875D01*
X445523Y438927D01*
X445602Y438977D01*
X445683Y439023D01*
X445766Y439066D01*
X445851Y439105D01*
X445937Y439141D01*
X446025Y439173D01*
X446114Y439201D01*
X446204Y439226D01*
X446295Y439247D01*
X446386Y439264D01*
X446479Y439278D01*
X446572Y439287D01*
X446665Y439293D01*
X446758Y439295D01*
X444500Y437037D02*
X444502Y436903D01*
X444508Y436768D01*
X444517Y436634D01*
X444530Y436500D01*
X444547Y436367D01*
X444568Y436234D01*
X444593Y436102D01*
X444621Y435970D01*
X444653Y435839D01*
X444688Y435710D01*
X444728Y435581D01*
X444771Y435454D01*
X444817Y435327D01*
X444867Y435202D01*
X444920Y435079D01*
X444977Y434957D01*
X445038Y434837D01*
X445101Y434718D01*
X445168Y434602D01*
X445239Y434487D01*
X445312Y434375D01*
X445389Y434264D01*
X445469Y434156D01*
X445551Y434050D01*
X445637Y433946D01*
X445726Y433845D01*
X445817Y433746D01*
X445911Y433650D01*
X452402Y433932D02*
X452495Y433934D01*
X452588Y433940D01*
X452681Y433949D01*
X452774Y433963D01*
X452865Y433980D01*
X452956Y434001D01*
X453046Y434026D01*
X453135Y434054D01*
X453223Y434086D01*
X453309Y434122D01*
X453394Y434161D01*
X453477Y434204D01*
X453558Y434250D01*
X453637Y434300D01*
X453714Y434352D01*
X453789Y434408D01*
X453861Y434467D01*
X453931Y434529D01*
X453999Y434593D01*
X454063Y434661D01*
X454125Y434731D01*
X454184Y434803D01*
X454240Y434878D01*
X454292Y434955D01*
X454342Y435034D01*
X454388Y435115D01*
X454431Y435198D01*
X454470Y435283D01*
X454506Y435369D01*
X454538Y435457D01*
X454566Y435546D01*
X454591Y435636D01*
X454612Y435727D01*
X454629Y435818D01*
X454643Y435911D01*
X454652Y436004D01*
X454658Y436097D01*
X454660Y436190D01*
X454658Y436320D01*
X454652Y436449D01*
X454642Y436579D01*
X454628Y436708D01*
X454610Y436836D01*
X454589Y436964D01*
X454563Y437091D01*
X454533Y437217D01*
X454500Y437343D01*
X454463Y437467D01*
X454422Y437590D01*
X454377Y437712D01*
X454329Y437832D01*
X454276Y437951D01*
X454221Y438068D01*
X454161Y438183D01*
X454099Y438297D01*
X454032Y438408D01*
X453963Y438518D01*
X453890Y438625D01*
X453813Y438730D01*
X450427Y435062D02*
X450477Y434981D01*
X450530Y434902D01*
X450586Y434825D01*
X450646Y434751D01*
X450709Y434680D01*
X450775Y434611D01*
X450843Y434544D01*
X450914Y434481D01*
X450988Y434421D01*
X451064Y434364D01*
X451143Y434310D01*
X451223Y434259D01*
X451306Y434212D01*
X451391Y434168D01*
X451477Y434128D01*
X451565Y434091D01*
X451654Y434058D01*
X451745Y434029D01*
X451837Y434004D01*
X451929Y433982D01*
X452023Y433965D01*
X452117Y433951D01*
X452212Y433941D01*
X452307Y433935D01*
X452402Y433933D01*
X448734Y438166D02*
X448683Y438247D01*
X448630Y438326D01*
X448574Y438403D01*
X448514Y438477D01*
X448451Y438548D01*
X448385Y438617D01*
X448317Y438684D01*
X448246Y438747D01*
X448172Y438807D01*
X448096Y438864D01*
X448017Y438918D01*
X447937Y438969D01*
X447854Y439016D01*
X447769Y439060D01*
X447683Y439100D01*
X447595Y439137D01*
X447506Y439170D01*
X447415Y439199D01*
X447324Y439224D01*
X447231Y439246D01*
X447137Y439263D01*
X447043Y439277D01*
X446948Y439287D01*
X446853Y439293D01*
X446758Y439295D01*
X448733Y438166D02*
X450427Y435061D01*
D15*
X510300Y376000D02*
X510300Y374000D01*
X480300Y374000D02*
X480300Y376000D01*
X507900Y374000D02*
X510300Y374000D01*
X482700Y374000D02*
X480300Y374000D01*
X494300Y388000D02*
X496300Y388000D01*
D16*
X367792Y327660D02*
X367792Y294640D01*
X394208Y294640D02*
X394208Y327660D01*
D13*
X204679Y296672D02*
X204679Y287584D01*
X204680Y287584D02*
X204682Y287485D01*
X204688Y287385D01*
X204697Y287286D01*
X204710Y287188D01*
X204727Y287090D01*
X204748Y286992D01*
X204773Y286896D01*
X204801Y286801D01*
X204833Y286707D01*
X204868Y286614D01*
X204907Y286522D01*
X204950Y286432D01*
X204995Y286344D01*
X205045Y286257D01*
X205097Y286173D01*
X205153Y286090D01*
X205211Y286010D01*
X205273Y285932D01*
X205338Y285857D01*
X205406Y285784D01*
X205476Y285714D01*
X205549Y285646D01*
X205624Y285581D01*
X205702Y285519D01*
X205782Y285461D01*
X205865Y285405D01*
X205949Y285353D01*
X206036Y285303D01*
X206124Y285258D01*
X206214Y285215D01*
X206306Y285176D01*
X206399Y285141D01*
X206493Y285109D01*
X206588Y285081D01*
X206684Y285056D01*
X206782Y285035D01*
X206880Y285018D01*
X206978Y285005D01*
X207077Y284996D01*
X207177Y284990D01*
X207276Y284988D01*
X208574Y284988D01*
X198856Y284988D02*
X198856Y296672D01*
X195610Y296672D01*
X195497Y296670D01*
X195384Y296664D01*
X195271Y296654D01*
X195158Y296640D01*
X195046Y296623D01*
X194935Y296601D01*
X194825Y296576D01*
X194715Y296546D01*
X194607Y296513D01*
X194500Y296476D01*
X194394Y296436D01*
X194290Y296391D01*
X194187Y296343D01*
X194086Y296292D01*
X193987Y296237D01*
X193890Y296179D01*
X193795Y296117D01*
X193702Y296052D01*
X193612Y295984D01*
X193524Y295913D01*
X193438Y295838D01*
X193355Y295761D01*
X193275Y295681D01*
X193198Y295598D01*
X193123Y295512D01*
X193052Y295424D01*
X192984Y295334D01*
X192919Y295241D01*
X192857Y295146D01*
X192799Y295049D01*
X192744Y294950D01*
X192693Y294849D01*
X192645Y294746D01*
X192600Y294642D01*
X192560Y294536D01*
X192523Y294429D01*
X192490Y294321D01*
X192460Y294211D01*
X192435Y294101D01*
X192413Y293990D01*
X192396Y293878D01*
X192382Y293765D01*
X192372Y293652D01*
X192366Y293539D01*
X192364Y293426D01*
X192366Y293313D01*
X192372Y293200D01*
X192382Y293087D01*
X192396Y292974D01*
X192413Y292862D01*
X192435Y292751D01*
X192460Y292641D01*
X192490Y292531D01*
X192523Y292423D01*
X192560Y292316D01*
X192600Y292210D01*
X192645Y292106D01*
X192693Y292003D01*
X192744Y291902D01*
X192799Y291803D01*
X192857Y291706D01*
X192919Y291611D01*
X192984Y291518D01*
X193052Y291428D01*
X193123Y291340D01*
X193198Y291254D01*
X193275Y291171D01*
X193355Y291091D01*
X193438Y291014D01*
X193524Y290939D01*
X193612Y290868D01*
X193702Y290800D01*
X193795Y290735D01*
X193890Y290673D01*
X193987Y290615D01*
X194086Y290560D01*
X194187Y290509D01*
X194290Y290461D01*
X194394Y290416D01*
X194500Y290376D01*
X194607Y290339D01*
X194715Y290306D01*
X194825Y290276D01*
X194935Y290251D01*
X195046Y290229D01*
X195158Y290212D01*
X195271Y290198D01*
X195384Y290188D01*
X195497Y290182D01*
X195610Y290180D01*
X195610Y290181D02*
X198856Y290181D01*
X188484Y285637D02*
X188484Y284988D01*
X188484Y285637D02*
X187835Y285637D01*
X187835Y284988D01*
X188484Y284988D01*
X183023Y288234D02*
X183023Y296672D01*
X183024Y288234D02*
X183022Y288121D01*
X183016Y288008D01*
X183006Y287895D01*
X182992Y287782D01*
X182975Y287670D01*
X182953Y287559D01*
X182928Y287449D01*
X182898Y287339D01*
X182865Y287231D01*
X182828Y287124D01*
X182788Y287018D01*
X182743Y286914D01*
X182695Y286811D01*
X182644Y286710D01*
X182589Y286611D01*
X182531Y286514D01*
X182469Y286419D01*
X182404Y286326D01*
X182336Y286236D01*
X182265Y286148D01*
X182190Y286062D01*
X182113Y285979D01*
X182033Y285899D01*
X181950Y285822D01*
X181864Y285747D01*
X181776Y285676D01*
X181686Y285608D01*
X181593Y285543D01*
X181498Y285481D01*
X181401Y285423D01*
X181302Y285368D01*
X181201Y285317D01*
X181098Y285269D01*
X180994Y285224D01*
X180888Y285184D01*
X180781Y285147D01*
X180673Y285114D01*
X180563Y285084D01*
X180453Y285059D01*
X180342Y285037D01*
X180230Y285020D01*
X180117Y285006D01*
X180004Y284996D01*
X179891Y284990D01*
X179778Y284988D01*
X179665Y284990D01*
X179552Y284996D01*
X179439Y285006D01*
X179326Y285020D01*
X179214Y285037D01*
X179103Y285059D01*
X178993Y285084D01*
X178883Y285114D01*
X178775Y285147D01*
X178668Y285184D01*
X178562Y285224D01*
X178458Y285269D01*
X178355Y285317D01*
X178254Y285368D01*
X178155Y285423D01*
X178058Y285481D01*
X177963Y285543D01*
X177870Y285608D01*
X177780Y285676D01*
X177692Y285747D01*
X177606Y285822D01*
X177523Y285899D01*
X177443Y285979D01*
X177366Y286062D01*
X177291Y286148D01*
X177220Y286236D01*
X177152Y286326D01*
X177087Y286419D01*
X177025Y286514D01*
X176967Y286611D01*
X176912Y286710D01*
X176861Y286811D01*
X176813Y286914D01*
X176768Y287018D01*
X176728Y287124D01*
X176691Y287231D01*
X176658Y287339D01*
X176628Y287449D01*
X176603Y287559D01*
X176581Y287670D01*
X176564Y287782D01*
X176550Y287895D01*
X176540Y288008D01*
X176534Y288121D01*
X176532Y288234D01*
X176532Y296672D01*
X167967Y296672D02*
X171861Y284988D01*
X164072Y284988D02*
X167967Y296672D01*
X165046Y287909D02*
X170888Y287909D01*
X159328Y284988D02*
X159328Y296672D01*
X156082Y296672D01*
X155969Y296670D01*
X155856Y296664D01*
X155743Y296654D01*
X155630Y296640D01*
X155518Y296623D01*
X155407Y296601D01*
X155297Y296576D01*
X155187Y296546D01*
X155079Y296513D01*
X154972Y296476D01*
X154866Y296436D01*
X154762Y296391D01*
X154659Y296343D01*
X154558Y296292D01*
X154459Y296237D01*
X154362Y296179D01*
X154267Y296117D01*
X154174Y296052D01*
X154084Y295984D01*
X153996Y295913D01*
X153910Y295838D01*
X153827Y295761D01*
X153747Y295681D01*
X153670Y295598D01*
X153595Y295512D01*
X153524Y295424D01*
X153456Y295334D01*
X153391Y295241D01*
X153329Y295146D01*
X153271Y295049D01*
X153216Y294950D01*
X153165Y294849D01*
X153117Y294746D01*
X153072Y294642D01*
X153032Y294536D01*
X152995Y294429D01*
X152962Y294321D01*
X152932Y294211D01*
X152907Y294101D01*
X152885Y293990D01*
X152868Y293878D01*
X152854Y293765D01*
X152844Y293652D01*
X152838Y293539D01*
X152836Y293426D01*
X152838Y293313D01*
X152844Y293200D01*
X152854Y293087D01*
X152868Y292974D01*
X152885Y292862D01*
X152907Y292751D01*
X152932Y292641D01*
X152962Y292531D01*
X152995Y292423D01*
X153032Y292316D01*
X153072Y292210D01*
X153117Y292106D01*
X153165Y292003D01*
X153216Y291902D01*
X153271Y291803D01*
X153329Y291706D01*
X153391Y291611D01*
X153456Y291518D01*
X153524Y291428D01*
X153595Y291340D01*
X153670Y291254D01*
X153747Y291171D01*
X153827Y291091D01*
X153910Y291014D01*
X153996Y290939D01*
X154084Y290868D01*
X154174Y290800D01*
X154267Y290735D01*
X154362Y290673D01*
X154459Y290615D01*
X154558Y290560D01*
X154659Y290509D01*
X154762Y290461D01*
X154866Y290416D01*
X154972Y290376D01*
X155079Y290339D01*
X155187Y290306D01*
X155297Y290276D01*
X155407Y290251D01*
X155518Y290229D01*
X155630Y290212D01*
X155743Y290198D01*
X155856Y290188D01*
X155969Y290182D01*
X156082Y290180D01*
X156082Y290181D02*
X159328Y290181D01*
X155433Y290181D02*
X152836Y284988D01*
X145488Y284988D02*
X145488Y296672D01*
X148733Y296672D02*
X142242Y296672D01*
X138573Y285637D02*
X138573Y284988D01*
X138573Y285637D02*
X137924Y285637D01*
X137924Y284988D01*
X138573Y284988D01*
X131010Y284988D02*
X131010Y296672D01*
X134255Y296672D02*
X127764Y296672D01*
X116447Y296672D02*
X124236Y284988D01*
X116447Y284988D02*
X124236Y296672D01*
X112665Y285637D02*
X112665Y284988D01*
X112665Y285637D02*
X112016Y285637D01*
X112016Y284988D01*
X112665Y284988D01*
X106626Y284988D02*
X106626Y296672D01*
X107924Y284988D02*
X105328Y284988D01*
X105328Y296672D02*
X107924Y296672D01*
X100177Y296672D02*
X100177Y284988D01*
X100177Y296672D02*
X96931Y296672D01*
X96818Y296670D01*
X96705Y296664D01*
X96592Y296654D01*
X96479Y296640D01*
X96367Y296623D01*
X96256Y296601D01*
X96146Y296576D01*
X96036Y296546D01*
X95928Y296513D01*
X95821Y296476D01*
X95715Y296436D01*
X95611Y296391D01*
X95508Y296343D01*
X95407Y296292D01*
X95308Y296237D01*
X95211Y296179D01*
X95116Y296117D01*
X95023Y296052D01*
X94933Y295984D01*
X94845Y295913D01*
X94759Y295838D01*
X94676Y295761D01*
X94596Y295681D01*
X94519Y295598D01*
X94444Y295512D01*
X94373Y295424D01*
X94305Y295334D01*
X94240Y295241D01*
X94178Y295146D01*
X94120Y295049D01*
X94065Y294950D01*
X94014Y294849D01*
X93966Y294746D01*
X93921Y294642D01*
X93881Y294536D01*
X93844Y294429D01*
X93811Y294321D01*
X93781Y294211D01*
X93756Y294101D01*
X93734Y293990D01*
X93717Y293878D01*
X93703Y293765D01*
X93693Y293652D01*
X93687Y293539D01*
X93685Y293426D01*
X93687Y293313D01*
X93693Y293200D01*
X93703Y293087D01*
X93717Y292974D01*
X93734Y292862D01*
X93756Y292751D01*
X93781Y292641D01*
X93811Y292531D01*
X93844Y292423D01*
X93881Y292316D01*
X93921Y292210D01*
X93966Y292106D01*
X94014Y292003D01*
X94065Y291902D01*
X94120Y291803D01*
X94178Y291706D01*
X94240Y291611D01*
X94305Y291518D01*
X94373Y291428D01*
X94444Y291340D01*
X94519Y291254D01*
X94596Y291171D01*
X94676Y291091D01*
X94759Y291014D01*
X94845Y290939D01*
X94933Y290868D01*
X95023Y290800D01*
X95116Y290735D01*
X95211Y290673D01*
X95308Y290615D01*
X95407Y290560D01*
X95508Y290509D01*
X95611Y290461D01*
X95715Y290416D01*
X95821Y290376D01*
X95928Y290339D01*
X96036Y290306D01*
X96146Y290276D01*
X96256Y290251D01*
X96367Y290229D01*
X96479Y290212D01*
X96592Y290198D01*
X96705Y290188D01*
X96818Y290182D01*
X96931Y290180D01*
X96931Y290181D02*
X100177Y290181D01*
X195472Y320096D02*
X195472Y329184D01*
X195472Y320096D02*
X195474Y319997D01*
X195480Y319897D01*
X195489Y319798D01*
X195502Y319700D01*
X195519Y319602D01*
X195540Y319504D01*
X195565Y319408D01*
X195593Y319313D01*
X195625Y319219D01*
X195660Y319126D01*
X195699Y319034D01*
X195742Y318944D01*
X195787Y318856D01*
X195837Y318769D01*
X195889Y318685D01*
X195945Y318602D01*
X196003Y318522D01*
X196065Y318444D01*
X196130Y318369D01*
X196198Y318296D01*
X196268Y318226D01*
X196341Y318158D01*
X196416Y318093D01*
X196494Y318031D01*
X196574Y317973D01*
X196657Y317917D01*
X196741Y317865D01*
X196828Y317815D01*
X196916Y317770D01*
X197006Y317727D01*
X197098Y317688D01*
X197191Y317653D01*
X197285Y317621D01*
X197380Y317593D01*
X197476Y317568D01*
X197574Y317547D01*
X197672Y317530D01*
X197770Y317517D01*
X197869Y317508D01*
X197969Y317502D01*
X198068Y317500D01*
X199367Y317500D01*
X189648Y317500D02*
X189648Y329184D01*
X186403Y329184D01*
X186290Y329182D01*
X186177Y329176D01*
X186064Y329166D01*
X185951Y329152D01*
X185839Y329135D01*
X185728Y329113D01*
X185618Y329088D01*
X185508Y329058D01*
X185400Y329025D01*
X185293Y328988D01*
X185187Y328948D01*
X185083Y328903D01*
X184980Y328855D01*
X184879Y328804D01*
X184780Y328749D01*
X184683Y328691D01*
X184588Y328629D01*
X184495Y328564D01*
X184405Y328496D01*
X184317Y328425D01*
X184231Y328350D01*
X184148Y328273D01*
X184068Y328193D01*
X183991Y328110D01*
X183916Y328024D01*
X183845Y327936D01*
X183777Y327846D01*
X183712Y327753D01*
X183650Y327658D01*
X183592Y327561D01*
X183537Y327462D01*
X183486Y327361D01*
X183438Y327258D01*
X183393Y327154D01*
X183353Y327048D01*
X183316Y326941D01*
X183283Y326833D01*
X183253Y326723D01*
X183228Y326613D01*
X183206Y326502D01*
X183189Y326390D01*
X183175Y326277D01*
X183165Y326164D01*
X183159Y326051D01*
X183157Y325938D01*
X183159Y325825D01*
X183165Y325712D01*
X183175Y325599D01*
X183189Y325486D01*
X183206Y325374D01*
X183228Y325263D01*
X183253Y325153D01*
X183283Y325043D01*
X183316Y324935D01*
X183353Y324828D01*
X183393Y324722D01*
X183438Y324618D01*
X183486Y324515D01*
X183537Y324414D01*
X183592Y324315D01*
X183650Y324218D01*
X183712Y324123D01*
X183777Y324030D01*
X183845Y323940D01*
X183916Y323852D01*
X183991Y323766D01*
X184068Y323683D01*
X184148Y323603D01*
X184231Y323526D01*
X184317Y323451D01*
X184405Y323380D01*
X184495Y323312D01*
X184588Y323247D01*
X184683Y323185D01*
X184780Y323127D01*
X184879Y323072D01*
X184980Y323021D01*
X185083Y322973D01*
X185187Y322928D01*
X185293Y322888D01*
X185400Y322851D01*
X185508Y322818D01*
X185618Y322788D01*
X185728Y322763D01*
X185839Y322741D01*
X185951Y322724D01*
X186064Y322710D01*
X186177Y322700D01*
X186290Y322694D01*
X186403Y322692D01*
X186403Y322693D02*
X189648Y322693D01*
X179277Y318149D02*
X179277Y317500D01*
X179277Y318149D02*
X178628Y318149D01*
X178628Y317500D01*
X179277Y317500D01*
X173816Y320746D02*
X173816Y329184D01*
X173816Y320746D02*
X173814Y320633D01*
X173808Y320520D01*
X173798Y320407D01*
X173784Y320294D01*
X173767Y320182D01*
X173745Y320071D01*
X173720Y319961D01*
X173690Y319851D01*
X173657Y319743D01*
X173620Y319636D01*
X173580Y319530D01*
X173535Y319426D01*
X173487Y319323D01*
X173436Y319222D01*
X173381Y319123D01*
X173323Y319026D01*
X173261Y318931D01*
X173196Y318838D01*
X173128Y318748D01*
X173057Y318660D01*
X172982Y318574D01*
X172905Y318491D01*
X172825Y318411D01*
X172742Y318334D01*
X172656Y318259D01*
X172568Y318188D01*
X172478Y318120D01*
X172385Y318055D01*
X172290Y317993D01*
X172193Y317935D01*
X172094Y317880D01*
X171993Y317829D01*
X171890Y317781D01*
X171786Y317736D01*
X171680Y317696D01*
X171573Y317659D01*
X171465Y317626D01*
X171355Y317596D01*
X171245Y317571D01*
X171134Y317549D01*
X171022Y317532D01*
X170909Y317518D01*
X170796Y317508D01*
X170683Y317502D01*
X170570Y317500D01*
X170457Y317502D01*
X170344Y317508D01*
X170231Y317518D01*
X170118Y317532D01*
X170006Y317549D01*
X169895Y317571D01*
X169785Y317596D01*
X169675Y317626D01*
X169567Y317659D01*
X169460Y317696D01*
X169354Y317736D01*
X169250Y317781D01*
X169147Y317829D01*
X169046Y317880D01*
X168947Y317935D01*
X168850Y317993D01*
X168755Y318055D01*
X168662Y318120D01*
X168572Y318188D01*
X168484Y318259D01*
X168398Y318334D01*
X168315Y318411D01*
X168235Y318491D01*
X168158Y318574D01*
X168083Y318660D01*
X168012Y318748D01*
X167944Y318838D01*
X167879Y318931D01*
X167817Y319026D01*
X167759Y319123D01*
X167704Y319222D01*
X167653Y319323D01*
X167605Y319426D01*
X167560Y319530D01*
X167520Y319636D01*
X167483Y319743D01*
X167450Y319851D01*
X167420Y319961D01*
X167395Y320071D01*
X167373Y320182D01*
X167356Y320294D01*
X167342Y320407D01*
X167332Y320520D01*
X167326Y320633D01*
X167324Y320746D01*
X167325Y320746D02*
X167325Y329184D01*
X158759Y329184D02*
X162654Y317500D01*
X154864Y317500D02*
X158759Y329184D01*
X155838Y320421D02*
X161680Y320421D01*
X150120Y317500D02*
X150120Y329184D01*
X146875Y329184D01*
X146762Y329182D01*
X146649Y329176D01*
X146536Y329166D01*
X146423Y329152D01*
X146311Y329135D01*
X146200Y329113D01*
X146090Y329088D01*
X145980Y329058D01*
X145872Y329025D01*
X145765Y328988D01*
X145659Y328948D01*
X145555Y328903D01*
X145452Y328855D01*
X145351Y328804D01*
X145252Y328749D01*
X145155Y328691D01*
X145060Y328629D01*
X144967Y328564D01*
X144877Y328496D01*
X144789Y328425D01*
X144703Y328350D01*
X144620Y328273D01*
X144540Y328193D01*
X144463Y328110D01*
X144388Y328024D01*
X144317Y327936D01*
X144249Y327846D01*
X144184Y327753D01*
X144122Y327658D01*
X144064Y327561D01*
X144009Y327462D01*
X143958Y327361D01*
X143910Y327258D01*
X143865Y327154D01*
X143825Y327048D01*
X143788Y326941D01*
X143755Y326833D01*
X143725Y326723D01*
X143700Y326613D01*
X143678Y326502D01*
X143661Y326390D01*
X143647Y326277D01*
X143637Y326164D01*
X143631Y326051D01*
X143629Y325938D01*
X143631Y325825D01*
X143637Y325712D01*
X143647Y325599D01*
X143661Y325486D01*
X143678Y325374D01*
X143700Y325263D01*
X143725Y325153D01*
X143755Y325043D01*
X143788Y324935D01*
X143825Y324828D01*
X143865Y324722D01*
X143910Y324618D01*
X143958Y324515D01*
X144009Y324414D01*
X144064Y324315D01*
X144122Y324218D01*
X144184Y324123D01*
X144249Y324030D01*
X144317Y323940D01*
X144388Y323852D01*
X144463Y323766D01*
X144540Y323683D01*
X144620Y323603D01*
X144703Y323526D01*
X144789Y323451D01*
X144877Y323380D01*
X144967Y323312D01*
X145060Y323247D01*
X145155Y323185D01*
X145252Y323127D01*
X145351Y323072D01*
X145452Y323021D01*
X145555Y322973D01*
X145659Y322928D01*
X145765Y322888D01*
X145872Y322851D01*
X145980Y322818D01*
X146090Y322788D01*
X146200Y322763D01*
X146311Y322741D01*
X146423Y322724D01*
X146536Y322710D01*
X146649Y322700D01*
X146762Y322694D01*
X146875Y322692D01*
X146875Y322693D02*
X150120Y322693D01*
X146225Y322693D02*
X143629Y317500D01*
X136280Y317500D02*
X136280Y329184D01*
X133035Y329184D02*
X139526Y329184D01*
X129366Y318149D02*
X129366Y317500D01*
X129366Y318149D02*
X128717Y318149D01*
X128717Y317500D01*
X129366Y317500D01*
X123831Y317500D02*
X123831Y329184D01*
X120586Y329184D01*
X120473Y329182D01*
X120360Y329176D01*
X120247Y329166D01*
X120134Y329152D01*
X120022Y329135D01*
X119911Y329113D01*
X119801Y329088D01*
X119691Y329058D01*
X119583Y329025D01*
X119476Y328988D01*
X119370Y328948D01*
X119266Y328903D01*
X119163Y328855D01*
X119062Y328804D01*
X118963Y328749D01*
X118866Y328691D01*
X118771Y328629D01*
X118678Y328564D01*
X118588Y328496D01*
X118500Y328425D01*
X118414Y328350D01*
X118331Y328273D01*
X118251Y328193D01*
X118174Y328110D01*
X118099Y328024D01*
X118028Y327936D01*
X117960Y327846D01*
X117895Y327753D01*
X117833Y327658D01*
X117775Y327561D01*
X117720Y327462D01*
X117669Y327361D01*
X117621Y327258D01*
X117576Y327154D01*
X117536Y327048D01*
X117499Y326941D01*
X117466Y326833D01*
X117436Y326723D01*
X117411Y326613D01*
X117389Y326502D01*
X117372Y326390D01*
X117358Y326277D01*
X117348Y326164D01*
X117342Y326051D01*
X117340Y325938D01*
X117342Y325825D01*
X117348Y325712D01*
X117358Y325599D01*
X117372Y325486D01*
X117389Y325374D01*
X117411Y325263D01*
X117436Y325153D01*
X117466Y325043D01*
X117499Y324935D01*
X117536Y324828D01*
X117576Y324722D01*
X117621Y324618D01*
X117669Y324515D01*
X117720Y324414D01*
X117775Y324315D01*
X117833Y324218D01*
X117895Y324123D01*
X117960Y324030D01*
X118028Y323940D01*
X118099Y323852D01*
X118174Y323766D01*
X118251Y323683D01*
X118331Y323603D01*
X118414Y323526D01*
X118500Y323451D01*
X118588Y323380D01*
X118678Y323312D01*
X118771Y323247D01*
X118866Y323185D01*
X118963Y323127D01*
X119062Y323072D01*
X119163Y323021D01*
X119266Y322973D01*
X119370Y322928D01*
X119476Y322888D01*
X119583Y322851D01*
X119691Y322818D01*
X119801Y322788D01*
X119911Y322763D01*
X120022Y322741D01*
X120134Y322724D01*
X120247Y322710D01*
X120360Y322700D01*
X120473Y322694D01*
X120586Y322692D01*
X120586Y322693D02*
X123831Y322693D01*
X119936Y322693D02*
X117340Y317500D01*
X113124Y317500D02*
X105335Y329184D01*
X113124Y329184D02*
X105335Y317500D01*
X101553Y317500D02*
X101553Y318149D01*
X100904Y318149D01*
X100904Y317500D01*
X101553Y317500D01*
X95513Y317500D02*
X95513Y329184D01*
X96811Y317500D02*
X94215Y317500D01*
X94215Y329184D02*
X96811Y329184D01*
X89064Y329184D02*
X89064Y317500D01*
X89064Y329184D02*
X85819Y329184D01*
X85706Y329182D01*
X85593Y329176D01*
X85480Y329166D01*
X85367Y329152D01*
X85255Y329135D01*
X85144Y329113D01*
X85034Y329088D01*
X84924Y329058D01*
X84816Y329025D01*
X84709Y328988D01*
X84603Y328948D01*
X84499Y328903D01*
X84396Y328855D01*
X84295Y328804D01*
X84196Y328749D01*
X84099Y328691D01*
X84004Y328629D01*
X83911Y328564D01*
X83821Y328496D01*
X83733Y328425D01*
X83647Y328350D01*
X83564Y328273D01*
X83484Y328193D01*
X83407Y328110D01*
X83332Y328024D01*
X83261Y327936D01*
X83193Y327846D01*
X83128Y327753D01*
X83066Y327658D01*
X83008Y327561D01*
X82953Y327462D01*
X82902Y327361D01*
X82854Y327258D01*
X82809Y327154D01*
X82769Y327048D01*
X82732Y326941D01*
X82699Y326833D01*
X82669Y326723D01*
X82644Y326613D01*
X82622Y326502D01*
X82605Y326390D01*
X82591Y326277D01*
X82581Y326164D01*
X82575Y326051D01*
X82573Y325938D01*
X82575Y325825D01*
X82581Y325712D01*
X82591Y325599D01*
X82605Y325486D01*
X82622Y325374D01*
X82644Y325263D01*
X82669Y325153D01*
X82699Y325043D01*
X82732Y324935D01*
X82769Y324828D01*
X82809Y324722D01*
X82854Y324618D01*
X82902Y324515D01*
X82953Y324414D01*
X83008Y324315D01*
X83066Y324218D01*
X83128Y324123D01*
X83193Y324030D01*
X83261Y323940D01*
X83332Y323852D01*
X83407Y323766D01*
X83484Y323683D01*
X83564Y323603D01*
X83647Y323526D01*
X83733Y323451D01*
X83821Y323380D01*
X83911Y323312D01*
X84004Y323247D01*
X84099Y323185D01*
X84196Y323127D01*
X84295Y323072D01*
X84396Y323021D01*
X84499Y322973D01*
X84603Y322928D01*
X84709Y322888D01*
X84816Y322851D01*
X84924Y322818D01*
X85034Y322788D01*
X85144Y322763D01*
X85255Y322741D01*
X85367Y322724D01*
X85480Y322710D01*
X85593Y322700D01*
X85706Y322694D01*
X85819Y322692D01*
X85819Y322693D02*
X89064Y322693D01*
D10*
X109250Y483550D02*
X115250Y483550D01*
X115250Y477550D01*
X81250Y483550D02*
X75250Y483550D01*
X75250Y477550D01*
X115250Y449550D02*
X115250Y443550D01*
X109250Y443550D01*
X81250Y443550D02*
X75250Y443550D01*
X75250Y449550D01*
D17*
X123250Y473550D02*
X123252Y473613D01*
X123258Y473675D01*
X123268Y473737D01*
X123281Y473799D01*
X123299Y473859D01*
X123320Y473918D01*
X123345Y473976D01*
X123374Y474032D01*
X123406Y474086D01*
X123441Y474138D01*
X123479Y474187D01*
X123521Y474235D01*
X123565Y474279D01*
X123613Y474321D01*
X123662Y474359D01*
X123714Y474394D01*
X123768Y474426D01*
X123824Y474455D01*
X123882Y474480D01*
X123941Y474501D01*
X124001Y474519D01*
X124063Y474532D01*
X124125Y474542D01*
X124187Y474548D01*
X124250Y474550D01*
X124313Y474548D01*
X124375Y474542D01*
X124437Y474532D01*
X124499Y474519D01*
X124559Y474501D01*
X124618Y474480D01*
X124676Y474455D01*
X124732Y474426D01*
X124786Y474394D01*
X124838Y474359D01*
X124887Y474321D01*
X124935Y474279D01*
X124979Y474235D01*
X125021Y474187D01*
X125059Y474138D01*
X125094Y474086D01*
X125126Y474032D01*
X125155Y473976D01*
X125180Y473918D01*
X125201Y473859D01*
X125219Y473799D01*
X125232Y473737D01*
X125242Y473675D01*
X125248Y473613D01*
X125250Y473550D01*
X125248Y473487D01*
X125242Y473425D01*
X125232Y473363D01*
X125219Y473301D01*
X125201Y473241D01*
X125180Y473182D01*
X125155Y473124D01*
X125126Y473068D01*
X125094Y473014D01*
X125059Y472962D01*
X125021Y472913D01*
X124979Y472865D01*
X124935Y472821D01*
X124887Y472779D01*
X124838Y472741D01*
X124786Y472706D01*
X124732Y472674D01*
X124676Y472645D01*
X124618Y472620D01*
X124559Y472599D01*
X124499Y472581D01*
X124437Y472568D01*
X124375Y472558D01*
X124313Y472552D01*
X124250Y472550D01*
X124187Y472552D01*
X124125Y472558D01*
X124063Y472568D01*
X124001Y472581D01*
X123941Y472599D01*
X123882Y472620D01*
X123824Y472645D01*
X123768Y472674D01*
X123714Y472706D01*
X123662Y472741D01*
X123613Y472779D01*
X123565Y472821D01*
X123521Y472865D01*
X123479Y472913D01*
X123441Y472962D01*
X123406Y473014D01*
X123374Y473068D01*
X123345Y473124D01*
X123320Y473182D01*
X123299Y473241D01*
X123281Y473301D01*
X123268Y473363D01*
X123258Y473425D01*
X123252Y473487D01*
X123250Y473550D01*
D10*
X85154Y503587D02*
X29146Y503587D01*
X29146Y537813D02*
X85154Y537813D01*
D18*
X73150Y512700D02*
X41150Y512700D01*
X41150Y528700D02*
X73150Y528700D01*
D19*
X57150Y520700D03*
D20*
X56650Y520700D03*
D13*
X-61247Y89662D02*
X-61247Y80574D01*
X-61246Y80574D02*
X-61244Y80475D01*
X-61238Y80375D01*
X-61229Y80276D01*
X-61216Y80178D01*
X-61199Y80080D01*
X-61178Y79982D01*
X-61153Y79886D01*
X-61125Y79791D01*
X-61093Y79697D01*
X-61058Y79604D01*
X-61019Y79512D01*
X-60976Y79422D01*
X-60931Y79334D01*
X-60881Y79247D01*
X-60829Y79163D01*
X-60773Y79080D01*
X-60715Y79000D01*
X-60653Y78922D01*
X-60588Y78847D01*
X-60520Y78774D01*
X-60450Y78704D01*
X-60377Y78636D01*
X-60302Y78571D01*
X-60224Y78509D01*
X-60144Y78451D01*
X-60061Y78395D01*
X-59977Y78343D01*
X-59890Y78293D01*
X-59802Y78248D01*
X-59712Y78205D01*
X-59620Y78166D01*
X-59527Y78131D01*
X-59433Y78099D01*
X-59338Y78071D01*
X-59242Y78046D01*
X-59144Y78025D01*
X-59046Y78008D01*
X-58948Y77995D01*
X-58849Y77986D01*
X-58749Y77980D01*
X-58650Y77978D01*
X-57352Y77978D01*
X-67071Y77978D02*
X-67071Y89662D01*
X-70316Y89662D01*
X-70429Y89660D01*
X-70542Y89654D01*
X-70655Y89644D01*
X-70768Y89630D01*
X-70880Y89613D01*
X-70991Y89591D01*
X-71101Y89566D01*
X-71211Y89536D01*
X-71319Y89503D01*
X-71426Y89466D01*
X-71532Y89426D01*
X-71636Y89381D01*
X-71739Y89333D01*
X-71840Y89282D01*
X-71939Y89227D01*
X-72036Y89169D01*
X-72131Y89107D01*
X-72224Y89042D01*
X-72314Y88974D01*
X-72402Y88903D01*
X-72488Y88828D01*
X-72571Y88751D01*
X-72651Y88671D01*
X-72728Y88588D01*
X-72803Y88502D01*
X-72874Y88414D01*
X-72942Y88324D01*
X-73007Y88231D01*
X-73069Y88136D01*
X-73127Y88039D01*
X-73182Y87940D01*
X-73233Y87839D01*
X-73281Y87736D01*
X-73326Y87632D01*
X-73366Y87526D01*
X-73403Y87419D01*
X-73436Y87311D01*
X-73466Y87201D01*
X-73491Y87091D01*
X-73513Y86980D01*
X-73530Y86868D01*
X-73544Y86755D01*
X-73554Y86642D01*
X-73560Y86529D01*
X-73562Y86416D01*
X-73560Y86303D01*
X-73554Y86190D01*
X-73544Y86077D01*
X-73530Y85964D01*
X-73513Y85852D01*
X-73491Y85741D01*
X-73466Y85631D01*
X-73436Y85521D01*
X-73403Y85413D01*
X-73366Y85306D01*
X-73326Y85200D01*
X-73281Y85096D01*
X-73233Y84993D01*
X-73182Y84892D01*
X-73127Y84793D01*
X-73069Y84696D01*
X-73007Y84601D01*
X-72942Y84508D01*
X-72874Y84418D01*
X-72803Y84330D01*
X-72728Y84244D01*
X-72651Y84161D01*
X-72571Y84081D01*
X-72488Y84004D01*
X-72402Y83929D01*
X-72314Y83858D01*
X-72224Y83790D01*
X-72131Y83725D01*
X-72036Y83663D01*
X-71939Y83605D01*
X-71840Y83550D01*
X-71739Y83499D01*
X-71636Y83451D01*
X-71532Y83406D01*
X-71426Y83366D01*
X-71319Y83329D01*
X-71211Y83296D01*
X-71101Y83266D01*
X-70991Y83241D01*
X-70880Y83219D01*
X-70768Y83202D01*
X-70655Y83188D01*
X-70542Y83178D01*
X-70429Y83172D01*
X-70316Y83170D01*
X-70316Y83171D02*
X-67071Y83171D01*
X-77442Y78627D02*
X-77442Y77978D01*
X-77442Y78627D02*
X-78091Y78627D01*
X-78091Y77978D01*
X-77442Y77978D01*
X-82903Y81224D02*
X-82903Y89662D01*
X-82903Y81224D02*
X-82905Y81111D01*
X-82911Y80998D01*
X-82921Y80885D01*
X-82935Y80772D01*
X-82952Y80660D01*
X-82974Y80549D01*
X-82999Y80439D01*
X-83029Y80329D01*
X-83062Y80221D01*
X-83099Y80114D01*
X-83139Y80008D01*
X-83184Y79904D01*
X-83232Y79801D01*
X-83283Y79700D01*
X-83338Y79601D01*
X-83396Y79504D01*
X-83458Y79409D01*
X-83523Y79316D01*
X-83591Y79226D01*
X-83662Y79138D01*
X-83737Y79052D01*
X-83814Y78969D01*
X-83894Y78889D01*
X-83977Y78812D01*
X-84063Y78737D01*
X-84151Y78666D01*
X-84241Y78598D01*
X-84334Y78533D01*
X-84429Y78471D01*
X-84526Y78413D01*
X-84625Y78358D01*
X-84726Y78307D01*
X-84829Y78259D01*
X-84933Y78214D01*
X-85039Y78174D01*
X-85146Y78137D01*
X-85254Y78104D01*
X-85364Y78074D01*
X-85474Y78049D01*
X-85585Y78027D01*
X-85697Y78010D01*
X-85810Y77996D01*
X-85923Y77986D01*
X-86036Y77980D01*
X-86149Y77978D01*
X-86262Y77980D01*
X-86375Y77986D01*
X-86488Y77996D01*
X-86601Y78010D01*
X-86713Y78027D01*
X-86824Y78049D01*
X-86934Y78074D01*
X-87044Y78104D01*
X-87152Y78137D01*
X-87259Y78174D01*
X-87365Y78214D01*
X-87469Y78259D01*
X-87572Y78307D01*
X-87673Y78358D01*
X-87772Y78413D01*
X-87869Y78471D01*
X-87964Y78533D01*
X-88057Y78598D01*
X-88147Y78666D01*
X-88235Y78737D01*
X-88321Y78812D01*
X-88404Y78889D01*
X-88484Y78969D01*
X-88561Y79052D01*
X-88636Y79138D01*
X-88707Y79226D01*
X-88775Y79316D01*
X-88840Y79409D01*
X-88902Y79504D01*
X-88960Y79601D01*
X-89015Y79700D01*
X-89066Y79801D01*
X-89114Y79904D01*
X-89159Y80008D01*
X-89199Y80114D01*
X-89236Y80221D01*
X-89269Y80329D01*
X-89299Y80439D01*
X-89324Y80549D01*
X-89346Y80660D01*
X-89363Y80772D01*
X-89377Y80885D01*
X-89387Y80998D01*
X-89393Y81111D01*
X-89395Y81224D01*
X-89394Y81224D02*
X-89394Y89662D01*
X-97960Y89662D02*
X-94065Y77978D01*
X-101854Y77978D02*
X-97960Y89662D01*
X-100881Y80899D02*
X-95039Y80899D01*
X-106599Y77978D02*
X-106599Y89662D01*
X-109844Y89662D01*
X-109957Y89660D01*
X-110070Y89654D01*
X-110183Y89644D01*
X-110296Y89630D01*
X-110408Y89613D01*
X-110519Y89591D01*
X-110629Y89566D01*
X-110739Y89536D01*
X-110847Y89503D01*
X-110954Y89466D01*
X-111060Y89426D01*
X-111164Y89381D01*
X-111267Y89333D01*
X-111368Y89282D01*
X-111467Y89227D01*
X-111564Y89169D01*
X-111659Y89107D01*
X-111752Y89042D01*
X-111842Y88974D01*
X-111930Y88903D01*
X-112016Y88828D01*
X-112099Y88751D01*
X-112179Y88671D01*
X-112256Y88588D01*
X-112331Y88502D01*
X-112402Y88414D01*
X-112470Y88324D01*
X-112535Y88231D01*
X-112597Y88136D01*
X-112655Y88039D01*
X-112710Y87940D01*
X-112761Y87839D01*
X-112809Y87736D01*
X-112854Y87632D01*
X-112894Y87526D01*
X-112931Y87419D01*
X-112964Y87311D01*
X-112994Y87201D01*
X-113019Y87091D01*
X-113041Y86980D01*
X-113058Y86868D01*
X-113072Y86755D01*
X-113082Y86642D01*
X-113088Y86529D01*
X-113090Y86416D01*
X-113088Y86303D01*
X-113082Y86190D01*
X-113072Y86077D01*
X-113058Y85964D01*
X-113041Y85852D01*
X-113019Y85741D01*
X-112994Y85631D01*
X-112964Y85521D01*
X-112931Y85413D01*
X-112894Y85306D01*
X-112854Y85200D01*
X-112809Y85096D01*
X-112761Y84993D01*
X-112710Y84892D01*
X-112655Y84793D01*
X-112597Y84696D01*
X-112535Y84601D01*
X-112470Y84508D01*
X-112402Y84418D01*
X-112331Y84330D01*
X-112256Y84244D01*
X-112179Y84161D01*
X-112099Y84081D01*
X-112016Y84004D01*
X-111930Y83929D01*
X-111842Y83858D01*
X-111752Y83790D01*
X-111659Y83725D01*
X-111564Y83663D01*
X-111467Y83605D01*
X-111368Y83550D01*
X-111267Y83499D01*
X-111164Y83451D01*
X-111060Y83406D01*
X-110954Y83366D01*
X-110847Y83329D01*
X-110739Y83296D01*
X-110629Y83266D01*
X-110519Y83241D01*
X-110408Y83219D01*
X-110296Y83202D01*
X-110183Y83188D01*
X-110070Y83178D01*
X-109957Y83172D01*
X-109844Y83170D01*
X-109844Y83171D02*
X-106599Y83171D01*
X-110493Y83171D02*
X-113090Y77978D01*
X-120439Y77978D02*
X-120439Y89662D01*
X-123684Y89662D02*
X-117193Y89662D01*
X-127353Y78627D02*
X-127353Y77978D01*
X-127353Y78627D02*
X-128002Y78627D01*
X-128002Y77978D01*
X-127353Y77978D01*
X-135679Y77978D02*
X-131784Y89662D01*
X-139573Y89662D02*
X-135679Y77978D01*
X-146426Y77978D02*
X-149023Y77978D01*
X-146426Y77978D02*
X-146327Y77980D01*
X-146227Y77986D01*
X-146128Y77995D01*
X-146030Y78008D01*
X-145932Y78025D01*
X-145834Y78046D01*
X-145738Y78071D01*
X-145643Y78099D01*
X-145549Y78131D01*
X-145456Y78166D01*
X-145364Y78205D01*
X-145274Y78248D01*
X-145186Y78293D01*
X-145099Y78343D01*
X-145015Y78395D01*
X-144932Y78451D01*
X-144852Y78509D01*
X-144774Y78571D01*
X-144699Y78636D01*
X-144626Y78704D01*
X-144556Y78774D01*
X-144488Y78847D01*
X-144423Y78922D01*
X-144361Y79000D01*
X-144303Y79080D01*
X-144247Y79163D01*
X-144195Y79247D01*
X-144145Y79334D01*
X-144100Y79422D01*
X-144057Y79512D01*
X-144018Y79604D01*
X-143983Y79697D01*
X-143951Y79791D01*
X-143923Y79886D01*
X-143898Y79982D01*
X-143877Y80080D01*
X-143860Y80178D01*
X-143847Y80276D01*
X-143838Y80375D01*
X-143832Y80475D01*
X-143830Y80574D01*
X-143830Y87066D01*
X-143832Y87165D01*
X-143838Y87265D01*
X-143847Y87364D01*
X-143860Y87462D01*
X-143877Y87560D01*
X-143898Y87658D01*
X-143923Y87754D01*
X-143951Y87849D01*
X-143983Y87943D01*
X-144018Y88036D01*
X-144057Y88128D01*
X-144100Y88218D01*
X-144145Y88306D01*
X-144195Y88393D01*
X-144247Y88477D01*
X-144303Y88560D01*
X-144361Y88640D01*
X-144423Y88718D01*
X-144488Y88793D01*
X-144556Y88866D01*
X-144626Y88936D01*
X-144699Y89004D01*
X-144774Y89069D01*
X-144852Y89131D01*
X-144932Y89189D01*
X-145015Y89245D01*
X-145099Y89297D01*
X-145186Y89347D01*
X-145274Y89392D01*
X-145364Y89435D01*
X-145456Y89474D01*
X-145548Y89509D01*
X-145643Y89541D01*
X-145738Y89569D01*
X-145834Y89594D01*
X-145932Y89615D01*
X-146030Y89632D01*
X-146128Y89645D01*
X-146227Y89654D01*
X-146327Y89660D01*
X-146426Y89662D01*
X-149023Y89662D01*
X-155951Y77978D02*
X-158548Y77978D01*
X-155951Y77978D02*
X-155852Y77980D01*
X-155752Y77986D01*
X-155653Y77995D01*
X-155555Y78008D01*
X-155457Y78025D01*
X-155359Y78046D01*
X-155263Y78071D01*
X-155168Y78099D01*
X-155074Y78131D01*
X-154981Y78166D01*
X-154889Y78205D01*
X-154799Y78248D01*
X-154711Y78293D01*
X-154624Y78343D01*
X-154540Y78395D01*
X-154457Y78451D01*
X-154377Y78509D01*
X-154299Y78571D01*
X-154224Y78636D01*
X-154151Y78704D01*
X-154081Y78774D01*
X-154013Y78847D01*
X-153948Y78922D01*
X-153886Y79000D01*
X-153828Y79080D01*
X-153772Y79163D01*
X-153720Y79247D01*
X-153670Y79334D01*
X-153625Y79422D01*
X-153582Y79512D01*
X-153543Y79604D01*
X-153508Y79697D01*
X-153476Y79791D01*
X-153448Y79886D01*
X-153423Y79982D01*
X-153402Y80080D01*
X-153385Y80178D01*
X-153372Y80276D01*
X-153363Y80375D01*
X-153357Y80475D01*
X-153355Y80574D01*
X-153355Y87066D01*
X-153357Y87165D01*
X-153363Y87265D01*
X-153372Y87364D01*
X-153385Y87462D01*
X-153402Y87560D01*
X-153423Y87658D01*
X-153448Y87754D01*
X-153476Y87849D01*
X-153508Y87943D01*
X-153543Y88036D01*
X-153582Y88128D01*
X-153625Y88218D01*
X-153670Y88306D01*
X-153720Y88393D01*
X-153772Y88477D01*
X-153828Y88560D01*
X-153886Y88640D01*
X-153948Y88718D01*
X-154013Y88793D01*
X-154081Y88866D01*
X-154151Y88936D01*
X-154224Y89004D01*
X-154299Y89069D01*
X-154377Y89131D01*
X-154457Y89189D01*
X-154540Y89245D01*
X-154624Y89297D01*
X-154711Y89347D01*
X-154799Y89392D01*
X-154889Y89435D01*
X-154981Y89474D01*
X-155073Y89509D01*
X-155168Y89541D01*
X-155263Y89569D01*
X-155359Y89594D01*
X-155457Y89615D01*
X-155555Y89632D01*
X-155653Y89645D01*
X-155752Y89654D01*
X-155852Y89660D01*
X-155951Y89662D01*
X-158548Y89662D01*
D16*
X-121158Y253492D02*
X-121158Y259842D01*
X-121158Y305308D02*
X-114808Y305308D01*
X-69342Y305308D02*
X-69342Y298958D01*
X-69342Y253492D02*
X-75692Y253492D01*
X-114808Y253492D02*
X-121158Y253492D01*
X-121158Y298958D02*
X-121158Y305308D01*
X-75692Y305308D02*
X-69342Y305308D01*
X-69342Y259842D02*
X-69342Y253492D01*
D21*
X-74817Y242789D02*
X-78796Y242789D01*
X-81781Y245110D01*
X-78796Y242789D02*
X-81781Y240467D01*
X-78796Y242789D02*
X-77470Y246436D01*
X-78796Y242789D02*
X-77470Y239141D01*
D16*
X313436Y510286D02*
X346964Y510286D01*
X346964Y543814D02*
X313436Y543814D01*
D15*
X274400Y455300D02*
X272400Y455300D01*
X272400Y484500D02*
X274400Y484500D01*
X272400Y457300D02*
X272400Y455300D01*
X272400Y482500D02*
X272400Y484500D01*
X286400Y470900D02*
X286400Y468900D01*
X315200Y476400D02*
X322700Y476400D01*
X337700Y476400D02*
X345200Y476400D01*
X315200Y476400D02*
X315200Y467400D01*
X345200Y467400D02*
X345200Y476400D01*
D22*
X339950Y450400D03*
D16*
X491236Y491236D02*
X491236Y524764D01*
X524764Y524764D02*
X524764Y491236D01*
D15*
X429900Y544750D02*
X429900Y546750D01*
X459100Y546750D02*
X459100Y544750D01*
X431900Y546750D02*
X429900Y546750D01*
X457100Y546750D02*
X459100Y546750D01*
X445500Y532750D02*
X443500Y532750D01*
X451000Y503950D02*
X451000Y496450D01*
X451000Y481450D02*
X451000Y473950D01*
X451000Y503950D02*
X442000Y503950D01*
X442000Y473950D02*
X451000Y473950D01*
D22*
X425000Y479200D03*
D16*
X497586Y283464D02*
X497586Y249936D01*
X531114Y249936D02*
X531114Y283464D01*
D15*
X448950Y297100D02*
X448950Y299100D01*
X478150Y299100D02*
X478150Y297100D01*
X450950Y299100D02*
X448950Y299100D01*
X476150Y299100D02*
X478150Y299100D01*
X464550Y285100D02*
X462550Y285100D01*
X470050Y262650D02*
X470050Y255150D01*
X470050Y240150D02*
X470050Y232650D01*
X470050Y262650D02*
X461050Y262650D01*
X461050Y232650D02*
X470050Y232650D01*
D22*
X444050Y237900D03*
D16*
X491236Y105664D02*
X491236Y72136D01*
X524764Y72136D02*
X524764Y105664D01*
D15*
X436250Y132000D02*
X436250Y134000D01*
X465450Y134000D02*
X465450Y132000D01*
X438250Y134000D02*
X436250Y134000D01*
X463450Y134000D02*
X465450Y134000D01*
X451850Y120000D02*
X449850Y120000D01*
X457350Y91200D02*
X457350Y83700D01*
X457350Y68700D02*
X457350Y61200D01*
X457350Y91200D02*
X448350Y91200D01*
X448350Y61200D02*
X457350Y61200D01*
D22*
X431350Y66450D03*
D14*
X-7112Y177862D02*
X-15014Y177862D01*
X-15107Y177860D01*
X-15200Y177854D01*
X-15293Y177845D01*
X-15386Y177831D01*
X-15477Y177814D01*
X-15568Y177793D01*
X-15658Y177768D01*
X-15747Y177740D01*
X-15835Y177708D01*
X-15921Y177672D01*
X-16006Y177633D01*
X-16089Y177590D01*
X-16170Y177544D01*
X-16249Y177494D01*
X-16326Y177442D01*
X-16401Y177386D01*
X-16473Y177327D01*
X-16543Y177265D01*
X-16611Y177201D01*
X-16675Y177133D01*
X-16737Y177063D01*
X-16796Y176991D01*
X-16852Y176916D01*
X-16904Y176839D01*
X-16954Y176760D01*
X-17000Y176679D01*
X-17043Y176596D01*
X-17082Y176511D01*
X-17118Y176425D01*
X-17150Y176337D01*
X-17178Y176248D01*
X-17203Y176158D01*
X-17224Y176067D01*
X-17241Y175976D01*
X-17255Y175883D01*
X-17264Y175790D01*
X-17270Y175697D01*
X-17272Y175604D01*
X-17272Y174475D01*
X-17272Y184624D02*
X-7112Y184624D01*
X-7112Y187447D01*
X-7114Y187553D01*
X-7120Y187658D01*
X-7130Y187763D01*
X-7144Y187868D01*
X-7161Y187972D01*
X-7183Y188075D01*
X-7208Y188177D01*
X-7237Y188279D01*
X-7270Y188379D01*
X-7307Y188478D01*
X-7347Y188575D01*
X-7391Y188671D01*
X-7439Y188766D01*
X-7490Y188858D01*
X-7545Y188948D01*
X-7602Y189037D01*
X-7663Y189123D01*
X-7728Y189206D01*
X-7795Y189288D01*
X-7865Y189366D01*
X-7939Y189442D01*
X-8015Y189516D01*
X-8093Y189586D01*
X-8175Y189653D01*
X-8258Y189718D01*
X-8344Y189779D01*
X-8433Y189836D01*
X-8523Y189891D01*
X-8615Y189942D01*
X-8710Y189990D01*
X-8806Y190034D01*
X-8903Y190074D01*
X-9002Y190111D01*
X-9102Y190144D01*
X-9204Y190173D01*
X-9306Y190198D01*
X-9409Y190220D01*
X-9513Y190237D01*
X-9618Y190251D01*
X-9723Y190261D01*
X-9828Y190267D01*
X-9934Y190269D01*
X-10040Y190267D01*
X-10145Y190261D01*
X-10250Y190251D01*
X-10355Y190237D01*
X-10459Y190220D01*
X-10562Y190198D01*
X-10664Y190173D01*
X-10766Y190144D01*
X-10866Y190111D01*
X-10965Y190074D01*
X-11062Y190034D01*
X-11158Y189990D01*
X-11253Y189942D01*
X-11345Y189891D01*
X-11435Y189836D01*
X-11524Y189779D01*
X-11610Y189718D01*
X-11693Y189653D01*
X-11775Y189586D01*
X-11853Y189516D01*
X-11929Y189442D01*
X-12003Y189366D01*
X-12073Y189288D01*
X-12140Y189206D01*
X-12205Y189123D01*
X-12266Y189037D01*
X-12323Y188948D01*
X-12378Y188858D01*
X-12429Y188766D01*
X-12477Y188671D01*
X-12521Y188575D01*
X-12561Y188478D01*
X-12598Y188379D01*
X-12631Y188279D01*
X-12660Y188177D01*
X-12685Y188075D01*
X-12707Y187972D01*
X-12724Y187868D01*
X-12738Y187763D01*
X-12748Y187658D01*
X-12754Y187553D01*
X-12756Y187447D01*
X-12756Y184624D01*
X-16708Y194488D02*
X-17272Y194488D01*
X-16708Y194488D02*
X-16708Y195053D01*
X-17272Y195053D01*
X-17272Y194488D01*
X-14450Y200330D02*
X-7112Y200330D01*
X-14450Y200330D02*
X-14556Y200332D01*
X-14661Y200338D01*
X-14766Y200348D01*
X-14871Y200362D01*
X-14975Y200379D01*
X-15078Y200401D01*
X-15180Y200426D01*
X-15282Y200455D01*
X-15382Y200488D01*
X-15481Y200525D01*
X-15578Y200565D01*
X-15674Y200609D01*
X-15769Y200657D01*
X-15861Y200708D01*
X-15951Y200763D01*
X-16040Y200820D01*
X-16126Y200881D01*
X-16209Y200946D01*
X-16291Y201013D01*
X-16369Y201083D01*
X-16445Y201157D01*
X-16519Y201233D01*
X-16589Y201311D01*
X-16656Y201393D01*
X-16721Y201476D01*
X-16782Y201562D01*
X-16839Y201651D01*
X-16894Y201741D01*
X-16945Y201833D01*
X-16993Y201928D01*
X-17037Y202024D01*
X-17077Y202121D01*
X-17114Y202220D01*
X-17147Y202320D01*
X-17176Y202422D01*
X-17201Y202524D01*
X-17223Y202627D01*
X-17240Y202731D01*
X-17254Y202836D01*
X-17264Y202941D01*
X-17270Y203046D01*
X-17272Y203152D01*
X-17270Y203258D01*
X-17264Y203363D01*
X-17254Y203468D01*
X-17240Y203573D01*
X-17223Y203677D01*
X-17201Y203780D01*
X-17176Y203882D01*
X-17147Y203984D01*
X-17114Y204084D01*
X-17077Y204183D01*
X-17037Y204280D01*
X-16993Y204376D01*
X-16945Y204471D01*
X-16894Y204563D01*
X-16839Y204653D01*
X-16782Y204742D01*
X-16721Y204828D01*
X-16656Y204911D01*
X-16589Y204993D01*
X-16519Y205071D01*
X-16445Y205147D01*
X-16369Y205221D01*
X-16291Y205291D01*
X-16209Y205358D01*
X-16126Y205423D01*
X-16040Y205484D01*
X-15951Y205541D01*
X-15861Y205596D01*
X-15769Y205647D01*
X-15674Y205695D01*
X-15578Y205739D01*
X-15481Y205779D01*
X-15382Y205816D01*
X-15282Y205849D01*
X-15180Y205878D01*
X-15078Y205903D01*
X-14975Y205925D01*
X-14871Y205942D01*
X-14766Y205956D01*
X-14661Y205966D01*
X-14556Y205972D01*
X-14450Y205974D01*
X-14450Y205975D02*
X-7112Y205975D01*
X-17272Y215147D02*
X-17270Y215240D01*
X-17264Y215333D01*
X-17255Y215426D01*
X-17241Y215519D01*
X-17224Y215610D01*
X-17203Y215701D01*
X-17178Y215791D01*
X-17150Y215880D01*
X-17118Y215968D01*
X-17082Y216054D01*
X-17043Y216139D01*
X-17000Y216222D01*
X-16954Y216303D01*
X-16904Y216382D01*
X-16852Y216459D01*
X-16796Y216534D01*
X-16737Y216606D01*
X-16675Y216676D01*
X-16611Y216744D01*
X-16543Y216808D01*
X-16473Y216870D01*
X-16401Y216929D01*
X-16326Y216985D01*
X-16249Y217037D01*
X-16170Y217087D01*
X-16089Y217133D01*
X-16006Y217176D01*
X-15921Y217215D01*
X-15835Y217251D01*
X-15747Y217283D01*
X-15658Y217311D01*
X-15568Y217336D01*
X-15477Y217357D01*
X-15386Y217374D01*
X-15293Y217388D01*
X-15200Y217397D01*
X-15107Y217403D01*
X-15014Y217405D01*
X-17272Y215147D02*
X-17270Y215013D01*
X-17264Y214878D01*
X-17255Y214744D01*
X-17242Y214610D01*
X-17225Y214477D01*
X-17204Y214344D01*
X-17179Y214212D01*
X-17151Y214080D01*
X-17119Y213949D01*
X-17084Y213820D01*
X-17044Y213691D01*
X-17002Y213564D01*
X-16955Y213437D01*
X-16905Y213312D01*
X-16852Y213189D01*
X-16795Y213067D01*
X-16734Y212947D01*
X-16671Y212828D01*
X-16604Y212712D01*
X-16533Y212597D01*
X-16460Y212485D01*
X-16383Y212374D01*
X-16303Y212266D01*
X-16221Y212160D01*
X-16135Y212056D01*
X-16046Y211955D01*
X-15955Y211856D01*
X-15861Y211760D01*
X-9370Y212042D02*
X-9277Y212044D01*
X-9184Y212050D01*
X-9091Y212059D01*
X-8998Y212073D01*
X-8907Y212090D01*
X-8816Y212111D01*
X-8726Y212136D01*
X-8637Y212164D01*
X-8549Y212196D01*
X-8463Y212232D01*
X-8378Y212271D01*
X-8295Y212314D01*
X-8214Y212360D01*
X-8135Y212410D01*
X-8058Y212462D01*
X-7983Y212518D01*
X-7911Y212577D01*
X-7841Y212639D01*
X-7773Y212703D01*
X-7709Y212771D01*
X-7647Y212841D01*
X-7588Y212913D01*
X-7532Y212988D01*
X-7480Y213065D01*
X-7430Y213144D01*
X-7384Y213225D01*
X-7341Y213308D01*
X-7302Y213393D01*
X-7266Y213479D01*
X-7234Y213567D01*
X-7206Y213656D01*
X-7181Y213746D01*
X-7160Y213837D01*
X-7143Y213928D01*
X-7129Y214021D01*
X-7120Y214114D01*
X-7114Y214207D01*
X-7112Y214300D01*
X-7114Y214430D01*
X-7120Y214559D01*
X-7130Y214689D01*
X-7144Y214818D01*
X-7162Y214946D01*
X-7183Y215074D01*
X-7209Y215201D01*
X-7239Y215327D01*
X-7272Y215453D01*
X-7309Y215577D01*
X-7350Y215700D01*
X-7395Y215822D01*
X-7443Y215942D01*
X-7496Y216061D01*
X-7551Y216178D01*
X-7611Y216293D01*
X-7674Y216407D01*
X-7740Y216518D01*
X-7809Y216628D01*
X-7882Y216735D01*
X-7959Y216840D01*
X-11345Y213171D02*
X-11295Y213090D01*
X-11242Y213011D01*
X-11186Y212934D01*
X-11126Y212860D01*
X-11063Y212789D01*
X-10997Y212720D01*
X-10929Y212653D01*
X-10858Y212590D01*
X-10784Y212530D01*
X-10708Y212473D01*
X-10629Y212419D01*
X-10549Y212368D01*
X-10466Y212321D01*
X-10381Y212277D01*
X-10295Y212237D01*
X-10207Y212200D01*
X-10118Y212167D01*
X-10027Y212138D01*
X-9935Y212113D01*
X-9843Y212091D01*
X-9749Y212074D01*
X-9655Y212060D01*
X-9560Y212050D01*
X-9465Y212044D01*
X-9370Y212042D01*
X-13038Y216275D02*
X-13089Y216356D01*
X-13142Y216435D01*
X-13198Y216512D01*
X-13258Y216586D01*
X-13321Y216657D01*
X-13387Y216726D01*
X-13455Y216793D01*
X-13526Y216856D01*
X-13600Y216916D01*
X-13676Y216973D01*
X-13755Y217027D01*
X-13835Y217078D01*
X-13918Y217125D01*
X-14003Y217169D01*
X-14089Y217209D01*
X-14177Y217246D01*
X-14266Y217279D01*
X-14357Y217308D01*
X-14448Y217333D01*
X-14541Y217355D01*
X-14635Y217372D01*
X-14729Y217386D01*
X-14824Y217396D01*
X-14919Y217402D01*
X-15014Y217404D01*
X-13039Y216276D02*
X-11345Y213171D01*
X-11628Y223486D02*
X-11628Y226309D01*
X-11630Y226415D01*
X-11636Y226520D01*
X-11646Y226625D01*
X-11660Y226730D01*
X-11677Y226834D01*
X-11699Y226937D01*
X-11724Y227039D01*
X-11753Y227141D01*
X-11786Y227241D01*
X-11823Y227340D01*
X-11863Y227437D01*
X-11907Y227533D01*
X-11955Y227628D01*
X-12006Y227720D01*
X-12061Y227810D01*
X-12118Y227899D01*
X-12179Y227985D01*
X-12244Y228068D01*
X-12311Y228150D01*
X-12381Y228228D01*
X-12455Y228304D01*
X-12531Y228378D01*
X-12609Y228448D01*
X-12691Y228515D01*
X-12774Y228580D01*
X-12860Y228641D01*
X-12949Y228698D01*
X-13039Y228753D01*
X-13131Y228804D01*
X-13226Y228852D01*
X-13322Y228896D01*
X-13419Y228936D01*
X-13518Y228973D01*
X-13618Y229006D01*
X-13720Y229035D01*
X-13822Y229060D01*
X-13925Y229082D01*
X-14029Y229099D01*
X-14134Y229113D01*
X-14239Y229123D01*
X-14344Y229129D01*
X-14450Y229131D01*
X-14556Y229129D01*
X-14661Y229123D01*
X-14766Y229113D01*
X-14871Y229099D01*
X-14975Y229082D01*
X-15078Y229060D01*
X-15180Y229035D01*
X-15282Y229006D01*
X-15382Y228973D01*
X-15481Y228936D01*
X-15578Y228896D01*
X-15674Y228852D01*
X-15769Y228804D01*
X-15861Y228753D01*
X-15951Y228698D01*
X-16040Y228641D01*
X-16126Y228580D01*
X-16209Y228515D01*
X-16291Y228448D01*
X-16369Y228378D01*
X-16445Y228304D01*
X-16519Y228228D01*
X-16589Y228150D01*
X-16656Y228068D01*
X-16721Y227985D01*
X-16782Y227899D01*
X-16839Y227810D01*
X-16894Y227720D01*
X-16945Y227628D01*
X-16993Y227533D01*
X-17037Y227437D01*
X-17077Y227340D01*
X-17114Y227241D01*
X-17147Y227141D01*
X-17176Y227039D01*
X-17201Y226937D01*
X-17223Y226834D01*
X-17240Y226730D01*
X-17254Y226625D01*
X-17264Y226520D01*
X-17270Y226415D01*
X-17272Y226309D01*
X-17272Y223486D01*
X-7112Y223486D01*
X-7112Y226309D01*
X-7114Y226402D01*
X-7120Y226495D01*
X-7129Y226588D01*
X-7143Y226681D01*
X-7160Y226772D01*
X-7181Y226863D01*
X-7206Y226953D01*
X-7234Y227042D01*
X-7266Y227130D01*
X-7302Y227216D01*
X-7341Y227301D01*
X-7384Y227384D01*
X-7430Y227465D01*
X-7480Y227544D01*
X-7532Y227621D01*
X-7588Y227696D01*
X-7647Y227768D01*
X-7709Y227838D01*
X-7773Y227906D01*
X-7841Y227970D01*
X-7911Y228032D01*
X-7983Y228091D01*
X-8058Y228147D01*
X-8135Y228199D01*
X-8214Y228249D01*
X-8295Y228295D01*
X-8378Y228338D01*
X-8463Y228377D01*
X-8549Y228413D01*
X-8637Y228445D01*
X-8726Y228473D01*
X-8816Y228498D01*
X-8907Y228519D01*
X-8998Y228536D01*
X-9091Y228550D01*
X-9184Y228559D01*
X-9277Y228565D01*
X-9370Y228567D01*
X-9463Y228565D01*
X-9556Y228559D01*
X-9649Y228550D01*
X-9742Y228536D01*
X-9833Y228519D01*
X-9924Y228498D01*
X-10014Y228473D01*
X-10103Y228445D01*
X-10191Y228413D01*
X-10277Y228377D01*
X-10362Y228338D01*
X-10445Y228295D01*
X-10526Y228249D01*
X-10605Y228199D01*
X-10682Y228147D01*
X-10757Y228091D01*
X-10829Y228032D01*
X-10899Y227970D01*
X-10967Y227906D01*
X-11031Y227838D01*
X-11093Y227768D01*
X-11152Y227696D01*
X-11208Y227621D01*
X-11260Y227544D01*
X-11310Y227465D01*
X-11356Y227384D01*
X-11399Y227301D01*
X-11438Y227216D01*
X-11474Y227130D01*
X-11506Y227042D01*
X-11534Y226953D01*
X-11559Y226863D01*
X-11580Y226772D01*
X-11597Y226681D01*
X-11611Y226588D01*
X-11620Y226495D01*
X-11626Y226402D01*
X-11628Y226309D01*
X-16708Y233350D02*
X-17272Y233350D01*
X-16708Y233350D02*
X-16708Y233914D01*
X-17272Y233914D01*
X-17272Y233350D01*
X-17272Y239390D02*
X-7112Y239390D01*
X-12756Y242776D01*
X-7112Y246163D01*
X-17272Y246163D01*
X-17272Y252908D02*
X-7112Y252908D01*
X-7112Y255730D01*
X-7114Y255836D01*
X-7120Y255941D01*
X-7130Y256046D01*
X-7144Y256151D01*
X-7161Y256255D01*
X-7183Y256358D01*
X-7208Y256460D01*
X-7237Y256562D01*
X-7270Y256662D01*
X-7307Y256761D01*
X-7347Y256859D01*
X-7391Y256954D01*
X-7439Y257049D01*
X-7490Y257141D01*
X-7545Y257231D01*
X-7602Y257320D01*
X-7663Y257406D01*
X-7728Y257489D01*
X-7795Y257571D01*
X-7865Y257649D01*
X-7939Y257725D01*
X-8015Y257799D01*
X-8093Y257869D01*
X-8175Y257936D01*
X-8258Y258001D01*
X-8344Y258062D01*
X-8433Y258119D01*
X-8523Y258174D01*
X-8615Y258225D01*
X-8710Y258273D01*
X-8806Y258317D01*
X-8903Y258357D01*
X-9002Y258394D01*
X-9102Y258427D01*
X-9204Y258456D01*
X-9306Y258481D01*
X-9409Y258503D01*
X-9513Y258520D01*
X-9618Y258534D01*
X-9723Y258544D01*
X-9829Y258550D01*
X-9934Y258552D01*
X-14450Y258552D01*
X-14556Y258550D01*
X-14661Y258544D01*
X-14766Y258534D01*
X-14871Y258520D01*
X-14975Y258503D01*
X-15078Y258481D01*
X-15180Y258456D01*
X-15282Y258427D01*
X-15382Y258394D01*
X-15481Y258357D01*
X-15578Y258317D01*
X-15674Y258273D01*
X-15769Y258225D01*
X-15861Y258174D01*
X-15951Y258119D01*
X-16040Y258062D01*
X-16126Y258001D01*
X-16209Y257936D01*
X-16291Y257869D01*
X-16369Y257799D01*
X-16445Y257725D01*
X-16519Y257649D01*
X-16589Y257571D01*
X-16656Y257489D01*
X-16721Y257406D01*
X-16782Y257320D01*
X-16839Y257231D01*
X-16894Y257141D01*
X-16945Y257049D01*
X-16993Y256954D01*
X-17037Y256858D01*
X-17077Y256761D01*
X-17114Y256662D01*
X-17147Y256562D01*
X-17176Y256460D01*
X-17201Y256358D01*
X-17223Y256255D01*
X-17240Y256151D01*
X-17254Y256046D01*
X-17264Y255941D01*
X-17270Y255836D01*
X-17272Y255730D01*
X-17272Y252908D01*
X-17272Y265396D02*
X-7112Y265396D01*
X-7112Y268219D01*
X-7114Y268325D01*
X-7120Y268430D01*
X-7130Y268535D01*
X-7144Y268640D01*
X-7161Y268744D01*
X-7183Y268847D01*
X-7208Y268949D01*
X-7237Y269051D01*
X-7270Y269151D01*
X-7307Y269250D01*
X-7347Y269347D01*
X-7391Y269443D01*
X-7439Y269538D01*
X-7490Y269630D01*
X-7545Y269720D01*
X-7602Y269809D01*
X-7663Y269895D01*
X-7728Y269978D01*
X-7795Y270060D01*
X-7865Y270138D01*
X-7939Y270214D01*
X-8015Y270288D01*
X-8093Y270358D01*
X-8175Y270425D01*
X-8258Y270490D01*
X-8344Y270551D01*
X-8433Y270608D01*
X-8523Y270663D01*
X-8615Y270714D01*
X-8710Y270762D01*
X-8806Y270806D01*
X-8903Y270846D01*
X-9002Y270883D01*
X-9102Y270916D01*
X-9204Y270945D01*
X-9306Y270970D01*
X-9409Y270992D01*
X-9513Y271009D01*
X-9618Y271023D01*
X-9723Y271033D01*
X-9828Y271039D01*
X-9934Y271041D01*
X-10040Y271039D01*
X-10145Y271033D01*
X-10250Y271023D01*
X-10355Y271009D01*
X-10459Y270992D01*
X-10562Y270970D01*
X-10664Y270945D01*
X-10766Y270916D01*
X-10866Y270883D01*
X-10965Y270846D01*
X-11062Y270806D01*
X-11158Y270762D01*
X-11253Y270714D01*
X-11345Y270663D01*
X-11435Y270608D01*
X-11524Y270551D01*
X-11610Y270490D01*
X-11693Y270425D01*
X-11775Y270358D01*
X-11853Y270288D01*
X-11929Y270214D01*
X-12003Y270138D01*
X-12073Y270060D01*
X-12140Y269978D01*
X-12205Y269895D01*
X-12266Y269809D01*
X-12323Y269720D01*
X-12378Y269630D01*
X-12429Y269538D01*
X-12477Y269443D01*
X-12521Y269347D01*
X-12561Y269250D01*
X-12598Y269151D01*
X-12631Y269051D01*
X-12660Y268949D01*
X-12685Y268847D01*
X-12707Y268744D01*
X-12724Y268640D01*
X-12738Y268535D01*
X-12748Y268430D01*
X-12754Y268325D01*
X-12756Y268219D01*
X-12756Y265396D01*
X34516Y205696D02*
X42418Y205696D01*
X34516Y205696D02*
X34423Y205694D01*
X34330Y205688D01*
X34237Y205679D01*
X34144Y205665D01*
X34053Y205648D01*
X33962Y205627D01*
X33872Y205602D01*
X33783Y205574D01*
X33695Y205542D01*
X33609Y205506D01*
X33524Y205467D01*
X33441Y205424D01*
X33360Y205378D01*
X33281Y205328D01*
X33204Y205276D01*
X33129Y205220D01*
X33057Y205161D01*
X32987Y205099D01*
X32919Y205035D01*
X32855Y204967D01*
X32793Y204897D01*
X32734Y204825D01*
X32678Y204750D01*
X32626Y204673D01*
X32576Y204594D01*
X32530Y204513D01*
X32487Y204430D01*
X32448Y204345D01*
X32412Y204259D01*
X32380Y204171D01*
X32352Y204082D01*
X32327Y203992D01*
X32306Y203901D01*
X32289Y203810D01*
X32275Y203717D01*
X32266Y203624D01*
X32260Y203531D01*
X32258Y203438D01*
X32258Y202309D01*
X32258Y212459D02*
X42418Y212459D01*
X42418Y215281D01*
X42416Y215387D01*
X42410Y215492D01*
X42400Y215597D01*
X42386Y215702D01*
X42369Y215806D01*
X42347Y215909D01*
X42322Y216011D01*
X42293Y216113D01*
X42260Y216213D01*
X42223Y216312D01*
X42183Y216409D01*
X42139Y216505D01*
X42091Y216600D01*
X42040Y216692D01*
X41985Y216782D01*
X41928Y216871D01*
X41867Y216957D01*
X41802Y217040D01*
X41735Y217122D01*
X41665Y217200D01*
X41591Y217276D01*
X41515Y217350D01*
X41437Y217420D01*
X41355Y217487D01*
X41272Y217552D01*
X41186Y217613D01*
X41097Y217670D01*
X41007Y217725D01*
X40915Y217776D01*
X40820Y217824D01*
X40724Y217868D01*
X40627Y217908D01*
X40528Y217945D01*
X40428Y217978D01*
X40326Y218007D01*
X40224Y218032D01*
X40121Y218054D01*
X40017Y218071D01*
X39912Y218085D01*
X39807Y218095D01*
X39702Y218101D01*
X39596Y218103D01*
X39490Y218101D01*
X39385Y218095D01*
X39280Y218085D01*
X39175Y218071D01*
X39071Y218054D01*
X38968Y218032D01*
X38866Y218007D01*
X38764Y217978D01*
X38664Y217945D01*
X38565Y217908D01*
X38468Y217868D01*
X38372Y217824D01*
X38277Y217776D01*
X38185Y217725D01*
X38095Y217670D01*
X38006Y217613D01*
X37920Y217552D01*
X37837Y217487D01*
X37755Y217420D01*
X37677Y217350D01*
X37601Y217276D01*
X37527Y217200D01*
X37457Y217122D01*
X37390Y217040D01*
X37325Y216957D01*
X37264Y216871D01*
X37207Y216782D01*
X37152Y216692D01*
X37101Y216600D01*
X37053Y216505D01*
X37009Y216409D01*
X36969Y216312D01*
X36932Y216213D01*
X36899Y216113D01*
X36870Y216011D01*
X36845Y215909D01*
X36823Y215806D01*
X36806Y215702D01*
X36792Y215597D01*
X36782Y215492D01*
X36776Y215387D01*
X36774Y215281D01*
X36774Y212459D01*
X32822Y222322D02*
X32258Y222322D01*
X32822Y222322D02*
X32822Y222887D01*
X32258Y222887D01*
X32258Y222322D01*
X35080Y228164D02*
X42418Y228164D01*
X35080Y228164D02*
X34974Y228166D01*
X34869Y228172D01*
X34764Y228182D01*
X34659Y228196D01*
X34555Y228213D01*
X34452Y228235D01*
X34350Y228260D01*
X34248Y228289D01*
X34148Y228322D01*
X34049Y228359D01*
X33952Y228399D01*
X33856Y228443D01*
X33761Y228491D01*
X33669Y228542D01*
X33579Y228597D01*
X33490Y228654D01*
X33404Y228715D01*
X33321Y228780D01*
X33239Y228847D01*
X33161Y228917D01*
X33085Y228991D01*
X33011Y229067D01*
X32941Y229145D01*
X32874Y229227D01*
X32809Y229310D01*
X32748Y229396D01*
X32691Y229485D01*
X32636Y229575D01*
X32585Y229667D01*
X32537Y229762D01*
X32493Y229858D01*
X32453Y229955D01*
X32416Y230054D01*
X32383Y230154D01*
X32354Y230256D01*
X32329Y230358D01*
X32307Y230461D01*
X32290Y230565D01*
X32276Y230670D01*
X32266Y230775D01*
X32260Y230880D01*
X32258Y230986D01*
X32260Y231092D01*
X32266Y231197D01*
X32276Y231302D01*
X32290Y231407D01*
X32307Y231511D01*
X32329Y231614D01*
X32354Y231716D01*
X32383Y231818D01*
X32416Y231918D01*
X32453Y232017D01*
X32493Y232114D01*
X32537Y232210D01*
X32585Y232305D01*
X32636Y232397D01*
X32691Y232487D01*
X32748Y232576D01*
X32809Y232662D01*
X32874Y232745D01*
X32941Y232827D01*
X33011Y232905D01*
X33085Y232981D01*
X33161Y233055D01*
X33239Y233125D01*
X33321Y233192D01*
X33404Y233257D01*
X33490Y233318D01*
X33579Y233375D01*
X33669Y233430D01*
X33761Y233481D01*
X33856Y233529D01*
X33952Y233573D01*
X34049Y233613D01*
X34148Y233650D01*
X34248Y233683D01*
X34350Y233712D01*
X34452Y233737D01*
X34555Y233759D01*
X34659Y233776D01*
X34764Y233790D01*
X34869Y233800D01*
X34974Y233806D01*
X35080Y233808D01*
X35080Y233809D02*
X42418Y233809D01*
X32258Y242981D02*
X32260Y243074D01*
X32266Y243167D01*
X32275Y243260D01*
X32289Y243353D01*
X32306Y243444D01*
X32327Y243535D01*
X32352Y243625D01*
X32380Y243714D01*
X32412Y243802D01*
X32448Y243888D01*
X32487Y243973D01*
X32530Y244056D01*
X32576Y244137D01*
X32626Y244216D01*
X32678Y244293D01*
X32734Y244368D01*
X32793Y244440D01*
X32855Y244510D01*
X32919Y244578D01*
X32987Y244642D01*
X33057Y244704D01*
X33129Y244763D01*
X33204Y244819D01*
X33281Y244871D01*
X33360Y244921D01*
X33441Y244967D01*
X33524Y245010D01*
X33609Y245049D01*
X33695Y245085D01*
X33783Y245117D01*
X33872Y245145D01*
X33962Y245170D01*
X34053Y245191D01*
X34144Y245208D01*
X34237Y245222D01*
X34330Y245231D01*
X34423Y245237D01*
X34516Y245239D01*
X32258Y242981D02*
X32260Y242847D01*
X32266Y242712D01*
X32275Y242578D01*
X32288Y242444D01*
X32305Y242311D01*
X32326Y242178D01*
X32351Y242046D01*
X32379Y241914D01*
X32411Y241783D01*
X32446Y241654D01*
X32486Y241525D01*
X32529Y241398D01*
X32575Y241271D01*
X32625Y241146D01*
X32678Y241023D01*
X32735Y240901D01*
X32796Y240781D01*
X32859Y240662D01*
X32926Y240546D01*
X32997Y240431D01*
X33070Y240319D01*
X33147Y240208D01*
X33227Y240100D01*
X33309Y239994D01*
X33395Y239890D01*
X33484Y239789D01*
X33575Y239690D01*
X33669Y239594D01*
X40160Y239876D02*
X40253Y239878D01*
X40346Y239884D01*
X40439Y239893D01*
X40532Y239907D01*
X40623Y239924D01*
X40714Y239945D01*
X40804Y239970D01*
X40893Y239998D01*
X40981Y240030D01*
X41067Y240066D01*
X41152Y240105D01*
X41235Y240148D01*
X41316Y240194D01*
X41395Y240244D01*
X41472Y240296D01*
X41547Y240352D01*
X41619Y240411D01*
X41689Y240473D01*
X41757Y240537D01*
X41821Y240605D01*
X41883Y240675D01*
X41942Y240747D01*
X41998Y240822D01*
X42050Y240899D01*
X42100Y240978D01*
X42146Y241059D01*
X42189Y241142D01*
X42228Y241227D01*
X42264Y241313D01*
X42296Y241401D01*
X42324Y241490D01*
X42349Y241580D01*
X42370Y241671D01*
X42387Y241762D01*
X42401Y241855D01*
X42410Y241948D01*
X42416Y242041D01*
X42418Y242134D01*
X42416Y242264D01*
X42410Y242393D01*
X42400Y242523D01*
X42386Y242652D01*
X42368Y242780D01*
X42347Y242908D01*
X42321Y243035D01*
X42291Y243161D01*
X42258Y243287D01*
X42221Y243411D01*
X42180Y243534D01*
X42135Y243656D01*
X42087Y243776D01*
X42034Y243895D01*
X41979Y244012D01*
X41919Y244127D01*
X41857Y244241D01*
X41790Y244352D01*
X41721Y244462D01*
X41648Y244569D01*
X41571Y244674D01*
X38185Y241006D02*
X38235Y240925D01*
X38288Y240846D01*
X38344Y240769D01*
X38404Y240695D01*
X38467Y240624D01*
X38533Y240555D01*
X38601Y240488D01*
X38672Y240425D01*
X38746Y240365D01*
X38822Y240308D01*
X38901Y240254D01*
X38981Y240203D01*
X39064Y240156D01*
X39149Y240112D01*
X39235Y240072D01*
X39323Y240035D01*
X39412Y240002D01*
X39503Y239973D01*
X39595Y239948D01*
X39687Y239926D01*
X39781Y239909D01*
X39875Y239895D01*
X39970Y239885D01*
X40065Y239879D01*
X40160Y239877D01*
X36492Y244110D02*
X36441Y244191D01*
X36388Y244270D01*
X36332Y244347D01*
X36272Y244421D01*
X36209Y244492D01*
X36143Y244561D01*
X36075Y244628D01*
X36004Y244691D01*
X35930Y244751D01*
X35854Y244808D01*
X35775Y244862D01*
X35695Y244913D01*
X35612Y244960D01*
X35527Y245004D01*
X35441Y245044D01*
X35353Y245081D01*
X35264Y245114D01*
X35173Y245143D01*
X35082Y245168D01*
X34989Y245190D01*
X34895Y245207D01*
X34801Y245221D01*
X34706Y245231D01*
X34611Y245237D01*
X34516Y245239D01*
X36491Y244110D02*
X38185Y241005D01*
X37902Y251321D02*
X37902Y254143D01*
X37900Y254249D01*
X37894Y254354D01*
X37884Y254459D01*
X37870Y254564D01*
X37853Y254668D01*
X37831Y254771D01*
X37806Y254873D01*
X37777Y254975D01*
X37744Y255075D01*
X37707Y255174D01*
X37667Y255271D01*
X37623Y255367D01*
X37575Y255462D01*
X37524Y255554D01*
X37469Y255644D01*
X37412Y255733D01*
X37351Y255819D01*
X37286Y255902D01*
X37219Y255984D01*
X37149Y256062D01*
X37075Y256138D01*
X36999Y256212D01*
X36921Y256282D01*
X36839Y256349D01*
X36756Y256414D01*
X36670Y256475D01*
X36581Y256532D01*
X36491Y256587D01*
X36399Y256638D01*
X36304Y256686D01*
X36208Y256730D01*
X36111Y256770D01*
X36012Y256807D01*
X35912Y256840D01*
X35810Y256869D01*
X35708Y256894D01*
X35605Y256916D01*
X35501Y256933D01*
X35396Y256947D01*
X35291Y256957D01*
X35186Y256963D01*
X35080Y256965D01*
X34974Y256963D01*
X34869Y256957D01*
X34764Y256947D01*
X34659Y256933D01*
X34555Y256916D01*
X34452Y256894D01*
X34350Y256869D01*
X34248Y256840D01*
X34148Y256807D01*
X34049Y256770D01*
X33952Y256730D01*
X33856Y256686D01*
X33761Y256638D01*
X33669Y256587D01*
X33579Y256532D01*
X33490Y256475D01*
X33404Y256414D01*
X33321Y256349D01*
X33239Y256282D01*
X33161Y256212D01*
X33085Y256138D01*
X33011Y256062D01*
X32941Y255984D01*
X32874Y255902D01*
X32809Y255819D01*
X32748Y255733D01*
X32691Y255644D01*
X32636Y255554D01*
X32585Y255462D01*
X32537Y255367D01*
X32493Y255271D01*
X32453Y255174D01*
X32416Y255075D01*
X32383Y254975D01*
X32354Y254873D01*
X32329Y254771D01*
X32307Y254668D01*
X32290Y254564D01*
X32276Y254459D01*
X32266Y254354D01*
X32260Y254249D01*
X32258Y254143D01*
X32258Y251321D01*
X42418Y251321D01*
X42418Y254143D01*
X42416Y254236D01*
X42410Y254329D01*
X42401Y254422D01*
X42387Y254515D01*
X42370Y254606D01*
X42349Y254697D01*
X42324Y254787D01*
X42296Y254876D01*
X42264Y254964D01*
X42228Y255050D01*
X42189Y255135D01*
X42146Y255218D01*
X42100Y255299D01*
X42050Y255378D01*
X41998Y255455D01*
X41942Y255530D01*
X41883Y255602D01*
X41821Y255672D01*
X41757Y255740D01*
X41689Y255804D01*
X41619Y255866D01*
X41547Y255925D01*
X41472Y255981D01*
X41395Y256033D01*
X41316Y256083D01*
X41235Y256129D01*
X41152Y256172D01*
X41067Y256211D01*
X40981Y256247D01*
X40893Y256279D01*
X40804Y256307D01*
X40714Y256332D01*
X40623Y256353D01*
X40532Y256370D01*
X40439Y256384D01*
X40346Y256393D01*
X40253Y256399D01*
X40160Y256401D01*
X40067Y256399D01*
X39974Y256393D01*
X39881Y256384D01*
X39788Y256370D01*
X39697Y256353D01*
X39606Y256332D01*
X39516Y256307D01*
X39427Y256279D01*
X39339Y256247D01*
X39253Y256211D01*
X39168Y256172D01*
X39085Y256129D01*
X39004Y256083D01*
X38925Y256033D01*
X38848Y255981D01*
X38773Y255925D01*
X38701Y255866D01*
X38631Y255804D01*
X38563Y255740D01*
X38499Y255672D01*
X38437Y255602D01*
X38378Y255530D01*
X38322Y255455D01*
X38270Y255378D01*
X38220Y255299D01*
X38174Y255218D01*
X38131Y255135D01*
X38092Y255050D01*
X38056Y254964D01*
X38024Y254876D01*
X37996Y254787D01*
X37971Y254697D01*
X37950Y254606D01*
X37933Y254515D01*
X37919Y254422D01*
X37910Y254329D01*
X37904Y254236D01*
X37902Y254143D01*
X32822Y261184D02*
X32258Y261184D01*
X32822Y261184D02*
X32822Y261749D01*
X32258Y261749D01*
X32258Y261184D01*
X32258Y267224D02*
X42418Y267224D01*
X36774Y270610D01*
X42418Y273997D01*
X32258Y273997D01*
X32258Y280742D02*
X42418Y280742D01*
X42418Y283564D01*
X42416Y283670D01*
X42410Y283775D01*
X42400Y283880D01*
X42386Y283985D01*
X42369Y284089D01*
X42347Y284192D01*
X42322Y284294D01*
X42293Y284396D01*
X42260Y284496D01*
X42223Y284595D01*
X42183Y284693D01*
X42139Y284788D01*
X42091Y284883D01*
X42040Y284975D01*
X41985Y285065D01*
X41928Y285154D01*
X41867Y285240D01*
X41802Y285323D01*
X41735Y285405D01*
X41665Y285483D01*
X41591Y285559D01*
X41515Y285633D01*
X41437Y285703D01*
X41355Y285770D01*
X41272Y285835D01*
X41186Y285896D01*
X41097Y285953D01*
X41007Y286008D01*
X40915Y286059D01*
X40820Y286107D01*
X40724Y286151D01*
X40627Y286191D01*
X40528Y286228D01*
X40428Y286261D01*
X40326Y286290D01*
X40224Y286315D01*
X40121Y286337D01*
X40017Y286354D01*
X39912Y286368D01*
X39807Y286378D01*
X39701Y286384D01*
X39596Y286386D01*
X39596Y286387D02*
X35080Y286387D01*
X35080Y286386D02*
X34974Y286384D01*
X34869Y286378D01*
X34764Y286368D01*
X34659Y286354D01*
X34555Y286337D01*
X34452Y286315D01*
X34350Y286290D01*
X34248Y286261D01*
X34148Y286228D01*
X34049Y286191D01*
X33952Y286151D01*
X33856Y286107D01*
X33761Y286059D01*
X33669Y286008D01*
X33579Y285953D01*
X33490Y285896D01*
X33404Y285835D01*
X33321Y285770D01*
X33239Y285703D01*
X33161Y285633D01*
X33085Y285559D01*
X33011Y285483D01*
X32941Y285405D01*
X32874Y285324D01*
X32809Y285240D01*
X32748Y285154D01*
X32691Y285065D01*
X32636Y284975D01*
X32585Y284883D01*
X32537Y284788D01*
X32493Y284693D01*
X32453Y284595D01*
X32416Y284496D01*
X32383Y284396D01*
X32354Y284294D01*
X32329Y284192D01*
X32307Y284089D01*
X32290Y283985D01*
X32276Y283880D01*
X32266Y283775D01*
X32260Y283670D01*
X32258Y283564D01*
X32258Y280742D01*
X32258Y292934D02*
X42418Y292934D01*
X32258Y298579D01*
X42418Y298579D01*
X-7112Y77172D02*
X-15014Y77172D01*
X-15107Y77170D01*
X-15200Y77164D01*
X-15293Y77155D01*
X-15386Y77141D01*
X-15477Y77124D01*
X-15568Y77103D01*
X-15658Y77078D01*
X-15747Y77050D01*
X-15835Y77018D01*
X-15921Y76982D01*
X-16006Y76943D01*
X-16089Y76900D01*
X-16170Y76854D01*
X-16249Y76804D01*
X-16326Y76752D01*
X-16401Y76696D01*
X-16473Y76637D01*
X-16543Y76575D01*
X-16611Y76511D01*
X-16675Y76443D01*
X-16737Y76373D01*
X-16796Y76301D01*
X-16852Y76226D01*
X-16904Y76149D01*
X-16954Y76070D01*
X-17000Y75989D01*
X-17043Y75906D01*
X-17082Y75821D01*
X-17118Y75735D01*
X-17150Y75647D01*
X-17178Y75558D01*
X-17203Y75468D01*
X-17224Y75377D01*
X-17241Y75286D01*
X-17255Y75193D01*
X-17264Y75100D01*
X-17270Y75007D01*
X-17272Y74914D01*
X-17272Y73785D01*
X-17272Y83935D02*
X-7112Y83935D01*
X-7112Y86757D01*
X-7114Y86863D01*
X-7120Y86968D01*
X-7130Y87073D01*
X-7144Y87178D01*
X-7161Y87282D01*
X-7183Y87385D01*
X-7208Y87487D01*
X-7237Y87589D01*
X-7270Y87689D01*
X-7307Y87788D01*
X-7347Y87885D01*
X-7391Y87981D01*
X-7439Y88076D01*
X-7490Y88168D01*
X-7545Y88258D01*
X-7602Y88347D01*
X-7663Y88433D01*
X-7728Y88516D01*
X-7795Y88598D01*
X-7865Y88676D01*
X-7939Y88752D01*
X-8015Y88826D01*
X-8093Y88896D01*
X-8175Y88963D01*
X-8258Y89028D01*
X-8344Y89089D01*
X-8433Y89146D01*
X-8523Y89201D01*
X-8615Y89252D01*
X-8710Y89300D01*
X-8806Y89344D01*
X-8903Y89384D01*
X-9002Y89421D01*
X-9102Y89454D01*
X-9204Y89483D01*
X-9306Y89508D01*
X-9409Y89530D01*
X-9513Y89547D01*
X-9618Y89561D01*
X-9723Y89571D01*
X-9828Y89577D01*
X-9934Y89579D01*
X-10040Y89577D01*
X-10145Y89571D01*
X-10250Y89561D01*
X-10355Y89547D01*
X-10459Y89530D01*
X-10562Y89508D01*
X-10664Y89483D01*
X-10766Y89454D01*
X-10866Y89421D01*
X-10965Y89384D01*
X-11062Y89344D01*
X-11158Y89300D01*
X-11253Y89252D01*
X-11345Y89201D01*
X-11435Y89146D01*
X-11524Y89089D01*
X-11610Y89028D01*
X-11693Y88963D01*
X-11775Y88896D01*
X-11853Y88826D01*
X-11929Y88752D01*
X-12003Y88676D01*
X-12073Y88598D01*
X-12140Y88516D01*
X-12205Y88433D01*
X-12266Y88347D01*
X-12323Y88258D01*
X-12378Y88168D01*
X-12429Y88076D01*
X-12477Y87981D01*
X-12521Y87885D01*
X-12561Y87788D01*
X-12598Y87689D01*
X-12631Y87589D01*
X-12660Y87487D01*
X-12685Y87385D01*
X-12707Y87282D01*
X-12724Y87178D01*
X-12738Y87073D01*
X-12748Y86968D01*
X-12754Y86863D01*
X-12756Y86757D01*
X-12756Y83935D01*
X-16708Y93798D02*
X-17272Y93798D01*
X-16708Y93798D02*
X-16708Y94363D01*
X-17272Y94363D01*
X-17272Y93798D01*
X-14450Y99640D02*
X-7112Y99640D01*
X-14450Y99640D02*
X-14556Y99642D01*
X-14661Y99648D01*
X-14766Y99658D01*
X-14871Y99672D01*
X-14975Y99689D01*
X-15078Y99711D01*
X-15180Y99736D01*
X-15282Y99765D01*
X-15382Y99798D01*
X-15481Y99835D01*
X-15578Y99875D01*
X-15674Y99919D01*
X-15769Y99967D01*
X-15861Y100018D01*
X-15951Y100073D01*
X-16040Y100130D01*
X-16126Y100191D01*
X-16209Y100256D01*
X-16291Y100323D01*
X-16369Y100393D01*
X-16445Y100467D01*
X-16519Y100543D01*
X-16589Y100621D01*
X-16656Y100703D01*
X-16721Y100786D01*
X-16782Y100872D01*
X-16839Y100961D01*
X-16894Y101051D01*
X-16945Y101143D01*
X-16993Y101238D01*
X-17037Y101334D01*
X-17077Y101431D01*
X-17114Y101530D01*
X-17147Y101630D01*
X-17176Y101732D01*
X-17201Y101834D01*
X-17223Y101937D01*
X-17240Y102041D01*
X-17254Y102146D01*
X-17264Y102251D01*
X-17270Y102356D01*
X-17272Y102462D01*
X-17270Y102568D01*
X-17264Y102673D01*
X-17254Y102778D01*
X-17240Y102883D01*
X-17223Y102987D01*
X-17201Y103090D01*
X-17176Y103192D01*
X-17147Y103294D01*
X-17114Y103394D01*
X-17077Y103493D01*
X-17037Y103590D01*
X-16993Y103686D01*
X-16945Y103781D01*
X-16894Y103873D01*
X-16839Y103963D01*
X-16782Y104052D01*
X-16721Y104138D01*
X-16656Y104221D01*
X-16589Y104303D01*
X-16519Y104381D01*
X-16445Y104457D01*
X-16369Y104531D01*
X-16291Y104601D01*
X-16209Y104668D01*
X-16126Y104733D01*
X-16040Y104794D01*
X-15951Y104851D01*
X-15861Y104906D01*
X-15769Y104957D01*
X-15674Y105005D01*
X-15578Y105049D01*
X-15481Y105089D01*
X-15382Y105126D01*
X-15282Y105159D01*
X-15180Y105188D01*
X-15078Y105213D01*
X-14975Y105235D01*
X-14871Y105252D01*
X-14766Y105266D01*
X-14661Y105276D01*
X-14556Y105282D01*
X-14450Y105284D01*
X-14450Y105285D02*
X-7112Y105285D01*
X-17272Y114457D02*
X-17270Y114550D01*
X-17264Y114643D01*
X-17255Y114736D01*
X-17241Y114829D01*
X-17224Y114920D01*
X-17203Y115011D01*
X-17178Y115101D01*
X-17150Y115190D01*
X-17118Y115278D01*
X-17082Y115364D01*
X-17043Y115449D01*
X-17000Y115532D01*
X-16954Y115613D01*
X-16904Y115692D01*
X-16852Y115769D01*
X-16796Y115844D01*
X-16737Y115916D01*
X-16675Y115986D01*
X-16611Y116054D01*
X-16543Y116118D01*
X-16473Y116180D01*
X-16401Y116239D01*
X-16326Y116295D01*
X-16249Y116347D01*
X-16170Y116397D01*
X-16089Y116443D01*
X-16006Y116486D01*
X-15921Y116525D01*
X-15835Y116561D01*
X-15747Y116593D01*
X-15658Y116621D01*
X-15568Y116646D01*
X-15477Y116667D01*
X-15386Y116684D01*
X-15293Y116698D01*
X-15200Y116707D01*
X-15107Y116713D01*
X-15014Y116715D01*
X-17272Y114457D02*
X-17270Y114323D01*
X-17264Y114188D01*
X-17255Y114054D01*
X-17242Y113920D01*
X-17225Y113787D01*
X-17204Y113654D01*
X-17179Y113522D01*
X-17151Y113390D01*
X-17119Y113259D01*
X-17084Y113130D01*
X-17044Y113001D01*
X-17002Y112874D01*
X-16955Y112747D01*
X-16905Y112622D01*
X-16852Y112499D01*
X-16795Y112377D01*
X-16734Y112257D01*
X-16671Y112138D01*
X-16604Y112022D01*
X-16533Y111907D01*
X-16460Y111795D01*
X-16383Y111684D01*
X-16303Y111576D01*
X-16221Y111470D01*
X-16135Y111366D01*
X-16046Y111265D01*
X-15955Y111166D01*
X-15861Y111070D01*
X-9370Y111352D02*
X-9277Y111354D01*
X-9184Y111360D01*
X-9091Y111369D01*
X-8998Y111383D01*
X-8907Y111400D01*
X-8816Y111421D01*
X-8726Y111446D01*
X-8637Y111474D01*
X-8549Y111506D01*
X-8463Y111542D01*
X-8378Y111581D01*
X-8295Y111624D01*
X-8214Y111670D01*
X-8135Y111720D01*
X-8058Y111772D01*
X-7983Y111828D01*
X-7911Y111887D01*
X-7841Y111949D01*
X-7773Y112013D01*
X-7709Y112081D01*
X-7647Y112151D01*
X-7588Y112223D01*
X-7532Y112298D01*
X-7480Y112375D01*
X-7430Y112454D01*
X-7384Y112535D01*
X-7341Y112618D01*
X-7302Y112703D01*
X-7266Y112789D01*
X-7234Y112877D01*
X-7206Y112966D01*
X-7181Y113056D01*
X-7160Y113147D01*
X-7143Y113238D01*
X-7129Y113331D01*
X-7120Y113424D01*
X-7114Y113517D01*
X-7112Y113610D01*
X-7114Y113740D01*
X-7120Y113869D01*
X-7130Y113999D01*
X-7144Y114128D01*
X-7162Y114256D01*
X-7183Y114384D01*
X-7209Y114511D01*
X-7239Y114637D01*
X-7272Y114763D01*
X-7309Y114887D01*
X-7350Y115010D01*
X-7395Y115132D01*
X-7443Y115252D01*
X-7496Y115371D01*
X-7551Y115488D01*
X-7611Y115603D01*
X-7674Y115717D01*
X-7740Y115828D01*
X-7809Y115938D01*
X-7882Y116045D01*
X-7959Y116150D01*
X-11345Y112482D02*
X-11295Y112401D01*
X-11242Y112322D01*
X-11186Y112245D01*
X-11126Y112171D01*
X-11063Y112100D01*
X-10997Y112031D01*
X-10929Y111964D01*
X-10858Y111901D01*
X-10784Y111841D01*
X-10708Y111784D01*
X-10629Y111730D01*
X-10549Y111679D01*
X-10466Y111632D01*
X-10381Y111588D01*
X-10295Y111548D01*
X-10207Y111511D01*
X-10118Y111478D01*
X-10027Y111449D01*
X-9935Y111424D01*
X-9843Y111402D01*
X-9749Y111385D01*
X-9655Y111371D01*
X-9560Y111361D01*
X-9465Y111355D01*
X-9370Y111353D01*
X-13038Y115586D02*
X-13089Y115667D01*
X-13142Y115746D01*
X-13198Y115823D01*
X-13258Y115897D01*
X-13321Y115968D01*
X-13387Y116037D01*
X-13455Y116104D01*
X-13526Y116167D01*
X-13600Y116227D01*
X-13676Y116284D01*
X-13755Y116338D01*
X-13835Y116389D01*
X-13918Y116436D01*
X-14003Y116480D01*
X-14089Y116520D01*
X-14177Y116557D01*
X-14266Y116590D01*
X-14357Y116619D01*
X-14448Y116644D01*
X-14541Y116666D01*
X-14635Y116683D01*
X-14729Y116697D01*
X-14824Y116707D01*
X-14919Y116713D01*
X-15014Y116715D01*
X-13039Y115586D02*
X-11345Y112481D01*
X-11628Y122797D02*
X-11628Y125619D01*
X-11630Y125725D01*
X-11636Y125830D01*
X-11646Y125935D01*
X-11660Y126040D01*
X-11677Y126144D01*
X-11699Y126247D01*
X-11724Y126349D01*
X-11753Y126451D01*
X-11786Y126551D01*
X-11823Y126650D01*
X-11863Y126747D01*
X-11907Y126843D01*
X-11955Y126938D01*
X-12006Y127030D01*
X-12061Y127120D01*
X-12118Y127209D01*
X-12179Y127295D01*
X-12244Y127378D01*
X-12311Y127460D01*
X-12381Y127538D01*
X-12455Y127614D01*
X-12531Y127688D01*
X-12609Y127758D01*
X-12691Y127825D01*
X-12774Y127890D01*
X-12860Y127951D01*
X-12949Y128008D01*
X-13039Y128063D01*
X-13131Y128114D01*
X-13226Y128162D01*
X-13322Y128206D01*
X-13419Y128246D01*
X-13518Y128283D01*
X-13618Y128316D01*
X-13720Y128345D01*
X-13822Y128370D01*
X-13925Y128392D01*
X-14029Y128409D01*
X-14134Y128423D01*
X-14239Y128433D01*
X-14344Y128439D01*
X-14450Y128441D01*
X-14556Y128439D01*
X-14661Y128433D01*
X-14766Y128423D01*
X-14871Y128409D01*
X-14975Y128392D01*
X-15078Y128370D01*
X-15180Y128345D01*
X-15282Y128316D01*
X-15382Y128283D01*
X-15481Y128246D01*
X-15578Y128206D01*
X-15674Y128162D01*
X-15769Y128114D01*
X-15861Y128063D01*
X-15951Y128008D01*
X-16040Y127951D01*
X-16126Y127890D01*
X-16209Y127825D01*
X-16291Y127758D01*
X-16369Y127688D01*
X-16445Y127614D01*
X-16519Y127538D01*
X-16589Y127460D01*
X-16656Y127378D01*
X-16721Y127295D01*
X-16782Y127209D01*
X-16839Y127120D01*
X-16894Y127030D01*
X-16945Y126938D01*
X-16993Y126843D01*
X-17037Y126747D01*
X-17077Y126650D01*
X-17114Y126551D01*
X-17147Y126451D01*
X-17176Y126349D01*
X-17201Y126247D01*
X-17223Y126144D01*
X-17240Y126040D01*
X-17254Y125935D01*
X-17264Y125830D01*
X-17270Y125725D01*
X-17272Y125619D01*
X-17272Y122797D01*
X-7112Y122797D01*
X-7112Y125619D01*
X-7114Y125712D01*
X-7120Y125805D01*
X-7129Y125898D01*
X-7143Y125991D01*
X-7160Y126082D01*
X-7181Y126173D01*
X-7206Y126263D01*
X-7234Y126352D01*
X-7266Y126440D01*
X-7302Y126526D01*
X-7341Y126611D01*
X-7384Y126694D01*
X-7430Y126775D01*
X-7480Y126854D01*
X-7532Y126931D01*
X-7588Y127006D01*
X-7647Y127078D01*
X-7709Y127148D01*
X-7773Y127216D01*
X-7841Y127280D01*
X-7911Y127342D01*
X-7983Y127401D01*
X-8058Y127457D01*
X-8135Y127509D01*
X-8214Y127559D01*
X-8295Y127605D01*
X-8378Y127648D01*
X-8463Y127687D01*
X-8549Y127723D01*
X-8637Y127755D01*
X-8726Y127783D01*
X-8816Y127808D01*
X-8907Y127829D01*
X-8998Y127846D01*
X-9091Y127860D01*
X-9184Y127869D01*
X-9277Y127875D01*
X-9370Y127877D01*
X-9463Y127875D01*
X-9556Y127869D01*
X-9649Y127860D01*
X-9742Y127846D01*
X-9833Y127829D01*
X-9924Y127808D01*
X-10014Y127783D01*
X-10103Y127755D01*
X-10191Y127723D01*
X-10277Y127687D01*
X-10362Y127648D01*
X-10445Y127605D01*
X-10526Y127559D01*
X-10605Y127509D01*
X-10682Y127457D01*
X-10757Y127401D01*
X-10829Y127342D01*
X-10899Y127280D01*
X-10967Y127216D01*
X-11031Y127148D01*
X-11093Y127078D01*
X-11152Y127006D01*
X-11208Y126931D01*
X-11260Y126854D01*
X-11310Y126775D01*
X-11356Y126694D01*
X-11399Y126611D01*
X-11438Y126526D01*
X-11474Y126440D01*
X-11506Y126352D01*
X-11534Y126263D01*
X-11559Y126173D01*
X-11580Y126082D01*
X-11597Y125991D01*
X-11611Y125898D01*
X-11620Y125805D01*
X-11626Y125712D01*
X-11628Y125619D01*
X-16708Y132660D02*
X-17272Y132660D01*
X-16708Y132660D02*
X-16708Y133225D01*
X-17272Y133225D01*
X-17272Y132660D01*
X-17272Y138502D02*
X-7112Y138502D01*
X-7112Y141324D01*
X-7114Y141430D01*
X-7120Y141535D01*
X-7130Y141640D01*
X-7144Y141745D01*
X-7161Y141849D01*
X-7183Y141952D01*
X-7208Y142054D01*
X-7237Y142156D01*
X-7270Y142256D01*
X-7307Y142355D01*
X-7347Y142453D01*
X-7391Y142548D01*
X-7439Y142643D01*
X-7490Y142735D01*
X-7545Y142825D01*
X-7602Y142914D01*
X-7663Y143000D01*
X-7728Y143083D01*
X-7795Y143165D01*
X-7865Y143243D01*
X-7939Y143319D01*
X-8015Y143393D01*
X-8093Y143463D01*
X-8175Y143530D01*
X-8258Y143595D01*
X-8344Y143656D01*
X-8433Y143713D01*
X-8523Y143768D01*
X-8615Y143819D01*
X-8710Y143867D01*
X-8806Y143911D01*
X-8903Y143951D01*
X-9002Y143988D01*
X-9102Y144021D01*
X-9204Y144050D01*
X-9306Y144075D01*
X-9409Y144097D01*
X-9513Y144114D01*
X-9618Y144128D01*
X-9723Y144138D01*
X-9829Y144144D01*
X-9934Y144146D01*
X-9934Y144147D02*
X-14450Y144147D01*
X-14450Y144146D02*
X-14556Y144144D01*
X-14661Y144138D01*
X-14766Y144128D01*
X-14871Y144114D01*
X-14975Y144097D01*
X-15078Y144075D01*
X-15180Y144050D01*
X-15282Y144021D01*
X-15382Y143988D01*
X-15481Y143951D01*
X-15578Y143911D01*
X-15674Y143867D01*
X-15769Y143819D01*
X-15861Y143768D01*
X-15951Y143713D01*
X-16040Y143656D01*
X-16126Y143595D01*
X-16209Y143530D01*
X-16291Y143463D01*
X-16369Y143393D01*
X-16445Y143319D01*
X-16519Y143243D01*
X-16589Y143165D01*
X-16656Y143083D01*
X-16721Y143000D01*
X-16782Y142914D01*
X-16839Y142825D01*
X-16894Y142735D01*
X-16945Y142643D01*
X-16993Y142548D01*
X-17037Y142452D01*
X-17077Y142355D01*
X-17114Y142256D01*
X-17147Y142156D01*
X-17176Y142054D01*
X-17201Y141952D01*
X-17223Y141849D01*
X-17240Y141745D01*
X-17254Y141640D01*
X-17264Y141535D01*
X-17270Y141430D01*
X-17272Y141324D01*
X-17272Y138502D01*
X-17272Y150694D02*
X-7112Y150694D01*
X-7112Y153516D01*
X-7114Y153622D01*
X-7120Y153727D01*
X-7130Y153832D01*
X-7144Y153937D01*
X-7161Y154041D01*
X-7183Y154144D01*
X-7208Y154246D01*
X-7237Y154348D01*
X-7270Y154448D01*
X-7307Y154547D01*
X-7347Y154645D01*
X-7391Y154740D01*
X-7439Y154835D01*
X-7490Y154927D01*
X-7545Y155017D01*
X-7602Y155106D01*
X-7663Y155192D01*
X-7728Y155275D01*
X-7795Y155357D01*
X-7865Y155435D01*
X-7939Y155511D01*
X-8015Y155585D01*
X-8093Y155655D01*
X-8175Y155722D01*
X-8258Y155787D01*
X-8344Y155848D01*
X-8433Y155905D01*
X-8523Y155960D01*
X-8615Y156011D01*
X-8710Y156059D01*
X-8806Y156103D01*
X-8903Y156143D01*
X-9002Y156180D01*
X-9102Y156213D01*
X-9204Y156242D01*
X-9306Y156267D01*
X-9409Y156289D01*
X-9513Y156306D01*
X-9618Y156320D01*
X-9723Y156330D01*
X-9829Y156336D01*
X-9934Y156338D01*
X-9934Y156339D02*
X-14450Y156339D01*
X-14450Y156338D02*
X-14556Y156336D01*
X-14661Y156330D01*
X-14766Y156320D01*
X-14871Y156306D01*
X-14975Y156289D01*
X-15078Y156267D01*
X-15180Y156242D01*
X-15282Y156213D01*
X-15382Y156180D01*
X-15481Y156143D01*
X-15578Y156103D01*
X-15674Y156059D01*
X-15769Y156011D01*
X-15861Y155960D01*
X-15951Y155905D01*
X-16040Y155848D01*
X-16126Y155787D01*
X-16209Y155722D01*
X-16291Y155655D01*
X-16369Y155585D01*
X-16445Y155511D01*
X-16519Y155435D01*
X-16589Y155357D01*
X-16656Y155275D01*
X-16721Y155192D01*
X-16782Y155106D01*
X-16839Y155017D01*
X-16894Y154927D01*
X-16945Y154835D01*
X-16993Y154740D01*
X-17037Y154644D01*
X-17077Y154547D01*
X-17114Y154448D01*
X-17147Y154348D01*
X-17176Y154246D01*
X-17201Y154144D01*
X-17223Y154041D01*
X-17240Y153937D01*
X-17254Y153832D01*
X-17264Y153727D01*
X-17270Y153622D01*
X-17272Y153516D01*
X-17272Y150694D01*
X-17272Y162886D02*
X-7112Y162886D01*
X-17272Y168531D01*
X-7112Y168531D01*
X23086Y121474D02*
X30988Y121474D01*
X23086Y121474D02*
X22993Y121472D01*
X22900Y121466D01*
X22807Y121457D01*
X22714Y121443D01*
X22623Y121426D01*
X22532Y121405D01*
X22442Y121380D01*
X22353Y121352D01*
X22265Y121320D01*
X22179Y121284D01*
X22094Y121245D01*
X22011Y121202D01*
X21930Y121156D01*
X21851Y121106D01*
X21774Y121054D01*
X21699Y120998D01*
X21627Y120939D01*
X21557Y120877D01*
X21489Y120813D01*
X21425Y120745D01*
X21363Y120675D01*
X21304Y120603D01*
X21248Y120528D01*
X21196Y120451D01*
X21146Y120372D01*
X21100Y120291D01*
X21057Y120208D01*
X21018Y120123D01*
X20982Y120037D01*
X20950Y119949D01*
X20922Y119860D01*
X20897Y119770D01*
X20876Y119679D01*
X20859Y119588D01*
X20845Y119495D01*
X20836Y119402D01*
X20830Y119309D01*
X20828Y119216D01*
X20828Y118087D01*
X20828Y128236D02*
X30988Y128236D01*
X30988Y131059D01*
X30986Y131165D01*
X30980Y131270D01*
X30970Y131375D01*
X30956Y131480D01*
X30939Y131584D01*
X30917Y131687D01*
X30892Y131789D01*
X30863Y131891D01*
X30830Y131991D01*
X30793Y132090D01*
X30753Y132187D01*
X30709Y132283D01*
X30661Y132378D01*
X30610Y132470D01*
X30555Y132560D01*
X30498Y132649D01*
X30437Y132735D01*
X30372Y132818D01*
X30305Y132900D01*
X30235Y132978D01*
X30161Y133054D01*
X30085Y133128D01*
X30007Y133198D01*
X29925Y133265D01*
X29842Y133330D01*
X29756Y133391D01*
X29667Y133448D01*
X29577Y133503D01*
X29485Y133554D01*
X29390Y133602D01*
X29294Y133646D01*
X29197Y133686D01*
X29098Y133723D01*
X28998Y133756D01*
X28896Y133785D01*
X28794Y133810D01*
X28691Y133832D01*
X28587Y133849D01*
X28482Y133863D01*
X28377Y133873D01*
X28272Y133879D01*
X28166Y133881D01*
X28060Y133879D01*
X27955Y133873D01*
X27850Y133863D01*
X27745Y133849D01*
X27641Y133832D01*
X27538Y133810D01*
X27436Y133785D01*
X27334Y133756D01*
X27234Y133723D01*
X27135Y133686D01*
X27038Y133646D01*
X26942Y133602D01*
X26847Y133554D01*
X26755Y133503D01*
X26665Y133448D01*
X26576Y133391D01*
X26490Y133330D01*
X26407Y133265D01*
X26325Y133198D01*
X26247Y133128D01*
X26171Y133054D01*
X26097Y132978D01*
X26027Y132900D01*
X25960Y132818D01*
X25895Y132735D01*
X25834Y132649D01*
X25777Y132560D01*
X25722Y132470D01*
X25671Y132378D01*
X25623Y132283D01*
X25579Y132187D01*
X25539Y132090D01*
X25502Y131991D01*
X25469Y131891D01*
X25440Y131789D01*
X25415Y131687D01*
X25393Y131584D01*
X25376Y131480D01*
X25362Y131375D01*
X25352Y131270D01*
X25346Y131165D01*
X25344Y131059D01*
X25344Y128236D01*
X21392Y138100D02*
X20828Y138100D01*
X21392Y138100D02*
X21392Y138665D01*
X20828Y138665D01*
X20828Y138100D01*
X23650Y143942D02*
X30988Y143942D01*
X23650Y143942D02*
X23544Y143944D01*
X23439Y143950D01*
X23334Y143960D01*
X23229Y143974D01*
X23125Y143991D01*
X23022Y144013D01*
X22920Y144038D01*
X22818Y144067D01*
X22718Y144100D01*
X22619Y144137D01*
X22522Y144177D01*
X22426Y144221D01*
X22331Y144269D01*
X22239Y144320D01*
X22149Y144375D01*
X22060Y144432D01*
X21974Y144493D01*
X21891Y144558D01*
X21809Y144625D01*
X21731Y144695D01*
X21655Y144769D01*
X21581Y144845D01*
X21511Y144923D01*
X21444Y145005D01*
X21379Y145088D01*
X21318Y145174D01*
X21261Y145263D01*
X21206Y145353D01*
X21155Y145445D01*
X21107Y145540D01*
X21063Y145636D01*
X21023Y145733D01*
X20986Y145832D01*
X20953Y145932D01*
X20924Y146034D01*
X20899Y146136D01*
X20877Y146239D01*
X20860Y146343D01*
X20846Y146448D01*
X20836Y146553D01*
X20830Y146658D01*
X20828Y146764D01*
X20830Y146870D01*
X20836Y146975D01*
X20846Y147080D01*
X20860Y147185D01*
X20877Y147289D01*
X20899Y147392D01*
X20924Y147494D01*
X20953Y147596D01*
X20986Y147696D01*
X21023Y147795D01*
X21063Y147892D01*
X21107Y147988D01*
X21155Y148083D01*
X21206Y148175D01*
X21261Y148265D01*
X21318Y148354D01*
X21379Y148440D01*
X21444Y148523D01*
X21511Y148605D01*
X21581Y148683D01*
X21655Y148759D01*
X21731Y148833D01*
X21809Y148903D01*
X21891Y148970D01*
X21974Y149035D01*
X22060Y149096D01*
X22149Y149153D01*
X22239Y149208D01*
X22331Y149259D01*
X22426Y149307D01*
X22522Y149351D01*
X22619Y149391D01*
X22718Y149428D01*
X22818Y149461D01*
X22920Y149490D01*
X23022Y149515D01*
X23125Y149537D01*
X23229Y149554D01*
X23334Y149568D01*
X23439Y149578D01*
X23544Y149584D01*
X23650Y149586D01*
X23650Y149587D02*
X30988Y149587D01*
X20828Y158759D02*
X20830Y158852D01*
X20836Y158945D01*
X20845Y159038D01*
X20859Y159131D01*
X20876Y159222D01*
X20897Y159313D01*
X20922Y159403D01*
X20950Y159492D01*
X20982Y159580D01*
X21018Y159666D01*
X21057Y159751D01*
X21100Y159834D01*
X21146Y159915D01*
X21196Y159994D01*
X21248Y160071D01*
X21304Y160146D01*
X21363Y160218D01*
X21425Y160288D01*
X21489Y160356D01*
X21557Y160420D01*
X21627Y160482D01*
X21699Y160541D01*
X21774Y160597D01*
X21851Y160649D01*
X21930Y160699D01*
X22011Y160745D01*
X22094Y160788D01*
X22179Y160827D01*
X22265Y160863D01*
X22353Y160895D01*
X22442Y160923D01*
X22532Y160948D01*
X22623Y160969D01*
X22714Y160986D01*
X22807Y161000D01*
X22900Y161009D01*
X22993Y161015D01*
X23086Y161017D01*
X20828Y158759D02*
X20830Y158625D01*
X20836Y158490D01*
X20845Y158356D01*
X20858Y158222D01*
X20875Y158089D01*
X20896Y157956D01*
X20921Y157824D01*
X20949Y157692D01*
X20981Y157561D01*
X21016Y157432D01*
X21056Y157303D01*
X21099Y157176D01*
X21145Y157049D01*
X21195Y156924D01*
X21248Y156801D01*
X21305Y156679D01*
X21366Y156559D01*
X21429Y156440D01*
X21496Y156324D01*
X21567Y156209D01*
X21640Y156097D01*
X21717Y155986D01*
X21797Y155878D01*
X21879Y155772D01*
X21965Y155668D01*
X22054Y155567D01*
X22145Y155468D01*
X22239Y155372D01*
X28730Y155654D02*
X28823Y155656D01*
X28916Y155662D01*
X29009Y155671D01*
X29102Y155685D01*
X29193Y155702D01*
X29284Y155723D01*
X29374Y155748D01*
X29463Y155776D01*
X29551Y155808D01*
X29637Y155844D01*
X29722Y155883D01*
X29805Y155926D01*
X29886Y155972D01*
X29965Y156022D01*
X30042Y156074D01*
X30117Y156130D01*
X30189Y156189D01*
X30259Y156251D01*
X30327Y156315D01*
X30391Y156383D01*
X30453Y156453D01*
X30512Y156525D01*
X30568Y156600D01*
X30620Y156677D01*
X30670Y156756D01*
X30716Y156837D01*
X30759Y156920D01*
X30798Y157005D01*
X30834Y157091D01*
X30866Y157179D01*
X30894Y157268D01*
X30919Y157358D01*
X30940Y157449D01*
X30957Y157540D01*
X30971Y157633D01*
X30980Y157726D01*
X30986Y157819D01*
X30988Y157912D01*
X30986Y158042D01*
X30980Y158171D01*
X30970Y158301D01*
X30956Y158430D01*
X30938Y158558D01*
X30917Y158686D01*
X30891Y158813D01*
X30861Y158939D01*
X30828Y159065D01*
X30791Y159189D01*
X30750Y159312D01*
X30705Y159434D01*
X30657Y159554D01*
X30604Y159673D01*
X30549Y159790D01*
X30489Y159905D01*
X30427Y160019D01*
X30360Y160130D01*
X30291Y160240D01*
X30218Y160347D01*
X30141Y160452D01*
X26755Y156783D02*
X26805Y156702D01*
X26858Y156623D01*
X26914Y156546D01*
X26974Y156472D01*
X27037Y156401D01*
X27103Y156332D01*
X27171Y156265D01*
X27242Y156202D01*
X27316Y156142D01*
X27392Y156085D01*
X27471Y156031D01*
X27551Y155980D01*
X27634Y155933D01*
X27719Y155889D01*
X27805Y155849D01*
X27893Y155812D01*
X27982Y155779D01*
X28073Y155750D01*
X28165Y155725D01*
X28257Y155703D01*
X28351Y155686D01*
X28445Y155672D01*
X28540Y155662D01*
X28635Y155656D01*
X28730Y155654D01*
X25062Y159887D02*
X25011Y159968D01*
X24958Y160047D01*
X24902Y160124D01*
X24842Y160198D01*
X24779Y160269D01*
X24713Y160338D01*
X24645Y160405D01*
X24574Y160468D01*
X24500Y160528D01*
X24424Y160585D01*
X24345Y160639D01*
X24265Y160690D01*
X24182Y160737D01*
X24097Y160781D01*
X24011Y160821D01*
X23923Y160858D01*
X23834Y160891D01*
X23743Y160920D01*
X23652Y160945D01*
X23559Y160967D01*
X23465Y160984D01*
X23371Y160998D01*
X23276Y161008D01*
X23181Y161014D01*
X23086Y161016D01*
X25061Y159888D02*
X26755Y156783D01*
X26472Y167098D02*
X26472Y169921D01*
X26470Y170027D01*
X26464Y170132D01*
X26454Y170237D01*
X26440Y170342D01*
X26423Y170446D01*
X26401Y170549D01*
X26376Y170651D01*
X26347Y170753D01*
X26314Y170853D01*
X26277Y170952D01*
X26237Y171049D01*
X26193Y171145D01*
X26145Y171240D01*
X26094Y171332D01*
X26039Y171422D01*
X25982Y171511D01*
X25921Y171597D01*
X25856Y171680D01*
X25789Y171762D01*
X25719Y171840D01*
X25645Y171916D01*
X25569Y171990D01*
X25491Y172060D01*
X25409Y172127D01*
X25326Y172192D01*
X25240Y172253D01*
X25151Y172310D01*
X25061Y172365D01*
X24969Y172416D01*
X24874Y172464D01*
X24778Y172508D01*
X24681Y172548D01*
X24582Y172585D01*
X24482Y172618D01*
X24380Y172647D01*
X24278Y172672D01*
X24175Y172694D01*
X24071Y172711D01*
X23966Y172725D01*
X23861Y172735D01*
X23756Y172741D01*
X23650Y172743D01*
X23544Y172741D01*
X23439Y172735D01*
X23334Y172725D01*
X23229Y172711D01*
X23125Y172694D01*
X23022Y172672D01*
X22920Y172647D01*
X22818Y172618D01*
X22718Y172585D01*
X22619Y172548D01*
X22522Y172508D01*
X22426Y172464D01*
X22331Y172416D01*
X22239Y172365D01*
X22149Y172310D01*
X22060Y172253D01*
X21974Y172192D01*
X21891Y172127D01*
X21809Y172060D01*
X21731Y171990D01*
X21655Y171916D01*
X21581Y171840D01*
X21511Y171762D01*
X21444Y171680D01*
X21379Y171597D01*
X21318Y171511D01*
X21261Y171422D01*
X21206Y171332D01*
X21155Y171240D01*
X21107Y171145D01*
X21063Y171049D01*
X21023Y170952D01*
X20986Y170853D01*
X20953Y170753D01*
X20924Y170651D01*
X20899Y170549D01*
X20877Y170446D01*
X20860Y170342D01*
X20846Y170237D01*
X20836Y170132D01*
X20830Y170027D01*
X20828Y169921D01*
X20828Y167098D01*
X30988Y167098D01*
X30988Y169921D01*
X30986Y170014D01*
X30980Y170107D01*
X30971Y170200D01*
X30957Y170293D01*
X30940Y170384D01*
X30919Y170475D01*
X30894Y170565D01*
X30866Y170654D01*
X30834Y170742D01*
X30798Y170828D01*
X30759Y170913D01*
X30716Y170996D01*
X30670Y171077D01*
X30620Y171156D01*
X30568Y171233D01*
X30512Y171308D01*
X30453Y171380D01*
X30391Y171450D01*
X30327Y171518D01*
X30259Y171582D01*
X30189Y171644D01*
X30117Y171703D01*
X30042Y171759D01*
X29965Y171811D01*
X29886Y171861D01*
X29805Y171907D01*
X29722Y171950D01*
X29637Y171989D01*
X29551Y172025D01*
X29463Y172057D01*
X29374Y172085D01*
X29284Y172110D01*
X29193Y172131D01*
X29102Y172148D01*
X29009Y172162D01*
X28916Y172171D01*
X28823Y172177D01*
X28730Y172179D01*
X28637Y172177D01*
X28544Y172171D01*
X28451Y172162D01*
X28358Y172148D01*
X28267Y172131D01*
X28176Y172110D01*
X28086Y172085D01*
X27997Y172057D01*
X27909Y172025D01*
X27823Y171989D01*
X27738Y171950D01*
X27655Y171907D01*
X27574Y171861D01*
X27495Y171811D01*
X27418Y171759D01*
X27343Y171703D01*
X27271Y171644D01*
X27201Y171582D01*
X27133Y171518D01*
X27069Y171450D01*
X27007Y171380D01*
X26948Y171308D01*
X26892Y171233D01*
X26840Y171156D01*
X26790Y171077D01*
X26744Y170996D01*
X26701Y170913D01*
X26662Y170828D01*
X26626Y170742D01*
X26594Y170654D01*
X26566Y170565D01*
X26541Y170475D01*
X26520Y170384D01*
X26503Y170293D01*
X26489Y170200D01*
X26480Y170107D01*
X26474Y170014D01*
X26472Y169921D01*
X21392Y176962D02*
X20828Y176962D01*
X21392Y176962D02*
X21392Y177526D01*
X20828Y177526D01*
X20828Y176962D01*
X20828Y182804D02*
X30988Y182804D01*
X30988Y185626D01*
X30986Y185732D01*
X30980Y185837D01*
X30970Y185942D01*
X30956Y186047D01*
X30939Y186151D01*
X30917Y186254D01*
X30892Y186356D01*
X30863Y186458D01*
X30830Y186558D01*
X30793Y186657D01*
X30753Y186755D01*
X30709Y186850D01*
X30661Y186945D01*
X30610Y187037D01*
X30555Y187127D01*
X30498Y187216D01*
X30437Y187302D01*
X30372Y187385D01*
X30305Y187467D01*
X30235Y187545D01*
X30161Y187621D01*
X30085Y187695D01*
X30007Y187765D01*
X29925Y187832D01*
X29842Y187897D01*
X29756Y187958D01*
X29667Y188015D01*
X29577Y188070D01*
X29485Y188121D01*
X29390Y188169D01*
X29294Y188213D01*
X29197Y188253D01*
X29098Y188290D01*
X28998Y188323D01*
X28896Y188352D01*
X28794Y188377D01*
X28691Y188399D01*
X28587Y188416D01*
X28482Y188430D01*
X28377Y188440D01*
X28271Y188446D01*
X28166Y188448D01*
X23650Y188448D01*
X23544Y188446D01*
X23439Y188440D01*
X23334Y188430D01*
X23229Y188416D01*
X23125Y188399D01*
X23022Y188377D01*
X22920Y188352D01*
X22818Y188323D01*
X22718Y188290D01*
X22619Y188253D01*
X22522Y188213D01*
X22426Y188169D01*
X22331Y188121D01*
X22239Y188070D01*
X22149Y188015D01*
X22060Y187958D01*
X21974Y187897D01*
X21891Y187832D01*
X21809Y187765D01*
X21731Y187695D01*
X21655Y187621D01*
X21581Y187545D01*
X21511Y187467D01*
X21444Y187386D01*
X21379Y187302D01*
X21318Y187216D01*
X21261Y187127D01*
X21206Y187037D01*
X21155Y186945D01*
X21107Y186850D01*
X21063Y186755D01*
X21023Y186657D01*
X20986Y186558D01*
X20953Y186458D01*
X20924Y186356D01*
X20899Y186254D01*
X20877Y186151D01*
X20860Y186047D01*
X20846Y185942D01*
X20836Y185837D01*
X20830Y185732D01*
X20828Y185626D01*
X20828Y182804D01*
X20828Y194996D02*
X30988Y194996D01*
X30988Y197818D01*
X30986Y197924D01*
X30980Y198029D01*
X30970Y198134D01*
X30956Y198239D01*
X30939Y198343D01*
X30917Y198446D01*
X30892Y198548D01*
X30863Y198650D01*
X30830Y198750D01*
X30793Y198849D01*
X30753Y198947D01*
X30709Y199042D01*
X30661Y199137D01*
X30610Y199229D01*
X30555Y199319D01*
X30498Y199408D01*
X30437Y199494D01*
X30372Y199577D01*
X30305Y199659D01*
X30235Y199737D01*
X30161Y199813D01*
X30085Y199887D01*
X30007Y199957D01*
X29925Y200024D01*
X29842Y200089D01*
X29756Y200150D01*
X29667Y200207D01*
X29577Y200262D01*
X29485Y200313D01*
X29390Y200361D01*
X29294Y200405D01*
X29197Y200445D01*
X29098Y200482D01*
X28998Y200515D01*
X28896Y200544D01*
X28794Y200569D01*
X28691Y200591D01*
X28587Y200608D01*
X28482Y200622D01*
X28377Y200632D01*
X28271Y200638D01*
X28166Y200640D01*
X23650Y200640D01*
X23544Y200638D01*
X23439Y200632D01*
X23334Y200622D01*
X23229Y200608D01*
X23125Y200591D01*
X23022Y200569D01*
X22920Y200544D01*
X22818Y200515D01*
X22718Y200482D01*
X22619Y200445D01*
X22522Y200405D01*
X22426Y200361D01*
X22331Y200313D01*
X22239Y200262D01*
X22149Y200207D01*
X22060Y200150D01*
X21974Y200089D01*
X21891Y200024D01*
X21809Y199957D01*
X21731Y199887D01*
X21655Y199813D01*
X21581Y199737D01*
X21511Y199659D01*
X21444Y199578D01*
X21379Y199494D01*
X21318Y199408D01*
X21261Y199319D01*
X21206Y199229D01*
X21155Y199137D01*
X21107Y199042D01*
X21063Y198947D01*
X21023Y198849D01*
X20986Y198750D01*
X20953Y198650D01*
X20924Y198548D01*
X20899Y198446D01*
X20877Y198343D01*
X20860Y198239D01*
X20846Y198134D01*
X20836Y198029D01*
X20830Y197924D01*
X20828Y197818D01*
X20828Y194996D01*
X20828Y207484D02*
X30988Y207484D01*
X30988Y210307D01*
X30986Y210413D01*
X30980Y210518D01*
X30970Y210623D01*
X30956Y210728D01*
X30939Y210832D01*
X30917Y210935D01*
X30892Y211037D01*
X30863Y211139D01*
X30830Y211239D01*
X30793Y211338D01*
X30753Y211435D01*
X30709Y211531D01*
X30661Y211626D01*
X30610Y211718D01*
X30555Y211808D01*
X30498Y211897D01*
X30437Y211983D01*
X30372Y212066D01*
X30305Y212148D01*
X30235Y212226D01*
X30161Y212302D01*
X30085Y212376D01*
X30007Y212446D01*
X29925Y212513D01*
X29842Y212578D01*
X29756Y212639D01*
X29667Y212696D01*
X29577Y212751D01*
X29485Y212802D01*
X29390Y212850D01*
X29294Y212894D01*
X29197Y212934D01*
X29098Y212971D01*
X28998Y213004D01*
X28896Y213033D01*
X28794Y213058D01*
X28691Y213080D01*
X28587Y213097D01*
X28482Y213111D01*
X28377Y213121D01*
X28272Y213127D01*
X28166Y213129D01*
X28060Y213127D01*
X27955Y213121D01*
X27850Y213111D01*
X27745Y213097D01*
X27641Y213080D01*
X27538Y213058D01*
X27436Y213033D01*
X27334Y213004D01*
X27234Y212971D01*
X27135Y212934D01*
X27038Y212894D01*
X26942Y212850D01*
X26847Y212802D01*
X26755Y212751D01*
X26665Y212696D01*
X26576Y212639D01*
X26490Y212578D01*
X26407Y212513D01*
X26325Y212446D01*
X26247Y212376D01*
X26171Y212302D01*
X26097Y212226D01*
X26027Y212148D01*
X25960Y212066D01*
X25895Y211983D01*
X25834Y211897D01*
X25777Y211808D01*
X25722Y211718D01*
X25671Y211626D01*
X25623Y211531D01*
X25579Y211435D01*
X25539Y211338D01*
X25502Y211239D01*
X25469Y211139D01*
X25440Y211037D01*
X25415Y210935D01*
X25393Y210832D01*
X25376Y210728D01*
X25362Y210623D01*
X25352Y210518D01*
X25346Y210413D01*
X25344Y210307D01*
X25344Y207484D01*
D23*
X-40640Y269240D03*
D13*
X-103881Y76962D02*
X-103881Y67874D01*
X-103879Y67775D01*
X-103873Y67675D01*
X-103864Y67576D01*
X-103851Y67478D01*
X-103834Y67380D01*
X-103813Y67282D01*
X-103788Y67186D01*
X-103760Y67091D01*
X-103728Y66997D01*
X-103693Y66904D01*
X-103654Y66812D01*
X-103611Y66722D01*
X-103566Y66634D01*
X-103516Y66547D01*
X-103464Y66463D01*
X-103408Y66380D01*
X-103350Y66300D01*
X-103288Y66222D01*
X-103223Y66147D01*
X-103155Y66074D01*
X-103085Y66004D01*
X-103012Y65936D01*
X-102937Y65871D01*
X-102859Y65809D01*
X-102779Y65751D01*
X-102696Y65695D01*
X-102612Y65643D01*
X-102525Y65593D01*
X-102437Y65548D01*
X-102347Y65505D01*
X-102255Y65466D01*
X-102162Y65431D01*
X-102068Y65399D01*
X-101973Y65371D01*
X-101877Y65346D01*
X-101779Y65325D01*
X-101681Y65308D01*
X-101583Y65295D01*
X-101484Y65286D01*
X-101384Y65280D01*
X-101285Y65278D01*
X-99986Y65278D01*
X-109705Y65278D02*
X-109705Y76962D01*
X-112950Y76962D01*
X-113063Y76960D01*
X-113176Y76954D01*
X-113289Y76944D01*
X-113402Y76930D01*
X-113514Y76913D01*
X-113625Y76891D01*
X-113735Y76866D01*
X-113845Y76836D01*
X-113953Y76803D01*
X-114060Y76766D01*
X-114166Y76726D01*
X-114270Y76681D01*
X-114373Y76633D01*
X-114474Y76582D01*
X-114573Y76527D01*
X-114670Y76469D01*
X-114765Y76407D01*
X-114858Y76342D01*
X-114948Y76274D01*
X-115036Y76203D01*
X-115122Y76128D01*
X-115205Y76051D01*
X-115285Y75971D01*
X-115362Y75888D01*
X-115437Y75802D01*
X-115508Y75714D01*
X-115576Y75624D01*
X-115641Y75531D01*
X-115703Y75436D01*
X-115761Y75339D01*
X-115816Y75240D01*
X-115867Y75139D01*
X-115915Y75036D01*
X-115960Y74932D01*
X-116000Y74826D01*
X-116037Y74719D01*
X-116070Y74611D01*
X-116100Y74501D01*
X-116125Y74391D01*
X-116147Y74280D01*
X-116164Y74168D01*
X-116178Y74055D01*
X-116188Y73942D01*
X-116194Y73829D01*
X-116196Y73716D01*
X-116194Y73603D01*
X-116188Y73490D01*
X-116178Y73377D01*
X-116164Y73264D01*
X-116147Y73152D01*
X-116125Y73041D01*
X-116100Y72931D01*
X-116070Y72821D01*
X-116037Y72713D01*
X-116000Y72606D01*
X-115960Y72500D01*
X-115915Y72396D01*
X-115867Y72293D01*
X-115816Y72192D01*
X-115761Y72093D01*
X-115703Y71996D01*
X-115641Y71901D01*
X-115576Y71808D01*
X-115508Y71718D01*
X-115437Y71630D01*
X-115362Y71544D01*
X-115285Y71461D01*
X-115205Y71381D01*
X-115122Y71304D01*
X-115036Y71229D01*
X-114948Y71158D01*
X-114858Y71090D01*
X-114765Y71025D01*
X-114670Y70963D01*
X-114573Y70905D01*
X-114474Y70850D01*
X-114373Y70799D01*
X-114270Y70751D01*
X-114166Y70706D01*
X-114060Y70666D01*
X-113953Y70629D01*
X-113845Y70596D01*
X-113735Y70566D01*
X-113625Y70541D01*
X-113514Y70519D01*
X-113402Y70502D01*
X-113289Y70488D01*
X-113176Y70478D01*
X-113063Y70472D01*
X-112950Y70470D01*
X-112950Y70471D02*
X-109705Y70471D01*
X-120077Y65927D02*
X-120077Y65278D01*
X-120077Y65927D02*
X-120726Y65927D01*
X-120726Y65278D01*
X-120077Y65278D01*
X-125537Y68524D02*
X-125537Y76962D01*
X-125537Y68524D02*
X-125539Y68411D01*
X-125545Y68298D01*
X-125555Y68185D01*
X-125569Y68072D01*
X-125586Y67960D01*
X-125608Y67849D01*
X-125633Y67739D01*
X-125663Y67629D01*
X-125696Y67521D01*
X-125733Y67414D01*
X-125773Y67308D01*
X-125818Y67204D01*
X-125866Y67101D01*
X-125917Y67000D01*
X-125972Y66901D01*
X-126030Y66804D01*
X-126092Y66709D01*
X-126157Y66616D01*
X-126225Y66526D01*
X-126296Y66438D01*
X-126371Y66352D01*
X-126448Y66269D01*
X-126528Y66189D01*
X-126611Y66112D01*
X-126697Y66037D01*
X-126785Y65966D01*
X-126875Y65898D01*
X-126968Y65833D01*
X-127063Y65771D01*
X-127160Y65713D01*
X-127259Y65658D01*
X-127360Y65607D01*
X-127463Y65559D01*
X-127567Y65514D01*
X-127673Y65474D01*
X-127780Y65437D01*
X-127888Y65404D01*
X-127998Y65374D01*
X-128108Y65349D01*
X-128219Y65327D01*
X-128331Y65310D01*
X-128444Y65296D01*
X-128557Y65286D01*
X-128670Y65280D01*
X-128783Y65278D01*
X-128896Y65280D01*
X-129009Y65286D01*
X-129122Y65296D01*
X-129235Y65310D01*
X-129347Y65327D01*
X-129458Y65349D01*
X-129568Y65374D01*
X-129678Y65404D01*
X-129786Y65437D01*
X-129893Y65474D01*
X-129999Y65514D01*
X-130103Y65559D01*
X-130206Y65607D01*
X-130307Y65658D01*
X-130406Y65713D01*
X-130503Y65771D01*
X-130598Y65833D01*
X-130691Y65898D01*
X-130781Y65966D01*
X-130869Y66037D01*
X-130955Y66112D01*
X-131038Y66189D01*
X-131118Y66269D01*
X-131195Y66352D01*
X-131270Y66438D01*
X-131341Y66526D01*
X-131409Y66616D01*
X-131474Y66709D01*
X-131536Y66804D01*
X-131594Y66901D01*
X-131649Y67000D01*
X-131700Y67101D01*
X-131748Y67204D01*
X-131793Y67308D01*
X-131833Y67414D01*
X-131870Y67521D01*
X-131903Y67629D01*
X-131933Y67739D01*
X-131958Y67849D01*
X-131980Y67960D01*
X-131997Y68072D01*
X-132011Y68185D01*
X-132021Y68298D01*
X-132027Y68411D01*
X-132029Y68524D01*
X-132029Y76962D01*
X-140594Y76962D02*
X-136699Y65278D01*
X-144489Y65278D02*
X-140594Y76962D01*
X-143515Y68199D02*
X-137673Y68199D01*
X-149233Y65278D02*
X-149233Y76962D01*
X-152479Y76962D01*
X-152592Y76960D01*
X-152705Y76954D01*
X-152818Y76944D01*
X-152931Y76930D01*
X-153043Y76913D01*
X-153154Y76891D01*
X-153264Y76866D01*
X-153374Y76836D01*
X-153482Y76803D01*
X-153589Y76766D01*
X-153695Y76726D01*
X-153799Y76681D01*
X-153902Y76633D01*
X-154003Y76582D01*
X-154102Y76527D01*
X-154199Y76469D01*
X-154294Y76407D01*
X-154387Y76342D01*
X-154477Y76274D01*
X-154565Y76203D01*
X-154651Y76128D01*
X-154734Y76051D01*
X-154814Y75971D01*
X-154891Y75888D01*
X-154966Y75802D01*
X-155037Y75714D01*
X-155105Y75624D01*
X-155170Y75531D01*
X-155232Y75436D01*
X-155290Y75339D01*
X-155345Y75240D01*
X-155396Y75139D01*
X-155444Y75036D01*
X-155489Y74932D01*
X-155529Y74826D01*
X-155566Y74719D01*
X-155599Y74611D01*
X-155629Y74501D01*
X-155654Y74391D01*
X-155676Y74280D01*
X-155693Y74168D01*
X-155707Y74055D01*
X-155717Y73942D01*
X-155723Y73829D01*
X-155725Y73716D01*
X-155723Y73603D01*
X-155717Y73490D01*
X-155707Y73377D01*
X-155693Y73264D01*
X-155676Y73152D01*
X-155654Y73041D01*
X-155629Y72931D01*
X-155599Y72821D01*
X-155566Y72713D01*
X-155529Y72606D01*
X-155489Y72500D01*
X-155444Y72396D01*
X-155396Y72293D01*
X-155345Y72192D01*
X-155290Y72093D01*
X-155232Y71996D01*
X-155170Y71901D01*
X-155105Y71808D01*
X-155037Y71718D01*
X-154966Y71630D01*
X-154891Y71544D01*
X-154814Y71461D01*
X-154734Y71381D01*
X-154651Y71304D01*
X-154565Y71229D01*
X-154477Y71158D01*
X-154387Y71090D01*
X-154294Y71025D01*
X-154199Y70963D01*
X-154102Y70905D01*
X-154003Y70850D01*
X-153902Y70799D01*
X-153799Y70751D01*
X-153695Y70706D01*
X-153589Y70666D01*
X-153482Y70629D01*
X-153374Y70596D01*
X-153264Y70566D01*
X-153154Y70541D01*
X-153043Y70519D01*
X-152931Y70502D01*
X-152818Y70488D01*
X-152705Y70478D01*
X-152592Y70472D01*
X-152479Y70470D01*
X-152479Y70471D02*
X-149233Y70471D01*
X-153128Y70471D02*
X-155724Y65278D01*
X-163073Y65278D02*
X-163073Y76962D01*
X-159827Y76962D02*
X-166319Y76962D01*
X-169987Y65927D02*
X-169987Y65278D01*
X-169987Y65927D02*
X-170636Y65927D01*
X-170636Y65278D01*
X-169987Y65278D01*
X-177551Y65278D02*
X-177551Y76962D01*
X-180796Y76962D02*
X-174305Y76962D01*
X-184324Y65278D02*
X-192114Y76962D01*
X-184324Y76962D02*
X-192114Y65278D01*
X-134679Y45212D02*
X-134679Y36124D01*
X-134678Y36124D02*
X-134676Y36025D01*
X-134670Y35925D01*
X-134661Y35826D01*
X-134648Y35728D01*
X-134631Y35630D01*
X-134610Y35532D01*
X-134585Y35436D01*
X-134557Y35341D01*
X-134525Y35247D01*
X-134490Y35154D01*
X-134451Y35062D01*
X-134408Y34972D01*
X-134363Y34884D01*
X-134313Y34797D01*
X-134261Y34713D01*
X-134205Y34630D01*
X-134147Y34550D01*
X-134085Y34472D01*
X-134020Y34397D01*
X-133952Y34324D01*
X-133882Y34254D01*
X-133809Y34186D01*
X-133734Y34121D01*
X-133656Y34059D01*
X-133576Y34001D01*
X-133493Y33945D01*
X-133409Y33893D01*
X-133322Y33843D01*
X-133234Y33798D01*
X-133144Y33755D01*
X-133052Y33716D01*
X-132959Y33681D01*
X-132865Y33649D01*
X-132770Y33621D01*
X-132674Y33596D01*
X-132576Y33575D01*
X-132478Y33558D01*
X-132380Y33545D01*
X-132281Y33536D01*
X-132181Y33530D01*
X-132082Y33528D01*
X-130784Y33528D01*
X-140502Y33528D02*
X-140502Y45212D01*
X-143748Y45212D01*
X-143861Y45210D01*
X-143974Y45204D01*
X-144087Y45194D01*
X-144200Y45180D01*
X-144312Y45163D01*
X-144423Y45141D01*
X-144533Y45116D01*
X-144643Y45086D01*
X-144751Y45053D01*
X-144858Y45016D01*
X-144964Y44976D01*
X-145068Y44931D01*
X-145171Y44883D01*
X-145272Y44832D01*
X-145371Y44777D01*
X-145468Y44719D01*
X-145563Y44657D01*
X-145656Y44592D01*
X-145746Y44524D01*
X-145834Y44453D01*
X-145920Y44378D01*
X-146003Y44301D01*
X-146083Y44221D01*
X-146160Y44138D01*
X-146235Y44052D01*
X-146306Y43964D01*
X-146374Y43874D01*
X-146439Y43781D01*
X-146501Y43686D01*
X-146559Y43589D01*
X-146614Y43490D01*
X-146665Y43389D01*
X-146713Y43286D01*
X-146758Y43182D01*
X-146798Y43076D01*
X-146835Y42969D01*
X-146868Y42861D01*
X-146898Y42751D01*
X-146923Y42641D01*
X-146945Y42530D01*
X-146962Y42418D01*
X-146976Y42305D01*
X-146986Y42192D01*
X-146992Y42079D01*
X-146994Y41966D01*
X-146992Y41853D01*
X-146986Y41740D01*
X-146976Y41627D01*
X-146962Y41514D01*
X-146945Y41402D01*
X-146923Y41291D01*
X-146898Y41181D01*
X-146868Y41071D01*
X-146835Y40963D01*
X-146798Y40856D01*
X-146758Y40750D01*
X-146713Y40646D01*
X-146665Y40543D01*
X-146614Y40442D01*
X-146559Y40343D01*
X-146501Y40246D01*
X-146439Y40151D01*
X-146374Y40058D01*
X-146306Y39968D01*
X-146235Y39880D01*
X-146160Y39794D01*
X-146083Y39711D01*
X-146003Y39631D01*
X-145920Y39554D01*
X-145834Y39479D01*
X-145746Y39408D01*
X-145656Y39340D01*
X-145563Y39275D01*
X-145468Y39213D01*
X-145371Y39155D01*
X-145272Y39100D01*
X-145171Y39049D01*
X-145068Y39001D01*
X-144964Y38956D01*
X-144858Y38916D01*
X-144751Y38879D01*
X-144643Y38846D01*
X-144533Y38816D01*
X-144423Y38791D01*
X-144312Y38769D01*
X-144200Y38752D01*
X-144087Y38738D01*
X-143974Y38728D01*
X-143861Y38722D01*
X-143748Y38720D01*
X-143748Y38721D02*
X-140502Y38721D01*
X-150874Y34177D02*
X-150874Y33528D01*
X-150874Y34177D02*
X-151523Y34177D01*
X-151523Y33528D01*
X-150874Y33528D01*
X-156335Y36774D02*
X-156335Y45212D01*
X-156335Y36774D02*
X-156337Y36661D01*
X-156343Y36548D01*
X-156353Y36435D01*
X-156367Y36322D01*
X-156384Y36210D01*
X-156406Y36099D01*
X-156431Y35989D01*
X-156461Y35879D01*
X-156494Y35771D01*
X-156531Y35664D01*
X-156571Y35558D01*
X-156616Y35454D01*
X-156664Y35351D01*
X-156715Y35250D01*
X-156770Y35151D01*
X-156828Y35054D01*
X-156890Y34959D01*
X-156955Y34866D01*
X-157023Y34776D01*
X-157094Y34688D01*
X-157169Y34602D01*
X-157246Y34519D01*
X-157326Y34439D01*
X-157409Y34362D01*
X-157495Y34287D01*
X-157583Y34216D01*
X-157673Y34148D01*
X-157766Y34083D01*
X-157861Y34021D01*
X-157958Y33963D01*
X-158057Y33908D01*
X-158158Y33857D01*
X-158261Y33809D01*
X-158365Y33764D01*
X-158471Y33724D01*
X-158578Y33687D01*
X-158686Y33654D01*
X-158796Y33624D01*
X-158906Y33599D01*
X-159017Y33577D01*
X-159129Y33560D01*
X-159242Y33546D01*
X-159355Y33536D01*
X-159468Y33530D01*
X-159581Y33528D01*
X-159694Y33530D01*
X-159807Y33536D01*
X-159920Y33546D01*
X-160033Y33560D01*
X-160145Y33577D01*
X-160256Y33599D01*
X-160366Y33624D01*
X-160476Y33654D01*
X-160584Y33687D01*
X-160691Y33724D01*
X-160797Y33764D01*
X-160901Y33809D01*
X-161004Y33857D01*
X-161105Y33908D01*
X-161204Y33963D01*
X-161301Y34021D01*
X-161396Y34083D01*
X-161489Y34148D01*
X-161579Y34216D01*
X-161667Y34287D01*
X-161753Y34362D01*
X-161836Y34439D01*
X-161916Y34519D01*
X-161993Y34602D01*
X-162068Y34688D01*
X-162139Y34776D01*
X-162207Y34866D01*
X-162272Y34959D01*
X-162334Y35054D01*
X-162392Y35151D01*
X-162447Y35250D01*
X-162498Y35351D01*
X-162546Y35454D01*
X-162591Y35558D01*
X-162631Y35664D01*
X-162668Y35771D01*
X-162701Y35879D01*
X-162731Y35989D01*
X-162756Y36099D01*
X-162778Y36210D01*
X-162795Y36322D01*
X-162809Y36435D01*
X-162819Y36548D01*
X-162825Y36661D01*
X-162827Y36774D01*
X-162826Y36774D02*
X-162826Y45212D01*
X-171392Y45212D02*
X-167497Y33528D01*
X-175286Y33528D02*
X-171392Y45212D01*
X-174313Y36449D02*
X-168471Y36449D01*
X-180031Y33528D02*
X-180031Y45212D01*
X-183276Y45212D01*
X-183389Y45210D01*
X-183502Y45204D01*
X-183615Y45194D01*
X-183728Y45180D01*
X-183840Y45163D01*
X-183951Y45141D01*
X-184061Y45116D01*
X-184171Y45086D01*
X-184279Y45053D01*
X-184386Y45016D01*
X-184492Y44976D01*
X-184596Y44931D01*
X-184699Y44883D01*
X-184800Y44832D01*
X-184899Y44777D01*
X-184996Y44719D01*
X-185091Y44657D01*
X-185184Y44592D01*
X-185274Y44524D01*
X-185362Y44453D01*
X-185448Y44378D01*
X-185531Y44301D01*
X-185611Y44221D01*
X-185688Y44138D01*
X-185763Y44052D01*
X-185834Y43964D01*
X-185902Y43874D01*
X-185967Y43781D01*
X-186029Y43686D01*
X-186087Y43589D01*
X-186142Y43490D01*
X-186193Y43389D01*
X-186241Y43286D01*
X-186286Y43182D01*
X-186326Y43076D01*
X-186363Y42969D01*
X-186396Y42861D01*
X-186426Y42751D01*
X-186451Y42641D01*
X-186473Y42530D01*
X-186490Y42418D01*
X-186504Y42305D01*
X-186514Y42192D01*
X-186520Y42079D01*
X-186522Y41966D01*
X-186520Y41853D01*
X-186514Y41740D01*
X-186504Y41627D01*
X-186490Y41514D01*
X-186473Y41402D01*
X-186451Y41291D01*
X-186426Y41181D01*
X-186396Y41071D01*
X-186363Y40963D01*
X-186326Y40856D01*
X-186286Y40750D01*
X-186241Y40646D01*
X-186193Y40543D01*
X-186142Y40442D01*
X-186087Y40343D01*
X-186029Y40246D01*
X-185967Y40151D01*
X-185902Y40058D01*
X-185834Y39968D01*
X-185763Y39880D01*
X-185688Y39794D01*
X-185611Y39711D01*
X-185531Y39631D01*
X-185448Y39554D01*
X-185362Y39479D01*
X-185274Y39408D01*
X-185184Y39340D01*
X-185091Y39275D01*
X-184996Y39213D01*
X-184899Y39155D01*
X-184800Y39100D01*
X-184699Y39049D01*
X-184596Y39001D01*
X-184492Y38956D01*
X-184386Y38916D01*
X-184279Y38879D01*
X-184171Y38846D01*
X-184061Y38816D01*
X-183951Y38791D01*
X-183840Y38769D01*
X-183728Y38752D01*
X-183615Y38738D01*
X-183502Y38728D01*
X-183389Y38722D01*
X-183276Y38720D01*
X-183276Y38721D02*
X-180031Y38721D01*
X-183925Y38721D02*
X-186522Y33528D01*
X-193870Y33528D02*
X-193870Y45212D01*
X-190625Y45212D02*
X-197116Y45212D01*
X-200785Y34177D02*
X-200785Y33528D01*
X-200785Y34177D02*
X-201434Y34177D01*
X-201434Y33528D01*
X-200785Y33528D01*
X-206319Y33528D02*
X-206319Y45212D01*
X-209565Y45212D01*
X-209678Y45210D01*
X-209791Y45204D01*
X-209904Y45194D01*
X-210017Y45180D01*
X-210129Y45163D01*
X-210240Y45141D01*
X-210350Y45116D01*
X-210460Y45086D01*
X-210568Y45053D01*
X-210675Y45016D01*
X-210781Y44976D01*
X-210885Y44931D01*
X-210988Y44883D01*
X-211089Y44832D01*
X-211188Y44777D01*
X-211285Y44719D01*
X-211380Y44657D01*
X-211473Y44592D01*
X-211563Y44524D01*
X-211651Y44453D01*
X-211737Y44378D01*
X-211820Y44301D01*
X-211900Y44221D01*
X-211977Y44138D01*
X-212052Y44052D01*
X-212123Y43964D01*
X-212191Y43874D01*
X-212256Y43781D01*
X-212318Y43686D01*
X-212376Y43589D01*
X-212431Y43490D01*
X-212482Y43389D01*
X-212530Y43286D01*
X-212575Y43182D01*
X-212615Y43076D01*
X-212652Y42969D01*
X-212685Y42861D01*
X-212715Y42751D01*
X-212740Y42641D01*
X-212762Y42530D01*
X-212779Y42418D01*
X-212793Y42305D01*
X-212803Y42192D01*
X-212809Y42079D01*
X-212811Y41966D01*
X-212809Y41853D01*
X-212803Y41740D01*
X-212793Y41627D01*
X-212779Y41514D01*
X-212762Y41402D01*
X-212740Y41291D01*
X-212715Y41181D01*
X-212685Y41071D01*
X-212652Y40963D01*
X-212615Y40856D01*
X-212575Y40750D01*
X-212530Y40646D01*
X-212482Y40543D01*
X-212431Y40442D01*
X-212376Y40343D01*
X-212318Y40246D01*
X-212256Y40151D01*
X-212191Y40058D01*
X-212123Y39968D01*
X-212052Y39880D01*
X-211977Y39794D01*
X-211900Y39711D01*
X-211820Y39631D01*
X-211737Y39554D01*
X-211651Y39479D01*
X-211563Y39408D01*
X-211473Y39340D01*
X-211380Y39275D01*
X-211285Y39213D01*
X-211188Y39155D01*
X-211089Y39100D01*
X-210988Y39049D01*
X-210885Y39001D01*
X-210781Y38956D01*
X-210675Y38916D01*
X-210568Y38879D01*
X-210460Y38846D01*
X-210350Y38816D01*
X-210240Y38791D01*
X-210129Y38769D01*
X-210017Y38752D01*
X-209904Y38738D01*
X-209791Y38728D01*
X-209678Y38722D01*
X-209565Y38720D01*
X-209565Y38721D02*
X-206319Y38721D01*
X-210214Y38721D02*
X-212811Y33528D01*
X-217027Y33528D02*
X-224816Y45212D01*
X-217027Y45212D02*
X-224816Y33528D01*
D14*
X111698Y304518D02*
X111698Y312420D01*
X111698Y304518D02*
X111700Y304425D01*
X111706Y304332D01*
X111715Y304239D01*
X111729Y304146D01*
X111746Y304055D01*
X111767Y303964D01*
X111792Y303874D01*
X111820Y303785D01*
X111852Y303697D01*
X111888Y303611D01*
X111927Y303526D01*
X111970Y303443D01*
X112016Y303362D01*
X112066Y303283D01*
X112118Y303206D01*
X112174Y303131D01*
X112233Y303059D01*
X112295Y302989D01*
X112359Y302921D01*
X112427Y302857D01*
X112497Y302795D01*
X112569Y302736D01*
X112644Y302680D01*
X112721Y302628D01*
X112800Y302578D01*
X112881Y302532D01*
X112964Y302489D01*
X113049Y302450D01*
X113135Y302414D01*
X113223Y302382D01*
X113312Y302354D01*
X113402Y302329D01*
X113493Y302308D01*
X113584Y302291D01*
X113677Y302277D01*
X113770Y302268D01*
X113863Y302262D01*
X113956Y302260D01*
X115085Y302260D01*
X104936Y302260D02*
X104936Y312420D01*
X102113Y312420D01*
X102007Y312418D01*
X101902Y312412D01*
X101797Y312402D01*
X101692Y312388D01*
X101588Y312371D01*
X101485Y312349D01*
X101383Y312324D01*
X101281Y312295D01*
X101181Y312262D01*
X101082Y312225D01*
X100985Y312185D01*
X100889Y312141D01*
X100794Y312093D01*
X100702Y312042D01*
X100612Y311987D01*
X100523Y311930D01*
X100437Y311869D01*
X100354Y311804D01*
X100272Y311737D01*
X100194Y311667D01*
X100118Y311593D01*
X100044Y311517D01*
X99974Y311439D01*
X99907Y311357D01*
X99842Y311274D01*
X99781Y311188D01*
X99724Y311099D01*
X99669Y311009D01*
X99618Y310917D01*
X99570Y310822D01*
X99526Y310726D01*
X99486Y310629D01*
X99449Y310530D01*
X99416Y310430D01*
X99387Y310328D01*
X99362Y310226D01*
X99340Y310123D01*
X99323Y310019D01*
X99309Y309914D01*
X99299Y309809D01*
X99293Y309704D01*
X99291Y309598D01*
X99293Y309492D01*
X99299Y309387D01*
X99309Y309282D01*
X99323Y309177D01*
X99340Y309073D01*
X99362Y308970D01*
X99387Y308868D01*
X99416Y308766D01*
X99449Y308666D01*
X99486Y308567D01*
X99526Y308470D01*
X99570Y308374D01*
X99618Y308279D01*
X99669Y308187D01*
X99724Y308097D01*
X99781Y308008D01*
X99842Y307922D01*
X99907Y307839D01*
X99974Y307757D01*
X100044Y307679D01*
X100118Y307603D01*
X100194Y307529D01*
X100272Y307459D01*
X100354Y307392D01*
X100437Y307327D01*
X100523Y307266D01*
X100612Y307209D01*
X100702Y307154D01*
X100794Y307103D01*
X100889Y307055D01*
X100985Y307011D01*
X101082Y306971D01*
X101181Y306934D01*
X101281Y306901D01*
X101383Y306872D01*
X101485Y306847D01*
X101588Y306825D01*
X101692Y306808D01*
X101797Y306794D01*
X101902Y306784D01*
X102007Y306778D01*
X102113Y306776D01*
X104936Y306776D01*
X95072Y302824D02*
X95072Y302260D01*
X95072Y302824D02*
X94508Y302824D01*
X94508Y302260D01*
X95072Y302260D01*
X89230Y305082D02*
X89230Y312420D01*
X89230Y305082D02*
X89228Y304976D01*
X89222Y304871D01*
X89212Y304766D01*
X89198Y304661D01*
X89181Y304557D01*
X89159Y304454D01*
X89134Y304352D01*
X89105Y304250D01*
X89072Y304150D01*
X89035Y304051D01*
X88995Y303954D01*
X88951Y303858D01*
X88903Y303763D01*
X88852Y303671D01*
X88797Y303581D01*
X88740Y303492D01*
X88679Y303406D01*
X88614Y303323D01*
X88547Y303241D01*
X88477Y303163D01*
X88403Y303087D01*
X88327Y303013D01*
X88249Y302943D01*
X88167Y302876D01*
X88084Y302811D01*
X87998Y302750D01*
X87909Y302693D01*
X87819Y302638D01*
X87727Y302587D01*
X87632Y302539D01*
X87536Y302495D01*
X87439Y302455D01*
X87340Y302418D01*
X87240Y302385D01*
X87138Y302356D01*
X87036Y302331D01*
X86933Y302309D01*
X86829Y302292D01*
X86724Y302278D01*
X86619Y302268D01*
X86514Y302262D01*
X86408Y302260D01*
X86302Y302262D01*
X86197Y302268D01*
X86092Y302278D01*
X85987Y302292D01*
X85883Y302309D01*
X85780Y302331D01*
X85678Y302356D01*
X85576Y302385D01*
X85476Y302418D01*
X85377Y302455D01*
X85280Y302495D01*
X85184Y302539D01*
X85089Y302587D01*
X84997Y302638D01*
X84907Y302693D01*
X84818Y302750D01*
X84732Y302811D01*
X84649Y302876D01*
X84567Y302943D01*
X84489Y303013D01*
X84413Y303087D01*
X84339Y303163D01*
X84269Y303241D01*
X84202Y303323D01*
X84137Y303406D01*
X84076Y303492D01*
X84019Y303581D01*
X83964Y303671D01*
X83913Y303763D01*
X83865Y303858D01*
X83821Y303954D01*
X83781Y304051D01*
X83744Y304150D01*
X83711Y304250D01*
X83682Y304352D01*
X83657Y304454D01*
X83635Y304557D01*
X83618Y304661D01*
X83604Y304766D01*
X83594Y304871D01*
X83588Y304976D01*
X83586Y305082D01*
X83586Y312420D01*
X74413Y302260D02*
X74320Y302262D01*
X74227Y302268D01*
X74134Y302277D01*
X74041Y302291D01*
X73950Y302308D01*
X73859Y302329D01*
X73769Y302354D01*
X73680Y302382D01*
X73592Y302414D01*
X73506Y302450D01*
X73421Y302489D01*
X73338Y302532D01*
X73257Y302578D01*
X73178Y302628D01*
X73101Y302680D01*
X73026Y302736D01*
X72954Y302795D01*
X72884Y302857D01*
X72816Y302921D01*
X72752Y302989D01*
X72690Y303059D01*
X72631Y303131D01*
X72575Y303206D01*
X72523Y303283D01*
X72473Y303362D01*
X72427Y303443D01*
X72384Y303526D01*
X72345Y303611D01*
X72309Y303697D01*
X72277Y303785D01*
X72249Y303874D01*
X72224Y303964D01*
X72203Y304055D01*
X72186Y304146D01*
X72172Y304239D01*
X72163Y304332D01*
X72157Y304425D01*
X72155Y304518D01*
X74413Y302260D02*
X74548Y302262D01*
X74682Y302268D01*
X74816Y302277D01*
X74950Y302290D01*
X75083Y302307D01*
X75216Y302328D01*
X75349Y302353D01*
X75480Y302381D01*
X75611Y302413D01*
X75740Y302448D01*
X75869Y302488D01*
X75997Y302531D01*
X76123Y302577D01*
X76248Y302627D01*
X76371Y302680D01*
X76493Y302737D01*
X76613Y302798D01*
X76732Y302861D01*
X76848Y302928D01*
X76963Y302999D01*
X77075Y303072D01*
X77186Y303149D01*
X77294Y303229D01*
X77400Y303311D01*
X77504Y303397D01*
X77605Y303486D01*
X77704Y303577D01*
X77800Y303671D01*
X77518Y310162D02*
X77516Y310255D01*
X77510Y310348D01*
X77501Y310441D01*
X77487Y310534D01*
X77470Y310625D01*
X77449Y310716D01*
X77424Y310806D01*
X77396Y310895D01*
X77364Y310983D01*
X77328Y311069D01*
X77289Y311154D01*
X77246Y311237D01*
X77200Y311318D01*
X77150Y311397D01*
X77098Y311474D01*
X77042Y311549D01*
X76983Y311621D01*
X76921Y311691D01*
X76857Y311759D01*
X76789Y311823D01*
X76719Y311885D01*
X76647Y311944D01*
X76572Y312000D01*
X76495Y312052D01*
X76416Y312102D01*
X76335Y312148D01*
X76252Y312191D01*
X76167Y312230D01*
X76081Y312266D01*
X75993Y312298D01*
X75904Y312326D01*
X75814Y312351D01*
X75723Y312372D01*
X75632Y312389D01*
X75539Y312403D01*
X75446Y312412D01*
X75353Y312418D01*
X75260Y312420D01*
X75130Y312418D01*
X75001Y312412D01*
X74871Y312402D01*
X74742Y312388D01*
X74614Y312370D01*
X74486Y312349D01*
X74359Y312323D01*
X74233Y312293D01*
X74107Y312260D01*
X73983Y312223D01*
X73860Y312182D01*
X73738Y312137D01*
X73618Y312089D01*
X73499Y312036D01*
X73382Y311981D01*
X73267Y311921D01*
X73153Y311858D01*
X73042Y311792D01*
X72932Y311723D01*
X72825Y311650D01*
X72720Y311573D01*
X76389Y308187D02*
X76470Y308237D01*
X76549Y308290D01*
X76626Y308346D01*
X76700Y308406D01*
X76771Y308469D01*
X76840Y308535D01*
X76907Y308603D01*
X76970Y308674D01*
X77030Y308748D01*
X77087Y308824D01*
X77141Y308903D01*
X77192Y308983D01*
X77239Y309066D01*
X77283Y309151D01*
X77323Y309237D01*
X77360Y309325D01*
X77393Y309414D01*
X77422Y309505D01*
X77447Y309597D01*
X77469Y309689D01*
X77486Y309783D01*
X77500Y309877D01*
X77510Y309972D01*
X77516Y310067D01*
X77518Y310162D01*
X73285Y306494D02*
X73204Y306443D01*
X73125Y306390D01*
X73048Y306334D01*
X72974Y306274D01*
X72903Y306211D01*
X72834Y306145D01*
X72767Y306077D01*
X72704Y306006D01*
X72644Y305932D01*
X72587Y305856D01*
X72533Y305777D01*
X72482Y305697D01*
X72435Y305614D01*
X72391Y305530D01*
X72351Y305443D01*
X72314Y305355D01*
X72281Y305266D01*
X72252Y305175D01*
X72227Y305084D01*
X72205Y304991D01*
X72188Y304897D01*
X72174Y304803D01*
X72164Y304708D01*
X72158Y304613D01*
X72156Y304518D01*
X73284Y306493D02*
X76389Y308187D01*
X66074Y307904D02*
X63251Y307904D01*
X63145Y307902D01*
X63040Y307896D01*
X62935Y307886D01*
X62830Y307872D01*
X62726Y307855D01*
X62623Y307833D01*
X62521Y307808D01*
X62419Y307779D01*
X62319Y307746D01*
X62220Y307709D01*
X62123Y307669D01*
X62027Y307625D01*
X61932Y307577D01*
X61840Y307526D01*
X61750Y307471D01*
X61661Y307414D01*
X61575Y307353D01*
X61492Y307288D01*
X61410Y307221D01*
X61332Y307151D01*
X61256Y307077D01*
X61182Y307001D01*
X61112Y306923D01*
X61045Y306841D01*
X60980Y306758D01*
X60919Y306672D01*
X60862Y306583D01*
X60807Y306493D01*
X60756Y306401D01*
X60708Y306306D01*
X60664Y306210D01*
X60624Y306113D01*
X60587Y306014D01*
X60554Y305914D01*
X60525Y305812D01*
X60500Y305710D01*
X60478Y305607D01*
X60461Y305503D01*
X60447Y305398D01*
X60437Y305293D01*
X60431Y305188D01*
X60429Y305082D01*
X60431Y304976D01*
X60437Y304871D01*
X60447Y304766D01*
X60461Y304661D01*
X60478Y304557D01*
X60500Y304454D01*
X60525Y304352D01*
X60554Y304250D01*
X60587Y304150D01*
X60624Y304051D01*
X60664Y303954D01*
X60708Y303858D01*
X60756Y303763D01*
X60807Y303671D01*
X60862Y303581D01*
X60919Y303492D01*
X60980Y303406D01*
X61045Y303323D01*
X61112Y303241D01*
X61182Y303163D01*
X61256Y303087D01*
X61332Y303013D01*
X61410Y302943D01*
X61492Y302876D01*
X61575Y302811D01*
X61661Y302750D01*
X61750Y302693D01*
X61840Y302638D01*
X61932Y302587D01*
X62027Y302539D01*
X62123Y302495D01*
X62220Y302455D01*
X62319Y302418D01*
X62419Y302385D01*
X62521Y302356D01*
X62623Y302331D01*
X62726Y302309D01*
X62830Y302292D01*
X62935Y302278D01*
X63040Y302268D01*
X63145Y302262D01*
X63251Y302260D01*
X66074Y302260D01*
X66074Y312420D01*
X63251Y312420D01*
X63158Y312418D01*
X63065Y312412D01*
X62972Y312403D01*
X62879Y312389D01*
X62788Y312372D01*
X62697Y312351D01*
X62607Y312326D01*
X62518Y312298D01*
X62430Y312266D01*
X62344Y312230D01*
X62259Y312191D01*
X62176Y312148D01*
X62095Y312102D01*
X62016Y312052D01*
X61939Y312000D01*
X61864Y311944D01*
X61792Y311885D01*
X61722Y311823D01*
X61654Y311759D01*
X61590Y311691D01*
X61528Y311621D01*
X61469Y311549D01*
X61413Y311474D01*
X61361Y311397D01*
X61311Y311318D01*
X61265Y311237D01*
X61222Y311154D01*
X61183Y311069D01*
X61147Y310983D01*
X61115Y310895D01*
X61087Y310806D01*
X61062Y310716D01*
X61041Y310625D01*
X61024Y310534D01*
X61010Y310441D01*
X61001Y310348D01*
X60995Y310255D01*
X60993Y310162D01*
X60995Y310069D01*
X61001Y309976D01*
X61010Y309883D01*
X61024Y309790D01*
X61041Y309699D01*
X61062Y309608D01*
X61087Y309518D01*
X61115Y309429D01*
X61147Y309341D01*
X61183Y309255D01*
X61222Y309170D01*
X61265Y309087D01*
X61311Y309006D01*
X61361Y308927D01*
X61413Y308850D01*
X61469Y308775D01*
X61528Y308703D01*
X61590Y308633D01*
X61654Y308565D01*
X61722Y308501D01*
X61792Y308439D01*
X61864Y308380D01*
X61939Y308324D01*
X62016Y308272D01*
X62095Y308222D01*
X62176Y308176D01*
X62259Y308133D01*
X62344Y308094D01*
X62430Y308058D01*
X62518Y308026D01*
X62607Y307998D01*
X62697Y307973D01*
X62788Y307952D01*
X62879Y307935D01*
X62972Y307921D01*
X63065Y307912D01*
X63158Y307906D01*
X63251Y307904D01*
X56210Y302824D02*
X56210Y302260D01*
X56210Y302824D02*
X55646Y302824D01*
X55646Y302260D01*
X56210Y302260D01*
X47927Y302260D02*
X51313Y312420D01*
X44540Y312420D02*
X47927Y302260D01*
X38642Y307904D02*
X35819Y307904D01*
X35713Y307902D01*
X35608Y307896D01*
X35503Y307886D01*
X35398Y307872D01*
X35294Y307855D01*
X35191Y307833D01*
X35089Y307808D01*
X34987Y307779D01*
X34887Y307746D01*
X34788Y307709D01*
X34691Y307669D01*
X34595Y307625D01*
X34500Y307577D01*
X34408Y307526D01*
X34318Y307471D01*
X34229Y307414D01*
X34143Y307353D01*
X34060Y307288D01*
X33978Y307221D01*
X33900Y307151D01*
X33824Y307077D01*
X33750Y307001D01*
X33680Y306923D01*
X33613Y306841D01*
X33548Y306758D01*
X33487Y306672D01*
X33430Y306583D01*
X33375Y306493D01*
X33324Y306401D01*
X33276Y306306D01*
X33232Y306210D01*
X33192Y306113D01*
X33155Y306014D01*
X33122Y305914D01*
X33093Y305812D01*
X33068Y305710D01*
X33046Y305607D01*
X33029Y305503D01*
X33015Y305398D01*
X33005Y305293D01*
X32999Y305188D01*
X32997Y305082D01*
X32999Y304976D01*
X33005Y304871D01*
X33015Y304766D01*
X33029Y304661D01*
X33046Y304557D01*
X33068Y304454D01*
X33093Y304352D01*
X33122Y304250D01*
X33155Y304150D01*
X33192Y304051D01*
X33232Y303954D01*
X33276Y303858D01*
X33324Y303763D01*
X33375Y303671D01*
X33430Y303581D01*
X33487Y303492D01*
X33548Y303406D01*
X33613Y303323D01*
X33680Y303241D01*
X33750Y303163D01*
X33824Y303087D01*
X33900Y303013D01*
X33978Y302943D01*
X34060Y302876D01*
X34143Y302811D01*
X34229Y302750D01*
X34318Y302693D01*
X34408Y302638D01*
X34500Y302587D01*
X34595Y302539D01*
X34691Y302495D01*
X34788Y302455D01*
X34887Y302418D01*
X34987Y302385D01*
X35089Y302356D01*
X35191Y302331D01*
X35294Y302309D01*
X35398Y302292D01*
X35503Y302278D01*
X35608Y302268D01*
X35713Y302262D01*
X35819Y302260D01*
X38642Y302260D01*
X38642Y312420D01*
X35819Y312420D01*
X35726Y312418D01*
X35633Y312412D01*
X35540Y312403D01*
X35447Y312389D01*
X35356Y312372D01*
X35265Y312351D01*
X35175Y312326D01*
X35086Y312298D01*
X34998Y312266D01*
X34912Y312230D01*
X34827Y312191D01*
X34744Y312148D01*
X34663Y312102D01*
X34584Y312052D01*
X34507Y312000D01*
X34432Y311944D01*
X34360Y311885D01*
X34290Y311823D01*
X34222Y311759D01*
X34158Y311691D01*
X34096Y311621D01*
X34037Y311549D01*
X33981Y311474D01*
X33929Y311397D01*
X33879Y311318D01*
X33833Y311237D01*
X33790Y311154D01*
X33751Y311069D01*
X33715Y310983D01*
X33683Y310895D01*
X33655Y310806D01*
X33630Y310716D01*
X33609Y310625D01*
X33592Y310534D01*
X33578Y310441D01*
X33569Y310348D01*
X33563Y310255D01*
X33561Y310162D01*
X33563Y310069D01*
X33569Y309976D01*
X33578Y309883D01*
X33592Y309790D01*
X33609Y309699D01*
X33630Y309608D01*
X33655Y309518D01*
X33683Y309429D01*
X33715Y309341D01*
X33751Y309255D01*
X33790Y309170D01*
X33833Y309087D01*
X33879Y309006D01*
X33929Y308927D01*
X33981Y308850D01*
X34037Y308775D01*
X34096Y308703D01*
X34158Y308633D01*
X34222Y308565D01*
X34290Y308501D01*
X34360Y308439D01*
X34432Y308380D01*
X34507Y308324D01*
X34584Y308272D01*
X34663Y308222D01*
X34744Y308176D01*
X34827Y308133D01*
X34912Y308094D01*
X34998Y308058D01*
X35086Y308026D01*
X35175Y307998D01*
X35265Y307973D01*
X35356Y307952D01*
X35447Y307935D01*
X35540Y307921D01*
X35633Y307912D01*
X35726Y307906D01*
X35819Y307904D01*
X27508Y305082D02*
X27508Y312420D01*
X27508Y305082D02*
X27506Y304976D01*
X27500Y304871D01*
X27490Y304766D01*
X27476Y304661D01*
X27459Y304557D01*
X27437Y304454D01*
X27412Y304352D01*
X27383Y304250D01*
X27350Y304150D01*
X27313Y304051D01*
X27273Y303954D01*
X27229Y303858D01*
X27181Y303763D01*
X27130Y303671D01*
X27075Y303581D01*
X27018Y303492D01*
X26957Y303406D01*
X26892Y303323D01*
X26825Y303241D01*
X26755Y303163D01*
X26681Y303087D01*
X26605Y303013D01*
X26527Y302943D01*
X26445Y302876D01*
X26362Y302811D01*
X26276Y302750D01*
X26187Y302693D01*
X26097Y302638D01*
X26005Y302587D01*
X25910Y302539D01*
X25814Y302495D01*
X25717Y302455D01*
X25618Y302418D01*
X25518Y302385D01*
X25416Y302356D01*
X25314Y302331D01*
X25211Y302309D01*
X25107Y302292D01*
X25002Y302278D01*
X24897Y302268D01*
X24792Y302262D01*
X24686Y302260D01*
X24580Y302262D01*
X24475Y302268D01*
X24370Y302278D01*
X24265Y302292D01*
X24161Y302309D01*
X24058Y302331D01*
X23956Y302356D01*
X23854Y302385D01*
X23754Y302418D01*
X23655Y302455D01*
X23558Y302495D01*
X23462Y302539D01*
X23367Y302587D01*
X23275Y302638D01*
X23185Y302693D01*
X23096Y302750D01*
X23010Y302811D01*
X22927Y302876D01*
X22845Y302943D01*
X22767Y303013D01*
X22691Y303087D01*
X22617Y303163D01*
X22547Y303241D01*
X22480Y303323D01*
X22415Y303406D01*
X22354Y303492D01*
X22297Y303581D01*
X22242Y303671D01*
X22191Y303763D01*
X22143Y303858D01*
X22099Y303954D01*
X22059Y304051D01*
X22022Y304150D01*
X21989Y304250D01*
X21960Y304352D01*
X21935Y304454D01*
X21913Y304557D01*
X21896Y304661D01*
X21882Y304766D01*
X21872Y304871D01*
X21866Y304976D01*
X21864Y305082D01*
X21864Y312420D01*
X12691Y302260D02*
X12598Y302262D01*
X12505Y302268D01*
X12412Y302277D01*
X12319Y302291D01*
X12228Y302308D01*
X12137Y302329D01*
X12047Y302354D01*
X11958Y302382D01*
X11870Y302414D01*
X11784Y302450D01*
X11699Y302489D01*
X11616Y302532D01*
X11535Y302578D01*
X11456Y302628D01*
X11379Y302680D01*
X11304Y302736D01*
X11232Y302795D01*
X11162Y302857D01*
X11094Y302921D01*
X11030Y302989D01*
X10968Y303059D01*
X10909Y303131D01*
X10853Y303206D01*
X10801Y303283D01*
X10751Y303362D01*
X10705Y303443D01*
X10662Y303526D01*
X10623Y303611D01*
X10587Y303697D01*
X10555Y303785D01*
X10527Y303874D01*
X10502Y303964D01*
X10481Y304055D01*
X10464Y304146D01*
X10450Y304239D01*
X10441Y304332D01*
X10435Y304425D01*
X10433Y304518D01*
X12691Y302260D02*
X12826Y302262D01*
X12960Y302268D01*
X13094Y302277D01*
X13228Y302290D01*
X13361Y302307D01*
X13494Y302328D01*
X13627Y302353D01*
X13758Y302381D01*
X13889Y302413D01*
X14018Y302448D01*
X14147Y302488D01*
X14275Y302531D01*
X14401Y302577D01*
X14526Y302627D01*
X14649Y302680D01*
X14771Y302737D01*
X14891Y302798D01*
X15010Y302861D01*
X15126Y302928D01*
X15241Y302999D01*
X15353Y303072D01*
X15464Y303149D01*
X15572Y303229D01*
X15678Y303311D01*
X15782Y303397D01*
X15883Y303486D01*
X15982Y303577D01*
X16078Y303671D01*
X15796Y310162D02*
X15794Y310255D01*
X15788Y310348D01*
X15779Y310441D01*
X15765Y310534D01*
X15748Y310625D01*
X15727Y310716D01*
X15702Y310806D01*
X15674Y310895D01*
X15642Y310983D01*
X15606Y311069D01*
X15567Y311154D01*
X15524Y311237D01*
X15478Y311318D01*
X15428Y311397D01*
X15376Y311474D01*
X15320Y311549D01*
X15261Y311621D01*
X15199Y311691D01*
X15135Y311759D01*
X15067Y311823D01*
X14997Y311885D01*
X14925Y311944D01*
X14850Y312000D01*
X14773Y312052D01*
X14694Y312102D01*
X14613Y312148D01*
X14530Y312191D01*
X14445Y312230D01*
X14359Y312266D01*
X14271Y312298D01*
X14182Y312326D01*
X14092Y312351D01*
X14001Y312372D01*
X13910Y312389D01*
X13817Y312403D01*
X13724Y312412D01*
X13631Y312418D01*
X13538Y312420D01*
X13408Y312418D01*
X13279Y312412D01*
X13149Y312402D01*
X13020Y312388D01*
X12892Y312370D01*
X12764Y312349D01*
X12637Y312323D01*
X12511Y312293D01*
X12385Y312260D01*
X12261Y312223D01*
X12138Y312182D01*
X12016Y312137D01*
X11896Y312089D01*
X11777Y312036D01*
X11660Y311981D01*
X11545Y311921D01*
X11431Y311858D01*
X11320Y311792D01*
X11210Y311723D01*
X11103Y311650D01*
X10998Y311573D01*
X14667Y308187D02*
X14748Y308237D01*
X14827Y308290D01*
X14904Y308346D01*
X14978Y308406D01*
X15049Y308469D01*
X15118Y308535D01*
X15185Y308603D01*
X15248Y308674D01*
X15308Y308748D01*
X15365Y308824D01*
X15419Y308903D01*
X15470Y308983D01*
X15517Y309066D01*
X15561Y309151D01*
X15601Y309237D01*
X15638Y309325D01*
X15671Y309414D01*
X15700Y309505D01*
X15725Y309597D01*
X15747Y309689D01*
X15764Y309783D01*
X15778Y309877D01*
X15788Y309972D01*
X15794Y310067D01*
X15796Y310162D01*
X11563Y306494D02*
X11482Y306443D01*
X11403Y306390D01*
X11326Y306334D01*
X11252Y306274D01*
X11181Y306211D01*
X11112Y306145D01*
X11045Y306077D01*
X10982Y306006D01*
X10922Y305932D01*
X10865Y305856D01*
X10811Y305777D01*
X10760Y305697D01*
X10713Y305614D01*
X10669Y305530D01*
X10629Y305443D01*
X10592Y305355D01*
X10559Y305266D01*
X10530Y305175D01*
X10505Y305084D01*
X10483Y304991D01*
X10466Y304897D01*
X10452Y304803D01*
X10442Y304708D01*
X10436Y304613D01*
X10434Y304518D01*
X11562Y306493D02*
X14667Y308187D01*
X4352Y312420D02*
X4352Y302260D01*
X4352Y312420D02*
X1529Y312420D01*
X1423Y312418D01*
X1318Y312412D01*
X1213Y312402D01*
X1108Y312388D01*
X1004Y312371D01*
X901Y312349D01*
X799Y312324D01*
X697Y312295D01*
X597Y312262D01*
X498Y312225D01*
X401Y312185D01*
X305Y312141D01*
X210Y312093D01*
X118Y312042D01*
X28Y311987D01*
X-61Y311930D01*
X-147Y311869D01*
X-230Y311804D01*
X-312Y311737D01*
X-390Y311667D01*
X-466Y311593D01*
X-540Y311517D01*
X-610Y311439D01*
X-677Y311357D01*
X-742Y311274D01*
X-803Y311188D01*
X-860Y311099D01*
X-915Y311009D01*
X-966Y310917D01*
X-1014Y310822D01*
X-1058Y310726D01*
X-1098Y310629D01*
X-1135Y310530D01*
X-1168Y310430D01*
X-1197Y310328D01*
X-1222Y310226D01*
X-1244Y310123D01*
X-1261Y310019D01*
X-1275Y309914D01*
X-1285Y309809D01*
X-1291Y309704D01*
X-1293Y309598D01*
X-1291Y309492D01*
X-1285Y309387D01*
X-1275Y309282D01*
X-1261Y309177D01*
X-1244Y309073D01*
X-1222Y308970D01*
X-1197Y308868D01*
X-1168Y308766D01*
X-1135Y308666D01*
X-1098Y308567D01*
X-1058Y308470D01*
X-1014Y308374D01*
X-966Y308279D01*
X-915Y308187D01*
X-860Y308097D01*
X-803Y308008D01*
X-742Y307922D01*
X-677Y307839D01*
X-610Y307757D01*
X-540Y307679D01*
X-466Y307603D01*
X-390Y307529D01*
X-312Y307459D01*
X-230Y307392D01*
X-147Y307327D01*
X-61Y307266D01*
X28Y307209D01*
X118Y307154D01*
X210Y307103D01*
X305Y307055D01*
X401Y307011D01*
X498Y306971D01*
X597Y306934D01*
X697Y306901D01*
X799Y306872D01*
X901Y306847D01*
X1004Y306825D01*
X1108Y306808D01*
X1213Y306794D01*
X1318Y306784D01*
X1423Y306778D01*
X1529Y306776D01*
X4352Y306776D01*
D13*
X-96078Y223012D02*
X-96078Y213924D01*
X-96077Y213924D02*
X-96075Y213825D01*
X-96069Y213725D01*
X-96060Y213626D01*
X-96047Y213528D01*
X-96030Y213430D01*
X-96009Y213332D01*
X-95984Y213236D01*
X-95956Y213141D01*
X-95924Y213047D01*
X-95889Y212954D01*
X-95850Y212862D01*
X-95807Y212772D01*
X-95762Y212684D01*
X-95712Y212597D01*
X-95660Y212513D01*
X-95604Y212430D01*
X-95546Y212350D01*
X-95484Y212272D01*
X-95419Y212197D01*
X-95351Y212124D01*
X-95281Y212054D01*
X-95208Y211986D01*
X-95133Y211921D01*
X-95055Y211859D01*
X-94975Y211801D01*
X-94892Y211745D01*
X-94808Y211693D01*
X-94721Y211643D01*
X-94633Y211598D01*
X-94543Y211555D01*
X-94451Y211516D01*
X-94358Y211481D01*
X-94264Y211449D01*
X-94169Y211421D01*
X-94073Y211396D01*
X-93975Y211375D01*
X-93877Y211358D01*
X-93779Y211345D01*
X-93680Y211336D01*
X-93580Y211330D01*
X-93481Y211328D01*
X-92183Y211328D01*
X-101901Y211328D02*
X-101901Y223012D01*
X-105147Y223012D01*
X-105260Y223010D01*
X-105373Y223004D01*
X-105486Y222994D01*
X-105599Y222980D01*
X-105711Y222963D01*
X-105822Y222941D01*
X-105932Y222916D01*
X-106042Y222886D01*
X-106150Y222853D01*
X-106257Y222816D01*
X-106363Y222776D01*
X-106467Y222731D01*
X-106570Y222683D01*
X-106671Y222632D01*
X-106770Y222577D01*
X-106867Y222519D01*
X-106962Y222457D01*
X-107055Y222392D01*
X-107145Y222324D01*
X-107233Y222253D01*
X-107319Y222178D01*
X-107402Y222101D01*
X-107482Y222021D01*
X-107559Y221938D01*
X-107634Y221852D01*
X-107705Y221764D01*
X-107773Y221674D01*
X-107838Y221581D01*
X-107900Y221486D01*
X-107958Y221389D01*
X-108013Y221290D01*
X-108064Y221189D01*
X-108112Y221086D01*
X-108157Y220982D01*
X-108197Y220876D01*
X-108234Y220769D01*
X-108267Y220661D01*
X-108297Y220551D01*
X-108322Y220441D01*
X-108344Y220330D01*
X-108361Y220218D01*
X-108375Y220105D01*
X-108385Y219992D01*
X-108391Y219879D01*
X-108393Y219766D01*
X-108391Y219653D01*
X-108385Y219540D01*
X-108375Y219427D01*
X-108361Y219314D01*
X-108344Y219202D01*
X-108322Y219091D01*
X-108297Y218981D01*
X-108267Y218871D01*
X-108234Y218763D01*
X-108197Y218656D01*
X-108157Y218550D01*
X-108112Y218446D01*
X-108064Y218343D01*
X-108013Y218242D01*
X-107958Y218143D01*
X-107900Y218046D01*
X-107838Y217951D01*
X-107773Y217858D01*
X-107705Y217768D01*
X-107634Y217680D01*
X-107559Y217594D01*
X-107482Y217511D01*
X-107402Y217431D01*
X-107319Y217354D01*
X-107233Y217279D01*
X-107145Y217208D01*
X-107055Y217140D01*
X-106962Y217075D01*
X-106867Y217013D01*
X-106770Y216955D01*
X-106671Y216900D01*
X-106570Y216849D01*
X-106467Y216801D01*
X-106363Y216756D01*
X-106257Y216716D01*
X-106150Y216679D01*
X-106042Y216646D01*
X-105932Y216616D01*
X-105822Y216591D01*
X-105711Y216569D01*
X-105599Y216552D01*
X-105486Y216538D01*
X-105373Y216528D01*
X-105260Y216522D01*
X-105147Y216520D01*
X-105147Y216521D02*
X-101901Y216521D01*
X-112273Y211977D02*
X-112273Y211328D01*
X-112273Y211977D02*
X-112922Y211977D01*
X-112922Y211328D01*
X-112273Y211328D01*
X-117734Y211328D02*
X-117734Y223012D01*
X-117734Y217819D02*
X-124225Y217819D01*
X-124225Y223012D02*
X-124225Y211328D01*
X-129926Y214574D02*
X-129926Y223012D01*
X-129926Y214574D02*
X-129928Y214461D01*
X-129934Y214348D01*
X-129944Y214235D01*
X-129958Y214122D01*
X-129975Y214010D01*
X-129997Y213899D01*
X-130022Y213789D01*
X-130052Y213679D01*
X-130085Y213571D01*
X-130122Y213464D01*
X-130162Y213358D01*
X-130207Y213254D01*
X-130255Y213151D01*
X-130306Y213050D01*
X-130361Y212951D01*
X-130419Y212854D01*
X-130481Y212759D01*
X-130546Y212666D01*
X-130614Y212576D01*
X-130685Y212488D01*
X-130760Y212402D01*
X-130837Y212319D01*
X-130917Y212239D01*
X-131000Y212162D01*
X-131086Y212087D01*
X-131174Y212016D01*
X-131264Y211948D01*
X-131357Y211883D01*
X-131452Y211821D01*
X-131549Y211763D01*
X-131648Y211708D01*
X-131749Y211657D01*
X-131852Y211609D01*
X-131956Y211564D01*
X-132062Y211524D01*
X-132169Y211487D01*
X-132277Y211454D01*
X-132387Y211424D01*
X-132497Y211399D01*
X-132608Y211377D01*
X-132720Y211360D01*
X-132833Y211346D01*
X-132946Y211336D01*
X-133059Y211330D01*
X-133172Y211328D01*
X-133285Y211330D01*
X-133398Y211336D01*
X-133511Y211346D01*
X-133624Y211360D01*
X-133736Y211377D01*
X-133847Y211399D01*
X-133957Y211424D01*
X-134067Y211454D01*
X-134175Y211487D01*
X-134282Y211524D01*
X-134388Y211564D01*
X-134492Y211609D01*
X-134595Y211657D01*
X-134696Y211708D01*
X-134795Y211763D01*
X-134892Y211821D01*
X-134987Y211883D01*
X-135080Y211948D01*
X-135170Y212016D01*
X-135258Y212087D01*
X-135344Y212162D01*
X-135427Y212239D01*
X-135507Y212319D01*
X-135584Y212402D01*
X-135659Y212488D01*
X-135730Y212576D01*
X-135798Y212666D01*
X-135863Y212759D01*
X-135925Y212854D01*
X-135983Y212951D01*
X-136038Y213050D01*
X-136089Y213151D01*
X-136137Y213254D01*
X-136182Y213358D01*
X-136222Y213464D01*
X-136259Y213571D01*
X-136292Y213679D01*
X-136322Y213789D01*
X-136347Y213899D01*
X-136369Y214010D01*
X-136386Y214122D01*
X-136400Y214235D01*
X-136410Y214348D01*
X-136416Y214461D01*
X-136418Y214574D01*
X-136417Y214574D02*
X-136417Y223012D01*
X-142287Y217819D02*
X-145533Y217819D01*
X-145533Y217820D02*
X-145646Y217818D01*
X-145759Y217812D01*
X-145872Y217802D01*
X-145985Y217788D01*
X-146097Y217771D01*
X-146208Y217749D01*
X-146318Y217724D01*
X-146428Y217694D01*
X-146536Y217661D01*
X-146643Y217624D01*
X-146749Y217584D01*
X-146853Y217539D01*
X-146956Y217491D01*
X-147057Y217440D01*
X-147156Y217385D01*
X-147253Y217327D01*
X-147348Y217265D01*
X-147441Y217200D01*
X-147531Y217132D01*
X-147619Y217061D01*
X-147705Y216986D01*
X-147788Y216909D01*
X-147868Y216829D01*
X-147945Y216746D01*
X-148020Y216660D01*
X-148091Y216572D01*
X-148159Y216482D01*
X-148224Y216389D01*
X-148286Y216294D01*
X-148344Y216197D01*
X-148399Y216098D01*
X-148450Y215997D01*
X-148498Y215894D01*
X-148543Y215790D01*
X-148583Y215684D01*
X-148620Y215577D01*
X-148653Y215469D01*
X-148683Y215359D01*
X-148708Y215249D01*
X-148730Y215138D01*
X-148747Y215026D01*
X-148761Y214913D01*
X-148771Y214800D01*
X-148777Y214687D01*
X-148779Y214574D01*
X-148777Y214461D01*
X-148771Y214348D01*
X-148761Y214235D01*
X-148747Y214122D01*
X-148730Y214010D01*
X-148708Y213899D01*
X-148683Y213789D01*
X-148653Y213679D01*
X-148620Y213571D01*
X-148583Y213464D01*
X-148543Y213358D01*
X-148498Y213254D01*
X-148450Y213151D01*
X-148399Y213050D01*
X-148344Y212951D01*
X-148286Y212854D01*
X-148224Y212759D01*
X-148159Y212666D01*
X-148091Y212576D01*
X-148020Y212488D01*
X-147945Y212402D01*
X-147868Y212319D01*
X-147788Y212239D01*
X-147705Y212162D01*
X-147619Y212087D01*
X-147531Y212016D01*
X-147441Y211948D01*
X-147348Y211883D01*
X-147253Y211821D01*
X-147156Y211763D01*
X-147057Y211708D01*
X-146956Y211657D01*
X-146853Y211609D01*
X-146749Y211564D01*
X-146643Y211524D01*
X-146536Y211487D01*
X-146428Y211454D01*
X-146318Y211424D01*
X-146208Y211399D01*
X-146097Y211377D01*
X-145985Y211360D01*
X-145872Y211346D01*
X-145759Y211336D01*
X-145646Y211330D01*
X-145533Y211328D01*
X-142287Y211328D01*
X-142287Y223012D01*
X-145533Y223012D01*
X-145634Y223010D01*
X-145734Y223004D01*
X-145834Y222994D01*
X-145934Y222981D01*
X-146033Y222963D01*
X-146132Y222942D01*
X-146229Y222917D01*
X-146326Y222888D01*
X-146421Y222855D01*
X-146515Y222819D01*
X-146607Y222779D01*
X-146698Y222736D01*
X-146787Y222689D01*
X-146874Y222639D01*
X-146960Y222585D01*
X-147043Y222528D01*
X-147123Y222468D01*
X-147202Y222405D01*
X-147278Y222338D01*
X-147351Y222269D01*
X-147421Y222197D01*
X-147489Y222123D01*
X-147554Y222046D01*
X-147615Y221966D01*
X-147674Y221884D01*
X-147729Y221800D01*
X-147781Y221714D01*
X-147830Y221626D01*
X-147875Y221536D01*
X-147917Y221444D01*
X-147955Y221351D01*
X-147989Y221256D01*
X-148020Y221161D01*
X-148047Y221064D01*
X-148070Y220966D01*
X-148090Y220867D01*
X-148105Y220767D01*
X-148117Y220667D01*
X-148125Y220567D01*
X-148129Y220466D01*
X-148129Y220366D01*
X-148125Y220265D01*
X-148117Y220165D01*
X-148105Y220065D01*
X-148090Y219965D01*
X-148070Y219866D01*
X-148047Y219768D01*
X-148020Y219671D01*
X-147989Y219576D01*
X-147955Y219481D01*
X-147917Y219388D01*
X-147875Y219296D01*
X-147830Y219206D01*
X-147781Y219118D01*
X-147729Y219032D01*
X-147674Y218948D01*
X-147615Y218866D01*
X-147554Y218786D01*
X-147489Y218709D01*
X-147421Y218635D01*
X-147351Y218563D01*
X-147278Y218494D01*
X-147202Y218427D01*
X-147123Y218364D01*
X-147043Y218304D01*
X-146960Y218247D01*
X-146874Y218193D01*
X-146787Y218143D01*
X-146698Y218096D01*
X-146607Y218053D01*
X-146515Y218013D01*
X-146421Y217977D01*
X-146326Y217944D01*
X-146229Y217915D01*
X-146132Y217890D01*
X-146033Y217869D01*
X-145934Y217851D01*
X-145834Y217838D01*
X-145734Y217828D01*
X-145634Y217822D01*
X-145533Y217820D01*
X-152659Y211977D02*
X-152659Y211328D01*
X-152659Y211977D02*
X-153308Y211977D01*
X-153308Y211328D01*
X-152659Y211328D01*
X-160984Y211328D02*
X-157090Y223012D01*
X-164879Y223012D02*
X-160984Y211328D01*
X-169550Y211328D02*
X-169550Y223012D01*
X-172795Y223012D01*
X-172908Y223010D01*
X-173021Y223004D01*
X-173134Y222994D01*
X-173247Y222980D01*
X-173359Y222963D01*
X-173470Y222941D01*
X-173580Y222916D01*
X-173690Y222886D01*
X-173798Y222853D01*
X-173905Y222816D01*
X-174011Y222776D01*
X-174115Y222731D01*
X-174218Y222683D01*
X-174319Y222632D01*
X-174418Y222577D01*
X-174515Y222519D01*
X-174610Y222457D01*
X-174703Y222392D01*
X-174793Y222324D01*
X-174881Y222253D01*
X-174967Y222178D01*
X-175050Y222101D01*
X-175130Y222021D01*
X-175207Y221938D01*
X-175282Y221852D01*
X-175353Y221764D01*
X-175421Y221674D01*
X-175486Y221581D01*
X-175548Y221486D01*
X-175606Y221389D01*
X-175661Y221290D01*
X-175712Y221189D01*
X-175760Y221086D01*
X-175805Y220982D01*
X-175845Y220876D01*
X-175882Y220769D01*
X-175915Y220661D01*
X-175945Y220551D01*
X-175970Y220441D01*
X-175992Y220330D01*
X-176009Y220218D01*
X-176023Y220105D01*
X-176033Y219992D01*
X-176039Y219879D01*
X-176041Y219766D01*
X-176041Y214574D01*
X-176039Y214461D01*
X-176033Y214348D01*
X-176023Y214235D01*
X-176009Y214122D01*
X-175992Y214010D01*
X-175970Y213899D01*
X-175945Y213789D01*
X-175915Y213679D01*
X-175882Y213571D01*
X-175845Y213464D01*
X-175805Y213358D01*
X-175760Y213254D01*
X-175712Y213151D01*
X-175661Y213050D01*
X-175606Y212951D01*
X-175548Y212854D01*
X-175486Y212759D01*
X-175421Y212666D01*
X-175353Y212576D01*
X-175282Y212488D01*
X-175207Y212402D01*
X-175130Y212319D01*
X-175050Y212239D01*
X-174967Y212162D01*
X-174881Y212087D01*
X-174793Y212016D01*
X-174703Y211948D01*
X-174610Y211883D01*
X-174515Y211821D01*
X-174418Y211763D01*
X-174319Y211708D01*
X-174218Y211657D01*
X-174115Y211609D01*
X-174011Y211564D01*
X-173905Y211524D01*
X-173798Y211487D01*
X-173690Y211454D01*
X-173580Y211424D01*
X-173470Y211399D01*
X-173359Y211377D01*
X-173247Y211360D01*
X-173134Y211346D01*
X-173021Y211336D01*
X-172908Y211330D01*
X-172795Y211328D01*
X-169550Y211328D01*
X-181742Y211328D02*
X-181742Y223012D01*
X-184987Y223012D01*
X-185100Y223010D01*
X-185213Y223004D01*
X-185326Y222994D01*
X-185439Y222980D01*
X-185551Y222963D01*
X-185662Y222941D01*
X-185772Y222916D01*
X-185882Y222886D01*
X-185990Y222853D01*
X-186097Y222816D01*
X-186203Y222776D01*
X-186307Y222731D01*
X-186410Y222683D01*
X-186511Y222632D01*
X-186610Y222577D01*
X-186707Y222519D01*
X-186802Y222457D01*
X-186895Y222392D01*
X-186985Y222324D01*
X-187073Y222253D01*
X-187159Y222178D01*
X-187242Y222101D01*
X-187322Y222021D01*
X-187399Y221938D01*
X-187474Y221852D01*
X-187545Y221764D01*
X-187613Y221674D01*
X-187678Y221581D01*
X-187740Y221486D01*
X-187798Y221389D01*
X-187853Y221290D01*
X-187904Y221189D01*
X-187952Y221086D01*
X-187997Y220982D01*
X-188037Y220876D01*
X-188074Y220769D01*
X-188107Y220661D01*
X-188137Y220551D01*
X-188162Y220441D01*
X-188184Y220330D01*
X-188201Y220218D01*
X-188215Y220105D01*
X-188225Y219992D01*
X-188231Y219879D01*
X-188233Y219766D01*
X-188233Y214574D01*
X-188231Y214461D01*
X-188225Y214348D01*
X-188215Y214235D01*
X-188201Y214122D01*
X-188184Y214010D01*
X-188162Y213899D01*
X-188137Y213789D01*
X-188107Y213679D01*
X-188074Y213571D01*
X-188037Y213464D01*
X-187997Y213358D01*
X-187952Y213254D01*
X-187904Y213151D01*
X-187853Y213050D01*
X-187798Y212951D01*
X-187740Y212854D01*
X-187678Y212759D01*
X-187613Y212666D01*
X-187545Y212576D01*
X-187474Y212488D01*
X-187399Y212402D01*
X-187322Y212319D01*
X-187242Y212239D01*
X-187159Y212162D01*
X-187073Y212087D01*
X-186985Y212016D01*
X-186895Y211948D01*
X-186802Y211883D01*
X-186707Y211821D01*
X-186610Y211763D01*
X-186511Y211708D01*
X-186410Y211657D01*
X-186307Y211609D01*
X-186203Y211564D01*
X-186097Y211524D01*
X-185990Y211487D01*
X-185882Y211454D01*
X-185772Y211424D01*
X-185662Y211399D01*
X-185551Y211377D01*
X-185439Y211360D01*
X-185326Y211346D01*
X-185213Y211336D01*
X-185100Y211330D01*
X-184987Y211328D01*
X-181742Y211328D01*
D24*
X-228600Y25400D02*
X-228503Y23186D01*
X-228214Y20989D01*
X-227735Y18826D01*
X-227068Y16713D01*
X-226220Y14666D01*
X-225197Y12700D01*
X-224006Y10831D01*
X-222658Y9073D01*
X-221161Y7440D01*
X-219527Y5942D01*
X-217769Y4594D01*
X-215900Y3403D01*
X-213935Y2380D01*
X-211887Y1532D01*
X-209774Y865D01*
X-207611Y386D01*
X-205414Y97D01*
X-203200Y0D01*
X577850Y0D01*
X580174Y102D01*
X582481Y405D01*
X584753Y909D01*
X586972Y1608D01*
X589121Y2499D01*
X591185Y3573D01*
X593147Y4823D01*
X594993Y6240D01*
X596709Y7811D01*
X598280Y9527D01*
X599697Y11373D01*
X600947Y13335D01*
X602021Y15399D01*
X602912Y17548D01*
X603611Y19767D01*
X604115Y22039D01*
X604419Y24346D01*
X604520Y26670D01*
X604520Y602234D01*
X604444Y603983D01*
X604215Y605718D01*
X603836Y607427D01*
X603310Y609097D01*
X602640Y610714D01*
X601832Y612267D01*
X600891Y613743D01*
X599825Y615132D01*
X598643Y616423D01*
X597352Y617605D01*
X595963Y618671D01*
X594487Y619612D01*
X592934Y620420D01*
X591317Y621090D01*
X589647Y621616D01*
X587938Y621995D01*
X586203Y622224D01*
X584454Y622300D01*
X-203200Y622300D01*
X-205414Y622203D01*
X-207611Y621914D01*
X-209774Y621435D01*
X-211887Y620768D01*
X-213935Y619920D01*
X-215900Y618897D01*
X-217769Y617706D01*
X-219527Y616358D01*
X-221161Y614861D01*
X-222658Y613227D01*
X-224006Y611469D01*
X-225197Y609600D01*
X-226220Y607635D01*
X-227068Y605587D01*
X-227735Y603474D01*
X-228214Y601311D01*
X-228503Y599114D01*
X-228600Y596900D01*
X-228600Y25400D01*
M02*
