G04 EAGLE Gerber RS-274X export*
G75*
%MOMM*%
%FSLAX34Y34*%
%LPD*%
%INSoldermask Bottom*%
%IPPOS*%
%AMOC8*
5,1,8,0,0,1.08239X$1,22.5*%
G01*
%ADD10C,2.489200*%
%ADD11R,1.503200X1.253200*%
%ADD12R,0.503200X1.403200*%
%ADD13R,1.403200X0.503200*%
%ADD14R,0.703200X0.703200*%
%ADD15R,1.203200X1.153200*%
%ADD16R,1.153200X1.203200*%
%ADD17R,2.003200X1.203200*%
%ADD18R,1.503200X1.103200*%
%ADD19R,0.838200X1.473200*%
%ADD20R,1.473200X0.838200*%
%ADD21R,1.003200X1.103200*%
%ADD22R,1.353200X1.653200*%
%ADD23R,2.997200X1.701800*%
%ADD24C,1.193800*%
%ADD25C,2.578100*%
%ADD26R,0.823200X0.823200*%
%ADD27C,1.153200*%
%ADD28C,0.222334*%
%ADD29R,2.903200X2.903200*%
%ADD30R,2.489200X2.997200*%
%ADD31C,1.103200*%
%ADD32C,1.727200*%
%ADD33C,0.807200*%
%ADD34C,1.203200*%
%ADD35C,0.483200*%
%ADD36R,3.303200X3.303200*%
%ADD37R,1.530000X0.510000*%
%ADD38R,1.003200X1.003200*%
%ADD39R,1.603200X1.153200*%
%ADD40R,0.803200X0.903200*%
%ADD41R,0.510000X1.530000*%
%ADD42R,1.153200X1.603200*%
%ADD43R,0.903200X0.803200*%
%ADD44C,1.253200*%
%ADD45C,2.103200*%
%ADD46R,1.353200X1.603200*%
%ADD47C,0.657200*%
%ADD48C,0.254000*%


D10*
X25400Y25400D03*
X355600Y25400D03*
X355600Y419100D03*
X25400Y419100D03*
D11*
X240100Y276500D03*
X217100Y276500D03*
X217100Y295000D03*
X240100Y295000D03*
D12*
X70234Y245414D03*
X75234Y245414D03*
X80234Y245414D03*
X85234Y245414D03*
X90234Y245414D03*
X95234Y245414D03*
X100234Y245414D03*
X105234Y245414D03*
X110234Y245414D03*
X115234Y245414D03*
X120234Y245414D03*
X125234Y245414D03*
X130234Y245414D03*
X135234Y245414D03*
X140234Y245414D03*
X145234Y245414D03*
X150234Y245414D03*
X155234Y245414D03*
X160234Y245414D03*
X165234Y245414D03*
X170234Y245414D03*
X175234Y245414D03*
X180234Y245414D03*
X185234Y245414D03*
X190234Y245414D03*
X195234Y245414D03*
X200234Y245414D03*
X205234Y245414D03*
X210234Y245414D03*
X215234Y245414D03*
X220234Y245414D03*
X225234Y245414D03*
X230234Y245414D03*
X235234Y245414D03*
X240234Y245414D03*
X245234Y245414D03*
D13*
X265734Y224914D03*
X265734Y219914D03*
X265734Y214914D03*
X265734Y209914D03*
X265734Y204914D03*
X265734Y199914D03*
X265734Y194914D03*
X265734Y189914D03*
X265734Y184914D03*
X265734Y179914D03*
X265734Y174914D03*
X265734Y169914D03*
X265734Y164914D03*
X265734Y159914D03*
X265734Y154914D03*
X265734Y149914D03*
X265734Y144914D03*
X265734Y139914D03*
X265734Y134914D03*
X265734Y129914D03*
X265734Y124914D03*
X265734Y119914D03*
X265734Y114914D03*
X265734Y109914D03*
X265734Y104914D03*
X265734Y99914D03*
X265734Y94914D03*
X265734Y89914D03*
X265734Y84914D03*
X265734Y79914D03*
X265734Y74914D03*
X265734Y69914D03*
X265734Y64914D03*
X265734Y59914D03*
X265734Y54914D03*
X265734Y49914D03*
D12*
X245234Y29414D03*
X240234Y29414D03*
X235234Y29414D03*
X230234Y29414D03*
X225234Y29414D03*
X220234Y29414D03*
X215234Y29414D03*
X210234Y29414D03*
X205234Y29414D03*
X200234Y29414D03*
X195234Y29414D03*
X190234Y29414D03*
X185234Y29414D03*
X180234Y29414D03*
X175234Y29414D03*
X170234Y29414D03*
X165234Y29414D03*
X160234Y29414D03*
X155234Y29414D03*
X150234Y29414D03*
X145234Y29414D03*
X140234Y29414D03*
X135234Y29414D03*
X130234Y29414D03*
X125234Y29414D03*
X120234Y29414D03*
X115234Y29414D03*
X110234Y29414D03*
X105234Y29414D03*
X100234Y29414D03*
X95234Y29414D03*
X90234Y29414D03*
X85234Y29414D03*
X80234Y29414D03*
X75234Y29414D03*
X70234Y29414D03*
D13*
X49734Y49914D03*
X49734Y54914D03*
X49734Y59914D03*
X49734Y64914D03*
X49734Y69914D03*
X49734Y74914D03*
X49734Y79914D03*
X49734Y84914D03*
X49734Y89914D03*
X49734Y94914D03*
X49734Y99914D03*
X49734Y104914D03*
X49734Y109914D03*
X49734Y114914D03*
X49734Y119914D03*
X49734Y124914D03*
X49734Y129914D03*
X49734Y134914D03*
X49734Y139914D03*
X49734Y144914D03*
X49734Y149914D03*
X49734Y154914D03*
X49734Y159914D03*
X49734Y164914D03*
X49734Y169914D03*
X49734Y174914D03*
X49734Y179914D03*
X49734Y184914D03*
X49734Y189914D03*
X49734Y194914D03*
X49734Y199914D03*
X49734Y204914D03*
X49734Y209914D03*
X49734Y214914D03*
X49734Y219914D03*
X49734Y224914D03*
D14*
X299974Y272216D03*
X299974Y263216D03*
D15*
X279908Y264542D03*
X279908Y280542D03*
D16*
X318644Y129540D03*
X334644Y129540D03*
D15*
X333502Y167004D03*
X333502Y151004D03*
D17*
X308102Y171504D03*
X308102Y146504D03*
D18*
X327152Y212954D03*
X327152Y193954D03*
D14*
X295402Y230704D03*
X295402Y239704D03*
X282702Y230704D03*
X282702Y239704D03*
D19*
X297688Y209804D03*
X305816Y209804D03*
D20*
X520700Y14986D03*
X520700Y23114D03*
X514350Y421386D03*
X514350Y429514D03*
D19*
X410464Y539750D03*
X402336Y539750D03*
D20*
X520700Y180086D03*
X520700Y188214D03*
X463550Y376936D03*
X463550Y385064D03*
D21*
X485800Y391000D03*
X504800Y391000D03*
X495300Y371000D03*
D22*
X485250Y412750D03*
X467250Y412750D03*
D23*
X381000Y284480D03*
X381000Y337820D03*
D24*
X-69850Y158750D03*
X-80000Y209550D03*
X-59700Y209550D03*
D25*
X-95250Y158750D03*
X-95250Y190500D03*
X-44450Y190500D03*
X-44450Y158750D03*
D14*
X-120650Y131500D03*
X-120650Y122500D03*
X-95250Y122500D03*
X-95250Y131500D03*
X-69850Y122500D03*
X-69850Y131500D03*
D20*
X185420Y283464D03*
X185420Y275336D03*
X185420Y309626D03*
X185420Y301498D03*
D14*
X133350Y440000D03*
X133350Y449000D03*
X39950Y476250D03*
X48950Y476250D03*
X39950Y463550D03*
X48950Y463550D03*
X133350Y490800D03*
X133350Y499800D03*
X133350Y474400D03*
X133350Y465400D03*
D26*
X107950Y503500D03*
X107950Y512500D03*
D27*
X-33796Y600202D03*
X-3796Y600202D03*
D28*
X110845Y474755D02*
X118755Y474755D01*
X118755Y472345D01*
X110845Y472345D01*
X110845Y474755D01*
X110845Y474457D02*
X118755Y474457D01*
X118755Y469755D02*
X110845Y469755D01*
X118755Y469755D02*
X118755Y467345D01*
X110845Y467345D01*
X110845Y469755D01*
X110845Y469457D02*
X118755Y469457D01*
X118755Y464755D02*
X110845Y464755D01*
X118755Y464755D02*
X118755Y462345D01*
X110845Y462345D01*
X110845Y464755D01*
X110845Y464457D02*
X118755Y464457D01*
X118755Y459755D02*
X110845Y459755D01*
X118755Y459755D02*
X118755Y457345D01*
X110845Y457345D01*
X110845Y459755D01*
X110845Y459457D02*
X118755Y459457D01*
X118755Y454755D02*
X110845Y454755D01*
X118755Y454755D02*
X118755Y452345D01*
X110845Y452345D01*
X110845Y454755D01*
X110845Y454457D02*
X118755Y454457D01*
X106455Y447955D02*
X106455Y440045D01*
X104045Y440045D01*
X104045Y447955D01*
X106455Y447955D01*
X106455Y442157D02*
X104045Y442157D01*
X104045Y444269D02*
X106455Y444269D01*
X106455Y446381D02*
X104045Y446381D01*
X101455Y447955D02*
X101455Y440045D01*
X99045Y440045D01*
X99045Y447955D01*
X101455Y447955D01*
X101455Y442157D02*
X99045Y442157D01*
X99045Y444269D02*
X101455Y444269D01*
X101455Y446381D02*
X99045Y446381D01*
X96455Y447955D02*
X96455Y440045D01*
X94045Y440045D01*
X94045Y447955D01*
X96455Y447955D01*
X96455Y442157D02*
X94045Y442157D01*
X94045Y444269D02*
X96455Y444269D01*
X96455Y446381D02*
X94045Y446381D01*
X91455Y447955D02*
X91455Y440045D01*
X89045Y440045D01*
X89045Y447955D01*
X91455Y447955D01*
X91455Y442157D02*
X89045Y442157D01*
X89045Y444269D02*
X91455Y444269D01*
X91455Y446381D02*
X89045Y446381D01*
X86455Y447955D02*
X86455Y440045D01*
X84045Y440045D01*
X84045Y447955D01*
X86455Y447955D01*
X86455Y442157D02*
X84045Y442157D01*
X84045Y444269D02*
X86455Y444269D01*
X86455Y446381D02*
X84045Y446381D01*
X79655Y452345D02*
X71745Y452345D01*
X71745Y454755D01*
X79655Y454755D01*
X79655Y452345D01*
X79655Y454457D02*
X71745Y454457D01*
X71745Y457345D02*
X79655Y457345D01*
X71745Y457345D02*
X71745Y459755D01*
X79655Y459755D01*
X79655Y457345D01*
X79655Y459457D02*
X71745Y459457D01*
X71745Y462345D02*
X79655Y462345D01*
X71745Y462345D02*
X71745Y464755D01*
X79655Y464755D01*
X79655Y462345D01*
X79655Y464457D02*
X71745Y464457D01*
X71745Y467345D02*
X79655Y467345D01*
X71745Y467345D02*
X71745Y469755D01*
X79655Y469755D01*
X79655Y467345D01*
X79655Y469457D02*
X71745Y469457D01*
X71745Y472345D02*
X79655Y472345D01*
X71745Y472345D02*
X71745Y474755D01*
X79655Y474755D01*
X79655Y472345D01*
X79655Y474457D02*
X71745Y474457D01*
X84045Y479145D02*
X84045Y487055D01*
X86455Y487055D01*
X86455Y479145D01*
X84045Y479145D01*
X84045Y481257D02*
X86455Y481257D01*
X86455Y483369D02*
X84045Y483369D01*
X84045Y485481D02*
X86455Y485481D01*
X89045Y487055D02*
X89045Y479145D01*
X89045Y487055D02*
X91455Y487055D01*
X91455Y479145D01*
X89045Y479145D01*
X89045Y481257D02*
X91455Y481257D01*
X91455Y483369D02*
X89045Y483369D01*
X89045Y485481D02*
X91455Y485481D01*
X94045Y487055D02*
X94045Y479145D01*
X94045Y487055D02*
X96455Y487055D01*
X96455Y479145D01*
X94045Y479145D01*
X94045Y481257D02*
X96455Y481257D01*
X96455Y483369D02*
X94045Y483369D01*
X94045Y485481D02*
X96455Y485481D01*
X99045Y487055D02*
X99045Y479145D01*
X99045Y487055D02*
X101455Y487055D01*
X101455Y479145D01*
X99045Y479145D01*
X99045Y481257D02*
X101455Y481257D01*
X101455Y483369D02*
X99045Y483369D01*
X99045Y485481D02*
X101455Y485481D01*
X104045Y487055D02*
X104045Y479145D01*
X104045Y487055D02*
X106455Y487055D01*
X106455Y479145D01*
X104045Y479145D01*
X104045Y481257D02*
X106455Y481257D01*
X106455Y483369D02*
X104045Y483369D01*
X104045Y485481D02*
X106455Y485481D01*
D29*
X95250Y463550D03*
D30*
X36690Y520700D03*
X77610Y520700D03*
D26*
X48950Y488950D03*
X39950Y488950D03*
D16*
X214250Y317500D03*
X230250Y317500D03*
D15*
X260350Y277750D03*
X260350Y293750D03*
D22*
X311802Y235204D03*
X329802Y235204D03*
X285606Y312166D03*
X267606Y312166D03*
D26*
X305998Y187198D03*
X296998Y187198D03*
D14*
X301752Y131754D03*
X301752Y122754D03*
D31*
X-31496Y8526D03*
X-31496Y26526D03*
D32*
X-127000Y19050D03*
X-152400Y19050D03*
X-76200Y19050D03*
X-101600Y19050D03*
X-177800Y19050D03*
X-203200Y19050D03*
D20*
X-120650Y53086D03*
X-120650Y61214D03*
D33*
X-119100Y397450D03*
X-126100Y401450D03*
X-126100Y409450D03*
X-119100Y405450D03*
X-119100Y413450D03*
X-126100Y417450D03*
X-119100Y421450D03*
X-119100Y429450D03*
X-126100Y433450D03*
X-119100Y437450D03*
X-126100Y441450D03*
X-126100Y449450D03*
X-119100Y445450D03*
X-119100Y453450D03*
D34*
X-125600Y468150D02*
X-135600Y468150D01*
X-135600Y382750D02*
X-125600Y382750D01*
X-172900Y382750D02*
X-182900Y382750D01*
X-182900Y468150D02*
X-172900Y468150D01*
D35*
X-80250Y260350D02*
X-80250Y254250D01*
X-85250Y254250D02*
X-85250Y260350D01*
X-90250Y260350D02*
X-90250Y254250D01*
X-95250Y254250D02*
X-95250Y260350D01*
X-100250Y260350D02*
X-100250Y254250D01*
X-105250Y254250D02*
X-105250Y260350D01*
X-110250Y260350D02*
X-110250Y254250D01*
X-114300Y264400D02*
X-120400Y264400D01*
X-120400Y269400D02*
X-114300Y269400D01*
X-114300Y274400D02*
X-120400Y274400D01*
X-120400Y279400D02*
X-114300Y279400D01*
X-114300Y284400D02*
X-120400Y284400D01*
X-120400Y289400D02*
X-114300Y289400D01*
X-114300Y294400D02*
X-120400Y294400D01*
X-110250Y298450D02*
X-110250Y304550D01*
X-105250Y304550D02*
X-105250Y298450D01*
X-100250Y298450D02*
X-100250Y304550D01*
X-95250Y304550D02*
X-95250Y298450D01*
X-90250Y298450D02*
X-90250Y304550D01*
X-85250Y304550D02*
X-85250Y298450D01*
X-80250Y298450D02*
X-80250Y304550D01*
X-76200Y294400D02*
X-70100Y294400D01*
X-70100Y289400D02*
X-76200Y289400D01*
X-76200Y284400D02*
X-70100Y284400D01*
X-70100Y279400D02*
X-76200Y279400D01*
X-76200Y274400D02*
X-70100Y274400D01*
X-70100Y269400D02*
X-76200Y269400D01*
X-76200Y264400D02*
X-70100Y264400D01*
D36*
X-95250Y279400D03*
D14*
X-135200Y279400D03*
X-144200Y279400D03*
X-129976Y239268D03*
X-120976Y239268D03*
X-45212Y338002D03*
X-45212Y329002D03*
X-57404Y329002D03*
X-57404Y338002D03*
D26*
X-103450Y495300D03*
X-112450Y495300D03*
X-106100Y330200D03*
X-97100Y330200D03*
D14*
X-50800Y253310D03*
X-50800Y262310D03*
D26*
X-48950Y234950D03*
X-39950Y234950D03*
X-135200Y266700D03*
X-144200Y266700D03*
X-135200Y317500D03*
X-144200Y317500D03*
X-70104Y329002D03*
X-70104Y338002D03*
X-8128Y275408D03*
X-8128Y284408D03*
X-8382Y305744D03*
X-8382Y296744D03*
D14*
X-120142Y339018D03*
X-120142Y330018D03*
X-82804Y329002D03*
X-82804Y338002D03*
X-144200Y298450D03*
X-135200Y298450D03*
D37*
X308300Y530300D03*
X308300Y523800D03*
X352300Y523800D03*
X352300Y530300D03*
X308300Y536800D03*
X352300Y536800D03*
X308300Y517300D03*
X352300Y517300D03*
D14*
X369570Y465400D03*
X369570Y474400D03*
D38*
X279400Y519550D03*
X279400Y534550D03*
D26*
X325700Y558800D03*
X334700Y558800D03*
D39*
X290400Y479400D03*
X290400Y460400D03*
X268400Y469900D03*
D40*
X339700Y459900D03*
X320700Y459900D03*
X330200Y479900D03*
D38*
X381000Y532250D03*
X381000Y547250D03*
D26*
X376500Y514350D03*
X385500Y514350D03*
D41*
X511250Y529900D03*
X504750Y529900D03*
X504750Y485900D03*
X511250Y485900D03*
X517750Y529900D03*
X517750Y485900D03*
X498250Y529900D03*
X498250Y485900D03*
D14*
X440000Y462280D03*
X449000Y462280D03*
D38*
X500500Y558800D03*
X515500Y558800D03*
D26*
X539750Y512500D03*
X539750Y503500D03*
D42*
X454000Y528750D03*
X435000Y528750D03*
X444500Y550750D03*
D43*
X434500Y479450D03*
X434500Y498450D03*
X454500Y488950D03*
D38*
X500500Y457200D03*
X515500Y457200D03*
D26*
X476250Y474400D03*
X476250Y465400D03*
D41*
X517600Y288600D03*
X511100Y288600D03*
X511100Y244600D03*
X517600Y244600D03*
X524100Y288600D03*
X524100Y244600D03*
X504600Y288600D03*
X504600Y244600D03*
D14*
X459050Y214630D03*
X468050Y214630D03*
D38*
X506850Y317500D03*
X521850Y317500D03*
D26*
X552450Y271200D03*
X552450Y262200D03*
D42*
X473050Y281100D03*
X454050Y281100D03*
X463550Y303100D03*
D43*
X453550Y238150D03*
X453550Y257150D03*
X473550Y247650D03*
D38*
X519550Y215900D03*
X534550Y215900D03*
D26*
X501650Y220400D03*
X501650Y211400D03*
D41*
X511250Y110800D03*
X504750Y110800D03*
X504750Y66800D03*
X511250Y66800D03*
X517750Y110800D03*
X517750Y66800D03*
X498250Y110800D03*
X498250Y66800D03*
D14*
X446350Y36830D03*
X455350Y36830D03*
D38*
X506850Y133350D03*
X521850Y133350D03*
D26*
X534670Y93146D03*
X534670Y84146D03*
D42*
X460350Y116000D03*
X441350Y116000D03*
X450850Y138000D03*
D43*
X440850Y66700D03*
X440850Y85700D03*
X460850Y76200D03*
D38*
X506850Y44450D03*
X521850Y44450D03*
D26*
X488950Y48950D03*
X488950Y39950D03*
D44*
X-165600Y181000D03*
X-165600Y136500D03*
D45*
X-196850Y203750D03*
X-196850Y113750D03*
D44*
X-165600Y327050D03*
X-165600Y282550D03*
D45*
X-196850Y349800D03*
X-196850Y259800D03*
D20*
X5588Y224536D03*
X5588Y216408D03*
X5588Y208280D03*
X20320Y256032D03*
X20320Y247904D03*
X20320Y239776D03*
X5588Y161036D03*
X5588Y152908D03*
X5588Y144780D03*
X11938Y192786D03*
X11938Y184658D03*
X11938Y176530D03*
D46*
X-23750Y281100D03*
X-39750Y281100D03*
X-39750Y303100D03*
X-23750Y303100D03*
D31*
X412242Y8018D03*
X412242Y26018D03*
D20*
X-152400Y53086D03*
X-152400Y61214D03*
X-184150Y53086D03*
X-184150Y61214D03*
X13970Y287782D03*
X13970Y279654D03*
X13970Y271526D03*
D14*
X-57404Y295838D03*
X-57404Y286838D03*
D20*
X-88646Y231902D03*
X-88646Y240030D03*
D47*
X42672Y497840D03*
X381000Y29972D03*
X209550Y463550D03*
X234950Y469900D03*
X171450Y508000D03*
X241300Y508000D03*
X196850Y539750D03*
X158750Y565150D03*
X127000Y565150D03*
X190500Y609600D03*
X120650Y609600D03*
X76200Y609600D03*
X38100Y609600D03*
X82550Y565150D03*
X38100Y565150D03*
X-6350Y565150D03*
X-19050Y603504D03*
X-57150Y603250D03*
X-57150Y565150D03*
X-101600Y609600D03*
X-57150Y508000D03*
X-6350Y527050D03*
X12700Y463550D03*
X12700Y508000D03*
X63500Y495300D03*
X63500Y476250D03*
X120650Y501650D03*
X114300Y425450D03*
X165100Y412750D03*
X188214Y409702D03*
X219964Y403352D03*
X204216Y368046D03*
X209550Y336550D03*
X203200Y285750D03*
X203200Y317500D03*
X247650Y317500D03*
X254000Y260350D03*
X222250Y260350D03*
X234950Y190500D03*
X215900Y171450D03*
X171450Y171450D03*
X127000Y171450D03*
X88900Y171450D03*
X63500Y171450D03*
X70358Y125476D03*
X127000Y133350D03*
X127000Y95250D03*
X69850Y95250D03*
X93218Y44704D03*
X190500Y50800D03*
X196850Y69850D03*
X228600Y69850D03*
X215900Y107950D03*
X203200Y127000D03*
X285750Y57150D03*
X311150Y57150D03*
X336550Y57150D03*
X349250Y69850D03*
X349250Y88900D03*
X311150Y76200D03*
X285750Y76200D03*
X311150Y101600D03*
X285750Y19050D03*
X311150Y19050D03*
X336550Y19050D03*
X19050Y44450D03*
X-12700Y44450D03*
X-63500Y44450D03*
X-63500Y63500D03*
X-12700Y63500D03*
X-63500Y101600D03*
X-88900Y69850D03*
X-104648Y86106D03*
X-209550Y50800D03*
X-168402Y50800D03*
X-171450Y82550D03*
X-209550Y82550D03*
X-209550Y101600D03*
X-171450Y101600D03*
X-196850Y146050D03*
X-196850Y171450D03*
X-196850Y292100D03*
X-196850Y317500D03*
X-209550Y228600D03*
X-171450Y228600D03*
X-177800Y254000D03*
X-158750Y254000D03*
X-127000Y228600D03*
X-127000Y203200D03*
X-95250Y209550D03*
X-38100Y209550D03*
X-19050Y190500D03*
X-19050Y171450D03*
X-6350Y133350D03*
X-31750Y107950D03*
X6350Y107950D03*
X82550Y215900D03*
X57150Y234950D03*
X31750Y196850D03*
X31750Y222250D03*
X-31750Y260350D03*
X-6350Y260350D03*
X-146050Y342900D03*
X-127000Y361950D03*
X-165100Y361950D03*
X-88900Y400050D03*
X-76200Y393700D03*
X-48514Y393700D03*
X-48260Y412750D03*
X-69850Y419100D03*
X-88900Y444500D03*
X-25400Y438150D03*
X-88900Y469900D03*
X-88900Y508000D03*
X-146050Y482600D03*
X-190500Y482600D03*
X-184150Y546100D03*
X-120650Y508000D03*
X-120650Y565150D03*
X-120650Y533400D03*
X330200Y361950D03*
X342900Y323850D03*
X311150Y381000D03*
X292100Y400050D03*
X273050Y419100D03*
X323850Y425450D03*
X355600Y393700D03*
X349250Y146050D03*
X349250Y190500D03*
X349250Y228600D03*
X349250Y260350D03*
X342900Y298450D03*
X311150Y323850D03*
X311150Y292100D03*
X292100Y279400D03*
X273558Y326898D03*
X184150Y368300D03*
X234950Y596900D03*
X234950Y577850D03*
X241300Y546100D03*
X165100Y482600D03*
X177800Y463550D03*
X209550Y520700D03*
X222250Y508000D03*
X146050Y419100D03*
X165100Y374650D03*
X128524Y364744D03*
X154686Y269240D03*
X123190Y268986D03*
X120650Y292100D03*
X158750Y292100D03*
X57150Y260350D03*
X82550Y260350D03*
X101600Y95250D03*
X63500Y31750D03*
X61976Y53594D03*
X-86106Y123444D03*
X-71628Y112776D03*
X-109220Y134366D03*
X185166Y521970D03*
X214884Y491744D03*
X292100Y146050D03*
X292100Y127000D03*
X-34036Y62484D03*
X281940Y193802D03*
X261874Y34036D03*
X-108966Y319786D03*
X-89916Y319786D03*
X-63754Y246888D03*
X-56896Y254000D03*
X279400Y120650D03*
X-121666Y313436D03*
X-151384Y309118D03*
X-74676Y346456D03*
X252476Y178816D03*
X251968Y112522D03*
X-60706Y276860D03*
X-104902Y248412D03*
X-52070Y303530D03*
X-95250Y362204D03*
X95250Y122158D03*
X32496Y165608D03*
X95250Y116348D03*
X26686Y165608D03*
X252476Y38608D03*
X-25400Y457200D03*
X-50800Y419100D03*
X-82550Y412750D03*
X114300Y400050D03*
X132080Y423926D03*
X312420Y212852D03*
X285496Y289560D03*
X-110744Y70104D03*
X-49276Y279908D03*
X-111252Y246126D03*
X275336Y214376D03*
X275336Y255524D03*
X33020Y94996D03*
X201168Y225552D03*
X275336Y145796D03*
X227584Y123952D03*
X135636Y193548D03*
X250444Y29464D03*
X220472Y51308D03*
X213868Y79248D03*
X275336Y129032D03*
X247904Y132080D03*
X239776Y127000D03*
X275336Y104140D03*
X252476Y127000D03*
X84328Y141732D03*
X37084Y141732D03*
X114808Y227076D03*
X491744Y61468D03*
X366776Y42672D03*
X209550Y400050D03*
X441965Y288285D03*
X448564Y149606D03*
X488279Y127230D03*
X485394Y537464D03*
X450850Y50800D03*
X470602Y62798D03*
X480060Y112014D03*
X488440Y240405D03*
X488696Y288544D03*
X287701Y501325D03*
X336550Y501650D03*
X460248Y464820D03*
X260350Y450850D03*
X304800Y463550D03*
X358394Y471424D03*
X387350Y463550D03*
X374650Y482600D03*
X387350Y501650D03*
X400050Y482600D03*
X327660Y523748D03*
X326390Y536702D03*
X260350Y508000D03*
X260350Y546100D03*
X260350Y584200D03*
X285750Y584200D03*
X285750Y546100D03*
X311150Y546100D03*
X311150Y584200D03*
X355600Y584200D03*
X355600Y546100D03*
X371602Y539750D03*
X387350Y565150D03*
X425450Y584200D03*
X463550Y584200D03*
X514350Y584200D03*
X565150Y584200D03*
X463550Y558800D03*
X463550Y527050D03*
X463550Y501650D03*
X444500Y508000D03*
X419100Y457200D03*
X419100Y425450D03*
X419100Y393700D03*
X419100Y361950D03*
X444500Y361950D03*
X438150Y393700D03*
X438150Y425450D03*
X450850Y425450D03*
X476250Y425450D03*
X450850Y393700D03*
X469900Y355600D03*
X488950Y330200D03*
X476250Y317500D03*
X442214Y309118D03*
X403098Y258572D03*
X409448Y201422D03*
X403098Y163322D03*
X403098Y131572D03*
X403098Y93472D03*
X403098Y55372D03*
X447548Y10922D03*
X479298Y10922D03*
X460248Y23622D03*
X493522Y32004D03*
X580898Y10922D03*
X580898Y49022D03*
X536448Y49022D03*
X536448Y74422D03*
X580898Y74422D03*
X555498Y87122D03*
X523748Y87122D03*
X493522Y88646D03*
X466598Y87122D03*
X504698Y87122D03*
X447548Y93472D03*
X530352Y122428D03*
X529844Y112268D03*
X558546Y108458D03*
X558546Y127508D03*
X580898Y118872D03*
X580898Y156972D03*
X555498Y156972D03*
X517398Y156972D03*
X485648Y156972D03*
X460248Y176022D03*
X491998Y176022D03*
X479298Y195072D03*
X495300Y203454D03*
X549148Y191008D03*
X511048Y203708D03*
X555498Y207772D03*
X555498Y233172D03*
X555498Y252222D03*
X580898Y252222D03*
X580898Y233172D03*
X580898Y207772D03*
X536448Y233172D03*
X523748Y271272D03*
X460248Y245872D03*
X434848Y245872D03*
X415798Y283972D03*
X498348Y309372D03*
X543560Y287020D03*
X562610Y306070D03*
X581660Y280670D03*
X588010Y318770D03*
X588010Y350520D03*
X556260Y344170D03*
X530860Y344170D03*
X524510Y375920D03*
X499110Y363220D03*
X549910Y401320D03*
X549910Y420370D03*
X530860Y420370D03*
X571246Y418846D03*
X571246Y463296D03*
X571246Y488696D03*
X571246Y507746D03*
X577596Y526796D03*
X577596Y558546D03*
X552196Y533146D03*
X526796Y539496D03*
X470408Y530860D03*
X466344Y490220D03*
X538988Y466852D03*
X469900Y450850D03*
X528574Y508000D03*
X524002Y519684D03*
X469138Y469646D03*
X439420Y329438D03*
X488950Y25400D03*
X500888Y28194D03*
X164576Y344424D03*
X163949Y358513D03*
X224282Y560070D03*
X209804Y574802D03*
X483616Y143002D03*
X435594Y144018D03*
X431800Y139700D03*
X488696Y135890D03*
X497327Y243327D03*
X345857Y38624D03*
X450342Y210058D03*
X406400Y209550D03*
X508000Y304800D03*
X212725Y384175D03*
X463337Y209337D03*
X504698Y190500D03*
X565150Y148606D03*
X587248Y149860D03*
X160782Y333756D03*
X160274Y354330D03*
X226060Y541528D03*
X214376Y551942D03*
X482854Y267716D03*
X507238Y274066D03*
X508000Y496790D03*
X337803Y36592D03*
X431006Y279400D03*
X431800Y339344D03*
X431038Y354838D03*
X470662Y537718D03*
X488950Y552450D03*
X216654Y380246D03*
X431800Y558800D03*
X412750Y444500D03*
X441960Y454660D03*
X552450Y431800D03*
X156194Y338328D03*
X156194Y359918D03*
X224790Y549656D03*
X216424Y558546D03*
X329020Y105786D03*
X523286Y492869D03*
X515171Y508000D03*
X501650Y514350D03*
X360426Y107950D03*
X495300Y438150D03*
X340725Y517398D03*
X332232Y34560D03*
X453390Y305816D03*
X453390Y343424D03*
X380238Y493776D03*
X355600Y457438D03*
X425450Y353044D03*
X425450Y339344D03*
X425450Y279400D03*
X272542Y502412D03*
X222250Y381000D03*
X400050Y514350D03*
X412750Y571500D03*
X152400Y342900D03*
X152400Y355600D03*
X419624Y339597D03*
X280114Y463552D03*
X311150Y488950D03*
X333248Y109982D03*
X449596Y317230D03*
X447834Y343408D03*
X514350Y406400D03*
X412750Y527050D03*
X514350Y355600D03*
X204922Y384612D03*
X445802Y337852D03*
X194564Y400812D03*
X173736Y379984D03*
X173736Y333248D03*
X149352Y259080D03*
X22860Y118364D03*
X206756Y429768D03*
X297688Y359156D03*
X252984Y84836D03*
X169672Y50292D03*
X113284Y39116D03*
X205232Y411480D03*
X287528Y355092D03*
X252984Y90424D03*
X164084Y50292D03*
X118872Y39116D03*
X210820Y425704D03*
X297180Y351028D03*
X252984Y96012D03*
X160020Y54864D03*
X124460Y39116D03*
X210820Y408940D03*
X198628Y363728D03*
X180848Y340360D03*
X-95504Y376428D03*
X169672Y313944D03*
X-38100Y329184D03*
X202184Y403860D03*
X194564Y354076D03*
X184912Y344424D03*
X35560Y157480D03*
X173736Y255016D03*
X237490Y401320D03*
X258064Y351028D03*
X240792Y139192D03*
X144272Y55880D03*
X59436Y72644D03*
X233172Y405892D03*
X254000Y355092D03*
X245872Y152400D03*
X149860Y55880D03*
X63500Y68580D03*
X251968Y101600D03*
X155956Y50800D03*
X71120Y53340D03*
X131826Y324612D03*
X127897Y328541D03*
X509111Y472871D03*
X482310Y38100D03*
X502553Y78881D03*
X482600Y215900D03*
X498602Y263906D03*
X495122Y216078D03*
X361950Y488950D03*
X361950Y508000D03*
X420624Y192532D03*
X341376Y523240D03*
X497332Y396240D03*
X424688Y499364D03*
X454660Y469392D03*
X575564Y296164D03*
X246380Y157988D03*
X131064Y48260D03*
X131064Y40640D03*
X195580Y11176D03*
X391160Y172482D03*
X-124968Y110236D03*
X202184Y268732D03*
X-106680Y213868D03*
X-107188Y110744D03*
X99060Y129032D03*
X-70104Y201168D03*
X-61468Y145796D03*
X198628Y263652D03*
X-83312Y109220D03*
X182372Y255016D03*
X39624Y161544D03*
X190500Y6350D03*
X387096Y180086D03*
X99822Y493014D03*
X124206Y463550D03*
X54356Y448056D03*
X109728Y437388D03*
X463550Y354330D03*
X127000Y406400D03*
X416306Y314960D03*
X101600Y393700D03*
X114300Y482600D03*
X275336Y182372D03*
X-43688Y85344D03*
X-43688Y117348D03*
X-1762Y431800D03*
X3794Y431800D03*
X-50800Y406400D03*
X-69850Y406400D03*
X-95250Y417950D03*
X-76200Y444229D03*
X-63500Y463550D03*
X-95250Y428228D03*
X-88900Y422672D03*
X-37592Y351028D03*
X-52832Y351028D03*
X-99060Y323088D03*
X333190Y495300D03*
X304800Y469900D03*
X288798Y507238D03*
X482600Y492310D03*
X492460Y537718D03*
X444500Y520700D03*
X482630Y241270D03*
X473710Y265684D03*
X463550Y279400D03*
X497332Y289306D03*
X479552Y85090D03*
X490982Y111252D03*
X457200Y101600D03*
X-151638Y287580D03*
X-153392Y280461D03*
X-57912Y461772D03*
X-133350Y171180D03*
X-133350Y165370D03*
X-762Y171958D03*
X-762Y191008D03*
X-54610Y228854D03*
X7620Y235204D03*
X-60166Y228600D03*
X-4064Y208280D03*
X-68604Y229846D03*
X-3318Y166302D03*
X-72787Y226171D03*
X11938Y167497D03*
D33*
X-12954Y406400D03*
X-15690Y444304D03*
D47*
X254000Y215392D03*
X23876Y274828D03*
X-63500Y263398D03*
X-90170Y248920D03*
X-115824Y300736D03*
X-80772Y309372D03*
X-123460Y260833D03*
D48*
X-228600Y25400D02*
X-228503Y23186D01*
X-228214Y20989D01*
X-227735Y18826D01*
X-227068Y16713D01*
X-226220Y14666D01*
X-225197Y12700D01*
X-224006Y10831D01*
X-222658Y9073D01*
X-221161Y7440D01*
X-219527Y5942D01*
X-217769Y4594D01*
X-215900Y3403D01*
X-213935Y2380D01*
X-211887Y1532D01*
X-209774Y865D01*
X-207611Y386D01*
X-205414Y97D01*
X-203200Y0D01*
X577850Y0D01*
X580174Y102D01*
X582481Y405D01*
X584753Y909D01*
X586972Y1608D01*
X589121Y2499D01*
X591185Y3573D01*
X593147Y4823D01*
X594993Y6240D01*
X596709Y7811D01*
X598280Y9527D01*
X599697Y11373D01*
X600947Y13335D01*
X602021Y15399D01*
X602912Y17548D01*
X603611Y19767D01*
X604115Y22039D01*
X604419Y24346D01*
X604520Y26670D01*
X604520Y602234D01*
X604444Y603983D01*
X604215Y605718D01*
X603836Y607427D01*
X603310Y609097D01*
X602640Y610714D01*
X601832Y612267D01*
X600891Y613743D01*
X599825Y615132D01*
X598643Y616423D01*
X597352Y617605D01*
X595963Y618671D01*
X594487Y619612D01*
X592934Y620420D01*
X591317Y621090D01*
X589647Y621616D01*
X587938Y621995D01*
X586203Y622224D01*
X584454Y622300D01*
X-203200Y622300D01*
X-205414Y622203D01*
X-207611Y621914D01*
X-209774Y621435D01*
X-211887Y620768D01*
X-213935Y619920D01*
X-215900Y618897D01*
X-217769Y617706D01*
X-219527Y616358D01*
X-221161Y614861D01*
X-222658Y613227D01*
X-224006Y611469D01*
X-225197Y609600D01*
X-226220Y607635D01*
X-227068Y605587D01*
X-227735Y603474D01*
X-228214Y601311D01*
X-228503Y599114D01*
X-228600Y596900D01*
X-228600Y25400D01*
M02*
