G04 EAGLE Gerber RS-274X export*
G75*
%MOMM*%
%FSLAX34Y34*%
%LPD*%
%IN*%
%IPPOS*%
%AMOC8*
5,1,8,0,0,1.08239X$1,22.5*%
G01*
%ADD10C,0.254000*%


D10*
X-228600Y0D02*
X603250Y0D01*
X603250Y622300D01*
X-228600Y622300D01*
X-228600Y0D01*
X-183900Y381150D02*
X-183895Y381028D01*
X-183879Y380907D01*
X-183852Y380788D01*
X-183816Y380671D01*
X-183769Y380558D01*
X-183712Y380450D01*
X-183647Y380347D01*
X-183572Y380250D01*
X-183490Y380160D01*
X-183400Y380078D01*
X-183303Y380003D01*
X-183200Y379938D01*
X-183092Y379881D01*
X-182979Y379834D01*
X-182862Y379798D01*
X-182743Y379771D01*
X-182622Y379755D01*
X-182500Y379750D01*
X-173300Y379750D01*
X-173178Y379755D01*
X-173057Y379771D01*
X-172938Y379798D01*
X-172821Y379834D01*
X-172708Y379881D01*
X-172600Y379938D01*
X-172497Y380003D01*
X-172400Y380078D01*
X-172310Y380160D01*
X-172228Y380250D01*
X-172153Y380347D01*
X-172088Y380450D01*
X-172031Y380558D01*
X-171984Y380671D01*
X-171948Y380788D01*
X-171921Y380907D01*
X-171905Y381028D01*
X-171900Y381150D01*
X-171900Y384350D01*
X-171905Y384472D01*
X-171921Y384593D01*
X-171948Y384712D01*
X-171984Y384829D01*
X-172031Y384942D01*
X-172088Y385050D01*
X-172153Y385153D01*
X-172228Y385250D01*
X-172310Y385340D01*
X-172400Y385422D01*
X-172497Y385497D01*
X-172600Y385562D01*
X-172708Y385619D01*
X-172821Y385666D01*
X-172938Y385702D01*
X-173057Y385729D01*
X-173178Y385745D01*
X-173300Y385750D01*
X-182500Y385750D01*
X-182622Y385745D01*
X-182743Y385729D01*
X-182862Y385702D01*
X-182979Y385666D01*
X-183092Y385619D01*
X-183200Y385562D01*
X-183303Y385497D01*
X-183400Y385422D01*
X-183490Y385340D01*
X-183572Y385250D01*
X-183647Y385153D01*
X-183712Y385050D01*
X-183769Y384942D01*
X-183816Y384829D01*
X-183852Y384712D01*
X-183879Y384593D01*
X-183895Y384472D01*
X-183900Y384350D01*
X-183900Y381150D01*
X-183900Y466550D02*
X-183895Y466428D01*
X-183879Y466307D01*
X-183852Y466188D01*
X-183816Y466071D01*
X-183769Y465958D01*
X-183712Y465850D01*
X-183647Y465747D01*
X-183572Y465650D01*
X-183490Y465560D01*
X-183400Y465478D01*
X-183303Y465403D01*
X-183200Y465338D01*
X-183092Y465281D01*
X-182979Y465234D01*
X-182862Y465198D01*
X-182743Y465171D01*
X-182622Y465155D01*
X-182500Y465150D01*
X-173300Y465150D01*
X-173178Y465155D01*
X-173057Y465171D01*
X-172938Y465198D01*
X-172821Y465234D01*
X-172708Y465281D01*
X-172600Y465338D01*
X-172497Y465403D01*
X-172400Y465478D01*
X-172310Y465560D01*
X-172228Y465650D01*
X-172153Y465747D01*
X-172088Y465850D01*
X-172031Y465958D01*
X-171984Y466071D01*
X-171948Y466188D01*
X-171921Y466307D01*
X-171905Y466428D01*
X-171900Y466550D01*
X-171900Y469750D01*
X-171905Y469872D01*
X-171921Y469993D01*
X-171948Y470112D01*
X-171984Y470229D01*
X-172031Y470342D01*
X-172088Y470450D01*
X-172153Y470553D01*
X-172228Y470650D01*
X-172310Y470740D01*
X-172400Y470822D01*
X-172497Y470897D01*
X-172600Y470962D01*
X-172708Y471019D01*
X-172821Y471066D01*
X-172938Y471102D01*
X-173057Y471129D01*
X-173178Y471145D01*
X-173300Y471150D01*
X-182500Y471150D01*
X-182622Y471145D01*
X-182743Y471129D01*
X-182862Y471102D01*
X-182979Y471066D01*
X-183092Y471019D01*
X-183200Y470962D01*
X-183303Y470897D01*
X-183400Y470822D01*
X-183490Y470740D01*
X-183572Y470650D01*
X-183647Y470553D01*
X-183712Y470450D01*
X-183769Y470342D01*
X-183816Y470229D01*
X-183852Y470112D01*
X-183879Y469993D01*
X-183895Y469872D01*
X-183900Y469750D01*
X-183900Y466550D01*
X-136600Y381150D02*
X-136595Y381028D01*
X-136579Y380907D01*
X-136552Y380788D01*
X-136516Y380671D01*
X-136469Y380558D01*
X-136412Y380450D01*
X-136347Y380347D01*
X-136272Y380250D01*
X-136190Y380160D01*
X-136100Y380078D01*
X-136003Y380003D01*
X-135900Y379938D01*
X-135792Y379881D01*
X-135679Y379834D01*
X-135562Y379798D01*
X-135443Y379771D01*
X-135322Y379755D01*
X-135200Y379750D01*
X-126000Y379750D01*
X-125878Y379755D01*
X-125757Y379771D01*
X-125638Y379798D01*
X-125521Y379834D01*
X-125408Y379881D01*
X-125300Y379938D01*
X-125197Y380003D01*
X-125100Y380078D01*
X-125010Y380160D01*
X-124928Y380250D01*
X-124853Y380347D01*
X-124788Y380450D01*
X-124731Y380558D01*
X-124684Y380671D01*
X-124648Y380788D01*
X-124621Y380907D01*
X-124605Y381028D01*
X-124600Y381150D01*
X-124600Y384350D01*
X-124605Y384472D01*
X-124621Y384593D01*
X-124648Y384712D01*
X-124684Y384829D01*
X-124731Y384942D01*
X-124788Y385050D01*
X-124853Y385153D01*
X-124928Y385250D01*
X-125010Y385340D01*
X-125100Y385422D01*
X-125197Y385497D01*
X-125300Y385562D01*
X-125408Y385619D01*
X-125521Y385666D01*
X-125638Y385702D01*
X-125757Y385729D01*
X-125878Y385745D01*
X-126000Y385750D01*
X-135200Y385750D01*
X-135322Y385745D01*
X-135443Y385729D01*
X-135562Y385702D01*
X-135679Y385666D01*
X-135792Y385619D01*
X-135900Y385562D01*
X-136003Y385497D01*
X-136100Y385422D01*
X-136190Y385340D01*
X-136272Y385250D01*
X-136347Y385153D01*
X-136412Y385050D01*
X-136469Y384942D01*
X-136516Y384829D01*
X-136552Y384712D01*
X-136579Y384593D01*
X-136595Y384472D01*
X-136600Y384350D01*
X-136600Y381150D01*
X-136600Y466550D02*
X-136595Y466428D01*
X-136579Y466307D01*
X-136552Y466188D01*
X-136516Y466071D01*
X-136469Y465958D01*
X-136412Y465850D01*
X-136347Y465747D01*
X-136272Y465650D01*
X-136190Y465560D01*
X-136100Y465478D01*
X-136003Y465403D01*
X-135900Y465338D01*
X-135792Y465281D01*
X-135679Y465234D01*
X-135562Y465198D01*
X-135443Y465171D01*
X-135322Y465155D01*
X-135200Y465150D01*
X-126000Y465150D01*
X-125878Y465155D01*
X-125757Y465171D01*
X-125638Y465198D01*
X-125521Y465234D01*
X-125408Y465281D01*
X-125300Y465338D01*
X-125197Y465403D01*
X-125100Y465478D01*
X-125010Y465560D01*
X-124928Y465650D01*
X-124853Y465747D01*
X-124788Y465850D01*
X-124731Y465958D01*
X-124684Y466071D01*
X-124648Y466188D01*
X-124621Y466307D01*
X-124605Y466428D01*
X-124600Y466550D01*
X-124600Y469750D01*
X-124605Y469872D01*
X-124621Y469993D01*
X-124648Y470112D01*
X-124684Y470229D01*
X-124731Y470342D01*
X-124788Y470450D01*
X-124853Y470553D01*
X-124928Y470650D01*
X-125010Y470740D01*
X-125100Y470822D01*
X-125197Y470897D01*
X-125300Y470962D01*
X-125408Y471019D01*
X-125521Y471066D01*
X-125638Y471102D01*
X-125757Y471129D01*
X-125878Y471145D01*
X-126000Y471150D01*
X-135200Y471150D01*
X-135322Y471145D01*
X-135443Y471129D01*
X-135562Y471102D01*
X-135679Y471066D01*
X-135792Y471019D01*
X-135900Y470962D01*
X-136003Y470897D01*
X-136100Y470822D01*
X-136190Y470740D01*
X-136272Y470650D01*
X-136347Y470553D01*
X-136412Y470450D01*
X-136469Y470342D01*
X-136516Y470229D01*
X-136552Y470112D01*
X-136579Y469993D01*
X-136595Y469872D01*
X-136600Y469750D01*
X-136600Y466550D01*
X36830Y24951D02*
X36760Y24056D01*
X36619Y23168D01*
X36409Y22295D01*
X36132Y21441D01*
X35788Y20611D01*
X35380Y19811D01*
X34911Y19045D01*
X34383Y18318D01*
X33800Y17635D01*
X33165Y17000D01*
X32482Y16417D01*
X31755Y15889D01*
X30989Y15420D01*
X30189Y15012D01*
X29359Y14668D01*
X28505Y14391D01*
X27632Y14181D01*
X26745Y14040D01*
X25849Y13970D01*
X24951Y13970D01*
X24056Y14040D01*
X23168Y14181D01*
X22295Y14391D01*
X21441Y14668D01*
X20611Y15012D01*
X19811Y15420D01*
X19045Y15889D01*
X18318Y16417D01*
X17635Y17000D01*
X17000Y17635D01*
X16417Y18318D01*
X15889Y19045D01*
X15420Y19811D01*
X15012Y20611D01*
X14668Y21441D01*
X14391Y22295D01*
X14181Y23168D01*
X14040Y24056D01*
X13970Y24951D01*
X13970Y25849D01*
X14040Y26745D01*
X14181Y27632D01*
X14391Y28505D01*
X14668Y29359D01*
X15012Y30189D01*
X15420Y30989D01*
X15889Y31755D01*
X16417Y32482D01*
X17000Y33165D01*
X17635Y33800D01*
X18318Y34383D01*
X19045Y34911D01*
X19811Y35380D01*
X20611Y35788D01*
X21441Y36132D01*
X22295Y36409D01*
X23168Y36619D01*
X24056Y36760D01*
X24951Y36830D01*
X25849Y36830D01*
X26745Y36760D01*
X27632Y36619D01*
X28505Y36409D01*
X29359Y36132D01*
X30189Y35788D01*
X30989Y35380D01*
X31755Y34911D01*
X32482Y34383D01*
X33165Y33800D01*
X33800Y33165D01*
X34383Y32482D01*
X34911Y31755D01*
X35380Y30989D01*
X35788Y30189D01*
X36132Y29359D01*
X36409Y28505D01*
X36619Y27632D01*
X36760Y26745D01*
X36830Y25849D01*
X36830Y24951D01*
X367030Y24951D02*
X366960Y24056D01*
X366819Y23168D01*
X366609Y22295D01*
X366332Y21441D01*
X365988Y20611D01*
X365580Y19811D01*
X365111Y19045D01*
X364583Y18318D01*
X364000Y17635D01*
X363365Y17000D01*
X362682Y16417D01*
X361955Y15889D01*
X361189Y15420D01*
X360389Y15012D01*
X359559Y14668D01*
X358705Y14391D01*
X357832Y14181D01*
X356945Y14040D01*
X356049Y13970D01*
X355151Y13970D01*
X354256Y14040D01*
X353368Y14181D01*
X352495Y14391D01*
X351641Y14668D01*
X350811Y15012D01*
X350011Y15420D01*
X349245Y15889D01*
X348518Y16417D01*
X347835Y17000D01*
X347200Y17635D01*
X346617Y18318D01*
X346089Y19045D01*
X345620Y19811D01*
X345212Y20611D01*
X344868Y21441D01*
X344591Y22295D01*
X344381Y23168D01*
X344240Y24056D01*
X344170Y24951D01*
X344170Y25849D01*
X344240Y26745D01*
X344381Y27632D01*
X344591Y28505D01*
X344868Y29359D01*
X345212Y30189D01*
X345620Y30989D01*
X346089Y31755D01*
X346617Y32482D01*
X347200Y33165D01*
X347835Y33800D01*
X348518Y34383D01*
X349245Y34911D01*
X350011Y35380D01*
X350811Y35788D01*
X351641Y36132D01*
X352495Y36409D01*
X353368Y36619D01*
X354256Y36760D01*
X355151Y36830D01*
X356049Y36830D01*
X356945Y36760D01*
X357832Y36619D01*
X358705Y36409D01*
X359559Y36132D01*
X360389Y35788D01*
X361189Y35380D01*
X361955Y34911D01*
X362682Y34383D01*
X363365Y33800D01*
X364000Y33165D01*
X364583Y32482D01*
X365111Y31755D01*
X365580Y30989D01*
X365988Y30189D01*
X366332Y29359D01*
X366609Y28505D01*
X366819Y27632D01*
X366960Y26745D01*
X367030Y25849D01*
X367030Y24951D01*
X367030Y418651D02*
X366960Y417756D01*
X366819Y416868D01*
X366609Y415995D01*
X366332Y415141D01*
X365988Y414311D01*
X365580Y413511D01*
X365111Y412745D01*
X364583Y412018D01*
X364000Y411335D01*
X363365Y410700D01*
X362682Y410117D01*
X361955Y409589D01*
X361189Y409120D01*
X360389Y408712D01*
X359559Y408368D01*
X358705Y408091D01*
X357832Y407881D01*
X356945Y407740D01*
X356049Y407670D01*
X355151Y407670D01*
X354256Y407740D01*
X353368Y407881D01*
X352495Y408091D01*
X351641Y408368D01*
X350811Y408712D01*
X350011Y409120D01*
X349245Y409589D01*
X348518Y410117D01*
X347835Y410700D01*
X347200Y411335D01*
X346617Y412018D01*
X346089Y412745D01*
X345620Y413511D01*
X345212Y414311D01*
X344868Y415141D01*
X344591Y415995D01*
X344381Y416868D01*
X344240Y417756D01*
X344170Y418651D01*
X344170Y419549D01*
X344240Y420445D01*
X344381Y421332D01*
X344591Y422205D01*
X344868Y423059D01*
X345212Y423889D01*
X345620Y424689D01*
X346089Y425455D01*
X346617Y426182D01*
X347200Y426865D01*
X347835Y427500D01*
X348518Y428083D01*
X349245Y428611D01*
X350011Y429080D01*
X350811Y429488D01*
X351641Y429832D01*
X352495Y430109D01*
X353368Y430319D01*
X354256Y430460D01*
X355151Y430530D01*
X356049Y430530D01*
X356945Y430460D01*
X357832Y430319D01*
X358705Y430109D01*
X359559Y429832D01*
X360389Y429488D01*
X361189Y429080D01*
X361955Y428611D01*
X362682Y428083D01*
X363365Y427500D01*
X364000Y426865D01*
X364583Y426182D01*
X365111Y425455D01*
X365580Y424689D01*
X365988Y423889D01*
X366332Y423059D01*
X366609Y422205D01*
X366819Y421332D01*
X366960Y420445D01*
X367030Y419549D01*
X367030Y418651D01*
X36830Y418651D02*
X36760Y417756D01*
X36619Y416868D01*
X36409Y415995D01*
X36132Y415141D01*
X35788Y414311D01*
X35380Y413511D01*
X34911Y412745D01*
X34383Y412018D01*
X33800Y411335D01*
X33165Y410700D01*
X32482Y410117D01*
X31755Y409589D01*
X30989Y409120D01*
X30189Y408712D01*
X29359Y408368D01*
X28505Y408091D01*
X27632Y407881D01*
X26745Y407740D01*
X25849Y407670D01*
X24951Y407670D01*
X24056Y407740D01*
X23168Y407881D01*
X22295Y408091D01*
X21441Y408368D01*
X20611Y408712D01*
X19811Y409120D01*
X19045Y409589D01*
X18318Y410117D01*
X17635Y410700D01*
X17000Y411335D01*
X16417Y412018D01*
X15889Y412745D01*
X15420Y413511D01*
X15012Y414311D01*
X14668Y415141D01*
X14391Y415995D01*
X14181Y416868D01*
X14040Y417756D01*
X13970Y418651D01*
X13970Y419549D01*
X14040Y420445D01*
X14181Y421332D01*
X14391Y422205D01*
X14668Y423059D01*
X15012Y423889D01*
X15420Y424689D01*
X15889Y425455D01*
X16417Y426182D01*
X17000Y426865D01*
X17635Y427500D01*
X18318Y428083D01*
X19045Y428611D01*
X19811Y429080D01*
X20611Y429488D01*
X21441Y429832D01*
X22295Y430109D01*
X23168Y430319D01*
X24056Y430460D01*
X24951Y430530D01*
X25849Y430530D01*
X26745Y430460D01*
X27632Y430319D01*
X28505Y430109D01*
X29359Y429832D01*
X30189Y429488D01*
X30989Y429080D01*
X31755Y428611D01*
X32482Y428083D01*
X33165Y427500D01*
X33800Y426865D01*
X34383Y426182D01*
X34911Y425455D01*
X35380Y424689D01*
X35788Y423889D01*
X36132Y423059D01*
X36409Y422205D01*
X36619Y421332D01*
X36760Y420445D01*
X36830Y419549D01*
X36830Y418651D01*
X-69572Y163703D02*
X-69019Y163641D01*
X-68477Y163517D01*
X-67952Y163333D01*
X-67450Y163092D01*
X-66979Y162796D01*
X-66544Y162449D01*
X-66151Y162056D01*
X-65804Y161621D01*
X-65508Y161150D01*
X-65267Y160648D01*
X-65083Y160123D01*
X-64959Y159581D01*
X-64897Y159028D01*
X-64897Y158472D01*
X-64959Y157919D01*
X-65083Y157377D01*
X-65267Y156852D01*
X-65508Y156350D01*
X-65804Y155879D01*
X-66151Y155444D01*
X-66544Y155051D01*
X-66979Y154704D01*
X-67450Y154408D01*
X-67952Y154167D01*
X-68477Y153983D01*
X-69019Y153859D01*
X-69572Y153797D01*
X-70128Y153797D01*
X-70681Y153859D01*
X-71223Y153983D01*
X-71748Y154167D01*
X-72250Y154408D01*
X-72721Y154704D01*
X-73156Y155051D01*
X-73549Y155444D01*
X-73896Y155879D01*
X-74192Y156350D01*
X-74433Y156852D01*
X-74617Y157377D01*
X-74741Y157919D01*
X-74803Y158472D01*
X-74803Y159028D01*
X-74741Y159581D01*
X-74617Y160123D01*
X-74433Y160648D01*
X-74192Y161150D01*
X-73896Y161621D01*
X-73549Y162056D01*
X-73156Y162449D01*
X-72721Y162796D01*
X-72250Y163092D01*
X-71748Y163333D01*
X-71223Y163517D01*
X-70681Y163641D01*
X-70128Y163703D01*
X-69572Y163703D01*
X-79722Y214503D02*
X-79169Y214441D01*
X-78627Y214317D01*
X-78102Y214133D01*
X-77600Y213892D01*
X-77129Y213596D01*
X-76694Y213249D01*
X-76301Y212856D01*
X-75954Y212421D01*
X-75658Y211950D01*
X-75417Y211448D01*
X-75233Y210923D01*
X-75109Y210381D01*
X-75047Y209828D01*
X-75047Y209272D01*
X-75109Y208719D01*
X-75233Y208177D01*
X-75417Y207652D01*
X-75658Y207150D01*
X-75954Y206679D01*
X-76301Y206244D01*
X-76694Y205851D01*
X-77129Y205504D01*
X-77600Y205208D01*
X-78102Y204967D01*
X-78627Y204783D01*
X-79169Y204659D01*
X-79722Y204597D01*
X-80278Y204597D01*
X-80831Y204659D01*
X-81373Y204783D01*
X-81898Y204967D01*
X-82400Y205208D01*
X-82871Y205504D01*
X-83306Y205851D01*
X-83699Y206244D01*
X-84046Y206679D01*
X-84342Y207150D01*
X-84583Y207652D01*
X-84767Y208177D01*
X-84891Y208719D01*
X-84953Y209272D01*
X-84953Y209828D01*
X-84891Y210381D01*
X-84767Y210923D01*
X-84583Y211448D01*
X-84342Y211950D01*
X-84046Y212421D01*
X-83699Y212856D01*
X-83306Y213249D01*
X-82871Y213596D01*
X-82400Y213892D01*
X-81898Y214133D01*
X-81373Y214317D01*
X-80831Y214441D01*
X-80278Y214503D01*
X-79722Y214503D01*
X-59422Y214503D02*
X-58869Y214441D01*
X-58327Y214317D01*
X-57802Y214133D01*
X-57300Y213892D01*
X-56829Y213596D01*
X-56394Y213249D01*
X-56001Y212856D01*
X-55654Y212421D01*
X-55358Y211950D01*
X-55117Y211448D01*
X-54933Y210923D01*
X-54809Y210381D01*
X-54747Y209828D01*
X-54747Y209272D01*
X-54809Y208719D01*
X-54933Y208177D01*
X-55117Y207652D01*
X-55358Y207150D01*
X-55654Y206679D01*
X-56001Y206244D01*
X-56394Y205851D01*
X-56829Y205504D01*
X-57300Y205208D01*
X-57802Y204967D01*
X-58327Y204783D01*
X-58869Y204659D01*
X-59422Y204597D01*
X-59978Y204597D01*
X-60531Y204659D01*
X-61073Y204783D01*
X-61598Y204967D01*
X-62100Y205208D01*
X-62571Y205504D01*
X-63006Y205851D01*
X-63399Y206244D01*
X-63746Y206679D01*
X-64042Y207150D01*
X-64283Y207652D01*
X-64467Y208177D01*
X-64591Y208719D01*
X-64653Y209272D01*
X-64653Y209828D01*
X-64591Y210381D01*
X-64467Y210923D01*
X-64283Y211448D01*
X-64042Y211950D01*
X-63746Y212421D01*
X-63399Y212856D01*
X-63006Y213249D01*
X-62571Y213596D01*
X-62100Y213892D01*
X-61598Y214133D01*
X-61073Y214317D01*
X-60531Y214441D01*
X-59978Y214503D01*
X-59422Y214503D01*
X-94783Y170625D02*
X-93853Y170551D01*
X-92932Y170405D01*
X-92024Y170188D01*
X-91137Y169899D01*
X-90275Y169542D01*
X-89443Y169118D01*
X-88648Y168631D01*
X-87893Y168082D01*
X-87183Y167476D01*
X-86524Y166817D01*
X-85918Y166107D01*
X-85369Y165352D01*
X-84882Y164557D01*
X-84458Y163725D01*
X-84101Y162863D01*
X-83813Y161976D01*
X-83595Y161068D01*
X-83449Y160147D01*
X-83376Y159217D01*
X-83376Y158283D01*
X-83449Y157353D01*
X-83595Y156432D01*
X-83813Y155524D01*
X-84101Y154637D01*
X-84458Y153775D01*
X-84882Y152943D01*
X-85369Y152148D01*
X-85918Y151393D01*
X-86524Y150683D01*
X-87183Y150024D01*
X-87893Y149418D01*
X-88648Y148869D01*
X-89443Y148382D01*
X-90275Y147958D01*
X-91137Y147601D01*
X-92024Y147313D01*
X-92932Y147095D01*
X-93853Y146949D01*
X-94783Y146876D01*
X-95717Y146876D01*
X-96647Y146949D01*
X-97568Y147095D01*
X-98476Y147313D01*
X-99363Y147601D01*
X-100225Y147958D01*
X-101057Y148382D01*
X-101852Y148869D01*
X-102607Y149418D01*
X-103317Y150024D01*
X-103976Y150683D01*
X-104582Y151393D01*
X-105131Y152148D01*
X-105618Y152943D01*
X-106042Y153775D01*
X-106399Y154637D01*
X-106688Y155524D01*
X-106905Y156432D01*
X-107051Y157353D01*
X-107125Y158283D01*
X-107125Y159217D01*
X-107051Y160147D01*
X-106905Y161068D01*
X-106688Y161976D01*
X-106399Y162863D01*
X-106042Y163725D01*
X-105618Y164557D01*
X-105131Y165352D01*
X-104582Y166107D01*
X-103976Y166817D01*
X-103317Y167476D01*
X-102607Y168082D01*
X-101852Y168631D01*
X-101057Y169118D01*
X-100225Y169542D01*
X-99363Y169899D01*
X-98476Y170188D01*
X-97568Y170405D01*
X-96647Y170551D01*
X-95717Y170625D01*
X-94783Y170625D01*
X-94783Y202375D02*
X-93853Y202301D01*
X-92932Y202155D01*
X-92024Y201938D01*
X-91137Y201649D01*
X-90275Y201292D01*
X-89443Y200868D01*
X-88648Y200381D01*
X-87893Y199832D01*
X-87183Y199226D01*
X-86524Y198567D01*
X-85918Y197857D01*
X-85369Y197102D01*
X-84882Y196307D01*
X-84458Y195475D01*
X-84101Y194613D01*
X-83813Y193726D01*
X-83595Y192818D01*
X-83449Y191897D01*
X-83376Y190967D01*
X-83376Y190033D01*
X-83449Y189103D01*
X-83595Y188182D01*
X-83813Y187274D01*
X-84101Y186387D01*
X-84458Y185525D01*
X-84882Y184693D01*
X-85369Y183898D01*
X-85918Y183143D01*
X-86524Y182433D01*
X-87183Y181774D01*
X-87893Y181168D01*
X-88648Y180619D01*
X-89443Y180132D01*
X-90275Y179708D01*
X-91137Y179351D01*
X-92024Y179063D01*
X-92932Y178845D01*
X-93853Y178699D01*
X-94783Y178626D01*
X-95717Y178626D01*
X-96647Y178699D01*
X-97568Y178845D01*
X-98476Y179063D01*
X-99363Y179351D01*
X-100225Y179708D01*
X-101057Y180132D01*
X-101852Y180619D01*
X-102607Y181168D01*
X-103317Y181774D01*
X-103976Y182433D01*
X-104582Y183143D01*
X-105131Y183898D01*
X-105618Y184693D01*
X-106042Y185525D01*
X-106399Y186387D01*
X-106688Y187274D01*
X-106905Y188182D01*
X-107051Y189103D01*
X-107125Y190033D01*
X-107125Y190967D01*
X-107051Y191897D01*
X-106905Y192818D01*
X-106688Y193726D01*
X-106399Y194613D01*
X-106042Y195475D01*
X-105618Y196307D01*
X-105131Y197102D01*
X-104582Y197857D01*
X-103976Y198567D01*
X-103317Y199226D01*
X-102607Y199832D01*
X-101852Y200381D01*
X-101057Y200868D01*
X-100225Y201292D01*
X-99363Y201649D01*
X-98476Y201938D01*
X-97568Y202155D01*
X-96647Y202301D01*
X-95717Y202375D01*
X-94783Y202375D01*
X-43983Y202375D02*
X-43053Y202301D01*
X-42132Y202155D01*
X-41224Y201938D01*
X-40337Y201649D01*
X-39475Y201292D01*
X-38643Y200868D01*
X-37848Y200381D01*
X-37093Y199832D01*
X-36383Y199226D01*
X-35724Y198567D01*
X-35118Y197857D01*
X-34569Y197102D01*
X-34082Y196307D01*
X-33658Y195475D01*
X-33301Y194613D01*
X-33013Y193726D01*
X-32795Y192818D01*
X-32649Y191897D01*
X-32576Y190967D01*
X-32576Y190033D01*
X-32649Y189103D01*
X-32795Y188182D01*
X-33013Y187274D01*
X-33301Y186387D01*
X-33658Y185525D01*
X-34082Y184693D01*
X-34569Y183898D01*
X-35118Y183143D01*
X-35724Y182433D01*
X-36383Y181774D01*
X-37093Y181168D01*
X-37848Y180619D01*
X-38643Y180132D01*
X-39475Y179708D01*
X-40337Y179351D01*
X-41224Y179063D01*
X-42132Y178845D01*
X-43053Y178699D01*
X-43983Y178626D01*
X-44917Y178626D01*
X-45847Y178699D01*
X-46768Y178845D01*
X-47676Y179063D01*
X-48563Y179351D01*
X-49425Y179708D01*
X-50257Y180132D01*
X-51052Y180619D01*
X-51807Y181168D01*
X-52517Y181774D01*
X-53176Y182433D01*
X-53782Y183143D01*
X-54331Y183898D01*
X-54818Y184693D01*
X-55242Y185525D01*
X-55599Y186387D01*
X-55888Y187274D01*
X-56105Y188182D01*
X-56251Y189103D01*
X-56325Y190033D01*
X-56325Y190967D01*
X-56251Y191897D01*
X-56105Y192818D01*
X-55888Y193726D01*
X-55599Y194613D01*
X-55242Y195475D01*
X-54818Y196307D01*
X-54331Y197102D01*
X-53782Y197857D01*
X-53176Y198567D01*
X-52517Y199226D01*
X-51807Y199832D01*
X-51052Y200381D01*
X-50257Y200868D01*
X-49425Y201292D01*
X-48563Y201649D01*
X-47676Y201938D01*
X-46768Y202155D01*
X-45847Y202301D01*
X-44917Y202375D01*
X-43983Y202375D01*
X-43983Y170625D02*
X-43053Y170551D01*
X-42132Y170405D01*
X-41224Y170188D01*
X-40337Y169899D01*
X-39475Y169542D01*
X-38643Y169118D01*
X-37848Y168631D01*
X-37093Y168082D01*
X-36383Y167476D01*
X-35724Y166817D01*
X-35118Y166107D01*
X-34569Y165352D01*
X-34082Y164557D01*
X-33658Y163725D01*
X-33301Y162863D01*
X-33013Y161976D01*
X-32795Y161068D01*
X-32649Y160147D01*
X-32576Y159217D01*
X-32576Y158283D01*
X-32649Y157353D01*
X-32795Y156432D01*
X-33013Y155524D01*
X-33301Y154637D01*
X-33658Y153775D01*
X-34082Y152943D01*
X-34569Y152148D01*
X-35118Y151393D01*
X-35724Y150683D01*
X-36383Y150024D01*
X-37093Y149418D01*
X-37848Y148869D01*
X-38643Y148382D01*
X-39475Y147958D01*
X-40337Y147601D01*
X-41224Y147313D01*
X-42132Y147095D01*
X-43053Y146949D01*
X-43983Y146876D01*
X-44917Y146876D01*
X-45847Y146949D01*
X-46768Y147095D01*
X-47676Y147313D01*
X-48563Y147601D01*
X-49425Y147958D01*
X-50257Y148382D01*
X-51052Y148869D01*
X-51807Y149418D01*
X-52517Y150024D01*
X-53176Y150683D01*
X-53782Y151393D01*
X-54331Y152148D01*
X-54818Y152943D01*
X-55242Y153775D01*
X-55599Y154637D01*
X-55888Y155524D01*
X-56105Y156432D01*
X-56251Y157353D01*
X-56325Y158283D01*
X-56325Y159217D01*
X-56251Y160147D01*
X-56105Y161068D01*
X-55888Y161976D01*
X-55599Y162863D01*
X-55242Y163725D01*
X-54818Y164557D01*
X-54331Y165352D01*
X-53782Y166107D01*
X-53176Y166817D01*
X-52517Y167476D01*
X-51807Y168082D01*
X-51052Y168631D01*
X-50257Y169118D01*
X-49425Y169542D01*
X-48563Y169899D01*
X-47676Y170188D01*
X-46768Y170405D01*
X-45847Y170551D01*
X-44917Y170625D01*
X-43983Y170625D01*
X-29046Y599935D02*
X-29106Y599405D01*
X-29224Y598885D01*
X-29401Y598381D01*
X-29632Y597901D01*
X-29916Y597449D01*
X-30249Y597032D01*
X-30626Y596655D01*
X-31043Y596322D01*
X-31495Y596038D01*
X-31975Y595807D01*
X-32479Y595630D01*
X-32999Y595512D01*
X-33529Y595452D01*
X-34063Y595452D01*
X-34593Y595512D01*
X-35113Y595630D01*
X-35617Y595807D01*
X-36097Y596038D01*
X-36549Y596322D01*
X-36966Y596655D01*
X-37343Y597032D01*
X-37676Y597449D01*
X-37960Y597901D01*
X-38191Y598381D01*
X-38368Y598885D01*
X-38486Y599405D01*
X-38546Y599935D01*
X-38546Y600469D01*
X-38486Y600999D01*
X-38368Y601519D01*
X-38191Y602023D01*
X-37960Y602503D01*
X-37676Y602955D01*
X-37343Y603372D01*
X-36966Y603749D01*
X-36549Y604082D01*
X-36097Y604366D01*
X-35617Y604597D01*
X-35113Y604774D01*
X-34593Y604892D01*
X-34063Y604952D01*
X-33529Y604952D01*
X-32999Y604892D01*
X-32479Y604774D01*
X-31975Y604597D01*
X-31495Y604366D01*
X-31043Y604082D01*
X-30626Y603749D01*
X-30249Y603372D01*
X-29916Y602955D01*
X-29632Y602503D01*
X-29401Y602023D01*
X-29224Y601519D01*
X-29106Y600999D01*
X-29046Y600469D01*
X-29046Y599935D01*
X954Y599935D02*
X894Y599405D01*
X776Y598885D01*
X599Y598381D01*
X368Y597901D01*
X84Y597449D01*
X-249Y597032D01*
X-626Y596655D01*
X-1043Y596322D01*
X-1495Y596038D01*
X-1975Y595807D01*
X-2479Y595630D01*
X-2999Y595512D01*
X-3529Y595452D01*
X-4063Y595452D01*
X-4593Y595512D01*
X-5113Y595630D01*
X-5617Y595807D01*
X-6097Y596038D01*
X-6549Y596322D01*
X-6966Y596655D01*
X-7343Y597032D01*
X-7676Y597449D01*
X-7960Y597901D01*
X-8191Y598381D01*
X-8368Y598885D01*
X-8486Y599405D01*
X-8546Y599935D01*
X-8546Y600469D01*
X-8486Y600999D01*
X-8368Y601519D01*
X-8191Y602023D01*
X-7960Y602503D01*
X-7676Y602955D01*
X-7343Y603372D01*
X-6966Y603749D01*
X-6549Y604082D01*
X-6097Y604366D01*
X-5617Y604597D01*
X-5113Y604774D01*
X-4593Y604892D01*
X-4063Y604952D01*
X-3529Y604952D01*
X-2999Y604892D01*
X-2479Y604774D01*
X-1975Y604597D01*
X-1495Y604366D01*
X-1043Y604082D01*
X-626Y603749D01*
X-249Y603372D01*
X84Y602955D01*
X368Y602503D01*
X599Y602023D01*
X776Y601519D01*
X894Y600999D01*
X954Y600469D01*
X954Y599935D01*
X-26996Y8231D02*
X-27073Y7646D01*
X-27226Y7076D01*
X-27451Y6531D01*
X-27746Y6021D01*
X-28105Y5553D01*
X-28523Y5135D01*
X-28991Y4776D01*
X-29501Y4481D01*
X-30046Y4256D01*
X-30616Y4103D01*
X-31201Y4026D01*
X-31791Y4026D01*
X-32376Y4103D01*
X-32946Y4256D01*
X-33491Y4481D01*
X-34001Y4776D01*
X-34469Y5135D01*
X-34887Y5553D01*
X-35246Y6021D01*
X-35541Y6531D01*
X-35766Y7076D01*
X-35919Y7646D01*
X-35996Y8231D01*
X-35996Y8821D01*
X-35919Y9406D01*
X-35766Y9976D01*
X-35541Y10521D01*
X-35246Y11031D01*
X-34887Y11499D01*
X-34469Y11917D01*
X-34001Y12276D01*
X-33491Y12571D01*
X-32946Y12796D01*
X-32376Y12949D01*
X-31791Y13026D01*
X-31201Y13026D01*
X-30616Y12949D01*
X-30046Y12796D01*
X-29501Y12571D01*
X-28991Y12276D01*
X-28523Y11917D01*
X-28105Y11499D01*
X-27746Y11031D01*
X-27451Y10521D01*
X-27226Y9976D01*
X-27073Y9406D01*
X-26996Y8821D01*
X-26996Y8231D01*
X-26996Y26231D02*
X-27073Y25646D01*
X-27226Y25076D01*
X-27451Y24531D01*
X-27746Y24021D01*
X-28105Y23553D01*
X-28523Y23135D01*
X-28991Y22776D01*
X-29501Y22481D01*
X-30046Y22256D01*
X-30616Y22103D01*
X-31201Y22026D01*
X-31791Y22026D01*
X-32376Y22103D01*
X-32946Y22256D01*
X-33491Y22481D01*
X-34001Y22776D01*
X-34469Y23135D01*
X-34887Y23553D01*
X-35246Y24021D01*
X-35541Y24531D01*
X-35766Y25076D01*
X-35919Y25646D01*
X-35996Y26231D01*
X-35996Y26821D01*
X-35919Y27406D01*
X-35766Y27976D01*
X-35541Y28521D01*
X-35246Y29031D01*
X-34887Y29499D01*
X-34469Y29917D01*
X-34001Y30276D01*
X-33491Y30571D01*
X-32946Y30796D01*
X-32376Y30949D01*
X-31791Y31026D01*
X-31201Y31026D01*
X-30616Y30949D01*
X-30046Y30796D01*
X-29501Y30571D01*
X-28991Y30276D01*
X-28523Y29917D01*
X-28105Y29499D01*
X-27746Y29031D01*
X-27451Y28521D01*
X-27226Y27976D01*
X-27073Y27406D01*
X-26996Y26821D01*
X-26996Y26231D01*
X416742Y7723D02*
X416665Y7138D01*
X416512Y6568D01*
X416287Y6023D01*
X415992Y5513D01*
X415633Y5045D01*
X415215Y4627D01*
X414747Y4268D01*
X414237Y3973D01*
X413692Y3748D01*
X413122Y3595D01*
X412537Y3518D01*
X411947Y3518D01*
X411362Y3595D01*
X410792Y3748D01*
X410247Y3973D01*
X409737Y4268D01*
X409269Y4627D01*
X408851Y5045D01*
X408492Y5513D01*
X408197Y6023D01*
X407972Y6568D01*
X407819Y7138D01*
X407742Y7723D01*
X407742Y8313D01*
X407819Y8898D01*
X407972Y9468D01*
X408197Y10013D01*
X408492Y10523D01*
X408851Y10991D01*
X409269Y11409D01*
X409737Y11768D01*
X410247Y12063D01*
X410792Y12288D01*
X411362Y12441D01*
X411947Y12518D01*
X412537Y12518D01*
X413122Y12441D01*
X413692Y12288D01*
X414237Y12063D01*
X414747Y11768D01*
X415215Y11409D01*
X415633Y10991D01*
X415992Y10523D01*
X416287Y10013D01*
X416512Y9468D01*
X416665Y8898D01*
X416742Y8313D01*
X416742Y7723D01*
X416742Y25723D02*
X416665Y25138D01*
X416512Y24568D01*
X416287Y24023D01*
X415992Y23513D01*
X415633Y23045D01*
X415215Y22627D01*
X414747Y22268D01*
X414237Y21973D01*
X413692Y21748D01*
X413122Y21595D01*
X412537Y21518D01*
X411947Y21518D01*
X411362Y21595D01*
X410792Y21748D01*
X410247Y21973D01*
X409737Y22268D01*
X409269Y22627D01*
X408851Y23045D01*
X408492Y23513D01*
X408197Y24023D01*
X407972Y24568D01*
X407819Y25138D01*
X407742Y25723D01*
X407742Y26313D01*
X407819Y26898D01*
X407972Y27468D01*
X408197Y28013D01*
X408492Y28523D01*
X408851Y28991D01*
X409269Y29409D01*
X409737Y29768D01*
X410247Y30063D01*
X410792Y30288D01*
X411362Y30441D01*
X411947Y30518D01*
X412537Y30518D01*
X413122Y30441D01*
X413692Y30288D01*
X414237Y30063D01*
X414747Y29768D01*
X415215Y29409D01*
X415633Y28991D01*
X415992Y28523D01*
X416287Y28013D01*
X416512Y27468D01*
X416665Y26898D01*
X416742Y26313D01*
X416742Y25723D01*
M02*
