M48
;GenerationSoftware,Autodesk,EAGLE,9.6.1*%
;CreationDate,2020-09-24T02:20:32Z*%
FMAT,2
ICI,OFF
METRIC,TZ,000.000
T5C0.200
T4C0.650
T3C1.250
T2C1.700
T1C2.921
%
G90
M71
T1
X34925Y3175
X3175Y3175
X34925Y43815
X3175Y43815
T2
X12183Y35839
X5183Y35839
T3
X22297Y45364
X31297Y45364
T4
X29022Y42239
X24572Y42239
T5
X11798Y30518
X17907Y42850
X15824Y41580
X20231Y39268
X14427Y38303
X33795Y23038
X24181Y25997
X22936Y32360
X16396Y18542
X15748Y17526
X17590Y19037
X22708Y27470
X26962Y7252
X30899Y3861
X36335Y16688
X34430Y28753
X28346Y18860
X12306Y27038
X16192Y39218
X31966Y16408
X31026Y18872
X15761Y14237
X34595Y25768
X15659Y21844
X18618Y28130
X17805Y25895
X5690Y8903
X9741Y8014
X10312Y5309
X12700Y8915
X14999Y8763
X14961Y6375
X12255Y6032
X12700Y4636
X22708Y29375
X14922Y24714
X16434Y25590
X15481Y30353
X25133Y15316
X24917Y13144
X12852Y23800
X26479Y19342
X24930Y17704
X9144Y1410
X7239Y2680
X2159Y9665
X2159Y7125
X18098Y3175
X36970Y17323
X33807Y18758
X35357Y30277
X27064Y5499
X15380Y2997
X11824Y1714
X18504Y15342
X19139Y17437
X14084Y12535
X12890Y11633
X13056Y10605
X9208Y4788
X11963Y4000
X18402Y13741
X23241Y17742
X20955Y18110
X31242Y37897
X31826Y37414
X30836Y37389
X25413Y32918
X28499Y28372
X28029Y28905
X27940Y37414
X26639Y37255
X27089Y35674
X30620Y25121
X19456Y25311
X19914Y24854
X23724Y18263
X15227Y14954
X13767Y22739
X17856Y7918
X15069Y25603
X16510Y22384
X14884Y5747
X20574Y34849
X17767Y32067
X23050Y17113
X24524Y16523
X23971Y10478
X22327Y5524
X15081Y4870
X23203Y21438
X28626Y21958
X29578Y21717
X22568Y21400
X18771Y13195
X16675Y12852
X17424Y11214
X22581Y19101
X25311Y19101
X19063Y18339
X20536Y16853
X21590Y13335
X18009Y18377
X18034Y16142
X13716Y6610
X19749Y7626
X22066Y11005
X20003Y18098
X19075Y18955
X34186Y20513
X34061Y32868
X31039Y28867
X15773Y29426
X20244Y27407
X15710Y13132
X20028Y14237
X27432Y18910
X25857Y21501
X17691Y26772
X26391Y21133
X14986Y27978
X12636Y6960
X14008Y9042
X15608Y10300
X11392Y14656
X14859Y27051
X22644Y33299
X24130Y37465
X32753Y21996
X17463Y12636
X17526Y10541
X18021Y14262
X16345Y15507
X14656Y19177
X12636Y20447
X15710Y38735
X13932Y14516
X14707Y41554
X18885Y41402
X19253Y28118
X16782Y39847
X19507Y37605
X16764Y37579
X7760Y40869
X19368Y8096
X17336Y3340
X9874Y10960
X12325Y11455
X13506Y15399
X13024Y22714
X8827Y38532
X9169Y39459
X9144Y40678
X13335Y26670
X15716Y15399
X14287Y39529
X33052Y18098
X29978Y17539
X28245Y17755
X23444Y10795
X21584Y9766
X11417Y27724
X12617Y16986
X18523Y17164
X21527Y16510
X22365Y13729
X25102Y11989
X24505Y9735
X24130Y8255
X12859Y37465
X13176Y33973
X18567Y2070
X19006Y7087
X19495Y3492
X19526Y5239
X1664Y33947
X21882Y40932
X20980Y7048
X21654Y3531
X20555Y8103
X21698Y7506
X27057Y11627
X26022Y13735
X27934Y17240
X31134Y17075
X35084Y19368
X35528Y26295
X33153Y19399
X26829Y26511
X21838Y4801
X23863Y5118
X26022Y5131
X26829Y19837
X25400Y25876
X24765Y26511
X23812Y27451
X20320Y29527
X10389Y6883
X20333Y11036
X10992Y37205
X22225Y1905
X20504Y1962
X8439Y4312
X8465Y9938
X12916Y2807
X22263Y3061
X11430Y37941
X10541Y29661
X10954Y26511
X10776Y11525
X10795Y7423
X23063Y7950
X15608Y24663
X18110Y41567
X16205Y34595
X26492Y25895
X29553Y25616
X1524Y40145
X7874Y31890
X8509Y34430
X23749Y35700
X21768Y32779
X33655Y26035
X11430Y40005
M30