M48
;GenerationSoftware,Autodesk,EAGLE,9.6.1*%
;CreationDate,2020-06-19T21:17:01Z*%
FMAT,2
ICI,OFF
METRIC,TZ,000.000
T11C0.200
T10C0.350
T9C0.600
T8C0.650
T7C0.900
T6C0.950
T5C0.991
T4C1.016
T3C1.250
T2C2.286
T1C2.375
%
G90
M71
T1
X-4445Y19050
X-4445Y15875
X-9525Y19050
X-9525Y15875
T2
X35560Y2540
X2540Y2540
X2540Y41910
X35560Y41910
T3
X-19685Y20375
X-19685Y11375
X-19685Y34980
X-19685Y25980
T4
X-20320Y1905
X-17780Y1905
X-10160Y1905
X-7620Y1905
X-15240Y1905
X-12700Y1905
T5
X-6985Y15875
X-8000Y20955
X-5970Y20955
T6
X-3380Y60020
X-380Y60020
T7
X-3150Y853
X-3150Y2653
X41224Y802
X41224Y2602
T8
X-16560Y13650
X-16560Y18100
X-16560Y32705
X-16560Y28255
T9
X-17790Y46815
X-17790Y38275
X-13060Y38275
X-13060Y46815
T10
X-11910Y39745
X-12610Y40145
X-12610Y40945
X-11910Y40545
X-11910Y41345
X-12610Y41745
X-11910Y42145
X-11910Y42945
X-12610Y43345
X-11910Y43745
X-12610Y44145
X-12610Y44945
X-11910Y44545
X-11910Y45345
X-1569Y44430
X-1295Y40640
T11
X22860Y6985
X21590Y10795
X20320Y12700
X28575Y5715
X31115Y5715
X33655Y5715
X34925Y6985
X34925Y8890
X31115Y7620
X28575Y7620
X31115Y10160
X28575Y1905
X31115Y1905
X33655Y1905
X1905Y4445
X-1270Y4445
X-6350Y4445
X-6350Y6350
X-1270Y6350
X-6350Y10160
X-8890Y6985
X-10465Y8611
X-20955Y5080
X-16840Y5080
X-17145Y8255
X-20955Y8255
X-20955Y10160
X-17145Y10160
X-19685Y14605
X-19685Y17145
X-19685Y29210
X-19685Y31750
X-20955Y22860
X-17145Y22860
X-17780Y25400
X-15875Y25400
X-12700Y22860
X-12700Y20320
X-9525Y20955
X-3810Y20955
X-1905Y19050
X-1905Y17145
X-635Y13335
X-3175Y10795
X635Y10795
X8255Y21590
X5715Y23495
X3175Y19685
X3175Y22225
X-3175Y26035
X-635Y26035
X-14605Y34290
X-12700Y36195
X-16510Y36195
X-8890Y40005
X-7620Y39370
X-4851Y39370
X-4826Y41275
X-6985Y41910
X-8890Y44450
X-2540Y43815
X-8890Y46990
X-8890Y50800
X-14605Y48260
X-19050Y48260
X-18415Y54610
X-12065Y50800
X-12065Y56515
X-12065Y53340
X33020Y36195
X34290Y32385
X31115Y38100
X29210Y40005
X27305Y41910
X32385Y42545
X35560Y39370
X34925Y14605
X34925Y19050
X34925Y22860
X34925Y26035
X34290Y29845
X31115Y32385
X31115Y29210
X29210Y27940
X27356Y32690
X18415Y36830
X23495Y59690
X23495Y57785
X24130Y54610
X16510Y48260
X17780Y46355
X20955Y52070
X22225Y50800
X14605Y41910
X16510Y37465
X12852Y36474
X15469Y26924
X12319Y26899
X12065Y29210
X15875Y29210
X5715Y26035
X8255Y26035
X10160Y9525
X6350Y3175
X6198Y5359
X-8611Y12344
X-7163Y11278
X-10922Y13437
X18517Y52197
X21488Y49174
X29210Y14605
X29210Y12700
X-3404Y6248
X28194Y19380
X26187Y3404
X-10897Y31979
X-8992Y31979
X-6375Y24689
X-5690Y25400
X27940Y12065
X-12167Y31344
X-15138Y30912
X-7468Y34646
X25248Y17882
X25197Y11252
X-6071Y27686
X-10490Y24841
X-5207Y30353
X-9525Y36220
X9525Y12216
X3250Y16561
X9525Y11635
X2669Y16561
X25248Y3861
X-2540Y45720
X-5080Y41910
X-8255Y41275
X11430Y40005
X13208Y42393
X31242Y21285
X28550Y28956
X-11074Y7010
X-4928Y27991
X-11125Y24613
X27534Y21438
X27534Y25552
X3302Y9500
X20117Y22555
X27534Y14580
X22758Y12395
X13564Y19355
X25044Y2946
X22047Y5131
X21387Y7925
X27534Y12903
X24790Y13208
X23978Y12700
X27534Y10414
X25248Y12700
X8433Y14173
X3708Y14173
X11481Y22708
X49174Y6147
X36678Y4267
X20955Y40005
X44196Y28829
X44856Y14961
X48828Y12723
X48539Y53746
X45085Y5080
X47060Y6280
X48006Y11201
X48844Y24041
X48870Y28854
X28770Y50132
X33655Y50165
X46025Y46482
X26035Y45085
X30480Y46355
X35839Y47142
X38735Y46355
X37465Y48260
X38735Y50165
X40005Y48260
X32766Y52375
X32639Y53670
X26035Y50800
X26035Y54610
X26035Y58420
X28575Y58420
X28575Y54610
X31115Y54610
X31115Y58420
X35560Y58420
X35560Y54610
X37160Y53975
X38735Y56515
X42545Y58420
X46355Y58420
X51435Y58420
X56515Y58420
X46355Y55880
X46355Y52705
X46355Y50165
X44450Y50800
X41910Y45720
X41910Y42545
X41910Y39370
X41910Y36195
X44450Y36195
X43815Y39370
X43815Y42545
X45085Y42545
X47625Y42545
X45085Y39370
X46990Y35560
X48895Y33020
X47625Y31750
X44221Y30912
X40310Y25857
X40945Y20142
X40310Y16332
X40310Y13157
X40310Y9347
X40310Y5537
X44755Y1092
X47930Y1092
X46025Y2362
X49352Y3200
X58090Y1092
X58090Y4902
X53645Y4902
X53645Y7442
X58090Y7442
X55550Y8712
X52375Y8712
X49352Y8865
X46660Y8712
X50470Y8712
X44755Y9347
X53035Y12243
X52984Y11227
X55855Y10846
X55855Y12751
X58090Y11887
X58090Y15697
X55550Y15697
X51740Y15697
X48565Y15697
X46025Y17602
X49200Y17602
X47930Y19507
X49530Y20345
X4267Y49784
X51105Y20371
X55550Y20777
X55550Y23317
X55550Y25222
X58090Y25222
X58090Y23317
X58090Y20777
X53645Y23317
X52375Y27127
X46025Y24587
X43485Y24587
X41580Y28397
X49835Y30937
X54356Y28702
X56261Y30607
X58166Y28067
X58801Y31877
X58801Y35052
X55626Y34417
X53086Y34417
X52451Y37592
X49911Y36322
X54991Y40132
X54991Y42037
X53086Y42037
X57125Y41885
X57125Y46330
X57125Y48870
X57125Y50775
X57760Y52680
X57760Y55855
X55220Y53315
X52680Y53950
X47041Y53086
X46634Y49022
X53899Y46685
X46990Y45085
X52857Y50800
X52400Y51968
X46914Y46965
X43942Y32944
X48895Y2540
X50089Y2819
X16458Y34442
X16395Y35851
X22428Y56007
X20980Y57480
X48362Y14300
X43559Y14402
X43180Y13970
X48870Y13589
X49733Y24333
X34586Y3862
X45034Y21006
X40640Y20955
X50800Y30480
X21273Y38418
X46334Y20934
X50470Y19050
X56515Y14861
X58725Y14986
X16078Y33376
X16027Y35433
X22606Y54153
X21438Y55194
X48285Y26772
X50724Y27407
X50800Y49679
X33780Y3659
X43101Y27940
X43180Y33934
X43104Y35484
X47066Y53772
X48895Y55245
X21665Y38025
X43180Y55880
X41275Y44450
X44196Y45466
X55245Y43180
X15619Y33833
X15619Y35992
X22479Y54966
X21642Y55855
X32902Y10579
X52329Y49287
X51517Y50800
X50165Y51435
X36043Y10795
X49530Y43815
X34073Y51740
X33223Y3456
X45339Y30582
X45339Y34342
X38024Y49378
X35560Y45744
X42545Y35304
X42545Y33934
X42545Y27940
X27254Y50241
X22225Y38100
X40005Y51435
X41275Y57150
X15240Y34290
X15240Y35560
X41962Y33960
X28011Y46355
X31115Y48895
X33325Y10998
X44960Y31723
X44783Y34341
X51435Y40640
X41275Y52705
X51435Y35560
X20492Y38461
X44580Y33785
X19456Y40081
X17374Y37998
X17374Y33325
X14935Y25908
X2286Y11836
X20676Y42977
X29769Y35916
X25298Y8484
X16967Y5029
X11328Y3912
X20523Y41148
X28753Y35509
X25298Y9042
X16408Y5029
X11887Y3912
X21082Y42570
X29718Y35103
X25298Y9601
X16002Y5486
X12446Y3912
X21082Y40894
X19863Y36373
X18085Y34036
X-9550Y37643
X16967Y31394
X-3810Y32918
X20218Y40386
X19456Y35408
X18491Y34442
X3556Y15748
X17374Y25502
X23749Y40132
X25806Y35103
X24079Y13919
X14427Y5588
X5944Y7264
X23317Y40589
X25400Y35509
X24587Y15240
X14986Y5588
X6350Y6858
X25197Y10160
X15596Y5080
X7112Y5334
X13183Y32461
X12790Y32854
X50911Y47287
X48231Y3810
X50255Y7888
X48260Y21590
X49860Y26391
X49512Y21608
X36195Y48895
X36195Y50800
X42062Y19253
X34138Y52324
X49733Y39624
X42469Y49936
X45466Y46939
X57556Y29616
X24638Y15799
X13106Y4826
X13106Y4064
X19558Y1118
X39116Y17248
X-12497Y11024
X20218Y26873
X-10668Y21387
X-10719Y11074
X9906Y12903
X-7010Y20117
X-6147Y14580
X19863Y26365
X-8331Y10922
X18237Y25502
X3962Y16154
X19050Y635
X38710Y18009
X9982Y49301
X12421Y46355
X5436Y44806
X10973Y43739
X46355Y35433
X12700Y40640
X41631Y31496
X10160Y39370
X11430Y48260
X27534Y18237
X-4369Y8534
X-4369Y11735
X-176Y43180
X379Y43180
X-5080Y40640
X-6985Y40640
X-9525Y41795
X-7620Y44423
X-6350Y46355
X-9525Y42823
X-8890Y42267
X-3759Y35103
X-5283Y35103
X-9906Y32309
X33319Y49530
X30480Y46990
X28880Y50724
X48260Y49231
X49246Y53772
X44450Y52070
X48263Y24127
X47371Y26568
X46355Y27940
X49733Y28931
X47955Y8509
X49098Y11125
X45720Y10160
X-15164Y28758
X-15339Y28046
X-5791Y46177
X-13335Y17118
X-13335Y16537
X-76Y17196
X-76Y19101
X-5461Y22885
X762Y23520
X-6017Y22860
X-406Y20828
X-6860Y22985
X-332Y16630
X-7279Y22617
X1194Y16750
X19685Y6985
X19050Y5080
X25400Y21539
X2388Y27483
X-6350Y26340
X-9017Y24892
X-11582Y30074
X-8077Y30937
X-12346Y26083
X9322Y4470
X6985Y9525
X12700Y9525
X12700Y13335
X7036Y12548
X6350Y17145
X8890Y17145
X12700Y17145
X17145Y17145
X21590Y17145
X23495Y19050
X22225Y26035
X25400Y26035
X24765Y31750
X20320Y31750
X20320Y28575
X20955Y33655
X20422Y36805
X21996Y40335
X18821Y40970
X16510Y41275
X11430Y42545
X12065Y50165
X6350Y47625
X6350Y49530
X1270Y50800
X1270Y46355
X-635Y52705
X-5715Y50800
X-10160Y60960
X-5715Y56515
X-5715Y60325
X-1905Y60350
X-635Y56515
X3810Y56515
X8255Y56515
X3810Y60960
X7620Y60960
X12065Y60960
X19050Y60960
X12700Y56515
X15875Y56515
X19685Y53975
X24130Y50800
X17145Y50800
X23495Y46990
X20955Y46355
X38100Y2997
X54915Y19101
M30