G04 EAGLE Gerber RS-274X export*
G75*
%MOMM*%
%FSLAX34Y34*%
%LPD*%
%INCopper Layer 15*%
%IPPOS*%
%AMOC8*
5,1,8,0,0,1.08239X$1,22.5*%
G01*
%ADD10C,0.304800*%
%ADD11C,0.254000*%
%ADD12C,0.406400*%
%ADD13C,0.088900*%
%ADD14C,0.114300*%
%ADD15C,0.127000*%

G36*
X218050Y2556D02*
X218050Y2556D01*
X218169Y2563D01*
X218207Y2576D01*
X218248Y2581D01*
X218358Y2624D01*
X218471Y2661D01*
X218506Y2683D01*
X218543Y2698D01*
X218639Y2767D01*
X218740Y2831D01*
X218768Y2861D01*
X218801Y2884D01*
X218877Y2976D01*
X218958Y3063D01*
X218978Y3098D01*
X219003Y3129D01*
X219054Y3237D01*
X219112Y3341D01*
X219122Y3381D01*
X219139Y3417D01*
X219161Y3534D01*
X219191Y3649D01*
X219195Y3709D01*
X219199Y3729D01*
X219197Y3750D01*
X219201Y3810D01*
X219201Y5835D01*
X220987Y7621D01*
X223513Y7621D01*
X224528Y6606D01*
X224622Y6533D01*
X224711Y6454D01*
X224747Y6436D01*
X224779Y6411D01*
X224888Y6364D01*
X224994Y6310D01*
X225033Y6301D01*
X225071Y6285D01*
X225188Y6266D01*
X225304Y6240D01*
X225345Y6241D01*
X225385Y6235D01*
X225503Y6246D01*
X225622Y6250D01*
X225661Y6261D01*
X225701Y6265D01*
X225814Y6305D01*
X225928Y6338D01*
X225963Y6359D01*
X226001Y6372D01*
X226099Y6439D01*
X226202Y6500D01*
X226247Y6540D01*
X226264Y6551D01*
X226277Y6566D01*
X226323Y6606D01*
X227429Y7713D01*
X227502Y7807D01*
X227581Y7896D01*
X227599Y7932D01*
X227624Y7964D01*
X227671Y8073D01*
X227725Y8179D01*
X227734Y8218D01*
X227750Y8256D01*
X227769Y8373D01*
X227795Y8489D01*
X227794Y8530D01*
X227800Y8570D01*
X227789Y8688D01*
X227785Y8807D01*
X227774Y8846D01*
X227770Y8886D01*
X227730Y8998D01*
X227697Y9113D01*
X227676Y9148D01*
X227663Y9186D01*
X227596Y9284D01*
X227535Y9387D01*
X227496Y9432D01*
X227484Y9449D01*
X227469Y9462D01*
X227429Y9508D01*
X224721Y12215D01*
X222884Y16650D01*
X222884Y21450D01*
X224721Y25885D01*
X228115Y29279D01*
X232550Y31116D01*
X237350Y31116D01*
X241785Y29279D01*
X245179Y25885D01*
X247016Y21450D01*
X247016Y16650D01*
X245179Y12215D01*
X241785Y8821D01*
X237350Y6984D01*
X232918Y6984D01*
X232800Y6969D01*
X232681Y6962D01*
X232643Y6949D01*
X232602Y6944D01*
X232492Y6901D01*
X232379Y6864D01*
X232344Y6842D01*
X232307Y6827D01*
X232211Y6758D01*
X232110Y6694D01*
X232082Y6664D01*
X232049Y6641D01*
X231973Y6549D01*
X231892Y6462D01*
X231872Y6427D01*
X231847Y6396D01*
X231796Y6288D01*
X231738Y6184D01*
X231728Y6144D01*
X231711Y6108D01*
X231689Y5991D01*
X231659Y5876D01*
X231655Y5816D01*
X231651Y5796D01*
X231653Y5775D01*
X231649Y5715D01*
X231649Y3810D01*
X231664Y3692D01*
X231671Y3573D01*
X231684Y3535D01*
X231689Y3494D01*
X231732Y3384D01*
X231769Y3271D01*
X231791Y3236D01*
X231806Y3199D01*
X231875Y3103D01*
X231939Y3002D01*
X231969Y2974D01*
X231992Y2941D01*
X232084Y2865D01*
X232171Y2784D01*
X232206Y2764D01*
X232237Y2739D01*
X232345Y2688D01*
X232449Y2630D01*
X232489Y2620D01*
X232525Y2603D01*
X232642Y2581D01*
X232757Y2551D01*
X232817Y2547D01*
X232837Y2543D01*
X232858Y2545D01*
X232918Y2541D01*
X250190Y2541D01*
X250308Y2556D01*
X250427Y2563D01*
X250465Y2576D01*
X250506Y2581D01*
X250616Y2624D01*
X250729Y2661D01*
X250764Y2683D01*
X250801Y2698D01*
X250897Y2767D01*
X250998Y2831D01*
X251026Y2861D01*
X251059Y2884D01*
X251135Y2976D01*
X251216Y3063D01*
X251236Y3098D01*
X251261Y3129D01*
X251312Y3237D01*
X251370Y3341D01*
X251380Y3381D01*
X251397Y3417D01*
X251419Y3534D01*
X251449Y3649D01*
X251453Y3709D01*
X251457Y3729D01*
X251455Y3750D01*
X251459Y3810D01*
X251459Y250190D01*
X251444Y250308D01*
X251437Y250427D01*
X251424Y250465D01*
X251419Y250506D01*
X251376Y250616D01*
X251339Y250729D01*
X251317Y250764D01*
X251302Y250801D01*
X251233Y250897D01*
X251169Y250998D01*
X251139Y251026D01*
X251116Y251059D01*
X251024Y251135D01*
X250937Y251216D01*
X250902Y251236D01*
X250871Y251261D01*
X250763Y251312D01*
X250659Y251370D01*
X250619Y251380D01*
X250583Y251397D01*
X250466Y251419D01*
X250351Y251449D01*
X250291Y251453D01*
X250271Y251457D01*
X250250Y251455D01*
X250190Y251459D01*
X217932Y251459D01*
X217814Y251444D01*
X217695Y251437D01*
X217657Y251424D01*
X217616Y251419D01*
X217506Y251376D01*
X217393Y251339D01*
X217358Y251317D01*
X217321Y251302D01*
X217225Y251233D01*
X217124Y251169D01*
X217096Y251139D01*
X217063Y251116D01*
X216987Y251024D01*
X216906Y250937D01*
X216886Y250902D01*
X216861Y250871D01*
X216810Y250763D01*
X216752Y250659D01*
X216742Y250619D01*
X216725Y250583D01*
X216703Y250466D01*
X216673Y250351D01*
X216669Y250291D01*
X216665Y250271D01*
X216667Y250250D01*
X216663Y250190D01*
X216663Y248165D01*
X214877Y246379D01*
X212351Y246379D01*
X210565Y248165D01*
X210565Y250190D01*
X210550Y250308D01*
X210543Y250427D01*
X210530Y250465D01*
X210525Y250506D01*
X210482Y250616D01*
X210445Y250729D01*
X210423Y250764D01*
X210408Y250801D01*
X210339Y250897D01*
X210275Y250998D01*
X210245Y251026D01*
X210222Y251059D01*
X210130Y251135D01*
X210043Y251216D01*
X210008Y251236D01*
X209977Y251261D01*
X209869Y251312D01*
X209765Y251370D01*
X209725Y251380D01*
X209689Y251397D01*
X209572Y251419D01*
X209457Y251449D01*
X209397Y251453D01*
X209377Y251457D01*
X209356Y251455D01*
X209296Y251459D01*
X175791Y251459D01*
X175673Y251444D01*
X175554Y251437D01*
X175515Y251424D01*
X175475Y251419D01*
X175364Y251376D01*
X175251Y251339D01*
X175217Y251317D01*
X175180Y251302D01*
X175083Y251233D01*
X174983Y251169D01*
X174955Y251139D01*
X174922Y251116D01*
X174846Y251024D01*
X174765Y250937D01*
X174745Y250902D01*
X174719Y250871D01*
X174669Y250763D01*
X174611Y250659D01*
X174601Y250619D01*
X174584Y250583D01*
X174562Y250466D01*
X174532Y250351D01*
X174528Y250291D01*
X174524Y250271D01*
X174525Y250250D01*
X174522Y250190D01*
X174522Y248142D01*
X172736Y246356D01*
X170199Y246356D01*
X170152Y246393D01*
X170063Y246472D01*
X170027Y246490D01*
X169995Y246515D01*
X169886Y246562D01*
X169780Y246616D01*
X169740Y246625D01*
X169703Y246641D01*
X169586Y246660D01*
X169470Y246686D01*
X169429Y246685D01*
X169389Y246691D01*
X169271Y246680D01*
X169152Y246676D01*
X169113Y246665D01*
X169073Y246661D01*
X168961Y246621D01*
X168846Y246588D01*
X168811Y246567D01*
X168773Y246554D01*
X168675Y246487D01*
X168572Y246426D01*
X168527Y246387D01*
X168510Y246375D01*
X168497Y246360D01*
X168451Y246320D01*
X167277Y245145D01*
X165172Y245145D01*
X164016Y246301D01*
X163922Y246374D01*
X163833Y246453D01*
X163797Y246472D01*
X163765Y246496D01*
X163655Y246544D01*
X163549Y246598D01*
X163510Y246607D01*
X163473Y246623D01*
X163355Y246641D01*
X163239Y246667D01*
X163199Y246666D01*
X163159Y246673D01*
X163040Y246661D01*
X162921Y246658D01*
X162882Y246647D01*
X162842Y246643D01*
X162730Y246602D01*
X162616Y246569D01*
X162581Y246549D01*
X162543Y246535D01*
X162444Y246468D01*
X162342Y246408D01*
X162297Y246368D01*
X162280Y246357D01*
X162266Y246341D01*
X162221Y246301D01*
X160267Y244347D01*
X157741Y244347D01*
X155955Y246133D01*
X155955Y248659D01*
X156589Y249293D01*
X156674Y249402D01*
X156763Y249509D01*
X156772Y249528D01*
X156784Y249544D01*
X156839Y249671D01*
X156898Y249797D01*
X156902Y249817D01*
X156910Y249836D01*
X156932Y249974D01*
X156958Y250110D01*
X156957Y250130D01*
X156960Y250150D01*
X156947Y250289D01*
X156938Y250427D01*
X156932Y250446D01*
X156930Y250466D01*
X156883Y250598D01*
X156840Y250729D01*
X156830Y250747D01*
X156823Y250766D01*
X156745Y250881D01*
X156670Y250998D01*
X156655Y251012D01*
X156644Y251029D01*
X156540Y251121D01*
X156439Y251216D01*
X156421Y251226D01*
X156406Y251239D01*
X156282Y251302D01*
X156160Y251370D01*
X156141Y251375D01*
X156122Y251384D01*
X155987Y251414D01*
X155852Y251449D01*
X155824Y251451D01*
X155812Y251454D01*
X155792Y251453D01*
X155691Y251459D01*
X98817Y251459D01*
X98679Y251442D01*
X98540Y251429D01*
X98521Y251422D01*
X98501Y251419D01*
X98372Y251368D01*
X98241Y251321D01*
X98224Y251310D01*
X98205Y251302D01*
X98093Y251221D01*
X97978Y251143D01*
X97964Y251127D01*
X97948Y251116D01*
X97859Y251008D01*
X97767Y250904D01*
X97758Y250886D01*
X97745Y250871D01*
X97686Y250745D01*
X97623Y250621D01*
X97618Y250601D01*
X97610Y250583D01*
X97584Y250446D01*
X97553Y250311D01*
X97554Y250290D01*
X97550Y250271D01*
X97558Y250132D01*
X97563Y249993D01*
X97568Y249973D01*
X97570Y249953D01*
X97612Y249821D01*
X97651Y249687D01*
X97661Y249670D01*
X97668Y249651D01*
X97742Y249533D01*
X97813Y249413D01*
X97831Y249392D01*
X97838Y249382D01*
X97853Y249368D01*
X97919Y249293D01*
X99061Y248151D01*
X99061Y245625D01*
X97275Y243839D01*
X94749Y243839D01*
X92963Y245625D01*
X92963Y248151D01*
X94105Y249293D01*
X94190Y249402D01*
X94279Y249509D01*
X94288Y249528D01*
X94300Y249544D01*
X94355Y249671D01*
X94414Y249797D01*
X94418Y249817D01*
X94426Y249836D01*
X94448Y249974D01*
X94474Y250110D01*
X94473Y250130D01*
X94476Y250150D01*
X94463Y250289D01*
X94454Y250427D01*
X94448Y250446D01*
X94446Y250466D01*
X94399Y250598D01*
X94356Y250729D01*
X94346Y250747D01*
X94339Y250766D01*
X94261Y250881D01*
X94186Y250998D01*
X94171Y251012D01*
X94160Y251029D01*
X94056Y251121D01*
X93955Y251216D01*
X93937Y251226D01*
X93922Y251239D01*
X93798Y251303D01*
X93676Y251370D01*
X93657Y251375D01*
X93638Y251384D01*
X93503Y251414D01*
X93368Y251449D01*
X93340Y251451D01*
X93328Y251454D01*
X93308Y251453D01*
X93207Y251459D01*
X3810Y251459D01*
X3692Y251444D01*
X3573Y251437D01*
X3535Y251424D01*
X3494Y251419D01*
X3384Y251376D01*
X3271Y251339D01*
X3236Y251317D01*
X3199Y251302D01*
X3103Y251233D01*
X3002Y251169D01*
X2974Y251139D01*
X2941Y251116D01*
X2865Y251024D01*
X2784Y250937D01*
X2764Y250902D01*
X2739Y250871D01*
X2688Y250763D01*
X2630Y250659D01*
X2620Y250619D01*
X2603Y250583D01*
X2581Y250466D01*
X2551Y250351D01*
X2547Y250291D01*
X2543Y250271D01*
X2545Y250250D01*
X2541Y250190D01*
X2541Y3810D01*
X2556Y3692D01*
X2563Y3573D01*
X2576Y3535D01*
X2581Y3494D01*
X2624Y3384D01*
X2661Y3271D01*
X2683Y3236D01*
X2698Y3199D01*
X2767Y3103D01*
X2831Y3002D01*
X2861Y2974D01*
X2884Y2941D01*
X2976Y2865D01*
X3063Y2784D01*
X3098Y2764D01*
X3129Y2739D01*
X3237Y2688D01*
X3341Y2630D01*
X3381Y2620D01*
X3417Y2603D01*
X3534Y2581D01*
X3649Y2551D01*
X3709Y2547D01*
X3729Y2543D01*
X3750Y2545D01*
X3810Y2541D01*
X217932Y2541D01*
X218050Y2556D01*
G37*
%LPC*%
G36*
X138437Y92709D02*
X138437Y92709D01*
X136651Y94495D01*
X136651Y97021D01*
X138437Y98807D01*
X139192Y98807D01*
X139310Y98822D01*
X139429Y98829D01*
X139467Y98842D01*
X139508Y98847D01*
X139618Y98890D01*
X139731Y98927D01*
X139766Y98949D01*
X139803Y98964D01*
X139899Y99033D01*
X140000Y99097D01*
X140028Y99127D01*
X140061Y99150D01*
X140137Y99242D01*
X140218Y99329D01*
X140238Y99364D01*
X140263Y99395D01*
X140314Y99503D01*
X140372Y99607D01*
X140382Y99647D01*
X140399Y99683D01*
X140421Y99800D01*
X140451Y99915D01*
X140455Y99975D01*
X140459Y99995D01*
X140457Y100016D01*
X140461Y100076D01*
X140461Y100831D01*
X141857Y102227D01*
X141930Y102321D01*
X142009Y102410D01*
X142027Y102446D01*
X142052Y102478D01*
X142099Y102587D01*
X142153Y102693D01*
X142162Y102733D01*
X142178Y102770D01*
X142197Y102887D01*
X142223Y103003D01*
X142222Y103044D01*
X142228Y103084D01*
X142217Y103203D01*
X142213Y103321D01*
X142202Y103360D01*
X142198Y103400D01*
X142158Y103513D01*
X142125Y103627D01*
X142104Y103662D01*
X142091Y103700D01*
X142024Y103798D01*
X141963Y103901D01*
X141924Y103946D01*
X141912Y103963D01*
X141897Y103976D01*
X141857Y104022D01*
X141445Y104433D01*
X141441Y104440D01*
X141411Y104468D01*
X141388Y104501D01*
X141296Y104577D01*
X141209Y104658D01*
X141174Y104678D01*
X141143Y104703D01*
X141035Y104754D01*
X140931Y104812D01*
X140891Y104822D01*
X140855Y104839D01*
X140738Y104861D01*
X140623Y104891D01*
X140563Y104895D01*
X140543Y104899D01*
X140522Y104897D01*
X140462Y104901D01*
X138803Y104901D01*
X138704Y104889D01*
X138605Y104886D01*
X138547Y104869D01*
X138487Y104861D01*
X138395Y104825D01*
X138300Y104797D01*
X138248Y104767D01*
X138191Y104744D01*
X138111Y104686D01*
X138026Y104636D01*
X137951Y104570D01*
X137934Y104558D01*
X137926Y104548D01*
X137905Y104530D01*
X135883Y102507D01*
X133357Y102507D01*
X133304Y102560D01*
X133210Y102633D01*
X133121Y102712D01*
X133085Y102730D01*
X133053Y102755D01*
X132944Y102802D01*
X132838Y102856D01*
X132799Y102865D01*
X132761Y102881D01*
X132643Y102900D01*
X132528Y102926D01*
X132487Y102925D01*
X132447Y102931D01*
X132329Y102920D01*
X132210Y102916D01*
X132171Y102905D01*
X132131Y102901D01*
X132019Y102861D01*
X131904Y102828D01*
X131869Y102807D01*
X131831Y102794D01*
X131733Y102727D01*
X131630Y102666D01*
X131585Y102627D01*
X131568Y102615D01*
X131555Y102600D01*
X131509Y102560D01*
X130803Y101853D01*
X128277Y101853D01*
X126491Y103639D01*
X126491Y106165D01*
X126744Y106418D01*
X126817Y106512D01*
X126896Y106601D01*
X126914Y106637D01*
X126939Y106669D01*
X126986Y106778D01*
X127040Y106884D01*
X127049Y106923D01*
X127065Y106961D01*
X127084Y107078D01*
X127110Y107194D01*
X127109Y107235D01*
X127115Y107275D01*
X127104Y107393D01*
X127100Y107512D01*
X127089Y107551D01*
X127085Y107591D01*
X127045Y107703D01*
X127012Y107818D01*
X126991Y107853D01*
X126978Y107891D01*
X126911Y107989D01*
X126850Y108092D01*
X126811Y108137D01*
X126799Y108154D01*
X126784Y108167D01*
X126744Y108213D01*
X126237Y108719D01*
X126237Y111241D01*
X126220Y111379D01*
X126207Y111518D01*
X126200Y111537D01*
X126197Y111557D01*
X126146Y111687D01*
X126099Y111817D01*
X126088Y111834D01*
X126080Y111853D01*
X125999Y111965D01*
X125921Y112080D01*
X125905Y112094D01*
X125894Y112110D01*
X125786Y112199D01*
X125682Y112291D01*
X125664Y112300D01*
X125649Y112313D01*
X125523Y112372D01*
X125399Y112435D01*
X125379Y112440D01*
X125361Y112448D01*
X125224Y112474D01*
X125089Y112505D01*
X125068Y112504D01*
X125049Y112508D01*
X124910Y112500D01*
X124771Y112495D01*
X124751Y112490D01*
X124731Y112488D01*
X124599Y112446D01*
X124465Y112407D01*
X124448Y112397D01*
X124429Y112390D01*
X124311Y112316D01*
X124191Y112245D01*
X124170Y112227D01*
X124160Y112220D01*
X124146Y112205D01*
X124071Y112139D01*
X123691Y111759D01*
X121165Y111759D01*
X120785Y112139D01*
X120676Y112224D01*
X120569Y112313D01*
X120550Y112321D01*
X120534Y112334D01*
X120406Y112389D01*
X120281Y112448D01*
X120261Y112452D01*
X120242Y112460D01*
X120104Y112482D01*
X119968Y112508D01*
X119948Y112507D01*
X119928Y112510D01*
X119789Y112497D01*
X119651Y112488D01*
X119632Y112482D01*
X119612Y112480D01*
X119481Y112433D01*
X119349Y112390D01*
X119331Y112380D01*
X119312Y112373D01*
X119198Y112295D01*
X119080Y112220D01*
X119066Y112205D01*
X119049Y112194D01*
X118957Y112090D01*
X118862Y111989D01*
X118852Y111971D01*
X118839Y111956D01*
X118776Y111832D01*
X118708Y111710D01*
X118703Y111691D01*
X118694Y111672D01*
X118664Y111537D01*
X118629Y111402D01*
X118627Y111374D01*
X118624Y111362D01*
X118625Y111342D01*
X118619Y111241D01*
X118619Y108719D01*
X116833Y106933D01*
X114057Y106933D01*
X113958Y106921D01*
X113859Y106918D01*
X113801Y106901D01*
X113741Y106893D01*
X113649Y106857D01*
X113554Y106829D01*
X113502Y106799D01*
X113445Y106776D01*
X113365Y106718D01*
X113280Y106668D01*
X113205Y106602D01*
X113188Y106590D01*
X113180Y106580D01*
X113159Y106562D01*
X111245Y104647D01*
X108719Y104647D01*
X106933Y106433D01*
X106933Y108959D01*
X108719Y110745D01*
X111495Y110745D01*
X111594Y110757D01*
X111693Y110760D01*
X111751Y110777D01*
X111811Y110785D01*
X111903Y110821D01*
X111998Y110849D01*
X112050Y110879D01*
X112107Y110902D01*
X112187Y110960D01*
X112272Y111010D01*
X112347Y111076D01*
X112364Y111088D01*
X112372Y111098D01*
X112393Y111116D01*
X114307Y113031D01*
X116833Y113031D01*
X117213Y112651D01*
X117322Y112566D01*
X117429Y112477D01*
X117448Y112469D01*
X117464Y112456D01*
X117592Y112401D01*
X117717Y112342D01*
X117737Y112338D01*
X117756Y112330D01*
X117894Y112308D01*
X118030Y112282D01*
X118050Y112283D01*
X118070Y112280D01*
X118209Y112293D01*
X118347Y112302D01*
X118366Y112308D01*
X118386Y112310D01*
X118517Y112357D01*
X118649Y112400D01*
X118667Y112410D01*
X118686Y112417D01*
X118800Y112495D01*
X118918Y112570D01*
X118932Y112585D01*
X118949Y112596D01*
X119041Y112700D01*
X119136Y112801D01*
X119146Y112819D01*
X119159Y112834D01*
X119222Y112957D01*
X119290Y113080D01*
X119295Y113099D01*
X119304Y113118D01*
X119334Y113253D01*
X119369Y113388D01*
X119371Y113416D01*
X119374Y113428D01*
X119373Y113448D01*
X119379Y113549D01*
X119379Y116071D01*
X120648Y117340D01*
X120721Y117434D01*
X120800Y117523D01*
X120818Y117559D01*
X120843Y117591D01*
X120890Y117700D01*
X120944Y117806D01*
X120953Y117846D01*
X120969Y117883D01*
X120988Y118000D01*
X121014Y118116D01*
X121013Y118157D01*
X121019Y118197D01*
X121008Y118316D01*
X121004Y118434D01*
X120993Y118473D01*
X120989Y118513D01*
X120949Y118625D01*
X120916Y118740D01*
X120895Y118775D01*
X120882Y118813D01*
X120815Y118911D01*
X120754Y119014D01*
X120715Y119059D01*
X120703Y119076D01*
X120688Y119089D01*
X120649Y119133D01*
X120649Y121659D01*
X122435Y123445D01*
X123190Y123445D01*
X123308Y123460D01*
X123427Y123467D01*
X123465Y123480D01*
X123506Y123485D01*
X123616Y123528D01*
X123729Y123565D01*
X123764Y123587D01*
X123801Y123602D01*
X123897Y123671D01*
X123998Y123735D01*
X124026Y123765D01*
X124059Y123788D01*
X124135Y123880D01*
X124216Y123967D01*
X124236Y124002D01*
X124261Y124033D01*
X124312Y124141D01*
X124370Y124245D01*
X124380Y124285D01*
X124397Y124321D01*
X124419Y124438D01*
X124449Y124553D01*
X124453Y124613D01*
X124457Y124633D01*
X124455Y124654D01*
X124459Y124714D01*
X124459Y125469D01*
X126363Y127373D01*
X126448Y127482D01*
X126537Y127589D01*
X126545Y127608D01*
X126558Y127624D01*
X126613Y127752D01*
X126672Y127877D01*
X126676Y127897D01*
X126719Y127833D01*
X126794Y127716D01*
X126809Y127702D01*
X126820Y127685D01*
X126924Y127593D01*
X127025Y127498D01*
X127043Y127488D01*
X127058Y127475D01*
X127182Y127411D01*
X127304Y127344D01*
X127323Y127339D01*
X127342Y127330D01*
X127477Y127300D01*
X127612Y127265D01*
X127640Y127263D01*
X127652Y127260D01*
X127672Y127261D01*
X127773Y127255D01*
X128771Y127255D01*
X129405Y126621D01*
X129514Y126536D01*
X129621Y126447D01*
X129640Y126438D01*
X129656Y126426D01*
X129783Y126371D01*
X129909Y126312D01*
X129929Y126308D01*
X129948Y126300D01*
X130086Y126278D01*
X130222Y126252D01*
X130242Y126253D01*
X130262Y126250D01*
X130401Y126263D01*
X130539Y126272D01*
X130558Y126278D01*
X130578Y126280D01*
X130710Y126327D01*
X130841Y126370D01*
X130859Y126380D01*
X130878Y126387D01*
X130993Y126465D01*
X131110Y126540D01*
X131124Y126555D01*
X131141Y126566D01*
X131233Y126670D01*
X131328Y126771D01*
X131338Y126789D01*
X131351Y126804D01*
X131414Y126928D01*
X131482Y127050D01*
X131487Y127069D01*
X131496Y127088D01*
X131526Y127223D01*
X131561Y127358D01*
X131563Y127386D01*
X131566Y127398D01*
X131565Y127418D01*
X131571Y127519D01*
X131571Y129533D01*
X133232Y131193D01*
X133292Y131271D01*
X133360Y131343D01*
X133389Y131396D01*
X133426Y131444D01*
X133466Y131535D01*
X133514Y131622D01*
X133529Y131681D01*
X133553Y131736D01*
X133568Y131834D01*
X133593Y131930D01*
X133599Y132030D01*
X133603Y132050D01*
X133601Y132063D01*
X133603Y132091D01*
X133603Y134613D01*
X135389Y136399D01*
X137915Y136399D01*
X139701Y134613D01*
X139701Y131826D01*
X139716Y131708D01*
X139723Y131589D01*
X139736Y131551D01*
X139741Y131510D01*
X139784Y131400D01*
X139821Y131287D01*
X139843Y131252D01*
X139858Y131215D01*
X139927Y131119D01*
X139991Y131018D01*
X140021Y130990D01*
X140044Y130957D01*
X140136Y130881D01*
X140223Y130800D01*
X140258Y130780D01*
X140289Y130755D01*
X140397Y130704D01*
X140501Y130646D01*
X140541Y130636D01*
X140577Y130619D01*
X140694Y130597D01*
X140809Y130567D01*
X140869Y130563D01*
X140889Y130559D01*
X140910Y130561D01*
X140970Y130557D01*
X142233Y130557D01*
X144019Y128771D01*
X144019Y126245D01*
X142230Y124457D01*
X142113Y124442D01*
X141974Y124429D01*
X141955Y124422D01*
X141935Y124419D01*
X141806Y124368D01*
X141675Y124321D01*
X141658Y124310D01*
X141639Y124302D01*
X141527Y124221D01*
X141412Y124143D01*
X141398Y124127D01*
X141382Y124116D01*
X141293Y124008D01*
X141201Y123904D01*
X141192Y123886D01*
X141179Y123871D01*
X141120Y123745D01*
X141057Y123621D01*
X141052Y123601D01*
X141044Y123583D01*
X141018Y123446D01*
X140987Y123311D01*
X140988Y123290D01*
X140984Y123271D01*
X140992Y123132D01*
X140997Y122993D01*
X141002Y122973D01*
X141004Y122953D01*
X141046Y122821D01*
X141085Y122687D01*
X141095Y122670D01*
X141102Y122651D01*
X141176Y122533D01*
X141247Y122413D01*
X141265Y122392D01*
X141272Y122382D01*
X141287Y122368D01*
X141353Y122293D01*
X141987Y121659D01*
X141987Y119133D01*
X140083Y117230D01*
X140010Y117135D01*
X139931Y117046D01*
X139913Y117010D01*
X139888Y116978D01*
X139841Y116869D01*
X139787Y116763D01*
X139778Y116724D01*
X139762Y116686D01*
X139743Y116569D01*
X139717Y116453D01*
X139718Y116412D01*
X139712Y116372D01*
X139723Y116254D01*
X139727Y116135D01*
X139738Y116096D01*
X139742Y116056D01*
X139782Y115943D01*
X139815Y115829D01*
X139836Y115795D01*
X139849Y115756D01*
X139916Y115658D01*
X139977Y115555D01*
X140017Y115510D01*
X140028Y115493D01*
X140043Y115480D01*
X140083Y115435D01*
X141225Y114293D01*
X141225Y111263D01*
X141237Y111164D01*
X141240Y111065D01*
X141257Y111007D01*
X141265Y110947D01*
X141301Y110855D01*
X141329Y110760D01*
X141359Y110708D01*
X141382Y110651D01*
X141440Y110571D01*
X141490Y110486D01*
X141556Y110411D01*
X141568Y110394D01*
X141578Y110386D01*
X141596Y110365D01*
X143035Y108927D01*
X143039Y108920D01*
X143069Y108892D01*
X143092Y108859D01*
X143184Y108783D01*
X143271Y108702D01*
X143306Y108682D01*
X143337Y108657D01*
X143445Y108606D01*
X143549Y108548D01*
X143589Y108538D01*
X143625Y108521D01*
X143742Y108499D01*
X143857Y108469D01*
X143917Y108465D01*
X143937Y108461D01*
X143958Y108463D01*
X144018Y108459D01*
X145542Y108459D01*
X145660Y108474D01*
X145779Y108481D01*
X145817Y108494D01*
X145858Y108499D01*
X145968Y108542D01*
X146081Y108579D01*
X146116Y108601D01*
X146153Y108616D01*
X146249Y108685D01*
X146350Y108749D01*
X146378Y108779D01*
X146411Y108802D01*
X146487Y108894D01*
X146568Y108981D01*
X146588Y109016D01*
X146613Y109047D01*
X146664Y109155D01*
X146722Y109259D01*
X146732Y109299D01*
X146749Y109335D01*
X146771Y109452D01*
X146801Y109567D01*
X146805Y109627D01*
X146809Y109647D01*
X146807Y109668D01*
X146811Y109728D01*
X146811Y112007D01*
X148682Y113877D01*
X148698Y113884D01*
X148829Y113931D01*
X148846Y113942D01*
X148864Y113950D01*
X148977Y114031D01*
X149092Y114109D01*
X149105Y114125D01*
X149122Y114136D01*
X149211Y114244D01*
X149302Y114348D01*
X149312Y114366D01*
X149325Y114381D01*
X149384Y114507D01*
X149447Y114631D01*
X149452Y114651D01*
X149460Y114669D01*
X149486Y114806D01*
X149517Y114941D01*
X149516Y114962D01*
X149520Y114981D01*
X149511Y115120D01*
X149507Y115259D01*
X149501Y115279D01*
X149500Y115299D01*
X149457Y115431D01*
X149419Y115565D01*
X149408Y115582D01*
X149402Y115601D01*
X149328Y115719D01*
X149257Y115839D01*
X149239Y115860D01*
X149232Y115870D01*
X149217Y115884D01*
X149151Y115959D01*
X147537Y117573D01*
X147537Y120099D01*
X149488Y122049D01*
X149548Y122127D01*
X149616Y122199D01*
X149645Y122252D01*
X149682Y122300D01*
X149722Y122391D01*
X149770Y122478D01*
X149785Y122536D01*
X149809Y122592D01*
X149824Y122690D01*
X149849Y122786D01*
X149855Y122886D01*
X149859Y122906D01*
X149857Y122919D01*
X149859Y122947D01*
X149859Y124961D01*
X151645Y126747D01*
X154178Y126747D01*
X154296Y126762D01*
X154415Y126769D01*
X154453Y126782D01*
X154494Y126787D01*
X154604Y126830D01*
X154717Y126867D01*
X154752Y126889D01*
X154789Y126904D01*
X154885Y126973D01*
X154986Y127037D01*
X155014Y127067D01*
X155047Y127090D01*
X155123Y127182D01*
X155204Y127269D01*
X155224Y127304D01*
X155249Y127335D01*
X155300Y127443D01*
X155358Y127547D01*
X155368Y127587D01*
X155385Y127623D01*
X155407Y127740D01*
X155437Y127855D01*
X155441Y127915D01*
X155445Y127935D01*
X155443Y127956D01*
X155447Y128016D01*
X155447Y129533D01*
X157233Y131319D01*
X159759Y131319D01*
X160911Y130166D01*
X160989Y130106D01*
X161061Y130038D01*
X161115Y130009D01*
X161162Y129972D01*
X161253Y129932D01*
X161340Y129884D01*
X161399Y129869D01*
X161454Y129845D01*
X161552Y129830D01*
X161648Y129805D01*
X161748Y129799D01*
X161768Y129795D01*
X161781Y129797D01*
X161809Y129795D01*
X165100Y129795D01*
X165218Y129810D01*
X165337Y129817D01*
X165375Y129830D01*
X165416Y129835D01*
X165526Y129878D01*
X165639Y129915D01*
X165674Y129937D01*
X165711Y129952D01*
X165807Y130021D01*
X165908Y130085D01*
X165936Y130115D01*
X165969Y130138D01*
X166045Y130230D01*
X166126Y130317D01*
X166146Y130352D01*
X166171Y130383D01*
X166222Y130491D01*
X166280Y130595D01*
X166290Y130635D01*
X166307Y130671D01*
X166329Y130788D01*
X166359Y130903D01*
X166363Y130963D01*
X166367Y130983D01*
X166365Y131004D01*
X166369Y131064D01*
X166369Y132327D01*
X168155Y134113D01*
X170899Y134113D01*
X171037Y134130D01*
X171175Y134143D01*
X171194Y134150D01*
X171212Y134152D01*
X171218Y134054D01*
X171223Y133915D01*
X171228Y133895D01*
X171230Y133875D01*
X171272Y133743D01*
X171311Y133609D01*
X171321Y133592D01*
X171328Y133573D01*
X171402Y133455D01*
X171473Y133335D01*
X171491Y133314D01*
X171498Y133304D01*
X171513Y133290D01*
X171579Y133215D01*
X172467Y132327D01*
X172467Y129801D01*
X170681Y128015D01*
X167894Y128015D01*
X167776Y128000D01*
X167657Y127993D01*
X167619Y127980D01*
X167578Y127975D01*
X167468Y127932D01*
X167355Y127895D01*
X167320Y127873D01*
X167283Y127858D01*
X167187Y127789D01*
X167086Y127725D01*
X167058Y127695D01*
X167025Y127672D01*
X166949Y127580D01*
X166868Y127493D01*
X166848Y127458D01*
X166823Y127427D01*
X166772Y127319D01*
X166714Y127215D01*
X166704Y127175D01*
X166687Y127139D01*
X166665Y127022D01*
X166635Y126907D01*
X166631Y126847D01*
X166627Y126827D01*
X166629Y126806D01*
X166625Y126746D01*
X166625Y125483D01*
X164839Y123697D01*
X162313Y123697D01*
X161161Y124850D01*
X161083Y124910D01*
X161011Y124978D01*
X160958Y125007D01*
X160910Y125044D01*
X160819Y125084D01*
X160732Y125132D01*
X160673Y125147D01*
X160618Y125171D01*
X160520Y125186D01*
X160424Y125211D01*
X160324Y125217D01*
X160304Y125221D01*
X160291Y125219D01*
X160263Y125221D01*
X157226Y125221D01*
X157108Y125206D01*
X156989Y125199D01*
X156951Y125186D01*
X156910Y125181D01*
X156800Y125138D01*
X156687Y125101D01*
X156652Y125079D01*
X156615Y125064D01*
X156519Y124995D01*
X156418Y124931D01*
X156390Y124901D01*
X156357Y124878D01*
X156281Y124786D01*
X156200Y124699D01*
X156180Y124664D01*
X156155Y124633D01*
X156104Y124525D01*
X156046Y124421D01*
X156036Y124381D01*
X156019Y124345D01*
X155997Y124228D01*
X155967Y124113D01*
X155963Y124053D01*
X155959Y124033D01*
X155961Y124012D01*
X155957Y123952D01*
X155957Y122435D01*
X154006Y120485D01*
X153946Y120407D01*
X153878Y120334D01*
X153849Y120281D01*
X153811Y120234D01*
X153772Y120143D01*
X153724Y120056D01*
X153709Y119997D01*
X153685Y119942D01*
X153670Y119844D01*
X153645Y119748D01*
X153638Y119648D01*
X153635Y119628D01*
X153636Y119615D01*
X153635Y119587D01*
X153635Y117573D01*
X151764Y115703D01*
X151748Y115696D01*
X151617Y115649D01*
X151600Y115638D01*
X151581Y115630D01*
X151469Y115549D01*
X151354Y115470D01*
X151340Y115455D01*
X151324Y115443D01*
X151235Y115336D01*
X151143Y115232D01*
X151134Y115214D01*
X151121Y115198D01*
X151062Y115073D01*
X150999Y114949D01*
X150994Y114929D01*
X150986Y114911D01*
X150960Y114774D01*
X150929Y114639D01*
X150930Y114618D01*
X150926Y114598D01*
X150935Y114460D01*
X150939Y114321D01*
X150944Y114301D01*
X150946Y114281D01*
X150988Y114149D01*
X151027Y114015D01*
X151037Y113998D01*
X151044Y113978D01*
X151118Y113861D01*
X151189Y113741D01*
X151207Y113720D01*
X151214Y113710D01*
X151229Y113696D01*
X151295Y113620D01*
X152909Y112007D01*
X152909Y109481D01*
X151123Y107695D01*
X149098Y107695D01*
X148980Y107680D01*
X148861Y107673D01*
X148823Y107660D01*
X148782Y107655D01*
X148672Y107612D01*
X148559Y107575D01*
X148524Y107553D01*
X148487Y107538D01*
X148391Y107469D01*
X148290Y107405D01*
X148262Y107375D01*
X148229Y107352D01*
X148153Y107260D01*
X148072Y107173D01*
X148052Y107138D01*
X148027Y107107D01*
X147976Y106999D01*
X147918Y106895D01*
X147908Y106855D01*
X147891Y106819D01*
X147869Y106702D01*
X147839Y106587D01*
X147835Y106527D01*
X147831Y106507D01*
X147833Y106486D01*
X147829Y106426D01*
X147829Y104147D01*
X146433Y102752D01*
X146360Y102657D01*
X146281Y102568D01*
X146263Y102532D01*
X146238Y102500D01*
X146191Y102391D01*
X146137Y102285D01*
X146128Y102246D01*
X146112Y102208D01*
X146093Y102091D01*
X146067Y101975D01*
X146068Y101934D01*
X146062Y101894D01*
X146073Y101776D01*
X146077Y101657D01*
X146088Y101618D01*
X146092Y101578D01*
X146132Y101465D01*
X146165Y101351D01*
X146186Y101317D01*
X146199Y101278D01*
X146266Y101180D01*
X146327Y101077D01*
X146367Y101032D01*
X146378Y101015D01*
X146393Y101002D01*
X146433Y100957D01*
X146559Y100831D01*
X146559Y98305D01*
X144773Y96519D01*
X144018Y96519D01*
X143900Y96504D01*
X143781Y96497D01*
X143743Y96484D01*
X143702Y96479D01*
X143592Y96436D01*
X143479Y96399D01*
X143444Y96377D01*
X143407Y96362D01*
X143311Y96293D01*
X143210Y96229D01*
X143182Y96199D01*
X143149Y96176D01*
X143073Y96084D01*
X142992Y95997D01*
X142972Y95962D01*
X142947Y95931D01*
X142896Y95823D01*
X142838Y95719D01*
X142828Y95679D01*
X142811Y95643D01*
X142789Y95526D01*
X142759Y95411D01*
X142755Y95351D01*
X142751Y95331D01*
X142753Y95310D01*
X142749Y95250D01*
X142749Y94495D01*
X140963Y92709D01*
X138437Y92709D01*
G37*
%LPD*%
%LPC*%
G36*
X113037Y121665D02*
X113037Y121665D01*
X111251Y123451D01*
X111251Y125977D01*
X111885Y126611D01*
X111970Y126720D01*
X112059Y126827D01*
X112068Y126846D01*
X112080Y126862D01*
X112135Y126989D01*
X112194Y127115D01*
X112198Y127135D01*
X112206Y127154D01*
X112228Y127292D01*
X112254Y127428D01*
X112253Y127448D01*
X112256Y127468D01*
X112243Y127607D01*
X112234Y127745D01*
X112228Y127764D01*
X112226Y127784D01*
X112179Y127916D01*
X112136Y128047D01*
X112126Y128065D01*
X112119Y128084D01*
X112041Y128199D01*
X111966Y128316D01*
X111951Y128330D01*
X111940Y128347D01*
X111836Y128439D01*
X111735Y128534D01*
X111717Y128544D01*
X111702Y128557D01*
X111578Y128620D01*
X111456Y128688D01*
X111437Y128693D01*
X111418Y128702D01*
X111283Y128732D01*
X111148Y128767D01*
X111120Y128769D01*
X111108Y128772D01*
X111088Y128771D01*
X111006Y128776D01*
X109599Y130184D01*
X109521Y130244D01*
X109449Y130312D01*
X109396Y130341D01*
X109348Y130378D01*
X109257Y130418D01*
X109170Y130466D01*
X109111Y130481D01*
X109056Y130505D01*
X108958Y130520D01*
X108862Y130545D01*
X108762Y130551D01*
X108742Y130555D01*
X108729Y130553D01*
X108701Y130555D01*
X105925Y130555D01*
X104139Y132341D01*
X104139Y134867D01*
X105925Y136653D01*
X108451Y136653D01*
X109857Y135246D01*
X109935Y135186D01*
X110007Y135118D01*
X110060Y135089D01*
X110108Y135052D01*
X110199Y135012D01*
X110286Y134964D01*
X110344Y134949D01*
X110400Y134925D01*
X110498Y134910D01*
X110594Y134885D01*
X110694Y134879D01*
X110714Y134875D01*
X110727Y134877D01*
X110755Y134875D01*
X110998Y134875D01*
X111116Y134890D01*
X111235Y134897D01*
X111273Y134910D01*
X111314Y134915D01*
X111424Y134958D01*
X111537Y134995D01*
X111572Y135017D01*
X111609Y135032D01*
X111705Y135101D01*
X111806Y135165D01*
X111834Y135195D01*
X111867Y135218D01*
X111943Y135310D01*
X112024Y135397D01*
X112044Y135432D01*
X112069Y135463D01*
X112120Y135571D01*
X112178Y135675D01*
X112188Y135715D01*
X112205Y135751D01*
X112227Y135868D01*
X112257Y135983D01*
X112261Y136043D01*
X112265Y136063D01*
X112263Y136084D01*
X112267Y136144D01*
X112267Y138931D01*
X114053Y140717D01*
X116579Y140717D01*
X118482Y138813D01*
X118577Y138740D01*
X118666Y138661D01*
X118702Y138643D01*
X118734Y138618D01*
X118843Y138571D01*
X118949Y138517D01*
X118988Y138508D01*
X119026Y138492D01*
X119143Y138473D01*
X119259Y138447D01*
X119300Y138448D01*
X119340Y138442D01*
X119458Y138453D01*
X119577Y138457D01*
X119616Y138468D01*
X119656Y138472D01*
X119768Y138512D01*
X119883Y138545D01*
X119917Y138566D01*
X119956Y138579D01*
X120054Y138646D01*
X120157Y138707D01*
X120202Y138746D01*
X120219Y138758D01*
X120232Y138773D01*
X120277Y138813D01*
X120563Y139098D01*
X120636Y139192D01*
X120714Y139281D01*
X120733Y139317D01*
X120758Y139349D01*
X120805Y139459D01*
X120859Y139565D01*
X120868Y139604D01*
X120884Y139641D01*
X120903Y139759D01*
X120929Y139875D01*
X120927Y139915D01*
X120934Y139955D01*
X120923Y140074D01*
X120919Y140193D01*
X120908Y140232D01*
X120904Y140272D01*
X120864Y140384D01*
X120831Y140498D01*
X120823Y140511D01*
X120823Y143158D01*
X121352Y143687D01*
X121425Y143781D01*
X121504Y143870D01*
X121522Y143906D01*
X121547Y143938D01*
X121594Y144047D01*
X121648Y144153D01*
X121657Y144193D01*
X121673Y144230D01*
X121692Y144348D01*
X121718Y144464D01*
X121717Y144504D01*
X121723Y144544D01*
X121712Y144663D01*
X121708Y144781D01*
X121697Y144820D01*
X121693Y144861D01*
X121653Y144973D01*
X121620Y145087D01*
X121599Y145122D01*
X121585Y145160D01*
X121519Y145258D01*
X121458Y145361D01*
X121418Y145406D01*
X121407Y145423D01*
X121392Y145436D01*
X121352Y145482D01*
X120903Y145930D01*
X120903Y148456D01*
X121283Y148835D01*
X121356Y148929D01*
X121435Y149019D01*
X121453Y149055D01*
X121478Y149087D01*
X121525Y149196D01*
X121579Y149302D01*
X121588Y149341D01*
X121604Y149379D01*
X121623Y149496D01*
X121649Y149612D01*
X121648Y149653D01*
X121654Y149693D01*
X121643Y149811D01*
X121639Y149930D01*
X121628Y149969D01*
X121624Y150009D01*
X121584Y150121D01*
X121551Y150236D01*
X121530Y150271D01*
X121517Y150309D01*
X121450Y150407D01*
X121389Y150510D01*
X121349Y150555D01*
X121338Y150572D01*
X121323Y150585D01*
X121283Y150630D01*
X120903Y151010D01*
X120903Y151638D01*
X120888Y151756D01*
X120881Y151875D01*
X120868Y151913D01*
X120863Y151954D01*
X120820Y152064D01*
X120783Y152177D01*
X120761Y152212D01*
X120746Y152249D01*
X120677Y152345D01*
X120613Y152446D01*
X120583Y152474D01*
X120560Y152507D01*
X120468Y152583D01*
X120381Y152664D01*
X120346Y152684D01*
X120315Y152709D01*
X120207Y152760D01*
X120103Y152818D01*
X120063Y152828D01*
X120027Y152845D01*
X119910Y152867D01*
X119795Y152897D01*
X119735Y152901D01*
X119715Y152905D01*
X119694Y152903D01*
X119634Y152907D01*
X119133Y152907D01*
X117357Y154684D01*
X117262Y154757D01*
X117173Y154836D01*
X117137Y154854D01*
X117105Y154879D01*
X116996Y154926D01*
X116890Y154980D01*
X116851Y154989D01*
X116813Y155005D01*
X116696Y155024D01*
X116580Y155050D01*
X116539Y155049D01*
X116499Y155055D01*
X116381Y155044D01*
X116262Y155040D01*
X116223Y155029D01*
X116183Y155025D01*
X116070Y154985D01*
X115956Y154952D01*
X115922Y154931D01*
X115883Y154918D01*
X115785Y154851D01*
X115682Y154790D01*
X115637Y154750D01*
X115620Y154739D01*
X115607Y154724D01*
X115562Y154684D01*
X114039Y153161D01*
X111513Y153161D01*
X109727Y154947D01*
X109727Y156972D01*
X109712Y157090D01*
X109705Y157209D01*
X109692Y157247D01*
X109687Y157288D01*
X109644Y157398D01*
X109607Y157511D01*
X109585Y157546D01*
X109570Y157583D01*
X109501Y157679D01*
X109437Y157780D01*
X109407Y157808D01*
X109384Y157841D01*
X109292Y157917D01*
X109205Y157998D01*
X109170Y158018D01*
X109139Y158043D01*
X109031Y158094D01*
X108927Y158152D01*
X108887Y158162D01*
X108851Y158179D01*
X108734Y158201D01*
X108619Y158231D01*
X108559Y158235D01*
X108539Y158239D01*
X108518Y158237D01*
X108458Y158241D01*
X108204Y158241D01*
X108086Y158226D01*
X107967Y158219D01*
X107929Y158206D01*
X107888Y158201D01*
X107778Y158158D01*
X107665Y158121D01*
X107630Y158099D01*
X107593Y158084D01*
X107497Y158015D01*
X107396Y157951D01*
X107368Y157921D01*
X107335Y157898D01*
X107259Y157806D01*
X107178Y157719D01*
X107158Y157684D01*
X107133Y157653D01*
X107082Y157545D01*
X107024Y157441D01*
X107014Y157401D01*
X106997Y157365D01*
X106975Y157248D01*
X106945Y157133D01*
X106941Y157073D01*
X106937Y157053D01*
X106939Y157032D01*
X106935Y156972D01*
X106935Y156217D01*
X105149Y154431D01*
X102623Y154431D01*
X100837Y156217D01*
X100837Y158743D01*
X102623Y160529D01*
X103378Y160529D01*
X103496Y160544D01*
X103615Y160551D01*
X103653Y160564D01*
X103694Y160569D01*
X103804Y160612D01*
X103917Y160649D01*
X103952Y160671D01*
X103989Y160686D01*
X104085Y160755D01*
X104186Y160819D01*
X104214Y160849D01*
X104247Y160872D01*
X104323Y160964D01*
X104404Y161051D01*
X104424Y161086D01*
X104449Y161117D01*
X104500Y161225D01*
X104558Y161329D01*
X104568Y161369D01*
X104585Y161405D01*
X104607Y161522D01*
X104637Y161637D01*
X104641Y161697D01*
X104645Y161717D01*
X104643Y161738D01*
X104647Y161798D01*
X104647Y162553D01*
X106433Y164339D01*
X108959Y164339D01*
X110745Y162553D01*
X110745Y160528D01*
X110760Y160410D01*
X110767Y160291D01*
X110780Y160253D01*
X110785Y160212D01*
X110828Y160102D01*
X110865Y159989D01*
X110887Y159954D01*
X110902Y159917D01*
X110971Y159821D01*
X111035Y159720D01*
X111065Y159692D01*
X111088Y159659D01*
X111180Y159583D01*
X111267Y159502D01*
X111302Y159482D01*
X111333Y159457D01*
X111441Y159406D01*
X111545Y159348D01*
X111585Y159338D01*
X111621Y159321D01*
X111738Y159299D01*
X111853Y159269D01*
X111913Y159265D01*
X111933Y159261D01*
X111954Y159263D01*
X112014Y159259D01*
X112522Y159259D01*
X112640Y159274D01*
X112759Y159281D01*
X112797Y159294D01*
X112838Y159299D01*
X112948Y159342D01*
X113061Y159379D01*
X113096Y159401D01*
X113133Y159416D01*
X113229Y159485D01*
X113330Y159549D01*
X113358Y159579D01*
X113391Y159602D01*
X113467Y159694D01*
X113548Y159781D01*
X113568Y159816D01*
X113593Y159847D01*
X113644Y159955D01*
X113702Y160059D01*
X113712Y160099D01*
X113729Y160135D01*
X113751Y160252D01*
X113781Y160367D01*
X113785Y160427D01*
X113789Y160447D01*
X113787Y160468D01*
X113791Y160528D01*
X113791Y161029D01*
X115577Y162815D01*
X118103Y162815D01*
X119499Y161419D01*
X119593Y161346D01*
X119682Y161267D01*
X119718Y161249D01*
X119750Y161224D01*
X119859Y161177D01*
X119965Y161123D01*
X120004Y161114D01*
X120042Y161098D01*
X120159Y161079D01*
X120275Y161053D01*
X120316Y161054D01*
X120356Y161048D01*
X120474Y161059D01*
X120593Y161063D01*
X120632Y161074D01*
X120672Y161078D01*
X120784Y161118D01*
X120899Y161151D01*
X120934Y161172D01*
X120972Y161185D01*
X121070Y161252D01*
X121173Y161313D01*
X121218Y161352D01*
X121235Y161364D01*
X121248Y161379D01*
X121294Y161419D01*
X122045Y162171D01*
X122118Y162265D01*
X122197Y162354D01*
X122215Y162390D01*
X122240Y162422D01*
X122287Y162531D01*
X122341Y162637D01*
X122350Y162677D01*
X122366Y162714D01*
X122385Y162831D01*
X122411Y162947D01*
X122410Y162988D01*
X122416Y163028D01*
X122405Y163146D01*
X122401Y163265D01*
X122390Y163304D01*
X122386Y163344D01*
X122346Y163456D01*
X122313Y163571D01*
X122292Y163606D01*
X122279Y163644D01*
X122212Y163742D01*
X122173Y163807D01*
X122173Y166363D01*
X123959Y168149D01*
X126485Y168149D01*
X128271Y166363D01*
X128271Y163322D01*
X128286Y163204D01*
X128293Y163085D01*
X128306Y163047D01*
X128311Y163006D01*
X128354Y162896D01*
X128391Y162783D01*
X128413Y162748D01*
X128428Y162711D01*
X128497Y162615D01*
X128561Y162514D01*
X128591Y162486D01*
X128614Y162453D01*
X128706Y162377D01*
X128793Y162296D01*
X128828Y162276D01*
X128859Y162251D01*
X128967Y162200D01*
X129071Y162142D01*
X129111Y162132D01*
X129147Y162115D01*
X129264Y162093D01*
X129379Y162063D01*
X129439Y162059D01*
X129459Y162055D01*
X129480Y162057D01*
X129540Y162053D01*
X131057Y162053D01*
X132843Y160267D01*
X132843Y157741D01*
X131057Y155955D01*
X128531Y155955D01*
X127389Y157097D01*
X127295Y157170D01*
X127206Y157249D01*
X127170Y157267D01*
X127138Y157292D01*
X127029Y157339D01*
X126923Y157393D01*
X126884Y157402D01*
X126846Y157418D01*
X126728Y157437D01*
X126613Y157463D01*
X126572Y157462D01*
X126532Y157468D01*
X126413Y157457D01*
X126295Y157453D01*
X126256Y157442D01*
X126216Y157438D01*
X126103Y157398D01*
X125989Y157365D01*
X125954Y157344D01*
X125916Y157331D01*
X125818Y157264D01*
X125715Y157203D01*
X125670Y157164D01*
X125653Y157152D01*
X125640Y157137D01*
X125594Y157097D01*
X125414Y156917D01*
X125342Y156823D01*
X125263Y156734D01*
X125244Y156698D01*
X125220Y156666D01*
X125172Y156556D01*
X125118Y156450D01*
X125109Y156411D01*
X125093Y156374D01*
X125075Y156256D01*
X125049Y156140D01*
X125050Y156100D01*
X125043Y156060D01*
X125055Y155941D01*
X125058Y155822D01*
X125069Y155783D01*
X125073Y155743D01*
X125114Y155631D01*
X125147Y155517D01*
X125167Y155482D01*
X125181Y155444D01*
X125248Y155346D01*
X125308Y155243D01*
X125348Y155197D01*
X125360Y155181D01*
X125375Y155167D01*
X125415Y155122D01*
X127055Y153482D01*
X127149Y153408D01*
X127238Y153330D01*
X127274Y153311D01*
X127306Y153287D01*
X127416Y153239D01*
X127522Y153185D01*
X127561Y153176D01*
X127598Y153160D01*
X127716Y153142D01*
X127832Y153116D01*
X127872Y153117D01*
X127912Y153110D01*
X128031Y153122D01*
X128150Y153125D01*
X128189Y153136D01*
X128229Y153140D01*
X128291Y153163D01*
X131057Y153163D01*
X132843Y151377D01*
X132843Y148851D01*
X131057Y147065D01*
X128270Y147065D01*
X128152Y147050D01*
X128033Y147043D01*
X127995Y147030D01*
X127954Y147025D01*
X127844Y146982D01*
X127731Y146945D01*
X127696Y146923D01*
X127659Y146908D01*
X127563Y146839D01*
X127462Y146775D01*
X127434Y146745D01*
X127401Y146722D01*
X127325Y146630D01*
X127244Y146543D01*
X127224Y146508D01*
X127199Y146477D01*
X127148Y146369D01*
X127090Y146265D01*
X127080Y146225D01*
X127063Y146189D01*
X127041Y146072D01*
X127011Y145957D01*
X127010Y145939D01*
X126472Y145402D01*
X126399Y145308D01*
X126320Y145218D01*
X126302Y145182D01*
X126277Y145150D01*
X126230Y145041D01*
X126176Y144935D01*
X126167Y144896D01*
X126151Y144859D01*
X126132Y144741D01*
X126106Y144625D01*
X126107Y144585D01*
X126101Y144544D01*
X126112Y144426D01*
X126116Y144307D01*
X126127Y144268D01*
X126131Y144228D01*
X126171Y144116D01*
X126204Y144001D01*
X126225Y143967D01*
X126239Y143929D01*
X126305Y143830D01*
X126366Y143728D01*
X126406Y143682D01*
X126417Y143665D01*
X126432Y143652D01*
X126472Y143607D01*
X126779Y143300D01*
X126873Y143227D01*
X126963Y143148D01*
X126999Y143130D01*
X127030Y143105D01*
X127140Y143057D01*
X127246Y143003D01*
X127285Y142994D01*
X127322Y142978D01*
X127440Y142960D01*
X127556Y142934D01*
X127597Y142935D01*
X127636Y142929D01*
X127755Y142940D01*
X127874Y142943D01*
X127913Y142955D01*
X127953Y142958D01*
X128065Y142999D01*
X128079Y143003D01*
X130803Y143003D01*
X132589Y141217D01*
X132589Y138691D01*
X130803Y136905D01*
X128789Y136905D01*
X128651Y136888D01*
X128512Y136875D01*
X128493Y136868D01*
X128473Y136865D01*
X128344Y136814D01*
X128213Y136767D01*
X128196Y136756D01*
X128177Y136748D01*
X128065Y136667D01*
X127950Y136589D01*
X127936Y136573D01*
X127920Y136562D01*
X127831Y136454D01*
X127739Y136350D01*
X127730Y136332D01*
X127717Y136317D01*
X127658Y136191D01*
X127595Y136067D01*
X127590Y136047D01*
X127582Y136029D01*
X127556Y135892D01*
X127525Y135757D01*
X127526Y135736D01*
X127522Y135717D01*
X127530Y135578D01*
X127535Y135439D01*
X127540Y135419D01*
X127542Y135399D01*
X127584Y135267D01*
X127623Y135133D01*
X127633Y135116D01*
X127640Y135097D01*
X127714Y134979D01*
X127785Y134859D01*
X127803Y134838D01*
X127810Y134828D01*
X127825Y134814D01*
X127891Y134739D01*
X128779Y133851D01*
X128779Y131325D01*
X126875Y129421D01*
X126790Y129312D01*
X126701Y129205D01*
X126693Y129186D01*
X126680Y129170D01*
X126625Y129042D01*
X126566Y128917D01*
X126562Y128897D01*
X126519Y128961D01*
X126444Y129078D01*
X126429Y129092D01*
X126418Y129109D01*
X126314Y129201D01*
X126213Y129296D01*
X126195Y129306D01*
X126180Y129319D01*
X126056Y129383D01*
X125934Y129450D01*
X125915Y129455D01*
X125896Y129464D01*
X125761Y129494D01*
X125626Y129529D01*
X125598Y129531D01*
X125586Y129534D01*
X125566Y129533D01*
X125465Y129539D01*
X124467Y129539D01*
X123453Y130554D01*
X123358Y130627D01*
X123269Y130706D01*
X123233Y130724D01*
X123201Y130749D01*
X123092Y130796D01*
X122986Y130850D01*
X122947Y130859D01*
X122909Y130875D01*
X122792Y130894D01*
X122676Y130920D01*
X122635Y130919D01*
X122595Y130925D01*
X122477Y130914D01*
X122358Y130910D01*
X122319Y130899D01*
X122279Y130895D01*
X122166Y130855D01*
X122052Y130822D01*
X122018Y130801D01*
X121979Y130788D01*
X121881Y130721D01*
X121778Y130660D01*
X121733Y130620D01*
X121716Y130609D01*
X121703Y130594D01*
X121658Y130554D01*
X120135Y129031D01*
X117359Y129031D01*
X117221Y129014D01*
X117082Y129001D01*
X117063Y128994D01*
X117043Y128991D01*
X116914Y128940D01*
X116783Y128893D01*
X116766Y128882D01*
X116747Y128874D01*
X116635Y128793D01*
X116520Y128715D01*
X116506Y128699D01*
X116490Y128688D01*
X116401Y128580D01*
X116309Y128476D01*
X116300Y128458D01*
X116287Y128443D01*
X116228Y128317D01*
X116165Y128193D01*
X116160Y128173D01*
X116152Y128155D01*
X116126Y128018D01*
X116095Y127883D01*
X116096Y127862D01*
X116092Y127843D01*
X116100Y127704D01*
X116105Y127565D01*
X116110Y127545D01*
X116112Y127525D01*
X116154Y127393D01*
X116193Y127259D01*
X116203Y127242D01*
X116210Y127223D01*
X116284Y127105D01*
X116355Y126985D01*
X116373Y126964D01*
X116380Y126954D01*
X116395Y126940D01*
X116461Y126865D01*
X117349Y125977D01*
X117349Y123451D01*
X115563Y121665D01*
X113037Y121665D01*
G37*
%LPD*%
%LPC*%
G36*
X227529Y219201D02*
X227529Y219201D01*
X225743Y220987D01*
X225743Y223513D01*
X226636Y224406D01*
X226709Y224500D01*
X226787Y224589D01*
X226806Y224625D01*
X226831Y224657D01*
X226878Y224766D01*
X226932Y224872D01*
X226941Y224912D01*
X226957Y224949D01*
X226976Y225067D01*
X227002Y225183D01*
X227000Y225223D01*
X227007Y225263D01*
X226996Y225382D01*
X226992Y225501D01*
X226981Y225539D01*
X226977Y225580D01*
X226937Y225692D01*
X226904Y225806D01*
X226883Y225841D01*
X226869Y225879D01*
X226802Y225978D01*
X226742Y226080D01*
X226702Y226125D01*
X226691Y226142D01*
X226676Y226156D01*
X226636Y226201D01*
X224721Y228115D01*
X222884Y232550D01*
X222884Y237350D01*
X224721Y241785D01*
X228115Y245179D01*
X232550Y247016D01*
X237350Y247016D01*
X241785Y245179D01*
X245179Y241785D01*
X247016Y237350D01*
X247016Y232550D01*
X245179Y228115D01*
X241785Y224721D01*
X237350Y222884D01*
X233109Y222884D01*
X232991Y222869D01*
X232873Y222862D01*
X232834Y222849D01*
X232794Y222844D01*
X232683Y222801D01*
X232570Y222764D01*
X232536Y222742D01*
X232498Y222727D01*
X232402Y222658D01*
X232301Y222594D01*
X232274Y222564D01*
X232241Y222541D01*
X232165Y222449D01*
X232083Y222362D01*
X232064Y222327D01*
X232038Y222296D01*
X231987Y222188D01*
X231930Y222084D01*
X231920Y222044D01*
X231903Y222008D01*
X231880Y221891D01*
X231850Y221776D01*
X231847Y221716D01*
X231843Y221696D01*
X231844Y221675D01*
X231840Y221615D01*
X231840Y220987D01*
X230054Y219201D01*
X227529Y219201D01*
G37*
%LPD*%
%LPC*%
G36*
X193301Y111759D02*
X193301Y111759D01*
X191476Y113584D01*
X191475Y113589D01*
X191424Y113719D01*
X191377Y113849D01*
X191366Y113866D01*
X191358Y113885D01*
X191277Y113997D01*
X191199Y114112D01*
X191183Y114126D01*
X191172Y114142D01*
X191064Y114231D01*
X190960Y114323D01*
X190942Y114332D01*
X190927Y114345D01*
X190801Y114404D01*
X190677Y114467D01*
X190657Y114472D01*
X190639Y114480D01*
X190502Y114506D01*
X190367Y114537D01*
X190346Y114536D01*
X190327Y114540D01*
X190188Y114532D01*
X190049Y114527D01*
X190029Y114522D01*
X190009Y114520D01*
X189877Y114478D01*
X189743Y114439D01*
X189726Y114429D01*
X189707Y114422D01*
X189589Y114348D01*
X189469Y114277D01*
X189448Y114259D01*
X189438Y114252D01*
X189424Y114237D01*
X189349Y114171D01*
X188969Y113791D01*
X186443Y113791D01*
X184657Y115577D01*
X184657Y116078D01*
X184642Y116196D01*
X184635Y116315D01*
X184622Y116353D01*
X184617Y116394D01*
X184574Y116504D01*
X184537Y116617D01*
X184515Y116652D01*
X184500Y116689D01*
X184431Y116785D01*
X184367Y116886D01*
X184337Y116914D01*
X184314Y116947D01*
X184222Y117023D01*
X184135Y117104D01*
X184100Y117124D01*
X184069Y117149D01*
X183961Y117200D01*
X183857Y117258D01*
X183817Y117268D01*
X183781Y117285D01*
X183664Y117307D01*
X183549Y117337D01*
X183489Y117341D01*
X183469Y117345D01*
X183448Y117343D01*
X183388Y117347D01*
X182633Y117347D01*
X180847Y119133D01*
X180847Y121659D01*
X182633Y123445D01*
X183388Y123445D01*
X183506Y123460D01*
X183625Y123467D01*
X183663Y123480D01*
X183704Y123485D01*
X183814Y123528D01*
X183927Y123565D01*
X183962Y123587D01*
X183999Y123602D01*
X184095Y123671D01*
X184196Y123735D01*
X184224Y123765D01*
X184257Y123788D01*
X184333Y123880D01*
X184414Y123967D01*
X184434Y124002D01*
X184459Y124033D01*
X184510Y124141D01*
X184568Y124245D01*
X184578Y124285D01*
X184595Y124321D01*
X184617Y124438D01*
X184647Y124553D01*
X184651Y124613D01*
X184655Y124633D01*
X184653Y124654D01*
X184657Y124714D01*
X184657Y126231D01*
X185037Y126611D01*
X185110Y126705D01*
X185189Y126794D01*
X185207Y126830D01*
X185232Y126862D01*
X185279Y126971D01*
X185333Y127077D01*
X185342Y127116D01*
X185358Y127154D01*
X185377Y127271D01*
X185403Y127387D01*
X185402Y127428D01*
X185408Y127468D01*
X185397Y127586D01*
X185393Y127705D01*
X185382Y127744D01*
X185378Y127784D01*
X185338Y127896D01*
X185305Y128011D01*
X185284Y128046D01*
X185271Y128084D01*
X185204Y128182D01*
X185143Y128285D01*
X185104Y128330D01*
X185092Y128347D01*
X185077Y128360D01*
X185037Y128406D01*
X184657Y128785D01*
X184657Y131311D01*
X186443Y133097D01*
X188969Y133097D01*
X190755Y131311D01*
X190755Y128535D01*
X190772Y128397D01*
X190785Y128258D01*
X190792Y128239D01*
X190795Y128219D01*
X190846Y128089D01*
X190893Y127959D01*
X190904Y127942D01*
X190912Y127923D01*
X190993Y127811D01*
X191071Y127696D01*
X191087Y127682D01*
X191098Y127666D01*
X191206Y127577D01*
X191310Y127485D01*
X191328Y127476D01*
X191343Y127463D01*
X191469Y127404D01*
X191593Y127341D01*
X191613Y127336D01*
X191631Y127328D01*
X191768Y127302D01*
X191903Y127271D01*
X191924Y127272D01*
X191943Y127268D01*
X192082Y127276D01*
X192221Y127281D01*
X192241Y127286D01*
X192261Y127288D01*
X192393Y127330D01*
X192527Y127369D01*
X192544Y127379D01*
X192563Y127386D01*
X192681Y127460D01*
X192801Y127531D01*
X192822Y127549D01*
X192832Y127556D01*
X192846Y127571D01*
X192921Y127637D01*
X193301Y128017D01*
X195326Y128017D01*
X195444Y128032D01*
X195563Y128039D01*
X195601Y128052D01*
X195642Y128057D01*
X195752Y128100D01*
X195865Y128137D01*
X195900Y128159D01*
X195937Y128174D01*
X196033Y128243D01*
X196134Y128307D01*
X196162Y128337D01*
X196195Y128360D01*
X196271Y128452D01*
X196352Y128539D01*
X196372Y128574D01*
X196397Y128605D01*
X196448Y128713D01*
X196506Y128817D01*
X196516Y128857D01*
X196533Y128893D01*
X196555Y129010D01*
X196585Y129125D01*
X196589Y129185D01*
X196593Y129205D01*
X196591Y129226D01*
X196595Y129286D01*
X196595Y131565D01*
X198381Y133351D01*
X200406Y133351D01*
X200524Y133366D01*
X200643Y133373D01*
X200681Y133386D01*
X200722Y133391D01*
X200832Y133434D01*
X200945Y133471D01*
X200980Y133493D01*
X201017Y133508D01*
X201113Y133577D01*
X201214Y133641D01*
X201242Y133671D01*
X201275Y133694D01*
X201351Y133786D01*
X201432Y133873D01*
X201452Y133908D01*
X201477Y133939D01*
X201528Y134047D01*
X201586Y134151D01*
X201596Y134191D01*
X201613Y134227D01*
X201635Y134344D01*
X201665Y134459D01*
X201669Y134519D01*
X201673Y134539D01*
X201671Y134560D01*
X201675Y134620D01*
X201675Y136645D01*
X203461Y138431D01*
X203951Y138431D01*
X204089Y138448D01*
X204228Y138461D01*
X204247Y138468D01*
X204267Y138471D01*
X204396Y138522D01*
X204527Y138569D01*
X204544Y138580D01*
X204563Y138588D01*
X204675Y138669D01*
X204790Y138747D01*
X204804Y138763D01*
X204820Y138774D01*
X204909Y138882D01*
X205001Y138986D01*
X205010Y139004D01*
X205023Y139019D01*
X205082Y139145D01*
X205145Y139269D01*
X205150Y139289D01*
X205158Y139307D01*
X205184Y139444D01*
X205215Y139579D01*
X205214Y139600D01*
X205218Y139619D01*
X205210Y139758D01*
X205205Y139897D01*
X205200Y139917D01*
X205198Y139937D01*
X205156Y140069D01*
X205117Y140203D01*
X205107Y140220D01*
X205100Y140239D01*
X205026Y140357D01*
X204955Y140477D01*
X204937Y140498D01*
X204930Y140508D01*
X204915Y140522D01*
X204849Y140597D01*
X203961Y141485D01*
X203961Y144011D01*
X205747Y145797D01*
X208273Y145797D01*
X210059Y144011D01*
X210059Y141485D01*
X208273Y139699D01*
X207783Y139699D01*
X207645Y139682D01*
X207506Y139669D01*
X207487Y139662D01*
X207467Y139659D01*
X207338Y139608D01*
X207207Y139561D01*
X207190Y139550D01*
X207171Y139542D01*
X207059Y139461D01*
X206944Y139383D01*
X206930Y139367D01*
X206914Y139356D01*
X206825Y139248D01*
X206733Y139144D01*
X206724Y139126D01*
X206711Y139111D01*
X206652Y138985D01*
X206589Y138861D01*
X206584Y138841D01*
X206576Y138823D01*
X206550Y138686D01*
X206519Y138551D01*
X206520Y138530D01*
X206516Y138511D01*
X206524Y138372D01*
X206529Y138233D01*
X206534Y138213D01*
X206536Y138193D01*
X206578Y138061D01*
X206617Y137927D01*
X206627Y137910D01*
X206634Y137891D01*
X206708Y137773D01*
X206779Y137653D01*
X206797Y137632D01*
X206804Y137622D01*
X206819Y137608D01*
X206885Y137533D01*
X207773Y136645D01*
X207773Y134112D01*
X207788Y133994D01*
X207795Y133875D01*
X207808Y133837D01*
X207813Y133796D01*
X207857Y133685D01*
X207893Y133573D01*
X207915Y133538D01*
X207930Y133501D01*
X207999Y133405D01*
X208063Y133304D01*
X208093Y133276D01*
X208116Y133243D01*
X208208Y133167D01*
X208295Y133086D01*
X208330Y133066D01*
X208361Y133041D01*
X208469Y132990D01*
X208573Y132932D01*
X208613Y132922D01*
X208649Y132905D01*
X208766Y132883D01*
X208881Y132853D01*
X208941Y132849D01*
X208961Y132845D01*
X208982Y132847D01*
X209042Y132843D01*
X211829Y132843D01*
X213615Y131057D01*
X213615Y128531D01*
X211829Y126745D01*
X209303Y126745D01*
X208543Y127506D01*
X208449Y127579D01*
X208359Y127658D01*
X208323Y127676D01*
X208291Y127701D01*
X208182Y127748D01*
X208076Y127802D01*
X208037Y127811D01*
X207999Y127827D01*
X207882Y127846D01*
X207766Y127872D01*
X207725Y127871D01*
X207685Y127877D01*
X207567Y127866D01*
X207448Y127862D01*
X207409Y127851D01*
X207369Y127847D01*
X207256Y127807D01*
X207142Y127774D01*
X207108Y127753D01*
X207069Y127740D01*
X206971Y127673D01*
X206868Y127612D01*
X206823Y127572D01*
X206806Y127561D01*
X206793Y127546D01*
X206748Y127506D01*
X206241Y126999D01*
X203962Y126999D01*
X203844Y126984D01*
X203725Y126977D01*
X203687Y126964D01*
X203646Y126959D01*
X203536Y126916D01*
X203423Y126879D01*
X203388Y126857D01*
X203351Y126842D01*
X203255Y126773D01*
X203154Y126709D01*
X203126Y126679D01*
X203093Y126656D01*
X203017Y126564D01*
X202936Y126477D01*
X202916Y126442D01*
X202891Y126411D01*
X202840Y126303D01*
X202782Y126199D01*
X202772Y126159D01*
X202755Y126123D01*
X202733Y126006D01*
X202703Y125891D01*
X202699Y125830D01*
X202695Y125811D01*
X202697Y125790D01*
X202693Y125730D01*
X202693Y124217D01*
X202710Y124079D01*
X202723Y123940D01*
X202730Y123921D01*
X202733Y123901D01*
X202784Y123772D01*
X202831Y123641D01*
X202842Y123624D01*
X202850Y123605D01*
X202931Y123493D01*
X203009Y123378D01*
X203025Y123364D01*
X203036Y123348D01*
X203144Y123259D01*
X203248Y123167D01*
X203266Y123158D01*
X203281Y123145D01*
X203407Y123086D01*
X203531Y123023D01*
X203551Y123018D01*
X203569Y123010D01*
X203706Y122984D01*
X203841Y122953D01*
X203862Y122954D01*
X203881Y122950D01*
X204020Y122958D01*
X204159Y122963D01*
X204179Y122968D01*
X204199Y122970D01*
X204331Y123012D01*
X204465Y123051D01*
X204482Y123061D01*
X204501Y123068D01*
X204619Y123142D01*
X204702Y123191D01*
X207257Y123191D01*
X209043Y121405D01*
X209043Y118879D01*
X207257Y117093D01*
X204731Y117093D01*
X203716Y118108D01*
X203622Y118181D01*
X203533Y118260D01*
X203497Y118278D01*
X203465Y118303D01*
X203356Y118350D01*
X203250Y118404D01*
X203211Y118413D01*
X203173Y118429D01*
X203056Y118448D01*
X202940Y118474D01*
X202899Y118473D01*
X202859Y118479D01*
X202741Y118468D01*
X202622Y118464D01*
X202583Y118453D01*
X202543Y118449D01*
X202431Y118409D01*
X202316Y118376D01*
X202281Y118355D01*
X202243Y118342D01*
X202145Y118275D01*
X202042Y118214D01*
X201997Y118175D01*
X201980Y118163D01*
X201967Y118148D01*
X201921Y118108D01*
X200907Y117093D01*
X198882Y117093D01*
X198764Y117078D01*
X198645Y117071D01*
X198607Y117058D01*
X198566Y117053D01*
X198456Y117010D01*
X198343Y116973D01*
X198308Y116951D01*
X198271Y116936D01*
X198175Y116867D01*
X198074Y116803D01*
X198046Y116773D01*
X198013Y116750D01*
X197937Y116658D01*
X197856Y116571D01*
X197836Y116536D01*
X197811Y116505D01*
X197760Y116397D01*
X197702Y116293D01*
X197692Y116253D01*
X197675Y116217D01*
X197653Y116100D01*
X197623Y115985D01*
X197619Y115925D01*
X197615Y115905D01*
X197617Y115884D01*
X197613Y115824D01*
X197613Y113545D01*
X195827Y111759D01*
X193301Y111759D01*
G37*
%LPD*%
%LPC*%
G36*
X147647Y158495D02*
X147647Y158495D01*
X145862Y160281D01*
X145862Y160782D01*
X145847Y160900D01*
X145839Y161019D01*
X145827Y161057D01*
X145822Y161098D01*
X145778Y161208D01*
X145741Y161321D01*
X145720Y161356D01*
X145705Y161393D01*
X145635Y161489D01*
X145571Y161590D01*
X145542Y161618D01*
X145518Y161651D01*
X145426Y161727D01*
X145339Y161808D01*
X145304Y161828D01*
X145273Y161853D01*
X145165Y161904D01*
X145061Y161962D01*
X145022Y161972D01*
X144985Y161989D01*
X144868Y162011D01*
X144753Y162041D01*
X144693Y162045D01*
X144673Y162049D01*
X144652Y162047D01*
X144592Y162051D01*
X143263Y162051D01*
X141477Y163837D01*
X141477Y166363D01*
X143263Y168149D01*
X145789Y168149D01*
X147575Y166363D01*
X147575Y165862D01*
X147590Y165744D01*
X147597Y165625D01*
X147610Y165587D01*
X147615Y165546D01*
X147658Y165436D01*
X147695Y165323D01*
X147717Y165288D01*
X147732Y165251D01*
X147801Y165155D01*
X147865Y165054D01*
X147895Y165026D01*
X147918Y164993D01*
X148010Y164917D01*
X148097Y164836D01*
X148132Y164816D01*
X148163Y164791D01*
X148271Y164740D01*
X148375Y164682D01*
X148415Y164672D01*
X148451Y164655D01*
X148568Y164633D01*
X148683Y164603D01*
X148743Y164599D01*
X148763Y164595D01*
X148784Y164597D01*
X148844Y164593D01*
X150173Y164593D01*
X150995Y163771D01*
X151104Y163687D01*
X151211Y163597D01*
X151230Y163589D01*
X151246Y163576D01*
X151373Y163521D01*
X151499Y163462D01*
X151519Y163458D01*
X151538Y163450D01*
X151676Y163428D01*
X151812Y163402D01*
X151832Y163403D01*
X151852Y163400D01*
X151991Y163413D01*
X152129Y163422D01*
X152148Y163428D01*
X152168Y163430D01*
X152300Y163477D01*
X152431Y163520D01*
X152449Y163531D01*
X152468Y163538D01*
X152583Y163616D01*
X152700Y163690D01*
X152714Y163705D01*
X152731Y163716D01*
X152823Y163820D01*
X152918Y163922D01*
X152928Y163939D01*
X152941Y163955D01*
X153004Y164078D01*
X153072Y164200D01*
X153077Y164220D01*
X153086Y164238D01*
X153116Y164374D01*
X153151Y164508D01*
X153153Y164536D01*
X153156Y164548D01*
X153155Y164569D01*
X153161Y164669D01*
X153161Y165093D01*
X154811Y166743D01*
X154896Y166852D01*
X154985Y166959D01*
X154993Y166978D01*
X155006Y166994D01*
X155061Y167122D01*
X155120Y167247D01*
X155124Y167267D01*
X155132Y167286D01*
X155154Y167424D01*
X155180Y167560D01*
X155179Y167580D01*
X155182Y167600D01*
X155169Y167739D01*
X155160Y167877D01*
X155154Y167896D01*
X155152Y167916D01*
X155105Y168048D01*
X155062Y168179D01*
X155052Y168197D01*
X155045Y168216D01*
X154967Y168331D01*
X154892Y168448D01*
X154877Y168462D01*
X154866Y168479D01*
X154762Y168571D01*
X154661Y168666D01*
X154643Y168676D01*
X154628Y168689D01*
X154504Y168753D01*
X154382Y168820D01*
X154363Y168825D01*
X154344Y168834D01*
X154209Y168864D01*
X154074Y168899D01*
X154046Y168901D01*
X154034Y168904D01*
X154014Y168903D01*
X153913Y168909D01*
X153677Y168909D01*
X151891Y170695D01*
X151891Y171450D01*
X151876Y171568D01*
X151869Y171687D01*
X151856Y171725D01*
X151851Y171766D01*
X151808Y171876D01*
X151771Y171989D01*
X151749Y172024D01*
X151734Y172061D01*
X151665Y172157D01*
X151601Y172258D01*
X151571Y172286D01*
X151548Y172319D01*
X151456Y172395D01*
X151369Y172476D01*
X151334Y172496D01*
X151303Y172521D01*
X151195Y172572D01*
X151091Y172630D01*
X151051Y172640D01*
X151015Y172657D01*
X150898Y172679D01*
X150783Y172709D01*
X150723Y172713D01*
X150703Y172717D01*
X150682Y172715D01*
X150622Y172719D01*
X150121Y172719D01*
X148335Y174505D01*
X148335Y175006D01*
X148320Y175124D01*
X148313Y175243D01*
X148300Y175281D01*
X148295Y175322D01*
X148252Y175432D01*
X148215Y175545D01*
X148193Y175580D01*
X148178Y175617D01*
X148109Y175713D01*
X148045Y175814D01*
X148015Y175842D01*
X147992Y175875D01*
X147900Y175951D01*
X147813Y176032D01*
X147778Y176052D01*
X147747Y176077D01*
X147639Y176128D01*
X147535Y176186D01*
X147495Y176196D01*
X147459Y176213D01*
X147342Y176235D01*
X147227Y176265D01*
X147167Y176269D01*
X147147Y176273D01*
X147126Y176271D01*
X147066Y176275D01*
X146311Y176275D01*
X145804Y176782D01*
X145710Y176855D01*
X145621Y176934D01*
X145585Y176952D01*
X145553Y176977D01*
X145444Y177024D01*
X145338Y177078D01*
X145299Y177087D01*
X145261Y177103D01*
X145144Y177122D01*
X145028Y177148D01*
X144987Y177147D01*
X144947Y177153D01*
X144829Y177142D01*
X144710Y177138D01*
X144671Y177127D01*
X144631Y177123D01*
X144519Y177083D01*
X144404Y177050D01*
X144369Y177029D01*
X144331Y177016D01*
X144233Y176949D01*
X144130Y176888D01*
X144085Y176849D01*
X144068Y176837D01*
X144055Y176822D01*
X144009Y176782D01*
X141979Y174751D01*
X141478Y174751D01*
X141360Y174736D01*
X141241Y174729D01*
X141203Y174716D01*
X141162Y174711D01*
X141052Y174668D01*
X140939Y174631D01*
X140904Y174609D01*
X140867Y174594D01*
X140771Y174525D01*
X140670Y174461D01*
X140642Y174431D01*
X140609Y174408D01*
X140533Y174316D01*
X140452Y174229D01*
X140432Y174194D01*
X140407Y174163D01*
X140356Y174055D01*
X140298Y173951D01*
X140288Y173911D01*
X140271Y173875D01*
X140249Y173758D01*
X140219Y173643D01*
X140215Y173583D01*
X140211Y173563D01*
X140213Y173542D01*
X140209Y173482D01*
X140209Y172727D01*
X138423Y170941D01*
X135897Y170941D01*
X134111Y172727D01*
X134111Y173228D01*
X134096Y173346D01*
X134089Y173465D01*
X134076Y173503D01*
X134071Y173544D01*
X134028Y173654D01*
X133991Y173767D01*
X133969Y173802D01*
X133954Y173839D01*
X133885Y173935D01*
X133821Y174036D01*
X133791Y174064D01*
X133768Y174097D01*
X133676Y174173D01*
X133589Y174254D01*
X133554Y174274D01*
X133523Y174299D01*
X133415Y174350D01*
X133311Y174408D01*
X133271Y174418D01*
X133235Y174435D01*
X133118Y174457D01*
X133003Y174487D01*
X132943Y174491D01*
X132923Y174495D01*
X132902Y174493D01*
X132842Y174497D01*
X131325Y174497D01*
X129539Y176283D01*
X129539Y178809D01*
X129919Y179189D01*
X130004Y179298D01*
X130093Y179405D01*
X130101Y179424D01*
X130114Y179440D01*
X130169Y179568D01*
X130228Y179693D01*
X130232Y179713D01*
X130240Y179732D01*
X130262Y179870D01*
X130288Y180006D01*
X130287Y180026D01*
X130290Y180046D01*
X130277Y180185D01*
X130268Y180323D01*
X130262Y180342D01*
X130260Y180362D01*
X130213Y180493D01*
X130170Y180625D01*
X130160Y180643D01*
X130153Y180662D01*
X130075Y180776D01*
X130000Y180894D01*
X129985Y180908D01*
X129974Y180925D01*
X129870Y181017D01*
X129769Y181112D01*
X129751Y181122D01*
X129736Y181135D01*
X129612Y181198D01*
X129490Y181266D01*
X129471Y181271D01*
X129452Y181280D01*
X129317Y181310D01*
X129182Y181345D01*
X129154Y181347D01*
X129142Y181350D01*
X129122Y181349D01*
X129021Y181355D01*
X127769Y181355D01*
X125983Y183141D01*
X125983Y185667D01*
X127769Y187453D01*
X130295Y187453D01*
X132081Y185667D01*
X132081Y183141D01*
X131701Y182761D01*
X131616Y182652D01*
X131527Y182545D01*
X131519Y182526D01*
X131506Y182510D01*
X131451Y182382D01*
X131392Y182257D01*
X131388Y182237D01*
X131380Y182218D01*
X131358Y182080D01*
X131332Y181944D01*
X131333Y181924D01*
X131330Y181904D01*
X131343Y181765D01*
X131352Y181627D01*
X131358Y181608D01*
X131360Y181588D01*
X131407Y181457D01*
X131450Y181325D01*
X131460Y181307D01*
X131467Y181288D01*
X131545Y181174D01*
X131620Y181056D01*
X131635Y181042D01*
X131646Y181025D01*
X131750Y180933D01*
X131851Y180838D01*
X131869Y180828D01*
X131884Y180815D01*
X132008Y180752D01*
X132130Y180684D01*
X132149Y180679D01*
X132168Y180670D01*
X132303Y180640D01*
X132438Y180605D01*
X132466Y180603D01*
X132478Y180600D01*
X132498Y180601D01*
X132599Y180595D01*
X133851Y180595D01*
X135628Y178818D01*
X135722Y178745D01*
X135811Y178666D01*
X135847Y178648D01*
X135879Y178623D01*
X135988Y178576D01*
X136094Y178522D01*
X136133Y178513D01*
X136171Y178497D01*
X136288Y178478D01*
X136404Y178452D01*
X136445Y178453D01*
X136485Y178447D01*
X136603Y178458D01*
X136722Y178462D01*
X136761Y178473D01*
X136801Y178477D01*
X136913Y178517D01*
X137028Y178550D01*
X137063Y178571D01*
X137101Y178584D01*
X137199Y178651D01*
X137302Y178712D01*
X137347Y178751D01*
X137364Y178763D01*
X137377Y178778D01*
X137423Y178818D01*
X139453Y180849D01*
X141979Y180849D01*
X142485Y180342D01*
X142579Y180269D01*
X142669Y180190D01*
X142705Y180172D01*
X142737Y180147D01*
X142846Y180100D01*
X142952Y180046D01*
X142991Y180037D01*
X143029Y180021D01*
X143146Y180002D01*
X143262Y179976D01*
X143303Y179977D01*
X143343Y179971D01*
X143461Y179982D01*
X143580Y179986D01*
X143619Y179997D01*
X143659Y180001D01*
X143771Y180041D01*
X143886Y180074D01*
X143921Y180095D01*
X143959Y180108D01*
X144057Y180175D01*
X144160Y180236D01*
X144205Y180276D01*
X144222Y180287D01*
X144235Y180302D01*
X144280Y180342D01*
X146311Y182373D01*
X148837Y182373D01*
X150623Y180587D01*
X150623Y180086D01*
X150638Y179968D01*
X150645Y179849D01*
X150658Y179811D01*
X150663Y179770D01*
X150706Y179660D01*
X150743Y179547D01*
X150765Y179512D01*
X150780Y179475D01*
X150849Y179379D01*
X150913Y179278D01*
X150943Y179250D01*
X150966Y179217D01*
X151058Y179141D01*
X151145Y179060D01*
X151180Y179040D01*
X151211Y179015D01*
X151319Y178964D01*
X151423Y178906D01*
X151463Y178896D01*
X151499Y178879D01*
X151616Y178857D01*
X151731Y178827D01*
X151791Y178823D01*
X151811Y178819D01*
X151832Y178821D01*
X151892Y178817D01*
X152647Y178817D01*
X154433Y177031D01*
X154433Y176276D01*
X154448Y176158D01*
X154455Y176039D01*
X154468Y176001D01*
X154473Y175960D01*
X154516Y175850D01*
X154553Y175737D01*
X154575Y175702D01*
X154590Y175665D01*
X154659Y175569D01*
X154723Y175468D01*
X154753Y175440D01*
X154776Y175407D01*
X154868Y175331D01*
X154955Y175250D01*
X154990Y175230D01*
X155021Y175205D01*
X155129Y175154D01*
X155233Y175096D01*
X155273Y175086D01*
X155309Y175069D01*
X155426Y175047D01*
X155541Y175017D01*
X155601Y175013D01*
X155621Y175009D01*
X155642Y175011D01*
X155702Y175007D01*
X156203Y175007D01*
X157989Y173221D01*
X157989Y170695D01*
X156339Y169045D01*
X156254Y168936D01*
X156165Y168829D01*
X156157Y168810D01*
X156144Y168794D01*
X156089Y168666D01*
X156030Y168541D01*
X156026Y168521D01*
X156018Y168502D01*
X155996Y168364D01*
X155970Y168228D01*
X155971Y168208D01*
X155968Y168188D01*
X155981Y168049D01*
X155990Y167911D01*
X155996Y167892D01*
X155998Y167872D01*
X156045Y167740D01*
X156088Y167609D01*
X156098Y167591D01*
X156105Y167572D01*
X156183Y167457D01*
X156258Y167340D01*
X156273Y167326D01*
X156284Y167309D01*
X156388Y167217D01*
X156489Y167122D01*
X156507Y167112D01*
X156522Y167099D01*
X156646Y167035D01*
X156768Y166968D01*
X156787Y166963D01*
X156806Y166954D01*
X156941Y166924D01*
X157076Y166889D01*
X157104Y166887D01*
X157116Y166884D01*
X157136Y166885D01*
X157237Y166879D01*
X157473Y166879D01*
X159298Y165054D01*
X159299Y165049D01*
X159350Y164920D01*
X159397Y164789D01*
X159408Y164772D01*
X159416Y164753D01*
X159497Y164641D01*
X159575Y164526D01*
X159591Y164512D01*
X159602Y164496D01*
X159710Y164407D01*
X159814Y164315D01*
X159832Y164306D01*
X159847Y164293D01*
X159973Y164234D01*
X160097Y164171D01*
X160117Y164166D01*
X160135Y164158D01*
X160272Y164132D01*
X160407Y164101D01*
X160428Y164102D01*
X160447Y164098D01*
X160586Y164106D01*
X160725Y164111D01*
X160745Y164116D01*
X160765Y164118D01*
X160897Y164160D01*
X161031Y164199D01*
X161048Y164209D01*
X161067Y164216D01*
X161185Y164290D01*
X161305Y164361D01*
X161326Y164379D01*
X161336Y164386D01*
X161350Y164401D01*
X161425Y164467D01*
X162821Y165863D01*
X165347Y165863D01*
X167133Y164077D01*
X167133Y161551D01*
X165347Y159765D01*
X162821Y159765D01*
X160996Y161590D01*
X160995Y161595D01*
X160944Y161724D01*
X160897Y161855D01*
X160886Y161872D01*
X160878Y161891D01*
X160797Y162003D01*
X160719Y162118D01*
X160703Y162132D01*
X160692Y162148D01*
X160584Y162237D01*
X160480Y162329D01*
X160462Y162338D01*
X160447Y162351D01*
X160321Y162410D01*
X160197Y162473D01*
X160177Y162478D01*
X160159Y162486D01*
X160022Y162512D01*
X159887Y162543D01*
X159866Y162542D01*
X159847Y162546D01*
X159708Y162538D01*
X159569Y162533D01*
X159549Y162528D01*
X159529Y162526D01*
X159397Y162484D01*
X159263Y162445D01*
X159246Y162435D01*
X159227Y162428D01*
X159109Y162354D01*
X158989Y162283D01*
X158968Y162265D01*
X158958Y162258D01*
X158944Y162243D01*
X158869Y162177D01*
X157473Y160781D01*
X154947Y160781D01*
X154126Y161603D01*
X154016Y161687D01*
X153909Y161777D01*
X153890Y161785D01*
X153874Y161798D01*
X153747Y161853D01*
X153621Y161912D01*
X153601Y161916D01*
X153583Y161924D01*
X153445Y161946D01*
X153309Y161972D01*
X153289Y161971D01*
X153269Y161974D01*
X153129Y161961D01*
X152991Y161952D01*
X152972Y161946D01*
X152952Y161944D01*
X152821Y161897D01*
X152689Y161854D01*
X152672Y161843D01*
X152653Y161836D01*
X152538Y161758D01*
X152420Y161684D01*
X152406Y161669D01*
X152389Y161658D01*
X152298Y161554D01*
X152202Y161452D01*
X152192Y161435D01*
X152179Y161419D01*
X152116Y161295D01*
X152049Y161174D01*
X152044Y161154D01*
X152034Y161136D01*
X152004Y161000D01*
X151969Y160866D01*
X151967Y160838D01*
X151965Y160826D01*
X151965Y160805D01*
X151959Y160705D01*
X151959Y160281D01*
X150173Y158495D01*
X147647Y158495D01*
G37*
%LPD*%
%LPC*%
G36*
X138087Y5951D02*
X138087Y5951D01*
X137429Y6609D01*
X137335Y6682D01*
X137246Y6760D01*
X137210Y6779D01*
X137178Y6804D01*
X137069Y6851D01*
X136963Y6905D01*
X136923Y6914D01*
X136886Y6930D01*
X136768Y6949D01*
X136652Y6975D01*
X136612Y6974D01*
X136572Y6980D01*
X136453Y6969D01*
X136335Y6965D01*
X136296Y6954D01*
X136255Y6950D01*
X136143Y6910D01*
X136029Y6877D01*
X135994Y6856D01*
X135956Y6842D01*
X135858Y6776D01*
X135755Y6715D01*
X135710Y6675D01*
X135693Y6664D01*
X135680Y6649D01*
X135634Y6609D01*
X135375Y6349D01*
X132849Y6349D01*
X130692Y8507D01*
X130598Y8580D01*
X130508Y8659D01*
X130490Y8668D01*
X130475Y8681D01*
X130456Y8690D01*
X130440Y8702D01*
X130332Y8749D01*
X130225Y8803D01*
X130205Y8808D01*
X130187Y8816D01*
X130167Y8820D01*
X130148Y8828D01*
X130032Y8847D01*
X129915Y8873D01*
X129894Y8872D01*
X129875Y8876D01*
X129854Y8875D01*
X129834Y8878D01*
X129717Y8867D01*
X129597Y8863D01*
X129577Y8858D01*
X129557Y8856D01*
X129538Y8850D01*
X129518Y8848D01*
X129406Y8808D01*
X129291Y8775D01*
X129274Y8765D01*
X129255Y8758D01*
X129237Y8747D01*
X129218Y8741D01*
X129120Y8674D01*
X129017Y8613D01*
X128996Y8595D01*
X128986Y8588D01*
X128972Y8573D01*
X128955Y8562D01*
X128942Y8547D01*
X128897Y8507D01*
X126993Y6603D01*
X124467Y6603D01*
X122681Y8389D01*
X122681Y10915D01*
X124468Y12702D01*
X124578Y12716D01*
X124697Y12723D01*
X124735Y12736D01*
X124776Y12741D01*
X124886Y12784D01*
X124999Y12821D01*
X125034Y12843D01*
X125071Y12858D01*
X125167Y12927D01*
X125268Y12991D01*
X125296Y13021D01*
X125329Y13044D01*
X125405Y13136D01*
X125486Y13223D01*
X125506Y13258D01*
X125531Y13289D01*
X125582Y13397D01*
X125640Y13501D01*
X125650Y13541D01*
X125667Y13577D01*
X125689Y13694D01*
X125719Y13809D01*
X125723Y13869D01*
X125727Y13889D01*
X125725Y13910D01*
X125729Y13970D01*
X125729Y15240D01*
X125714Y15358D01*
X125707Y15477D01*
X125694Y15515D01*
X125689Y15556D01*
X125646Y15666D01*
X125609Y15779D01*
X125587Y15814D01*
X125572Y15851D01*
X125503Y15947D01*
X125439Y16048D01*
X125409Y16076D01*
X125386Y16109D01*
X125294Y16185D01*
X125207Y16266D01*
X125172Y16286D01*
X125141Y16311D01*
X125033Y16362D01*
X124929Y16420D01*
X124889Y16430D01*
X124853Y16447D01*
X124736Y16469D01*
X124621Y16499D01*
X124561Y16503D01*
X124541Y16507D01*
X124520Y16505D01*
X124460Y16509D01*
X124213Y16509D01*
X123834Y16889D01*
X123740Y16962D01*
X123650Y17041D01*
X123614Y17059D01*
X123582Y17084D01*
X123473Y17131D01*
X123367Y17185D01*
X123328Y17194D01*
X123290Y17210D01*
X123173Y17229D01*
X123057Y17255D01*
X123016Y17254D01*
X122976Y17260D01*
X122858Y17249D01*
X122739Y17245D01*
X122700Y17234D01*
X122660Y17230D01*
X122548Y17190D01*
X122433Y17157D01*
X122398Y17136D01*
X122360Y17123D01*
X122262Y17056D01*
X122159Y16995D01*
X122114Y16955D01*
X122097Y16944D01*
X122084Y16929D01*
X122039Y16889D01*
X121659Y16509D01*
X119133Y16509D01*
X117347Y18295D01*
X117347Y20821D01*
X118171Y21645D01*
X118256Y21754D01*
X118345Y21862D01*
X118354Y21880D01*
X118366Y21896D01*
X118422Y22024D01*
X118481Y22150D01*
X118485Y22169D01*
X118493Y22188D01*
X118515Y22326D01*
X118541Y22462D01*
X118539Y22482D01*
X118543Y22502D01*
X118530Y22641D01*
X118521Y22779D01*
X118515Y22799D01*
X118513Y22817D01*
X118618Y22764D01*
X118740Y22696D01*
X118760Y22691D01*
X118778Y22682D01*
X118914Y22652D01*
X119048Y22617D01*
X119076Y22615D01*
X119088Y22612D01*
X119109Y22613D01*
X119209Y22607D01*
X121659Y22607D01*
X122039Y22227D01*
X122133Y22154D01*
X122222Y22075D01*
X122258Y22057D01*
X122290Y22032D01*
X122399Y21985D01*
X122505Y21931D01*
X122544Y21922D01*
X122582Y21906D01*
X122699Y21887D01*
X122815Y21861D01*
X122856Y21862D01*
X122896Y21856D01*
X123014Y21867D01*
X123133Y21871D01*
X123172Y21882D01*
X123212Y21886D01*
X123324Y21926D01*
X123439Y21959D01*
X123474Y21980D01*
X123512Y21993D01*
X123610Y22060D01*
X123713Y22121D01*
X123758Y22160D01*
X123775Y22172D01*
X123788Y22187D01*
X123834Y22227D01*
X124213Y22607D01*
X126238Y22607D01*
X126356Y22622D01*
X126475Y22629D01*
X126513Y22642D01*
X126554Y22647D01*
X126664Y22690D01*
X126777Y22727D01*
X126812Y22749D01*
X126849Y22764D01*
X126945Y22833D01*
X127046Y22897D01*
X127074Y22927D01*
X127107Y22950D01*
X127183Y23042D01*
X127264Y23129D01*
X127284Y23164D01*
X127309Y23195D01*
X127360Y23303D01*
X127418Y23407D01*
X127428Y23447D01*
X127445Y23483D01*
X127467Y23600D01*
X127497Y23715D01*
X127501Y23775D01*
X127505Y23795D01*
X127503Y23816D01*
X127507Y23876D01*
X127507Y24377D01*
X129293Y26163D01*
X131819Y26163D01*
X133605Y24377D01*
X133605Y21851D01*
X131819Y20065D01*
X130821Y20065D01*
X130683Y20048D01*
X130544Y20035D01*
X130525Y20028D01*
X130505Y20025D01*
X130376Y19974D01*
X130245Y19927D01*
X130228Y19916D01*
X130209Y19908D01*
X130097Y19827D01*
X129982Y19749D01*
X129968Y19733D01*
X129952Y19722D01*
X129863Y19614D01*
X129771Y19510D01*
X129762Y19492D01*
X129749Y19477D01*
X129690Y19351D01*
X129627Y19227D01*
X129622Y19207D01*
X129614Y19189D01*
X129588Y19053D01*
X129557Y18917D01*
X129558Y18896D01*
X129554Y18877D01*
X129562Y18738D01*
X129567Y18599D01*
X129572Y18579D01*
X129574Y18559D01*
X129616Y18427D01*
X129655Y18293D01*
X129665Y18276D01*
X129672Y18257D01*
X129746Y18139D01*
X129817Y18019D01*
X129835Y17998D01*
X129842Y17988D01*
X129857Y17974D01*
X129923Y17899D01*
X131827Y15995D01*
X131827Y13716D01*
X131842Y13598D01*
X131849Y13479D01*
X131862Y13441D01*
X131867Y13400D01*
X131911Y13289D01*
X131947Y13177D01*
X131969Y13142D01*
X131984Y13105D01*
X132053Y13009D01*
X132117Y12908D01*
X132147Y12880D01*
X132170Y12847D01*
X132262Y12771D01*
X132349Y12690D01*
X132384Y12670D01*
X132415Y12645D01*
X132523Y12594D01*
X132627Y12536D01*
X132667Y12526D01*
X132703Y12509D01*
X132820Y12487D01*
X132935Y12457D01*
X132995Y12453D01*
X133015Y12449D01*
X133036Y12451D01*
X133096Y12447D01*
X135375Y12447D01*
X136033Y11789D01*
X136114Y11726D01*
X136175Y11669D01*
X136189Y11661D01*
X136216Y11637D01*
X136252Y11619D01*
X136284Y11594D01*
X136393Y11547D01*
X136434Y11526D01*
X136453Y11515D01*
X136456Y11514D01*
X136499Y11492D01*
X136539Y11484D01*
X136576Y11468D01*
X136694Y11449D01*
X136810Y11423D01*
X136850Y11424D01*
X136890Y11418D01*
X137009Y11429D01*
X137127Y11432D01*
X137166Y11444D01*
X137207Y11447D01*
X137319Y11488D01*
X137433Y11521D01*
X137468Y11541D01*
X137506Y11555D01*
X137541Y11579D01*
X137550Y11582D01*
X137605Y11622D01*
X137707Y11682D01*
X137752Y11722D01*
X137769Y11734D01*
X137782Y11749D01*
X137797Y11762D01*
X137807Y11769D01*
X137812Y11775D01*
X137828Y11789D01*
X138087Y12048D01*
X140613Y12048D01*
X142326Y10336D01*
X142420Y10263D01*
X142509Y10184D01*
X142545Y10165D01*
X142577Y10141D01*
X142686Y10093D01*
X142792Y10039D01*
X142831Y10030D01*
X142869Y10014D01*
X142986Y9996D01*
X143102Y9970D01*
X143143Y9971D01*
X143183Y9964D01*
X143301Y9976D01*
X143420Y9979D01*
X143459Y9990D01*
X143499Y9994D01*
X143612Y10035D01*
X143726Y10068D01*
X143761Y10088D01*
X143799Y10102D01*
X143897Y10169D01*
X144000Y10229D01*
X144045Y10269D01*
X144062Y10280D01*
X144075Y10296D01*
X144121Y10336D01*
X146017Y12232D01*
X148543Y12232D01*
X148962Y11813D01*
X149056Y11740D01*
X149146Y11661D01*
X149182Y11643D01*
X149214Y11618D01*
X149323Y11571D01*
X149429Y11517D01*
X149468Y11508D01*
X149506Y11492D01*
X149623Y11473D01*
X149739Y11447D01*
X149780Y11448D01*
X149820Y11442D01*
X149938Y11453D01*
X150057Y11457D01*
X150096Y11468D01*
X150136Y11472D01*
X150248Y11512D01*
X150363Y11545D01*
X150398Y11566D01*
X150436Y11579D01*
X150534Y11646D01*
X150637Y11707D01*
X150682Y11747D01*
X150699Y11758D01*
X150712Y11773D01*
X150757Y11813D01*
X151137Y12193D01*
X153663Y12193D01*
X155449Y10407D01*
X155449Y7881D01*
X153663Y6095D01*
X151137Y6095D01*
X150718Y6515D01*
X150624Y6588D01*
X150534Y6666D01*
X150498Y6685D01*
X150466Y6710D01*
X150357Y6757D01*
X150251Y6811D01*
X150212Y6820D01*
X150175Y6836D01*
X150057Y6855D01*
X149941Y6881D01*
X149901Y6879D01*
X149861Y6886D01*
X149742Y6875D01*
X149623Y6871D01*
X149584Y6860D01*
X149544Y6856D01*
X149432Y6816D01*
X149317Y6783D01*
X149283Y6762D01*
X149245Y6748D01*
X149146Y6682D01*
X149044Y6621D01*
X148998Y6581D01*
X148981Y6570D01*
X148968Y6554D01*
X148923Y6515D01*
X148543Y6135D01*
X146017Y6135D01*
X144305Y7848D01*
X144211Y7921D01*
X144121Y7999D01*
X144085Y8018D01*
X144053Y8043D01*
X143944Y8090D01*
X143838Y8144D01*
X143799Y8153D01*
X143762Y8169D01*
X143644Y8188D01*
X143528Y8214D01*
X143488Y8212D01*
X143448Y8219D01*
X143329Y8208D01*
X143210Y8204D01*
X143171Y8193D01*
X143131Y8189D01*
X143019Y8149D01*
X142905Y8116D01*
X142870Y8095D01*
X142832Y8081D01*
X142733Y8015D01*
X142631Y7954D01*
X142585Y7914D01*
X142569Y7903D01*
X142555Y7888D01*
X142510Y7848D01*
X140613Y5951D01*
X138087Y5951D01*
G37*
%LPD*%
%LPC*%
G36*
X95511Y51561D02*
X95511Y51561D01*
X93725Y53347D01*
X93725Y54102D01*
X93710Y54220D01*
X93703Y54339D01*
X93690Y54377D01*
X93685Y54418D01*
X93642Y54528D01*
X93605Y54641D01*
X93583Y54676D01*
X93568Y54713D01*
X93499Y54809D01*
X93435Y54910D01*
X93405Y54938D01*
X93382Y54971D01*
X93290Y55047D01*
X93203Y55128D01*
X93168Y55148D01*
X93137Y55173D01*
X93029Y55224D01*
X92925Y55282D01*
X92885Y55292D01*
X92849Y55309D01*
X92732Y55331D01*
X92617Y55361D01*
X92557Y55365D01*
X92537Y55369D01*
X92516Y55367D01*
X92456Y55371D01*
X91955Y55371D01*
X90169Y57157D01*
X90169Y59683D01*
X90803Y60317D01*
X90888Y60426D01*
X90977Y60533D01*
X90986Y60552D01*
X90998Y60568D01*
X91053Y60695D01*
X91112Y60821D01*
X91116Y60841D01*
X91124Y60860D01*
X91146Y60998D01*
X91172Y61134D01*
X91171Y61154D01*
X91174Y61174D01*
X91161Y61313D01*
X91152Y61451D01*
X91146Y61470D01*
X91144Y61490D01*
X91097Y61622D01*
X91054Y61753D01*
X91044Y61771D01*
X91037Y61790D01*
X90959Y61905D01*
X90884Y62022D01*
X90869Y62036D01*
X90858Y62053D01*
X90754Y62145D01*
X90653Y62240D01*
X90635Y62250D01*
X90620Y62263D01*
X90496Y62326D01*
X90374Y62394D01*
X90355Y62399D01*
X90336Y62408D01*
X90201Y62438D01*
X90066Y62473D01*
X90038Y62475D01*
X90026Y62478D01*
X90006Y62477D01*
X89924Y62482D01*
X88137Y64269D01*
X88137Y66795D01*
X89923Y68581D01*
X90424Y68581D01*
X90542Y68596D01*
X90661Y68603D01*
X90699Y68616D01*
X90740Y68621D01*
X90850Y68664D01*
X90963Y68701D01*
X90998Y68723D01*
X91035Y68738D01*
X91131Y68807D01*
X91232Y68871D01*
X91260Y68901D01*
X91293Y68924D01*
X91369Y69016D01*
X91450Y69103D01*
X91470Y69138D01*
X91495Y69169D01*
X91546Y69277D01*
X91604Y69381D01*
X91614Y69421D01*
X91631Y69457D01*
X91653Y69574D01*
X91683Y69689D01*
X91687Y69749D01*
X91691Y69769D01*
X91689Y69790D01*
X91693Y69850D01*
X91693Y70605D01*
X92200Y71111D01*
X92273Y71205D01*
X92352Y71295D01*
X92370Y71331D01*
X92395Y71363D01*
X92442Y71472D01*
X92496Y71578D01*
X92505Y71617D01*
X92521Y71655D01*
X92540Y71772D01*
X92566Y71888D01*
X92565Y71929D01*
X92571Y71969D01*
X92560Y72087D01*
X92556Y72206D01*
X92545Y72245D01*
X92541Y72285D01*
X92501Y72397D01*
X92468Y72512D01*
X92447Y72547D01*
X92434Y72585D01*
X92367Y72683D01*
X92306Y72786D01*
X92266Y72831D01*
X92255Y72848D01*
X92240Y72861D01*
X92200Y72906D01*
X91947Y73159D01*
X91947Y75685D01*
X93733Y77471D01*
X94234Y77471D01*
X94352Y77486D01*
X94471Y77493D01*
X94509Y77506D01*
X94550Y77511D01*
X94660Y77554D01*
X94773Y77591D01*
X94808Y77613D01*
X94845Y77628D01*
X94941Y77697D01*
X95042Y77761D01*
X95070Y77791D01*
X95103Y77814D01*
X95179Y77906D01*
X95260Y77993D01*
X95280Y78028D01*
X95305Y78059D01*
X95356Y78167D01*
X95414Y78271D01*
X95424Y78311D01*
X95441Y78347D01*
X95463Y78464D01*
X95493Y78579D01*
X95497Y78639D01*
X95501Y78659D01*
X95499Y78680D01*
X95503Y78740D01*
X95503Y79495D01*
X97289Y81281D01*
X99815Y81281D01*
X101601Y79495D01*
X101601Y78994D01*
X101616Y78876D01*
X101623Y78757D01*
X101636Y78719D01*
X101641Y78678D01*
X101684Y78568D01*
X101721Y78455D01*
X101743Y78420D01*
X101758Y78383D01*
X101827Y78287D01*
X101891Y78186D01*
X101921Y78158D01*
X101944Y78125D01*
X102036Y78049D01*
X102123Y77968D01*
X102158Y77948D01*
X102189Y77923D01*
X102297Y77872D01*
X102401Y77814D01*
X102441Y77804D01*
X102477Y77787D01*
X102594Y77765D01*
X102709Y77735D01*
X102769Y77731D01*
X102789Y77727D01*
X102810Y77729D01*
X102870Y77725D01*
X103625Y77725D01*
X103877Y77472D01*
X103972Y77399D01*
X104061Y77320D01*
X104097Y77302D01*
X104129Y77277D01*
X104238Y77230D01*
X104344Y77176D01*
X104383Y77167D01*
X104421Y77151D01*
X104538Y77132D01*
X104654Y77106D01*
X104695Y77107D01*
X104735Y77101D01*
X104853Y77112D01*
X104972Y77116D01*
X105011Y77127D01*
X105051Y77131D01*
X105163Y77171D01*
X105278Y77204D01*
X105313Y77225D01*
X105351Y77238D01*
X105449Y77305D01*
X105552Y77366D01*
X105597Y77406D01*
X105614Y77417D01*
X105627Y77432D01*
X105672Y77472D01*
X106687Y78487D01*
X108268Y78487D01*
X108386Y78502D01*
X108504Y78509D01*
X108543Y78522D01*
X108583Y78527D01*
X108694Y78570D01*
X108807Y78607D01*
X108841Y78629D01*
X108879Y78644D01*
X108975Y78713D01*
X109076Y78777D01*
X109103Y78807D01*
X109136Y78830D01*
X109212Y78922D01*
X109294Y79009D01*
X109313Y79044D01*
X109339Y79075D01*
X109390Y79183D01*
X109447Y79287D01*
X109457Y79327D01*
X109474Y79363D01*
X109497Y79480D01*
X109527Y79595D01*
X109530Y79655D01*
X109534Y79675D01*
X109533Y79696D01*
X109537Y79756D01*
X109537Y80320D01*
X111323Y82106D01*
X113848Y82106D01*
X115634Y80320D01*
X115634Y77795D01*
X113848Y76009D01*
X112268Y76009D01*
X112150Y75994D01*
X112031Y75986D01*
X111993Y75974D01*
X111952Y75969D01*
X111842Y75925D01*
X111729Y75888D01*
X111694Y75867D01*
X111657Y75852D01*
X111561Y75782D01*
X111460Y75718D01*
X111432Y75689D01*
X111399Y75665D01*
X111323Y75573D01*
X111242Y75487D01*
X111222Y75451D01*
X111197Y75420D01*
X111146Y75312D01*
X111088Y75208D01*
X111078Y75169D01*
X111061Y75132D01*
X111039Y75016D01*
X111009Y74900D01*
X111005Y74840D01*
X111001Y74820D01*
X111003Y74800D01*
X110999Y74740D01*
X110999Y74175D01*
X109213Y72389D01*
X106687Y72389D01*
X106434Y72642D01*
X106340Y72715D01*
X106251Y72794D01*
X106215Y72812D01*
X106183Y72837D01*
X106074Y72884D01*
X105968Y72938D01*
X105929Y72947D01*
X105891Y72963D01*
X105774Y72982D01*
X105658Y73008D01*
X105617Y73007D01*
X105577Y73013D01*
X105459Y73002D01*
X105340Y72998D01*
X105301Y72987D01*
X105261Y72983D01*
X105149Y72943D01*
X105034Y72910D01*
X104999Y72889D01*
X104961Y72876D01*
X104863Y72809D01*
X104760Y72748D01*
X104715Y72709D01*
X104698Y72697D01*
X104685Y72682D01*
X104639Y72642D01*
X103625Y71627D01*
X101099Y71627D01*
X99704Y73023D01*
X99609Y73096D01*
X99520Y73175D01*
X99484Y73193D01*
X99452Y73218D01*
X99343Y73265D01*
X99237Y73319D01*
X99198Y73328D01*
X99160Y73344D01*
X99043Y73363D01*
X98927Y73389D01*
X98886Y73388D01*
X98846Y73394D01*
X98728Y73383D01*
X98609Y73379D01*
X98570Y73368D01*
X98530Y73364D01*
X98417Y73324D01*
X98303Y73291D01*
X98269Y73270D01*
X98230Y73257D01*
X98132Y73190D01*
X98029Y73129D01*
X97984Y73089D01*
X97967Y73078D01*
X97954Y73063D01*
X97909Y73023D01*
X97538Y72652D01*
X97465Y72558D01*
X97386Y72469D01*
X97368Y72433D01*
X97343Y72401D01*
X97296Y72292D01*
X97242Y72186D01*
X97233Y72147D01*
X97217Y72109D01*
X97198Y71992D01*
X97172Y71876D01*
X97173Y71835D01*
X97167Y71795D01*
X97178Y71676D01*
X97182Y71558D01*
X97193Y71519D01*
X97197Y71479D01*
X97237Y71366D01*
X97270Y71252D01*
X97291Y71217D01*
X97304Y71179D01*
X97371Y71081D01*
X97432Y70978D01*
X97471Y70933D01*
X97483Y70916D01*
X97498Y70903D01*
X97538Y70857D01*
X97791Y70605D01*
X97791Y68079D01*
X96005Y66293D01*
X95504Y66293D01*
X95386Y66278D01*
X95267Y66271D01*
X95229Y66258D01*
X95188Y66253D01*
X95078Y66210D01*
X94965Y66173D01*
X94930Y66151D01*
X94893Y66136D01*
X94797Y66067D01*
X94696Y66003D01*
X94668Y65973D01*
X94635Y65950D01*
X94559Y65858D01*
X94478Y65771D01*
X94458Y65736D01*
X94433Y65705D01*
X94382Y65597D01*
X94324Y65493D01*
X94314Y65453D01*
X94297Y65417D01*
X94275Y65300D01*
X94245Y65185D01*
X94241Y65125D01*
X94237Y65105D01*
X94239Y65084D01*
X94235Y65024D01*
X94235Y64269D01*
X93601Y63635D01*
X93516Y63526D01*
X93427Y63419D01*
X93418Y63400D01*
X93406Y63384D01*
X93351Y63257D01*
X93292Y63131D01*
X93288Y63111D01*
X93280Y63092D01*
X93258Y62954D01*
X93232Y62818D01*
X93233Y62798D01*
X93230Y62778D01*
X93243Y62639D01*
X93252Y62501D01*
X93258Y62482D01*
X93260Y62462D01*
X93307Y62330D01*
X93350Y62199D01*
X93360Y62181D01*
X93367Y62162D01*
X93445Y62047D01*
X93520Y61930D01*
X93535Y61916D01*
X93546Y61899D01*
X93650Y61807D01*
X93751Y61712D01*
X93769Y61702D01*
X93784Y61689D01*
X93908Y61626D01*
X94030Y61558D01*
X94049Y61553D01*
X94068Y61544D01*
X94203Y61514D01*
X94338Y61479D01*
X94366Y61477D01*
X94378Y61474D01*
X94398Y61475D01*
X94480Y61470D01*
X96267Y59683D01*
X96267Y58928D01*
X96282Y58810D01*
X96289Y58691D01*
X96302Y58653D01*
X96307Y58612D01*
X96350Y58502D01*
X96387Y58389D01*
X96409Y58354D01*
X96424Y58317D01*
X96493Y58221D01*
X96557Y58120D01*
X96587Y58092D01*
X96610Y58059D01*
X96702Y57983D01*
X96789Y57902D01*
X96824Y57882D01*
X96855Y57857D01*
X96963Y57806D01*
X97067Y57748D01*
X97107Y57738D01*
X97143Y57721D01*
X97260Y57699D01*
X97375Y57669D01*
X97435Y57665D01*
X97455Y57661D01*
X97476Y57663D01*
X97536Y57659D01*
X98037Y57659D01*
X99823Y55873D01*
X99823Y53347D01*
X98037Y51561D01*
X95511Y51561D01*
G37*
%LPD*%
%LPC*%
G36*
X182633Y214883D02*
X182633Y214883D01*
X180847Y216669D01*
X180847Y219195D01*
X182633Y220981D01*
X183123Y220981D01*
X183261Y220998D01*
X183400Y221011D01*
X183419Y221018D01*
X183439Y221021D01*
X183568Y221072D01*
X183699Y221119D01*
X183716Y221130D01*
X183735Y221138D01*
X183847Y221219D01*
X183962Y221297D01*
X183976Y221313D01*
X183992Y221324D01*
X184081Y221432D01*
X184173Y221536D01*
X184182Y221554D01*
X184195Y221569D01*
X184254Y221695D01*
X184317Y221819D01*
X184322Y221839D01*
X184330Y221857D01*
X184356Y221994D01*
X184387Y222129D01*
X184386Y222150D01*
X184390Y222169D01*
X184382Y222308D01*
X184377Y222447D01*
X184372Y222467D01*
X184370Y222487D01*
X184328Y222619D01*
X184289Y222753D01*
X184279Y222770D01*
X184272Y222789D01*
X184198Y222907D01*
X184127Y223027D01*
X184109Y223048D01*
X184102Y223058D01*
X184087Y223072D01*
X184021Y223147D01*
X183133Y224035D01*
X183133Y226561D01*
X184919Y228347D01*
X187695Y228347D01*
X187833Y228364D01*
X187972Y228377D01*
X187991Y228384D01*
X188011Y228387D01*
X188140Y228438D01*
X188271Y228485D01*
X188288Y228496D01*
X188307Y228504D01*
X188419Y228585D01*
X188534Y228663D01*
X188548Y228679D01*
X188564Y228690D01*
X188653Y228798D01*
X188745Y228902D01*
X188754Y228920D01*
X188767Y228935D01*
X188826Y229061D01*
X188889Y229185D01*
X188894Y229205D01*
X188902Y229223D01*
X188928Y229360D01*
X188959Y229495D01*
X188958Y229516D01*
X188962Y229535D01*
X188954Y229674D01*
X188949Y229813D01*
X188944Y229833D01*
X188942Y229853D01*
X188900Y229985D01*
X188861Y230119D01*
X188851Y230136D01*
X188844Y230155D01*
X188770Y230273D01*
X188721Y230356D01*
X188721Y232911D01*
X192539Y236729D01*
X195065Y236729D01*
X196851Y234943D01*
X196851Y232167D01*
X196868Y232029D01*
X196881Y231890D01*
X196888Y231871D01*
X196891Y231851D01*
X196942Y231721D01*
X196989Y231591D01*
X197000Y231574D01*
X197008Y231555D01*
X197089Y231443D01*
X197167Y231328D01*
X197183Y231314D01*
X197194Y231298D01*
X197302Y231209D01*
X197406Y231117D01*
X197424Y231108D01*
X197439Y231095D01*
X197565Y231036D01*
X197689Y230973D01*
X197709Y230968D01*
X197727Y230960D01*
X197864Y230934D01*
X197999Y230903D01*
X198020Y230904D01*
X198039Y230900D01*
X198178Y230908D01*
X198317Y230913D01*
X198337Y230918D01*
X198357Y230920D01*
X198489Y230962D01*
X198623Y231001D01*
X198640Y231011D01*
X198659Y231018D01*
X198777Y231092D01*
X198897Y231163D01*
X198918Y231181D01*
X198928Y231188D01*
X198942Y231203D01*
X199017Y231269D01*
X199397Y231649D01*
X201930Y231649D01*
X202048Y231664D01*
X202167Y231671D01*
X202205Y231684D01*
X202246Y231689D01*
X202356Y231732D01*
X202469Y231769D01*
X202504Y231791D01*
X202541Y231806D01*
X202637Y231875D01*
X202738Y231939D01*
X202766Y231969D01*
X202799Y231992D01*
X202875Y232084D01*
X202956Y232171D01*
X202976Y232206D01*
X203001Y232237D01*
X203052Y232345D01*
X203110Y232449D01*
X203120Y232489D01*
X203137Y232525D01*
X203159Y232642D01*
X203189Y232757D01*
X203193Y232817D01*
X203197Y232837D01*
X203195Y232858D01*
X203199Y232918D01*
X203199Y233419D01*
X204985Y235205D01*
X207511Y235205D01*
X209297Y233419D01*
X209297Y230893D01*
X207511Y229107D01*
X204978Y229107D01*
X204860Y229092D01*
X204741Y229085D01*
X204703Y229072D01*
X204662Y229067D01*
X204552Y229024D01*
X204439Y228987D01*
X204404Y228965D01*
X204367Y228950D01*
X204271Y228881D01*
X204170Y228817D01*
X204142Y228787D01*
X204109Y228764D01*
X204033Y228672D01*
X203952Y228585D01*
X203932Y228550D01*
X203907Y228519D01*
X203856Y228411D01*
X203798Y228307D01*
X203788Y228267D01*
X203771Y228231D01*
X203749Y228114D01*
X203719Y227999D01*
X203715Y227939D01*
X203711Y227919D01*
X203713Y227898D01*
X203709Y227838D01*
X203709Y227337D01*
X201923Y225551D01*
X199397Y225551D01*
X197747Y227201D01*
X197638Y227286D01*
X197531Y227375D01*
X197512Y227383D01*
X197496Y227396D01*
X197368Y227451D01*
X197243Y227510D01*
X197223Y227514D01*
X197204Y227522D01*
X197066Y227544D01*
X196930Y227570D01*
X196910Y227569D01*
X196890Y227572D01*
X196751Y227559D01*
X196613Y227550D01*
X196594Y227544D01*
X196574Y227542D01*
X196442Y227495D01*
X196311Y227452D01*
X196293Y227442D01*
X196274Y227435D01*
X196159Y227357D01*
X196042Y227282D01*
X196028Y227267D01*
X196011Y227256D01*
X195919Y227152D01*
X195824Y227051D01*
X195814Y227033D01*
X195801Y227018D01*
X195737Y226894D01*
X195670Y226772D01*
X195665Y226753D01*
X195656Y226734D01*
X195626Y226599D01*
X195591Y226464D01*
X195589Y226436D01*
X195586Y226424D01*
X195587Y226404D01*
X195581Y226303D01*
X195581Y225305D01*
X193795Y223519D01*
X192532Y223519D01*
X192414Y223504D01*
X192295Y223497D01*
X192257Y223484D01*
X192216Y223479D01*
X192106Y223436D01*
X191993Y223399D01*
X191958Y223377D01*
X191921Y223362D01*
X191825Y223293D01*
X191724Y223229D01*
X191696Y223199D01*
X191663Y223176D01*
X191587Y223084D01*
X191506Y222997D01*
X191486Y222962D01*
X191461Y222931D01*
X191410Y222823D01*
X191352Y222719D01*
X191342Y222679D01*
X191325Y222643D01*
X191303Y222526D01*
X191273Y222411D01*
X191269Y222351D01*
X191265Y222331D01*
X191267Y222310D01*
X191263Y222250D01*
X191263Y222003D01*
X189477Y220217D01*
X188214Y220217D01*
X188096Y220202D01*
X187977Y220195D01*
X187939Y220182D01*
X187898Y220177D01*
X187788Y220134D01*
X187675Y220097D01*
X187640Y220075D01*
X187603Y220060D01*
X187507Y219991D01*
X187406Y219927D01*
X187378Y219897D01*
X187345Y219874D01*
X187269Y219782D01*
X187188Y219695D01*
X187168Y219660D01*
X187143Y219629D01*
X187092Y219521D01*
X187034Y219417D01*
X187024Y219377D01*
X187007Y219341D01*
X186985Y219224D01*
X186955Y219109D01*
X186951Y219049D01*
X186947Y219029D01*
X186949Y219008D01*
X186945Y218948D01*
X186945Y216669D01*
X185159Y214883D01*
X182633Y214883D01*
G37*
%LPD*%
%LPC*%
G36*
X207779Y171195D02*
X207779Y171195D01*
X205993Y172981D01*
X205993Y175507D01*
X206373Y175887D01*
X206446Y175981D01*
X206525Y176070D01*
X206543Y176106D01*
X206568Y176138D01*
X206615Y176247D01*
X206669Y176353D01*
X206678Y176392D01*
X206694Y176430D01*
X206713Y176547D01*
X206739Y176663D01*
X206738Y176704D01*
X206744Y176744D01*
X206733Y176862D01*
X206729Y176981D01*
X206718Y177020D01*
X206714Y177060D01*
X206674Y177172D01*
X206641Y177287D01*
X206620Y177322D01*
X206607Y177360D01*
X206540Y177458D01*
X206479Y177561D01*
X206440Y177606D01*
X206428Y177623D01*
X206413Y177636D01*
X206373Y177682D01*
X205739Y178315D01*
X205739Y180841D01*
X206119Y181221D01*
X206204Y181330D01*
X206293Y181437D01*
X206301Y181456D01*
X206314Y181472D01*
X206369Y181600D01*
X206428Y181725D01*
X206432Y181745D01*
X206440Y181764D01*
X206462Y181902D01*
X206488Y182038D01*
X206487Y182058D01*
X206490Y182078D01*
X206477Y182217D01*
X206468Y182355D01*
X206462Y182374D01*
X206460Y182394D01*
X206413Y182525D01*
X206370Y182657D01*
X206360Y182675D01*
X206353Y182694D01*
X206275Y182808D01*
X206200Y182926D01*
X206185Y182940D01*
X206174Y182957D01*
X206070Y183049D01*
X205969Y183144D01*
X205951Y183154D01*
X205936Y183167D01*
X205812Y183230D01*
X205690Y183298D01*
X205671Y183303D01*
X205652Y183312D01*
X205517Y183342D01*
X205382Y183377D01*
X205354Y183379D01*
X205342Y183382D01*
X205322Y183381D01*
X205221Y183387D01*
X202445Y183387D01*
X200659Y185173D01*
X200659Y187699D01*
X201547Y188587D01*
X201632Y188696D01*
X201721Y188803D01*
X201730Y188822D01*
X201742Y188838D01*
X201797Y188965D01*
X201856Y189091D01*
X201860Y189111D01*
X201868Y189130D01*
X201890Y189268D01*
X201916Y189404D01*
X201915Y189424D01*
X201918Y189444D01*
X201905Y189583D01*
X201896Y189721D01*
X201890Y189740D01*
X201888Y189760D01*
X201841Y189892D01*
X201798Y190023D01*
X201788Y190041D01*
X201781Y190060D01*
X201703Y190175D01*
X201628Y190292D01*
X201613Y190306D01*
X201602Y190323D01*
X201498Y190415D01*
X201397Y190510D01*
X201379Y190520D01*
X201364Y190533D01*
X201240Y190597D01*
X201118Y190664D01*
X201099Y190669D01*
X201080Y190678D01*
X200945Y190708D01*
X200810Y190743D01*
X200782Y190745D01*
X200770Y190748D01*
X200750Y190747D01*
X200649Y190753D01*
X199397Y190753D01*
X197611Y192539D01*
X197611Y195065D01*
X199397Y196851D01*
X201923Y196851D01*
X203065Y195709D01*
X203175Y195624D01*
X203281Y195535D01*
X203300Y195526D01*
X203316Y195514D01*
X203443Y195459D01*
X203569Y195400D01*
X203589Y195396D01*
X203608Y195388D01*
X203746Y195366D01*
X203882Y195340D01*
X203902Y195341D01*
X203922Y195338D01*
X204061Y195351D01*
X204199Y195360D01*
X204218Y195366D01*
X204238Y195368D01*
X204370Y195415D01*
X204501Y195458D01*
X204519Y195468D01*
X204538Y195475D01*
X204653Y195553D01*
X204770Y195628D01*
X204784Y195643D01*
X204801Y195654D01*
X204893Y195758D01*
X204988Y195859D01*
X204998Y195877D01*
X205011Y195892D01*
X205075Y196016D01*
X205142Y196138D01*
X205147Y196157D01*
X205156Y196176D01*
X205186Y196311D01*
X205221Y196446D01*
X205223Y196474D01*
X205226Y196486D01*
X205225Y196506D01*
X205231Y196607D01*
X205231Y197351D01*
X207017Y199137D01*
X209543Y199137D01*
X211329Y197351D01*
X211329Y194825D01*
X209543Y193039D01*
X207017Y193039D01*
X205875Y194181D01*
X205766Y194266D01*
X205659Y194355D01*
X205640Y194364D01*
X205624Y194376D01*
X205497Y194431D01*
X205371Y194490D01*
X205351Y194494D01*
X205332Y194502D01*
X205194Y194524D01*
X205058Y194550D01*
X205038Y194549D01*
X205018Y194552D01*
X204879Y194539D01*
X204741Y194530D01*
X204722Y194524D01*
X204702Y194522D01*
X204570Y194475D01*
X204439Y194432D01*
X204421Y194422D01*
X204402Y194415D01*
X204287Y194337D01*
X204170Y194262D01*
X204156Y194247D01*
X204139Y194236D01*
X204047Y194132D01*
X203952Y194031D01*
X203942Y194013D01*
X203929Y193998D01*
X203865Y193874D01*
X203798Y193752D01*
X203793Y193733D01*
X203784Y193714D01*
X203754Y193579D01*
X203719Y193444D01*
X203717Y193416D01*
X203714Y193404D01*
X203715Y193384D01*
X203709Y193283D01*
X203709Y192539D01*
X202821Y191651D01*
X202736Y191542D01*
X202647Y191435D01*
X202638Y191416D01*
X202626Y191400D01*
X202571Y191273D01*
X202512Y191147D01*
X202508Y191127D01*
X202500Y191108D01*
X202478Y190970D01*
X202452Y190834D01*
X202453Y190814D01*
X202450Y190794D01*
X202463Y190655D01*
X202472Y190517D01*
X202478Y190498D01*
X202480Y190478D01*
X202527Y190346D01*
X202570Y190215D01*
X202580Y190197D01*
X202587Y190178D01*
X202665Y190063D01*
X202740Y189946D01*
X202755Y189932D01*
X202766Y189915D01*
X202870Y189823D01*
X202971Y189728D01*
X202989Y189718D01*
X203004Y189705D01*
X203128Y189641D01*
X203250Y189574D01*
X203269Y189569D01*
X203288Y189560D01*
X203423Y189530D01*
X203558Y189495D01*
X203586Y189493D01*
X203598Y189490D01*
X203618Y189491D01*
X203719Y189485D01*
X204971Y189485D01*
X206757Y187699D01*
X206757Y185173D01*
X206377Y184793D01*
X206292Y184684D01*
X206203Y184577D01*
X206195Y184558D01*
X206182Y184542D01*
X206127Y184414D01*
X206068Y184289D01*
X206064Y184269D01*
X206056Y184250D01*
X206034Y184112D01*
X206008Y183976D01*
X206009Y183956D01*
X206006Y183936D01*
X206019Y183797D01*
X206028Y183659D01*
X206034Y183640D01*
X206036Y183620D01*
X206083Y183489D01*
X206126Y183357D01*
X206136Y183339D01*
X206143Y183320D01*
X206221Y183206D01*
X206296Y183088D01*
X206311Y183074D01*
X206322Y183057D01*
X206426Y182965D01*
X206527Y182870D01*
X206545Y182860D01*
X206560Y182847D01*
X206684Y182784D01*
X206806Y182716D01*
X206825Y182711D01*
X206844Y182702D01*
X206979Y182672D01*
X207114Y182637D01*
X207142Y182635D01*
X207154Y182632D01*
X207174Y182633D01*
X207275Y182627D01*
X210051Y182627D01*
X210685Y181993D01*
X210794Y181908D01*
X210901Y181819D01*
X210920Y181810D01*
X210936Y181798D01*
X211063Y181743D01*
X211189Y181684D01*
X211209Y181680D01*
X211228Y181672D01*
X211366Y181650D01*
X211502Y181624D01*
X211522Y181625D01*
X211542Y181622D01*
X211681Y181635D01*
X211819Y181644D01*
X211838Y181650D01*
X211858Y181652D01*
X211990Y181699D01*
X212121Y181742D01*
X212139Y181752D01*
X212158Y181759D01*
X212273Y181837D01*
X212390Y181912D01*
X212404Y181927D01*
X212421Y181938D01*
X212513Y182042D01*
X212608Y182143D01*
X212618Y182161D01*
X212631Y182176D01*
X212694Y182300D01*
X212762Y182422D01*
X212767Y182441D01*
X212776Y182460D01*
X212806Y182595D01*
X212841Y182730D01*
X212843Y182758D01*
X212846Y182770D01*
X212845Y182790D01*
X212851Y182891D01*
X212851Y185413D01*
X214637Y187199D01*
X217163Y187199D01*
X218949Y185413D01*
X218949Y182887D01*
X217934Y181872D01*
X217861Y181778D01*
X217782Y181689D01*
X217764Y181653D01*
X217739Y181621D01*
X217692Y181512D01*
X217638Y181406D01*
X217629Y181367D01*
X217613Y181329D01*
X217594Y181212D01*
X217568Y181096D01*
X217569Y181055D01*
X217563Y181015D01*
X217574Y180897D01*
X217578Y180778D01*
X217589Y180739D01*
X217593Y180699D01*
X217633Y180587D01*
X217666Y180472D01*
X217687Y180437D01*
X217700Y180399D01*
X217767Y180301D01*
X217828Y180198D01*
X217867Y180153D01*
X217879Y180136D01*
X217894Y180123D01*
X217934Y180077D01*
X218949Y179063D01*
X218949Y176537D01*
X217163Y174751D01*
X214637Y174751D01*
X214257Y175131D01*
X214148Y175216D01*
X214041Y175305D01*
X214022Y175313D01*
X214006Y175326D01*
X213878Y175381D01*
X213753Y175440D01*
X213733Y175444D01*
X213714Y175452D01*
X213576Y175474D01*
X213440Y175500D01*
X213420Y175499D01*
X213400Y175502D01*
X213261Y175489D01*
X213123Y175480D01*
X213104Y175474D01*
X213084Y175472D01*
X212953Y175425D01*
X212821Y175382D01*
X212803Y175372D01*
X212784Y175365D01*
X212670Y175287D01*
X212552Y175212D01*
X212538Y175197D01*
X212521Y175186D01*
X212429Y175082D01*
X212334Y174981D01*
X212324Y174963D01*
X212311Y174948D01*
X212248Y174824D01*
X212180Y174702D01*
X212175Y174683D01*
X212166Y174664D01*
X212136Y174529D01*
X212101Y174394D01*
X212099Y174366D01*
X212096Y174354D01*
X212097Y174334D01*
X212091Y174233D01*
X212091Y172981D01*
X210305Y171195D01*
X207779Y171195D01*
G37*
%LPD*%
%LPC*%
G36*
X11691Y123189D02*
X11691Y123189D01*
X9905Y124975D01*
X9905Y127501D01*
X11691Y129287D01*
X14097Y129287D01*
X14215Y129302D01*
X14334Y129309D01*
X14372Y129322D01*
X14413Y129327D01*
X14523Y129370D01*
X14636Y129407D01*
X14671Y129429D01*
X14708Y129444D01*
X14804Y129513D01*
X14905Y129577D01*
X14933Y129607D01*
X14966Y129630D01*
X15042Y129722D01*
X15123Y129809D01*
X15143Y129844D01*
X15168Y129875D01*
X15219Y129983D01*
X15277Y130087D01*
X15287Y130127D01*
X15304Y130163D01*
X15326Y130280D01*
X15356Y130395D01*
X15360Y130455D01*
X15364Y130475D01*
X15362Y130496D01*
X15366Y130556D01*
X15366Y133571D01*
X16507Y136325D01*
X18615Y138433D01*
X21369Y139574D01*
X24351Y139574D01*
X27105Y138433D01*
X29213Y136325D01*
X30354Y133571D01*
X30354Y130589D01*
X29213Y127835D01*
X27105Y125727D01*
X24351Y124586D01*
X21369Y124586D01*
X18615Y125727D01*
X18170Y126173D01*
X18060Y126258D01*
X17953Y126347D01*
X17934Y126355D01*
X17918Y126368D01*
X17790Y126423D01*
X17665Y126482D01*
X17645Y126486D01*
X17626Y126494D01*
X17488Y126516D01*
X17352Y126542D01*
X17332Y126541D01*
X17312Y126544D01*
X17173Y126531D01*
X17035Y126522D01*
X17016Y126516D01*
X16996Y126514D01*
X16865Y126467D01*
X16733Y126424D01*
X16715Y126413D01*
X16696Y126407D01*
X16582Y126329D01*
X16464Y126254D01*
X16450Y126239D01*
X16433Y126228D01*
X16341Y126124D01*
X16246Y126022D01*
X16236Y126005D01*
X16223Y125990D01*
X16160Y125866D01*
X16092Y125744D01*
X16087Y125724D01*
X16078Y125706D01*
X16048Y125570D01*
X16013Y125436D01*
X16011Y125408D01*
X16008Y125396D01*
X16009Y125376D01*
X16003Y125275D01*
X16003Y124975D01*
X14217Y123189D01*
X11691Y123189D01*
G37*
%LPD*%
%LPC*%
G36*
X186951Y89661D02*
X186951Y89661D01*
X185165Y91447D01*
X185165Y93973D01*
X186053Y94861D01*
X186138Y94970D01*
X186227Y95077D01*
X186236Y95096D01*
X186248Y95112D01*
X186303Y95239D01*
X186362Y95365D01*
X186366Y95385D01*
X186374Y95404D01*
X186396Y95542D01*
X186422Y95678D01*
X186421Y95698D01*
X186424Y95718D01*
X186411Y95857D01*
X186402Y95995D01*
X186396Y96014D01*
X186394Y96034D01*
X186347Y96166D01*
X186304Y96297D01*
X186294Y96315D01*
X186287Y96334D01*
X186209Y96449D01*
X186134Y96566D01*
X186119Y96580D01*
X186108Y96597D01*
X186004Y96689D01*
X185903Y96784D01*
X185885Y96794D01*
X185870Y96807D01*
X185746Y96871D01*
X185624Y96938D01*
X185605Y96943D01*
X185586Y96952D01*
X185451Y96982D01*
X185316Y97017D01*
X185288Y97019D01*
X185276Y97022D01*
X185256Y97021D01*
X185155Y97027D01*
X183395Y97027D01*
X183015Y97407D01*
X182921Y97480D01*
X182909Y97491D01*
X182902Y97496D01*
X182799Y97581D01*
X182780Y97589D01*
X182764Y97602D01*
X182636Y97657D01*
X182511Y97716D01*
X182491Y97720D01*
X182472Y97728D01*
X182334Y97750D01*
X182198Y97776D01*
X182178Y97775D01*
X182158Y97778D01*
X182019Y97765D01*
X181881Y97756D01*
X181862Y97750D01*
X181842Y97748D01*
X181711Y97701D01*
X181579Y97658D01*
X181561Y97648D01*
X181542Y97641D01*
X181428Y97563D01*
X181310Y97488D01*
X181296Y97473D01*
X181279Y97462D01*
X181187Y97358D01*
X181092Y97257D01*
X181082Y97239D01*
X181069Y97224D01*
X181006Y97100D01*
X180938Y96978D01*
X180933Y96959D01*
X180924Y96940D01*
X180894Y96805D01*
X180859Y96670D01*
X180857Y96642D01*
X180854Y96630D01*
X180855Y96610D01*
X180849Y96509D01*
X180849Y93987D01*
X179063Y92201D01*
X176537Y92201D01*
X174751Y93987D01*
X174751Y96513D01*
X176537Y98299D01*
X179063Y98299D01*
X179443Y97919D01*
X179552Y97834D01*
X179659Y97745D01*
X179678Y97737D01*
X179694Y97724D01*
X179822Y97669D01*
X179947Y97610D01*
X179967Y97606D01*
X179986Y97598D01*
X180124Y97576D01*
X180260Y97550D01*
X180280Y97551D01*
X180300Y97548D01*
X180439Y97561D01*
X180577Y97570D01*
X180596Y97576D01*
X180616Y97578D01*
X180747Y97625D01*
X180879Y97668D01*
X180897Y97678D01*
X180916Y97685D01*
X181030Y97763D01*
X181148Y97838D01*
X181162Y97853D01*
X181179Y97864D01*
X181270Y97968D01*
X181366Y98069D01*
X181376Y98087D01*
X181389Y98102D01*
X181452Y98226D01*
X181520Y98348D01*
X181525Y98367D01*
X181534Y98386D01*
X181564Y98521D01*
X181599Y98656D01*
X181601Y98684D01*
X181604Y98696D01*
X181603Y98716D01*
X181609Y98817D01*
X181609Y100330D01*
X181594Y100448D01*
X181587Y100567D01*
X181574Y100605D01*
X181569Y100646D01*
X181526Y100756D01*
X181489Y100869D01*
X181467Y100904D01*
X181452Y100941D01*
X181383Y101037D01*
X181319Y101138D01*
X181289Y101166D01*
X181266Y101199D01*
X181174Y101275D01*
X181087Y101356D01*
X181052Y101376D01*
X181021Y101401D01*
X180913Y101452D01*
X180809Y101510D01*
X180769Y101520D01*
X180733Y101537D01*
X180616Y101559D01*
X180501Y101589D01*
X180441Y101593D01*
X180421Y101597D01*
X180400Y101595D01*
X180340Y101599D01*
X177299Y101599D01*
X175513Y103385D01*
X175513Y105911D01*
X177299Y107697D01*
X179825Y107697D01*
X180459Y107063D01*
X180553Y106990D01*
X180642Y106911D01*
X180678Y106893D01*
X180710Y106868D01*
X180819Y106821D01*
X180925Y106767D01*
X180964Y106758D01*
X181002Y106742D01*
X181119Y106723D01*
X181235Y106697D01*
X181276Y106698D01*
X181316Y106692D01*
X181434Y106703D01*
X181553Y106707D01*
X181592Y106718D01*
X181632Y106722D01*
X181744Y106762D01*
X181859Y106795D01*
X181894Y106816D01*
X181932Y106829D01*
X182030Y106896D01*
X182133Y106957D01*
X182178Y106996D01*
X182195Y107008D01*
X182208Y107023D01*
X182254Y107063D01*
X183395Y108205D01*
X185921Y108205D01*
X186300Y107825D01*
X186394Y107752D01*
X186484Y107673D01*
X186520Y107655D01*
X186552Y107630D01*
X186661Y107583D01*
X186767Y107529D01*
X186806Y107520D01*
X186844Y107504D01*
X186961Y107485D01*
X187077Y107459D01*
X187118Y107460D01*
X187158Y107454D01*
X187276Y107465D01*
X187395Y107469D01*
X187434Y107480D01*
X187474Y107484D01*
X187586Y107524D01*
X187701Y107557D01*
X187736Y107578D01*
X187774Y107591D01*
X187872Y107658D01*
X187975Y107719D01*
X188020Y107759D01*
X188037Y107770D01*
X188050Y107785D01*
X188095Y107825D01*
X188475Y108205D01*
X191001Y108205D01*
X192787Y106419D01*
X192787Y103893D01*
X191001Y102107D01*
X188976Y102107D01*
X188858Y102092D01*
X188739Y102085D01*
X188701Y102072D01*
X188660Y102067D01*
X188550Y102024D01*
X188437Y101987D01*
X188402Y101965D01*
X188365Y101950D01*
X188269Y101881D01*
X188168Y101817D01*
X188140Y101787D01*
X188107Y101764D01*
X188031Y101672D01*
X187950Y101585D01*
X187930Y101550D01*
X187905Y101519D01*
X187854Y101411D01*
X187796Y101307D01*
X187786Y101267D01*
X187769Y101231D01*
X187747Y101114D01*
X187717Y100999D01*
X187713Y100938D01*
X187709Y100919D01*
X187711Y100898D01*
X187707Y100838D01*
X187707Y98813D01*
X186819Y97925D01*
X186734Y97816D01*
X186645Y97709D01*
X186636Y97690D01*
X186624Y97674D01*
X186569Y97547D01*
X186510Y97421D01*
X186506Y97401D01*
X186498Y97382D01*
X186476Y97244D01*
X186450Y97108D01*
X186451Y97088D01*
X186448Y97068D01*
X186461Y96929D01*
X186470Y96791D01*
X186476Y96772D01*
X186478Y96752D01*
X186525Y96620D01*
X186568Y96489D01*
X186578Y96471D01*
X186585Y96452D01*
X186663Y96337D01*
X186738Y96220D01*
X186753Y96206D01*
X186764Y96189D01*
X186868Y96097D01*
X186969Y96002D01*
X186987Y95992D01*
X187002Y95979D01*
X187126Y95915D01*
X187248Y95848D01*
X187267Y95843D01*
X187286Y95834D01*
X187421Y95804D01*
X187556Y95769D01*
X187584Y95767D01*
X187596Y95764D01*
X187616Y95765D01*
X187717Y95759D01*
X189477Y95759D01*
X191263Y93973D01*
X191263Y91447D01*
X189477Y89661D01*
X186951Y89661D01*
G37*
%LPD*%
%LPC*%
G36*
X11219Y73786D02*
X11219Y73786D01*
X8465Y74927D01*
X6357Y77035D01*
X5216Y79789D01*
X5216Y82771D01*
X6357Y85525D01*
X8465Y87633D01*
X11219Y88774D01*
X14201Y88774D01*
X16955Y87633D01*
X19063Y85525D01*
X20204Y82771D01*
X20204Y79789D01*
X19063Y77035D01*
X16955Y74927D01*
X14201Y73786D01*
X11219Y73786D01*
G37*
%LPD*%
%LPC*%
G36*
X31519Y73786D02*
X31519Y73786D01*
X28765Y74927D01*
X26657Y77035D01*
X25516Y79789D01*
X25516Y82771D01*
X26657Y85525D01*
X28765Y87633D01*
X31519Y88774D01*
X34501Y88774D01*
X37255Y87633D01*
X39363Y85525D01*
X40504Y82771D01*
X40504Y79789D01*
X39363Y77035D01*
X37255Y74927D01*
X34501Y73786D01*
X31519Y73786D01*
G37*
%LPD*%
%LPC*%
G36*
X25269Y182429D02*
X25269Y182429D01*
X22682Y183501D01*
X20701Y185482D01*
X19629Y188069D01*
X19629Y190871D01*
X20701Y193458D01*
X22682Y195439D01*
X25269Y196511D01*
X28071Y196511D01*
X30658Y195439D01*
X32639Y193458D01*
X33711Y190871D01*
X33711Y188069D01*
X32639Y185482D01*
X30658Y183501D01*
X28071Y182429D01*
X25269Y182429D01*
G37*
%LPD*%
%LPC*%
G36*
X25269Y212429D02*
X25269Y212429D01*
X22682Y213501D01*
X20701Y215482D01*
X19629Y218069D01*
X19629Y220871D01*
X20701Y223458D01*
X22682Y225439D01*
X25269Y226511D01*
X28071Y226511D01*
X30658Y225439D01*
X32639Y223458D01*
X33711Y220871D01*
X33711Y218069D01*
X32639Y215482D01*
X30658Y213501D01*
X28071Y212429D01*
X25269Y212429D01*
G37*
%LPD*%
%LPC*%
G36*
X162059Y177799D02*
X162059Y177799D01*
X160273Y179585D01*
X160273Y182111D01*
X162059Y183897D01*
X164835Y183897D01*
X164934Y183909D01*
X165033Y183912D01*
X165072Y183923D01*
X165112Y183927D01*
X165131Y183934D01*
X165151Y183937D01*
X165243Y183973D01*
X165338Y184001D01*
X165373Y184021D01*
X165411Y184035D01*
X165428Y184046D01*
X165447Y184054D01*
X165527Y184112D01*
X165612Y184162D01*
X165657Y184202D01*
X165674Y184213D01*
X165688Y184229D01*
X165704Y184240D01*
X165712Y184250D01*
X165733Y184268D01*
X165733Y184269D01*
X165806Y184363D01*
X165885Y184452D01*
X165894Y184470D01*
X165907Y184485D01*
X165915Y184504D01*
X165928Y184520D01*
X165975Y184629D01*
X166029Y184735D01*
X166034Y184755D01*
X166042Y184773D01*
X166046Y184793D01*
X166054Y184812D01*
X166073Y184929D01*
X166099Y185045D01*
X166098Y185066D01*
X166102Y185085D01*
X166101Y185105D01*
X166104Y185126D01*
X166093Y185244D01*
X166089Y185363D01*
X166084Y185383D01*
X166082Y185403D01*
X166076Y185422D01*
X166074Y185442D01*
X166034Y185554D01*
X166001Y185669D01*
X165990Y185686D01*
X165984Y185705D01*
X165974Y185722D01*
X165967Y185742D01*
X165900Y185840D01*
X165839Y185943D01*
X165821Y185964D01*
X165814Y185974D01*
X165800Y185988D01*
X165788Y186005D01*
X165773Y186018D01*
X165733Y186064D01*
X164591Y187205D01*
X164591Y189731D01*
X166377Y191517D01*
X169153Y191517D01*
X169252Y191529D01*
X169351Y191532D01*
X169409Y191549D01*
X169469Y191557D01*
X169561Y191593D01*
X169656Y191621D01*
X169708Y191651D01*
X169765Y191674D01*
X169845Y191732D01*
X169930Y191782D01*
X170005Y191848D01*
X170022Y191860D01*
X170030Y191870D01*
X170051Y191888D01*
X171460Y193297D01*
X171577Y193312D01*
X171716Y193325D01*
X171735Y193332D01*
X171755Y193335D01*
X171884Y193386D01*
X172015Y193433D01*
X172032Y193444D01*
X172051Y193452D01*
X172163Y193533D01*
X172278Y193611D01*
X172292Y193627D01*
X172308Y193638D01*
X172397Y193746D01*
X172489Y193850D01*
X172498Y193868D01*
X172511Y193883D01*
X172570Y194009D01*
X172633Y194133D01*
X172638Y194153D01*
X172646Y194171D01*
X172672Y194308D01*
X172703Y194443D01*
X172702Y194464D01*
X172706Y194483D01*
X172698Y194622D01*
X172693Y194761D01*
X172688Y194781D01*
X172686Y194801D01*
X172644Y194933D01*
X172605Y195067D01*
X172595Y195084D01*
X172588Y195103D01*
X172514Y195221D01*
X172443Y195341D01*
X172425Y195362D01*
X172418Y195372D01*
X172403Y195386D01*
X172337Y195461D01*
X171703Y196095D01*
X171703Y198621D01*
X173489Y200407D01*
X176015Y200407D01*
X177801Y198621D01*
X177801Y196095D01*
X176012Y194307D01*
X175895Y194292D01*
X175756Y194279D01*
X175737Y194272D01*
X175717Y194269D01*
X175588Y194218D01*
X175457Y194171D01*
X175440Y194160D01*
X175421Y194152D01*
X175309Y194071D01*
X175194Y193993D01*
X175180Y193977D01*
X175164Y193966D01*
X175075Y193858D01*
X174983Y193754D01*
X174974Y193736D01*
X174961Y193721D01*
X174902Y193595D01*
X174839Y193471D01*
X174834Y193451D01*
X174826Y193433D01*
X174800Y193296D01*
X174769Y193161D01*
X174770Y193140D01*
X174766Y193121D01*
X174774Y192982D01*
X174779Y192843D01*
X174784Y192823D01*
X174786Y192803D01*
X174828Y192671D01*
X174867Y192537D01*
X174877Y192520D01*
X174884Y192501D01*
X174958Y192383D01*
X175029Y192263D01*
X175047Y192242D01*
X175054Y192232D01*
X175069Y192218D01*
X175135Y192143D01*
X175769Y191509D01*
X175769Y188983D01*
X173983Y187197D01*
X171207Y187197D01*
X171069Y187180D01*
X170930Y187167D01*
X170911Y187160D01*
X170891Y187157D01*
X170762Y187106D01*
X170631Y187059D01*
X170614Y187048D01*
X170595Y187040D01*
X170483Y186959D01*
X170368Y186881D01*
X170354Y186865D01*
X170338Y186854D01*
X170249Y186746D01*
X170157Y186642D01*
X170148Y186624D01*
X170135Y186609D01*
X170076Y186483D01*
X170013Y186359D01*
X170008Y186339D01*
X170000Y186321D01*
X169974Y186185D01*
X169943Y186049D01*
X169944Y186028D01*
X169940Y186009D01*
X169948Y185870D01*
X169953Y185731D01*
X169958Y185711D01*
X169960Y185691D01*
X170002Y185559D01*
X170041Y185425D01*
X170051Y185408D01*
X170058Y185389D01*
X170132Y185271D01*
X170203Y185151D01*
X170221Y185130D01*
X170228Y185120D01*
X170243Y185106D01*
X170309Y185031D01*
X171451Y183889D01*
X171451Y181363D01*
X169665Y179577D01*
X166889Y179577D01*
X166790Y179565D01*
X166691Y179562D01*
X166633Y179545D01*
X166573Y179537D01*
X166481Y179501D01*
X166386Y179473D01*
X166334Y179443D01*
X166277Y179420D01*
X166197Y179362D01*
X166112Y179312D01*
X166037Y179246D01*
X166020Y179234D01*
X166012Y179224D01*
X165991Y179206D01*
X164585Y177799D01*
X162059Y177799D01*
G37*
%LPD*%
%LPC*%
G36*
X214383Y207263D02*
X214383Y207263D01*
X212597Y209049D01*
X212597Y209925D01*
X212582Y210044D01*
X212575Y210162D01*
X212562Y210201D01*
X212557Y210241D01*
X212514Y210352D01*
X212477Y210465D01*
X212455Y210499D01*
X212440Y210537D01*
X212371Y210633D01*
X212307Y210734D01*
X212277Y210761D01*
X212254Y210794D01*
X212162Y210870D01*
X212075Y210951D01*
X212040Y210971D01*
X212009Y210997D01*
X211901Y211047D01*
X211797Y211105D01*
X211757Y211115D01*
X211721Y211132D01*
X211604Y211155D01*
X211489Y211184D01*
X211429Y211188D01*
X211409Y211192D01*
X211388Y211191D01*
X211328Y211195D01*
X210695Y211195D01*
X210315Y211575D01*
X210221Y211648D01*
X210132Y211726D01*
X210096Y211745D01*
X210064Y211770D01*
X209954Y211817D01*
X209849Y211871D01*
X209809Y211880D01*
X209772Y211896D01*
X209654Y211915D01*
X209538Y211941D01*
X209498Y211939D01*
X209458Y211946D01*
X209339Y211935D01*
X209220Y211931D01*
X209182Y211920D01*
X209141Y211916D01*
X209029Y211876D01*
X208915Y211843D01*
X208880Y211822D01*
X208842Y211808D01*
X208744Y211742D01*
X208641Y211681D01*
X208596Y211641D01*
X208579Y211630D01*
X208565Y211614D01*
X208520Y211575D01*
X208019Y211073D01*
X205493Y211073D01*
X203707Y212859D01*
X203707Y213614D01*
X203692Y213732D01*
X203685Y213851D01*
X203672Y213889D01*
X203667Y213930D01*
X203624Y214040D01*
X203587Y214153D01*
X203565Y214188D01*
X203550Y214225D01*
X203481Y214321D01*
X203417Y214422D01*
X203387Y214450D01*
X203364Y214483D01*
X203272Y214559D01*
X203185Y214640D01*
X203150Y214660D01*
X203119Y214685D01*
X203011Y214736D01*
X202907Y214794D01*
X202867Y214804D01*
X202831Y214821D01*
X202714Y214843D01*
X202599Y214873D01*
X202539Y214877D01*
X202519Y214881D01*
X202498Y214879D01*
X202438Y214883D01*
X199397Y214883D01*
X197611Y216669D01*
X197611Y219195D01*
X199397Y220981D01*
X201923Y220981D01*
X203709Y219195D01*
X203709Y218440D01*
X203724Y218322D01*
X203731Y218203D01*
X203744Y218165D01*
X203749Y218124D01*
X203792Y218014D01*
X203829Y217901D01*
X203851Y217866D01*
X203866Y217829D01*
X203935Y217733D01*
X203999Y217632D01*
X204029Y217604D01*
X204052Y217571D01*
X204144Y217495D01*
X204231Y217414D01*
X204266Y217394D01*
X204297Y217369D01*
X204405Y217318D01*
X204509Y217260D01*
X204549Y217250D01*
X204585Y217233D01*
X204702Y217211D01*
X204817Y217181D01*
X204877Y217177D01*
X204897Y217173D01*
X204918Y217175D01*
X204978Y217171D01*
X208019Y217171D01*
X208399Y216791D01*
X208493Y216718D01*
X208582Y216639D01*
X208618Y216621D01*
X208650Y216596D01*
X208759Y216549D01*
X208865Y216494D01*
X208905Y216486D01*
X208942Y216469D01*
X209060Y216451D01*
X209176Y216425D01*
X209216Y216426D01*
X209256Y216420D01*
X209375Y216431D01*
X209494Y216434D01*
X209532Y216446D01*
X209573Y216449D01*
X209685Y216490D01*
X209799Y216523D01*
X209834Y216543D01*
X209872Y216557D01*
X209970Y216624D01*
X210073Y216684D01*
X210118Y216724D01*
X210135Y216736D01*
X210149Y216751D01*
X210194Y216791D01*
X210695Y217292D01*
X213221Y217292D01*
X215007Y215506D01*
X215007Y214630D01*
X215022Y214512D01*
X215029Y214393D01*
X215042Y214355D01*
X215047Y214314D01*
X215091Y214203D01*
X215127Y214091D01*
X215149Y214056D01*
X215164Y214019D01*
X215233Y213923D01*
X215297Y213822D01*
X215327Y213794D01*
X215350Y213761D01*
X215442Y213685D01*
X215529Y213604D01*
X215564Y213584D01*
X215595Y213559D01*
X215703Y213508D01*
X215807Y213450D01*
X215847Y213440D01*
X215883Y213423D01*
X216000Y213401D01*
X216115Y213371D01*
X216175Y213367D01*
X216195Y213363D01*
X216216Y213365D01*
X216276Y213361D01*
X216909Y213361D01*
X218695Y211575D01*
X218695Y209049D01*
X216909Y207263D01*
X214383Y207263D01*
G37*
%LPD*%
%LPC*%
G36*
X156725Y91185D02*
X156725Y91185D01*
X154939Y92971D01*
X154939Y95497D01*
X155827Y96385D01*
X155900Y96479D01*
X155979Y96568D01*
X155997Y96604D01*
X156022Y96636D01*
X156069Y96745D01*
X156123Y96851D01*
X156132Y96891D01*
X156148Y96928D01*
X156167Y97046D01*
X156193Y97161D01*
X156192Y97202D01*
X156198Y97242D01*
X156187Y97361D01*
X156183Y97479D01*
X156172Y97518D01*
X156168Y97558D01*
X156128Y97671D01*
X156095Y97785D01*
X156074Y97820D01*
X156061Y97858D01*
X155994Y97956D01*
X155955Y98021D01*
X155955Y100577D01*
X156335Y100957D01*
X156408Y101051D01*
X156487Y101140D01*
X156505Y101176D01*
X156530Y101208D01*
X156577Y101317D01*
X156631Y101423D01*
X156640Y101462D01*
X156656Y101500D01*
X156675Y101617D01*
X156701Y101733D01*
X156700Y101774D01*
X156706Y101814D01*
X156695Y101932D01*
X156691Y102051D01*
X156680Y102090D01*
X156676Y102130D01*
X156636Y102242D01*
X156603Y102357D01*
X156582Y102392D01*
X156569Y102430D01*
X156502Y102528D01*
X156441Y102631D01*
X156402Y102676D01*
X156390Y102693D01*
X156375Y102706D01*
X156335Y102752D01*
X155955Y103131D01*
X155955Y105657D01*
X157741Y107443D01*
X160267Y107443D01*
X162053Y105657D01*
X162053Y103131D01*
X161673Y102752D01*
X161600Y102658D01*
X161521Y102568D01*
X161503Y102532D01*
X161478Y102500D01*
X161431Y102391D01*
X161377Y102285D01*
X161368Y102246D01*
X161352Y102208D01*
X161333Y102091D01*
X161307Y101975D01*
X161308Y101934D01*
X161302Y101894D01*
X161313Y101776D01*
X161317Y101657D01*
X161328Y101618D01*
X161332Y101578D01*
X161372Y101466D01*
X161405Y101351D01*
X161426Y101316D01*
X161439Y101278D01*
X161506Y101180D01*
X161567Y101077D01*
X161607Y101032D01*
X161618Y101015D01*
X161633Y101002D01*
X161673Y100957D01*
X162053Y100577D01*
X162053Y100076D01*
X162068Y99958D01*
X162075Y99839D01*
X162088Y99801D01*
X162093Y99760D01*
X162136Y99650D01*
X162173Y99537D01*
X162195Y99502D01*
X162210Y99465D01*
X162279Y99369D01*
X162343Y99268D01*
X162373Y99240D01*
X162396Y99207D01*
X162488Y99131D01*
X162575Y99050D01*
X162610Y99030D01*
X162641Y99005D01*
X162749Y98954D01*
X162853Y98896D01*
X162893Y98886D01*
X162929Y98869D01*
X163046Y98847D01*
X163161Y98817D01*
X163221Y98813D01*
X163241Y98809D01*
X163262Y98811D01*
X163322Y98807D01*
X165855Y98807D01*
X167641Y97021D01*
X167641Y94495D01*
X165855Y92709D01*
X163329Y92709D01*
X162950Y93089D01*
X162856Y93162D01*
X162766Y93241D01*
X162730Y93259D01*
X162698Y93284D01*
X162589Y93331D01*
X162483Y93385D01*
X162444Y93394D01*
X162406Y93410D01*
X162289Y93429D01*
X162173Y93455D01*
X162132Y93454D01*
X162092Y93460D01*
X161974Y93449D01*
X161855Y93445D01*
X161816Y93434D01*
X161776Y93430D01*
X161664Y93390D01*
X161549Y93357D01*
X161514Y93336D01*
X161476Y93323D01*
X161378Y93256D01*
X161275Y93195D01*
X161230Y93155D01*
X161213Y93144D01*
X161200Y93129D01*
X161155Y93089D01*
X159251Y91185D01*
X156725Y91185D01*
G37*
%LPD*%
%LPC*%
G36*
X137167Y59943D02*
X137167Y59943D01*
X135381Y61729D01*
X135381Y62230D01*
X135366Y62348D01*
X135359Y62467D01*
X135346Y62505D01*
X135341Y62546D01*
X135298Y62656D01*
X135261Y62769D01*
X135239Y62804D01*
X135224Y62841D01*
X135155Y62937D01*
X135091Y63038D01*
X135061Y63066D01*
X135038Y63099D01*
X134946Y63175D01*
X134859Y63256D01*
X134824Y63276D01*
X134793Y63301D01*
X134685Y63352D01*
X134581Y63410D01*
X134541Y63420D01*
X134505Y63437D01*
X134388Y63459D01*
X134273Y63489D01*
X134213Y63493D01*
X134193Y63497D01*
X134172Y63495D01*
X134112Y63499D01*
X133357Y63499D01*
X131571Y65285D01*
X131571Y67811D01*
X133094Y69334D01*
X133167Y69428D01*
X133246Y69517D01*
X133264Y69553D01*
X133289Y69585D01*
X133336Y69694D01*
X133390Y69800D01*
X133399Y69839D01*
X133415Y69877D01*
X133434Y69994D01*
X133460Y70110D01*
X133459Y70151D01*
X133465Y70191D01*
X133454Y70309D01*
X133450Y70428D01*
X133439Y70467D01*
X133435Y70507D01*
X133395Y70619D01*
X133362Y70734D01*
X133341Y70769D01*
X133328Y70807D01*
X133261Y70905D01*
X133200Y71008D01*
X133161Y71053D01*
X133149Y71070D01*
X133134Y71083D01*
X133094Y71129D01*
X131571Y72651D01*
X131571Y73406D01*
X131556Y73524D01*
X131549Y73643D01*
X131536Y73681D01*
X131531Y73722D01*
X131488Y73832D01*
X131451Y73945D01*
X131429Y73980D01*
X131414Y74017D01*
X131345Y74113D01*
X131281Y74214D01*
X131251Y74242D01*
X131228Y74275D01*
X131136Y74351D01*
X131049Y74432D01*
X131014Y74452D01*
X130983Y74477D01*
X130875Y74528D01*
X130771Y74586D01*
X130731Y74596D01*
X130695Y74613D01*
X130578Y74635D01*
X130463Y74665D01*
X130403Y74669D01*
X130383Y74673D01*
X130362Y74671D01*
X130302Y74675D01*
X129547Y74675D01*
X127761Y76461D01*
X127761Y78987D01*
X129547Y80773D01*
X132073Y80773D01*
X133859Y78987D01*
X133859Y78232D01*
X133874Y78114D01*
X133881Y77995D01*
X133894Y77957D01*
X133899Y77916D01*
X133942Y77806D01*
X133979Y77693D01*
X134001Y77658D01*
X134016Y77621D01*
X134085Y77525D01*
X134149Y77424D01*
X134179Y77396D01*
X134202Y77363D01*
X134294Y77287D01*
X134381Y77206D01*
X134416Y77186D01*
X134447Y77161D01*
X134555Y77110D01*
X134659Y77052D01*
X134699Y77042D01*
X134735Y77025D01*
X134852Y77003D01*
X134967Y76973D01*
X135027Y76969D01*
X135047Y76965D01*
X135068Y76967D01*
X135128Y76963D01*
X135883Y76963D01*
X137669Y75177D01*
X137669Y72651D01*
X136146Y71129D01*
X136073Y71034D01*
X135994Y70945D01*
X135976Y70909D01*
X135951Y70877D01*
X135904Y70768D01*
X135850Y70662D01*
X135841Y70623D01*
X135825Y70585D01*
X135806Y70468D01*
X135780Y70352D01*
X135781Y70311D01*
X135775Y70271D01*
X135786Y70153D01*
X135790Y70034D01*
X135801Y69995D01*
X135805Y69955D01*
X135845Y69842D01*
X135878Y69728D01*
X135899Y69694D01*
X135912Y69655D01*
X135979Y69557D01*
X136040Y69454D01*
X136080Y69409D01*
X136091Y69392D01*
X136106Y69379D01*
X136146Y69334D01*
X137669Y67811D01*
X137669Y67310D01*
X137684Y67192D01*
X137691Y67073D01*
X137704Y67035D01*
X137709Y66994D01*
X137752Y66884D01*
X137789Y66771D01*
X137811Y66736D01*
X137826Y66699D01*
X137895Y66603D01*
X137959Y66502D01*
X137989Y66474D01*
X138012Y66441D01*
X138104Y66365D01*
X138191Y66284D01*
X138226Y66264D01*
X138257Y66239D01*
X138365Y66188D01*
X138469Y66130D01*
X138509Y66120D01*
X138545Y66103D01*
X138662Y66081D01*
X138777Y66051D01*
X138837Y66047D01*
X138857Y66043D01*
X138878Y66045D01*
X138938Y66041D01*
X139693Y66041D01*
X141479Y64255D01*
X141479Y61729D01*
X139693Y59943D01*
X137167Y59943D01*
G37*
%LPD*%
%LPC*%
G36*
X47759Y218947D02*
X47759Y218947D01*
X45973Y220733D01*
X45973Y223259D01*
X46099Y223384D01*
X46184Y223494D01*
X46273Y223601D01*
X46281Y223620D01*
X46294Y223636D01*
X46349Y223764D01*
X46408Y223889D01*
X46412Y223909D01*
X46420Y223928D01*
X46442Y224065D01*
X46468Y224202D01*
X46467Y224222D01*
X46470Y224242D01*
X46457Y224381D01*
X46448Y224519D01*
X46442Y224538D01*
X46440Y224558D01*
X46393Y224689D01*
X46350Y224821D01*
X46340Y224839D01*
X46333Y224858D01*
X46255Y224972D01*
X46180Y225090D01*
X46165Y225104D01*
X46154Y225121D01*
X46050Y225213D01*
X45949Y225308D01*
X45931Y225318D01*
X45916Y225331D01*
X45792Y225395D01*
X45670Y225462D01*
X45651Y225467D01*
X45632Y225476D01*
X45496Y225506D01*
X45362Y225541D01*
X45334Y225543D01*
X45322Y225546D01*
X45302Y225545D01*
X45201Y225551D01*
X43187Y225551D01*
X41401Y227337D01*
X41401Y229863D01*
X42550Y231012D01*
X42623Y231106D01*
X42702Y231195D01*
X42720Y231231D01*
X42745Y231263D01*
X42792Y231372D01*
X42846Y231478D01*
X42855Y231517D01*
X42871Y231555D01*
X42890Y231672D01*
X42916Y231788D01*
X42915Y231829D01*
X42921Y231869D01*
X42910Y231987D01*
X42906Y232106D01*
X42895Y232145D01*
X42891Y232185D01*
X42851Y232297D01*
X42818Y232412D01*
X42797Y232447D01*
X42784Y232485D01*
X42717Y232583D01*
X42656Y232686D01*
X42617Y232731D01*
X42605Y232748D01*
X42590Y232761D01*
X42550Y232807D01*
X41669Y233687D01*
X41669Y236213D01*
X43455Y237999D01*
X45981Y237999D01*
X47767Y236213D01*
X47767Y233687D01*
X46618Y232539D01*
X46545Y232444D01*
X46466Y232355D01*
X46448Y232319D01*
X46423Y232287D01*
X46376Y232178D01*
X46322Y232072D01*
X46313Y232033D01*
X46297Y231995D01*
X46278Y231878D01*
X46252Y231762D01*
X46253Y231721D01*
X46247Y231681D01*
X46258Y231563D01*
X46262Y231444D01*
X46273Y231405D01*
X46277Y231365D01*
X46317Y231252D01*
X46350Y231138D01*
X46371Y231104D01*
X46384Y231065D01*
X46451Y230967D01*
X46512Y230864D01*
X46552Y230819D01*
X46563Y230802D01*
X46578Y230789D01*
X46618Y230744D01*
X47499Y229863D01*
X47499Y227337D01*
X47373Y227212D01*
X47288Y227102D01*
X47199Y226995D01*
X47191Y226976D01*
X47178Y226960D01*
X47123Y226832D01*
X47064Y226707D01*
X47060Y226687D01*
X47052Y226668D01*
X47030Y226530D01*
X47004Y226394D01*
X47005Y226374D01*
X47002Y226354D01*
X47015Y226215D01*
X47024Y226077D01*
X47030Y226058D01*
X47032Y226038D01*
X47079Y225907D01*
X47122Y225775D01*
X47132Y225757D01*
X47139Y225738D01*
X47217Y225624D01*
X47292Y225506D01*
X47307Y225492D01*
X47318Y225475D01*
X47422Y225383D01*
X47523Y225288D01*
X47541Y225278D01*
X47556Y225265D01*
X47680Y225201D01*
X47802Y225134D01*
X47821Y225129D01*
X47840Y225120D01*
X47976Y225090D01*
X48110Y225055D01*
X48138Y225053D01*
X48150Y225050D01*
X48170Y225051D01*
X48271Y225045D01*
X50285Y225045D01*
X52071Y223259D01*
X52071Y220733D01*
X50285Y218947D01*
X47759Y218947D01*
G37*
%LPD*%
%LPC*%
G36*
X193555Y151891D02*
X193555Y151891D01*
X191769Y153677D01*
X191769Y156464D01*
X191754Y156582D01*
X191747Y156701D01*
X191734Y156739D01*
X191729Y156780D01*
X191686Y156890D01*
X191649Y157003D01*
X191627Y157038D01*
X191612Y157075D01*
X191543Y157171D01*
X191479Y157272D01*
X191449Y157300D01*
X191426Y157333D01*
X191334Y157409D01*
X191247Y157490D01*
X191212Y157510D01*
X191181Y157535D01*
X191073Y157586D01*
X190969Y157644D01*
X190929Y157654D01*
X190893Y157671D01*
X190776Y157693D01*
X190661Y157723D01*
X190601Y157727D01*
X190581Y157731D01*
X190560Y157729D01*
X190500Y157733D01*
X187459Y157733D01*
X185673Y159519D01*
X185673Y162045D01*
X187459Y163831D01*
X189985Y163831D01*
X190999Y162816D01*
X191086Y162749D01*
X191128Y162709D01*
X191138Y162704D01*
X191183Y162664D01*
X191219Y162646D01*
X191251Y162621D01*
X191360Y162574D01*
X191466Y162520D01*
X191505Y162511D01*
X191543Y162495D01*
X191660Y162476D01*
X191776Y162450D01*
X191817Y162451D01*
X191857Y162445D01*
X191975Y162456D01*
X192094Y162460D01*
X192133Y162471D01*
X192173Y162475D01*
X192286Y162515D01*
X192400Y162548D01*
X192434Y162569D01*
X192473Y162582D01*
X192571Y162649D01*
X192674Y162710D01*
X192719Y162750D01*
X192736Y162761D01*
X192749Y162776D01*
X192794Y162816D01*
X193301Y163323D01*
X195827Y163323D01*
X197613Y161537D01*
X197613Y159011D01*
X197233Y158631D01*
X197160Y158537D01*
X197081Y158448D01*
X197063Y158412D01*
X197038Y158380D01*
X196991Y158271D01*
X196937Y158165D01*
X196928Y158126D01*
X196912Y158088D01*
X196893Y157971D01*
X196867Y157855D01*
X196868Y157814D01*
X196862Y157774D01*
X196873Y157656D01*
X196877Y157537D01*
X196888Y157498D01*
X196892Y157458D01*
X196932Y157346D01*
X196965Y157231D01*
X196986Y157196D01*
X196999Y157158D01*
X197066Y157060D01*
X197127Y156957D01*
X197166Y156912D01*
X197178Y156895D01*
X197193Y156882D01*
X197233Y156836D01*
X197867Y156203D01*
X197867Y153677D01*
X196081Y151891D01*
X193555Y151891D01*
G37*
%LPD*%
%LPC*%
G36*
X148851Y129539D02*
X148851Y129539D01*
X147065Y131325D01*
X147065Y133851D01*
X147445Y134231D01*
X147518Y134325D01*
X147597Y134414D01*
X147615Y134450D01*
X147640Y134482D01*
X147687Y134591D01*
X147741Y134697D01*
X147750Y134736D01*
X147766Y134774D01*
X147785Y134891D01*
X147811Y135007D01*
X147810Y135048D01*
X147816Y135088D01*
X147805Y135206D01*
X147801Y135325D01*
X147790Y135364D01*
X147786Y135404D01*
X147746Y135516D01*
X147713Y135631D01*
X147692Y135666D01*
X147679Y135704D01*
X147612Y135802D01*
X147551Y135905D01*
X147512Y135950D01*
X147500Y135967D01*
X147485Y135980D01*
X147445Y136026D01*
X147065Y136405D01*
X147065Y138684D01*
X147050Y138802D01*
X147043Y138921D01*
X147030Y138959D01*
X147025Y139000D01*
X146982Y139110D01*
X146945Y139223D01*
X146923Y139258D01*
X146908Y139295D01*
X146839Y139391D01*
X146775Y139492D01*
X146745Y139520D01*
X146722Y139553D01*
X146630Y139629D01*
X146543Y139710D01*
X146508Y139730D01*
X146477Y139755D01*
X146369Y139806D01*
X146265Y139864D01*
X146225Y139874D01*
X146189Y139891D01*
X146072Y139913D01*
X145957Y139943D01*
X145897Y139947D01*
X145877Y139951D01*
X145856Y139949D01*
X145796Y139953D01*
X143771Y139953D01*
X141985Y141739D01*
X141985Y144265D01*
X143771Y146051D01*
X146297Y146051D01*
X148083Y144265D01*
X148083Y141986D01*
X148098Y141868D01*
X148105Y141749D01*
X148118Y141711D01*
X148123Y141670D01*
X148166Y141560D01*
X148203Y141447D01*
X148225Y141412D01*
X148240Y141375D01*
X148309Y141279D01*
X148373Y141178D01*
X148403Y141150D01*
X148426Y141117D01*
X148518Y141041D01*
X148605Y140960D01*
X148640Y140940D01*
X148671Y140915D01*
X148779Y140864D01*
X148883Y140806D01*
X148923Y140796D01*
X148959Y140779D01*
X149076Y140757D01*
X149191Y140727D01*
X149251Y140723D01*
X149271Y140719D01*
X149292Y140721D01*
X149352Y140717D01*
X151377Y140717D01*
X153163Y138931D01*
X153163Y136405D01*
X152783Y136026D01*
X152710Y135932D01*
X152631Y135842D01*
X152613Y135806D01*
X152588Y135774D01*
X152541Y135665D01*
X152487Y135559D01*
X152478Y135520D01*
X152462Y135482D01*
X152443Y135365D01*
X152417Y135249D01*
X152418Y135208D01*
X152412Y135168D01*
X152423Y135050D01*
X152427Y134931D01*
X152438Y134892D01*
X152442Y134852D01*
X152482Y134740D01*
X152515Y134625D01*
X152536Y134590D01*
X152549Y134552D01*
X152616Y134454D01*
X152677Y134351D01*
X152717Y134306D01*
X152728Y134289D01*
X152743Y134276D01*
X152783Y134231D01*
X153163Y133851D01*
X153163Y131325D01*
X151377Y129539D01*
X148851Y129539D01*
G37*
%LPD*%
%LPC*%
G36*
X100591Y6349D02*
X100591Y6349D01*
X98805Y8135D01*
X98805Y9906D01*
X98790Y10024D01*
X98783Y10143D01*
X98770Y10181D01*
X98765Y10222D01*
X98722Y10332D01*
X98685Y10445D01*
X98663Y10480D01*
X98648Y10517D01*
X98579Y10613D01*
X98515Y10714D01*
X98485Y10742D01*
X98462Y10775D01*
X98370Y10851D01*
X98283Y10932D01*
X98248Y10952D01*
X98217Y10977D01*
X98109Y11028D01*
X98005Y11086D01*
X97965Y11096D01*
X97929Y11113D01*
X97812Y11135D01*
X97697Y11165D01*
X97637Y11169D01*
X97617Y11173D01*
X97596Y11171D01*
X97536Y11175D01*
X97289Y11175D01*
X95503Y12961D01*
X95503Y15487D01*
X97289Y17273D01*
X99815Y17273D01*
X101601Y15487D01*
X101601Y13716D01*
X101616Y13598D01*
X101623Y13479D01*
X101636Y13441D01*
X101641Y13400D01*
X101685Y13289D01*
X101721Y13177D01*
X101743Y13142D01*
X101758Y13105D01*
X101827Y13009D01*
X101891Y12908D01*
X101921Y12880D01*
X101944Y12847D01*
X102036Y12771D01*
X102123Y12690D01*
X102158Y12670D01*
X102189Y12645D01*
X102297Y12594D01*
X102401Y12536D01*
X102441Y12526D01*
X102477Y12509D01*
X102594Y12487D01*
X102709Y12457D01*
X102769Y12453D01*
X102789Y12449D01*
X102810Y12451D01*
X102870Y12447D01*
X103117Y12447D01*
X103523Y12041D01*
X103617Y11968D01*
X103706Y11889D01*
X103742Y11871D01*
X103774Y11846D01*
X103883Y11799D01*
X103989Y11744D01*
X104029Y11736D01*
X104066Y11720D01*
X104184Y11701D01*
X104300Y11675D01*
X104340Y11676D01*
X104380Y11670D01*
X104499Y11681D01*
X104617Y11684D01*
X104656Y11696D01*
X104697Y11699D01*
X104809Y11740D01*
X104923Y11773D01*
X104958Y11793D01*
X104996Y11807D01*
X105094Y11874D01*
X105197Y11934D01*
X105242Y11974D01*
X105259Y11986D01*
X105272Y12001D01*
X105318Y12041D01*
X106087Y12810D01*
X108613Y12810D01*
X110399Y11024D01*
X110399Y8499D01*
X108613Y6713D01*
X106087Y6713D01*
X105681Y7119D01*
X105587Y7192D01*
X105498Y7270D01*
X105462Y7289D01*
X105430Y7314D01*
X105321Y7361D01*
X105215Y7415D01*
X105175Y7424D01*
X105138Y7440D01*
X105020Y7459D01*
X104904Y7485D01*
X104864Y7484D01*
X104824Y7490D01*
X104705Y7479D01*
X104587Y7475D01*
X104548Y7464D01*
X104507Y7460D01*
X104395Y7420D01*
X104281Y7387D01*
X104246Y7366D01*
X104208Y7352D01*
X104110Y7286D01*
X104007Y7225D01*
X103962Y7185D01*
X103945Y7174D01*
X103931Y7158D01*
X103886Y7119D01*
X103117Y6349D01*
X100591Y6349D01*
G37*
%LPD*%
%LPC*%
G36*
X146057Y73913D02*
X146057Y73913D01*
X144271Y75699D01*
X144271Y78225D01*
X146057Y80011D01*
X148583Y80011D01*
X148836Y79758D01*
X148930Y79685D01*
X149019Y79606D01*
X149055Y79588D01*
X149087Y79563D01*
X149196Y79516D01*
X149302Y79462D01*
X149341Y79453D01*
X149379Y79437D01*
X149496Y79418D01*
X149612Y79392D01*
X149653Y79393D01*
X149693Y79387D01*
X149811Y79398D01*
X149930Y79402D01*
X149969Y79413D01*
X150009Y79417D01*
X150121Y79457D01*
X150236Y79490D01*
X150271Y79511D01*
X150309Y79524D01*
X150407Y79591D01*
X150510Y79652D01*
X150555Y79691D01*
X150572Y79703D01*
X150585Y79718D01*
X150631Y79758D01*
X151137Y80265D01*
X153663Y80265D01*
X154042Y79885D01*
X154136Y79812D01*
X154226Y79733D01*
X154262Y79715D01*
X154294Y79690D01*
X154403Y79643D01*
X154509Y79589D01*
X154548Y79580D01*
X154586Y79564D01*
X154703Y79545D01*
X154819Y79519D01*
X154860Y79520D01*
X154900Y79514D01*
X155018Y79525D01*
X155137Y79529D01*
X155176Y79540D01*
X155216Y79544D01*
X155328Y79584D01*
X155443Y79617D01*
X155478Y79638D01*
X155516Y79651D01*
X155614Y79718D01*
X155717Y79779D01*
X155762Y79819D01*
X155779Y79830D01*
X155792Y79845D01*
X155837Y79885D01*
X156217Y80265D01*
X158743Y80265D01*
X160529Y78479D01*
X160529Y75953D01*
X158743Y74167D01*
X156217Y74167D01*
X155837Y74547D01*
X155748Y74616D01*
X155718Y74645D01*
X155711Y74649D01*
X155654Y74699D01*
X155618Y74717D01*
X155586Y74742D01*
X155477Y74789D01*
X155371Y74843D01*
X155332Y74852D01*
X155294Y74868D01*
X155177Y74887D01*
X155061Y74913D01*
X155020Y74912D01*
X154980Y74918D01*
X154862Y74907D01*
X154743Y74903D01*
X154704Y74892D01*
X154664Y74888D01*
X154552Y74848D01*
X154437Y74815D01*
X154402Y74794D01*
X154364Y74781D01*
X154266Y74714D01*
X154163Y74653D01*
X154118Y74614D01*
X154101Y74602D01*
X154088Y74587D01*
X154042Y74547D01*
X153663Y74167D01*
X151137Y74167D01*
X150885Y74420D01*
X150790Y74493D01*
X150701Y74572D01*
X150665Y74590D01*
X150633Y74615D01*
X150524Y74662D01*
X150418Y74716D01*
X150379Y74725D01*
X150341Y74741D01*
X150224Y74760D01*
X150108Y74786D01*
X150067Y74785D01*
X150027Y74791D01*
X149909Y74780D01*
X149790Y74776D01*
X149751Y74765D01*
X149711Y74761D01*
X149599Y74721D01*
X149484Y74688D01*
X149449Y74667D01*
X149411Y74654D01*
X149313Y74587D01*
X149210Y74526D01*
X149165Y74486D01*
X149148Y74475D01*
X149135Y74460D01*
X149090Y74420D01*
X148583Y73913D01*
X146057Y73913D01*
G37*
%LPD*%
%LPC*%
G36*
X56395Y52069D02*
X56395Y52069D01*
X54609Y53855D01*
X54609Y55118D01*
X54594Y55236D01*
X54587Y55355D01*
X54574Y55393D01*
X54569Y55434D01*
X54526Y55544D01*
X54489Y55657D01*
X54467Y55692D01*
X54452Y55729D01*
X54383Y55825D01*
X54319Y55926D01*
X54289Y55954D01*
X54266Y55987D01*
X54174Y56063D01*
X54087Y56144D01*
X54052Y56164D01*
X54021Y56189D01*
X53913Y56240D01*
X53809Y56298D01*
X53769Y56308D01*
X53733Y56325D01*
X53616Y56347D01*
X53501Y56377D01*
X53441Y56381D01*
X53421Y56385D01*
X53400Y56383D01*
X53340Y56387D01*
X51823Y56387D01*
X50037Y58173D01*
X50037Y60699D01*
X51126Y61788D01*
X51187Y61866D01*
X51255Y61938D01*
X51284Y61991D01*
X51321Y62039D01*
X51360Y62130D01*
X51408Y62216D01*
X51423Y62275D01*
X51447Y62331D01*
X51463Y62429D01*
X51488Y62524D01*
X51494Y62624D01*
X51497Y62645D01*
X51496Y62657D01*
X51498Y62685D01*
X51498Y62980D01*
X52512Y63994D01*
X52582Y64014D01*
X52634Y64045D01*
X52691Y64067D01*
X52771Y64125D01*
X52856Y64176D01*
X52931Y64242D01*
X52948Y64254D01*
X52956Y64263D01*
X52977Y64282D01*
X53558Y64863D01*
X55662Y64863D01*
X57151Y63374D01*
X57151Y61270D01*
X56506Y60625D01*
X56446Y60547D01*
X56378Y60475D01*
X56349Y60422D01*
X56312Y60374D01*
X56272Y60283D01*
X56224Y60196D01*
X56209Y60138D01*
X56185Y60082D01*
X56170Y59984D01*
X56145Y59889D01*
X56139Y59788D01*
X56135Y59768D01*
X56137Y59756D01*
X56135Y59728D01*
X56135Y59436D01*
X56150Y59318D01*
X56157Y59199D01*
X56170Y59161D01*
X56175Y59120D01*
X56218Y59010D01*
X56255Y58897D01*
X56277Y58862D01*
X56292Y58825D01*
X56361Y58729D01*
X56425Y58628D01*
X56455Y58600D01*
X56478Y58567D01*
X56570Y58491D01*
X56657Y58410D01*
X56692Y58390D01*
X56723Y58365D01*
X56831Y58314D01*
X56935Y58256D01*
X56975Y58246D01*
X57011Y58229D01*
X57128Y58207D01*
X57243Y58177D01*
X57303Y58173D01*
X57323Y58169D01*
X57344Y58171D01*
X57404Y58167D01*
X58921Y58167D01*
X60707Y56381D01*
X60707Y53855D01*
X58921Y52069D01*
X56395Y52069D01*
G37*
%LPD*%
%LPC*%
G36*
X68079Y228091D02*
X68079Y228091D01*
X65922Y230249D01*
X65828Y230322D01*
X65738Y230401D01*
X65720Y230410D01*
X65705Y230423D01*
X65686Y230432D01*
X65670Y230444D01*
X65562Y230491D01*
X65455Y230545D01*
X65435Y230550D01*
X65417Y230558D01*
X65397Y230562D01*
X65378Y230570D01*
X65262Y230589D01*
X65145Y230615D01*
X65124Y230614D01*
X65105Y230618D01*
X65084Y230617D01*
X65064Y230620D01*
X64947Y230609D01*
X64827Y230605D01*
X64807Y230600D01*
X64787Y230598D01*
X64768Y230592D01*
X64748Y230590D01*
X64636Y230550D01*
X64521Y230517D01*
X64504Y230507D01*
X64485Y230500D01*
X64467Y230489D01*
X64448Y230483D01*
X64350Y230416D01*
X64247Y230355D01*
X64226Y230337D01*
X64216Y230330D01*
X64202Y230315D01*
X64185Y230304D01*
X64172Y230289D01*
X64127Y230249D01*
X62223Y228345D01*
X59697Y228345D01*
X57911Y230131D01*
X57911Y232657D01*
X59697Y234443D01*
X62223Y234443D01*
X64380Y232285D01*
X64474Y232212D01*
X64564Y232133D01*
X64582Y232124D01*
X64597Y232111D01*
X64616Y232102D01*
X64632Y232090D01*
X64740Y232043D01*
X64847Y231989D01*
X64867Y231984D01*
X64885Y231976D01*
X64905Y231972D01*
X64924Y231964D01*
X65040Y231945D01*
X65157Y231919D01*
X65178Y231920D01*
X65197Y231916D01*
X65218Y231917D01*
X65238Y231914D01*
X65355Y231925D01*
X65475Y231929D01*
X65495Y231934D01*
X65515Y231936D01*
X65534Y231942D01*
X65554Y231944D01*
X65666Y231984D01*
X65781Y232017D01*
X65798Y232027D01*
X65817Y232034D01*
X65835Y232045D01*
X65854Y232051D01*
X65952Y232118D01*
X66055Y232179D01*
X66076Y232197D01*
X66086Y232204D01*
X66100Y232219D01*
X66117Y232230D01*
X66130Y232245D01*
X66175Y232285D01*
X68079Y234189D01*
X70605Y234189D01*
X72391Y232403D01*
X72391Y229877D01*
X70605Y228091D01*
X68079Y228091D01*
G37*
%LPD*%
%LPC*%
G36*
X134627Y223773D02*
X134627Y223773D01*
X132841Y225559D01*
X132841Y228085D01*
X134627Y229871D01*
X137153Y229871D01*
X138675Y228348D01*
X138770Y228275D01*
X138859Y228196D01*
X138895Y228178D01*
X138927Y228153D01*
X139036Y228106D01*
X139142Y228052D01*
X139181Y228043D01*
X139219Y228027D01*
X139336Y228008D01*
X139452Y227982D01*
X139493Y227983D01*
X139533Y227977D01*
X139651Y227988D01*
X139770Y227992D01*
X139809Y228003D01*
X139849Y228007D01*
X139962Y228047D01*
X140076Y228080D01*
X140110Y228101D01*
X140149Y228114D01*
X140247Y228181D01*
X140350Y228242D01*
X140395Y228282D01*
X140412Y228293D01*
X140425Y228308D01*
X140470Y228348D01*
X142501Y230379D01*
X145027Y230379D01*
X146813Y228593D01*
X146813Y226067D01*
X145027Y224281D01*
X142501Y224281D01*
X140978Y225804D01*
X140884Y225877D01*
X140795Y225956D01*
X140759Y225974D01*
X140727Y225999D01*
X140618Y226046D01*
X140512Y226100D01*
X140473Y226109D01*
X140435Y226125D01*
X140318Y226144D01*
X140202Y226170D01*
X140161Y226169D01*
X140121Y226175D01*
X140003Y226164D01*
X139884Y226160D01*
X139845Y226149D01*
X139805Y226145D01*
X139693Y226105D01*
X139578Y226072D01*
X139543Y226051D01*
X139505Y226038D01*
X139407Y225971D01*
X139304Y225910D01*
X139259Y225871D01*
X139242Y225859D01*
X139229Y225844D01*
X139183Y225804D01*
X137153Y223773D01*
X134627Y223773D01*
G37*
%LPD*%
%LPC*%
G36*
X33218Y110997D02*
X33218Y110997D01*
X31432Y112783D01*
X31432Y115309D01*
X33218Y117095D01*
X35743Y117095D01*
X37044Y115794D01*
X37138Y115721D01*
X37227Y115643D01*
X37263Y115624D01*
X37295Y115599D01*
X37405Y115552D01*
X37510Y115498D01*
X37550Y115489D01*
X37587Y115473D01*
X37705Y115454D01*
X37821Y115428D01*
X37861Y115430D01*
X37901Y115423D01*
X38020Y115434D01*
X38139Y115438D01*
X38177Y115449D01*
X38218Y115453D01*
X38330Y115493D01*
X38444Y115526D01*
X38479Y115547D01*
X38517Y115561D01*
X38616Y115628D01*
X38718Y115688D01*
X38763Y115728D01*
X38780Y115739D01*
X38794Y115754D01*
X38839Y115794D01*
X40647Y117603D01*
X43173Y117603D01*
X44959Y115817D01*
X44959Y113291D01*
X43173Y111505D01*
X40647Y111505D01*
X39347Y112806D01*
X39253Y112879D01*
X39163Y112957D01*
X39127Y112976D01*
X39095Y113001D01*
X38986Y113048D01*
X38880Y113102D01*
X38841Y113111D01*
X38804Y113127D01*
X38686Y113146D01*
X38570Y113172D01*
X38530Y113170D01*
X38490Y113177D01*
X38371Y113166D01*
X38252Y113162D01*
X38213Y113151D01*
X38173Y113147D01*
X38061Y113107D01*
X37947Y113074D01*
X37912Y113053D01*
X37874Y113039D01*
X37775Y112973D01*
X37673Y112912D01*
X37627Y112872D01*
X37611Y112861D01*
X37597Y112846D01*
X37552Y112806D01*
X35743Y110997D01*
X33218Y110997D01*
G37*
%LPD*%
%LPC*%
G36*
X193301Y173989D02*
X193301Y173989D01*
X191515Y175775D01*
X191515Y178301D01*
X193038Y179824D01*
X193111Y179918D01*
X193190Y180007D01*
X193208Y180043D01*
X193233Y180075D01*
X193280Y180184D01*
X193334Y180290D01*
X193343Y180329D01*
X193359Y180367D01*
X193378Y180484D01*
X193404Y180600D01*
X193403Y180641D01*
X193409Y180681D01*
X193398Y180799D01*
X193394Y180918D01*
X193383Y180957D01*
X193379Y180997D01*
X193339Y181109D01*
X193306Y181224D01*
X193285Y181259D01*
X193272Y181297D01*
X193205Y181395D01*
X193144Y181498D01*
X193105Y181543D01*
X193093Y181560D01*
X193078Y181573D01*
X193038Y181619D01*
X191515Y183141D01*
X191515Y185667D01*
X193301Y187453D01*
X195827Y187453D01*
X197613Y185667D01*
X197613Y183141D01*
X196090Y181619D01*
X196017Y181524D01*
X195938Y181435D01*
X195920Y181399D01*
X195895Y181367D01*
X195848Y181258D01*
X195794Y181152D01*
X195785Y181113D01*
X195769Y181075D01*
X195750Y180958D01*
X195724Y180842D01*
X195725Y180801D01*
X195719Y180761D01*
X195730Y180643D01*
X195734Y180524D01*
X195745Y180485D01*
X195749Y180445D01*
X195789Y180332D01*
X195822Y180218D01*
X195843Y180184D01*
X195856Y180145D01*
X195923Y180047D01*
X195984Y179944D01*
X196024Y179899D01*
X196035Y179882D01*
X196050Y179869D01*
X196090Y179824D01*
X197613Y178301D01*
X197613Y175775D01*
X195827Y173989D01*
X193301Y173989D01*
G37*
%LPD*%
%LPC*%
G36*
X58935Y82041D02*
X58935Y82041D01*
X57149Y83827D01*
X57149Y86353D01*
X58948Y88152D01*
X58964Y88154D01*
X59083Y88161D01*
X59122Y88174D01*
X59162Y88179D01*
X59273Y88222D01*
X59386Y88259D01*
X59420Y88281D01*
X59457Y88296D01*
X59554Y88365D01*
X59654Y88429D01*
X59682Y88459D01*
X59715Y88482D01*
X59791Y88574D01*
X59872Y88661D01*
X59892Y88696D01*
X59918Y88727D01*
X59968Y88835D01*
X60026Y88939D01*
X60036Y88979D01*
X60053Y89015D01*
X60076Y89132D01*
X60105Y89247D01*
X60109Y89307D01*
X60113Y89327D01*
X60112Y89348D01*
X60116Y89408D01*
X60116Y92113D01*
X61901Y93899D01*
X64427Y93899D01*
X66213Y92113D01*
X66213Y89587D01*
X64414Y87789D01*
X64398Y87787D01*
X64279Y87779D01*
X64241Y87767D01*
X64200Y87762D01*
X64090Y87718D01*
X63977Y87681D01*
X63942Y87660D01*
X63905Y87645D01*
X63809Y87575D01*
X63708Y87511D01*
X63680Y87482D01*
X63647Y87458D01*
X63571Y87366D01*
X63490Y87279D01*
X63470Y87244D01*
X63445Y87213D01*
X63394Y87105D01*
X63336Y87001D01*
X63326Y86962D01*
X63309Y86925D01*
X63287Y86808D01*
X63257Y86693D01*
X63253Y86633D01*
X63249Y86613D01*
X63251Y86592D01*
X63247Y86532D01*
X63247Y83827D01*
X61461Y82041D01*
X58935Y82041D01*
G37*
%LPD*%
%LPC*%
G36*
X153931Y225805D02*
X153931Y225805D01*
X152145Y227591D01*
X152145Y229202D01*
X152130Y229320D01*
X152123Y229438D01*
X152110Y229477D01*
X152105Y229517D01*
X152062Y229628D01*
X152025Y229741D01*
X152003Y229775D01*
X151988Y229813D01*
X151919Y229909D01*
X151855Y230010D01*
X151825Y230037D01*
X151802Y230070D01*
X151710Y230146D01*
X151623Y230228D01*
X151588Y230247D01*
X151557Y230273D01*
X151449Y230324D01*
X151345Y230381D01*
X151305Y230391D01*
X151269Y230408D01*
X151152Y230431D01*
X151037Y230461D01*
X150977Y230464D01*
X150957Y230468D01*
X150936Y230467D01*
X150876Y230471D01*
X149107Y230471D01*
X147321Y232257D01*
X147321Y234782D01*
X149107Y236568D01*
X151633Y236568D01*
X153419Y234782D01*
X153419Y233172D01*
X153434Y233054D01*
X153441Y232935D01*
X153454Y232897D01*
X153459Y232856D01*
X153502Y232746D01*
X153539Y232633D01*
X153561Y232598D01*
X153576Y232561D01*
X153646Y232465D01*
X153709Y232364D01*
X153739Y232336D01*
X153762Y232303D01*
X153854Y232227D01*
X153941Y232146D01*
X153976Y232126D01*
X154007Y232101D01*
X154115Y232050D01*
X154219Y231992D01*
X154259Y231982D01*
X154295Y231965D01*
X154412Y231943D01*
X154527Y231913D01*
X154588Y231909D01*
X154608Y231905D01*
X154628Y231907D01*
X154688Y231903D01*
X156457Y231903D01*
X158243Y230117D01*
X158243Y227591D01*
X156457Y225805D01*
X153931Y225805D01*
G37*
%LPD*%
%LPC*%
G36*
X170187Y219201D02*
X170187Y219201D01*
X169173Y220216D01*
X169078Y220289D01*
X168989Y220368D01*
X168953Y220386D01*
X168921Y220411D01*
X168812Y220458D01*
X168706Y220512D01*
X168667Y220521D01*
X168629Y220537D01*
X168512Y220556D01*
X168396Y220582D01*
X168355Y220581D01*
X168315Y220587D01*
X168197Y220576D01*
X168078Y220572D01*
X168039Y220561D01*
X167999Y220557D01*
X167886Y220517D01*
X167772Y220484D01*
X167738Y220463D01*
X167699Y220450D01*
X167601Y220383D01*
X167498Y220322D01*
X167453Y220282D01*
X167436Y220271D01*
X167423Y220256D01*
X167378Y220216D01*
X166443Y219282D01*
X163917Y219282D01*
X162132Y221067D01*
X162132Y223593D01*
X163917Y225379D01*
X166443Y225379D01*
X167458Y224364D01*
X167552Y224291D01*
X167641Y224213D01*
X167677Y224194D01*
X167709Y224169D01*
X167819Y224122D01*
X167924Y224068D01*
X167964Y224059D01*
X168001Y224043D01*
X168119Y224024D01*
X168235Y223998D01*
X168275Y224000D01*
X168315Y223993D01*
X168434Y224004D01*
X168553Y224008D01*
X168591Y224019D01*
X168632Y224023D01*
X168744Y224063D01*
X168858Y224096D01*
X168893Y224117D01*
X168931Y224131D01*
X169030Y224198D01*
X169132Y224258D01*
X169177Y224298D01*
X169194Y224309D01*
X169208Y224324D01*
X169253Y224364D01*
X170307Y225419D01*
X172593Y225419D01*
X174499Y223513D01*
X174499Y220987D01*
X172713Y219201D01*
X170187Y219201D01*
G37*
%LPD*%
%LPC*%
G36*
X43187Y9651D02*
X43187Y9651D01*
X41401Y11437D01*
X41401Y13963D01*
X42416Y14977D01*
X42489Y15072D01*
X42568Y15161D01*
X42586Y15197D01*
X42611Y15229D01*
X42658Y15338D01*
X42712Y15444D01*
X42721Y15483D01*
X42737Y15521D01*
X42756Y15638D01*
X42782Y15754D01*
X42781Y15795D01*
X42787Y15835D01*
X42776Y15953D01*
X42772Y16072D01*
X42761Y16111D01*
X42757Y16151D01*
X42717Y16264D01*
X42684Y16378D01*
X42663Y16412D01*
X42650Y16451D01*
X42583Y16549D01*
X42522Y16652D01*
X42482Y16697D01*
X42471Y16714D01*
X42456Y16727D01*
X42416Y16772D01*
X41401Y17787D01*
X41401Y20313D01*
X43187Y22099D01*
X45713Y22099D01*
X47499Y20313D01*
X47499Y17787D01*
X46484Y16772D01*
X46411Y16678D01*
X46332Y16589D01*
X46314Y16553D01*
X46289Y16521D01*
X46242Y16412D01*
X46188Y16306D01*
X46179Y16267D01*
X46163Y16229D01*
X46144Y16112D01*
X46118Y15996D01*
X46119Y15955D01*
X46113Y15915D01*
X46124Y15797D01*
X46128Y15678D01*
X46139Y15639D01*
X46143Y15599D01*
X46183Y15487D01*
X46216Y15372D01*
X46237Y15337D01*
X46250Y15299D01*
X46317Y15201D01*
X46378Y15098D01*
X46417Y15053D01*
X46429Y15036D01*
X46444Y15023D01*
X46484Y14977D01*
X47499Y13963D01*
X47499Y11437D01*
X45713Y9651D01*
X43187Y9651D01*
G37*
%LPD*%
%LPC*%
G36*
X222486Y108521D02*
X222486Y108521D01*
X220701Y110307D01*
X220701Y111725D01*
X220683Y111862D01*
X220682Y111879D01*
X220678Y111933D01*
X220676Y111941D01*
X220670Y112001D01*
X220663Y112020D01*
X220661Y112040D01*
X220610Y112169D01*
X220562Y112300D01*
X220551Y112317D01*
X220544Y112336D01*
X220462Y112448D01*
X220384Y112564D01*
X220369Y112577D01*
X220357Y112593D01*
X220250Y112682D01*
X220145Y112774D01*
X220127Y112783D01*
X220112Y112796D01*
X219986Y112855D01*
X219862Y112919D01*
X219842Y112923D01*
X219824Y112932D01*
X219688Y112958D01*
X219552Y112988D01*
X219532Y112988D01*
X219512Y112991D01*
X219373Y112983D01*
X219234Y112979D01*
X219214Y112973D01*
X219194Y112972D01*
X219062Y112929D01*
X218929Y112890D01*
X218911Y112880D01*
X218892Y112874D01*
X218774Y112799D01*
X218655Y112729D01*
X218634Y112710D01*
X218623Y112703D01*
X218609Y112688D01*
X218534Y112622D01*
X217163Y111251D01*
X214637Y111251D01*
X212851Y113037D01*
X212851Y115563D01*
X214637Y117349D01*
X217163Y117349D01*
X218949Y115563D01*
X218949Y114145D01*
X218966Y114007D01*
X218979Y113868D01*
X218986Y113849D01*
X218989Y113829D01*
X219040Y113700D01*
X219087Y113569D01*
X219098Y113552D01*
X219106Y113534D01*
X219187Y113421D01*
X219265Y113306D01*
X219281Y113293D01*
X219292Y113276D01*
X219400Y113187D01*
X219504Y113096D01*
X219522Y113086D01*
X219537Y113073D01*
X219663Y113014D01*
X219787Y112951D01*
X219807Y112946D01*
X219825Y112938D01*
X219962Y112912D01*
X220097Y112881D01*
X220118Y112882D01*
X220137Y112878D01*
X220276Y112887D01*
X220415Y112891D01*
X220435Y112897D01*
X220455Y112898D01*
X220587Y112941D01*
X220721Y112979D01*
X220738Y112990D01*
X220757Y112996D01*
X220875Y113070D01*
X220995Y113141D01*
X221016Y113159D01*
X221026Y113166D01*
X221040Y113181D01*
X221115Y113247D01*
X222486Y114618D01*
X225012Y114618D01*
X226798Y112832D01*
X226798Y110307D01*
X225012Y108521D01*
X222486Y108521D01*
G37*
%LPD*%
%LPC*%
G36*
X105925Y88137D02*
X105925Y88137D01*
X104139Y89923D01*
X104139Y92449D01*
X105281Y93591D01*
X105354Y93685D01*
X105433Y93774D01*
X105451Y93810D01*
X105476Y93842D01*
X105523Y93951D01*
X105577Y94057D01*
X105586Y94096D01*
X105602Y94134D01*
X105621Y94251D01*
X105647Y94367D01*
X105646Y94408D01*
X105652Y94448D01*
X105641Y94566D01*
X105637Y94685D01*
X105626Y94724D01*
X105622Y94764D01*
X105582Y94876D01*
X105549Y94991D01*
X105528Y95026D01*
X105515Y95064D01*
X105448Y95162D01*
X105387Y95265D01*
X105348Y95310D01*
X105336Y95327D01*
X105321Y95340D01*
X105281Y95386D01*
X104901Y95765D01*
X104901Y98291D01*
X106687Y100077D01*
X109213Y100077D01*
X110999Y98291D01*
X110999Y95765D01*
X109857Y94624D01*
X109784Y94529D01*
X109705Y94440D01*
X109687Y94404D01*
X109662Y94372D01*
X109615Y94263D01*
X109561Y94157D01*
X109552Y94118D01*
X109536Y94080D01*
X109517Y93963D01*
X109491Y93847D01*
X109492Y93806D01*
X109486Y93766D01*
X109497Y93648D01*
X109501Y93529D01*
X109512Y93490D01*
X109516Y93450D01*
X109556Y93337D01*
X109589Y93223D01*
X109610Y93189D01*
X109623Y93150D01*
X109690Y93052D01*
X109751Y92949D01*
X109791Y92904D01*
X109802Y92887D01*
X109817Y92874D01*
X109857Y92829D01*
X110237Y92449D01*
X110237Y89923D01*
X108451Y88137D01*
X105925Y88137D01*
G37*
%LPD*%
%LPC*%
G36*
X123451Y223773D02*
X123451Y223773D01*
X121665Y225559D01*
X121665Y228085D01*
X122299Y228718D01*
X122372Y228812D01*
X122451Y228902D01*
X122469Y228938D01*
X122494Y228970D01*
X122541Y229079D01*
X122595Y229185D01*
X122604Y229224D01*
X122620Y229262D01*
X122639Y229379D01*
X122665Y229495D01*
X122664Y229536D01*
X122670Y229576D01*
X122659Y229694D01*
X122655Y229813D01*
X122644Y229852D01*
X122640Y229892D01*
X122600Y230005D01*
X122567Y230119D01*
X122546Y230153D01*
X122533Y230192D01*
X122466Y230290D01*
X122405Y230393D01*
X122365Y230438D01*
X122354Y230455D01*
X122339Y230468D01*
X122299Y230513D01*
X121665Y231147D01*
X121665Y233673D01*
X123451Y235459D01*
X125977Y235459D01*
X127763Y233673D01*
X127763Y231147D01*
X127129Y230513D01*
X127056Y230419D01*
X126977Y230330D01*
X126959Y230294D01*
X126934Y230262D01*
X126887Y230153D01*
X126833Y230047D01*
X126824Y230008D01*
X126808Y229970D01*
X126789Y229853D01*
X126763Y229737D01*
X126764Y229696D01*
X126758Y229656D01*
X126769Y229538D01*
X126773Y229419D01*
X126784Y229380D01*
X126788Y229340D01*
X126828Y229228D01*
X126861Y229113D01*
X126882Y229078D01*
X126895Y229040D01*
X126962Y228942D01*
X127023Y228839D01*
X127062Y228794D01*
X127074Y228777D01*
X127089Y228764D01*
X127129Y228718D01*
X127763Y228085D01*
X127763Y225559D01*
X125977Y223773D01*
X123451Y223773D01*
G37*
%LPD*%
%LPC*%
G36*
X159265Y202437D02*
X159265Y202437D01*
X157479Y204223D01*
X157479Y206999D01*
X157467Y207098D01*
X157464Y207197D01*
X157447Y207255D01*
X157439Y207315D01*
X157403Y207407D01*
X157375Y207502D01*
X157345Y207554D01*
X157322Y207611D01*
X157264Y207691D01*
X157214Y207776D01*
X157148Y207851D01*
X157136Y207868D01*
X157126Y207876D01*
X157108Y207897D01*
X155701Y209303D01*
X155701Y211829D01*
X157487Y213615D01*
X160013Y213615D01*
X161799Y211829D01*
X161799Y209053D01*
X161811Y208954D01*
X161814Y208855D01*
X161831Y208797D01*
X161839Y208737D01*
X161875Y208645D01*
X161903Y208550D01*
X161933Y208498D01*
X161956Y208441D01*
X162014Y208361D01*
X162064Y208276D01*
X162130Y208201D01*
X162142Y208184D01*
X162152Y208176D01*
X162170Y208155D01*
X163577Y206749D01*
X163577Y204223D01*
X161791Y202437D01*
X159265Y202437D01*
G37*
%LPD*%
%LPC*%
G36*
X77477Y84073D02*
X77477Y84073D01*
X75691Y85859D01*
X75691Y88385D01*
X77477Y90171D01*
X77978Y90171D01*
X78096Y90186D01*
X78215Y90193D01*
X78253Y90206D01*
X78294Y90211D01*
X78404Y90254D01*
X78517Y90291D01*
X78552Y90313D01*
X78589Y90328D01*
X78685Y90397D01*
X78786Y90461D01*
X78814Y90491D01*
X78847Y90514D01*
X78923Y90606D01*
X79004Y90693D01*
X79024Y90728D01*
X79049Y90759D01*
X79100Y90867D01*
X79158Y90971D01*
X79168Y91011D01*
X79185Y91047D01*
X79207Y91164D01*
X79237Y91279D01*
X79241Y91339D01*
X79245Y91359D01*
X79243Y91380D01*
X79247Y91440D01*
X79247Y92449D01*
X81033Y94235D01*
X83559Y94235D01*
X85345Y92449D01*
X85345Y89923D01*
X83559Y88137D01*
X83058Y88137D01*
X82940Y88122D01*
X82821Y88115D01*
X82783Y88102D01*
X82742Y88097D01*
X82632Y88054D01*
X82519Y88017D01*
X82484Y87995D01*
X82447Y87980D01*
X82351Y87911D01*
X82250Y87847D01*
X82222Y87817D01*
X82189Y87794D01*
X82113Y87702D01*
X82032Y87615D01*
X82012Y87580D01*
X81987Y87549D01*
X81936Y87441D01*
X81878Y87337D01*
X81868Y87297D01*
X81851Y87261D01*
X81829Y87144D01*
X81799Y87029D01*
X81795Y86969D01*
X81791Y86949D01*
X81793Y86928D01*
X81789Y86868D01*
X81789Y85859D01*
X80003Y84073D01*
X77477Y84073D01*
G37*
%LPD*%
%LPC*%
G36*
X162059Y24383D02*
X162059Y24383D01*
X160273Y26169D01*
X160273Y26670D01*
X160258Y26788D01*
X160251Y26907D01*
X160238Y26945D01*
X160233Y26986D01*
X160190Y27096D01*
X160153Y27209D01*
X160131Y27244D01*
X160116Y27281D01*
X160047Y27377D01*
X159983Y27478D01*
X159953Y27506D01*
X159930Y27539D01*
X159838Y27615D01*
X159751Y27696D01*
X159716Y27716D01*
X159685Y27741D01*
X159577Y27792D01*
X159473Y27850D01*
X159433Y27860D01*
X159397Y27877D01*
X159280Y27899D01*
X159165Y27929D01*
X159105Y27933D01*
X159085Y27937D01*
X159064Y27935D01*
X159004Y27939D01*
X157995Y27939D01*
X156209Y29725D01*
X156209Y32251D01*
X157995Y34037D01*
X160521Y34037D01*
X162307Y32251D01*
X162307Y31750D01*
X162322Y31632D01*
X162329Y31513D01*
X162342Y31475D01*
X162347Y31434D01*
X162390Y31324D01*
X162427Y31211D01*
X162449Y31176D01*
X162464Y31139D01*
X162533Y31043D01*
X162597Y30942D01*
X162627Y30914D01*
X162650Y30881D01*
X162742Y30805D01*
X162829Y30724D01*
X162864Y30704D01*
X162895Y30679D01*
X163003Y30628D01*
X163107Y30570D01*
X163147Y30560D01*
X163183Y30543D01*
X163300Y30521D01*
X163415Y30491D01*
X163475Y30487D01*
X163495Y30483D01*
X163516Y30485D01*
X163576Y30481D01*
X164585Y30481D01*
X166371Y28695D01*
X166371Y26169D01*
X164585Y24383D01*
X162059Y24383D01*
G37*
%LPD*%
%LPC*%
G36*
X213367Y96710D02*
X213367Y96710D01*
X211581Y98496D01*
X211581Y101021D01*
X211961Y101401D01*
X212034Y101495D01*
X212113Y101584D01*
X212131Y101620D01*
X212156Y101652D01*
X212203Y101762D01*
X212257Y101868D01*
X212266Y101907D01*
X212282Y101944D01*
X212301Y102062D01*
X212327Y102178D01*
X212326Y102218D01*
X212332Y102258D01*
X212321Y102377D01*
X212317Y102496D01*
X212306Y102535D01*
X212302Y102575D01*
X212262Y102687D01*
X212229Y102801D01*
X212208Y102836D01*
X212195Y102874D01*
X212128Y102972D01*
X212067Y103075D01*
X212027Y103120D01*
X212016Y103137D01*
X212001Y103151D01*
X211961Y103196D01*
X211327Y103830D01*
X211327Y106355D01*
X213113Y108141D01*
X215639Y108141D01*
X217425Y106355D01*
X217425Y103830D01*
X217045Y103450D01*
X216972Y103356D01*
X216893Y103267D01*
X216875Y103231D01*
X216850Y103199D01*
X216803Y103089D01*
X216749Y102983D01*
X216740Y102944D01*
X216724Y102907D01*
X216705Y102789D01*
X216679Y102673D01*
X216680Y102633D01*
X216674Y102593D01*
X216685Y102474D01*
X216689Y102355D01*
X216700Y102316D01*
X216704Y102276D01*
X216744Y102164D01*
X216777Y102050D01*
X216798Y102015D01*
X216811Y101977D01*
X216878Y101878D01*
X216939Y101776D01*
X216978Y101731D01*
X216990Y101714D01*
X217005Y101700D01*
X217045Y101655D01*
X217679Y101021D01*
X217679Y98496D01*
X215893Y96710D01*
X213367Y96710D01*
G37*
%LPD*%
%LPC*%
G36*
X61475Y101345D02*
X61475Y101345D01*
X59689Y103131D01*
X59689Y105788D01*
X59730Y105868D01*
X59739Y105907D01*
X59755Y105944D01*
X59774Y106062D01*
X59800Y106178D01*
X59799Y106219D01*
X59805Y106259D01*
X59794Y106377D01*
X59790Y106496D01*
X59779Y106535D01*
X59775Y106575D01*
X59735Y106687D01*
X59702Y106802D01*
X59681Y106836D01*
X59668Y106874D01*
X59601Y106973D01*
X59540Y107076D01*
X59501Y107121D01*
X59489Y107138D01*
X59474Y107151D01*
X59434Y107196D01*
X58419Y108211D01*
X58419Y110737D01*
X60205Y112523D01*
X62731Y112523D01*
X64517Y110737D01*
X64517Y108080D01*
X64476Y108000D01*
X64467Y107961D01*
X64451Y107923D01*
X64432Y107806D01*
X64406Y107690D01*
X64407Y107649D01*
X64401Y107609D01*
X64412Y107491D01*
X64416Y107372D01*
X64427Y107333D01*
X64431Y107293D01*
X64471Y107181D01*
X64504Y107066D01*
X64525Y107031D01*
X64538Y106993D01*
X64605Y106895D01*
X64666Y106792D01*
X64705Y106747D01*
X64717Y106730D01*
X64732Y106717D01*
X64772Y106671D01*
X65787Y105657D01*
X65787Y103131D01*
X64001Y101345D01*
X61475Y101345D01*
G37*
%LPD*%
%LPC*%
G36*
X113037Y166877D02*
X113037Y166877D01*
X111251Y168663D01*
X111251Y169672D01*
X111236Y169790D01*
X111229Y169909D01*
X111216Y169947D01*
X111211Y169988D01*
X111168Y170098D01*
X111131Y170211D01*
X111109Y170246D01*
X111094Y170283D01*
X111025Y170379D01*
X110961Y170480D01*
X110931Y170508D01*
X110908Y170541D01*
X110816Y170617D01*
X110729Y170698D01*
X110694Y170718D01*
X110663Y170743D01*
X110555Y170794D01*
X110451Y170852D01*
X110411Y170862D01*
X110375Y170879D01*
X110258Y170901D01*
X110143Y170931D01*
X110083Y170935D01*
X110063Y170939D01*
X110042Y170937D01*
X109982Y170941D01*
X109735Y170941D01*
X107949Y172727D01*
X107949Y175253D01*
X109735Y177039D01*
X112261Y177039D01*
X114047Y175253D01*
X114047Y174244D01*
X114062Y174126D01*
X114069Y174007D01*
X114082Y173969D01*
X114087Y173928D01*
X114130Y173818D01*
X114167Y173705D01*
X114189Y173670D01*
X114204Y173633D01*
X114273Y173537D01*
X114337Y173436D01*
X114367Y173408D01*
X114390Y173375D01*
X114482Y173299D01*
X114569Y173218D01*
X114604Y173198D01*
X114635Y173173D01*
X114743Y173122D01*
X114847Y173064D01*
X114887Y173054D01*
X114923Y173037D01*
X115040Y173015D01*
X115155Y172985D01*
X115215Y172981D01*
X115235Y172977D01*
X115256Y172979D01*
X115316Y172975D01*
X115563Y172975D01*
X117349Y171189D01*
X117349Y168663D01*
X115563Y166877D01*
X113037Y166877D01*
G37*
%LPD*%
%LPC*%
G36*
X74556Y189229D02*
X74556Y189229D01*
X72648Y191138D01*
X72569Y191199D01*
X72497Y191266D01*
X72444Y191296D01*
X72396Y191333D01*
X72305Y191372D01*
X72219Y191420D01*
X72160Y191435D01*
X72104Y191459D01*
X72006Y191475D01*
X71911Y191499D01*
X71811Y191506D01*
X71790Y191509D01*
X71778Y191508D01*
X71750Y191510D01*
X69863Y191510D01*
X68077Y193296D01*
X68077Y195821D01*
X69863Y197607D01*
X72388Y197607D01*
X74297Y195698D01*
X74375Y195638D01*
X74447Y195570D01*
X74500Y195541D01*
X74548Y195504D01*
X74639Y195464D01*
X74726Y195416D01*
X74785Y195401D01*
X74840Y195377D01*
X74938Y195362D01*
X75034Y195337D01*
X75134Y195331D01*
X75154Y195327D01*
X75167Y195329D01*
X75195Y195327D01*
X77082Y195327D01*
X78868Y193541D01*
X78868Y191015D01*
X77082Y189229D01*
X74556Y189229D01*
G37*
%LPD*%
%LPC*%
G36*
X117864Y23655D02*
X117864Y23655D01*
X117743Y23722D01*
X117723Y23727D01*
X117705Y23736D01*
X117569Y23767D01*
X117435Y23802D01*
X117407Y23803D01*
X117395Y23806D01*
X117374Y23805D01*
X117274Y23812D01*
X114824Y23812D01*
X113038Y25598D01*
X113038Y26162D01*
X113023Y26280D01*
X113016Y26399D01*
X113003Y26437D01*
X112998Y26478D01*
X112954Y26588D01*
X112918Y26701D01*
X112896Y26736D01*
X112881Y26773D01*
X112811Y26869D01*
X112748Y26970D01*
X112718Y26998D01*
X112694Y27031D01*
X112603Y27107D01*
X112516Y27188D01*
X112480Y27208D01*
X112449Y27233D01*
X112342Y27284D01*
X112237Y27342D01*
X112198Y27352D01*
X112162Y27369D01*
X112045Y27391D01*
X111929Y27421D01*
X111869Y27425D01*
X111849Y27429D01*
X111829Y27427D01*
X111769Y27431D01*
X111259Y27431D01*
X109473Y29217D01*
X109473Y31743D01*
X111259Y33529D01*
X113785Y33529D01*
X115571Y31743D01*
X115571Y31178D01*
X115586Y31060D01*
X115593Y30942D01*
X115606Y30903D01*
X115611Y30863D01*
X115654Y30752D01*
X115691Y30639D01*
X115713Y30605D01*
X115728Y30567D01*
X115797Y30471D01*
X115861Y30370D01*
X115891Y30343D01*
X115914Y30310D01*
X116006Y30234D01*
X116093Y30152D01*
X116128Y30133D01*
X116159Y30107D01*
X116267Y30056D01*
X116371Y29999D01*
X116411Y29989D01*
X116447Y29972D01*
X116564Y29949D01*
X116679Y29919D01*
X116739Y29916D01*
X116759Y29912D01*
X116780Y29913D01*
X116840Y29909D01*
X117350Y29909D01*
X119135Y28123D01*
X119135Y25598D01*
X118311Y24773D01*
X118227Y24664D01*
X118137Y24557D01*
X118129Y24538D01*
X118116Y24522D01*
X118061Y24394D01*
X118002Y24269D01*
X117998Y24249D01*
X117990Y24230D01*
X117968Y24092D01*
X117942Y23956D01*
X117943Y23936D01*
X117940Y23916D01*
X117953Y23777D01*
X117962Y23639D01*
X117968Y23620D01*
X117970Y23601D01*
X117864Y23655D01*
G37*
%LPD*%
%LPC*%
G36*
X193301Y137159D02*
X193301Y137159D01*
X191515Y138945D01*
X191515Y141471D01*
X192022Y141978D01*
X192095Y142072D01*
X192174Y142161D01*
X192192Y142197D01*
X192217Y142229D01*
X192264Y142338D01*
X192318Y142444D01*
X192327Y142483D01*
X192343Y142521D01*
X192362Y142638D01*
X192388Y142754D01*
X192387Y142795D01*
X192393Y142835D01*
X192382Y142954D01*
X192378Y143072D01*
X192367Y143111D01*
X192363Y143151D01*
X192323Y143264D01*
X192290Y143378D01*
X192269Y143413D01*
X192256Y143451D01*
X192189Y143549D01*
X192128Y143652D01*
X192089Y143697D01*
X192077Y143714D01*
X192062Y143727D01*
X192022Y143773D01*
X191769Y144025D01*
X191769Y146551D01*
X193555Y148337D01*
X196081Y148337D01*
X197867Y146551D01*
X197867Y144025D01*
X197360Y143519D01*
X197287Y143425D01*
X197208Y143335D01*
X197190Y143299D01*
X197165Y143267D01*
X197118Y143158D01*
X197064Y143052D01*
X197055Y143013D01*
X197039Y142975D01*
X197020Y142858D01*
X196994Y142742D01*
X196995Y142701D01*
X196989Y142661D01*
X197000Y142543D01*
X197004Y142424D01*
X197015Y142385D01*
X197019Y142345D01*
X197059Y142233D01*
X197092Y142118D01*
X197113Y142083D01*
X197126Y142045D01*
X197193Y141947D01*
X197254Y141844D01*
X197294Y141799D01*
X197305Y141782D01*
X197320Y141769D01*
X197360Y141724D01*
X197613Y141471D01*
X197613Y138945D01*
X195827Y137159D01*
X193301Y137159D01*
G37*
%LPD*%
%LPC*%
G36*
X51823Y20319D02*
X51823Y20319D01*
X50037Y22105D01*
X50037Y22520D01*
X50022Y22639D01*
X50015Y22757D01*
X50002Y22796D01*
X49997Y22836D01*
X49954Y22947D01*
X49917Y23060D01*
X49895Y23094D01*
X49880Y23132D01*
X49811Y23228D01*
X49747Y23329D01*
X49717Y23356D01*
X49694Y23389D01*
X49602Y23465D01*
X49515Y23547D01*
X49480Y23566D01*
X49449Y23592D01*
X49341Y23643D01*
X49237Y23700D01*
X49197Y23710D01*
X49161Y23727D01*
X49044Y23750D01*
X48929Y23779D01*
X48869Y23783D01*
X48849Y23787D01*
X48828Y23786D01*
X48768Y23790D01*
X48109Y23790D01*
X46323Y25576D01*
X46323Y28101D01*
X48109Y29887D01*
X50635Y29887D01*
X52421Y28101D01*
X52421Y27686D01*
X52436Y27568D01*
X52443Y27449D01*
X52456Y27411D01*
X52461Y27370D01*
X52505Y27260D01*
X52541Y27147D01*
X52563Y27112D01*
X52578Y27075D01*
X52648Y26979D01*
X52711Y26878D01*
X52741Y26850D01*
X52765Y26817D01*
X52856Y26741D01*
X52943Y26660D01*
X52978Y26640D01*
X53010Y26615D01*
X53117Y26564D01*
X53222Y26506D01*
X53261Y26496D01*
X53297Y26479D01*
X53414Y26457D01*
X53529Y26427D01*
X53590Y26423D01*
X53610Y26419D01*
X53630Y26421D01*
X53690Y26417D01*
X54349Y26417D01*
X56135Y24631D01*
X56135Y22105D01*
X54349Y20319D01*
X51823Y20319D01*
G37*
%LPD*%
%LPC*%
G36*
X208287Y159384D02*
X208287Y159384D01*
X206501Y161170D01*
X206501Y163696D01*
X208287Y165482D01*
X210813Y165482D01*
X211192Y165102D01*
X211286Y165029D01*
X211376Y164950D01*
X211412Y164932D01*
X211444Y164907D01*
X211553Y164860D01*
X211659Y164806D01*
X211698Y164797D01*
X211736Y164781D01*
X211853Y164762D01*
X211969Y164736D01*
X212010Y164737D01*
X212050Y164731D01*
X212168Y164742D01*
X212287Y164746D01*
X212326Y164757D01*
X212366Y164761D01*
X212478Y164801D01*
X212593Y164834D01*
X212628Y164855D01*
X212666Y164868D01*
X212764Y164935D01*
X212867Y164996D01*
X212912Y165036D01*
X212929Y165047D01*
X212942Y165062D01*
X212987Y165102D01*
X213367Y165482D01*
X215893Y165482D01*
X217679Y163696D01*
X217679Y161170D01*
X215893Y159384D01*
X213367Y159384D01*
X212987Y159764D01*
X212893Y159837D01*
X212804Y159916D01*
X212768Y159934D01*
X212736Y159959D01*
X212627Y160006D01*
X212521Y160060D01*
X212482Y160069D01*
X212444Y160085D01*
X212327Y160104D01*
X212211Y160130D01*
X212170Y160129D01*
X212130Y160135D01*
X212012Y160124D01*
X211893Y160120D01*
X211854Y160109D01*
X211814Y160105D01*
X211702Y160065D01*
X211587Y160032D01*
X211552Y160011D01*
X211514Y159998D01*
X211416Y159931D01*
X211313Y159870D01*
X211268Y159831D01*
X211251Y159819D01*
X211238Y159804D01*
X211192Y159764D01*
X210813Y159384D01*
X208287Y159384D01*
G37*
%LPD*%
%LPC*%
G36*
X137167Y33019D02*
X137167Y33019D01*
X135381Y34805D01*
X135381Y37331D01*
X137167Y39117D01*
X139693Y39117D01*
X140073Y38737D01*
X140167Y38664D01*
X140256Y38585D01*
X140292Y38567D01*
X140324Y38542D01*
X140433Y38495D01*
X140539Y38441D01*
X140578Y38432D01*
X140616Y38416D01*
X140733Y38397D01*
X140849Y38371D01*
X140890Y38372D01*
X140930Y38366D01*
X141048Y38377D01*
X141167Y38381D01*
X141206Y38392D01*
X141246Y38396D01*
X141358Y38436D01*
X141473Y38469D01*
X141508Y38490D01*
X141546Y38503D01*
X141644Y38570D01*
X141747Y38631D01*
X141792Y38670D01*
X141809Y38682D01*
X141822Y38697D01*
X141868Y38737D01*
X142247Y39117D01*
X144773Y39117D01*
X146559Y37331D01*
X146559Y34805D01*
X144773Y33019D01*
X142247Y33019D01*
X141868Y33399D01*
X141774Y33472D01*
X141684Y33551D01*
X141648Y33569D01*
X141616Y33594D01*
X141507Y33641D01*
X141401Y33695D01*
X141362Y33704D01*
X141324Y33720D01*
X141207Y33739D01*
X141091Y33765D01*
X141050Y33764D01*
X141010Y33770D01*
X140892Y33759D01*
X140773Y33755D01*
X140734Y33744D01*
X140694Y33740D01*
X140582Y33700D01*
X140467Y33667D01*
X140432Y33646D01*
X140394Y33633D01*
X140296Y33566D01*
X140193Y33505D01*
X140148Y33465D01*
X140131Y33454D01*
X140118Y33439D01*
X140073Y33399D01*
X139693Y33019D01*
X137167Y33019D01*
G37*
%LPD*%
%LPC*%
G36*
X229115Y149605D02*
X229115Y149605D01*
X227312Y151408D01*
X227307Y151493D01*
X227294Y151531D01*
X227289Y151572D01*
X227246Y151682D01*
X227209Y151795D01*
X227187Y151830D01*
X227172Y151867D01*
X227103Y151963D01*
X227039Y152064D01*
X227009Y152092D01*
X226986Y152125D01*
X226894Y152201D01*
X226807Y152282D01*
X226772Y152302D01*
X226741Y152327D01*
X226633Y152378D01*
X226529Y152436D01*
X226489Y152446D01*
X226453Y152463D01*
X226336Y152485D01*
X226221Y152515D01*
X226161Y152519D01*
X226141Y152523D01*
X226120Y152521D01*
X226060Y152525D01*
X224282Y152525D01*
X222793Y154014D01*
X222793Y156118D01*
X224282Y157607D01*
X226386Y157607D01*
X226904Y157089D01*
X226982Y157029D01*
X227054Y156961D01*
X227107Y156932D01*
X227155Y156895D01*
X227246Y156855D01*
X227333Y156807D01*
X227391Y156792D01*
X227447Y156768D01*
X227545Y156753D01*
X227640Y156728D01*
X227741Y156722D01*
X227761Y156718D01*
X227773Y156720D01*
X227801Y156718D01*
X228650Y156718D01*
X229293Y156074D01*
X229372Y156014D01*
X229444Y155946D01*
X229497Y155917D01*
X229545Y155880D01*
X229636Y155840D01*
X229722Y155792D01*
X229781Y155777D01*
X229837Y155753D01*
X229935Y155738D01*
X230030Y155713D01*
X230130Y155707D01*
X230151Y155703D01*
X230163Y155705D01*
X230191Y155703D01*
X231641Y155703D01*
X233427Y153917D01*
X233427Y151391D01*
X231641Y149605D01*
X229115Y149605D01*
G37*
%LPD*%
%LPC*%
G36*
X177890Y230407D02*
X177890Y230407D01*
X177627Y230670D01*
X177536Y230740D01*
X177512Y230763D01*
X177507Y230765D01*
X177443Y230821D01*
X177407Y230840D01*
X177375Y230865D01*
X177266Y230912D01*
X177160Y230966D01*
X177121Y230975D01*
X177084Y230991D01*
X176966Y231010D01*
X176850Y231036D01*
X176810Y231034D01*
X176770Y231041D01*
X176651Y231030D01*
X176532Y231026D01*
X176493Y231015D01*
X176453Y231011D01*
X176341Y230971D01*
X176226Y230938D01*
X176192Y230917D01*
X176154Y230903D01*
X176055Y230837D01*
X175953Y230776D01*
X175907Y230736D01*
X175890Y230725D01*
X175877Y230710D01*
X175832Y230670D01*
X175633Y230471D01*
X173107Y230471D01*
X171321Y232257D01*
X171321Y234782D01*
X173107Y236568D01*
X175633Y236568D01*
X176404Y235797D01*
X176498Y235724D01*
X176587Y235645D01*
X176623Y235627D01*
X176655Y235602D01*
X176764Y235555D01*
X176871Y235501D01*
X176910Y235492D01*
X176947Y235476D01*
X177065Y235457D01*
X177181Y235431D01*
X177221Y235433D01*
X177261Y235426D01*
X177380Y235437D01*
X177499Y235441D01*
X177537Y235452D01*
X177578Y235456D01*
X177667Y235488D01*
X179994Y235488D01*
X181483Y234000D01*
X181483Y231895D01*
X179994Y230407D01*
X177890Y230407D01*
G37*
%LPD*%
%LPC*%
G36*
X240248Y82295D02*
X240248Y82295D01*
X238759Y83784D01*
X238759Y86040D01*
X238779Y86078D01*
X238787Y86117D01*
X238803Y86154D01*
X238822Y86271D01*
X238848Y86388D01*
X238847Y86429D01*
X238853Y86468D01*
X238842Y86587D01*
X238838Y86706D01*
X238827Y86745D01*
X238824Y86785D01*
X238783Y86897D01*
X238750Y87012D01*
X238730Y87046D01*
X238716Y87084D01*
X238649Y87183D01*
X238589Y87285D01*
X238549Y87331D01*
X238537Y87347D01*
X238522Y87361D01*
X238482Y87406D01*
X238251Y87637D01*
X238251Y90163D01*
X240037Y91949D01*
X242563Y91949D01*
X244349Y90163D01*
X244349Y87637D01*
X244118Y87406D01*
X244045Y87312D01*
X243966Y87223D01*
X243948Y87187D01*
X243923Y87155D01*
X243876Y87046D01*
X243821Y86940D01*
X243813Y86900D01*
X243797Y86863D01*
X243778Y86745D01*
X243752Y86629D01*
X243753Y86589D01*
X243747Y86549D01*
X243758Y86430D01*
X243762Y86311D01*
X243773Y86273D01*
X243777Y86232D01*
X243817Y86121D01*
X243841Y86038D01*
X243841Y83784D01*
X242352Y82295D01*
X240248Y82295D01*
G37*
%LPD*%
%LPC*%
G36*
X240128Y98460D02*
X240128Y98460D01*
X238342Y100246D01*
X238342Y102772D01*
X240128Y104558D01*
X240321Y104558D01*
X240419Y104570D01*
X240518Y104573D01*
X240576Y104590D01*
X240636Y104598D01*
X240728Y104634D01*
X240823Y104662D01*
X240876Y104692D01*
X240932Y104715D01*
X241012Y104773D01*
X241097Y104823D01*
X241153Y104872D01*
X243265Y104872D01*
X244754Y103384D01*
X244754Y101262D01*
X244751Y101258D01*
X244683Y101186D01*
X244654Y101133D01*
X244616Y101085D01*
X244577Y100994D01*
X244529Y100908D01*
X244514Y100849D01*
X244490Y100793D01*
X244475Y100695D01*
X244450Y100600D01*
X244443Y100500D01*
X244440Y100479D01*
X244441Y100467D01*
X244440Y100439D01*
X244440Y100246D01*
X242654Y98460D01*
X240128Y98460D01*
G37*
%LPD*%
%LPC*%
G36*
X134158Y212738D02*
X134158Y212738D01*
X134143Y212752D01*
X134132Y212769D01*
X134028Y212861D01*
X133927Y212956D01*
X133909Y212966D01*
X133894Y212979D01*
X133770Y213043D01*
X133648Y213110D01*
X133629Y213115D01*
X133610Y213124D01*
X133475Y213154D01*
X133340Y213189D01*
X133312Y213191D01*
X133300Y213194D01*
X133280Y213193D01*
X133179Y213199D01*
X132087Y213199D01*
X130301Y214985D01*
X130301Y217511D01*
X132087Y219297D01*
X134613Y219297D01*
X136399Y217511D01*
X136399Y214985D01*
X134401Y212987D01*
X134316Y212878D01*
X134227Y212771D01*
X134219Y212752D01*
X134206Y212736D01*
X134187Y212692D01*
X134158Y212738D01*
G37*
%LPD*%
%LPC*%
G36*
X133865Y204723D02*
X133865Y204723D01*
X132079Y206509D01*
X132079Y209035D01*
X134077Y211033D01*
X134162Y211142D01*
X134251Y211249D01*
X134259Y211268D01*
X134272Y211284D01*
X134291Y211328D01*
X134320Y211282D01*
X134335Y211268D01*
X134346Y211251D01*
X134450Y211159D01*
X134551Y211064D01*
X134569Y211054D01*
X134584Y211041D01*
X134708Y210977D01*
X134830Y210910D01*
X134849Y210905D01*
X134868Y210896D01*
X135003Y210866D01*
X135138Y210831D01*
X135166Y210829D01*
X135178Y210826D01*
X135198Y210827D01*
X135299Y210821D01*
X136391Y210821D01*
X138177Y209035D01*
X138177Y206509D01*
X136391Y204723D01*
X133865Y204723D01*
G37*
%LPD*%
%LPC*%
G36*
X172157Y135440D02*
X172157Y135440D01*
X172153Y135579D01*
X172147Y135599D01*
X172146Y135619D01*
X172103Y135751D01*
X172064Y135885D01*
X172054Y135902D01*
X172048Y135921D01*
X171974Y136039D01*
X171903Y136159D01*
X171884Y136180D01*
X171878Y136190D01*
X171863Y136204D01*
X171796Y136279D01*
X170909Y137167D01*
X170909Y139693D01*
X172695Y141479D01*
X175220Y141479D01*
X177006Y139693D01*
X177006Y137167D01*
X175220Y135381D01*
X172477Y135381D01*
X172339Y135364D01*
X172200Y135351D01*
X172181Y135344D01*
X172163Y135342D01*
X172157Y135440D01*
G37*
%LPD*%
%LPC*%
G36*
X171711Y117347D02*
X171711Y117347D01*
X169925Y119133D01*
X169925Y121659D01*
X171711Y123445D01*
X174237Y123445D01*
X176023Y121659D01*
X176023Y119133D01*
X174237Y117347D01*
X171711Y117347D01*
G37*
%LPD*%
%LPC*%
G36*
X87510Y120776D02*
X87510Y120776D01*
X85724Y122562D01*
X85724Y125088D01*
X87510Y126874D01*
X90036Y126874D01*
X91822Y125088D01*
X91822Y122562D01*
X90036Y120776D01*
X87510Y120776D01*
G37*
%LPD*%
%LPC*%
G36*
X52839Y122427D02*
X52839Y122427D01*
X51053Y124213D01*
X51053Y126739D01*
X52839Y128525D01*
X55365Y128525D01*
X57151Y126739D01*
X57151Y124213D01*
X55365Y122427D01*
X52839Y122427D01*
G37*
%LPD*%
%LPC*%
G36*
X40719Y102544D02*
X40719Y102544D01*
X38933Y104329D01*
X38933Y106855D01*
X40719Y108641D01*
X43245Y108641D01*
X45030Y106855D01*
X45030Y104329D01*
X43245Y102544D01*
X40719Y102544D01*
G37*
%LPD*%
%LPC*%
G36*
X96400Y125221D02*
X96400Y125221D01*
X94614Y127007D01*
X94614Y129533D01*
X96400Y131319D01*
X98926Y131319D01*
X100712Y129533D01*
X100712Y127007D01*
X98926Y125221D01*
X96400Y125221D01*
G37*
%LPD*%
%LPC*%
G36*
X36837Y130301D02*
X36837Y130301D01*
X35051Y132087D01*
X35051Y134613D01*
X36837Y136399D01*
X39363Y136399D01*
X41149Y134613D01*
X41149Y132087D01*
X39363Y130301D01*
X36837Y130301D01*
G37*
%LPD*%
%LPC*%
G36*
X183903Y144017D02*
X183903Y144017D01*
X182117Y145803D01*
X182117Y148329D01*
X183903Y150115D01*
X186429Y150115D01*
X188215Y148329D01*
X188215Y145803D01*
X186429Y144017D01*
X183903Y144017D01*
G37*
%LPD*%
%LPC*%
G36*
X160027Y146397D02*
X160027Y146397D01*
X158241Y148183D01*
X158241Y150709D01*
X160027Y152495D01*
X162553Y152495D01*
X164339Y150709D01*
X164339Y148183D01*
X162553Y146397D01*
X160027Y146397D01*
G37*
%LPD*%
%LPC*%
G36*
X81287Y98551D02*
X81287Y98551D01*
X79501Y100337D01*
X79501Y102863D01*
X81287Y104649D01*
X83813Y104649D01*
X85599Y102863D01*
X85599Y100337D01*
X83813Y98551D01*
X81287Y98551D01*
G37*
%LPD*%
%LPC*%
G36*
X137675Y149605D02*
X137675Y149605D01*
X135889Y151391D01*
X135889Y153917D01*
X137675Y155703D01*
X140201Y155703D01*
X141987Y153917D01*
X141987Y151391D01*
X140201Y149605D01*
X137675Y149605D01*
G37*
%LPD*%
%LPC*%
G36*
X200794Y93344D02*
X200794Y93344D01*
X199008Y95130D01*
X199008Y97656D01*
X200794Y99442D01*
X203320Y99442D01*
X205106Y97656D01*
X205106Y95130D01*
X203320Y93344D01*
X200794Y93344D01*
G37*
%LPD*%
%LPC*%
G36*
X202627Y151891D02*
X202627Y151891D01*
X200841Y153677D01*
X200841Y156203D01*
X202627Y157989D01*
X205153Y157989D01*
X206939Y156203D01*
X206939Y153677D01*
X205153Y151891D01*
X202627Y151891D01*
G37*
%LPD*%
%LPC*%
G36*
X58427Y154177D02*
X58427Y154177D01*
X56641Y155963D01*
X56641Y158489D01*
X58427Y160275D01*
X60953Y160275D01*
X62739Y158489D01*
X62739Y155963D01*
X60953Y154177D01*
X58427Y154177D01*
G37*
%LPD*%
%LPC*%
G36*
X93479Y156717D02*
X93479Y156717D01*
X91693Y158503D01*
X91693Y161029D01*
X93479Y162815D01*
X96005Y162815D01*
X97791Y161029D01*
X97791Y158503D01*
X96005Y156717D01*
X93479Y156717D01*
G37*
%LPD*%
%LPC*%
G36*
X69603Y168984D02*
X69603Y168984D01*
X67817Y170770D01*
X67817Y173296D01*
X69603Y175082D01*
X72129Y175082D01*
X73915Y173296D01*
X73915Y170770D01*
X72129Y168984D01*
X69603Y168984D01*
G37*
%LPD*%
%LPC*%
G36*
X183649Y177799D02*
X183649Y177799D01*
X181863Y179585D01*
X181863Y182111D01*
X183649Y183897D01*
X186175Y183897D01*
X187961Y182111D01*
X187961Y179585D01*
X186175Y177799D01*
X183649Y177799D01*
G37*
%LPD*%
%LPC*%
G36*
X210821Y79501D02*
X210821Y79501D01*
X209035Y81287D01*
X209035Y83813D01*
X210821Y85599D01*
X213347Y85599D01*
X215133Y83813D01*
X215133Y81287D01*
X213347Y79501D01*
X210821Y79501D01*
G37*
%LPD*%
%LPC*%
G36*
X120657Y76199D02*
X120657Y76199D01*
X118871Y77985D01*
X118871Y80511D01*
X120657Y82297D01*
X123183Y82297D01*
X124969Y80511D01*
X124969Y77985D01*
X123183Y76199D01*
X120657Y76199D01*
G37*
%LPD*%
%LPC*%
G36*
X229877Y181101D02*
X229877Y181101D01*
X228091Y182887D01*
X228091Y185413D01*
X229877Y187199D01*
X232403Y187199D01*
X234189Y185413D01*
X234189Y182887D01*
X232403Y181101D01*
X229877Y181101D01*
G37*
%LPD*%
%LPC*%
G36*
X138437Y193801D02*
X138437Y193801D01*
X136651Y195587D01*
X136651Y198113D01*
X138437Y199899D01*
X140963Y199899D01*
X142749Y198113D01*
X142749Y195587D01*
X140963Y193801D01*
X138437Y193801D01*
G37*
%LPD*%
%LPC*%
G36*
X187459Y194563D02*
X187459Y194563D01*
X185673Y196349D01*
X185673Y198875D01*
X187459Y200661D01*
X189985Y200661D01*
X191771Y198875D01*
X191771Y196349D01*
X189985Y194563D01*
X187459Y194563D01*
G37*
%LPD*%
%LPC*%
G36*
X84335Y73913D02*
X84335Y73913D01*
X82549Y75699D01*
X82549Y78225D01*
X84335Y80011D01*
X86861Y80011D01*
X88647Y78225D01*
X88647Y75699D01*
X86861Y73913D01*
X84335Y73913D01*
G37*
%LPD*%
%LPC*%
G36*
X73667Y67055D02*
X73667Y67055D01*
X71881Y68841D01*
X71881Y71367D01*
X73667Y73153D01*
X76193Y73153D01*
X77979Y71367D01*
X77979Y68841D01*
X76193Y67055D01*
X73667Y67055D01*
G37*
%LPD*%
%LPC*%
G36*
X30487Y65150D02*
X30487Y65150D01*
X28701Y66936D01*
X28701Y69462D01*
X30487Y71248D01*
X33013Y71248D01*
X34799Y69462D01*
X34799Y66936D01*
X33013Y65150D01*
X30487Y65150D01*
G37*
%LPD*%
%LPC*%
G36*
X161805Y64769D02*
X161805Y64769D01*
X160019Y66555D01*
X160019Y69081D01*
X161805Y70867D01*
X164331Y70867D01*
X166117Y69081D01*
X166117Y66555D01*
X164331Y64769D01*
X161805Y64769D01*
G37*
%LPD*%
%LPC*%
G36*
X120791Y196475D02*
X120791Y196475D01*
X119005Y198261D01*
X119005Y200787D01*
X120791Y202573D01*
X123317Y202573D01*
X125103Y200787D01*
X125103Y198261D01*
X123317Y196475D01*
X120791Y196475D01*
G37*
%LPD*%
%LPC*%
G36*
X25153Y57657D02*
X25153Y57657D01*
X23367Y59443D01*
X23367Y61969D01*
X25153Y63755D01*
X27679Y63755D01*
X29465Y61969D01*
X29465Y59443D01*
X27679Y57657D01*
X25153Y57657D01*
G37*
%LPD*%
%LPC*%
G36*
X153931Y50799D02*
X153931Y50799D01*
X152145Y52585D01*
X152145Y55111D01*
X153931Y56897D01*
X156457Y56897D01*
X158243Y55111D01*
X158243Y52585D01*
X156457Y50799D01*
X153931Y50799D01*
G37*
%LPD*%
%LPC*%
G36*
X87637Y41401D02*
X87637Y41401D01*
X85851Y43187D01*
X85851Y45713D01*
X87637Y47499D01*
X90163Y47499D01*
X91949Y45713D01*
X91949Y43187D01*
X90163Y41401D01*
X87637Y41401D01*
G37*
%LPD*%
%LPC*%
G36*
X183395Y36829D02*
X183395Y36829D01*
X181609Y38615D01*
X181609Y41141D01*
X183395Y42927D01*
X185921Y42927D01*
X187707Y41141D01*
X187707Y38615D01*
X185921Y36829D01*
X183395Y36829D01*
G37*
%LPD*%
%LPC*%
G36*
X128531Y35051D02*
X128531Y35051D01*
X126745Y36837D01*
X126745Y39363D01*
X128531Y41149D01*
X131057Y41149D01*
X132843Y39363D01*
X132843Y36837D01*
X131057Y35051D01*
X128531Y35051D01*
G37*
%LPD*%
%LPC*%
G36*
X204612Y34663D02*
X204612Y34663D01*
X202826Y36448D01*
X202826Y38974D01*
X204612Y40760D01*
X207138Y40760D01*
X208923Y38974D01*
X208923Y36448D01*
X207138Y34663D01*
X204612Y34663D01*
G37*
%LPD*%
%LPC*%
G36*
X151645Y197103D02*
X151645Y197103D01*
X149859Y198889D01*
X149859Y201415D01*
X151645Y203201D01*
X154171Y203201D01*
X155957Y201415D01*
X155957Y198889D01*
X154171Y197103D01*
X151645Y197103D01*
G37*
%LPD*%
%LPC*%
G36*
X175521Y207771D02*
X175521Y207771D01*
X173735Y209557D01*
X173735Y212083D01*
X175521Y213869D01*
X178047Y213869D01*
X179833Y212083D01*
X179833Y209557D01*
X178047Y207771D01*
X175521Y207771D01*
G37*
%LPD*%
%LPC*%
G36*
X92844Y212851D02*
X92844Y212851D01*
X91058Y214637D01*
X91058Y217163D01*
X92844Y218949D01*
X95370Y218949D01*
X97156Y217163D01*
X97156Y214637D01*
X95370Y212851D01*
X92844Y212851D01*
G37*
%LPD*%
%LPC*%
G36*
X123451Y214883D02*
X123451Y214883D01*
X121665Y216669D01*
X121665Y219195D01*
X123451Y220981D01*
X125977Y220981D01*
X127763Y219195D01*
X127763Y216669D01*
X125977Y214883D01*
X123451Y214883D01*
G37*
%LPD*%
%LPC*%
G36*
X206437Y22351D02*
X206437Y22351D01*
X204651Y24137D01*
X204651Y26663D01*
X206437Y28449D01*
X208963Y28449D01*
X210749Y26663D01*
X210749Y24137D01*
X208963Y22351D01*
X206437Y22351D01*
G37*
%LPD*%
%LPC*%
G36*
X62237Y219201D02*
X62237Y219201D01*
X60451Y220987D01*
X60451Y223513D01*
X62237Y225299D01*
X64763Y225299D01*
X66549Y223513D01*
X66549Y220987D01*
X64763Y219201D01*
X62237Y219201D01*
G37*
%LPD*%
%LPC*%
G36*
X29653Y18287D02*
X29653Y18287D01*
X27867Y20073D01*
X27867Y22599D01*
X29653Y24385D01*
X32179Y24385D01*
X33965Y22599D01*
X33965Y20073D01*
X32179Y18287D01*
X29653Y18287D01*
G37*
%LPD*%
%LPC*%
G36*
X216415Y223519D02*
X216415Y223519D01*
X214629Y225305D01*
X214629Y227831D01*
X216415Y229617D01*
X218941Y229617D01*
X220727Y227831D01*
X220727Y225305D01*
X218941Y223519D01*
X216415Y223519D01*
G37*
%LPD*%
%LPC*%
G36*
X85859Y12191D02*
X85859Y12191D01*
X84073Y13977D01*
X84073Y16503D01*
X85859Y18289D01*
X88385Y18289D01*
X90171Y16503D01*
X90171Y13977D01*
X88385Y12191D01*
X85859Y12191D01*
G37*
%LPD*%
%LPC*%
G36*
X92971Y224065D02*
X92971Y224065D01*
X91185Y225851D01*
X91185Y228377D01*
X92971Y230163D01*
X95497Y230163D01*
X97283Y228377D01*
X97283Y225851D01*
X95497Y224065D01*
X92971Y224065D01*
G37*
%LPD*%
%LPC*%
G36*
X55887Y9651D02*
X55887Y9651D01*
X54101Y11437D01*
X54101Y13963D01*
X55887Y15749D01*
X58413Y15749D01*
X60199Y13963D01*
X60199Y11437D01*
X58413Y9651D01*
X55887Y9651D01*
G37*
%LPD*%
%LPC*%
G36*
X197365Y9397D02*
X197365Y9397D01*
X195579Y11183D01*
X195579Y13709D01*
X197365Y15495D01*
X199891Y15495D01*
X201677Y13709D01*
X201677Y11183D01*
X199891Y9397D01*
X197365Y9397D01*
G37*
%LPD*%
%LPC*%
G36*
X166087Y6713D02*
X166087Y6713D01*
X164301Y8499D01*
X164301Y11024D01*
X166087Y12810D01*
X168613Y12810D01*
X170399Y11024D01*
X170399Y8499D01*
X168613Y6713D01*
X166087Y6713D01*
G37*
%LPD*%
%LPC*%
G36*
X115831Y6603D02*
X115831Y6603D01*
X114045Y8389D01*
X114045Y10915D01*
X115831Y12701D01*
X118357Y12701D01*
X120143Y10915D01*
X120143Y8389D01*
X118357Y6603D01*
X115831Y6603D01*
G37*
%LPD*%
D10*
X142240Y248158D03*
X59690Y171958D03*
X32512Y157988D03*
D11*
X45720Y157988D01*
X59690Y171958D01*
D10*
X82296Y160528D03*
X100330Y172720D03*
X73152Y141478D03*
X101600Y139700D03*
X43688Y81026D03*
D12*
X69342Y70104D03*
D10*
X209296Y41148D03*
X233934Y56134D03*
X209550Y69850D03*
D11*
X209550Y57150D01*
X209550Y41402D01*
X209296Y41148D01*
X209550Y57150D02*
X222250Y57150D01*
X232918Y57150D01*
X233934Y56134D01*
D10*
X177292Y111324D03*
X171450Y156138D03*
D12*
X223266Y209042D03*
X13208Y35814D03*
X230632Y159004D03*
D10*
X230632Y159004D03*
D12*
X232609Y166751D03*
X212344Y239776D03*
D11*
X212344Y219964D02*
X223266Y209042D01*
X212344Y219964D02*
X212344Y239776D01*
X142240Y248158D02*
X135890Y248158D01*
X109474Y248158D01*
X109220Y247904D01*
X108331Y248793D01*
D12*
X108331Y248793D03*
D11*
X177292Y121720D02*
X177292Y111324D01*
X177292Y121720D02*
X178276Y122704D01*
X178276Y126444D01*
X174752Y152836D02*
X171450Y156138D01*
X174752Y152836D02*
X174752Y145560D01*
X178276Y142036D02*
X178276Y126444D01*
X178276Y142036D02*
X174752Y145560D01*
X82550Y141478D02*
X73152Y141478D01*
X82550Y141478D02*
X99822Y141478D01*
X101600Y139700D01*
X91948Y120131D02*
X92710Y119369D01*
X91948Y120131D02*
X91948Y120893D01*
X92710Y119369D02*
X92710Y105410D01*
X91948Y120893D02*
X93091Y122036D01*
X93091Y131191D02*
X101600Y139700D01*
X93091Y131191D02*
X93091Y122036D01*
D12*
X38100Y72517D03*
D11*
X43688Y78105D01*
X43688Y81026D01*
X82296Y141732D02*
X82296Y160528D01*
X82296Y141732D02*
X82550Y141478D01*
X174592Y130128D02*
X178276Y126444D01*
D12*
X174592Y130128D03*
D11*
X88900Y172720D02*
X81080Y172720D01*
X88900Y172720D02*
X100330Y172720D01*
X64083Y176351D02*
X59690Y171958D01*
X64083Y176351D02*
X66294Y176351D01*
X77449Y176351D01*
X81080Y172720D01*
D10*
X225878Y95250D03*
D11*
X222250Y91622D02*
X222250Y57150D01*
X222250Y91622D02*
X224064Y93436D01*
X225878Y95250D01*
D12*
X183860Y158460D03*
D11*
X181538Y156138D01*
X171450Y156138D01*
D12*
X80137Y205613D03*
D11*
X80137Y181483D02*
X88900Y172720D01*
X80137Y181483D02*
X80137Y184150D01*
D12*
X92710Y105410D03*
D11*
X80137Y184150D02*
X80137Y205613D01*
X183860Y158460D02*
X184404Y159004D01*
X184404Y162571D01*
X204100Y166751D02*
X232609Y166751D01*
X204100Y166751D02*
X201179Y169672D01*
X191505Y169672D02*
X184404Y162571D01*
X191505Y169672D02*
X201179Y169672D01*
X224064Y93436D02*
X227211Y93436D01*
X248335Y114560D01*
D12*
X248335Y114560D03*
D10*
X248335Y114560D03*
D13*
X81280Y171704D02*
X81080Y172720D01*
D12*
X81280Y171704D03*
D10*
X77562Y80074D03*
D11*
X73661Y80074D01*
X71438Y77851D01*
D12*
X71438Y77851D03*
X63500Y31750D03*
X76200Y31750D03*
X69850Y57150D03*
X9652Y64262D03*
X9398Y113030D03*
X6350Y146050D03*
X19050Y203200D03*
X31750Y203200D03*
X247650Y222250D03*
X107950Y185166D03*
X188976Y154686D03*
X189230Y79756D03*
X190754Y63754D03*
X178308Y59944D03*
X159512Y87630D03*
X171196Y28956D03*
X153162Y35052D03*
X216662Y10922D03*
X203962Y90678D03*
X186182Y110744D03*
X119634Y97790D03*
X245872Y67056D03*
X245872Y40894D03*
X213868Y119888D03*
X184404Y187960D03*
X96520Y204216D03*
X55118Y203454D03*
X139446Y231394D03*
X120142Y235712D03*
X207772Y189992D03*
X167386Y195326D03*
X228346Y213360D03*
X8128Y20574D03*
X98044Y103886D03*
X66294Y128778D03*
X58420Y163322D03*
X177800Y69850D03*
X178308Y53594D03*
X150368Y70612D03*
X172466Y83312D03*
X172212Y102616D03*
X86106Y69088D03*
X90678Y27940D03*
X149606Y21082D03*
X150368Y43688D03*
X215900Y63500D03*
X241046Y94996D03*
X238506Y167132D03*
X147320Y209042D03*
X188214Y214630D03*
X164338Y231902D03*
X179832Y241046D03*
X94742Y196088D03*
X54356Y185166D03*
X66294Y157734D03*
X102870Y121666D03*
X161798Y115316D03*
X163322Y78486D03*
X106426Y83312D03*
X68580Y91694D03*
X47244Y113030D03*
X73406Y162814D03*
X88646Y158242D03*
X70358Y199898D03*
X85344Y193802D03*
X76962Y214122D03*
X60706Y240030D03*
X89916Y240030D03*
X116840Y230632D03*
X167132Y167386D03*
X155194Y65024D03*
X112268Y119380D03*
X230124Y92964D03*
X149098Y193802D03*
X145034Y143002D03*
X144526Y165100D03*
X185166Y147066D03*
X30916Y21336D03*
X204724Y135382D03*
X31750Y68199D03*
D10*
X123872Y141895D03*
D12*
X38100Y133350D03*
X123872Y141895D03*
X212084Y82550D03*
X202057Y96393D03*
X215900Y177800D03*
X215900Y184150D03*
X167640Y188468D03*
X114300Y169926D03*
X78740Y87122D03*
X96774Y54610D03*
X130556Y23114D03*
X143510Y36068D03*
X159004Y99314D03*
X169418Y131064D03*
D10*
X174370Y233520D03*
D12*
X174370Y233520D03*
X194564Y140208D03*
D10*
X194564Y140208D03*
X123952Y147193D03*
D12*
X123952Y147193D03*
X41910Y114554D03*
D10*
X178942Y232948D03*
D12*
X194818Y145288D03*
D10*
X194818Y145288D03*
X123698Y152273D03*
D14*
X123952Y152273D01*
D12*
X123952Y152273D03*
X34481Y114046D03*
X213614Y249428D03*
X215646Y210312D03*
X194818Y154940D03*
X138938Y152654D03*
X140716Y177800D03*
X135128Y207772D03*
X124714Y217932D03*
X124714Y226822D03*
X124714Y232410D03*
X166116Y249428D03*
D14*
X166116Y247795D01*
X166224Y247686D01*
D10*
X166224Y247686D03*
D12*
X171473Y249405D03*
X26416Y60706D03*
X107950Y75438D03*
X107350Y9762D03*
X134620Y105556D03*
X134620Y73914D03*
X139350Y9000D03*
X134620Y66548D03*
X139700Y107950D03*
X139700Y95758D03*
X138430Y62992D03*
X138430Y36068D03*
X129794Y159004D03*
X129794Y150114D03*
X127508Y124206D03*
X125476Y19558D03*
X117094Y9652D03*
X102362Y74676D03*
X101854Y9398D03*
X125222Y165100D03*
X110998Y173990D03*
X74930Y70104D03*
X120396Y19558D03*
X128778Y14732D03*
X134112Y9398D03*
X123952Y159766D03*
X112776Y156210D03*
X107188Y133604D03*
X91186Y65532D03*
X98552Y14224D03*
X152400Y9144D03*
X184658Y105156D03*
X205875Y37711D03*
D10*
X75819Y192278D03*
D12*
X75819Y192278D03*
X214630Y99759D03*
D10*
X225334Y155066D03*
D15*
X227966Y155066D01*
X230378Y152654D01*
D12*
X230378Y152654D03*
X189738Y105156D03*
X198628Y12446D03*
D10*
X71617Y194542D03*
D14*
X71142Y194542D01*
X71126Y194558D01*
D12*
X71126Y194558D03*
D10*
X214578Y105156D03*
D15*
X214440Y105156D01*
X214376Y105093D01*
D12*
X214376Y105093D03*
X177800Y95250D03*
D10*
X189738Y105156D03*
D12*
X163322Y27432D03*
X138938Y120396D03*
X147280Y9184D03*
D10*
X129592Y139954D03*
D14*
X129540Y139954D01*
D12*
X129540Y139954D03*
X122428Y136652D03*
X136652Y133350D03*
X125730Y132588D03*
X125730Y9652D03*
X118872Y132080D03*
X121920Y79248D03*
X129540Y115062D03*
X87122Y15240D03*
X122428Y114808D03*
X138176Y113030D03*
X129794Y38100D03*
X130810Y77724D03*
X129286Y109982D03*
X115570Y109982D03*
X116087Y26861D03*
X129540Y104902D03*
X112522Y30480D03*
X159258Y30988D03*
X112586Y79058D03*
X188214Y92710D03*
X187706Y124968D03*
X174752Y197358D03*
X184658Y100076D03*
X178562Y104648D03*
X172720Y190246D03*
X203890Y154940D03*
X199644Y120142D03*
X205994Y120142D03*
X208280Y196088D03*
X194564Y124968D03*
D13*
X191770Y231648D02*
X193802Y233680D01*
D12*
X191770Y231648D03*
X193802Y233680D03*
X200660Y228600D03*
X200660Y217932D03*
X200660Y193802D03*
X207010Y142748D03*
X199644Y125222D03*
D13*
X188214Y223266D02*
X186182Y225298D01*
D12*
X210566Y129794D03*
X208788Y179578D03*
X206756Y214122D03*
X186182Y225298D03*
X188214Y223266D03*
X199644Y130302D03*
X204978Y130048D03*
X194564Y184404D03*
X187706Y130048D03*
X176784Y210820D03*
X183896Y217932D03*
X192532Y226568D03*
X217678Y226568D03*
X147574Y179324D03*
X85598Y76962D03*
X94742Y69342D03*
X94996Y74422D03*
X109982Y107696D03*
X112268Y131826D03*
X116840Y159766D03*
X132588Y177546D03*
X93218Y58420D03*
X82296Y91186D03*
X103886Y157480D03*
X168402Y182626D03*
X159004Y104394D03*
X98552Y78232D03*
X107950Y97028D03*
X115316Y137668D03*
X120396Y155956D03*
X152400Y77216D03*
X150586Y118836D03*
X107188Y91186D03*
X140970Y127508D03*
X155194Y53848D03*
X164592Y95758D03*
X147320Y76962D03*
X148910Y161544D03*
X137160Y173990D03*
X150114Y132588D03*
X157480Y77216D03*
X163068Y67818D03*
X167350Y9762D03*
X184658Y39878D03*
X53086Y23368D03*
X53086Y59436D03*
D14*
X53086Y62322D01*
X54610Y62322D01*
D10*
X54610Y62322D03*
D12*
X194564Y114808D03*
X223749Y111570D03*
X228600Y4572D03*
X215900Y114300D03*
X222250Y4572D03*
X49372Y26838D03*
X60198Y85090D03*
D14*
X60360Y85090D01*
D10*
X60360Y85090D03*
X150370Y233520D03*
D12*
X150370Y233520D03*
X157988Y94234D03*
X158496Y128270D03*
X156210Y163830D03*
X151384Y175768D03*
X152908Y200152D03*
X158750Y210566D03*
X144780Y105410D03*
X135890Y226822D03*
X129032Y184404D03*
X107696Y161290D03*
X114300Y124714D03*
X123698Y120396D03*
X131064Y120396D03*
X143510Y99568D03*
X150114Y137668D03*
X155194Y228854D03*
X149860Y110744D03*
D13*
X159004Y247396D02*
X161036Y249428D01*
D12*
X161036Y249428D03*
X159004Y247396D03*
X154940Y171958D03*
X164084Y162814D03*
X163576Y126746D03*
X59690Y157226D03*
X133350Y216248D03*
D10*
X122054Y199524D03*
D12*
X122054Y199524D03*
X88900Y44450D03*
X57150Y12700D03*
D10*
X165180Y222330D03*
D12*
X165180Y222330D03*
X44450Y19050D03*
X44450Y228600D03*
X61468Y109474D03*
X96012Y246888D03*
D10*
X94107Y215900D03*
D12*
X94107Y215900D03*
X94234Y227114D03*
D10*
X94742Y159766D03*
D12*
X94742Y159766D03*
D11*
X70866Y172466D02*
X70791Y172541D01*
D10*
X70791Y172541D03*
D12*
X70866Y172033D03*
D11*
X70866Y172466D01*
D12*
X41982Y105592D03*
X69342Y231140D03*
X62738Y104394D03*
X63164Y90850D03*
X241300Y88900D03*
D11*
X241300Y84836D01*
D10*
X241300Y84836D03*
D12*
X63500Y222250D03*
D10*
X171450Y222878D03*
D11*
X171450Y222250D01*
D12*
X171450Y222250D03*
X228791Y222250D03*
X49022Y221996D03*
X82550Y101600D03*
X241391Y101509D03*
D14*
X242213Y102331D01*
D10*
X242213Y102331D03*
X60833Y231394D03*
D11*
X60960Y231394D01*
D12*
X60960Y231394D03*
X44718Y234950D03*
X214630Y162433D03*
X211958Y214243D03*
X194564Y160274D03*
X194564Y177038D03*
D10*
X139700Y196746D03*
D14*
X139700Y196850D01*
D12*
X139700Y196850D03*
X143764Y227330D03*
X203708Y186436D03*
X209550Y162433D03*
X188722Y160782D03*
X188722Y197612D03*
X187706Y116840D03*
X206248Y232156D03*
X57658Y55118D03*
X44450Y12700D03*
X207700Y25400D03*
X231140Y184150D03*
X54102Y125476D03*
X88773Y123825D03*
X12954Y126238D03*
X97663Y128270D03*
X161290Y149446D03*
D10*
X161290Y149446D03*
D12*
X172974Y120396D03*
D10*
X172974Y120324D03*
D11*
X172974Y120396D01*
D10*
X160633Y205382D03*
D11*
X160632Y205382D01*
X160528Y205486D01*
D12*
X160528Y205486D03*
X173958Y138430D03*
D10*
X152908Y123626D03*
D11*
X152908Y123698D01*
D12*
X152908Y123698D03*
X183896Y120396D03*
X134620Y128270D03*
X209042Y174244D03*
X184912Y180848D03*
X163322Y180848D03*
M02*
