G04 EAGLE Gerber RS-274X export*
G75*
%MOMM*%
%FSLAX34Y34*%
%LPD*%
%INCopper Layer 14*%
%IPPOS*%
%AMOC8*
5,1,8,0,0,1.08239X$1,22.5*%
G01*
%ADD10C,0.406400*%
%ADD11C,0.254000*%
%ADD12C,0.114300*%
%ADD13C,0.088900*%
%ADD14C,0.127000*%


D10*
X69342Y70104D03*
X223266Y209042D03*
X13208Y35814D03*
X230632Y159004D03*
X232609Y166751D03*
X212344Y239776D03*
X108331Y248793D03*
X38100Y72517D03*
X174592Y130128D03*
X183860Y158460D03*
X80137Y205613D03*
X92710Y105410D03*
X248335Y114560D03*
X71438Y77851D03*
X63500Y31750D03*
X76200Y31750D03*
X69850Y57150D03*
X9652Y64262D03*
X9398Y113030D03*
X6350Y146050D03*
X19050Y203200D03*
X31750Y203200D03*
X247650Y222250D03*
X107950Y185166D03*
X188976Y154686D03*
X189230Y79756D03*
X190754Y63754D03*
X178308Y59944D03*
X159512Y87630D03*
X171196Y28956D03*
X153162Y35052D03*
X216662Y10922D03*
X203962Y90678D03*
X186182Y110744D03*
X119634Y97790D03*
X245872Y67056D03*
X245872Y40894D03*
X213868Y119888D03*
X184404Y187960D03*
X96520Y204216D03*
X55118Y203454D03*
X139446Y231394D03*
X120142Y235712D03*
X207772Y189992D03*
X167386Y195326D03*
X228346Y213360D03*
X8128Y20574D03*
X98044Y103886D03*
X66294Y128778D03*
X58420Y163322D03*
X177800Y69850D03*
X178308Y53594D03*
X150368Y70612D03*
X172466Y83312D03*
X172212Y102616D03*
X86106Y69088D03*
X90678Y27940D03*
X149606Y21082D03*
X150368Y43688D03*
X215900Y63500D03*
X241046Y94996D03*
X238506Y167132D03*
X147320Y209042D03*
X188214Y214630D03*
X164338Y231902D03*
X179832Y241046D03*
X94742Y196088D03*
X54356Y185166D03*
X66294Y157734D03*
X102870Y121666D03*
X161798Y115316D03*
X163322Y78486D03*
X106426Y83312D03*
X68580Y91694D03*
X47244Y113030D03*
X73406Y162814D03*
X88646Y158242D03*
X70358Y199898D03*
X85344Y193802D03*
X76962Y214122D03*
X60706Y240030D03*
X89916Y240030D03*
X116840Y230632D03*
X167132Y167386D03*
X155194Y65024D03*
X112268Y119380D03*
X230124Y92964D03*
X149098Y193802D03*
X145034Y143002D03*
D11*
X145034Y157215D01*
X144526Y157723D01*
X144526Y161301D01*
D10*
X144526Y165100D03*
D11*
X144526Y161301D01*
D10*
X185166Y147066D03*
X30916Y21336D03*
X204724Y135382D03*
X31750Y68199D03*
X38100Y133350D03*
D12*
X29670Y89345D02*
X24946Y84620D01*
X24946Y77940D01*
X31750Y71135D02*
X31750Y68199D01*
X31750Y71135D02*
X24946Y77940D01*
X29670Y89345D02*
X37656Y89345D01*
X38100Y89789D01*
X38100Y133350D01*
D10*
X123872Y141895D03*
X212084Y82550D03*
X202057Y96393D03*
X215900Y177800D03*
X215900Y184150D03*
D13*
X114300Y169926D02*
X106172Y169926D01*
X100330Y164084D01*
X100330Y154432D01*
X76962Y131064D01*
X76962Y99314D01*
X80264Y96012D01*
X80264Y94234D01*
X78740Y92710D01*
X78740Y87122D01*
D10*
X167640Y188468D03*
X114300Y169926D03*
X78740Y87122D03*
X96774Y54610D03*
D13*
X159004Y99314D02*
X162560Y102870D01*
X162560Y105156D01*
X169164Y111760D01*
X169164Y130810D01*
X169418Y131064D01*
D10*
X130556Y23114D03*
X143510Y36068D03*
X159004Y99314D03*
X169418Y131064D03*
X174370Y233520D03*
X194564Y140208D03*
X123952Y147193D03*
X41910Y114554D03*
D13*
X174498Y224282D02*
X174498Y233426D01*
X174498Y224282D02*
X180340Y218440D01*
X180340Y156972D01*
X191262Y146050D01*
X191262Y143510D01*
X194564Y140208D01*
X174498Y233426D02*
X174370Y233520D01*
D10*
X194818Y145288D03*
X123952Y152273D03*
X34481Y114046D03*
D13*
X194818Y154940D02*
X196342Y153416D01*
X196342Y146812D01*
X194818Y145288D01*
D10*
X213614Y249428D03*
X215646Y210312D03*
X194818Y154940D03*
D13*
X140716Y177800D02*
X131064Y187452D01*
X131064Y205994D01*
X132842Y207772D01*
X135128Y207772D01*
X124714Y217932D02*
X124714Y226822D01*
D10*
X138938Y152654D03*
X140716Y177800D03*
X135128Y207772D03*
X124714Y217932D03*
X124714Y226822D03*
X124714Y232410D03*
X166116Y249428D03*
X171473Y249405D03*
X26416Y60706D03*
X107950Y75438D03*
D12*
X107950Y10362D02*
X107350Y9762D01*
D10*
X107350Y9762D03*
D12*
X107950Y10362D02*
X107950Y75438D01*
D10*
X134620Y105556D03*
X134620Y73914D03*
D12*
X134620Y105556D01*
X134620Y66548D02*
X134620Y33274D01*
X139700Y9350D02*
X139350Y9000D01*
D10*
X139350Y9000D03*
D12*
X139700Y28194D02*
X134620Y33274D01*
X139700Y28194D02*
X139700Y9350D01*
D10*
X134620Y66548D03*
X139700Y107950D03*
D13*
X138430Y62992D02*
X136652Y61214D01*
X136652Y37846D01*
X138430Y36068D01*
D10*
X139700Y95758D03*
X138430Y62992D03*
X138430Y36068D03*
D13*
X129794Y150114D02*
X129794Y159004D01*
X127508Y124206D02*
X127508Y118110D01*
X125984Y116586D01*
X125984Y113538D01*
X126238Y113284D01*
X126238Y112014D01*
X125730Y111506D01*
X125730Y67564D01*
X130556Y62738D01*
X130556Y43942D01*
X125476Y38862D01*
X125476Y19558D01*
D10*
X129794Y159004D03*
X129794Y150114D03*
X127508Y124206D03*
X125476Y19558D03*
X117094Y9652D03*
X102362Y74676D03*
D12*
X102362Y12192D01*
X101854Y12192D02*
X101854Y9398D01*
D10*
X101854Y9398D03*
D12*
X101854Y12192D02*
X102362Y12192D01*
D13*
X108966Y171958D02*
X110998Y173990D01*
X108966Y171958D02*
X105410Y171958D01*
X98298Y164846D01*
X98298Y155194D01*
X74930Y131826D01*
X74930Y70104D01*
X120396Y19558D02*
X125222Y14732D01*
X128778Y14732D01*
D10*
X125222Y165100D03*
X110998Y173990D03*
X74930Y70104D03*
X120396Y19558D03*
X128778Y14732D03*
X134112Y9398D03*
D13*
X112776Y153924D02*
X112776Y156210D01*
X112776Y153924D02*
X109728Y150876D01*
X109728Y136144D01*
X107188Y133604D01*
X91186Y65532D02*
X100330Y56388D01*
X100330Y16002D01*
X98552Y14224D01*
D10*
X123952Y159766D03*
X112776Y156210D03*
X107188Y133604D03*
X91186Y65532D03*
X98552Y14224D03*
X152400Y9144D03*
X184658Y105156D03*
X205875Y37711D03*
X75819Y192278D03*
D12*
X20775Y77940D02*
X19050Y76215D01*
X30925Y147384D02*
X75819Y192278D01*
X30925Y147384D02*
X30925Y128740D01*
X20775Y118590D01*
X20775Y77940D01*
X19050Y5334D02*
X190500Y5334D01*
X190500Y25400D01*
X202811Y37711D01*
X205875Y37711D01*
X19050Y5334D02*
X19050Y76215D01*
D14*
X180975Y101602D02*
X183132Y103759D01*
X180975Y101602D02*
X180975Y98550D01*
X183132Y96393D01*
X196344Y96393D02*
X201106Y101156D01*
X214630Y101156D01*
X184658Y105156D02*
X183261Y103759D01*
X183132Y103759D01*
X214630Y101156D02*
X214630Y99759D01*
D10*
X214630Y99759D03*
X230378Y152654D03*
D12*
X196344Y96393D02*
X183132Y96393D01*
D10*
X189738Y105156D03*
X198628Y12446D03*
X71126Y194558D03*
D12*
X198628Y12446D02*
X192659Y6477D01*
X9370Y73216D02*
X4646Y77940D01*
X13526Y73216D02*
X16891Y69850D01*
X13526Y73216D02*
X9370Y73216D01*
X4646Y77940D02*
X4646Y125296D01*
X71126Y191776D02*
X71126Y194558D01*
X71126Y191776D02*
X4646Y125296D01*
D10*
X214376Y105093D03*
D14*
X214376Y105156D01*
X203080Y105156D01*
X202064Y104140D01*
X197224Y104140D01*
X196208Y105156D01*
X189738Y105156D01*
D10*
X177800Y95250D03*
D12*
X18219Y3112D02*
X16891Y4440D01*
X16891Y69850D01*
X192659Y6477D02*
X192659Y4440D01*
X191331Y3112D02*
X18219Y3112D01*
X191331Y3112D02*
X192659Y4440D01*
D10*
X163322Y27432D03*
X138938Y120396D03*
X147280Y9184D03*
X129540Y139954D03*
X122428Y136652D03*
D13*
X126492Y133350D02*
X136652Y133350D01*
X126492Y133350D02*
X125730Y132588D01*
D10*
X136652Y133350D03*
X125730Y132588D03*
X125730Y9652D03*
X118872Y132080D03*
X121920Y79248D03*
X129540Y115062D03*
X87122Y15240D03*
X122428Y114808D03*
X138176Y113030D03*
D13*
X132588Y40894D02*
X129794Y38100D01*
X132588Y40894D02*
X132588Y63500D01*
X130810Y65278D01*
X130810Y77724D01*
D10*
X129794Y38100D03*
X130810Y77724D03*
X129286Y109982D03*
X115570Y109982D03*
D12*
X115570Y83693D01*
X117221Y83693D01*
X117221Y74422D01*
X116142Y74422D01*
X116142Y26861D02*
X116087Y26861D01*
D10*
X116087Y26861D03*
D12*
X116142Y26861D02*
X116142Y74422D01*
D10*
X129540Y104902D03*
D12*
X112586Y30480D02*
X112522Y30480D01*
D10*
X112522Y30480D03*
X159258Y30988D03*
X112586Y79058D03*
D12*
X112586Y30480D01*
D13*
X187706Y124968D02*
X184150Y128524D01*
X184150Y140208D01*
X179578Y144780D01*
X179578Y152146D01*
X176276Y155448D01*
X176276Y195834D01*
X174752Y197358D01*
D10*
X188214Y92710D03*
X187706Y124968D03*
X174752Y197358D03*
D13*
X178562Y143002D02*
X178562Y104648D01*
X178562Y143002D02*
X177546Y144018D01*
X177546Y151384D01*
X174244Y154686D01*
X174244Y188722D01*
X172720Y190246D01*
D10*
X184658Y100076D03*
X178562Y104648D03*
X172720Y190246D03*
X203890Y154940D03*
X199644Y120142D03*
D13*
X205994Y120142D02*
X214122Y128270D01*
X214122Y154178D01*
X220218Y160274D01*
X220218Y184912D01*
X209042Y196088D01*
X208280Y196088D01*
D10*
X205994Y120142D03*
X208280Y196088D03*
X194564Y124968D03*
D13*
X193802Y233172D02*
X193802Y233680D01*
X193802Y233172D02*
X198374Y228600D01*
X200660Y228600D01*
X200660Y193802D02*
X200660Y188468D01*
X200152Y187960D01*
X200152Y181610D01*
X200406Y181356D01*
X200406Y162814D01*
X204724Y158496D01*
X205486Y158496D01*
X208534Y155448D01*
X208534Y144272D01*
X207010Y142748D01*
D10*
X193802Y233680D03*
X200660Y228600D03*
X200660Y217932D03*
X200660Y193802D03*
X207010Y142748D03*
X199644Y125222D03*
D13*
X210566Y129794D02*
X210566Y153416D01*
X218186Y161036D01*
X218186Y170180D01*
X208788Y179578D01*
X206756Y214122D02*
X206756Y217424D01*
X194056Y230124D01*
X191008Y230124D01*
X186182Y225298D01*
D10*
X210566Y129794D03*
X208788Y179578D03*
X206756Y214122D03*
X186182Y225298D03*
X199644Y130302D03*
D13*
X204978Y130048D02*
X198374Y136652D01*
X198374Y180594D01*
X194564Y184404D01*
D10*
X204978Y130048D03*
X194564Y184404D03*
D13*
X187706Y139446D02*
X187706Y130048D01*
X187706Y139446D02*
X181610Y145542D01*
X181610Y152908D01*
X178308Y156210D01*
X178308Y209296D01*
X176784Y210820D01*
X183896Y217932D02*
X192532Y226568D01*
D10*
X187706Y130048D03*
X176784Y210820D03*
X183896Y217932D03*
X192532Y226568D03*
X217678Y226568D03*
D13*
X147574Y179324D02*
X136906Y168656D01*
X120142Y168656D01*
X85090Y133604D01*
X85090Y104140D01*
X86106Y103124D01*
X86106Y77470D01*
X85598Y76962D01*
D10*
X147574Y179324D03*
X85598Y76962D03*
X94742Y69342D03*
D13*
X112268Y131826D02*
X112268Y135636D01*
X111760Y136144D01*
X111760Y150114D01*
X116840Y155194D01*
X116840Y159766D01*
D10*
X94996Y74422D03*
X109982Y107696D03*
X112268Y131826D03*
X116840Y159766D03*
X132588Y177546D03*
D13*
X82296Y96774D02*
X82296Y91186D01*
X82296Y96774D02*
X78994Y100076D01*
X78994Y130302D01*
X103886Y155194D01*
X103886Y157480D01*
D10*
X93218Y58420D03*
X82296Y91186D03*
X103886Y157480D03*
D13*
X168402Y182626D02*
X172212Y178816D01*
X172212Y152400D01*
X165608Y145796D01*
X165608Y129794D01*
X167132Y128270D01*
X167132Y112522D01*
X159004Y104394D01*
D10*
X168402Y182626D03*
X159004Y104394D03*
D13*
X115316Y137668D02*
X115316Y150876D01*
X120396Y155956D01*
D10*
X98552Y78232D03*
X107950Y97028D03*
X115316Y137668D03*
X120396Y155956D03*
X152400Y77216D03*
D12*
X152400Y108165D01*
X153480Y109245D01*
X153480Y118047D01*
X151638Y119888D01*
X150586Y118836D01*
D10*
X150586Y118836D03*
X107188Y91186D03*
X140970Y127508D03*
X155194Y53848D03*
X164592Y95758D03*
X147320Y76962D03*
D12*
X147320Y102831D01*
X148400Y103911D01*
X148400Y107086D01*
X146241Y109245D01*
X146241Y139090D01*
X148654Y141503D01*
X148654Y157637D01*
X148590Y157701D01*
X148590Y161544D01*
X148910Y161544D01*
D10*
X148910Y161544D03*
D13*
X150114Y132588D02*
X150114Y131572D01*
X156464Y125222D01*
X156464Y109220D01*
X154432Y107188D01*
X154432Y80264D01*
X157480Y77216D01*
D10*
X137160Y173990D03*
X150114Y132588D03*
X157480Y77216D03*
X163068Y67818D03*
D12*
X167350Y9762D02*
X167386Y9762D01*
D10*
X167350Y9762D03*
D12*
X167386Y7747D02*
X184658Y7747D01*
X167386Y7747D02*
X167386Y9762D01*
D10*
X184658Y39878D03*
D12*
X184658Y7747D01*
D10*
X53086Y23368D03*
D12*
X53086Y50483D01*
X53023Y50483D01*
X53023Y59373D02*
X53086Y59436D01*
X53023Y59373D02*
X53023Y50483D01*
D10*
X53086Y59436D03*
X194564Y114808D03*
X223749Y111570D03*
D12*
X223749Y109504D01*
X224409Y108844D01*
X247587Y24284D02*
X247587Y13816D01*
X240184Y6414D01*
X224409Y47462D02*
X224409Y108844D01*
X224409Y47462D02*
X247587Y24284D01*
X240184Y6414D02*
X228664Y6414D01*
X228600Y6350D01*
X228600Y4572D01*
D10*
X228600Y4572D03*
X215900Y114300D03*
D12*
X222250Y107950D01*
X222250Y4572D01*
D10*
X222250Y4572D03*
X49372Y26838D03*
D12*
X49372Y55525D01*
X47689Y61487D02*
X47752Y61550D01*
X47752Y86106D01*
X47689Y57208D02*
X49372Y55525D01*
X47689Y57208D02*
X47689Y61487D01*
X60198Y85090D02*
X59182Y86106D01*
D10*
X60198Y85090D03*
D12*
X59182Y86106D02*
X47752Y86106D01*
D10*
X150370Y233520D03*
D13*
X161544Y131318D02*
X158496Y128270D01*
X161544Y131318D02*
X161544Y144018D01*
X152908Y152654D01*
X152908Y157734D01*
X154686Y159512D01*
X154686Y162306D01*
X156210Y163830D01*
X151384Y175768D02*
X154432Y178816D01*
X154432Y198628D01*
X152908Y200152D01*
X158750Y210566D02*
X157226Y212090D01*
X157226Y225806D01*
X158750Y227330D01*
X158750Y230378D01*
X155702Y233426D01*
X150622Y233426D01*
X150370Y233520D01*
D10*
X157988Y94234D03*
X158496Y128270D03*
X156210Y163830D03*
X151384Y175768D03*
X152908Y200152D03*
X158750Y210566D03*
X144780Y105410D03*
D13*
X137668Y225044D02*
X135890Y226822D01*
X137668Y225044D02*
X137668Y215392D01*
X129032Y206756D01*
X129032Y184404D01*
X131064Y120396D02*
X133858Y120396D01*
X137668Y116586D01*
X139700Y116586D01*
X144018Y112268D01*
X144018Y106172D01*
X144780Y105410D01*
D10*
X135890Y226822D03*
X129032Y184404D03*
X107696Y161290D03*
X114300Y124714D03*
X123698Y120396D03*
X131064Y120396D03*
D13*
X150114Y137668D02*
X150114Y139954D01*
X150876Y140716D01*
X150876Y158496D01*
X152654Y160274D01*
X152654Y165354D01*
X155702Y168402D01*
X156464Y168402D01*
X158496Y170434D01*
X158496Y202438D01*
X155194Y205740D01*
X155194Y228854D01*
D10*
X143510Y99568D03*
X150114Y137668D03*
X155194Y228854D03*
X149860Y110744D03*
D13*
X146812Y235204D02*
X159004Y247396D01*
X146812Y235204D02*
X146812Y229362D01*
X153162Y223012D01*
X153162Y204978D01*
X156464Y201676D01*
X156464Y173482D01*
X154940Y171958D01*
X164084Y162814D02*
X162560Y161290D01*
X162560Y153162D01*
X164846Y150876D01*
X164846Y147828D01*
X163576Y146558D01*
X163576Y126746D01*
D10*
X159004Y247396D03*
X154940Y171958D03*
X164084Y162814D03*
X163576Y126746D03*
X59690Y157226D03*
X133350Y216248D03*
X122054Y199524D03*
X88900Y44450D03*
X57150Y12700D03*
X165180Y222330D03*
X44450Y19050D03*
X44450Y228600D03*
X61468Y109474D03*
X96012Y246888D03*
X94107Y215900D03*
X94234Y227114D03*
X94742Y159766D03*
D11*
X82042Y172466D01*
X71299Y172466D02*
X70866Y172033D01*
D10*
X70866Y172033D03*
D11*
X71299Y172466D02*
X82042Y172466D01*
D10*
X41982Y105592D03*
X69342Y231140D03*
X62738Y104394D03*
X63164Y90850D03*
D11*
X244017Y112771D02*
X244017Y116349D01*
X247650Y109139D02*
X247650Y88900D01*
X247650Y109139D02*
X244017Y112771D01*
X244017Y116349D02*
X247015Y119346D01*
X247650Y88900D02*
X241300Y88900D01*
D10*
X241300Y88900D03*
D11*
X233172Y217932D02*
X233109Y217932D01*
X233172Y217932D02*
X247015Y204089D01*
X247015Y119346D01*
D10*
X63500Y222250D03*
X171450Y222250D03*
D11*
X228791Y222250D02*
X233109Y217932D01*
D10*
X228791Y222250D03*
X49022Y221996D03*
X82550Y101600D03*
X241391Y101509D03*
X60960Y231394D03*
D11*
X48006Y231394D01*
X44450Y234950D01*
X44718Y234950D01*
D10*
X44718Y234950D03*
X214630Y162433D03*
X211958Y214243D03*
X194564Y160274D03*
X194564Y177038D03*
X139700Y196850D03*
D12*
X194564Y177038D02*
X194564Y160274D01*
X143764Y227330D02*
X139700Y227330D01*
D10*
X143764Y227330D03*
D12*
X139700Y227330D02*
X139700Y196850D01*
D10*
X203708Y186436D03*
D12*
X203708Y165100D01*
X203708Y162433D01*
X209550Y162433D01*
D10*
X209550Y162433D03*
X188722Y160782D03*
X188722Y197612D03*
D12*
X188722Y160782D01*
D13*
X187706Y116840D02*
X191516Y116840D01*
X193040Y118364D01*
X196342Y118364D01*
X198120Y116586D01*
X207518Y116586D01*
X209550Y118618D01*
X209550Y120904D01*
X216154Y127508D01*
X216154Y153416D01*
X222250Y159512D01*
X222250Y185674D01*
X219202Y188722D01*
X219202Y219202D01*
X206248Y232156D01*
D10*
X187706Y116840D03*
X206248Y232156D03*
X57658Y55118D03*
X44450Y12700D03*
X207700Y25400D03*
X231140Y184150D03*
X54102Y125476D03*
X88773Y123825D03*
X12954Y126238D03*
X97663Y128270D03*
X161290Y149446D03*
X172974Y120396D03*
X160528Y205486D03*
X173958Y138430D03*
X152908Y123698D03*
D13*
X134620Y128270D02*
X97663Y128270D01*
X160528Y150368D02*
X160528Y180848D01*
X160528Y205486D01*
X160528Y150368D02*
X161290Y149606D01*
X161290Y149446D01*
X160528Y180848D02*
X163322Y180848D01*
D10*
X183896Y120396D03*
X134620Y128270D03*
X209042Y174244D03*
X184912Y180848D03*
X163322Y180848D03*
M02*
