G04 EAGLE Gerber RS-274X export*
G75*
%MOMM*%
%FSLAX34Y34*%
%LPD*%
%INCopper Layer 4*%
%IPPOS*%
%AMOC8*
5,1,8,0,0,1.08239X$1,22.5*%
G01*
%ADD10C,0.406400*%
%ADD11C,0.088900*%
%ADD12C,0.127000*%
%ADD13C,0.114300*%
%ADD14C,0.254000*%


D10*
X69342Y70104D03*
X223266Y209042D03*
X13208Y35814D03*
X230632Y159004D03*
X232609Y166751D03*
X212344Y239776D03*
X108331Y248793D03*
X38100Y72517D03*
X174592Y130128D03*
X183860Y158460D03*
X80137Y205613D03*
X92710Y105410D03*
X248335Y114560D03*
X71438Y77851D03*
X63500Y31750D03*
X76200Y31750D03*
X69850Y57150D03*
X9652Y64262D03*
X9398Y113030D03*
X6350Y146050D03*
X19050Y203200D03*
X31750Y203200D03*
X247650Y222250D03*
X107950Y185166D03*
X188976Y154686D03*
X189230Y79756D03*
X190754Y63754D03*
X178308Y59944D03*
X159512Y87630D03*
X171196Y28956D03*
X153162Y35052D03*
X216662Y10922D03*
X203962Y90678D03*
X186182Y110744D03*
X119634Y97790D03*
X245872Y67056D03*
X245872Y40894D03*
X213868Y119888D03*
X184404Y187960D03*
X96520Y204216D03*
X55118Y203454D03*
X139446Y231394D03*
X120142Y235712D03*
X207772Y189992D03*
X167386Y195326D03*
X228346Y213360D03*
X8128Y20574D03*
X98044Y103886D03*
X66294Y128778D03*
X58420Y163322D03*
X177800Y69850D03*
X178308Y53594D03*
X150368Y70612D03*
X172466Y83312D03*
X172212Y102616D03*
X86106Y69088D03*
X90678Y27940D03*
X149606Y21082D03*
X150368Y43688D03*
X215900Y63500D03*
X241046Y94996D03*
X238506Y167132D03*
X147320Y209042D03*
X188214Y214630D03*
X164338Y231902D03*
X179832Y241046D03*
X94742Y196088D03*
X54356Y185166D03*
X66294Y157734D03*
X102870Y121666D03*
X161798Y115316D03*
X163322Y78486D03*
X106426Y83312D03*
X68580Y91694D03*
X47244Y113030D03*
X73406Y162814D03*
X88646Y158242D03*
X70358Y199898D03*
X85344Y193802D03*
X76962Y214122D03*
X60706Y240030D03*
X89916Y240030D03*
X116840Y230632D03*
X167132Y167386D03*
X155194Y65024D03*
X112268Y119380D03*
X230124Y92964D03*
X149098Y193802D03*
X145034Y143002D03*
X144526Y165100D03*
X185166Y147066D03*
X30916Y21336D03*
X204724Y135382D03*
X31750Y68199D03*
X38100Y133350D03*
X123872Y141895D03*
X212084Y82550D03*
X202057Y96393D03*
X215900Y177800D03*
X215900Y184150D03*
X167640Y188468D03*
X114300Y169926D03*
X78740Y87122D03*
X96774Y54610D03*
D11*
X130556Y23114D02*
X143510Y36068D01*
D10*
X130556Y23114D03*
X143510Y36068D03*
X159004Y99314D03*
X169418Y131064D03*
X194564Y140208D03*
X123952Y147193D03*
X41910Y114554D03*
X194818Y145288D03*
X123952Y152273D03*
X34481Y114046D03*
X213614Y249428D03*
X215646Y210312D03*
X194818Y154940D03*
X138938Y152654D03*
X140716Y177800D03*
X135128Y207772D03*
X124714Y217932D03*
X124714Y226822D03*
X124714Y232410D03*
X166116Y249428D03*
X171473Y249405D03*
X26416Y60706D03*
X107950Y75438D03*
X107350Y9762D03*
X134620Y105556D03*
X134620Y73914D03*
X139350Y9000D03*
X134620Y66548D03*
X139700Y107950D03*
X139700Y95758D03*
X138430Y62992D03*
X138430Y36068D03*
D11*
X135128Y144780D02*
X129794Y150114D01*
X135128Y144780D02*
X135128Y136906D01*
X127508Y129286D01*
X127508Y124206D01*
D10*
X129794Y159004D03*
X129794Y150114D03*
X127508Y124206D03*
X125476Y19558D03*
X117094Y9652D03*
X102362Y74676D03*
X101854Y9398D03*
X125222Y165100D03*
X110998Y173990D03*
X74930Y70104D03*
X120396Y19558D03*
X128778Y14732D03*
X134112Y9398D03*
X123952Y159766D03*
X112776Y156210D03*
X107188Y133604D03*
X91186Y65532D03*
X98552Y14224D03*
X152400Y9144D03*
X184658Y105156D03*
X205875Y37711D03*
X214630Y99759D03*
X230378Y152654D03*
D12*
X230378Y99822D01*
X230315Y99759D01*
X214630Y99759D01*
D10*
X189738Y105156D03*
X198628Y12446D03*
X177800Y95250D03*
X163322Y27432D03*
X138938Y120396D03*
X147280Y9184D03*
X129540Y139954D03*
X122428Y136652D03*
X136652Y133350D03*
X125730Y132588D03*
X125730Y9652D03*
X118872Y132080D03*
X121920Y79248D03*
X129540Y115062D03*
X87122Y15240D03*
X122428Y114808D03*
X138176Y113030D03*
X129794Y38100D03*
X130810Y77724D03*
X129286Y109982D03*
X115570Y109982D03*
X116087Y26861D03*
X129540Y104902D03*
X112522Y30480D03*
X159258Y30988D03*
X112586Y79058D03*
X188214Y92710D03*
X187706Y124968D03*
X174752Y197358D03*
D11*
X183134Y100076D02*
X184658Y100076D01*
X183134Y100076D02*
X178562Y104648D01*
D10*
X184658Y100076D03*
X178562Y104648D03*
X172720Y190246D03*
X203890Y154940D03*
X199644Y120142D03*
X205994Y120142D03*
X208280Y196088D03*
X194564Y124968D03*
D11*
X200660Y217932D02*
X200660Y228600D01*
D10*
X200660Y228600D03*
X200660Y217932D03*
X200660Y193802D03*
X207010Y142748D03*
X199644Y125222D03*
X210566Y129794D03*
X208788Y179578D03*
X206756Y214122D03*
X199644Y130302D03*
X204978Y130048D03*
X194564Y184404D03*
X187706Y130048D03*
X176784Y210820D03*
X183896Y217932D03*
X192532Y226568D03*
X217678Y226568D03*
X147574Y179324D03*
X85598Y76962D03*
X94742Y69342D03*
X94996Y74422D03*
X109982Y107696D03*
X112268Y131826D03*
X116840Y159766D03*
X132588Y177546D03*
X93218Y58420D03*
X82296Y91186D03*
X103886Y157480D03*
X168402Y182626D03*
X159004Y104394D03*
X98552Y78232D03*
X107950Y97028D03*
X115316Y137668D03*
X120396Y155956D03*
X152400Y77216D03*
X150586Y118836D03*
X107188Y91186D03*
X140970Y127508D03*
X155194Y53848D03*
X164592Y95758D03*
X147320Y76962D03*
X148910Y161544D03*
X137160Y173990D03*
X150114Y132588D03*
X157480Y77216D03*
X163068Y67818D03*
X167350Y9762D03*
X184658Y39878D03*
X53086Y23368D03*
X194564Y114808D03*
X223749Y111570D03*
X228600Y4572D03*
X215900Y114300D03*
X222250Y4572D03*
D13*
X220790Y3112D01*
D10*
X49372Y26838D03*
D13*
X49467Y21869D02*
X49530Y21805D01*
X49467Y26744D02*
X49372Y26838D01*
X49467Y26744D02*
X49467Y21869D01*
X49530Y3112D02*
X220790Y3112D01*
X49530Y3112D02*
X49530Y21805D01*
D10*
X150370Y233520D03*
D11*
X157988Y95250D02*
X157988Y94234D01*
X157988Y95250D02*
X155448Y97790D01*
X155448Y121158D01*
X158496Y124206D01*
X158496Y128270D01*
D10*
X157988Y94234D03*
X158496Y128270D03*
X156210Y163830D03*
X151384Y175768D03*
X152908Y200152D03*
X158750Y210566D03*
X144780Y105410D03*
X135890Y226822D03*
X129032Y184404D03*
X107696Y161290D03*
X114300Y124714D03*
X123698Y120396D03*
X131064Y120396D03*
D11*
X143510Y99568D02*
X144018Y99568D01*
X148336Y103886D01*
X148336Y107188D01*
X146304Y109220D01*
X146304Y133858D01*
X150114Y137668D01*
D10*
X143510Y99568D03*
X150114Y137668D03*
X155194Y228854D03*
X149860Y110744D03*
X154940Y171958D03*
X164084Y162814D03*
X163576Y126746D03*
X59690Y157226D03*
X133350Y216248D03*
X122054Y199524D03*
D14*
X51695Y101600D02*
X44450Y101600D01*
X51695Y101600D02*
X58807Y108712D01*
D10*
X88900Y44450D03*
D14*
X44450Y44450D02*
X44450Y101600D01*
X44450Y44450D02*
X44450Y19050D01*
D10*
X57150Y12700D03*
D14*
X58807Y108712D02*
X58359Y109159D01*
X44450Y123069D01*
X44450Y228600D01*
D10*
X165180Y222330D03*
X44450Y19050D03*
X44450Y228600D03*
D14*
X44450Y44450D02*
X88900Y44450D01*
X61153Y109159D02*
X58359Y109159D01*
X61153Y109159D02*
X61468Y109474D01*
D10*
X61468Y109474D03*
X96012Y246888D03*
X94107Y215900D03*
X94234Y227114D03*
X41982Y105592D03*
X69342Y231140D03*
X62738Y104394D03*
X63164Y90850D03*
X63500Y222250D03*
D14*
X49022Y221996D02*
X49022Y123526D01*
D10*
X171450Y222250D03*
D14*
X159154Y222250D02*
X63500Y222250D01*
D10*
X228791Y222250D03*
D14*
X166969Y218012D02*
X163392Y218012D01*
X171207Y222250D02*
X171450Y222250D01*
X163392Y218012D02*
X159154Y222250D01*
X166969Y218012D02*
X171207Y222250D01*
D10*
X49022Y221996D03*
D14*
X58756Y113792D02*
X63257Y113792D01*
X76599Y100450D01*
X58756Y113792D02*
X49022Y123526D01*
X76599Y100450D02*
X81400Y100450D01*
X82550Y101600D01*
D10*
X82550Y101600D03*
X241391Y101509D03*
X44718Y234950D03*
X214630Y162433D03*
X211958Y214243D03*
X194564Y160274D03*
X194564Y177038D03*
X143764Y227330D03*
X203708Y186436D03*
X209550Y162433D03*
X188722Y160782D03*
X188722Y197612D03*
X187706Y116840D03*
X206248Y232156D03*
X57658Y55118D03*
X44450Y12700D03*
X207700Y25400D03*
X231140Y184150D03*
X54102Y125476D03*
X88773Y123825D03*
X12954Y126238D03*
X97663Y128270D03*
X161290Y149446D03*
X172974Y120396D03*
X160528Y205486D03*
X173958Y138430D03*
X152908Y123698D03*
X183896Y120396D03*
X134620Y128270D03*
X209042Y174244D03*
X184912Y180848D03*
X163322Y180848D03*
M02*
