G04 EAGLE Gerber RS-274X export*
G75*
%MOMM*%
%FSLAX34Y34*%
%LPD*%
%INSilkscreen Top*%
%IPPOS*%
%AMOC8*
5,1,8,0,0,1.08239X$1,22.5*%
G01*
%ADD10C,0.150000*%
%ADD11C,0.500000*%
%ADD12C,0.127000*%
%ADD13C,0.177800*%
%ADD14C,0.076200*%
%ADD15C,0.254000*%
%ADD16C,0.101600*%
%ADD17C,0.200000*%


D10*
X71686Y98424D02*
X71686Y82424D01*
X47186Y82424D02*
X47186Y98424D01*
D11*
X71806Y105154D03*
D12*
X5560Y181970D02*
X5560Y226970D01*
X40560Y244470D02*
X80560Y244470D01*
X80560Y235970D01*
X55560Y235970D01*
X55560Y221970D01*
X55560Y186970D02*
X55560Y172970D01*
X80560Y172970D01*
X80560Y164470D01*
X40560Y164470D01*
D13*
X90791Y228219D02*
X90791Y236516D01*
X94940Y232368D02*
X86642Y232368D01*
X90791Y179366D02*
X90791Y171069D01*
D12*
X34750Y45440D02*
X34750Y10440D01*
X3050Y36440D02*
X3050Y45440D01*
X3050Y36440D02*
X-1950Y36440D01*
X-1950Y19440D01*
X3050Y19440D01*
X3050Y10440D01*
D14*
X117823Y209742D02*
X125189Y209742D01*
X117823Y207696D02*
X117823Y211788D01*
X117823Y214885D02*
X125189Y214885D01*
X117823Y214885D02*
X117823Y216931D01*
X117825Y217020D01*
X117831Y217109D01*
X117841Y217198D01*
X117854Y217286D01*
X117871Y217374D01*
X117893Y217461D01*
X117918Y217546D01*
X117946Y217631D01*
X117979Y217714D01*
X118015Y217796D01*
X118054Y217876D01*
X118097Y217954D01*
X118143Y218030D01*
X118193Y218105D01*
X118246Y218177D01*
X118302Y218246D01*
X118361Y218313D01*
X118422Y218378D01*
X118487Y218439D01*
X118554Y218498D01*
X118623Y218554D01*
X118695Y218607D01*
X118770Y218657D01*
X118846Y218703D01*
X118924Y218746D01*
X119004Y218785D01*
X119086Y218821D01*
X119169Y218854D01*
X119254Y218882D01*
X119339Y218907D01*
X119426Y218929D01*
X119514Y218946D01*
X119602Y218959D01*
X119691Y218969D01*
X119780Y218975D01*
X119869Y218977D01*
X119958Y218975D01*
X120047Y218969D01*
X120136Y218959D01*
X120224Y218946D01*
X120312Y218929D01*
X120399Y218907D01*
X120484Y218882D01*
X120569Y218854D01*
X120652Y218821D01*
X120734Y218785D01*
X120814Y218746D01*
X120892Y218703D01*
X120968Y218657D01*
X121043Y218607D01*
X121115Y218554D01*
X121184Y218498D01*
X121251Y218439D01*
X121316Y218378D01*
X121377Y218313D01*
X121436Y218246D01*
X121492Y218177D01*
X121545Y218105D01*
X121595Y218030D01*
X121641Y217954D01*
X121684Y217876D01*
X121723Y217796D01*
X121759Y217714D01*
X121792Y217631D01*
X121820Y217546D01*
X121845Y217461D01*
X121867Y217374D01*
X121884Y217286D01*
X121897Y217198D01*
X121907Y217109D01*
X121913Y217020D01*
X121915Y216931D01*
X121915Y214885D01*
X126007Y221516D02*
X126007Y224790D01*
X125189Y227986D02*
X117823Y227986D01*
X117823Y230032D01*
X117825Y230121D01*
X117831Y230210D01*
X117841Y230299D01*
X117854Y230387D01*
X117871Y230475D01*
X117893Y230562D01*
X117918Y230647D01*
X117946Y230732D01*
X117979Y230815D01*
X118015Y230897D01*
X118054Y230977D01*
X118097Y231055D01*
X118143Y231131D01*
X118193Y231206D01*
X118246Y231278D01*
X118302Y231347D01*
X118361Y231414D01*
X118422Y231479D01*
X118487Y231540D01*
X118554Y231599D01*
X118623Y231655D01*
X118695Y231708D01*
X118770Y231758D01*
X118846Y231804D01*
X118924Y231847D01*
X119004Y231886D01*
X119086Y231922D01*
X119169Y231955D01*
X119254Y231983D01*
X119339Y232008D01*
X119426Y232030D01*
X119514Y232047D01*
X119602Y232060D01*
X119691Y232070D01*
X119780Y232076D01*
X119869Y232078D01*
X119958Y232076D01*
X120047Y232070D01*
X120136Y232060D01*
X120224Y232047D01*
X120312Y232030D01*
X120399Y232008D01*
X120484Y231983D01*
X120569Y231955D01*
X120652Y231922D01*
X120734Y231886D01*
X120814Y231847D01*
X120892Y231804D01*
X120968Y231758D01*
X121043Y231708D01*
X121115Y231655D01*
X121184Y231599D01*
X121251Y231540D01*
X121316Y231479D01*
X121377Y231414D01*
X121436Y231347D01*
X121492Y231278D01*
X121545Y231206D01*
X121595Y231131D01*
X121641Y231055D01*
X121684Y230977D01*
X121723Y230897D01*
X121759Y230815D01*
X121792Y230732D01*
X121820Y230647D01*
X121845Y230562D01*
X121867Y230475D01*
X121884Y230387D01*
X121897Y230299D01*
X121907Y230210D01*
X121913Y230121D01*
X121915Y230032D01*
X121915Y227986D01*
X121915Y230441D02*
X125189Y232078D01*
X125189Y234840D02*
X117823Y239751D01*
X117823Y234840D02*
X125189Y239751D01*
X107481Y243553D02*
X107481Y250919D01*
X105435Y250919D02*
X109527Y250919D01*
X112624Y250919D02*
X112624Y243553D01*
X112624Y250919D02*
X114670Y250919D01*
X114759Y250917D01*
X114848Y250911D01*
X114937Y250901D01*
X115025Y250888D01*
X115113Y250871D01*
X115200Y250849D01*
X115285Y250824D01*
X115370Y250796D01*
X115453Y250763D01*
X115535Y250727D01*
X115615Y250688D01*
X115693Y250645D01*
X115769Y250599D01*
X115844Y250549D01*
X115916Y250496D01*
X115985Y250440D01*
X116052Y250381D01*
X116117Y250320D01*
X116178Y250255D01*
X116237Y250188D01*
X116293Y250119D01*
X116346Y250047D01*
X116396Y249972D01*
X116442Y249896D01*
X116485Y249818D01*
X116524Y249738D01*
X116560Y249656D01*
X116593Y249573D01*
X116621Y249488D01*
X116646Y249403D01*
X116668Y249316D01*
X116685Y249228D01*
X116698Y249140D01*
X116708Y249051D01*
X116714Y248962D01*
X116716Y248873D01*
X116714Y248784D01*
X116708Y248695D01*
X116698Y248606D01*
X116685Y248518D01*
X116668Y248430D01*
X116646Y248343D01*
X116621Y248258D01*
X116593Y248173D01*
X116560Y248090D01*
X116524Y248008D01*
X116485Y247928D01*
X116442Y247850D01*
X116396Y247774D01*
X116346Y247699D01*
X116293Y247627D01*
X116237Y247558D01*
X116178Y247491D01*
X116117Y247426D01*
X116052Y247365D01*
X115985Y247306D01*
X115916Y247250D01*
X115844Y247197D01*
X115769Y247147D01*
X115693Y247101D01*
X115615Y247058D01*
X115535Y247019D01*
X115453Y246983D01*
X115370Y246950D01*
X115285Y246922D01*
X115200Y246897D01*
X115113Y246875D01*
X115025Y246858D01*
X114937Y246845D01*
X114848Y246835D01*
X114759Y246829D01*
X114670Y246827D01*
X112624Y246827D01*
X119255Y242735D02*
X122529Y242735D01*
X126988Y243553D02*
X126988Y250919D01*
X124942Y250919D02*
X129034Y250919D01*
X136271Y250919D02*
X131360Y243553D01*
X136271Y243553D02*
X131360Y250919D01*
D12*
X124592Y175128D02*
X204592Y175128D01*
X204592Y95128D01*
X124592Y95128D01*
X124592Y175128D01*
D15*
X201422Y185928D02*
X201424Y185999D01*
X201430Y186070D01*
X201440Y186141D01*
X201454Y186211D01*
X201472Y186280D01*
X201493Y186347D01*
X201519Y186414D01*
X201548Y186479D01*
X201580Y186542D01*
X201617Y186604D01*
X201656Y186663D01*
X201699Y186720D01*
X201745Y186774D01*
X201794Y186826D01*
X201846Y186875D01*
X201900Y186921D01*
X201957Y186964D01*
X202016Y187003D01*
X202078Y187040D01*
X202141Y187072D01*
X202206Y187101D01*
X202273Y187127D01*
X202340Y187148D01*
X202409Y187166D01*
X202479Y187180D01*
X202550Y187190D01*
X202621Y187196D01*
X202692Y187198D01*
X202763Y187196D01*
X202834Y187190D01*
X202905Y187180D01*
X202975Y187166D01*
X203044Y187148D01*
X203111Y187127D01*
X203178Y187101D01*
X203243Y187072D01*
X203306Y187040D01*
X203368Y187003D01*
X203427Y186964D01*
X203484Y186921D01*
X203538Y186875D01*
X203590Y186826D01*
X203639Y186774D01*
X203685Y186720D01*
X203728Y186663D01*
X203767Y186604D01*
X203804Y186542D01*
X203836Y186479D01*
X203865Y186414D01*
X203891Y186347D01*
X203912Y186280D01*
X203930Y186211D01*
X203944Y186141D01*
X203954Y186070D01*
X203960Y185999D01*
X203962Y185928D01*
X203960Y185857D01*
X203954Y185786D01*
X203944Y185715D01*
X203930Y185645D01*
X203912Y185576D01*
X203891Y185509D01*
X203865Y185442D01*
X203836Y185377D01*
X203804Y185314D01*
X203767Y185252D01*
X203728Y185193D01*
X203685Y185136D01*
X203639Y185082D01*
X203590Y185030D01*
X203538Y184981D01*
X203484Y184935D01*
X203427Y184892D01*
X203368Y184853D01*
X203306Y184816D01*
X203243Y184784D01*
X203178Y184755D01*
X203111Y184729D01*
X203044Y184708D01*
X202975Y184690D01*
X202905Y184676D01*
X202834Y184666D01*
X202763Y184660D01*
X202692Y184658D01*
X202621Y184660D01*
X202550Y184666D01*
X202479Y184676D01*
X202409Y184690D01*
X202340Y184708D01*
X202273Y184729D01*
X202206Y184755D01*
X202141Y184784D01*
X202078Y184816D01*
X202016Y184853D01*
X201957Y184892D01*
X201900Y184935D01*
X201846Y184981D01*
X201794Y185030D01*
X201745Y185082D01*
X201699Y185136D01*
X201656Y185193D01*
X201617Y185252D01*
X201580Y185314D01*
X201548Y185377D01*
X201519Y185442D01*
X201493Y185509D01*
X201472Y185576D01*
X201454Y185645D01*
X201440Y185715D01*
X201430Y185786D01*
X201424Y185857D01*
X201422Y185928D01*
D12*
X116158Y234866D02*
X100758Y234866D01*
X100758Y224366D01*
X116158Y224366D01*
X116158Y234866D01*
D16*
X113458Y235116D02*
X112458Y237116D01*
X114458Y237116D01*
X113458Y235116D01*
D17*
X214860Y201422D02*
X214862Y201485D01*
X214868Y201547D01*
X214878Y201609D01*
X214891Y201671D01*
X214909Y201731D01*
X214930Y201790D01*
X214955Y201848D01*
X214984Y201904D01*
X215016Y201958D01*
X215051Y202010D01*
X215089Y202059D01*
X215131Y202107D01*
X215175Y202151D01*
X215223Y202193D01*
X215272Y202231D01*
X215324Y202266D01*
X215378Y202298D01*
X215434Y202327D01*
X215492Y202352D01*
X215551Y202373D01*
X215611Y202391D01*
X215673Y202404D01*
X215735Y202414D01*
X215797Y202420D01*
X215860Y202422D01*
X215923Y202420D01*
X215985Y202414D01*
X216047Y202404D01*
X216109Y202391D01*
X216169Y202373D01*
X216228Y202352D01*
X216286Y202327D01*
X216342Y202298D01*
X216396Y202266D01*
X216448Y202231D01*
X216497Y202193D01*
X216545Y202151D01*
X216589Y202107D01*
X216631Y202059D01*
X216669Y202010D01*
X216704Y201958D01*
X216736Y201904D01*
X216765Y201848D01*
X216790Y201790D01*
X216811Y201731D01*
X216829Y201671D01*
X216842Y201609D01*
X216852Y201547D01*
X216858Y201485D01*
X216860Y201422D01*
X216858Y201359D01*
X216852Y201297D01*
X216842Y201235D01*
X216829Y201173D01*
X216811Y201113D01*
X216790Y201054D01*
X216765Y200996D01*
X216736Y200940D01*
X216704Y200886D01*
X216669Y200834D01*
X216631Y200785D01*
X216589Y200737D01*
X216545Y200693D01*
X216497Y200651D01*
X216448Y200613D01*
X216396Y200578D01*
X216342Y200546D01*
X216286Y200517D01*
X216228Y200492D01*
X216169Y200471D01*
X216109Y200453D01*
X216047Y200440D01*
X215985Y200430D01*
X215923Y200424D01*
X215860Y200422D01*
X215797Y200424D01*
X215735Y200430D01*
X215673Y200440D01*
X215611Y200453D01*
X215551Y200471D01*
X215492Y200492D01*
X215434Y200517D01*
X215378Y200546D01*
X215324Y200578D01*
X215272Y200613D01*
X215223Y200651D01*
X215175Y200693D01*
X215131Y200737D01*
X215089Y200785D01*
X215051Y200834D01*
X215016Y200886D01*
X214984Y200940D01*
X214955Y200996D01*
X214930Y201054D01*
X214909Y201113D01*
X214891Y201173D01*
X214878Y201235D01*
X214868Y201297D01*
X214862Y201359D01*
X214860Y201422D01*
D12*
X205260Y195472D02*
X145260Y195472D01*
X145260Y245472D02*
X205260Y245472D01*
D14*
X54292Y6285D02*
X46926Y6285D01*
X46926Y4239D02*
X46926Y8331D01*
X46926Y11428D02*
X54292Y11428D01*
X46926Y11428D02*
X46926Y13474D01*
X46928Y13563D01*
X46934Y13652D01*
X46944Y13741D01*
X46957Y13829D01*
X46974Y13917D01*
X46996Y14004D01*
X47021Y14089D01*
X47049Y14174D01*
X47082Y14257D01*
X47118Y14339D01*
X47157Y14419D01*
X47200Y14497D01*
X47246Y14573D01*
X47296Y14648D01*
X47349Y14720D01*
X47405Y14789D01*
X47464Y14856D01*
X47525Y14921D01*
X47590Y14982D01*
X47657Y15041D01*
X47726Y15097D01*
X47798Y15150D01*
X47873Y15200D01*
X47949Y15246D01*
X48027Y15289D01*
X48107Y15328D01*
X48189Y15364D01*
X48272Y15397D01*
X48357Y15425D01*
X48442Y15450D01*
X48529Y15472D01*
X48617Y15489D01*
X48705Y15502D01*
X48794Y15512D01*
X48883Y15518D01*
X48972Y15520D01*
X49061Y15518D01*
X49150Y15512D01*
X49239Y15502D01*
X49327Y15489D01*
X49415Y15472D01*
X49502Y15450D01*
X49587Y15425D01*
X49672Y15397D01*
X49755Y15364D01*
X49837Y15328D01*
X49917Y15289D01*
X49995Y15246D01*
X50071Y15200D01*
X50146Y15150D01*
X50218Y15097D01*
X50287Y15041D01*
X50354Y14982D01*
X50419Y14921D01*
X50480Y14856D01*
X50539Y14789D01*
X50595Y14720D01*
X50648Y14648D01*
X50698Y14573D01*
X50744Y14497D01*
X50787Y14419D01*
X50826Y14339D01*
X50862Y14257D01*
X50895Y14174D01*
X50923Y14089D01*
X50948Y14004D01*
X50970Y13917D01*
X50987Y13829D01*
X51000Y13741D01*
X51010Y13652D01*
X51016Y13563D01*
X51018Y13474D01*
X51018Y11428D01*
X55110Y18059D02*
X55110Y21333D01*
X54292Y24595D02*
X46926Y24595D01*
X46926Y26641D01*
X46928Y26730D01*
X46934Y26819D01*
X46944Y26908D01*
X46957Y26996D01*
X46974Y27084D01*
X46996Y27171D01*
X47021Y27256D01*
X47049Y27341D01*
X47082Y27424D01*
X47118Y27506D01*
X47157Y27586D01*
X47200Y27664D01*
X47246Y27740D01*
X47296Y27815D01*
X47349Y27887D01*
X47405Y27956D01*
X47464Y28023D01*
X47525Y28088D01*
X47590Y28149D01*
X47657Y28208D01*
X47726Y28264D01*
X47798Y28317D01*
X47873Y28367D01*
X47949Y28413D01*
X48027Y28456D01*
X48107Y28495D01*
X48189Y28531D01*
X48272Y28564D01*
X48357Y28592D01*
X48442Y28617D01*
X48529Y28639D01*
X48617Y28656D01*
X48705Y28669D01*
X48794Y28679D01*
X48883Y28685D01*
X48972Y28687D01*
X49061Y28685D01*
X49150Y28679D01*
X49239Y28669D01*
X49327Y28656D01*
X49415Y28639D01*
X49502Y28617D01*
X49587Y28592D01*
X49672Y28564D01*
X49755Y28531D01*
X49837Y28495D01*
X49917Y28456D01*
X49995Y28413D01*
X50071Y28367D01*
X50146Y28317D01*
X50218Y28264D01*
X50287Y28208D01*
X50354Y28149D01*
X50419Y28088D01*
X50480Y28023D01*
X50539Y27956D01*
X50595Y27887D01*
X50648Y27815D01*
X50698Y27740D01*
X50744Y27664D01*
X50787Y27586D01*
X50826Y27506D01*
X50862Y27424D01*
X50895Y27341D01*
X50923Y27256D01*
X50948Y27171D01*
X50970Y27084D01*
X50987Y26996D01*
X51000Y26908D01*
X51010Y26819D01*
X51016Y26730D01*
X51018Y26641D01*
X51018Y24595D01*
X54292Y31844D02*
X46926Y31844D01*
X46926Y33890D01*
X46928Y33979D01*
X46934Y34068D01*
X46944Y34157D01*
X46957Y34245D01*
X46974Y34333D01*
X46996Y34420D01*
X47021Y34505D01*
X47049Y34590D01*
X47082Y34673D01*
X47118Y34755D01*
X47157Y34835D01*
X47200Y34913D01*
X47246Y34989D01*
X47296Y35064D01*
X47349Y35136D01*
X47405Y35205D01*
X47464Y35272D01*
X47525Y35337D01*
X47590Y35398D01*
X47657Y35457D01*
X47726Y35513D01*
X47798Y35566D01*
X47873Y35616D01*
X47949Y35662D01*
X48027Y35705D01*
X48107Y35744D01*
X48189Y35780D01*
X48272Y35813D01*
X48357Y35841D01*
X48442Y35866D01*
X48529Y35888D01*
X48617Y35905D01*
X48705Y35918D01*
X48794Y35928D01*
X48883Y35934D01*
X48972Y35936D01*
X49061Y35934D01*
X49150Y35928D01*
X49239Y35918D01*
X49327Y35905D01*
X49415Y35888D01*
X49502Y35866D01*
X49587Y35841D01*
X49672Y35813D01*
X49755Y35780D01*
X49837Y35744D01*
X49917Y35705D01*
X49995Y35662D01*
X50071Y35616D01*
X50146Y35566D01*
X50218Y35513D01*
X50287Y35457D01*
X50354Y35398D01*
X50419Y35337D01*
X50480Y35272D01*
X50539Y35205D01*
X50595Y35136D01*
X50648Y35064D01*
X50698Y34989D01*
X50744Y34913D01*
X50787Y34835D01*
X50826Y34755D01*
X50862Y34673D01*
X50895Y34590D01*
X50923Y34505D01*
X50948Y34420D01*
X50970Y34333D01*
X50987Y34245D01*
X51000Y34157D01*
X51010Y34068D01*
X51016Y33979D01*
X51018Y33890D01*
X51018Y31844D01*
X51018Y34299D02*
X54292Y35936D01*
X52246Y39108D02*
X48972Y39108D01*
X48883Y39110D01*
X48794Y39116D01*
X48705Y39126D01*
X48617Y39139D01*
X48529Y39156D01*
X48442Y39178D01*
X48357Y39203D01*
X48272Y39231D01*
X48189Y39264D01*
X48107Y39300D01*
X48027Y39339D01*
X47949Y39382D01*
X47873Y39428D01*
X47798Y39478D01*
X47726Y39531D01*
X47657Y39587D01*
X47590Y39646D01*
X47525Y39707D01*
X47464Y39772D01*
X47405Y39839D01*
X47349Y39908D01*
X47296Y39980D01*
X47246Y40055D01*
X47200Y40131D01*
X47157Y40209D01*
X47118Y40289D01*
X47082Y40371D01*
X47049Y40454D01*
X47021Y40539D01*
X46996Y40624D01*
X46974Y40711D01*
X46957Y40799D01*
X46944Y40887D01*
X46934Y40976D01*
X46928Y41065D01*
X46926Y41154D01*
X46928Y41243D01*
X46934Y41332D01*
X46944Y41421D01*
X46957Y41509D01*
X46974Y41597D01*
X46996Y41684D01*
X47021Y41769D01*
X47049Y41854D01*
X47082Y41937D01*
X47118Y42019D01*
X47157Y42099D01*
X47200Y42177D01*
X47246Y42253D01*
X47296Y42328D01*
X47349Y42400D01*
X47405Y42469D01*
X47464Y42536D01*
X47525Y42601D01*
X47590Y42662D01*
X47657Y42721D01*
X47726Y42777D01*
X47798Y42830D01*
X47873Y42880D01*
X47949Y42926D01*
X48027Y42969D01*
X48107Y43008D01*
X48189Y43044D01*
X48272Y43077D01*
X48357Y43105D01*
X48442Y43130D01*
X48529Y43152D01*
X48617Y43169D01*
X48705Y43182D01*
X48794Y43192D01*
X48883Y43198D01*
X48972Y43200D01*
X52246Y43200D01*
X52335Y43198D01*
X52424Y43192D01*
X52513Y43182D01*
X52601Y43169D01*
X52689Y43152D01*
X52776Y43130D01*
X52861Y43105D01*
X52946Y43077D01*
X53029Y43044D01*
X53111Y43008D01*
X53191Y42969D01*
X53269Y42926D01*
X53345Y42880D01*
X53420Y42830D01*
X53492Y42777D01*
X53561Y42721D01*
X53628Y42662D01*
X53693Y42601D01*
X53754Y42536D01*
X53813Y42469D01*
X53869Y42400D01*
X53922Y42328D01*
X53972Y42253D01*
X54018Y42177D01*
X54061Y42099D01*
X54100Y42019D01*
X54136Y41937D01*
X54169Y41854D01*
X54197Y41769D01*
X54222Y41684D01*
X54244Y41597D01*
X54261Y41509D01*
X54274Y41421D01*
X54284Y41332D01*
X54290Y41243D01*
X54292Y41154D01*
X54290Y41065D01*
X54284Y40976D01*
X54274Y40887D01*
X54261Y40799D01*
X54244Y40711D01*
X54222Y40624D01*
X54197Y40539D01*
X54169Y40454D01*
X54136Y40371D01*
X54100Y40289D01*
X54061Y40209D01*
X54018Y40131D01*
X53972Y40055D01*
X53922Y39980D01*
X53869Y39908D01*
X53813Y39839D01*
X53754Y39772D01*
X53693Y39707D01*
X53628Y39646D01*
X53561Y39587D01*
X53492Y39531D01*
X53420Y39478D01*
X53345Y39428D01*
X53269Y39382D01*
X53191Y39339D01*
X53111Y39300D01*
X53029Y39264D01*
X52946Y39231D01*
X52861Y39203D01*
X52776Y39178D01*
X52689Y39156D01*
X52601Y39139D01*
X52513Y39126D01*
X52424Y39116D01*
X52335Y39110D01*
X52246Y39108D01*
X54292Y48037D02*
X54292Y49674D01*
X54292Y48037D02*
X54290Y47959D01*
X54285Y47881D01*
X54275Y47804D01*
X54262Y47727D01*
X54246Y47651D01*
X54226Y47576D01*
X54202Y47502D01*
X54175Y47429D01*
X54144Y47357D01*
X54110Y47287D01*
X54073Y47219D01*
X54032Y47152D01*
X53988Y47087D01*
X53942Y47025D01*
X53892Y46965D01*
X53840Y46907D01*
X53785Y46852D01*
X53727Y46800D01*
X53667Y46750D01*
X53605Y46704D01*
X53540Y46660D01*
X53474Y46619D01*
X53405Y46582D01*
X53335Y46548D01*
X53263Y46517D01*
X53190Y46490D01*
X53116Y46466D01*
X53041Y46446D01*
X52965Y46430D01*
X52888Y46417D01*
X52811Y46407D01*
X52733Y46402D01*
X52655Y46400D01*
X48563Y46400D01*
X48483Y46402D01*
X48403Y46408D01*
X48323Y46418D01*
X48244Y46431D01*
X48165Y46449D01*
X48088Y46470D01*
X48012Y46496D01*
X47937Y46525D01*
X47863Y46557D01*
X47791Y46593D01*
X47721Y46633D01*
X47654Y46676D01*
X47588Y46722D01*
X47525Y46772D01*
X47464Y46824D01*
X47405Y46879D01*
X47350Y46938D01*
X47298Y46998D01*
X47248Y47062D01*
X47202Y47127D01*
X47159Y47195D01*
X47119Y47265D01*
X47083Y47337D01*
X47051Y47411D01*
X47022Y47485D01*
X46997Y47562D01*
X46975Y47639D01*
X46957Y47718D01*
X46944Y47797D01*
X46934Y47876D01*
X46928Y47957D01*
X46926Y48037D01*
X46926Y49674D01*
X64960Y6285D02*
X72326Y6285D01*
X64960Y4239D02*
X64960Y8331D01*
X64960Y11428D02*
X72326Y11428D01*
X64960Y11428D02*
X64960Y13474D01*
X64962Y13563D01*
X64968Y13652D01*
X64978Y13741D01*
X64991Y13829D01*
X65008Y13917D01*
X65030Y14004D01*
X65055Y14089D01*
X65083Y14174D01*
X65116Y14257D01*
X65152Y14339D01*
X65191Y14419D01*
X65234Y14497D01*
X65280Y14573D01*
X65330Y14648D01*
X65383Y14720D01*
X65439Y14789D01*
X65498Y14856D01*
X65559Y14921D01*
X65624Y14982D01*
X65691Y15041D01*
X65760Y15097D01*
X65832Y15150D01*
X65907Y15200D01*
X65983Y15246D01*
X66061Y15289D01*
X66141Y15328D01*
X66223Y15364D01*
X66306Y15397D01*
X66391Y15425D01*
X66476Y15450D01*
X66563Y15472D01*
X66651Y15489D01*
X66739Y15502D01*
X66828Y15512D01*
X66917Y15518D01*
X67006Y15520D01*
X67095Y15518D01*
X67184Y15512D01*
X67273Y15502D01*
X67361Y15489D01*
X67449Y15472D01*
X67536Y15450D01*
X67621Y15425D01*
X67706Y15397D01*
X67789Y15364D01*
X67871Y15328D01*
X67951Y15289D01*
X68029Y15246D01*
X68105Y15200D01*
X68180Y15150D01*
X68252Y15097D01*
X68321Y15041D01*
X68388Y14982D01*
X68453Y14921D01*
X68514Y14856D01*
X68573Y14789D01*
X68629Y14720D01*
X68682Y14648D01*
X68732Y14573D01*
X68778Y14497D01*
X68821Y14419D01*
X68860Y14339D01*
X68896Y14257D01*
X68929Y14174D01*
X68957Y14089D01*
X68982Y14004D01*
X69004Y13917D01*
X69021Y13829D01*
X69034Y13741D01*
X69044Y13652D01*
X69050Y13563D01*
X69052Y13474D01*
X69052Y11428D01*
X73144Y18059D02*
X73144Y21333D01*
X72326Y24478D02*
X64960Y24478D01*
X64960Y26524D01*
X64962Y26613D01*
X64968Y26702D01*
X64978Y26791D01*
X64991Y26879D01*
X65008Y26967D01*
X65030Y27054D01*
X65055Y27139D01*
X65083Y27224D01*
X65116Y27307D01*
X65152Y27389D01*
X65191Y27469D01*
X65234Y27547D01*
X65280Y27623D01*
X65330Y27698D01*
X65383Y27770D01*
X65439Y27839D01*
X65498Y27906D01*
X65559Y27971D01*
X65624Y28032D01*
X65691Y28091D01*
X65760Y28147D01*
X65832Y28200D01*
X65907Y28250D01*
X65983Y28296D01*
X66061Y28339D01*
X66141Y28378D01*
X66223Y28414D01*
X66306Y28447D01*
X66391Y28475D01*
X66476Y28500D01*
X66563Y28522D01*
X66651Y28539D01*
X66739Y28552D01*
X66828Y28562D01*
X66917Y28568D01*
X67006Y28570D01*
X70280Y28570D01*
X70369Y28568D01*
X70458Y28562D01*
X70547Y28552D01*
X70635Y28539D01*
X70723Y28522D01*
X70810Y28500D01*
X70895Y28475D01*
X70980Y28447D01*
X71063Y28414D01*
X71145Y28378D01*
X71225Y28339D01*
X71303Y28296D01*
X71379Y28250D01*
X71454Y28200D01*
X71526Y28147D01*
X71595Y28091D01*
X71662Y28032D01*
X71727Y27971D01*
X71788Y27906D01*
X71847Y27839D01*
X71903Y27770D01*
X71956Y27698D01*
X72006Y27623D01*
X72052Y27547D01*
X72095Y27469D01*
X72134Y27389D01*
X72170Y27307D01*
X72203Y27224D01*
X72231Y27139D01*
X72256Y27054D01*
X72278Y26967D01*
X72295Y26879D01*
X72308Y26791D01*
X72318Y26702D01*
X72324Y26613D01*
X72326Y26524D01*
X72326Y24478D01*
X72326Y33595D02*
X64960Y33595D01*
X64960Y31549D02*
X64960Y35641D01*
X64960Y38672D02*
X72326Y38672D01*
X64960Y38672D02*
X64960Y40718D01*
X64962Y40807D01*
X64968Y40896D01*
X64978Y40985D01*
X64991Y41073D01*
X65008Y41161D01*
X65030Y41248D01*
X65055Y41333D01*
X65083Y41418D01*
X65116Y41501D01*
X65152Y41583D01*
X65191Y41663D01*
X65234Y41741D01*
X65280Y41817D01*
X65330Y41892D01*
X65383Y41964D01*
X65439Y42033D01*
X65498Y42100D01*
X65559Y42165D01*
X65624Y42226D01*
X65691Y42285D01*
X65760Y42341D01*
X65832Y42394D01*
X65907Y42444D01*
X65983Y42490D01*
X66061Y42533D01*
X66141Y42572D01*
X66223Y42608D01*
X66306Y42641D01*
X66391Y42669D01*
X66476Y42694D01*
X66563Y42716D01*
X66651Y42733D01*
X66739Y42746D01*
X66828Y42756D01*
X66917Y42762D01*
X67006Y42764D01*
X67095Y42762D01*
X67184Y42756D01*
X67273Y42746D01*
X67361Y42733D01*
X67449Y42716D01*
X67536Y42694D01*
X67621Y42669D01*
X67706Y42641D01*
X67789Y42608D01*
X67871Y42572D01*
X67951Y42533D01*
X68029Y42490D01*
X68105Y42444D01*
X68180Y42394D01*
X68252Y42341D01*
X68321Y42285D01*
X68388Y42226D01*
X68453Y42165D01*
X68514Y42100D01*
X68573Y42033D01*
X68629Y41964D01*
X68682Y41892D01*
X68732Y41817D01*
X68778Y41741D01*
X68821Y41663D01*
X68860Y41583D01*
X68896Y41501D01*
X68929Y41418D01*
X68957Y41333D01*
X68982Y41248D01*
X69004Y41161D01*
X69021Y41073D01*
X69034Y40985D01*
X69044Y40896D01*
X69050Y40807D01*
X69052Y40718D01*
X69052Y38672D01*
X69052Y41127D02*
X72326Y42764D01*
X126424Y186372D02*
X126424Y193738D01*
X124378Y193738D02*
X128471Y193738D01*
X131567Y193738D02*
X131567Y186372D01*
X131567Y193738D02*
X133613Y193738D01*
X133702Y193736D01*
X133791Y193730D01*
X133880Y193720D01*
X133968Y193707D01*
X134056Y193690D01*
X134143Y193668D01*
X134228Y193643D01*
X134313Y193615D01*
X134396Y193582D01*
X134478Y193546D01*
X134558Y193507D01*
X134636Y193464D01*
X134712Y193418D01*
X134787Y193368D01*
X134859Y193315D01*
X134928Y193259D01*
X134995Y193200D01*
X135060Y193139D01*
X135121Y193074D01*
X135180Y193007D01*
X135236Y192938D01*
X135289Y192866D01*
X135339Y192791D01*
X135385Y192715D01*
X135428Y192637D01*
X135467Y192557D01*
X135503Y192475D01*
X135536Y192392D01*
X135564Y192307D01*
X135589Y192222D01*
X135611Y192135D01*
X135628Y192047D01*
X135641Y191959D01*
X135651Y191870D01*
X135657Y191781D01*
X135659Y191692D01*
X135657Y191603D01*
X135651Y191514D01*
X135641Y191425D01*
X135628Y191337D01*
X135611Y191249D01*
X135589Y191162D01*
X135564Y191077D01*
X135536Y190992D01*
X135503Y190909D01*
X135467Y190827D01*
X135428Y190747D01*
X135385Y190669D01*
X135339Y190593D01*
X135289Y190518D01*
X135236Y190446D01*
X135180Y190377D01*
X135121Y190310D01*
X135060Y190245D01*
X134995Y190184D01*
X134928Y190125D01*
X134859Y190069D01*
X134787Y190016D01*
X134712Y189966D01*
X134636Y189920D01*
X134558Y189877D01*
X134478Y189838D01*
X134396Y189802D01*
X134313Y189769D01*
X134228Y189741D01*
X134143Y189716D01*
X134056Y189694D01*
X133968Y189677D01*
X133880Y189664D01*
X133791Y189654D01*
X133702Y189648D01*
X133613Y189646D01*
X131567Y189646D01*
X138199Y185554D02*
X141473Y185554D01*
X146585Y186372D02*
X146663Y186374D01*
X146741Y186379D01*
X146818Y186389D01*
X146895Y186402D01*
X146971Y186418D01*
X147046Y186438D01*
X147120Y186462D01*
X147193Y186489D01*
X147265Y186520D01*
X147335Y186554D01*
X147404Y186591D01*
X147470Y186632D01*
X147535Y186676D01*
X147597Y186722D01*
X147657Y186772D01*
X147715Y186824D01*
X147770Y186879D01*
X147822Y186937D01*
X147872Y186997D01*
X147918Y187059D01*
X147962Y187124D01*
X148003Y187191D01*
X148040Y187259D01*
X148074Y187329D01*
X148105Y187401D01*
X148132Y187474D01*
X148156Y187548D01*
X148176Y187623D01*
X148192Y187699D01*
X148205Y187776D01*
X148215Y187853D01*
X148220Y187931D01*
X148222Y188009D01*
X146585Y186372D02*
X146471Y186374D01*
X146358Y186379D01*
X146244Y186389D01*
X146131Y186402D01*
X146019Y186419D01*
X145907Y186439D01*
X145796Y186463D01*
X145685Y186491D01*
X145576Y186522D01*
X145468Y186557D01*
X145361Y186596D01*
X145255Y186638D01*
X145151Y186683D01*
X145048Y186732D01*
X144947Y186785D01*
X144848Y186840D01*
X144750Y186899D01*
X144655Y186961D01*
X144562Y187026D01*
X144470Y187094D01*
X144382Y187165D01*
X144295Y187239D01*
X144211Y187316D01*
X144130Y187395D01*
X144334Y192101D02*
X144336Y192179D01*
X144341Y192257D01*
X144351Y192334D01*
X144364Y192411D01*
X144380Y192487D01*
X144400Y192562D01*
X144424Y192636D01*
X144451Y192709D01*
X144482Y192781D01*
X144516Y192851D01*
X144553Y192920D01*
X144594Y192986D01*
X144638Y193051D01*
X144684Y193113D01*
X144734Y193173D01*
X144786Y193231D01*
X144841Y193286D01*
X144899Y193338D01*
X144959Y193388D01*
X145021Y193434D01*
X145086Y193478D01*
X145153Y193519D01*
X145221Y193556D01*
X145291Y193590D01*
X145363Y193621D01*
X145436Y193648D01*
X145510Y193672D01*
X145585Y193692D01*
X145661Y193708D01*
X145738Y193721D01*
X145815Y193731D01*
X145893Y193736D01*
X145971Y193738D01*
X146081Y193736D01*
X146190Y193730D01*
X146300Y193720D01*
X146408Y193707D01*
X146517Y193689D01*
X146624Y193668D01*
X146731Y193642D01*
X146837Y193613D01*
X146942Y193581D01*
X147045Y193544D01*
X147147Y193504D01*
X147248Y193460D01*
X147347Y193412D01*
X147444Y193362D01*
X147539Y193307D01*
X147632Y193249D01*
X147723Y193188D01*
X147812Y193124D01*
X145152Y190668D02*
X145085Y190710D01*
X145020Y190754D01*
X144958Y190802D01*
X144898Y190852D01*
X144840Y190905D01*
X144785Y190961D01*
X144733Y191020D01*
X144683Y191080D01*
X144636Y191144D01*
X144593Y191209D01*
X144552Y191276D01*
X144515Y191345D01*
X144481Y191416D01*
X144450Y191488D01*
X144423Y191562D01*
X144399Y191636D01*
X144379Y191712D01*
X144363Y191789D01*
X144350Y191866D01*
X144340Y191944D01*
X144335Y192023D01*
X144333Y192101D01*
X147403Y189441D02*
X147469Y189399D01*
X147534Y189355D01*
X147596Y189308D01*
X147656Y189257D01*
X147714Y189204D01*
X147769Y189148D01*
X147822Y189090D01*
X147871Y189029D01*
X147918Y188966D01*
X147961Y188901D01*
X148002Y188834D01*
X148039Y188765D01*
X148073Y188694D01*
X148104Y188622D01*
X148131Y188548D01*
X148155Y188473D01*
X148175Y188398D01*
X148191Y188321D01*
X148204Y188244D01*
X148214Y188166D01*
X148219Y188087D01*
X148221Y188009D01*
X147403Y189441D02*
X145152Y190669D01*
X152759Y193738D02*
X152759Y186372D01*
X150713Y193738D02*
X154805Y193738D01*
X157541Y191692D02*
X157541Y188418D01*
X157541Y191692D02*
X157543Y191781D01*
X157549Y191870D01*
X157559Y191959D01*
X157572Y192047D01*
X157589Y192135D01*
X157611Y192222D01*
X157636Y192307D01*
X157664Y192392D01*
X157697Y192475D01*
X157733Y192557D01*
X157772Y192637D01*
X157815Y192715D01*
X157861Y192791D01*
X157911Y192866D01*
X157964Y192938D01*
X158020Y193007D01*
X158079Y193074D01*
X158140Y193139D01*
X158205Y193200D01*
X158272Y193259D01*
X158341Y193315D01*
X158413Y193368D01*
X158488Y193418D01*
X158564Y193464D01*
X158642Y193507D01*
X158722Y193546D01*
X158804Y193582D01*
X158887Y193615D01*
X158972Y193643D01*
X159057Y193668D01*
X159144Y193690D01*
X159232Y193707D01*
X159320Y193720D01*
X159409Y193730D01*
X159498Y193736D01*
X159587Y193738D01*
X159676Y193736D01*
X159765Y193730D01*
X159854Y193720D01*
X159942Y193707D01*
X160030Y193690D01*
X160117Y193668D01*
X160202Y193643D01*
X160287Y193615D01*
X160370Y193582D01*
X160452Y193546D01*
X160532Y193507D01*
X160610Y193464D01*
X160686Y193418D01*
X160761Y193368D01*
X160833Y193315D01*
X160902Y193259D01*
X160969Y193200D01*
X161034Y193139D01*
X161095Y193074D01*
X161154Y193007D01*
X161210Y192938D01*
X161263Y192866D01*
X161313Y192791D01*
X161359Y192715D01*
X161402Y192637D01*
X161441Y192557D01*
X161477Y192475D01*
X161510Y192392D01*
X161538Y192307D01*
X161563Y192222D01*
X161585Y192135D01*
X161602Y192047D01*
X161615Y191959D01*
X161625Y191870D01*
X161631Y191781D01*
X161633Y191692D01*
X161633Y188418D01*
X161631Y188329D01*
X161625Y188240D01*
X161615Y188151D01*
X161602Y188063D01*
X161585Y187975D01*
X161563Y187888D01*
X161538Y187803D01*
X161510Y187718D01*
X161477Y187635D01*
X161441Y187553D01*
X161402Y187473D01*
X161359Y187395D01*
X161313Y187319D01*
X161263Y187244D01*
X161210Y187172D01*
X161154Y187103D01*
X161095Y187036D01*
X161034Y186971D01*
X160969Y186910D01*
X160902Y186851D01*
X160833Y186795D01*
X160761Y186742D01*
X160686Y186692D01*
X160610Y186646D01*
X160532Y186603D01*
X160452Y186564D01*
X160370Y186528D01*
X160287Y186495D01*
X160202Y186467D01*
X160117Y186442D01*
X160030Y186420D01*
X159942Y186403D01*
X159854Y186390D01*
X159765Y186380D01*
X159676Y186374D01*
X159587Y186372D01*
X159498Y186374D01*
X159409Y186380D01*
X159320Y186390D01*
X159232Y186403D01*
X159144Y186420D01*
X159057Y186442D01*
X158972Y186467D01*
X158887Y186495D01*
X158804Y186528D01*
X158722Y186564D01*
X158642Y186603D01*
X158564Y186646D01*
X158488Y186692D01*
X158413Y186742D01*
X158341Y186795D01*
X158272Y186851D01*
X158205Y186910D01*
X158140Y186971D01*
X158079Y187036D01*
X158020Y187103D01*
X157964Y187172D01*
X157911Y187244D01*
X157861Y187319D01*
X157815Y187395D01*
X157772Y187473D01*
X157733Y187553D01*
X157697Y187635D01*
X157664Y187718D01*
X157636Y187803D01*
X157611Y187888D01*
X157589Y187975D01*
X157572Y188063D01*
X157559Y188151D01*
X157549Y188240D01*
X157543Y188329D01*
X157541Y188418D01*
X165151Y186372D02*
X165151Y193738D01*
X167197Y193738D01*
X167286Y193736D01*
X167375Y193730D01*
X167464Y193720D01*
X167552Y193707D01*
X167640Y193690D01*
X167727Y193668D01*
X167812Y193643D01*
X167897Y193615D01*
X167980Y193582D01*
X168062Y193546D01*
X168142Y193507D01*
X168220Y193464D01*
X168296Y193418D01*
X168371Y193368D01*
X168443Y193315D01*
X168512Y193259D01*
X168579Y193200D01*
X168644Y193139D01*
X168705Y193074D01*
X168764Y193007D01*
X168820Y192938D01*
X168873Y192866D01*
X168923Y192791D01*
X168969Y192715D01*
X169012Y192637D01*
X169051Y192557D01*
X169087Y192475D01*
X169120Y192392D01*
X169148Y192307D01*
X169173Y192222D01*
X169195Y192135D01*
X169212Y192047D01*
X169225Y191959D01*
X169235Y191870D01*
X169241Y191781D01*
X169243Y191692D01*
X169241Y191603D01*
X169235Y191514D01*
X169225Y191425D01*
X169212Y191337D01*
X169195Y191249D01*
X169173Y191162D01*
X169148Y191077D01*
X169120Y190992D01*
X169087Y190909D01*
X169051Y190827D01*
X169012Y190747D01*
X168969Y190669D01*
X168923Y190593D01*
X168873Y190518D01*
X168820Y190446D01*
X168764Y190377D01*
X168705Y190310D01*
X168644Y190245D01*
X168579Y190184D01*
X168512Y190125D01*
X168443Y190069D01*
X168371Y190016D01*
X168296Y189966D01*
X168220Y189920D01*
X168142Y189877D01*
X168062Y189838D01*
X167980Y189802D01*
X167897Y189769D01*
X167812Y189741D01*
X167727Y189716D01*
X167640Y189694D01*
X167552Y189677D01*
X167464Y189664D01*
X167375Y189654D01*
X167286Y189648D01*
X167197Y189646D01*
X165151Y189646D01*
X167606Y189646D02*
X169243Y186372D01*
X184740Y31686D02*
X184740Y24320D01*
X182694Y31686D02*
X186787Y31686D01*
X189883Y31686D02*
X189883Y24320D01*
X189883Y31686D02*
X191930Y31686D01*
X192019Y31684D01*
X192108Y31678D01*
X192197Y31668D01*
X192285Y31655D01*
X192373Y31638D01*
X192460Y31616D01*
X192545Y31591D01*
X192630Y31563D01*
X192713Y31530D01*
X192795Y31494D01*
X192875Y31455D01*
X192953Y31412D01*
X193029Y31366D01*
X193104Y31316D01*
X193176Y31263D01*
X193245Y31207D01*
X193312Y31148D01*
X193377Y31087D01*
X193438Y31022D01*
X193497Y30955D01*
X193553Y30886D01*
X193606Y30814D01*
X193656Y30739D01*
X193702Y30663D01*
X193745Y30585D01*
X193784Y30505D01*
X193820Y30423D01*
X193853Y30340D01*
X193881Y30255D01*
X193906Y30170D01*
X193928Y30083D01*
X193945Y29995D01*
X193958Y29907D01*
X193968Y29818D01*
X193974Y29729D01*
X193976Y29640D01*
X193974Y29551D01*
X193968Y29462D01*
X193958Y29373D01*
X193945Y29285D01*
X193928Y29197D01*
X193906Y29110D01*
X193881Y29025D01*
X193853Y28940D01*
X193820Y28857D01*
X193784Y28775D01*
X193745Y28695D01*
X193702Y28617D01*
X193656Y28541D01*
X193606Y28466D01*
X193553Y28394D01*
X193497Y28325D01*
X193438Y28258D01*
X193377Y28193D01*
X193312Y28132D01*
X193245Y28073D01*
X193176Y28017D01*
X193104Y27964D01*
X193029Y27914D01*
X192953Y27868D01*
X192875Y27825D01*
X192795Y27786D01*
X192713Y27750D01*
X192630Y27717D01*
X192545Y27689D01*
X192460Y27664D01*
X192373Y27642D01*
X192285Y27625D01*
X192197Y27612D01*
X192108Y27602D01*
X192019Y27596D01*
X191930Y27594D01*
X189883Y27594D01*
X196515Y23502D02*
X199789Y23502D01*
X204901Y24320D02*
X204979Y24322D01*
X205057Y24327D01*
X205134Y24337D01*
X205211Y24350D01*
X205287Y24366D01*
X205362Y24386D01*
X205436Y24410D01*
X205509Y24437D01*
X205581Y24468D01*
X205651Y24502D01*
X205720Y24539D01*
X205786Y24580D01*
X205851Y24624D01*
X205913Y24670D01*
X205973Y24720D01*
X206031Y24772D01*
X206086Y24827D01*
X206138Y24885D01*
X206188Y24945D01*
X206234Y25007D01*
X206278Y25072D01*
X206319Y25139D01*
X206356Y25207D01*
X206390Y25277D01*
X206421Y25349D01*
X206448Y25422D01*
X206472Y25496D01*
X206492Y25571D01*
X206508Y25647D01*
X206521Y25724D01*
X206531Y25801D01*
X206536Y25879D01*
X206538Y25957D01*
X204901Y24320D02*
X204787Y24322D01*
X204674Y24327D01*
X204560Y24337D01*
X204447Y24350D01*
X204335Y24367D01*
X204223Y24387D01*
X204112Y24411D01*
X204001Y24439D01*
X203892Y24470D01*
X203784Y24505D01*
X203677Y24544D01*
X203571Y24586D01*
X203467Y24631D01*
X203364Y24680D01*
X203263Y24733D01*
X203164Y24788D01*
X203066Y24847D01*
X202971Y24909D01*
X202878Y24974D01*
X202786Y25042D01*
X202698Y25113D01*
X202611Y25187D01*
X202527Y25264D01*
X202446Y25343D01*
X202650Y30049D02*
X202652Y30127D01*
X202657Y30205D01*
X202667Y30282D01*
X202680Y30359D01*
X202696Y30435D01*
X202716Y30510D01*
X202740Y30584D01*
X202767Y30657D01*
X202798Y30729D01*
X202832Y30799D01*
X202869Y30868D01*
X202910Y30934D01*
X202954Y30999D01*
X203000Y31061D01*
X203050Y31121D01*
X203102Y31179D01*
X203157Y31234D01*
X203215Y31286D01*
X203275Y31336D01*
X203337Y31382D01*
X203402Y31426D01*
X203469Y31467D01*
X203537Y31504D01*
X203607Y31538D01*
X203679Y31569D01*
X203752Y31596D01*
X203826Y31620D01*
X203901Y31640D01*
X203977Y31656D01*
X204054Y31669D01*
X204131Y31679D01*
X204209Y31684D01*
X204287Y31686D01*
X204397Y31684D01*
X204506Y31678D01*
X204616Y31668D01*
X204724Y31655D01*
X204833Y31637D01*
X204940Y31616D01*
X205047Y31590D01*
X205153Y31561D01*
X205258Y31529D01*
X205361Y31492D01*
X205463Y31452D01*
X205564Y31408D01*
X205663Y31360D01*
X205760Y31310D01*
X205855Y31255D01*
X205948Y31197D01*
X206039Y31136D01*
X206128Y31072D01*
X203468Y28616D02*
X203401Y28658D01*
X203336Y28702D01*
X203274Y28750D01*
X203214Y28800D01*
X203156Y28853D01*
X203101Y28909D01*
X203049Y28968D01*
X202999Y29028D01*
X202952Y29092D01*
X202909Y29157D01*
X202868Y29224D01*
X202831Y29293D01*
X202797Y29364D01*
X202766Y29436D01*
X202739Y29510D01*
X202715Y29584D01*
X202695Y29660D01*
X202679Y29737D01*
X202666Y29814D01*
X202656Y29892D01*
X202651Y29971D01*
X202649Y30049D01*
X205719Y27389D02*
X205785Y27347D01*
X205850Y27303D01*
X205912Y27256D01*
X205972Y27205D01*
X206030Y27152D01*
X206085Y27096D01*
X206138Y27038D01*
X206187Y26977D01*
X206234Y26914D01*
X206277Y26849D01*
X206318Y26782D01*
X206355Y26713D01*
X206389Y26642D01*
X206420Y26570D01*
X206447Y26496D01*
X206471Y26421D01*
X206491Y26346D01*
X206507Y26269D01*
X206520Y26192D01*
X206530Y26114D01*
X206535Y26035D01*
X206537Y25957D01*
X205719Y27389D02*
X203468Y28617D01*
X209761Y31686D02*
X209761Y24320D01*
X209761Y31686D02*
X211807Y31686D01*
X211896Y31684D01*
X211985Y31678D01*
X212074Y31668D01*
X212162Y31655D01*
X212250Y31638D01*
X212337Y31616D01*
X212422Y31591D01*
X212507Y31563D01*
X212590Y31530D01*
X212672Y31494D01*
X212752Y31455D01*
X212830Y31412D01*
X212906Y31366D01*
X212981Y31316D01*
X213053Y31263D01*
X213122Y31207D01*
X213189Y31148D01*
X213254Y31087D01*
X213315Y31022D01*
X213374Y30955D01*
X213430Y30886D01*
X213483Y30814D01*
X213533Y30739D01*
X213579Y30663D01*
X213622Y30585D01*
X213661Y30505D01*
X213697Y30423D01*
X213730Y30340D01*
X213758Y30255D01*
X213783Y30170D01*
X213805Y30083D01*
X213822Y29995D01*
X213835Y29907D01*
X213845Y29818D01*
X213851Y29729D01*
X213853Y29640D01*
X213853Y26366D01*
X213851Y26277D01*
X213845Y26188D01*
X213835Y26099D01*
X213822Y26011D01*
X213805Y25923D01*
X213783Y25836D01*
X213758Y25751D01*
X213730Y25666D01*
X213697Y25583D01*
X213661Y25501D01*
X213622Y25421D01*
X213579Y25343D01*
X213533Y25267D01*
X213483Y25192D01*
X213430Y25120D01*
X213374Y25051D01*
X213315Y24984D01*
X213254Y24919D01*
X213189Y24858D01*
X213122Y24799D01*
X213053Y24743D01*
X212981Y24690D01*
X212906Y24640D01*
X212830Y24594D01*
X212752Y24551D01*
X212672Y24512D01*
X212590Y24476D01*
X212507Y24443D01*
X212422Y24415D01*
X212337Y24390D01*
X212250Y24368D01*
X212162Y24351D01*
X212074Y24338D01*
X211985Y24328D01*
X211896Y24322D01*
X211807Y24320D01*
X209761Y24320D01*
X216910Y24320D02*
X219366Y31686D01*
X221821Y24320D01*
X221207Y26162D02*
X217524Y26162D01*
X186907Y14668D02*
X186907Y7302D01*
X184861Y14668D02*
X188954Y14668D01*
X192050Y14668D02*
X192050Y7302D01*
X192050Y14668D02*
X194097Y14668D01*
X194186Y14666D01*
X194275Y14660D01*
X194364Y14650D01*
X194452Y14637D01*
X194540Y14620D01*
X194627Y14598D01*
X194712Y14573D01*
X194797Y14545D01*
X194880Y14512D01*
X194962Y14476D01*
X195042Y14437D01*
X195120Y14394D01*
X195196Y14348D01*
X195271Y14298D01*
X195343Y14245D01*
X195412Y14189D01*
X195479Y14130D01*
X195544Y14069D01*
X195605Y14004D01*
X195664Y13937D01*
X195720Y13868D01*
X195773Y13796D01*
X195823Y13721D01*
X195869Y13645D01*
X195912Y13567D01*
X195951Y13487D01*
X195987Y13405D01*
X196020Y13322D01*
X196048Y13237D01*
X196073Y13152D01*
X196095Y13065D01*
X196112Y12977D01*
X196125Y12889D01*
X196135Y12800D01*
X196141Y12711D01*
X196143Y12622D01*
X196141Y12533D01*
X196135Y12444D01*
X196125Y12355D01*
X196112Y12267D01*
X196095Y12179D01*
X196073Y12092D01*
X196048Y12007D01*
X196020Y11922D01*
X195987Y11839D01*
X195951Y11757D01*
X195912Y11677D01*
X195869Y11599D01*
X195823Y11523D01*
X195773Y11448D01*
X195720Y11376D01*
X195664Y11307D01*
X195605Y11240D01*
X195544Y11175D01*
X195479Y11114D01*
X195412Y11055D01*
X195343Y10999D01*
X195271Y10946D01*
X195196Y10896D01*
X195120Y10850D01*
X195042Y10807D01*
X194962Y10768D01*
X194880Y10732D01*
X194797Y10699D01*
X194712Y10671D01*
X194627Y10646D01*
X194540Y10624D01*
X194452Y10607D01*
X194364Y10594D01*
X194275Y10584D01*
X194186Y10578D01*
X194097Y10576D01*
X192050Y10576D01*
X198682Y6484D02*
X201956Y6484D01*
X207068Y7302D02*
X207146Y7304D01*
X207224Y7309D01*
X207301Y7319D01*
X207378Y7332D01*
X207454Y7348D01*
X207529Y7368D01*
X207603Y7392D01*
X207676Y7419D01*
X207748Y7450D01*
X207818Y7484D01*
X207887Y7521D01*
X207953Y7562D01*
X208018Y7606D01*
X208080Y7652D01*
X208140Y7702D01*
X208198Y7754D01*
X208253Y7809D01*
X208305Y7867D01*
X208355Y7927D01*
X208401Y7989D01*
X208445Y8054D01*
X208486Y8121D01*
X208523Y8189D01*
X208557Y8259D01*
X208588Y8331D01*
X208615Y8404D01*
X208639Y8478D01*
X208659Y8553D01*
X208675Y8629D01*
X208688Y8706D01*
X208698Y8783D01*
X208703Y8861D01*
X208705Y8939D01*
X207068Y7302D02*
X206954Y7304D01*
X206841Y7309D01*
X206727Y7319D01*
X206614Y7332D01*
X206502Y7349D01*
X206390Y7369D01*
X206279Y7393D01*
X206168Y7421D01*
X206059Y7452D01*
X205951Y7487D01*
X205844Y7526D01*
X205738Y7568D01*
X205634Y7613D01*
X205531Y7662D01*
X205430Y7715D01*
X205331Y7770D01*
X205233Y7829D01*
X205138Y7891D01*
X205045Y7956D01*
X204953Y8024D01*
X204865Y8095D01*
X204778Y8169D01*
X204694Y8246D01*
X204613Y8325D01*
X204817Y13031D02*
X204819Y13109D01*
X204824Y13187D01*
X204834Y13264D01*
X204847Y13341D01*
X204863Y13417D01*
X204883Y13492D01*
X204907Y13566D01*
X204934Y13639D01*
X204965Y13711D01*
X204999Y13781D01*
X205036Y13850D01*
X205077Y13916D01*
X205121Y13981D01*
X205167Y14043D01*
X205217Y14103D01*
X205269Y14161D01*
X205324Y14216D01*
X205382Y14268D01*
X205442Y14318D01*
X205504Y14364D01*
X205569Y14408D01*
X205636Y14449D01*
X205704Y14486D01*
X205774Y14520D01*
X205846Y14551D01*
X205919Y14578D01*
X205993Y14602D01*
X206068Y14622D01*
X206144Y14638D01*
X206221Y14651D01*
X206298Y14661D01*
X206376Y14666D01*
X206454Y14668D01*
X206564Y14666D01*
X206673Y14660D01*
X206783Y14650D01*
X206891Y14637D01*
X207000Y14619D01*
X207107Y14598D01*
X207214Y14572D01*
X207320Y14543D01*
X207425Y14511D01*
X207528Y14474D01*
X207630Y14434D01*
X207731Y14390D01*
X207830Y14342D01*
X207927Y14292D01*
X208022Y14237D01*
X208115Y14179D01*
X208206Y14118D01*
X208295Y14054D01*
X205635Y11598D02*
X205568Y11640D01*
X205503Y11684D01*
X205441Y11732D01*
X205381Y11782D01*
X205323Y11835D01*
X205268Y11891D01*
X205216Y11950D01*
X205166Y12010D01*
X205119Y12074D01*
X205076Y12139D01*
X205035Y12206D01*
X204998Y12275D01*
X204964Y12346D01*
X204933Y12418D01*
X204906Y12492D01*
X204882Y12566D01*
X204862Y12642D01*
X204846Y12719D01*
X204833Y12796D01*
X204823Y12874D01*
X204818Y12953D01*
X204816Y13031D01*
X207886Y10371D02*
X207952Y10329D01*
X208017Y10285D01*
X208079Y10238D01*
X208139Y10187D01*
X208197Y10134D01*
X208252Y10078D01*
X208305Y10020D01*
X208354Y9959D01*
X208401Y9896D01*
X208444Y9831D01*
X208485Y9764D01*
X208522Y9695D01*
X208556Y9624D01*
X208587Y9552D01*
X208614Y9478D01*
X208638Y9403D01*
X208658Y9328D01*
X208674Y9251D01*
X208687Y9174D01*
X208697Y9096D01*
X208702Y9017D01*
X208704Y8939D01*
X207886Y10371D02*
X205635Y11599D01*
X213298Y7302D02*
X214934Y7302D01*
X213298Y7302D02*
X213220Y7304D01*
X213142Y7309D01*
X213065Y7319D01*
X212988Y7332D01*
X212912Y7348D01*
X212837Y7368D01*
X212763Y7392D01*
X212690Y7419D01*
X212618Y7450D01*
X212548Y7484D01*
X212480Y7521D01*
X212413Y7562D01*
X212348Y7606D01*
X212286Y7652D01*
X212226Y7702D01*
X212168Y7754D01*
X212113Y7809D01*
X212061Y7867D01*
X212011Y7927D01*
X211965Y7989D01*
X211921Y8054D01*
X211880Y8121D01*
X211843Y8189D01*
X211809Y8259D01*
X211778Y8331D01*
X211751Y8404D01*
X211727Y8478D01*
X211707Y8553D01*
X211691Y8629D01*
X211678Y8706D01*
X211668Y8783D01*
X211663Y8861D01*
X211661Y8939D01*
X211661Y13031D01*
X211663Y13111D01*
X211669Y13191D01*
X211679Y13271D01*
X211692Y13350D01*
X211710Y13429D01*
X211731Y13506D01*
X211757Y13582D01*
X211786Y13657D01*
X211818Y13731D01*
X211854Y13803D01*
X211894Y13873D01*
X211937Y13940D01*
X211983Y14006D01*
X212033Y14069D01*
X212085Y14130D01*
X212140Y14189D01*
X212199Y14244D01*
X212259Y14296D01*
X212323Y14346D01*
X212389Y14392D01*
X212456Y14435D01*
X212526Y14475D01*
X212598Y14511D01*
X212672Y14543D01*
X212746Y14572D01*
X212823Y14598D01*
X212900Y14619D01*
X212979Y14637D01*
X213058Y14650D01*
X213138Y14660D01*
X213218Y14666D01*
X213298Y14668D01*
X214934Y14668D01*
X218039Y14668D02*
X218039Y7302D01*
X221313Y7302D01*
D12*
X247918Y81266D02*
X247918Y111266D01*
X217918Y111266D02*
X217918Y81266D01*
X247918Y81266D01*
X247918Y111266D02*
X217918Y111266D01*
M02*
