G04 EAGLE Gerber RS-274X export*
G75*
%MOMM*%
%FSLAX34Y34*%
%LPD*%
%INSilkscreen Top*%
%IPPOS*%
%AMOC8*
5,1,8,0,0,1.08239X$1,22.5*%
G01*
%ADD10C,0.150000*%
%ADD11C,0.500000*%
%ADD12C,0.127000*%
%ADD13C,0.177800*%
%ADD14C,0.203200*%
%ADD15C,0.076200*%
%ADD16C,0.254000*%
%ADD17C,0.101600*%
%ADD18R,0.500000X0.500000*%
%ADD19C,0.050800*%
%ADD20C,0.152400*%
%ADD21C,0.200000*%


D10*
X322014Y180976D02*
X322014Y196976D01*
X346514Y196976D02*
X346514Y180976D01*
D11*
X321894Y174246D03*
D12*
X5560Y232770D02*
X5560Y277770D01*
X40560Y295270D02*
X80560Y295270D01*
X80560Y286770D01*
X55560Y286770D01*
X55560Y272770D01*
X55560Y237770D02*
X55560Y223770D01*
X80560Y223770D01*
X80560Y215270D01*
X40560Y215270D01*
D13*
X90791Y279019D02*
X90791Y287316D01*
X94940Y283168D02*
X86642Y283168D01*
X90791Y230166D02*
X90791Y221869D01*
D12*
X356966Y233870D02*
X368966Y233870D01*
X368966Y225870D02*
X356966Y225870D01*
X356616Y226060D02*
X356616Y233680D01*
X369316Y233680D02*
X369316Y226060D01*
X348646Y141542D02*
X336646Y141542D01*
X336646Y149542D02*
X348646Y149542D01*
X348996Y149352D02*
X348996Y141732D01*
X336296Y141732D02*
X336296Y149352D01*
X334106Y231838D02*
X346106Y231838D01*
X346106Y223838D02*
X334106Y223838D01*
X333756Y224028D02*
X333756Y231648D01*
X346456Y231648D02*
X346456Y224028D01*
X38306Y103098D02*
X38306Y68098D01*
X6606Y94098D02*
X6606Y103098D01*
X6606Y94098D02*
X1606Y94098D01*
X1606Y77098D01*
X6606Y77098D01*
X6606Y68098D01*
D14*
X16050Y313210D02*
X24590Y313210D01*
X24590Y382750D02*
X16050Y382750D01*
X6050Y374980D02*
X6050Y320980D01*
X34590Y346710D02*
X34590Y364250D01*
D15*
X364015Y365799D02*
X371381Y365799D01*
X364015Y363753D02*
X364015Y367845D01*
X364015Y370942D02*
X371381Y370942D01*
X364015Y370942D02*
X364015Y372988D01*
X364017Y373077D01*
X364023Y373166D01*
X364033Y373255D01*
X364046Y373343D01*
X364063Y373431D01*
X364085Y373518D01*
X364110Y373603D01*
X364138Y373688D01*
X364171Y373771D01*
X364207Y373853D01*
X364246Y373933D01*
X364289Y374011D01*
X364335Y374087D01*
X364385Y374162D01*
X364438Y374234D01*
X364494Y374303D01*
X364553Y374370D01*
X364614Y374435D01*
X364679Y374496D01*
X364746Y374555D01*
X364815Y374611D01*
X364887Y374664D01*
X364962Y374714D01*
X365038Y374760D01*
X365116Y374803D01*
X365196Y374842D01*
X365278Y374878D01*
X365361Y374911D01*
X365446Y374939D01*
X365531Y374964D01*
X365618Y374986D01*
X365706Y375003D01*
X365794Y375016D01*
X365883Y375026D01*
X365972Y375032D01*
X366061Y375034D01*
X366150Y375032D01*
X366239Y375026D01*
X366328Y375016D01*
X366416Y375003D01*
X366504Y374986D01*
X366591Y374964D01*
X366676Y374939D01*
X366761Y374911D01*
X366844Y374878D01*
X366926Y374842D01*
X367006Y374803D01*
X367084Y374760D01*
X367160Y374714D01*
X367235Y374664D01*
X367307Y374611D01*
X367376Y374555D01*
X367443Y374496D01*
X367508Y374435D01*
X367569Y374370D01*
X367628Y374303D01*
X367684Y374234D01*
X367737Y374162D01*
X367787Y374087D01*
X367833Y374011D01*
X367876Y373933D01*
X367915Y373853D01*
X367951Y373771D01*
X367984Y373688D01*
X368012Y373603D01*
X368037Y373518D01*
X368059Y373431D01*
X368076Y373343D01*
X368089Y373255D01*
X368099Y373166D01*
X368105Y373077D01*
X368107Y372988D01*
X368107Y370942D01*
X372199Y377573D02*
X372199Y380847D01*
X371381Y384043D02*
X364015Y384043D01*
X364015Y386089D01*
X364017Y386178D01*
X364023Y386267D01*
X364033Y386356D01*
X364046Y386444D01*
X364063Y386532D01*
X364085Y386619D01*
X364110Y386704D01*
X364138Y386789D01*
X364171Y386872D01*
X364207Y386954D01*
X364246Y387034D01*
X364289Y387112D01*
X364335Y387188D01*
X364385Y387263D01*
X364438Y387335D01*
X364494Y387404D01*
X364553Y387471D01*
X364614Y387536D01*
X364679Y387597D01*
X364746Y387656D01*
X364815Y387712D01*
X364887Y387765D01*
X364962Y387815D01*
X365038Y387861D01*
X365116Y387904D01*
X365196Y387943D01*
X365278Y387979D01*
X365361Y388012D01*
X365446Y388040D01*
X365531Y388065D01*
X365618Y388087D01*
X365706Y388104D01*
X365794Y388117D01*
X365883Y388127D01*
X365972Y388133D01*
X366061Y388135D01*
X366150Y388133D01*
X366239Y388127D01*
X366328Y388117D01*
X366416Y388104D01*
X366504Y388087D01*
X366591Y388065D01*
X366676Y388040D01*
X366761Y388012D01*
X366844Y387979D01*
X366926Y387943D01*
X367006Y387904D01*
X367084Y387861D01*
X367160Y387815D01*
X367235Y387765D01*
X367307Y387712D01*
X367376Y387656D01*
X367443Y387597D01*
X367508Y387536D01*
X367569Y387471D01*
X367628Y387404D01*
X367684Y387335D01*
X367737Y387263D01*
X367787Y387188D01*
X367833Y387112D01*
X367876Y387034D01*
X367915Y386954D01*
X367951Y386872D01*
X367984Y386789D01*
X368012Y386704D01*
X368037Y386619D01*
X368059Y386532D01*
X368076Y386444D01*
X368089Y386356D01*
X368099Y386267D01*
X368105Y386178D01*
X368107Y386089D01*
X368107Y384043D01*
X368107Y386498D02*
X371381Y388135D01*
X371381Y390898D02*
X364015Y395808D01*
X364015Y390898D02*
X371381Y395808D01*
X356395Y366307D02*
X349029Y366307D01*
X349029Y364261D02*
X349029Y368353D01*
X349029Y371450D02*
X356395Y371450D01*
X349029Y371450D02*
X349029Y373496D01*
X349031Y373585D01*
X349037Y373674D01*
X349047Y373763D01*
X349060Y373851D01*
X349077Y373939D01*
X349099Y374026D01*
X349124Y374111D01*
X349152Y374196D01*
X349185Y374279D01*
X349221Y374361D01*
X349260Y374441D01*
X349303Y374519D01*
X349349Y374595D01*
X349399Y374670D01*
X349452Y374742D01*
X349508Y374811D01*
X349567Y374878D01*
X349628Y374943D01*
X349693Y375004D01*
X349760Y375063D01*
X349829Y375119D01*
X349901Y375172D01*
X349976Y375222D01*
X350052Y375268D01*
X350130Y375311D01*
X350210Y375350D01*
X350292Y375386D01*
X350375Y375419D01*
X350460Y375447D01*
X350545Y375472D01*
X350632Y375494D01*
X350720Y375511D01*
X350808Y375524D01*
X350897Y375534D01*
X350986Y375540D01*
X351075Y375542D01*
X351164Y375540D01*
X351253Y375534D01*
X351342Y375524D01*
X351430Y375511D01*
X351518Y375494D01*
X351605Y375472D01*
X351690Y375447D01*
X351775Y375419D01*
X351858Y375386D01*
X351940Y375350D01*
X352020Y375311D01*
X352098Y375268D01*
X352174Y375222D01*
X352249Y375172D01*
X352321Y375119D01*
X352390Y375063D01*
X352457Y375004D01*
X352522Y374943D01*
X352583Y374878D01*
X352642Y374811D01*
X352698Y374742D01*
X352751Y374670D01*
X352801Y374595D01*
X352847Y374519D01*
X352890Y374441D01*
X352929Y374361D01*
X352965Y374279D01*
X352998Y374196D01*
X353026Y374111D01*
X353051Y374026D01*
X353073Y373939D01*
X353090Y373851D01*
X353103Y373763D01*
X353113Y373674D01*
X353119Y373585D01*
X353121Y373496D01*
X353121Y371450D01*
X357213Y378081D02*
X357213Y381355D01*
X356395Y385814D02*
X349029Y385814D01*
X349029Y383768D02*
X349029Y387860D01*
X349029Y395097D02*
X356395Y390186D01*
X356395Y395097D02*
X349029Y390186D01*
D12*
X199522Y236342D02*
X199522Y156342D01*
X199522Y236342D02*
X279522Y236342D01*
X279522Y156342D01*
X199522Y156342D01*
D16*
X187452Y234442D02*
X187454Y234513D01*
X187460Y234584D01*
X187470Y234655D01*
X187484Y234725D01*
X187502Y234794D01*
X187523Y234861D01*
X187549Y234928D01*
X187578Y234993D01*
X187610Y235056D01*
X187647Y235118D01*
X187686Y235177D01*
X187729Y235234D01*
X187775Y235288D01*
X187824Y235340D01*
X187876Y235389D01*
X187930Y235435D01*
X187987Y235478D01*
X188046Y235517D01*
X188108Y235554D01*
X188171Y235586D01*
X188236Y235615D01*
X188303Y235641D01*
X188370Y235662D01*
X188439Y235680D01*
X188509Y235694D01*
X188580Y235704D01*
X188651Y235710D01*
X188722Y235712D01*
X188793Y235710D01*
X188864Y235704D01*
X188935Y235694D01*
X189005Y235680D01*
X189074Y235662D01*
X189141Y235641D01*
X189208Y235615D01*
X189273Y235586D01*
X189336Y235554D01*
X189398Y235517D01*
X189457Y235478D01*
X189514Y235435D01*
X189568Y235389D01*
X189620Y235340D01*
X189669Y235288D01*
X189715Y235234D01*
X189758Y235177D01*
X189797Y235118D01*
X189834Y235056D01*
X189866Y234993D01*
X189895Y234928D01*
X189921Y234861D01*
X189942Y234794D01*
X189960Y234725D01*
X189974Y234655D01*
X189984Y234584D01*
X189990Y234513D01*
X189992Y234442D01*
X189990Y234371D01*
X189984Y234300D01*
X189974Y234229D01*
X189960Y234159D01*
X189942Y234090D01*
X189921Y234023D01*
X189895Y233956D01*
X189866Y233891D01*
X189834Y233828D01*
X189797Y233766D01*
X189758Y233707D01*
X189715Y233650D01*
X189669Y233596D01*
X189620Y233544D01*
X189568Y233495D01*
X189514Y233449D01*
X189457Y233406D01*
X189398Y233367D01*
X189336Y233330D01*
X189273Y233298D01*
X189208Y233269D01*
X189141Y233243D01*
X189074Y233222D01*
X189005Y233204D01*
X188935Y233190D01*
X188864Y233180D01*
X188793Y233174D01*
X188722Y233172D01*
X188651Y233174D01*
X188580Y233180D01*
X188509Y233190D01*
X188439Y233204D01*
X188370Y233222D01*
X188303Y233243D01*
X188236Y233269D01*
X188171Y233298D01*
X188108Y233330D01*
X188046Y233367D01*
X187987Y233406D01*
X187930Y233449D01*
X187876Y233495D01*
X187824Y233544D01*
X187775Y233596D01*
X187729Y233650D01*
X187686Y233707D01*
X187647Y233766D01*
X187610Y233828D01*
X187578Y233891D01*
X187549Y233956D01*
X187523Y234023D01*
X187502Y234090D01*
X187484Y234159D01*
X187470Y234229D01*
X187460Y234300D01*
X187454Y234371D01*
X187452Y234442D01*
D12*
X88984Y109808D02*
X88984Y94408D01*
X99484Y94408D01*
X99484Y109808D01*
X88984Y109808D01*
D17*
X88734Y107108D02*
X86734Y106108D01*
X86734Y108108D01*
X88734Y107108D01*
D12*
X216632Y298718D02*
X216632Y302718D01*
X244632Y302718D01*
X244632Y298718D01*
X216632Y268718D02*
X216632Y264718D01*
X244632Y264718D01*
X244632Y268718D01*
D18*
X211132Y301218D03*
D19*
X217424Y310416D02*
X217424Y314452D01*
X217424Y310416D02*
X217426Y310339D01*
X217432Y310261D01*
X217441Y310185D01*
X217455Y310108D01*
X217472Y310033D01*
X217493Y309959D01*
X217518Y309885D01*
X217546Y309813D01*
X217578Y309743D01*
X217613Y309674D01*
X217652Y309607D01*
X217694Y309542D01*
X217739Y309479D01*
X217787Y309418D01*
X217838Y309360D01*
X217892Y309305D01*
X217949Y309252D01*
X218008Y309203D01*
X218070Y309156D01*
X218134Y309112D01*
X218200Y309072D01*
X218268Y309035D01*
X218338Y309001D01*
X218409Y308971D01*
X218482Y308945D01*
X218556Y308922D01*
X218631Y308903D01*
X218706Y308888D01*
X218783Y308876D01*
X218860Y308868D01*
X218937Y308864D01*
X219015Y308864D01*
X219092Y308868D01*
X219169Y308876D01*
X219246Y308888D01*
X219321Y308903D01*
X219396Y308922D01*
X219470Y308945D01*
X219543Y308971D01*
X219614Y309001D01*
X219684Y309035D01*
X219752Y309072D01*
X219818Y309112D01*
X219882Y309156D01*
X219944Y309203D01*
X220003Y309252D01*
X220060Y309305D01*
X220114Y309360D01*
X220165Y309418D01*
X220213Y309479D01*
X220258Y309542D01*
X220300Y309607D01*
X220339Y309674D01*
X220374Y309743D01*
X220406Y309813D01*
X220434Y309885D01*
X220459Y309959D01*
X220480Y310033D01*
X220497Y310108D01*
X220511Y310185D01*
X220520Y310261D01*
X220526Y310339D01*
X220528Y310416D01*
X220528Y314452D01*
X224801Y314452D02*
X224874Y314450D01*
X224947Y314444D01*
X225020Y314435D01*
X225091Y314421D01*
X225163Y314404D01*
X225233Y314384D01*
X225302Y314359D01*
X225369Y314331D01*
X225435Y314300D01*
X225500Y314265D01*
X225562Y314227D01*
X225622Y314185D01*
X225680Y314141D01*
X225736Y314093D01*
X225789Y314043D01*
X225839Y313990D01*
X225887Y313934D01*
X225931Y313876D01*
X225973Y313816D01*
X226011Y313754D01*
X226046Y313689D01*
X226077Y313623D01*
X226105Y313556D01*
X226130Y313487D01*
X226150Y313417D01*
X226167Y313345D01*
X226181Y313274D01*
X226190Y313201D01*
X226196Y313128D01*
X226198Y313055D01*
X224801Y314452D02*
X224717Y314450D01*
X224634Y314444D01*
X224551Y314435D01*
X224469Y314421D01*
X224387Y314404D01*
X224306Y314382D01*
X224226Y314357D01*
X224148Y314329D01*
X224070Y314297D01*
X223995Y314261D01*
X223921Y314222D01*
X223849Y314179D01*
X223779Y314133D01*
X223712Y314084D01*
X223646Y314031D01*
X223584Y313976D01*
X223524Y313918D01*
X223466Y313857D01*
X223412Y313794D01*
X223360Y313728D01*
X223312Y313660D01*
X223267Y313589D01*
X223225Y313517D01*
X223187Y313442D01*
X223152Y313366D01*
X223121Y313289D01*
X223093Y313210D01*
X225731Y311969D02*
X225785Y312022D01*
X225836Y312079D01*
X225884Y312138D01*
X225929Y312199D01*
X225970Y312262D01*
X226009Y312328D01*
X226044Y312395D01*
X226076Y312464D01*
X226104Y312535D01*
X226128Y312606D01*
X226149Y312679D01*
X226166Y312753D01*
X226180Y312828D01*
X226189Y312903D01*
X226195Y312979D01*
X226197Y313055D01*
X225732Y311968D02*
X223093Y308864D01*
X226198Y308864D01*
X228580Y311658D02*
X228582Y311789D01*
X228587Y311919D01*
X228597Y312049D01*
X228610Y312179D01*
X228626Y312309D01*
X228646Y312438D01*
X228670Y312566D01*
X228698Y312693D01*
X228729Y312820D01*
X228764Y312946D01*
X228802Y313071D01*
X228844Y313195D01*
X228889Y313317D01*
X228938Y313438D01*
X228990Y313558D01*
X229046Y313676D01*
X229045Y313676D02*
X229068Y313736D01*
X229094Y313796D01*
X229123Y313853D01*
X229156Y313909D01*
X229192Y313963D01*
X229230Y314015D01*
X229272Y314065D01*
X229316Y314112D01*
X229363Y314157D01*
X229413Y314199D01*
X229464Y314238D01*
X229518Y314274D01*
X229574Y314307D01*
X229631Y314337D01*
X229690Y314364D01*
X229751Y314387D01*
X229812Y314407D01*
X229875Y314423D01*
X229939Y314436D01*
X230003Y314445D01*
X230067Y314450D01*
X230132Y314452D01*
X230197Y314450D01*
X230261Y314445D01*
X230325Y314436D01*
X230389Y314423D01*
X230452Y314407D01*
X230513Y314387D01*
X230574Y314364D01*
X230633Y314337D01*
X230690Y314307D01*
X230746Y314274D01*
X230800Y314238D01*
X230851Y314199D01*
X230901Y314157D01*
X230948Y314112D01*
X230992Y314065D01*
X231034Y314015D01*
X231072Y313963D01*
X231108Y313909D01*
X231141Y313853D01*
X231170Y313796D01*
X231196Y313736D01*
X231219Y313676D01*
X231218Y313676D02*
X231274Y313558D01*
X231326Y313438D01*
X231375Y313317D01*
X231420Y313195D01*
X231462Y313071D01*
X231500Y312946D01*
X231535Y312820D01*
X231566Y312694D01*
X231594Y312566D01*
X231618Y312438D01*
X231638Y312309D01*
X231654Y312179D01*
X231667Y312049D01*
X231677Y311919D01*
X231682Y311789D01*
X231684Y311658D01*
X228580Y311658D02*
X228582Y311527D01*
X228587Y311397D01*
X228597Y311267D01*
X228610Y311137D01*
X228626Y311007D01*
X228646Y310878D01*
X228670Y310750D01*
X228698Y310623D01*
X228729Y310496D01*
X228764Y310370D01*
X228802Y310245D01*
X228844Y310121D01*
X228889Y309999D01*
X228938Y309878D01*
X228990Y309758D01*
X229046Y309640D01*
X229045Y309640D02*
X229068Y309580D01*
X229094Y309520D01*
X229123Y309463D01*
X229156Y309407D01*
X229192Y309353D01*
X229230Y309301D01*
X229272Y309251D01*
X229316Y309204D01*
X229363Y309159D01*
X229413Y309117D01*
X229464Y309078D01*
X229518Y309042D01*
X229574Y309009D01*
X229631Y308979D01*
X229690Y308952D01*
X229751Y308929D01*
X229812Y308909D01*
X229875Y308893D01*
X229939Y308880D01*
X230003Y308871D01*
X230067Y308866D01*
X230132Y308864D01*
X231218Y309640D02*
X231274Y309758D01*
X231326Y309878D01*
X231375Y309999D01*
X231420Y310121D01*
X231462Y310245D01*
X231500Y310370D01*
X231535Y310496D01*
X231566Y310622D01*
X231594Y310750D01*
X231618Y310878D01*
X231638Y311007D01*
X231654Y311137D01*
X231667Y311267D01*
X231677Y311397D01*
X231682Y311527D01*
X231684Y311658D01*
X231219Y309640D02*
X231196Y309580D01*
X231170Y309520D01*
X231141Y309463D01*
X231108Y309407D01*
X231072Y309353D01*
X231034Y309301D01*
X230992Y309251D01*
X230948Y309204D01*
X230901Y309159D01*
X230851Y309117D01*
X230800Y309078D01*
X230746Y309042D01*
X230690Y309009D01*
X230633Y308979D01*
X230574Y308952D01*
X230513Y308929D01*
X230452Y308909D01*
X230389Y308893D01*
X230325Y308880D01*
X230261Y308871D01*
X230197Y308866D01*
X230132Y308864D01*
X228890Y310106D02*
X231374Y313210D01*
X234066Y308864D02*
X235618Y308864D01*
X235695Y308866D01*
X235773Y308872D01*
X235849Y308881D01*
X235926Y308895D01*
X236001Y308912D01*
X236075Y308933D01*
X236149Y308958D01*
X236221Y308986D01*
X236291Y309018D01*
X236360Y309053D01*
X236427Y309092D01*
X236492Y309134D01*
X236555Y309179D01*
X236616Y309227D01*
X236674Y309278D01*
X236729Y309332D01*
X236782Y309389D01*
X236831Y309448D01*
X236878Y309510D01*
X236922Y309574D01*
X236962Y309640D01*
X236999Y309708D01*
X237033Y309778D01*
X237063Y309849D01*
X237089Y309922D01*
X237112Y309996D01*
X237131Y310071D01*
X237146Y310146D01*
X237158Y310223D01*
X237166Y310300D01*
X237170Y310377D01*
X237170Y310455D01*
X237166Y310532D01*
X237158Y310609D01*
X237146Y310686D01*
X237131Y310761D01*
X237112Y310836D01*
X237089Y310910D01*
X237063Y310983D01*
X237033Y311054D01*
X236999Y311124D01*
X236962Y311192D01*
X236922Y311258D01*
X236878Y311322D01*
X236831Y311384D01*
X236782Y311443D01*
X236729Y311500D01*
X236674Y311554D01*
X236616Y311605D01*
X236555Y311653D01*
X236492Y311698D01*
X236427Y311740D01*
X236360Y311779D01*
X236291Y311814D01*
X236221Y311846D01*
X236149Y311874D01*
X236075Y311899D01*
X236001Y311920D01*
X235926Y311937D01*
X235849Y311951D01*
X235773Y311960D01*
X235695Y311966D01*
X235618Y311968D01*
X235929Y314452D02*
X234066Y314452D01*
X235929Y314452D02*
X235999Y314450D01*
X236068Y314444D01*
X236137Y314434D01*
X236205Y314421D01*
X236273Y314403D01*
X236339Y314382D01*
X236404Y314357D01*
X236468Y314329D01*
X236530Y314297D01*
X236590Y314262D01*
X236648Y314223D01*
X236703Y314181D01*
X236757Y314136D01*
X236807Y314088D01*
X236855Y314038D01*
X236900Y313984D01*
X236942Y313929D01*
X236981Y313871D01*
X237016Y313811D01*
X237048Y313749D01*
X237076Y313685D01*
X237101Y313620D01*
X237122Y313554D01*
X237140Y313486D01*
X237153Y313418D01*
X237163Y313349D01*
X237169Y313280D01*
X237171Y313210D01*
X237169Y313140D01*
X237163Y313071D01*
X237153Y313002D01*
X237140Y312934D01*
X237122Y312866D01*
X237101Y312800D01*
X237076Y312735D01*
X237048Y312671D01*
X237016Y312609D01*
X236981Y312549D01*
X236942Y312491D01*
X236900Y312436D01*
X236855Y312382D01*
X236807Y312332D01*
X236757Y312284D01*
X236703Y312239D01*
X236648Y312197D01*
X236590Y312158D01*
X236530Y312123D01*
X236468Y312091D01*
X236404Y312063D01*
X236339Y312038D01*
X236273Y312017D01*
X236205Y311999D01*
X236137Y311986D01*
X236068Y311976D01*
X235999Y311970D01*
X235929Y311968D01*
X234687Y311968D01*
D12*
X234870Y309710D02*
X250270Y309710D01*
X250270Y320210D01*
X234870Y320210D01*
X234870Y309710D01*
D17*
X237570Y309460D02*
X238570Y307460D01*
X236570Y307460D01*
X237570Y309460D01*
D20*
X279400Y291338D02*
X290068Y291338D01*
X290068Y262382D02*
X279400Y262382D01*
D12*
X196977Y266446D02*
X196977Y298450D01*
X196977Y266446D02*
X181991Y266446D01*
X181991Y298450D01*
X196977Y298450D01*
D21*
X86122Y6390D02*
X86124Y6453D01*
X86130Y6515D01*
X86140Y6577D01*
X86153Y6639D01*
X86171Y6699D01*
X86192Y6758D01*
X86217Y6816D01*
X86246Y6872D01*
X86278Y6926D01*
X86313Y6978D01*
X86351Y7027D01*
X86393Y7075D01*
X86437Y7119D01*
X86485Y7161D01*
X86534Y7199D01*
X86586Y7234D01*
X86640Y7266D01*
X86696Y7295D01*
X86754Y7320D01*
X86813Y7341D01*
X86873Y7359D01*
X86935Y7372D01*
X86997Y7382D01*
X87059Y7388D01*
X87122Y7390D01*
X87185Y7388D01*
X87247Y7382D01*
X87309Y7372D01*
X87371Y7359D01*
X87431Y7341D01*
X87490Y7320D01*
X87548Y7295D01*
X87604Y7266D01*
X87658Y7234D01*
X87710Y7199D01*
X87759Y7161D01*
X87807Y7119D01*
X87851Y7075D01*
X87893Y7027D01*
X87931Y6978D01*
X87966Y6926D01*
X87998Y6872D01*
X88027Y6816D01*
X88052Y6758D01*
X88073Y6699D01*
X88091Y6639D01*
X88104Y6577D01*
X88114Y6515D01*
X88120Y6453D01*
X88122Y6390D01*
X88120Y6327D01*
X88114Y6265D01*
X88104Y6203D01*
X88091Y6141D01*
X88073Y6081D01*
X88052Y6022D01*
X88027Y5964D01*
X87998Y5908D01*
X87966Y5854D01*
X87931Y5802D01*
X87893Y5753D01*
X87851Y5705D01*
X87807Y5661D01*
X87759Y5619D01*
X87710Y5581D01*
X87658Y5546D01*
X87604Y5514D01*
X87548Y5485D01*
X87490Y5460D01*
X87431Y5439D01*
X87371Y5421D01*
X87309Y5408D01*
X87247Y5398D01*
X87185Y5392D01*
X87122Y5390D01*
X87059Y5392D01*
X86997Y5398D01*
X86935Y5408D01*
X86873Y5421D01*
X86813Y5439D01*
X86754Y5460D01*
X86696Y5485D01*
X86640Y5514D01*
X86586Y5546D01*
X86534Y5581D01*
X86485Y5619D01*
X86437Y5661D01*
X86393Y5705D01*
X86351Y5753D01*
X86313Y5802D01*
X86278Y5854D01*
X86246Y5908D01*
X86217Y5964D01*
X86192Y6022D01*
X86171Y6081D01*
X86153Y6141D01*
X86140Y6203D01*
X86130Y6265D01*
X86124Y6327D01*
X86122Y6390D01*
D12*
X81172Y16990D02*
X81172Y76990D01*
X131172Y76990D02*
X131172Y16990D01*
D15*
X238824Y312617D02*
X246190Y312617D01*
X238824Y310571D02*
X238824Y314663D01*
X238824Y317760D02*
X246190Y317760D01*
X238824Y317760D02*
X238824Y319806D01*
X238826Y319895D01*
X238832Y319984D01*
X238842Y320073D01*
X238855Y320161D01*
X238872Y320249D01*
X238894Y320336D01*
X238919Y320421D01*
X238947Y320506D01*
X238980Y320589D01*
X239016Y320671D01*
X239055Y320751D01*
X239098Y320829D01*
X239144Y320905D01*
X239194Y320980D01*
X239247Y321052D01*
X239303Y321121D01*
X239362Y321188D01*
X239423Y321253D01*
X239488Y321314D01*
X239555Y321373D01*
X239624Y321429D01*
X239696Y321482D01*
X239771Y321532D01*
X239847Y321578D01*
X239925Y321621D01*
X240005Y321660D01*
X240087Y321696D01*
X240170Y321729D01*
X240255Y321757D01*
X240340Y321782D01*
X240427Y321804D01*
X240515Y321821D01*
X240603Y321834D01*
X240692Y321844D01*
X240781Y321850D01*
X240870Y321852D01*
X240959Y321850D01*
X241048Y321844D01*
X241137Y321834D01*
X241225Y321821D01*
X241313Y321804D01*
X241400Y321782D01*
X241485Y321757D01*
X241570Y321729D01*
X241653Y321696D01*
X241735Y321660D01*
X241815Y321621D01*
X241893Y321578D01*
X241969Y321532D01*
X242044Y321482D01*
X242116Y321429D01*
X242185Y321373D01*
X242252Y321314D01*
X242317Y321253D01*
X242378Y321188D01*
X242437Y321121D01*
X242493Y321052D01*
X242546Y320980D01*
X242596Y320905D01*
X242642Y320829D01*
X242685Y320751D01*
X242724Y320671D01*
X242760Y320589D01*
X242793Y320506D01*
X242821Y320421D01*
X242846Y320336D01*
X242868Y320249D01*
X242885Y320161D01*
X242898Y320073D01*
X242908Y319984D01*
X242914Y319895D01*
X242916Y319806D01*
X242916Y317760D01*
X247008Y324391D02*
X247008Y327665D01*
X246190Y332180D02*
X246190Y333816D01*
X246190Y332180D02*
X246188Y332102D01*
X246183Y332024D01*
X246173Y331947D01*
X246160Y331870D01*
X246144Y331794D01*
X246124Y331719D01*
X246100Y331645D01*
X246073Y331572D01*
X246042Y331500D01*
X246008Y331430D01*
X245971Y331362D01*
X245930Y331295D01*
X245886Y331230D01*
X245840Y331168D01*
X245790Y331108D01*
X245738Y331050D01*
X245683Y330995D01*
X245625Y330943D01*
X245565Y330893D01*
X245503Y330847D01*
X245438Y330803D01*
X245372Y330762D01*
X245303Y330725D01*
X245233Y330691D01*
X245161Y330660D01*
X245088Y330633D01*
X245014Y330609D01*
X244939Y330589D01*
X244863Y330573D01*
X244786Y330560D01*
X244709Y330550D01*
X244631Y330545D01*
X244553Y330543D01*
X240461Y330543D01*
X240381Y330545D01*
X240301Y330551D01*
X240221Y330561D01*
X240142Y330574D01*
X240063Y330592D01*
X239986Y330613D01*
X239910Y330639D01*
X239835Y330668D01*
X239761Y330700D01*
X239689Y330736D01*
X239619Y330776D01*
X239552Y330819D01*
X239486Y330865D01*
X239423Y330915D01*
X239362Y330967D01*
X239303Y331022D01*
X239248Y331081D01*
X239196Y331141D01*
X239146Y331205D01*
X239100Y331270D01*
X239057Y331338D01*
X239017Y331408D01*
X238981Y331480D01*
X238949Y331554D01*
X238920Y331628D01*
X238895Y331705D01*
X238873Y331782D01*
X238855Y331861D01*
X238842Y331940D01*
X238832Y332019D01*
X238826Y332100D01*
X238824Y332180D01*
X238824Y333816D01*
X238824Y337023D02*
X246190Y337023D01*
X238824Y337023D02*
X238824Y339069D01*
X238826Y339158D01*
X238832Y339247D01*
X238842Y339336D01*
X238855Y339424D01*
X238872Y339512D01*
X238894Y339599D01*
X238919Y339684D01*
X238947Y339769D01*
X238980Y339852D01*
X239016Y339934D01*
X239055Y340014D01*
X239098Y340092D01*
X239144Y340168D01*
X239194Y340243D01*
X239247Y340315D01*
X239303Y340384D01*
X239362Y340451D01*
X239423Y340516D01*
X239488Y340577D01*
X239555Y340636D01*
X239624Y340692D01*
X239696Y340745D01*
X239771Y340795D01*
X239847Y340841D01*
X239925Y340884D01*
X240005Y340923D01*
X240087Y340959D01*
X240170Y340992D01*
X240255Y341020D01*
X240340Y341045D01*
X240427Y341067D01*
X240515Y341084D01*
X240603Y341097D01*
X240692Y341107D01*
X240781Y341113D01*
X240870Y341115D01*
X240959Y341113D01*
X241048Y341107D01*
X241137Y341097D01*
X241225Y341084D01*
X241313Y341067D01*
X241400Y341045D01*
X241485Y341020D01*
X241570Y340992D01*
X241653Y340959D01*
X241735Y340923D01*
X241815Y340884D01*
X241893Y340841D01*
X241969Y340795D01*
X242044Y340745D01*
X242116Y340692D01*
X242185Y340636D01*
X242252Y340577D01*
X242317Y340516D01*
X242378Y340451D01*
X242437Y340384D01*
X242493Y340315D01*
X242546Y340243D01*
X242596Y340168D01*
X242642Y340092D01*
X242685Y340014D01*
X242724Y339934D01*
X242760Y339852D01*
X242793Y339769D01*
X242821Y339684D01*
X242846Y339599D01*
X242868Y339512D01*
X242885Y339424D01*
X242898Y339336D01*
X242908Y339247D01*
X242914Y339158D01*
X242916Y339069D01*
X242916Y337023D01*
X244144Y344221D02*
X238824Y344221D01*
X244144Y344221D02*
X244233Y344223D01*
X244322Y344229D01*
X244411Y344239D01*
X244499Y344252D01*
X244587Y344269D01*
X244674Y344291D01*
X244759Y344316D01*
X244844Y344344D01*
X244927Y344377D01*
X245009Y344413D01*
X245089Y344452D01*
X245167Y344495D01*
X245243Y344541D01*
X245318Y344591D01*
X245390Y344644D01*
X245459Y344700D01*
X245526Y344759D01*
X245591Y344820D01*
X245652Y344885D01*
X245711Y344952D01*
X245767Y345021D01*
X245820Y345093D01*
X245870Y345168D01*
X245916Y345244D01*
X245959Y345322D01*
X245998Y345402D01*
X246034Y345484D01*
X246067Y345567D01*
X246095Y345652D01*
X246120Y345737D01*
X246142Y345824D01*
X246159Y345912D01*
X246172Y346000D01*
X246182Y346089D01*
X246188Y346178D01*
X246190Y346267D01*
X246188Y346356D01*
X246182Y346445D01*
X246172Y346534D01*
X246159Y346622D01*
X246142Y346710D01*
X246120Y346797D01*
X246095Y346882D01*
X246067Y346967D01*
X246034Y347050D01*
X245998Y347132D01*
X245959Y347212D01*
X245916Y347290D01*
X245870Y347366D01*
X245820Y347441D01*
X245767Y347513D01*
X245711Y347582D01*
X245652Y347649D01*
X245591Y347714D01*
X245526Y347775D01*
X245459Y347834D01*
X245390Y347890D01*
X245318Y347943D01*
X245243Y347993D01*
X245167Y348039D01*
X245089Y348082D01*
X245009Y348121D01*
X244927Y348157D01*
X244844Y348190D01*
X244759Y348218D01*
X244674Y348243D01*
X244587Y348265D01*
X244499Y348282D01*
X244411Y348295D01*
X244322Y348305D01*
X244233Y348311D01*
X244144Y348313D01*
X238824Y348313D01*
X63435Y434658D02*
X63435Y442024D01*
X61389Y442024D02*
X65481Y442024D01*
X68578Y442024D02*
X68578Y434658D01*
X68578Y442024D02*
X70624Y442024D01*
X70713Y442022D01*
X70802Y442016D01*
X70891Y442006D01*
X70979Y441993D01*
X71067Y441976D01*
X71154Y441954D01*
X71239Y441929D01*
X71324Y441901D01*
X71407Y441868D01*
X71489Y441832D01*
X71569Y441793D01*
X71647Y441750D01*
X71723Y441704D01*
X71798Y441654D01*
X71870Y441601D01*
X71939Y441545D01*
X72006Y441486D01*
X72071Y441425D01*
X72132Y441360D01*
X72191Y441293D01*
X72247Y441224D01*
X72300Y441152D01*
X72350Y441077D01*
X72396Y441001D01*
X72439Y440923D01*
X72478Y440843D01*
X72514Y440761D01*
X72547Y440678D01*
X72575Y440593D01*
X72600Y440508D01*
X72622Y440421D01*
X72639Y440333D01*
X72652Y440245D01*
X72662Y440156D01*
X72668Y440067D01*
X72670Y439978D01*
X72668Y439889D01*
X72662Y439800D01*
X72652Y439711D01*
X72639Y439623D01*
X72622Y439535D01*
X72600Y439448D01*
X72575Y439363D01*
X72547Y439278D01*
X72514Y439195D01*
X72478Y439113D01*
X72439Y439033D01*
X72396Y438955D01*
X72350Y438879D01*
X72300Y438804D01*
X72247Y438732D01*
X72191Y438663D01*
X72132Y438596D01*
X72071Y438531D01*
X72006Y438470D01*
X71939Y438411D01*
X71870Y438355D01*
X71798Y438302D01*
X71723Y438252D01*
X71647Y438206D01*
X71569Y438163D01*
X71489Y438124D01*
X71407Y438088D01*
X71324Y438055D01*
X71239Y438027D01*
X71154Y438002D01*
X71067Y437980D01*
X70979Y437963D01*
X70891Y437950D01*
X70802Y437940D01*
X70713Y437934D01*
X70624Y437932D01*
X68578Y437932D01*
X75209Y433840D02*
X78483Y433840D01*
X81745Y434658D02*
X81745Y442024D01*
X83791Y442024D01*
X83880Y442022D01*
X83969Y442016D01*
X84058Y442006D01*
X84146Y441993D01*
X84234Y441976D01*
X84321Y441954D01*
X84406Y441929D01*
X84491Y441901D01*
X84574Y441868D01*
X84656Y441832D01*
X84736Y441793D01*
X84814Y441750D01*
X84890Y441704D01*
X84965Y441654D01*
X85037Y441601D01*
X85106Y441545D01*
X85173Y441486D01*
X85238Y441425D01*
X85299Y441360D01*
X85358Y441293D01*
X85414Y441224D01*
X85467Y441152D01*
X85517Y441077D01*
X85563Y441001D01*
X85606Y440923D01*
X85645Y440843D01*
X85681Y440761D01*
X85714Y440678D01*
X85742Y440593D01*
X85767Y440508D01*
X85789Y440421D01*
X85806Y440333D01*
X85819Y440245D01*
X85829Y440156D01*
X85835Y440067D01*
X85837Y439978D01*
X85835Y439889D01*
X85829Y439800D01*
X85819Y439711D01*
X85806Y439623D01*
X85789Y439535D01*
X85767Y439448D01*
X85742Y439363D01*
X85714Y439278D01*
X85681Y439195D01*
X85645Y439113D01*
X85606Y439033D01*
X85563Y438955D01*
X85517Y438879D01*
X85467Y438804D01*
X85414Y438732D01*
X85358Y438663D01*
X85299Y438596D01*
X85238Y438531D01*
X85173Y438470D01*
X85106Y438411D01*
X85037Y438355D01*
X84965Y438302D01*
X84890Y438252D01*
X84814Y438206D01*
X84736Y438163D01*
X84656Y438124D01*
X84574Y438088D01*
X84491Y438055D01*
X84406Y438027D01*
X84321Y438002D01*
X84234Y437980D01*
X84146Y437963D01*
X84058Y437950D01*
X83969Y437940D01*
X83880Y437934D01*
X83791Y437932D01*
X81745Y437932D01*
X88994Y434658D02*
X88994Y442024D01*
X91040Y442024D01*
X91129Y442022D01*
X91218Y442016D01*
X91307Y442006D01*
X91395Y441993D01*
X91483Y441976D01*
X91570Y441954D01*
X91655Y441929D01*
X91740Y441901D01*
X91823Y441868D01*
X91905Y441832D01*
X91985Y441793D01*
X92063Y441750D01*
X92139Y441704D01*
X92214Y441654D01*
X92286Y441601D01*
X92355Y441545D01*
X92422Y441486D01*
X92487Y441425D01*
X92548Y441360D01*
X92607Y441293D01*
X92663Y441224D01*
X92716Y441152D01*
X92766Y441077D01*
X92812Y441001D01*
X92855Y440923D01*
X92894Y440843D01*
X92930Y440761D01*
X92963Y440678D01*
X92991Y440593D01*
X93016Y440508D01*
X93038Y440421D01*
X93055Y440333D01*
X93068Y440245D01*
X93078Y440156D01*
X93084Y440067D01*
X93086Y439978D01*
X93084Y439889D01*
X93078Y439800D01*
X93068Y439711D01*
X93055Y439623D01*
X93038Y439535D01*
X93016Y439448D01*
X92991Y439363D01*
X92963Y439278D01*
X92930Y439195D01*
X92894Y439113D01*
X92855Y439033D01*
X92812Y438955D01*
X92766Y438879D01*
X92716Y438804D01*
X92663Y438732D01*
X92607Y438663D01*
X92548Y438596D01*
X92487Y438531D01*
X92422Y438470D01*
X92355Y438411D01*
X92286Y438355D01*
X92214Y438302D01*
X92139Y438252D01*
X92063Y438206D01*
X91985Y438163D01*
X91905Y438124D01*
X91823Y438088D01*
X91740Y438055D01*
X91655Y438027D01*
X91570Y438002D01*
X91483Y437980D01*
X91395Y437963D01*
X91307Y437950D01*
X91218Y437940D01*
X91129Y437934D01*
X91040Y437932D01*
X88994Y437932D01*
X91449Y437932D02*
X93086Y434658D01*
X96258Y436704D02*
X96258Y439978D01*
X96260Y440067D01*
X96266Y440156D01*
X96276Y440245D01*
X96289Y440333D01*
X96306Y440421D01*
X96328Y440508D01*
X96353Y440593D01*
X96381Y440678D01*
X96414Y440761D01*
X96450Y440843D01*
X96489Y440923D01*
X96532Y441001D01*
X96578Y441077D01*
X96628Y441152D01*
X96681Y441224D01*
X96737Y441293D01*
X96796Y441360D01*
X96857Y441425D01*
X96922Y441486D01*
X96989Y441545D01*
X97058Y441601D01*
X97130Y441654D01*
X97205Y441704D01*
X97281Y441750D01*
X97359Y441793D01*
X97439Y441832D01*
X97521Y441868D01*
X97604Y441901D01*
X97689Y441929D01*
X97774Y441954D01*
X97861Y441976D01*
X97949Y441993D01*
X98037Y442006D01*
X98126Y442016D01*
X98215Y442022D01*
X98304Y442024D01*
X98393Y442022D01*
X98482Y442016D01*
X98571Y442006D01*
X98659Y441993D01*
X98747Y441976D01*
X98834Y441954D01*
X98919Y441929D01*
X99004Y441901D01*
X99087Y441868D01*
X99169Y441832D01*
X99249Y441793D01*
X99327Y441750D01*
X99403Y441704D01*
X99478Y441654D01*
X99550Y441601D01*
X99619Y441545D01*
X99686Y441486D01*
X99751Y441425D01*
X99812Y441360D01*
X99871Y441293D01*
X99927Y441224D01*
X99980Y441152D01*
X100030Y441077D01*
X100076Y441001D01*
X100119Y440923D01*
X100158Y440843D01*
X100194Y440761D01*
X100227Y440678D01*
X100255Y440593D01*
X100280Y440508D01*
X100302Y440421D01*
X100319Y440333D01*
X100332Y440245D01*
X100342Y440156D01*
X100348Y440067D01*
X100350Y439978D01*
X100350Y436704D01*
X100348Y436615D01*
X100342Y436526D01*
X100332Y436437D01*
X100319Y436349D01*
X100302Y436261D01*
X100280Y436174D01*
X100255Y436089D01*
X100227Y436004D01*
X100194Y435921D01*
X100158Y435839D01*
X100119Y435759D01*
X100076Y435681D01*
X100030Y435605D01*
X99980Y435530D01*
X99927Y435458D01*
X99871Y435389D01*
X99812Y435322D01*
X99751Y435257D01*
X99686Y435196D01*
X99619Y435137D01*
X99550Y435081D01*
X99478Y435028D01*
X99403Y434978D01*
X99327Y434932D01*
X99249Y434889D01*
X99169Y434850D01*
X99087Y434814D01*
X99004Y434781D01*
X98919Y434753D01*
X98834Y434728D01*
X98747Y434706D01*
X98659Y434689D01*
X98571Y434676D01*
X98482Y434666D01*
X98393Y434660D01*
X98304Y434658D01*
X98215Y434660D01*
X98126Y434666D01*
X98037Y434676D01*
X97949Y434689D01*
X97861Y434706D01*
X97774Y434728D01*
X97689Y434753D01*
X97604Y434781D01*
X97521Y434814D01*
X97439Y434850D01*
X97359Y434889D01*
X97281Y434932D01*
X97205Y434978D01*
X97130Y435028D01*
X97058Y435081D01*
X96989Y435137D01*
X96922Y435196D01*
X96857Y435257D01*
X96796Y435322D01*
X96737Y435389D01*
X96681Y435458D01*
X96628Y435530D01*
X96578Y435605D01*
X96532Y435681D01*
X96489Y435759D01*
X96450Y435839D01*
X96414Y435921D01*
X96381Y436004D01*
X96353Y436089D01*
X96328Y436174D01*
X96306Y436261D01*
X96289Y436349D01*
X96276Y436437D01*
X96266Y436526D01*
X96260Y436615D01*
X96258Y436704D01*
X105187Y434658D02*
X106824Y434658D01*
X105187Y434658D02*
X105109Y434660D01*
X105031Y434665D01*
X104954Y434675D01*
X104877Y434688D01*
X104801Y434704D01*
X104726Y434724D01*
X104652Y434748D01*
X104579Y434775D01*
X104507Y434806D01*
X104437Y434840D01*
X104369Y434877D01*
X104302Y434918D01*
X104237Y434962D01*
X104175Y435008D01*
X104115Y435058D01*
X104057Y435110D01*
X104002Y435165D01*
X103950Y435223D01*
X103900Y435283D01*
X103854Y435345D01*
X103810Y435410D01*
X103769Y435477D01*
X103732Y435545D01*
X103698Y435615D01*
X103667Y435687D01*
X103640Y435760D01*
X103616Y435834D01*
X103596Y435909D01*
X103580Y435985D01*
X103567Y436062D01*
X103557Y436139D01*
X103552Y436217D01*
X103550Y436295D01*
X103550Y440387D01*
X103552Y440467D01*
X103558Y440547D01*
X103568Y440627D01*
X103581Y440706D01*
X103599Y440785D01*
X103620Y440862D01*
X103646Y440938D01*
X103675Y441013D01*
X103707Y441087D01*
X103743Y441159D01*
X103783Y441229D01*
X103826Y441296D01*
X103872Y441362D01*
X103922Y441425D01*
X103974Y441486D01*
X104029Y441545D01*
X104088Y441600D01*
X104148Y441652D01*
X104212Y441702D01*
X104278Y441748D01*
X104345Y441791D01*
X104415Y441831D01*
X104487Y441867D01*
X104561Y441899D01*
X104635Y441928D01*
X104712Y441954D01*
X104789Y441975D01*
X104868Y441993D01*
X104947Y442006D01*
X105027Y442016D01*
X105107Y442022D01*
X105187Y442024D01*
X106824Y442024D01*
X147510Y25335D02*
X154876Y25335D01*
X147510Y23289D02*
X147510Y27381D01*
X147510Y30478D02*
X154876Y30478D01*
X147510Y30478D02*
X147510Y32524D01*
X147512Y32613D01*
X147518Y32702D01*
X147528Y32791D01*
X147541Y32879D01*
X147558Y32967D01*
X147580Y33054D01*
X147605Y33139D01*
X147633Y33224D01*
X147666Y33307D01*
X147702Y33389D01*
X147741Y33469D01*
X147784Y33547D01*
X147830Y33623D01*
X147880Y33698D01*
X147933Y33770D01*
X147989Y33839D01*
X148048Y33906D01*
X148109Y33971D01*
X148174Y34032D01*
X148241Y34091D01*
X148310Y34147D01*
X148382Y34200D01*
X148457Y34250D01*
X148533Y34296D01*
X148611Y34339D01*
X148691Y34378D01*
X148773Y34414D01*
X148856Y34447D01*
X148941Y34475D01*
X149026Y34500D01*
X149113Y34522D01*
X149201Y34539D01*
X149289Y34552D01*
X149378Y34562D01*
X149467Y34568D01*
X149556Y34570D01*
X149645Y34568D01*
X149734Y34562D01*
X149823Y34552D01*
X149911Y34539D01*
X149999Y34522D01*
X150086Y34500D01*
X150171Y34475D01*
X150256Y34447D01*
X150339Y34414D01*
X150421Y34378D01*
X150501Y34339D01*
X150579Y34296D01*
X150655Y34250D01*
X150730Y34200D01*
X150802Y34147D01*
X150871Y34091D01*
X150938Y34032D01*
X151003Y33971D01*
X151064Y33906D01*
X151123Y33839D01*
X151179Y33770D01*
X151232Y33698D01*
X151282Y33623D01*
X151328Y33547D01*
X151371Y33469D01*
X151410Y33389D01*
X151446Y33307D01*
X151479Y33224D01*
X151507Y33139D01*
X151532Y33054D01*
X151554Y32967D01*
X151571Y32879D01*
X151584Y32791D01*
X151594Y32702D01*
X151600Y32613D01*
X151602Y32524D01*
X151602Y30478D01*
X155694Y37109D02*
X155694Y40383D01*
X154876Y43528D02*
X147510Y43528D01*
X147510Y45574D01*
X147512Y45663D01*
X147518Y45752D01*
X147528Y45841D01*
X147541Y45929D01*
X147558Y46017D01*
X147580Y46104D01*
X147605Y46189D01*
X147633Y46274D01*
X147666Y46357D01*
X147702Y46439D01*
X147741Y46519D01*
X147784Y46597D01*
X147830Y46673D01*
X147880Y46748D01*
X147933Y46820D01*
X147989Y46889D01*
X148048Y46956D01*
X148109Y47021D01*
X148174Y47082D01*
X148241Y47141D01*
X148310Y47197D01*
X148382Y47250D01*
X148457Y47300D01*
X148533Y47346D01*
X148611Y47389D01*
X148691Y47428D01*
X148773Y47464D01*
X148856Y47497D01*
X148941Y47525D01*
X149026Y47550D01*
X149113Y47572D01*
X149201Y47589D01*
X149289Y47602D01*
X149378Y47612D01*
X149467Y47618D01*
X149556Y47620D01*
X152830Y47620D01*
X152919Y47618D01*
X153008Y47612D01*
X153097Y47602D01*
X153185Y47589D01*
X153273Y47572D01*
X153360Y47550D01*
X153445Y47525D01*
X153530Y47497D01*
X153613Y47464D01*
X153695Y47428D01*
X153775Y47389D01*
X153853Y47346D01*
X153929Y47300D01*
X154004Y47250D01*
X154076Y47197D01*
X154145Y47141D01*
X154212Y47082D01*
X154277Y47021D01*
X154338Y46956D01*
X154397Y46889D01*
X154453Y46820D01*
X154506Y46748D01*
X154556Y46673D01*
X154602Y46597D01*
X154645Y46519D01*
X154684Y46439D01*
X154720Y46357D01*
X154753Y46274D01*
X154781Y46189D01*
X154806Y46104D01*
X154828Y46017D01*
X154845Y45929D01*
X154858Y45841D01*
X154868Y45752D01*
X154874Y45663D01*
X154876Y45574D01*
X154876Y43528D01*
X154876Y52645D02*
X147510Y52645D01*
X147510Y50599D02*
X147510Y54691D01*
X147510Y57722D02*
X154876Y57722D01*
X147510Y57722D02*
X147510Y59768D01*
X147512Y59857D01*
X147518Y59946D01*
X147528Y60035D01*
X147541Y60123D01*
X147558Y60211D01*
X147580Y60298D01*
X147605Y60383D01*
X147633Y60468D01*
X147666Y60551D01*
X147702Y60633D01*
X147741Y60713D01*
X147784Y60791D01*
X147830Y60867D01*
X147880Y60942D01*
X147933Y61014D01*
X147989Y61083D01*
X148048Y61150D01*
X148109Y61215D01*
X148174Y61276D01*
X148241Y61335D01*
X148310Y61391D01*
X148382Y61444D01*
X148457Y61494D01*
X148533Y61540D01*
X148611Y61583D01*
X148691Y61622D01*
X148773Y61658D01*
X148856Y61691D01*
X148941Y61719D01*
X149026Y61744D01*
X149113Y61766D01*
X149201Y61783D01*
X149289Y61796D01*
X149378Y61806D01*
X149467Y61812D01*
X149556Y61814D01*
X149645Y61812D01*
X149734Y61806D01*
X149823Y61796D01*
X149911Y61783D01*
X149999Y61766D01*
X150086Y61744D01*
X150171Y61719D01*
X150256Y61691D01*
X150339Y61658D01*
X150421Y61622D01*
X150501Y61583D01*
X150579Y61540D01*
X150655Y61494D01*
X150730Y61444D01*
X150802Y61391D01*
X150871Y61335D01*
X150938Y61276D01*
X151003Y61215D01*
X151064Y61150D01*
X151123Y61083D01*
X151179Y61014D01*
X151232Y60942D01*
X151282Y60867D01*
X151328Y60791D01*
X151371Y60713D01*
X151410Y60633D01*
X151446Y60551D01*
X151479Y60468D01*
X151507Y60383D01*
X151532Y60298D01*
X151554Y60211D01*
X151571Y60123D01*
X151584Y60035D01*
X151594Y59946D01*
X151600Y59857D01*
X151602Y59768D01*
X151602Y57722D01*
X151602Y60177D02*
X154876Y61814D01*
X236410Y342835D02*
X243776Y342835D01*
X236410Y340789D02*
X236410Y344881D01*
X236410Y347978D02*
X243776Y347978D01*
X236410Y347978D02*
X236410Y350024D01*
X236412Y350113D01*
X236418Y350202D01*
X236428Y350291D01*
X236441Y350379D01*
X236458Y350467D01*
X236480Y350554D01*
X236505Y350639D01*
X236533Y350724D01*
X236566Y350807D01*
X236602Y350889D01*
X236641Y350969D01*
X236684Y351047D01*
X236730Y351123D01*
X236780Y351198D01*
X236833Y351270D01*
X236889Y351339D01*
X236948Y351406D01*
X237009Y351471D01*
X237074Y351532D01*
X237141Y351591D01*
X237210Y351647D01*
X237282Y351700D01*
X237357Y351750D01*
X237433Y351796D01*
X237511Y351839D01*
X237591Y351878D01*
X237673Y351914D01*
X237756Y351947D01*
X237841Y351975D01*
X237926Y352000D01*
X238013Y352022D01*
X238101Y352039D01*
X238189Y352052D01*
X238278Y352062D01*
X238367Y352068D01*
X238456Y352070D01*
X238545Y352068D01*
X238634Y352062D01*
X238723Y352052D01*
X238811Y352039D01*
X238899Y352022D01*
X238986Y352000D01*
X239071Y351975D01*
X239156Y351947D01*
X239239Y351914D01*
X239321Y351878D01*
X239401Y351839D01*
X239479Y351796D01*
X239555Y351750D01*
X239630Y351700D01*
X239702Y351647D01*
X239771Y351591D01*
X239838Y351532D01*
X239903Y351471D01*
X239964Y351406D01*
X240023Y351339D01*
X240079Y351270D01*
X240132Y351198D01*
X240182Y351123D01*
X240228Y351047D01*
X240271Y350969D01*
X240310Y350889D01*
X240346Y350807D01*
X240379Y350724D01*
X240407Y350639D01*
X240432Y350554D01*
X240454Y350467D01*
X240471Y350379D01*
X240484Y350291D01*
X240494Y350202D01*
X240500Y350113D01*
X240502Y350024D01*
X240502Y347978D01*
X244594Y354609D02*
X244594Y357883D01*
X243776Y362342D02*
X236410Y362342D01*
X236410Y360296D02*
X236410Y364388D01*
X243776Y367383D02*
X243776Y370657D01*
X243776Y367383D02*
X236410Y367383D01*
X236410Y370657D01*
X239684Y369839D02*
X239684Y367383D01*
X236410Y373786D02*
X243776Y373786D01*
X240502Y376241D02*
X236410Y373786D01*
X240502Y376241D02*
X236410Y378696D01*
X243776Y378696D01*
X243776Y382603D02*
X236410Y382603D01*
X236410Y384649D01*
X236412Y384738D01*
X236418Y384827D01*
X236428Y384916D01*
X236441Y385004D01*
X236458Y385092D01*
X236480Y385179D01*
X236505Y385264D01*
X236533Y385349D01*
X236566Y385432D01*
X236602Y385514D01*
X236641Y385594D01*
X236684Y385672D01*
X236730Y385748D01*
X236780Y385823D01*
X236833Y385895D01*
X236889Y385964D01*
X236948Y386031D01*
X237009Y386096D01*
X237074Y386157D01*
X237141Y386216D01*
X237210Y386272D01*
X237282Y386325D01*
X237357Y386375D01*
X237433Y386421D01*
X237511Y386464D01*
X237591Y386503D01*
X237673Y386539D01*
X237756Y386572D01*
X237841Y386600D01*
X237926Y386625D01*
X238013Y386647D01*
X238101Y386664D01*
X238189Y386677D01*
X238278Y386687D01*
X238367Y386693D01*
X238456Y386695D01*
X238545Y386693D01*
X238634Y386687D01*
X238723Y386677D01*
X238811Y386664D01*
X238899Y386647D01*
X238986Y386625D01*
X239071Y386600D01*
X239156Y386572D01*
X239239Y386539D01*
X239321Y386503D01*
X239401Y386464D01*
X239479Y386421D01*
X239555Y386375D01*
X239630Y386325D01*
X239702Y386272D01*
X239771Y386216D01*
X239838Y386157D01*
X239903Y386096D01*
X239964Y386031D01*
X240023Y385964D01*
X240079Y385895D01*
X240132Y385823D01*
X240182Y385748D01*
X240228Y385672D01*
X240271Y385594D01*
X240310Y385514D01*
X240346Y385432D01*
X240379Y385349D01*
X240407Y385264D01*
X240432Y385179D01*
X240454Y385092D01*
X240471Y385004D01*
X240484Y384916D01*
X240494Y384827D01*
X240500Y384738D01*
X240502Y384649D01*
X240502Y382603D01*
X72834Y15175D02*
X65468Y15175D01*
X65468Y13129D02*
X65468Y17221D01*
X65468Y20318D02*
X72834Y20318D01*
X65468Y20318D02*
X65468Y22364D01*
X65470Y22453D01*
X65476Y22542D01*
X65486Y22631D01*
X65499Y22719D01*
X65516Y22807D01*
X65538Y22894D01*
X65563Y22979D01*
X65591Y23064D01*
X65624Y23147D01*
X65660Y23229D01*
X65699Y23309D01*
X65742Y23387D01*
X65788Y23463D01*
X65838Y23538D01*
X65891Y23610D01*
X65947Y23679D01*
X66006Y23746D01*
X66067Y23811D01*
X66132Y23872D01*
X66199Y23931D01*
X66268Y23987D01*
X66340Y24040D01*
X66415Y24090D01*
X66491Y24136D01*
X66569Y24179D01*
X66649Y24218D01*
X66731Y24254D01*
X66814Y24287D01*
X66899Y24315D01*
X66984Y24340D01*
X67071Y24362D01*
X67159Y24379D01*
X67247Y24392D01*
X67336Y24402D01*
X67425Y24408D01*
X67514Y24410D01*
X67603Y24408D01*
X67692Y24402D01*
X67781Y24392D01*
X67869Y24379D01*
X67957Y24362D01*
X68044Y24340D01*
X68129Y24315D01*
X68214Y24287D01*
X68297Y24254D01*
X68379Y24218D01*
X68459Y24179D01*
X68537Y24136D01*
X68613Y24090D01*
X68688Y24040D01*
X68760Y23987D01*
X68829Y23931D01*
X68896Y23872D01*
X68961Y23811D01*
X69022Y23746D01*
X69081Y23679D01*
X69137Y23610D01*
X69190Y23538D01*
X69240Y23463D01*
X69286Y23387D01*
X69329Y23309D01*
X69368Y23229D01*
X69404Y23147D01*
X69437Y23064D01*
X69465Y22979D01*
X69490Y22894D01*
X69512Y22807D01*
X69529Y22719D01*
X69542Y22631D01*
X69552Y22542D01*
X69558Y22453D01*
X69560Y22364D01*
X69560Y20318D01*
X73652Y26949D02*
X73652Y30223D01*
X72834Y35335D02*
X72832Y35413D01*
X72827Y35491D01*
X72817Y35568D01*
X72804Y35645D01*
X72788Y35721D01*
X72768Y35796D01*
X72744Y35870D01*
X72717Y35943D01*
X72686Y36015D01*
X72652Y36085D01*
X72615Y36154D01*
X72574Y36220D01*
X72530Y36285D01*
X72484Y36347D01*
X72434Y36407D01*
X72382Y36465D01*
X72327Y36520D01*
X72269Y36572D01*
X72209Y36622D01*
X72147Y36668D01*
X72082Y36712D01*
X72016Y36753D01*
X71947Y36790D01*
X71877Y36824D01*
X71805Y36855D01*
X71732Y36882D01*
X71658Y36906D01*
X71583Y36926D01*
X71507Y36942D01*
X71430Y36955D01*
X71353Y36965D01*
X71275Y36970D01*
X71197Y36972D01*
X72834Y35335D02*
X72832Y35221D01*
X72827Y35108D01*
X72817Y34994D01*
X72804Y34881D01*
X72787Y34769D01*
X72767Y34657D01*
X72743Y34546D01*
X72715Y34435D01*
X72684Y34326D01*
X72649Y34218D01*
X72610Y34111D01*
X72568Y34005D01*
X72523Y33901D01*
X72474Y33798D01*
X72421Y33697D01*
X72366Y33598D01*
X72307Y33500D01*
X72245Y33405D01*
X72180Y33312D01*
X72112Y33220D01*
X72041Y33132D01*
X71967Y33045D01*
X71890Y32961D01*
X71811Y32880D01*
X67105Y33085D02*
X67027Y33087D01*
X66949Y33092D01*
X66872Y33102D01*
X66795Y33115D01*
X66719Y33131D01*
X66644Y33151D01*
X66570Y33175D01*
X66497Y33202D01*
X66425Y33233D01*
X66355Y33267D01*
X66287Y33304D01*
X66220Y33345D01*
X66155Y33389D01*
X66093Y33435D01*
X66033Y33485D01*
X65975Y33537D01*
X65920Y33592D01*
X65868Y33650D01*
X65818Y33710D01*
X65772Y33772D01*
X65728Y33837D01*
X65687Y33904D01*
X65650Y33972D01*
X65616Y34042D01*
X65585Y34114D01*
X65558Y34187D01*
X65534Y34261D01*
X65514Y34336D01*
X65498Y34412D01*
X65485Y34489D01*
X65475Y34566D01*
X65470Y34644D01*
X65468Y34722D01*
X65470Y34832D01*
X65476Y34941D01*
X65486Y35051D01*
X65499Y35159D01*
X65517Y35268D01*
X65538Y35375D01*
X65564Y35482D01*
X65593Y35588D01*
X65625Y35693D01*
X65662Y35796D01*
X65702Y35898D01*
X65746Y35999D01*
X65794Y36098D01*
X65844Y36195D01*
X65899Y36290D01*
X65957Y36383D01*
X66018Y36474D01*
X66082Y36563D01*
X68537Y33903D02*
X68495Y33837D01*
X68451Y33772D01*
X68403Y33710D01*
X68353Y33650D01*
X68300Y33592D01*
X68244Y33537D01*
X68186Y33484D01*
X68125Y33435D01*
X68062Y33388D01*
X67997Y33344D01*
X67930Y33304D01*
X67861Y33267D01*
X67790Y33233D01*
X67718Y33202D01*
X67644Y33175D01*
X67569Y33151D01*
X67494Y33131D01*
X67417Y33115D01*
X67340Y33102D01*
X67262Y33092D01*
X67183Y33087D01*
X67105Y33085D01*
X69764Y36154D02*
X69806Y36221D01*
X69850Y36286D01*
X69898Y36348D01*
X69948Y36408D01*
X70001Y36466D01*
X70057Y36521D01*
X70116Y36573D01*
X70176Y36623D01*
X70240Y36670D01*
X70305Y36713D01*
X70372Y36754D01*
X70441Y36791D01*
X70512Y36825D01*
X70584Y36856D01*
X70658Y36883D01*
X70732Y36907D01*
X70808Y36927D01*
X70885Y36943D01*
X70962Y36956D01*
X71040Y36966D01*
X71119Y36971D01*
X71197Y36973D01*
X69765Y36154D02*
X68537Y33903D01*
X65468Y41510D02*
X72834Y41510D01*
X65468Y39464D02*
X65468Y43556D01*
X67514Y46291D02*
X70788Y46291D01*
X67514Y46291D02*
X67425Y46293D01*
X67336Y46299D01*
X67247Y46309D01*
X67159Y46322D01*
X67071Y46339D01*
X66984Y46361D01*
X66899Y46386D01*
X66814Y46414D01*
X66731Y46447D01*
X66649Y46483D01*
X66569Y46522D01*
X66491Y46565D01*
X66415Y46611D01*
X66340Y46661D01*
X66268Y46714D01*
X66199Y46770D01*
X66132Y46829D01*
X66067Y46890D01*
X66006Y46955D01*
X65947Y47022D01*
X65891Y47091D01*
X65838Y47163D01*
X65788Y47238D01*
X65742Y47314D01*
X65699Y47392D01*
X65660Y47472D01*
X65624Y47554D01*
X65591Y47637D01*
X65563Y47722D01*
X65538Y47807D01*
X65516Y47894D01*
X65499Y47982D01*
X65486Y48070D01*
X65476Y48159D01*
X65470Y48248D01*
X65468Y48337D01*
X65470Y48426D01*
X65476Y48515D01*
X65486Y48604D01*
X65499Y48692D01*
X65516Y48780D01*
X65538Y48867D01*
X65563Y48952D01*
X65591Y49037D01*
X65624Y49120D01*
X65660Y49202D01*
X65699Y49282D01*
X65742Y49360D01*
X65788Y49436D01*
X65838Y49511D01*
X65891Y49583D01*
X65947Y49652D01*
X66006Y49719D01*
X66067Y49784D01*
X66132Y49845D01*
X66199Y49904D01*
X66268Y49960D01*
X66340Y50013D01*
X66415Y50063D01*
X66491Y50109D01*
X66569Y50152D01*
X66649Y50191D01*
X66731Y50227D01*
X66814Y50260D01*
X66899Y50288D01*
X66984Y50313D01*
X67071Y50335D01*
X67159Y50352D01*
X67247Y50365D01*
X67336Y50375D01*
X67425Y50381D01*
X67514Y50383D01*
X70788Y50383D01*
X70877Y50381D01*
X70966Y50375D01*
X71055Y50365D01*
X71143Y50352D01*
X71231Y50335D01*
X71318Y50313D01*
X71403Y50288D01*
X71488Y50260D01*
X71571Y50227D01*
X71653Y50191D01*
X71733Y50152D01*
X71811Y50109D01*
X71887Y50063D01*
X71962Y50013D01*
X72034Y49960D01*
X72103Y49904D01*
X72170Y49845D01*
X72235Y49784D01*
X72296Y49719D01*
X72355Y49652D01*
X72411Y49583D01*
X72464Y49511D01*
X72514Y49436D01*
X72560Y49360D01*
X72603Y49282D01*
X72642Y49202D01*
X72678Y49120D01*
X72711Y49037D01*
X72739Y48952D01*
X72764Y48867D01*
X72786Y48780D01*
X72803Y48692D01*
X72816Y48604D01*
X72826Y48515D01*
X72832Y48426D01*
X72834Y48337D01*
X72832Y48248D01*
X72826Y48159D01*
X72816Y48070D01*
X72803Y47982D01*
X72786Y47894D01*
X72764Y47807D01*
X72739Y47722D01*
X72711Y47637D01*
X72678Y47554D01*
X72642Y47472D01*
X72603Y47392D01*
X72560Y47314D01*
X72514Y47238D01*
X72464Y47163D01*
X72411Y47091D01*
X72355Y47022D01*
X72296Y46955D01*
X72235Y46890D01*
X72170Y46829D01*
X72103Y46770D01*
X72034Y46714D01*
X71962Y46661D01*
X71887Y46611D01*
X71811Y46565D01*
X71733Y46522D01*
X71653Y46483D01*
X71571Y46447D01*
X71488Y46414D01*
X71403Y46386D01*
X71318Y46361D01*
X71231Y46339D01*
X71143Y46322D01*
X71055Y46309D01*
X70966Y46299D01*
X70877Y46293D01*
X70788Y46291D01*
X72834Y53901D02*
X65468Y53901D01*
X65468Y55948D01*
X65470Y56037D01*
X65476Y56126D01*
X65486Y56215D01*
X65499Y56303D01*
X65516Y56391D01*
X65538Y56478D01*
X65563Y56563D01*
X65591Y56648D01*
X65624Y56731D01*
X65660Y56813D01*
X65699Y56893D01*
X65742Y56971D01*
X65788Y57047D01*
X65838Y57122D01*
X65891Y57194D01*
X65947Y57263D01*
X66006Y57330D01*
X66067Y57395D01*
X66132Y57456D01*
X66199Y57515D01*
X66268Y57571D01*
X66340Y57624D01*
X66415Y57674D01*
X66491Y57720D01*
X66569Y57763D01*
X66649Y57802D01*
X66731Y57838D01*
X66814Y57871D01*
X66899Y57899D01*
X66984Y57924D01*
X67071Y57946D01*
X67159Y57963D01*
X67247Y57976D01*
X67336Y57986D01*
X67425Y57992D01*
X67514Y57994D01*
X67603Y57992D01*
X67692Y57986D01*
X67781Y57976D01*
X67869Y57963D01*
X67957Y57946D01*
X68044Y57924D01*
X68129Y57899D01*
X68214Y57871D01*
X68297Y57838D01*
X68379Y57802D01*
X68459Y57763D01*
X68537Y57720D01*
X68613Y57674D01*
X68688Y57624D01*
X68760Y57571D01*
X68829Y57515D01*
X68896Y57456D01*
X68961Y57395D01*
X69022Y57330D01*
X69081Y57263D01*
X69137Y57194D01*
X69190Y57122D01*
X69240Y57047D01*
X69286Y56971D01*
X69329Y56893D01*
X69368Y56813D01*
X69404Y56731D01*
X69437Y56648D01*
X69465Y56563D01*
X69490Y56478D01*
X69512Y56391D01*
X69529Y56303D01*
X69542Y56215D01*
X69552Y56126D01*
X69558Y56037D01*
X69560Y55948D01*
X69560Y53901D01*
X69560Y56357D02*
X72834Y57994D01*
X352616Y81870D02*
X359982Y81870D01*
X352616Y79824D02*
X352616Y83917D01*
X352616Y87013D02*
X359982Y87013D01*
X352616Y87013D02*
X352616Y89060D01*
X352618Y89149D01*
X352624Y89238D01*
X352634Y89327D01*
X352647Y89415D01*
X352664Y89503D01*
X352686Y89590D01*
X352711Y89675D01*
X352739Y89760D01*
X352772Y89843D01*
X352808Y89925D01*
X352847Y90005D01*
X352890Y90083D01*
X352936Y90159D01*
X352986Y90234D01*
X353039Y90306D01*
X353095Y90375D01*
X353154Y90442D01*
X353215Y90507D01*
X353280Y90568D01*
X353347Y90627D01*
X353416Y90683D01*
X353488Y90736D01*
X353563Y90786D01*
X353639Y90832D01*
X353717Y90875D01*
X353797Y90914D01*
X353879Y90950D01*
X353962Y90983D01*
X354047Y91011D01*
X354132Y91036D01*
X354219Y91058D01*
X354307Y91075D01*
X354395Y91088D01*
X354484Y91098D01*
X354573Y91104D01*
X354662Y91106D01*
X354751Y91104D01*
X354840Y91098D01*
X354929Y91088D01*
X355017Y91075D01*
X355105Y91058D01*
X355192Y91036D01*
X355277Y91011D01*
X355362Y90983D01*
X355445Y90950D01*
X355527Y90914D01*
X355607Y90875D01*
X355685Y90832D01*
X355761Y90786D01*
X355836Y90736D01*
X355908Y90683D01*
X355977Y90627D01*
X356044Y90568D01*
X356109Y90507D01*
X356170Y90442D01*
X356229Y90375D01*
X356285Y90306D01*
X356338Y90234D01*
X356388Y90159D01*
X356434Y90083D01*
X356477Y90005D01*
X356516Y89925D01*
X356552Y89843D01*
X356585Y89760D01*
X356613Y89675D01*
X356638Y89590D01*
X356660Y89503D01*
X356677Y89415D01*
X356690Y89327D01*
X356700Y89238D01*
X356706Y89149D01*
X356708Y89060D01*
X356708Y87013D01*
X360800Y93645D02*
X360800Y96919D01*
X359982Y102031D02*
X359980Y102109D01*
X359975Y102187D01*
X359965Y102264D01*
X359952Y102341D01*
X359936Y102417D01*
X359916Y102492D01*
X359892Y102566D01*
X359865Y102639D01*
X359834Y102711D01*
X359800Y102781D01*
X359763Y102850D01*
X359722Y102916D01*
X359678Y102981D01*
X359632Y103043D01*
X359582Y103103D01*
X359530Y103161D01*
X359475Y103216D01*
X359417Y103268D01*
X359357Y103318D01*
X359295Y103364D01*
X359230Y103408D01*
X359164Y103449D01*
X359095Y103486D01*
X359025Y103520D01*
X358953Y103551D01*
X358880Y103578D01*
X358806Y103602D01*
X358731Y103622D01*
X358655Y103638D01*
X358578Y103651D01*
X358501Y103661D01*
X358423Y103666D01*
X358345Y103668D01*
X359982Y102031D02*
X359980Y101917D01*
X359975Y101804D01*
X359965Y101690D01*
X359952Y101577D01*
X359935Y101465D01*
X359915Y101353D01*
X359891Y101242D01*
X359863Y101131D01*
X359832Y101022D01*
X359797Y100914D01*
X359758Y100807D01*
X359716Y100701D01*
X359671Y100597D01*
X359622Y100494D01*
X359569Y100393D01*
X359514Y100294D01*
X359455Y100196D01*
X359393Y100101D01*
X359328Y100008D01*
X359260Y99916D01*
X359189Y99828D01*
X359115Y99741D01*
X359038Y99657D01*
X358959Y99576D01*
X354253Y99780D02*
X354175Y99782D01*
X354097Y99787D01*
X354020Y99797D01*
X353943Y99810D01*
X353867Y99826D01*
X353792Y99846D01*
X353718Y99870D01*
X353645Y99897D01*
X353573Y99928D01*
X353503Y99962D01*
X353435Y99999D01*
X353368Y100040D01*
X353303Y100084D01*
X353241Y100130D01*
X353181Y100180D01*
X353123Y100232D01*
X353068Y100287D01*
X353016Y100345D01*
X352966Y100405D01*
X352920Y100467D01*
X352876Y100532D01*
X352835Y100599D01*
X352798Y100667D01*
X352764Y100737D01*
X352733Y100809D01*
X352706Y100882D01*
X352682Y100956D01*
X352662Y101031D01*
X352646Y101107D01*
X352633Y101184D01*
X352623Y101261D01*
X352618Y101339D01*
X352616Y101417D01*
X352618Y101527D01*
X352624Y101636D01*
X352634Y101746D01*
X352647Y101854D01*
X352665Y101963D01*
X352686Y102070D01*
X352712Y102177D01*
X352741Y102283D01*
X352773Y102388D01*
X352810Y102491D01*
X352850Y102593D01*
X352894Y102694D01*
X352942Y102793D01*
X352992Y102890D01*
X353047Y102985D01*
X353105Y103078D01*
X353166Y103169D01*
X353230Y103258D01*
X355685Y100598D02*
X355643Y100532D01*
X355599Y100467D01*
X355551Y100405D01*
X355501Y100345D01*
X355448Y100287D01*
X355392Y100232D01*
X355334Y100179D01*
X355273Y100130D01*
X355210Y100083D01*
X355145Y100039D01*
X355078Y99999D01*
X355009Y99962D01*
X354938Y99928D01*
X354866Y99897D01*
X354792Y99870D01*
X354717Y99846D01*
X354642Y99826D01*
X354565Y99810D01*
X354488Y99797D01*
X354410Y99787D01*
X354331Y99782D01*
X354253Y99780D01*
X356912Y102849D02*
X356954Y102916D01*
X356998Y102981D01*
X357046Y103043D01*
X357096Y103103D01*
X357149Y103161D01*
X357205Y103216D01*
X357264Y103268D01*
X357324Y103318D01*
X357388Y103365D01*
X357453Y103408D01*
X357520Y103449D01*
X357589Y103486D01*
X357660Y103520D01*
X357732Y103551D01*
X357806Y103578D01*
X357880Y103602D01*
X357956Y103622D01*
X358033Y103638D01*
X358110Y103651D01*
X358188Y103661D01*
X358267Y103666D01*
X358345Y103668D01*
X356913Y102849D02*
X355685Y100598D01*
X352616Y106891D02*
X359982Y106891D01*
X352616Y106891D02*
X352616Y108937D01*
X352618Y109026D01*
X352624Y109115D01*
X352634Y109204D01*
X352647Y109292D01*
X352664Y109380D01*
X352686Y109467D01*
X352711Y109552D01*
X352739Y109637D01*
X352772Y109720D01*
X352808Y109802D01*
X352847Y109882D01*
X352890Y109960D01*
X352936Y110036D01*
X352986Y110111D01*
X353039Y110183D01*
X353095Y110252D01*
X353154Y110319D01*
X353215Y110384D01*
X353280Y110445D01*
X353347Y110504D01*
X353416Y110560D01*
X353488Y110613D01*
X353563Y110663D01*
X353639Y110709D01*
X353717Y110752D01*
X353797Y110791D01*
X353879Y110827D01*
X353962Y110860D01*
X354047Y110888D01*
X354132Y110913D01*
X354219Y110935D01*
X354307Y110952D01*
X354395Y110965D01*
X354484Y110975D01*
X354573Y110981D01*
X354662Y110983D01*
X357936Y110983D01*
X358025Y110981D01*
X358114Y110975D01*
X358203Y110965D01*
X358291Y110952D01*
X358379Y110935D01*
X358466Y110913D01*
X358551Y110888D01*
X358636Y110860D01*
X358719Y110827D01*
X358801Y110791D01*
X358881Y110752D01*
X358959Y110709D01*
X359035Y110663D01*
X359110Y110613D01*
X359182Y110560D01*
X359251Y110504D01*
X359318Y110445D01*
X359383Y110384D01*
X359444Y110319D01*
X359503Y110252D01*
X359559Y110183D01*
X359612Y110111D01*
X359662Y110036D01*
X359708Y109960D01*
X359751Y109882D01*
X359790Y109802D01*
X359826Y109720D01*
X359859Y109637D01*
X359887Y109552D01*
X359912Y109467D01*
X359934Y109380D01*
X359951Y109292D01*
X359964Y109204D01*
X359974Y109115D01*
X359980Y109026D01*
X359982Y108937D01*
X359982Y106891D01*
X359982Y114040D02*
X352616Y116496D01*
X359982Y118951D01*
X358141Y118337D02*
X358141Y114654D01*
X362522Y83275D02*
X369888Y83275D01*
X362522Y81229D02*
X362522Y85322D01*
X362522Y88418D02*
X369888Y88418D01*
X362522Y88418D02*
X362522Y90465D01*
X362524Y90554D01*
X362530Y90643D01*
X362540Y90732D01*
X362553Y90820D01*
X362570Y90908D01*
X362592Y90995D01*
X362617Y91080D01*
X362645Y91165D01*
X362678Y91248D01*
X362714Y91330D01*
X362753Y91410D01*
X362796Y91488D01*
X362842Y91564D01*
X362892Y91639D01*
X362945Y91711D01*
X363001Y91780D01*
X363060Y91847D01*
X363121Y91912D01*
X363186Y91973D01*
X363253Y92032D01*
X363322Y92088D01*
X363394Y92141D01*
X363469Y92191D01*
X363545Y92237D01*
X363623Y92280D01*
X363703Y92319D01*
X363785Y92355D01*
X363868Y92388D01*
X363953Y92416D01*
X364038Y92441D01*
X364125Y92463D01*
X364213Y92480D01*
X364301Y92493D01*
X364390Y92503D01*
X364479Y92509D01*
X364568Y92511D01*
X364657Y92509D01*
X364746Y92503D01*
X364835Y92493D01*
X364923Y92480D01*
X365011Y92463D01*
X365098Y92441D01*
X365183Y92416D01*
X365268Y92388D01*
X365351Y92355D01*
X365433Y92319D01*
X365513Y92280D01*
X365591Y92237D01*
X365667Y92191D01*
X365742Y92141D01*
X365814Y92088D01*
X365883Y92032D01*
X365950Y91973D01*
X366015Y91912D01*
X366076Y91847D01*
X366135Y91780D01*
X366191Y91711D01*
X366244Y91639D01*
X366294Y91564D01*
X366340Y91488D01*
X366383Y91410D01*
X366422Y91330D01*
X366458Y91248D01*
X366491Y91165D01*
X366519Y91080D01*
X366544Y90995D01*
X366566Y90908D01*
X366583Y90820D01*
X366596Y90732D01*
X366606Y90643D01*
X366612Y90554D01*
X366614Y90465D01*
X366614Y88418D01*
X370706Y95050D02*
X370706Y98324D01*
X369888Y103436D02*
X369886Y103514D01*
X369881Y103592D01*
X369871Y103669D01*
X369858Y103746D01*
X369842Y103822D01*
X369822Y103897D01*
X369798Y103971D01*
X369771Y104044D01*
X369740Y104116D01*
X369706Y104186D01*
X369669Y104255D01*
X369628Y104321D01*
X369584Y104386D01*
X369538Y104448D01*
X369488Y104508D01*
X369436Y104566D01*
X369381Y104621D01*
X369323Y104673D01*
X369263Y104723D01*
X369201Y104769D01*
X369136Y104813D01*
X369070Y104854D01*
X369001Y104891D01*
X368931Y104925D01*
X368859Y104956D01*
X368786Y104983D01*
X368712Y105007D01*
X368637Y105027D01*
X368561Y105043D01*
X368484Y105056D01*
X368407Y105066D01*
X368329Y105071D01*
X368251Y105073D01*
X369888Y103436D02*
X369886Y103322D01*
X369881Y103209D01*
X369871Y103095D01*
X369858Y102982D01*
X369841Y102870D01*
X369821Y102758D01*
X369797Y102647D01*
X369769Y102536D01*
X369738Y102427D01*
X369703Y102319D01*
X369664Y102212D01*
X369622Y102106D01*
X369577Y102002D01*
X369528Y101899D01*
X369475Y101798D01*
X369420Y101699D01*
X369361Y101601D01*
X369299Y101506D01*
X369234Y101413D01*
X369166Y101321D01*
X369095Y101233D01*
X369021Y101146D01*
X368944Y101062D01*
X368865Y100981D01*
X364159Y101185D02*
X364081Y101187D01*
X364003Y101192D01*
X363926Y101202D01*
X363849Y101215D01*
X363773Y101231D01*
X363698Y101251D01*
X363624Y101275D01*
X363551Y101302D01*
X363479Y101333D01*
X363409Y101367D01*
X363341Y101404D01*
X363274Y101445D01*
X363209Y101489D01*
X363147Y101535D01*
X363087Y101585D01*
X363029Y101637D01*
X362974Y101692D01*
X362922Y101750D01*
X362872Y101810D01*
X362826Y101872D01*
X362782Y101937D01*
X362741Y102004D01*
X362704Y102072D01*
X362670Y102142D01*
X362639Y102214D01*
X362612Y102287D01*
X362588Y102361D01*
X362568Y102436D01*
X362552Y102512D01*
X362539Y102589D01*
X362529Y102666D01*
X362524Y102744D01*
X362522Y102822D01*
X362524Y102932D01*
X362530Y103041D01*
X362540Y103151D01*
X362553Y103259D01*
X362571Y103368D01*
X362592Y103475D01*
X362618Y103582D01*
X362647Y103688D01*
X362679Y103793D01*
X362716Y103896D01*
X362756Y103998D01*
X362800Y104099D01*
X362848Y104198D01*
X362898Y104295D01*
X362953Y104390D01*
X363011Y104483D01*
X363072Y104574D01*
X363136Y104663D01*
X365591Y102003D02*
X365549Y101937D01*
X365505Y101872D01*
X365457Y101810D01*
X365407Y101750D01*
X365354Y101692D01*
X365298Y101637D01*
X365240Y101584D01*
X365179Y101535D01*
X365116Y101488D01*
X365051Y101444D01*
X364984Y101404D01*
X364915Y101367D01*
X364844Y101333D01*
X364772Y101302D01*
X364698Y101275D01*
X364623Y101251D01*
X364548Y101231D01*
X364471Y101215D01*
X364394Y101202D01*
X364316Y101192D01*
X364237Y101187D01*
X364159Y101185D01*
X366818Y104254D02*
X366860Y104321D01*
X366904Y104386D01*
X366952Y104448D01*
X367002Y104508D01*
X367055Y104566D01*
X367111Y104621D01*
X367170Y104673D01*
X367230Y104723D01*
X367294Y104770D01*
X367359Y104813D01*
X367426Y104854D01*
X367495Y104891D01*
X367566Y104925D01*
X367638Y104956D01*
X367712Y104983D01*
X367786Y105007D01*
X367862Y105027D01*
X367939Y105043D01*
X368016Y105056D01*
X368094Y105066D01*
X368173Y105071D01*
X368251Y105073D01*
X366819Y104254D02*
X365591Y102003D01*
X369888Y109666D02*
X369888Y111302D01*
X369888Y109666D02*
X369886Y109588D01*
X369881Y109510D01*
X369871Y109433D01*
X369858Y109356D01*
X369842Y109280D01*
X369822Y109205D01*
X369798Y109131D01*
X369771Y109058D01*
X369740Y108986D01*
X369706Y108916D01*
X369669Y108848D01*
X369628Y108781D01*
X369584Y108716D01*
X369538Y108654D01*
X369488Y108594D01*
X369436Y108536D01*
X369381Y108481D01*
X369323Y108429D01*
X369263Y108379D01*
X369201Y108333D01*
X369136Y108289D01*
X369070Y108248D01*
X369001Y108211D01*
X368931Y108177D01*
X368859Y108146D01*
X368786Y108119D01*
X368712Y108095D01*
X368637Y108075D01*
X368561Y108059D01*
X368484Y108046D01*
X368407Y108036D01*
X368329Y108031D01*
X368251Y108029D01*
X364159Y108029D01*
X364079Y108031D01*
X363999Y108037D01*
X363919Y108047D01*
X363840Y108060D01*
X363761Y108078D01*
X363684Y108099D01*
X363608Y108125D01*
X363533Y108154D01*
X363459Y108186D01*
X363387Y108222D01*
X363317Y108262D01*
X363250Y108305D01*
X363184Y108351D01*
X363121Y108401D01*
X363060Y108453D01*
X363001Y108508D01*
X362946Y108567D01*
X362894Y108627D01*
X362844Y108691D01*
X362798Y108756D01*
X362755Y108824D01*
X362715Y108894D01*
X362679Y108966D01*
X362647Y109040D01*
X362618Y109114D01*
X362593Y109191D01*
X362571Y109268D01*
X362553Y109347D01*
X362540Y109426D01*
X362530Y109505D01*
X362524Y109586D01*
X362522Y109666D01*
X362522Y111302D01*
X362522Y114407D02*
X369888Y114407D01*
X369888Y117681D01*
M02*
