G04 EAGLE Gerber RS-274X export*
G75*
%MOMM*%
%FSLAX34Y34*%
%LPD*%
%INSoldermask Bottom*%
%IPPOS*%
%AMOC8*
5,1,8,0,0,1.08239X$1,22.5*%
G01*
%ADD10C,2.108200*%
%ADD11R,0.823200X0.823200*%
%ADD12R,1.203200X1.153200*%
%ADD13R,1.353200X1.653200*%
%ADD14C,1.193800*%
%ADD15R,0.838200X1.473200*%
%ADD16R,0.228600X0.774700*%
%ADD17R,1.511300X2.743200*%
%ADD18R,1.000659X1.103200*%
%ADD19R,0.553200X0.653200*%
%ADD20R,0.553200X0.553200*%
%ADD21R,0.653200X0.553200*%
%ADD22R,0.703200X0.703200*%
%ADD23R,1.703200X0.903200*%
%ADD24R,0.803200X1.203200*%
%ADD25R,1.003200X1.203200*%
%ADD26C,1.103200*%
%ADD27C,0.304800*%
%ADD28C,0.292100*%
%ADD29R,1.003200X1.103200*%
%ADD30R,2.703200X1.803200*%
%ADD31C,0.653200*%
%ADD32C,0.325000*%
%ADD33R,1.549400X1.016000*%
%ADD34R,2.108200X1.295400*%
%ADD35C,0.803200*%
%ADD36C,0.508000*%
%ADD37C,0.609600*%


D10*
X234950Y234950D03*
X234950Y19050D03*
D11*
X178562Y147138D03*
X178562Y156138D03*
X17200Y29210D03*
X8200Y29210D03*
X199970Y75184D03*
X208970Y75184D03*
X221814Y75184D03*
X230814Y75184D03*
X223012Y180776D03*
X223012Y171776D03*
X223266Y192858D03*
X223266Y201858D03*
X59690Y186110D03*
X59690Y177110D03*
X95250Y187380D03*
X95250Y178380D03*
X220726Y110418D03*
X220726Y101418D03*
X234878Y86614D03*
X225878Y86614D03*
X156718Y147138D03*
X156718Y156138D03*
X167640Y147138D03*
X167640Y156138D03*
X145542Y147138D03*
X145542Y156138D03*
X177292Y120324D03*
X177292Y111324D03*
X166878Y120070D03*
X166878Y111070D03*
X145796Y120070D03*
X145796Y111070D03*
X156464Y120070D03*
X156464Y111070D03*
X91512Y166624D03*
X100512Y166624D03*
D12*
X94742Y153034D03*
X94742Y137034D03*
D13*
X50402Y148844D03*
X32402Y148844D03*
D14*
X22860Y132080D03*
X33010Y81280D03*
X12710Y81280D03*
D15*
X103886Y222250D03*
X112014Y222250D03*
D16*
X166370Y242634D03*
X162370Y242634D03*
X158370Y242634D03*
X154370Y242634D03*
X150370Y242634D03*
X146370Y242634D03*
X142370Y242634D03*
X138370Y242634D03*
X194370Y242634D03*
X190370Y242634D03*
X186370Y242634D03*
X182370Y242634D03*
X178370Y242634D03*
X174370Y242634D03*
X170370Y242634D03*
X166370Y212027D03*
X162370Y212027D03*
X158370Y212027D03*
X154370Y212027D03*
X150370Y212027D03*
X146370Y212027D03*
X142370Y212027D03*
X138370Y212027D03*
X194370Y212027D03*
X190370Y212027D03*
X186370Y212027D03*
X182370Y212027D03*
X178370Y212027D03*
X174370Y212027D03*
X170370Y212027D03*
D17*
X76835Y122174D03*
X51689Y122174D03*
D18*
X85700Y202090D03*
X76200Y222090D03*
X66700Y202090D03*
D19*
X60360Y85090D03*
D20*
X48860Y81090D03*
X48860Y89090D03*
D19*
X89062Y84074D03*
D20*
X77562Y80074D03*
X77562Y88074D03*
D21*
X54610Y62322D03*
D20*
X50610Y73822D03*
X58610Y73822D03*
D22*
X37846Y60380D03*
X37846Y51380D03*
X198700Y19812D03*
X207700Y19812D03*
X198700Y32004D03*
X207700Y32004D03*
X29790Y29210D03*
X38790Y29210D03*
X68580Y87050D03*
X68580Y78050D03*
X54030Y99314D03*
X45030Y99314D03*
X67382Y99568D03*
X76382Y99568D03*
X22860Y42490D03*
X22860Y51490D03*
D23*
X44170Y226970D03*
X44170Y211970D03*
X44170Y181970D03*
D24*
X16670Y240970D03*
D25*
X37670Y240970D03*
D24*
X16670Y167970D03*
D25*
X37670Y167970D03*
D26*
X26670Y219470D03*
X26670Y189470D03*
D27*
X77152Y147924D03*
X77152Y151924D03*
X77152Y155924D03*
X77152Y159924D03*
X73152Y147924D03*
X73152Y151924D03*
X73152Y155924D03*
X73152Y159924D03*
X69152Y147924D03*
X69152Y151924D03*
X69152Y155924D03*
X69152Y159924D03*
D28*
X76200Y182880D03*
X80200Y186880D03*
X76200Y186880D03*
X80200Y182880D03*
X72200Y186880D03*
X80200Y178880D03*
X72200Y178880D03*
X72200Y182880D03*
X76200Y178880D03*
D29*
X81210Y241300D03*
X104210Y241300D03*
D30*
X230632Y144018D03*
D31*
X230632Y156518D02*
X230632Y160518D01*
X230632Y131518D02*
X230632Y127518D01*
X240632Y156518D02*
X240632Y160518D01*
X220632Y160518D02*
X220632Y156518D01*
X220632Y131518D02*
X220632Y127518D01*
X240632Y127518D02*
X240632Y131518D01*
D32*
X233252Y105196D03*
X233252Y110196D03*
X238252Y105196D03*
X238252Y110196D03*
X243252Y105196D03*
X243252Y110196D03*
D33*
X204851Y47364D03*
X204851Y62364D03*
X232029Y62364D03*
X232029Y47364D03*
D34*
X240284Y175260D03*
X240284Y199644D03*
D15*
X51054Y240792D03*
X59182Y240792D03*
X67310Y240792D03*
D35*
X244602Y119380D03*
D36*
X142240Y248158D03*
X59690Y171958D03*
X32512Y157988D03*
X82296Y160528D03*
X100330Y172720D03*
X73152Y141478D03*
X101600Y139700D03*
X43688Y81026D03*
D37*
X69342Y70104D03*
D36*
X209296Y41148D03*
X233934Y56134D03*
X209550Y69850D03*
X177292Y111324D03*
X171450Y156138D03*
D37*
X223266Y209042D03*
X13208Y35814D03*
D36*
X230632Y159004D03*
D37*
X232609Y166751D03*
X212344Y239776D03*
D36*
X225878Y95250D03*
D37*
X92710Y105410D03*
D36*
X248335Y114560D03*
D37*
X81280Y171704D03*
D36*
X77562Y80074D03*
D37*
X63500Y31750D03*
X76200Y31750D03*
X69850Y57150D03*
X9652Y64262D03*
X9398Y113030D03*
X6350Y146050D03*
X19050Y203200D03*
X31750Y203200D03*
X247650Y222250D03*
X107950Y185166D03*
X188976Y154686D03*
X189230Y79756D03*
X190754Y63754D03*
X178308Y59944D03*
X159512Y87630D03*
X171196Y28956D03*
X153162Y35052D03*
X216662Y10922D03*
X203962Y90678D03*
X186182Y110744D03*
X119634Y97790D03*
X245872Y67056D03*
X245872Y40894D03*
X213868Y119888D03*
X184404Y187960D03*
X96520Y204216D03*
X55118Y203454D03*
X139446Y231394D03*
X120142Y235712D03*
X207772Y189992D03*
X167386Y195326D03*
X228346Y213360D03*
X8128Y20574D03*
X98044Y103886D03*
X66294Y128778D03*
X58420Y163322D03*
X177800Y69850D03*
X155194Y65024D03*
X112268Y119380D03*
X230124Y92964D03*
X149098Y193802D03*
X185166Y147066D03*
X30916Y21336D03*
X204724Y135382D03*
X31750Y68199D03*
D36*
X123872Y141895D03*
D37*
X212084Y82550D03*
X202057Y96393D03*
X215900Y177800D03*
X215900Y184150D03*
X167640Y188468D03*
X96774Y54610D03*
D36*
X174370Y233520D03*
X194564Y140208D03*
X123952Y147193D03*
D37*
X41910Y114554D03*
D36*
X178942Y232948D03*
X194818Y145288D03*
X123698Y152273D03*
D37*
X34481Y114046D03*
X213614Y249428D03*
X215646Y210312D03*
X138938Y152654D03*
X124714Y232410D03*
D36*
X166224Y247686D03*
D37*
X171473Y249405D03*
X26416Y60706D03*
X107950Y75438D03*
X107350Y9762D03*
X139350Y9000D03*
X139700Y95758D03*
X138430Y62992D03*
X138430Y36068D03*
X117094Y9652D03*
X102362Y74676D03*
X101854Y9398D03*
X125222Y165100D03*
X110998Y173990D03*
X134112Y9398D03*
X123952Y159766D03*
X112776Y156210D03*
X152400Y9144D03*
X205875Y37711D03*
D36*
X75819Y192278D03*
X225334Y155066D03*
D37*
X198628Y12446D03*
D36*
X71617Y194542D03*
X214578Y105156D03*
D37*
X177800Y95250D03*
D36*
X189738Y105156D03*
D37*
X163322Y27432D03*
X138938Y120396D03*
X147280Y9184D03*
D36*
X129592Y139954D03*
D37*
X122428Y136652D03*
X125730Y132588D03*
X125730Y9652D03*
X118872Y132080D03*
X121920Y79248D03*
X87122Y15240D03*
X122428Y114808D03*
X115570Y109982D03*
X159258Y30988D03*
X112586Y79058D03*
X188214Y92710D03*
X187706Y124968D03*
X174752Y197358D03*
X172720Y190246D03*
X203890Y154940D03*
X205994Y120142D03*
X208280Y196088D03*
X191770Y231648D03*
X210566Y129794D03*
X188214Y223266D03*
X204978Y130048D03*
X194564Y184404D03*
X187706Y130048D03*
X217678Y226568D03*
X85598Y76962D03*
X94742Y69342D03*
X94996Y74422D03*
X109982Y107696D03*
X112268Y131826D03*
X132588Y177546D03*
X93218Y58420D03*
X82296Y91186D03*
X168402Y182626D03*
X98552Y78232D03*
X107950Y97028D03*
X115316Y137668D03*
X120396Y155956D03*
X107188Y91186D03*
X140970Y127508D03*
X155194Y53848D03*
X164592Y95758D03*
X137160Y173990D03*
X163068Y67818D03*
X167350Y9762D03*
D36*
X54610Y62322D03*
D37*
X228600Y4572D03*
D36*
X60360Y85090D03*
X150370Y233520D03*
D37*
X157988Y94234D03*
X135890Y226822D03*
X107696Y161290D03*
X114300Y124714D03*
X123698Y120396D03*
X155194Y228854D03*
X161036Y249428D03*
X59690Y157226D03*
X133350Y216248D03*
D36*
X122054Y199524D03*
D37*
X57150Y12700D03*
D36*
X165180Y222330D03*
D37*
X96012Y246888D03*
D36*
X94107Y215900D03*
D37*
X94234Y227114D03*
D36*
X94742Y159766D03*
X70791Y172541D03*
D37*
X41982Y105592D03*
X69342Y231140D03*
X62738Y104394D03*
X63164Y90850D03*
D36*
X241300Y84836D03*
X171450Y222878D03*
X242213Y102331D03*
X60833Y231394D03*
D37*
X44718Y234950D03*
X214630Y162433D03*
X211958Y214243D03*
X194564Y177038D03*
D36*
X139700Y196746D03*
D37*
X187706Y116840D03*
X206248Y232156D03*
X57658Y55118D03*
X44450Y12700D03*
X207700Y25400D03*
X231140Y184150D03*
X12954Y126238D03*
X97663Y128270D03*
D36*
X161290Y149446D03*
X172974Y120324D03*
X160633Y205382D03*
X152908Y123626D03*
D37*
X183896Y120396D03*
X209042Y174244D03*
X184912Y180848D03*
X163322Y180848D03*
M02*
