G04 EAGLE Gerber RS-274X export*
G75*
%MOMM*%
%FSLAX34Y34*%
%LPD*%
%INSoldermask Top*%
%IPPOS*%
%AMOC8*
5,1,8,0,0,1.08239X$1,22.5*%
G01*
%ADD10C,2.108200*%
%ADD11R,1.653200X1.353200*%
%ADD12R,1.353200X1.653200*%
%ADD13R,0.823200X0.823200*%
%ADD14R,0.903200X0.803200*%
%ADD15R,4.803200X1.203200*%
%ADD16R,3.603200X1.803200*%
%ADD17C,0.990600*%
%ADD18C,1.193800*%
%ADD19R,1.473200X0.838200*%
%ADD20R,0.246381X0.787400*%
%ADD21R,1.003200X1.003200*%
%ADD22R,0.703200X0.703200*%
%ADD23R,1.253200X1.603200*%
%ADD24C,1.103200*%
%ADD25C,0.803200*%
%ADD26C,0.304800*%
%ADD27C,0.325000*%
%ADD28C,0.315166*%
%ADD29R,3.603200X4.203200*%
%ADD30R,2.870200X1.016000*%
%ADD31C,0.508000*%
%ADD32C,0.609600*%


D10*
X234950Y234950D03*
X234950Y19050D03*
D11*
X241300Y140826D03*
X241300Y122826D03*
D12*
X224934Y195072D03*
X242934Y195072D03*
D13*
X222250Y147248D03*
X222250Y138248D03*
D11*
X241300Y158132D03*
X241300Y176132D03*
D13*
X97028Y121086D03*
X97028Y112086D03*
X221996Y118690D03*
X221996Y127690D03*
X112958Y243332D03*
X103958Y243332D03*
X113466Y214122D03*
X104466Y214122D03*
D14*
X64436Y97424D03*
X64436Y83424D03*
X54436Y97424D03*
X54436Y83424D03*
D15*
X72560Y194470D03*
X72560Y214470D03*
D16*
X20560Y170470D03*
X20560Y238470D03*
D17*
X16510Y119380D03*
X16510Y106680D03*
X16510Y93980D03*
X29210Y93980D03*
X29210Y106680D03*
X29210Y119380D03*
D18*
X22860Y132080D03*
X33010Y81280D03*
X12710Y81280D03*
D19*
X58674Y69850D03*
X58674Y61722D03*
X65278Y112776D03*
X65278Y120904D03*
X82804Y129794D03*
X82804Y137922D03*
D20*
X131356Y16383D03*
X127356Y16383D03*
X123356Y16383D03*
X119356Y16383D03*
X115356Y16383D03*
X111356Y16383D03*
X107356Y16383D03*
X103356Y16383D03*
X99356Y16383D03*
X95356Y16383D03*
X91356Y16383D03*
X175356Y16383D03*
X171356Y16383D03*
X167356Y16383D03*
X163356Y16383D03*
X159356Y16383D03*
X155356Y16383D03*
X151356Y16383D03*
X147356Y16383D03*
X143356Y16383D03*
X139356Y16383D03*
X135356Y16383D03*
X127356Y47117D03*
X123356Y47117D03*
X119356Y47117D03*
X115356Y47117D03*
X111356Y47117D03*
X107356Y47117D03*
X103356Y47117D03*
X99356Y47117D03*
X95356Y47117D03*
X91356Y47117D03*
X175356Y47117D03*
X171356Y47117D03*
X167356Y47117D03*
X163356Y47117D03*
X159356Y47117D03*
X155356Y47117D03*
X151356Y47117D03*
X147356Y47117D03*
X143356Y47117D03*
X139356Y47117D03*
X135356Y47117D03*
X131356Y47117D03*
D21*
X224282Y161664D03*
X224282Y176664D03*
D22*
X90170Y236038D03*
X90170Y245038D03*
X51054Y110308D03*
X51054Y119308D03*
D21*
X56642Y149740D03*
X56642Y134740D03*
X76066Y150622D03*
X91066Y150622D03*
X107054Y199136D03*
X122054Y199136D03*
X83312Y115450D03*
X83312Y100450D03*
D23*
X26300Y45940D03*
X26300Y9940D03*
X11800Y45940D03*
X11800Y9940D03*
D24*
X26670Y219470D03*
X26670Y189470D03*
D25*
X123190Y220980D03*
X131064Y240030D03*
D26*
X194592Y135128D03*
X194592Y140128D03*
X194592Y145128D03*
X194592Y130128D03*
X194592Y125128D03*
X194592Y160128D03*
X194592Y165128D03*
X194592Y170128D03*
X194592Y155128D03*
X194592Y150128D03*
X194592Y110128D03*
X194592Y115128D03*
X194592Y120128D03*
X194592Y105128D03*
X194592Y100128D03*
X189592Y165128D03*
X189592Y170128D03*
X189592Y105128D03*
X189592Y100128D03*
X199617Y135128D03*
X199617Y140128D03*
X199617Y145128D03*
X199617Y130128D03*
X199617Y125128D03*
X199617Y160128D03*
X199617Y165128D03*
X199617Y170128D03*
X199617Y155128D03*
X199617Y150128D03*
X199617Y110128D03*
X199617Y115128D03*
X199617Y120128D03*
X199617Y105128D03*
X199617Y100128D03*
X184592Y165128D03*
X184592Y170128D03*
X184592Y105128D03*
X184592Y100128D03*
X179592Y165128D03*
X179592Y170128D03*
X179592Y105128D03*
X179592Y100128D03*
X174592Y135128D03*
X174592Y140128D03*
X174592Y145128D03*
X174592Y130128D03*
X174592Y125128D03*
X174592Y165128D03*
X174592Y170128D03*
X174592Y105128D03*
X174592Y100128D03*
X169592Y145128D03*
X169592Y125128D03*
X169592Y165128D03*
X169592Y170128D03*
X169592Y105128D03*
X169592Y100128D03*
X164592Y145128D03*
X164592Y125128D03*
X164592Y165128D03*
X164592Y170128D03*
X164592Y105128D03*
X164592Y100128D03*
X159592Y145128D03*
X159592Y125128D03*
X159592Y165128D03*
X159592Y170128D03*
X159592Y105128D03*
X159592Y100128D03*
X154592Y135128D03*
X154592Y140128D03*
X154592Y145128D03*
X154592Y130128D03*
X154592Y125128D03*
X154592Y165128D03*
X154592Y170128D03*
X154592Y105128D03*
X154592Y100128D03*
X149592Y165128D03*
X149592Y170128D03*
X149592Y105128D03*
X149592Y100128D03*
X144592Y165128D03*
X144592Y170128D03*
X144592Y105128D03*
X144592Y100128D03*
X139592Y165128D03*
X139592Y170128D03*
X139592Y105128D03*
X139592Y100128D03*
X134592Y135128D03*
X134592Y140128D03*
X134592Y145128D03*
X134592Y130128D03*
X134592Y125128D03*
X134592Y160128D03*
X134592Y165128D03*
X134592Y170128D03*
X134592Y155128D03*
X134592Y150128D03*
X134592Y110128D03*
X134592Y115128D03*
X134592Y120128D03*
X134592Y105128D03*
X134592Y100128D03*
X129592Y135128D03*
X129592Y140128D03*
X129592Y145128D03*
X129592Y130128D03*
X129592Y125128D03*
X129592Y160128D03*
X129592Y165128D03*
X129592Y170128D03*
X129592Y155128D03*
X129592Y150128D03*
X129592Y110128D03*
X129592Y115128D03*
X129592Y120128D03*
X129592Y105128D03*
X129592Y100128D03*
D27*
X113458Y227116D03*
X113458Y232116D03*
X108458Y227116D03*
X108458Y232116D03*
X103458Y227116D03*
X103458Y232116D03*
D28*
X199070Y203062D02*
X208350Y203062D01*
X208350Y199782D01*
X199070Y199782D01*
X199070Y203062D01*
X199070Y202776D02*
X208350Y202776D01*
X208350Y215762D02*
X199070Y215762D01*
X208350Y215762D02*
X208350Y212482D01*
X199070Y212482D01*
X199070Y215762D01*
X199070Y215476D02*
X208350Y215476D01*
X208350Y228462D02*
X199070Y228462D01*
X208350Y228462D02*
X208350Y225182D01*
X199070Y225182D01*
X199070Y228462D01*
X199070Y228176D02*
X208350Y228176D01*
X208350Y241162D02*
X199070Y241162D01*
X208350Y241162D02*
X208350Y237882D01*
X199070Y237882D01*
X199070Y241162D01*
X199070Y240876D02*
X208350Y240876D01*
X151450Y241162D02*
X142170Y241162D01*
X151450Y241162D02*
X151450Y237882D01*
X142170Y237882D01*
X142170Y241162D01*
X142170Y240876D02*
X151450Y240876D01*
X151450Y228462D02*
X142170Y228462D01*
X151450Y228462D02*
X151450Y225182D01*
X142170Y225182D01*
X142170Y228462D01*
X142170Y228176D02*
X151450Y228176D01*
X151450Y215762D02*
X142170Y215762D01*
X151450Y215762D02*
X151450Y212482D01*
X142170Y212482D01*
X142170Y215762D01*
X142170Y215476D02*
X151450Y215476D01*
X151450Y203062D02*
X142170Y203062D01*
X151450Y203062D02*
X151450Y199782D01*
X142170Y199782D01*
X142170Y203062D01*
X142170Y202776D02*
X151450Y202776D01*
D29*
X175260Y220472D03*
D25*
X241808Y56388D03*
X50800Y12700D03*
X63500Y12700D03*
X135128Y194564D03*
X198628Y32512D03*
X198628Y18542D03*
D30*
X232918Y85266D03*
X232918Y107266D03*
D31*
X103886Y248920D03*
X97028Y236038D03*
D32*
X69342Y70104D03*
D31*
X95250Y10922D03*
X174592Y130128D03*
D32*
X223266Y209042D03*
D31*
X206756Y244094D03*
X101600Y209550D03*
X75946Y201422D03*
X21844Y88646D03*
X12446Y55372D03*
D32*
X13208Y35814D03*
D31*
X222250Y133350D03*
D32*
X232609Y166751D03*
X212344Y239776D03*
D31*
X183860Y158460D03*
D32*
X92710Y105410D03*
D31*
X248335Y114560D03*
D32*
X63500Y31750D03*
X76200Y31750D03*
X69850Y57150D03*
X9652Y64262D03*
X9398Y113030D03*
X6350Y146050D03*
X19050Y203200D03*
X31750Y203200D03*
X247650Y222250D03*
X107950Y185166D03*
X188976Y154686D03*
X189230Y79756D03*
X190754Y63754D03*
X178308Y59944D03*
X159512Y87630D03*
X171196Y28956D03*
X153162Y35052D03*
X216662Y10922D03*
X203962Y90678D03*
X186182Y110744D03*
X119634Y97790D03*
X245872Y67056D03*
X245872Y40894D03*
X213868Y119888D03*
X184404Y187960D03*
X96520Y204216D03*
X55118Y203454D03*
X139446Y231394D03*
X120142Y235712D03*
X207772Y189992D03*
X167386Y195326D03*
X228346Y213360D03*
X8128Y20574D03*
X98044Y103886D03*
X66294Y128778D03*
X58420Y163322D03*
X177800Y69850D03*
X155194Y65024D03*
X112268Y119380D03*
X230124Y92964D03*
X149098Y193802D03*
D31*
X215900Y138176D03*
X228600Y139700D03*
X216240Y142748D03*
X230980Y80678D03*
X216662Y147320D03*
X144592Y165100D03*
D32*
X185166Y147066D03*
D31*
X168148Y140208D03*
D32*
X30916Y21336D03*
X204724Y135382D03*
X31750Y68199D03*
X212084Y82550D03*
X202057Y96393D03*
X215900Y177800D03*
X215900Y184150D03*
D31*
X117784Y224127D03*
X132334Y200914D03*
D32*
X167640Y188468D03*
X96774Y54610D03*
X108204Y27432D03*
X180086Y131826D03*
D31*
X194592Y140128D03*
D32*
X41910Y114554D03*
D31*
X194592Y145288D03*
D32*
X34481Y114046D03*
X213614Y249428D03*
X215646Y210312D03*
X138938Y152654D03*
X124714Y232410D03*
D31*
X165299Y248611D03*
D32*
X171473Y249405D03*
X26416Y60706D03*
X107950Y75438D03*
X107350Y9762D03*
D31*
X134620Y105128D03*
X123190Y34798D03*
D32*
X139350Y9000D03*
D31*
X134620Y66548D03*
X139650Y105156D03*
D32*
X139700Y95758D03*
X138430Y62992D03*
X138430Y36068D03*
X117094Y9652D03*
D31*
X134620Y160014D03*
D32*
X102362Y74676D03*
X101854Y9398D03*
X125222Y165100D03*
X110998Y173990D03*
X134112Y9398D03*
X123952Y159766D03*
X112776Y156210D03*
X152400Y9144D03*
D31*
X134410Y155310D03*
X184592Y105156D03*
D32*
X205875Y37711D03*
D31*
X178816Y90170D03*
X189738Y105156D03*
D32*
X198628Y12446D03*
X177800Y95250D03*
X163322Y27432D03*
X138938Y120396D03*
X147280Y9184D03*
X122428Y136652D03*
X138938Y135128D03*
X125730Y132588D03*
X125730Y9652D03*
X118872Y132080D03*
X121920Y79248D03*
X118872Y31496D03*
D31*
X129592Y115128D03*
D32*
X87122Y15240D03*
X122428Y114808D03*
D31*
X134592Y110128D03*
D32*
X127762Y36068D03*
D31*
X129592Y109982D03*
D32*
X115570Y109982D03*
D31*
X143350Y25560D03*
X129592Y104902D03*
D32*
X159258Y30988D03*
X112586Y79058D03*
X188214Y92710D03*
X187706Y124968D03*
X174752Y197358D03*
X172720Y190246D03*
D31*
X194592Y100128D03*
D32*
X203890Y154940D03*
D31*
X199592Y120142D03*
D32*
X205994Y120142D03*
X208280Y196088D03*
D31*
X194564Y125128D03*
X199592Y125222D03*
D32*
X210566Y129794D03*
D31*
X199592Y130302D03*
D32*
X204978Y130048D03*
X194564Y184404D03*
X187706Y130048D03*
X217678Y226568D03*
X181610Y174498D03*
X85598Y76962D03*
X190246Y136906D03*
X124968Y54102D03*
X138938Y157988D03*
X94742Y69342D03*
X94996Y74422D03*
X109982Y107696D03*
X112268Y131826D03*
X132588Y177546D03*
X110744Y56388D03*
X93218Y58420D03*
X82296Y91186D03*
X172212Y173990D03*
X168402Y182626D03*
X131318Y32258D03*
X98552Y78232D03*
X107950Y97028D03*
X115316Y137668D03*
X120396Y155956D03*
D31*
X134620Y145128D03*
X152400Y77216D03*
X144780Y118872D03*
D32*
X119634Y71628D03*
X107188Y91186D03*
D31*
X134620Y139954D03*
D32*
X140970Y127508D03*
X155194Y53848D03*
X164592Y95758D03*
D31*
X147320Y76962D03*
X149606Y165128D03*
D32*
X137160Y173990D03*
X163068Y67818D03*
X167350Y9762D03*
D31*
X184658Y39830D03*
X209550Y100199D03*
X194592Y115128D03*
D32*
X228600Y4572D03*
D31*
X215888Y114288D03*
D32*
X157988Y94234D03*
D31*
X144592Y105128D03*
D32*
X135890Y226822D03*
X107696Y161290D03*
X114300Y124714D03*
X123698Y120396D03*
X146812Y96266D03*
X155194Y228854D03*
D31*
X149860Y105128D03*
D32*
X59690Y157226D03*
X133350Y216248D03*
D31*
X114300Y196850D03*
X105410Y220270D03*
X118443Y204418D03*
X111688Y209876D03*
X122054Y199136D03*
X86614Y44450D03*
D32*
X57150Y12700D03*
D31*
X65278Y112776D03*
D32*
X96012Y246888D03*
X94234Y227114D03*
X41982Y105592D03*
X69342Y231140D03*
X62738Y104394D03*
X63164Y90850D03*
D31*
X83312Y100450D03*
X194592Y109728D03*
D32*
X44718Y234950D03*
X214630Y162433D03*
X211958Y214243D03*
D31*
X194606Y160113D03*
D32*
X194564Y177038D03*
D31*
X146810Y226822D03*
X203708Y186182D03*
X209550Y162560D03*
X188976Y160830D03*
X188722Y197612D03*
D32*
X187706Y116840D03*
X206248Y232156D03*
X57658Y55118D03*
X44450Y12700D03*
X207700Y25400D03*
X231140Y184150D03*
D31*
X53848Y125476D03*
X88773Y123825D03*
D32*
X12954Y126238D03*
X97663Y128270D03*
D31*
X161544Y149446D03*
X174592Y125048D03*
X174592Y140128D03*
X150864Y127750D03*
D32*
X183896Y120396D03*
X209042Y174244D03*
X184912Y180848D03*
X163322Y180848D03*
M02*
