G04 EAGLE Gerber RS-274X export*
G75*
%MOMM*%
%FSLAX34Y34*%
%LPD*%
%INSoldermask Bottom*%
%IPPOS*%
%AMOC8*
5,1,8,0,0,1.08239X$1,22.5*%
G01*
%ADD10C,2.489200*%
%ADD11R,1.653200X1.353200*%
%ADD12R,0.823200X0.823200*%
%ADD13R,1.153200X1.203200*%
%ADD14R,1.353200X1.653200*%
%ADD15C,1.193800*%
%ADD16C,2.578100*%
%ADD17R,0.838200X1.473200*%
%ADD18R,0.228600X0.774700*%
%ADD19R,1.511300X2.743200*%
%ADD20R,1.103200X1.000659*%
%ADD21R,0.703200X0.703200*%
%ADD22C,1.103200*%
%ADD23C,0.304800*%
%ADD24C,0.292100*%
%ADD25R,1.003200X1.103200*%
%ADD26R,1.473200X0.838200*%
%ADD27C,0.803200*%
%ADD28R,1.016000X2.870200*%
%ADD29C,0.558800*%
%ADD30C,0.756400*%


D10*
X25400Y25400D03*
X355600Y25400D03*
X355600Y419100D03*
X25400Y419100D03*
D11*
X227330Y315358D03*
X227330Y333358D03*
D12*
X236148Y216154D03*
X227148Y216154D03*
X230560Y263398D03*
X221560Y263398D03*
X81970Y376682D03*
X72970Y376682D03*
X79430Y336550D03*
X70430Y336550D03*
X304364Y183388D03*
X313364Y183388D03*
X304364Y198882D03*
X313364Y198882D03*
X232410Y184586D03*
X232410Y175586D03*
X254000Y207336D03*
X254000Y216336D03*
X244856Y185094D03*
X244856Y176094D03*
X81352Y290830D03*
X90352Y290830D03*
D13*
X83948Y276098D03*
X99948Y276098D03*
D14*
X37702Y275844D03*
X19702Y275844D03*
D15*
X46736Y187706D03*
X56886Y136906D03*
X36586Y136906D03*
D16*
X72136Y187706D03*
X72136Y155956D03*
X21336Y155956D03*
X21336Y187706D03*
D17*
X146812Y420116D03*
X154940Y420116D03*
D18*
X210820Y420434D03*
X206820Y420434D03*
X202820Y420434D03*
X198820Y420434D03*
X194820Y420434D03*
X190820Y420434D03*
X186820Y420434D03*
X182820Y420434D03*
X238820Y420434D03*
X234820Y420434D03*
X230820Y420434D03*
X226820Y420434D03*
X222820Y420434D03*
X218820Y420434D03*
X214820Y420434D03*
X210820Y389827D03*
X206820Y389827D03*
X202820Y389827D03*
X198820Y389827D03*
X194820Y389827D03*
X190820Y389827D03*
X186820Y389827D03*
X182820Y389827D03*
X238820Y389827D03*
X234820Y389827D03*
X230820Y389827D03*
X226820Y389827D03*
X222820Y389827D03*
X218820Y389827D03*
X214820Y389827D03*
D19*
X74295Y245110D03*
X49149Y245110D03*
D20*
X112616Y423012D03*
X92616Y413512D03*
X112616Y404012D03*
D21*
X132334Y419536D03*
X132334Y410536D03*
X49204Y209296D03*
X40204Y209296D03*
D22*
X20320Y332980D03*
X20320Y362980D03*
D23*
X65722Y270098D03*
X65722Y274098D03*
X65722Y278098D03*
X65722Y282098D03*
X61722Y270098D03*
X61722Y274098D03*
X61722Y278098D03*
X61722Y282098D03*
X57722Y270098D03*
X57722Y274098D03*
X57722Y278098D03*
X57722Y282098D03*
D24*
X74930Y355600D03*
X78930Y351600D03*
X78930Y355600D03*
X74930Y351600D03*
X78930Y359600D03*
X70930Y351600D03*
X70930Y359600D03*
X74930Y359600D03*
X70930Y355600D03*
D25*
X109150Y383794D03*
X132150Y383794D03*
D26*
X72390Y399796D03*
X72390Y407924D03*
X72390Y416052D03*
D27*
X241808Y330962D03*
D28*
X244934Y287782D03*
X222934Y287782D03*
D29*
X133350Y25146D03*
X109728Y91186D03*
X88900Y368300D03*
X70430Y342900D03*
X228600Y342900D03*
X204470Y38100D03*
X209550Y279400D03*
X161544Y283464D03*
X271145Y291846D03*
X241300Y201168D03*
X234696Y195072D03*
X312166Y190754D03*
X330200Y222250D03*
X294386Y304038D03*
X298450Y276606D03*
X225044Y209042D03*
X186690Y427990D03*
X133350Y425450D03*
X251460Y182118D03*
X76200Y228600D03*
X44450Y57150D03*
X99629Y296733D03*
X72136Y291592D03*
X84836Y284480D03*
X349250Y158750D03*
X353568Y218948D03*
X133350Y254000D03*
X165100Y254000D03*
X133350Y234950D03*
X165100Y234950D03*
X133350Y177800D03*
X133350Y146050D03*
X133350Y107950D03*
X152400Y127000D03*
X72644Y137160D03*
X70104Y206248D03*
X19050Y254000D03*
X133350Y279400D03*
X19050Y304800D03*
X12700Y349250D03*
X19050Y393700D03*
X88900Y425450D03*
X120650Y412750D03*
X127000Y393700D03*
X127000Y355600D03*
X127000Y323850D03*
X165100Y323850D03*
X165100Y355600D03*
X177800Y412750D03*
X266700Y412750D03*
X298450Y412750D03*
X298450Y387350D03*
X298450Y361950D03*
X330200Y387350D03*
X330200Y361950D03*
X355600Y361950D03*
X355600Y330200D03*
X330200Y330200D03*
X330200Y279400D03*
X355600Y279400D03*
X330200Y247650D03*
X355600Y247650D03*
X298450Y247650D03*
X260350Y254000D03*
X254000Y260350D03*
X209550Y241300D03*
X241808Y194310D03*
X215900Y190500D03*
X214376Y138176D03*
X198120Y138684D03*
X266700Y146050D03*
X266700Y133350D03*
X248412Y136652D03*
X323850Y101600D03*
X323850Y69850D03*
X323850Y133350D03*
X323850Y165100D03*
X355600Y133350D03*
X355600Y101600D03*
X355600Y50800D03*
X323850Y19050D03*
X285750Y19050D03*
X254000Y19050D03*
X222250Y19050D03*
X190500Y19050D03*
X158750Y19050D03*
X158750Y50800D03*
X190500Y50800D03*
X304800Y44450D03*
X227584Y46228D03*
X251968Y28956D03*
X139700Y44450D03*
X139700Y69850D03*
X69850Y69850D03*
X69850Y88900D03*
X38100Y88900D03*
X38100Y50800D03*
X12700Y50800D03*
X19050Y133350D03*
X57150Y120650D03*
X19050Y241300D03*
X107950Y254000D03*
X114300Y196850D03*
X200152Y107696D03*
X266700Y120650D03*
X241300Y146050D03*
X361950Y171450D03*
X165100Y95250D03*
X177800Y107950D03*
X177800Y82550D03*
X266700Y342900D03*
X266700Y381000D03*
X196850Y247650D03*
X209550Y406400D03*
X239014Y322421D03*
X259620Y211868D03*
X234950Y257810D03*
X239014Y264668D03*
X234950Y202024D03*
X160020Y170942D03*
X214884Y176276D03*
X241300Y440182D03*
X243840Y390144D03*
X239776Y241300D03*
X69850Y95250D03*
X76200Y76200D03*
X213614Y206248D03*
X194310Y186944D03*
X194310Y157734D03*
X236728Y72644D03*
X50800Y203200D03*
X218122Y429208D03*
X50546Y431800D03*
X234950Y222250D03*
X57150Y209296D03*
X55372Y435864D03*
X222250Y431546D03*
X229108Y222048D03*
X220296Y343232D03*
X355600Y387350D03*
X222250Y194564D03*
X220218Y235458D03*
X201422Y405130D03*
X361950Y387350D03*
X200914Y188468D03*
X218186Y211836D03*
X192024Y228092D03*
X215138Y348234D03*
X214630Y400558D03*
X277876Y158750D03*
X272542Y28956D03*
X261112Y172974D03*
X256794Y152908D03*
X244856Y107950D03*
X244856Y52070D03*
X278384Y164338D03*
X290576Y51816D03*
X265684Y173228D03*
X283210Y139954D03*
X273304Y115570D03*
X275844Y48768D03*
X214376Y170434D03*
X201422Y157480D03*
X220980Y81788D03*
X236474Y28956D03*
X224282Y78486D03*
X224282Y52070D03*
X210312Y116332D03*
X210312Y97536D03*
X255270Y46228D03*
X221488Y170180D03*
X248920Y128270D03*
X268224Y108966D03*
X271526Y46482D03*
X265176Y202946D03*
X368300Y171450D03*
X84836Y303276D03*
X209550Y289052D03*
X368300Y285496D03*
X361950Y218948D03*
X349250Y202597D03*
X372252Y168936D03*
X261874Y207264D03*
X368300Y292100D03*
X251792Y299596D03*
X88900Y300280D03*
X259842Y177546D03*
X295910Y51308D03*
X242062Y153924D03*
X254762Y55372D03*
X266446Y46228D03*
X251206Y174244D03*
X251206Y157226D03*
X257048Y127000D03*
X251460Y52070D03*
X235966Y108966D03*
X240284Y52324D03*
X261620Y152908D03*
X235458Y48768D03*
X257048Y169672D03*
X253492Y144780D03*
X253492Y130810D03*
X248158Y55372D03*
X264668Y157226D03*
X276606Y93980D03*
X283210Y87376D03*
X267716Y28956D03*
X269748Y157226D03*
X279908Y46228D03*
X233172Y359664D03*
X266192Y246126D03*
X284734Y259588D03*
X251968Y223012D03*
X268478Y307848D03*
X250698Y373634D03*
X249428Y241300D03*
X247142Y322834D03*
X247142Y348742D03*
X255270Y288036D03*
X255270Y320802D03*
X230886Y381000D03*
X260350Y217170D03*
X280924Y358394D03*
X237490Y401828D03*
X185674Y133858D03*
X231902Y78994D03*
X213614Y211328D03*
X213614Y89408D03*
X241554Y78994D03*
X218186Y181610D03*
X217932Y153924D03*
X200406Y181102D03*
X239268Y83312D03*
X217424Y78740D03*
X217424Y55372D03*
X199898Y196596D03*
X234188Y87630D03*
X221234Y157226D03*
X243586Y128778D03*
X251460Y120904D03*
X255016Y72644D03*
X226060Y170434D03*
X229870Y154940D03*
X238760Y170434D03*
X234442Y150622D03*
X252984Y114554D03*
X252984Y82296D03*
X295910Y159512D03*
X295910Y86868D03*
X213614Y181356D03*
X282702Y175514D03*
X271526Y137922D03*
X264414Y55372D03*
X200406Y175006D03*
X239776Y120904D03*
X340360Y216916D03*
X288036Y28448D03*
X266220Y241300D03*
X345948Y238252D03*
X256540Y222230D03*
X353060Y228600D03*
X349250Y139700D03*
X263144Y236728D03*
X349250Y234950D03*
X281940Y181356D03*
X225298Y244348D03*
X191770Y313944D03*
X191770Y407670D03*
X259080Y186944D03*
X242570Y214122D03*
X188468Y303022D03*
X196342Y407670D03*
X278638Y192786D03*
X280416Y212090D03*
X289560Y311404D03*
X223774Y409702D03*
X206502Y426974D03*
X246380Y218440D03*
X188468Y322072D03*
X201168Y409702D03*
X44704Y332740D03*
X82550Y387350D03*
X160782Y401833D03*
X73914Y387350D03*
X88900Y215900D03*
X57150Y336550D03*
X203708Y400558D03*
X197866Y166116D03*
X177546Y145796D03*
X158750Y145796D03*
X101346Y101854D03*
X93218Y137668D03*
X146050Y25400D03*
X97790Y165100D03*
D30*
X85598Y404622D03*
D29*
X163071Y396248D03*
X251460Y325120D03*
X251460Y304800D03*
X237998Y339852D03*
X263144Y220980D03*
X273050Y317500D03*
X212090Y234696D03*
X201168Y223774D03*
X216662Y222758D03*
X180848Y207010D03*
X207010Y234696D03*
X86614Y27178D03*
X213360Y219456D03*
X93218Y22352D03*
X213614Y200660D03*
X177546Y181356D03*
X120650Y26670D03*
X194310Y191770D03*
X166878Y175006D03*
X38100Y349250D03*
X139700Y374650D03*
X253871Y201068D03*
X298014Y190500D03*
X238506Y180763D03*
X50292Y91948D03*
X36068Y200152D03*
X50800Y215900D03*
X349250Y196850D03*
X366268Y204216D03*
X280162Y220726D03*
X284226Y224282D03*
M02*
