M48
;GenerationSoftware,Autodesk,EAGLE,9.5.0*%
;CreationDate,2019-11-02T23:17:51Z*%
FMAT,2
ICI,OFF
METRIC,TZ,000.000
T8C0.203
T7C0.350
T6C0.650
T5C0.800
T4C0.900
T3C1.000
T2C1.016
T1C1.250
%
G90
M71
T1
X2540Y46410
X2540Y37410
T2
X52070Y44450
X52070Y46990
X58420Y12700
X60960Y12700
X27940Y72390
X27940Y74930
X22860Y43180
X22860Y40640
T3
X46609Y22987
X46990Y81280
X80010Y81280
X77470Y81280
X74930Y81280
X90170Y5080
X31750Y81280
X46609Y33147
X46609Y30607
X46609Y28067
X46609Y25527
X46609Y20447
X46609Y17907
X46609Y15367
X46609Y12827
X46609Y10287
X46609Y7747
X46609Y5207
X8890Y81280
X11430Y81280
X13970Y81280
X19050Y81280
X21590Y81280
X24130Y81280
X26670Y81280
X29210Y81280
X34290Y81280
X36830Y81280
X41910Y81280
X44450Y81280
X16510Y81280
X49530Y81280
X52070Y81280
X54610Y81280
X57150Y81280
X59690Y81280
X62230Y81280
X64770Y81280
X67310Y81280
X69850Y81280
X64770Y5080
X67310Y5080
X69850Y5080
X72390Y5080
X74930Y5080
X77470Y5080
X80010Y5080
X82550Y5080
X85090Y5080
X87630Y5080
X92710Y5080
X102870Y81280
X100330Y81280
X97790Y81280
X95250Y81280
X92710Y81280
X90170Y81280
X87630Y81280
X85090Y81280
X82550Y81280
T4
X2540Y60730
X2540Y63730
T5
X6350Y70120
X6350Y54340
X6350Y52340
X6350Y72120
T6
X69220Y68230
X69220Y56230
X5665Y39685
X5665Y44135
T7
X83947Y16383
X60706Y83439
X60960Y53340
X26670Y83820
X78740Y29210
X39370Y19050
X5080Y77470
X15240Y77470
X26670Y77470
X40640Y77470
X34290Y69850
X45720Y68580
X34290Y63500
X39370Y57150
X48260Y57150
X55245Y64008
X59690Y63500
X46990Y77470
X54610Y71120
X63500Y71120
X71120Y71120
X71120Y66040
X45339Y83439
X70485Y58928
X71120Y53213
X57150Y50800
X44450Y44450
X35560Y34290
X25400Y33020
X17780Y36830
X19050Y49530
X7620Y48260
X7620Y31750
X7620Y16510
X7620Y7620
X15240Y2540
X20320Y8890
X19050Y17780
X29210Y19050
X29210Y22860
X31750Y10160
X40640Y10160
X52070Y10160
X52070Y17780
X40640Y25400
X38354Y22733
X70104Y10033
X62484Y21463
X73660Y13970
X80010Y10160
X80010Y22860
X93980Y22860
X100330Y16510
X100330Y3810
X93980Y7620
X87630Y29210
X83820Y33020
X83820Y38100
X83820Y45720
X100330Y38100
X100330Y55880
X90170Y55880
X81280Y59690
X73660Y41910
X82550Y73660
X99060Y73660
X82550Y53340
X59690Y41910
X67310Y31750
X50800Y35560
X68580Y45720
X67310Y26670
X70358Y22225
X63627Y14732
X29337Y52324
X27940Y58420
X12700Y59690
X26670Y64770
X16510Y64770
X8890Y66040
X8890Y71120
X13970Y71120
X50800Y27305
X66167Y29083
T8
X52019Y60096
X50343Y60249
X67208Y12446
X44298Y15240
X26721Y40843
X67158Y10160
X67158Y15240
X71222Y41808
X37541Y74117
X79858Y33020
X43739Y74117
X90475Y11176
X90475Y14326
X33223Y40843
X55778Y26416
X71577Y37287
X69698Y69240
X64414Y39268
X34087Y56540
X23114Y47244
X34341Y16408
X69901Y19761
X35052Y18847
X54864Y29718
X63043Y28245
X103327Y23724
X103022Y31750
X68682Y22860
X36779Y24740
X13005Y42621
X69596Y25908
X34138Y26568
X12598Y42012
X23876Y65126
X23012Y65989
X20574Y59639
X20930Y60706
X23368Y64872
X20218Y62230
X55677Y12700
X29972Y37541
X12294Y13614
X6096Y28397
X38252Y21336
X72085Y23165
X72542Y25908
X71120Y25908
X65786Y31242
X65278Y31750
X82702Y10160
X70815Y12700
X90475Y16561
X74422Y31598
X76810Y30886
X90475Y15443
X83515Y28550
X91389Y46330
X93574Y40183
X63043Y33477
X78384Y44653
X65837Y61316
X61265Y33122
X33020Y24333
X36220Y24994
X34036Y24994
X67310Y22454
X50394Y61265
X48057Y23673
X33528Y24587
X72593Y37287
X60808Y29312
X33020Y30531
X16408Y22606
X34036Y18593
X41910Y18796
X40081Y17831
X38100Y20777
X41351Y21133
X36627Y23927
X52070Y61976
X53137Y24790
X48209Y21539
X35560Y24333
X69088Y32817
X57810Y25197
X37846Y17424
X72238Y37694
X68682Y35052
X68326Y32614
X57455Y24790
X34950Y29667
X34950Y26822
X77216Y30531
X87935Y18796
X75438Y36576
X75946Y37897
X74879Y57048
X70409Y61519
X74422Y34239
X75540Y38608
X76403Y54712
X69444Y62433
X62433Y31496
X69698Y64770
X66091Y22250
X53696Y23470
X52680Y24486
X54051Y31293
X58115Y36424
X58115Y55728
X58928Y55728
X69647Y65989
X74981Y25298
X81686Y25298
X61925Y26416
X63043Y26721
X74422Y27229
X71831Y30734
X71272Y33833
X72898Y60960
X81229Y30277
X64465Y67513
X37846Y73203
X40538Y71069
X74524Y78638
X75336Y79451
X70866Y28550
X70866Y31140
X70866Y34239
X73711Y37592
X76556Y52984
X72644Y65329
X74422Y28702
X73203Y31902
X73457Y34239
X74574Y37389
X76962Y54712
X72238Y68021
X14478Y62586
X50394Y65735
X74422Y29515
X77572Y35458
X52476Y60960
X73203Y25959
X14834Y63094
X50952Y65735
X72796Y57963
X68326Y56998
X55169Y59233
X67615Y37287
X71780Y57506
X79654Y27940
X79807Y36525
X77775Y29718
X79400Y36119
X77978Y55220
X65684Y66802
X62636Y32766
X91592Y34290
X94590Y34290
X67869Y34798
X76251Y35255
X98196Y33020
X89408Y35611
X77978Y36982
X77165Y36982
X93167Y29921
X94691Y29921
X87478Y32156
X98196Y31750
X93574Y32410
X92100Y42723
X93574Y42723
X92913Y50292
X91948Y49835
X63043Y31496
X69393Y57506
X62027Y32207
X69342Y64364
X66599Y23673
X54864Y29108
X58928Y36678
X71425Y64364
X82093Y29413
X76911Y33985
X72898Y64008
X74066Y33833
X72898Y63449
X69596Y37287
X69952Y62078
X65278Y33223
X92558Y51003
X45212Y65786
X67767Y12446
X55575Y61468
X54305Y24689
X48260Y64872
X44399Y64872
X70104Y32817
X77064Y16408
X51156Y58674
X54153Y55677
X40284Y70561
X70256Y27737
M30