G04 EAGLE Gerber RS-274X export*
G75*
%MOMM*%
%FSLAX34Y34*%
%LPD*%
%IN*%
%IPPOS*%
%AMOC8*
5,1,8,0,0,1.08239X$1,22.5*%
G01*
%ADD10C,0.254000*%


D10*
X-228600Y25400D02*
X-228503Y23186D01*
X-228214Y20989D01*
X-227735Y18826D01*
X-227068Y16713D01*
X-226220Y14666D01*
X-225197Y12700D01*
X-224006Y10831D01*
X-222658Y9073D01*
X-221161Y7440D01*
X-219527Y5942D01*
X-217769Y4594D01*
X-215900Y3403D01*
X-213935Y2380D01*
X-211887Y1532D01*
X-209774Y865D01*
X-207611Y386D01*
X-205414Y97D01*
X-203200Y0D01*
X565150Y0D01*
X567075Y361D01*
X568961Y889D01*
X570794Y1579D01*
X572560Y2426D01*
X574245Y3424D01*
X575837Y4565D01*
X577324Y5840D01*
X578693Y7241D01*
X579936Y8755D01*
X581041Y10371D01*
X582002Y12078D01*
X582810Y13862D01*
X583460Y15710D01*
X583946Y17607D01*
X584264Y19540D01*
X584414Y21492D01*
X584392Y23451D01*
X584200Y25400D01*
X584200Y601980D01*
X584180Y603698D01*
X584011Y605408D01*
X583694Y607097D01*
X583230Y608751D01*
X582624Y610359D01*
X581880Y611908D01*
X581004Y613386D01*
X580003Y614782D01*
X578883Y616085D01*
X577655Y617286D01*
X576326Y618376D01*
X574907Y619345D01*
X573410Y620187D01*
X571844Y620896D01*
X570223Y621465D01*
X568559Y621891D01*
X566863Y622170D01*
X565150Y622300D01*
X-209550Y622300D01*
X-211475Y621939D01*
X-213361Y621411D01*
X-215194Y620721D01*
X-216960Y619874D01*
X-218645Y618876D01*
X-220237Y617735D01*
X-221724Y616460D01*
X-223093Y615060D01*
X-224336Y613545D01*
X-225441Y611929D01*
X-226402Y610222D01*
X-227210Y608438D01*
X-227860Y606590D01*
X-228346Y604693D01*
X-228664Y602760D01*
X-228814Y600808D01*
X-228792Y598849D01*
X-228600Y596900D01*
X-228600Y25400D01*
X-183900Y381150D02*
X-183895Y381028D01*
X-183879Y380907D01*
X-183852Y380788D01*
X-183816Y380671D01*
X-183769Y380558D01*
X-183712Y380450D01*
X-183647Y380347D01*
X-183572Y380250D01*
X-183490Y380160D01*
X-183400Y380078D01*
X-183303Y380003D01*
X-183200Y379938D01*
X-183092Y379881D01*
X-182979Y379834D01*
X-182862Y379798D01*
X-182743Y379771D01*
X-182622Y379755D01*
X-182500Y379750D01*
X-173300Y379750D01*
X-173178Y379755D01*
X-173057Y379771D01*
X-172938Y379798D01*
X-172821Y379834D01*
X-172708Y379881D01*
X-172600Y379938D01*
X-172497Y380003D01*
X-172400Y380078D01*
X-172310Y380160D01*
X-172228Y380250D01*
X-172153Y380347D01*
X-172088Y380450D01*
X-172031Y380558D01*
X-171984Y380671D01*
X-171948Y380788D01*
X-171921Y380907D01*
X-171905Y381028D01*
X-171900Y381150D01*
X-171900Y384350D01*
X-171905Y384472D01*
X-171921Y384593D01*
X-171948Y384712D01*
X-171984Y384829D01*
X-172031Y384942D01*
X-172088Y385050D01*
X-172153Y385153D01*
X-172228Y385250D01*
X-172310Y385340D01*
X-172400Y385422D01*
X-172497Y385497D01*
X-172600Y385562D01*
X-172708Y385619D01*
X-172821Y385666D01*
X-172938Y385702D01*
X-173057Y385729D01*
X-173178Y385745D01*
X-173300Y385750D01*
X-182500Y385750D01*
X-182622Y385745D01*
X-182743Y385729D01*
X-182862Y385702D01*
X-182979Y385666D01*
X-183092Y385619D01*
X-183200Y385562D01*
X-183303Y385497D01*
X-183400Y385422D01*
X-183490Y385340D01*
X-183572Y385250D01*
X-183647Y385153D01*
X-183712Y385050D01*
X-183769Y384942D01*
X-183816Y384829D01*
X-183852Y384712D01*
X-183879Y384593D01*
X-183895Y384472D01*
X-183900Y384350D01*
X-183900Y381150D01*
X-183900Y466550D02*
X-183895Y466428D01*
X-183879Y466307D01*
X-183852Y466188D01*
X-183816Y466071D01*
X-183769Y465958D01*
X-183712Y465850D01*
X-183647Y465747D01*
X-183572Y465650D01*
X-183490Y465560D01*
X-183400Y465478D01*
X-183303Y465403D01*
X-183200Y465338D01*
X-183092Y465281D01*
X-182979Y465234D01*
X-182862Y465198D01*
X-182743Y465171D01*
X-182622Y465155D01*
X-182500Y465150D01*
X-173300Y465150D01*
X-173178Y465155D01*
X-173057Y465171D01*
X-172938Y465198D01*
X-172821Y465234D01*
X-172708Y465281D01*
X-172600Y465338D01*
X-172497Y465403D01*
X-172400Y465478D01*
X-172310Y465560D01*
X-172228Y465650D01*
X-172153Y465747D01*
X-172088Y465850D01*
X-172031Y465958D01*
X-171984Y466071D01*
X-171948Y466188D01*
X-171921Y466307D01*
X-171905Y466428D01*
X-171900Y466550D01*
X-171900Y469750D01*
X-171905Y469872D01*
X-171921Y469993D01*
X-171948Y470112D01*
X-171984Y470229D01*
X-172031Y470342D01*
X-172088Y470450D01*
X-172153Y470553D01*
X-172228Y470650D01*
X-172310Y470740D01*
X-172400Y470822D01*
X-172497Y470897D01*
X-172600Y470962D01*
X-172708Y471019D01*
X-172821Y471066D01*
X-172938Y471102D01*
X-173057Y471129D01*
X-173178Y471145D01*
X-173300Y471150D01*
X-182500Y471150D01*
X-182622Y471145D01*
X-182743Y471129D01*
X-182862Y471102D01*
X-182979Y471066D01*
X-183092Y471019D01*
X-183200Y470962D01*
X-183303Y470897D01*
X-183400Y470822D01*
X-183490Y470740D01*
X-183572Y470650D01*
X-183647Y470553D01*
X-183712Y470450D01*
X-183769Y470342D01*
X-183816Y470229D01*
X-183852Y470112D01*
X-183879Y469993D01*
X-183895Y469872D01*
X-183900Y469750D01*
X-183900Y466550D01*
X-136600Y381150D02*
X-136595Y381028D01*
X-136579Y380907D01*
X-136552Y380788D01*
X-136516Y380671D01*
X-136469Y380558D01*
X-136412Y380450D01*
X-136347Y380347D01*
X-136272Y380250D01*
X-136190Y380160D01*
X-136100Y380078D01*
X-136003Y380003D01*
X-135900Y379938D01*
X-135792Y379881D01*
X-135679Y379834D01*
X-135562Y379798D01*
X-135443Y379771D01*
X-135322Y379755D01*
X-135200Y379750D01*
X-126000Y379750D01*
X-125878Y379755D01*
X-125757Y379771D01*
X-125638Y379798D01*
X-125521Y379834D01*
X-125408Y379881D01*
X-125300Y379938D01*
X-125197Y380003D01*
X-125100Y380078D01*
X-125010Y380160D01*
X-124928Y380250D01*
X-124853Y380347D01*
X-124788Y380450D01*
X-124731Y380558D01*
X-124684Y380671D01*
X-124648Y380788D01*
X-124621Y380907D01*
X-124605Y381028D01*
X-124600Y381150D01*
X-124600Y384350D01*
X-124605Y384472D01*
X-124621Y384593D01*
X-124648Y384712D01*
X-124684Y384829D01*
X-124731Y384942D01*
X-124788Y385050D01*
X-124853Y385153D01*
X-124928Y385250D01*
X-125010Y385340D01*
X-125100Y385422D01*
X-125197Y385497D01*
X-125300Y385562D01*
X-125408Y385619D01*
X-125521Y385666D01*
X-125638Y385702D01*
X-125757Y385729D01*
X-125878Y385745D01*
X-126000Y385750D01*
X-135200Y385750D01*
X-135322Y385745D01*
X-135443Y385729D01*
X-135562Y385702D01*
X-135679Y385666D01*
X-135792Y385619D01*
X-135900Y385562D01*
X-136003Y385497D01*
X-136100Y385422D01*
X-136190Y385340D01*
X-136272Y385250D01*
X-136347Y385153D01*
X-136412Y385050D01*
X-136469Y384942D01*
X-136516Y384829D01*
X-136552Y384712D01*
X-136579Y384593D01*
X-136595Y384472D01*
X-136600Y384350D01*
X-136600Y381150D01*
X-136600Y466550D02*
X-136595Y466428D01*
X-136579Y466307D01*
X-136552Y466188D01*
X-136516Y466071D01*
X-136469Y465958D01*
X-136412Y465850D01*
X-136347Y465747D01*
X-136272Y465650D01*
X-136190Y465560D01*
X-136100Y465478D01*
X-136003Y465403D01*
X-135900Y465338D01*
X-135792Y465281D01*
X-135679Y465234D01*
X-135562Y465198D01*
X-135443Y465171D01*
X-135322Y465155D01*
X-135200Y465150D01*
X-126000Y465150D01*
X-125878Y465155D01*
X-125757Y465171D01*
X-125638Y465198D01*
X-125521Y465234D01*
X-125408Y465281D01*
X-125300Y465338D01*
X-125197Y465403D01*
X-125100Y465478D01*
X-125010Y465560D01*
X-124928Y465650D01*
X-124853Y465747D01*
X-124788Y465850D01*
X-124731Y465958D01*
X-124684Y466071D01*
X-124648Y466188D01*
X-124621Y466307D01*
X-124605Y466428D01*
X-124600Y466550D01*
X-124600Y469750D01*
X-124605Y469872D01*
X-124621Y469993D01*
X-124648Y470112D01*
X-124684Y470229D01*
X-124731Y470342D01*
X-124788Y470450D01*
X-124853Y470553D01*
X-124928Y470650D01*
X-125010Y470740D01*
X-125100Y470822D01*
X-125197Y470897D01*
X-125300Y470962D01*
X-125408Y471019D01*
X-125521Y471066D01*
X-125638Y471102D01*
X-125757Y471129D01*
X-125878Y471145D01*
X-126000Y471150D01*
X-135200Y471150D01*
X-135322Y471145D01*
X-135443Y471129D01*
X-135562Y471102D01*
X-135679Y471066D01*
X-135792Y471019D01*
X-135900Y470962D01*
X-136003Y470897D01*
X-136100Y470822D01*
X-136190Y470740D01*
X-136272Y470650D01*
X-136347Y470553D01*
X-136412Y470450D01*
X-136469Y470342D01*
X-136516Y470229D01*
X-136552Y470112D01*
X-136579Y469993D01*
X-136595Y469872D01*
X-136600Y469750D01*
X-136600Y466550D01*
X46355Y31228D02*
X46281Y30188D01*
X46132Y29155D01*
X45910Y28136D01*
X45616Y27135D01*
X45252Y26157D01*
X44819Y25208D01*
X44319Y24293D01*
X43755Y23415D01*
X43129Y22580D01*
X42446Y21792D01*
X41708Y21054D01*
X40920Y20371D01*
X40085Y19746D01*
X39207Y19181D01*
X38292Y18682D01*
X37343Y18248D01*
X36365Y17884D01*
X35364Y17590D01*
X34345Y17368D01*
X33312Y17219D01*
X32272Y17145D01*
X31228Y17145D01*
X30188Y17219D01*
X29155Y17368D01*
X28136Y17590D01*
X27135Y17884D01*
X26157Y18248D01*
X25208Y18682D01*
X24293Y19181D01*
X23415Y19746D01*
X22580Y20371D01*
X21792Y21054D01*
X21054Y21792D01*
X20371Y22580D01*
X19746Y23415D01*
X19181Y24293D01*
X18682Y25208D01*
X18248Y26157D01*
X17884Y27135D01*
X17590Y28136D01*
X17368Y29155D01*
X17219Y30188D01*
X17145Y31228D01*
X17145Y32272D01*
X17219Y33312D01*
X17368Y34345D01*
X17590Y35364D01*
X17884Y36365D01*
X18248Y37343D01*
X18682Y38292D01*
X19181Y39207D01*
X19746Y40085D01*
X20371Y40920D01*
X21054Y41708D01*
X21792Y42446D01*
X22580Y43129D01*
X23415Y43755D01*
X24293Y44319D01*
X25208Y44819D01*
X26157Y45252D01*
X27135Y45616D01*
X28136Y45910D01*
X29155Y46132D01*
X30188Y46281D01*
X31228Y46355D01*
X32272Y46355D01*
X33312Y46281D01*
X34345Y46132D01*
X35364Y45910D01*
X36365Y45616D01*
X37343Y45252D01*
X38292Y44819D01*
X39207Y44319D01*
X40085Y43755D01*
X40920Y43129D01*
X41708Y42446D01*
X42446Y41708D01*
X43129Y40920D01*
X43755Y40085D01*
X44319Y39207D01*
X44819Y38292D01*
X45252Y37343D01*
X45616Y36365D01*
X45910Y35364D01*
X46132Y34345D01*
X46281Y33312D01*
X46355Y32272D01*
X46355Y31228D01*
X363855Y31228D02*
X363781Y30188D01*
X363632Y29155D01*
X363410Y28136D01*
X363116Y27135D01*
X362752Y26157D01*
X362319Y25208D01*
X361819Y24293D01*
X361255Y23415D01*
X360629Y22580D01*
X359946Y21792D01*
X359208Y21054D01*
X358420Y20371D01*
X357585Y19746D01*
X356707Y19181D01*
X355792Y18682D01*
X354843Y18248D01*
X353865Y17884D01*
X352864Y17590D01*
X351845Y17368D01*
X350812Y17219D01*
X349772Y17145D01*
X348728Y17145D01*
X347688Y17219D01*
X346655Y17368D01*
X345636Y17590D01*
X344635Y17884D01*
X343657Y18248D01*
X342708Y18682D01*
X341793Y19181D01*
X340915Y19746D01*
X340080Y20371D01*
X339292Y21054D01*
X338554Y21792D01*
X337871Y22580D01*
X337246Y23415D01*
X336681Y24293D01*
X336182Y25208D01*
X335748Y26157D01*
X335384Y27135D01*
X335090Y28136D01*
X334868Y29155D01*
X334719Y30188D01*
X334645Y31228D01*
X334645Y32272D01*
X334719Y33312D01*
X334868Y34345D01*
X335090Y35364D01*
X335384Y36365D01*
X335748Y37343D01*
X336182Y38292D01*
X336681Y39207D01*
X337246Y40085D01*
X337871Y40920D01*
X338554Y41708D01*
X339292Y42446D01*
X340080Y43129D01*
X340915Y43755D01*
X341793Y44319D01*
X342708Y44819D01*
X343657Y45252D01*
X344635Y45616D01*
X345636Y45910D01*
X346655Y46132D01*
X347688Y46281D01*
X348728Y46355D01*
X349772Y46355D01*
X350812Y46281D01*
X351845Y46132D01*
X352864Y45910D01*
X353865Y45616D01*
X354843Y45252D01*
X355792Y44819D01*
X356707Y44319D01*
X357585Y43755D01*
X358420Y43129D01*
X359208Y42446D01*
X359946Y41708D01*
X360629Y40920D01*
X361255Y40085D01*
X361819Y39207D01*
X362319Y38292D01*
X362752Y37343D01*
X363116Y36365D01*
X363410Y35364D01*
X363632Y34345D01*
X363781Y33312D01*
X363855Y32272D01*
X363855Y31228D01*
X363855Y437628D02*
X363781Y436588D01*
X363632Y435555D01*
X363410Y434536D01*
X363116Y433535D01*
X362752Y432557D01*
X362319Y431608D01*
X361819Y430693D01*
X361255Y429815D01*
X360629Y428980D01*
X359946Y428192D01*
X359208Y427454D01*
X358420Y426771D01*
X357585Y426146D01*
X356707Y425581D01*
X355792Y425082D01*
X354843Y424648D01*
X353865Y424284D01*
X352864Y423990D01*
X351845Y423768D01*
X350812Y423619D01*
X349772Y423545D01*
X348728Y423545D01*
X347688Y423619D01*
X346655Y423768D01*
X345636Y423990D01*
X344635Y424284D01*
X343657Y424648D01*
X342708Y425082D01*
X341793Y425581D01*
X340915Y426146D01*
X340080Y426771D01*
X339292Y427454D01*
X338554Y428192D01*
X337871Y428980D01*
X337246Y429815D01*
X336681Y430693D01*
X336182Y431608D01*
X335748Y432557D01*
X335384Y433535D01*
X335090Y434536D01*
X334868Y435555D01*
X334719Y436588D01*
X334645Y437628D01*
X334645Y438672D01*
X334719Y439712D01*
X334868Y440745D01*
X335090Y441764D01*
X335384Y442765D01*
X335748Y443743D01*
X336182Y444692D01*
X336681Y445607D01*
X337246Y446485D01*
X337871Y447320D01*
X338554Y448108D01*
X339292Y448846D01*
X340080Y449529D01*
X340915Y450155D01*
X341793Y450719D01*
X342708Y451219D01*
X343657Y451652D01*
X344635Y452016D01*
X345636Y452310D01*
X346655Y452532D01*
X347688Y452681D01*
X348728Y452755D01*
X349772Y452755D01*
X350812Y452681D01*
X351845Y452532D01*
X352864Y452310D01*
X353865Y452016D01*
X354843Y451652D01*
X355792Y451219D01*
X356707Y450719D01*
X357585Y450155D01*
X358420Y449529D01*
X359208Y448846D01*
X359946Y448108D01*
X360629Y447320D01*
X361255Y446485D01*
X361819Y445607D01*
X362319Y444692D01*
X362752Y443743D01*
X363116Y442765D01*
X363410Y441764D01*
X363632Y440745D01*
X363781Y439712D01*
X363855Y438672D01*
X363855Y437628D01*
X46355Y437628D02*
X46281Y436588D01*
X46132Y435555D01*
X45910Y434536D01*
X45616Y433535D01*
X45252Y432557D01*
X44819Y431608D01*
X44319Y430693D01*
X43755Y429815D01*
X43129Y428980D01*
X42446Y428192D01*
X41708Y427454D01*
X40920Y426771D01*
X40085Y426146D01*
X39207Y425581D01*
X38292Y425082D01*
X37343Y424648D01*
X36365Y424284D01*
X35364Y423990D01*
X34345Y423768D01*
X33312Y423619D01*
X32272Y423545D01*
X31228Y423545D01*
X30188Y423619D01*
X29155Y423768D01*
X28136Y423990D01*
X27135Y424284D01*
X26157Y424648D01*
X25208Y425082D01*
X24293Y425581D01*
X23415Y426146D01*
X22580Y426771D01*
X21792Y427454D01*
X21054Y428192D01*
X20371Y428980D01*
X19746Y429815D01*
X19181Y430693D01*
X18682Y431608D01*
X18248Y432557D01*
X17884Y433535D01*
X17590Y434536D01*
X17368Y435555D01*
X17219Y436588D01*
X17145Y437628D01*
X17145Y438672D01*
X17219Y439712D01*
X17368Y440745D01*
X17590Y441764D01*
X17884Y442765D01*
X18248Y443743D01*
X18682Y444692D01*
X19181Y445607D01*
X19746Y446485D01*
X20371Y447320D01*
X21054Y448108D01*
X21792Y448846D01*
X22580Y449529D01*
X23415Y450155D01*
X24293Y450719D01*
X25208Y451219D01*
X26157Y451652D01*
X27135Y452016D01*
X28136Y452310D01*
X29155Y452532D01*
X30188Y452681D01*
X31228Y452755D01*
X32272Y452755D01*
X33312Y452681D01*
X34345Y452532D01*
X35364Y452310D01*
X36365Y452016D01*
X37343Y451652D01*
X38292Y451219D01*
X39207Y450719D01*
X40085Y450155D01*
X40920Y449529D01*
X41708Y448846D01*
X42446Y448108D01*
X43129Y447320D01*
X43755Y446485D01*
X44319Y445607D01*
X44819Y444692D01*
X45252Y443743D01*
X45616Y442765D01*
X45910Y441764D01*
X46132Y440745D01*
X46281Y439712D01*
X46355Y438672D01*
X46355Y437628D01*
X-58510Y596633D02*
X-58570Y596103D01*
X-58688Y595583D01*
X-58865Y595079D01*
X-59096Y594599D01*
X-59380Y594147D01*
X-59713Y593730D01*
X-60090Y593353D01*
X-60507Y593020D01*
X-60959Y592736D01*
X-61439Y592505D01*
X-61943Y592328D01*
X-62463Y592210D01*
X-62993Y592150D01*
X-63527Y592150D01*
X-64057Y592210D01*
X-64577Y592328D01*
X-65081Y592505D01*
X-65561Y592736D01*
X-66013Y593020D01*
X-66430Y593353D01*
X-66807Y593730D01*
X-67140Y594147D01*
X-67424Y594599D01*
X-67655Y595079D01*
X-67832Y595583D01*
X-67950Y596103D01*
X-68010Y596633D01*
X-68010Y597167D01*
X-67950Y597697D01*
X-67832Y598217D01*
X-67655Y598721D01*
X-67424Y599201D01*
X-67140Y599653D01*
X-66807Y600070D01*
X-66430Y600447D01*
X-66013Y600780D01*
X-65561Y601064D01*
X-65081Y601295D01*
X-64577Y601472D01*
X-64057Y601590D01*
X-63527Y601650D01*
X-62993Y601650D01*
X-62463Y601590D01*
X-61943Y601472D01*
X-61439Y601295D01*
X-60959Y601064D01*
X-60507Y600780D01*
X-60090Y600447D01*
X-59713Y600070D01*
X-59380Y599653D01*
X-59096Y599201D01*
X-58865Y598721D01*
X-58688Y598217D01*
X-58570Y597697D01*
X-58510Y597167D01*
X-58510Y596633D01*
X-28510Y596633D02*
X-28570Y596103D01*
X-28688Y595583D01*
X-28865Y595079D01*
X-29096Y594599D01*
X-29380Y594147D01*
X-29713Y593730D01*
X-30090Y593353D01*
X-30507Y593020D01*
X-30959Y592736D01*
X-31439Y592505D01*
X-31943Y592328D01*
X-32463Y592210D01*
X-32993Y592150D01*
X-33527Y592150D01*
X-34057Y592210D01*
X-34577Y592328D01*
X-35081Y592505D01*
X-35561Y592736D01*
X-36013Y593020D01*
X-36430Y593353D01*
X-36807Y593730D01*
X-37140Y594147D01*
X-37424Y594599D01*
X-37655Y595079D01*
X-37832Y595583D01*
X-37950Y596103D01*
X-38010Y596633D01*
X-38010Y597167D01*
X-37950Y597697D01*
X-37832Y598217D01*
X-37655Y598721D01*
X-37424Y599201D01*
X-37140Y599653D01*
X-36807Y600070D01*
X-36430Y600447D01*
X-36013Y600780D01*
X-35561Y601064D01*
X-35081Y601295D01*
X-34577Y601472D01*
X-34057Y601590D01*
X-33527Y601650D01*
X-32993Y601650D01*
X-32463Y601590D01*
X-31943Y601472D01*
X-31439Y601295D01*
X-30959Y601064D01*
X-30507Y600780D01*
X-30090Y600447D01*
X-29713Y600070D01*
X-29380Y599653D01*
X-29096Y599201D01*
X-28865Y598721D01*
X-28688Y598217D01*
X-28570Y597697D01*
X-28510Y597167D01*
X-28510Y596633D01*
M02*
