G04 EAGLE Gerber RS-274X export*
G75*
%MOMM*%
%FSLAX34Y34*%
%LPD*%
%INSoldermask Bottom*%
%IPPOS*%
%AMOC8*
5,1,8,0,0,1.08239X$1,22.5*%
G01*
%ADD10C,3.124200*%
%ADD11R,1.253200X1.503200*%
%ADD12R,1.503200X1.103200*%
%ADD13R,1.153200X1.203200*%
%ADD14R,1.103200X1.503200*%
%ADD15R,0.838200X1.473200*%
%ADD16R,1.473200X0.838200*%
%ADD17R,1.003200X1.103200*%
%ADD18R,1.353200X1.653200*%
%ADD19R,1.003200X1.403200*%
%ADD20R,0.703200X0.703200*%
%ADD21R,1.203200X1.153200*%
%ADD22C,1.153200*%
%ADD23C,0.222334*%
%ADD24R,2.903200X2.903200*%
%ADD25R,2.489200X2.997200*%
%ADD26R,1.653200X1.353200*%
%ADD27R,0.823200X0.823200*%
%ADD28C,1.727200*%
%ADD29C,0.807200*%
%ADD30C,1.203200*%
%ADD31C,0.483200*%
%ADD32R,3.303200X3.303200*%
%ADD33R,1.530000X0.510000*%
%ADD34R,1.003200X1.003200*%
%ADD35R,1.603200X1.153200*%
%ADD36R,0.803200X0.903200*%
%ADD37R,0.510000X1.530000*%
%ADD38R,1.153200X1.603200*%
%ADD39R,0.903200X0.803200*%
%ADD40R,1.353200X1.603200*%
%ADD41C,0.325000*%
%ADD42R,2.003200X1.353200*%
%ADD43C,1.879600*%
%ADD44C,0.657200*%
%ADD45C,0.254000*%


D10*
X31750Y31750D03*
X349250Y31750D03*
X349250Y438150D03*
X31750Y438150D03*
D11*
X282300Y49600D03*
X282300Y26600D03*
X263800Y26600D03*
X263800Y49600D03*
D12*
X120650Y333350D03*
X120650Y314350D03*
D13*
X303658Y76200D03*
X319658Y76200D03*
D12*
X222250Y333350D03*
X222250Y314350D03*
D14*
X352654Y110998D03*
X333654Y110998D03*
D15*
X224536Y355600D03*
X232664Y355600D03*
D16*
X69850Y313436D03*
X69850Y321564D03*
X260350Y327914D03*
X260350Y319786D03*
D15*
X306578Y98806D03*
X314706Y98806D03*
X313436Y184150D03*
X321564Y184150D03*
D16*
X146050Y288036D03*
X146050Y296164D03*
X508000Y14986D03*
X508000Y23114D03*
X533400Y446786D03*
X533400Y454914D03*
D15*
X364236Y596900D03*
X372364Y596900D03*
D16*
X552450Y211836D03*
X552450Y219964D03*
X463550Y332486D03*
X463550Y340614D03*
D17*
X485800Y346550D03*
X504800Y346550D03*
X495300Y326550D03*
D18*
X485250Y368300D03*
X467250Y368300D03*
D19*
X-47100Y571500D03*
X-29100Y571500D03*
D20*
X38100Y582350D03*
X38100Y573350D03*
X131500Y546100D03*
X122500Y546100D03*
X131500Y558800D03*
X122500Y558800D03*
X38100Y531550D03*
X38100Y522550D03*
X38100Y547950D03*
X38100Y556950D03*
D21*
X63500Y522350D03*
X63500Y506350D03*
D22*
X-63260Y596900D03*
X-33260Y596900D03*
D23*
X52695Y547595D02*
X60605Y547595D01*
X52695Y547595D02*
X52695Y550005D01*
X60605Y550005D01*
X60605Y547595D01*
X60605Y549707D02*
X52695Y549707D01*
X52695Y552595D02*
X60605Y552595D01*
X52695Y552595D02*
X52695Y555005D01*
X60605Y555005D01*
X60605Y552595D01*
X60605Y554707D02*
X52695Y554707D01*
X52695Y557595D02*
X60605Y557595D01*
X52695Y557595D02*
X52695Y560005D01*
X60605Y560005D01*
X60605Y557595D01*
X60605Y559707D02*
X52695Y559707D01*
X52695Y562595D02*
X60605Y562595D01*
X52695Y562595D02*
X52695Y565005D01*
X60605Y565005D01*
X60605Y562595D01*
X60605Y564707D02*
X52695Y564707D01*
X52695Y567595D02*
X60605Y567595D01*
X52695Y567595D02*
X52695Y570005D01*
X60605Y570005D01*
X60605Y567595D01*
X60605Y569707D02*
X52695Y569707D01*
X64995Y574395D02*
X64995Y582305D01*
X67405Y582305D01*
X67405Y574395D01*
X64995Y574395D01*
X64995Y576507D02*
X67405Y576507D01*
X67405Y578619D02*
X64995Y578619D01*
X64995Y580731D02*
X67405Y580731D01*
X69995Y582305D02*
X69995Y574395D01*
X69995Y582305D02*
X72405Y582305D01*
X72405Y574395D01*
X69995Y574395D01*
X69995Y576507D02*
X72405Y576507D01*
X72405Y578619D02*
X69995Y578619D01*
X69995Y580731D02*
X72405Y580731D01*
X74995Y582305D02*
X74995Y574395D01*
X74995Y582305D02*
X77405Y582305D01*
X77405Y574395D01*
X74995Y574395D01*
X74995Y576507D02*
X77405Y576507D01*
X77405Y578619D02*
X74995Y578619D01*
X74995Y580731D02*
X77405Y580731D01*
X79995Y582305D02*
X79995Y574395D01*
X79995Y582305D02*
X82405Y582305D01*
X82405Y574395D01*
X79995Y574395D01*
X79995Y576507D02*
X82405Y576507D01*
X82405Y578619D02*
X79995Y578619D01*
X79995Y580731D02*
X82405Y580731D01*
X84995Y582305D02*
X84995Y574395D01*
X84995Y582305D02*
X87405Y582305D01*
X87405Y574395D01*
X84995Y574395D01*
X84995Y576507D02*
X87405Y576507D01*
X87405Y578619D02*
X84995Y578619D01*
X84995Y580731D02*
X87405Y580731D01*
X91795Y570005D02*
X99705Y570005D01*
X99705Y567595D01*
X91795Y567595D01*
X91795Y570005D01*
X91795Y569707D02*
X99705Y569707D01*
X99705Y565005D02*
X91795Y565005D01*
X99705Y565005D02*
X99705Y562595D01*
X91795Y562595D01*
X91795Y565005D01*
X91795Y564707D02*
X99705Y564707D01*
X99705Y560005D02*
X91795Y560005D01*
X99705Y560005D02*
X99705Y557595D01*
X91795Y557595D01*
X91795Y560005D01*
X91795Y559707D02*
X99705Y559707D01*
X99705Y555005D02*
X91795Y555005D01*
X99705Y555005D02*
X99705Y552595D01*
X91795Y552595D01*
X91795Y555005D01*
X91795Y554707D02*
X99705Y554707D01*
X99705Y550005D02*
X91795Y550005D01*
X99705Y550005D02*
X99705Y547595D01*
X91795Y547595D01*
X91795Y550005D01*
X91795Y549707D02*
X99705Y549707D01*
X87405Y543205D02*
X87405Y535295D01*
X84995Y535295D01*
X84995Y543205D01*
X87405Y543205D01*
X87405Y537407D02*
X84995Y537407D01*
X84995Y539519D02*
X87405Y539519D01*
X87405Y541631D02*
X84995Y541631D01*
X82405Y543205D02*
X82405Y535295D01*
X79995Y535295D01*
X79995Y543205D01*
X82405Y543205D01*
X82405Y537407D02*
X79995Y537407D01*
X79995Y539519D02*
X82405Y539519D01*
X82405Y541631D02*
X79995Y541631D01*
X77405Y543205D02*
X77405Y535295D01*
X74995Y535295D01*
X74995Y543205D01*
X77405Y543205D01*
X77405Y537407D02*
X74995Y537407D01*
X74995Y539519D02*
X77405Y539519D01*
X77405Y541631D02*
X74995Y541631D01*
X72405Y543205D02*
X72405Y535295D01*
X69995Y535295D01*
X69995Y543205D01*
X72405Y543205D01*
X72405Y537407D02*
X69995Y537407D01*
X69995Y539519D02*
X72405Y539519D01*
X72405Y541631D02*
X69995Y541631D01*
X67405Y543205D02*
X67405Y535295D01*
X64995Y535295D01*
X64995Y543205D01*
X67405Y543205D01*
X67405Y537407D02*
X64995Y537407D01*
X64995Y539519D02*
X67405Y539519D01*
X67405Y541631D02*
X64995Y541631D01*
D24*
X76200Y558800D03*
D25*
X141110Y501650D03*
X100190Y501650D03*
D13*
X119000Y533400D03*
X135000Y533400D03*
D21*
X241300Y23750D03*
X241300Y39750D03*
X304800Y52450D03*
X304800Y36450D03*
D26*
X146050Y314850D03*
X146050Y332850D03*
X196850Y314850D03*
X196850Y332850D03*
D18*
X334408Y132334D03*
X352408Y132334D03*
D27*
X101600Y313000D03*
X101600Y322000D03*
X165100Y313000D03*
X165100Y322000D03*
X315650Y119380D03*
X306650Y119380D03*
X241300Y319350D03*
X241300Y328350D03*
D20*
X306396Y159258D03*
X315396Y159258D03*
D28*
X-127000Y19050D03*
X-152400Y19050D03*
X-76200Y19050D03*
X-101600Y19050D03*
X-177800Y19050D03*
X-203200Y19050D03*
D16*
X-107950Y53086D03*
X-107950Y61214D03*
D29*
X-119100Y397450D03*
X-126100Y401450D03*
X-126100Y409450D03*
X-119100Y405450D03*
X-119100Y413450D03*
X-126100Y417450D03*
X-119100Y421450D03*
X-119100Y429450D03*
X-126100Y433450D03*
X-119100Y437450D03*
X-126100Y441450D03*
X-126100Y449450D03*
X-119100Y445450D03*
X-119100Y453450D03*
D30*
X-125600Y468150D02*
X-135600Y468150D01*
X-135600Y382750D02*
X-125600Y382750D01*
X-172900Y382750D02*
X-182900Y382750D01*
X-182900Y468150D02*
X-172900Y468150D01*
D31*
X-80250Y260350D02*
X-80250Y254250D01*
X-85250Y254250D02*
X-85250Y260350D01*
X-90250Y260350D02*
X-90250Y254250D01*
X-95250Y254250D02*
X-95250Y260350D01*
X-100250Y260350D02*
X-100250Y254250D01*
X-105250Y254250D02*
X-105250Y260350D01*
X-110250Y260350D02*
X-110250Y254250D01*
X-114300Y264400D02*
X-120400Y264400D01*
X-120400Y269400D02*
X-114300Y269400D01*
X-114300Y274400D02*
X-120400Y274400D01*
X-120400Y279400D02*
X-114300Y279400D01*
X-114300Y284400D02*
X-120400Y284400D01*
X-120400Y289400D02*
X-114300Y289400D01*
X-114300Y294400D02*
X-120400Y294400D01*
X-110250Y298450D02*
X-110250Y304550D01*
X-105250Y304550D02*
X-105250Y298450D01*
X-100250Y298450D02*
X-100250Y304550D01*
X-95250Y304550D02*
X-95250Y298450D01*
X-90250Y298450D02*
X-90250Y304550D01*
X-85250Y304550D02*
X-85250Y298450D01*
X-80250Y298450D02*
X-80250Y304550D01*
X-76200Y294400D02*
X-70100Y294400D01*
X-70100Y289400D02*
X-76200Y289400D01*
X-76200Y284400D02*
X-70100Y284400D01*
X-70100Y279400D02*
X-76200Y279400D01*
X-76200Y274400D02*
X-70100Y274400D01*
X-70100Y269400D02*
X-76200Y269400D01*
X-76200Y264400D02*
X-70100Y264400D01*
D32*
X-95250Y279400D03*
D20*
X-96012Y338002D03*
X-96012Y329002D03*
X-108204Y329002D03*
X-108204Y338002D03*
X-61650Y330200D03*
X-52650Y330200D03*
D27*
X-121158Y329002D03*
X-121158Y338002D03*
D20*
X-40204Y254508D03*
X-49204Y254508D03*
D27*
X-95250Y239450D03*
X-95250Y230450D03*
X-136724Y298450D03*
X-145724Y298450D03*
X-135200Y260350D03*
X-144200Y260350D03*
X-56642Y297506D03*
X-56642Y306506D03*
X-82804Y329002D03*
X-82804Y338002D03*
D21*
X-122936Y235330D03*
X-122936Y219330D03*
D27*
X-8128Y275408D03*
X-8128Y284408D03*
X-8382Y305744D03*
X-8382Y296744D03*
D33*
X308300Y555700D03*
X308300Y549200D03*
X352300Y549200D03*
X352300Y555700D03*
X308300Y562200D03*
X352300Y562200D03*
X308300Y542700D03*
X352300Y542700D03*
D20*
X369570Y490800D03*
X369570Y499800D03*
D34*
X279400Y544950D03*
X279400Y559950D03*
D35*
X290400Y504800D03*
X290400Y485800D03*
X268400Y495300D03*
D36*
X339700Y485300D03*
X320700Y485300D03*
X330200Y505300D03*
D34*
X381000Y557650D03*
X381000Y572650D03*
D27*
X376500Y539750D03*
X385500Y539750D03*
D37*
X511250Y523550D03*
X504750Y523550D03*
X504750Y479550D03*
X511250Y479550D03*
X517750Y523550D03*
X517750Y479550D03*
X498250Y523550D03*
X498250Y479550D03*
D20*
X440000Y455930D03*
X449000Y455930D03*
D34*
X500500Y552450D03*
X515500Y552450D03*
D27*
X539750Y506150D03*
X539750Y497150D03*
D38*
X454000Y522400D03*
X435000Y522400D03*
X444500Y544400D03*
D39*
X434500Y473100D03*
X434500Y492100D03*
X454500Y482600D03*
D34*
X494150Y450850D03*
X509150Y450850D03*
D27*
X476250Y468050D03*
X476250Y459050D03*
D37*
X504900Y250500D03*
X498400Y250500D03*
X498400Y206500D03*
X504900Y206500D03*
X511400Y250500D03*
X511400Y206500D03*
X491900Y250500D03*
X491900Y206500D03*
D20*
X446350Y176530D03*
X455350Y176530D03*
D34*
X494150Y279400D03*
X509150Y279400D03*
D38*
X460350Y243000D03*
X441350Y243000D03*
X450850Y265000D03*
D39*
X440850Y200050D03*
X440850Y219050D03*
X460850Y209550D03*
D34*
X506850Y177800D03*
X521850Y177800D03*
D27*
X488950Y182300D03*
X488950Y173300D03*
D37*
X498550Y110800D03*
X492050Y110800D03*
X492050Y66800D03*
X498550Y66800D03*
X505050Y110800D03*
X505050Y66800D03*
X485550Y110800D03*
X485550Y66800D03*
D20*
X436880Y48950D03*
X436880Y39950D03*
D34*
X494150Y133350D03*
X509150Y133350D03*
D38*
X447650Y116000D03*
X428650Y116000D03*
X438150Y138000D03*
D39*
X428150Y66700D03*
X428150Y85700D03*
X448150Y76200D03*
D34*
X494150Y44450D03*
X509150Y44450D03*
D27*
X476250Y48950D03*
X476250Y39950D03*
D40*
X-23750Y281100D03*
X-39750Y281100D03*
X-39750Y303100D03*
X-23750Y303100D03*
D16*
X-133350Y53086D03*
X-133350Y61214D03*
X-171450Y53086D03*
X-171450Y61214D03*
D27*
X-135200Y273050D03*
X-144200Y273050D03*
X-48950Y266700D03*
X-39950Y266700D03*
D20*
X-144200Y285750D03*
X-135200Y285750D03*
D27*
X520700Y93400D03*
X520700Y84400D03*
X533400Y233100D03*
X533400Y224100D03*
X325700Y577850D03*
X334700Y577850D03*
D20*
X82550Y592400D03*
X82550Y601400D03*
X63500Y601400D03*
X63500Y592400D03*
X50800Y592400D03*
X50800Y601400D03*
D41*
X-15200Y557450D03*
X-10200Y557450D03*
X-15200Y552450D03*
X-10200Y552450D03*
X-15200Y547450D03*
X-10200Y547450D03*
D42*
X-38100Y518400D03*
X-38100Y548400D03*
D27*
X6350Y550600D03*
X6350Y541600D03*
D43*
X-203200Y349250D03*
X-203200Y323850D03*
X-203200Y298450D03*
X-203200Y273050D03*
X-203200Y247650D03*
X-203200Y222250D03*
X-203200Y196850D03*
X-203200Y171450D03*
X-203200Y146050D03*
X-203200Y120650D03*
X-203200Y95250D03*
X-203200Y69850D03*
D44*
X355092Y332232D03*
X355600Y306832D03*
X337058Y306832D03*
X314452Y312674D03*
X317500Y349250D03*
X336550Y361950D03*
X325882Y376428D03*
X311912Y366522D03*
X298450Y368300D03*
X298450Y387350D03*
X279400Y387350D03*
X279400Y368300D03*
X260350Y368300D03*
X260350Y387350D03*
X205994Y397002D03*
X190500Y386842D03*
X232410Y370840D03*
X232156Y385572D03*
X247650Y385826D03*
X247650Y370078D03*
X-63500Y304800D03*
X-39878Y315450D03*
X-144780Y212090D03*
X-133350Y337185D03*
X77470Y508635D03*
X133985Y519430D03*
X106680Y568960D03*
X-13970Y227965D03*
X-67310Y428625D03*
X90170Y321945D03*
X-12065Y83185D03*
X281305Y168910D03*
X299085Y119380D03*
X325755Y92075D03*
X351790Y144145D03*
X152400Y361950D03*
X184150Y361950D03*
X114300Y361950D03*
X88900Y292100D03*
X171450Y292100D03*
X196850Y292100D03*
X127000Y254000D03*
X101600Y254000D03*
X76200Y254000D03*
X152400Y203200D03*
X209550Y203200D03*
X209550Y165100D03*
X165100Y247650D03*
X209550Y114300D03*
X152400Y114300D03*
X152400Y44450D03*
X215900Y44450D03*
X247650Y63500D03*
X368300Y76200D03*
X304800Y12700D03*
X279400Y101600D03*
X292100Y139700D03*
X311150Y171450D03*
X355600Y165100D03*
X374650Y165100D03*
X374650Y203200D03*
X374650Y247650D03*
X374650Y273050D03*
X355600Y241300D03*
X355600Y266700D03*
X323850Y266700D03*
X292100Y266700D03*
X292100Y292100D03*
X323850Y292100D03*
X330200Y387350D03*
X298450Y400050D03*
X279400Y400050D03*
X165100Y419100D03*
X146050Y419100D03*
X127000Y400050D03*
X95250Y393700D03*
X95250Y361950D03*
X69850Y393700D03*
X69850Y444500D03*
X95250Y444500D03*
X114300Y444500D03*
X183896Y488950D03*
X209296Y482600D03*
X209296Y508000D03*
X209296Y527050D03*
X234696Y495300D03*
X234696Y520700D03*
X234696Y552450D03*
X234696Y590550D03*
X209296Y609600D03*
X171196Y609600D03*
X139446Y609600D03*
X114046Y609600D03*
X139446Y571500D03*
X177546Y571500D03*
X31496Y590550D03*
X31496Y508000D03*
X12446Y527050D03*
X-44704Y584200D03*
X-12954Y571500D03*
X-254Y596900D03*
X-101854Y596900D03*
X-82804Y565150D03*
X-165354Y596900D03*
X-190754Y539750D03*
X-190754Y527050D03*
X-178054Y520700D03*
X-165354Y520700D03*
X-133604Y520700D03*
X-120904Y527050D03*
X-133604Y482600D03*
X-152654Y482600D03*
X-171704Y482600D03*
X-203454Y482600D03*
X-203454Y368300D03*
X-178054Y368300D03*
X-159004Y368300D03*
X-139954Y368300D03*
X-120904Y368300D03*
X-159004Y330200D03*
X-159004Y311150D03*
X-139954Y311150D03*
X-139954Y330200D03*
X-159004Y285750D03*
X-159004Y266700D03*
X-159004Y247650D03*
X-159004Y215900D03*
X-159004Y190500D03*
X-159004Y165100D03*
X-159004Y139700D03*
X-159004Y114300D03*
X-159004Y88900D03*
X-159004Y63500D03*
X-159004Y38100D03*
X-139954Y38100D03*
X-108204Y38100D03*
X-108204Y69850D03*
X-108204Y114300D03*
X-120904Y152400D03*
X-120904Y190500D03*
X-95504Y190500D03*
X-95504Y203200D03*
X-89154Y222250D03*
X-114554Y247650D03*
X-69596Y254254D03*
X-52578Y277876D03*
X-23114Y321310D03*
X-57912Y348234D03*
X-38862Y348234D03*
X-19050Y361950D03*
X19050Y279400D03*
X57150Y203200D03*
X25400Y203200D03*
X76200Y171450D03*
X95250Y152400D03*
X114300Y133350D03*
X76200Y133350D03*
X76200Y101600D03*
X76200Y69850D03*
X44450Y69850D03*
X120650Y19050D03*
X69850Y361950D03*
X69850Y330200D03*
X38100Y361950D03*
X279400Y450850D03*
X209550Y571500D03*
X159512Y448056D03*
X82550Y438150D03*
X44450Y304800D03*
X241300Y292100D03*
X6350Y203200D03*
X247650Y444500D03*
X374650Y285750D03*
X234950Y85963D03*
X234950Y78629D03*
X243205Y90170D03*
X234950Y134620D03*
X13335Y335280D03*
X-112395Y483870D03*
X352425Y92075D03*
X233680Y339090D03*
X323850Y125730D03*
X299085Y159385D03*
X-103505Y131445D03*
X-64135Y337820D03*
X45085Y335915D03*
X99695Y349885D03*
X-18415Y221615D03*
X142240Y343535D03*
X229870Y23495D03*
X282575Y60960D03*
X294640Y77470D03*
X264160Y94615D03*
X93345Y313055D03*
X19685Y219710D03*
X299720Y203200D03*
X264160Y200025D03*
X320675Y140335D03*
X223520Y75565D03*
X100965Y49784D03*
X27305Y184150D03*
X204470Y87630D03*
X264160Y149860D03*
X210185Y328930D03*
X72390Y286385D03*
X49530Y256540D03*
X106680Y217805D03*
X232410Y286385D03*
X304800Y111760D03*
X262890Y178435D03*
X419100Y25400D03*
X467995Y32385D03*
X238760Y264795D03*
X313055Y323215D03*
X425450Y152400D03*
X400050Y330200D03*
X387350Y330200D03*
X412750Y330200D03*
X419100Y342900D03*
X399288Y355854D03*
X398272Y386588D03*
X419862Y300482D03*
X393446Y289052D03*
X392938Y271272D03*
X394462Y255778D03*
X394716Y240030D03*
X393700Y220472D03*
X393700Y201422D03*
X393700Y176022D03*
X393700Y156972D03*
X393700Y137922D03*
X393700Y118872D03*
X393700Y99822D03*
X393700Y80772D03*
X393700Y55372D03*
X393700Y36322D03*
X412750Y17272D03*
X450850Y17272D03*
X469900Y23622D03*
X457200Y29972D03*
X431800Y29972D03*
X412750Y36322D03*
X406400Y55372D03*
X406400Y80772D03*
X406400Y99822D03*
X406400Y118872D03*
X406400Y137922D03*
X406400Y156972D03*
X412750Y150622D03*
X431800Y156972D03*
X450850Y156972D03*
X476250Y169672D03*
X431800Y169672D03*
X419100Y169672D03*
X419100Y182372D03*
X419100Y195072D03*
X419100Y207772D03*
X419100Y220472D03*
X419100Y233172D03*
X419100Y245872D03*
X419100Y258572D03*
X419100Y271272D03*
X419100Y283972D03*
X431292Y276860D03*
X445008Y276860D03*
X431800Y296672D03*
X431800Y309372D03*
X431800Y315722D03*
X480568Y306578D03*
X472948Y315214D03*
X491490Y297688D03*
X468376Y305054D03*
X478536Y293370D03*
X501650Y297688D03*
X518668Y297688D03*
X535940Y298450D03*
X535686Y287274D03*
X548894Y287528D03*
X548132Y299466D03*
X567182Y293116D03*
X560832Y312166D03*
X573532Y324866D03*
X560832Y337566D03*
X573532Y350266D03*
X560832Y362966D03*
X573532Y375666D03*
X560832Y388366D03*
X573532Y401066D03*
X560832Y420116D03*
X573532Y439166D03*
X560832Y451866D03*
X573532Y470916D03*
X560832Y483616D03*
X573532Y496316D03*
X560832Y509016D03*
X573532Y528066D03*
X558800Y536702D03*
X571500Y549402D03*
X558800Y562102D03*
X571500Y574802D03*
X552450Y587502D03*
X539750Y612902D03*
X533400Y593852D03*
X508254Y609600D03*
X495554Y596900D03*
X482854Y609600D03*
X470154Y596900D03*
X457454Y609600D03*
X444754Y596900D03*
X432054Y609600D03*
X419354Y596900D03*
X406654Y609600D03*
X393954Y596900D03*
X381254Y609600D03*
X368554Y520700D03*
X387604Y527050D03*
X387604Y508000D03*
X400304Y501650D03*
X387604Y488950D03*
X400304Y482600D03*
X387604Y476250D03*
X273304Y482600D03*
X305054Y482600D03*
X330454Y482600D03*
X355854Y482600D03*
X387604Y457200D03*
X400304Y450850D03*
X400304Y438150D03*
X400304Y425450D03*
X432054Y444500D03*
X432054Y431800D03*
X432054Y412750D03*
X419354Y412750D03*
X419354Y431800D03*
X419354Y444500D03*
X425704Y374650D03*
X451104Y387350D03*
X451104Y400050D03*
X482854Y412750D03*
X476504Y425450D03*
X489204Y438150D03*
X476504Y444500D03*
X560832Y274066D03*
X571500Y259842D03*
X558800Y247142D03*
X571500Y234442D03*
X571500Y221742D03*
X558800Y196342D03*
X571500Y183642D03*
X558800Y170942D03*
X571500Y158242D03*
X558800Y145542D03*
X571500Y132842D03*
X558800Y120142D03*
X571500Y107442D03*
X558800Y94742D03*
X571500Y82042D03*
X558800Y69342D03*
X571500Y56642D03*
X571500Y37592D03*
X558800Y24892D03*
X558800Y5842D03*
X539750Y18542D03*
X527050Y5842D03*
X333375Y520700D03*
X309245Y527050D03*
X473710Y201930D03*
X476250Y231775D03*
X469900Y92075D03*
X406400Y476250D03*
X406400Y508000D03*
X406400Y539750D03*
X406400Y565150D03*
X366522Y584200D03*
X349250Y584200D03*
X304800Y584200D03*
X304800Y603250D03*
X266700Y603250D03*
X266700Y584200D03*
X266700Y558800D03*
X254000Y520700D03*
X254000Y488950D03*
X308610Y491490D03*
X353060Y497840D03*
X372110Y510540D03*
X336804Y560578D03*
X322834Y563372D03*
X292354Y552958D03*
X339852Y608330D03*
X460502Y544830D03*
X454152Y494030D03*
X456946Y470662D03*
X437896Y464312D03*
X441706Y432054D03*
X448056Y442468D03*
X448056Y410718D03*
X429006Y391668D03*
X444500Y355600D03*
X444500Y311150D03*
X463550Y292100D03*
X488950Y311150D03*
X501650Y368300D03*
X501650Y381000D03*
X501650Y406400D03*
X501650Y431800D03*
X527050Y431800D03*
X527050Y406400D03*
X552450Y406400D03*
X552450Y431800D03*
X552450Y457200D03*
X552450Y482600D03*
X552450Y508000D03*
X552450Y533400D03*
X533400Y527050D03*
X511556Y502158D03*
X473456Y531622D03*
X524256Y353822D03*
X558546Y330200D03*
X545846Y279400D03*
X431546Y241300D03*
X431546Y209550D03*
X444246Y190500D03*
X501396Y165100D03*
X520446Y158750D03*
X526796Y209550D03*
X507746Y190500D03*
X507746Y228600D03*
X520446Y247650D03*
X545846Y228600D03*
X552196Y152400D03*
X533146Y133350D03*
X418846Y139700D03*
X418846Y101600D03*
X437896Y107950D03*
X418846Y57150D03*
X399796Y19050D03*
X444246Y31750D03*
X469646Y12700D03*
X526796Y63500D03*
X501396Y88900D03*
X446532Y66802D03*
X484632Y327152D03*
X390906Y439928D03*
X385826Y416814D03*
X384810Y382778D03*
X419862Y350520D03*
X464566Y324866D03*
X423545Y32385D03*
X243205Y254000D03*
X366395Y226695D03*
X387350Y80645D03*
X477520Y66675D03*
X492125Y99695D03*
X262890Y224790D03*
X461010Y169545D03*
X476250Y155575D03*
X474345Y88265D03*
X484505Y92710D03*
X406400Y165100D03*
X492760Y217805D03*
X187325Y255905D03*
X307340Y330200D03*
X538480Y354965D03*
X447040Y285750D03*
X169545Y5080D03*
X428625Y175260D03*
X438785Y176530D03*
X274955Y219075D03*
X264160Y214630D03*
X463550Y406400D03*
X343836Y334852D03*
X512445Y461010D03*
X219075Y251460D03*
X123190Y46990D03*
X294640Y70485D03*
X361950Y290195D03*
X281305Y207645D03*
X294005Y210185D03*
X340995Y262890D03*
X450850Y448945D03*
X472440Y490220D03*
X4445Y241300D03*
X-9525Y320040D03*
X449580Y575945D03*
X393700Y514350D03*
X341233Y340868D03*
X319405Y551180D03*
X177800Y258445D03*
X437515Y424815D03*
X400685Y419100D03*
X266700Y476250D03*
X269240Y531495D03*
X117475Y49530D03*
X294005Y185420D03*
X343535Y275590D03*
X262890Y171450D03*
X291465Y173355D03*
X336550Y259080D03*
X262890Y189865D03*
X267970Y240030D03*
X288290Y327660D03*
X201295Y425450D03*
X205105Y454025D03*
X166370Y508000D03*
X156210Y510540D03*
X319842Y359974D03*
X336550Y355600D03*
X565150Y209550D03*
X565150Y12700D03*
X552450Y444500D03*
X361950Y609600D03*
X228600Y514350D03*
X288798Y369824D03*
X241300Y479790D03*
X218440Y474345D03*
X157480Y474345D03*
X104775Y292735D03*
X97155Y285115D03*
X99314Y367538D03*
X114300Y368300D03*
X207010Y469900D03*
X153670Y469900D03*
X184150Y447675D03*
X-2540Y409575D03*
X-55245Y233045D03*
X181610Y417830D03*
X53340Y388620D03*
X38735Y331470D03*
X8890Y254635D03*
X-64135Y203200D03*
X222250Y413385D03*
X232410Y447675D03*
X215900Y413385D03*
X232410Y454025D03*
X212090Y398145D03*
X162560Y391160D03*
X161925Y513080D03*
X165100Y530860D03*
X-34832Y235313D03*
X1524Y456438D03*
X254254Y454549D03*
X-33308Y241377D03*
X-2659Y461129D03*
X257302Y459597D03*
X485775Y224790D03*
X450850Y40005D03*
X479425Y85090D03*
X483235Y48895D03*
X466090Y174625D03*
X479425Y160655D03*
X508635Y465455D03*
X505460Y490855D03*
X340995Y549275D03*
X504825Y338455D03*
X518795Y273685D03*
X525145Y314960D03*
X163195Y384810D03*
X140335Y405130D03*
X128905Y408940D03*
X173132Y398368D03*
X543560Y363220D03*
X560705Y226695D03*
X215265Y247015D03*
X525145Y321945D03*
X635Y36830D03*
X225425Y251460D03*
X480695Y332740D03*
X-20320Y101600D03*
X53975Y175895D03*
X76835Y201930D03*
X123190Y216535D03*
X16510Y550545D03*
X124460Y504190D03*
X95250Y524510D03*
X392430Y385445D03*
X260985Y468630D03*
X-29210Y561340D03*
X156210Y504190D03*
X60960Y537845D03*
X-80010Y424180D03*
X-63500Y320659D03*
X-88900Y425450D03*
X-63500Y313579D03*
X-72390Y417830D03*
X-53340Y323215D03*
X-100330Y310515D03*
X-108585Y311785D03*
X335280Y527050D03*
X285750Y513715D03*
X296545Y494665D03*
X332105Y596900D03*
X288925Y536575D03*
X523875Y473075D03*
X523875Y485140D03*
X478790Y482600D03*
X434975Y511810D03*
X477520Y206375D03*
X460375Y231775D03*
X441325Y232410D03*
X487045Y266700D03*
X484505Y275590D03*
X485775Y252730D03*
X455930Y65405D03*
X469900Y66040D03*
X461645Y90805D03*
X433070Y93345D03*
X516890Y116840D03*
X471805Y115570D03*
X-46990Y561340D03*
X-63500Y298450D03*
X-64770Y269240D03*
X-125730Y278130D03*
X-125730Y294005D03*
X-76835Y309880D03*
X-80645Y233680D03*
X102870Y582930D03*
X58420Y581660D03*
X40005Y589280D03*
X-22860Y547370D03*
X438150Y266700D03*
X483235Y262255D03*
X400050Y400050D03*
X425450Y400050D03*
X431800Y546100D03*
X224155Y394335D03*
X118110Y377190D03*
X113030Y434340D03*
X-92075Y372745D03*
X228600Y398145D03*
X-74295Y372745D03*
X231775Y413385D03*
X81915Y391160D03*
X67945Y377190D03*
X-48895Y349885D03*
X235585Y395605D03*
X1905Y339090D03*
X240030Y388620D03*
X163830Y259080D03*
X129540Y224790D03*
X48260Y224790D03*
X246380Y391795D03*
X252730Y365125D03*
X252730Y352425D03*
X157480Y265430D03*
X95250Y229235D03*
X52070Y229235D03*
X346710Y345440D03*
X234315Y254000D03*
X133985Y212725D03*
X64135Y220345D03*
X252095Y394335D03*
X264795Y358140D03*
X248285Y356870D03*
X171450Y328295D03*
X160655Y519430D03*
X44450Y610870D03*
X191135Y448310D03*
X1270Y405130D03*
X-50800Y223520D03*
X-80010Y169545D03*
X200025Y443865D03*
X-11430Y389890D03*
X-59690Y224790D03*
X193675Y442595D03*
X-96520Y355600D03*
X191770Y422910D03*
X140335Y391160D03*
X129540Y379730D03*
X-65405Y375285D03*
X-83820Y317500D03*
X89535Y590550D03*
X75565Y531495D03*
X22860Y560070D03*
D45*
X-228600Y25400D02*
X-228503Y23186D01*
X-228214Y20989D01*
X-227735Y18826D01*
X-227068Y16713D01*
X-226220Y14666D01*
X-225197Y12700D01*
X-224006Y10831D01*
X-222658Y9073D01*
X-221161Y7440D01*
X-219527Y5942D01*
X-217769Y4594D01*
X-215900Y3403D01*
X-213935Y2380D01*
X-211887Y1532D01*
X-209774Y865D01*
X-207611Y386D01*
X-205414Y97D01*
X-203200Y0D01*
X565150Y0D01*
X567075Y361D01*
X568961Y889D01*
X570794Y1579D01*
X572560Y2426D01*
X574245Y3424D01*
X575837Y4565D01*
X577324Y5840D01*
X578693Y7241D01*
X579936Y8755D01*
X581041Y10371D01*
X582002Y12078D01*
X582810Y13862D01*
X583460Y15710D01*
X583946Y17607D01*
X584264Y19540D01*
X584414Y21492D01*
X584392Y23451D01*
X584200Y25400D01*
X584200Y601980D01*
X584180Y603698D01*
X584011Y605408D01*
X583694Y607097D01*
X583230Y608751D01*
X582624Y610359D01*
X581880Y611908D01*
X581004Y613386D01*
X580003Y614782D01*
X578883Y616085D01*
X577655Y617286D01*
X576326Y618376D01*
X574907Y619345D01*
X573410Y620187D01*
X571844Y620896D01*
X570223Y621465D01*
X568559Y621891D01*
X566863Y622170D01*
X565150Y622300D01*
X-209550Y622300D01*
X-211475Y621939D01*
X-213361Y621411D01*
X-215194Y620721D01*
X-216960Y619874D01*
X-218645Y618876D01*
X-220237Y617735D01*
X-221724Y616460D01*
X-223093Y615060D01*
X-224336Y613545D01*
X-225441Y611929D01*
X-226402Y610222D01*
X-227210Y608438D01*
X-227860Y606590D01*
X-228346Y604693D01*
X-228664Y602760D01*
X-228814Y600808D01*
X-228792Y598849D01*
X-228600Y596900D01*
X-228600Y25400D01*
M02*
