G04 EAGLE Gerber RS-274X export*
G75*
%MOMM*%
%FSLAX34Y34*%
%LPD*%
%INSolderpaste Bottom*%
%IPPOS*%
%AMOC8*
5,1,8,0,0,1.08239X$1,22.5*%
G01*
%ADD10R,1.050000X1.300000*%
%ADD11R,1.300000X0.900000*%
%ADD12R,0.950000X1.000000*%
%ADD13R,0.900000X1.300000*%
%ADD14R,2.489200X2.235200*%
%ADD15R,2.235200X2.489200*%
%ADD16R,0.800000X0.900000*%
%ADD17R,1.150000X1.450000*%
%ADD18R,0.800000X1.200000*%
%ADD19R,0.500000X0.500000*%
%ADD20R,1.000000X0.950000*%
%ADD21R,0.960000X0.960000*%
%ADD22C,0.018200*%
%ADD23R,2.286000X2.794000*%
%ADD24R,1.450000X1.150000*%
%ADD25R,0.620000X0.620000*%
%ADD26C,0.280000*%
%ADD27R,3.100000X3.100000*%
%ADD28R,1.450000X0.450000*%
%ADD29R,0.800000X0.800000*%
%ADD30R,1.400000X0.950000*%
%ADD31R,0.600000X0.700000*%
%ADD32R,0.450000X1.450000*%
%ADD33R,0.950000X1.400000*%
%ADD34R,0.700000X0.600000*%
%ADD35R,1.150000X1.400000*%
%ADD36C,0.254000*%
%ADD37R,1.800000X1.150000*%


D10*
X282300Y49600D03*
X282300Y26600D03*
X263800Y26600D03*
X263800Y49600D03*
D11*
X120650Y333350D03*
X120650Y314350D03*
D12*
X303658Y76200D03*
X319658Y76200D03*
D11*
X222250Y333350D03*
X222250Y314350D03*
D13*
X352654Y110998D03*
X333654Y110998D03*
D14*
X228600Y355600D03*
D15*
X69850Y317500D03*
X260350Y323850D03*
D14*
X310642Y98806D03*
X317500Y184150D03*
D15*
X146050Y292100D03*
X508000Y19050D03*
X533400Y450850D03*
D14*
X368300Y596900D03*
D15*
X552450Y215900D03*
X463550Y336550D03*
D16*
X485800Y346550D03*
X504800Y346550D03*
X495300Y326550D03*
D17*
X485250Y368300D03*
X467250Y368300D03*
D18*
X-47100Y571500D03*
X-29100Y571500D03*
D19*
X38100Y582350D03*
X38100Y573350D03*
X131500Y546100D03*
X122500Y546100D03*
X131500Y558800D03*
X122500Y558800D03*
X38100Y531550D03*
X38100Y522550D03*
X38100Y547950D03*
X38100Y556950D03*
D20*
X63500Y522350D03*
X63500Y506350D03*
D21*
X70100Y552700D03*
X82300Y552700D03*
X82300Y564900D03*
X70100Y564900D03*
D22*
X60609Y547591D02*
X52691Y547591D01*
X52691Y550009D01*
X60609Y550009D01*
X60609Y547591D01*
X60609Y547764D02*
X52691Y547764D01*
X52691Y547937D02*
X60609Y547937D01*
X60609Y548110D02*
X52691Y548110D01*
X52691Y548283D02*
X60609Y548283D01*
X60609Y548456D02*
X52691Y548456D01*
X52691Y548629D02*
X60609Y548629D01*
X60609Y548802D02*
X52691Y548802D01*
X52691Y548975D02*
X60609Y548975D01*
X60609Y549148D02*
X52691Y549148D01*
X52691Y549321D02*
X60609Y549321D01*
X60609Y549494D02*
X52691Y549494D01*
X52691Y549667D02*
X60609Y549667D01*
X60609Y549840D02*
X52691Y549840D01*
X52691Y552591D02*
X60609Y552591D01*
X52691Y552591D02*
X52691Y555009D01*
X60609Y555009D01*
X60609Y552591D01*
X60609Y552764D02*
X52691Y552764D01*
X52691Y552937D02*
X60609Y552937D01*
X60609Y553110D02*
X52691Y553110D01*
X52691Y553283D02*
X60609Y553283D01*
X60609Y553456D02*
X52691Y553456D01*
X52691Y553629D02*
X60609Y553629D01*
X60609Y553802D02*
X52691Y553802D01*
X52691Y553975D02*
X60609Y553975D01*
X60609Y554148D02*
X52691Y554148D01*
X52691Y554321D02*
X60609Y554321D01*
X60609Y554494D02*
X52691Y554494D01*
X52691Y554667D02*
X60609Y554667D01*
X60609Y554840D02*
X52691Y554840D01*
X52691Y557591D02*
X60609Y557591D01*
X52691Y557591D02*
X52691Y560009D01*
X60609Y560009D01*
X60609Y557591D01*
X60609Y557764D02*
X52691Y557764D01*
X52691Y557937D02*
X60609Y557937D01*
X60609Y558110D02*
X52691Y558110D01*
X52691Y558283D02*
X60609Y558283D01*
X60609Y558456D02*
X52691Y558456D01*
X52691Y558629D02*
X60609Y558629D01*
X60609Y558802D02*
X52691Y558802D01*
X52691Y558975D02*
X60609Y558975D01*
X60609Y559148D02*
X52691Y559148D01*
X52691Y559321D02*
X60609Y559321D01*
X60609Y559494D02*
X52691Y559494D01*
X52691Y559667D02*
X60609Y559667D01*
X60609Y559840D02*
X52691Y559840D01*
X52691Y562591D02*
X60609Y562591D01*
X52691Y562591D02*
X52691Y565009D01*
X60609Y565009D01*
X60609Y562591D01*
X60609Y562764D02*
X52691Y562764D01*
X52691Y562937D02*
X60609Y562937D01*
X60609Y563110D02*
X52691Y563110D01*
X52691Y563283D02*
X60609Y563283D01*
X60609Y563456D02*
X52691Y563456D01*
X52691Y563629D02*
X60609Y563629D01*
X60609Y563802D02*
X52691Y563802D01*
X52691Y563975D02*
X60609Y563975D01*
X60609Y564148D02*
X52691Y564148D01*
X52691Y564321D02*
X60609Y564321D01*
X60609Y564494D02*
X52691Y564494D01*
X52691Y564667D02*
X60609Y564667D01*
X60609Y564840D02*
X52691Y564840D01*
X52691Y567591D02*
X60609Y567591D01*
X52691Y567591D02*
X52691Y570009D01*
X60609Y570009D01*
X60609Y567591D01*
X60609Y567764D02*
X52691Y567764D01*
X52691Y567937D02*
X60609Y567937D01*
X60609Y568110D02*
X52691Y568110D01*
X52691Y568283D02*
X60609Y568283D01*
X60609Y568456D02*
X52691Y568456D01*
X52691Y568629D02*
X60609Y568629D01*
X60609Y568802D02*
X52691Y568802D01*
X52691Y568975D02*
X60609Y568975D01*
X60609Y569148D02*
X52691Y569148D01*
X52691Y569321D02*
X60609Y569321D01*
X60609Y569494D02*
X52691Y569494D01*
X52691Y569667D02*
X60609Y569667D01*
X60609Y569840D02*
X52691Y569840D01*
X64991Y574391D02*
X64991Y582309D01*
X67409Y582309D01*
X67409Y574391D01*
X64991Y574391D01*
X64991Y574564D02*
X67409Y574564D01*
X67409Y574737D02*
X64991Y574737D01*
X64991Y574910D02*
X67409Y574910D01*
X67409Y575083D02*
X64991Y575083D01*
X64991Y575256D02*
X67409Y575256D01*
X67409Y575429D02*
X64991Y575429D01*
X64991Y575602D02*
X67409Y575602D01*
X67409Y575775D02*
X64991Y575775D01*
X64991Y575948D02*
X67409Y575948D01*
X67409Y576121D02*
X64991Y576121D01*
X64991Y576294D02*
X67409Y576294D01*
X67409Y576467D02*
X64991Y576467D01*
X64991Y576640D02*
X67409Y576640D01*
X67409Y576813D02*
X64991Y576813D01*
X64991Y576986D02*
X67409Y576986D01*
X67409Y577159D02*
X64991Y577159D01*
X64991Y577332D02*
X67409Y577332D01*
X67409Y577505D02*
X64991Y577505D01*
X64991Y577678D02*
X67409Y577678D01*
X67409Y577851D02*
X64991Y577851D01*
X64991Y578024D02*
X67409Y578024D01*
X67409Y578197D02*
X64991Y578197D01*
X64991Y578370D02*
X67409Y578370D01*
X67409Y578543D02*
X64991Y578543D01*
X64991Y578716D02*
X67409Y578716D01*
X67409Y578889D02*
X64991Y578889D01*
X64991Y579062D02*
X67409Y579062D01*
X67409Y579235D02*
X64991Y579235D01*
X64991Y579408D02*
X67409Y579408D01*
X67409Y579581D02*
X64991Y579581D01*
X64991Y579754D02*
X67409Y579754D01*
X67409Y579927D02*
X64991Y579927D01*
X64991Y580100D02*
X67409Y580100D01*
X67409Y580273D02*
X64991Y580273D01*
X64991Y580446D02*
X67409Y580446D01*
X67409Y580619D02*
X64991Y580619D01*
X64991Y580792D02*
X67409Y580792D01*
X67409Y580965D02*
X64991Y580965D01*
X64991Y581138D02*
X67409Y581138D01*
X67409Y581311D02*
X64991Y581311D01*
X64991Y581484D02*
X67409Y581484D01*
X67409Y581657D02*
X64991Y581657D01*
X64991Y581830D02*
X67409Y581830D01*
X67409Y582003D02*
X64991Y582003D01*
X64991Y582176D02*
X67409Y582176D01*
X69991Y582309D02*
X69991Y574391D01*
X69991Y582309D02*
X72409Y582309D01*
X72409Y574391D01*
X69991Y574391D01*
X69991Y574564D02*
X72409Y574564D01*
X72409Y574737D02*
X69991Y574737D01*
X69991Y574910D02*
X72409Y574910D01*
X72409Y575083D02*
X69991Y575083D01*
X69991Y575256D02*
X72409Y575256D01*
X72409Y575429D02*
X69991Y575429D01*
X69991Y575602D02*
X72409Y575602D01*
X72409Y575775D02*
X69991Y575775D01*
X69991Y575948D02*
X72409Y575948D01*
X72409Y576121D02*
X69991Y576121D01*
X69991Y576294D02*
X72409Y576294D01*
X72409Y576467D02*
X69991Y576467D01*
X69991Y576640D02*
X72409Y576640D01*
X72409Y576813D02*
X69991Y576813D01*
X69991Y576986D02*
X72409Y576986D01*
X72409Y577159D02*
X69991Y577159D01*
X69991Y577332D02*
X72409Y577332D01*
X72409Y577505D02*
X69991Y577505D01*
X69991Y577678D02*
X72409Y577678D01*
X72409Y577851D02*
X69991Y577851D01*
X69991Y578024D02*
X72409Y578024D01*
X72409Y578197D02*
X69991Y578197D01*
X69991Y578370D02*
X72409Y578370D01*
X72409Y578543D02*
X69991Y578543D01*
X69991Y578716D02*
X72409Y578716D01*
X72409Y578889D02*
X69991Y578889D01*
X69991Y579062D02*
X72409Y579062D01*
X72409Y579235D02*
X69991Y579235D01*
X69991Y579408D02*
X72409Y579408D01*
X72409Y579581D02*
X69991Y579581D01*
X69991Y579754D02*
X72409Y579754D01*
X72409Y579927D02*
X69991Y579927D01*
X69991Y580100D02*
X72409Y580100D01*
X72409Y580273D02*
X69991Y580273D01*
X69991Y580446D02*
X72409Y580446D01*
X72409Y580619D02*
X69991Y580619D01*
X69991Y580792D02*
X72409Y580792D01*
X72409Y580965D02*
X69991Y580965D01*
X69991Y581138D02*
X72409Y581138D01*
X72409Y581311D02*
X69991Y581311D01*
X69991Y581484D02*
X72409Y581484D01*
X72409Y581657D02*
X69991Y581657D01*
X69991Y581830D02*
X72409Y581830D01*
X72409Y582003D02*
X69991Y582003D01*
X69991Y582176D02*
X72409Y582176D01*
X74991Y582309D02*
X74991Y574391D01*
X74991Y582309D02*
X77409Y582309D01*
X77409Y574391D01*
X74991Y574391D01*
X74991Y574564D02*
X77409Y574564D01*
X77409Y574737D02*
X74991Y574737D01*
X74991Y574910D02*
X77409Y574910D01*
X77409Y575083D02*
X74991Y575083D01*
X74991Y575256D02*
X77409Y575256D01*
X77409Y575429D02*
X74991Y575429D01*
X74991Y575602D02*
X77409Y575602D01*
X77409Y575775D02*
X74991Y575775D01*
X74991Y575948D02*
X77409Y575948D01*
X77409Y576121D02*
X74991Y576121D01*
X74991Y576294D02*
X77409Y576294D01*
X77409Y576467D02*
X74991Y576467D01*
X74991Y576640D02*
X77409Y576640D01*
X77409Y576813D02*
X74991Y576813D01*
X74991Y576986D02*
X77409Y576986D01*
X77409Y577159D02*
X74991Y577159D01*
X74991Y577332D02*
X77409Y577332D01*
X77409Y577505D02*
X74991Y577505D01*
X74991Y577678D02*
X77409Y577678D01*
X77409Y577851D02*
X74991Y577851D01*
X74991Y578024D02*
X77409Y578024D01*
X77409Y578197D02*
X74991Y578197D01*
X74991Y578370D02*
X77409Y578370D01*
X77409Y578543D02*
X74991Y578543D01*
X74991Y578716D02*
X77409Y578716D01*
X77409Y578889D02*
X74991Y578889D01*
X74991Y579062D02*
X77409Y579062D01*
X77409Y579235D02*
X74991Y579235D01*
X74991Y579408D02*
X77409Y579408D01*
X77409Y579581D02*
X74991Y579581D01*
X74991Y579754D02*
X77409Y579754D01*
X77409Y579927D02*
X74991Y579927D01*
X74991Y580100D02*
X77409Y580100D01*
X77409Y580273D02*
X74991Y580273D01*
X74991Y580446D02*
X77409Y580446D01*
X77409Y580619D02*
X74991Y580619D01*
X74991Y580792D02*
X77409Y580792D01*
X77409Y580965D02*
X74991Y580965D01*
X74991Y581138D02*
X77409Y581138D01*
X77409Y581311D02*
X74991Y581311D01*
X74991Y581484D02*
X77409Y581484D01*
X77409Y581657D02*
X74991Y581657D01*
X74991Y581830D02*
X77409Y581830D01*
X77409Y582003D02*
X74991Y582003D01*
X74991Y582176D02*
X77409Y582176D01*
X79991Y582309D02*
X79991Y574391D01*
X79991Y582309D02*
X82409Y582309D01*
X82409Y574391D01*
X79991Y574391D01*
X79991Y574564D02*
X82409Y574564D01*
X82409Y574737D02*
X79991Y574737D01*
X79991Y574910D02*
X82409Y574910D01*
X82409Y575083D02*
X79991Y575083D01*
X79991Y575256D02*
X82409Y575256D01*
X82409Y575429D02*
X79991Y575429D01*
X79991Y575602D02*
X82409Y575602D01*
X82409Y575775D02*
X79991Y575775D01*
X79991Y575948D02*
X82409Y575948D01*
X82409Y576121D02*
X79991Y576121D01*
X79991Y576294D02*
X82409Y576294D01*
X82409Y576467D02*
X79991Y576467D01*
X79991Y576640D02*
X82409Y576640D01*
X82409Y576813D02*
X79991Y576813D01*
X79991Y576986D02*
X82409Y576986D01*
X82409Y577159D02*
X79991Y577159D01*
X79991Y577332D02*
X82409Y577332D01*
X82409Y577505D02*
X79991Y577505D01*
X79991Y577678D02*
X82409Y577678D01*
X82409Y577851D02*
X79991Y577851D01*
X79991Y578024D02*
X82409Y578024D01*
X82409Y578197D02*
X79991Y578197D01*
X79991Y578370D02*
X82409Y578370D01*
X82409Y578543D02*
X79991Y578543D01*
X79991Y578716D02*
X82409Y578716D01*
X82409Y578889D02*
X79991Y578889D01*
X79991Y579062D02*
X82409Y579062D01*
X82409Y579235D02*
X79991Y579235D01*
X79991Y579408D02*
X82409Y579408D01*
X82409Y579581D02*
X79991Y579581D01*
X79991Y579754D02*
X82409Y579754D01*
X82409Y579927D02*
X79991Y579927D01*
X79991Y580100D02*
X82409Y580100D01*
X82409Y580273D02*
X79991Y580273D01*
X79991Y580446D02*
X82409Y580446D01*
X82409Y580619D02*
X79991Y580619D01*
X79991Y580792D02*
X82409Y580792D01*
X82409Y580965D02*
X79991Y580965D01*
X79991Y581138D02*
X82409Y581138D01*
X82409Y581311D02*
X79991Y581311D01*
X79991Y581484D02*
X82409Y581484D01*
X82409Y581657D02*
X79991Y581657D01*
X79991Y581830D02*
X82409Y581830D01*
X82409Y582003D02*
X79991Y582003D01*
X79991Y582176D02*
X82409Y582176D01*
X84991Y582309D02*
X84991Y574391D01*
X84991Y582309D02*
X87409Y582309D01*
X87409Y574391D01*
X84991Y574391D01*
X84991Y574564D02*
X87409Y574564D01*
X87409Y574737D02*
X84991Y574737D01*
X84991Y574910D02*
X87409Y574910D01*
X87409Y575083D02*
X84991Y575083D01*
X84991Y575256D02*
X87409Y575256D01*
X87409Y575429D02*
X84991Y575429D01*
X84991Y575602D02*
X87409Y575602D01*
X87409Y575775D02*
X84991Y575775D01*
X84991Y575948D02*
X87409Y575948D01*
X87409Y576121D02*
X84991Y576121D01*
X84991Y576294D02*
X87409Y576294D01*
X87409Y576467D02*
X84991Y576467D01*
X84991Y576640D02*
X87409Y576640D01*
X87409Y576813D02*
X84991Y576813D01*
X84991Y576986D02*
X87409Y576986D01*
X87409Y577159D02*
X84991Y577159D01*
X84991Y577332D02*
X87409Y577332D01*
X87409Y577505D02*
X84991Y577505D01*
X84991Y577678D02*
X87409Y577678D01*
X87409Y577851D02*
X84991Y577851D01*
X84991Y578024D02*
X87409Y578024D01*
X87409Y578197D02*
X84991Y578197D01*
X84991Y578370D02*
X87409Y578370D01*
X87409Y578543D02*
X84991Y578543D01*
X84991Y578716D02*
X87409Y578716D01*
X87409Y578889D02*
X84991Y578889D01*
X84991Y579062D02*
X87409Y579062D01*
X87409Y579235D02*
X84991Y579235D01*
X84991Y579408D02*
X87409Y579408D01*
X87409Y579581D02*
X84991Y579581D01*
X84991Y579754D02*
X87409Y579754D01*
X87409Y579927D02*
X84991Y579927D01*
X84991Y580100D02*
X87409Y580100D01*
X87409Y580273D02*
X84991Y580273D01*
X84991Y580446D02*
X87409Y580446D01*
X87409Y580619D02*
X84991Y580619D01*
X84991Y580792D02*
X87409Y580792D01*
X87409Y580965D02*
X84991Y580965D01*
X84991Y581138D02*
X87409Y581138D01*
X87409Y581311D02*
X84991Y581311D01*
X84991Y581484D02*
X87409Y581484D01*
X87409Y581657D02*
X84991Y581657D01*
X84991Y581830D02*
X87409Y581830D01*
X87409Y582003D02*
X84991Y582003D01*
X84991Y582176D02*
X87409Y582176D01*
X91791Y570009D02*
X99709Y570009D01*
X99709Y567591D01*
X91791Y567591D01*
X91791Y570009D01*
X91791Y567764D02*
X99709Y567764D01*
X99709Y567937D02*
X91791Y567937D01*
X91791Y568110D02*
X99709Y568110D01*
X99709Y568283D02*
X91791Y568283D01*
X91791Y568456D02*
X99709Y568456D01*
X99709Y568629D02*
X91791Y568629D01*
X91791Y568802D02*
X99709Y568802D01*
X99709Y568975D02*
X91791Y568975D01*
X91791Y569148D02*
X99709Y569148D01*
X99709Y569321D02*
X91791Y569321D01*
X91791Y569494D02*
X99709Y569494D01*
X99709Y569667D02*
X91791Y569667D01*
X91791Y569840D02*
X99709Y569840D01*
X99709Y565009D02*
X91791Y565009D01*
X99709Y565009D02*
X99709Y562591D01*
X91791Y562591D01*
X91791Y565009D01*
X91791Y562764D02*
X99709Y562764D01*
X99709Y562937D02*
X91791Y562937D01*
X91791Y563110D02*
X99709Y563110D01*
X99709Y563283D02*
X91791Y563283D01*
X91791Y563456D02*
X99709Y563456D01*
X99709Y563629D02*
X91791Y563629D01*
X91791Y563802D02*
X99709Y563802D01*
X99709Y563975D02*
X91791Y563975D01*
X91791Y564148D02*
X99709Y564148D01*
X99709Y564321D02*
X91791Y564321D01*
X91791Y564494D02*
X99709Y564494D01*
X99709Y564667D02*
X91791Y564667D01*
X91791Y564840D02*
X99709Y564840D01*
X99709Y560009D02*
X91791Y560009D01*
X99709Y560009D02*
X99709Y557591D01*
X91791Y557591D01*
X91791Y560009D01*
X91791Y557764D02*
X99709Y557764D01*
X99709Y557937D02*
X91791Y557937D01*
X91791Y558110D02*
X99709Y558110D01*
X99709Y558283D02*
X91791Y558283D01*
X91791Y558456D02*
X99709Y558456D01*
X99709Y558629D02*
X91791Y558629D01*
X91791Y558802D02*
X99709Y558802D01*
X99709Y558975D02*
X91791Y558975D01*
X91791Y559148D02*
X99709Y559148D01*
X99709Y559321D02*
X91791Y559321D01*
X91791Y559494D02*
X99709Y559494D01*
X99709Y559667D02*
X91791Y559667D01*
X91791Y559840D02*
X99709Y559840D01*
X99709Y555009D02*
X91791Y555009D01*
X99709Y555009D02*
X99709Y552591D01*
X91791Y552591D01*
X91791Y555009D01*
X91791Y552764D02*
X99709Y552764D01*
X99709Y552937D02*
X91791Y552937D01*
X91791Y553110D02*
X99709Y553110D01*
X99709Y553283D02*
X91791Y553283D01*
X91791Y553456D02*
X99709Y553456D01*
X99709Y553629D02*
X91791Y553629D01*
X91791Y553802D02*
X99709Y553802D01*
X99709Y553975D02*
X91791Y553975D01*
X91791Y554148D02*
X99709Y554148D01*
X99709Y554321D02*
X91791Y554321D01*
X91791Y554494D02*
X99709Y554494D01*
X99709Y554667D02*
X91791Y554667D01*
X91791Y554840D02*
X99709Y554840D01*
X99709Y550009D02*
X91791Y550009D01*
X99709Y550009D02*
X99709Y547591D01*
X91791Y547591D01*
X91791Y550009D01*
X91791Y547764D02*
X99709Y547764D01*
X99709Y547937D02*
X91791Y547937D01*
X91791Y548110D02*
X99709Y548110D01*
X99709Y548283D02*
X91791Y548283D01*
X91791Y548456D02*
X99709Y548456D01*
X99709Y548629D02*
X91791Y548629D01*
X91791Y548802D02*
X99709Y548802D01*
X99709Y548975D02*
X91791Y548975D01*
X91791Y549148D02*
X99709Y549148D01*
X99709Y549321D02*
X91791Y549321D01*
X91791Y549494D02*
X99709Y549494D01*
X99709Y549667D02*
X91791Y549667D01*
X91791Y549840D02*
X99709Y549840D01*
X87409Y543209D02*
X87409Y535291D01*
X84991Y535291D01*
X84991Y543209D01*
X87409Y543209D01*
X87409Y535464D02*
X84991Y535464D01*
X84991Y535637D02*
X87409Y535637D01*
X87409Y535810D02*
X84991Y535810D01*
X84991Y535983D02*
X87409Y535983D01*
X87409Y536156D02*
X84991Y536156D01*
X84991Y536329D02*
X87409Y536329D01*
X87409Y536502D02*
X84991Y536502D01*
X84991Y536675D02*
X87409Y536675D01*
X87409Y536848D02*
X84991Y536848D01*
X84991Y537021D02*
X87409Y537021D01*
X87409Y537194D02*
X84991Y537194D01*
X84991Y537367D02*
X87409Y537367D01*
X87409Y537540D02*
X84991Y537540D01*
X84991Y537713D02*
X87409Y537713D01*
X87409Y537886D02*
X84991Y537886D01*
X84991Y538059D02*
X87409Y538059D01*
X87409Y538232D02*
X84991Y538232D01*
X84991Y538405D02*
X87409Y538405D01*
X87409Y538578D02*
X84991Y538578D01*
X84991Y538751D02*
X87409Y538751D01*
X87409Y538924D02*
X84991Y538924D01*
X84991Y539097D02*
X87409Y539097D01*
X87409Y539270D02*
X84991Y539270D01*
X84991Y539443D02*
X87409Y539443D01*
X87409Y539616D02*
X84991Y539616D01*
X84991Y539789D02*
X87409Y539789D01*
X87409Y539962D02*
X84991Y539962D01*
X84991Y540135D02*
X87409Y540135D01*
X87409Y540308D02*
X84991Y540308D01*
X84991Y540481D02*
X87409Y540481D01*
X87409Y540654D02*
X84991Y540654D01*
X84991Y540827D02*
X87409Y540827D01*
X87409Y541000D02*
X84991Y541000D01*
X84991Y541173D02*
X87409Y541173D01*
X87409Y541346D02*
X84991Y541346D01*
X84991Y541519D02*
X87409Y541519D01*
X87409Y541692D02*
X84991Y541692D01*
X84991Y541865D02*
X87409Y541865D01*
X87409Y542038D02*
X84991Y542038D01*
X84991Y542211D02*
X87409Y542211D01*
X87409Y542384D02*
X84991Y542384D01*
X84991Y542557D02*
X87409Y542557D01*
X87409Y542730D02*
X84991Y542730D01*
X84991Y542903D02*
X87409Y542903D01*
X87409Y543076D02*
X84991Y543076D01*
X82409Y543209D02*
X82409Y535291D01*
X79991Y535291D01*
X79991Y543209D01*
X82409Y543209D01*
X82409Y535464D02*
X79991Y535464D01*
X79991Y535637D02*
X82409Y535637D01*
X82409Y535810D02*
X79991Y535810D01*
X79991Y535983D02*
X82409Y535983D01*
X82409Y536156D02*
X79991Y536156D01*
X79991Y536329D02*
X82409Y536329D01*
X82409Y536502D02*
X79991Y536502D01*
X79991Y536675D02*
X82409Y536675D01*
X82409Y536848D02*
X79991Y536848D01*
X79991Y537021D02*
X82409Y537021D01*
X82409Y537194D02*
X79991Y537194D01*
X79991Y537367D02*
X82409Y537367D01*
X82409Y537540D02*
X79991Y537540D01*
X79991Y537713D02*
X82409Y537713D01*
X82409Y537886D02*
X79991Y537886D01*
X79991Y538059D02*
X82409Y538059D01*
X82409Y538232D02*
X79991Y538232D01*
X79991Y538405D02*
X82409Y538405D01*
X82409Y538578D02*
X79991Y538578D01*
X79991Y538751D02*
X82409Y538751D01*
X82409Y538924D02*
X79991Y538924D01*
X79991Y539097D02*
X82409Y539097D01*
X82409Y539270D02*
X79991Y539270D01*
X79991Y539443D02*
X82409Y539443D01*
X82409Y539616D02*
X79991Y539616D01*
X79991Y539789D02*
X82409Y539789D01*
X82409Y539962D02*
X79991Y539962D01*
X79991Y540135D02*
X82409Y540135D01*
X82409Y540308D02*
X79991Y540308D01*
X79991Y540481D02*
X82409Y540481D01*
X82409Y540654D02*
X79991Y540654D01*
X79991Y540827D02*
X82409Y540827D01*
X82409Y541000D02*
X79991Y541000D01*
X79991Y541173D02*
X82409Y541173D01*
X82409Y541346D02*
X79991Y541346D01*
X79991Y541519D02*
X82409Y541519D01*
X82409Y541692D02*
X79991Y541692D01*
X79991Y541865D02*
X82409Y541865D01*
X82409Y542038D02*
X79991Y542038D01*
X79991Y542211D02*
X82409Y542211D01*
X82409Y542384D02*
X79991Y542384D01*
X79991Y542557D02*
X82409Y542557D01*
X82409Y542730D02*
X79991Y542730D01*
X79991Y542903D02*
X82409Y542903D01*
X82409Y543076D02*
X79991Y543076D01*
X77409Y543209D02*
X77409Y535291D01*
X74991Y535291D01*
X74991Y543209D01*
X77409Y543209D01*
X77409Y535464D02*
X74991Y535464D01*
X74991Y535637D02*
X77409Y535637D01*
X77409Y535810D02*
X74991Y535810D01*
X74991Y535983D02*
X77409Y535983D01*
X77409Y536156D02*
X74991Y536156D01*
X74991Y536329D02*
X77409Y536329D01*
X77409Y536502D02*
X74991Y536502D01*
X74991Y536675D02*
X77409Y536675D01*
X77409Y536848D02*
X74991Y536848D01*
X74991Y537021D02*
X77409Y537021D01*
X77409Y537194D02*
X74991Y537194D01*
X74991Y537367D02*
X77409Y537367D01*
X77409Y537540D02*
X74991Y537540D01*
X74991Y537713D02*
X77409Y537713D01*
X77409Y537886D02*
X74991Y537886D01*
X74991Y538059D02*
X77409Y538059D01*
X77409Y538232D02*
X74991Y538232D01*
X74991Y538405D02*
X77409Y538405D01*
X77409Y538578D02*
X74991Y538578D01*
X74991Y538751D02*
X77409Y538751D01*
X77409Y538924D02*
X74991Y538924D01*
X74991Y539097D02*
X77409Y539097D01*
X77409Y539270D02*
X74991Y539270D01*
X74991Y539443D02*
X77409Y539443D01*
X77409Y539616D02*
X74991Y539616D01*
X74991Y539789D02*
X77409Y539789D01*
X77409Y539962D02*
X74991Y539962D01*
X74991Y540135D02*
X77409Y540135D01*
X77409Y540308D02*
X74991Y540308D01*
X74991Y540481D02*
X77409Y540481D01*
X77409Y540654D02*
X74991Y540654D01*
X74991Y540827D02*
X77409Y540827D01*
X77409Y541000D02*
X74991Y541000D01*
X74991Y541173D02*
X77409Y541173D01*
X77409Y541346D02*
X74991Y541346D01*
X74991Y541519D02*
X77409Y541519D01*
X77409Y541692D02*
X74991Y541692D01*
X74991Y541865D02*
X77409Y541865D01*
X77409Y542038D02*
X74991Y542038D01*
X74991Y542211D02*
X77409Y542211D01*
X77409Y542384D02*
X74991Y542384D01*
X74991Y542557D02*
X77409Y542557D01*
X77409Y542730D02*
X74991Y542730D01*
X74991Y542903D02*
X77409Y542903D01*
X77409Y543076D02*
X74991Y543076D01*
X72409Y543209D02*
X72409Y535291D01*
X69991Y535291D01*
X69991Y543209D01*
X72409Y543209D01*
X72409Y535464D02*
X69991Y535464D01*
X69991Y535637D02*
X72409Y535637D01*
X72409Y535810D02*
X69991Y535810D01*
X69991Y535983D02*
X72409Y535983D01*
X72409Y536156D02*
X69991Y536156D01*
X69991Y536329D02*
X72409Y536329D01*
X72409Y536502D02*
X69991Y536502D01*
X69991Y536675D02*
X72409Y536675D01*
X72409Y536848D02*
X69991Y536848D01*
X69991Y537021D02*
X72409Y537021D01*
X72409Y537194D02*
X69991Y537194D01*
X69991Y537367D02*
X72409Y537367D01*
X72409Y537540D02*
X69991Y537540D01*
X69991Y537713D02*
X72409Y537713D01*
X72409Y537886D02*
X69991Y537886D01*
X69991Y538059D02*
X72409Y538059D01*
X72409Y538232D02*
X69991Y538232D01*
X69991Y538405D02*
X72409Y538405D01*
X72409Y538578D02*
X69991Y538578D01*
X69991Y538751D02*
X72409Y538751D01*
X72409Y538924D02*
X69991Y538924D01*
X69991Y539097D02*
X72409Y539097D01*
X72409Y539270D02*
X69991Y539270D01*
X69991Y539443D02*
X72409Y539443D01*
X72409Y539616D02*
X69991Y539616D01*
X69991Y539789D02*
X72409Y539789D01*
X72409Y539962D02*
X69991Y539962D01*
X69991Y540135D02*
X72409Y540135D01*
X72409Y540308D02*
X69991Y540308D01*
X69991Y540481D02*
X72409Y540481D01*
X72409Y540654D02*
X69991Y540654D01*
X69991Y540827D02*
X72409Y540827D01*
X72409Y541000D02*
X69991Y541000D01*
X69991Y541173D02*
X72409Y541173D01*
X72409Y541346D02*
X69991Y541346D01*
X69991Y541519D02*
X72409Y541519D01*
X72409Y541692D02*
X69991Y541692D01*
X69991Y541865D02*
X72409Y541865D01*
X72409Y542038D02*
X69991Y542038D01*
X69991Y542211D02*
X72409Y542211D01*
X72409Y542384D02*
X69991Y542384D01*
X69991Y542557D02*
X72409Y542557D01*
X72409Y542730D02*
X69991Y542730D01*
X69991Y542903D02*
X72409Y542903D01*
X72409Y543076D02*
X69991Y543076D01*
X67409Y543209D02*
X67409Y535291D01*
X64991Y535291D01*
X64991Y543209D01*
X67409Y543209D01*
X67409Y535464D02*
X64991Y535464D01*
X64991Y535637D02*
X67409Y535637D01*
X67409Y535810D02*
X64991Y535810D01*
X64991Y535983D02*
X67409Y535983D01*
X67409Y536156D02*
X64991Y536156D01*
X64991Y536329D02*
X67409Y536329D01*
X67409Y536502D02*
X64991Y536502D01*
X64991Y536675D02*
X67409Y536675D01*
X67409Y536848D02*
X64991Y536848D01*
X64991Y537021D02*
X67409Y537021D01*
X67409Y537194D02*
X64991Y537194D01*
X64991Y537367D02*
X67409Y537367D01*
X67409Y537540D02*
X64991Y537540D01*
X64991Y537713D02*
X67409Y537713D01*
X67409Y537886D02*
X64991Y537886D01*
X64991Y538059D02*
X67409Y538059D01*
X67409Y538232D02*
X64991Y538232D01*
X64991Y538405D02*
X67409Y538405D01*
X67409Y538578D02*
X64991Y538578D01*
X64991Y538751D02*
X67409Y538751D01*
X67409Y538924D02*
X64991Y538924D01*
X64991Y539097D02*
X67409Y539097D01*
X67409Y539270D02*
X64991Y539270D01*
X64991Y539443D02*
X67409Y539443D01*
X67409Y539616D02*
X64991Y539616D01*
X64991Y539789D02*
X67409Y539789D01*
X67409Y539962D02*
X64991Y539962D01*
X64991Y540135D02*
X67409Y540135D01*
X67409Y540308D02*
X64991Y540308D01*
X64991Y540481D02*
X67409Y540481D01*
X67409Y540654D02*
X64991Y540654D01*
X64991Y540827D02*
X67409Y540827D01*
X67409Y541000D02*
X64991Y541000D01*
X64991Y541173D02*
X67409Y541173D01*
X67409Y541346D02*
X64991Y541346D01*
X64991Y541519D02*
X67409Y541519D01*
X67409Y541692D02*
X64991Y541692D01*
X64991Y541865D02*
X67409Y541865D01*
X67409Y542038D02*
X64991Y542038D01*
X64991Y542211D02*
X67409Y542211D01*
X67409Y542384D02*
X64991Y542384D01*
X64991Y542557D02*
X67409Y542557D01*
X67409Y542730D02*
X64991Y542730D01*
X64991Y542903D02*
X67409Y542903D01*
X67409Y543076D02*
X64991Y543076D01*
D23*
X141110Y501650D03*
X100190Y501650D03*
D12*
X119000Y533400D03*
X135000Y533400D03*
D20*
X241300Y23750D03*
X241300Y39750D03*
X304800Y52450D03*
X304800Y36450D03*
D24*
X146050Y314850D03*
X146050Y332850D03*
X196850Y314850D03*
X196850Y332850D03*
D17*
X334408Y132334D03*
X352408Y132334D03*
D25*
X101600Y313000D03*
X101600Y322000D03*
X165100Y313000D03*
X165100Y322000D03*
X315650Y119380D03*
X306650Y119380D03*
X241300Y319350D03*
X241300Y328350D03*
D19*
X306396Y159258D03*
X315396Y159258D03*
D26*
X-80250Y254250D02*
X-80250Y260350D01*
X-85250Y260350D02*
X-85250Y254250D01*
X-90250Y254250D02*
X-90250Y260350D01*
X-95250Y260350D02*
X-95250Y254250D01*
X-100250Y254250D02*
X-100250Y260350D01*
X-105250Y260350D02*
X-105250Y254250D01*
X-110250Y254250D02*
X-110250Y260350D01*
X-114300Y264400D02*
X-120400Y264400D01*
X-120400Y269400D02*
X-114300Y269400D01*
X-114300Y274400D02*
X-120400Y274400D01*
X-120400Y279400D02*
X-114300Y279400D01*
X-114300Y284400D02*
X-120400Y284400D01*
X-120400Y289400D02*
X-114300Y289400D01*
X-114300Y294400D02*
X-120400Y294400D01*
X-110250Y298450D02*
X-110250Y304550D01*
X-105250Y304550D02*
X-105250Y298450D01*
X-100250Y298450D02*
X-100250Y304550D01*
X-95250Y304550D02*
X-95250Y298450D01*
X-90250Y298450D02*
X-90250Y304550D01*
X-85250Y304550D02*
X-85250Y298450D01*
X-80250Y298450D02*
X-80250Y304550D01*
X-76200Y294400D02*
X-70100Y294400D01*
X-70100Y289400D02*
X-76200Y289400D01*
X-76200Y284400D02*
X-70100Y284400D01*
X-70100Y279400D02*
X-76200Y279400D01*
X-76200Y274400D02*
X-70100Y274400D01*
X-70100Y269400D02*
X-76200Y269400D01*
X-76200Y264400D02*
X-70100Y264400D01*
D27*
X-95250Y279400D03*
D19*
X-96012Y338002D03*
X-96012Y329002D03*
X-108204Y329002D03*
X-108204Y338002D03*
X-61650Y330200D03*
X-52650Y330200D03*
D25*
X-121158Y329002D03*
X-121158Y338002D03*
D19*
X-40204Y254508D03*
X-49204Y254508D03*
D25*
X-95250Y239450D03*
X-95250Y230450D03*
X-136724Y298450D03*
X-145724Y298450D03*
X-135200Y260350D03*
X-144200Y260350D03*
X-56642Y297506D03*
X-56642Y306506D03*
X-82804Y329002D03*
X-82804Y338002D03*
D20*
X-122936Y235330D03*
X-122936Y219330D03*
D25*
X-8128Y275408D03*
X-8128Y284408D03*
X-8382Y305744D03*
X-8382Y296744D03*
D28*
X352200Y562200D03*
X352200Y555700D03*
X352200Y549200D03*
X352200Y542700D03*
X308200Y542700D03*
X308200Y549200D03*
X308200Y555700D03*
X308200Y562200D03*
D19*
X369570Y490800D03*
X369570Y499800D03*
D29*
X279400Y544950D03*
X279400Y559950D03*
D30*
X290400Y504800D03*
X290400Y485800D03*
X268400Y495300D03*
D31*
X339700Y485300D03*
X320700Y485300D03*
X330200Y505300D03*
D29*
X381000Y557650D03*
X381000Y572650D03*
D25*
X376500Y539750D03*
X385500Y539750D03*
D32*
X517750Y479650D03*
X511250Y479650D03*
X504750Y479650D03*
X498250Y479650D03*
X498250Y523650D03*
X504750Y523650D03*
X511250Y523650D03*
X517750Y523650D03*
D19*
X440000Y455930D03*
X449000Y455930D03*
D29*
X500500Y552450D03*
X515500Y552450D03*
D25*
X539750Y506150D03*
X539750Y497150D03*
D33*
X454000Y522400D03*
X435000Y522400D03*
X444500Y544400D03*
D34*
X434500Y473100D03*
X434500Y492100D03*
X454500Y482600D03*
D29*
X494150Y450850D03*
X509150Y450850D03*
D25*
X476250Y468050D03*
X476250Y459050D03*
D32*
X511400Y206600D03*
X504900Y206600D03*
X498400Y206600D03*
X491900Y206600D03*
X491900Y250600D03*
X498400Y250600D03*
X504900Y250600D03*
X511400Y250600D03*
D19*
X446350Y176530D03*
X455350Y176530D03*
D29*
X494150Y279400D03*
X509150Y279400D03*
D33*
X460350Y243000D03*
X441350Y243000D03*
X450850Y265000D03*
D34*
X440850Y200050D03*
X440850Y219050D03*
X460850Y209550D03*
D29*
X506850Y177800D03*
X521850Y177800D03*
D25*
X488950Y182300D03*
X488950Y173300D03*
D32*
X505050Y66900D03*
X498550Y66900D03*
X492050Y66900D03*
X485550Y66900D03*
X485550Y110900D03*
X492050Y110900D03*
X498550Y110900D03*
X505050Y110900D03*
D19*
X436880Y48950D03*
X436880Y39950D03*
D29*
X494150Y133350D03*
X509150Y133350D03*
D33*
X447650Y116000D03*
X428650Y116000D03*
X438150Y138000D03*
D34*
X428150Y66700D03*
X428150Y85700D03*
X448150Y76200D03*
D29*
X494150Y44450D03*
X509150Y44450D03*
D25*
X476250Y48950D03*
X476250Y39950D03*
D35*
X-23750Y281100D03*
X-39750Y281100D03*
X-39750Y303100D03*
X-23750Y303100D03*
D15*
X-133350Y57150D03*
X-171450Y57150D03*
D25*
X-135200Y273050D03*
X-144200Y273050D03*
X-48950Y266700D03*
X-39950Y266700D03*
D19*
X-144200Y285750D03*
X-135200Y285750D03*
D25*
X520700Y93400D03*
X520700Y84400D03*
X533400Y233100D03*
X533400Y224100D03*
X325700Y577850D03*
X334700Y577850D03*
D19*
X82550Y592400D03*
X82550Y601400D03*
X63500Y601400D03*
X63500Y592400D03*
X50800Y592400D03*
X50800Y601400D03*
D36*
X-15200Y557450D03*
X-10200Y557450D03*
X-15200Y552450D03*
X-10200Y552450D03*
X-15200Y547450D03*
X-10200Y547450D03*
D37*
X-38100Y518400D03*
X-38100Y548400D03*
D25*
X6350Y550600D03*
X6350Y541600D03*
D36*
X-228600Y25400D02*
X-228503Y23186D01*
X-228214Y20989D01*
X-227735Y18826D01*
X-227068Y16713D01*
X-226220Y14666D01*
X-225197Y12700D01*
X-224006Y10831D01*
X-222658Y9073D01*
X-221161Y7440D01*
X-219527Y5942D01*
X-217769Y4594D01*
X-215900Y3403D01*
X-213935Y2380D01*
X-211887Y1532D01*
X-209774Y865D01*
X-207611Y386D01*
X-205414Y97D01*
X-203200Y0D01*
X565150Y0D01*
X567075Y361D01*
X568961Y889D01*
X570794Y1579D01*
X572560Y2426D01*
X574245Y3424D01*
X575837Y4565D01*
X577324Y5840D01*
X578693Y7241D01*
X579936Y8755D01*
X581041Y10371D01*
X582002Y12078D01*
X582810Y13862D01*
X583460Y15710D01*
X583946Y17607D01*
X584264Y19540D01*
X584414Y21492D01*
X584392Y23451D01*
X584200Y25400D01*
X584200Y601980D01*
X584180Y603698D01*
X584011Y605408D01*
X583694Y607097D01*
X583230Y608751D01*
X582624Y610359D01*
X581880Y611908D01*
X581004Y613386D01*
X580003Y614782D01*
X578883Y616085D01*
X577655Y617286D01*
X576326Y618376D01*
X574907Y619345D01*
X573410Y620187D01*
X571844Y620896D01*
X570223Y621465D01*
X568559Y621891D01*
X566863Y622170D01*
X565150Y622300D01*
X-209550Y622300D01*
X-211475Y621939D01*
X-213361Y621411D01*
X-215194Y620721D01*
X-216960Y619874D01*
X-218645Y618876D01*
X-220237Y617735D01*
X-221724Y616460D01*
X-223093Y615060D01*
X-224336Y613545D01*
X-225441Y611929D01*
X-226402Y610222D01*
X-227210Y608438D01*
X-227860Y606590D01*
X-228346Y604693D01*
X-228664Y602760D01*
X-228814Y600808D01*
X-228792Y598849D01*
X-228600Y596900D01*
X-228600Y25400D01*
M02*
