G04 EAGLE Gerber RS-274X export*
G75*
%MOMM*%
%FSLAX34Y34*%
%LPD*%
%INSolderpaste Top*%
%IPPOS*%
%AMOC8*
5,1,8,0,0,1.08239X$1,22.5*%
G01*
%ADD10R,1.150000X1.450000*%
%ADD11R,0.620000X0.620000*%
%ADD12R,0.700000X0.600000*%
%ADD13R,4.600000X1.000000*%
%ADD14R,3.400000X1.600000*%
%ADD15R,2.489200X2.235200*%
%ADD16R,2.235200X2.489200*%
%ADD17R,0.195575X0.685800*%
%ADD18R,0.800000X0.800000*%
%ADD19R,0.450000X0.350000*%
%ADD20R,0.350000X0.350000*%
%ADD21R,0.500000X0.500000*%
%ADD22R,1.050000X1.400000*%
%ADD23R,1.500000X0.700000*%
%ADD24R,0.600000X1.000000*%
%ADD25R,0.800000X1.000000*%
%ADD26C,0.250000*%
%ADD27C,0.254000*%
%ADD28R,1.600000X2.500000*%
%ADD29C,0.450000*%
%ADD30R,1.400000X1.150000*%
%ADD31R,1.905000X1.092200*%
%ADD32R,2.530000X2.150000*%
%ADD33C,0.110000*%


D10*
X105266Y357378D03*
X87266Y357378D03*
D11*
X159948Y177800D03*
X150948Y177800D03*
D10*
X159368Y196850D03*
X141368Y196850D03*
D11*
X108386Y334772D03*
X99386Y334772D03*
X58348Y70104D03*
X49348Y70104D03*
X302950Y296926D03*
X293950Y296926D03*
X257556Y272614D03*
X257556Y281614D03*
X172212Y289124D03*
X172212Y298124D03*
X172466Y277042D03*
X172466Y268042D03*
X80518Y106608D03*
X80518Y97608D03*
X109728Y107116D03*
X109728Y98116D03*
X259842Y300046D03*
X259842Y309046D03*
X237816Y331724D03*
X246816Y331724D03*
X304364Y183134D03*
X313364Y183134D03*
X304364Y197612D03*
X313364Y197612D03*
D12*
X329264Y181976D03*
X329264Y195976D03*
X339264Y181976D03*
X339264Y195976D03*
D13*
X72560Y245270D03*
X72560Y265270D03*
D14*
X20560Y221270D03*
X20560Y289270D03*
D15*
X359664Y188722D03*
D16*
X102108Y177546D03*
X127254Y375158D03*
D17*
X251981Y35433D03*
X247981Y35433D03*
X243981Y35433D03*
X239981Y35433D03*
X235981Y35433D03*
X231981Y35433D03*
X227981Y35433D03*
X223981Y35433D03*
X219981Y35433D03*
X215981Y35433D03*
X211981Y35433D03*
X295981Y35433D03*
X291981Y35433D03*
X287981Y35433D03*
X283981Y35433D03*
X279981Y35433D03*
X275981Y35433D03*
X271981Y35433D03*
X267981Y35433D03*
X263981Y35433D03*
X259981Y35433D03*
X255981Y35433D03*
X251981Y66167D03*
X247981Y66167D03*
X243981Y66167D03*
X239981Y66167D03*
X235981Y66167D03*
X231981Y66167D03*
X227981Y66167D03*
X223981Y66167D03*
X219981Y66167D03*
X215981Y66167D03*
X211981Y66167D03*
X295981Y66167D03*
X291981Y66167D03*
X287981Y66167D03*
X283981Y66167D03*
X279981Y66167D03*
X275981Y66167D03*
X271981Y66167D03*
X267981Y66167D03*
X263981Y66167D03*
X259981Y66167D03*
X255981Y66167D03*
D18*
X155836Y217932D03*
X140836Y217932D03*
D19*
X362966Y235620D03*
D20*
X358966Y224120D03*
X366966Y224120D03*
D19*
X342646Y139792D03*
D20*
X346646Y151292D03*
X338646Y151292D03*
D19*
X340106Y233588D03*
D20*
X336106Y222088D03*
X344106Y222088D03*
D21*
X49094Y84836D03*
X58094Y84836D03*
X367538Y74350D03*
X367538Y65350D03*
X355854Y74350D03*
X355854Y65350D03*
X48260Y99640D03*
X48260Y108640D03*
X335860Y211328D03*
X344860Y211328D03*
X358466Y210820D03*
X367466Y210820D03*
X336622Y166116D03*
X345622Y166116D03*
X60198Y99894D03*
X60198Y108894D03*
D18*
X100076Y216542D03*
X100076Y201542D03*
X88766Y379222D03*
X103766Y379222D03*
X107950Y152788D03*
X107950Y137788D03*
X223012Y329318D03*
X223012Y314318D03*
D22*
X29856Y103598D03*
X29856Y67598D03*
X15356Y103598D03*
X15356Y67598D03*
D23*
X37820Y325480D03*
X37820Y340480D03*
X37820Y370480D03*
D24*
X10320Y311480D03*
D25*
X31320Y311480D03*
D24*
X10320Y384480D03*
D25*
X31320Y384480D03*
D26*
X204522Y231342D03*
X204522Y226342D03*
X204522Y221342D03*
X204522Y216342D03*
X204522Y211342D03*
X204522Y206342D03*
X204522Y201342D03*
X204522Y196342D03*
X204522Y191342D03*
X204522Y186342D03*
X204522Y181342D03*
X204522Y176342D03*
X204522Y171342D03*
X204522Y166342D03*
X204522Y161342D03*
X209522Y161342D03*
X209522Y166342D03*
X209522Y171342D03*
X209522Y176342D03*
X209522Y181342D03*
X209522Y186342D03*
X209522Y191342D03*
X209522Y196342D03*
X209522Y201342D03*
X209522Y206342D03*
X209522Y211342D03*
X209522Y216342D03*
X209522Y221342D03*
X209522Y226342D03*
X209522Y231342D03*
X269522Y231342D03*
X269522Y226342D03*
X269522Y221342D03*
X269522Y216342D03*
X269522Y211342D03*
X269522Y206342D03*
X269522Y201342D03*
X269522Y196342D03*
X269522Y191342D03*
X269522Y186342D03*
X269522Y181342D03*
X269522Y176342D03*
X269522Y171342D03*
X269522Y166342D03*
X269522Y161342D03*
X274522Y161342D03*
X274522Y166342D03*
X274522Y171342D03*
X274522Y176342D03*
X274522Y181342D03*
X274522Y186342D03*
X274522Y191342D03*
X274522Y196342D03*
X274522Y201342D03*
X274522Y206342D03*
X274522Y211342D03*
X274522Y216342D03*
X274522Y221342D03*
X274522Y226342D03*
X274522Y231342D03*
X214522Y231342D03*
X214522Y226342D03*
X219522Y226342D03*
X219522Y231342D03*
X224522Y231342D03*
X224522Y226342D03*
X229522Y226342D03*
X229522Y231342D03*
X234522Y231342D03*
X234522Y226342D03*
X239522Y226342D03*
X239522Y231342D03*
X244522Y231342D03*
X244522Y226342D03*
X249522Y226342D03*
X249522Y231342D03*
X254522Y231342D03*
X254522Y226342D03*
X259522Y226342D03*
X259522Y231342D03*
X264522Y231342D03*
X264522Y226342D03*
X214522Y166342D03*
X214522Y161342D03*
X219522Y161342D03*
X219522Y166342D03*
X224522Y166342D03*
X224522Y161342D03*
X229522Y161342D03*
X229522Y166342D03*
X234522Y166342D03*
X234522Y161342D03*
X239522Y161342D03*
X239522Y166342D03*
X244522Y166342D03*
X244522Y161342D03*
X249522Y161342D03*
X249522Y166342D03*
X254522Y166342D03*
X254522Y161342D03*
X259522Y161342D03*
X259522Y166342D03*
X264522Y166342D03*
X264522Y161342D03*
X229522Y196342D03*
X249522Y196342D03*
X229522Y201342D03*
X249522Y201342D03*
X229522Y191342D03*
X249522Y191342D03*
X229522Y206342D03*
X249522Y206342D03*
X229522Y186342D03*
X249522Y186342D03*
X234522Y206342D03*
X234522Y186342D03*
X239522Y206342D03*
X239522Y186342D03*
X244522Y206342D03*
X244522Y186342D03*
D27*
X96734Y107108D03*
X91734Y107108D03*
X96734Y102108D03*
X91734Y102108D03*
X96734Y97108D03*
X91734Y97108D03*
D28*
X230632Y283718D03*
D29*
X218132Y283718D02*
X214132Y283718D01*
X243132Y283718D02*
X247132Y283718D01*
X218132Y273718D02*
X214132Y273718D01*
X214132Y293718D02*
X218132Y293718D01*
X243132Y293718D02*
X247132Y293718D01*
X247132Y273718D02*
X243132Y273718D01*
D27*
X237570Y317460D03*
X237570Y312460D03*
X242570Y317460D03*
X242570Y312460D03*
X247570Y317460D03*
X247570Y312460D03*
D30*
X295734Y268860D03*
X295734Y284860D03*
X273734Y284860D03*
X273734Y268860D03*
D31*
X189484Y294894D03*
X189484Y270002D03*
D32*
X106172Y46990D03*
D33*
X88772Y23190D02*
X88772Y13890D01*
X85472Y13890D01*
X85472Y23190D01*
X88772Y23190D01*
X88772Y14935D02*
X85472Y14935D01*
X85472Y15980D02*
X88772Y15980D01*
X88772Y17025D02*
X85472Y17025D01*
X85472Y18070D02*
X88772Y18070D01*
X88772Y19115D02*
X85472Y19115D01*
X85472Y20160D02*
X88772Y20160D01*
X88772Y21205D02*
X85472Y21205D01*
X85472Y22250D02*
X88772Y22250D01*
X101472Y23190D02*
X101472Y13890D01*
X98172Y13890D01*
X98172Y23190D01*
X101472Y23190D01*
X101472Y14935D02*
X98172Y14935D01*
X98172Y15980D02*
X101472Y15980D01*
X101472Y17025D02*
X98172Y17025D01*
X98172Y18070D02*
X101472Y18070D01*
X101472Y19115D02*
X98172Y19115D01*
X98172Y20160D02*
X101472Y20160D01*
X101472Y21205D02*
X98172Y21205D01*
X98172Y22250D02*
X101472Y22250D01*
X114172Y23190D02*
X114172Y13890D01*
X110872Y13890D01*
X110872Y23190D01*
X114172Y23190D01*
X114172Y14935D02*
X110872Y14935D01*
X110872Y15980D02*
X114172Y15980D01*
X114172Y17025D02*
X110872Y17025D01*
X110872Y18070D02*
X114172Y18070D01*
X114172Y19115D02*
X110872Y19115D01*
X110872Y20160D02*
X114172Y20160D01*
X114172Y21205D02*
X110872Y21205D01*
X110872Y22250D02*
X114172Y22250D01*
X126872Y23190D02*
X126872Y13890D01*
X123572Y13890D01*
X123572Y23190D01*
X126872Y23190D01*
X126872Y14935D02*
X123572Y14935D01*
X123572Y15980D02*
X126872Y15980D01*
X126872Y17025D02*
X123572Y17025D01*
X123572Y18070D02*
X126872Y18070D01*
X126872Y19115D02*
X123572Y19115D01*
X123572Y20160D02*
X126872Y20160D01*
X126872Y21205D02*
X123572Y21205D01*
X123572Y22250D02*
X126872Y22250D01*
X126872Y70790D02*
X126872Y80090D01*
X126872Y70790D02*
X123572Y70790D01*
X123572Y80090D01*
X126872Y80090D01*
X126872Y71835D02*
X123572Y71835D01*
X123572Y72880D02*
X126872Y72880D01*
X126872Y73925D02*
X123572Y73925D01*
X123572Y74970D02*
X126872Y74970D01*
X126872Y76015D02*
X123572Y76015D01*
X123572Y77060D02*
X126872Y77060D01*
X126872Y78105D02*
X123572Y78105D01*
X123572Y79150D02*
X126872Y79150D01*
X114172Y80090D02*
X114172Y70790D01*
X110872Y70790D01*
X110872Y80090D01*
X114172Y80090D01*
X114172Y71835D02*
X110872Y71835D01*
X110872Y72880D02*
X114172Y72880D01*
X114172Y73925D02*
X110872Y73925D01*
X110872Y74970D02*
X114172Y74970D01*
X114172Y76015D02*
X110872Y76015D01*
X110872Y77060D02*
X114172Y77060D01*
X114172Y78105D02*
X110872Y78105D01*
X110872Y79150D02*
X114172Y79150D01*
X101472Y80090D02*
X101472Y70790D01*
X98172Y70790D01*
X98172Y80090D01*
X101472Y80090D01*
X101472Y71835D02*
X98172Y71835D01*
X98172Y72880D02*
X101472Y72880D01*
X101472Y73925D02*
X98172Y73925D01*
X98172Y74970D02*
X101472Y74970D01*
X101472Y76015D02*
X98172Y76015D01*
X98172Y77060D02*
X101472Y77060D01*
X101472Y78105D02*
X98172Y78105D01*
X98172Y79150D02*
X101472Y79150D01*
X88772Y80090D02*
X88772Y70790D01*
X85472Y70790D01*
X85472Y80090D01*
X88772Y80090D01*
X88772Y71835D02*
X85472Y71835D01*
X85472Y72880D02*
X88772Y72880D01*
X88772Y73925D02*
X85472Y73925D01*
X85472Y74970D02*
X88772Y74970D01*
X88772Y76015D02*
X85472Y76015D01*
X85472Y77060D02*
X88772Y77060D01*
X88772Y78105D02*
X85472Y78105D01*
X85472Y79150D02*
X88772Y79150D01*
D27*
X0Y0D02*
X381000Y0D01*
X381000Y444500D01*
X0Y444500D01*
X0Y0D01*
M02*
