M48
;GenerationSoftware,Autodesk,EAGLE,9.5.1*%
;CreationDate,2019-11-23T20:24:15Z*%
FMAT,2
ICI,OFF
METRIC,TZ,000.000
T3C0.350
T2C0.600
T1C1.016
%
G90
M71
T1
X48006Y16256
X41448Y2658
X43988Y2658
X48006Y8636
X48006Y11176
X48006Y3556
X48006Y6096
X48006Y13716
T2
X32578Y4544
X32578Y16544
T3
X38862Y12446
X34544Y8890
X22352Y16002
X26924Y16764
X26670Y4064
X16256Y11176
X41148Y12700
X8915Y12116
X26213Y8001
X6477Y12725
X17526Y4318
X23317Y8153
X18288Y3556
X22708Y6782
X16256Y4318
X34366Y6858
X19812Y7620
X20574Y8382
X38633Y8687
X39624Y7696
X6477Y3429
X15494Y3556
X38608Y16510
X41758Y13716
X14732Y4318
X12878Y1981
X16764Y3556
X34366Y7772
X13208Y9144
X17780Y14732
X20574Y5588
X19812Y6350
X20574Y7112
X19812Y9144
X12446Y5588
X13208Y6350
X12446Y7112
X16764Y10414
X12446Y8382
X14224Y11176
X12446Y10668
X14986Y10414
X18034Y11176
X18796Y10414
X28702Y18542
X16764Y2591
X32766Y18542
X16510Y14986
X45974Y16510
X11176Y8382
X10922Y12954
X21082Y3810
X46228Y7366
X13208Y7620
M30