G04 EAGLE Gerber RS-274X export*
G75*
%MOMM*%
%FSLAX34Y34*%
%LPD*%
%INSilkscreen Bottom*%
%IPPOS*%
%AMOC8*
5,1,8,0,0,1.08239X$1,22.5*%
G01*
%ADD10C,0.140000*%
%ADD11C,0.127000*%
%ADD12C,0.152400*%
%ADD13C,0.254000*%
%ADD14C,0.200000*%
%ADD15C,0.101600*%


D10*
X162200Y438100D02*
X162202Y438152D01*
X162208Y438204D01*
X162218Y438256D01*
X162231Y438306D01*
X162248Y438356D01*
X162269Y438404D01*
X162294Y438450D01*
X162322Y438494D01*
X162353Y438536D01*
X162387Y438576D01*
X162424Y438613D01*
X162464Y438647D01*
X162506Y438678D01*
X162550Y438706D01*
X162596Y438731D01*
X162644Y438752D01*
X162694Y438769D01*
X162744Y438782D01*
X162796Y438792D01*
X162848Y438798D01*
X162900Y438800D01*
X162952Y438798D01*
X163004Y438792D01*
X163056Y438782D01*
X163106Y438769D01*
X163156Y438752D01*
X163204Y438731D01*
X163250Y438706D01*
X163294Y438678D01*
X163336Y438647D01*
X163376Y438613D01*
X163413Y438576D01*
X163447Y438536D01*
X163478Y438494D01*
X163506Y438450D01*
X163531Y438404D01*
X163552Y438356D01*
X163569Y438306D01*
X163582Y438256D01*
X163592Y438204D01*
X163598Y438152D01*
X163600Y438100D01*
X163598Y438048D01*
X163592Y437996D01*
X163582Y437944D01*
X163569Y437894D01*
X163552Y437844D01*
X163531Y437796D01*
X163506Y437750D01*
X163478Y437706D01*
X163447Y437664D01*
X163413Y437624D01*
X163376Y437587D01*
X163336Y437553D01*
X163294Y437522D01*
X163250Y437494D01*
X163204Y437469D01*
X163156Y437448D01*
X163106Y437431D01*
X163056Y437418D01*
X163004Y437408D01*
X162952Y437402D01*
X162900Y437400D01*
X162848Y437402D01*
X162796Y437408D01*
X162744Y437418D01*
X162694Y437431D01*
X162644Y437448D01*
X162596Y437469D01*
X162550Y437494D01*
X162506Y437522D01*
X162464Y437553D01*
X162424Y437587D01*
X162387Y437624D01*
X162353Y437664D01*
X162322Y437706D01*
X162294Y437750D01*
X162269Y437796D01*
X162248Y437844D01*
X162231Y437894D01*
X162218Y437944D01*
X162208Y437996D01*
X162202Y438048D01*
X162200Y438100D01*
D11*
X105918Y274828D02*
X65278Y274828D01*
X105918Y274828D02*
X105918Y315468D01*
X65278Y315468D02*
X65278Y274828D01*
X65278Y315468D02*
X105918Y315468D01*
X60198Y307848D02*
X60198Y282448D01*
D12*
X77724Y321818D02*
X77724Y344678D01*
X96520Y344678D01*
X96520Y321818D01*
X77724Y321818D01*
D13*
X99822Y320548D03*
D14*
X75772Y389401D02*
X75774Y389464D01*
X75780Y389526D01*
X75790Y389588D01*
X75803Y389650D01*
X75821Y389710D01*
X75842Y389769D01*
X75867Y389827D01*
X75896Y389883D01*
X75928Y389937D01*
X75963Y389989D01*
X76001Y390038D01*
X76043Y390086D01*
X76087Y390130D01*
X76135Y390172D01*
X76184Y390210D01*
X76236Y390245D01*
X76290Y390277D01*
X76346Y390306D01*
X76404Y390331D01*
X76463Y390352D01*
X76523Y390370D01*
X76585Y390383D01*
X76647Y390393D01*
X76709Y390399D01*
X76772Y390401D01*
X76835Y390399D01*
X76897Y390393D01*
X76959Y390383D01*
X77021Y390370D01*
X77081Y390352D01*
X77140Y390331D01*
X77198Y390306D01*
X77254Y390277D01*
X77308Y390245D01*
X77360Y390210D01*
X77409Y390172D01*
X77457Y390130D01*
X77501Y390086D01*
X77543Y390038D01*
X77581Y389989D01*
X77616Y389937D01*
X77648Y389883D01*
X77677Y389827D01*
X77702Y389769D01*
X77723Y389710D01*
X77741Y389650D01*
X77754Y389588D01*
X77764Y389526D01*
X77770Y389464D01*
X77772Y389401D01*
X77770Y389338D01*
X77764Y389276D01*
X77754Y389214D01*
X77741Y389152D01*
X77723Y389092D01*
X77702Y389033D01*
X77677Y388975D01*
X77648Y388919D01*
X77616Y388865D01*
X77581Y388813D01*
X77543Y388764D01*
X77501Y388716D01*
X77457Y388672D01*
X77409Y388630D01*
X77360Y388592D01*
X77308Y388557D01*
X77254Y388525D01*
X77198Y388496D01*
X77140Y388471D01*
X77081Y388450D01*
X77021Y388432D01*
X76959Y388419D01*
X76897Y388409D01*
X76835Y388403D01*
X76772Y388401D01*
X76709Y388403D01*
X76647Y388409D01*
X76585Y388419D01*
X76523Y388432D01*
X76463Y388450D01*
X76404Y388471D01*
X76346Y388496D01*
X76290Y388525D01*
X76236Y388557D01*
X76184Y388592D01*
X76135Y388630D01*
X76087Y388672D01*
X76043Y388716D01*
X76001Y388764D01*
X75963Y388813D01*
X75928Y388865D01*
X75896Y388919D01*
X75867Y388975D01*
X75842Y389033D01*
X75821Y389092D01*
X75803Y389152D01*
X75790Y389214D01*
X75780Y389276D01*
X75774Y389338D01*
X75772Y389401D01*
D11*
X96842Y373981D02*
X96842Y369756D01*
X92617Y369756D01*
X96842Y382431D02*
X96842Y386656D01*
X92617Y386656D01*
X79942Y386656D02*
X79942Y382431D01*
X79942Y386656D02*
X84167Y386656D01*
X79942Y373981D02*
X79942Y369756D01*
X84167Y369756D01*
D15*
X130676Y289624D02*
X132676Y288624D01*
X130676Y289624D02*
X130676Y287624D01*
X132676Y288624D01*
D11*
X132926Y285924D02*
X132926Y301324D01*
X143426Y301324D01*
X143426Y285924D01*
X132926Y285924D01*
X234378Y329734D02*
X234378Y332274D01*
X234378Y329734D02*
X234380Y329634D01*
X234386Y329535D01*
X234396Y329435D01*
X234409Y329337D01*
X234427Y329238D01*
X234448Y329141D01*
X234473Y329045D01*
X234502Y328949D01*
X234535Y328855D01*
X234571Y328762D01*
X234611Y328671D01*
X234655Y328581D01*
X234702Y328493D01*
X234752Y328407D01*
X234806Y328323D01*
X234863Y328241D01*
X234923Y328162D01*
X234987Y328084D01*
X235053Y328010D01*
X235122Y327938D01*
X235194Y327869D01*
X235268Y327803D01*
X235346Y327739D01*
X235425Y327679D01*
X235507Y327622D01*
X235591Y327568D01*
X235677Y327518D01*
X235765Y327471D01*
X235855Y327427D01*
X235946Y327387D01*
X236039Y327351D01*
X236133Y327318D01*
X236229Y327289D01*
X236325Y327264D01*
X236422Y327243D01*
X236521Y327225D01*
X236619Y327212D01*
X236719Y327202D01*
X236818Y327196D01*
X236918Y327194D01*
X243268Y327194D01*
X243368Y327196D01*
X243467Y327202D01*
X243567Y327212D01*
X243665Y327225D01*
X243764Y327243D01*
X243861Y327264D01*
X243957Y327289D01*
X244053Y327318D01*
X244147Y327351D01*
X244240Y327387D01*
X244331Y327427D01*
X244421Y327471D01*
X244509Y327518D01*
X244595Y327568D01*
X244679Y327622D01*
X244761Y327679D01*
X244840Y327739D01*
X244918Y327803D01*
X244992Y327869D01*
X245064Y327938D01*
X245133Y328010D01*
X245199Y328084D01*
X245263Y328162D01*
X245323Y328241D01*
X245380Y328323D01*
X245434Y328407D01*
X245484Y328493D01*
X245531Y328581D01*
X245575Y328671D01*
X245615Y328762D01*
X245651Y328855D01*
X245684Y328949D01*
X245713Y329045D01*
X245738Y329141D01*
X245759Y329238D01*
X245777Y329337D01*
X245790Y329435D01*
X245800Y329535D01*
X245806Y329634D01*
X245808Y329734D01*
X245808Y332274D01*
X245808Y337328D02*
X234378Y337328D01*
X245808Y337328D02*
X245808Y340503D01*
X245806Y340614D01*
X245800Y340724D01*
X245791Y340835D01*
X245777Y340945D01*
X245760Y341054D01*
X245739Y341163D01*
X245714Y341271D01*
X245685Y341378D01*
X245653Y341484D01*
X245617Y341589D01*
X245577Y341692D01*
X245534Y341794D01*
X245487Y341895D01*
X245436Y341994D01*
X245383Y342091D01*
X245326Y342185D01*
X245265Y342278D01*
X245202Y342369D01*
X245135Y342458D01*
X245065Y342544D01*
X244992Y342627D01*
X244917Y342709D01*
X244839Y342787D01*
X244757Y342862D01*
X244674Y342935D01*
X244588Y343005D01*
X244499Y343072D01*
X244408Y343135D01*
X244315Y343196D01*
X244221Y343253D01*
X244124Y343306D01*
X244025Y343357D01*
X243924Y343404D01*
X243822Y343447D01*
X243719Y343487D01*
X243614Y343523D01*
X243508Y343555D01*
X243401Y343584D01*
X243293Y343609D01*
X243184Y343630D01*
X243075Y343647D01*
X242965Y343661D01*
X242854Y343670D01*
X242744Y343676D01*
X242633Y343678D01*
X242522Y343676D01*
X242412Y343670D01*
X242301Y343661D01*
X242191Y343647D01*
X242082Y343630D01*
X241973Y343609D01*
X241865Y343584D01*
X241758Y343555D01*
X241652Y343523D01*
X241547Y343487D01*
X241444Y343447D01*
X241342Y343404D01*
X241241Y343357D01*
X241142Y343306D01*
X241046Y343253D01*
X240951Y343196D01*
X240858Y343135D01*
X240767Y343072D01*
X240678Y343005D01*
X240592Y342935D01*
X240509Y342862D01*
X240427Y342787D01*
X240349Y342709D01*
X240274Y342627D01*
X240201Y342544D01*
X240131Y342458D01*
X240064Y342369D01*
X240001Y342278D01*
X239940Y342185D01*
X239883Y342091D01*
X239830Y341994D01*
X239779Y341895D01*
X239732Y341794D01*
X239689Y341692D01*
X239649Y341589D01*
X239613Y341484D01*
X239581Y341378D01*
X239552Y341271D01*
X239527Y341163D01*
X239506Y341054D01*
X239489Y340945D01*
X239475Y340835D01*
X239466Y340724D01*
X239460Y340614D01*
X239458Y340503D01*
X239458Y337328D01*
X237553Y348567D02*
X245808Y348567D01*
X237553Y348567D02*
X237442Y348569D01*
X237332Y348575D01*
X237221Y348584D01*
X237111Y348598D01*
X237002Y348615D01*
X236893Y348636D01*
X236785Y348661D01*
X236678Y348690D01*
X236572Y348722D01*
X236467Y348758D01*
X236364Y348798D01*
X236262Y348841D01*
X236161Y348888D01*
X236062Y348939D01*
X235966Y348992D01*
X235871Y349049D01*
X235778Y349110D01*
X235687Y349173D01*
X235598Y349240D01*
X235512Y349310D01*
X235429Y349383D01*
X235347Y349458D01*
X235269Y349536D01*
X235194Y349618D01*
X235121Y349701D01*
X235051Y349787D01*
X234984Y349876D01*
X234921Y349967D01*
X234860Y350060D01*
X234803Y350155D01*
X234750Y350251D01*
X234699Y350350D01*
X234652Y350451D01*
X234609Y350553D01*
X234569Y350656D01*
X234533Y350761D01*
X234501Y350867D01*
X234472Y350974D01*
X234447Y351082D01*
X234426Y351191D01*
X234409Y351300D01*
X234395Y351410D01*
X234386Y351521D01*
X234380Y351631D01*
X234378Y351742D01*
X234380Y351853D01*
X234386Y351963D01*
X234395Y352074D01*
X234409Y352184D01*
X234426Y352293D01*
X234447Y352402D01*
X234472Y352510D01*
X234501Y352617D01*
X234533Y352723D01*
X234569Y352828D01*
X234609Y352931D01*
X234652Y353033D01*
X234699Y353134D01*
X234750Y353233D01*
X234803Y353330D01*
X234860Y353424D01*
X234921Y353517D01*
X234984Y353608D01*
X235051Y353697D01*
X235121Y353783D01*
X235194Y353866D01*
X235269Y353948D01*
X235347Y354026D01*
X235429Y354101D01*
X235512Y354174D01*
X235598Y354244D01*
X235687Y354311D01*
X235778Y354374D01*
X235871Y354435D01*
X235966Y354492D01*
X236062Y354545D01*
X236161Y354596D01*
X236262Y354643D01*
X236364Y354686D01*
X236467Y354726D01*
X236572Y354762D01*
X236678Y354794D01*
X236785Y354823D01*
X236893Y354848D01*
X237002Y354869D01*
X237111Y354886D01*
X237221Y354900D01*
X237332Y354909D01*
X237442Y354915D01*
X237553Y354917D01*
X245808Y354917D01*
X221502Y305576D02*
X191502Y305576D01*
X191502Y275576D02*
X221502Y275576D01*
X191502Y275576D02*
X191502Y305576D01*
X221502Y305576D02*
X221502Y275576D01*
X133364Y365238D02*
X103364Y365238D01*
X103364Y395238D02*
X112364Y395238D01*
X124364Y395238D02*
X133364Y395238D01*
D12*
X125250Y103500D02*
X125250Y23500D01*
X119888Y23500D01*
X65250Y23500D02*
X65250Y103500D01*
X70612Y103500D01*
X81788Y104140D02*
X83312Y104140D01*
X94488Y104140D02*
X96012Y104140D01*
X107188Y104140D02*
X108712Y104140D01*
X119888Y103500D02*
X125250Y103500D01*
X108712Y22860D02*
X107188Y22860D01*
X96012Y22860D02*
X94488Y22860D01*
X83312Y22860D02*
X81788Y22860D01*
X70612Y23500D02*
X65250Y23500D01*
X63500Y112268D02*
X63554Y112270D01*
X63608Y112276D01*
X63662Y112285D01*
X63715Y112299D01*
X63766Y112316D01*
X63817Y112337D01*
X63865Y112361D01*
X63912Y112389D01*
X63957Y112420D01*
X63999Y112454D01*
X64039Y112491D01*
X64076Y112531D01*
X64110Y112573D01*
X64141Y112618D01*
X64169Y112665D01*
X64193Y112713D01*
X64214Y112764D01*
X64231Y112815D01*
X64245Y112868D01*
X64254Y112922D01*
X64260Y112976D01*
X64262Y113030D01*
X64260Y113084D01*
X64254Y113138D01*
X64245Y113192D01*
X64231Y113245D01*
X64214Y113296D01*
X64193Y113347D01*
X64169Y113395D01*
X64141Y113442D01*
X64110Y113487D01*
X64076Y113529D01*
X64039Y113569D01*
X63999Y113606D01*
X63957Y113640D01*
X63912Y113671D01*
X63865Y113699D01*
X63817Y113723D01*
X63766Y113744D01*
X63715Y113761D01*
X63662Y113775D01*
X63608Y113784D01*
X63554Y113790D01*
X63500Y113792D01*
X63446Y113790D01*
X63392Y113784D01*
X63338Y113775D01*
X63285Y113761D01*
X63234Y113744D01*
X63183Y113723D01*
X63135Y113699D01*
X63088Y113671D01*
X63043Y113640D01*
X63001Y113606D01*
X62961Y113569D01*
X62924Y113529D01*
X62890Y113487D01*
X62859Y113442D01*
X62831Y113395D01*
X62807Y113347D01*
X62786Y113296D01*
X62769Y113245D01*
X62755Y113192D01*
X62746Y113138D01*
X62740Y113084D01*
X62738Y113030D01*
X62740Y112976D01*
X62746Y112922D01*
X62755Y112868D01*
X62769Y112815D01*
X62786Y112764D01*
X62807Y112713D01*
X62831Y112665D01*
X62859Y112618D01*
X62890Y112573D01*
X62924Y112531D01*
X62961Y112491D01*
X63001Y112454D01*
X63043Y112420D01*
X63088Y112389D01*
X63135Y112361D01*
X63183Y112337D01*
X63234Y112316D01*
X63285Y112299D01*
X63338Y112285D01*
X63392Y112276D01*
X63446Y112270D01*
X63500Y112268D01*
D15*
X74048Y391858D02*
X72048Y392858D01*
X74048Y391858D02*
X74048Y393858D01*
X72048Y392858D01*
D11*
X71798Y395558D02*
X71798Y380158D01*
X61298Y380158D01*
X61298Y395558D01*
X71798Y395558D01*
D13*
X0Y19050D02*
X73Y17390D01*
X289Y15742D01*
X649Y14120D01*
X1149Y12535D01*
X1785Y10999D01*
X2552Y9525D01*
X3445Y8123D01*
X4457Y6805D01*
X5580Y5580D01*
X6805Y4457D01*
X8123Y3445D01*
X9525Y2552D01*
X10999Y1785D01*
X12535Y1149D01*
X14120Y649D01*
X15742Y289D01*
X17390Y73D01*
X19050Y0D01*
X361950Y0D01*
X363610Y73D01*
X365258Y289D01*
X366881Y649D01*
X368465Y1149D01*
X370001Y1785D01*
X371475Y2552D01*
X372877Y3445D01*
X374195Y4457D01*
X375420Y5580D01*
X376543Y6805D01*
X377555Y8123D01*
X378448Y9525D01*
X379215Y10999D01*
X379851Y12535D01*
X380351Y14120D01*
X380711Y15742D01*
X380928Y17390D01*
X381000Y19050D01*
X381000Y444500D01*
X381192Y446449D01*
X381214Y448408D01*
X381064Y450360D01*
X380746Y452293D01*
X380260Y454190D01*
X379610Y456038D01*
X378802Y457822D01*
X377841Y459529D01*
X376736Y461145D01*
X375493Y462660D01*
X374124Y464060D01*
X372637Y465335D01*
X371045Y466476D01*
X369360Y467474D01*
X367594Y468321D01*
X365761Y469011D01*
X363875Y469539D01*
X361950Y469900D01*
X25400Y469900D01*
X23186Y469803D01*
X20989Y469514D01*
X18826Y469035D01*
X16713Y468368D01*
X14666Y467520D01*
X12700Y466497D01*
X10831Y465306D01*
X9073Y463958D01*
X7440Y462461D01*
X5942Y460827D01*
X4594Y459069D01*
X3403Y457200D01*
X2380Y455235D01*
X1532Y453187D01*
X865Y451074D01*
X386Y448911D01*
X97Y446714D01*
X0Y444500D01*
X0Y19050D01*
M02*
