G04 EAGLE Gerber RS-274X export*
G75*
%MOMM*%
%FSLAX34Y34*%
%LPD*%
%INCopper Layer 15*%
%IPPOS*%
%AMOC8*
5,1,8,0,0,1.08239X$1,22.5*%
G01*
%ADD10C,0.403200*%
%ADD11C,0.355600*%
%ADD12C,0.101600*%
%ADD13C,0.127000*%
%ADD14C,0.304800*%
%ADD15C,0.254000*%

G36*
X57538Y2556D02*
X57538Y2556D01*
X57657Y2563D01*
X57695Y2576D01*
X57736Y2581D01*
X57846Y2624D01*
X57959Y2661D01*
X57994Y2683D01*
X58031Y2698D01*
X58127Y2767D01*
X58228Y2831D01*
X58256Y2861D01*
X58289Y2884D01*
X58365Y2976D01*
X58446Y3063D01*
X58466Y3098D01*
X58491Y3129D01*
X58542Y3237D01*
X58600Y3341D01*
X58610Y3381D01*
X58627Y3417D01*
X58649Y3534D01*
X58679Y3649D01*
X58683Y3709D01*
X58687Y3729D01*
X58685Y3750D01*
X58689Y3810D01*
X58689Y4997D01*
X58677Y5095D01*
X58674Y5194D01*
X58657Y5253D01*
X58649Y5313D01*
X58613Y5405D01*
X58585Y5500D01*
X58555Y5552D01*
X58532Y5608D01*
X58474Y5688D01*
X58424Y5774D01*
X58358Y5849D01*
X58346Y5866D01*
X58336Y5873D01*
X58318Y5895D01*
X55498Y8714D01*
X55498Y89584D01*
X85833Y119919D01*
X85906Y120013D01*
X85985Y120102D01*
X86003Y120138D01*
X86028Y120170D01*
X86075Y120280D01*
X86129Y120386D01*
X86138Y120425D01*
X86154Y120462D01*
X86173Y120580D01*
X86199Y120696D01*
X86198Y120736D01*
X86204Y120776D01*
X86193Y120895D01*
X86189Y121014D01*
X86178Y121053D01*
X86174Y121093D01*
X86134Y121205D01*
X86101Y121319D01*
X86081Y121354D01*
X86067Y121392D01*
X86000Y121491D01*
X85939Y121593D01*
X85900Y121638D01*
X85888Y121655D01*
X85873Y121669D01*
X85833Y121714D01*
X84343Y123204D01*
X84343Y125716D01*
X85353Y126725D01*
X85413Y126804D01*
X85481Y126876D01*
X85510Y126929D01*
X85547Y126977D01*
X85587Y127068D01*
X85635Y127154D01*
X85650Y127213D01*
X85674Y127269D01*
X85689Y127367D01*
X85714Y127462D01*
X85720Y127562D01*
X85724Y127583D01*
X85722Y127595D01*
X85724Y127623D01*
X85724Y146094D01*
X85707Y146231D01*
X85694Y146370D01*
X85687Y146389D01*
X85684Y146409D01*
X85633Y146538D01*
X85586Y146669D01*
X85575Y146686D01*
X85567Y146705D01*
X85486Y146818D01*
X85408Y146933D01*
X85392Y146946D01*
X85381Y146962D01*
X85273Y147051D01*
X85169Y147143D01*
X85151Y147152D01*
X85136Y147165D01*
X85010Y147224D01*
X84886Y147288D01*
X84866Y147292D01*
X84848Y147301D01*
X84712Y147327D01*
X84576Y147357D01*
X84555Y147357D01*
X84536Y147361D01*
X84397Y147352D01*
X84258Y147348D01*
X84238Y147342D01*
X84218Y147341D01*
X84086Y147298D01*
X83952Y147259D01*
X83935Y147249D01*
X83916Y147243D01*
X83798Y147168D01*
X83678Y147098D01*
X83657Y147079D01*
X83647Y147073D01*
X83633Y147058D01*
X83558Y146991D01*
X80302Y143735D01*
X75003Y141541D01*
X69269Y141541D01*
X64205Y143638D01*
X64137Y143657D01*
X64073Y143684D01*
X63985Y143699D01*
X63898Y143722D01*
X63828Y143723D01*
X63759Y143734D01*
X63670Y143726D01*
X63580Y143727D01*
X63512Y143711D01*
X63443Y143704D01*
X63358Y143674D01*
X63271Y143653D01*
X63209Y143620D01*
X63143Y143597D01*
X63069Y143546D01*
X62990Y143504D01*
X62938Y143457D01*
X62880Y143418D01*
X62821Y143351D01*
X62754Y143290D01*
X62716Y143232D01*
X62670Y143180D01*
X62629Y143100D01*
X62580Y143025D01*
X62557Y142959D01*
X62525Y142897D01*
X62505Y142809D01*
X62476Y142724D01*
X62471Y142654D01*
X62456Y142586D01*
X62458Y142497D01*
X62451Y142407D01*
X62463Y142338D01*
X62465Y142268D01*
X62490Y142182D01*
X62506Y142094D01*
X62534Y142030D01*
X62554Y141963D01*
X62599Y141885D01*
X62636Y141804D01*
X62680Y141749D01*
X62715Y141689D01*
X62822Y141568D01*
X63239Y141151D01*
X64380Y138397D01*
X64380Y135415D01*
X63239Y132661D01*
X61131Y130553D01*
X58377Y129412D01*
X55395Y129412D01*
X52641Y130553D01*
X50533Y132661D01*
X49392Y135415D01*
X49392Y138397D01*
X50533Y141151D01*
X52641Y143259D01*
X55395Y144400D01*
X58377Y144400D01*
X60897Y143356D01*
X60964Y143338D01*
X61028Y143310D01*
X61117Y143296D01*
X61203Y143272D01*
X61273Y143271D01*
X61342Y143260D01*
X61432Y143268D01*
X61521Y143267D01*
X61589Y143283D01*
X61659Y143290D01*
X61743Y143320D01*
X61831Y143341D01*
X61892Y143374D01*
X61958Y143397D01*
X62032Y143448D01*
X62112Y143490D01*
X62163Y143537D01*
X62221Y143576D01*
X62280Y143643D01*
X62347Y143704D01*
X62385Y143762D01*
X62432Y143814D01*
X62472Y143894D01*
X62522Y143969D01*
X62544Y144036D01*
X62576Y144098D01*
X62596Y144185D01*
X62625Y144270D01*
X62630Y144340D01*
X62646Y144408D01*
X62643Y144498D01*
X62650Y144587D01*
X62638Y144656D01*
X62636Y144726D01*
X62611Y144812D01*
X62596Y144901D01*
X62567Y144964D01*
X62548Y145031D01*
X62502Y145109D01*
X62465Y145191D01*
X62422Y145245D01*
X62386Y145305D01*
X62280Y145426D01*
X59915Y147790D01*
X57721Y153089D01*
X57721Y158823D01*
X59915Y164122D01*
X63970Y168177D01*
X69269Y170371D01*
X75003Y170371D01*
X80302Y168177D01*
X83558Y164921D01*
X83667Y164835D01*
X83774Y164747D01*
X83793Y164738D01*
X83809Y164726D01*
X83937Y164670D01*
X84062Y164611D01*
X84082Y164607D01*
X84101Y164599D01*
X84239Y164577D01*
X84375Y164551D01*
X84395Y164553D01*
X84415Y164550D01*
X84554Y164563D01*
X84692Y164571D01*
X84711Y164577D01*
X84731Y164579D01*
X84863Y164627D01*
X84994Y164669D01*
X85012Y164680D01*
X85031Y164687D01*
X85146Y164765D01*
X85263Y164839D01*
X85277Y164854D01*
X85294Y164866D01*
X85386Y164970D01*
X85481Y165071D01*
X85491Y165089D01*
X85504Y165104D01*
X85568Y165228D01*
X85635Y165350D01*
X85640Y165369D01*
X85649Y165387D01*
X85679Y165523D01*
X85714Y165657D01*
X85716Y165686D01*
X85719Y165698D01*
X85718Y165718D01*
X85724Y165818D01*
X85724Y177844D01*
X85707Y177981D01*
X85694Y178120D01*
X85687Y178139D01*
X85684Y178159D01*
X85633Y178288D01*
X85586Y178419D01*
X85575Y178436D01*
X85567Y178455D01*
X85486Y178568D01*
X85408Y178683D01*
X85392Y178696D01*
X85381Y178712D01*
X85273Y178801D01*
X85169Y178893D01*
X85151Y178902D01*
X85136Y178915D01*
X85010Y178974D01*
X84886Y179038D01*
X84866Y179042D01*
X84848Y179051D01*
X84712Y179077D01*
X84576Y179107D01*
X84555Y179107D01*
X84536Y179111D01*
X84397Y179102D01*
X84258Y179098D01*
X84238Y179092D01*
X84218Y179091D01*
X84086Y179048D01*
X83952Y179009D01*
X83935Y178999D01*
X83916Y178993D01*
X83798Y178918D01*
X83678Y178848D01*
X83657Y178829D01*
X83647Y178823D01*
X83633Y178808D01*
X83558Y178741D01*
X80302Y175485D01*
X75003Y173291D01*
X69269Y173291D01*
X63970Y175485D01*
X59915Y179540D01*
X57721Y184839D01*
X57721Y190573D01*
X59915Y195872D01*
X63970Y199927D01*
X69269Y202121D01*
X75003Y202121D01*
X80302Y199927D01*
X83558Y196671D01*
X83667Y196585D01*
X83774Y196497D01*
X83793Y196488D01*
X83809Y196476D01*
X83937Y196420D01*
X84062Y196361D01*
X84082Y196357D01*
X84101Y196349D01*
X84239Y196327D01*
X84375Y196301D01*
X84395Y196303D01*
X84415Y196300D01*
X84554Y196313D01*
X84692Y196321D01*
X84711Y196327D01*
X84731Y196329D01*
X84863Y196377D01*
X84994Y196419D01*
X85012Y196430D01*
X85031Y196437D01*
X85146Y196515D01*
X85263Y196589D01*
X85277Y196604D01*
X85294Y196616D01*
X85386Y196720D01*
X85481Y196821D01*
X85491Y196839D01*
X85504Y196854D01*
X85568Y196978D01*
X85635Y197100D01*
X85640Y197119D01*
X85649Y197137D01*
X85679Y197273D01*
X85714Y197407D01*
X85716Y197436D01*
X85719Y197448D01*
X85718Y197468D01*
X85724Y197568D01*
X85724Y251520D01*
X85712Y251618D01*
X85709Y251717D01*
X85692Y251776D01*
X85684Y251836D01*
X85648Y251928D01*
X85620Y252023D01*
X85590Y252075D01*
X85567Y252131D01*
X85509Y252211D01*
X85459Y252297D01*
X85393Y252372D01*
X85381Y252389D01*
X85371Y252396D01*
X85353Y252418D01*
X49148Y288622D01*
X49148Y302145D01*
X49131Y302283D01*
X49118Y302421D01*
X49111Y302440D01*
X49108Y302461D01*
X49057Y302590D01*
X49010Y302721D01*
X48999Y302738D01*
X48991Y302756D01*
X48910Y302869D01*
X48832Y302984D01*
X48816Y302997D01*
X48805Y303014D01*
X48697Y303102D01*
X48593Y303194D01*
X48575Y303204D01*
X48560Y303216D01*
X48434Y303276D01*
X48310Y303339D01*
X48290Y303343D01*
X48272Y303352D01*
X48135Y303378D01*
X48000Y303409D01*
X47979Y303408D01*
X47960Y303412D01*
X47821Y303403D01*
X47682Y303399D01*
X47662Y303393D01*
X47642Y303392D01*
X47510Y303349D01*
X47376Y303311D01*
X47359Y303300D01*
X47340Y303294D01*
X47222Y303220D01*
X47102Y303149D01*
X47081Y303130D01*
X47071Y303124D01*
X47057Y303109D01*
X46982Y303043D01*
X45706Y301767D01*
X43194Y301767D01*
X41417Y303544D01*
X41417Y306056D01*
X41537Y306176D01*
X41598Y306255D01*
X41666Y306327D01*
X41695Y306380D01*
X41732Y306428D01*
X41772Y306519D01*
X41820Y306605D01*
X41835Y306664D01*
X41859Y306720D01*
X41874Y306818D01*
X41899Y306913D01*
X41905Y307013D01*
X41909Y307034D01*
X41907Y307046D01*
X41909Y307074D01*
X41909Y366026D01*
X41897Y366124D01*
X41894Y366223D01*
X41877Y366281D01*
X41869Y366342D01*
X41833Y366434D01*
X41805Y366529D01*
X41775Y366581D01*
X41752Y366637D01*
X41694Y366717D01*
X41644Y366803D01*
X41578Y366878D01*
X41566Y366895D01*
X41556Y366902D01*
X41538Y366924D01*
X41417Y367044D01*
X41417Y369556D01*
X41538Y369676D01*
X41598Y369755D01*
X41666Y369827D01*
X41695Y369880D01*
X41732Y369928D01*
X41772Y370019D01*
X41820Y370105D01*
X41835Y370164D01*
X41859Y370220D01*
X41874Y370318D01*
X41899Y370413D01*
X41905Y370513D01*
X41909Y370534D01*
X41907Y370546D01*
X41909Y370574D01*
X41909Y381729D01*
X41969Y381796D01*
X41987Y381832D01*
X42012Y381864D01*
X42059Y381974D01*
X42113Y382080D01*
X42122Y382119D01*
X42138Y382156D01*
X42157Y382274D01*
X42183Y382390D01*
X42182Y382430D01*
X42188Y382470D01*
X42177Y382588D01*
X42173Y382708D01*
X42162Y382747D01*
X42158Y382787D01*
X42118Y382899D01*
X42085Y383013D01*
X42065Y383048D01*
X42051Y383086D01*
X41984Y383185D01*
X41923Y383287D01*
X41884Y383332D01*
X41872Y383349D01*
X41857Y383363D01*
X41817Y383408D01*
X40401Y384824D01*
X40401Y387336D01*
X42178Y389113D01*
X44690Y389113D01*
X45932Y387871D01*
X46026Y387798D01*
X46116Y387719D01*
X46152Y387700D01*
X46184Y387676D01*
X46293Y387628D01*
X46399Y387574D01*
X46438Y387565D01*
X46476Y387549D01*
X46593Y387531D01*
X46709Y387505D01*
X46750Y387506D01*
X46790Y387499D01*
X46908Y387511D01*
X47027Y387514D01*
X47066Y387525D01*
X47106Y387529D01*
X47218Y387570D01*
X47333Y387603D01*
X47367Y387623D01*
X47406Y387637D01*
X47504Y387704D01*
X47607Y387764D01*
X47652Y387804D01*
X47669Y387815D01*
X47682Y387831D01*
X47727Y387871D01*
X73288Y413431D01*
X73348Y413509D01*
X73416Y413581D01*
X73445Y413634D01*
X73482Y413682D01*
X73522Y413773D01*
X73570Y413860D01*
X73585Y413918D01*
X73609Y413974D01*
X73624Y414072D01*
X73649Y414167D01*
X73655Y414268D01*
X73659Y414288D01*
X73657Y414300D01*
X73659Y414328D01*
X73659Y416826D01*
X73647Y416924D01*
X73644Y417023D01*
X73627Y417081D01*
X73619Y417142D01*
X73583Y417234D01*
X73555Y417329D01*
X73525Y417381D01*
X73502Y417437D01*
X73444Y417517D01*
X73394Y417603D01*
X73328Y417678D01*
X73316Y417695D01*
X73306Y417702D01*
X73288Y417724D01*
X73167Y417844D01*
X73167Y420356D01*
X74944Y422133D01*
X77456Y422133D01*
X79233Y420356D01*
X79233Y417844D01*
X79112Y417724D01*
X79052Y417645D01*
X78984Y417573D01*
X78955Y417520D01*
X78918Y417472D01*
X78878Y417381D01*
X78830Y417295D01*
X78815Y417236D01*
X78791Y417180D01*
X78776Y417082D01*
X78751Y416987D01*
X78745Y416887D01*
X78741Y416866D01*
X78743Y416854D01*
X78741Y416826D01*
X78741Y415004D01*
X78756Y414886D01*
X78763Y414767D01*
X78776Y414729D01*
X78781Y414688D01*
X78824Y414578D01*
X78861Y414465D01*
X78883Y414430D01*
X78898Y414393D01*
X78967Y414297D01*
X79031Y414196D01*
X79061Y414168D01*
X79084Y414135D01*
X79176Y414059D01*
X79263Y413978D01*
X79298Y413958D01*
X79329Y413933D01*
X79437Y413882D01*
X79541Y413824D01*
X79581Y413814D01*
X79617Y413797D01*
X79734Y413775D01*
X79849Y413745D01*
X79909Y413741D01*
X79929Y413737D01*
X79950Y413739D01*
X80010Y413735D01*
X81851Y413735D01*
X83628Y411958D01*
X83628Y409446D01*
X81851Y407669D01*
X80331Y407669D01*
X80233Y407657D01*
X80134Y407654D01*
X80075Y407637D01*
X80015Y407629D01*
X79923Y407593D01*
X79828Y407565D01*
X79776Y407535D01*
X79720Y407512D01*
X79640Y407454D01*
X79554Y407404D01*
X79479Y407338D01*
X79462Y407326D01*
X79455Y407316D01*
X79433Y407298D01*
X52823Y380688D01*
X52763Y380609D01*
X52695Y380537D01*
X52666Y380484D01*
X52629Y380436D01*
X52589Y380345D01*
X52541Y380259D01*
X52526Y380200D01*
X52502Y380144D01*
X52487Y380046D01*
X52462Y379951D01*
X52456Y379851D01*
X52452Y379830D01*
X52454Y379818D01*
X52452Y379790D01*
X52452Y358255D01*
X52469Y358117D01*
X52482Y357979D01*
X52489Y357960D01*
X52492Y357939D01*
X52543Y357810D01*
X52590Y357679D01*
X52601Y357662D01*
X52609Y357644D01*
X52690Y357531D01*
X52768Y357416D01*
X52784Y357403D01*
X52795Y357386D01*
X52903Y357298D01*
X53007Y357206D01*
X53025Y357196D01*
X53040Y357184D01*
X53166Y357124D01*
X53290Y357061D01*
X53310Y357057D01*
X53328Y357048D01*
X53465Y357022D01*
X53600Y356991D01*
X53621Y356992D01*
X53640Y356988D01*
X53779Y356997D01*
X53918Y357001D01*
X53938Y357007D01*
X53958Y357008D01*
X54090Y357051D01*
X54224Y357089D01*
X54241Y357100D01*
X54260Y357106D01*
X54378Y357180D01*
X54498Y357251D01*
X54519Y357270D01*
X54529Y357276D01*
X54543Y357291D01*
X54618Y357357D01*
X55894Y358633D01*
X58406Y358633D01*
X60183Y356856D01*
X60183Y354344D01*
X58406Y352567D01*
X55894Y352567D01*
X54618Y353843D01*
X54509Y353928D01*
X54402Y354016D01*
X54383Y354025D01*
X54367Y354038D01*
X54239Y354093D01*
X54114Y354152D01*
X54094Y354156D01*
X54075Y354164D01*
X53937Y354186D01*
X53801Y354212D01*
X53781Y354211D01*
X53761Y354214D01*
X53622Y354201D01*
X53484Y354192D01*
X53465Y354186D01*
X53445Y354184D01*
X53313Y354137D01*
X53182Y354094D01*
X53164Y354083D01*
X53145Y354076D01*
X53030Y353998D01*
X52913Y353924D01*
X52899Y353909D01*
X52882Y353898D01*
X52790Y353793D01*
X52695Y353692D01*
X52685Y353675D01*
X52672Y353659D01*
X52608Y353535D01*
X52541Y353414D01*
X52536Y353394D01*
X52527Y353376D01*
X52497Y353240D01*
X52462Y353106D01*
X52460Y353078D01*
X52457Y353066D01*
X52458Y353045D01*
X52452Y352945D01*
X52452Y340852D01*
X52467Y340734D01*
X52474Y340615D01*
X52487Y340577D01*
X52492Y340536D01*
X52535Y340426D01*
X52572Y340313D01*
X52594Y340278D01*
X52609Y340241D01*
X52678Y340145D01*
X52742Y340044D01*
X52772Y340016D01*
X52795Y339983D01*
X52887Y339907D01*
X52974Y339826D01*
X53009Y339806D01*
X53040Y339781D01*
X53148Y339730D01*
X53252Y339672D01*
X53292Y339662D01*
X53328Y339645D01*
X53445Y339623D01*
X53560Y339593D01*
X53620Y339589D01*
X53640Y339585D01*
X53661Y339587D01*
X53721Y339583D01*
X55866Y339583D01*
X57643Y337806D01*
X57643Y335294D01*
X55866Y333517D01*
X53721Y333517D01*
X53603Y333502D01*
X53484Y333495D01*
X53446Y333482D01*
X53405Y333477D01*
X53295Y333434D01*
X53182Y333397D01*
X53147Y333375D01*
X53110Y333360D01*
X53014Y333291D01*
X52913Y333227D01*
X52885Y333197D01*
X52852Y333174D01*
X52776Y333082D01*
X52695Y332995D01*
X52675Y332960D01*
X52650Y332929D01*
X52599Y332821D01*
X52541Y332717D01*
X52531Y332677D01*
X52514Y332641D01*
X52492Y332524D01*
X52462Y332409D01*
X52458Y332349D01*
X52454Y332329D01*
X52456Y332308D01*
X52452Y332248D01*
X52452Y290516D01*
X52464Y290418D01*
X52467Y290319D01*
X52484Y290260D01*
X52492Y290200D01*
X52528Y290108D01*
X52556Y290013D01*
X52586Y289961D01*
X52609Y289905D01*
X52667Y289825D01*
X52717Y289739D01*
X52783Y289664D01*
X52795Y289647D01*
X52805Y289640D01*
X52823Y289618D01*
X85844Y256598D01*
X85953Y256513D01*
X86060Y256424D01*
X86079Y256416D01*
X86095Y256403D01*
X86223Y256348D01*
X86348Y256289D01*
X86368Y256285D01*
X86387Y256277D01*
X86525Y256255D01*
X86661Y256229D01*
X86681Y256230D01*
X86701Y256227D01*
X86840Y256240D01*
X86978Y256249D01*
X86997Y256255D01*
X87017Y256257D01*
X87149Y256304D01*
X87280Y256347D01*
X87298Y256358D01*
X87317Y256365D01*
X87432Y256443D01*
X87549Y256517D01*
X87563Y256532D01*
X87580Y256543D01*
X87672Y256647D01*
X87767Y256749D01*
X87777Y256766D01*
X87790Y256782D01*
X87854Y256906D01*
X87921Y257027D01*
X87926Y257047D01*
X87935Y257065D01*
X87965Y257201D01*
X88000Y257335D01*
X88002Y257363D01*
X88005Y257375D01*
X88004Y257396D01*
X88010Y257496D01*
X88010Y269240D01*
X87995Y269358D01*
X87988Y269477D01*
X87975Y269515D01*
X87970Y269556D01*
X87927Y269666D01*
X87890Y269779D01*
X87868Y269814D01*
X87853Y269851D01*
X87784Y269947D01*
X87720Y270048D01*
X87690Y270076D01*
X87667Y270109D01*
X87575Y270185D01*
X87488Y270266D01*
X87453Y270286D01*
X87422Y270311D01*
X87314Y270362D01*
X87210Y270420D01*
X87170Y270430D01*
X87134Y270447D01*
X87017Y270469D01*
X86902Y270499D01*
X86842Y270503D01*
X86822Y270507D01*
X86801Y270505D01*
X86741Y270509D01*
X84948Y270509D01*
X83311Y272146D01*
X83311Y274462D01*
X84948Y276099D01*
X86741Y276099D01*
X86859Y276114D01*
X86978Y276121D01*
X87016Y276134D01*
X87057Y276139D01*
X87167Y276182D01*
X87280Y276219D01*
X87315Y276241D01*
X87352Y276256D01*
X87448Y276325D01*
X87549Y276389D01*
X87577Y276419D01*
X87610Y276442D01*
X87686Y276534D01*
X87767Y276621D01*
X87787Y276656D01*
X87812Y276687D01*
X87863Y276795D01*
X87921Y276899D01*
X87931Y276939D01*
X87948Y276975D01*
X87970Y277092D01*
X88000Y277207D01*
X88004Y277267D01*
X88008Y277287D01*
X88006Y277308D01*
X88010Y277368D01*
X88010Y351098D01*
X88766Y351853D01*
X88826Y351932D01*
X88894Y352004D01*
X88923Y352057D01*
X88960Y352105D01*
X89000Y352196D01*
X89048Y352282D01*
X89063Y352341D01*
X89087Y352397D01*
X89102Y352495D01*
X89127Y352590D01*
X89133Y352690D01*
X89137Y352711D01*
X89135Y352723D01*
X89137Y352751D01*
X89137Y377901D01*
X89125Y377999D01*
X89122Y378098D01*
X89105Y378157D01*
X89097Y378217D01*
X89061Y378309D01*
X89033Y378404D01*
X89003Y378456D01*
X88980Y378512D01*
X88922Y378592D01*
X88872Y378678D01*
X88806Y378753D01*
X88794Y378770D01*
X88784Y378777D01*
X88766Y378799D01*
X80898Y386666D01*
X80898Y388229D01*
X80919Y388277D01*
X80934Y388375D01*
X80959Y388470D01*
X80965Y388570D01*
X80969Y388591D01*
X80967Y388603D01*
X80969Y388631D01*
X80969Y389588D01*
X82746Y391365D01*
X85258Y391365D01*
X87035Y389588D01*
X87035Y387076D01*
X86995Y387036D01*
X86922Y386942D01*
X86843Y386853D01*
X86825Y386817D01*
X86800Y386785D01*
X86753Y386676D01*
X86699Y386569D01*
X86690Y386530D01*
X86674Y386493D01*
X86655Y386375D01*
X86629Y386259D01*
X86630Y386219D01*
X86624Y386179D01*
X86635Y386060D01*
X86639Y385941D01*
X86650Y385902D01*
X86654Y385862D01*
X86694Y385750D01*
X86727Y385636D01*
X86747Y385601D01*
X86761Y385563D01*
X86828Y385464D01*
X86888Y385362D01*
X86928Y385317D01*
X86940Y385300D01*
X86955Y385286D01*
X86995Y385241D01*
X92083Y380153D01*
X92192Y380068D01*
X92299Y379979D01*
X92318Y379971D01*
X92334Y379958D01*
X92462Y379903D01*
X92587Y379844D01*
X92607Y379840D01*
X92626Y379832D01*
X92764Y379810D01*
X92900Y379784D01*
X92920Y379785D01*
X92940Y379782D01*
X93079Y379795D01*
X93217Y379804D01*
X93236Y379810D01*
X93256Y379812D01*
X93388Y379859D01*
X93519Y379902D01*
X93537Y379913D01*
X93556Y379920D01*
X93671Y379998D01*
X93788Y380072D01*
X93802Y380087D01*
X93819Y380098D01*
X93911Y380202D01*
X94006Y380304D01*
X94016Y380321D01*
X94029Y380337D01*
X94093Y380461D01*
X94160Y380582D01*
X94165Y380602D01*
X94174Y380620D01*
X94204Y380756D01*
X94239Y380890D01*
X94241Y380918D01*
X94244Y380930D01*
X94243Y380951D01*
X94249Y381051D01*
X94249Y381240D01*
X96026Y383017D01*
X96040Y383017D01*
X96178Y383034D01*
X96316Y383047D01*
X96336Y383054D01*
X96356Y383057D01*
X96485Y383108D01*
X96616Y383155D01*
X96633Y383166D01*
X96651Y383174D01*
X96764Y383255D01*
X96879Y383333D01*
X96892Y383349D01*
X96909Y383360D01*
X96997Y383468D01*
X97089Y383572D01*
X97099Y383590D01*
X97111Y383605D01*
X97171Y383731D01*
X97234Y383855D01*
X97238Y383875D01*
X97247Y383893D01*
X97273Y384029D01*
X97304Y384165D01*
X97303Y384186D01*
X97307Y384205D01*
X97298Y384344D01*
X97294Y384483D01*
X97288Y384503D01*
X97287Y384523D01*
X97244Y384655D01*
X97206Y384789D01*
X97195Y384806D01*
X97189Y384825D01*
X97114Y384943D01*
X97044Y385063D01*
X97025Y385084D01*
X97019Y385094D01*
X97004Y385108D01*
X96938Y385183D01*
X95011Y387110D01*
X95011Y389622D01*
X96788Y391399D01*
X99300Y391399D01*
X101077Y389622D01*
X101077Y388195D01*
X101089Y388097D01*
X101092Y387998D01*
X101109Y387939D01*
X101117Y387879D01*
X101153Y387787D01*
X101181Y387692D01*
X101211Y387640D01*
X101234Y387584D01*
X101292Y387504D01*
X101342Y387418D01*
X101408Y387343D01*
X101420Y387326D01*
X101430Y387319D01*
X101448Y387297D01*
X102601Y386145D01*
X102601Y357207D01*
X93971Y348578D01*
X93911Y348499D01*
X93843Y348427D01*
X93814Y348374D01*
X93777Y348326D01*
X93737Y348235D01*
X93689Y348149D01*
X93674Y348090D01*
X93650Y348035D01*
X93635Y347937D01*
X93610Y347841D01*
X93604Y347741D01*
X93600Y347720D01*
X93602Y347708D01*
X93600Y347680D01*
X93600Y219248D01*
X93612Y219150D01*
X93615Y219051D01*
X93632Y218992D01*
X93640Y218932D01*
X93676Y218840D01*
X93704Y218745D01*
X93734Y218693D01*
X93757Y218637D01*
X93815Y218557D01*
X93865Y218471D01*
X93931Y218396D01*
X93943Y218379D01*
X93953Y218372D01*
X93971Y218350D01*
X100746Y211576D01*
X100807Y211492D01*
X100885Y211377D01*
X100901Y211363D01*
X100912Y211347D01*
X101020Y211258D01*
X101124Y211166D01*
X101142Y211157D01*
X101157Y211144D01*
X101283Y211085D01*
X101407Y211021D01*
X101427Y211017D01*
X101445Y211008D01*
X101581Y210982D01*
X101717Y210952D01*
X101738Y210952D01*
X101757Y210949D01*
X101896Y210957D01*
X102035Y210961D01*
X102055Y210967D01*
X102075Y210968D01*
X102207Y211011D01*
X102341Y211050D01*
X102358Y211060D01*
X102377Y211066D01*
X102495Y211141D01*
X102615Y211211D01*
X102636Y211230D01*
X102646Y211237D01*
X102660Y211251D01*
X102735Y211318D01*
X121651Y230233D01*
X121724Y230328D01*
X121803Y230417D01*
X121821Y230453D01*
X121846Y230485D01*
X121894Y230594D01*
X121948Y230700D01*
X121956Y230739D01*
X121972Y230777D01*
X121991Y230894D01*
X122017Y231010D01*
X122016Y231051D01*
X122022Y231091D01*
X122011Y231209D01*
X122008Y231328D01*
X121996Y231367D01*
X121993Y231407D01*
X121952Y231519D01*
X121919Y231634D01*
X121899Y231669D01*
X121885Y231707D01*
X121818Y231805D01*
X121758Y231908D01*
X121718Y231953D01*
X121706Y231970D01*
X121691Y231983D01*
X121651Y232028D01*
X120395Y233284D01*
X120395Y235600D01*
X122032Y237237D01*
X124348Y237237D01*
X125604Y235981D01*
X125698Y235908D01*
X125787Y235829D01*
X125823Y235811D01*
X125855Y235786D01*
X125964Y235738D01*
X126070Y235684D01*
X126109Y235676D01*
X126147Y235660D01*
X126264Y235641D01*
X126380Y235615D01*
X126421Y235616D01*
X126461Y235610D01*
X126579Y235621D01*
X126698Y235624D01*
X126737Y235636D01*
X126777Y235639D01*
X126889Y235680D01*
X127004Y235713D01*
X127039Y235733D01*
X127077Y235747D01*
X127175Y235814D01*
X127278Y235874D01*
X127323Y235914D01*
X127340Y235926D01*
X127353Y235941D01*
X127399Y235981D01*
X129676Y238258D01*
X129736Y238336D01*
X129804Y238408D01*
X129833Y238461D01*
X129870Y238509D01*
X129910Y238600D01*
X129958Y238687D01*
X129973Y238745D01*
X129997Y238801D01*
X130012Y238899D01*
X130037Y238995D01*
X130043Y239095D01*
X130047Y239115D01*
X130045Y239127D01*
X130047Y239155D01*
X130047Y241442D01*
X131684Y243079D01*
X134000Y243079D01*
X135256Y241823D01*
X135350Y241750D01*
X135439Y241671D01*
X135475Y241653D01*
X135507Y241628D01*
X135616Y241581D01*
X135722Y241526D01*
X135761Y241518D01*
X135799Y241502D01*
X135916Y241483D01*
X136032Y241457D01*
X136073Y241458D01*
X136113Y241452D01*
X136231Y241463D01*
X136350Y241466D01*
X136389Y241478D01*
X136429Y241481D01*
X136542Y241522D01*
X136656Y241555D01*
X136691Y241575D01*
X136729Y241589D01*
X136827Y241656D01*
X136930Y241716D01*
X136975Y241756D01*
X136992Y241768D01*
X137005Y241783D01*
X137051Y241823D01*
X165744Y270516D01*
X165804Y270594D01*
X165872Y270666D01*
X165901Y270719D01*
X165938Y270767D01*
X165978Y270858D01*
X166026Y270945D01*
X166041Y271003D01*
X166065Y271059D01*
X166080Y271157D01*
X166105Y271253D01*
X166111Y271353D01*
X166115Y271373D01*
X166113Y271385D01*
X166115Y271413D01*
X166115Y396110D01*
X183270Y413264D01*
X183330Y413342D01*
X183398Y413414D01*
X183427Y413467D01*
X183464Y413515D01*
X183504Y413606D01*
X183552Y413693D01*
X183567Y413751D01*
X183591Y413807D01*
X183606Y413905D01*
X183631Y414001D01*
X183637Y414101D01*
X183641Y414121D01*
X183639Y414133D01*
X183641Y414161D01*
X183641Y414877D01*
X183629Y414975D01*
X183626Y415074D01*
X183609Y415132D01*
X183601Y415192D01*
X183565Y415284D01*
X183537Y415379D01*
X183507Y415432D01*
X183484Y415488D01*
X183426Y415568D01*
X183376Y415653D01*
X183310Y415729D01*
X183298Y415745D01*
X183288Y415753D01*
X183270Y415774D01*
X182371Y416672D01*
X182371Y419100D01*
X182356Y419218D01*
X182349Y419337D01*
X182336Y419375D01*
X182331Y419416D01*
X182288Y419526D01*
X182251Y419639D01*
X182229Y419674D01*
X182214Y419711D01*
X182145Y419807D01*
X182081Y419908D01*
X182051Y419936D01*
X182028Y419969D01*
X181936Y420045D01*
X181849Y420126D01*
X181814Y420146D01*
X181783Y420171D01*
X181675Y420222D01*
X181571Y420280D01*
X181531Y420290D01*
X181495Y420307D01*
X181378Y420329D01*
X181263Y420359D01*
X181203Y420363D01*
X181183Y420367D01*
X181162Y420365D01*
X181102Y420369D01*
X178674Y420369D01*
X177037Y422006D01*
X177037Y424322D01*
X178674Y425959D01*
X180990Y425959D01*
X181348Y425601D01*
X181442Y425528D01*
X181531Y425449D01*
X181567Y425431D01*
X181599Y425406D01*
X181708Y425359D01*
X181814Y425304D01*
X181853Y425296D01*
X181891Y425280D01*
X182008Y425261D01*
X182124Y425235D01*
X182165Y425236D01*
X182205Y425230D01*
X182323Y425241D01*
X182442Y425244D01*
X182481Y425256D01*
X182521Y425260D01*
X182633Y425300D01*
X182748Y425333D01*
X182783Y425353D01*
X182821Y425367D01*
X182919Y425434D01*
X183022Y425494D01*
X183067Y425534D01*
X183084Y425546D01*
X183097Y425561D01*
X183143Y425601D01*
X183754Y426213D01*
X186070Y426213D01*
X187707Y424576D01*
X187707Y422260D01*
X187095Y421649D01*
X187022Y421555D01*
X186943Y421465D01*
X186925Y421429D01*
X186900Y421397D01*
X186853Y421288D01*
X186798Y421182D01*
X186790Y421143D01*
X186774Y421105D01*
X186755Y420988D01*
X186729Y420872D01*
X186730Y420831D01*
X186724Y420791D01*
X186735Y420673D01*
X186738Y420554D01*
X186750Y420515D01*
X186754Y420475D01*
X186794Y420362D01*
X186827Y420248D01*
X186847Y420214D01*
X186861Y420175D01*
X186928Y420077D01*
X186988Y419974D01*
X187028Y419929D01*
X187040Y419912D01*
X187055Y419899D01*
X187095Y419854D01*
X187961Y418988D01*
X187961Y416672D01*
X187062Y415774D01*
X187002Y415696D01*
X186934Y415624D01*
X186905Y415571D01*
X186868Y415523D01*
X186828Y415432D01*
X186780Y415345D01*
X186765Y415287D01*
X186741Y415231D01*
X186726Y415133D01*
X186701Y415037D01*
X186695Y414937D01*
X186691Y414917D01*
X186693Y414905D01*
X186691Y414877D01*
X186691Y412372D01*
X169536Y395218D01*
X169476Y395140D01*
X169408Y395068D01*
X169379Y395015D01*
X169342Y394967D01*
X169302Y394876D01*
X169254Y394789D01*
X169239Y394731D01*
X169215Y394675D01*
X169200Y394577D01*
X169175Y394481D01*
X169169Y394381D01*
X169165Y394361D01*
X169167Y394349D01*
X169165Y394321D01*
X169165Y393605D01*
X169182Y393467D01*
X169195Y393329D01*
X169202Y393310D01*
X169205Y393290D01*
X169256Y393161D01*
X169303Y393029D01*
X169314Y393013D01*
X169322Y392994D01*
X169403Y392882D01*
X169482Y392766D01*
X169497Y392753D01*
X169508Y392737D01*
X169615Y392648D01*
X169720Y392556D01*
X169738Y392547D01*
X169753Y392534D01*
X169879Y392475D01*
X170003Y392411D01*
X170023Y392407D01*
X170041Y392398D01*
X170177Y392372D01*
X170314Y392342D01*
X170334Y392342D01*
X170353Y392339D01*
X170492Y392347D01*
X170631Y392351D01*
X170651Y392357D01*
X170671Y392358D01*
X170803Y392401D01*
X170905Y392431D01*
X173370Y392431D01*
X175007Y390794D01*
X175007Y388478D01*
X173370Y386841D01*
X170895Y386841D01*
X170827Y386874D01*
X170807Y386877D01*
X170789Y386885D01*
X170651Y386907D01*
X170514Y386933D01*
X170494Y386932D01*
X170474Y386935D01*
X170336Y386922D01*
X170197Y386914D01*
X170178Y386907D01*
X170158Y386906D01*
X170027Y386858D01*
X169895Y386816D01*
X169878Y386805D01*
X169859Y386798D01*
X169744Y386720D01*
X169626Y386645D01*
X169612Y386631D01*
X169595Y386619D01*
X169503Y386515D01*
X169408Y386414D01*
X169398Y386396D01*
X169385Y386381D01*
X169322Y386257D01*
X169254Y386135D01*
X169249Y386116D01*
X169240Y386098D01*
X169210Y385962D01*
X169175Y385827D01*
X169173Y385799D01*
X169171Y385788D01*
X169171Y385767D01*
X169165Y385667D01*
X169165Y273717D01*
X169182Y273579D01*
X169195Y273441D01*
X169202Y273422D01*
X169205Y273402D01*
X169256Y273272D01*
X169303Y273142D01*
X169314Y273125D01*
X169322Y273106D01*
X169403Y272994D01*
X169481Y272879D01*
X169497Y272865D01*
X169508Y272849D01*
X169616Y272760D01*
X169720Y272668D01*
X169738Y272659D01*
X169753Y272646D01*
X169879Y272587D01*
X170003Y272523D01*
X170023Y272519D01*
X170041Y272510D01*
X170178Y272484D01*
X170313Y272454D01*
X170334Y272454D01*
X170353Y272451D01*
X170492Y272459D01*
X170631Y272463D01*
X170651Y272469D01*
X170671Y272470D01*
X170803Y272513D01*
X170937Y272552D01*
X170954Y272562D01*
X170973Y272568D01*
X171091Y272643D01*
X171211Y272713D01*
X171232Y272732D01*
X171242Y272739D01*
X171256Y272754D01*
X171331Y272820D01*
X172578Y274067D01*
X174894Y274067D01*
X176531Y272430D01*
X176531Y270114D01*
X174894Y268477D01*
X172578Y268477D01*
X171195Y269860D01*
X171101Y269933D01*
X171012Y270012D01*
X170976Y270030D01*
X170944Y270055D01*
X170835Y270103D01*
X170729Y270157D01*
X170690Y270165D01*
X170652Y270181D01*
X170535Y270200D01*
X170419Y270226D01*
X170378Y270225D01*
X170338Y270231D01*
X170220Y270220D01*
X170101Y270217D01*
X170062Y270205D01*
X170022Y270202D01*
X169910Y270161D01*
X169795Y270128D01*
X169760Y270108D01*
X169722Y270094D01*
X169624Y270027D01*
X169521Y269967D01*
X169476Y269927D01*
X169459Y269915D01*
X169446Y269900D01*
X169400Y269860D01*
X167900Y268360D01*
X135500Y235960D01*
X135440Y235882D01*
X135372Y235810D01*
X135343Y235757D01*
X135306Y235709D01*
X135266Y235618D01*
X135218Y235531D01*
X135203Y235473D01*
X135179Y235417D01*
X135164Y235319D01*
X135139Y235223D01*
X135133Y235123D01*
X135129Y235103D01*
X135131Y235091D01*
X135129Y235063D01*
X135129Y178054D01*
X135144Y177936D01*
X135151Y177817D01*
X135164Y177779D01*
X135169Y177738D01*
X135212Y177628D01*
X135249Y177515D01*
X135271Y177480D01*
X135286Y177443D01*
X135355Y177347D01*
X135419Y177246D01*
X135449Y177218D01*
X135472Y177185D01*
X135564Y177109D01*
X135651Y177028D01*
X135686Y177008D01*
X135717Y176983D01*
X135825Y176932D01*
X135929Y176874D01*
X135969Y176864D01*
X136005Y176847D01*
X136122Y176825D01*
X136237Y176795D01*
X136297Y176791D01*
X136317Y176787D01*
X136338Y176789D01*
X136398Y176785D01*
X138064Y176785D01*
X139701Y175148D01*
X139701Y173877D01*
X139717Y173747D01*
X139723Y173653D01*
X139728Y173638D01*
X139731Y173601D01*
X139738Y173582D01*
X139741Y173562D01*
X139792Y173432D01*
X139818Y173359D01*
X139821Y173350D01*
X139822Y173349D01*
X139839Y173301D01*
X139850Y173285D01*
X139858Y173266D01*
X139939Y173154D01*
X140017Y173038D01*
X140033Y173025D01*
X140044Y173009D01*
X140152Y172920D01*
X140256Y172828D01*
X140274Y172819D01*
X140289Y172806D01*
X140415Y172747D01*
X140539Y172683D01*
X140559Y172679D01*
X140577Y172670D01*
X140713Y172644D01*
X140850Y172614D01*
X140870Y172614D01*
X140889Y172611D01*
X141028Y172619D01*
X141167Y172623D01*
X141187Y172629D01*
X141207Y172630D01*
X141339Y172673D01*
X141473Y172712D01*
X141488Y172721D01*
X192899Y172721D01*
X192997Y172733D01*
X193096Y172736D01*
X193154Y172753D01*
X193214Y172761D01*
X193306Y172797D01*
X193401Y172825D01*
X193454Y172855D01*
X193510Y172878D01*
X193590Y172936D01*
X193675Y172986D01*
X193751Y173052D01*
X193767Y173064D01*
X193775Y173074D01*
X193796Y173092D01*
X195311Y174607D01*
X195384Y174702D01*
X195463Y174791D01*
X195481Y174827D01*
X195506Y174859D01*
X195553Y174968D01*
X195608Y175074D01*
X195616Y175113D01*
X195632Y175151D01*
X195651Y175268D01*
X195677Y175384D01*
X195676Y175425D01*
X195682Y175465D01*
X195671Y175583D01*
X195668Y175702D01*
X195656Y175741D01*
X195653Y175781D01*
X195612Y175893D01*
X195579Y176008D01*
X195559Y176043D01*
X195545Y176081D01*
X195478Y176179D01*
X195418Y176282D01*
X195378Y176327D01*
X195366Y176344D01*
X195351Y176357D01*
X195311Y176402D01*
X194055Y177658D01*
X194055Y179324D01*
X194040Y179442D01*
X194033Y179561D01*
X194020Y179599D01*
X194015Y179640D01*
X193972Y179750D01*
X193935Y179863D01*
X193913Y179898D01*
X193898Y179935D01*
X193829Y180031D01*
X193765Y180132D01*
X193735Y180160D01*
X193712Y180193D01*
X193620Y180269D01*
X193533Y180350D01*
X193498Y180370D01*
X193467Y180395D01*
X193359Y180446D01*
X193255Y180504D01*
X193215Y180514D01*
X193179Y180531D01*
X193062Y180553D01*
X192947Y180583D01*
X192887Y180587D01*
X192867Y180591D01*
X192846Y180589D01*
X192786Y180593D01*
X187706Y180593D01*
X187588Y180578D01*
X187469Y180571D01*
X187431Y180558D01*
X187390Y180553D01*
X187280Y180510D01*
X187167Y180473D01*
X187132Y180451D01*
X187095Y180436D01*
X186999Y180367D01*
X186898Y180303D01*
X186870Y180273D01*
X186837Y180250D01*
X186761Y180158D01*
X186680Y180071D01*
X186660Y180036D01*
X186635Y180005D01*
X186584Y179897D01*
X186526Y179793D01*
X186516Y179753D01*
X186499Y179717D01*
X186477Y179600D01*
X186447Y179485D01*
X186443Y179425D01*
X186439Y179405D01*
X186441Y179384D01*
X186437Y179324D01*
X186437Y177658D01*
X184800Y176021D01*
X182484Y176021D01*
X180847Y177658D01*
X180847Y179324D01*
X180832Y179442D01*
X180825Y179561D01*
X180812Y179599D01*
X180807Y179640D01*
X180764Y179750D01*
X180727Y179863D01*
X180705Y179898D01*
X180690Y179935D01*
X180621Y180031D01*
X180557Y180132D01*
X180527Y180160D01*
X180504Y180193D01*
X180412Y180269D01*
X180325Y180350D01*
X180290Y180370D01*
X180259Y180395D01*
X180151Y180446D01*
X180047Y180504D01*
X180007Y180514D01*
X179971Y180531D01*
X179854Y180553D01*
X179739Y180583D01*
X179679Y180587D01*
X179659Y180591D01*
X179638Y180589D01*
X179578Y180593D01*
X162211Y180593D01*
X162113Y180581D01*
X162014Y180578D01*
X161956Y180561D01*
X161896Y180553D01*
X161804Y180517D01*
X161709Y180489D01*
X161656Y180459D01*
X161600Y180436D01*
X161520Y180378D01*
X161435Y180328D01*
X161359Y180262D01*
X161343Y180250D01*
X161335Y180240D01*
X161314Y180222D01*
X160416Y179323D01*
X158100Y179323D01*
X156463Y180960D01*
X156463Y183276D01*
X158100Y184913D01*
X160416Y184913D01*
X161314Y184014D01*
X161392Y183954D01*
X161464Y183886D01*
X161517Y183857D01*
X161565Y183820D01*
X161656Y183780D01*
X161743Y183732D01*
X161801Y183717D01*
X161857Y183693D01*
X161955Y183678D01*
X162051Y183653D01*
X162151Y183647D01*
X162171Y183643D01*
X162183Y183645D01*
X162211Y183643D01*
X201771Y183643D01*
X201869Y183655D01*
X201968Y183658D01*
X202026Y183675D01*
X202086Y183683D01*
X202178Y183719D01*
X202273Y183747D01*
X202326Y183777D01*
X202382Y183800D01*
X202462Y183858D01*
X202547Y183908D01*
X202623Y183974D01*
X202639Y183986D01*
X202647Y183996D01*
X202668Y184014D01*
X203582Y184928D01*
X203691Y184935D01*
X203729Y184948D01*
X203770Y184953D01*
X203880Y184996D01*
X203993Y185033D01*
X204028Y185055D01*
X204065Y185070D01*
X204161Y185139D01*
X204262Y185203D01*
X204290Y185233D01*
X204323Y185256D01*
X204398Y185348D01*
X204480Y185435D01*
X204500Y185470D01*
X204525Y185501D01*
X204576Y185609D01*
X204634Y185713D01*
X204644Y185753D01*
X204661Y185789D01*
X204683Y185906D01*
X204713Y186021D01*
X204717Y186081D01*
X204721Y186101D01*
X204719Y186122D01*
X204723Y186182D01*
X204723Y190867D01*
X204711Y190965D01*
X204708Y191064D01*
X204691Y191122D01*
X204683Y191182D01*
X204647Y191274D01*
X204619Y191369D01*
X204589Y191422D01*
X204566Y191478D01*
X204508Y191558D01*
X204458Y191643D01*
X204392Y191719D01*
X204380Y191735D01*
X204370Y191743D01*
X204352Y191764D01*
X201811Y194304D01*
X201702Y194389D01*
X201595Y194478D01*
X201576Y194487D01*
X201560Y194499D01*
X201432Y194555D01*
X201307Y194614D01*
X201287Y194617D01*
X201268Y194626D01*
X201130Y194647D01*
X200994Y194673D01*
X200974Y194672D01*
X200954Y194675D01*
X200815Y194662D01*
X200677Y194654D01*
X200658Y194647D01*
X200638Y194646D01*
X200506Y194598D01*
X200375Y194556D01*
X200357Y194545D01*
X200338Y194538D01*
X200223Y194460D01*
X200106Y194385D01*
X200092Y194371D01*
X200075Y194359D01*
X199983Y194255D01*
X199888Y194154D01*
X199878Y194136D01*
X199865Y194121D01*
X199801Y193997D01*
X199734Y193875D01*
X199729Y193856D01*
X199720Y193838D01*
X199690Y193702D01*
X199655Y193567D01*
X199653Y193539D01*
X199650Y193527D01*
X199651Y193507D01*
X199645Y193407D01*
X199645Y193406D01*
X199287Y193048D01*
X199214Y192954D01*
X199135Y192865D01*
X199117Y192829D01*
X199092Y192797D01*
X199045Y192688D01*
X198990Y192582D01*
X198982Y192543D01*
X198966Y192505D01*
X198947Y192388D01*
X198921Y192272D01*
X198922Y192231D01*
X198916Y192191D01*
X198927Y192073D01*
X198930Y191954D01*
X198942Y191915D01*
X198946Y191875D01*
X198986Y191763D01*
X199019Y191648D01*
X199039Y191613D01*
X199053Y191575D01*
X199120Y191477D01*
X199180Y191374D01*
X199220Y191329D01*
X199232Y191312D01*
X199247Y191299D01*
X199287Y191253D01*
X199645Y190896D01*
X199645Y188580D01*
X198008Y186943D01*
X195692Y186943D01*
X194055Y188580D01*
X194055Y190896D01*
X194413Y191253D01*
X194486Y191347D01*
X194565Y191437D01*
X194583Y191473D01*
X194608Y191505D01*
X194655Y191614D01*
X194710Y191720D01*
X194718Y191759D01*
X194734Y191797D01*
X194753Y191914D01*
X194779Y192030D01*
X194778Y192071D01*
X194784Y192111D01*
X194773Y192229D01*
X194770Y192348D01*
X194758Y192387D01*
X194754Y192427D01*
X194714Y192539D01*
X194681Y192654D01*
X194661Y192689D01*
X194647Y192727D01*
X194580Y192825D01*
X194520Y192928D01*
X194480Y192973D01*
X194468Y192990D01*
X194453Y193003D01*
X194413Y193048D01*
X194055Y193406D01*
X194055Y195722D01*
X195692Y197359D01*
X195693Y197359D01*
X195830Y197376D01*
X195969Y197389D01*
X195988Y197396D01*
X196008Y197399D01*
X196137Y197450D01*
X196268Y197497D01*
X196285Y197508D01*
X196304Y197516D01*
X196416Y197597D01*
X196532Y197675D01*
X196545Y197691D01*
X196561Y197702D01*
X196650Y197810D01*
X196742Y197914D01*
X196751Y197932D01*
X196764Y197947D01*
X196823Y198073D01*
X196887Y198197D01*
X196891Y198217D01*
X196900Y198235D01*
X196926Y198371D01*
X196956Y198507D01*
X196956Y198528D01*
X196959Y198547D01*
X196951Y198686D01*
X196947Y198825D01*
X196941Y198845D01*
X196940Y198865D01*
X196897Y198997D01*
X196858Y199131D01*
X196848Y199148D01*
X196842Y199167D01*
X196767Y199285D01*
X196697Y199405D01*
X196678Y199426D01*
X196671Y199436D01*
X196656Y199450D01*
X196590Y199525D01*
X184652Y211464D01*
X184574Y211524D01*
X184502Y211592D01*
X184449Y211621D01*
X184401Y211658D01*
X184310Y211698D01*
X184223Y211746D01*
X184165Y211761D01*
X184109Y211785D01*
X184011Y211800D01*
X183915Y211825D01*
X183815Y211831D01*
X183795Y211835D01*
X183783Y211833D01*
X183755Y211835D01*
X182484Y211835D01*
X180847Y213472D01*
X180847Y215788D01*
X182484Y217425D01*
X184800Y217425D01*
X186437Y215788D01*
X186437Y214517D01*
X186449Y214419D01*
X186452Y214320D01*
X186469Y214262D01*
X186477Y214202D01*
X186513Y214110D01*
X186541Y214015D01*
X186569Y213967D01*
X186569Y213966D01*
X186571Y213962D01*
X186594Y213906D01*
X186652Y213826D01*
X186702Y213741D01*
X186736Y213702D01*
X186739Y213697D01*
X186746Y213691D01*
X186768Y213665D01*
X186780Y213649D01*
X186790Y213641D01*
X186808Y213620D01*
X207773Y192656D01*
X207773Y186577D01*
X207785Y186479D01*
X207788Y186380D01*
X207794Y186359D01*
X207795Y186345D01*
X207807Y186310D01*
X207813Y186262D01*
X207849Y186170D01*
X207877Y186075D01*
X207890Y186051D01*
X207893Y186043D01*
X207910Y186016D01*
X207930Y185966D01*
X207988Y185886D01*
X208038Y185801D01*
X208104Y185725D01*
X208116Y185709D01*
X208126Y185701D01*
X208144Y185680D01*
X209669Y184156D01*
X209778Y184071D01*
X209885Y183982D01*
X209904Y183973D01*
X209920Y183961D01*
X210047Y183906D01*
X210173Y183846D01*
X210193Y183843D01*
X210212Y183834D01*
X210350Y183813D01*
X210486Y183787D01*
X210506Y183788D01*
X210526Y183785D01*
X210665Y183798D01*
X210803Y183806D01*
X210822Y183813D01*
X210842Y183814D01*
X210974Y183862D01*
X211105Y183904D01*
X211123Y183915D01*
X211142Y183922D01*
X211256Y184000D01*
X211374Y184075D01*
X211388Y184089D01*
X211405Y184101D01*
X211497Y184205D01*
X211592Y184306D01*
X211602Y184324D01*
X211615Y184339D01*
X211679Y184463D01*
X211746Y184585D01*
X211751Y184604D01*
X211760Y184622D01*
X211790Y184758D01*
X211825Y184893D01*
X211827Y184921D01*
X211830Y184933D01*
X211829Y184953D01*
X211835Y185053D01*
X211835Y217283D01*
X211823Y217381D01*
X211820Y217480D01*
X211803Y217538D01*
X211795Y217598D01*
X211759Y217690D01*
X211731Y217785D01*
X211701Y217838D01*
X211678Y217894D01*
X211620Y217974D01*
X211570Y218059D01*
X211504Y218135D01*
X211492Y218151D01*
X211482Y218159D01*
X211464Y218180D01*
X199389Y230254D01*
X199389Y239776D01*
X199374Y239894D01*
X199367Y240013D01*
X199354Y240051D01*
X199349Y240092D01*
X199306Y240202D01*
X199269Y240315D01*
X199247Y240350D01*
X199232Y240387D01*
X199163Y240483D01*
X199099Y240584D01*
X199069Y240612D01*
X199046Y240645D01*
X198954Y240721D01*
X198867Y240802D01*
X198832Y240822D01*
X198801Y240847D01*
X198693Y240898D01*
X198589Y240956D01*
X198549Y240966D01*
X198513Y240983D01*
X198396Y241005D01*
X198281Y241035D01*
X198221Y241039D01*
X198201Y241043D01*
X198180Y241041D01*
X198120Y241045D01*
X195438Y241045D01*
X193801Y242682D01*
X193801Y244998D01*
X195438Y246635D01*
X198120Y246635D01*
X198238Y246650D01*
X198357Y246657D01*
X198395Y246670D01*
X198436Y246675D01*
X198546Y246718D01*
X198659Y246755D01*
X198694Y246777D01*
X198731Y246792D01*
X198827Y246861D01*
X198928Y246925D01*
X198956Y246955D01*
X198989Y246978D01*
X199065Y247070D01*
X199146Y247157D01*
X199166Y247192D01*
X199191Y247223D01*
X199242Y247331D01*
X199300Y247435D01*
X199310Y247475D01*
X199327Y247511D01*
X199349Y247628D01*
X199379Y247743D01*
X199383Y247803D01*
X199387Y247823D01*
X199385Y247844D01*
X199389Y247904D01*
X199389Y340201D01*
X199377Y340299D01*
X199374Y340398D01*
X199357Y340456D01*
X199349Y340516D01*
X199313Y340608D01*
X199285Y340703D01*
X199255Y340756D01*
X199232Y340812D01*
X199174Y340892D01*
X199124Y340977D01*
X199058Y341053D01*
X199046Y341069D01*
X199036Y341077D01*
X199018Y341098D01*
X198119Y341996D01*
X198119Y344312D01*
X199756Y345949D01*
X202072Y345949D01*
X202557Y345464D01*
X202666Y345379D01*
X202773Y345290D01*
X202792Y345281D01*
X202808Y345269D01*
X202936Y345214D01*
X203061Y345154D01*
X203081Y345151D01*
X203100Y345143D01*
X203238Y345121D01*
X203374Y345095D01*
X203394Y345096D01*
X203414Y345093D01*
X203553Y345106D01*
X203691Y345114D01*
X203710Y345121D01*
X203730Y345122D01*
X203861Y345170D01*
X203993Y345212D01*
X204011Y345223D01*
X204030Y345230D01*
X204144Y345308D01*
X204262Y345383D01*
X204276Y345397D01*
X204293Y345409D01*
X204385Y345513D01*
X204480Y345614D01*
X204490Y345632D01*
X204503Y345647D01*
X204566Y345771D01*
X204634Y345893D01*
X204639Y345912D01*
X204648Y345930D01*
X204678Y346066D01*
X204713Y346201D01*
X204715Y346229D01*
X204718Y346241D01*
X204717Y346261D01*
X204723Y346361D01*
X204723Y347585D01*
X204711Y347683D01*
X204708Y347782D01*
X204691Y347840D01*
X204683Y347900D01*
X204647Y347992D01*
X204619Y348087D01*
X204589Y348140D01*
X204566Y348196D01*
X204508Y348276D01*
X204458Y348361D01*
X204392Y348437D01*
X204380Y348453D01*
X204370Y348461D01*
X204352Y348482D01*
X201675Y351158D01*
X201675Y411575D01*
X201663Y411673D01*
X201660Y411772D01*
X201643Y411830D01*
X201635Y411890D01*
X201599Y411982D01*
X201571Y412077D01*
X201541Y412130D01*
X201518Y412186D01*
X201460Y412266D01*
X201410Y412351D01*
X201344Y412427D01*
X201332Y412443D01*
X201322Y412451D01*
X201304Y412472D01*
X200405Y413370D01*
X200405Y415686D01*
X202042Y417323D01*
X204376Y417323D01*
X204387Y417314D01*
X204477Y417235D01*
X204512Y417217D01*
X204544Y417192D01*
X204654Y417145D01*
X204760Y417091D01*
X204799Y417082D01*
X204836Y417066D01*
X204954Y417047D01*
X205070Y417021D01*
X205111Y417022D01*
X205150Y417016D01*
X205269Y417027D01*
X205388Y417031D01*
X205427Y417042D01*
X205467Y417046D01*
X205579Y417086D01*
X205693Y417119D01*
X205728Y417140D01*
X205766Y417153D01*
X205865Y417220D01*
X205967Y417281D01*
X206013Y417320D01*
X206029Y417332D01*
X206043Y417347D01*
X206088Y417387D01*
X206770Y418069D01*
X207010Y418069D01*
X207128Y418084D01*
X207247Y418091D01*
X207285Y418104D01*
X207326Y418109D01*
X207436Y418152D01*
X207549Y418189D01*
X207584Y418211D01*
X207621Y418226D01*
X207717Y418295D01*
X207818Y418359D01*
X207846Y418389D01*
X207879Y418412D01*
X207955Y418504D01*
X208036Y418591D01*
X208056Y418626D01*
X208081Y418657D01*
X208132Y418765D01*
X208190Y418869D01*
X208200Y418909D01*
X208217Y418945D01*
X208239Y419062D01*
X208269Y419177D01*
X208273Y419237D01*
X208277Y419257D01*
X208275Y419278D01*
X208279Y419338D01*
X208279Y419957D01*
X208262Y420095D01*
X208249Y420233D01*
X208242Y420252D01*
X208239Y420272D01*
X208188Y420402D01*
X208141Y420532D01*
X208130Y420549D01*
X208122Y420568D01*
X208041Y420680D01*
X207963Y420796D01*
X207947Y420809D01*
X207936Y420825D01*
X207828Y420914D01*
X207724Y421006D01*
X207706Y421015D01*
X207691Y421028D01*
X207565Y421087D01*
X207441Y421151D01*
X207421Y421155D01*
X207403Y421164D01*
X207267Y421190D01*
X207131Y421220D01*
X207110Y421220D01*
X207091Y421223D01*
X206952Y421215D01*
X206813Y421211D01*
X206793Y421205D01*
X206773Y421204D01*
X206641Y421161D01*
X206507Y421122D01*
X206490Y421112D01*
X206471Y421106D01*
X206353Y421031D01*
X206233Y420961D01*
X206212Y420942D01*
X206202Y420935D01*
X206188Y420920D01*
X206139Y420877D01*
X203820Y420877D01*
X202183Y422514D01*
X202183Y424830D01*
X203820Y426467D01*
X206136Y426467D01*
X207773Y424830D01*
X207773Y424085D01*
X207790Y423947D01*
X207803Y423809D01*
X207810Y423790D01*
X207813Y423770D01*
X207864Y423640D01*
X207911Y423510D01*
X207922Y423493D01*
X207930Y423474D01*
X208011Y423362D01*
X208089Y423246D01*
X208105Y423233D01*
X208116Y423217D01*
X208224Y423128D01*
X208328Y423036D01*
X208346Y423027D01*
X208361Y423014D01*
X208487Y422955D01*
X208611Y422891D01*
X208631Y422887D01*
X208649Y422878D01*
X208785Y422852D01*
X208921Y422822D01*
X208942Y422822D01*
X208961Y422819D01*
X209100Y422827D01*
X209239Y422831D01*
X209259Y422837D01*
X209279Y422838D01*
X209411Y422881D01*
X209545Y422920D01*
X209562Y422930D01*
X209581Y422936D01*
X209699Y423011D01*
X209819Y423081D01*
X209840Y423100D01*
X209850Y423107D01*
X209864Y423122D01*
X209913Y423165D01*
X212253Y423165D01*
X212264Y423154D01*
X212317Y423125D01*
X212365Y423088D01*
X212456Y423048D01*
X212543Y423000D01*
X212601Y422985D01*
X212657Y422961D01*
X212755Y422946D01*
X212851Y422921D01*
X212951Y422915D01*
X212971Y422911D01*
X212983Y422913D01*
X213011Y422911D01*
X231264Y422911D01*
X237491Y416684D01*
X237491Y412351D01*
X237480Y412340D01*
X237451Y412287D01*
X237414Y412239D01*
X237374Y412148D01*
X237326Y412061D01*
X237311Y412003D01*
X237287Y411947D01*
X237272Y411849D01*
X237247Y411753D01*
X237241Y411653D01*
X237237Y411633D01*
X237239Y411621D01*
X237237Y411593D01*
X237237Y391668D01*
X237252Y391550D01*
X237259Y391431D01*
X237272Y391393D01*
X237277Y391352D01*
X237320Y391242D01*
X237357Y391129D01*
X237379Y391094D01*
X237394Y391057D01*
X237463Y390961D01*
X237527Y390860D01*
X237557Y390832D01*
X237580Y390799D01*
X237672Y390723D01*
X237759Y390642D01*
X237794Y390622D01*
X237825Y390597D01*
X237933Y390546D01*
X238037Y390488D01*
X238077Y390478D01*
X238113Y390461D01*
X238230Y390439D01*
X238345Y390409D01*
X238405Y390405D01*
X238425Y390401D01*
X238446Y390403D01*
X238506Y390399D01*
X240172Y390399D01*
X241809Y388762D01*
X241809Y386446D01*
X240172Y384809D01*
X238506Y384809D01*
X238388Y384794D01*
X238269Y384787D01*
X238231Y384774D01*
X238190Y384769D01*
X238080Y384726D01*
X237967Y384689D01*
X237932Y384667D01*
X237895Y384652D01*
X237799Y384583D01*
X237698Y384519D01*
X237670Y384489D01*
X237637Y384466D01*
X237561Y384374D01*
X237480Y384287D01*
X237460Y384252D01*
X237435Y384221D01*
X237384Y384113D01*
X237326Y384009D01*
X237316Y383969D01*
X237299Y383933D01*
X237277Y383816D01*
X237247Y383701D01*
X237243Y383641D01*
X237239Y383621D01*
X237241Y383600D01*
X237237Y383540D01*
X237237Y379363D01*
X237249Y379265D01*
X237252Y379166D01*
X237269Y379108D01*
X237277Y379048D01*
X237313Y378956D01*
X237341Y378861D01*
X237371Y378808D01*
X237394Y378752D01*
X237452Y378672D01*
X237502Y378587D01*
X237568Y378511D01*
X237580Y378495D01*
X237590Y378487D01*
X237608Y378466D01*
X238766Y377309D01*
X238844Y377248D01*
X238916Y377180D01*
X238969Y377151D01*
X239017Y377114D01*
X239108Y377074D01*
X239195Y377026D01*
X239253Y377011D01*
X239309Y376987D01*
X239407Y376972D01*
X239503Y376947D01*
X239603Y376941D01*
X239623Y376937D01*
X239635Y376939D01*
X239663Y376937D01*
X240934Y376937D01*
X242571Y375300D01*
X242571Y372984D01*
X240934Y371347D01*
X238618Y371347D01*
X236981Y372984D01*
X236981Y374255D01*
X236969Y374353D01*
X236966Y374452D01*
X236949Y374510D01*
X236941Y374570D01*
X236905Y374662D01*
X236877Y374757D01*
X236847Y374810D01*
X236824Y374866D01*
X236766Y374946D01*
X236716Y375031D01*
X236650Y375107D01*
X236638Y375123D01*
X236628Y375131D01*
X236609Y375152D01*
X235452Y376309D01*
X235452Y376310D01*
X234187Y377574D01*
X234187Y410464D01*
X234172Y410582D01*
X234165Y410701D01*
X234152Y410739D01*
X234147Y410780D01*
X234104Y410890D01*
X234067Y411003D01*
X234045Y411038D01*
X234030Y411075D01*
X233961Y411171D01*
X233897Y411272D01*
X233867Y411300D01*
X233844Y411333D01*
X233752Y411409D01*
X233665Y411490D01*
X233630Y411510D01*
X233599Y411535D01*
X233491Y411586D01*
X233387Y411644D01*
X233347Y411654D01*
X233311Y411671D01*
X233194Y411693D01*
X233079Y411723D01*
X233019Y411727D01*
X232999Y411731D01*
X232978Y411729D01*
X232918Y411733D01*
X231506Y411733D01*
X230514Y412726D01*
X230419Y412799D01*
X230330Y412878D01*
X230294Y412896D01*
X230262Y412921D01*
X230153Y412968D01*
X230047Y413023D01*
X230008Y413031D01*
X229970Y413047D01*
X229853Y413066D01*
X229737Y413092D01*
X229696Y413091D01*
X229656Y413097D01*
X229538Y413086D01*
X229419Y413083D01*
X229380Y413071D01*
X229340Y413067D01*
X229227Y413027D01*
X229113Y412994D01*
X229079Y412974D01*
X229040Y412960D01*
X228942Y412893D01*
X228839Y412833D01*
X228794Y412793D01*
X228777Y412781D01*
X228764Y412766D01*
X228719Y412726D01*
X228464Y412472D01*
X228404Y412394D01*
X228336Y412322D01*
X228307Y412269D01*
X228270Y412221D01*
X228230Y412130D01*
X228182Y412043D01*
X228167Y411985D01*
X228143Y411929D01*
X228128Y411831D01*
X228103Y411735D01*
X228097Y411635D01*
X228093Y411615D01*
X228095Y411603D01*
X228093Y411575D01*
X228093Y367922D01*
X227726Y367556D01*
X227653Y367462D01*
X227574Y367372D01*
X227556Y367336D01*
X227531Y367304D01*
X227484Y367195D01*
X227429Y367089D01*
X227421Y367050D01*
X227405Y367012D01*
X227386Y366894D01*
X227360Y366779D01*
X227361Y366738D01*
X227355Y366698D01*
X227366Y366580D01*
X227369Y366461D01*
X227381Y366422D01*
X227384Y366382D01*
X227425Y366270D01*
X227458Y366155D01*
X227478Y366120D01*
X227492Y366082D01*
X227559Y365984D01*
X227619Y365881D01*
X227659Y365836D01*
X227671Y365819D01*
X227686Y365806D01*
X227726Y365761D01*
X229363Y364124D01*
X229363Y361808D01*
X227726Y360171D01*
X226060Y360171D01*
X225942Y360156D01*
X225823Y360149D01*
X225785Y360136D01*
X225744Y360131D01*
X225634Y360088D01*
X225521Y360051D01*
X225486Y360029D01*
X225449Y360014D01*
X225353Y359945D01*
X225252Y359881D01*
X225224Y359851D01*
X225191Y359828D01*
X225115Y359736D01*
X225034Y359649D01*
X225014Y359614D01*
X224989Y359583D01*
X224938Y359475D01*
X224880Y359371D01*
X224870Y359331D01*
X224853Y359295D01*
X224831Y359178D01*
X224801Y359063D01*
X224797Y359003D01*
X224793Y358983D01*
X224795Y358962D01*
X224791Y358902D01*
X224791Y272926D01*
X223130Y271266D01*
X223070Y271188D01*
X223002Y271116D01*
X222973Y271063D01*
X222936Y271015D01*
X222896Y270924D01*
X222848Y270837D01*
X222833Y270779D01*
X222809Y270723D01*
X222794Y270625D01*
X222769Y270529D01*
X222764Y270445D01*
X222761Y270433D01*
X222762Y270424D01*
X222759Y270409D01*
X222761Y270397D01*
X222759Y270369D01*
X222759Y247904D01*
X222774Y247786D01*
X222781Y247667D01*
X222794Y247629D01*
X222799Y247588D01*
X222842Y247478D01*
X222879Y247365D01*
X222901Y247330D01*
X222916Y247293D01*
X222985Y247197D01*
X223049Y247096D01*
X223079Y247068D01*
X223102Y247035D01*
X223194Y246959D01*
X223281Y246878D01*
X223316Y246858D01*
X223347Y246833D01*
X223455Y246782D01*
X223559Y246724D01*
X223599Y246714D01*
X223635Y246697D01*
X223752Y246675D01*
X223867Y246645D01*
X223927Y246641D01*
X223947Y246637D01*
X223968Y246639D01*
X224028Y246635D01*
X225694Y246635D01*
X226950Y245379D01*
X227044Y245306D01*
X227133Y245227D01*
X227169Y245209D01*
X227201Y245184D01*
X227310Y245136D01*
X227416Y245082D01*
X227456Y245074D01*
X227493Y245058D01*
X227610Y245039D01*
X227726Y245013D01*
X227767Y245014D01*
X227807Y245008D01*
X227926Y245019D01*
X228044Y245022D01*
X228083Y245034D01*
X228123Y245037D01*
X228236Y245078D01*
X228350Y245111D01*
X228385Y245131D01*
X228423Y245145D01*
X228521Y245212D01*
X228624Y245272D01*
X228669Y245312D01*
X228686Y245324D01*
X228699Y245339D01*
X228745Y245379D01*
X229244Y245878D01*
X229304Y245956D01*
X229372Y246028D01*
X229401Y246081D01*
X229438Y246129D01*
X229478Y246220D01*
X229526Y246307D01*
X229541Y246365D01*
X229565Y246421D01*
X229580Y246519D01*
X229605Y246615D01*
X229611Y246715D01*
X229615Y246735D01*
X229613Y246747D01*
X229615Y246775D01*
X229615Y248790D01*
X230372Y249547D01*
X230457Y249656D01*
X230546Y249763D01*
X230555Y249782D01*
X230567Y249798D01*
X230622Y249925D01*
X230682Y250051D01*
X230685Y250071D01*
X230694Y250090D01*
X230715Y250228D01*
X230741Y250364D01*
X230740Y250384D01*
X230743Y250404D01*
X230730Y250543D01*
X230722Y250681D01*
X230715Y250700D01*
X230714Y250720D01*
X230666Y250852D01*
X230624Y250983D01*
X230613Y251001D01*
X230606Y251020D01*
X230528Y251135D01*
X230453Y251252D01*
X230439Y251266D01*
X230427Y251283D01*
X230323Y251375D01*
X230285Y251411D01*
X228345Y253350D01*
X228345Y255666D01*
X229982Y257303D01*
X232298Y257303D01*
X233417Y256183D01*
X233512Y256110D01*
X233601Y256031D01*
X233637Y256013D01*
X233669Y255988D01*
X233778Y255941D01*
X233884Y255886D01*
X233923Y255878D01*
X233961Y255862D01*
X234078Y255843D01*
X234194Y255817D01*
X234235Y255818D01*
X234275Y255812D01*
X234393Y255823D01*
X234512Y255826D01*
X234551Y255838D01*
X234591Y255842D01*
X234704Y255882D01*
X234818Y255915D01*
X234852Y255935D01*
X234891Y255949D01*
X234989Y256016D01*
X235018Y256033D01*
X237378Y256033D01*
X238888Y254523D01*
X238982Y254450D01*
X239071Y254371D01*
X239107Y254353D01*
X239139Y254328D01*
X239248Y254281D01*
X239354Y254226D01*
X239393Y254218D01*
X239431Y254202D01*
X239548Y254183D01*
X239664Y254157D01*
X239705Y254158D01*
X239745Y254152D01*
X239863Y254163D01*
X239982Y254166D01*
X240021Y254178D01*
X240061Y254181D01*
X240174Y254222D01*
X240288Y254255D01*
X240323Y254275D01*
X240361Y254289D01*
X240459Y254356D01*
X240562Y254416D01*
X240607Y254456D01*
X240624Y254468D01*
X240637Y254483D01*
X240683Y254523D01*
X249540Y263380D01*
X249613Y263475D01*
X249692Y263564D01*
X249710Y263600D01*
X249735Y263632D01*
X249783Y263741D01*
X249837Y263847D01*
X249845Y263886D01*
X249861Y263924D01*
X249880Y264041D01*
X249906Y264157D01*
X249905Y264198D01*
X249911Y264238D01*
X249900Y264356D01*
X249897Y264475D01*
X249885Y264514D01*
X249882Y264554D01*
X249841Y264666D01*
X249808Y264781D01*
X249788Y264816D01*
X249774Y264854D01*
X249707Y264952D01*
X249647Y265055D01*
X249607Y265100D01*
X249595Y265117D01*
X249580Y265130D01*
X249540Y265175D01*
X248919Y265796D01*
X248919Y268112D01*
X250429Y269622D01*
X250502Y269716D01*
X250581Y269805D01*
X250599Y269841D01*
X250624Y269873D01*
X250672Y269982D01*
X250726Y270088D01*
X250734Y270128D01*
X250750Y270165D01*
X250769Y270282D01*
X250795Y270398D01*
X250794Y270439D01*
X250800Y270479D01*
X250789Y270598D01*
X250786Y270716D01*
X250774Y270755D01*
X250771Y270795D01*
X250730Y270908D01*
X250697Y271022D01*
X250677Y271057D01*
X250663Y271095D01*
X250596Y271193D01*
X250536Y271296D01*
X250496Y271341D01*
X250484Y271358D01*
X250469Y271371D01*
X250429Y271417D01*
X249930Y271916D01*
X249852Y271976D01*
X249780Y272044D01*
X249727Y272073D01*
X249679Y272110D01*
X249588Y272150D01*
X249501Y272198D01*
X249443Y272213D01*
X249387Y272237D01*
X249289Y272252D01*
X249193Y272277D01*
X249093Y272283D01*
X249073Y272287D01*
X249061Y272285D01*
X249033Y272287D01*
X247762Y272287D01*
X246125Y273924D01*
X246125Y276240D01*
X247762Y277877D01*
X250078Y277877D01*
X251715Y276240D01*
X251715Y274969D01*
X251727Y274871D01*
X251730Y274772D01*
X251747Y274714D01*
X251755Y274654D01*
X251791Y274562D01*
X251819Y274467D01*
X251849Y274414D01*
X251872Y274358D01*
X251930Y274278D01*
X251980Y274193D01*
X252046Y274117D01*
X252058Y274101D01*
X252068Y274093D01*
X252086Y274072D01*
X261113Y265046D01*
X261113Y240933D01*
X261125Y240835D01*
X261128Y240736D01*
X261145Y240678D01*
X261153Y240618D01*
X261189Y240526D01*
X261217Y240431D01*
X261247Y240378D01*
X261270Y240322D01*
X261328Y240242D01*
X261378Y240157D01*
X261444Y240081D01*
X261456Y240065D01*
X261466Y240057D01*
X261484Y240036D01*
X264533Y236988D01*
X264642Y236903D01*
X264749Y236814D01*
X264768Y236805D01*
X264784Y236793D01*
X264912Y236737D01*
X265037Y236678D01*
X265057Y236675D01*
X265076Y236666D01*
X265214Y236645D01*
X265350Y236619D01*
X265370Y236620D01*
X265390Y236617D01*
X265529Y236630D01*
X265667Y236638D01*
X265686Y236645D01*
X265706Y236646D01*
X265838Y236694D01*
X265969Y236736D01*
X265987Y236747D01*
X266006Y236754D01*
X266121Y236832D01*
X266238Y236907D01*
X266252Y236921D01*
X266269Y236933D01*
X266361Y237037D01*
X266456Y237138D01*
X266466Y237156D01*
X266479Y237171D01*
X266543Y237295D01*
X266610Y237417D01*
X266615Y237436D01*
X266624Y237454D01*
X266654Y237590D01*
X266689Y237725D01*
X266691Y237753D01*
X266694Y237765D01*
X266693Y237785D01*
X266699Y237885D01*
X266699Y320915D01*
X266687Y321013D01*
X266684Y321112D01*
X266667Y321170D01*
X266659Y321230D01*
X266623Y321322D01*
X266595Y321417D01*
X266565Y321470D01*
X266542Y321526D01*
X266484Y321606D01*
X266434Y321691D01*
X266368Y321767D01*
X266356Y321783D01*
X266346Y321791D01*
X266328Y321812D01*
X234182Y353958D01*
X234104Y354018D01*
X234032Y354086D01*
X233979Y354115D01*
X233931Y354152D01*
X233840Y354192D01*
X233753Y354240D01*
X233695Y354255D01*
X233639Y354279D01*
X233541Y354294D01*
X233445Y354319D01*
X233345Y354325D01*
X233325Y354329D01*
X233313Y354327D01*
X233285Y354329D01*
X232014Y354329D01*
X230377Y355966D01*
X230377Y358282D01*
X232014Y359919D01*
X234330Y359919D01*
X235967Y358282D01*
X235967Y357011D01*
X235979Y356913D01*
X235982Y356814D01*
X235999Y356756D01*
X236007Y356696D01*
X236043Y356604D01*
X236071Y356509D01*
X236101Y356456D01*
X236124Y356400D01*
X236182Y356320D01*
X236232Y356235D01*
X236298Y356159D01*
X236310Y356143D01*
X236320Y356135D01*
X236338Y356114D01*
X269749Y322704D01*
X269749Y237744D01*
X269764Y237626D01*
X269771Y237507D01*
X269784Y237469D01*
X269789Y237428D01*
X269832Y237318D01*
X269869Y237205D01*
X269891Y237170D01*
X269906Y237133D01*
X269975Y237037D01*
X270039Y236936D01*
X270069Y236908D01*
X270092Y236875D01*
X270184Y236799D01*
X270271Y236718D01*
X270306Y236698D01*
X270337Y236673D01*
X270445Y236622D01*
X270549Y236564D01*
X270589Y236554D01*
X270625Y236537D01*
X270742Y236515D01*
X270857Y236485D01*
X270917Y236481D01*
X270937Y236477D01*
X270958Y236479D01*
X271018Y236475D01*
X275714Y236475D01*
X282703Y229486D01*
X282703Y225298D01*
X282718Y225180D01*
X282725Y225061D01*
X282738Y225023D01*
X282743Y224982D01*
X282786Y224872D01*
X282823Y224759D01*
X282845Y224724D01*
X282860Y224687D01*
X282929Y224591D01*
X282993Y224490D01*
X283023Y224462D01*
X283046Y224429D01*
X283138Y224353D01*
X283225Y224272D01*
X283260Y224252D01*
X283291Y224227D01*
X283399Y224176D01*
X283503Y224118D01*
X283520Y224114D01*
X285243Y222392D01*
X285243Y220076D01*
X283606Y218439D01*
X281290Y218439D01*
X280933Y218797D01*
X280839Y218870D01*
X280749Y218949D01*
X280713Y218967D01*
X280681Y218992D01*
X280572Y219039D01*
X280466Y219094D01*
X280427Y219102D01*
X280389Y219118D01*
X280272Y219137D01*
X280156Y219163D01*
X280115Y219162D01*
X280075Y219168D01*
X279957Y219157D01*
X279838Y219154D01*
X279799Y219142D01*
X279759Y219138D01*
X279647Y219098D01*
X279532Y219065D01*
X279497Y219045D01*
X279459Y219031D01*
X279361Y218964D01*
X279258Y218904D01*
X279213Y218864D01*
X279196Y218852D01*
X279183Y218837D01*
X279138Y218797D01*
X279034Y218693D01*
X276718Y218693D01*
X275081Y220330D01*
X275081Y221601D01*
X275069Y221699D01*
X275066Y221798D01*
X275049Y221856D01*
X275041Y221916D01*
X275005Y222008D01*
X274977Y222103D01*
X274947Y222156D01*
X274924Y222212D01*
X274866Y222292D01*
X274816Y222377D01*
X274750Y222453D01*
X274738Y222469D01*
X274728Y222477D01*
X274710Y222498D01*
X267861Y229347D01*
X267766Y229420D01*
X267677Y229499D01*
X267641Y229517D01*
X267609Y229542D01*
X267500Y229590D01*
X267394Y229644D01*
X267355Y229652D01*
X267317Y229668D01*
X267200Y229687D01*
X267084Y229713D01*
X267043Y229712D01*
X267003Y229718D01*
X266885Y229707D01*
X266766Y229704D01*
X266727Y229692D01*
X266687Y229689D01*
X266575Y229648D01*
X266460Y229615D01*
X266425Y229595D01*
X266387Y229581D01*
X266289Y229514D01*
X266186Y229454D01*
X266141Y229414D01*
X266124Y229402D01*
X266111Y229387D01*
X266066Y229347D01*
X264810Y228091D01*
X262494Y228091D01*
X260857Y229728D01*
X260857Y230378D01*
X260842Y230496D01*
X260835Y230615D01*
X260822Y230653D01*
X260817Y230694D01*
X260774Y230804D01*
X260737Y230917D01*
X260715Y230952D01*
X260700Y230989D01*
X260631Y231085D01*
X260567Y231186D01*
X260537Y231214D01*
X260514Y231247D01*
X260422Y231323D01*
X260335Y231404D01*
X260300Y231424D01*
X260269Y231449D01*
X260161Y231500D01*
X260057Y231558D01*
X260017Y231568D01*
X259981Y231585D01*
X259864Y231607D01*
X259749Y231637D01*
X259689Y231641D01*
X259669Y231645D01*
X259648Y231643D01*
X259588Y231647D01*
X252730Y231647D01*
X252612Y231632D01*
X252493Y231625D01*
X252455Y231612D01*
X252414Y231607D01*
X252304Y231564D01*
X252191Y231527D01*
X252156Y231505D01*
X252119Y231490D01*
X252023Y231421D01*
X251922Y231357D01*
X251894Y231327D01*
X251861Y231304D01*
X251785Y231212D01*
X251704Y231125D01*
X251684Y231090D01*
X251659Y231059D01*
X251608Y230951D01*
X251550Y230847D01*
X251540Y230807D01*
X251523Y230771D01*
X251501Y230654D01*
X251471Y230539D01*
X251467Y230479D01*
X251463Y230459D01*
X251465Y230438D01*
X251461Y230378D01*
X251461Y228712D01*
X250976Y228227D01*
X250903Y228133D01*
X250824Y228044D01*
X250806Y228008D01*
X250781Y227976D01*
X250734Y227867D01*
X250679Y227761D01*
X250671Y227722D01*
X250655Y227684D01*
X250636Y227567D01*
X250610Y227451D01*
X250611Y227410D01*
X250605Y227370D01*
X250616Y227252D01*
X250619Y227133D01*
X250631Y227094D01*
X250635Y227054D01*
X250675Y226942D01*
X250708Y226827D01*
X250728Y226792D01*
X250742Y226754D01*
X250809Y226656D01*
X250869Y226553D01*
X250909Y226508D01*
X250921Y226491D01*
X250936Y226478D01*
X250976Y226432D01*
X251461Y225948D01*
X251461Y224677D01*
X251473Y224579D01*
X251476Y224480D01*
X251493Y224422D01*
X251501Y224362D01*
X251537Y224270D01*
X251565Y224175D01*
X251595Y224122D01*
X251618Y224066D01*
X251676Y223986D01*
X251726Y223901D01*
X251768Y223853D01*
X251769Y223851D01*
X251772Y223849D01*
X251792Y223825D01*
X251804Y223809D01*
X251814Y223801D01*
X251832Y223780D01*
X281692Y193920D01*
X282957Y192656D01*
X282957Y185071D01*
X282969Y184973D01*
X282972Y184874D01*
X282989Y184816D01*
X282997Y184756D01*
X283033Y184664D01*
X283061Y184569D01*
X283091Y184516D01*
X283114Y184460D01*
X283172Y184380D01*
X283222Y184295D01*
X283288Y184219D01*
X283300Y184203D01*
X283310Y184195D01*
X283328Y184174D01*
X284227Y183276D01*
X284227Y180960D01*
X282590Y179323D01*
X280274Y179323D01*
X278637Y180960D01*
X278637Y183276D01*
X279536Y184174D01*
X279596Y184252D01*
X279664Y184324D01*
X279693Y184377D01*
X279730Y184425D01*
X279770Y184516D01*
X279818Y184603D01*
X279833Y184661D01*
X279857Y184717D01*
X279872Y184815D01*
X279897Y184911D01*
X279903Y185011D01*
X279907Y185031D01*
X279905Y185043D01*
X279907Y185071D01*
X279907Y190867D01*
X279895Y190965D01*
X279892Y191064D01*
X279875Y191122D01*
X279867Y191182D01*
X279831Y191274D01*
X279803Y191369D01*
X279773Y191422D01*
X279750Y191478D01*
X279692Y191558D01*
X279642Y191643D01*
X279576Y191719D01*
X279564Y191735D01*
X279554Y191743D01*
X279536Y191764D01*
X259723Y211576D01*
X259614Y211661D01*
X259507Y211750D01*
X259488Y211759D01*
X259472Y211771D01*
X259344Y211827D01*
X259219Y211886D01*
X259199Y211889D01*
X259180Y211898D01*
X259042Y211919D01*
X258906Y211945D01*
X258886Y211944D01*
X258866Y211947D01*
X258727Y211934D01*
X258589Y211926D01*
X258570Y211919D01*
X258550Y211918D01*
X258418Y211870D01*
X258287Y211828D01*
X258269Y211817D01*
X258250Y211810D01*
X258135Y211732D01*
X258018Y211657D01*
X258004Y211643D01*
X257987Y211631D01*
X257895Y211527D01*
X257800Y211426D01*
X257790Y211408D01*
X257777Y211393D01*
X257713Y211269D01*
X257646Y211147D01*
X257641Y211128D01*
X257632Y211110D01*
X257602Y210974D01*
X257567Y210839D01*
X257565Y210811D01*
X257562Y210799D01*
X257563Y210779D01*
X257557Y210679D01*
X257557Y198279D01*
X257574Y198141D01*
X257587Y198003D01*
X257594Y197984D01*
X257597Y197964D01*
X257648Y197835D01*
X257695Y197704D01*
X257706Y197687D01*
X257714Y197668D01*
X257795Y197556D01*
X257873Y197441D01*
X257889Y197427D01*
X257900Y197411D01*
X258008Y197322D01*
X258112Y197230D01*
X258130Y197221D01*
X258145Y197208D01*
X258271Y197149D01*
X258395Y197085D01*
X258415Y197081D01*
X258433Y197072D01*
X258570Y197046D01*
X258705Y197016D01*
X258726Y197016D01*
X258745Y197013D01*
X258884Y197021D01*
X259023Y197025D01*
X259043Y197031D01*
X259063Y197032D01*
X259195Y197075D01*
X259329Y197114D01*
X259346Y197124D01*
X259365Y197130D01*
X259483Y197205D01*
X259603Y197275D01*
X259624Y197294D01*
X259634Y197301D01*
X259648Y197316D01*
X259723Y197382D01*
X260716Y198375D01*
X263032Y198375D01*
X263516Y197890D01*
X263610Y197817D01*
X263700Y197738D01*
X263736Y197720D01*
X263768Y197695D01*
X263877Y197648D01*
X263983Y197593D01*
X264022Y197585D01*
X264060Y197569D01*
X264177Y197550D01*
X264293Y197524D01*
X264334Y197525D01*
X264374Y197519D01*
X264492Y197530D01*
X264611Y197533D01*
X264650Y197545D01*
X264690Y197549D01*
X264802Y197589D01*
X264917Y197622D01*
X264952Y197642D01*
X264990Y197656D01*
X265088Y197723D01*
X265191Y197783D01*
X265236Y197823D01*
X265253Y197835D01*
X265266Y197850D01*
X265311Y197890D01*
X265796Y198375D01*
X268112Y198375D01*
X269749Y196738D01*
X269749Y194422D01*
X268112Y192785D01*
X265938Y192785D01*
X265820Y192770D01*
X265701Y192763D01*
X265663Y192750D01*
X265622Y192745D01*
X265512Y192702D01*
X265399Y192665D01*
X265364Y192643D01*
X265327Y192628D01*
X265231Y192559D01*
X265130Y192495D01*
X265102Y192465D01*
X265069Y192442D01*
X264993Y192350D01*
X264912Y192263D01*
X264892Y192228D01*
X264867Y192197D01*
X264816Y192089D01*
X264758Y191985D01*
X264748Y191945D01*
X264731Y191909D01*
X264709Y191792D01*
X264679Y191677D01*
X264675Y191617D01*
X264671Y191597D01*
X264673Y191576D01*
X264669Y191516D01*
X264669Y189342D01*
X263032Y187705D01*
X260716Y187705D01*
X259723Y188698D01*
X259614Y188783D01*
X259507Y188872D01*
X259488Y188881D01*
X259472Y188893D01*
X259345Y188948D01*
X259219Y189008D01*
X259199Y189011D01*
X259180Y189019D01*
X259042Y189041D01*
X258906Y189067D01*
X258886Y189066D01*
X258866Y189069D01*
X258727Y189056D01*
X258589Y189048D01*
X258570Y189041D01*
X258550Y189040D01*
X258418Y188992D01*
X258287Y188950D01*
X258269Y188939D01*
X258250Y188932D01*
X258135Y188854D01*
X258018Y188779D01*
X258004Y188765D01*
X257987Y188753D01*
X257895Y188649D01*
X257800Y188548D01*
X257790Y188530D01*
X257777Y188515D01*
X257713Y188391D01*
X257646Y188269D01*
X257641Y188250D01*
X257632Y188232D01*
X257602Y188096D01*
X257567Y187961D01*
X257565Y187933D01*
X257562Y187921D01*
X257563Y187901D01*
X257557Y187801D01*
X257557Y173133D01*
X257574Y172995D01*
X257587Y172857D01*
X257594Y172838D01*
X257597Y172818D01*
X257648Y172689D01*
X257695Y172558D01*
X257706Y172541D01*
X257714Y172522D01*
X257795Y172410D01*
X257873Y172295D01*
X257889Y172281D01*
X257900Y172265D01*
X258008Y172176D01*
X258112Y172084D01*
X258130Y172075D01*
X258145Y172062D01*
X258271Y172003D01*
X258395Y171939D01*
X258415Y171935D01*
X258433Y171926D01*
X258570Y171900D01*
X258705Y171870D01*
X258726Y171870D01*
X258745Y171867D01*
X258884Y171875D01*
X259023Y171879D01*
X259043Y171885D01*
X259063Y171886D01*
X259195Y171929D01*
X259329Y171968D01*
X259346Y171978D01*
X259365Y171984D01*
X259483Y172059D01*
X259603Y172129D01*
X259624Y172148D01*
X259634Y172155D01*
X259648Y172170D01*
X259723Y172236D01*
X260716Y173229D01*
X263032Y173229D01*
X264669Y171592D01*
X264669Y169276D01*
X263032Y167639D01*
X260716Y167639D01*
X259723Y168632D01*
X259614Y168717D01*
X259507Y168806D01*
X259488Y168815D01*
X259472Y168827D01*
X259345Y168882D01*
X259219Y168942D01*
X259199Y168945D01*
X259180Y168953D01*
X259042Y168975D01*
X258906Y169001D01*
X258886Y169000D01*
X258866Y169003D01*
X258727Y168990D01*
X258589Y168982D01*
X258570Y168975D01*
X258550Y168974D01*
X258418Y168926D01*
X258287Y168884D01*
X258269Y168873D01*
X258250Y168866D01*
X258135Y168788D01*
X258018Y168713D01*
X258004Y168699D01*
X257987Y168687D01*
X257895Y168583D01*
X257800Y168482D01*
X257790Y168464D01*
X257777Y168449D01*
X257713Y168325D01*
X257646Y168203D01*
X257641Y168184D01*
X257632Y168166D01*
X257602Y168030D01*
X257567Y167895D01*
X257565Y167867D01*
X257562Y167855D01*
X257563Y167835D01*
X257557Y167735D01*
X257557Y114459D01*
X257569Y114361D01*
X257572Y114262D01*
X257589Y114204D01*
X257597Y114144D01*
X257633Y114052D01*
X257661Y113957D01*
X257691Y113904D01*
X257714Y113848D01*
X257772Y113768D01*
X257822Y113683D01*
X257888Y113607D01*
X257900Y113591D01*
X257910Y113583D01*
X257928Y113562D01*
X258827Y112664D01*
X258827Y110348D01*
X257190Y108711D01*
X254874Y108711D01*
X253237Y110348D01*
X253237Y112664D01*
X254136Y113562D01*
X254196Y113640D01*
X254264Y113712D01*
X254293Y113765D01*
X254330Y113813D01*
X254370Y113904D01*
X254418Y113991D01*
X254433Y114049D01*
X254457Y114105D01*
X254472Y114203D01*
X254497Y114299D01*
X254503Y114399D01*
X254507Y114419D01*
X254505Y114431D01*
X254507Y114459D01*
X254507Y153416D01*
X254492Y153534D01*
X254485Y153653D01*
X254472Y153691D01*
X254467Y153732D01*
X254424Y153842D01*
X254387Y153955D01*
X254365Y153990D01*
X254350Y154027D01*
X254281Y154123D01*
X254217Y154224D01*
X254187Y154252D01*
X254164Y154285D01*
X254072Y154361D01*
X253985Y154442D01*
X253950Y154462D01*
X253919Y154487D01*
X253811Y154538D01*
X253707Y154596D01*
X253667Y154606D01*
X253631Y154623D01*
X253514Y154645D01*
X253399Y154675D01*
X253339Y154679D01*
X253319Y154683D01*
X253298Y154681D01*
X253238Y154685D01*
X251572Y154685D01*
X249935Y156322D01*
X249935Y158638D01*
X251572Y160275D01*
X253238Y160275D01*
X253356Y160290D01*
X253475Y160297D01*
X253513Y160310D01*
X253554Y160315D01*
X253664Y160358D01*
X253777Y160395D01*
X253812Y160417D01*
X253849Y160432D01*
X253945Y160501D01*
X254046Y160565D01*
X254074Y160595D01*
X254107Y160618D01*
X254183Y160710D01*
X254264Y160797D01*
X254284Y160832D01*
X254309Y160863D01*
X254360Y160971D01*
X254418Y161075D01*
X254428Y161115D01*
X254445Y161151D01*
X254467Y161268D01*
X254497Y161383D01*
X254501Y161443D01*
X254505Y161463D01*
X254503Y161484D01*
X254507Y161544D01*
X254507Y200247D01*
X254490Y200384D01*
X254477Y200523D01*
X254470Y200542D01*
X254467Y200562D01*
X254416Y200691D01*
X254369Y200822D01*
X254358Y200839D01*
X254350Y200858D01*
X254269Y200970D01*
X254191Y201085D01*
X254175Y201099D01*
X254164Y201115D01*
X254056Y201204D01*
X253952Y201296D01*
X253934Y201305D01*
X253919Y201318D01*
X253793Y201377D01*
X253669Y201441D01*
X253649Y201445D01*
X253631Y201454D01*
X253494Y201480D01*
X253359Y201510D01*
X253338Y201510D01*
X253319Y201513D01*
X253180Y201505D01*
X253041Y201501D01*
X253021Y201495D01*
X253001Y201494D01*
X252869Y201451D01*
X252735Y201412D01*
X252718Y201402D01*
X252699Y201396D01*
X252581Y201321D01*
X252461Y201251D01*
X252440Y201232D01*
X252430Y201225D01*
X252416Y201210D01*
X252341Y201144D01*
X250595Y199398D01*
X250522Y199304D01*
X250443Y199215D01*
X250425Y199179D01*
X250400Y199147D01*
X250352Y199038D01*
X250298Y198932D01*
X250290Y198892D01*
X250274Y198855D01*
X250255Y198738D01*
X250229Y198622D01*
X250230Y198581D01*
X250224Y198541D01*
X250235Y198423D01*
X250238Y198304D01*
X250250Y198265D01*
X250254Y198225D01*
X250294Y198112D01*
X250327Y197998D01*
X250347Y197963D01*
X250361Y197925D01*
X250428Y197827D01*
X250488Y197724D01*
X250528Y197679D01*
X250540Y197662D01*
X250555Y197649D01*
X250595Y197603D01*
X251461Y196738D01*
X251461Y194422D01*
X249824Y192785D01*
X247142Y192785D01*
X247024Y192770D01*
X246905Y192763D01*
X246867Y192750D01*
X246826Y192745D01*
X246716Y192702D01*
X246603Y192665D01*
X246568Y192643D01*
X246531Y192628D01*
X246435Y192559D01*
X246334Y192495D01*
X246306Y192465D01*
X246273Y192442D01*
X246197Y192350D01*
X246116Y192263D01*
X246096Y192228D01*
X246071Y192197D01*
X246020Y192089D01*
X245962Y191985D01*
X245952Y191945D01*
X245935Y191909D01*
X245913Y191792D01*
X245883Y191677D01*
X245879Y191617D01*
X245875Y191597D01*
X245877Y191576D01*
X245873Y191516D01*
X245873Y190358D01*
X244236Y188721D01*
X241920Y188721D01*
X240419Y190222D01*
X240310Y190307D01*
X240203Y190396D01*
X240184Y190405D01*
X240168Y190417D01*
X240040Y190473D01*
X239915Y190532D01*
X239895Y190535D01*
X239876Y190543D01*
X239738Y190565D01*
X239602Y190591D01*
X239582Y190590D01*
X239562Y190593D01*
X239423Y190580D01*
X239285Y190572D01*
X239266Y190565D01*
X239246Y190564D01*
X239114Y190516D01*
X238983Y190474D01*
X238965Y190463D01*
X238946Y190456D01*
X238831Y190378D01*
X238714Y190303D01*
X238700Y190289D01*
X238683Y190277D01*
X238591Y190173D01*
X238496Y190072D01*
X238486Y190054D01*
X238473Y190039D01*
X238409Y189915D01*
X238342Y189793D01*
X238337Y189774D01*
X238328Y189756D01*
X238298Y189620D01*
X238263Y189485D01*
X238261Y189457D01*
X238258Y189445D01*
X238259Y189425D01*
X238254Y189344D01*
X236616Y187705D01*
X234300Y187705D01*
X232663Y189342D01*
X232663Y191658D01*
X234300Y193295D01*
X236079Y193295D01*
X236216Y193312D01*
X236355Y193325D01*
X236374Y193332D01*
X236394Y193335D01*
X236523Y193386D01*
X236654Y193433D01*
X236671Y193444D01*
X236690Y193452D01*
X236802Y193533D01*
X236918Y193611D01*
X236931Y193627D01*
X236947Y193638D01*
X237036Y193746D01*
X237128Y193850D01*
X237137Y193868D01*
X237150Y193883D01*
X237209Y194009D01*
X237273Y194133D01*
X237277Y194153D01*
X237286Y194171D01*
X237312Y194307D01*
X237342Y194443D01*
X237342Y194464D01*
X237345Y194483D01*
X237337Y194622D01*
X237333Y194761D01*
X237327Y194781D01*
X237326Y194801D01*
X237283Y194933D01*
X237244Y195067D01*
X237234Y195084D01*
X237228Y195103D01*
X237153Y195221D01*
X237083Y195341D01*
X237064Y195362D01*
X237057Y195372D01*
X237042Y195386D01*
X236976Y195461D01*
X226562Y205876D01*
X225297Y207140D01*
X225297Y208800D01*
X225280Y208938D01*
X225267Y209076D01*
X225260Y209096D01*
X225257Y209116D01*
X225206Y209245D01*
X225159Y209376D01*
X225148Y209393D01*
X225140Y209411D01*
X225059Y209524D01*
X224981Y209639D01*
X224965Y209652D01*
X224954Y209669D01*
X224846Y209757D01*
X224742Y209849D01*
X224724Y209859D01*
X224709Y209871D01*
X224583Y209931D01*
X224459Y209994D01*
X224439Y209998D01*
X224421Y210007D01*
X224285Y210033D01*
X224149Y210064D01*
X224128Y210063D01*
X224109Y210067D01*
X223970Y210058D01*
X223831Y210054D01*
X223811Y210048D01*
X223791Y210047D01*
X223659Y210004D01*
X223525Y209966D01*
X223508Y209955D01*
X223489Y209949D01*
X223371Y209874D01*
X223251Y209804D01*
X223230Y209785D01*
X223220Y209779D01*
X223206Y209764D01*
X223131Y209698D01*
X221474Y208041D01*
X218962Y208041D01*
X217051Y209952D01*
X216942Y210037D01*
X216835Y210125D01*
X216816Y210134D01*
X216800Y210147D01*
X216672Y210202D01*
X216547Y210261D01*
X216527Y210265D01*
X216508Y210273D01*
X216370Y210295D01*
X216234Y210321D01*
X216214Y210320D01*
X216194Y210323D01*
X216055Y210310D01*
X215917Y210301D01*
X215898Y210295D01*
X215878Y210293D01*
X215746Y210246D01*
X215615Y210203D01*
X215597Y210192D01*
X215578Y210185D01*
X215463Y210107D01*
X215346Y210033D01*
X215332Y210018D01*
X215315Y210007D01*
X215223Y209902D01*
X215128Y209801D01*
X215118Y209784D01*
X215105Y209768D01*
X215041Y209644D01*
X214974Y209523D01*
X214969Y209503D01*
X214960Y209485D01*
X214930Y209349D01*
X214895Y209215D01*
X214893Y209187D01*
X214890Y209175D01*
X214891Y209154D01*
X214885Y209054D01*
X214885Y182023D01*
X214902Y181885D01*
X214915Y181747D01*
X214922Y181728D01*
X214925Y181708D01*
X214976Y181579D01*
X215023Y181448D01*
X215034Y181431D01*
X215042Y181412D01*
X215123Y181300D01*
X215201Y181185D01*
X215217Y181171D01*
X215228Y181155D01*
X215336Y181066D01*
X215440Y180974D01*
X215458Y180965D01*
X215473Y180952D01*
X215599Y180893D01*
X215723Y180829D01*
X215743Y180825D01*
X215761Y180816D01*
X215898Y180790D01*
X216033Y180760D01*
X216054Y180760D01*
X216073Y180757D01*
X216212Y180765D01*
X216351Y180769D01*
X216371Y180775D01*
X216391Y180776D01*
X216523Y180819D01*
X216657Y180858D01*
X216674Y180868D01*
X216693Y180874D01*
X216811Y180949D01*
X216931Y181019D01*
X216952Y181038D01*
X216962Y181045D01*
X216976Y181060D01*
X217051Y181126D01*
X217536Y181611D01*
X219852Y181611D01*
X220209Y181253D01*
X220303Y181180D01*
X220393Y181101D01*
X220429Y181083D01*
X220461Y181058D01*
X220570Y181011D01*
X220676Y180956D01*
X220715Y180948D01*
X220753Y180932D01*
X220870Y180913D01*
X220986Y180887D01*
X221027Y180888D01*
X221067Y180882D01*
X221185Y180893D01*
X221304Y180896D01*
X221343Y180908D01*
X221383Y180912D01*
X221495Y180952D01*
X221610Y180985D01*
X221645Y181005D01*
X221683Y181019D01*
X221781Y181086D01*
X221884Y181146D01*
X221929Y181186D01*
X221946Y181198D01*
X221959Y181213D01*
X222004Y181253D01*
X222362Y181611D01*
X224678Y181611D01*
X226306Y179983D01*
X226400Y179910D01*
X226489Y179831D01*
X226525Y179813D01*
X226557Y179788D01*
X226666Y179741D01*
X226772Y179686D01*
X226811Y179678D01*
X226849Y179662D01*
X226966Y179643D01*
X227082Y179617D01*
X227123Y179618D01*
X227163Y179612D01*
X227281Y179623D01*
X227400Y179626D01*
X227439Y179638D01*
X227479Y179642D01*
X227591Y179682D01*
X227706Y179715D01*
X227741Y179735D01*
X227779Y179749D01*
X227877Y179816D01*
X227980Y179876D01*
X228025Y179916D01*
X228042Y179928D01*
X228055Y179943D01*
X228101Y179983D01*
X229220Y181103D01*
X231536Y181103D01*
X233173Y179466D01*
X233173Y177150D01*
X231536Y175513D01*
X229220Y175513D01*
X227593Y177141D01*
X227498Y177214D01*
X227409Y177293D01*
X227373Y177311D01*
X227341Y177336D01*
X227232Y177383D01*
X227126Y177438D01*
X227087Y177446D01*
X227049Y177462D01*
X226932Y177481D01*
X226816Y177507D01*
X226775Y177506D01*
X226735Y177512D01*
X226617Y177501D01*
X226498Y177498D01*
X226459Y177486D01*
X226419Y177482D01*
X226306Y177442D01*
X226192Y177409D01*
X226158Y177389D01*
X226119Y177375D01*
X226021Y177308D01*
X225918Y177248D01*
X225873Y177208D01*
X225856Y177196D01*
X225843Y177181D01*
X225798Y177141D01*
X224678Y176021D01*
X222362Y176021D01*
X222004Y176379D01*
X221910Y176452D01*
X221821Y176531D01*
X221785Y176549D01*
X221753Y176574D01*
X221644Y176621D01*
X221538Y176676D01*
X221499Y176684D01*
X221461Y176700D01*
X221344Y176719D01*
X221228Y176745D01*
X221187Y176744D01*
X221147Y176750D01*
X221029Y176739D01*
X220910Y176736D01*
X220871Y176724D01*
X220831Y176720D01*
X220719Y176680D01*
X220604Y176647D01*
X220569Y176627D01*
X220531Y176613D01*
X220433Y176546D01*
X220330Y176486D01*
X220285Y176446D01*
X220268Y176434D01*
X220255Y176419D01*
X220209Y176379D01*
X219852Y176021D01*
X217536Y176021D01*
X217051Y176506D01*
X216942Y176591D01*
X216835Y176680D01*
X216816Y176689D01*
X216800Y176701D01*
X216672Y176756D01*
X216547Y176816D01*
X216527Y176819D01*
X216508Y176827D01*
X216370Y176849D01*
X216234Y176875D01*
X216214Y176874D01*
X216194Y176877D01*
X216055Y176864D01*
X215917Y176856D01*
X215898Y176849D01*
X215878Y176848D01*
X215747Y176800D01*
X215615Y176758D01*
X215597Y176747D01*
X215578Y176740D01*
X215464Y176662D01*
X215346Y176587D01*
X215332Y176573D01*
X215315Y176561D01*
X215223Y176457D01*
X215128Y176356D01*
X215118Y176338D01*
X215105Y176323D01*
X215042Y176199D01*
X214974Y176077D01*
X214969Y176058D01*
X214960Y176040D01*
X214930Y175904D01*
X214895Y175769D01*
X214893Y175741D01*
X214890Y175729D01*
X214891Y175709D01*
X214885Y175609D01*
X214885Y168278D01*
X212462Y165856D01*
X212402Y165778D01*
X212334Y165706D01*
X212305Y165653D01*
X212268Y165605D01*
X212228Y165514D01*
X212180Y165427D01*
X212165Y165369D01*
X212141Y165313D01*
X212126Y165215D01*
X212101Y165119D01*
X212095Y165019D01*
X212091Y164999D01*
X212093Y164987D01*
X212091Y164959D01*
X212091Y163688D01*
X210454Y162051D01*
X208138Y162051D01*
X206882Y163307D01*
X206788Y163380D01*
X206699Y163459D01*
X206663Y163477D01*
X206631Y163502D01*
X206522Y163549D01*
X206416Y163604D01*
X206377Y163612D01*
X206339Y163628D01*
X206222Y163647D01*
X206106Y163673D01*
X206065Y163672D01*
X206025Y163678D01*
X205907Y163667D01*
X205788Y163664D01*
X205749Y163652D01*
X205709Y163649D01*
X205596Y163608D01*
X205482Y163575D01*
X205447Y163555D01*
X205409Y163541D01*
X205311Y163474D01*
X205208Y163414D01*
X205163Y163374D01*
X205146Y163362D01*
X205133Y163347D01*
X205087Y163307D01*
X176394Y134614D01*
X176334Y134536D01*
X176266Y134464D01*
X176237Y134411D01*
X176200Y134363D01*
X176160Y134272D01*
X176112Y134185D01*
X176097Y134127D01*
X176073Y134071D01*
X176058Y133973D01*
X176033Y133877D01*
X176027Y133777D01*
X176023Y133757D01*
X176025Y133745D01*
X176023Y133717D01*
X176023Y83820D01*
X176038Y83702D01*
X176045Y83583D01*
X176058Y83545D01*
X176063Y83504D01*
X176106Y83394D01*
X176143Y83281D01*
X176165Y83246D01*
X176180Y83209D01*
X176249Y83113D01*
X176313Y83012D01*
X176343Y82984D01*
X176366Y82951D01*
X176458Y82875D01*
X176545Y82794D01*
X176580Y82774D01*
X176611Y82749D01*
X176719Y82698D01*
X176823Y82640D01*
X176863Y82630D01*
X176899Y82613D01*
X177016Y82591D01*
X177131Y82561D01*
X177191Y82557D01*
X177211Y82553D01*
X177232Y82555D01*
X177292Y82551D01*
X178958Y82551D01*
X180966Y80542D01*
X181060Y80469D01*
X181150Y80390D01*
X181168Y80381D01*
X181183Y80368D01*
X181202Y80359D01*
X181218Y80347D01*
X181326Y80300D01*
X181433Y80245D01*
X181453Y80241D01*
X181471Y80232D01*
X181491Y80229D01*
X181510Y80221D01*
X181626Y80202D01*
X181743Y80176D01*
X181764Y80176D01*
X181783Y80173D01*
X181804Y80174D01*
X181824Y80171D01*
X181941Y80182D01*
X182061Y80185D01*
X182081Y80191D01*
X182101Y80192D01*
X182120Y80199D01*
X182140Y80201D01*
X182252Y80241D01*
X182367Y80274D01*
X182384Y80284D01*
X182403Y80290D01*
X182421Y80301D01*
X182440Y80308D01*
X182538Y80375D01*
X182641Y80435D01*
X182662Y80454D01*
X182672Y80461D01*
X182686Y80475D01*
X182703Y80487D01*
X182716Y80502D01*
X182761Y80542D01*
X184262Y82043D01*
X186578Y82043D01*
X188215Y80406D01*
X188215Y78090D01*
X186578Y76453D01*
X184242Y76453D01*
X184233Y76469D01*
X184214Y76490D01*
X184207Y76500D01*
X184192Y76514D01*
X184126Y76589D01*
X182254Y78462D01*
X182160Y78535D01*
X182070Y78614D01*
X182052Y78623D01*
X182037Y78636D01*
X182018Y78645D01*
X182002Y78657D01*
X181894Y78704D01*
X181787Y78759D01*
X181767Y78763D01*
X181749Y78772D01*
X181729Y78775D01*
X181710Y78783D01*
X181594Y78802D01*
X181477Y78828D01*
X181456Y78828D01*
X181437Y78831D01*
X181416Y78830D01*
X181396Y78833D01*
X181279Y78822D01*
X181159Y78819D01*
X181139Y78813D01*
X181119Y78812D01*
X181100Y78805D01*
X181080Y78803D01*
X180968Y78763D01*
X180853Y78730D01*
X180836Y78720D01*
X180817Y78714D01*
X180799Y78703D01*
X180780Y78696D01*
X180682Y78629D01*
X180579Y78569D01*
X180558Y78550D01*
X180548Y78543D01*
X180534Y78528D01*
X180517Y78517D01*
X180504Y78502D01*
X180459Y78462D01*
X178958Y76961D01*
X178562Y76961D01*
X178444Y76946D01*
X178325Y76939D01*
X178287Y76926D01*
X178246Y76921D01*
X178136Y76878D01*
X178023Y76841D01*
X177988Y76819D01*
X177951Y76804D01*
X177855Y76735D01*
X177754Y76671D01*
X177726Y76641D01*
X177693Y76618D01*
X177617Y76526D01*
X177536Y76439D01*
X177516Y76404D01*
X177491Y76373D01*
X177440Y76265D01*
X177382Y76161D01*
X177372Y76121D01*
X177355Y76085D01*
X177333Y75968D01*
X177303Y75853D01*
X177299Y75793D01*
X177295Y75773D01*
X177297Y75752D01*
X177293Y75692D01*
X177293Y75296D01*
X175656Y73659D01*
X173340Y73659D01*
X171703Y75296D01*
X171703Y77612D01*
X172602Y78510D01*
X172662Y78588D01*
X172730Y78660D01*
X172759Y78713D01*
X172796Y78761D01*
X172836Y78852D01*
X172884Y78939D01*
X172899Y78997D01*
X172923Y79053D01*
X172938Y79151D01*
X172963Y79247D01*
X172969Y79347D01*
X172973Y79367D01*
X172971Y79379D01*
X172973Y79407D01*
X172973Y135506D01*
X209432Y171964D01*
X209492Y172042D01*
X209560Y172114D01*
X209589Y172167D01*
X209626Y172215D01*
X209666Y172306D01*
X209714Y172393D01*
X209729Y172451D01*
X209753Y172507D01*
X209768Y172605D01*
X209793Y172701D01*
X209799Y172800D01*
X209803Y172821D01*
X209801Y172833D01*
X209803Y172861D01*
X209803Y174752D01*
X209788Y174870D01*
X209781Y174989D01*
X209768Y175027D01*
X209763Y175068D01*
X209720Y175178D01*
X209683Y175291D01*
X209661Y175326D01*
X209646Y175363D01*
X209577Y175459D01*
X209513Y175560D01*
X209483Y175588D01*
X209460Y175621D01*
X209368Y175697D01*
X209281Y175778D01*
X209246Y175798D01*
X209215Y175823D01*
X209107Y175874D01*
X209003Y175932D01*
X208963Y175942D01*
X208927Y175959D01*
X208810Y175981D01*
X208695Y176011D01*
X208635Y176015D01*
X208615Y176019D01*
X208594Y176017D01*
X208534Y176021D01*
X206868Y176021D01*
X205621Y177268D01*
X205527Y177341D01*
X205438Y177420D01*
X205402Y177438D01*
X205370Y177463D01*
X205261Y177510D01*
X205155Y177565D01*
X205116Y177573D01*
X205078Y177589D01*
X204961Y177608D01*
X204845Y177634D01*
X204804Y177633D01*
X204764Y177639D01*
X204646Y177628D01*
X204527Y177625D01*
X204488Y177613D01*
X204448Y177609D01*
X204336Y177569D01*
X204221Y177536D01*
X204186Y177516D01*
X204148Y177502D01*
X204050Y177435D01*
X203947Y177375D01*
X203902Y177335D01*
X203885Y177323D01*
X203872Y177308D01*
X203826Y177268D01*
X202580Y176021D01*
X201563Y176021D01*
X201465Y176009D01*
X201366Y176006D01*
X201308Y175989D01*
X201248Y175981D01*
X201156Y175945D01*
X201061Y175917D01*
X201008Y175887D01*
X200952Y175864D01*
X200872Y175806D01*
X200787Y175756D01*
X200711Y175690D01*
X200695Y175678D01*
X200687Y175668D01*
X200666Y175650D01*
X194688Y169671D01*
X145034Y169671D01*
X144916Y169656D01*
X144797Y169649D01*
X144759Y169636D01*
X144718Y169631D01*
X144608Y169588D01*
X144495Y169551D01*
X144460Y169529D01*
X144423Y169514D01*
X144327Y169445D01*
X144226Y169381D01*
X144198Y169351D01*
X144165Y169328D01*
X144089Y169236D01*
X144008Y169149D01*
X143988Y169114D01*
X143963Y169083D01*
X143912Y168975D01*
X143854Y168871D01*
X143844Y168831D01*
X143827Y168795D01*
X143805Y168678D01*
X143775Y168563D01*
X143771Y168503D01*
X143767Y168483D01*
X143769Y168462D01*
X143765Y168402D01*
X143765Y162436D01*
X133102Y151773D01*
X133017Y151664D01*
X132928Y151557D01*
X132919Y151538D01*
X132907Y151522D01*
X132851Y151394D01*
X132792Y151269D01*
X132789Y151249D01*
X132780Y151230D01*
X132759Y151092D01*
X132733Y150956D01*
X132734Y150936D01*
X132731Y150916D01*
X132744Y150777D01*
X132752Y150639D01*
X132759Y150620D01*
X132760Y150600D01*
X132808Y150468D01*
X132850Y150337D01*
X132861Y150319D01*
X132868Y150300D01*
X132946Y150185D01*
X133021Y150068D01*
X133035Y150054D01*
X133047Y150037D01*
X133151Y149945D01*
X133252Y149850D01*
X133270Y149840D01*
X133285Y149827D01*
X133409Y149763D01*
X133531Y149696D01*
X133550Y149691D01*
X133568Y149682D01*
X133704Y149652D01*
X133839Y149617D01*
X133867Y149615D01*
X133879Y149612D01*
X133899Y149613D01*
X133999Y149607D01*
X135524Y149607D01*
X136009Y149122D01*
X136103Y149048D01*
X136192Y148970D01*
X136210Y148961D01*
X136225Y148948D01*
X136244Y148939D01*
X136260Y148927D01*
X136370Y148879D01*
X136475Y148826D01*
X136495Y148821D01*
X136513Y148812D01*
X136533Y148809D01*
X136552Y148801D01*
X136670Y148782D01*
X136785Y148756D01*
X136805Y148756D01*
X136826Y148753D01*
X136846Y148754D01*
X136866Y148751D01*
X136985Y148762D01*
X137103Y148766D01*
X137122Y148771D01*
X137143Y148772D01*
X137162Y148779D01*
X137182Y148780D01*
X137295Y148821D01*
X137409Y148854D01*
X137426Y148864D01*
X137445Y148870D01*
X137463Y148881D01*
X137482Y148888D01*
X137581Y148955D01*
X137683Y149015D01*
X137704Y149034D01*
X137714Y149041D01*
X137728Y149055D01*
X137745Y149067D01*
X137758Y149082D01*
X137804Y149122D01*
X139812Y151131D01*
X142128Y151131D01*
X143765Y149494D01*
X143765Y147178D01*
X142128Y145541D01*
X140857Y145541D01*
X140759Y145529D01*
X140660Y145526D01*
X140602Y145509D01*
X140542Y145501D01*
X140450Y145465D01*
X140355Y145437D01*
X140302Y145407D01*
X140246Y145384D01*
X140166Y145326D01*
X140081Y145276D01*
X140005Y145210D01*
X139989Y145198D01*
X139981Y145188D01*
X139960Y145170D01*
X122292Y127502D01*
X122232Y127424D01*
X122164Y127352D01*
X122135Y127299D01*
X122098Y127251D01*
X122058Y127160D01*
X122010Y127073D01*
X121995Y127015D01*
X121971Y126959D01*
X121956Y126861D01*
X121931Y126765D01*
X121925Y126665D01*
X121921Y126645D01*
X121923Y126633D01*
X121921Y126605D01*
X121921Y123857D01*
X121933Y123759D01*
X121936Y123660D01*
X121953Y123602D01*
X121961Y123542D01*
X121997Y123450D01*
X122025Y123355D01*
X122055Y123302D01*
X122078Y123246D01*
X122136Y123166D01*
X122186Y123081D01*
X122252Y123005D01*
X122264Y122989D01*
X122274Y122981D01*
X122292Y122960D01*
X123191Y122062D01*
X123191Y119746D01*
X121554Y118109D01*
X119238Y118109D01*
X117601Y119746D01*
X117601Y122062D01*
X118500Y122960D01*
X118560Y123038D01*
X118628Y123110D01*
X118657Y123163D01*
X118694Y123211D01*
X118734Y123302D01*
X118782Y123389D01*
X118797Y123447D01*
X118821Y123503D01*
X118836Y123601D01*
X118861Y123697D01*
X118867Y123797D01*
X118871Y123817D01*
X118869Y123829D01*
X118871Y123857D01*
X118871Y128394D01*
X120136Y129658D01*
X132954Y142476D01*
X133027Y142571D01*
X133106Y142660D01*
X133124Y142696D01*
X133149Y142728D01*
X133197Y142837D01*
X133251Y142943D01*
X133259Y142982D01*
X133275Y143020D01*
X133294Y143137D01*
X133320Y143253D01*
X133319Y143294D01*
X133325Y143334D01*
X133314Y143452D01*
X133311Y143571D01*
X133299Y143610D01*
X133296Y143650D01*
X133255Y143762D01*
X133222Y143877D01*
X133202Y143911D01*
X133188Y143950D01*
X133121Y144048D01*
X133061Y144151D01*
X133021Y144196D01*
X133009Y144213D01*
X132994Y144226D01*
X132954Y144271D01*
X131532Y145694D01*
X131531Y145698D01*
X131480Y145827D01*
X131433Y145958D01*
X131422Y145975D01*
X131414Y145994D01*
X131333Y146106D01*
X131255Y146221D01*
X131239Y146235D01*
X131228Y146251D01*
X131120Y146340D01*
X131016Y146432D01*
X130998Y146441D01*
X130983Y146454D01*
X130857Y146513D01*
X130733Y146577D01*
X130713Y146581D01*
X130695Y146590D01*
X130558Y146616D01*
X130423Y146646D01*
X130402Y146646D01*
X130383Y146649D01*
X130244Y146641D01*
X130105Y146637D01*
X130085Y146631D01*
X130065Y146630D01*
X129933Y146587D01*
X129799Y146548D01*
X129782Y146538D01*
X129763Y146532D01*
X129645Y146457D01*
X129525Y146387D01*
X129504Y146368D01*
X129494Y146361D01*
X129480Y146346D01*
X129405Y146280D01*
X128412Y145287D01*
X126096Y145287D01*
X124459Y146924D01*
X124459Y147828D01*
X124444Y147946D01*
X124437Y148065D01*
X124424Y148103D01*
X124419Y148144D01*
X124376Y148254D01*
X124339Y148367D01*
X124317Y148402D01*
X124302Y148439D01*
X124233Y148535D01*
X124169Y148636D01*
X124139Y148664D01*
X124116Y148697D01*
X124024Y148773D01*
X123937Y148854D01*
X123902Y148874D01*
X123871Y148899D01*
X123763Y148950D01*
X123659Y149008D01*
X123619Y149018D01*
X123583Y149035D01*
X123466Y149057D01*
X123351Y149087D01*
X123310Y149090D01*
X121665Y150734D01*
X121665Y153050D01*
X123318Y154702D01*
X123427Y154709D01*
X123465Y154722D01*
X123506Y154727D01*
X123616Y154770D01*
X123729Y154807D01*
X123764Y154829D01*
X123801Y154844D01*
X123897Y154913D01*
X123998Y154977D01*
X124026Y155007D01*
X124059Y155030D01*
X124135Y155122D01*
X124216Y155209D01*
X124236Y155244D01*
X124261Y155275D01*
X124312Y155383D01*
X124370Y155487D01*
X124380Y155527D01*
X124397Y155563D01*
X124419Y155680D01*
X124449Y155795D01*
X124453Y155855D01*
X124457Y155875D01*
X124455Y155896D01*
X124459Y155956D01*
X124459Y156860D01*
X126096Y158497D01*
X127367Y158497D01*
X127465Y158509D01*
X127564Y158512D01*
X127622Y158529D01*
X127682Y158537D01*
X127774Y158573D01*
X127869Y158601D01*
X127922Y158631D01*
X127978Y158654D01*
X128058Y158712D01*
X128143Y158762D01*
X128219Y158828D01*
X128235Y158840D01*
X128243Y158850D01*
X128264Y158868D01*
X131708Y162312D01*
X131768Y162390D01*
X131836Y162462D01*
X131865Y162515D01*
X131902Y162563D01*
X131942Y162654D01*
X131990Y162741D01*
X132005Y162799D01*
X132029Y162855D01*
X132044Y162953D01*
X132069Y163049D01*
X132075Y163149D01*
X132079Y163169D01*
X132077Y163181D01*
X132079Y163209D01*
X132079Y233285D01*
X132062Y233422D01*
X132049Y233561D01*
X132042Y233580D01*
X132039Y233600D01*
X131988Y233729D01*
X131941Y233860D01*
X131930Y233877D01*
X131922Y233896D01*
X131841Y234008D01*
X131763Y234124D01*
X131747Y234137D01*
X131736Y234153D01*
X131628Y234242D01*
X131524Y234334D01*
X131506Y234343D01*
X131491Y234356D01*
X131365Y234415D01*
X131241Y234479D01*
X131221Y234483D01*
X131203Y234492D01*
X131067Y234518D01*
X130931Y234548D01*
X130910Y234548D01*
X130891Y234551D01*
X130752Y234543D01*
X130613Y234539D01*
X130593Y234533D01*
X130573Y234532D01*
X130441Y234489D01*
X130307Y234450D01*
X130290Y234440D01*
X130271Y234434D01*
X130153Y234359D01*
X130033Y234289D01*
X130012Y234270D01*
X130002Y234263D01*
X129988Y234249D01*
X129913Y234182D01*
X104512Y208782D01*
X103248Y207517D01*
X101265Y207517D01*
X101167Y207505D01*
X101068Y207502D01*
X101009Y207485D01*
X100949Y207477D01*
X100857Y207441D01*
X100762Y207413D01*
X100710Y207383D01*
X100654Y207360D01*
X100573Y207302D01*
X100488Y207252D01*
X100413Y207186D01*
X100396Y207174D01*
X100388Y207164D01*
X100367Y207146D01*
X93971Y200750D01*
X93911Y200671D01*
X93843Y200599D01*
X93814Y200546D01*
X93777Y200498D01*
X93737Y200407D01*
X93689Y200321D01*
X93674Y200262D01*
X93650Y200207D01*
X93635Y200109D01*
X93610Y200013D01*
X93604Y199913D01*
X93600Y199892D01*
X93602Y199880D01*
X93600Y199852D01*
X93600Y191516D01*
X93615Y191398D01*
X93622Y191279D01*
X93635Y191241D01*
X93640Y191200D01*
X93683Y191090D01*
X93720Y190977D01*
X93742Y190942D01*
X93757Y190905D01*
X93826Y190809D01*
X93890Y190708D01*
X93920Y190680D01*
X93943Y190647D01*
X94035Y190571D01*
X94122Y190490D01*
X94157Y190470D01*
X94188Y190445D01*
X94296Y190394D01*
X94400Y190336D01*
X94440Y190326D01*
X94476Y190309D01*
X94593Y190287D01*
X94708Y190257D01*
X94768Y190253D01*
X94788Y190249D01*
X94809Y190251D01*
X94869Y190247D01*
X96662Y190247D01*
X98299Y188610D01*
X98299Y186294D01*
X96662Y184657D01*
X94869Y184657D01*
X94751Y184642D01*
X94632Y184635D01*
X94594Y184622D01*
X94553Y184617D01*
X94443Y184574D01*
X94330Y184537D01*
X94295Y184515D01*
X94258Y184500D01*
X94162Y184431D01*
X94061Y184367D01*
X94033Y184337D01*
X94000Y184314D01*
X93924Y184222D01*
X93843Y184135D01*
X93823Y184100D01*
X93798Y184069D01*
X93747Y183961D01*
X93689Y183857D01*
X93679Y183817D01*
X93662Y183781D01*
X93640Y183664D01*
X93610Y183549D01*
X93606Y183489D01*
X93602Y183469D01*
X93604Y183448D01*
X93600Y183388D01*
X93600Y129517D01*
X93612Y129419D01*
X93615Y129320D01*
X93632Y129261D01*
X93640Y129201D01*
X93676Y129109D01*
X93704Y129014D01*
X93734Y128962D01*
X93757Y128906D01*
X93815Y128825D01*
X93865Y128740D01*
X93931Y128665D01*
X93943Y128648D01*
X93953Y128640D01*
X93971Y128619D01*
X94981Y127610D01*
X94981Y121162D01*
X61788Y87969D01*
X61727Y87890D01*
X61659Y87818D01*
X61630Y87765D01*
X61593Y87717D01*
X61553Y87626D01*
X61505Y87540D01*
X61490Y87481D01*
X61466Y87426D01*
X61451Y87328D01*
X61426Y87232D01*
X61420Y87132D01*
X61416Y87111D01*
X61418Y87099D01*
X61416Y87071D01*
X61416Y17577D01*
X61428Y17479D01*
X61431Y17380D01*
X61448Y17321D01*
X61456Y17261D01*
X61492Y17169D01*
X61520Y17074D01*
X61550Y17022D01*
X61573Y16966D01*
X61631Y16886D01*
X61681Y16800D01*
X61748Y16725D01*
X61760Y16708D01*
X61769Y16701D01*
X61788Y16679D01*
X64902Y13564D01*
X64981Y13504D01*
X65053Y13436D01*
X65106Y13407D01*
X65154Y13370D01*
X65245Y13330D01*
X65331Y13282D01*
X65390Y13267D01*
X65446Y13243D01*
X65544Y13228D01*
X65639Y13203D01*
X65739Y13197D01*
X65760Y13193D01*
X65772Y13195D01*
X65800Y13193D01*
X67227Y13193D01*
X69004Y11416D01*
X69004Y8904D01*
X67227Y7127D01*
X66024Y7127D01*
X65906Y7112D01*
X65787Y7105D01*
X65749Y7092D01*
X65708Y7087D01*
X65598Y7044D01*
X65485Y7007D01*
X65450Y6985D01*
X65413Y6970D01*
X65317Y6901D01*
X65216Y6837D01*
X65188Y6807D01*
X65155Y6784D01*
X65079Y6692D01*
X64998Y6605D01*
X64978Y6570D01*
X64953Y6539D01*
X64902Y6431D01*
X64844Y6327D01*
X64834Y6287D01*
X64817Y6251D01*
X64795Y6134D01*
X64765Y6019D01*
X64761Y5959D01*
X64757Y5939D01*
X64759Y5918D01*
X64755Y5858D01*
X64755Y3810D01*
X64770Y3692D01*
X64777Y3573D01*
X64790Y3535D01*
X64795Y3494D01*
X64838Y3384D01*
X64875Y3271D01*
X64897Y3236D01*
X64912Y3199D01*
X64981Y3103D01*
X65045Y3002D01*
X65075Y2974D01*
X65098Y2941D01*
X65190Y2865D01*
X65277Y2784D01*
X65312Y2764D01*
X65343Y2739D01*
X65451Y2688D01*
X65555Y2630D01*
X65595Y2620D01*
X65631Y2603D01*
X65748Y2581D01*
X65863Y2551D01*
X65923Y2547D01*
X65943Y2543D01*
X65964Y2545D01*
X66024Y2541D01*
X361950Y2541D01*
X361972Y2543D01*
X362050Y2545D01*
X364434Y2732D01*
X364501Y2746D01*
X364570Y2751D01*
X364726Y2790D01*
X369261Y4264D01*
X369368Y4314D01*
X369479Y4358D01*
X369530Y4391D01*
X369549Y4399D01*
X369564Y4412D01*
X369615Y4444D01*
X373472Y7247D01*
X373559Y7328D01*
X373650Y7404D01*
X373689Y7451D01*
X373704Y7465D01*
X373715Y7482D01*
X373753Y7528D01*
X376556Y11385D01*
X376575Y11420D01*
X376600Y11451D01*
X376634Y11522D01*
X376677Y11589D01*
X376699Y11646D01*
X376709Y11664D01*
X376714Y11683D01*
X376736Y11738D01*
X376736Y11739D01*
X378210Y16274D01*
X378222Y16342D01*
X378245Y16407D01*
X378268Y16566D01*
X378455Y18950D01*
X378455Y18956D01*
X378456Y18960D01*
X378455Y18980D01*
X378459Y19050D01*
X378459Y443230D01*
X378458Y443239D01*
X378459Y443248D01*
X378438Y443396D01*
X378419Y443546D01*
X378416Y443554D01*
X378415Y443563D01*
X378358Y443700D01*
X378330Y443773D01*
X378447Y444591D01*
X378447Y444601D01*
X378449Y444610D01*
X378459Y444771D01*
X378459Y445679D01*
X378480Y445743D01*
X378520Y445835D01*
X378529Y445893D01*
X378548Y445949D01*
X378568Y446109D01*
X378680Y447878D01*
X378676Y447947D01*
X378681Y448015D01*
X378664Y448176D01*
X377664Y453921D01*
X377629Y454035D01*
X377602Y454150D01*
X377577Y454206D01*
X377571Y454225D01*
X377560Y454243D01*
X377536Y454297D01*
X374810Y459453D01*
X374741Y459550D01*
X374679Y459651D01*
X374639Y459696D01*
X374627Y459713D01*
X374611Y459726D01*
X374571Y459770D01*
X370385Y463831D01*
X370290Y463903D01*
X370200Y463980D01*
X370147Y464010D01*
X370131Y464022D01*
X370112Y464030D01*
X370060Y464060D01*
X364824Y466628D01*
X364759Y466651D01*
X364698Y466682D01*
X364543Y466727D01*
X361860Y467329D01*
X361800Y467334D01*
X361743Y467349D01*
X361582Y467359D01*
X25400Y467359D01*
X25378Y467357D01*
X25300Y467355D01*
X21923Y467090D01*
X21855Y467076D01*
X21786Y467071D01*
X21693Y467047D01*
X21685Y467046D01*
X21677Y467043D01*
X21630Y467031D01*
X15206Y464944D01*
X15099Y464894D01*
X14988Y464850D01*
X14937Y464817D01*
X14918Y464809D01*
X14903Y464796D01*
X14852Y464764D01*
X9388Y460793D01*
X9301Y460712D01*
X9209Y460636D01*
X9171Y460590D01*
X9156Y460576D01*
X9145Y460558D01*
X9107Y460512D01*
X5136Y455048D01*
X5079Y454944D01*
X5015Y454844D01*
X4993Y454787D01*
X4983Y454769D01*
X4978Y454749D01*
X4956Y454694D01*
X2869Y448270D01*
X2856Y448202D01*
X2833Y448136D01*
X2810Y447977D01*
X2545Y444600D01*
X2546Y444578D01*
X2541Y444500D01*
X2541Y93209D01*
X2547Y93159D01*
X2545Y93110D01*
X2567Y93002D01*
X2581Y92893D01*
X2599Y92847D01*
X2609Y92798D01*
X2657Y92700D01*
X2698Y92598D01*
X2727Y92557D01*
X2749Y92513D01*
X2820Y92429D01*
X2884Y92340D01*
X2923Y92309D01*
X2955Y92271D01*
X3045Y92208D01*
X3129Y92137D01*
X3174Y92116D01*
X3215Y92088D01*
X3318Y92049D01*
X3417Y92002D01*
X3466Y91993D01*
X3512Y91975D01*
X3622Y91963D01*
X3729Y91942D01*
X3779Y91945D01*
X3828Y91940D01*
X3937Y91955D01*
X4047Y91962D01*
X4094Y91977D01*
X4143Y91984D01*
X4296Y92036D01*
X6364Y92893D01*
X9165Y92893D01*
X11752Y91821D01*
X13733Y89840D01*
X14805Y87253D01*
X14805Y84451D01*
X13733Y81864D01*
X11752Y79883D01*
X9165Y78811D01*
X6364Y78811D01*
X4296Y79668D01*
X4248Y79681D01*
X4203Y79702D01*
X4095Y79723D01*
X3989Y79752D01*
X3939Y79753D01*
X3890Y79762D01*
X3781Y79755D01*
X3671Y79757D01*
X3623Y79745D01*
X3573Y79742D01*
X3469Y79708D01*
X3362Y79683D01*
X3318Y79659D01*
X3271Y79644D01*
X3178Y79585D01*
X3081Y79534D01*
X3044Y79501D01*
X3002Y79474D01*
X2927Y79394D01*
X2845Y79320D01*
X2818Y79279D01*
X2784Y79242D01*
X2731Y79146D01*
X2671Y79054D01*
X2654Y79007D01*
X2630Y78964D01*
X2603Y78858D01*
X2567Y78753D01*
X2563Y78704D01*
X2551Y78656D01*
X2541Y78495D01*
X2541Y19050D01*
X2543Y19028D01*
X2545Y18950D01*
X2732Y16566D01*
X2746Y16499D01*
X2751Y16430D01*
X2790Y16274D01*
X4264Y11739D01*
X4314Y11632D01*
X4358Y11521D01*
X4391Y11470D01*
X4399Y11451D01*
X4412Y11436D01*
X4444Y11385D01*
X7247Y7528D01*
X7328Y7441D01*
X7404Y7350D01*
X7451Y7311D01*
X7465Y7296D01*
X7482Y7285D01*
X7528Y7247D01*
X11385Y4444D01*
X11489Y4387D01*
X11589Y4323D01*
X11646Y4301D01*
X11664Y4291D01*
X11684Y4286D01*
X11739Y4264D01*
X16274Y2790D01*
X16342Y2778D01*
X16407Y2755D01*
X16566Y2732D01*
X18950Y2545D01*
X18972Y2546D01*
X19050Y2541D01*
X57420Y2541D01*
X57538Y2556D01*
G37*
G36*
X216212Y211836D02*
X216212Y211836D01*
X216351Y211840D01*
X216371Y211846D01*
X216391Y211847D01*
X216523Y211890D01*
X216657Y211928D01*
X216674Y211939D01*
X216693Y211945D01*
X216811Y212020D01*
X216931Y212090D01*
X216952Y212108D01*
X216962Y212115D01*
X216976Y212130D01*
X217051Y212196D01*
X218962Y214107D01*
X221474Y214107D01*
X223131Y212450D01*
X223240Y212365D01*
X223347Y212277D01*
X223366Y212268D01*
X223382Y212255D01*
X223510Y212200D01*
X223635Y212141D01*
X223655Y212137D01*
X223674Y212129D01*
X223812Y212107D01*
X223948Y212081D01*
X223968Y212082D01*
X223988Y212079D01*
X224127Y212092D01*
X224265Y212101D01*
X224284Y212107D01*
X224304Y212109D01*
X224436Y212156D01*
X224567Y212199D01*
X224585Y212210D01*
X224604Y212217D01*
X224719Y212295D01*
X224836Y212369D01*
X224850Y212384D01*
X224867Y212395D01*
X224959Y212500D01*
X225054Y212601D01*
X225064Y212618D01*
X225077Y212634D01*
X225141Y212758D01*
X225208Y212879D01*
X225213Y212899D01*
X225222Y212917D01*
X225252Y213053D01*
X225287Y213187D01*
X225289Y213215D01*
X225292Y213227D01*
X225291Y213248D01*
X225297Y213348D01*
X225297Y217932D01*
X225282Y218050D01*
X225275Y218169D01*
X225262Y218207D01*
X225257Y218248D01*
X225214Y218358D01*
X225177Y218471D01*
X225155Y218506D01*
X225140Y218543D01*
X225071Y218639D01*
X225007Y218740D01*
X224977Y218768D01*
X224954Y218801D01*
X224862Y218877D01*
X224775Y218958D01*
X224740Y218978D01*
X224709Y219003D01*
X224601Y219054D01*
X224497Y219112D01*
X224457Y219122D01*
X224421Y219139D01*
X224304Y219161D01*
X224189Y219191D01*
X224129Y219195D01*
X224109Y219199D01*
X224088Y219197D01*
X224028Y219201D01*
X222108Y219201D01*
X220471Y220838D01*
X220471Y223154D01*
X220829Y223512D01*
X220902Y223606D01*
X220981Y223695D01*
X220999Y223731D01*
X221024Y223763D01*
X221071Y223872D01*
X221126Y223978D01*
X221134Y224018D01*
X221150Y224055D01*
X221169Y224172D01*
X221195Y224288D01*
X221194Y224329D01*
X221200Y224369D01*
X221189Y224488D01*
X221185Y224606D01*
X221174Y224645D01*
X221170Y224685D01*
X221130Y224798D01*
X221097Y224912D01*
X221077Y224947D01*
X221063Y224985D01*
X220996Y225083D01*
X220936Y225186D01*
X220896Y225231D01*
X220884Y225248D01*
X220869Y225261D01*
X220829Y225307D01*
X220725Y225410D01*
X220725Y226681D01*
X220713Y226779D01*
X220710Y226878D01*
X220693Y226936D01*
X220685Y226996D01*
X220649Y227088D01*
X220621Y227183D01*
X220591Y227236D01*
X220568Y227292D01*
X220510Y227372D01*
X220460Y227457D01*
X220394Y227533D01*
X220382Y227549D01*
X220372Y227557D01*
X220353Y227578D01*
X219709Y228222D01*
X219709Y228441D01*
X219692Y228579D01*
X219679Y228717D01*
X219672Y228736D01*
X219669Y228756D01*
X219618Y228885D01*
X219571Y229016D01*
X219560Y229033D01*
X219552Y229052D01*
X219471Y229164D01*
X219393Y229279D01*
X219377Y229293D01*
X219366Y229309D01*
X219258Y229398D01*
X219154Y229490D01*
X219136Y229499D01*
X219121Y229512D01*
X218995Y229571D01*
X218871Y229635D01*
X218851Y229639D01*
X218833Y229648D01*
X218696Y229674D01*
X218561Y229704D01*
X218540Y229704D01*
X218521Y229707D01*
X218382Y229699D01*
X218243Y229695D01*
X218223Y229689D01*
X218203Y229688D01*
X218071Y229645D01*
X217937Y229606D01*
X217920Y229596D01*
X217901Y229590D01*
X217783Y229515D01*
X217663Y229445D01*
X217642Y229426D01*
X217632Y229419D01*
X217618Y229404D01*
X217543Y229338D01*
X216550Y228345D01*
X214234Y228345D01*
X213623Y228957D01*
X213529Y229030D01*
X213439Y229109D01*
X213403Y229127D01*
X213371Y229152D01*
X213262Y229199D01*
X213156Y229254D01*
X213117Y229262D01*
X213079Y229278D01*
X212962Y229297D01*
X212846Y229323D01*
X212805Y229322D01*
X212765Y229328D01*
X212647Y229317D01*
X212528Y229314D01*
X212489Y229302D01*
X212449Y229298D01*
X212336Y229258D01*
X212222Y229225D01*
X212188Y229205D01*
X212149Y229191D01*
X212051Y229124D01*
X211948Y229064D01*
X211903Y229024D01*
X211886Y229012D01*
X211873Y228997D01*
X211828Y228957D01*
X211470Y228599D01*
X209154Y228599D01*
X207517Y230236D01*
X207517Y232552D01*
X209154Y234189D01*
X211836Y234189D01*
X211954Y234204D01*
X212073Y234211D01*
X212111Y234224D01*
X212152Y234229D01*
X212262Y234272D01*
X212375Y234309D01*
X212410Y234331D01*
X212447Y234346D01*
X212543Y234415D01*
X212644Y234479D01*
X212672Y234509D01*
X212705Y234532D01*
X212781Y234624D01*
X212862Y234711D01*
X212882Y234746D01*
X212907Y234777D01*
X212958Y234885D01*
X213016Y234989D01*
X213026Y235029D01*
X213043Y235065D01*
X213065Y235182D01*
X213095Y235297D01*
X213099Y235357D01*
X213103Y235377D01*
X213101Y235398D01*
X213105Y235458D01*
X213105Y268240D01*
X213090Y268358D01*
X213083Y268477D01*
X213070Y268515D01*
X213065Y268556D01*
X213022Y268666D01*
X212985Y268779D01*
X212963Y268814D01*
X212948Y268851D01*
X212879Y268947D01*
X212815Y269048D01*
X212785Y269076D01*
X212762Y269109D01*
X212670Y269185D01*
X212583Y269266D01*
X212548Y269286D01*
X212517Y269311D01*
X212409Y269362D01*
X212305Y269420D01*
X212265Y269430D01*
X212229Y269447D01*
X212112Y269469D01*
X211997Y269499D01*
X211937Y269503D01*
X211917Y269507D01*
X211896Y269505D01*
X211836Y269509D01*
X209818Y269509D01*
X208041Y271286D01*
X208041Y273798D01*
X209818Y275575D01*
X211836Y275575D01*
X211954Y275590D01*
X212073Y275597D01*
X212111Y275610D01*
X212152Y275615D01*
X212262Y275658D01*
X212375Y275695D01*
X212410Y275717D01*
X212447Y275732D01*
X212543Y275801D01*
X212644Y275865D01*
X212672Y275895D01*
X212705Y275918D01*
X212781Y276010D01*
X212862Y276097D01*
X212882Y276132D01*
X212907Y276163D01*
X212958Y276271D01*
X213016Y276375D01*
X213026Y276415D01*
X213043Y276451D01*
X213065Y276568D01*
X213095Y276683D01*
X213099Y276743D01*
X213103Y276763D01*
X213101Y276784D01*
X213105Y276844D01*
X213105Y301114D01*
X217560Y305568D01*
X217620Y305646D01*
X217688Y305718D01*
X217717Y305771D01*
X217754Y305819D01*
X217794Y305910D01*
X217842Y305997D01*
X217857Y306055D01*
X217881Y306111D01*
X217896Y306209D01*
X217921Y306305D01*
X217927Y306405D01*
X217931Y306425D01*
X217929Y306437D01*
X217931Y306465D01*
X217931Y324961D01*
X217919Y325059D01*
X217916Y325158D01*
X217899Y325216D01*
X217891Y325276D01*
X217855Y325368D01*
X217827Y325463D01*
X217797Y325516D01*
X217774Y325572D01*
X217716Y325652D01*
X217666Y325737D01*
X217600Y325813D01*
X217588Y325829D01*
X217578Y325837D01*
X217560Y325858D01*
X215645Y327772D01*
X215645Y330088D01*
X217282Y331725D01*
X219604Y331725D01*
X219684Y331663D01*
X219791Y331574D01*
X219810Y331565D01*
X219826Y331553D01*
X219954Y331498D01*
X220079Y331438D01*
X220099Y331435D01*
X220118Y331427D01*
X220255Y331405D01*
X220392Y331379D01*
X220412Y331380D01*
X220432Y331377D01*
X220570Y331390D01*
X220709Y331398D01*
X220728Y331405D01*
X220748Y331406D01*
X220880Y331454D01*
X221011Y331496D01*
X221028Y331507D01*
X221048Y331514D01*
X221163Y331592D01*
X221280Y331667D01*
X221294Y331681D01*
X221311Y331693D01*
X221403Y331797D01*
X221498Y331898D01*
X221508Y331916D01*
X221521Y331931D01*
X221585Y332055D01*
X221652Y332177D01*
X221657Y332196D01*
X221666Y332214D01*
X221696Y332350D01*
X221731Y332485D01*
X221733Y332513D01*
X221736Y332525D01*
X221735Y332545D01*
X221741Y332645D01*
X221741Y365884D01*
X223006Y367149D01*
X223091Y367258D01*
X223180Y367365D01*
X223189Y367384D01*
X223201Y367400D01*
X223257Y367528D01*
X223316Y367653D01*
X223319Y367673D01*
X223328Y367692D01*
X223349Y367830D01*
X223375Y367966D01*
X223374Y367986D01*
X223377Y368006D01*
X223364Y368145D01*
X223356Y368283D01*
X223349Y368302D01*
X223348Y368322D01*
X223300Y368454D01*
X223258Y368585D01*
X223247Y368603D01*
X223240Y368622D01*
X223162Y368737D01*
X223087Y368854D01*
X223073Y368868D01*
X223061Y368885D01*
X222957Y368977D01*
X222856Y369072D01*
X222838Y369082D01*
X222823Y369095D01*
X222699Y369159D01*
X222577Y369226D01*
X222558Y369231D01*
X222540Y369240D01*
X222404Y369270D01*
X222269Y369305D01*
X222241Y369307D01*
X222229Y369310D01*
X222209Y369309D01*
X222109Y369315D01*
X221092Y369315D01*
X219455Y370952D01*
X219455Y373268D01*
X221092Y374905D01*
X223774Y374905D01*
X223892Y374920D01*
X224011Y374927D01*
X224049Y374940D01*
X224090Y374945D01*
X224200Y374988D01*
X224313Y375025D01*
X224348Y375047D01*
X224385Y375062D01*
X224481Y375131D01*
X224582Y375195D01*
X224610Y375225D01*
X224643Y375248D01*
X224719Y375340D01*
X224800Y375427D01*
X224820Y375462D01*
X224845Y375493D01*
X224896Y375601D01*
X224954Y375705D01*
X224964Y375745D01*
X224981Y375781D01*
X225003Y375898D01*
X225033Y376013D01*
X225037Y376073D01*
X225041Y376093D01*
X225039Y376114D01*
X225043Y376174D01*
X225043Y411575D01*
X225031Y411673D01*
X225028Y411772D01*
X225011Y411830D01*
X225003Y411890D01*
X224967Y411982D01*
X224939Y412077D01*
X224909Y412130D01*
X224886Y412186D01*
X224828Y412266D01*
X224778Y412351D01*
X224712Y412427D01*
X224700Y412443D01*
X224690Y412451D01*
X224672Y412472D01*
X223773Y413370D01*
X223773Y414623D01*
X223756Y414761D01*
X223743Y414899D01*
X223736Y414918D01*
X223733Y414938D01*
X223682Y415068D01*
X223635Y415198D01*
X223624Y415215D01*
X223616Y415234D01*
X223535Y415346D01*
X223457Y415461D01*
X223441Y415475D01*
X223430Y415491D01*
X223322Y415580D01*
X223218Y415672D01*
X223200Y415681D01*
X223185Y415694D01*
X223059Y415753D01*
X222935Y415817D01*
X222915Y415821D01*
X222897Y415830D01*
X222761Y415856D01*
X222625Y415886D01*
X222604Y415886D01*
X222585Y415889D01*
X222446Y415881D01*
X222307Y415877D01*
X222287Y415871D01*
X222267Y415870D01*
X222135Y415827D01*
X222001Y415788D01*
X221984Y415778D01*
X221965Y415772D01*
X221847Y415697D01*
X221727Y415627D01*
X221706Y415608D01*
X221696Y415601D01*
X221682Y415586D01*
X221606Y415520D01*
X221376Y415289D01*
X220218Y415289D01*
X220100Y415274D01*
X219981Y415267D01*
X219943Y415254D01*
X219902Y415249D01*
X219792Y415206D01*
X219679Y415169D01*
X219644Y415147D01*
X219607Y415132D01*
X219511Y415063D01*
X219410Y414999D01*
X219382Y414969D01*
X219349Y414946D01*
X219273Y414854D01*
X219192Y414767D01*
X219172Y414732D01*
X219147Y414701D01*
X219096Y414593D01*
X219038Y414489D01*
X219028Y414449D01*
X219011Y414413D01*
X218989Y414296D01*
X218959Y414181D01*
X218955Y414121D01*
X218951Y414101D01*
X218953Y414080D01*
X218949Y414020D01*
X218949Y413370D01*
X217312Y411733D01*
X214996Y411733D01*
X213268Y413462D01*
X213221Y413592D01*
X213210Y413609D01*
X213202Y413627D01*
X213121Y413740D01*
X213043Y413855D01*
X213027Y413868D01*
X213016Y413885D01*
X212908Y413973D01*
X212804Y414065D01*
X212786Y414075D01*
X212771Y414087D01*
X212645Y414147D01*
X212521Y414210D01*
X212501Y414214D01*
X212483Y414223D01*
X212347Y414249D01*
X212211Y414280D01*
X212190Y414279D01*
X212171Y414283D01*
X212032Y414274D01*
X211893Y414270D01*
X211873Y414264D01*
X211853Y414263D01*
X211721Y414220D01*
X211587Y414182D01*
X211570Y414171D01*
X211551Y414165D01*
X211433Y414090D01*
X211313Y414020D01*
X211292Y414001D01*
X211282Y413995D01*
X211268Y413980D01*
X211193Y413914D01*
X209282Y412003D01*
X206738Y412003D01*
X206675Y412055D01*
X206656Y412064D01*
X206640Y412076D01*
X206513Y412132D01*
X206387Y412191D01*
X206367Y412195D01*
X206348Y412203D01*
X206211Y412225D01*
X206074Y412251D01*
X206054Y412250D01*
X206034Y412253D01*
X205896Y412240D01*
X205757Y412231D01*
X205738Y412225D01*
X205718Y412223D01*
X205587Y412176D01*
X205455Y412133D01*
X205437Y412122D01*
X205418Y412115D01*
X205303Y412037D01*
X205186Y411963D01*
X205172Y411948D01*
X205155Y411937D01*
X205063Y411833D01*
X204968Y411731D01*
X204958Y411714D01*
X204945Y411698D01*
X204882Y411575D01*
X204814Y411453D01*
X204809Y411433D01*
X204800Y411415D01*
X204770Y411279D01*
X204735Y411145D01*
X204733Y411117D01*
X204730Y411105D01*
X204731Y411084D01*
X204725Y410984D01*
X204725Y352947D01*
X204737Y352849D01*
X204740Y352750D01*
X204757Y352692D01*
X204765Y352632D01*
X204801Y352540D01*
X204829Y352445D01*
X204859Y352392D01*
X204882Y352336D01*
X204940Y352256D01*
X204990Y352171D01*
X205056Y352095D01*
X205068Y352079D01*
X205078Y352071D01*
X205096Y352050D01*
X206508Y350638D01*
X206586Y350578D01*
X206658Y350510D01*
X206711Y350481D01*
X206759Y350444D01*
X206850Y350404D01*
X206937Y350356D01*
X206995Y350341D01*
X207051Y350317D01*
X207149Y350302D01*
X207245Y350277D01*
X207345Y350271D01*
X207365Y350267D01*
X207377Y350269D01*
X207405Y350267D01*
X208682Y350267D01*
X208747Y350217D01*
X208836Y350138D01*
X208872Y350120D01*
X208904Y350095D01*
X209013Y350048D01*
X209119Y349993D01*
X209158Y349985D01*
X209196Y349969D01*
X209313Y349950D01*
X209429Y349924D01*
X209470Y349925D01*
X209510Y349919D01*
X209628Y349930D01*
X209747Y349933D01*
X209786Y349945D01*
X209826Y349949D01*
X209939Y349989D01*
X210053Y350022D01*
X210087Y350042D01*
X210126Y350056D01*
X210224Y350123D01*
X210327Y350183D01*
X210372Y350223D01*
X210389Y350235D01*
X210402Y350250D01*
X210447Y350290D01*
X210932Y350775D01*
X213248Y350775D01*
X214885Y349138D01*
X214885Y346822D01*
X213248Y345185D01*
X210926Y345185D01*
X210861Y345235D01*
X210772Y345314D01*
X210736Y345332D01*
X210704Y345357D01*
X210595Y345404D01*
X210489Y345459D01*
X210450Y345467D01*
X210412Y345483D01*
X210295Y345502D01*
X210179Y345528D01*
X210138Y345527D01*
X210098Y345533D01*
X209980Y345522D01*
X209861Y345519D01*
X209822Y345507D01*
X209782Y345503D01*
X209670Y345463D01*
X209555Y345430D01*
X209520Y345410D01*
X209482Y345396D01*
X209384Y345329D01*
X209281Y345269D01*
X209236Y345229D01*
X209219Y345217D01*
X209206Y345202D01*
X209160Y345162D01*
X208676Y344677D01*
X206360Y344677D01*
X205875Y345162D01*
X205766Y345247D01*
X205659Y345336D01*
X205640Y345345D01*
X205624Y345357D01*
X205496Y345412D01*
X205371Y345472D01*
X205351Y345475D01*
X205332Y345483D01*
X205194Y345505D01*
X205058Y345531D01*
X205038Y345530D01*
X205018Y345533D01*
X204879Y345520D01*
X204741Y345512D01*
X204722Y345505D01*
X204702Y345504D01*
X204571Y345456D01*
X204439Y345414D01*
X204421Y345403D01*
X204402Y345396D01*
X204288Y345318D01*
X204170Y345243D01*
X204156Y345229D01*
X204139Y345217D01*
X204047Y345113D01*
X203952Y345012D01*
X203942Y344994D01*
X203929Y344979D01*
X203866Y344855D01*
X203798Y344733D01*
X203793Y344714D01*
X203784Y344696D01*
X203754Y344560D01*
X203719Y344425D01*
X203717Y344397D01*
X203714Y344385D01*
X203715Y344365D01*
X203709Y344265D01*
X203709Y341996D01*
X202810Y341098D01*
X202750Y341020D01*
X202682Y340948D01*
X202653Y340895D01*
X202616Y340847D01*
X202576Y340756D01*
X202528Y340669D01*
X202513Y340611D01*
X202489Y340555D01*
X202474Y340457D01*
X202449Y340361D01*
X202443Y340261D01*
X202439Y340241D01*
X202441Y340229D01*
X202439Y340201D01*
X202439Y232043D01*
X202451Y231945D01*
X202454Y231846D01*
X202471Y231788D01*
X202479Y231728D01*
X202515Y231636D01*
X202543Y231541D01*
X202573Y231488D01*
X202596Y231432D01*
X202654Y231352D01*
X202704Y231267D01*
X202770Y231191D01*
X202782Y231175D01*
X202792Y231167D01*
X202810Y231146D01*
X214885Y219072D01*
X214885Y213094D01*
X214902Y212956D01*
X214915Y212818D01*
X214922Y212798D01*
X214925Y212778D01*
X214976Y212649D01*
X215023Y212518D01*
X215034Y212501D01*
X215042Y212483D01*
X215123Y212370D01*
X215201Y212255D01*
X215217Y212242D01*
X215228Y212225D01*
X215336Y212137D01*
X215440Y212045D01*
X215458Y212035D01*
X215473Y212023D01*
X215599Y211963D01*
X215723Y211900D01*
X215743Y211896D01*
X215761Y211887D01*
X215897Y211861D01*
X216033Y211830D01*
X216054Y211831D01*
X216073Y211827D01*
X216212Y211836D01*
G37*
%LPC*%
G36*
X345839Y421004D02*
X345839Y421004D01*
X339538Y423615D01*
X334715Y428438D01*
X332104Y434739D01*
X332104Y441561D01*
X334715Y447862D01*
X339538Y452685D01*
X345839Y455296D01*
X352661Y455296D01*
X358962Y452685D01*
X363785Y447862D01*
X366396Y441561D01*
X366396Y434739D01*
X363785Y428438D01*
X358962Y423615D01*
X352661Y421004D01*
X345839Y421004D01*
G37*
%LPD*%
%LPC*%
G36*
X28339Y14604D02*
X28339Y14604D01*
X22038Y17215D01*
X17215Y22038D01*
X14604Y28339D01*
X14604Y35161D01*
X17215Y41462D01*
X22038Y46285D01*
X28339Y48896D01*
X35161Y48896D01*
X41462Y46285D01*
X46285Y41462D01*
X48896Y35161D01*
X48896Y28339D01*
X46285Y22038D01*
X41462Y17215D01*
X35161Y14604D01*
X28339Y14604D01*
G37*
%LPD*%
%LPC*%
G36*
X28339Y421004D02*
X28339Y421004D01*
X22038Y423615D01*
X17215Y428438D01*
X14604Y434739D01*
X14604Y441561D01*
X17215Y447862D01*
X22038Y452685D01*
X28339Y455296D01*
X35161Y455296D01*
X41462Y452685D01*
X46285Y447862D01*
X48896Y441561D01*
X48896Y434739D01*
X46285Y428438D01*
X41462Y423615D01*
X35161Y421004D01*
X28339Y421004D01*
G37*
%LPD*%
%LPC*%
G36*
X345839Y14604D02*
X345839Y14604D01*
X339538Y17215D01*
X334715Y22038D01*
X332104Y28339D01*
X332104Y35161D01*
X334715Y41462D01*
X339538Y46285D01*
X345839Y48896D01*
X352661Y48896D01*
X358962Y46285D01*
X363785Y41462D01*
X366396Y35161D01*
X366396Y28339D01*
X363785Y22038D01*
X358962Y17215D01*
X352661Y14604D01*
X345839Y14604D01*
G37*
%LPD*%
%LPC*%
G36*
X35095Y129412D02*
X35095Y129412D01*
X32341Y130553D01*
X30233Y132661D01*
X29092Y135415D01*
X29092Y138397D01*
X30233Y141151D01*
X30650Y141568D01*
X30693Y141623D01*
X30743Y141672D01*
X30790Y141748D01*
X30845Y141819D01*
X30873Y141884D01*
X30910Y141943D01*
X30936Y142029D01*
X30972Y142111D01*
X30983Y142180D01*
X31003Y142247D01*
X31007Y142336D01*
X31022Y142425D01*
X31015Y142495D01*
X31018Y142565D01*
X31000Y142652D01*
X30992Y142742D01*
X30968Y142808D01*
X30954Y142876D01*
X30915Y142957D01*
X30884Y143041D01*
X30845Y143099D01*
X30814Y143162D01*
X30756Y143230D01*
X30706Y143304D01*
X30653Y143351D01*
X30608Y143404D01*
X30534Y143455D01*
X30467Y143515D01*
X30405Y143547D01*
X30348Y143587D01*
X30264Y143619D01*
X30184Y143660D01*
X30116Y143675D01*
X30051Y143700D01*
X29961Y143710D01*
X29874Y143729D01*
X29804Y143727D01*
X29735Y143735D01*
X29646Y143722D01*
X29556Y143720D01*
X29489Y143700D01*
X29420Y143690D01*
X29267Y143638D01*
X24203Y141541D01*
X18469Y141541D01*
X13170Y143735D01*
X9115Y147790D01*
X6921Y153089D01*
X6921Y158823D01*
X9115Y164122D01*
X13170Y168177D01*
X18469Y170371D01*
X24203Y170371D01*
X29502Y168177D01*
X33557Y164122D01*
X35751Y158823D01*
X35751Y153089D01*
X33557Y147790D01*
X31192Y145426D01*
X31149Y145371D01*
X31099Y145322D01*
X31052Y145246D01*
X30997Y145175D01*
X30970Y145111D01*
X30933Y145051D01*
X30907Y144966D01*
X30871Y144883D01*
X30860Y144814D01*
X30839Y144747D01*
X30835Y144658D01*
X30821Y144569D01*
X30828Y144499D01*
X30824Y144430D01*
X30842Y144342D01*
X30851Y144252D01*
X30875Y144186D01*
X30889Y144118D01*
X30928Y144038D01*
X30959Y143953D01*
X30998Y143895D01*
X31028Y143832D01*
X31087Y143764D01*
X31137Y143690D01*
X31189Y143644D01*
X31235Y143590D01*
X31308Y143539D01*
X31376Y143479D01*
X31438Y143448D01*
X31495Y143407D01*
X31579Y143376D01*
X31659Y143335D01*
X31727Y143319D01*
X31792Y143295D01*
X31881Y143285D01*
X31969Y143265D01*
X32039Y143267D01*
X32108Y143259D01*
X32197Y143272D01*
X32287Y143275D01*
X32354Y143294D01*
X32423Y143304D01*
X32575Y143356D01*
X35095Y144400D01*
X38077Y144400D01*
X40831Y143259D01*
X41012Y143077D01*
X41122Y142992D01*
X41229Y142903D01*
X41248Y142895D01*
X41264Y142882D01*
X41391Y142827D01*
X41517Y142768D01*
X41537Y142764D01*
X41556Y142756D01*
X41693Y142734D01*
X41830Y142708D01*
X41850Y142709D01*
X41870Y142706D01*
X42008Y142719D01*
X42147Y142728D01*
X42166Y142734D01*
X42186Y142736D01*
X42318Y142783D01*
X42449Y142826D01*
X42466Y142837D01*
X42486Y142843D01*
X42601Y142922D01*
X42718Y142996D01*
X42732Y143011D01*
X42749Y143022D01*
X42841Y143126D01*
X42936Y143228D01*
X42946Y143245D01*
X42959Y143260D01*
X43023Y143385D01*
X43090Y143506D01*
X43095Y143526D01*
X43104Y143544D01*
X43134Y143680D01*
X43169Y143814D01*
X43171Y143842D01*
X43174Y143854D01*
X43173Y143874D01*
X43179Y143975D01*
X43179Y145938D01*
X44816Y147575D01*
X47132Y147575D01*
X48769Y145938D01*
X48769Y143622D01*
X47132Y141985D01*
X44493Y141985D01*
X44443Y141979D01*
X44394Y141981D01*
X44286Y141959D01*
X44177Y141945D01*
X44131Y141927D01*
X44082Y141917D01*
X43984Y141869D01*
X43882Y141828D01*
X43841Y141799D01*
X43797Y141777D01*
X43713Y141706D01*
X43624Y141642D01*
X43593Y141603D01*
X43555Y141571D01*
X43492Y141481D01*
X43421Y141397D01*
X43400Y141352D01*
X43372Y141311D01*
X43333Y141208D01*
X43286Y141109D01*
X43277Y141060D01*
X43259Y141014D01*
X43247Y140904D01*
X43226Y140797D01*
X43229Y140747D01*
X43224Y140698D01*
X43239Y140589D01*
X43246Y140479D01*
X43261Y140432D01*
X43268Y140383D01*
X43320Y140230D01*
X44080Y138397D01*
X44080Y135415D01*
X42939Y132661D01*
X40831Y130553D01*
X38077Y129412D01*
X35095Y129412D01*
G37*
%LPD*%
%LPC*%
G36*
X18469Y173291D02*
X18469Y173291D01*
X13170Y175485D01*
X9115Y179540D01*
X6921Y184839D01*
X6921Y190573D01*
X9115Y195872D01*
X13170Y199927D01*
X18469Y202121D01*
X24203Y202121D01*
X29502Y199927D01*
X33557Y195872D01*
X35751Y190573D01*
X35751Y184839D01*
X33557Y179540D01*
X29502Y175485D01*
X24203Y173291D01*
X18469Y173291D01*
G37*
%LPD*%
%LPC*%
G36*
X113904Y38861D02*
X113904Y38861D01*
X112267Y40498D01*
X112267Y42814D01*
X113166Y43712D01*
X113226Y43790D01*
X113294Y43862D01*
X113323Y43915D01*
X113360Y43963D01*
X113400Y44054D01*
X113448Y44141D01*
X113463Y44199D01*
X113487Y44255D01*
X113502Y44353D01*
X113527Y44449D01*
X113533Y44549D01*
X113537Y44569D01*
X113535Y44581D01*
X113537Y44609D01*
X113537Y81150D01*
X142122Y109734D01*
X142182Y109812D01*
X142250Y109884D01*
X142279Y109937D01*
X142316Y109985D01*
X142356Y110076D01*
X142404Y110163D01*
X142419Y110221D01*
X142443Y110277D01*
X142458Y110375D01*
X142483Y110471D01*
X142489Y110571D01*
X142493Y110591D01*
X142491Y110603D01*
X142493Y110631D01*
X142493Y119504D01*
X143758Y120768D01*
X146948Y123958D01*
X147008Y124036D01*
X147076Y124108D01*
X147105Y124161D01*
X147142Y124209D01*
X147182Y124300D01*
X147230Y124387D01*
X147245Y124445D01*
X147269Y124501D01*
X147284Y124599D01*
X147309Y124695D01*
X147315Y124795D01*
X147319Y124815D01*
X147317Y124827D01*
X147319Y124855D01*
X147319Y126126D01*
X148956Y127763D01*
X151272Y127763D01*
X152909Y126126D01*
X152909Y123810D01*
X151272Y122173D01*
X150001Y122173D01*
X149903Y122161D01*
X149804Y122158D01*
X149746Y122141D01*
X149686Y122133D01*
X149594Y122097D01*
X149499Y122069D01*
X149446Y122039D01*
X149390Y122016D01*
X149310Y121958D01*
X149225Y121908D01*
X149149Y121842D01*
X149133Y121830D01*
X149125Y121820D01*
X149104Y121802D01*
X145914Y118612D01*
X145854Y118534D01*
X145786Y118462D01*
X145757Y118409D01*
X145720Y118361D01*
X145680Y118270D01*
X145632Y118183D01*
X145617Y118125D01*
X145593Y118069D01*
X145578Y117971D01*
X145553Y117875D01*
X145547Y117775D01*
X145543Y117755D01*
X145545Y117743D01*
X145543Y117715D01*
X145543Y108842D01*
X116958Y80258D01*
X116898Y80180D01*
X116830Y80108D01*
X116801Y80055D01*
X116764Y80007D01*
X116724Y79916D01*
X116676Y79829D01*
X116661Y79771D01*
X116637Y79715D01*
X116622Y79617D01*
X116597Y79521D01*
X116591Y79421D01*
X116587Y79401D01*
X116589Y79389D01*
X116587Y79361D01*
X116587Y44609D01*
X116599Y44511D01*
X116602Y44412D01*
X116619Y44354D01*
X116627Y44294D01*
X116663Y44202D01*
X116691Y44107D01*
X116721Y44054D01*
X116744Y43998D01*
X116802Y43918D01*
X116852Y43833D01*
X116918Y43757D01*
X116930Y43741D01*
X116940Y43733D01*
X116958Y43712D01*
X117857Y42814D01*
X117857Y40498D01*
X116220Y38861D01*
X113904Y38861D01*
G37*
%LPD*%
%LPC*%
G36*
X24363Y78811D02*
X24363Y78811D01*
X21776Y79883D01*
X19795Y81864D01*
X18723Y84451D01*
X18723Y87252D01*
X19625Y89430D01*
X19639Y89478D01*
X19660Y89523D01*
X19680Y89631D01*
X19709Y89737D01*
X19710Y89787D01*
X19719Y89836D01*
X19713Y89945D01*
X19714Y90055D01*
X19703Y90103D01*
X19700Y90153D01*
X19666Y90257D01*
X19640Y90364D01*
X19617Y90408D01*
X19602Y90455D01*
X19543Y90548D01*
X19491Y90645D01*
X19458Y90682D01*
X19431Y90724D01*
X19351Y90799D01*
X19278Y90881D01*
X19236Y90908D01*
X19200Y90942D01*
X19104Y90995D01*
X19012Y91055D01*
X18965Y91072D01*
X18921Y91096D01*
X18815Y91123D01*
X18711Y91159D01*
X18661Y91163D01*
X18613Y91175D01*
X18453Y91185D01*
X17638Y91185D01*
X16001Y92822D01*
X16001Y95138D01*
X17638Y96775D01*
X19954Y96775D01*
X21591Y95138D01*
X21591Y93644D01*
X21597Y93594D01*
X21595Y93545D01*
X21617Y93437D01*
X21631Y93328D01*
X21649Y93282D01*
X21659Y93233D01*
X21707Y93135D01*
X21748Y93033D01*
X21777Y92992D01*
X21799Y92948D01*
X21870Y92864D01*
X21934Y92775D01*
X21973Y92743D01*
X22005Y92706D01*
X22095Y92643D01*
X22179Y92572D01*
X22224Y92551D01*
X22265Y92523D01*
X22368Y92484D01*
X22467Y92437D01*
X22516Y92428D01*
X22562Y92410D01*
X22672Y92398D01*
X22779Y92377D01*
X22829Y92380D01*
X22878Y92375D01*
X22987Y92390D01*
X23097Y92397D01*
X23144Y92412D01*
X23193Y92419D01*
X23346Y92471D01*
X24364Y92893D01*
X27165Y92893D01*
X29752Y91821D01*
X31733Y89840D01*
X32805Y87253D01*
X32805Y84451D01*
X31733Y81864D01*
X29752Y79883D01*
X27165Y78811D01*
X24363Y78811D01*
G37*
%LPD*%
%LPC*%
G36*
X45245Y180212D02*
X45245Y180212D01*
X42491Y181353D01*
X40383Y183461D01*
X39242Y186215D01*
X39242Y189197D01*
X40383Y191951D01*
X42491Y194059D01*
X45245Y195200D01*
X48227Y195200D01*
X50981Y194059D01*
X53089Y191951D01*
X54230Y189197D01*
X54230Y186215D01*
X53089Y183461D01*
X50981Y181353D01*
X48227Y180212D01*
X45245Y180212D01*
G37*
%LPD*%
%LPC*%
G36*
X23442Y333563D02*
X23442Y333563D01*
X20762Y334673D01*
X18711Y336724D01*
X17601Y339404D01*
X17601Y342304D01*
X18711Y344984D01*
X20762Y347035D01*
X23442Y348145D01*
X26342Y348145D01*
X29022Y347035D01*
X31073Y344984D01*
X32183Y342304D01*
X32183Y339404D01*
X31073Y336724D01*
X29022Y334673D01*
X26342Y333563D01*
X23442Y333563D01*
G37*
%LPD*%
%LPC*%
G36*
X23442Y363563D02*
X23442Y363563D01*
X20762Y364673D01*
X18711Y366724D01*
X17601Y369404D01*
X17601Y372304D01*
X18711Y374984D01*
X20762Y377035D01*
X23442Y378145D01*
X26342Y378145D01*
X29022Y377035D01*
X31073Y374984D01*
X32183Y372304D01*
X32183Y369404D01*
X31073Y366724D01*
X29022Y364673D01*
X26342Y363563D01*
X23442Y363563D01*
G37*
%LPD*%
%LPC*%
G36*
X226426Y72135D02*
X226426Y72135D01*
X224789Y73772D01*
X224789Y76088D01*
X226426Y77725D01*
X228441Y77725D01*
X228579Y77742D01*
X228717Y77755D01*
X228736Y77762D01*
X228756Y77765D01*
X228885Y77816D01*
X229017Y77863D01*
X229033Y77874D01*
X229052Y77882D01*
X229164Y77963D01*
X229280Y78042D01*
X229293Y78057D01*
X229309Y78068D01*
X229398Y78175D01*
X229490Y78280D01*
X229499Y78298D01*
X229512Y78313D01*
X229571Y78439D01*
X229635Y78563D01*
X229639Y78583D01*
X229648Y78601D01*
X229674Y78737D01*
X229704Y78874D01*
X229704Y78894D01*
X229707Y78913D01*
X229699Y79052D01*
X229695Y79191D01*
X229689Y79211D01*
X229688Y79231D01*
X229645Y79363D01*
X229615Y79465D01*
X229615Y81930D01*
X231252Y83567D01*
X233568Y83567D01*
X235300Y81835D01*
X235325Y81757D01*
X235347Y81722D01*
X235362Y81685D01*
X235431Y81589D01*
X235495Y81488D01*
X235525Y81460D01*
X235548Y81427D01*
X235640Y81351D01*
X235727Y81270D01*
X235762Y81250D01*
X235793Y81225D01*
X235901Y81174D01*
X236005Y81116D01*
X236045Y81106D01*
X236081Y81089D01*
X236198Y81067D01*
X236313Y81037D01*
X236373Y81033D01*
X236393Y81029D01*
X236414Y81031D01*
X236474Y81027D01*
X239156Y81027D01*
X240021Y80161D01*
X240115Y80088D01*
X240205Y80009D01*
X240241Y79991D01*
X240273Y79966D01*
X240382Y79919D01*
X240488Y79864D01*
X240527Y79856D01*
X240565Y79840D01*
X240682Y79821D01*
X240798Y79795D01*
X240839Y79796D01*
X240879Y79790D01*
X240997Y79801D01*
X241116Y79804D01*
X241155Y79816D01*
X241195Y79820D01*
X241308Y79860D01*
X241422Y79893D01*
X241456Y79913D01*
X241495Y79927D01*
X241593Y79994D01*
X241696Y80054D01*
X241741Y80094D01*
X241758Y80106D01*
X241771Y80121D01*
X241816Y80161D01*
X243190Y81535D01*
X245506Y81535D01*
X247143Y79898D01*
X247143Y77582D01*
X245506Y75945D01*
X243190Y75945D01*
X242324Y76811D01*
X242230Y76884D01*
X242141Y76963D01*
X242105Y76981D01*
X242073Y77006D01*
X241964Y77053D01*
X241858Y77108D01*
X241819Y77116D01*
X241781Y77132D01*
X241664Y77151D01*
X241548Y77177D01*
X241507Y77176D01*
X241467Y77182D01*
X241349Y77171D01*
X241230Y77168D01*
X241191Y77156D01*
X241151Y77152D01*
X241039Y77112D01*
X240924Y77079D01*
X240889Y77059D01*
X240851Y77045D01*
X240753Y76978D01*
X240650Y76918D01*
X240605Y76878D01*
X240588Y76866D01*
X240575Y76851D01*
X240529Y76811D01*
X239156Y75437D01*
X236840Y75437D01*
X235108Y77169D01*
X235083Y77247D01*
X235061Y77282D01*
X235046Y77319D01*
X234977Y77415D01*
X234913Y77516D01*
X234883Y77544D01*
X234860Y77577D01*
X234768Y77653D01*
X234681Y77734D01*
X234646Y77754D01*
X234615Y77779D01*
X234507Y77830D01*
X234403Y77888D01*
X234363Y77898D01*
X234327Y77915D01*
X234210Y77937D01*
X234095Y77967D01*
X234035Y77971D01*
X234015Y77975D01*
X233994Y77973D01*
X233934Y77977D01*
X231553Y77977D01*
X231415Y77960D01*
X231277Y77947D01*
X231258Y77940D01*
X231238Y77937D01*
X231109Y77886D01*
X230977Y77839D01*
X230961Y77828D01*
X230942Y77820D01*
X230830Y77739D01*
X230714Y77660D01*
X230701Y77645D01*
X230685Y77634D01*
X230596Y77527D01*
X230504Y77422D01*
X230495Y77404D01*
X230482Y77389D01*
X230423Y77263D01*
X230359Y77139D01*
X230355Y77119D01*
X230346Y77101D01*
X230320Y76965D01*
X230290Y76828D01*
X230290Y76808D01*
X230287Y76789D01*
X230295Y76650D01*
X230299Y76511D01*
X230305Y76491D01*
X230306Y76471D01*
X230349Y76339D01*
X230379Y76237D01*
X230379Y73772D01*
X228742Y72135D01*
X226426Y72135D01*
G37*
%LPD*%
%LPC*%
G36*
X205852Y68833D02*
X205852Y68833D01*
X204215Y70470D01*
X204215Y72786D01*
X204573Y73144D01*
X204646Y73238D01*
X204725Y73327D01*
X204743Y73363D01*
X204768Y73395D01*
X204815Y73504D01*
X204870Y73610D01*
X204878Y73649D01*
X204894Y73687D01*
X204913Y73804D01*
X204939Y73920D01*
X204938Y73961D01*
X204944Y74001D01*
X204933Y74119D01*
X204930Y74238D01*
X204918Y74277D01*
X204914Y74317D01*
X204874Y74429D01*
X204841Y74544D01*
X204821Y74579D01*
X204807Y74617D01*
X204740Y74715D01*
X204680Y74818D01*
X204640Y74863D01*
X204628Y74880D01*
X204613Y74893D01*
X204573Y74939D01*
X203199Y76312D01*
X203199Y78628D01*
X204836Y80265D01*
X207152Y80265D01*
X208789Y78628D01*
X208789Y78232D01*
X208804Y78114D01*
X208811Y77995D01*
X208824Y77957D01*
X208829Y77916D01*
X208872Y77806D01*
X208909Y77693D01*
X208931Y77658D01*
X208946Y77621D01*
X209015Y77525D01*
X209079Y77424D01*
X209109Y77396D01*
X209132Y77363D01*
X209224Y77287D01*
X209311Y77206D01*
X209346Y77186D01*
X209377Y77161D01*
X209485Y77110D01*
X209589Y77052D01*
X209629Y77042D01*
X209665Y77025D01*
X209782Y77003D01*
X209897Y76973D01*
X209957Y76969D01*
X209977Y76965D01*
X209998Y76967D01*
X210058Y76963D01*
X212232Y76963D01*
X213964Y75231D01*
X213989Y75153D01*
X214011Y75118D01*
X214026Y75081D01*
X214095Y74985D01*
X214159Y74884D01*
X214189Y74856D01*
X214212Y74823D01*
X214304Y74747D01*
X214391Y74666D01*
X214426Y74646D01*
X214457Y74621D01*
X214565Y74570D01*
X214669Y74512D01*
X214709Y74502D01*
X214745Y74485D01*
X214862Y74463D01*
X214977Y74433D01*
X215037Y74429D01*
X215057Y74425D01*
X215078Y74427D01*
X215138Y74423D01*
X216296Y74423D01*
X217933Y72786D01*
X217933Y70470D01*
X216296Y68833D01*
X213980Y68833D01*
X212248Y70565D01*
X212223Y70643D01*
X212201Y70678D01*
X212186Y70715D01*
X212117Y70811D01*
X212053Y70912D01*
X212023Y70940D01*
X212000Y70973D01*
X211908Y71049D01*
X211821Y71130D01*
X211786Y71150D01*
X211755Y71175D01*
X211647Y71226D01*
X211543Y71284D01*
X211503Y71294D01*
X211467Y71311D01*
X211350Y71333D01*
X211235Y71363D01*
X211175Y71367D01*
X211155Y71371D01*
X211154Y71371D01*
X211134Y71369D01*
X211074Y71373D01*
X210956Y71358D01*
X210837Y71351D01*
X210799Y71338D01*
X210758Y71333D01*
X210648Y71290D01*
X210535Y71253D01*
X210500Y71231D01*
X210463Y71216D01*
X210367Y71147D01*
X210266Y71083D01*
X210238Y71053D01*
X210205Y71030D01*
X210129Y70938D01*
X210048Y70851D01*
X210028Y70816D01*
X210003Y70785D01*
X209952Y70677D01*
X209894Y70573D01*
X209890Y70556D01*
X208168Y68833D01*
X205852Y68833D01*
G37*
%LPD*%
%LPC*%
G36*
X237348Y176021D02*
X237348Y176021D01*
X235711Y177658D01*
X235711Y179974D01*
X237348Y181611D01*
X239664Y181611D01*
X240148Y181126D01*
X240242Y181053D01*
X240332Y180974D01*
X240368Y180956D01*
X240400Y180931D01*
X240509Y180884D01*
X240615Y180829D01*
X240654Y180821D01*
X240692Y180805D01*
X240809Y180786D01*
X240925Y180760D01*
X240966Y180761D01*
X241006Y180755D01*
X241124Y180766D01*
X241243Y180769D01*
X241282Y180781D01*
X241322Y180785D01*
X241434Y180825D01*
X241549Y180858D01*
X241584Y180878D01*
X241622Y180892D01*
X241720Y180959D01*
X241823Y181019D01*
X241868Y181059D01*
X241885Y181071D01*
X241898Y181086D01*
X241943Y181126D01*
X242428Y181611D01*
X244602Y181611D01*
X244720Y181626D01*
X244839Y181633D01*
X244877Y181646D01*
X244918Y181651D01*
X245028Y181694D01*
X245141Y181731D01*
X245176Y181753D01*
X245213Y181768D01*
X245309Y181837D01*
X245410Y181901D01*
X245438Y181931D01*
X245471Y181954D01*
X245547Y182046D01*
X245628Y182133D01*
X245648Y182168D01*
X245673Y182199D01*
X245724Y182307D01*
X245782Y182411D01*
X245792Y182451D01*
X245809Y182487D01*
X245831Y182604D01*
X245861Y182719D01*
X245865Y182779D01*
X245869Y182799D01*
X245867Y182820D01*
X245871Y182880D01*
X245871Y184546D01*
X247508Y186183D01*
X249824Y186183D01*
X251461Y184546D01*
X251461Y182230D01*
X251230Y181999D01*
X251157Y181905D01*
X251078Y181816D01*
X251060Y181780D01*
X251035Y181748D01*
X250988Y181639D01*
X250933Y181533D01*
X250925Y181493D01*
X250909Y181456D01*
X250890Y181339D01*
X250864Y181223D01*
X250865Y181182D01*
X250859Y181142D01*
X250870Y181023D01*
X250874Y180905D01*
X250885Y180866D01*
X250889Y180826D01*
X250929Y180713D01*
X250962Y180599D01*
X250982Y180564D01*
X250996Y180526D01*
X251063Y180428D01*
X251123Y180325D01*
X251163Y180280D01*
X251175Y180263D01*
X251190Y180250D01*
X251230Y180204D01*
X251461Y179974D01*
X251461Y177658D01*
X249824Y176021D01*
X247508Y176021D01*
X247024Y176506D01*
X246930Y176579D01*
X246840Y176658D01*
X246804Y176676D01*
X246772Y176701D01*
X246663Y176748D01*
X246557Y176803D01*
X246518Y176811D01*
X246480Y176827D01*
X246363Y176846D01*
X246247Y176872D01*
X246206Y176871D01*
X246166Y176877D01*
X246048Y176866D01*
X245929Y176863D01*
X245890Y176851D01*
X245850Y176847D01*
X245738Y176807D01*
X245623Y176774D01*
X245588Y176754D01*
X245550Y176740D01*
X245452Y176673D01*
X245349Y176613D01*
X245304Y176573D01*
X245287Y176561D01*
X245274Y176546D01*
X245229Y176506D01*
X244744Y176021D01*
X242428Y176021D01*
X241943Y176506D01*
X241849Y176579D01*
X241760Y176658D01*
X241724Y176676D01*
X241692Y176701D01*
X241583Y176748D01*
X241477Y176803D01*
X241438Y176811D01*
X241400Y176827D01*
X241283Y176846D01*
X241167Y176872D01*
X241126Y176871D01*
X241086Y176877D01*
X240968Y176866D01*
X240849Y176863D01*
X240810Y176851D01*
X240770Y176847D01*
X240658Y176807D01*
X240543Y176774D01*
X240508Y176754D01*
X240470Y176740D01*
X240372Y176673D01*
X240269Y176613D01*
X240224Y176573D01*
X240207Y176561D01*
X240194Y176546D01*
X240148Y176506D01*
X239664Y176021D01*
X237348Y176021D01*
G37*
%LPD*%
%LPC*%
G36*
X223632Y157479D02*
X223632Y157479D01*
X221995Y159116D01*
X221995Y159512D01*
X221980Y159630D01*
X221973Y159749D01*
X221960Y159787D01*
X221955Y159828D01*
X221912Y159938D01*
X221875Y160051D01*
X221853Y160086D01*
X221838Y160123D01*
X221769Y160219D01*
X221705Y160320D01*
X221675Y160348D01*
X221652Y160381D01*
X221560Y160457D01*
X221473Y160538D01*
X221438Y160558D01*
X221407Y160583D01*
X221299Y160634D01*
X221195Y160692D01*
X221155Y160702D01*
X221119Y160719D01*
X221002Y160741D01*
X220887Y160771D01*
X220827Y160775D01*
X220807Y160779D01*
X220786Y160777D01*
X220726Y160781D01*
X220330Y160781D01*
X218693Y162418D01*
X218693Y164734D01*
X220330Y166371D01*
X222646Y166371D01*
X223131Y165886D01*
X223240Y165801D01*
X223347Y165712D01*
X223366Y165703D01*
X223382Y165691D01*
X223510Y165636D01*
X223635Y165576D01*
X223655Y165573D01*
X223674Y165565D01*
X223812Y165543D01*
X223948Y165517D01*
X223968Y165518D01*
X223988Y165515D01*
X224127Y165528D01*
X224265Y165536D01*
X224284Y165543D01*
X224304Y165544D01*
X224435Y165592D01*
X224567Y165634D01*
X224585Y165645D01*
X224604Y165652D01*
X224718Y165730D01*
X224836Y165805D01*
X224850Y165819D01*
X224867Y165831D01*
X224959Y165935D01*
X225054Y166036D01*
X225064Y166054D01*
X225077Y166069D01*
X225140Y166193D01*
X225208Y166315D01*
X225213Y166334D01*
X225222Y166352D01*
X225246Y166460D01*
X226934Y168149D01*
X229250Y168149D01*
X230887Y166512D01*
X230887Y164196D01*
X229250Y162559D01*
X228854Y162559D01*
X228736Y162544D01*
X228617Y162537D01*
X228579Y162524D01*
X228538Y162519D01*
X228428Y162476D01*
X228315Y162439D01*
X228280Y162417D01*
X228243Y162402D01*
X228147Y162333D01*
X228046Y162269D01*
X228018Y162239D01*
X227985Y162216D01*
X227909Y162124D01*
X227828Y162037D01*
X227808Y162002D01*
X227783Y161971D01*
X227732Y161863D01*
X227674Y161759D01*
X227664Y161719D01*
X227647Y161683D01*
X227625Y161566D01*
X227595Y161451D01*
X227591Y161391D01*
X227587Y161371D01*
X227589Y161350D01*
X227585Y161290D01*
X227585Y159116D01*
X225948Y157479D01*
X223632Y157479D01*
G37*
%LPD*%
%LPC*%
G36*
X160034Y397017D02*
X160034Y397017D01*
X158257Y398794D01*
X158257Y401335D01*
X158325Y401417D01*
X158334Y401436D01*
X158346Y401452D01*
X158402Y401579D01*
X158461Y401705D01*
X158465Y401725D01*
X158473Y401744D01*
X158495Y401881D01*
X158521Y402018D01*
X158520Y402038D01*
X158523Y402058D01*
X158510Y402196D01*
X158501Y402335D01*
X158495Y402354D01*
X158493Y402374D01*
X158446Y402505D01*
X158403Y402637D01*
X158392Y402655D01*
X158385Y402674D01*
X158307Y402789D01*
X158233Y402906D01*
X158218Y402920D01*
X158207Y402937D01*
X158103Y403029D01*
X158001Y403124D01*
X157983Y403134D01*
X157968Y403147D01*
X157845Y403210D01*
X157723Y403278D01*
X157703Y403283D01*
X157685Y403292D01*
X157549Y403322D01*
X157535Y403326D01*
X155717Y405144D01*
X155717Y407656D01*
X157494Y409433D01*
X160006Y409433D01*
X161783Y407656D01*
X161783Y405115D01*
X161715Y405033D01*
X161706Y405014D01*
X161694Y404998D01*
X161638Y404871D01*
X161579Y404745D01*
X161575Y404725D01*
X161567Y404706D01*
X161545Y404569D01*
X161519Y404432D01*
X161520Y404412D01*
X161517Y404392D01*
X161530Y404254D01*
X161539Y404115D01*
X161545Y404096D01*
X161547Y404076D01*
X161594Y403945D01*
X161637Y403813D01*
X161648Y403795D01*
X161655Y403776D01*
X161733Y403661D01*
X161807Y403544D01*
X161822Y403530D01*
X161833Y403513D01*
X161937Y403421D01*
X162039Y403326D01*
X162057Y403316D01*
X162072Y403303D01*
X162195Y403240D01*
X162317Y403172D01*
X162337Y403167D01*
X162355Y403158D01*
X162491Y403128D01*
X162505Y403124D01*
X164323Y401306D01*
X164323Y398794D01*
X162546Y397017D01*
X160034Y397017D01*
G37*
%LPD*%
%LPC*%
G36*
X270270Y427751D02*
X270270Y427751D01*
X268493Y429528D01*
X268493Y432040D01*
X269404Y432951D01*
X269488Y433060D01*
X269577Y433167D01*
X269586Y433186D01*
X269599Y433202D01*
X269654Y433329D01*
X269713Y433455D01*
X269717Y433475D01*
X269725Y433494D01*
X269747Y433632D01*
X269773Y433768D01*
X269772Y433788D01*
X269775Y433808D01*
X269762Y433947D01*
X269753Y434085D01*
X269747Y434104D01*
X269745Y434124D01*
X269698Y434256D01*
X269655Y434387D01*
X269644Y434405D01*
X269637Y434424D01*
X269559Y434539D01*
X269485Y434656D01*
X269470Y434670D01*
X269459Y434687D01*
X269354Y434779D01*
X269253Y434874D01*
X269236Y434884D01*
X269220Y434897D01*
X269096Y434961D01*
X268975Y435028D01*
X268955Y435033D01*
X268937Y435042D01*
X268801Y435072D01*
X268667Y435107D01*
X268639Y435109D01*
X268627Y435112D01*
X268606Y435111D01*
X268506Y435117D01*
X266968Y435117D01*
X265191Y436894D01*
X265191Y439406D01*
X266968Y441183D01*
X269480Y441183D01*
X271257Y439406D01*
X271257Y436894D01*
X270346Y435983D01*
X270262Y435874D01*
X270173Y435767D01*
X270164Y435748D01*
X270151Y435732D01*
X270096Y435605D01*
X270037Y435479D01*
X270033Y435459D01*
X270025Y435440D01*
X270003Y435302D01*
X269977Y435166D01*
X269978Y435146D01*
X269975Y435126D01*
X269988Y434987D01*
X269997Y434849D01*
X270003Y434830D01*
X270005Y434810D01*
X270052Y434678D01*
X270095Y434547D01*
X270106Y434529D01*
X270113Y434510D01*
X270191Y434395D01*
X270265Y434278D01*
X270280Y434264D01*
X270291Y434247D01*
X270396Y434155D01*
X270497Y434060D01*
X270514Y434050D01*
X270530Y434037D01*
X270654Y433973D01*
X270775Y433906D01*
X270795Y433901D01*
X270813Y433892D01*
X270949Y433862D01*
X271083Y433827D01*
X271111Y433825D01*
X271123Y433822D01*
X271144Y433823D01*
X271244Y433817D01*
X272782Y433817D01*
X274559Y432040D01*
X274559Y429528D01*
X272782Y427751D01*
X270270Y427751D01*
G37*
%LPD*%
G36*
X136456Y159919D02*
X136456Y159919D01*
X136595Y159923D01*
X136615Y159929D01*
X136635Y159930D01*
X136767Y159973D01*
X136901Y160012D01*
X136918Y160022D01*
X136937Y160028D01*
X137022Y160082D01*
X137029Y160085D01*
X137047Y160098D01*
X137055Y160103D01*
X137175Y160173D01*
X137196Y160192D01*
X137206Y160199D01*
X137220Y160214D01*
X137285Y160271D01*
X137286Y160271D01*
X137287Y160272D01*
X137295Y160280D01*
X140344Y163328D01*
X140404Y163406D01*
X140472Y163478D01*
X140501Y163531D01*
X140538Y163579D01*
X140578Y163670D01*
X140626Y163757D01*
X140641Y163815D01*
X140665Y163871D01*
X140680Y163969D01*
X140705Y164065D01*
X140711Y164165D01*
X140715Y164185D01*
X140713Y164197D01*
X140715Y164225D01*
X140715Y170783D01*
X140698Y170921D01*
X140685Y171059D01*
X140678Y171078D01*
X140675Y171098D01*
X140624Y171227D01*
X140577Y171358D01*
X140566Y171375D01*
X140558Y171394D01*
X140477Y171506D01*
X140399Y171621D01*
X140383Y171635D01*
X140372Y171651D01*
X140264Y171740D01*
X140160Y171832D01*
X140142Y171841D01*
X140127Y171854D01*
X140001Y171913D01*
X139877Y171977D01*
X139857Y171981D01*
X139839Y171990D01*
X139702Y172016D01*
X139567Y172046D01*
X139546Y172046D01*
X139527Y172049D01*
X139388Y172041D01*
X139249Y172037D01*
X139229Y172031D01*
X139209Y172030D01*
X139077Y171987D01*
X138943Y171948D01*
X138926Y171938D01*
X138907Y171932D01*
X138789Y171857D01*
X138669Y171787D01*
X138648Y171768D01*
X138638Y171761D01*
X138624Y171746D01*
X138549Y171680D01*
X138064Y171195D01*
X136398Y171195D01*
X136280Y171180D01*
X136161Y171173D01*
X136123Y171160D01*
X136082Y171155D01*
X135972Y171112D01*
X135859Y171075D01*
X135824Y171053D01*
X135787Y171038D01*
X135691Y170969D01*
X135590Y170905D01*
X135562Y170875D01*
X135529Y170852D01*
X135453Y170760D01*
X135372Y170673D01*
X135352Y170638D01*
X135327Y170607D01*
X135276Y170499D01*
X135218Y170395D01*
X135208Y170355D01*
X135191Y170319D01*
X135169Y170202D01*
X135139Y170087D01*
X135135Y170027D01*
X135131Y170007D01*
X135133Y169986D01*
X135129Y169926D01*
X135129Y161177D01*
X135146Y161040D01*
X135151Y160960D01*
X135155Y160949D01*
X135159Y160901D01*
X135166Y160882D01*
X135169Y160862D01*
X135220Y160733D01*
X135267Y160602D01*
X135278Y160585D01*
X135286Y160566D01*
X135367Y160454D01*
X135445Y160338D01*
X135461Y160325D01*
X135472Y160309D01*
X135580Y160220D01*
X135684Y160128D01*
X135702Y160119D01*
X135717Y160106D01*
X135843Y160047D01*
X135967Y159983D01*
X135987Y159979D01*
X136005Y159970D01*
X136141Y159944D01*
X136277Y159914D01*
X136298Y159914D01*
X136317Y159911D01*
X136456Y159919D01*
G37*
%LPC*%
G36*
X217536Y44957D02*
X217536Y44957D01*
X215899Y46594D01*
X215899Y48910D01*
X217576Y50586D01*
X217580Y50587D01*
X217709Y50638D01*
X217840Y50685D01*
X217857Y50696D01*
X217876Y50704D01*
X217988Y50785D01*
X218103Y50863D01*
X218117Y50879D01*
X218133Y50890D01*
X218222Y50998D01*
X218314Y51102D01*
X218323Y51120D01*
X218336Y51135D01*
X218395Y51261D01*
X218459Y51385D01*
X218463Y51405D01*
X218472Y51423D01*
X218498Y51560D01*
X218528Y51695D01*
X218528Y51716D01*
X218531Y51735D01*
X218523Y51874D01*
X218519Y52013D01*
X218513Y52033D01*
X218512Y52053D01*
X218469Y52185D01*
X218430Y52319D01*
X218420Y52336D01*
X218414Y52355D01*
X218339Y52473D01*
X218269Y52593D01*
X218250Y52614D01*
X218243Y52624D01*
X218228Y52638D01*
X218162Y52713D01*
X217677Y53198D01*
X217677Y55514D01*
X219314Y57151D01*
X221630Y57151D01*
X223267Y55514D01*
X223267Y53753D01*
X223284Y53615D01*
X223297Y53477D01*
X223304Y53458D01*
X223307Y53438D01*
X223358Y53309D01*
X223405Y53178D01*
X223416Y53161D01*
X223424Y53142D01*
X223505Y53030D01*
X223578Y52922D01*
X223462Y52915D01*
X223323Y52911D01*
X223303Y52905D01*
X223283Y52904D01*
X223151Y52861D01*
X223017Y52822D01*
X223000Y52812D01*
X222981Y52806D01*
X222863Y52731D01*
X222743Y52661D01*
X222722Y52642D01*
X222712Y52635D01*
X222698Y52620D01*
X222623Y52554D01*
X221590Y51522D01*
X221586Y51521D01*
X221457Y51470D01*
X221326Y51423D01*
X221309Y51412D01*
X221290Y51404D01*
X221178Y51323D01*
X221063Y51245D01*
X221049Y51229D01*
X221033Y51218D01*
X220944Y51110D01*
X220852Y51006D01*
X220843Y50988D01*
X220830Y50973D01*
X220771Y50847D01*
X220707Y50723D01*
X220703Y50703D01*
X220694Y50685D01*
X220668Y50548D01*
X220638Y50413D01*
X220638Y50392D01*
X220635Y50373D01*
X220643Y50234D01*
X220647Y50095D01*
X220653Y50075D01*
X220654Y50055D01*
X220697Y49923D01*
X220736Y49789D01*
X220746Y49772D01*
X220752Y49753D01*
X220827Y49635D01*
X220897Y49515D01*
X220916Y49494D01*
X220923Y49484D01*
X220938Y49470D01*
X221004Y49395D01*
X221489Y48910D01*
X221489Y46594D01*
X219852Y44957D01*
X217536Y44957D01*
G37*
%LPD*%
%LPC*%
G36*
X264272Y146811D02*
X264272Y146811D01*
X262635Y148448D01*
X262635Y150764D01*
X264272Y152401D01*
X266588Y152401D01*
X266818Y152170D01*
X266928Y152085D01*
X267035Y151996D01*
X267054Y151987D01*
X267070Y151975D01*
X267198Y151919D01*
X267323Y151860D01*
X267343Y151857D01*
X267362Y151849D01*
X267500Y151827D01*
X267636Y151801D01*
X267656Y151802D01*
X267676Y151799D01*
X267815Y151812D01*
X267953Y151820D01*
X267972Y151827D01*
X267992Y151828D01*
X268123Y151876D01*
X268255Y151918D01*
X268273Y151929D01*
X268292Y151936D01*
X268406Y152014D01*
X268524Y152089D01*
X268538Y152103D01*
X268555Y152115D01*
X268647Y152219D01*
X268742Y152320D01*
X268752Y152338D01*
X268765Y152353D01*
X268828Y152477D01*
X268896Y152599D01*
X268901Y152618D01*
X268910Y152636D01*
X268940Y152772D01*
X268975Y152907D01*
X268977Y152935D01*
X268980Y152947D01*
X268979Y152967D01*
X268985Y153067D01*
X268985Y154066D01*
X270622Y155703D01*
X272938Y155703D01*
X274575Y154066D01*
X274575Y151750D01*
X272938Y150113D01*
X270622Y150113D01*
X270392Y150344D01*
X270282Y150429D01*
X270175Y150518D01*
X270156Y150527D01*
X270140Y150539D01*
X270012Y150595D01*
X269887Y150654D01*
X269867Y150657D01*
X269848Y150665D01*
X269710Y150687D01*
X269574Y150713D01*
X269554Y150712D01*
X269534Y150715D01*
X269395Y150702D01*
X269257Y150694D01*
X269238Y150687D01*
X269218Y150686D01*
X269087Y150638D01*
X268955Y150596D01*
X268937Y150585D01*
X268918Y150578D01*
X268804Y150500D01*
X268686Y150425D01*
X268672Y150411D01*
X268655Y150399D01*
X268563Y150295D01*
X268468Y150194D01*
X268458Y150176D01*
X268445Y150161D01*
X268382Y150037D01*
X268314Y149915D01*
X268309Y149896D01*
X268300Y149878D01*
X268270Y149742D01*
X268235Y149607D01*
X268233Y149579D01*
X268230Y149567D01*
X268231Y149547D01*
X268225Y149447D01*
X268225Y148448D01*
X266588Y146811D01*
X264272Y146811D01*
G37*
%LPD*%
%LPC*%
G36*
X176896Y44957D02*
X176896Y44957D01*
X175259Y46594D01*
X175259Y48910D01*
X176506Y50156D01*
X176579Y50251D01*
X176658Y50340D01*
X176676Y50376D01*
X176701Y50408D01*
X176748Y50517D01*
X176803Y50623D01*
X176811Y50662D01*
X176827Y50700D01*
X176846Y50817D01*
X176872Y50933D01*
X176871Y50974D01*
X176877Y51014D01*
X176866Y51132D01*
X176863Y51251D01*
X176851Y51290D01*
X176847Y51330D01*
X176807Y51443D01*
X176774Y51557D01*
X176754Y51591D01*
X176740Y51630D01*
X176673Y51728D01*
X176613Y51831D01*
X176573Y51876D01*
X176561Y51893D01*
X176546Y51906D01*
X176506Y51951D01*
X175259Y53198D01*
X175259Y55514D01*
X176896Y57151D01*
X179212Y57151D01*
X180849Y55514D01*
X180849Y53198D01*
X179602Y51951D01*
X179529Y51857D01*
X179450Y51768D01*
X179432Y51732D01*
X179407Y51700D01*
X179360Y51591D01*
X179305Y51485D01*
X179297Y51446D01*
X179281Y51408D01*
X179262Y51291D01*
X179236Y51175D01*
X179237Y51134D01*
X179231Y51094D01*
X179242Y50976D01*
X179245Y50857D01*
X179257Y50818D01*
X179261Y50778D01*
X179301Y50666D01*
X179334Y50551D01*
X179354Y50516D01*
X179368Y50478D01*
X179435Y50380D01*
X179495Y50277D01*
X179535Y50232D01*
X179547Y50215D01*
X179562Y50202D01*
X179602Y50156D01*
X180849Y48910D01*
X180849Y46594D01*
X179212Y44957D01*
X176896Y44957D01*
G37*
%LPD*%
%LPC*%
G36*
X195438Y209803D02*
X195438Y209803D01*
X193801Y211440D01*
X193801Y213756D01*
X195438Y215393D01*
X195834Y215393D01*
X195952Y215408D01*
X196071Y215415D01*
X196109Y215428D01*
X196150Y215433D01*
X196260Y215476D01*
X196373Y215513D01*
X196408Y215535D01*
X196445Y215550D01*
X196541Y215619D01*
X196642Y215683D01*
X196670Y215713D01*
X196703Y215736D01*
X196779Y215828D01*
X196860Y215915D01*
X196880Y215950D01*
X196905Y215981D01*
X196956Y216089D01*
X197014Y216193D01*
X197024Y216233D01*
X197041Y216269D01*
X197063Y216386D01*
X197093Y216501D01*
X197097Y216561D01*
X197101Y216581D01*
X197099Y216602D01*
X197103Y216662D01*
X197103Y218582D01*
X198740Y220219D01*
X201056Y220219D01*
X202693Y218582D01*
X202693Y216266D01*
X201056Y214629D01*
X200660Y214629D01*
X200542Y214614D01*
X200423Y214607D01*
X200385Y214594D01*
X200344Y214589D01*
X200234Y214546D01*
X200121Y214509D01*
X200086Y214487D01*
X200049Y214472D01*
X199953Y214403D01*
X199852Y214339D01*
X199824Y214309D01*
X199791Y214286D01*
X199715Y214194D01*
X199634Y214107D01*
X199614Y214072D01*
X199589Y214041D01*
X199538Y213933D01*
X199480Y213829D01*
X199470Y213789D01*
X199453Y213753D01*
X199431Y213636D01*
X199401Y213521D01*
X199397Y213461D01*
X199393Y213441D01*
X199395Y213420D01*
X199391Y213360D01*
X199391Y211440D01*
X197754Y209803D01*
X195438Y209803D01*
G37*
%LPD*%
%LPC*%
G36*
X216266Y99567D02*
X216266Y99567D01*
X214629Y101204D01*
X214629Y103520D01*
X216266Y105157D01*
X217424Y105157D01*
X217542Y105172D01*
X217661Y105179D01*
X217699Y105192D01*
X217740Y105197D01*
X217850Y105240D01*
X217963Y105277D01*
X217998Y105299D01*
X218035Y105314D01*
X218131Y105383D01*
X218232Y105447D01*
X218260Y105477D01*
X218293Y105500D01*
X218369Y105592D01*
X218450Y105679D01*
X218470Y105714D01*
X218495Y105745D01*
X218546Y105853D01*
X218604Y105957D01*
X218614Y105997D01*
X218631Y106033D01*
X218653Y106150D01*
X218683Y106265D01*
X218687Y106325D01*
X218691Y106345D01*
X218689Y106366D01*
X218693Y106426D01*
X218693Y106822D01*
X220330Y108459D01*
X222646Y108459D01*
X224283Y106822D01*
X224283Y104506D01*
X222646Y102869D01*
X221488Y102869D01*
X221370Y102854D01*
X221251Y102847D01*
X221213Y102834D01*
X221172Y102829D01*
X221062Y102786D01*
X220949Y102749D01*
X220914Y102727D01*
X220877Y102712D01*
X220781Y102643D01*
X220680Y102579D01*
X220652Y102549D01*
X220619Y102526D01*
X220543Y102434D01*
X220462Y102347D01*
X220442Y102312D01*
X220417Y102281D01*
X220366Y102173D01*
X220308Y102069D01*
X220298Y102029D01*
X220281Y101993D01*
X220259Y101876D01*
X220229Y101761D01*
X220225Y101701D01*
X220221Y101681D01*
X220223Y101660D01*
X220219Y101600D01*
X220219Y101204D01*
X218582Y99567D01*
X216266Y99567D01*
G37*
%LPD*%
%LPC*%
G36*
X138444Y371617D02*
X138444Y371617D01*
X136667Y373394D01*
X136667Y375906D01*
X138444Y377683D01*
X140956Y377683D01*
X142733Y375906D01*
X142733Y373394D01*
X140956Y371617D01*
X138444Y371617D01*
G37*
%LPD*%
%LPC*%
G36*
X100344Y329961D02*
X100344Y329961D01*
X98567Y331738D01*
X98567Y334250D01*
X100344Y336027D01*
X102856Y336027D01*
X104633Y334250D01*
X104633Y331738D01*
X102856Y329961D01*
X100344Y329961D01*
G37*
%LPD*%
%LPC*%
G36*
X119648Y278653D02*
X119648Y278653D01*
X117871Y280430D01*
X117871Y282942D01*
X119648Y284719D01*
X122160Y284719D01*
X123937Y282942D01*
X123937Y280430D01*
X122160Y278653D01*
X119648Y278653D01*
G37*
%LPD*%
%LPC*%
G36*
X335294Y212867D02*
X335294Y212867D01*
X333517Y214644D01*
X333517Y217156D01*
X335294Y218933D01*
X337806Y218933D01*
X339583Y217156D01*
X339583Y214644D01*
X337806Y212867D01*
X335294Y212867D01*
G37*
%LPD*%
%LPC*%
G36*
X79262Y345709D02*
X79262Y345709D01*
X77485Y347486D01*
X77485Y349998D01*
X79262Y351775D01*
X81774Y351775D01*
X83551Y349998D01*
X83551Y347486D01*
X81774Y345709D01*
X79262Y345709D01*
G37*
%LPD*%
%LPC*%
G36*
X30494Y204231D02*
X30494Y204231D01*
X28717Y206008D01*
X28717Y208520D01*
X30494Y210297D01*
X33006Y210297D01*
X34783Y208520D01*
X34783Y206008D01*
X33006Y204231D01*
X30494Y204231D01*
G37*
%LPD*%
%LPC*%
G36*
X68102Y79517D02*
X68102Y79517D01*
X66325Y81294D01*
X66325Y83806D01*
X68102Y85583D01*
X70614Y85583D01*
X72391Y83806D01*
X72391Y81294D01*
X70614Y79517D01*
X68102Y79517D01*
G37*
%LPD*%
%LPC*%
G36*
X336056Y203723D02*
X336056Y203723D01*
X334279Y205500D01*
X334279Y208012D01*
X336056Y209789D01*
X338568Y209789D01*
X340345Y208012D01*
X340345Y205500D01*
X338568Y203723D01*
X336056Y203723D01*
G37*
%LPD*%
%LPC*%
G36*
X124982Y354345D02*
X124982Y354345D01*
X123205Y356122D01*
X123205Y358634D01*
X124982Y360411D01*
X127494Y360411D01*
X129271Y358634D01*
X129271Y356122D01*
X127494Y354345D01*
X124982Y354345D01*
G37*
%LPD*%
%LPC*%
G36*
X204230Y200167D02*
X204230Y200167D01*
X202453Y201944D01*
X202453Y204456D01*
X204230Y206233D01*
X206742Y206233D01*
X208519Y204456D01*
X208519Y201944D01*
X206742Y200167D01*
X204230Y200167D01*
G37*
%LPD*%
%LPC*%
G36*
X73928Y326659D02*
X73928Y326659D01*
X72151Y328436D01*
X72151Y330948D01*
X73928Y332725D01*
X76440Y332725D01*
X78217Y330948D01*
X78217Y328436D01*
X76440Y326659D01*
X73928Y326659D01*
G37*
%LPD*%
%LPC*%
G36*
X65546Y362219D02*
X65546Y362219D01*
X63769Y363996D01*
X63769Y366508D01*
X65546Y368285D01*
X68058Y368285D01*
X69835Y366508D01*
X69835Y363996D01*
X68058Y362219D01*
X65546Y362219D01*
G37*
%LPD*%
%LPC*%
G36*
X354344Y149367D02*
X354344Y149367D01*
X352567Y151144D01*
X352567Y153656D01*
X354344Y155433D01*
X356856Y155433D01*
X358633Y153656D01*
X358633Y151144D01*
X356856Y149367D01*
X354344Y149367D01*
G37*
%LPD*%
%LPC*%
G36*
X49544Y104917D02*
X49544Y104917D01*
X47767Y106694D01*
X47767Y109206D01*
X49544Y110983D01*
X52056Y110983D01*
X53833Y109206D01*
X53833Y106694D01*
X52056Y104917D01*
X49544Y104917D01*
G37*
%LPD*%
%LPC*%
G36*
X184377Y390667D02*
X184377Y390667D01*
X182600Y392444D01*
X182600Y394956D01*
X184377Y396733D01*
X186889Y396733D01*
X188666Y394956D01*
X188666Y392444D01*
X186889Y390667D01*
X184377Y390667D01*
G37*
%LPD*%
%LPC*%
G36*
X360694Y390667D02*
X360694Y390667D01*
X358917Y392444D01*
X358917Y394956D01*
X360694Y396733D01*
X363206Y396733D01*
X364983Y394956D01*
X364983Y392444D01*
X363206Y390667D01*
X360694Y390667D01*
G37*
%LPD*%
%LPC*%
G36*
X117249Y174146D02*
X117249Y174146D01*
X115472Y175923D01*
X115472Y178435D01*
X117249Y180212D01*
X119761Y180212D01*
X121538Y178435D01*
X121538Y175923D01*
X119761Y174146D01*
X117249Y174146D01*
G37*
%LPD*%
%LPC*%
G36*
X125236Y411241D02*
X125236Y411241D01*
X123459Y413018D01*
X123459Y415530D01*
X125236Y417307D01*
X127748Y417307D01*
X129525Y415530D01*
X129525Y413018D01*
X127748Y411241D01*
X125236Y411241D01*
G37*
%LPD*%
%LPC*%
G36*
X106694Y143017D02*
X106694Y143017D01*
X104917Y144794D01*
X104917Y147306D01*
X106694Y149083D01*
X109206Y149083D01*
X110983Y147306D01*
X110983Y144794D01*
X109206Y143017D01*
X106694Y143017D01*
G37*
%LPD*%
%LPC*%
G36*
X113044Y164353D02*
X113044Y164353D01*
X111267Y166130D01*
X111267Y168642D01*
X113044Y170419D01*
X115556Y170419D01*
X117333Y168642D01*
X117333Y166130D01*
X115556Y164353D01*
X113044Y164353D01*
G37*
%LPD*%
%LPC*%
G36*
X68086Y34813D02*
X68086Y34813D01*
X66309Y36590D01*
X66309Y39102D01*
X68086Y40879D01*
X70598Y40879D01*
X72375Y39102D01*
X72375Y36590D01*
X70598Y34813D01*
X68086Y34813D01*
G37*
%LPD*%
%LPC*%
G36*
X113044Y445531D02*
X113044Y445531D01*
X111267Y447308D01*
X111267Y449820D01*
X113044Y451597D01*
X115556Y451597D01*
X117333Y449820D01*
X117333Y447308D01*
X115556Y445531D01*
X113044Y445531D01*
G37*
%LPD*%
%LPC*%
G36*
X226426Y48259D02*
X226426Y48259D01*
X224789Y49896D01*
X224789Y51657D01*
X224772Y51795D01*
X224759Y51933D01*
X224752Y51952D01*
X224749Y51972D01*
X224698Y52101D01*
X224651Y52232D01*
X224640Y52249D01*
X224632Y52268D01*
X224551Y52380D01*
X224478Y52488D01*
X224594Y52495D01*
X224733Y52499D01*
X224753Y52505D01*
X224773Y52506D01*
X224905Y52549D01*
X225039Y52588D01*
X225056Y52598D01*
X225075Y52604D01*
X225193Y52679D01*
X225313Y52749D01*
X225334Y52768D01*
X225344Y52775D01*
X225358Y52790D01*
X225433Y52856D01*
X226426Y53849D01*
X228742Y53849D01*
X230379Y52212D01*
X230379Y49896D01*
X228742Y48259D01*
X226426Y48259D01*
G37*
%LPD*%
%LPC*%
G36*
X180452Y68833D02*
X180452Y68833D01*
X178815Y70470D01*
X178815Y72786D01*
X180452Y74423D01*
X182788Y74423D01*
X182797Y74407D01*
X182816Y74386D01*
X182823Y74376D01*
X182838Y74362D01*
X182904Y74287D01*
X184405Y72786D01*
X184405Y70470D01*
X182768Y68833D01*
X180452Y68833D01*
G37*
%LPD*%
%LPC*%
G36*
X243444Y162051D02*
X243444Y162051D01*
X241807Y163688D01*
X241807Y166004D01*
X243444Y167641D01*
X245760Y167641D01*
X247397Y166004D01*
X247397Y163688D01*
X245760Y162051D01*
X243444Y162051D01*
G37*
%LPD*%
%LPC*%
G36*
X164450Y148843D02*
X164450Y148843D01*
X162813Y150480D01*
X162813Y152796D01*
X164450Y154433D01*
X166766Y154433D01*
X168403Y152796D01*
X168403Y150480D01*
X166766Y148843D01*
X164450Y148843D01*
G37*
%LPD*%
%LPC*%
G36*
X238110Y147827D02*
X238110Y147827D01*
X236473Y149464D01*
X236473Y151780D01*
X238110Y153417D01*
X240426Y153417D01*
X242063Y151780D01*
X242063Y149464D01*
X240426Y147827D01*
X238110Y147827D01*
G37*
%LPD*%
%LPC*%
G36*
X54214Y165861D02*
X54214Y165861D01*
X52577Y167498D01*
X52577Y169814D01*
X54214Y171451D01*
X56530Y171451D01*
X58167Y169814D01*
X58167Y167498D01*
X56530Y165861D01*
X54214Y165861D01*
G37*
%LPD*%
%LPC*%
G36*
X203312Y133095D02*
X203312Y133095D01*
X201675Y134732D01*
X201675Y137048D01*
X203312Y138685D01*
X205628Y138685D01*
X207265Y137048D01*
X207265Y134732D01*
X205628Y133095D01*
X203312Y133095D01*
G37*
%LPD*%
%LPC*%
G36*
X227950Y131063D02*
X227950Y131063D01*
X226313Y132700D01*
X226313Y135016D01*
X227950Y136653D01*
X230266Y136653D01*
X231903Y135016D01*
X231903Y132700D01*
X230266Y131063D01*
X227950Y131063D01*
G37*
%LPD*%
%LPC*%
G36*
X246746Y129285D02*
X246746Y129285D01*
X245109Y130922D01*
X245109Y133238D01*
X246746Y134875D01*
X249062Y134875D01*
X250699Y133238D01*
X250699Y130922D01*
X249062Y129285D01*
X246746Y129285D01*
G37*
%LPD*%
%LPC*%
G36*
X234808Y122173D02*
X234808Y122173D01*
X233171Y123810D01*
X233171Y126126D01*
X234808Y127763D01*
X237124Y127763D01*
X238761Y126126D01*
X238761Y123810D01*
X237124Y122173D01*
X234808Y122173D01*
G37*
%LPD*%
%LPC*%
G36*
X273416Y185165D02*
X273416Y185165D01*
X271779Y186802D01*
X271779Y189118D01*
X273416Y190755D01*
X275732Y190755D01*
X277369Y189118D01*
X277369Y186802D01*
X275732Y185165D01*
X273416Y185165D01*
G37*
%LPD*%
%LPC*%
G36*
X231252Y108203D02*
X231252Y108203D01*
X229615Y109840D01*
X229615Y112156D01*
X231252Y113793D01*
X233568Y113793D01*
X235205Y112156D01*
X235205Y109840D01*
X233568Y108203D01*
X231252Y108203D01*
G37*
%LPD*%
%LPC*%
G36*
X180960Y186435D02*
X180960Y186435D01*
X179323Y188072D01*
X179323Y190388D01*
X180960Y192025D01*
X183276Y192025D01*
X184913Y190388D01*
X184913Y188072D01*
X183276Y186435D01*
X180960Y186435D01*
G37*
%LPD*%
%LPC*%
G36*
X206360Y104647D02*
X206360Y104647D01*
X204723Y106284D01*
X204723Y108600D01*
X206360Y110237D01*
X208676Y110237D01*
X210313Y108600D01*
X210313Y106284D01*
X208676Y104647D01*
X206360Y104647D01*
G37*
%LPD*%
%LPC*%
G36*
X285354Y199389D02*
X285354Y199389D01*
X283717Y201026D01*
X283717Y203342D01*
X285354Y204979D01*
X287670Y204979D01*
X289307Y203342D01*
X289307Y201026D01*
X287670Y199389D01*
X285354Y199389D01*
G37*
%LPD*%
%LPC*%
G36*
X82154Y92963D02*
X82154Y92963D01*
X80517Y94600D01*
X80517Y96916D01*
X82154Y98553D01*
X84470Y98553D01*
X86107Y96916D01*
X86107Y94600D01*
X84470Y92963D01*
X82154Y92963D01*
G37*
%LPD*%
%LPC*%
G36*
X175880Y202945D02*
X175880Y202945D01*
X174243Y204582D01*
X174243Y206898D01*
X175880Y208535D01*
X178196Y208535D01*
X179833Y206898D01*
X179833Y204582D01*
X178196Y202945D01*
X175880Y202945D01*
G37*
%LPD*%
%LPC*%
G36*
X291958Y204469D02*
X291958Y204469D01*
X290321Y206106D01*
X290321Y208422D01*
X291958Y210059D01*
X294274Y210059D01*
X295911Y208422D01*
X295911Y206106D01*
X294274Y204469D01*
X291958Y204469D01*
G37*
%LPD*%
%LPC*%
G36*
X172578Y211581D02*
X172578Y211581D01*
X170941Y213218D01*
X170941Y215534D01*
X172578Y217171D01*
X174894Y217171D01*
X176531Y215534D01*
X176531Y213218D01*
X174894Y211581D01*
X172578Y211581D01*
G37*
%LPD*%
%LPC*%
G36*
X265288Y215137D02*
X265288Y215137D01*
X263651Y216774D01*
X263651Y219090D01*
X265288Y220727D01*
X267604Y220727D01*
X269241Y219090D01*
X269241Y216774D01*
X267604Y215137D01*
X265288Y215137D01*
G37*
%LPD*%
%LPC*%
G36*
X157084Y73913D02*
X157084Y73913D01*
X155447Y75550D01*
X155447Y77866D01*
X157084Y79503D01*
X159400Y79503D01*
X161037Y77866D01*
X161037Y75550D01*
X159400Y73913D01*
X157084Y73913D01*
G37*
%LPD*%
%LPC*%
G36*
X196200Y73405D02*
X196200Y73405D01*
X194563Y75042D01*
X194563Y77358D01*
X196200Y78995D01*
X198516Y78995D01*
X200153Y77358D01*
X200153Y75042D01*
X198516Y73405D01*
X196200Y73405D01*
G37*
%LPD*%
%LPC*%
G36*
X295514Y215137D02*
X295514Y215137D01*
X293877Y216774D01*
X293877Y219090D01*
X295514Y220727D01*
X297830Y220727D01*
X299467Y219090D01*
X299467Y216774D01*
X297830Y215137D01*
X295514Y215137D01*
G37*
%LPD*%
%LPC*%
G36*
X180706Y260603D02*
X180706Y260603D01*
X179069Y262240D01*
X179069Y264556D01*
X180706Y266193D01*
X183022Y266193D01*
X184659Y264556D01*
X184659Y262240D01*
X183022Y260603D01*
X180706Y260603D01*
G37*
%LPD*%
%LPC*%
G36*
X145654Y279145D02*
X145654Y279145D01*
X144017Y280782D01*
X144017Y283098D01*
X145654Y284735D01*
X147970Y284735D01*
X149607Y283098D01*
X149607Y280782D01*
X147970Y279145D01*
X145654Y279145D01*
G37*
%LPD*%
%LPC*%
G36*
X144892Y291337D02*
X144892Y291337D01*
X143255Y292974D01*
X143255Y295290D01*
X144892Y296927D01*
X147208Y296927D01*
X148845Y295290D01*
X148845Y292974D01*
X147208Y291337D01*
X144892Y291337D01*
G37*
%LPD*%
%LPC*%
G36*
X244460Y378205D02*
X244460Y378205D01*
X242823Y379842D01*
X242823Y382158D01*
X244460Y383795D01*
X246776Y383795D01*
X248413Y382158D01*
X248413Y379842D01*
X246776Y378205D01*
X244460Y378205D01*
G37*
%LPD*%
%LPC*%
G36*
X230490Y438149D02*
X230490Y438149D01*
X228853Y439786D01*
X228853Y442102D01*
X230490Y443739D01*
X232806Y443739D01*
X234443Y442102D01*
X234443Y439786D01*
X232806Y438149D01*
X230490Y438149D01*
G37*
%LPD*%
%LPC*%
G36*
X198994Y438149D02*
X198994Y438149D01*
X197357Y439786D01*
X197357Y442102D01*
X198994Y443739D01*
X201310Y443739D01*
X202947Y442102D01*
X202947Y439786D01*
X201310Y438149D01*
X198994Y438149D01*
G37*
%LPD*%
%LPC*%
G36*
X180452Y12699D02*
X180452Y12699D01*
X178815Y14336D01*
X178815Y16652D01*
X180452Y18289D01*
X182768Y18289D01*
X184405Y16652D01*
X184405Y14336D01*
X182768Y12699D01*
X180452Y12699D01*
G37*
%LPD*%
D10*
X85598Y316484D03*
X87122Y353060D03*
X162052Y432562D03*
X209788Y191639D03*
D11*
X19304Y77724D03*
X138938Y165100D03*
X114300Y86360D03*
X98552Y423164D03*
X158242Y265938D03*
X336550Y229616D03*
X336550Y199136D03*
X128778Y298450D03*
X123190Y224790D03*
D10*
X311150Y107950D03*
X311150Y69850D03*
X336550Y107950D03*
X285750Y107950D03*
X285750Y69850D03*
X285750Y38100D03*
X260350Y38100D03*
X234950Y38100D03*
X209550Y38100D03*
X177800Y38100D03*
X152400Y38100D03*
X95250Y38100D03*
X82550Y19050D03*
X120650Y19050D03*
X152400Y19050D03*
X209550Y19050D03*
X234950Y19050D03*
X260350Y19050D03*
X311150Y6350D03*
X368300Y69850D03*
X364744Y118110D03*
X336550Y139700D03*
X311150Y139700D03*
X285750Y139700D03*
X311150Y171450D03*
X336550Y171450D03*
X311150Y203200D03*
X311150Y234950D03*
X311150Y260350D03*
X311150Y285750D03*
X311150Y317500D03*
X311150Y349250D03*
X311150Y381000D03*
X285750Y381000D03*
X285750Y349250D03*
X285750Y317500D03*
X285750Y285750D03*
X285750Y260350D03*
X285750Y234950D03*
X336550Y285750D03*
X336550Y317500D03*
X336550Y349250D03*
X336550Y381000D03*
X368300Y381000D03*
X279400Y457200D03*
X196850Y457200D03*
X158750Y457200D03*
X120650Y457200D03*
X82550Y457200D03*
X158750Y425450D03*
X158750Y381000D03*
X158750Y349250D03*
X158750Y317500D03*
X127000Y317500D03*
X25400Y304800D03*
X12700Y304800D03*
X12700Y355600D03*
X285750Y412750D03*
X190500Y361950D03*
X190500Y336550D03*
X190500Y311150D03*
X165100Y254000D03*
X101600Y254000D03*
X101600Y234950D03*
X82550Y228600D03*
X69850Y228600D03*
X57150Y228600D03*
X38100Y234950D03*
X38100Y247650D03*
X38100Y260350D03*
X38100Y273050D03*
X19050Y260350D03*
X19050Y234950D03*
X69850Y209550D03*
X12700Y209550D03*
X19050Y133350D03*
X76200Y133350D03*
X64770Y75184D03*
X133350Y76200D03*
X133350Y57150D03*
X152400Y107950D03*
X139700Y120650D03*
X263144Y72644D03*
X221996Y113792D03*
X203200Y119888D03*
X184150Y131318D03*
X152400Y137668D03*
X154178Y160528D03*
X146050Y184150D03*
X221234Y183642D03*
X240284Y185166D03*
X216408Y220980D03*
X190500Y260350D03*
X242062Y418592D03*
X262382Y422656D03*
X176022Y416814D03*
X85344Y416306D03*
X173736Y166116D03*
X249428Y121158D03*
X342900Y247650D03*
X218186Y273558D03*
X211074Y272542D03*
X337312Y206756D03*
X205486Y203200D03*
D11*
X18796Y93980D03*
X212090Y347980D03*
X146812Y281940D03*
D10*
X69342Y37846D03*
D12*
X206248Y192024D02*
X183642Y214630D01*
X206248Y192024D02*
X206248Y185420D01*
X211328Y180340D01*
X211328Y171704D01*
X174498Y134874D01*
X174498Y76454D01*
D11*
X183642Y214630D03*
X174498Y76454D03*
X199898Y217424D03*
X177800Y79756D03*
D12*
X215392Y231140D02*
X214630Y231902D01*
X214630Y300482D01*
X219456Y305308D01*
X219456Y327914D01*
X218440Y328930D01*
D11*
X55372Y168656D03*
X215392Y231140D03*
X218440Y328930D03*
X210312Y231394D03*
X95504Y187452D03*
X216154Y414528D03*
X226568Y362966D03*
X196596Y212598D03*
X181864Y263398D03*
X184912Y423418D03*
X173736Y214376D03*
X173736Y271272D03*
X179832Y423164D03*
X45974Y144780D03*
X248666Y178816D03*
X244602Y164846D03*
X261874Y170434D03*
X217424Y102362D03*
X248666Y183388D03*
X205994Y77470D03*
X223520Y178816D03*
X221488Y163576D03*
D13*
X89662Y350414D02*
X90789Y351541D01*
X90789Y379111D01*
X82550Y387350D01*
X83020Y387350D01*
X84002Y388332D01*
D10*
X84002Y388332D03*
D13*
X89662Y273304D02*
X89662Y127360D01*
X89662Y273304D02*
X89662Y350414D01*
X89662Y127360D02*
X91043Y125979D01*
X91043Y122793D01*
X57150Y88900D01*
D12*
X86106Y273304D02*
X89662Y273304D01*
D11*
X86106Y273304D03*
X218694Y178816D03*
X204470Y135890D03*
X123190Y234442D03*
D10*
X61722Y4826D03*
D13*
X57150Y9398D02*
X57150Y88900D01*
X57150Y9398D02*
X61722Y4826D01*
D10*
X65971Y10160D03*
D13*
X59764Y16367D01*
X59764Y88281D01*
X93329Y121846D01*
X93329Y126926D01*
X91948Y128307D01*
X98917Y208031D02*
X98917Y209042D01*
X98917Y211069D01*
X98917Y208031D02*
X91948Y201062D01*
X98917Y211069D02*
X91948Y218038D01*
X91948Y348890D02*
X100949Y357891D01*
X100949Y385461D02*
X98044Y388366D01*
D10*
X98044Y388366D03*
D13*
X91948Y201062D02*
X91948Y128307D01*
X91948Y218038D02*
X91948Y348890D01*
X100949Y357891D02*
X100949Y385461D01*
D12*
X132842Y240284D02*
X131572Y239014D01*
X131572Y237998D01*
X102616Y209042D01*
X98917Y209042D01*
D11*
X132842Y240284D03*
X181610Y15494D03*
X181610Y71628D03*
X243586Y178816D03*
X239268Y150622D03*
X247904Y132080D03*
X221488Y105664D03*
X252730Y157480D03*
X207518Y107442D03*
D12*
X207518Y347472D02*
X203200Y351790D01*
X203200Y414528D01*
D11*
X207518Y347472D03*
X203200Y414528D03*
X204978Y423672D03*
X230124Y231140D03*
X196596Y243840D03*
X200152Y440944D03*
D12*
X235712Y378206D02*
X239776Y374142D01*
X235712Y378206D02*
X235712Y412750D01*
X235966Y413004D01*
X235966Y416052D01*
X230632Y421386D01*
X211074Y421386D01*
X211074Y420370D01*
D11*
X234442Y244602D03*
X239776Y374142D03*
X211074Y420370D03*
X224536Y243840D03*
X222250Y372110D03*
X220218Y418084D03*
X223266Y221996D03*
X177038Y205740D03*
X158242Y76708D03*
X196850Y189738D03*
X178054Y47752D03*
X196850Y194564D03*
X178054Y54356D03*
X182118Y189230D03*
X185420Y79248D03*
X228092Y165354D03*
X197358Y76200D03*
X232410Y110998D03*
X207010Y71628D03*
D12*
X244094Y206756D02*
X244602Y207264D01*
X244602Y228346D01*
X245364Y229108D01*
X245364Y231394D01*
X247142Y233172D01*
X263144Y233172D01*
X263144Y231394D01*
X263652Y230886D01*
D11*
X244094Y206756D03*
X263652Y230886D03*
X266446Y217932D03*
X296672Y217932D03*
X249428Y207264D03*
X293116Y207264D03*
D12*
X282448Y221234D02*
X281178Y222504D01*
X281178Y228854D01*
X275082Y234950D01*
X270510Y234950D01*
X269748Y234188D01*
X268224Y234188D01*
X268224Y322072D01*
X233172Y357124D01*
D11*
X282448Y221234D03*
X233172Y357124D03*
D12*
X226822Y207772D02*
X243078Y191516D01*
X226822Y207772D02*
X226822Y241300D01*
X231140Y245618D01*
X231140Y248158D01*
X236220Y253238D01*
D11*
X243078Y191516D03*
X236220Y253238D03*
D12*
X259588Y239776D02*
X277876Y221488D01*
X259588Y239776D02*
X259588Y264414D01*
X248920Y275082D01*
D11*
X277876Y221488D03*
X248920Y275082D03*
D10*
X97282Y379984D03*
X66802Y365252D03*
X54610Y336550D03*
X185633Y393700D03*
X361950Y393700D03*
X95250Y209550D03*
D11*
X134366Y146812D03*
X83312Y95758D03*
D10*
X126492Y414274D03*
X114300Y448564D03*
X95250Y357378D03*
X161290Y400050D03*
X44450Y304800D03*
D14*
X47990Y384193D02*
X47990Y384540D01*
X76200Y412750D01*
X47990Y384193D02*
X44450Y380653D01*
X76200Y412750D02*
X76200Y419100D01*
D10*
X76200Y419100D03*
D14*
X44450Y368300D02*
X44450Y304800D01*
X44450Y368300D02*
X44450Y380653D01*
D10*
X44450Y368300D03*
X158750Y406400D03*
D11*
X136906Y173990D03*
X172212Y389636D03*
D10*
X120904Y281686D03*
D11*
X146050Y294132D03*
D10*
X336550Y215900D03*
X355600Y152400D03*
X50800Y107950D03*
X31750Y207264D03*
X220218Y211074D03*
X271526Y430784D03*
X268224Y438150D03*
X101600Y332994D03*
X80518Y348742D03*
X75184Y329692D03*
X126238Y357378D03*
X139700Y374650D03*
D11*
X208026Y178816D03*
X124460Y151892D03*
D10*
X69358Y82550D03*
D12*
X144018Y118872D02*
X150114Y124968D01*
X144018Y118872D02*
X144018Y109474D01*
X115062Y80518D01*
X115062Y41656D01*
D11*
X150114Y124968D03*
X115062Y41656D03*
X165608Y151638D03*
D12*
X200152Y177546D02*
X201422Y178816D01*
X200152Y177546D02*
X200152Y177292D01*
X194056Y171196D01*
X142240Y171196D01*
X142240Y163068D01*
X127254Y148082D01*
D11*
X201422Y178816D03*
X127254Y148082D03*
D12*
X159258Y182118D02*
X204724Y182118D01*
D11*
X204724Y182118D03*
X159258Y182118D03*
D12*
X140970Y148336D02*
X120396Y127762D01*
X120396Y120904D01*
D11*
X140970Y148336D03*
X120396Y120904D03*
X266954Y195580D03*
X227584Y51054D03*
X274574Y187960D03*
X220472Y54356D03*
X235458Y190500D03*
X229108Y133858D03*
X271780Y152908D03*
X227584Y74930D03*
D12*
X256032Y212090D02*
X247904Y220218D01*
X256032Y212090D02*
X256032Y111506D01*
D11*
X247904Y220218D03*
X256032Y111506D03*
D12*
X281432Y192024D02*
X248666Y224790D01*
X281432Y192024D02*
X281432Y182118D01*
D11*
X248666Y224790D03*
X281432Y182118D03*
X261874Y190500D03*
X237998Y78232D03*
X248666Y195580D03*
X232410Y80772D03*
X261874Y195580D03*
X244348Y78740D03*
X249428Y202184D03*
X286512Y202184D03*
X224790Y160274D03*
X218694Y47752D03*
X196850Y178816D03*
X183642Y178816D03*
D12*
X209296Y164846D02*
X213360Y168910D01*
X213360Y218440D01*
X200914Y230886D01*
X200914Y343154D01*
D11*
X209296Y164846D03*
X200914Y343154D03*
D10*
X87376Y124460D03*
D13*
X87376Y252730D01*
X50800Y289306D02*
X50800Y381000D01*
X80502Y410702D01*
X50800Y289306D02*
X87376Y252730D01*
X80595Y410702D02*
X80502Y410702D01*
D10*
X80595Y410702D03*
X208026Y415036D03*
X114300Y167386D03*
D12*
X238760Y200660D02*
X241300Y198120D01*
X238760Y200660D02*
X238760Y250444D01*
X251714Y263398D01*
X251714Y266954D01*
D11*
X241300Y198120D03*
X251714Y266954D03*
X252984Y243840D03*
X231648Y440944D03*
X248666Y229870D03*
X256286Y248920D03*
X232664Y414528D03*
D12*
X221234Y228854D02*
X223520Y226568D01*
X221234Y228854D02*
X221234Y271526D01*
X223266Y273558D01*
X223266Y365252D01*
X226568Y368554D01*
X226568Y414528D01*
D11*
X223520Y226568D03*
X226568Y414528D03*
X247904Y243840D03*
X242062Y230632D03*
X245618Y381000D03*
X235204Y231394D03*
X231140Y254508D03*
X239014Y387604D03*
X230378Y178308D03*
X211074Y74168D03*
X235966Y124968D03*
X215138Y71628D03*
X238506Y178816D03*
X265430Y149606D03*
D10*
X57150Y355600D03*
D12*
X133604Y162052D02*
X127254Y155702D01*
X133604Y162052D02*
X133604Y236220D01*
X167640Y270256D01*
X167640Y395478D01*
X185166Y413004D01*
X185166Y417830D01*
D11*
X127254Y155702D03*
X185166Y417830D03*
D10*
X43434Y386080D03*
X107950Y146050D03*
X118505Y177179D03*
D15*
X0Y19050D02*
X73Y17390D01*
X289Y15742D01*
X649Y14120D01*
X1149Y12535D01*
X1785Y10999D01*
X2552Y9525D01*
X3445Y8123D01*
X4457Y6805D01*
X5580Y5580D01*
X6805Y4457D01*
X8123Y3445D01*
X9525Y2552D01*
X10999Y1785D01*
X12535Y1149D01*
X14120Y649D01*
X15742Y289D01*
X17390Y73D01*
X19050Y0D01*
X361950Y0D01*
X363610Y73D01*
X365258Y289D01*
X366881Y649D01*
X368465Y1149D01*
X370001Y1785D01*
X371475Y2552D01*
X372877Y3445D01*
X374195Y4457D01*
X375420Y5580D01*
X376543Y6805D01*
X377555Y8123D01*
X378448Y9525D01*
X379215Y10999D01*
X379851Y12535D01*
X380351Y14120D01*
X380711Y15742D01*
X380928Y17390D01*
X381000Y19050D01*
X381000Y444500D01*
X381192Y446449D01*
X381214Y448408D01*
X381064Y450360D01*
X380746Y452293D01*
X380260Y454190D01*
X379610Y456038D01*
X378802Y457822D01*
X377841Y459529D01*
X376736Y461145D01*
X375493Y462660D01*
X374124Y464060D01*
X372637Y465335D01*
X371045Y466476D01*
X369360Y467474D01*
X367594Y468321D01*
X365761Y469011D01*
X363875Y469539D01*
X361950Y469900D01*
X25400Y469900D01*
X23186Y469803D01*
X20989Y469514D01*
X18826Y469035D01*
X16713Y468368D01*
X14666Y467520D01*
X12700Y466497D01*
X10831Y465306D01*
X9073Y463958D01*
X7440Y462461D01*
X5942Y460827D01*
X4594Y459069D01*
X3403Y457200D01*
X2380Y455235D01*
X1532Y453187D01*
X865Y451074D01*
X386Y448911D01*
X97Y446714D01*
X0Y444500D01*
X0Y19050D01*
M02*
