G04 EAGLE Gerber RS-274X export*
G75*
%MOMM*%
%FSLAX34Y34*%
%LPD*%
%INSolderpaste Bottom*%
%IPPOS*%
%AMOC8*
5,1,8,0,0,1.08239X$1,22.5*%
G01*
%ADD10R,1.450000X1.150000*%
%ADD11R,0.620000X0.620000*%
%ADD12R,1.150000X1.450000*%
%ADD13R,0.195575X0.685800*%
%ADD14R,0.965200X3.403600*%
%ADD15R,0.500000X0.500000*%
%ADD16C,0.243841*%
%ADD17C,0.240031*%
%ADD18C,0.254000*%
%ADD19R,0.812800X2.667000*%
%ADD20R,0.600000X0.450000*%
%ADD21R,1.800000X2.600000*%
%ADD22R,0.550000X1.000000*%
%ADD23R,4.572000X3.810000*%


D10*
X204216Y315866D03*
X204216Y333866D03*
D11*
X217932Y199572D03*
X217932Y190572D03*
X318262Y220544D03*
X318262Y229544D03*
X41656Y76272D03*
X41656Y85272D03*
X220218Y313508D03*
X220218Y322508D03*
X83130Y394462D03*
X92130Y394462D03*
X67746Y372872D03*
X58746Y372872D03*
X122428Y288362D03*
X122428Y297362D03*
X152400Y288362D03*
X152400Y297362D03*
X330200Y220544D03*
X330200Y229544D03*
X330200Y208208D03*
X330200Y199208D03*
X227838Y199572D03*
X227838Y190572D03*
X318008Y207954D03*
X318008Y198954D03*
X212780Y211074D03*
X203780Y211074D03*
X106426Y349322D03*
X106426Y358322D03*
D12*
X54720Y323596D03*
X36720Y323596D03*
D13*
X207881Y434467D03*
X203881Y434467D03*
X199881Y434467D03*
X195881Y434467D03*
X191881Y434467D03*
X187881Y434467D03*
X183881Y434467D03*
X179881Y434467D03*
X175881Y434467D03*
X171881Y434467D03*
X167881Y434467D03*
X251881Y434467D03*
X247881Y434467D03*
X243881Y434467D03*
X239881Y434467D03*
X235881Y434467D03*
X231881Y434467D03*
X227881Y434467D03*
X223881Y434467D03*
X219881Y434467D03*
X215881Y434467D03*
X211881Y434467D03*
X207881Y403733D03*
X203881Y403733D03*
X199881Y403733D03*
X195881Y403733D03*
X191881Y403733D03*
X187881Y403733D03*
X183881Y403733D03*
X179881Y403733D03*
X175881Y403733D03*
X171881Y403733D03*
X167881Y403733D03*
X251881Y403733D03*
X247881Y403733D03*
X243881Y403733D03*
X239881Y403733D03*
X235881Y403733D03*
X231881Y403733D03*
X227881Y403733D03*
X223881Y403733D03*
X219881Y403733D03*
X215881Y403733D03*
X211881Y403733D03*
X263881Y434467D03*
X259881Y434467D03*
X255881Y434467D03*
X263881Y403733D03*
X259881Y403733D03*
X255881Y403733D03*
D14*
X97409Y295148D03*
X73787Y295148D03*
D15*
X42744Y99314D03*
X51744Y99314D03*
X21010Y110490D03*
X12010Y110490D03*
X49204Y209296D03*
X40204Y209296D03*
X42092Y110236D03*
X33092Y110236D03*
X100910Y199136D03*
X109910Y199136D03*
D16*
X91122Y327248D03*
X91122Y331248D03*
X91122Y335248D03*
X91122Y339248D03*
X87122Y327248D03*
X87122Y331248D03*
X87122Y335248D03*
X87122Y339248D03*
X83122Y327248D03*
X83122Y331248D03*
X83122Y335248D03*
X83122Y339248D03*
D17*
X84392Y382206D03*
X84392Y378206D03*
X84392Y374206D03*
X88392Y382206D03*
X88392Y378206D03*
X88392Y374206D03*
X92392Y382206D03*
X92392Y378206D03*
X92392Y374206D03*
D18*
X140676Y288624D03*
X135676Y288624D03*
X140676Y293624D03*
X135676Y293624D03*
X140676Y298624D03*
X135676Y298624D03*
D19*
X195502Y290576D03*
X217502Y290576D03*
D20*
X104864Y370738D03*
X104864Y380238D03*
X104864Y389738D03*
X131864Y389738D03*
X131864Y380238D03*
X131864Y370738D03*
D21*
X118364Y380238D03*
D22*
X76200Y100960D03*
X88900Y100960D03*
X101600Y100960D03*
X114300Y100960D03*
X114300Y26040D03*
X101600Y26040D03*
X88900Y26040D03*
X76200Y26040D03*
D23*
X95250Y63500D03*
D11*
X122500Y165100D03*
X131500Y165100D03*
D18*
X64048Y392858D03*
X69048Y392858D03*
X64048Y387858D03*
X69048Y387858D03*
X64048Y382858D03*
X69048Y382858D03*
D11*
X50800Y389200D03*
X50800Y398200D03*
D18*
X0Y19050D02*
X73Y17390D01*
X289Y15742D01*
X649Y14120D01*
X1149Y12535D01*
X1785Y10999D01*
X2552Y9525D01*
X3445Y8123D01*
X4457Y6805D01*
X5580Y5580D01*
X6805Y4457D01*
X8123Y3445D01*
X9525Y2552D01*
X10999Y1785D01*
X12535Y1149D01*
X14120Y649D01*
X15742Y289D01*
X17390Y73D01*
X19050Y0D01*
X361950Y0D01*
X363610Y73D01*
X365258Y289D01*
X366881Y649D01*
X368465Y1149D01*
X370001Y1785D01*
X371475Y2552D01*
X372877Y3445D01*
X374195Y4457D01*
X375420Y5580D01*
X376543Y6805D01*
X377555Y8123D01*
X378448Y9525D01*
X379215Y10999D01*
X379851Y12535D01*
X380351Y14120D01*
X380711Y15742D01*
X380928Y17390D01*
X381000Y19050D01*
X381000Y444500D01*
X381192Y446449D01*
X381214Y448408D01*
X381064Y450360D01*
X380746Y452293D01*
X380260Y454190D01*
X379610Y456038D01*
X378802Y457822D01*
X377841Y459529D01*
X376736Y461145D01*
X375493Y462660D01*
X374124Y464060D01*
X372637Y465335D01*
X371045Y466476D01*
X369360Y467474D01*
X367594Y468321D01*
X365761Y469011D01*
X363875Y469539D01*
X361950Y469900D01*
X25400Y469900D01*
X23186Y469803D01*
X20989Y469514D01*
X18826Y469035D01*
X16713Y468368D01*
X14666Y467520D01*
X12700Y466497D01*
X10831Y465306D01*
X9073Y463958D01*
X7440Y462461D01*
X5942Y460827D01*
X4594Y459069D01*
X3403Y457200D01*
X2380Y455235D01*
X1532Y453187D01*
X865Y451074D01*
X386Y448911D01*
X97Y446714D01*
X0Y444500D01*
X0Y19050D01*
M02*
