M48
;GenerationSoftware,Autodesk,EAGLE,9.6.1*%
;CreationDate,2020-08-28T14:09:27Z*%
FMAT,2
ICI,OFF
METRIC,TZ,000.000
T7C0.200
T6C0.350
T5C0.600
T4C0.950
T3C1.000
T2C1.016
T1C2.921
%
G90
M71
T1
X3175Y3175
X34925Y3175
X34925Y43815
X3175Y43815
T2
X-12700Y1905
X-15240Y1905
X-7620Y1905
X-10160Y1905
X-17780Y1905
X-20320Y1905
T3
X-20320Y6985
X-20320Y9525
X-20320Y12065
X-20320Y14605
X-20320Y17145
X-20320Y19685
X-20320Y22225
X-20320Y24765
X-20320Y27305
X-20320Y29845
X-20320Y32385
X-20320Y34925
T4
X-6326Y59690
X-3326Y59690
T5
X-13060Y46815
X-13060Y38275
X-17790Y38275
X-17790Y46815
T6
X-11910Y42145
X-12610Y41745
X-11910Y41345
X-11910Y40545
X-12610Y40945
X-12610Y40145
X-11910Y39745
X-11910Y42945
X-11910Y43745
X-12610Y44145
X-12610Y44945
X-11910Y44545
X-11910Y45345
X-12610Y43345
T7
X10160Y25400
X7620Y25400
X15240Y20320
X20955Y20320
X20955Y16510
X16510Y24765
X20955Y11430
X15240Y11430
X15240Y4445
X21590Y4445
X24765Y6350
X36830Y7620
X30480Y1270
X27940Y10160
X29210Y13970
X31115Y17145
X35560Y16510
X37465Y16510
X37465Y20320
X37465Y24765
X37465Y27305
X35560Y24130
X35560Y26670
X32385Y26670
X29210Y26670
X29210Y29210
X32385Y29210
X33020Y38735
X29845Y40005
X27940Y40005
X16510Y41910
X14605Y41910
X12700Y40005
X9525Y39370
X9525Y36195
X6985Y39370
X6985Y44450
X9525Y44450
X11430Y44450
X18390Y48895
X20930Y48260
X20930Y50800
X20930Y52705
X23470Y49530
X23470Y52070
X23470Y55245
X23470Y59055
X20930Y60960
X17120Y60960
X13945Y60960
X11405Y60960
X13945Y57150
X17755Y57150
X3150Y59055
X3150Y50800
X1245Y52705
X-4470Y58420
X-1295Y57150
X-25Y59690
X-10185Y59690
X-8280Y56515
X-16535Y59690
X-19075Y53975
X-19075Y52705
X-17805Y52070
X-16535Y52070
X-13360Y52070
X-12090Y52705
X-13360Y48260
X-15265Y48260
X-17170Y48260
X-20345Y48260
X-20345Y36830
X-17805Y36830
X-15900Y36830
X-13995Y36830
X-12090Y36830
X-15900Y33020
X-15900Y31115
X-13995Y31115
X-13995Y33020
X-15900Y28575
X-15900Y26670
X-15900Y24765
X-15900Y21590
X-15900Y19050
X-15900Y16510
X-15900Y13970
X-15900Y11430
X-15900Y8890
X-15900Y6350
X-15900Y3810
X-13995Y3810
X-10820Y3810
X-10820Y6985
X-10820Y11430
X-12090Y15240
X-12090Y19050
X-9550Y19050
X-9550Y20320
X-8915Y22225
X-11455Y24765
X-6960Y25425
X-5258Y27788
X-2311Y32131
X-5791Y34823
X-3886Y34823
X-1905Y36195
X1905Y27940
X5715Y20320
X2540Y20320
X7620Y17145
X9525Y15240
X11430Y13335
X7620Y13335
X7620Y10160
X7620Y6985
X4445Y6985
X12065Y1905
X6985Y36195
X6985Y33020
X3810Y36195
X27940Y45085
X20955Y57150
X15951Y44806
X8255Y43815
X4445Y30480
X24130Y29210
X635Y20320
X24765Y44450
X37465Y28575
X23495Y8596
X23495Y7863
X24320Y9017
X23495Y13462
X1334Y33528
X-11239Y48387
X35243Y9208
X23368Y33909
X32385Y12573
X29908Y15938
X-10351Y13144
X-6413Y33782
X4509Y33592
X9970Y34989
X-1841Y22161
X14224Y34354
X22987Y2350
X28257Y6096
X29464Y7747
X26416Y9462
X9335Y31305
X1968Y21971
X29972Y20320
X26416Y20003
X32067Y14033
X22352Y7556
X10097Y4978
X2731Y18415
X20447Y8763
X26416Y14986
X21019Y32893
X7239Y28638
X4953Y25654
X10668Y21781
X23241Y28638
X30480Y11176
X26289Y17844
X41910Y2540
X46799Y3238
X23876Y26479
X31305Y32321
X42545Y15240
X40005Y33020
X38735Y33020
X41275Y33020
X41910Y34290
X39929Y35585
X39827Y38659
X41986Y30048
X39345Y28905
X39294Y27127
X39446Y25578
X39472Y24003
X39370Y22047
X39370Y20142
X39370Y17602
X39370Y15697
X39370Y13792
X39370Y11887
X39370Y9982
X39370Y8077
X39370Y5537
X39370Y3632
X41275Y1727
X45085Y1727
X46990Y2362
X45720Y2997
X43180Y2997
X41275Y3632
X40640Y5537
X40640Y8077
X40640Y9982
X40640Y11887
X40640Y13792
X40640Y15697
X41275Y15062
X43180Y15697
X45085Y15697
X47625Y16967
X43180Y16967
X41910Y16967
X41910Y18237
X41910Y19507
X41910Y20777
X41910Y22047
X41910Y23317
X41910Y24587
X41910Y25857
X41910Y27127
X41910Y28397
X43129Y27686
X44501Y27686
X43180Y29667
X43180Y30937
X43180Y31572
X48057Y30658
X47295Y31521
X49149Y29769
X46838Y30505
X47854Y29337
X50165Y29769
X51867Y29769
X53594Y29845
X53569Y28727
X54889Y28753
X54813Y29947
X56718Y29312
X56083Y31217
X57353Y32487
X56083Y33757
X57353Y35027
X56083Y36297
X57353Y37567
X56083Y38837
X57353Y40107
X56083Y42012
X57353Y43917
X56083Y45187
X57353Y47092
X56083Y48362
X57353Y49632
X56083Y50902
X57353Y52807
X55880Y53670
X57150Y54940
X55880Y56210
X57150Y57480
X55245Y58750
X53975Y61290
X53340Y59385
X50825Y60960
X49555Y59690
X48285Y60960
X47015Y59690
X45745Y60960
X44475Y59690
X43205Y60960
X41935Y59690
X40665Y60960
X39395Y59690
X38125Y60960
X36855Y52070
X38760Y52705
X38760Y50800
X40030Y50165
X38760Y48895
X40030Y48260
X38760Y47625
X27330Y48260
X30505Y48260
X33045Y48260
X35585Y48260
X38760Y45720
X40030Y45085
X40030Y43815
X40030Y42545
X43205Y44450
X43205Y43180
X43205Y41275
X41935Y41275
X41935Y43180
X41935Y44450
X42570Y37465
X45110Y38735
X45110Y40005
X48285Y41275
X47650Y42545
X48920Y43815
X47650Y44450
X56083Y27407
X57150Y25984
X55880Y24714
X57150Y23444
X57150Y22174
X55880Y19634
X57150Y18364
X55880Y17094
X57150Y15824
X55880Y14554
X57150Y13284
X55880Y12014
X57150Y10744
X55880Y9474
X57150Y8204
X35509Y33223
X57150Y5664
X57150Y3759
X55880Y2489
X55880Y584
X53975Y1854
X52705Y584
X33338Y52070
X30924Y52705
X47371Y20193
X47625Y23177
X46990Y9208
X40640Y47625
X40640Y50800
X40640Y53975
X40640Y56515
X36652Y58420
X34925Y58420
X30480Y58420
X30480Y60325
X26670Y60325
X26670Y58420
X26670Y55880
X25400Y52070
X25400Y48895
X30861Y49149
X35306Y49784
X37211Y51054
X33680Y56058
X32283Y56337
X29235Y55296
X33985Y60833
X46050Y54483
X45415Y49403
X45695Y47066
X43790Y46431
X44171Y43205
X44806Y44247
X44806Y41072
X42901Y39167
X44450Y35560
X44450Y31115
X46355Y29210
X48895Y31115
X50165Y36830
X50165Y38100
X50165Y40640
X50165Y43180
X52705Y43180
X52705Y40640
X55245Y40640
X55245Y43180
X55245Y45720
X55245Y48260
X55245Y50800
X55245Y53340
X53340Y52705
X51156Y50216
X47346Y53162
X52426Y35382
X55855Y33020
X54585Y27940
X43155Y24130
X43155Y20955
X44425Y19050
X50140Y16510
X52045Y15875
X52680Y20955
X50775Y19050
X50775Y22860
X52045Y24765
X54585Y22860
X55220Y15240
X53315Y13335
X41885Y13970
X41885Y10160
X43790Y10795
X41885Y5715
X39980Y1905
X44425Y3175
X46965Y1270
X52680Y6350
X50140Y8890
X44653Y6680
X48463Y32715
X39091Y43993
X38583Y41681
X38481Y38278
X41986Y35052
X46457Y32487
X42355Y3238
X24320Y25400
X36640Y22669
X38735Y8064
X47752Y6667
X49212Y9970
X26289Y22479
X46101Y16955
X47625Y15557
X47434Y8827
X48450Y9271
X40640Y16510
X49276Y21781
X18733Y25590
X30734Y33020
X53848Y35497
X44704Y28575
X16955Y508
X42863Y17526
X43878Y17653
X27495Y21907
X26416Y21463
X46355Y40640
X34384Y33485
X51244Y46101
X21907Y25146
X12319Y4699
X29464Y7048
X36195Y29019
X28130Y20765
X29400Y21019
X34100Y26289
X45085Y44894
X47244Y49022
X444Y24130
X-952Y32004
X44958Y57594
X39370Y51435
X34123Y34087
X31940Y55118
X17780Y25844
X43751Y42482
X40069Y41910
X26670Y47625
X26924Y53149
X11747Y4953
X29400Y18542
X34354Y27559
X26289Y17145
X29146Y17336
X33655Y25908
X26289Y18987
X26797Y24003
X28829Y32766
X20130Y42545
X20511Y45402
X16637Y50800
X15621Y51054
X31984Y35997
X33655Y35560
X56515Y20955
X56515Y1270
X55245Y44450
X36195Y60960
X22860Y51435
X28880Y36982
X24130Y47979
X21844Y47434
X15748Y47434
X10478Y29273
X9716Y28511
X9931Y36754
X11430Y36830
X20701Y46990
X15367Y46990
X18415Y44767
X-254Y40958
X-5524Y23304
X18161Y41783
X5334Y38862
X3873Y33147
X889Y25463
X-6413Y20320
X22225Y41339
X23241Y44767
X21590Y41339
X23241Y45402
X21209Y39815
X16256Y39116
X16192Y51308
X16510Y53086
X-3483Y23531
X152Y45644
X25425Y45455
X-3331Y24138
X-266Y46113
X25730Y45960
X48577Y22479
X45085Y4000
X47942Y8509
X48323Y4890
X46609Y17463
X47942Y16065
X50863Y46545
X50546Y49085
X34100Y54927
X50482Y33846
X51879Y27368
X52514Y31496
X16319Y38481
X14033Y40513
X12890Y40894
X17313Y39837
X54356Y36322
X56070Y22669
X21527Y24701
X52514Y32194
X63Y3683
X22542Y25146
X48069Y33274
X-2032Y10160
X5398Y17590
X7683Y20193
X12319Y21654
X1651Y55054
X12446Y50419
X9525Y52451
X39243Y38545
X26098Y46863
X-2921Y56134
X15621Y50419
X6096Y53784
X-8001Y42418
X-6350Y32066
X-8890Y42545
X-6350Y31358
X-7239Y41783
X-5334Y32321
X-10033Y31051
X-10859Y31178
X33528Y52705
X28575Y51371
X29654Y49466
X33211Y59690
X28892Y53657
X52387Y47307
X52387Y48514
X47879Y48260
X43498Y51181
X47752Y20638
X46037Y23177
X44132Y23241
X48704Y26670
X48450Y27559
X48577Y25273
X45593Y6540
X46990Y6604
X46164Y9081
X43307Y9335
X51689Y11684
X47180Y11557
X-4699Y56134
X-6350Y29845
X-6477Y26924
X-12573Y27813
X-12573Y29400
X-7683Y30988
X-8064Y23368
X10287Y58293
X5842Y58166
X4000Y58928
X-2286Y54737
X43815Y26670
X48323Y26225
X40005Y40005
X42545Y40005
X43180Y54610
X22415Y39434
X11811Y37719
X11303Y43434
X-9208Y37275
X22860Y39815
X-7429Y37275
X23177Y41339
X8191Y39116
X6794Y37719
X-4890Y34989
X23558Y39561
X190Y33909
X24003Y38862
X16383Y25908
X12954Y22479
X4826Y22479
X24638Y39180
X25273Y36513
X25273Y35243
X15748Y26543
X9525Y22923
X5207Y22923
X34671Y34544
X23431Y25400
X13398Y21273
X6413Y22034
X25209Y39434
X26479Y35814
X24828Y35687
X17145Y32830
X16065Y51943
X4445Y61087
X19114Y44831
X127Y40513
X-5080Y22352
X-8001Y16955
X20003Y44386
X-1143Y38989
X-5969Y22479
X19368Y44259
X-9652Y35560
X19177Y42291
X14033Y39116
X12954Y37973
X-6540Y37529
X-8382Y31750
X8954Y59055
X7556Y53149
X2286Y56007
X12700Y25400
X19685Y29210
X17145Y29210
X8890Y29210
X11430Y36195
X18415Y36195
X15240Y36195
X35179Y14414
X32575Y9208
X29908Y11938
X28130Y16891
X-1207Y8319
X9017Y32194
X-6731Y42863
X-1397Y22796
X10668Y56896
X13398Y51943
X7747Y50863
X-13335Y33719
X-14478Y21209
X-3988Y31545
X-6350Y30480
X24765Y37008
X24765Y38583
X23216Y38557
X23241Y37084
X19050Y38684
X20599Y39700
X26035Y38735
X26035Y36830
X27940Y36830
X27940Y38735
X29845Y38735
X29845Y36830
X31191Y36652
X32588Y37643
X33655Y36195
X31750Y34925
X31445Y31267
X33706Y30683
X35560Y30683
X55880Y6934
M30