M48
;GenerationSoftware,Autodesk,EAGLE,9.5.2*%
;CreationDate,2020-05-16T21:11:07Z*%
FMAT,2
ICI,OFF
METRIC,TZ,000.000
T6C0.152
T5C0.900
T4C0.950
T3C0.991
T2C2.286
T1C2.375
%
G90
M71
T1
X2134Y18771
X2134Y15596
X7214Y15596
X7214Y18771
T2
X2540Y41910
X35560Y41910
X35560Y2540
X2540Y2540
T3
X3659Y13691
X5689Y13691
X4674Y18771
T4
X2032Y36298
X2032Y33298
T5
X3161Y8560
X1361Y8560
T6
X13335Y42545
X25146Y18212
X7620Y22860
X4445Y5715
X9963Y29673
X7214Y29159
X8484Y28448
X34925Y15875
X35357Y21895
X13335Y25400
X16510Y25400
X13335Y23495
X16510Y23495
X13335Y17780
X13335Y14605
X13335Y10795
X15240Y12700
X7264Y13716
X7010Y20625
X1905Y25400
X13335Y27940
X1905Y30480
X1270Y34925
X1905Y39370
X8890Y42545
X12065Y41275
X12700Y39370
X12700Y35560
X12700Y32385
X16510Y32385
X16510Y35560
X17780Y41275
X26670Y41275
X29845Y41275
X29845Y38735
X29845Y36195
X33020Y38735
X33020Y36195
X35560Y36195
X35560Y33020
X33020Y33020
X33020Y27940
X35560Y27940
X33020Y24765
X35560Y24765
X29845Y24765
X26035Y25400
X25400Y26035
X20955Y24130
X24181Y19431
X21590Y19050
X21438Y13818
X19812Y13868
X26670Y14605
X26670Y13335
X24841Y13665
X32385Y10160
X32385Y6985
X32385Y13335
X32385Y16510
X35560Y13335
X35560Y10160
X35560Y5080
X32385Y1905
X28575Y1905
X25400Y1905
X22225Y1905
X19050Y1905
X15875Y1905
X15875Y5080
X19050Y5080
X30480Y4445
X22758Y4623
X25197Y2896
X13970Y4445
X13970Y6985
X6985Y6985
X6985Y8890
X2286Y9296
X3810Y5080
X1270Y5080
X1905Y13335
X5715Y12065
X1905Y24130
X10795Y25400
X11430Y19685
X20015Y10770
X26670Y12065
X24130Y14605
X36195Y17145
X16510Y9525
X17780Y10795
X17780Y8255
X26670Y34290
X26670Y38100
X19685Y24765
X20955Y40640
X23901Y32242
X25962Y21187
X30582Y27076
X26365Y27838
X23495Y25781
X23901Y26467
X23495Y20202
X16002Y17094
X21488Y17628
X24130Y44018
X24384Y39014
X23978Y24130
X6985Y9525
X7620Y7620
X21361Y20625
X19431Y18694
X19431Y15773
X23673Y7264
X5080Y20320
X21812Y42921
X5055Y43180
X23495Y22225
X5715Y20930
X5537Y43586
X22225Y43155
X22911Y22205
X22030Y34323
X35560Y38735
X22225Y19456
X22022Y23546
X20142Y40513
X36195Y38735
X20091Y18847
X21819Y21184
X19202Y22809
X21514Y34823
X21463Y40056
X27788Y15875
X27254Y2896
X26111Y17297
X25679Y15291
X24486Y10795
X24486Y5207
X27838Y16434
X29058Y5182
X26568Y17323
X28321Y13995
X27330Y11557
X27584Y4877
X21438Y17043
X20142Y15748
X22098Y8179
X23647Y2896
X22428Y7849
X22428Y5207
X21031Y11633
X21031Y9754
X25527Y4623
X13335Y2515
X24892Y12827
X26822Y10897
X27153Y4648
X26518Y20295
X36830Y17145
X8484Y30328
X20955Y28905
X36830Y28550
X36195Y21895
X34925Y20260
X37225Y16894
X26187Y20726
X36830Y29210
X25179Y29960
X8890Y30028
X25984Y17755
X29591Y5131
X24206Y15392
X25476Y5537
X26645Y4623
X25121Y17424
X25121Y15723
X25705Y12700
X25146Y5207
X23597Y10897
X24028Y5232
X26162Y15291
X23546Y4877
X25705Y16967
X25349Y14478
X25349Y13081
X24816Y5537
X26467Y15723
X27661Y9398
X28321Y8738
X26772Y2896
X26975Y15723
X27991Y4623
X23317Y35966
X26619Y24613
X28473Y25806
X25197Y22301
X26848Y30785
X25070Y37363
X24943Y24130
X24714Y32283
X24714Y34874
X25527Y28804
X25527Y32080
X23089Y38100
X26035Y21717
X28092Y35839
X23749Y40183
X18567Y13386
X23190Y7899
X21361Y21133
X21361Y8941
X24155Y7899
X21819Y18161
X21793Y15392
X20041Y18110
X23927Y8331
X21742Y7874
X21742Y5537
X19990Y19660
X23419Y8763
X22123Y15723
X24359Y12878
X25146Y12090
X25502Y7264
X22606Y17043
X22987Y15494
X23876Y17043
X23444Y15062
X25298Y11455
X25298Y8230
X29591Y15951
X29591Y8687
X21361Y18136
X28270Y17551
X27153Y13792
X26441Y5537
X20041Y17501
X23978Y12090
X34036Y21692
X28804Y2845
X26622Y24130
X34595Y23825
X25654Y22223
X35306Y22860
X34925Y13970
X26314Y23673
X34925Y23495
X28194Y18136
X22530Y24435
X19177Y31394
X19177Y40767
X25908Y18694
X24257Y21412
X18847Y30505
X19634Y40767
X27864Y19279
X28042Y21209
X28956Y31140
X22377Y40970
X20650Y42697
X24638Y21844
X18847Y32207
X20117Y40970
X4470Y33274
X8255Y38735
X16078Y40183
X7391Y38735
X8890Y21590
X5715Y33655
X20371Y40056
X19787Y16612
X17755Y14580
X15875Y14580
X10135Y10185
X9322Y13767
X14605Y2540
X9779Y16510
X8560Y40462
X16307Y39625
X25146Y32512
X25146Y30480
X23800Y33985
X26314Y22098
X27305Y31750
X21209Y23470
X20117Y22377
X21666Y22276
X18085Y20701
X20701Y23470
X8661Y2718
X21336Y21946
X9322Y2235
X21361Y20066
X17755Y18136
X12065Y2667
X19431Y19177
X16688Y17501
X3810Y34925
X13970Y37465
X25387Y20107
X29801Y19050
X23851Y18076
X5029Y9195
X3607Y20015
X5080Y21590
X34925Y19685
X36627Y20422
X28016Y22073
X28423Y22428
X18669Y42799
X22504Y20904
X29439Y30404
X33020Y22225
X31217Y19075
X23470Y19507
X24130Y20117
X16154Y28346
X20955Y27940
X20447Y3810
X22860Y34290
X7043Y34290
X8890Y36830
X10973Y9119
X22149Y17018
M30