M48
;GenerationSoftware,Autodesk,EAGLE,9.5.2*%
;CreationDate,2020-04-25T21:55:50Z*%
FMAT,2
ICI,OFF
METRIC,TZ,000.000
T2C0.102
T1C0.152
%
G90
M71
T1
X14681Y9627
X11963Y7163
X13132Y3226
X17221Y17399
X11074Y5639
X13894Y15799
X12497Y5410
X19025Y13691
X18161Y17450
X12776Y3607
X11887Y3150
X13894Y13513
X18009Y13183
X10820Y2743
T2
X21624Y14275
X23098Y8068
X21666Y14732
X14459Y16510
X16815Y14021
X11778Y22413
X13233Y20091
X22860Y13970
X21590Y13818
X19459Y14013
X19459Y14529
X16530Y24861
X13462Y10513
X12319Y3480
X13462Y6655
X13965Y10516
X13462Y16001
X13441Y15531
X18459Y10516
X17882Y9017
X18974Y10516
X24834Y11456
X18386Y15846
X12959Y11513
X13459Y11013
X22225Y13335
X12959Y10998
X14335Y2556
X12959Y10490
X19459Y10013
X19959Y12014
X19456Y12513
X19959Y12522
X19959Y13030
X1245Y5537
X2184Y8865
X7595Y20142
X10160Y20955
X20676Y24409
X17459Y13013
X9525Y1092
X13462Y14513
X15240Y7722
X14478Y11887
X9703Y23604
X13462Y13995
X14732Y7696
X14961Y16513
X18466Y3983
X20955Y10020
X19459Y11513
X21589Y11429
X14459Y10513
X10389Y24892
X14986Y10513
X11430Y19685
X10541Y22027
X11844Y20442
X11169Y20988
X12205Y19914
X8661Y4445
X6528Y11278
X8331Y10045
X19459Y10973
X19461Y16011
X14681Y22682
X20371Y18618
X20955Y16256
X18898Y16083
X18872Y19761
X5385Y12548
X8877Y12382
X16154Y14945
X17459Y12505
X17459Y14013
X15086Y12775
M30