M48
;GenerationSoftware,Autodesk,EAGLE,9.5.2*%
;CreationDate,2020-04-25T21:55:50Z*%
FMAT,2
ICI,OFF
METRIC,TZ,000.000
T4C0.152
T3C0.900
T2C0.991
T1C1.905
%
G90
M71
T1
X23495Y1905
X23495Y23495
T2
X1271Y8128
X3301Y8128
X2286Y13208
T3
X2667Y18947
X2667Y21947
T4
X7620Y3175
X6985Y5715
X965Y6426
X940Y11303
X635Y14605
X1905Y20320
X3175Y20320
X24765Y22225
X10795Y18517
X18898Y15469
X18923Y7976
X19075Y6375
X17831Y5994
X15951Y8763
X17120Y2896
X15316Y3505
X21666Y1092
X20396Y9068
X18618Y11074
X11963Y9779
X24587Y6706
X24587Y4089
X21387Y11989
X18440Y18796
X9652Y20422
X5512Y20345
X13945Y23139
X12014Y23571
X20777Y18999
X16739Y19533
X22835Y21336
X813Y2057
X9804Y10389
X6629Y12878
X5842Y16332
X17780Y6985
X15519Y6502
X11227Y11938
X23012Y9296
X14910Y19380
X18517Y14707
X3092Y2134
X20472Y13538
X3175Y6820
X21208Y8255
X20206Y9639
X21590Y17780
X21590Y18415
X16764Y18847
X9677Y5461
X4191Y11455
X3448Y11405
X21361Y24943
X21565Y21031
X13894Y15265
X12471Y23241
X17147Y24941
X2642Y6071
X10795Y7544
X10735Y976
X13935Y900
X13970Y9576
X13843Y6299
X13843Y3607
X11709Y965
X10236Y7468
X10185Y940
X12522Y16510
X11100Y17399
X13411Y940
X12395Y15977
X11278Y15621
X15240Y914
X20587Y3771
X19863Y1245
X17780Y9525
X6934Y7010
X13894Y12040
X14728Y918
X12243Y13665
X12573Y13259
X12573Y965
X11887Y13208
X12192Y7925
X8712Y1524
X12243Y11481
X11557Y10998
X15926Y3099
X11259Y7906
X18821Y9271
X18771Y12497
X17475Y19736
X17272Y19025
X20389Y15494
X20599Y12014
X20828Y19609
X21057Y12979
X20498Y13005
X19456Y18440
X18771Y13005
X21768Y22657
X8560Y7696
X9474Y6934
X9500Y7442
X10998Y10770
X11227Y13183
X13259Y17755
X9322Y5842
X8230Y9119
X16840Y18263
X9855Y7823
X10795Y9703
X11532Y13767
X12040Y15596
X10719Y9119
X14097Y12751
X15519Y5385
X16459Y9576
X13716Y17399
X16307Y6782
X16735Y976
X22860Y457
X15799Y9423
X13589Y22682
X10770Y16129
X11430Y12471
X12370Y12040
X15519Y22885
X5969Y15723
X13335Y21625
X5715Y1270
X9601Y24689
X9423Y22711
X4198Y10559
X6934Y23114
X6274Y10439
X6316Y9085
X4472Y23495
X21463Y16243
X21196Y21424
X19456Y17704
X18771Y11684
X20625Y23216
X5766Y5512
X4445Y1270
X20770Y2540
X23114Y18415
X1295Y12624
X9766Y12827
X18390Y12040
X20904Y17424
X18491Y18085
X16332Y18085
X6350Y3175
X9271Y10541
X21234Y23978
X23261Y16675
X1321Y3581
X22327Y20904
X16332Y2743
M30