M48
;GenerationSoftware,Autodesk,EAGLE,9.5.2*%
;CreationDate,2020-04-25T21:55:50Z*%
FMAT,2
ICI,OFF
METRIC,TZ,000.000
T1C0.152
%
G90
M71
T1
X21590Y13818
X22860Y13970
X23089Y8077
X21304Y14371
X21590Y14910
X16967Y14376
X13233Y20091
X11024Y2540
X17805Y13386
X12471Y4039
X17882Y9017
X11836Y3429
X14326Y2565
X19456Y9525
X17958Y17247
X19228Y13487
X12903Y5664
X13360Y16485
X10871Y5842
X17018Y17602
X13335Y3429
X14478Y11887
X11760Y7366
X16459Y9982
X20955Y10033
X11430Y19685
X10795Y21801
X11836Y20447
X11227Y20904
X19634Y10795
M30