M48
;GenerationSoftware,Autodesk,EAGLE,9.5.2*%
;CreationDate,2020-04-25T21:55:50Z*%
FMAT,2
ICI,OFF
METRIC,TZ,000.000
T1C0.152
%
G90
M71
T1
X23063Y15900
X10833Y24879
X3810Y7252
X17459Y13013
X18386Y15846
X8014Y20561
X24834Y11456
X7144Y7785
X17831Y5359
X15037Y7061
X17247Y8331
X17221Y10262
X8611Y6909
X9068Y2794
X14961Y2108
X15037Y4369
X21590Y6350
X24105Y9500
X23851Y16713
X14732Y20904
X18821Y21463
X16434Y23190
X17983Y24105
X9474Y19609
X5436Y18517
X6629Y15773
X10287Y12167
X16180Y11532
X16332Y7849
X10643Y8331
X6858Y9169
X4724Y11303
X7341Y16281
X8865Y15824
X7036Y19990
X8534Y19380
X7696Y21412
X6071Y24003
X8992Y24003
X11684Y23063
X16713Y16739
X14503Y14300
X14453Y16510
X3810Y13335
X12387Y14190
X11430Y16993
X7874Y8712
X13056Y2311
X14351Y3607
X15900Y9931
X16942Y13106
X19456Y14021
X12395Y14719
X19482Y14529
X12395Y15227
X19482Y15494
X14072Y17780
X13513Y20777
X12471Y21793
X12471Y22682
X16612Y24943
X13462Y10556
X13462Y7391
X13462Y6655
X13970Y10795
X12979Y15900
X12979Y15011
X12751Y12421
X12548Y1956
X7493Y7010
X12040Y1956
X12878Y1473
X10719Y13360
X9119Y6553
X9855Y1422
X18466Y10516
X21463Y9976
X23038Y15265
X18974Y10516
X12954Y13995
X13665Y13335
X12954Y11506
X13818Y11303
X12979Y3810
X13081Y7772
X12929Y10998
X11609Y2686
X12954Y10490
X11252Y3048
X18466Y10008
X17856Y10465
X19964Y12014
X19456Y12497
X20066Y22860
X20066Y21793
X20066Y19380
X20701Y14275
X19964Y12522
X20879Y17958
X20676Y21412
X19964Y13030
X17678Y21082
X18390Y21793
X19253Y22657
X14757Y17932
X11684Y15977
X10389Y15748
X15900Y10439
X15240Y7722
X15059Y11884
X14732Y7696
X14891Y16154
X15011Y13259
X15748Y7722
X18466Y3988
X5309Y2337
X19456Y11481
X22375Y11157
X21590Y11430
X22225Y457
X4937Y2684
X15037Y23352
X15850Y12827
X15621Y16383
X15138Y17577
X15291Y20015
X15875Y21057
X14478Y10541
X12903Y18440
X13106Y12040
X14351Y9957
X15011Y13767
X14986Y11074
X15494Y17196
X16408Y16281
X16358Y12675
X12205Y19952
X8890Y4445
X16518Y22233
X4445Y1905
X4445Y22860
X6147Y10947
X9411Y21590
X6350Y22225
X17145Y22225
X22879Y22225
X4902Y22200
X8255Y10160
X24139Y10151
X19456Y16027
X14376Y22733
X20371Y18644
X20955Y16243
X18872Y16078
X18872Y19761
X5410Y12548
X8877Y12382
X16129Y14945
X17297Y12040
X16053Y20549
X17396Y13843
X15291Y12370
X13462Y12827
M30