M48
;GenerationSoftware,Autodesk,EAGLE,9.5.2*%
;CreationDate,2020-04-25T21:55:50Z*%
FMAT,2
ICI,OFF
METRIC,TZ,000.000
T2C0.102
T1C0.152
%
G90
M71
T1
X16104Y24943
X18821Y22327
X19177Y23165
X8128Y17170
T2
X10033Y17272
X7315Y14148
X10160Y13970
X4369Y8103
X20930Y4115
X23393Y5613
X20955Y6985
X17729Y11132
X17145Y15614
X23063Y15900
X22588Y9525
X24834Y11456
X8230Y16053
X7756Y8007
X12387Y14190
X17437Y23352
X19456Y14021
X12395Y14719
X17894Y23295
X19482Y14529
X12370Y15227
X16622Y24769
X7582Y19228
X22533Y15507
X7162Y19454
X21458Y10516
X18974Y10516
X12959Y13995
X3251Y15799
X5969Y17196
X5461Y6232
X6036Y8509
X15037Y23352
X14224Y24816
X12205Y19952
X16518Y22233
X9411Y21590
X9474Y15977
X7079Y17254
X24130Y8484
X17145Y22288
X24221Y10233
X6083Y23139
X13970Y19675
X16129Y14945
X17297Y12032
X16063Y20538
X15291Y12363
M30