%FSLAX43Y43*%
%MOMM*%
G71*
G01*
G75*
G04 Layer_Color=8388736*
%ADD10R,1.000X0.950*%
%ADD11R,2.300X1.900*%
%ADD12R,0.400X1.400*%
%ADD13R,1.775X1.900*%
%ADD14R,0.610X2.032*%
%ADD15O,0.610X2.032*%
%ADD16R,1.000X2.250*%
%ADD17R,1.600X1.000*%
%ADD18R,2.500X3.000*%
%ADD19O,1.650X0.300*%
%ADD20O,0.300X1.650*%
%ADD21R,1.200X1.200*%
%ADD22R,1.100X0.600*%
%ADD23R,1.100X1.000*%
%ADD24R,0.700X0.700*%
%ADD25R,0.600X0.550*%
%ADD26R,0.650X0.800*%
%ADD27R,0.650X0.500*%
%ADD28R,0.762X0.762*%
%ADD29R,0.600X0.900*%
%ADD30R,0.550X0.600*%
%ADD31R,0.500X0.650*%
%ADD32R,0.700X0.700*%
%ADD33R,0.900X0.600*%
%ADD34R,1.200X1.200*%
%ADD35C,0.175*%
%ADD36C,0.180*%
%ADD37C,0.200*%
%ADD38C,0.125*%
%ADD39C,0.250*%
%ADD40C,0.400*%
%ADD41C,0.300*%
%ADD42R,0.900X0.300*%
%ADD43R,1.700X1.700*%
%ADD44C,1.700*%
%ADD45R,1.700X1.700*%
%ADD46C,3.600*%
%ADD47C,0.550*%
%ADD48C,0.400*%
%ADD49C,0.500*%
%ADD50C,1.600*%
G04:AMPARAMS|DCode=51|XSize=2.524mm|YSize=2.524mm|CornerRadius=0mm|HoleSize=0mm|Usage=FLASHONLY|Rotation=0.000|XOffset=0mm|YOffset=0mm|HoleType=Round|Shape=Relief|Width=0.254mm|Gap=0.254mm|Entries=4|*
%AMTHD51*
7,0,0,2.524,2.016,0.254,45*
%
%ADD51THD51*%
%ADD52C,0.850*%
%ADD53C,0.800*%
%ADD54C,0.350*%
%ADD55C,3.300*%
%ADD56C,1.270*%
%ADD57R,1.300X1.600*%
%ADD58R,0.600X0.250*%
%ADD59R,1.600X1.500*%
%ADD60C,0.280*%
%ADD61R,1.700X0.350*%
%ADD62R,0.600X1.300*%
%ADD63R,0.350X0.850*%
%ADD64R,0.950X1.750*%
%ADD65R,0.800X0.650*%
%ADD66R,1.300X0.600*%
%ADD67C,0.800*%
%ADD68C,0.150*%
%ADD69C,0.102*%
%ADD70C,0.254*%
%ADD71C,0.600*%
%ADD72C,0.100*%
%ADD73R,2.100X2.100*%
%ADD74R,2.100X2.100*%
%ADD75R,1.700X1.700*%
%ADD76R,0.900X0.510*%
%ADD77R,1.100X1.050*%
%ADD78R,2.400X2.000*%
%ADD79R,0.500X1.500*%
%ADD80R,1.875X2.000*%
%ADD81R,0.710X2.132*%
%ADD82O,0.710X2.132*%
%ADD83R,1.100X2.350*%
%ADD84R,1.700X1.100*%
%ADD85R,2.600X3.100*%
%ADD86O,1.750X0.400*%
%ADD87O,0.400X1.750*%
%ADD88R,1.300X1.300*%
%ADD89R,1.200X0.700*%
%ADD90R,1.200X1.100*%
%ADD91R,0.800X0.800*%
%ADD92R,0.700X0.650*%
%ADD93R,0.750X0.900*%
%ADD94R,0.750X0.600*%
%ADD95R,0.862X0.862*%
%ADD96R,0.700X1.000*%
%ADD97R,0.650X0.700*%
%ADD98R,0.600X0.750*%
%ADD99R,0.800X0.800*%
%ADD100R,1.000X0.700*%
%ADD101R,1.300X1.300*%
%ADD102R,1.800X1.800*%
%ADD103C,1.800*%
%ADD104R,1.800X1.800*%
%ADD105C,3.700*%
D76*
X-41075Y-54370D02*
D03*
D77*
X-40225Y-54375D02*
D03*
X-41925D02*
D03*
D78*
X-19350Y-2300D02*
D03*
X-11850D02*
D03*
X-52184D02*
D03*
X-44684D02*
D03*
D79*
X-16900Y-5150D02*
D03*
X-16250D02*
D03*
X-15600D02*
D03*
X-14950D02*
D03*
X-14300D02*
D03*
X-49734D02*
D03*
X-49084D02*
D03*
X-48434D02*
D03*
X-47784D02*
D03*
X-47134D02*
D03*
D80*
X-16763Y-2300D02*
D03*
X-14438D02*
D03*
X-49597D02*
D03*
X-47271D02*
D03*
D81*
X-47475Y-68800D02*
D03*
D82*
Y-63212D02*
D03*
X-46205Y-68800D02*
D03*
X-44935D02*
D03*
X-43665D02*
D03*
Y-63212D02*
D03*
X-44935D02*
D03*
X-46205D02*
D03*
D83*
X-31000Y-7650D02*
D03*
Y-2150D02*
D03*
X-35000D02*
D03*
Y-7650D02*
D03*
X-24000D02*
D03*
Y-2150D02*
D03*
X-28000D02*
D03*
Y-7650D02*
D03*
D84*
X-40475Y-52975D02*
D03*
Y-50375D02*
D03*
D85*
X-46725Y-51675D02*
D03*
D86*
X-35575Y-54250D02*
D03*
Y-54750D02*
D03*
Y-55250D02*
D03*
Y-55750D02*
D03*
Y-56250D02*
D03*
Y-56750D02*
D03*
Y-57250D02*
D03*
Y-57750D02*
D03*
Y-58250D02*
D03*
Y-58750D02*
D03*
Y-59250D02*
D03*
Y-59750D02*
D03*
Y-60250D02*
D03*
Y-60750D02*
D03*
Y-61250D02*
D03*
Y-61750D02*
D03*
X-24425D02*
D03*
Y-61250D02*
D03*
Y-60750D02*
D03*
Y-60250D02*
D03*
Y-59750D02*
D03*
Y-59250D02*
D03*
Y-58750D02*
D03*
Y-58250D02*
D03*
Y-57750D02*
D03*
Y-57250D02*
D03*
Y-56750D02*
D03*
Y-56250D02*
D03*
Y-55750D02*
D03*
Y-55250D02*
D03*
Y-54750D02*
D03*
Y-54250D02*
D03*
D87*
X-33750Y-63575D02*
D03*
X-33250D02*
D03*
X-32750D02*
D03*
X-32250D02*
D03*
X-31750D02*
D03*
X-31250D02*
D03*
X-30750D02*
D03*
X-30250D02*
D03*
X-29750D02*
D03*
X-29250D02*
D03*
X-28750D02*
D03*
X-28250D02*
D03*
X-27750D02*
D03*
X-27250D02*
D03*
X-26750D02*
D03*
X-26250D02*
D03*
Y-52425D02*
D03*
X-26750D02*
D03*
X-27250D02*
D03*
X-27750D02*
D03*
X-28250D02*
D03*
X-28750D02*
D03*
X-29250D02*
D03*
X-29750D02*
D03*
X-30250D02*
D03*
X-30750D02*
D03*
X-31250D02*
D03*
X-31750D02*
D03*
X-32250D02*
D03*
X-32750D02*
D03*
X-33250D02*
D03*
X-33750D02*
D03*
D88*
X-32050Y-12000D02*
D03*
X-34150D02*
D03*
D89*
X-14300Y-7400D02*
D03*
Y-9300D02*
D03*
X-16400D02*
D03*
X-47000Y-7478D02*
D03*
Y-9378D02*
D03*
X-49100D02*
D03*
D90*
X-16400Y-7600D02*
D03*
X-49100Y-7678D02*
D03*
D91*
X-12600Y-7500D02*
D03*
X-11200D02*
D03*
D92*
X-30150Y-9850D02*
D03*
X-31150D02*
D03*
X-20811Y-10700D02*
D03*
X-21811D02*
D03*
Y-9800D02*
D03*
X-20811D02*
D03*
X-23100D02*
D03*
X-24100D02*
D03*
D93*
X-41675Y-70725D02*
D03*
Y-71925D02*
D03*
X-35675Y-12550D02*
D03*
Y-11350D02*
D03*
X-20300Y-31675D02*
D03*
Y-32875D02*
D03*
Y-35375D02*
D03*
Y-34175D02*
D03*
X-45300Y-7475D02*
D03*
Y-8675D02*
D03*
Y-9950D02*
D03*
Y-11150D02*
D03*
X-45675Y-38700D02*
D03*
Y-37500D02*
D03*
X-47475Y-70725D02*
D03*
Y-71925D02*
D03*
X-44935Y-70725D02*
D03*
Y-71925D02*
D03*
X-46205Y-60050D02*
D03*
Y-61250D02*
D03*
X-40525Y-70725D02*
D03*
Y-71925D02*
D03*
D94*
X-23125Y-10675D02*
D03*
X-24075D02*
D03*
D95*
X-38450Y-56576D02*
D03*
Y-57973D02*
D03*
D96*
X-47475Y-61200D02*
D03*
Y-60100D02*
D03*
X-37225Y-57800D02*
D03*
Y-56700D02*
D03*
X-28975Y-50325D02*
D03*
Y-49225D02*
D03*
X-30075Y-50325D02*
D03*
Y-49225D02*
D03*
X-22650Y-61625D02*
D03*
Y-62725D02*
D03*
X-38775Y-54375D02*
D03*
Y-53275D02*
D03*
Y-50375D02*
D03*
Y-51475D02*
D03*
X-22700Y-54400D02*
D03*
Y-53300D02*
D03*
D97*
X-52100Y-6478D02*
D03*
Y-7478D02*
D03*
X-19000Y-6400D02*
D03*
Y-7400D02*
D03*
D98*
X-51200Y-7453D02*
D03*
Y-6503D02*
D03*
X-18100Y-7375D02*
D03*
Y-6425D02*
D03*
X-12600Y-8625D02*
D03*
Y-9575D02*
D03*
X-11300Y-8625D02*
D03*
Y-9575D02*
D03*
D99*
X-39700Y-57950D02*
D03*
Y-56550D02*
D03*
D100*
X-32100Y-65575D02*
D03*
X-31000D02*
D03*
D101*
X-8750Y-3550D02*
D03*
Y-1450D02*
D03*
X-6500Y-3550D02*
D03*
Y-1450D02*
D03*
D102*
X-45675Y-46090D02*
D03*
X-6970Y-13490D02*
D03*
Y-28730D02*
D03*
Y-64290D02*
D03*
D103*
X-45675Y-43550D02*
D03*
Y-41010D02*
D03*
X-4430Y-13490D02*
D03*
Y-16030D02*
D03*
X-6970D02*
D03*
X-4430Y-38890D02*
D03*
Y-28730D02*
D03*
Y-31270D02*
D03*
X-6970D02*
D03*
X-4430Y-33810D02*
D03*
X-6970D02*
D03*
X-4430Y-36350D02*
D03*
X-6970D02*
D03*
Y-38890D02*
D03*
Y-51590D02*
D03*
Y-49050D02*
D03*
X-4430D02*
D03*
X-6970Y-46510D02*
D03*
X-4430D02*
D03*
X-6970Y-43970D02*
D03*
X-4430D02*
D03*
Y-41430D02*
D03*
X-6970D02*
D03*
X-4430Y-51590D02*
D03*
Y-74450D02*
D03*
Y-64290D02*
D03*
Y-66830D02*
D03*
X-6970D02*
D03*
X-4430Y-69370D02*
D03*
X-6970D02*
D03*
X-4430Y-71910D02*
D03*
X-6970D02*
D03*
Y-74450D02*
D03*
Y-87150D02*
D03*
Y-84610D02*
D03*
X-4430D02*
D03*
X-6970Y-82070D02*
D03*
X-4430D02*
D03*
X-6970Y-79530D02*
D03*
X-4430D02*
D03*
Y-76990D02*
D03*
X-6970D02*
D03*
X-4430Y-87150D02*
D03*
X-41430Y-95570D02*
D03*
X-31270Y-93030D02*
D03*
Y-95570D02*
D03*
X-33810D02*
D03*
Y-93030D02*
D03*
X-36350Y-95570D02*
D03*
Y-93030D02*
D03*
X-38890Y-95570D02*
D03*
Y-93030D02*
D03*
X-41430D02*
D03*
X-28730D02*
D03*
X-26190D02*
D03*
Y-95570D02*
D03*
X-23650Y-93030D02*
D03*
Y-95570D02*
D03*
X-21110Y-93030D02*
D03*
Y-95570D02*
D03*
X-18570D02*
D03*
X-28730D02*
D03*
D104*
X-41270Y-10950D02*
D03*
X-38730D02*
D03*
X-18570Y-93030D02*
D03*
D105*
X-57650Y-97650D02*
D03*
X-2350D02*
D03*
X-57650Y-2350D02*
D03*
X-2350D02*
D03*
M02*
