%FSLAX43Y43*%
%MOMM*%
G71*
G01*
G75*
G04 Layer_Physical_Order=1*
G04 Layer_Color=255*
%ADD10R,1.000X0.950*%
%ADD11R,2.300X1.900*%
%ADD12R,0.400X1.400*%
%ADD13R,1.775X1.900*%
%ADD14R,0.610X2.032*%
%ADD15O,0.610X2.032*%
%ADD16R,1.000X2.250*%
%ADD17R,1.600X1.000*%
%ADD18R,2.500X3.000*%
%ADD19O,1.650X0.300*%
%ADD20O,0.300X1.650*%
%ADD21R,1.200X1.200*%
%ADD22R,1.100X0.600*%
%ADD23R,1.100X1.000*%
%ADD24R,0.700X0.700*%
%ADD25R,0.600X0.550*%
%ADD26R,0.650X0.800*%
%ADD27R,0.650X0.500*%
%ADD28R,0.762X0.762*%
%ADD29R,0.600X0.900*%
%ADD30R,0.550X0.600*%
%ADD31R,0.500X0.650*%
%ADD32R,0.700X0.700*%
%ADD33R,0.900X0.600*%
%ADD34R,1.200X1.200*%
%ADD35C,0.175*%
%ADD36C,0.180*%
%ADD37C,0.200*%
%ADD38C,0.125*%
%ADD39C,0.250*%
%ADD40C,0.400*%
%ADD41C,0.300*%
%ADD42R,0.900X0.300*%
%ADD43R,1.700X1.700*%
%ADD44C,1.700*%
%ADD45R,1.700X1.700*%
%ADD46C,3.600*%
%ADD47C,0.550*%
%ADD48C,0.400*%
G36*
X-22843Y-20711D02*
Y-20971D01*
X-22959Y-21066D01*
X-23075Y-21043D01*
X-23221Y-21072D01*
X-23345Y-21155D01*
X-23428Y-21279D01*
X-23457Y-21425D01*
X-23457Y-21428D01*
X-23739Y-21711D01*
X-23797Y-21798D01*
X-24018Y-21754D01*
X-24107Y-21664D01*
Y-21047D01*
X-24105Y-21045D01*
X-24022Y-20921D01*
X-23993Y-20775D01*
X-24022Y-20629D01*
X-24105Y-20505D01*
X-24229Y-20422D01*
X-24375Y-20393D01*
X-24521Y-20422D01*
X-24645Y-20505D01*
X-24728Y-20629D01*
X-24757Y-20775D01*
X-24728Y-20921D01*
X-24694Y-20972D01*
X-24731Y-21118D01*
X-24775Y-21141D01*
X-24879Y-21072D01*
X-25025Y-21043D01*
X-25171Y-21072D01*
X-25217Y-21102D01*
X-25352Y-21037D01*
X-25399Y-20488D01*
X-25270Y-20412D01*
X-25171Y-20478D01*
X-25025Y-20507D01*
X-24879Y-20478D01*
X-24755Y-20395D01*
X-24672Y-20271D01*
X-24643Y-20125D01*
X-24672Y-19979D01*
X-24741Y-19875D01*
X-24670Y-19743D01*
X-23811D01*
X-22843Y-20711D01*
D02*
G37*
G36*
X-21235Y-715D02*
X-21199Y-730D01*
X-21160Y-875D01*
X-21160Y-875D01*
X-21162Y-881D01*
X-21165Y-886D01*
X-21171Y-914D01*
X-21178Y-942D01*
X-21177Y-948D01*
X-21178Y-954D01*
Y-6700D01*
X-21165Y-6768D01*
X-21126Y-6826D01*
X-21068Y-6865D01*
X-21000Y-6878D01*
X-19475D01*
Y-6900D01*
X-19475Y-6900D01*
X-19475Y-6900D01*
Y-7300D01*
X-19000D01*
Y-7400D01*
X-18900D01*
Y-7900D01*
X-18550D01*
Y-7900D01*
X-18200D01*
Y-7375D01*
X-18100D01*
Y-7275D01*
X-17650D01*
Y-6878D01*
X-17500D01*
X-17432Y-6865D01*
X-17374Y-6826D01*
X-17335Y-6768D01*
X-17322Y-6700D01*
Y-6050D01*
X-17300D01*
Y-6050D01*
X-17000D01*
Y-5150D01*
X-16800D01*
Y-6050D01*
X-16500D01*
D01*
X-16500D01*
X-16400Y-6150D01*
Y-6450D01*
X-16320D01*
Y-6700D01*
X-16309Y-6787D01*
X-16407Y-6900D01*
X-17150D01*
Y-7500D01*
X-16400D01*
Y-7700D01*
X-17150D01*
Y-8300D01*
D01*
Y-8300D01*
X-17250Y-8400D01*
X-17550D01*
Y-10200D01*
X-16226D01*
Y-12692D01*
X-19819Y-16285D01*
X-19957Y-16227D01*
Y-12084D01*
X-19978Y-11981D01*
X-20036Y-11895D01*
X-20543Y-11387D01*
Y-11150D01*
X-20336D01*
Y-10250D01*
D01*
Y-10250D01*
X-20336Y-10250D01*
Y-10250D01*
X-20336D01*
X-20336D01*
Y-9350D01*
X-20543D01*
Y-9288D01*
X-20563Y-9186D01*
X-20621Y-9099D01*
X-20935Y-8786D01*
X-21022Y-8728D01*
X-21124Y-8707D01*
X-22613D01*
X-22651Y-8651D01*
X-22799Y-8551D01*
X-22975Y-8516D01*
X-23151Y-8551D01*
X-23193Y-8579D01*
X-23325Y-8509D01*
Y-6350D01*
X-23732D01*
Y-3450D01*
X-23325D01*
Y-850D01*
X-24675D01*
Y-973D01*
X-24791Y-1068D01*
X-24925Y-1041D01*
X-25101Y-1076D01*
X-25249Y-1176D01*
X-25349Y-1324D01*
X-25384Y-1500D01*
X-25349Y-1676D01*
X-25249Y-1824D01*
X-25101Y-1924D01*
X-24925Y-1959D01*
X-24791Y-1932D01*
X-24675Y-2027D01*
Y-3450D01*
X-24268D01*
Y-6350D01*
X-24675D01*
Y-8950D01*
X-24268D01*
Y-9350D01*
X-24575D01*
Y-10225D01*
X-24600D01*
Y-11119D01*
X-27250D01*
X-27377Y-11144D01*
X-27484Y-11216D01*
X-31887Y-15619D01*
X-40488D01*
X-42819Y-13288D01*
Y-8250D01*
X-42844Y-8123D01*
X-42916Y-8016D01*
X-43688Y-7244D01*
X-43795Y-7172D01*
X-43922Y-7147D01*
X-44800D01*
Y-6900D01*
X-45800D01*
Y-6943D01*
X-45916Y-7038D01*
X-46025Y-7016D01*
X-46201Y-7051D01*
X-46275Y-7011D01*
Y-7003D01*
X-46803D01*
Y-6025D01*
X-46759D01*
Y-4699D01*
X-46734Y-4678D01*
X-43034D01*
X-42966Y-4665D01*
X-42908Y-4626D01*
X-42869Y-4568D01*
X-42856Y-4500D01*
Y-954D01*
X-42857Y-948D01*
X-42856Y-943D01*
X-42863Y-914D01*
X-42869Y-886D01*
X-42872Y-881D01*
X-42874Y-875D01*
X-42835Y-730D01*
X-42798Y-715D01*
X-42556Y-529D01*
X-21477D01*
X-21235Y-715D01*
D02*
G37*
G36*
X-53433Y-911D02*
Y-904D01*
X-43434D01*
Y-911D01*
X-43129Y-870D01*
X-43034Y-954D01*
Y-4500D01*
X-46734D01*
Y-4250D01*
X-46984D01*
Y-3850D01*
X-49234D01*
Y-4250D01*
X-50134D01*
Y-4500D01*
X-50334D01*
Y-6700D01*
X-50750D01*
Y-6603D01*
X-51200D01*
Y-6503D01*
X-51300D01*
Y-5978D01*
X-51625D01*
Y-5978D01*
X-52000D01*
Y-6478D01*
X-52100D01*
Y-6578D01*
X-52575D01*
Y-6700D01*
X-53834D01*
Y-954D01*
X-53739Y-870D01*
X-53433Y-911D01*
D02*
G37*
G36*
X-529Y-99471D02*
X-59471D01*
Y-529D01*
X-54311D01*
X-54069Y-715D01*
X-54033Y-730D01*
X-53994Y-875D01*
X-53994Y-875D01*
X-53996Y-881D01*
X-53999Y-886D01*
X-54005Y-914D01*
X-54012Y-942D01*
X-54011Y-948D01*
X-54012Y-954D01*
Y-6700D01*
X-53999Y-6768D01*
X-53960Y-6826D01*
X-53902Y-6865D01*
X-53834Y-6878D01*
X-52575D01*
Y-6978D01*
X-52575Y-6978D01*
X-52575Y-6978D01*
Y-7378D01*
X-52100D01*
Y-7478D01*
X-52000D01*
Y-7978D01*
X-51650D01*
Y-7978D01*
X-51300D01*
Y-7453D01*
X-51200D01*
Y-7353D01*
X-50750D01*
Y-6928D01*
X-50750D01*
Y-6878D01*
X-50334D01*
X-50266Y-6865D01*
X-50208Y-6826D01*
X-50169Y-6768D01*
X-50156Y-6700D01*
Y-6050D01*
X-50134D01*
Y-6050D01*
X-49834D01*
Y-5150D01*
X-49634D01*
Y-6050D01*
X-49561D01*
X-49490Y-6182D01*
X-49508Y-6208D01*
X-49543Y-6384D01*
X-49508Y-6560D01*
X-49408Y-6708D01*
X-49260Y-6808D01*
X-49155Y-6829D01*
X-49170Y-6978D01*
X-49850D01*
Y-7578D01*
X-49100D01*
Y-7778D01*
X-49850D01*
Y-8378D01*
D01*
Y-8378D01*
X-49950Y-8478D01*
X-50250D01*
Y-10278D01*
X-48926D01*
Y-21070D01*
X-48902Y-21250D01*
X-48867Y-21334D01*
X-48833Y-21418D01*
X-48722Y-21562D01*
X-20896Y-49388D01*
Y-54187D01*
X-21323Y-54614D01*
X-22200D01*
Y-54500D01*
X-22700D01*
Y-54300D01*
X-22200D01*
Y-53750D01*
X-22200D01*
Y-53658D01*
X-22110Y-53626D01*
X-22019Y-53700D01*
X-22021Y-53713D01*
X-21986Y-53888D01*
X-21887Y-54037D01*
X-21738Y-54136D01*
X-21562Y-54171D01*
X-21387Y-54136D01*
X-21238Y-54037D01*
X-21139Y-53888D01*
X-21104Y-53713D01*
X-21139Y-53537D01*
X-21238Y-53388D01*
X-21387Y-53289D01*
X-21562Y-53254D01*
X-21614Y-53264D01*
X-21777Y-53102D01*
X-21868Y-53041D01*
X-21975Y-53020D01*
X-22225D01*
Y-52675D01*
X-23175D01*
Y-53410D01*
X-23207Y-53416D01*
X-23298Y-53477D01*
X-23742Y-53920D01*
X-23750Y-53919D01*
X-25100D01*
X-25155Y-53930D01*
X-25226Y-53797D01*
X-24752Y-53323D01*
X-24691Y-53232D01*
X-24670Y-53125D01*
Y-47450D01*
X-24691Y-47343D01*
X-24752Y-47252D01*
X-30327Y-41677D01*
X-30316Y-41625D01*
X-30351Y-41449D01*
X-30451Y-41301D01*
X-30599Y-41201D01*
X-30775Y-41166D01*
X-30951Y-41201D01*
X-31099Y-41301D01*
X-31199Y-41449D01*
X-31202Y-41465D01*
X-31345Y-41508D01*
X-31902Y-40952D01*
X-31891Y-40900D01*
X-31926Y-40724D01*
X-32026Y-40576D01*
X-32174Y-40476D01*
X-32350Y-40441D01*
X-32526Y-40476D01*
X-32674Y-40576D01*
X-32774Y-40724D01*
X-32809Y-40900D01*
X-32806Y-40912D01*
X-32912Y-41019D01*
X-33050Y-40991D01*
X-33226Y-41026D01*
X-33374Y-41126D01*
X-33474Y-41274D01*
X-33509Y-41450D01*
X-33474Y-41626D01*
X-33374Y-41774D01*
X-33226Y-41874D01*
X-33050Y-41909D01*
X-32998Y-41898D01*
X-26975Y-47921D01*
X-27019Y-48065D01*
X-27076Y-48076D01*
X-27224Y-48176D01*
X-27499Y-48101D01*
X-27499Y-48101D01*
X-27499Y-48101D01*
X-27675Y-48066D01*
X-27851Y-48101D01*
X-27999Y-48201D01*
X-28099Y-48349D01*
X-28134Y-48525D01*
X-28099Y-48701D01*
X-27999Y-48849D01*
X-27851Y-48949D01*
X-27675Y-48984D01*
X-27623Y-48973D01*
X-27065Y-49532D01*
X-27136Y-49664D01*
X-27250Y-49641D01*
X-27426Y-49676D01*
X-27574Y-49776D01*
X-27577Y-49779D01*
X-27715Y-49722D01*
X-27691Y-49600D01*
X-27726Y-49424D01*
X-27826Y-49276D01*
X-27974Y-49176D01*
X-28150Y-49141D01*
X-28326Y-49176D01*
X-28343Y-49188D01*
X-28475Y-49117D01*
Y-48575D01*
X-28875D01*
Y-49225D01*
X-29075D01*
Y-48575D01*
X-29475D01*
D01*
D01*
X-29475Y-48575D01*
X-29575D01*
Y-48575D01*
X-30575D01*
Y-49125D01*
X-30075D01*
Y-49325D01*
X-30575D01*
Y-49509D01*
X-30707Y-49579D01*
X-30824Y-49501D01*
X-31000Y-49466D01*
X-31176Y-49501D01*
X-31300Y-49584D01*
X-31432Y-49514D01*
Y-48787D01*
X-31376Y-48749D01*
X-31276Y-48601D01*
X-31241Y-48425D01*
X-31276Y-48249D01*
X-31376Y-48101D01*
X-31524Y-48001D01*
X-31700Y-47966D01*
X-31876Y-48001D01*
X-32024Y-48101D01*
X-32037Y-48120D01*
X-32188D01*
X-32201Y-48101D01*
X-32349Y-48001D01*
X-32525Y-47966D01*
X-32701Y-48001D01*
X-32849Y-48101D01*
X-32949Y-48249D01*
X-32984Y-48425D01*
X-32949Y-48601D01*
X-32849Y-48749D01*
X-32793Y-48787D01*
Y-49031D01*
X-32924Y-49101D01*
X-33100Y-49066D01*
X-33276Y-49101D01*
X-33325Y-49134D01*
X-33457Y-49063D01*
Y-48787D01*
X-33401Y-48749D01*
X-33301Y-48601D01*
X-33266Y-48425D01*
X-33301Y-48249D01*
X-33401Y-48101D01*
X-33549Y-48001D01*
X-33725Y-47966D01*
X-33901Y-48001D01*
X-34049Y-48101D01*
X-34149Y-48249D01*
X-34184Y-48425D01*
X-34149Y-48601D01*
X-34049Y-48749D01*
X-33993Y-48787D01*
Y-49800D01*
X-33972Y-49902D01*
X-33914Y-49989D01*
X-33098Y-50806D01*
X-33064Y-50887D01*
X-33155Y-51006D01*
X-33250Y-50994D01*
X-33446Y-51019D01*
X-33500Y-51042D01*
X-33554Y-51019D01*
X-33750Y-50994D01*
X-33946Y-51019D01*
X-34128Y-51095D01*
X-34259Y-51195D01*
X-42102Y-43352D01*
X-42193Y-43291D01*
X-42300Y-43270D01*
X-44682D01*
X-44780Y-43033D01*
X-44944Y-42819D01*
X-45158Y-42655D01*
X-45407Y-42551D01*
X-45675Y-42516D01*
X-45943Y-42551D01*
X-46192Y-42655D01*
X-46406Y-42819D01*
X-46570Y-43033D01*
X-46674Y-43282D01*
X-46709Y-43550D01*
X-46674Y-43818D01*
X-46570Y-44067D01*
X-46406Y-44281D01*
X-46192Y-44445D01*
X-45943Y-44549D01*
X-45675Y-44584D01*
X-45407Y-44549D01*
X-45158Y-44445D01*
X-44944Y-44281D01*
X-44780Y-44067D01*
X-44682Y-43830D01*
X-42416D01*
X-34680Y-51566D01*
Y-53844D01*
X-34796Y-53939D01*
X-34900Y-53919D01*
X-36250D01*
X-36377Y-53944D01*
X-36415Y-53970D01*
X-37134D01*
X-37445Y-53659D01*
Y-50650D01*
X-37445Y-50650D01*
X-37466Y-50543D01*
X-37527Y-50452D01*
X-37802Y-50177D01*
X-37893Y-50116D01*
X-38000Y-50095D01*
X-38300D01*
Y-49750D01*
X-39250D01*
Y-50095D01*
X-39500D01*
Y-49700D01*
X-41450D01*
Y-51050D01*
X-39500D01*
Y-50655D01*
X-39250D01*
Y-50825D01*
X-39275D01*
Y-51375D01*
X-38275D01*
Y-50825D01*
X-38300D01*
Y-50655D01*
X-38116D01*
X-38005Y-50766D01*
Y-53775D01*
X-37984Y-53882D01*
X-37931Y-53962D01*
X-37952Y-54002D01*
X-38045Y-54095D01*
X-38300D01*
Y-53925D01*
X-38275D01*
Y-53375D01*
X-39275D01*
Y-53925D01*
X-39250D01*
Y-54095D01*
X-39550D01*
Y-53725D01*
X-39550D01*
Y-53700D01*
X-39500Y-53650D01*
X-39500D01*
Y-52300D01*
X-41450D01*
Y-52695D01*
X-41475D01*
X-41582Y-52716D01*
X-41673Y-52777D01*
X-42123Y-53227D01*
X-42184Y-53318D01*
X-42205Y-53425D01*
Y-53725D01*
X-42600D01*
Y-55025D01*
X-41250D01*
Y-54703D01*
X-40900D01*
Y-55025D01*
X-40799D01*
X-40742Y-55164D01*
X-42114Y-56536D01*
X-42172Y-56623D01*
X-42193Y-56725D01*
Y-63350D01*
X-42193Y-63350D01*
X-42193D01*
X-42172Y-63452D01*
X-42114Y-63539D01*
X-34558Y-71096D01*
Y-87852D01*
X-34614Y-87890D01*
X-34714Y-88039D01*
X-34749Y-88214D01*
X-34714Y-88390D01*
X-34614Y-88539D01*
X-34466Y-88638D01*
X-34290Y-88673D01*
X-34134Y-88642D01*
X-34031Y-88726D01*
X-34038Y-88876D01*
X-34074Y-88901D01*
X-34174Y-89049D01*
X-34209Y-89225D01*
X-34174Y-89401D01*
X-34074Y-89549D01*
X-33926Y-89649D01*
X-33750Y-89684D01*
X-33574Y-89649D01*
X-33426Y-89549D01*
X-33326Y-89401D01*
X-33291Y-89225D01*
X-33326Y-89049D01*
X-33426Y-88901D01*
X-33482Y-88863D01*
Y-83994D01*
X-33333Y-83979D01*
X-33324Y-84026D01*
X-33224Y-84174D01*
X-33076Y-84274D01*
X-32900Y-84309D01*
X-32724Y-84274D01*
X-32696Y-84255D01*
X-32590Y-84361D01*
X-32599Y-84374D01*
X-32634Y-84550D01*
X-32599Y-84726D01*
X-32499Y-84874D01*
X-32351Y-84974D01*
X-32175Y-85009D01*
X-31999Y-84974D01*
X-31851Y-84874D01*
X-31751Y-84726D01*
X-31716Y-84550D01*
X-31751Y-84374D01*
X-31851Y-84226D01*
X-31907Y-84188D01*
Y-71042D01*
X-31828Y-71009D01*
X-31758Y-70995D01*
X-31538Y-71216D01*
Y-76638D01*
X-31594Y-76676D01*
X-31694Y-76824D01*
X-31729Y-77000D01*
X-31694Y-77176D01*
X-31594Y-77324D01*
X-31538Y-77362D01*
Y-92031D01*
X-31787Y-92135D01*
X-32001Y-92299D01*
X-32165Y-92513D01*
X-32269Y-92762D01*
X-32304Y-93030D01*
X-32269Y-93298D01*
X-32165Y-93547D01*
X-32001Y-93761D01*
X-31787Y-93925D01*
X-31538Y-94029D01*
X-31270Y-94064D01*
X-31002Y-94029D01*
X-30753Y-93925D01*
X-30539Y-93761D01*
X-30435Y-93625D01*
X-30293Y-93673D01*
Y-94214D01*
X-30753Y-94675D01*
X-31002Y-94571D01*
X-31270Y-94536D01*
X-31538Y-94571D01*
X-31787Y-94675D01*
X-32001Y-94839D01*
X-32165Y-95053D01*
X-32269Y-95302D01*
X-32304Y-95570D01*
X-32269Y-95838D01*
X-32165Y-96087D01*
X-32001Y-96301D01*
X-31787Y-96465D01*
X-31538Y-96569D01*
X-31270Y-96604D01*
X-31002Y-96569D01*
X-30753Y-96465D01*
X-30539Y-96301D01*
X-30375Y-96087D01*
X-30271Y-95838D01*
X-30236Y-95570D01*
X-30271Y-95302D01*
X-30375Y-95053D01*
X-29836Y-94514D01*
X-29778Y-94427D01*
X-29757Y-94325D01*
X-29757Y-94325D01*
X-29757Y-94325D01*
Y-94325D01*
Y-93608D01*
X-29615Y-93560D01*
X-29461Y-93761D01*
X-29247Y-93925D01*
X-28998Y-94029D01*
X-28730Y-94064D01*
X-28462Y-94029D01*
X-28213Y-93925D01*
X-27999Y-93761D01*
X-27835Y-93547D01*
X-27835D01*
D01*
X-27835Y-93547D01*
X-27693Y-93606D01*
Y-94154D01*
X-28213Y-94675D01*
X-28462Y-94571D01*
X-28730Y-94536D01*
X-28998Y-94571D01*
X-29247Y-94675D01*
X-29461Y-94839D01*
X-29625Y-95053D01*
X-29729Y-95302D01*
X-29764Y-95570D01*
X-29729Y-95838D01*
X-29625Y-96087D01*
X-29461Y-96301D01*
X-29247Y-96465D01*
X-28998Y-96569D01*
X-28730Y-96604D01*
X-28462Y-96569D01*
X-28213Y-96465D01*
X-27999Y-96301D01*
X-27835Y-96087D01*
X-27731Y-95838D01*
X-27696Y-95570D01*
X-27731Y-95302D01*
X-27835Y-95053D01*
X-27236Y-94454D01*
X-27178Y-94367D01*
X-27157Y-94265D01*
X-27157Y-94265D01*
X-27157Y-94265D01*
Y-94265D01*
Y-93686D01*
X-27015Y-93638D01*
X-26921Y-93761D01*
X-26707Y-93925D01*
X-26458Y-94029D01*
X-26190Y-94064D01*
X-25922Y-94029D01*
X-25673Y-93925D01*
X-25459Y-93761D01*
X-25295Y-93547D01*
X-25191Y-93298D01*
X-25156Y-93030D01*
X-25191Y-92762D01*
X-25295Y-92513D01*
X-25459Y-92299D01*
X-25673Y-92135D01*
X-25922Y-92031D01*
Y-66160D01*
X-25937Y-66087D01*
X-25812Y-66003D01*
X-25777Y-66027D01*
X-25601Y-66062D01*
X-25426Y-66027D01*
X-25277Y-65928D01*
X-25177Y-65779D01*
X-25142Y-65603D01*
X-25177Y-65428D01*
X-25277Y-65279D01*
X-25279Y-65277D01*
Y-65127D01*
X-25276Y-65124D01*
X-25176Y-64976D01*
X-25141Y-64800D01*
X-25176Y-64624D01*
X-25276Y-64476D01*
X-25424Y-64376D01*
X-25600Y-64341D01*
X-25776Y-64376D01*
X-25807Y-64397D01*
X-25931Y-64313D01*
X-25919Y-64250D01*
Y-64046D01*
X-25786Y-63975D01*
X-25751Y-63999D01*
X-25575Y-64034D01*
X-25508Y-64020D01*
X-24543Y-64986D01*
Y-90600D01*
X-24522Y-90702D01*
X-24464Y-90789D01*
X-23363Y-91891D01*
X-23429Y-92025D01*
X-23650Y-91996D01*
X-23918Y-92031D01*
X-24167Y-92135D01*
X-24381Y-92299D01*
X-24545Y-92513D01*
X-24649Y-92762D01*
X-24684Y-93030D01*
X-24649Y-93298D01*
X-24545Y-93547D01*
X-24381Y-93761D01*
X-24167Y-93925D01*
X-23918Y-94029D01*
X-23650Y-94064D01*
X-23382Y-94029D01*
X-23133Y-93925D01*
X-22919Y-93761D01*
X-22785Y-93586D01*
X-22643Y-93634D01*
Y-94184D01*
X-23133Y-94675D01*
X-23382Y-94571D01*
X-23650Y-94536D01*
X-23918Y-94571D01*
X-24167Y-94675D01*
X-24381Y-94839D01*
X-24545Y-95053D01*
X-24649Y-95302D01*
X-24684Y-95570D01*
X-24649Y-95838D01*
X-24545Y-96087D01*
X-24381Y-96301D01*
X-24167Y-96465D01*
X-23918Y-96569D01*
X-23650Y-96604D01*
X-23382Y-96569D01*
X-23133Y-96465D01*
X-22919Y-96301D01*
X-22755Y-96087D01*
X-22651Y-95838D01*
X-22616Y-95570D01*
X-22651Y-95302D01*
X-22755Y-95053D01*
X-22186Y-94484D01*
X-22128Y-94397D01*
X-22107Y-94295D01*
Y-93647D01*
X-21965Y-93599D01*
X-21841Y-93761D01*
X-21627Y-93925D01*
X-21378Y-94029D01*
X-21110Y-94064D01*
X-20842Y-94029D01*
X-20593Y-93925D01*
X-20379Y-93761D01*
X-20215Y-93547D01*
X-20111Y-93298D01*
X-20076Y-93030D01*
X-20111Y-92762D01*
X-20215Y-92513D01*
X-20379Y-92299D01*
X-20593Y-92135D01*
X-20842Y-92031D01*
X-21110Y-91996D01*
X-21378Y-92031D01*
X-21627Y-92135D01*
X-21841Y-92299D01*
X-21974Y-92472D01*
X-22120Y-92438D01*
X-22128Y-92398D01*
X-22186Y-92311D01*
X-24007Y-90489D01*
Y-64875D01*
X-24028Y-64773D01*
X-24086Y-64686D01*
X-25130Y-63642D01*
X-25116Y-63575D01*
X-25131Y-63500D01*
X-24999Y-63430D01*
X-22693Y-65736D01*
Y-71038D01*
X-22749Y-71076D01*
X-22849Y-71224D01*
X-22884Y-71400D01*
X-22849Y-71576D01*
X-22749Y-71724D01*
X-22601Y-71824D01*
X-22425Y-71859D01*
X-22249Y-71824D01*
X-22150Y-71757D01*
X-22018Y-71828D01*
Y-72288D01*
X-22074Y-72326D01*
X-22174Y-72474D01*
X-22209Y-72650D01*
X-22174Y-72826D01*
X-22074Y-72974D01*
X-21926Y-73074D01*
X-21750Y-73109D01*
X-21574Y-73074D01*
X-21426Y-72974D01*
X-21326Y-72826D01*
X-21291Y-72650D01*
X-21326Y-72474D01*
X-21426Y-72326D01*
X-21482Y-72288D01*
Y-65800D01*
X-21503Y-65698D01*
X-21561Y-65611D01*
X-24852Y-62319D01*
X-24837Y-62170D01*
X-24742Y-62107D01*
X-24525D01*
Y-61750D01*
X-24425D01*
Y-61650D01*
X-23413D01*
X-23414Y-61646D01*
X-23319Y-61530D01*
X-23141D01*
X-23125Y-61547D01*
Y-62075D01*
X-23150D01*
Y-62625D01*
X-22150D01*
Y-62404D01*
X-22018Y-62333D01*
X-21918Y-62400D01*
X-21742Y-62435D01*
X-21567Y-62400D01*
X-21418Y-62300D01*
X-21319Y-62152D01*
X-21306Y-62089D01*
X-21163Y-62045D01*
X-19521Y-63687D01*
Y-72327D01*
X-19500Y-72429D01*
X-19442Y-72516D01*
X-7865Y-84093D01*
X-7969Y-84342D01*
X-8004Y-84610D01*
X-7969Y-84878D01*
X-7865Y-85127D01*
X-7701Y-85341D01*
X-7487Y-85505D01*
X-7238Y-85609D01*
X-6970Y-85644D01*
X-6702Y-85609D01*
X-6453Y-85505D01*
X-6239Y-85341D01*
X-6075Y-85127D01*
X-5971Y-84878D01*
X-5936Y-84610D01*
X-5971Y-84342D01*
X-6075Y-84093D01*
X-6239Y-83879D01*
X-6453Y-83715D01*
X-6702Y-83611D01*
X-6970Y-83576D01*
X-7238Y-83611D01*
X-7487Y-83715D01*
X-8725Y-82476D01*
X-8668Y-82338D01*
X-7969D01*
X-7865Y-82587D01*
X-7701Y-82801D01*
X-7487Y-82965D01*
X-7238Y-83069D01*
X-6970Y-83104D01*
X-6702Y-83069D01*
X-6453Y-82965D01*
X-6239Y-82801D01*
X-6075Y-82587D01*
X-5971Y-82338D01*
X-5936Y-82070D01*
X-5971Y-81802D01*
X-6075Y-81553D01*
X-6239Y-81339D01*
X-6453Y-81175D01*
X-6477Y-81165D01*
X-6448Y-81018D01*
X-5861D01*
X-5325Y-81553D01*
X-5429Y-81802D01*
X-5464Y-82070D01*
X-5429Y-82338D01*
X-5325Y-82587D01*
X-5161Y-82801D01*
X-4947Y-82965D01*
X-4698Y-83069D01*
X-4430Y-83104D01*
X-4162Y-83069D01*
X-3913Y-82965D01*
X-3699Y-82801D01*
X-3535Y-82587D01*
X-3431Y-82338D01*
X-3396Y-82070D01*
X-3431Y-81802D01*
X-3535Y-81553D01*
X-3699Y-81339D01*
X-3913Y-81175D01*
X-4162Y-81071D01*
X-4430Y-81036D01*
X-4698Y-81071D01*
X-4947Y-81175D01*
X-5561Y-80561D01*
X-5648Y-80503D01*
X-5750Y-80482D01*
X-6294D01*
X-6342Y-80340D01*
X-6239Y-80261D01*
X-6075Y-80047D01*
X-5971Y-79798D01*
X-5936Y-79530D01*
X-5971Y-79262D01*
X-6075Y-79013D01*
X-6239Y-78799D01*
X-6388Y-78685D01*
X-6340Y-78543D01*
X-5060D01*
X-5012Y-78685D01*
X-5161Y-78799D01*
X-5325Y-79013D01*
X-5429Y-79262D01*
X-5464Y-79530D01*
X-5429Y-79798D01*
X-5325Y-80047D01*
X-5161Y-80261D01*
X-4947Y-80425D01*
X-4698Y-80529D01*
X-4430Y-80564D01*
X-4162Y-80529D01*
X-3913Y-80425D01*
X-3699Y-80261D01*
X-3535Y-80047D01*
X-3431Y-79798D01*
X-3396Y-79530D01*
X-3431Y-79262D01*
X-3535Y-79013D01*
X-3699Y-78799D01*
X-3848Y-78685D01*
X-3800Y-78543D01*
X-3461D01*
X-3193Y-78811D01*
Y-82994D01*
X-3913Y-83715D01*
X-4162Y-83611D01*
X-4430Y-83576D01*
X-4698Y-83611D01*
X-4947Y-83715D01*
X-5161Y-83879D01*
X-5325Y-84093D01*
X-5429Y-84342D01*
X-5464Y-84610D01*
X-5429Y-84878D01*
X-5325Y-85127D01*
X-5161Y-85341D01*
X-4947Y-85505D01*
X-4698Y-85609D01*
X-4430Y-85644D01*
X-4162Y-85609D01*
X-3913Y-85505D01*
X-3699Y-85341D01*
X-3535Y-85127D01*
X-3431Y-84878D01*
X-3396Y-84610D01*
X-3431Y-84342D01*
X-3535Y-84093D01*
X-2736Y-83294D01*
X-2678Y-83207D01*
X-2657Y-83105D01*
Y-78700D01*
X-2674Y-78615D01*
X-2678Y-78598D01*
X-2736Y-78511D01*
X-3161Y-78086D01*
X-3248Y-78028D01*
X-3350Y-78007D01*
X-3839D01*
X-3887Y-77865D01*
X-3699Y-77721D01*
X-3535Y-77507D01*
X-3431Y-77258D01*
X-3396Y-76990D01*
X-3431Y-76722D01*
X-3535Y-76473D01*
X-2111Y-75049D01*
X-2053Y-74962D01*
X-2032Y-74860D01*
Y-42175D01*
X-2053Y-42073D01*
X-2111Y-41986D01*
X-2856Y-41241D01*
X-2943Y-41183D01*
X-3045Y-41162D01*
X-3431D01*
X-3535Y-40913D01*
X-3699Y-40699D01*
X-3913Y-40535D01*
X-4104Y-40456D01*
X-4084Y-40307D01*
X-4051Y-40303D01*
X-3699Y-40157D01*
X-3396Y-39924D01*
X-3163Y-39621D01*
X-3017Y-39269D01*
X-2967Y-38890D01*
X-3017Y-38511D01*
X-3163Y-38159D01*
X-3396Y-37856D01*
X-3605Y-37695D01*
Y-37545D01*
X-3396Y-37384D01*
X-3163Y-37081D01*
X-3017Y-36729D01*
X-2967Y-36350D01*
X-3017Y-35971D01*
X-3163Y-35619D01*
X-3396Y-35316D01*
X-3605Y-35155D01*
Y-35005D01*
X-3396Y-34844D01*
X-3163Y-34541D01*
X-3017Y-34189D01*
X-2967Y-33810D01*
X-3017Y-33431D01*
X-3163Y-33079D01*
X-3396Y-32776D01*
X-3605Y-32615D01*
Y-32465D01*
X-3396Y-32304D01*
X-3163Y-32001D01*
X-3017Y-31649D01*
X-2967Y-31270D01*
X-3017Y-30891D01*
X-3163Y-30539D01*
X-3396Y-30236D01*
X-3699Y-30003D01*
X-4049Y-29859D01*
Y-29835D01*
X-4031Y-29701D01*
X-3900Y-29647D01*
X-3681Y-29479D01*
X-3513Y-29260D01*
X-3407Y-29004D01*
X-3384Y-28830D01*
X-5476D01*
X-5453Y-29004D01*
X-5347Y-29260D01*
X-5179Y-29479D01*
X-4960Y-29647D01*
X-4829Y-29701D01*
X-4811Y-29835D01*
Y-29859D01*
X-5161Y-30003D01*
X-5464Y-30236D01*
X-5625Y-30445D01*
X-5775D01*
X-5936Y-30236D01*
X-6239Y-30003D01*
X-6483Y-29902D01*
X-6454Y-29755D01*
X-5945D01*
Y-27705D01*
X-7995D01*
Y-29755D01*
X-7486D01*
X-7457Y-29902D01*
X-7701Y-30003D01*
X-8004Y-30236D01*
X-8237Y-30539D01*
X-8383Y-30891D01*
X-8433Y-31270D01*
X-8383Y-31649D01*
X-8237Y-32001D01*
X-8004Y-32304D01*
X-7795Y-32465D01*
Y-32615D01*
X-8004Y-32776D01*
X-8237Y-33079D01*
X-8383Y-33431D01*
X-8433Y-33810D01*
X-8383Y-34189D01*
X-8237Y-34541D01*
X-8004Y-34844D01*
X-7795Y-35005D01*
Y-35155D01*
X-8004Y-35316D01*
X-8237Y-35619D01*
X-8383Y-35971D01*
X-8433Y-36350D01*
X-8383Y-36729D01*
X-8237Y-37081D01*
X-8004Y-37384D01*
X-7795Y-37545D01*
Y-37695D01*
X-8004Y-37856D01*
X-8237Y-38159D01*
X-8383Y-38511D01*
X-8433Y-38890D01*
X-8383Y-39269D01*
X-8250Y-39588D01*
X-8375Y-39672D01*
X-14636Y-33411D01*
X-14723Y-33353D01*
X-14825Y-33332D01*
X-19464D01*
X-19800Y-32996D01*
Y-32356D01*
X-19800Y-32356D01*
D01*
D01*
X-19800Y-32300D01*
Y-32294D01*
Y-32275D01*
X-19800Y-32250D01*
X-19800Y-32194D01*
X-19800Y-32194D01*
X-19800D01*
Y-31100D01*
X-19892D01*
X-19935Y-31035D01*
X-19971Y-30968D01*
X-19876Y-30826D01*
X-19841Y-30650D01*
X-19876Y-30474D01*
X-19976Y-30326D01*
X-20124Y-30226D01*
X-20300Y-30191D01*
X-20476Y-30226D01*
X-20624Y-30326D01*
X-20724Y-30474D01*
X-20759Y-30650D01*
X-20724Y-30826D01*
X-20629Y-30968D01*
X-20665Y-31035D01*
X-20708Y-31100D01*
X-20800D01*
Y-32194D01*
X-20800Y-32194D01*
X-20800D01*
X-20800Y-32250D01*
Y-32275D01*
Y-32300D01*
X-20800Y-32356D01*
X-20800Y-32356D01*
X-20800D01*
Y-32607D01*
X-20989D01*
X-25207Y-28389D01*
Y-22050D01*
X-25228Y-21948D01*
X-25256Y-21905D01*
X-25171Y-21778D01*
X-25025Y-21807D01*
X-24879Y-21778D01*
X-24874Y-21775D01*
X-24643Y-21775D01*
X-24622Y-21877D01*
X-24564Y-21964D01*
X-24193Y-22336D01*
Y-26989D01*
X-24319Y-27116D01*
X-24377Y-27203D01*
X-24398Y-27305D01*
Y-28575D01*
X-24398Y-28575D01*
X-24398D01*
X-24377Y-28677D01*
X-24319Y-28764D01*
X-23991Y-29092D01*
X-24005Y-29159D01*
X-23970Y-29335D01*
X-23870Y-29484D01*
X-23721Y-29583D01*
X-23546Y-29618D01*
X-23370Y-29583D01*
X-23221Y-29484D01*
X-23122Y-29335D01*
X-23087Y-29159D01*
X-23122Y-28984D01*
X-23221Y-28835D01*
X-23370Y-28735D01*
X-23546Y-28700D01*
X-23613Y-28714D01*
X-23862Y-28464D01*
Y-28117D01*
X-23730Y-28046D01*
X-23726Y-28049D01*
X-23550Y-28084D01*
X-23374Y-28049D01*
X-23226Y-27949D01*
X-23126Y-27801D01*
X-23091Y-27625D01*
X-23126Y-27449D01*
X-23226Y-27301D01*
X-23282Y-27263D01*
Y-22011D01*
X-23078Y-21807D01*
X-23075Y-21807D01*
X-22959Y-21784D01*
X-22843Y-21879D01*
Y-25800D01*
X-22843Y-25800D01*
X-22843D01*
X-22822Y-25902D01*
X-22764Y-25989D01*
X-22620Y-26133D01*
X-22634Y-26200D01*
X-22599Y-26376D01*
X-22499Y-26524D01*
X-22351Y-26624D01*
X-22175Y-26659D01*
X-21999Y-26624D01*
X-21851Y-26524D01*
X-21751Y-26376D01*
X-21716Y-26200D01*
X-21751Y-26024D01*
X-21851Y-25876D01*
X-21999Y-25776D01*
X-22175Y-25741D01*
X-22191Y-25744D01*
X-22307Y-25649D01*
Y-25367D01*
X-22169Y-25310D01*
X-21345Y-26133D01*
X-21359Y-26200D01*
X-21324Y-26376D01*
X-21224Y-26524D01*
X-21076Y-26624D01*
X-20900Y-26659D01*
X-20724Y-26624D01*
X-20576Y-26524D01*
X-20476Y-26376D01*
X-20441Y-26200D01*
X-20476Y-26024D01*
X-20576Y-25876D01*
X-20724Y-25776D01*
X-20900Y-25741D01*
X-20967Y-25755D01*
X-21832Y-24889D01*
Y-24567D01*
X-21694Y-24510D01*
X-20070Y-26133D01*
X-20084Y-26200D01*
X-20049Y-26376D01*
X-19949Y-26524D01*
X-19801Y-26624D01*
X-19625Y-26659D01*
X-19449Y-26624D01*
X-19301Y-26524D01*
X-19201Y-26376D01*
X-19166Y-26200D01*
X-19201Y-26024D01*
X-19301Y-25876D01*
X-19449Y-25776D01*
X-19625Y-25741D01*
X-19692Y-25755D01*
X-21407Y-24039D01*
Y-21919D01*
X-21276Y-21849D01*
X-21100Y-21884D01*
X-20959Y-21856D01*
X-20843Y-21951D01*
Y-23975D01*
X-20843Y-23975D01*
X-20843D01*
X-20822Y-24077D01*
X-20764Y-24164D01*
X-18795Y-26133D01*
X-18809Y-26200D01*
X-18774Y-26376D01*
X-18674Y-26524D01*
X-18526Y-26624D01*
X-18350Y-26659D01*
X-18174Y-26624D01*
X-18026Y-26524D01*
X-17926Y-26376D01*
X-17891Y-26200D01*
X-17926Y-26024D01*
X-18026Y-25876D01*
X-18174Y-25776D01*
X-18350Y-25741D01*
X-18417Y-25755D01*
X-20307Y-23864D01*
Y-22897D01*
X-20164Y-22853D01*
X-20099Y-22949D01*
X-19951Y-23049D01*
X-19775Y-23084D01*
X-19599Y-23049D01*
X-19451Y-22949D01*
X-19351Y-22801D01*
X-19316Y-22625D01*
X-19351Y-22449D01*
X-19451Y-22301D01*
X-19507Y-22263D01*
Y-19475D01*
X-19528Y-19373D01*
X-19586Y-19286D01*
X-19740Y-19132D01*
X-19673Y-18997D01*
X-19600Y-19007D01*
X-19391Y-18979D01*
X-19197Y-18899D01*
X-19029Y-18771D01*
X-18901Y-18603D01*
X-18821Y-18409D01*
X-18793Y-18200D01*
X-18803Y-18122D01*
X-18747Y-18099D01*
X-18579Y-17971D01*
X-18451Y-17803D01*
X-18371Y-17609D01*
X-18343Y-17400D01*
X-18353Y-17325D01*
X-14658Y-13630D01*
X-14547Y-13485D01*
X-14522Y-13423D01*
X-14478Y-13318D01*
X-14454Y-13137D01*
Y-10200D01*
X-13150D01*
Y-10100D01*
X-13050D01*
Y-10100D01*
X-12700D01*
Y-9575D01*
X-12600D01*
Y-9475D01*
X-12150D01*
Y-9050D01*
X-12175D01*
Y-8125D01*
D01*
D01*
X-12075Y-8025D01*
X-12075D01*
Y-6975D01*
X-13125D01*
X-13125Y-6975D01*
Y-6975D01*
X-13153Y-6990D01*
X-13174Y-6976D01*
X-13350Y-6941D01*
X-13526Y-6976D01*
X-13575Y-6925D01*
Y-6925D01*
X-13969D01*
Y-6025D01*
X-13925D01*
Y-4699D01*
X-13900Y-4678D01*
X-10200D01*
X-10132Y-4665D01*
X-10074Y-4626D01*
X-10035Y-4568D01*
X-10022Y-4500D01*
Y-954D01*
X-10023Y-948D01*
X-10022Y-943D01*
X-10029Y-914D01*
X-10035Y-886D01*
X-10038Y-881D01*
X-10040Y-875D01*
X-10001Y-730D01*
X-9964Y-715D01*
X-9722Y-529D01*
X-9525D01*
Y-675D01*
X-9525D01*
Y-2225D01*
X-7975D01*
Y-1968D01*
X-7843Y-1897D01*
X-7776Y-1942D01*
X-7600Y-1977D01*
X-7424Y-1942D01*
X-7407Y-1930D01*
X-7275Y-2001D01*
Y-2225D01*
X-5725D01*
Y-675D01*
X-5725D01*
Y-635D01*
X-5619Y-529D01*
X-529D01*
Y-99471D01*
D02*
G37*
G36*
X-29893Y-65886D02*
Y-77913D01*
X-29949Y-77951D01*
X-30049Y-78099D01*
X-30084Y-78275D01*
X-30049Y-78451D01*
X-29949Y-78599D01*
X-29893Y-78637D01*
Y-90913D01*
X-29949Y-90951D01*
X-30049Y-91099D01*
X-30084Y-91275D01*
X-30049Y-91451D01*
X-29949Y-91599D01*
X-29801Y-91699D01*
X-29625Y-91734D01*
X-29449Y-91699D01*
X-29301Y-91599D01*
X-29201Y-91451D01*
X-29166Y-91275D01*
X-29201Y-91099D01*
X-29202Y-91098D01*
X-29125Y-90971D01*
X-29125D01*
Y-90971D01*
D01*
D01*
X-28949Y-90936D01*
X-28801Y-90837D01*
X-28701Y-90688D01*
X-28666Y-90512D01*
X-28701Y-90337D01*
X-28801Y-90188D01*
X-28857Y-90150D01*
Y-79896D01*
X-28796Y-79854D01*
X-28696Y-79706D01*
X-28661Y-79530D01*
X-28696Y-79354D01*
X-28796Y-79206D01*
X-28857Y-79164D01*
Y-69796D01*
X-28741Y-69701D01*
X-28575Y-69734D01*
X-28399Y-69699D01*
X-28251Y-69599D01*
X-28151Y-69451D01*
X-28116Y-69275D01*
X-28141Y-69148D01*
X-28035Y-69042D01*
X-27950Y-69059D01*
X-27774Y-69024D01*
X-27750Y-69008D01*
X-27618Y-69078D01*
Y-74088D01*
X-27674Y-74126D01*
X-27774Y-74274D01*
X-27809Y-74450D01*
X-27774Y-74626D01*
X-27674Y-74774D01*
X-27526Y-74874D01*
X-27350Y-74909D01*
X-27174Y-74874D01*
X-27026Y-74774D01*
X-26926Y-74626D01*
X-26891Y-74450D01*
X-26926Y-74274D01*
X-27026Y-74126D01*
X-27082Y-74088D01*
Y-73687D01*
X-26950Y-73616D01*
X-26901Y-73649D01*
X-26725Y-73684D01*
X-26574Y-73654D01*
X-26458Y-73749D01*
Y-92031D01*
X-26707Y-92135D01*
X-26921Y-92299D01*
X-27015Y-92422D01*
X-27157Y-92374D01*
Y-84912D01*
X-27101Y-84874D01*
X-27001Y-84726D01*
X-26966Y-84550D01*
X-27001Y-84374D01*
X-27101Y-84226D01*
X-27249Y-84126D01*
X-27425Y-84091D01*
X-27437Y-84094D01*
X-27544Y-83988D01*
X-27516Y-83850D01*
X-27551Y-83674D01*
X-27651Y-83526D01*
X-27799Y-83426D01*
X-27975Y-83391D01*
X-28151Y-83426D01*
X-28299Y-83526D01*
X-28399Y-83674D01*
X-28434Y-83850D01*
X-28399Y-84026D01*
X-28299Y-84174D01*
X-28243Y-84212D01*
Y-91987D01*
X-28367Y-92071D01*
X-28462Y-92031D01*
X-28730Y-91996D01*
X-28998Y-92031D01*
X-29247Y-92135D01*
X-29461Y-92299D01*
X-29614Y-92498D01*
X-29760Y-92464D01*
X-29778Y-92373D01*
X-29836Y-92286D01*
X-30407Y-91714D01*
Y-76087D01*
X-30351Y-76049D01*
X-30251Y-75901D01*
X-30216Y-75725D01*
X-30251Y-75549D01*
X-30351Y-75401D01*
X-30407Y-75363D01*
Y-71050D01*
X-30428Y-70948D01*
X-30486Y-70861D01*
X-33607Y-67739D01*
Y-67343D01*
X-33603Y-67340D01*
X-33469Y-67285D01*
X-32945Y-67808D01*
X-32959Y-67875D01*
X-32924Y-68051D01*
X-32824Y-68199D01*
X-32676Y-68299D01*
X-32500Y-68334D01*
X-32324Y-68299D01*
X-32176Y-68199D01*
X-32076Y-68051D01*
X-32041Y-67875D01*
X-32076Y-67699D01*
X-32176Y-67551D01*
X-32220Y-67521D01*
Y-67371D01*
X-32151Y-67324D01*
X-32051Y-67176D01*
X-32016Y-67000D01*
X-32040Y-66880D01*
X-31957Y-66755D01*
X-31924Y-66749D01*
X-31776Y-66649D01*
X-31676Y-66501D01*
X-31641Y-66325D01*
X-31668Y-66191D01*
X-31582Y-66087D01*
X-31565Y-66075D01*
X-31100D01*
Y-65575D01*
X-30900D01*
Y-66075D01*
X-30350D01*
Y-65624D01*
X-30211Y-65567D01*
X-29893Y-65886D01*
D02*
G37*
G36*
X-26638Y-20331D02*
X-26595Y-20395D01*
X-26593Y-20397D01*
Y-21800D01*
X-26572Y-21902D01*
X-26514Y-21989D01*
X-26143Y-22361D01*
Y-25072D01*
X-26275Y-25143D01*
X-26374Y-25076D01*
X-26550Y-25041D01*
X-26726Y-25076D01*
X-26874Y-25176D01*
X-26974Y-25324D01*
X-27009Y-25500D01*
X-26974Y-25676D01*
X-26874Y-25824D01*
X-26726Y-25924D01*
X-26550Y-25959D01*
X-26374Y-25924D01*
X-26275Y-25857D01*
X-26143Y-25928D01*
Y-28600D01*
X-26143Y-28600D01*
X-26143D01*
X-26122Y-28702D01*
X-26064Y-28789D01*
X-20800Y-34054D01*
Y-34694D01*
X-20800Y-34694D01*
X-20800D01*
X-20800Y-34750D01*
Y-34775D01*
Y-34800D01*
X-20800Y-34856D01*
X-20800Y-34856D01*
X-20800D01*
Y-35950D01*
X-20708D01*
X-20665Y-36015D01*
X-20629Y-36082D01*
X-20724Y-36224D01*
X-20759Y-36400D01*
X-20724Y-36576D01*
X-20624Y-36724D01*
X-20476Y-36824D01*
X-20300Y-36859D01*
X-20124Y-36824D01*
X-19976Y-36724D01*
X-19876Y-36576D01*
X-19841Y-36400D01*
X-19876Y-36224D01*
X-19971Y-36082D01*
X-19935Y-36015D01*
X-19892Y-35950D01*
X-19800D01*
Y-34856D01*
X-19800Y-34856D01*
D01*
D01*
X-19800Y-34800D01*
Y-34794D01*
Y-34775D01*
X-19800Y-34750D01*
X-19800Y-34694D01*
X-19800Y-34694D01*
X-19800D01*
Y-34443D01*
X-15336D01*
X-8159Y-41619D01*
X-8072Y-41677D01*
X-7970Y-41698D01*
X-7969D01*
X-7865Y-41947D01*
X-7701Y-42161D01*
X-7487Y-42325D01*
X-7296Y-42404D01*
X-7316Y-42553D01*
X-7349Y-42557D01*
X-7701Y-42703D01*
X-8004Y-42936D01*
X-8237Y-43239D01*
X-8383Y-43591D01*
X-8433Y-43970D01*
X-8383Y-44349D01*
X-8237Y-44701D01*
X-8004Y-45004D01*
X-7795Y-45165D01*
Y-45315D01*
X-8004Y-45476D01*
X-8237Y-45779D01*
X-8383Y-46131D01*
X-8433Y-46510D01*
X-8383Y-46889D01*
X-8237Y-47241D01*
X-8004Y-47544D01*
X-7795Y-47705D01*
Y-47855D01*
X-8004Y-48016D01*
X-8237Y-48319D01*
X-8383Y-48671D01*
X-8433Y-49050D01*
X-8383Y-49429D01*
X-8237Y-49781D01*
X-8004Y-50084D01*
X-7701Y-50317D01*
X-7351Y-50461D01*
Y-50485D01*
X-7369Y-50619D01*
X-7500Y-50673D01*
X-7719Y-50841D01*
X-7887Y-51060D01*
X-7993Y-51316D01*
X-8016Y-51490D01*
X-5924D01*
X-5947Y-51316D01*
X-6053Y-51060D01*
X-6221Y-50841D01*
X-6440Y-50673D01*
X-6571Y-50619D01*
X-6589Y-50485D01*
Y-50461D01*
X-6239Y-50317D01*
X-5936Y-50084D01*
X-5775Y-49875D01*
X-5625D01*
X-5464Y-50084D01*
X-5161Y-50317D01*
X-4809Y-50463D01*
X-4776Y-50467D01*
X-4756Y-50616D01*
X-4947Y-50695D01*
X-5161Y-50859D01*
X-5325Y-51073D01*
X-5429Y-51322D01*
X-5464Y-51590D01*
X-5429Y-51858D01*
X-5325Y-52107D01*
X-5161Y-52321D01*
X-4947Y-52485D01*
X-4698Y-52589D01*
X-4430Y-52624D01*
X-4162Y-52589D01*
X-3913Y-52485D01*
X-3699Y-52321D01*
X-3535Y-52107D01*
X-3431Y-51858D01*
X-3396Y-51590D01*
X-3431Y-51322D01*
X-3535Y-51073D01*
X-3699Y-50859D01*
X-3913Y-50695D01*
X-4104Y-50616D01*
X-4084Y-50467D01*
X-4051Y-50463D01*
X-3699Y-50317D01*
X-3396Y-50084D01*
X-3163Y-49781D01*
X-3158Y-49768D01*
X-3011Y-49797D01*
Y-74591D01*
X-3367Y-74947D01*
X-3492Y-74863D01*
X-3431Y-74718D01*
X-3396Y-74450D01*
X-3431Y-74182D01*
X-3535Y-73933D01*
X-3699Y-73719D01*
X-3913Y-73555D01*
X-4162Y-73451D01*
X-4430Y-73416D01*
X-4698Y-73451D01*
X-4947Y-73555D01*
X-5161Y-73719D01*
X-5325Y-73933D01*
X-5429Y-74182D01*
X-5464Y-74450D01*
X-5429Y-74718D01*
X-5325Y-74967D01*
X-5161Y-75181D01*
X-5019Y-75290D01*
X-5067Y-75432D01*
X-5680D01*
X-5782Y-75453D01*
X-5869Y-75511D01*
X-6453Y-76095D01*
X-6702Y-75991D01*
X-6970Y-75956D01*
X-7238Y-75991D01*
X-7487Y-76095D01*
X-7701Y-76259D01*
X-7865Y-76473D01*
X-7969Y-76722D01*
X-8004Y-76990D01*
X-7969Y-77258D01*
X-7865Y-77507D01*
X-7701Y-77721D01*
X-7513Y-77865D01*
X-7561Y-78007D01*
X-11327D01*
X-16730Y-72604D01*
X-16659Y-72472D01*
X-16600Y-72484D01*
X-16424Y-72449D01*
X-16276Y-72349D01*
X-16176Y-72201D01*
X-16141Y-72025D01*
X-16176Y-71849D01*
X-16276Y-71701D01*
X-16332Y-71663D01*
Y-63080D01*
X-16353Y-62977D01*
X-16411Y-62891D01*
X-21145Y-58156D01*
X-21088Y-58018D01*
X-18504D01*
X-18502Y-58017D01*
X-18501Y-58018D01*
X-15386D01*
X-14970Y-58433D01*
X-14984Y-58500D01*
X-14949Y-58676D01*
X-14849Y-58824D01*
X-14793Y-58862D01*
Y-63275D01*
X-14793Y-63275D01*
X-14793D01*
X-14772Y-63378D01*
X-14714Y-63464D01*
X-9428Y-68750D01*
X-9342Y-68808D01*
X-9239Y-68829D01*
X-7990D01*
X-7907Y-68953D01*
X-7969Y-69102D01*
X-8004Y-69370D01*
X-7969Y-69638D01*
X-7865Y-69887D01*
X-7701Y-70101D01*
X-7487Y-70265D01*
X-7238Y-70369D01*
X-6970Y-70404D01*
X-6702Y-70369D01*
X-6453Y-70265D01*
X-6239Y-70101D01*
X-6075Y-69887D01*
X-5971Y-69638D01*
X-5936Y-69370D01*
X-5971Y-69102D01*
X-6075Y-68853D01*
X-6239Y-68639D01*
X-6342Y-68560D01*
X-6294Y-68418D01*
X-5761D01*
X-5325Y-68853D01*
X-5429Y-69102D01*
X-5464Y-69370D01*
X-5429Y-69638D01*
X-5325Y-69887D01*
X-5161Y-70101D01*
X-4947Y-70265D01*
X-4698Y-70369D01*
X-4430Y-70404D01*
X-4162Y-70369D01*
X-3913Y-70265D01*
X-3699Y-70101D01*
X-3535Y-69887D01*
X-3431Y-69638D01*
X-3396Y-69370D01*
X-3431Y-69102D01*
X-3535Y-68853D01*
X-3699Y-68639D01*
X-3913Y-68475D01*
X-4162Y-68371D01*
X-4430Y-68336D01*
X-4698Y-68371D01*
X-4947Y-68475D01*
X-5461Y-67961D01*
X-5548Y-67903D01*
X-5650Y-67882D01*
X-6448D01*
X-6477Y-67735D01*
X-6453Y-67725D01*
X-6239Y-67561D01*
X-6075Y-67347D01*
X-5971Y-67098D01*
X-5936Y-66830D01*
X-5971Y-66562D01*
X-6075Y-66313D01*
X-6239Y-66099D01*
X-6453Y-65935D01*
X-6702Y-65831D01*
X-6970Y-65796D01*
X-7238Y-65831D01*
X-7487Y-65935D01*
X-7701Y-66099D01*
X-7865Y-66313D01*
X-7969Y-66562D01*
X-8004Y-66830D01*
X-7969Y-67098D01*
X-7865Y-67347D01*
X-7701Y-67561D01*
X-7487Y-67725D01*
X-7463Y-67735D01*
X-7492Y-67882D01*
X-8964D01*
X-13702Y-63144D01*
Y-57680D01*
X-13723Y-57578D01*
X-13781Y-57491D01*
X-13946Y-57325D01*
Y-57175D01*
X-13755Y-56984D01*
X-13697Y-56897D01*
X-13677Y-56795D01*
Y-45380D01*
X-13697Y-45278D01*
X-13755Y-45191D01*
X-17905Y-41042D01*
X-17891Y-40975D01*
X-17926Y-40799D01*
X-18026Y-40651D01*
X-18174Y-40551D01*
X-18350Y-40516D01*
X-18526Y-40551D01*
X-18674Y-40651D01*
X-18774Y-40799D01*
X-18809Y-40975D01*
X-18805Y-40994D01*
X-18888Y-41119D01*
X-19051Y-41151D01*
X-19199Y-41251D01*
X-19299Y-41399D01*
X-19334Y-41575D01*
X-19299Y-41751D01*
X-19199Y-41899D01*
X-19051Y-41999D01*
X-18875Y-42034D01*
X-18808Y-42020D01*
X-14793Y-46036D01*
Y-55613D01*
X-14849Y-55651D01*
X-14949Y-55799D01*
X-14984Y-55975D01*
X-14949Y-56151D01*
X-14849Y-56299D01*
X-14701Y-56399D01*
X-14525Y-56434D01*
X-14349Y-56399D01*
X-14345Y-56396D01*
X-14212Y-56466D01*
Y-56684D01*
X-14511Y-56982D01*
X-17783D01*
X-17840Y-56844D01*
X-16857Y-55861D01*
X-16799Y-55774D01*
X-16779Y-55671D01*
X-16779Y-55671D01*
X-16779Y-55671D01*
Y-55671D01*
Y-46054D01*
X-16799Y-45951D01*
X-16857Y-45864D01*
X-26032Y-36689D01*
Y-29912D01*
X-25976Y-29874D01*
X-25876Y-29726D01*
X-25841Y-29550D01*
X-25876Y-29374D01*
X-25976Y-29226D01*
X-26032Y-29188D01*
Y-29174D01*
X-26053Y-29071D01*
X-26111Y-28984D01*
X-27907Y-27188D01*
Y-26653D01*
X-27775Y-26583D01*
X-27751Y-26599D01*
X-27575Y-26634D01*
X-27399Y-26599D01*
X-27251Y-26499D01*
X-27151Y-26351D01*
X-27116Y-26175D01*
X-27151Y-25999D01*
X-27251Y-25851D01*
X-27307Y-25813D01*
Y-20836D01*
X-26788Y-20316D01*
X-26638Y-20331D01*
D02*
G37*
G36*
X-27018Y-56092D02*
Y-61300D01*
X-27018Y-61300D01*
X-27018D01*
X-26997Y-61402D01*
X-26939Y-61489D01*
X-25430Y-62999D01*
X-25500Y-63131D01*
X-25575Y-63116D01*
X-25751Y-63151D01*
X-25786Y-63175D01*
X-25919Y-63104D01*
Y-62900D01*
X-25944Y-62773D01*
X-26016Y-62666D01*
X-26123Y-62594D01*
X-26250Y-62569D01*
X-26377Y-62594D01*
X-26484Y-62666D01*
X-26516D01*
X-26623Y-62594D01*
X-26750Y-62569D01*
X-26877Y-62594D01*
X-26984Y-62666D01*
X-27016D01*
X-27123Y-62594D01*
X-27250Y-62569D01*
X-27377Y-62594D01*
X-27484Y-62666D01*
X-27516D01*
X-27623Y-62594D01*
X-27750Y-62569D01*
X-27877Y-62594D01*
X-27984Y-62666D01*
X-28016D01*
X-28123Y-62594D01*
X-28250Y-62569D01*
X-28377Y-62594D01*
X-28484Y-62666D01*
X-28516D01*
X-28623Y-62594D01*
X-28750Y-62569D01*
X-28877Y-62594D01*
X-28984Y-62666D01*
X-29016D01*
X-29123Y-62594D01*
X-29250Y-62569D01*
X-29377Y-62594D01*
X-29484Y-62666D01*
X-29516D01*
X-29623Y-62594D01*
X-29750Y-62569D01*
X-29877Y-62594D01*
X-29984Y-62666D01*
X-30016D01*
X-30123Y-62594D01*
X-30250Y-62569D01*
X-30377Y-62594D01*
X-30484Y-62666D01*
X-30516D01*
X-30623Y-62594D01*
X-30750Y-62569D01*
X-30877Y-62594D01*
X-30984Y-62666D01*
X-30998Y-62648D01*
X-30998Y-62648D01*
X-31113Y-62570D01*
X-31150Y-62563D01*
Y-63575D01*
X-31350D01*
Y-62563D01*
X-31387Y-62570D01*
X-31502Y-62648D01*
X-31502Y-62648D01*
X-31502Y-62648D01*
X-31502D01*
X-31516Y-62666D01*
D01*
X-31623Y-62594D01*
X-31750Y-62569D01*
X-31877Y-62594D01*
X-31984Y-62666D01*
X-32016D01*
X-32123Y-62594D01*
X-32250Y-62569D01*
X-32377Y-62594D01*
X-32484Y-62666D01*
X-32516D01*
X-32623Y-62594D01*
X-32750Y-62569D01*
X-32877Y-62594D01*
X-32984Y-62666D01*
X-33016D01*
X-33123Y-62594D01*
X-33250Y-62569D01*
X-33377Y-62594D01*
X-33449Y-62642D01*
X-33585Y-62578D01*
X-33595Y-62473D01*
X-27156Y-56035D01*
X-27018Y-56092D01*
D02*
G37*
G36*
X-43481Y-8387D02*
Y-13425D01*
X-43481Y-13425D01*
X-43481D01*
X-43456Y-13552D01*
X-43384Y-13659D01*
X-40859Y-16184D01*
X-40859D01*
X-40859Y-16184D01*
X-40859D01*
X-40859Y-16184D01*
Y-16184D01*
X-40859Y-16184D01*
Y-16184D01*
X-40752Y-16256D01*
X-40625Y-16281D01*
X-31750D01*
X-31623Y-16256D01*
X-31516Y-16184D01*
X-27113Y-11781D01*
X-23489D01*
X-23351Y-11874D01*
X-23175Y-11909D01*
X-22999Y-11874D01*
X-22851Y-11774D01*
X-22751Y-11626D01*
X-22716Y-11450D01*
X-22751Y-11274D01*
X-22779Y-11232D01*
X-22709Y-11100D01*
X-22625D01*
Y-10943D01*
X-22286D01*
Y-11150D01*
X-22068D01*
Y-13839D01*
X-23236Y-15007D01*
X-25600D01*
X-25702Y-15028D01*
X-25789Y-15086D01*
X-30552Y-19848D01*
X-30610Y-19935D01*
X-30630Y-20038D01*
Y-25487D01*
X-30610Y-25590D01*
X-30596Y-25610D01*
X-30679Y-25735D01*
X-30775Y-25716D01*
X-30951Y-25751D01*
X-31099Y-25851D01*
X-31199Y-25999D01*
X-31234Y-26175D01*
X-31199Y-26351D01*
X-31099Y-26499D01*
X-30951Y-26599D01*
X-30775Y-26634D01*
X-30599Y-26599D01*
X-30451Y-26499D01*
X-30351Y-26351D01*
X-30316Y-26175D01*
X-30331Y-26100D01*
X-30199Y-26030D01*
X-29168Y-27061D01*
Y-27538D01*
X-29224Y-27576D01*
X-29324Y-27724D01*
X-29359Y-27900D01*
X-29324Y-28076D01*
X-29224Y-28224D01*
X-29180Y-28254D01*
Y-37100D01*
X-29180Y-37100D01*
X-29180D01*
X-29159Y-37207D01*
X-29098Y-37298D01*
X-23448Y-42948D01*
X-23459Y-43000D01*
X-23424Y-43176D01*
X-23324Y-43324D01*
X-23176Y-43424D01*
X-23000Y-43459D01*
X-22824Y-43424D01*
X-22676Y-43324D01*
X-22576Y-43176D01*
X-22541Y-43000D01*
X-22576Y-42824D01*
X-22676Y-42676D01*
X-22824Y-42576D01*
X-23000Y-42541D01*
X-23052Y-42552D01*
X-28620Y-36984D01*
Y-28254D01*
X-28576Y-28224D01*
X-28476Y-28076D01*
X-28441Y-27900D01*
X-28476Y-27724D01*
X-28576Y-27576D01*
X-28632Y-27538D01*
Y-26950D01*
X-28653Y-26848D01*
X-28711Y-26761D01*
X-29479Y-25993D01*
X-29384Y-25877D01*
D01*
X-29384Y-25877D01*
X-29276Y-25949D01*
X-29100Y-25984D01*
X-28924Y-25949D01*
X-28776Y-25849D01*
X-28676Y-25701D01*
X-28641Y-25525D01*
X-28676Y-25349D01*
X-28776Y-25201D01*
X-28924Y-25101D01*
X-29100Y-25066D01*
X-29276Y-25101D01*
X-29424Y-25201D01*
X-29524Y-25349D01*
X-29559Y-25525D01*
X-29524Y-25701D01*
X-29452Y-25809D01*
X-29568Y-25904D01*
X-30095Y-25377D01*
Y-20778D01*
X-29979Y-20683D01*
X-29850Y-20709D01*
X-29674Y-20674D01*
X-29650Y-20658D01*
X-29518Y-20728D01*
Y-21688D01*
X-29574Y-21726D01*
X-29674Y-21874D01*
X-29709Y-22050D01*
X-29674Y-22226D01*
X-29574Y-22374D01*
X-29426Y-22474D01*
X-29250Y-22509D01*
X-29074Y-22474D01*
X-28926Y-22374D01*
X-28826Y-22226D01*
X-28791Y-22050D01*
X-28826Y-21874D01*
X-28926Y-21726D01*
X-28982Y-21688D01*
Y-19636D01*
X-25264Y-15918D01*
X-21775D01*
X-21673Y-15897D01*
X-21586Y-15839D01*
X-21267Y-15520D01*
X-21200Y-15534D01*
X-21024Y-15499D01*
X-20876Y-15399D01*
X-20776Y-15251D01*
X-20741Y-15075D01*
X-20776Y-14899D01*
X-20876Y-14751D01*
X-21024Y-14651D01*
X-21200Y-14616D01*
X-21376Y-14651D01*
X-21524Y-14751D01*
X-21624Y-14899D01*
X-21659Y-15075D01*
X-21645Y-15142D01*
X-21886Y-15382D01*
X-22658D01*
X-22715Y-15244D01*
X-21611Y-14139D01*
X-21553Y-14052D01*
X-21532Y-13950D01*
Y-11150D01*
X-21336D01*
Y-11150D01*
X-21336D01*
X-21336Y-11150D01*
X-21286D01*
Y-11150D01*
X-21078D01*
Y-11498D01*
X-21058Y-11601D01*
X-21000Y-11687D01*
X-20493Y-12195D01*
Y-19025D01*
X-20493Y-19025D01*
X-20493D01*
X-20472Y-19127D01*
X-20414Y-19214D01*
X-20043Y-19586D01*
Y-22263D01*
X-20099Y-22301D01*
X-20164Y-22397D01*
X-20307Y-22353D01*
Y-19675D01*
X-20328Y-19573D01*
X-20386Y-19486D01*
X-23243Y-16628D01*
X-23243Y-16625D01*
X-23272Y-16479D01*
X-23355Y-16355D01*
X-23479Y-16272D01*
X-23625Y-16243D01*
X-23771Y-16272D01*
X-23895Y-16355D01*
X-23978Y-16479D01*
X-24007Y-16625D01*
X-23978Y-16771D01*
X-23895Y-16895D01*
Y-16980D01*
X-23978Y-17104D01*
X-24007Y-17250D01*
X-23978Y-17396D01*
X-23895Y-17520D01*
X-23771Y-17603D01*
X-23625Y-17632D01*
X-23622Y-17632D01*
X-21943Y-19311D01*
Y-20033D01*
X-22081Y-20090D01*
X-23343Y-18828D01*
X-23343Y-18825D01*
X-23372Y-18679D01*
X-23455Y-18555D01*
X-23579Y-18472D01*
X-23725Y-18443D01*
X-23871Y-18472D01*
X-23995Y-18555D01*
X-24078Y-18679D01*
X-24107Y-18825D01*
X-24078Y-18971D01*
X-24009Y-19075D01*
X-24080Y-19207D01*
X-24753D01*
X-24755Y-19205D01*
X-24879Y-19122D01*
X-25025Y-19093D01*
X-25171Y-19122D01*
X-25295Y-19205D01*
X-25378Y-19329D01*
X-25407Y-19475D01*
X-25378Y-19621D01*
X-25311Y-19722D01*
X-25351Y-19799D01*
X-25428Y-19839D01*
X-25529Y-19772D01*
X-25675Y-19743D01*
X-25821Y-19772D01*
X-25945Y-19855D01*
X-26055D01*
X-26119Y-19812D01*
X-26134Y-19662D01*
X-25028Y-18557D01*
X-25025Y-18557D01*
X-24879Y-18528D01*
X-24755Y-18445D01*
X-24672Y-18321D01*
X-24643Y-18175D01*
X-24672Y-18029D01*
X-24755Y-17905D01*
X-24879Y-17822D01*
X-25025Y-17793D01*
X-25171Y-17822D01*
X-25295Y-17905D01*
X-25405D01*
X-25529Y-17822D01*
X-25675Y-17793D01*
X-25821Y-17822D01*
X-25945Y-17905D01*
X-26028Y-18029D01*
X-26057Y-18175D01*
X-26057Y-18178D01*
X-28364Y-20486D01*
X-28422Y-20573D01*
X-28443Y-20675D01*
Y-27299D01*
X-28422Y-27401D01*
X-28364Y-27488D01*
X-26625Y-29227D01*
X-26724Y-29374D01*
X-26759Y-29550D01*
X-26724Y-29726D01*
X-26624Y-29874D01*
X-26568Y-29912D01*
Y-30183D01*
X-26706Y-30240D01*
X-27130Y-29817D01*
X-27116Y-29750D01*
X-27151Y-29574D01*
X-27251Y-29426D01*
X-27399Y-29326D01*
X-27575Y-29291D01*
X-27751Y-29326D01*
X-27899Y-29426D01*
X-27999Y-29574D01*
X-28034Y-29750D01*
X-27999Y-29926D01*
X-27899Y-30074D01*
X-27751Y-30174D01*
X-27575Y-30209D01*
X-27508Y-30195D01*
X-27043Y-30661D01*
Y-36975D01*
X-27022Y-37077D01*
X-26964Y-37164D01*
X-17818Y-46311D01*
Y-55439D01*
X-18361Y-55982D01*
X-19990D01*
X-20047Y-55844D01*
X-19328Y-55125D01*
X-19217Y-54980D01*
X-19183Y-54896D01*
X-19148Y-54813D01*
X-19124Y-54632D01*
Y-48943D01*
X-19148Y-48762D01*
X-19188Y-48664D01*
X-19217Y-48595D01*
X-19328Y-48450D01*
X-47154Y-20624D01*
Y-10278D01*
X-45906D01*
X-45906Y-10278D01*
Y-10278D01*
X-45850Y-10278D01*
X-45800Y-10328D01*
Y-10444D01*
X-45800Y-10444D01*
X-45800D01*
X-45800Y-10525D01*
X-45825Y-10550D01*
X-45825Y-10631D01*
X-45825Y-10631D01*
X-45825D01*
Y-11050D01*
X-44775D01*
Y-10631D01*
X-44775Y-10631D01*
X-44775D01*
X-44775Y-10550D01*
X-44800Y-10525D01*
X-44800Y-10444D01*
X-44800Y-10444D01*
X-44800D01*
Y-10270D01*
X-44656Y-10226D01*
X-44624Y-10274D01*
X-44476Y-10374D01*
X-44300Y-10409D01*
X-44124Y-10374D01*
X-43976Y-10274D01*
X-43876Y-10126D01*
X-43841Y-9950D01*
X-43876Y-9774D01*
X-43976Y-9626D01*
X-44124Y-9526D01*
X-44300Y-9491D01*
X-44476Y-9526D01*
X-44624Y-9626D01*
X-44656Y-9674D01*
X-44800Y-9630D01*
Y-9375D01*
D01*
Y-9375D01*
X-44800Y-9375D01*
Y-9250D01*
X-44800D01*
Y-8156D01*
X-44800Y-8156D01*
D01*
D01*
X-44800Y-8100D01*
Y-8094D01*
Y-8075D01*
X-44800Y-8050D01*
X-44800Y-7994D01*
X-44800Y-7994D01*
X-44800D01*
Y-7809D01*
X-44059D01*
X-43481Y-8387D01*
D02*
G37*
G36*
X-28650Y-53437D02*
X-28634Y-53434D01*
X-28518Y-53529D01*
Y-56139D01*
X-30844Y-58465D01*
X-30982Y-58408D01*
Y-53503D01*
X-30866Y-53408D01*
X-30750Y-53431D01*
X-30623Y-53406D01*
X-30516Y-53334D01*
X-30484D01*
X-30377Y-53406D01*
X-30250Y-53431D01*
X-30123Y-53406D01*
X-30016Y-53334D01*
X-29984D01*
X-29877Y-53406D01*
X-29750Y-53431D01*
X-29623Y-53406D01*
X-29516Y-53334D01*
X-29484D01*
X-29377Y-53406D01*
X-29250Y-53431D01*
X-29123Y-53406D01*
X-29016Y-53334D01*
X-29016D01*
X-29002Y-53352D01*
X-29002D01*
X-29002Y-53352D01*
Y-53352D01*
X-28887Y-53430D01*
X-28850Y-53437D01*
Y-52425D01*
X-28650D01*
Y-53437D01*
D02*
G37*
G36*
X-20599Y-911D02*
Y-904D01*
X-10600D01*
Y-911D01*
X-10295Y-870D01*
X-10200Y-954D01*
Y-4500D01*
X-13900D01*
Y-4250D01*
X-14150D01*
Y-3850D01*
X-16400D01*
Y-4250D01*
X-17300D01*
Y-4500D01*
X-17500D01*
Y-6700D01*
X-17650D01*
Y-6525D01*
X-18100D01*
Y-6425D01*
X-18200D01*
Y-5900D01*
X-18900D01*
Y-6400D01*
X-19000D01*
Y-6500D01*
X-19475D01*
Y-6700D01*
X-21000D01*
Y-954D01*
X-20905Y-870D01*
X-20599Y-911D01*
D02*
G37*
G36*
X-36713Y-55660D02*
X-36785Y-55715D01*
X-36905Y-55872D01*
X-36979Y-56050D01*
X-37725D01*
Y-56050D01*
X-37814D01*
X-37869Y-55995D01*
Y-55995D01*
X-38350D01*
Y-56576D01*
Y-57158D01*
X-37869D01*
Y-57158D01*
X-37831D01*
X-37725Y-57264D01*
Y-57350D01*
X-37700D01*
Y-57693D01*
X-37894D01*
Y-57417D01*
X-39006D01*
Y-57693D01*
X-39175D01*
Y-57425D01*
X-40225D01*
Y-57945D01*
X-40371D01*
X-40401Y-57901D01*
X-40549Y-57801D01*
X-40725Y-57766D01*
X-40901Y-57801D01*
X-41049Y-57901D01*
X-41149Y-58049D01*
X-41184Y-58225D01*
X-41149Y-58401D01*
X-41049Y-58549D01*
X-40901Y-58649D01*
X-40725Y-58684D01*
X-40549Y-58649D01*
X-40401Y-58549D01*
X-40371Y-58505D01*
X-39950D01*
X-39843Y-58484D01*
X-39829Y-58475D01*
X-39175D01*
Y-58254D01*
X-39006D01*
Y-58529D01*
X-37894D01*
Y-58254D01*
X-37700D01*
Y-58425D01*
X-37700D01*
X-37661Y-58483D01*
X-37677Y-58522D01*
X-37708Y-58750D01*
X-37677Y-58978D01*
X-37589Y-59191D01*
X-37557Y-59234D01*
X-37614Y-59309D01*
X-37702Y-59522D01*
X-37733Y-59750D01*
X-37702Y-59978D01*
X-37614Y-60191D01*
X-37569Y-60250D01*
X-37614Y-60309D01*
X-37702Y-60522D01*
X-37733Y-60750D01*
X-37702Y-60978D01*
X-37614Y-61191D01*
X-37582Y-61234D01*
X-37639Y-61309D01*
X-37727Y-61522D01*
X-37758Y-61750D01*
X-37727Y-61978D01*
X-37639Y-62191D01*
X-37499Y-62374D01*
X-37316Y-62514D01*
X-37103Y-62602D01*
X-36875Y-62633D01*
X-36647Y-62602D01*
X-36434Y-62514D01*
X-36398Y-62487D01*
X-36250Y-62506D01*
X-35581D01*
X-35524Y-62645D01*
X-36039Y-63161D01*
X-36097Y-63248D01*
X-36118Y-63350D01*
Y-68583D01*
X-36256Y-68640D01*
X-41657Y-63239D01*
Y-56836D01*
X-40339Y-55518D01*
X-36761D01*
X-36713Y-55660D01*
D02*
G37*
%LPC*%
G36*
X-38275Y-51575D02*
X-38675D01*
Y-52125D01*
X-38275D01*
Y-51575D01*
D02*
G37*
G36*
X-46825Y-51775D02*
X-48175D01*
Y-53375D01*
X-46825D01*
Y-51775D01*
D02*
G37*
G36*
X-45275Y-49975D02*
X-46625D01*
Y-51575D01*
X-45275D01*
Y-49975D01*
D02*
G37*
G36*
X-46825D02*
X-48175D01*
Y-51575D01*
X-46825D01*
Y-49975D01*
D02*
G37*
G36*
X-45275Y-51775D02*
X-46625D01*
Y-53375D01*
X-45275D01*
Y-51775D01*
D02*
G37*
G36*
X-38275Y-52625D02*
X-38675D01*
Y-53175D01*
X-38275D01*
Y-52625D01*
D02*
G37*
G36*
X-38875D02*
X-39275D01*
Y-53175D01*
X-38875D01*
Y-52625D01*
D02*
G37*
G36*
X-7070Y-51690D02*
X-8016D01*
X-7993Y-51864D01*
X-7887Y-52120D01*
X-7719Y-52339D01*
X-7500Y-52507D01*
X-7244Y-52613D01*
X-7070Y-52636D01*
Y-51690D01*
D02*
G37*
G36*
X-38875Y-51575D02*
X-39275D01*
Y-52125D01*
X-38875D01*
Y-51575D01*
D02*
G37*
G36*
X-5924Y-51690D02*
X-6870D01*
Y-52636D01*
X-6696Y-52613D01*
X-6440Y-52507D01*
X-6221Y-52339D01*
X-6053Y-52120D01*
X-5947Y-51864D01*
X-5924Y-51690D01*
D02*
G37*
G36*
X-24500Y-13916D02*
X-24676Y-13951D01*
X-24824Y-14051D01*
X-24924Y-14199D01*
X-24959Y-14375D01*
X-24924Y-14551D01*
X-24824Y-14699D01*
X-24676Y-14799D01*
X-24500Y-14834D01*
X-24324Y-14799D01*
X-24176Y-14699D01*
X-24076Y-14551D01*
X-24041Y-14375D01*
X-24076Y-14199D01*
X-24176Y-14051D01*
X-24324Y-13951D01*
X-24500Y-13916D01*
D02*
G37*
G36*
X-4530Y-13590D02*
X-5476D01*
X-5453Y-13764D01*
X-5347Y-14020D01*
X-5179Y-14239D01*
X-4960Y-14407D01*
X-4704Y-14513D01*
X-4530Y-14536D01*
Y-13590D01*
D02*
G37*
G36*
X-4430Y-14996D02*
X-4698Y-15031D01*
X-4947Y-15135D01*
X-5161Y-15299D01*
X-5325Y-15513D01*
X-5429Y-15762D01*
X-5464Y-16030D01*
X-5429Y-16298D01*
X-5325Y-16547D01*
X-5161Y-16761D01*
X-4947Y-16925D01*
X-4698Y-17029D01*
X-4430Y-17064D01*
X-4162Y-17029D01*
X-3913Y-16925D01*
X-3699Y-16761D01*
X-3535Y-16547D01*
X-3431Y-16298D01*
X-3396Y-16030D01*
X-3431Y-15762D01*
X-3535Y-15513D01*
X-3699Y-15299D01*
X-3913Y-15135D01*
X-4162Y-15031D01*
X-4430Y-14996D01*
D02*
G37*
G36*
X-29350Y-15616D02*
X-29526Y-15651D01*
X-29674Y-15751D01*
X-29774Y-15899D01*
X-29809Y-16075D01*
X-29798Y-16127D01*
X-30416Y-16745D01*
X-33071D01*
X-33101Y-16701D01*
X-33249Y-16601D01*
X-33425Y-16566D01*
X-33601Y-16601D01*
X-33749Y-16701D01*
X-33849Y-16849D01*
X-33884Y-17025D01*
X-33849Y-17201D01*
X-33749Y-17349D01*
X-33601Y-17449D01*
X-33425Y-17484D01*
X-33249Y-17449D01*
X-33101Y-17349D01*
X-33071Y-17305D01*
X-30300D01*
X-30193Y-17284D01*
X-30102Y-17223D01*
X-29402Y-16523D01*
X-29350Y-16534D01*
X-29174Y-16499D01*
X-29026Y-16399D01*
X-28926Y-16251D01*
X-28891Y-16075D01*
X-28926Y-15899D01*
X-29026Y-15751D01*
X-29174Y-15651D01*
X-29350Y-15616D01*
D02*
G37*
G36*
X-40245Y-9925D02*
X-42295D01*
Y-11975D01*
X-40245D01*
Y-9925D01*
D02*
G37*
G36*
X-45400Y-11250D02*
X-45825D01*
Y-11750D01*
X-45400D01*
Y-11250D01*
D02*
G37*
G36*
X-3384Y-13590D02*
X-4330D01*
Y-14536D01*
X-4156Y-14513D01*
X-3900Y-14407D01*
X-3681Y-14239D01*
X-3513Y-14020D01*
X-3407Y-13764D01*
X-3384Y-13590D01*
D02*
G37*
G36*
X-2800Y-11791D02*
X-2976Y-11826D01*
X-3124Y-11926D01*
X-3162Y-11982D01*
X-8550D01*
X-8652Y-12003D01*
X-8739Y-12061D01*
X-15714Y-19036D01*
X-15772Y-19123D01*
X-15793Y-19225D01*
Y-23489D01*
X-16958Y-24655D01*
X-17025Y-24641D01*
X-17201Y-24676D01*
X-17349Y-24776D01*
X-17449Y-24924D01*
X-17484Y-25100D01*
X-17449Y-25276D01*
X-17349Y-25424D01*
X-17201Y-25524D01*
X-17025Y-25559D01*
X-16849Y-25524D01*
X-16701Y-25424D01*
X-16601Y-25276D01*
X-16566Y-25100D01*
X-16580Y-25033D01*
X-15336Y-23789D01*
X-15278Y-23702D01*
X-15257Y-23600D01*
Y-19336D01*
X-8439Y-12518D01*
X-7995D01*
Y-14515D01*
X-5945D01*
Y-12518D01*
X-5121D01*
X-5073Y-12660D01*
X-5179Y-12741D01*
X-5347Y-12960D01*
X-5453Y-13216D01*
X-5476Y-13390D01*
X-3384D01*
X-3407Y-13216D01*
X-3513Y-12960D01*
X-3681Y-12741D01*
X-3787Y-12660D01*
X-3739Y-12518D01*
X-3162D01*
X-3124Y-12574D01*
X-2976Y-12674D01*
X-2800Y-12709D01*
X-2624Y-12674D01*
X-2476Y-12574D01*
X-2376Y-12426D01*
X-2341Y-12250D01*
X-2376Y-12074D01*
X-2476Y-11926D01*
X-2624Y-11826D01*
X-2800Y-11791D01*
D02*
G37*
G36*
X-6970Y-14996D02*
X-7238Y-15031D01*
X-7487Y-15135D01*
X-7701Y-15299D01*
X-7865Y-15513D01*
X-7969Y-15762D01*
X-8004Y-16030D01*
X-7969Y-16298D01*
X-7865Y-16547D01*
X-7701Y-16761D01*
X-7487Y-16925D01*
X-7238Y-17029D01*
X-6970Y-17064D01*
X-6702Y-17029D01*
X-6453Y-16925D01*
X-6239Y-16761D01*
X-6075Y-16547D01*
X-5971Y-16298D01*
X-5936Y-16030D01*
X-5971Y-15762D01*
X-6075Y-15513D01*
X-6239Y-15299D01*
X-6453Y-15135D01*
X-6702Y-15031D01*
X-6970Y-14996D01*
D02*
G37*
G36*
X-4330Y-27684D02*
Y-28630D01*
X-3384D01*
X-3407Y-28456D01*
X-3513Y-28200D01*
X-3681Y-27981D01*
X-3900Y-27813D01*
X-4156Y-27707D01*
X-4330Y-27684D01*
D02*
G37*
G36*
X-4900Y-26041D02*
X-5076Y-26076D01*
X-5224Y-26176D01*
X-5324Y-26324D01*
X-5359Y-26500D01*
X-5324Y-26676D01*
X-5224Y-26824D01*
X-5076Y-26924D01*
X-4900Y-26959D01*
X-4724Y-26924D01*
X-4576Y-26824D01*
X-4476Y-26676D01*
X-4441Y-26500D01*
X-4476Y-26324D01*
X-4576Y-26176D01*
X-4724Y-26076D01*
X-4900Y-26041D01*
D02*
G37*
G36*
X-45675Y-35441D02*
X-45851Y-35476D01*
X-45999Y-35576D01*
X-46099Y-35724D01*
X-46134Y-35900D01*
X-46099Y-36076D01*
X-45999Y-36224D01*
X-45943Y-36262D01*
Y-36925D01*
X-46175D01*
Y-38019D01*
X-46175Y-38019D01*
X-46175D01*
X-46175Y-38075D01*
Y-38100D01*
Y-38125D01*
X-46175Y-38181D01*
X-46175Y-38181D01*
X-46175D01*
Y-39275D01*
X-45955D01*
Y-40017D01*
X-46192Y-40115D01*
X-46406Y-40279D01*
X-46570Y-40493D01*
X-46674Y-40742D01*
X-46709Y-41010D01*
X-46674Y-41278D01*
X-46570Y-41527D01*
X-46406Y-41741D01*
X-46192Y-41905D01*
X-45943Y-42009D01*
X-45675Y-42044D01*
X-45407Y-42009D01*
X-45158Y-41905D01*
X-44944Y-41741D01*
X-44780Y-41527D01*
X-44676Y-41278D01*
X-44641Y-41010D01*
X-44676Y-40742D01*
X-44780Y-40493D01*
X-44944Y-40279D01*
X-45158Y-40115D01*
X-45395Y-40017D01*
Y-39275D01*
X-45175D01*
Y-38181D01*
X-45175Y-38181D01*
D01*
D01*
X-45175Y-38125D01*
Y-38119D01*
Y-38100D01*
X-45175Y-38075D01*
X-45175Y-38019D01*
X-45175Y-38019D01*
X-45175D01*
Y-36925D01*
X-45407D01*
Y-36262D01*
X-45351Y-36224D01*
X-45251Y-36076D01*
X-45216Y-35900D01*
X-45251Y-35724D01*
X-45351Y-35576D01*
X-45499Y-35476D01*
X-45675Y-35441D01*
D02*
G37*
G36*
X-4530Y-27684D02*
X-4704Y-27707D01*
X-4960Y-27813D01*
X-5179Y-27981D01*
X-5347Y-28200D01*
X-5453Y-28456D01*
X-5476Y-28630D01*
X-4530D01*
Y-27684D01*
D02*
G37*
G36*
X-31525Y-20966D02*
X-31701Y-21001D01*
X-31849Y-21101D01*
X-31949Y-21249D01*
X-31984Y-21425D01*
X-31949Y-21601D01*
X-31849Y-21749D01*
X-31701Y-21849D01*
X-31525Y-21884D01*
X-31349Y-21849D01*
X-31201Y-21749D01*
X-31101Y-21601D01*
X-31066Y-21425D01*
X-31101Y-21249D01*
X-31201Y-21101D01*
X-31349Y-21001D01*
X-31525Y-20966D01*
D02*
G37*
G36*
X-33900Y-19541D02*
X-34076Y-19576D01*
X-34224Y-19676D01*
X-34324Y-19824D01*
X-34359Y-20000D01*
X-34324Y-20176D01*
X-34224Y-20324D01*
X-34076Y-20424D01*
X-33900Y-20459D01*
X-33724Y-20424D01*
X-33576Y-20324D01*
X-33476Y-20176D01*
X-33441Y-20000D01*
X-33476Y-19824D01*
X-33576Y-19676D01*
X-33724Y-19576D01*
X-33900Y-19541D01*
D02*
G37*
G36*
X-4900Y-24741D02*
X-5076Y-24776D01*
X-5224Y-24876D01*
X-5324Y-25024D01*
X-5359Y-25200D01*
X-5324Y-25376D01*
X-5224Y-25524D01*
X-5076Y-25624D01*
X-4900Y-25659D01*
X-4724Y-25624D01*
X-4576Y-25524D01*
X-4476Y-25376D01*
X-4441Y-25200D01*
X-4476Y-25024D01*
X-4576Y-24876D01*
X-4724Y-24776D01*
X-4900Y-24741D01*
D02*
G37*
G36*
Y-23441D02*
X-5076Y-23476D01*
X-5224Y-23576D01*
X-5324Y-23724D01*
X-5359Y-23900D01*
X-5324Y-24076D01*
X-5224Y-24224D01*
X-5076Y-24324D01*
X-4900Y-24359D01*
X-4724Y-24324D01*
X-4576Y-24224D01*
X-4476Y-24076D01*
X-4441Y-23900D01*
X-4476Y-23724D01*
X-4576Y-23576D01*
X-4724Y-23476D01*
X-4900Y-23441D01*
D02*
G37*
G36*
X-5924Y-87250D02*
X-6870D01*
Y-88196D01*
X-6696Y-88173D01*
X-6440Y-88067D01*
X-6221Y-87899D01*
X-6053Y-87680D01*
X-5947Y-87424D01*
X-5924Y-87250D01*
D02*
G37*
G36*
X-4430Y-86116D02*
X-4698Y-86151D01*
X-4947Y-86255D01*
X-5161Y-86419D01*
X-5325Y-86633D01*
X-5429Y-86882D01*
X-5464Y-87150D01*
X-5429Y-87418D01*
X-5325Y-87667D01*
X-5161Y-87881D01*
X-4947Y-88045D01*
X-4698Y-88149D01*
X-4430Y-88184D01*
X-4162Y-88149D01*
X-3913Y-88045D01*
X-3699Y-87881D01*
X-3535Y-87667D01*
X-3431Y-87418D01*
X-3396Y-87150D01*
X-3431Y-86882D01*
X-3535Y-86633D01*
X-3699Y-86419D01*
X-3913Y-86255D01*
X-4162Y-86151D01*
X-4430Y-86116D01*
D02*
G37*
G36*
X-43665Y-62012D02*
X-43852Y-62049D01*
X-44011Y-62155D01*
X-44117Y-62314D01*
X-44154Y-62501D01*
Y-63923D01*
X-44117Y-64110D01*
X-44011Y-64269D01*
X-43945Y-64313D01*
Y-64535D01*
X-43945Y-64535D01*
X-43945D01*
X-43924Y-64642D01*
X-43863Y-64733D01*
X-43023Y-65573D01*
X-43023Y-65573D01*
X-43023D01*
X-43023Y-65573D01*
X-43023D01*
X-43023Y-65573D01*
Y-65573D01*
Y-65573D01*
D01*
D01*
X-43023D01*
Y-65573D01*
X-42932Y-65634D01*
X-42825Y-65655D01*
X-41091D01*
X-35518Y-71229D01*
Y-72288D01*
X-35574Y-72326D01*
X-35674Y-72474D01*
X-35709Y-72650D01*
X-35674Y-72826D01*
X-35574Y-72974D01*
X-35518Y-73012D01*
Y-92207D01*
X-35652Y-92273D01*
X-35833Y-92135D01*
X-36082Y-92031D01*
Y-72387D01*
X-36026Y-72349D01*
X-35926Y-72201D01*
X-35891Y-72025D01*
X-35926Y-71849D01*
X-36026Y-71701D01*
X-36174Y-71601D01*
X-36350Y-71566D01*
X-36526Y-71601D01*
X-36674Y-71701D01*
X-36774Y-71849D01*
X-36809Y-72025D01*
X-36774Y-72201D01*
X-36674Y-72349D01*
X-36618Y-72387D01*
Y-92031D01*
X-36867Y-92135D01*
X-37081Y-92299D01*
X-37165Y-92409D01*
X-37307Y-92361D01*
Y-71762D01*
X-37251Y-71724D01*
X-37151Y-71576D01*
X-37116Y-71400D01*
X-37151Y-71224D01*
X-37251Y-71076D01*
X-37295Y-71046D01*
Y-69875D01*
X-37295Y-69875D01*
X-37316Y-69768D01*
X-37377Y-69677D01*
X-37377Y-69677D01*
X-41002Y-66052D01*
X-41093Y-65991D01*
X-41200Y-65970D01*
X-43334D01*
X-44655Y-64649D01*
Y-64313D01*
X-44589Y-64269D01*
X-44483Y-64110D01*
X-44446Y-63923D01*
Y-62501D01*
X-44483Y-62314D01*
X-44589Y-62155D01*
X-44748Y-62049D01*
X-44935Y-62012D01*
X-45122Y-62049D01*
X-45281Y-62155D01*
X-45387Y-62314D01*
X-45424Y-62501D01*
Y-63923D01*
X-45387Y-64110D01*
X-45281Y-64269D01*
X-45215Y-64313D01*
Y-64765D01*
X-45215Y-64765D01*
X-45215D01*
X-45194Y-64872D01*
X-45133Y-64963D01*
X-43648Y-66448D01*
D01*
X-43648D01*
Y-66448D01*
D01*
X-43648D01*
Y-66448D01*
X-43648D01*
X-43648Y-66448D01*
Y-66448D01*
X-43648Y-66448D01*
Y-66448D01*
X-43557Y-66509D01*
X-43450Y-66530D01*
X-41316D01*
X-37855Y-69991D01*
Y-71046D01*
X-37899Y-71076D01*
X-37999Y-71224D01*
X-38034Y-71400D01*
X-37999Y-71576D01*
X-37899Y-71724D01*
X-37843Y-71762D01*
Y-92496D01*
X-37990Y-92525D01*
X-37995Y-92513D01*
X-38159Y-92299D01*
X-38373Y-92135D01*
X-38622Y-92031D01*
Y-71162D01*
X-38566Y-71124D01*
X-38466Y-70976D01*
X-38431Y-70800D01*
X-38466Y-70624D01*
X-38566Y-70476D01*
X-38610Y-70446D01*
Y-69785D01*
X-38631Y-69678D01*
X-38692Y-69587D01*
X-41427Y-66852D01*
X-41518Y-66791D01*
X-41625Y-66770D01*
X-45825D01*
X-45932Y-66791D01*
X-46023Y-66852D01*
X-46403Y-67232D01*
X-46464Y-67323D01*
X-46485Y-67430D01*
Y-67699D01*
X-46551Y-67743D01*
X-46657Y-67902D01*
X-46694Y-68089D01*
Y-69511D01*
X-46657Y-69698D01*
X-46551Y-69857D01*
X-46392Y-69963D01*
X-46205Y-70000D01*
X-46018Y-69963D01*
X-45859Y-69857D01*
X-45753Y-69698D01*
X-45716Y-69511D01*
Y-68089D01*
X-45753Y-67902D01*
X-45859Y-67743D01*
X-45925Y-67699D01*
Y-67546D01*
X-45709Y-67330D01*
X-41741D01*
X-39170Y-69901D01*
Y-70446D01*
X-39214Y-70476D01*
X-39314Y-70624D01*
X-39349Y-70800D01*
X-39314Y-70976D01*
X-39214Y-71124D01*
X-39158Y-71162D01*
Y-92031D01*
X-39407Y-92135D01*
X-39621Y-92299D01*
X-39740Y-92454D01*
X-39882Y-92406D01*
Y-72300D01*
X-39903Y-72198D01*
X-39961Y-72111D01*
X-40025Y-72047D01*
Y-71406D01*
X-40025Y-71406D01*
D01*
D01*
X-40025Y-71350D01*
Y-71344D01*
Y-71325D01*
X-40025Y-71300D01*
X-40025Y-71244D01*
X-40025Y-71244D01*
X-40025D01*
Y-70150D01*
X-40257D01*
Y-69987D01*
X-40201Y-69949D01*
X-40101Y-69801D01*
X-40066Y-69625D01*
X-40101Y-69449D01*
X-40201Y-69301D01*
X-40349Y-69201D01*
X-40525Y-69166D01*
X-40701Y-69201D01*
X-40849Y-69301D01*
X-40949Y-69449D01*
X-40984Y-69625D01*
X-40949Y-69801D01*
X-40849Y-69949D01*
X-40793Y-69987D01*
Y-70150D01*
X-41025D01*
Y-70457D01*
X-41175D01*
Y-70150D01*
X-42175D01*
Y-71244D01*
X-42175Y-71244D01*
X-42175D01*
X-42175Y-71300D01*
Y-71325D01*
Y-71350D01*
X-42175Y-71406D01*
X-42175Y-71406D01*
X-42175D01*
Y-72028D01*
X-43516Y-73370D01*
X-47984D01*
X-48320Y-73034D01*
Y-71504D01*
X-48276Y-71474D01*
X-48176Y-71326D01*
X-48146Y-71172D01*
X-48082Y-71138D01*
X-48007Y-71123D01*
X-47975Y-71135D01*
Y-71244D01*
X-47975Y-71244D01*
X-47975D01*
X-47975Y-71300D01*
Y-71325D01*
Y-71350D01*
X-47975Y-71406D01*
X-47975Y-71406D01*
X-47975D01*
Y-72500D01*
X-46975D01*
Y-72205D01*
X-46554D01*
X-46524Y-72249D01*
X-46376Y-72349D01*
X-46200Y-72384D01*
X-46024Y-72349D01*
X-45876Y-72249D01*
X-45846Y-72205D01*
X-45435D01*
Y-72500D01*
X-44435D01*
Y-71406D01*
X-44435Y-71406D01*
D01*
D01*
X-44435Y-71350D01*
Y-71344D01*
Y-71325D01*
X-44435Y-71300D01*
X-44435Y-71244D01*
X-44435Y-71244D01*
X-44435D01*
Y-70150D01*
X-44655D01*
Y-69901D01*
X-44589Y-69857D01*
X-44483Y-69698D01*
X-44446Y-69511D01*
Y-68089D01*
X-44483Y-67902D01*
X-44589Y-67743D01*
X-44748Y-67637D01*
X-44935Y-67600D01*
X-45122Y-67637D01*
X-45281Y-67743D01*
X-45387Y-67902D01*
X-45424Y-68089D01*
Y-69511D01*
X-45387Y-69698D01*
X-45281Y-69857D01*
X-45215Y-69901D01*
Y-70150D01*
X-45435D01*
Y-70445D01*
X-45796D01*
X-45826Y-70401D01*
X-45974Y-70301D01*
X-46150Y-70266D01*
X-46326Y-70301D01*
X-46474Y-70401D01*
X-46574Y-70549D01*
X-46609Y-70725D01*
X-46574Y-70901D01*
X-46474Y-71049D01*
X-46326Y-71149D01*
X-46150Y-71184D01*
X-45974Y-71149D01*
X-45826Y-71049D01*
X-45796Y-71005D01*
X-45435D01*
Y-71244D01*
X-45435Y-71244D01*
X-45435D01*
X-45435Y-71300D01*
Y-71325D01*
Y-71350D01*
X-45435Y-71406D01*
X-45435Y-71406D01*
X-45435D01*
Y-71645D01*
X-45846D01*
X-45876Y-71601D01*
X-46024Y-71501D01*
X-46200Y-71466D01*
X-46376Y-71501D01*
X-46524Y-71601D01*
X-46554Y-71645D01*
X-46975D01*
Y-71406D01*
X-46975Y-71406D01*
D01*
D01*
X-46975Y-71350D01*
Y-71344D01*
Y-71325D01*
X-46975Y-71300D01*
X-46975Y-71244D01*
X-46975Y-71244D01*
X-46975D01*
Y-70150D01*
X-47195D01*
Y-69991D01*
X-46995D01*
Y-67609D01*
X-47955D01*
Y-69991D01*
X-47755D01*
Y-70150D01*
X-47975D01*
Y-70445D01*
X-48175D01*
X-48282Y-70466D01*
X-48373Y-70527D01*
X-48373Y-70527D01*
X-48548Y-70702D01*
X-48600Y-70691D01*
X-48776Y-70726D01*
X-48924Y-70826D01*
X-49024Y-70974D01*
X-49059Y-71150D01*
X-49024Y-71326D01*
X-48924Y-71474D01*
X-48880Y-71504D01*
Y-73150D01*
X-48859Y-73257D01*
X-48798Y-73348D01*
X-48298Y-73848D01*
X-48207Y-73909D01*
X-48100Y-73930D01*
X-43400D01*
X-43293Y-73909D01*
X-43202Y-73848D01*
X-43202Y-73848D01*
X-43202Y-73848D01*
X-41853Y-72500D01*
X-41175D01*
Y-71406D01*
X-41175Y-71406D01*
D01*
D01*
X-41175Y-71350D01*
Y-71344D01*
Y-71325D01*
X-41175Y-71300D01*
X-41175Y-71244D01*
X-41175Y-71244D01*
X-41175D01*
Y-70993D01*
X-41025D01*
Y-71244D01*
X-41025Y-71244D01*
X-41025D01*
X-41025Y-71300D01*
Y-71325D01*
Y-71350D01*
X-41025Y-71406D01*
X-41025Y-71406D01*
X-41025D01*
Y-72500D01*
X-40418D01*
Y-92391D01*
X-40560Y-92439D01*
X-40681Y-92281D01*
X-40900Y-92113D01*
X-41156Y-92007D01*
X-41330Y-91984D01*
Y-93030D01*
Y-94076D01*
X-41156Y-94053D01*
X-40900Y-93947D01*
X-40681Y-93779D01*
X-40560Y-93621D01*
X-40418Y-93669D01*
Y-94972D01*
X-40560Y-95020D01*
X-40699Y-94839D01*
X-40913Y-94675D01*
X-41162Y-94571D01*
X-41430Y-94536D01*
X-41698Y-94571D01*
X-41947Y-94675D01*
X-42161Y-94839D01*
X-42325Y-95053D01*
X-42429Y-95302D01*
X-42464Y-95570D01*
X-42429Y-95838D01*
X-42325Y-96087D01*
X-42161Y-96301D01*
X-41947Y-96465D01*
X-41698Y-96569D01*
X-41430Y-96604D01*
X-41162Y-96569D01*
X-40913Y-96465D01*
X-40699Y-96301D01*
X-40560Y-96120D01*
X-40418Y-96168D01*
Y-96525D01*
X-40418Y-96525D01*
X-40418D01*
X-40397Y-96627D01*
X-40339Y-96714D01*
X-39689Y-97364D01*
X-39602Y-97422D01*
X-39500Y-97443D01*
X-27795D01*
X-27693Y-97422D01*
X-27606Y-97364D01*
X-27606Y-97364D01*
X-27606Y-97364D01*
X-26707Y-96465D01*
X-26458Y-96569D01*
X-26190Y-96604D01*
X-25922Y-96569D01*
X-25673Y-96465D01*
X-25459Y-96301D01*
X-25295Y-96087D01*
X-25191Y-95838D01*
X-25156Y-95570D01*
X-25191Y-95302D01*
X-25295Y-95053D01*
X-25459Y-94839D01*
X-25673Y-94675D01*
X-25922Y-94571D01*
X-26190Y-94536D01*
X-26458Y-94571D01*
X-26707Y-94675D01*
X-26921Y-94839D01*
X-27085Y-95053D01*
X-27189Y-95302D01*
X-27224Y-95570D01*
X-27189Y-95838D01*
X-27085Y-96087D01*
X-27906Y-96907D01*
X-39389D01*
X-39882Y-96414D01*
Y-96194D01*
X-39740Y-96146D01*
X-39621Y-96301D01*
X-39407Y-96465D01*
X-39158Y-96569D01*
X-38890Y-96604D01*
X-38622Y-96569D01*
X-38373Y-96465D01*
X-38159Y-96301D01*
X-37995Y-96087D01*
X-37891Y-95838D01*
X-37856Y-95570D01*
X-37891Y-95302D01*
X-37995Y-95053D01*
X-37386Y-94444D01*
X-37328Y-94357D01*
X-37307Y-94255D01*
Y-93699D01*
X-37165Y-93651D01*
X-37081Y-93761D01*
X-36867Y-93925D01*
X-36618Y-94029D01*
X-36350Y-94064D01*
X-36082Y-94029D01*
X-35833Y-93925D01*
X-35652Y-93787D01*
X-35518Y-93853D01*
Y-94359D01*
X-35833Y-94675D01*
X-36082Y-94571D01*
X-36350Y-94536D01*
X-36618Y-94571D01*
X-36867Y-94675D01*
X-37081Y-94839D01*
X-37245Y-95053D01*
X-37349Y-95302D01*
X-37384Y-95570D01*
X-37349Y-95838D01*
X-37245Y-96087D01*
X-37081Y-96301D01*
X-36867Y-96465D01*
X-36618Y-96569D01*
X-36350Y-96604D01*
X-36082Y-96569D01*
X-35833Y-96465D01*
X-35619Y-96301D01*
X-35455Y-96087D01*
X-35351Y-95838D01*
X-35316Y-95570D01*
X-35351Y-95302D01*
X-35455Y-95053D01*
X-35061Y-94659D01*
X-35003Y-94572D01*
X-34982Y-94470D01*
X-34982Y-94470D01*
X-34982Y-94470D01*
Y-94470D01*
Y-93125D01*
X-34833Y-93115D01*
X-34809Y-93298D01*
X-34705Y-93547D01*
X-34541Y-93761D01*
X-34327Y-93925D01*
X-34078Y-94029D01*
X-33810Y-94064D01*
X-33542Y-94029D01*
X-33293Y-93925D01*
X-33079Y-93761D01*
X-32915Y-93547D01*
X-32811Y-93298D01*
X-32776Y-93030D01*
X-32811Y-92762D01*
X-32915Y-92513D01*
X-33079Y-92299D01*
X-33293Y-92135D01*
X-33542Y-92031D01*
X-33810Y-91996D01*
X-34078Y-92031D01*
X-34327Y-92135D01*
X-34541Y-92299D01*
X-34705Y-92513D01*
X-34809Y-92762D01*
X-34833Y-92945D01*
X-34982Y-92935D01*
Y-73012D01*
X-34926Y-72974D01*
X-34826Y-72826D01*
X-34791Y-72650D01*
X-34826Y-72474D01*
X-34926Y-72326D01*
X-34982Y-72288D01*
Y-71164D01*
X-34970Y-71100D01*
X-34991Y-70993D01*
X-35052Y-70902D01*
X-40777Y-65177D01*
X-40868Y-65116D01*
X-40975Y-65095D01*
X-42709D01*
X-43365Y-64439D01*
X-43350Y-64290D01*
X-43319Y-64269D01*
X-43213Y-64110D01*
X-43176Y-63923D01*
Y-62501D01*
X-43213Y-62314D01*
X-43319Y-62155D01*
X-43478Y-62049D01*
X-43665Y-62012D01*
D02*
G37*
G36*
X-7070Y-87250D02*
X-8016D01*
X-7993Y-87424D01*
X-7887Y-87680D01*
X-7719Y-87899D01*
X-7500Y-88067D01*
X-7244Y-88173D01*
X-7070Y-88196D01*
Y-87250D01*
D02*
G37*
G36*
X-6970Y-73416D02*
X-7238Y-73451D01*
X-7487Y-73555D01*
X-7701Y-73719D01*
X-7865Y-73933D01*
X-7969Y-74182D01*
X-8004Y-74450D01*
X-7969Y-74718D01*
X-7865Y-74967D01*
X-7701Y-75181D01*
X-7487Y-75345D01*
X-7238Y-75449D01*
X-6970Y-75484D01*
X-6702Y-75449D01*
X-6453Y-75345D01*
X-6239Y-75181D01*
X-6075Y-74967D01*
X-5971Y-74718D01*
X-5936Y-74450D01*
X-5971Y-74182D01*
X-6075Y-73933D01*
X-6239Y-73719D01*
X-6453Y-73555D01*
X-6702Y-73451D01*
X-6970Y-73416D01*
D02*
G37*
G36*
Y-70876D02*
X-7238Y-70911D01*
X-7487Y-71015D01*
X-7701Y-71179D01*
X-7865Y-71393D01*
X-7969Y-71642D01*
X-8004Y-71910D01*
X-7969Y-72178D01*
X-7865Y-72427D01*
X-7701Y-72641D01*
X-7487Y-72805D01*
X-7238Y-72909D01*
X-6970Y-72944D01*
X-6702Y-72909D01*
X-6453Y-72805D01*
X-6239Y-72641D01*
X-6075Y-72427D01*
X-5971Y-72178D01*
X-5936Y-71910D01*
X-5971Y-71642D01*
X-6075Y-71393D01*
X-6239Y-71179D01*
X-6453Y-71015D01*
X-6702Y-70911D01*
X-6970Y-70876D01*
D02*
G37*
G36*
X-7070Y-86104D02*
X-7244Y-86127D01*
X-7500Y-86233D01*
X-7719Y-86401D01*
X-7887Y-86620D01*
X-7993Y-86876D01*
X-8016Y-87050D01*
X-7070D01*
Y-86104D01*
D02*
G37*
G36*
X-6870D02*
Y-87050D01*
X-5924D01*
X-5947Y-86876D01*
X-6053Y-86620D01*
X-6221Y-86401D01*
X-6440Y-86233D01*
X-6696Y-86127D01*
X-6870Y-86104D01*
D02*
G37*
G36*
X-41530Y-91984D02*
X-41704Y-92007D01*
X-41960Y-92113D01*
X-42179Y-92281D01*
X-42347Y-92500D01*
X-42453Y-92756D01*
X-42476Y-92930D01*
X-41530D01*
Y-91984D01*
D02*
G37*
G36*
X-33810Y-94536D02*
X-34078Y-94571D01*
X-34327Y-94675D01*
X-34541Y-94839D01*
X-34705Y-95053D01*
X-34809Y-95302D01*
X-34844Y-95570D01*
X-34809Y-95838D01*
X-34705Y-96087D01*
X-34541Y-96301D01*
X-34327Y-96465D01*
X-34078Y-96569D01*
X-33810Y-96604D01*
X-33542Y-96569D01*
X-33293Y-96465D01*
X-33079Y-96301D01*
X-32915Y-96087D01*
X-32811Y-95838D01*
X-32776Y-95570D01*
X-32811Y-95302D01*
X-32915Y-95053D01*
X-33079Y-94839D01*
X-33293Y-94675D01*
X-33542Y-94571D01*
X-33810Y-94536D01*
D02*
G37*
G36*
X-44650Y-45065D02*
X-46700D01*
Y-46718D01*
X-50773Y-50792D01*
X-50834Y-50883D01*
X-50855Y-50990D01*
Y-89950D01*
X-50834Y-90057D01*
X-50773Y-90148D01*
X-42748Y-98173D01*
X-42657Y-98234D01*
X-42550Y-98255D01*
X-42550Y-98255D01*
X-23515D01*
X-23408Y-98234D01*
X-23317Y-98173D01*
X-21614Y-96471D01*
X-21378Y-96569D01*
X-21110Y-96604D01*
X-20842Y-96569D01*
X-20593Y-96465D01*
X-20379Y-96301D01*
X-20215Y-96087D01*
X-20111Y-95838D01*
X-20076Y-95570D01*
X-20111Y-95302D01*
X-20215Y-95053D01*
X-20379Y-94839D01*
X-20593Y-94675D01*
X-20842Y-94571D01*
X-21110Y-94536D01*
X-21378Y-94571D01*
X-21627Y-94675D01*
X-21841Y-94839D01*
X-22005Y-95053D01*
X-22109Y-95302D01*
X-22144Y-95570D01*
X-22109Y-95838D01*
X-22011Y-96074D01*
X-23631Y-97695D01*
X-42434D01*
X-50295Y-89834D01*
Y-51106D01*
X-46303Y-47115D01*
X-44650D01*
Y-45065D01*
D02*
G37*
G36*
X-18670Y-95670D02*
X-19616D01*
X-19593Y-95844D01*
X-19487Y-96100D01*
X-19319Y-96319D01*
X-19100Y-96487D01*
X-18844Y-96593D01*
X-18670Y-96616D01*
Y-95670D01*
D02*
G37*
G36*
X-17524D02*
X-18470D01*
Y-96616D01*
X-18296Y-96593D01*
X-18040Y-96487D01*
X-17821Y-96319D01*
X-17653Y-96100D01*
X-17547Y-95844D01*
X-17524Y-95670D01*
D02*
G37*
G36*
X-41530Y-93130D02*
X-42476D01*
X-42453Y-93304D01*
X-42347Y-93560D01*
X-42179Y-93779D01*
X-41960Y-93947D01*
X-41704Y-94053D01*
X-41530Y-94076D01*
Y-93130D01*
D02*
G37*
G36*
X-17545Y-92005D02*
X-19595D01*
Y-94055D01*
X-17545D01*
Y-92005D01*
D02*
G37*
G36*
X-18670Y-94524D02*
X-18844Y-94547D01*
X-19100Y-94653D01*
X-19319Y-94821D01*
X-19487Y-95040D01*
X-19593Y-95296D01*
X-19616Y-95470D01*
X-18670D01*
Y-94524D01*
D02*
G37*
G36*
X-18470D02*
Y-95470D01*
X-17524D01*
X-17547Y-95296D01*
X-17653Y-95040D01*
X-17821Y-94821D01*
X-18040Y-94653D01*
X-18296Y-94547D01*
X-18470Y-94524D01*
D02*
G37*
G36*
X-4430Y-70876D02*
X-4698Y-70911D01*
X-4947Y-71015D01*
X-5161Y-71179D01*
X-5325Y-71393D01*
X-5429Y-71642D01*
X-5464Y-71910D01*
X-5429Y-72178D01*
X-5325Y-72427D01*
X-5161Y-72641D01*
X-4947Y-72805D01*
X-4698Y-72909D01*
X-4430Y-72944D01*
X-4162Y-72909D01*
X-3913Y-72805D01*
X-3699Y-72641D01*
X-3535Y-72427D01*
X-3431Y-72178D01*
X-3396Y-71910D01*
X-3431Y-71642D01*
X-3535Y-71393D01*
X-3699Y-71179D01*
X-3913Y-71015D01*
X-4162Y-70911D01*
X-4430Y-70876D01*
D02*
G37*
G36*
X-22150Y-62825D02*
X-22550D01*
Y-63375D01*
X-22150D01*
Y-62825D01*
D02*
G37*
G36*
X-23413Y-61850D02*
X-24325D01*
Y-62107D01*
X-23750D01*
X-23613Y-62080D01*
X-23498Y-62002D01*
X-23420Y-61887D01*
X-23413Y-61850D01*
D02*
G37*
G36*
X-4330Y-63244D02*
Y-64190D01*
X-3384D01*
X-3407Y-64016D01*
X-3513Y-63760D01*
X-3681Y-63541D01*
X-3900Y-63373D01*
X-4156Y-63267D01*
X-4330Y-63244D01*
D02*
G37*
G36*
X-22750Y-62825D02*
X-23150D01*
Y-63375D01*
X-22750D01*
Y-62825D01*
D02*
G37*
G36*
X-46975Y-59450D02*
X-47375D01*
Y-60000D01*
X-46975D01*
Y-59450D01*
D02*
G37*
G36*
X-38550Y-55995D02*
X-39031D01*
Y-56025D01*
X-39175D01*
Y-56025D01*
X-40225D01*
Y-56417D01*
X-40290Y-56460D01*
X-40357Y-56496D01*
X-40499Y-56401D01*
X-40675Y-56366D01*
X-40851Y-56401D01*
X-40999Y-56501D01*
X-41099Y-56649D01*
X-41134Y-56825D01*
X-41099Y-57001D01*
X-40999Y-57149D01*
X-40851Y-57249D01*
X-40675Y-57284D01*
X-40499Y-57249D01*
X-40351Y-57149D01*
X-40321Y-57105D01*
X-39950D01*
X-39843Y-57084D01*
X-39829Y-57075D01*
X-39175D01*
Y-57075D01*
X-39113D01*
X-39031Y-57158D01*
Y-57158D01*
X-38550D01*
Y-56576D01*
Y-55995D01*
D02*
G37*
G36*
X-45705Y-59475D02*
X-46705D01*
Y-60153D01*
X-46836Y-60285D01*
X-46975Y-60227D01*
Y-60200D01*
X-47975D01*
Y-60750D01*
X-47975D01*
Y-60849D01*
X-48094Y-60885D01*
X-48100Y-60876D01*
X-48249Y-60776D01*
X-48424Y-60741D01*
X-48600Y-60776D01*
X-48749Y-60876D01*
X-48848Y-61024D01*
X-48883Y-61200D01*
X-48848Y-61376D01*
X-48749Y-61524D01*
X-48600Y-61624D01*
X-48424Y-61659D01*
X-48249Y-61624D01*
X-48100Y-61524D01*
X-48094Y-61515D01*
X-47950Y-61558D01*
Y-61825D01*
X-47755D01*
Y-62111D01*
X-47821Y-62155D01*
X-47927Y-62314D01*
X-47964Y-62501D01*
Y-63923D01*
X-47927Y-64110D01*
X-47821Y-64269D01*
X-47662Y-64375D01*
X-47475Y-64412D01*
X-47288Y-64375D01*
X-47129Y-64269D01*
X-47023Y-64110D01*
X-46986Y-63923D01*
Y-62501D01*
X-47023Y-62314D01*
X-47129Y-62155D01*
X-47195Y-62111D01*
Y-61825D01*
X-47000D01*
Y-61065D01*
X-46940D01*
X-46833Y-61044D01*
X-46705Y-61235D01*
Y-61825D01*
X-46485D01*
Y-62111D01*
X-46551Y-62155D01*
X-46657Y-62314D01*
X-46694Y-62501D01*
Y-63923D01*
X-46657Y-64110D01*
X-46551Y-64269D01*
X-46392Y-64375D01*
X-46205Y-64412D01*
X-46018Y-64375D01*
X-45859Y-64269D01*
X-45753Y-64110D01*
X-45716Y-63923D01*
Y-62501D01*
X-45753Y-62314D01*
X-45859Y-62155D01*
X-45925Y-62111D01*
Y-61825D01*
X-45705D01*
Y-61530D01*
X-45529D01*
X-45499Y-61574D01*
X-45351Y-61674D01*
X-45175Y-61709D01*
X-44999Y-61674D01*
X-44851Y-61574D01*
X-44751Y-61426D01*
X-44716Y-61250D01*
X-44751Y-61074D01*
X-44851Y-60926D01*
X-44999Y-60826D01*
X-45175Y-60791D01*
X-45351Y-60826D01*
X-45499Y-60926D01*
X-45529Y-60970D01*
X-45705D01*
Y-60675D01*
D01*
Y-60675D01*
X-45705Y-60675D01*
Y-60625D01*
X-45705D01*
Y-59475D01*
D02*
G37*
G36*
X-47575Y-59450D02*
X-47975D01*
Y-60000D01*
X-47575D01*
Y-59450D01*
D02*
G37*
G36*
X-4530Y-63244D02*
X-4704Y-63267D01*
X-4960Y-63373D01*
X-5179Y-63541D01*
X-5347Y-63760D01*
X-5453Y-64016D01*
X-5476Y-64190D01*
X-4530D01*
Y-63244D01*
D02*
G37*
G36*
X-43765Y-67594D02*
X-43862Y-67613D01*
X-44029Y-67725D01*
X-44141Y-67892D01*
X-44180Y-68089D01*
Y-68700D01*
X-43765D01*
Y-67594D01*
D02*
G37*
G36*
X-43565D02*
Y-68700D01*
X-43150D01*
Y-68089D01*
X-43189Y-67892D01*
X-43301Y-67725D01*
X-43468Y-67613D01*
X-43565Y-67594D01*
D02*
G37*
G36*
X-43765Y-68900D02*
X-44180D01*
Y-69511D01*
X-44141Y-69708D01*
X-44029Y-69875D01*
X-43862Y-69987D01*
X-43765Y-70006D01*
Y-68900D01*
D02*
G37*
G36*
X-43150D02*
X-43565D01*
Y-70006D01*
X-43468Y-69987D01*
X-43301Y-69875D01*
X-43189Y-69708D01*
X-43150Y-69511D01*
Y-68900D01*
D02*
G37*
G36*
X-3384Y-64390D02*
X-4330D01*
Y-65336D01*
X-4156Y-65313D01*
X-3900Y-65207D01*
X-3681Y-65039D01*
X-3513Y-64820D01*
X-3407Y-64564D01*
X-3384Y-64390D01*
D02*
G37*
G36*
X-5945Y-63265D02*
X-7995D01*
Y-65315D01*
X-5945D01*
Y-63265D01*
D02*
G37*
G36*
X-4430Y-65796D02*
X-4698Y-65831D01*
X-4947Y-65935D01*
X-5161Y-66099D01*
X-5325Y-66313D01*
X-5429Y-66562D01*
X-5464Y-66830D01*
X-5429Y-67098D01*
X-5325Y-67347D01*
X-5161Y-67561D01*
X-4947Y-67725D01*
X-4698Y-67829D01*
X-4430Y-67864D01*
X-4162Y-67829D01*
X-3913Y-67725D01*
X-3699Y-67561D01*
X-3535Y-67347D01*
X-3431Y-67098D01*
X-3396Y-66830D01*
X-3431Y-66562D01*
X-3535Y-66313D01*
X-3699Y-66099D01*
X-3913Y-65935D01*
X-4162Y-65831D01*
X-4430Y-65796D01*
D02*
G37*
G36*
X-4530Y-64390D02*
X-5476D01*
X-5453Y-64564D01*
X-5347Y-64820D01*
X-5179Y-65039D01*
X-4960Y-65207D01*
X-4704Y-65313D01*
X-4530Y-65336D01*
Y-64390D01*
D02*
G37*
G36*
X-11950Y-2400D02*
X-13200D01*
Y-3450D01*
X-11950D01*
Y-2400D01*
D02*
G37*
G36*
X-10500D02*
X-11750D01*
Y-3450D01*
X-10500D01*
Y-2400D01*
D02*
G37*
G36*
X-14538D02*
X-15525D01*
Y-3450D01*
X-14538D01*
Y-2400D01*
D02*
G37*
G36*
X-13350D02*
X-14337D01*
Y-3450D01*
X-13350D01*
Y-2400D01*
D02*
G37*
G36*
X-49696Y-1150D02*
X-50684D01*
Y-2200D01*
X-49696D01*
Y-1150D01*
D02*
G37*
G36*
X-48509D02*
X-49496D01*
Y-2200D01*
X-48509D01*
Y-1150D01*
D02*
G37*
G36*
X-52284D02*
X-53534D01*
Y-2200D01*
X-52284D01*
Y-1150D01*
D02*
G37*
G36*
X-50834D02*
X-52084D01*
Y-2200D01*
X-50834D01*
Y-1150D01*
D02*
G37*
G36*
X-15675Y-2400D02*
X-16663D01*
Y-3450D01*
X-15675D01*
Y-2400D01*
D02*
G37*
G36*
X-46184D02*
X-47172D01*
Y-3450D01*
X-46184D01*
Y-2400D01*
D02*
G37*
G36*
X-44784D02*
X-46034D01*
Y-3450D01*
X-44784D01*
Y-2400D01*
D02*
G37*
G36*
X-48509D02*
X-49496D01*
Y-3450D01*
X-48509D01*
Y-2400D01*
D02*
G37*
G36*
X-47371D02*
X-48359D01*
Y-3450D01*
X-47371D01*
Y-2400D01*
D02*
G37*
G36*
X-18000D02*
X-19250D01*
Y-3450D01*
X-18000D01*
Y-2400D01*
D02*
G37*
G36*
X-16862D02*
X-17850D01*
Y-3450D01*
X-16862D01*
Y-2400D01*
D02*
G37*
G36*
X-43334D02*
X-44584D01*
Y-3450D01*
X-43334D01*
Y-2400D01*
D02*
G37*
G36*
X-19450D02*
X-20700D01*
Y-3450D01*
X-19450D01*
Y-2400D01*
D02*
G37*
G36*
X-10500Y-1150D02*
X-11750D01*
Y-2200D01*
X-10500D01*
Y-1150D01*
D02*
G37*
G36*
X-35100Y-825D02*
X-35700D01*
Y-2050D01*
X-35100D01*
Y-825D01*
D02*
G37*
G36*
X-13350Y-1150D02*
X-14337D01*
Y-2200D01*
X-13350D01*
Y-1150D01*
D02*
G37*
G36*
X-11950D02*
X-13200D01*
Y-2200D01*
X-11950D01*
Y-1150D01*
D02*
G37*
G36*
X-27300Y-825D02*
X-27900D01*
Y-2050D01*
X-27300D01*
Y-825D01*
D02*
G37*
G36*
X-30325Y-850D02*
X-31675D01*
Y-3450D01*
X-31280D01*
Y-6350D01*
X-31675D01*
Y-8950D01*
X-31280D01*
Y-9400D01*
X-31625D01*
Y-10300D01*
X-30731D01*
X-30731Y-10300D01*
Y-10300D01*
X-30675Y-10300D01*
X-30650D01*
X-30625D01*
X-30569Y-10300D01*
X-30569Y-10300D01*
Y-10300D01*
X-30489D01*
X-30438Y-10441D01*
X-30534Y-10519D01*
X-30675Y-10491D01*
X-30851Y-10526D01*
X-30999Y-10626D01*
X-31037Y-10682D01*
X-35275D01*
X-35377Y-10703D01*
X-35464Y-10761D01*
X-35479Y-10775D01*
X-35871D01*
X-35886Y-10761D01*
X-35973Y-10703D01*
X-36075Y-10682D01*
X-37705D01*
Y-9925D01*
X-39755D01*
Y-11975D01*
X-37705D01*
Y-11218D01*
X-36186D01*
X-36175Y-11229D01*
Y-11925D01*
X-36175Y-11925D01*
X-36175Y-11975D01*
X-36175D01*
Y-13125D01*
X-35175D01*
Y-12630D01*
X-34925D01*
Y-12775D01*
X-34558D01*
X-34515Y-12840D01*
X-34479Y-12907D01*
X-34574Y-13049D01*
X-34609Y-13225D01*
X-34583Y-13354D01*
X-34678Y-13470D01*
X-35821D01*
X-35851Y-13426D01*
X-35999Y-13326D01*
X-36175Y-13291D01*
X-36351Y-13326D01*
X-36499Y-13426D01*
X-36599Y-13574D01*
X-36634Y-13750D01*
X-36606Y-13891D01*
X-36701Y-14007D01*
X-37313D01*
X-37351Y-13951D01*
X-37499Y-13851D01*
X-37675Y-13816D01*
X-37851Y-13851D01*
X-37999Y-13951D01*
X-38099Y-14099D01*
X-38134Y-14275D01*
X-38106Y-14416D01*
X-38201Y-14532D01*
X-39988D01*
X-40026Y-14476D01*
X-40174Y-14376D01*
X-40350Y-14341D01*
X-40526Y-14376D01*
X-40674Y-14476D01*
X-40774Y-14624D01*
X-40809Y-14800D01*
X-40774Y-14976D01*
X-40674Y-15124D01*
X-40526Y-15224D01*
X-40350Y-15259D01*
X-40174Y-15224D01*
X-40026Y-15124D01*
X-39988Y-15068D01*
X-32250D01*
X-32148Y-15047D01*
X-32061Y-14989D01*
X-29461Y-12389D01*
X-29403Y-12302D01*
X-29382Y-12200D01*
X-29382Y-12200D01*
X-29382Y-12200D01*
Y-12200D01*
Y-10881D01*
X-29325Y-10834D01*
X-29149Y-10799D01*
X-29001Y-10699D01*
X-28901Y-10551D01*
X-28866Y-10375D01*
X-28901Y-10199D01*
X-29001Y-10051D01*
X-29149Y-9951D01*
X-29325Y-9916D01*
X-29501Y-9951D01*
X-29543Y-9979D01*
X-29675Y-9909D01*
Y-9400D01*
X-30569D01*
X-30569Y-9400D01*
Y-9400D01*
X-30625Y-9400D01*
X-30675D01*
Y-9400D01*
X-30720Y-9400D01*
Y-8950D01*
X-30325D01*
Y-6350D01*
X-30720D01*
Y-3450D01*
X-30325D01*
Y-2052D01*
X-30209Y-1957D01*
X-30075Y-1984D01*
X-29899Y-1949D01*
X-29751Y-1849D01*
X-29651Y-1701D01*
X-29616Y-1525D01*
X-29651Y-1349D01*
X-29751Y-1201D01*
X-29899Y-1101D01*
X-30075Y-1066D01*
X-30209Y-1093D01*
X-30325Y-998D01*
Y-850D01*
D02*
G37*
G36*
X-34300Y-825D02*
X-34900D01*
Y-2050D01*
X-34300D01*
Y-825D01*
D02*
G37*
G36*
X-28100D02*
X-28700D01*
Y-2050D01*
X-28100D01*
Y-825D01*
D02*
G37*
G36*
X-14538Y-1150D02*
X-15525D01*
Y-2200D01*
X-14538D01*
Y-1150D01*
D02*
G37*
G36*
X-44784D02*
X-46034D01*
Y-2200D01*
X-44784D01*
Y-1150D01*
D02*
G37*
G36*
X-43334D02*
X-44584D01*
Y-2200D01*
X-43334D01*
Y-1150D01*
D02*
G37*
G36*
X-47371D02*
X-48359D01*
Y-2200D01*
X-47371D01*
Y-1150D01*
D02*
G37*
G36*
X-46184D02*
X-47172D01*
Y-2200D01*
X-46184D01*
Y-1150D01*
D02*
G37*
G36*
X-16862D02*
X-17850D01*
Y-2200D01*
X-16862D01*
Y-1150D01*
D02*
G37*
G36*
X-15675D02*
X-16663D01*
Y-2200D01*
X-15675D01*
Y-1150D01*
D02*
G37*
G36*
X-19450D02*
X-20700D01*
Y-2200D01*
X-19450D01*
Y-1150D01*
D02*
G37*
G36*
X-18000D02*
X-19250D01*
Y-2200D01*
X-18000D01*
Y-1150D01*
D02*
G37*
G36*
X-50750Y-7553D02*
X-51100D01*
Y-7978D01*
X-50750D01*
Y-7553D01*
D02*
G37*
G36*
X-52200Y-7578D02*
X-52575D01*
Y-7978D01*
X-52200D01*
Y-7578D01*
D02*
G37*
G36*
X-35100Y-7750D02*
X-35700D01*
Y-8079D01*
X-35832Y-8150D01*
X-35887Y-8114D01*
X-36062Y-8079D01*
X-36238Y-8114D01*
X-36387Y-8213D01*
X-36486Y-8362D01*
X-36521Y-8538D01*
X-36486Y-8713D01*
X-36387Y-8862D01*
X-36238Y-8961D01*
X-36062Y-8996D01*
X-35887Y-8961D01*
X-35837Y-8928D01*
X-35700Y-8975D01*
X-35700Y-8975D01*
X-35100D01*
Y-7750D01*
D02*
G37*
G36*
X-33290Y-7206D02*
X-33466Y-7241D01*
X-33614Y-7341D01*
X-33714Y-7489D01*
X-33749Y-7665D01*
X-33714Y-7841D01*
X-33614Y-7989D01*
X-33466Y-8089D01*
X-33290Y-8124D01*
X-33114Y-8089D01*
X-32966Y-7989D01*
X-32866Y-7841D01*
X-32831Y-7665D01*
X-32866Y-7489D01*
X-32966Y-7341D01*
X-33114Y-7241D01*
X-33290Y-7206D01*
D02*
G37*
G36*
X-5725Y-2775D02*
X-7275D01*
Y-4325D01*
X-6104D01*
X-2989Y-7439D01*
X-2902Y-7497D01*
X-2902Y-7497D01*
X-2902Y-7497D01*
D01*
X-2902Y-7497D01*
X-2902Y-7497D01*
X-2800Y-7518D01*
X-1562D01*
X-1524Y-7574D01*
X-1376Y-7674D01*
X-1200Y-7709D01*
X-1024Y-7674D01*
X-876Y-7574D01*
X-776Y-7426D01*
X-741Y-7250D01*
X-776Y-7074D01*
X-876Y-6926D01*
X-1024Y-6826D01*
X-1200Y-6791D01*
X-1376Y-6826D01*
X-1524Y-6926D01*
X-1562Y-6982D01*
X-2689D01*
X-5725Y-3946D01*
Y-2775D01*
D02*
G37*
G36*
X-35100Y-6325D02*
X-35700D01*
Y-7550D01*
X-35100D01*
Y-6325D01*
D02*
G37*
G36*
X-17650Y-7475D02*
X-18000D01*
Y-7900D01*
X-17650D01*
Y-7475D01*
D02*
G37*
G36*
X-19100Y-7500D02*
X-19475D01*
Y-7900D01*
X-19100D01*
Y-7500D01*
D02*
G37*
G36*
X-7975Y-2775D02*
X-9525D01*
Y-4325D01*
X-8354D01*
X-5868Y-6811D01*
Y-8404D01*
X-6011Y-8447D01*
X-6026Y-8426D01*
X-6174Y-8326D01*
X-6350Y-8291D01*
X-6526Y-8326D01*
X-6674Y-8426D01*
X-6774Y-8574D01*
X-6809Y-8750D01*
X-6795Y-8817D01*
X-12436Y-14457D01*
X-13225D01*
X-13327Y-14478D01*
X-13414Y-14536D01*
X-14758Y-15880D01*
X-14825Y-15866D01*
X-14993Y-15900D01*
X-15064Y-15767D01*
X-10882Y-11585D01*
X-10749Y-11626D01*
X-10649Y-11774D01*
X-10501Y-11874D01*
X-10325Y-11909D01*
X-10149Y-11874D01*
X-10001Y-11774D01*
X-9901Y-11626D01*
X-9866Y-11450D01*
X-9901Y-11274D01*
X-10001Y-11126D01*
X-10037Y-11101D01*
Y-6170D01*
X-10058Y-6068D01*
X-10116Y-5981D01*
X-10355Y-5742D01*
X-10341Y-5675D01*
X-10376Y-5499D01*
X-10476Y-5351D01*
X-10624Y-5251D01*
X-10800Y-5216D01*
X-10976Y-5251D01*
X-11124Y-5351D01*
X-11224Y-5499D01*
X-11259Y-5675D01*
X-11224Y-5851D01*
X-11124Y-5999D01*
X-10976Y-6099D01*
X-10800Y-6134D01*
X-10733Y-6120D01*
X-10573Y-6281D01*
Y-6884D01*
X-10696Y-6947D01*
X-10768Y-6859D01*
X-10741Y-6725D01*
X-10776Y-6549D01*
X-10876Y-6401D01*
X-11024Y-6301D01*
X-11200Y-6266D01*
X-11376Y-6301D01*
X-11524Y-6401D01*
X-11624Y-6549D01*
X-11659Y-6725D01*
X-11624Y-6901D01*
X-11624Y-6901D01*
X-11725Y-6975D01*
X-11725D01*
Y-8025D01*
D01*
D01*
X-11725Y-8025D01*
X-11725Y-8125D01*
X-11725D01*
Y-9050D01*
X-11750D01*
Y-9475D01*
X-11300D01*
Y-9575D01*
X-11200D01*
Y-10100D01*
X-10968D01*
Y-10914D01*
X-16033Y-15980D01*
X-16100Y-15966D01*
X-16276Y-16001D01*
X-16424Y-16101D01*
X-16524Y-16249D01*
X-16559Y-16425D01*
X-16524Y-16601D01*
X-16424Y-16749D01*
X-16276Y-16849D01*
X-16100Y-16884D01*
X-15924Y-16849D01*
X-15776Y-16749D01*
X-15676Y-16601D01*
X-15641Y-16425D01*
X-15655Y-16358D01*
X-15383Y-16086D01*
X-15250Y-16157D01*
X-15284Y-16325D01*
X-15249Y-16501D01*
X-15149Y-16649D01*
X-15001Y-16749D01*
X-14825Y-16784D01*
X-14649Y-16749D01*
X-14501Y-16649D01*
X-14401Y-16501D01*
X-14366Y-16325D01*
X-14380Y-16258D01*
X-13114Y-14993D01*
X-12325D01*
X-12223Y-14972D01*
X-12136Y-14914D01*
X-6417Y-9195D01*
X-6350Y-9209D01*
X-6174Y-9174D01*
X-6026Y-9074D01*
X-6011Y-9053D01*
X-5936Y-9076D01*
X-5900Y-9221D01*
X-6283Y-9605D01*
X-6350Y-9591D01*
X-6526Y-9626D01*
X-6674Y-9726D01*
X-6774Y-9874D01*
X-6809Y-10050D01*
X-6774Y-10226D01*
X-6674Y-10374D01*
X-6526Y-10474D01*
X-6350Y-10509D01*
X-6174Y-10474D01*
X-6026Y-10374D01*
X-5926Y-10226D01*
X-5891Y-10050D01*
X-5905Y-9983D01*
X-5411Y-9489D01*
X-5353Y-9402D01*
X-5353Y-9402D01*
X-5353Y-9402D01*
X-5332Y-9300D01*
Y-6700D01*
X-5353Y-6598D01*
X-5411Y-6511D01*
X-7975Y-3946D01*
Y-2775D01*
D02*
G37*
G36*
X-12150Y-9675D02*
X-12500D01*
Y-10100D01*
X-12150D01*
Y-9675D01*
D02*
G37*
G36*
X-11400D02*
X-11750D01*
Y-10100D01*
X-11400D01*
Y-9675D01*
D02*
G37*
G36*
X-44775Y-11250D02*
X-45200D01*
Y-11750D01*
X-44775D01*
Y-11250D01*
D02*
G37*
G36*
X-4550Y-9341D02*
X-4726Y-9376D01*
X-4874Y-9476D01*
X-4974Y-9624D01*
X-5009Y-9800D01*
X-4974Y-9976D01*
X-4874Y-10124D01*
X-4726Y-10224D01*
X-4550Y-10259D01*
X-4374Y-10224D01*
X-4226Y-10124D01*
X-4126Y-9976D01*
X-4091Y-9800D01*
X-4126Y-9624D01*
X-4226Y-9476D01*
X-4374Y-9376D01*
X-4550Y-9341D01*
D02*
G37*
G36*
X-27300Y-7750D02*
X-27900D01*
Y-8975D01*
X-27300D01*
Y-7750D01*
D02*
G37*
G36*
X-32390Y-8006D02*
X-32566Y-8041D01*
X-32714Y-8141D01*
X-32814Y-8289D01*
X-32849Y-8465D01*
X-32814Y-8641D01*
X-32714Y-8789D01*
X-32566Y-8889D01*
X-32390Y-8924D01*
X-32214Y-8889D01*
X-32066Y-8789D01*
X-31966Y-8641D01*
X-31931Y-8465D01*
X-31966Y-8289D01*
X-32066Y-8141D01*
X-32214Y-8041D01*
X-32390Y-8006D01*
D02*
G37*
G36*
X-34300Y-7750D02*
X-34900D01*
Y-8975D01*
X-34300D01*
Y-7750D01*
D02*
G37*
G36*
X-28100D02*
X-28700D01*
Y-8975D01*
X-28100D01*
Y-7750D01*
D02*
G37*
G36*
X-34300Y-2250D02*
X-34900D01*
Y-3475D01*
X-34300D01*
Y-2250D01*
D02*
G37*
G36*
X-28100D02*
X-28700D01*
Y-3475D01*
X-28100D01*
Y-2250D01*
D02*
G37*
G36*
X-32390Y-4006D02*
X-32566Y-4041D01*
X-32714Y-4140D01*
X-32814Y-4289D01*
X-32849Y-4465D01*
X-32814Y-4641D01*
X-32714Y-4789D01*
X-32566Y-4889D01*
X-32390Y-4924D01*
X-32214Y-4889D01*
X-32066Y-4789D01*
X-31966Y-4641D01*
X-31931Y-4465D01*
X-31966Y-4289D01*
X-32066Y-4140D01*
X-32214Y-4041D01*
X-32390Y-4006D01*
D02*
G37*
G36*
X-35100Y-2250D02*
X-35700D01*
Y-3475D01*
X-35100D01*
Y-2250D01*
D02*
G37*
G36*
X-50834Y-2400D02*
X-52084D01*
Y-3450D01*
X-50834D01*
Y-2400D01*
D02*
G37*
G36*
X-49696D02*
X-50684D01*
Y-3450D01*
X-49696D01*
Y-2400D01*
D02*
G37*
G36*
X-27300Y-2250D02*
X-27900D01*
Y-3475D01*
X-27300D01*
Y-2250D01*
D02*
G37*
G36*
X-52284Y-2400D02*
X-53534D01*
Y-3450D01*
X-52284D01*
Y-2400D01*
D02*
G37*
G36*
X-33190Y-4706D02*
X-33366Y-4741D01*
X-33514Y-4841D01*
X-33614Y-4989D01*
X-33649Y-5165D01*
X-33614Y-5341D01*
X-33514Y-5489D01*
X-33366Y-5589D01*
X-33190Y-5624D01*
X-33014Y-5589D01*
X-32866Y-5489D01*
X-32766Y-5341D01*
X-32731Y-5165D01*
X-32766Y-4989D01*
X-32866Y-4841D01*
X-33014Y-4741D01*
X-33190Y-4706D01*
D02*
G37*
G36*
X-27300Y-6325D02*
X-27900D01*
Y-7550D01*
X-27300D01*
Y-6325D01*
D02*
G37*
G36*
X-32390Y-5406D02*
X-32566Y-5441D01*
X-32714Y-5541D01*
X-32814Y-5689D01*
X-32849Y-5865D01*
X-32814Y-6041D01*
X-32714Y-6189D01*
X-32566Y-6289D01*
X-32560Y-6290D01*
Y-6440D01*
X-32566Y-6441D01*
X-32714Y-6541D01*
X-32814Y-6689D01*
X-32849Y-6865D01*
X-32814Y-7041D01*
X-32714Y-7189D01*
X-32566Y-7289D01*
X-32390Y-7324D01*
X-32214Y-7289D01*
X-32066Y-7189D01*
X-31966Y-7041D01*
X-31931Y-6865D01*
X-31966Y-6689D01*
X-32066Y-6541D01*
X-32214Y-6441D01*
X-32220Y-6440D01*
Y-6290D01*
X-32214Y-6289D01*
X-32066Y-6189D01*
X-31966Y-6041D01*
X-31931Y-5865D01*
X-31966Y-5689D01*
X-32066Y-5541D01*
X-32214Y-5441D01*
X-32390Y-5406D01*
D02*
G37*
G36*
X-34300Y-6325D02*
X-34900D01*
Y-7550D01*
X-34300D01*
Y-6325D01*
D02*
G37*
G36*
X-28100D02*
X-28700D01*
Y-7550D01*
X-28100D01*
Y-6325D01*
D02*
G37*
G36*
X-17650Y-5900D02*
X-18000D01*
Y-6325D01*
X-17650D01*
Y-5900D01*
D02*
G37*
G36*
X-19100D02*
X-19475D01*
Y-6300D01*
X-19100D01*
Y-5900D01*
D02*
G37*
G36*
X-50750Y-5978D02*
X-51100D01*
Y-6403D01*
X-50750D01*
Y-5978D01*
D02*
G37*
G36*
X-52200Y-5978D02*
X-52575D01*
Y-6378D01*
X-52200D01*
Y-5978D01*
D02*
G37*
%LPD*%
D10*
X-40225Y-54375D02*
D03*
X-41925D02*
D03*
D11*
X-19350Y-2300D02*
D03*
X-11850D02*
D03*
X-52184D02*
D03*
X-44684D02*
D03*
D12*
X-16900Y-5150D02*
D03*
X-16250D02*
D03*
X-15600D02*
D03*
X-14950D02*
D03*
X-14300D02*
D03*
X-49734D02*
D03*
X-49084D02*
D03*
X-48434D02*
D03*
X-47784D02*
D03*
X-47134D02*
D03*
D13*
X-16763Y-2300D02*
D03*
X-14438D02*
D03*
X-49597D02*
D03*
X-47271D02*
D03*
D14*
X-47475Y-68800D02*
D03*
D15*
Y-63212D02*
D03*
X-46205Y-68800D02*
D03*
X-44935D02*
D03*
X-43665D02*
D03*
Y-63212D02*
D03*
X-44935D02*
D03*
X-46205D02*
D03*
D16*
X-31000Y-7650D02*
D03*
Y-2150D02*
D03*
X-35000D02*
D03*
Y-7650D02*
D03*
X-24000D02*
D03*
Y-2150D02*
D03*
X-28000D02*
D03*
Y-7650D02*
D03*
D17*
X-40475Y-52975D02*
D03*
Y-50375D02*
D03*
D18*
X-46725Y-51675D02*
D03*
D19*
X-35575Y-54250D02*
D03*
Y-54750D02*
D03*
Y-55250D02*
D03*
Y-55750D02*
D03*
Y-56250D02*
D03*
Y-56750D02*
D03*
Y-57250D02*
D03*
Y-57750D02*
D03*
Y-58250D02*
D03*
Y-58750D02*
D03*
Y-59250D02*
D03*
Y-59750D02*
D03*
Y-60250D02*
D03*
Y-60750D02*
D03*
Y-61250D02*
D03*
Y-61750D02*
D03*
X-24425D02*
D03*
Y-61250D02*
D03*
Y-60750D02*
D03*
Y-60250D02*
D03*
Y-59750D02*
D03*
Y-59250D02*
D03*
Y-58750D02*
D03*
Y-58250D02*
D03*
Y-57750D02*
D03*
Y-57250D02*
D03*
Y-56750D02*
D03*
Y-56250D02*
D03*
Y-55750D02*
D03*
Y-55250D02*
D03*
Y-54750D02*
D03*
Y-54250D02*
D03*
D20*
X-33750Y-63575D02*
D03*
X-33250D02*
D03*
X-32750D02*
D03*
X-32250D02*
D03*
X-31750D02*
D03*
X-31250D02*
D03*
X-30750D02*
D03*
X-30250D02*
D03*
X-29750D02*
D03*
X-29250D02*
D03*
X-28750D02*
D03*
X-28250D02*
D03*
X-27750D02*
D03*
X-27250D02*
D03*
X-26750D02*
D03*
X-26250D02*
D03*
Y-52425D02*
D03*
X-26750D02*
D03*
X-27250D02*
D03*
X-27750D02*
D03*
X-28250D02*
D03*
X-28750D02*
D03*
X-29250D02*
D03*
X-29750D02*
D03*
X-30250D02*
D03*
X-30750D02*
D03*
X-31250D02*
D03*
X-31750D02*
D03*
X-32250D02*
D03*
X-32750D02*
D03*
X-33250D02*
D03*
X-33750D02*
D03*
D21*
X-32050Y-12000D02*
D03*
X-34150D02*
D03*
D22*
X-14300Y-7400D02*
D03*
Y-9300D02*
D03*
X-16400D02*
D03*
X-47000Y-7478D02*
D03*
Y-9378D02*
D03*
X-49100D02*
D03*
D23*
X-16400Y-7600D02*
D03*
X-49100Y-7678D02*
D03*
D24*
X-12600Y-7500D02*
D03*
X-11200D02*
D03*
D25*
X-30150Y-9850D02*
D03*
X-31150D02*
D03*
X-20811Y-10700D02*
D03*
X-21811D02*
D03*
Y-9800D02*
D03*
X-20811D02*
D03*
X-23100D02*
D03*
X-24100D02*
D03*
D26*
X-41675Y-70725D02*
D03*
Y-71925D02*
D03*
X-35675Y-12550D02*
D03*
Y-11350D02*
D03*
X-20300Y-31675D02*
D03*
Y-32875D02*
D03*
Y-35375D02*
D03*
Y-34175D02*
D03*
X-45300Y-7475D02*
D03*
Y-8675D02*
D03*
Y-9950D02*
D03*
Y-11150D02*
D03*
X-45675Y-38700D02*
D03*
Y-37500D02*
D03*
X-47475Y-70725D02*
D03*
Y-71925D02*
D03*
X-44935Y-70725D02*
D03*
Y-71925D02*
D03*
X-46205Y-60050D02*
D03*
Y-61250D02*
D03*
X-40525Y-70725D02*
D03*
Y-71925D02*
D03*
D27*
X-23125Y-10675D02*
D03*
X-24075D02*
D03*
D28*
X-38450Y-56576D02*
D03*
Y-57973D02*
D03*
D29*
X-47475Y-61200D02*
D03*
Y-60100D02*
D03*
X-37225Y-57800D02*
D03*
Y-56700D02*
D03*
X-28975Y-50325D02*
D03*
Y-49225D02*
D03*
X-30075Y-50325D02*
D03*
Y-49225D02*
D03*
X-22650Y-61625D02*
D03*
Y-62725D02*
D03*
X-38775Y-54375D02*
D03*
Y-53275D02*
D03*
Y-50375D02*
D03*
Y-51475D02*
D03*
X-22700Y-54400D02*
D03*
Y-53300D02*
D03*
D30*
X-52100Y-6478D02*
D03*
Y-7478D02*
D03*
X-19000Y-6400D02*
D03*
Y-7400D02*
D03*
D31*
X-51200Y-7453D02*
D03*
Y-6503D02*
D03*
X-18100Y-7375D02*
D03*
Y-6425D02*
D03*
X-12600Y-8625D02*
D03*
Y-9575D02*
D03*
X-11300Y-8625D02*
D03*
Y-9575D02*
D03*
D32*
X-39700Y-57950D02*
D03*
Y-56550D02*
D03*
D33*
X-32100Y-65575D02*
D03*
X-31000D02*
D03*
D34*
X-8750Y-3550D02*
D03*
Y-1450D02*
D03*
X-6500Y-3550D02*
D03*
Y-1450D02*
D03*
D35*
X-2743Y-74701D02*
Y-43012D01*
X-3742Y-75700D02*
X-2743Y-74701D01*
X-5680Y-75700D02*
X-3742D01*
X-3180Y-42575D02*
X-2743Y-43012D01*
X-14525Y-63275D02*
X-9239Y-68561D01*
X-7779D01*
X-6970Y-69370D01*
X-9075Y-68150D02*
X-5650D01*
X-13970Y-63255D02*
X-9075Y-68150D01*
X-5650D02*
X-4430Y-69370D01*
X-14525Y-63275D02*
Y-58500D01*
X-14400Y-57250D02*
X-13970Y-57680D01*
Y-63255D02*
Y-57680D01*
X-14400Y-57250D02*
X-13945Y-56795D01*
X-22079Y-60750D02*
X-19253Y-63576D01*
Y-72327D02*
Y-63576D01*
Y-72327D02*
X-6970Y-84610D01*
X-21944Y-60250D02*
X-18796Y-63398D01*
Y-72136D02*
Y-63398D01*
Y-72136D02*
X-8862Y-82070D01*
X-21885Y-59725D02*
X-18313Y-63297D01*
Y-72034D02*
Y-63297D01*
Y-72034D02*
X-9598Y-80750D01*
X-11438Y-78275D02*
X-3350D01*
X-17850Y-71863D02*
X-11438Y-78275D01*
X-17850Y-71863D02*
Y-63125D01*
X-9598Y-80750D02*
X-5750D01*
X-8862Y-82070D02*
X-6970D01*
X-24130Y-28575D02*
X-23546Y-29159D01*
X-24130Y-28575D02*
Y-27305D01*
X-23925Y-27100D02*
Y-22225D01*
X-24130Y-27305D02*
X-23925Y-27100D01*
X-26300Y-29550D02*
Y-29174D01*
X-28175Y-27299D02*
X-26300Y-29174D01*
X-28175Y-27299D02*
Y-20675D01*
X-24400Y-59725D02*
X-21885D01*
X-21725Y-59250D02*
X-17850Y-63125D01*
X-24425Y-59250D02*
X-21725D01*
X-17225Y-70800D02*
Y-63141D01*
X-21616Y-58750D02*
X-17225Y-63141D01*
X-24425Y-58750D02*
X-21616D01*
X-24425Y-60250D02*
X-21944D01*
X-24425Y-60750D02*
X-22079D01*
X-16600Y-72025D02*
Y-63080D01*
X-21430Y-58250D02*
X-16600Y-63080D01*
X-24425Y-58250D02*
X-21430D01*
X-41925Y-63350D02*
Y-56725D01*
X-35250Y-72650D02*
Y-71100D01*
X-28575Y-69275D02*
Y-65800D01*
X-27950Y-68600D02*
Y-65925D01*
X-33300Y-67075D02*
X-32500Y-67875D01*
X-33300Y-67075D02*
Y-65100D01*
X-32825Y-66650D02*
X-32475Y-67000D01*
X-32825Y-66650D02*
Y-65175D01*
X-32250Y-64600D01*
X-33300Y-65100D02*
X-32750Y-64550D01*
X-33875Y-67850D02*
Y-65150D01*
X-32750Y-64550D02*
Y-63575D01*
X-33250Y-64525D02*
Y-63575D01*
X-33875Y-65150D02*
X-33250Y-64525D01*
X-33750D02*
Y-63575D01*
X-34325Y-65100D02*
X-33750Y-64525D01*
X-34325Y-68050D02*
Y-65100D01*
X-45300Y-9950D02*
X-44300D01*
X-45300D02*
Y-8675D01*
X-35675Y-11350D02*
X-35275Y-10950D01*
X-30675D01*
X-29650Y-10700D02*
X-29325Y-10375D01*
X-29650Y-12200D02*
Y-10700D01*
X-30362Y-25487D02*
Y-20038D01*
X-22975Y-8975D02*
X-21124D01*
X-12325Y-14725D02*
X-6350Y-8750D01*
X-13225Y-14725D02*
X-12325D01*
X-14825Y-16325D02*
X-13225Y-14725D01*
X-49084Y-6384D02*
Y-5150D01*
X-16100Y-16425D02*
X-10700Y-11025D01*
X-30362Y-25487D02*
X-28900Y-26950D01*
X-28175Y-20675D02*
X-25675Y-18175D01*
X-18125Y-56750D02*
X-17046Y-55671D01*
X-24425Y-56750D02*
X-18125D01*
X-24425Y-56250D02*
X-18250D01*
X-23550Y-27625D02*
Y-21900D01*
X-22375Y-94295D02*
Y-92500D01*
X-24275Y-90600D02*
X-22375Y-92500D01*
X-24275Y-90600D02*
Y-64875D01*
X-25575Y-63575D02*
X-24275Y-64875D01*
X-35850Y-68825D02*
Y-63350D01*
X-41925Y-56725D02*
X-40450Y-55250D01*
X-28730Y-95570D02*
X-27425Y-94265D01*
Y-84550D01*
X-32900Y-83850D02*
Y-70975D01*
X-28730Y-93030D02*
X-27975Y-92275D01*
X-30025Y-94325D02*
Y-92475D01*
X-30675Y-91825D02*
X-30025Y-92475D01*
X-30675Y-91825D02*
Y-75725D01*
X-5825Y-42575D02*
X-3180D01*
X-2300Y-74860D02*
Y-42175D01*
X-3045Y-41430D02*
X-2300Y-42175D01*
X-4430Y-41430D02*
X-3045D01*
X-23650Y-95570D02*
X-22375Y-94295D01*
X-28250Y-56250D02*
Y-52425D01*
X-27250Y-55750D02*
Y-52425D01*
X-35325Y-68550D02*
X-32900Y-70975D01*
X-34825Y-68375D02*
X-32175Y-71025D01*
X-30675Y-75725D02*
Y-71050D01*
X-33875Y-67850D02*
X-30675Y-71050D01*
X-31270Y-77000D02*
Y-71105D01*
X-34325Y-68050D02*
X-31270Y-71105D01*
X-34825Y-63325D02*
X-27250Y-55750D01*
X-26750Y-61300D02*
Y-52425D01*
Y-61300D02*
X-22425Y-65625D01*
X-26250Y-61300D02*
X-25125Y-62425D01*
X-22425Y-71400D02*
Y-65625D01*
X-26250Y-61300D02*
Y-52425D01*
X-31250Y-58750D02*
Y-52425D01*
X-35850Y-63350D02*
X-31250Y-58750D01*
X-31270Y-95570D02*
X-30025Y-94325D01*
X-35325Y-63325D02*
X-28250Y-56250D01*
X-35325Y-68550D02*
Y-63325D01*
X-34825Y-68375D02*
Y-63325D01*
X-46725Y-53675D02*
Y-51675D01*
Y-49675D01*
X-40450Y-55250D02*
X-35575D01*
X-37575Y-94255D02*
Y-71400D01*
X-21750Y-72650D02*
Y-65800D01*
X-6970Y-76990D02*
X-5680Y-75700D01*
X-36350Y-95570D02*
X-35250Y-94470D01*
X-27350Y-74450D02*
Y-66025D01*
X-26250Y-63575D02*
X-25575D01*
X-18501Y-57750D02*
X-15275D01*
X-36850Y-60750D02*
X-35575D01*
X-4430Y-76990D02*
X-2300Y-74860D01*
X-6970Y-41430D02*
X-5825Y-42575D01*
X-27575Y-26175D02*
Y-20725D01*
X-15525Y-23600D02*
Y-19225D01*
X-17025Y-25100D02*
X-15525Y-23600D01*
X-24375Y-21775D02*
Y-20775D01*
X-25025Y-19475D02*
X-23700D01*
X-10305Y-11425D02*
Y-6170D01*
Y-11430D02*
Y-11425D01*
X-10325Y-11450D02*
X-10305Y-11430D01*
X-10800Y-5675D02*
X-10305Y-6170D01*
X-18100Y-7375D02*
X-17975Y-7500D01*
X-17400D01*
X-18125Y-7400D02*
X-18100Y-7375D01*
X-19000Y-7400D02*
X-18125D01*
X-16500Y-7500D02*
X-16400Y-7600D01*
X-17400Y-7500D02*
X-16500D01*
X-16900Y-6525D02*
X-16500Y-6925D01*
Y-7500D02*
Y-6925D01*
X-16900Y-6525D02*
Y-5150D01*
X-24100Y-9800D02*
X-24000Y-9700D01*
Y-7650D01*
Y-2150D01*
Y-1800D01*
X-24300Y-1500D02*
X-24000Y-1800D01*
X-24925Y-1500D02*
X-24300D01*
X-23125Y-10675D02*
Y-9825D01*
X-35000Y-7650D02*
Y-2150D01*
X-24425Y-59750D02*
X-24400Y-59725D01*
X-29750Y-64625D02*
Y-63575D01*
X-30250Y-64625D02*
Y-63575D01*
X-30750Y-64650D02*
Y-63575D01*
X-38890Y-95570D02*
X-37575Y-94255D01*
X-25125Y-62425D02*
X-21750Y-65800D01*
X-38900Y-93020D02*
X-38890Y-93030D01*
X-4430Y-84610D02*
X-2925Y-83105D01*
Y-78700D01*
X-3350Y-78275D02*
X-2925Y-78700D01*
X-25125Y-62425D02*
Y-62425D01*
X-6500Y-3550D02*
X-2800Y-7250D01*
X-1200D01*
X-8750Y-3550D02*
X-5600Y-6700D01*
X-6350Y-10050D02*
X-5600Y-9300D01*
Y-6700D01*
X-38730Y-10950D02*
X-36075D01*
X-35675Y-11350D01*
X-36875Y-61750D02*
X-35575D01*
X-36850Y-59750D02*
X-35575D01*
X-5750Y-80750D02*
X-4430Y-82070D01*
X-24375Y-21775D02*
X-23925Y-22225D01*
X-23550Y-21900D02*
X-23075Y-21425D01*
X-10700Y-11025D02*
Y-9225D01*
X-38890Y-93030D02*
Y-70800D01*
X-36350Y-93030D02*
Y-72025D01*
X-35250Y-94470D02*
Y-72650D01*
X-27250Y-64550D02*
Y-63575D01*
X-27750Y-64600D02*
Y-63575D01*
X-28250Y-64600D02*
Y-63575D01*
X-28750Y-64625D02*
X-27350Y-66025D01*
X-28750Y-64625D02*
Y-63575D01*
X-29250Y-64625D02*
Y-63575D01*
Y-64625D02*
X-27950Y-65925D01*
X-29750Y-64625D02*
X-28575Y-65800D01*
X-30250Y-64625D02*
X-29125Y-65750D01*
X-31270Y-93030D02*
Y-77000D01*
X-32250Y-64600D02*
Y-63575D01*
X-35575Y-60250D02*
X-34350D01*
X-50475Y-7478D02*
X-50097D01*
X-49897Y-7678D01*
X-49100D01*
X-49734Y-6616D02*
Y-5150D01*
X-24425Y-57750D02*
X-18504D01*
X-29125Y-90512D02*
Y-65750D01*
X-32175Y-84550D02*
Y-71025D01*
X-27975Y-92275D02*
Y-83850D01*
X-30250Y-52425D02*
Y-51425D01*
X-31700Y-49975D02*
X-30250Y-51425D01*
X-31700Y-49975D02*
Y-48425D01*
X-32525Y-49610D02*
X-30750Y-51385D01*
X-32525Y-49610D02*
Y-48425D01*
X-30750Y-52425D02*
Y-51385D01*
X-31250Y-52425D02*
Y-51375D01*
X-33100Y-49525D02*
X-31250Y-51375D01*
X-31750Y-52425D02*
Y-51400D01*
X-32244Y-50906D02*
X-31750Y-51400D01*
X-27250Y-52425D02*
Y-51450D01*
X-28250Y-52425D02*
Y-51427D01*
X-32250Y-53703D02*
Y-52425D01*
X-32750Y-54225D02*
Y-52425D01*
X-33250Y-55750D02*
Y-52425D01*
X-33750Y-56250D02*
Y-52425D01*
X-20300Y-31675D02*
Y-30650D01*
Y-36400D02*
Y-35375D01*
X-5660Y-40200D02*
X-4430Y-41430D01*
X-8225Y-40200D02*
X-5660D01*
X-7970Y-41430D02*
X-6970D01*
X-27575Y-20725D02*
X-25025Y-18175D01*
X-26325Y-21800D02*
Y-20125D01*
X-25675Y-21850D02*
Y-20125D01*
X-28900Y-27900D02*
Y-26950D01*
X-45675Y-37500D02*
Y-35900D01*
X-15275Y-57750D02*
X-14525Y-58500D01*
X-24425Y-57250D02*
X-14400D01*
X-15225Y-34175D02*
X-7970Y-41430D01*
X-20300Y-34175D02*
X-15225D01*
X-30150Y-11900D02*
Y-9850D01*
X-32525Y-14275D02*
X-30150Y-11900D01*
X-37675Y-14275D02*
X-32525D01*
X-33725Y-49800D02*
Y-48425D01*
Y-49800D02*
X-32619Y-50906D01*
X-32244D01*
X-12600Y-9575D02*
X-11950D01*
X-11300D01*
Y-8625D02*
X-10700Y-9225D01*
X-26325Y-21800D02*
X-25875Y-22250D01*
X-25675Y-21850D02*
X-25475Y-22050D01*
X-19775Y-22625D02*
Y-19475D01*
X-21675Y-24150D02*
X-19625Y-26200D01*
X-21675Y-24150D02*
Y-19200D01*
X-23625Y-17250D02*
X-21675Y-19200D01*
X-22575Y-25800D02*
X-22175Y-26200D01*
X-22575Y-25800D02*
Y-20600D01*
X-23700Y-19475D02*
X-22575Y-20600D01*
X-22100Y-25000D02*
X-20900Y-26200D01*
X-22100Y-25000D02*
Y-20450D01*
X-23725Y-18825D02*
X-22100Y-20450D01*
X-25875Y-28600D02*
Y-22250D01*
Y-28600D02*
X-20300Y-34175D01*
X-25475Y-28500D02*
Y-22050D01*
Y-28500D02*
X-21100Y-32875D01*
X-20300D01*
X-19575Y-33600D01*
X-14825D01*
X-8225Y-40200D01*
X-18250Y-56250D02*
X-17550Y-55550D01*
Y-46200D01*
X-26775Y-36975D02*
X-17550Y-46200D01*
X-26300Y-36800D02*
Y-29550D01*
Y-36800D02*
X-17046Y-46054D01*
Y-55671D02*
Y-46054D01*
X-35625Y-58300D02*
X-35575Y-58250D01*
X-36375Y-58300D02*
X-35625D01*
X-36825Y-58750D02*
X-36375Y-58300D01*
X-35575Y-59250D02*
X-33900D01*
X-33400Y-58750D01*
X-35575D02*
X-34650D01*
X-34575Y-56250D02*
X-34025Y-56800D01*
X-35575Y-56250D02*
X-34575D01*
X-34025Y-56800D02*
X-32525D01*
X-34650Y-58750D02*
X-34375Y-58475D01*
Y-57763D01*
X-34340Y-57728D01*
X-35575Y-56750D02*
X-34575D01*
X-33950Y-57375D01*
X-33200D01*
X-35575Y-61250D02*
X-34600D01*
X-33100Y-59750D01*
X-25673Y-65675D02*
X-25601Y-65603D01*
X-27250Y-64550D02*
X-26125Y-65675D01*
X-25673D01*
X-28250Y-51427D02*
X-27250Y-50427D01*
X-26900Y-48500D02*
X-26375Y-49025D01*
X-27250Y-51450D02*
X-26375Y-50575D01*
Y-49025D01*
X-27250Y-50427D02*
Y-50100D01*
X-24925Y-10675D02*
X-24075D01*
X-49525Y-7253D02*
X-49100Y-7678D01*
X-49525Y-7253D02*
Y-6825D01*
X-49734Y-6616D02*
X-49525Y-6825D01*
X-29250Y-22050D02*
Y-19525D01*
X-30362Y-20038D02*
X-25600Y-15275D01*
X-23125D01*
X-21800Y-13950D01*
X-29250Y-19525D02*
X-25375Y-15650D01*
X-21775D01*
X-21200Y-15075D01*
X-20575Y-23975D02*
X-18350Y-26200D01*
X-20575Y-23975D02*
Y-19675D01*
X-23625Y-16625D02*
X-20575Y-19675D01*
X-20225Y-19025D02*
X-19775Y-19475D01*
X-28250Y-64600D02*
X-26725Y-66125D01*
Y-73225D02*
Y-66125D01*
X-26190Y-93030D02*
Y-66160D01*
X-27750Y-64600D02*
X-26190Y-66160D01*
X-40350Y-14800D02*
X-32250D01*
X-29650Y-12200D01*
X-2800Y-12250D02*
X-2800Y-12250D01*
X-15525Y-19225D02*
X-8550Y-12250D01*
X-2800D01*
X-40525Y-70725D02*
Y-69625D01*
X-41675Y-70725D02*
X-40525D01*
X-27795Y-97175D02*
X-26190Y-95570D01*
X-40150Y-96525D02*
X-39500Y-97175D01*
X-27795D01*
X-40150Y-96525D02*
Y-72300D01*
X-40525Y-71925D02*
X-40150Y-72300D01*
X-30750Y-64650D02*
X-29625Y-65775D01*
Y-91275D02*
Y-78275D01*
Y-65775D01*
X-23100Y-9800D02*
X-21911D01*
X-23125Y-9825D02*
X-23050Y-9900D01*
X-21124Y-8975D02*
X-20811Y-9288D01*
Y-9800D02*
Y-9288D01*
Y-11498D02*
X-20225Y-12084D01*
X-20811Y-11498D02*
Y-10700D01*
X-20225Y-19025D02*
Y-12084D01*
X-23125Y-10675D02*
X-21836D01*
X-21800Y-13950D02*
Y-9900D01*
X-34439Y-88214D02*
X-34290D01*
X-35850Y-68825D02*
X-33750Y-70925D01*
Y-89225D02*
Y-70925D01*
X-34439Y-88214D02*
X-34265Y-88040D01*
X-34290Y-88214D02*
Y-70985D01*
X-41925Y-63350D02*
X-34290Y-70985D01*
X-26775Y-36975D02*
Y-30550D01*
X-27575Y-29750D02*
X-26775Y-30550D01*
X-13945Y-56795D02*
Y-45380D01*
X-18350Y-40975D02*
X-13945Y-45380D01*
X-14525Y-55975D02*
Y-45925D01*
X-18875Y-41575D02*
X-14525Y-45925D01*
D36*
X-47850Y-20913D02*
Y-9928D01*
X-48230Y-21070D02*
Y-9885D01*
X-47850Y-20913D02*
X-19820Y-48943D01*
X-48230Y-21070D02*
X-20200Y-49100D01*
X-19820Y-54632D02*
Y-48943D01*
X-20200Y-54475D02*
Y-49100D01*
X-20878Y-55690D02*
X-19820Y-54632D01*
X-21035Y-55310D02*
X-20200Y-54475D01*
X-23435Y-55690D02*
X-20878D01*
X-23435Y-55310D02*
X-21035D01*
X-47850Y-9928D02*
X-47300Y-9378D01*
X-48737D02*
X-48230Y-9885D01*
X-47828Y-8865D02*
Y-6020D01*
X-48208Y-8864D02*
Y-6177D01*
X-47828Y-8865D02*
X-47315Y-9378D01*
X-48336Y-6049D02*
Y-5248D01*
Y-6049D02*
X-48208Y-6177D01*
X-48723Y-9378D02*
X-48208Y-8864D01*
X-47879Y-5969D02*
Y-5245D01*
Y-5969D02*
X-47828Y-6020D01*
X-47879Y-5245D02*
X-47784Y-5150D01*
X-48434D02*
X-48336Y-5248D01*
X-47315Y-9378D02*
X-47000D01*
X-49100D02*
X-48723D01*
X-49100D02*
X-48737D01*
X-47300D02*
X-47000D01*
X-24425Y-55250D02*
X-23495D01*
X-23435Y-55310D01*
X-23495Y-55750D02*
X-23435Y-55690D01*
X-24425Y-55750D02*
X-23495D01*
X-19150Y-17400D02*
Y-17137D01*
X-14650Y-9300D02*
X-14300D01*
X-15150Y-9800D02*
X-14650Y-9300D01*
X-15150Y-13137D02*
Y-9800D01*
X-19600Y-17050D02*
X-15530Y-12980D01*
X-16050Y-9300D02*
X-15530Y-9820D01*
Y-12980D02*
Y-9820D01*
X-19150Y-17137D02*
X-15150Y-13137D01*
X-16400Y-9300D02*
X-16050D01*
X-19600Y-18200D02*
Y-17050D01*
D37*
X-22567Y-61976D02*
X-21742D01*
X-22650Y-61893D02*
X-22567Y-61976D01*
X-22650Y-61893D02*
Y-61625D01*
X-23025Y-61250D02*
X-22650Y-61625D01*
X-24425Y-61250D02*
X-23025D01*
X-23762Y-62725D02*
X-22650D01*
X-24425Y-62062D02*
X-23762Y-62725D01*
X-24425Y-62062D02*
Y-61750D01*
X-50575Y-89950D02*
Y-50990D01*
X-41200Y-66250D02*
X-37575Y-69875D01*
X-43450Y-66250D02*
X-41200D01*
X-44935Y-64765D02*
X-43450Y-66250D01*
X-40975Y-65375D02*
X-35250Y-71100D01*
X-42825Y-65375D02*
X-40975D01*
X-37575Y-71400D02*
Y-69875D01*
X-38890Y-70800D02*
Y-69785D01*
X-41625Y-67050D02*
X-38890Y-69785D01*
X-45825Y-67050D02*
X-41625D01*
X-46205Y-67430D02*
X-45825Y-67050D01*
X-31000Y-66350D02*
Y-65575D01*
X-32100Y-66325D02*
Y-65575D01*
X-31250Y-64900D02*
Y-63575D01*
X-31000Y-65575D02*
Y-65150D01*
X-31250Y-64900D02*
X-31000Y-65150D01*
X-32100Y-65575D02*
Y-65125D01*
X-31750Y-64775D01*
Y-63575D01*
X-46250Y-11150D02*
X-45300D01*
X-34150Y-13225D02*
Y-12000D01*
X-26475Y-64800D02*
X-25600D01*
X-39700Y-57975D02*
X-39699Y-57973D01*
X-38450D01*
X-37398D01*
X-37225Y-57800D01*
X-37175Y-57750D01*
X-38326Y-56700D02*
X-37225D01*
X-39950Y-58225D02*
X-39700Y-57975D01*
X-40725Y-58225D02*
X-39950D01*
X-39950Y-56825D02*
X-39700Y-56575D01*
X-40675Y-56825D02*
X-39950D01*
X-26750Y-64525D02*
X-26475Y-64800D01*
X-38775Y-54375D02*
X-37825D01*
X-37450Y-54750D01*
X-35575D01*
X-37250Y-54250D02*
X-35575D01*
X-37725Y-53775D02*
X-37250Y-54250D01*
X-37725Y-53775D02*
Y-50650D01*
X-37175Y-57750D02*
X-35575D01*
X-29125Y-1525D02*
X-28150D01*
X-28000Y-1675D01*
Y-2150D02*
Y-1675D01*
X-40725Y-58225D02*
X-40725Y-58225D01*
X-34500Y-12350D02*
X-34150Y-12000D01*
X-35475Y-12350D02*
X-34500D01*
X-35675Y-12550D02*
X-35475Y-12350D01*
X-38000Y-50375D02*
X-37725Y-50650D01*
X-38775Y-52375D02*
Y-51475D01*
Y-53275D02*
Y-52375D01*
X-40475Y-50375D02*
X-40475Y-50375D01*
X-38775D01*
X-38000D01*
X-41925Y-54375D02*
Y-53425D01*
X-41475Y-52975D01*
X-40475D01*
X-40225Y-54375D02*
X-38775D01*
X-38775Y-54375D01*
X-31000Y-7650D02*
Y-2150D01*
X-8756Y-1518D02*
X-7600D01*
X-6470D01*
X-31000Y-2150D02*
X-30900Y-2050D01*
Y-1425D01*
X-30800Y-1525D01*
X-31000Y-9700D02*
Y-7650D01*
X-31150Y-9850D02*
X-31000Y-9700D01*
X-28000Y-7650D02*
Y-2150D01*
X-16050Y-9250D02*
X-15550Y-8750D01*
X-15614Y-6700D02*
Y-5672D01*
X-15550Y-8750D02*
Y-6764D01*
X-15614Y-6700D02*
X-15550Y-6764D01*
X-15150Y-8750D02*
Y-6761D01*
X-14964Y-6575D01*
Y-5672D01*
X-15150Y-8750D02*
X-14500Y-9400D01*
X-26750Y-64525D02*
Y-63575D01*
X-36525Y-57250D02*
X-35575D01*
X-37225Y-56700D02*
X-36975Y-56950D01*
X-36825D01*
X-36525Y-57250D01*
X-22700Y-53675D02*
Y-53300D01*
X-24425Y-54750D02*
X-22950D01*
X-30075Y-49225D02*
Y-48200D01*
X-28975Y-49225D02*
Y-48225D01*
X-30075Y-50600D02*
Y-50325D01*
X-28750Y-52425D02*
Y-51450D01*
X-28126Y-50826D01*
Y-50427D01*
X-27750Y-52425D02*
Y-51405D01*
X-31000Y-49925D02*
X-30600Y-50325D01*
X-30075D01*
X-24425Y-54250D02*
X-23675D01*
X-23100Y-53675D01*
X-22700D01*
X-28900Y-37100D02*
Y-27900D01*
X-45675Y-41010D02*
Y-38700D01*
Y-43550D02*
X-42300D01*
X-34400Y-51450D01*
X-34675Y-55750D02*
X-34400Y-55475D01*
X-35575Y-55750D02*
X-34675D01*
X-34400Y-55475D02*
Y-51450D01*
X-50575Y-50990D02*
X-45675Y-46090D01*
X-32350Y-40900D02*
X-25413Y-47838D01*
X-26250Y-51487D02*
X-25413Y-50650D01*
Y-47838D01*
X-26250Y-52425D02*
Y-51487D01*
X-26750Y-52425D02*
Y-51460D01*
X-25850Y-58450D02*
X-25550Y-58750D01*
X-24425D01*
X-25850Y-58450D02*
Y-54025D01*
X-24950Y-53125D01*
Y-47450D01*
X-30775Y-41625D02*
X-24950Y-47450D01*
X-28900Y-37100D02*
X-23000Y-43000D01*
X-32050Y-13200D02*
Y-12000D01*
X-32600Y-13750D02*
X-32050Y-13200D01*
X-36175Y-13750D02*
X-32600D01*
X-33425Y-17025D02*
X-30300D01*
X-29350Y-16075D01*
X-22700Y-53300D02*
X-21975D01*
X-21562Y-53713D01*
X-33050Y-41450D02*
X-25950Y-48550D01*
X-26750Y-51460D02*
X-25950Y-50660D01*
Y-48550D01*
X-27675Y-48525D02*
X-26700Y-49500D01*
X-27750Y-51405D02*
X-26700Y-50355D01*
Y-49500D01*
X-22950Y-54750D02*
X-22700Y-54500D01*
Y-54400D02*
X-21900D01*
X-12700Y-8725D02*
Y-8625D01*
X-47475Y-70725D02*
Y-68800D01*
X-44935Y-70725D02*
Y-68800D01*
X-46205Y-63212D02*
Y-61250D01*
X-43665Y-70590D02*
Y-68800D01*
X-47475Y-71925D02*
X-46200D01*
X-44935D01*
X-46205Y-68800D02*
Y-67430D01*
X-44935Y-64765D02*
Y-63212D01*
X-43665Y-64535D02*
Y-63212D01*
Y-64535D02*
X-42825Y-65375D01*
X-43400Y-73650D02*
X-41675Y-71925D01*
X-48100Y-73650D02*
X-43400D01*
X-48600Y-73150D02*
X-48100Y-73650D01*
X-48600Y-73150D02*
Y-71150D01*
X-48175Y-70725D01*
X-47475D01*
X-50575Y-89950D02*
X-42550Y-97975D01*
X-23515D01*
X-21110Y-95570D01*
X-47475Y-63212D02*
Y-61200D01*
X-46940Y-60785D02*
X-46205Y-60050D01*
X-47175Y-60785D02*
X-46940D01*
X-47475Y-61085D02*
X-47175Y-60785D01*
X-47475Y-61200D02*
Y-61085D01*
X-48424Y-61200D02*
X-47475D01*
X-48400Y-60100D02*
X-47475D01*
X-46205Y-61250D02*
X-45175D01*
X-46150Y-70725D02*
X-44935D01*
X-39077Y-57228D02*
X-38420D01*
Y-56606D01*
X-38450Y-56576D02*
X-38420Y-56606D01*
X-38326Y-56700D01*
D38*
X-32400Y-4500D02*
Y-4465D01*
X-10475Y-11425D02*
X-10305D01*
X-17401Y-7494D02*
X-17237Y-7475D01*
X-19025Y-7500D02*
X-19000D01*
X-35000Y-2150D02*
X-34125D01*
X-30800Y-1525D02*
X-30075D01*
X-17237Y-7475D02*
X-17237Y-7475D01*
X-20886Y-26200D02*
X-20875D01*
X-52100Y-7478D02*
X-50475D01*
D39*
X-29250Y-52425D02*
Y-50850D01*
X-28975Y-50575D01*
Y-50325D01*
X-30075Y-50600D02*
X-29750Y-50925D01*
Y-52425D02*
Y-50925D01*
X-28975Y-50325D02*
Y-50000D01*
X-28550D01*
X-28150Y-49600D01*
D40*
X-11200Y-6725D02*
X-11200Y-6725D01*
D41*
X-47134Y-7344D02*
Y-5150D01*
Y-7344D02*
X-47000Y-7478D01*
X-43922D02*
X-43150Y-8250D01*
Y-13425D02*
Y-8250D01*
Y-13425D02*
X-40625Y-15950D01*
X-31750D01*
X-47000Y-7478D02*
X-43922D01*
X-31750Y-15950D02*
X-27250Y-11450D01*
X-23175D01*
X-14300Y-7400D02*
Y-5150D01*
X-12600Y-8625D02*
Y-7500D01*
X-11200Y-7500D02*
Y-6725D01*
Y-7500D02*
X-11200Y-7500D01*
Y-8525D02*
Y-7500D01*
X-11300Y-8625D02*
X-11200Y-8525D01*
X-14300Y-7400D02*
X-13350D01*
X-12700D01*
D42*
X-41075Y-54375D02*
D03*
D43*
X-45675Y-46090D02*
D03*
X-6970Y-13490D02*
D03*
Y-28730D02*
D03*
Y-64290D02*
D03*
D44*
X-45675Y-43550D02*
D03*
Y-41010D02*
D03*
X-4430Y-13490D02*
D03*
Y-16030D02*
D03*
X-6970D02*
D03*
X-4430Y-38890D02*
D03*
Y-28730D02*
D03*
Y-31270D02*
D03*
X-6970D02*
D03*
X-4430Y-33810D02*
D03*
X-6970D02*
D03*
X-4430Y-36350D02*
D03*
X-6970D02*
D03*
Y-38890D02*
D03*
Y-51590D02*
D03*
Y-49050D02*
D03*
X-4430D02*
D03*
X-6970Y-46510D02*
D03*
X-4430D02*
D03*
X-6970Y-43970D02*
D03*
X-4430D02*
D03*
Y-41430D02*
D03*
X-6970D02*
D03*
X-4430Y-51590D02*
D03*
Y-74450D02*
D03*
Y-64290D02*
D03*
Y-66830D02*
D03*
X-6970D02*
D03*
X-4430Y-69370D02*
D03*
X-6970D02*
D03*
X-4430Y-71910D02*
D03*
X-6970D02*
D03*
Y-74450D02*
D03*
Y-87150D02*
D03*
Y-84610D02*
D03*
X-4430D02*
D03*
X-6970Y-82070D02*
D03*
X-4430D02*
D03*
X-6970Y-79530D02*
D03*
X-4430D02*
D03*
Y-76990D02*
D03*
X-6970D02*
D03*
X-4430Y-87150D02*
D03*
X-41430Y-95570D02*
D03*
X-31270Y-93030D02*
D03*
Y-95570D02*
D03*
X-33810D02*
D03*
Y-93030D02*
D03*
X-36350Y-95570D02*
D03*
Y-93030D02*
D03*
X-38890Y-95570D02*
D03*
Y-93030D02*
D03*
X-41430D02*
D03*
X-28730D02*
D03*
X-26190D02*
D03*
Y-95570D02*
D03*
X-23650Y-93030D02*
D03*
Y-95570D02*
D03*
X-21110Y-93030D02*
D03*
Y-95570D02*
D03*
X-18570D02*
D03*
X-28730D02*
D03*
D45*
X-41270Y-10950D02*
D03*
X-38730D02*
D03*
X-18570Y-93030D02*
D03*
D46*
X-57650Y-97650D02*
D03*
X-2350D02*
D03*
X-57650Y-2350D02*
D03*
X-2350D02*
D03*
D47*
X-23546Y-29159D02*
D03*
X-21742Y-61976D02*
D03*
X-23762Y-62725D02*
D03*
X-28575Y-69275D02*
D03*
X-27950Y-68600D02*
D03*
X-32500Y-67875D02*
D03*
X-32475Y-67000D02*
D03*
X-31000Y-66350D02*
D03*
X-32100Y-66325D02*
D03*
X-44300Y-9950D02*
D03*
X-46250Y-11150D02*
D03*
X-30675Y-10950D02*
D03*
X-29325Y-10375D02*
D03*
X-28987Y-11438D02*
D03*
X-34150Y-13225D02*
D03*
X-36062Y-8538D02*
D03*
X-22975Y-8975D02*
D03*
X-32390Y-5865D02*
D03*
X-33190Y-5165D02*
D03*
X-14825Y-16325D02*
D03*
X-21200Y-15075D02*
D03*
X-16100Y-16425D02*
D03*
X-49084Y-6384D02*
D03*
X-24500Y-14375D02*
D03*
X-19775Y-22625D02*
D03*
X-26300Y-29550D02*
D03*
X-27575Y-29750D02*
D03*
X-25600Y-64800D02*
D03*
X-33425Y-17025D02*
D03*
X-33750Y-89225D02*
D03*
X-29125Y-90512D02*
D03*
X-27425Y-84550D02*
D03*
X-18875Y-41575D02*
D03*
X-18350Y-40975D02*
D03*
X-25575Y-63575D02*
D03*
X-29100Y-25525D02*
D03*
X-30675Y-75725D02*
D03*
X-46725Y-53675D02*
D03*
Y-49675D02*
D03*
X-22425Y-71400D02*
D03*
X-37575D02*
D03*
X-26725Y-73225D02*
D03*
X-21750Y-72650D02*
D03*
X-16600Y-72025D02*
D03*
X-17225Y-70800D02*
D03*
X-27350Y-74450D02*
D03*
X-36850Y-60750D02*
D03*
X-17025Y-25100D02*
D03*
X-29125Y-1525D02*
D03*
X-40725Y-58225D02*
D03*
X-13350Y-7400D02*
D03*
X-29850Y-20250D02*
D03*
X-26550Y-25500D02*
D03*
X-40675Y-56825D02*
D03*
X-38775Y-52375D02*
D03*
X-13725Y-3875D02*
D03*
X-33900Y-20000D02*
D03*
X-17800Y-19100D02*
D03*
X-4550Y-9800D02*
D03*
X-3875Y-7025D02*
D03*
X-33290Y-7665D02*
D03*
X-32390Y-8465D02*
D03*
Y-6865D02*
D03*
Y-4465D02*
D03*
X-4900Y-25200D02*
D03*
Y-26500D02*
D03*
X-7600Y-1518D02*
D03*
X-11450Y-12650D02*
D03*
X-11100Y-16100D02*
D03*
X-40500Y-1500D02*
D03*
X-11200Y-6725D02*
D03*
X-17400Y-7500D02*
D03*
X-10800Y-5675D02*
D03*
X-34125Y-2150D02*
D03*
X-4900Y-23900D02*
D03*
X-24925Y-1500D02*
D03*
X-30075Y-1525D02*
D03*
X-10325Y-11450D02*
D03*
X-25375Y-3400D02*
D03*
X-27425Y-4225D02*
D03*
X-26925Y-6750D02*
D03*
Y-7975D02*
D03*
X-2800Y-12250D02*
D03*
X-6350Y-10050D02*
D03*
Y-8750D02*
D03*
X-1200Y-7250D02*
D03*
X-16125Y-20275D02*
D03*
X-11950Y-9575D02*
D03*
X-22100Y-15100D02*
D03*
X-30875Y-23175D02*
D03*
X-24900Y-24825D02*
D03*
X-26800Y-15100D02*
D03*
X-32975Y-18900D02*
D03*
X-22175Y-26200D02*
D03*
X-20900Y-26200D02*
D03*
X-19625D02*
D03*
X-27575Y-26175D02*
D03*
X-30775Y-26175D02*
D03*
X-18350Y-26200D02*
D03*
X-29350Y-16075D02*
D03*
X-35325Y-9950D02*
D03*
X-775Y-11100D02*
D03*
X-36875Y-61750D02*
D03*
X-36850Y-59750D02*
D03*
X-23550Y-27625D02*
D03*
X-38890Y-70800D02*
D03*
X-36350Y-72025D02*
D03*
X-35250Y-72650D02*
D03*
X-31270Y-77000D02*
D03*
X-34350Y-60250D02*
D03*
X-50475Y-7478D02*
D03*
X-46101Y-3962D02*
D03*
X-22700Y-6975D02*
D03*
Y-3500D02*
D03*
X-21800Y-7825D02*
D03*
X-29120Y-79530D02*
D03*
X-32175Y-84550D02*
D03*
X-32900Y-83850D02*
D03*
X-27975D02*
D03*
X-31700Y-48425D02*
D03*
X-32525D02*
D03*
X-33725Y-48425D02*
D03*
X-33100Y-49525D02*
D03*
X-30075Y-48200D02*
D03*
X-28975Y-48225D02*
D03*
X-28126Y-50427D02*
D03*
X-32750Y-54225D02*
D03*
X-31000Y-49925D02*
D03*
X-28150Y-49600D02*
D03*
X-32250Y-53703D02*
D03*
X-20300Y-30650D02*
D03*
Y-36400D02*
D03*
X-28900Y-27900D02*
D03*
X-23000Y-43000D02*
D03*
X-39077Y-57228D02*
D03*
X-45675Y-35900D02*
D03*
X-27675Y-48525D02*
D03*
X-26900Y-48500D02*
D03*
X-33050Y-41450D02*
D03*
X-32350Y-40900D02*
D03*
X-30775Y-41625D02*
D03*
X-14525Y-58500D02*
D03*
Y-55975D02*
D03*
X-36175Y-13750D02*
D03*
X-23175Y-11450D02*
D03*
X-37675Y-14275D02*
D03*
X-31525Y-21425D02*
D03*
X-29250Y-22050D02*
D03*
X-21100Y-21425D02*
D03*
X-18525Y-21300D02*
D03*
X-36825Y-58750D02*
D03*
X-33400D02*
D03*
X-33750Y-56250D02*
D03*
X-33250Y-55750D02*
D03*
X-32525Y-56800D02*
D03*
X-21562Y-53713D02*
D03*
X-33200Y-57375D02*
D03*
X-34340Y-57728D02*
D03*
X-33100Y-59750D02*
D03*
X-25601Y-65603D02*
D03*
X-27250Y-50100D02*
D03*
X-24925Y-10675D02*
D03*
X-46025Y-7475D02*
D03*
X-21900Y-54400D02*
D03*
X-40350Y-14800D02*
D03*
X-43665Y-70590D02*
D03*
X-46200Y-71925D02*
D03*
X-40525Y-69625D02*
D03*
X-29625Y-78275D02*
D03*
Y-91275D02*
D03*
X-48424Y-61200D02*
D03*
X-48400Y-60100D02*
D03*
X-48600Y-71150D02*
D03*
X-45175Y-61250D02*
D03*
X-46150Y-70725D02*
D03*
X-34290Y-88214D02*
D03*
D48*
X-19150Y-17400D02*
D03*
X-25025Y-20125D02*
D03*
X-26975Y-18825D02*
D03*
X-25025Y-20775D02*
D03*
X-23625Y-17250D02*
D03*
Y-16625D02*
D03*
X-25025Y-21425D02*
D03*
X-25025Y-19475D02*
D03*
X-26325Y-20125D02*
D03*
X-24375Y-20775D02*
D03*
X-19600Y-18200D02*
D03*
X-24375Y-22725D02*
D03*
X-25025Y-18175D02*
D03*
X-25675D02*
D03*
X-25675Y-20125D02*
D03*
X-26325Y-22725D02*
D03*
X-23075Y-18825D02*
D03*
X-23725Y-18825D02*
D03*
X-23075Y-22075D02*
D03*
X-23075Y-21425D02*
D03*
M02*
