%FSLAX43Y43*%
%MOMM*%
G71*
G01*
G75*
G04 Layer_Color=16711935*
%ADD10R,1.000X0.950*%
%ADD11R,2.300X1.900*%
%ADD12R,0.400X1.400*%
%ADD13R,1.775X1.900*%
%ADD14R,0.610X2.032*%
%ADD15O,0.610X2.032*%
%ADD16R,1.000X2.250*%
%ADD17R,1.600X1.000*%
%ADD18R,2.500X3.000*%
%ADD19O,1.650X0.300*%
%ADD20O,0.300X1.650*%
%ADD21R,1.200X1.200*%
%ADD22R,1.100X0.600*%
%ADD23R,1.100X1.000*%
%ADD24R,0.700X0.700*%
%ADD25R,0.600X0.550*%
%ADD26R,0.650X0.800*%
%ADD27R,0.650X0.500*%
%ADD28R,0.762X0.762*%
%ADD29R,0.600X0.900*%
%ADD30R,0.550X0.600*%
%ADD31R,0.500X0.650*%
%ADD32R,0.700X0.700*%
%ADD33R,0.900X0.600*%
%ADD34R,1.200X1.200*%
%ADD35C,0.175*%
%ADD36C,0.180*%
%ADD37C,0.200*%
%ADD38C,0.125*%
%ADD39C,0.250*%
%ADD40C,0.400*%
%ADD41C,0.300*%
%ADD42R,0.900X0.300*%
%ADD43R,1.700X1.700*%
%ADD44C,1.700*%
%ADD45R,1.700X1.700*%
%ADD46C,3.600*%
%ADD47C,0.550*%
%ADD48C,0.400*%
%ADD49C,0.500*%
%ADD50C,1.600*%
G04:AMPARAMS|DCode=51|XSize=2.524mm|YSize=2.524mm|CornerRadius=0mm|HoleSize=0mm|Usage=FLASHONLY|Rotation=0.000|XOffset=0mm|YOffset=0mm|HoleType=Round|Shape=Relief|Width=0.254mm|Gap=0.254mm|Entries=4|*
%AMTHD51*
7,0,0,2.524,2.016,0.254,45*
%
%ADD51THD51*%
%ADD52C,0.850*%
%ADD53C,0.800*%
%ADD54C,0.350*%
%ADD55C,3.300*%
%ADD56C,1.270*%
%ADD57R,1.300X1.600*%
%ADD58R,0.600X0.250*%
%ADD59R,1.600X1.500*%
%ADD60C,0.280*%
%ADD61R,1.700X0.350*%
%ADD62R,0.600X1.300*%
%ADD63R,0.350X0.850*%
%ADD64R,0.950X1.750*%
%ADD65R,0.800X0.650*%
%ADD66R,1.300X0.600*%
%ADD67C,0.800*%
%ADD68C,0.150*%
%ADD69C,0.102*%
%ADD70C,0.254*%
%ADD71C,0.600*%
%ADD72C,0.100*%
%ADD73R,2.100X2.100*%
%ADD74R,2.100X2.100*%
%ADD75R,1.700X1.700*%
%ADD76R,0.900X0.510*%
%ADD77R,1.100X1.050*%
%ADD78R,2.400X2.000*%
%ADD79R,0.500X1.500*%
%ADD80R,1.875X2.000*%
%ADD81R,0.710X2.132*%
%ADD82O,0.710X2.132*%
%ADD83R,1.100X2.350*%
%ADD84R,1.700X1.100*%
%ADD85R,2.600X3.100*%
%ADD86O,1.750X0.400*%
%ADD87O,0.400X1.750*%
%ADD88R,1.300X1.300*%
%ADD89R,1.200X0.700*%
%ADD90R,1.200X1.100*%
%ADD91R,0.800X0.800*%
%ADD92R,0.700X0.650*%
%ADD93R,0.750X0.900*%
%ADD94R,0.750X0.600*%
%ADD95R,0.862X0.862*%
%ADD96R,0.700X1.000*%
%ADD97R,0.650X0.700*%
%ADD98R,0.600X0.750*%
%ADD99R,0.800X0.800*%
%ADD100R,1.000X0.700*%
%ADD101R,1.300X1.300*%
%ADD102R,1.800X1.800*%
%ADD103C,1.800*%
%ADD104R,1.800X1.800*%
%ADD105C,3.700*%
%ADD106C,1.370*%
%ADD107R,1.400X1.700*%
%ADD108R,0.700X0.350*%
%ADD109R,1.700X1.600*%
%ADD110C,0.380*%
%ADD111R,1.800X0.450*%
%ADD112R,0.700X1.400*%
%ADD113R,0.450X0.950*%
%ADD114R,1.050X1.850*%
%ADD115R,0.900X0.750*%
%ADD116R,1.400X0.700*%
%ADD117C,0.900*%
D91*
X-32775Y-20000D02*
D03*
X-31375D02*
D03*
D93*
X-5200Y-8600D02*
D03*
Y-9800D02*
D03*
X-1200Y-9800D02*
D03*
Y-8600D02*
D03*
X-11800Y-16100D02*
D03*
Y-14900D02*
D03*
X-17100Y-11700D02*
D03*
Y-10500D02*
D03*
X-27575Y-27375D02*
D03*
Y-28575D02*
D03*
X-22175Y-27400D02*
D03*
Y-28600D02*
D03*
X-20900Y-27400D02*
D03*
Y-28600D02*
D03*
X-19625Y-27400D02*
D03*
Y-28600D02*
D03*
X-18350Y-27400D02*
D03*
Y-28600D02*
D03*
X-30775Y-28575D02*
D03*
Y-27375D02*
D03*
X-36600Y-10950D02*
D03*
Y-12150D02*
D03*
X-35325Y-12150D02*
D03*
Y-10950D02*
D03*
X-25600Y-11625D02*
D03*
Y-12825D02*
D03*
X-29600Y-12350D02*
D03*
Y-13550D02*
D03*
D94*
X-31200Y-18900D02*
D03*
X-32150D02*
D03*
X-25025Y-15100D02*
D03*
X-25975D02*
D03*
X-25025Y-16000D02*
D03*
X-25975D02*
D03*
X-23875Y-15100D02*
D03*
X-22925D02*
D03*
X-23875Y-16000D02*
D03*
X-22925D02*
D03*
X-20275Y-21300D02*
D03*
X-19325D02*
D03*
X-25850Y-25500D02*
D03*
X-24900D02*
D03*
X-25850Y-26400D02*
D03*
X-24900D02*
D03*
D95*
X-24425Y-5699D02*
D03*
Y-4301D02*
D03*
D97*
X-20300Y-16200D02*
D03*
Y-17200D02*
D03*
Y-19200D02*
D03*
Y-18200D02*
D03*
X-16900Y-17400D02*
D03*
Y-18400D02*
D03*
D98*
Y-22175D02*
D03*
Y-21225D02*
D03*
Y-19325D02*
D03*
Y-20275D02*
D03*
X-17800Y-17425D02*
D03*
Y-18375D02*
D03*
X-30000Y-21425D02*
D03*
Y-22375D02*
D03*
X-30875Y-21425D02*
D03*
Y-22375D02*
D03*
D100*
X-20700Y-3500D02*
D03*
X-21800D02*
D03*
X-20700Y-8500D02*
D03*
X-21800D02*
D03*
D102*
X-45675Y-46090D02*
D03*
X-6970Y-13490D02*
D03*
Y-28730D02*
D03*
Y-64290D02*
D03*
D103*
X-45675Y-43550D02*
D03*
Y-41010D02*
D03*
X-4430Y-13490D02*
D03*
Y-16030D02*
D03*
X-6970D02*
D03*
X-4430Y-38890D02*
D03*
Y-28730D02*
D03*
Y-31270D02*
D03*
X-6970D02*
D03*
X-4430Y-33810D02*
D03*
X-6970D02*
D03*
X-4430Y-36350D02*
D03*
X-6970D02*
D03*
Y-38890D02*
D03*
Y-51590D02*
D03*
Y-49050D02*
D03*
X-4430D02*
D03*
X-6970Y-46510D02*
D03*
X-4430D02*
D03*
X-6970Y-43970D02*
D03*
X-4430D02*
D03*
Y-41430D02*
D03*
X-6970D02*
D03*
X-4430Y-51590D02*
D03*
X-41270Y-10950D02*
D03*
X-38730D02*
D03*
X-4430Y-74450D02*
D03*
Y-64290D02*
D03*
Y-66830D02*
D03*
X-6970D02*
D03*
X-4430Y-69370D02*
D03*
X-6970D02*
D03*
X-4430Y-71910D02*
D03*
X-6970D02*
D03*
Y-74450D02*
D03*
Y-87150D02*
D03*
Y-84610D02*
D03*
X-4430D02*
D03*
X-6970Y-82070D02*
D03*
X-4430D02*
D03*
X-6970Y-79530D02*
D03*
X-4430D02*
D03*
Y-76990D02*
D03*
X-6970D02*
D03*
X-4430Y-87150D02*
D03*
X-41430Y-95570D02*
D03*
X-31270Y-93030D02*
D03*
Y-95570D02*
D03*
X-33810D02*
D03*
Y-93030D02*
D03*
X-36350Y-95570D02*
D03*
Y-93030D02*
D03*
X-38890Y-95570D02*
D03*
Y-93030D02*
D03*
X-41430D02*
D03*
X-28730D02*
D03*
X-26190D02*
D03*
Y-95570D02*
D03*
X-23650Y-93030D02*
D03*
Y-95570D02*
D03*
X-21110Y-93030D02*
D03*
Y-95570D02*
D03*
X-18570D02*
D03*
X-28730D02*
D03*
D104*
X-18570Y-93030D02*
D03*
D105*
X-57650Y-97650D02*
D03*
X-2350D02*
D03*
X-57650Y-2350D02*
D03*
X-2350D02*
D03*
D106*
X-26000Y-1500D02*
D03*
X-33000D02*
D03*
X-38600Y-7500D02*
D03*
Y-3500D02*
D03*
X-41600Y-7500D02*
D03*
X-38600Y-5500D02*
D03*
X-41600D02*
D03*
Y-3500D02*
D03*
X-38600Y-1500D02*
D03*
X-41600D02*
D03*
D107*
X-15400Y-22150D02*
D03*
Y-18350D02*
D03*
X-13100D02*
D03*
Y-22150D02*
D03*
D108*
X-28825Y-4650D02*
D03*
Y-5150D02*
D03*
Y-6150D02*
D03*
Y-5650D02*
D03*
X-26025D02*
D03*
Y-6150D02*
D03*
Y-5150D02*
D03*
Y-4650D02*
D03*
D109*
X-27425Y-5400D02*
D03*
D110*
X-22100Y-23700D02*
D03*
Y-23050D02*
D03*
Y-22400D02*
D03*
Y-21750D02*
D03*
Y-20450D02*
D03*
Y-19800D02*
D03*
Y-19150D02*
D03*
Y-21100D02*
D03*
X-22750D02*
D03*
X-23400D02*
D03*
X-24050D02*
D03*
X-24700D02*
D03*
X-25350D02*
D03*
X-26000D02*
D03*
X-26650D02*
D03*
X-27300D02*
D03*
X-27950D02*
D03*
X-22750Y-23700D02*
D03*
X-23400D02*
D03*
X-24050D02*
D03*
X-24700D02*
D03*
X-25350D02*
D03*
X-26000D02*
D03*
X-26650D02*
D03*
X-27300D02*
D03*
X-27950D02*
D03*
X-22750Y-23050D02*
D03*
X-23400D02*
D03*
X-24050D02*
D03*
X-24700D02*
D03*
X-25350D02*
D03*
X-26000D02*
D03*
X-26650D02*
D03*
X-27300D02*
D03*
X-27950D02*
D03*
X-22750Y-22400D02*
D03*
X-23400D02*
D03*
X-24050D02*
D03*
X-24700D02*
D03*
X-25350D02*
D03*
X-26000D02*
D03*
X-26650D02*
D03*
X-27300D02*
D03*
X-27950D02*
D03*
X-22750Y-21750D02*
D03*
X-23400D02*
D03*
X-24050D02*
D03*
X-24700D02*
D03*
X-25350D02*
D03*
X-26000D02*
D03*
X-26650D02*
D03*
X-27300D02*
D03*
X-27950D02*
D03*
X-22750Y-20450D02*
D03*
X-23400D02*
D03*
X-24050D02*
D03*
X-24700D02*
D03*
X-25350D02*
D03*
X-26000D02*
D03*
X-26650D02*
D03*
X-27300D02*
D03*
X-27950D02*
D03*
X-22750Y-19800D02*
D03*
X-23400D02*
D03*
X-24050D02*
D03*
X-24700D02*
D03*
X-25350D02*
D03*
X-26000D02*
D03*
X-26650D02*
D03*
X-27300D02*
D03*
X-27950D02*
D03*
X-22750Y-19150D02*
D03*
X-23400D02*
D03*
X-24050D02*
D03*
X-24700D02*
D03*
X-25350D02*
D03*
X-26000D02*
D03*
X-26650D02*
D03*
X-27300D02*
D03*
X-27950D02*
D03*
X-22100Y-18500D02*
D03*
X-22750D02*
D03*
X-23400D02*
D03*
X-24050D02*
D03*
X-24700D02*
D03*
X-25350D02*
D03*
X-26000D02*
D03*
X-26650D02*
D03*
X-27300D02*
D03*
X-27950D02*
D03*
X-22100Y-17850D02*
D03*
X-22750D02*
D03*
X-23400D02*
D03*
X-24050D02*
D03*
X-24700D02*
D03*
X-25350D02*
D03*
X-26000D02*
D03*
X-26650D02*
D03*
X-27300D02*
D03*
X-27950D02*
D03*
D111*
X-21350Y-6975D02*
D03*
Y-6325D02*
D03*
Y-5675D02*
D03*
Y-5025D02*
D03*
X-15650Y-6975D02*
D03*
Y-6325D02*
D03*
Y-5675D02*
D03*
Y-5025D02*
D03*
D112*
X-24125Y-11425D02*
D03*
X-22225D02*
D03*
X-23175Y-13525D02*
D03*
X-20575Y-11425D02*
D03*
X-18675D02*
D03*
X-19625Y-13525D02*
D03*
D113*
X-26975Y-13550D02*
D03*
X-27625D02*
D03*
X-28275D02*
D03*
Y-11700D02*
D03*
X-27625D02*
D03*
X-26975D02*
D03*
X-3875Y-9725D02*
D03*
X-3225D02*
D03*
X-2575D02*
D03*
Y-7875D02*
D03*
X-3225D02*
D03*
X-3875D02*
D03*
D114*
X-25875Y-7975D02*
D03*
X-28825D02*
D03*
D115*
X-20675Y-9775D02*
D03*
X-21875D02*
D03*
X-17900Y-3500D02*
D03*
X-19100D02*
D03*
X-15550Y-8500D02*
D03*
X-16750D02*
D03*
X-32390Y-7665D02*
D03*
X-31190D02*
D03*
X-1600Y-11100D02*
D03*
X-2800D02*
D03*
X-4100D02*
D03*
X-5300D02*
D03*
X-7000Y-26500D02*
D03*
X-5800D02*
D03*
X-7000Y-25200D02*
D03*
X-5800D02*
D03*
X-7000Y-23900D02*
D03*
X-5800D02*
D03*
X-31190Y-5165D02*
D03*
X-32390D02*
D03*
X-14000Y-8500D02*
D03*
X-12800D02*
D03*
X-27475Y-3400D02*
D03*
X-26275D02*
D03*
X-30000D02*
D03*
X-28800D02*
D03*
X-27025Y-10375D02*
D03*
X-28225D02*
D03*
D116*
X-15550Y-15000D02*
D03*
X-13450Y-15950D02*
D03*
Y-14050D02*
D03*
Y-11450D02*
D03*
X-15550Y-10500D02*
D03*
Y-12400D02*
D03*
X-9350Y-12400D02*
D03*
X-11450Y-11450D02*
D03*
Y-13350D02*
D03*
D117*
X-17100Y-12950D02*
D03*
X-17900Y-2300D02*
D03*
X-17950Y-8500D02*
D03*
X-14075Y-6325D02*
D03*
X-31200Y-3425D02*
D03*
X-28800Y-2275D02*
D03*
X-2575Y-6550D02*
D03*
X-4100Y-12025D02*
D03*
X-10475Y-14900D02*
D03*
X-25575Y-14100D02*
D03*
X-18900Y-19650D02*
D03*
X-27625Y-14825D02*
D03*
X-23575Y-9875D02*
D03*
X-21400Y-13825D02*
D03*
X-23546Y-29159D02*
D03*
X-44300Y-9950D02*
D03*
X-34150Y-13225D02*
D03*
X-19775Y-22625D02*
D03*
X-26300Y-29550D02*
D03*
X-27575Y-29750D02*
D03*
X-33425Y-17025D02*
D03*
X-29100Y-25525D02*
D03*
X-40725Y-58225D02*
D03*
X-13350Y-7400D02*
D03*
X-29850Y-20250D02*
D03*
X-13725Y-3875D02*
D03*
X-2800Y-12250D02*
D03*
X-6350Y-10050D02*
D03*
Y-8750D02*
D03*
X-1200Y-7250D02*
D03*
X-22175Y-26200D02*
D03*
X-20900Y-26200D02*
D03*
X-19625D02*
D03*
X-27575Y-26175D02*
D03*
X-30775Y-26175D02*
D03*
X-18350Y-26200D02*
D03*
X-23550Y-27625D02*
D03*
X-46101Y-3962D02*
D03*
X-28150Y-49600D02*
D03*
X-28900Y-27900D02*
D03*
X-45675Y-35900D02*
D03*
X-46025Y-7475D02*
D03*
X-40525Y-69625D02*
D03*
X-48600Y-71150D02*
D03*
X-45175Y-61250D02*
D03*
X-46150Y-70725D02*
D03*
M02*
