M48
;GenerationSoftware,Autodesk,EAGLE,9.6.1*%
;CreationDate,2020-09-07T16:28:31Z*%
FMAT,2
ICI,OFF
METRIC,TZ,000.000
T7C0.152
T6C0.178
T5C0.254
T4C0.650
T3C1.250
T2C1.700
T1C4.191
%
G90
M71
T1
X34925Y3175
X3175Y3175
X34925Y43815
X3175Y43815
T2
X12183Y35839
X5183Y35839
T3
X22297Y45364
X31297Y45364
T4
X29022Y42239
X24572Y42239
T5
X1664Y33947
X9144Y40678
X9169Y39459
X8827Y38532
X7760Y40869
X34186Y20513
X26995Y37319
T6
X22746Y32245
X16472Y17932
X15621Y17399
X17602Y19495
X22708Y27470
X26962Y7252
X24409Y5575
X30899Y3861
X36335Y16688
X34430Y28753
X28524Y18644
X12306Y27038
X16192Y39218
X31966Y16408
X31026Y18872
X29667Y19355
X15761Y14237
X34582Y25514
X15659Y21844
X18352Y28232
X17805Y25895
X5690Y8903
X9639Y8001
X10262Y5258
X12700Y8915
X14999Y8763
X14961Y6375
X12281Y5982
X12700Y4636
X22708Y29375
X15405Y24752
X17043Y25146
X15481Y30353
X25235Y15481
X24828Y13144
X12865Y23876
X26352Y19444
X24930Y17704
X9144Y1410
X7239Y2680
X2159Y9665
X2159Y7125
X18098Y3175
X36970Y17323
X33541Y18771
X35471Y29007
X26911Y5677
X15519Y2908
X11773Y1651
X30988Y37884
X31902Y37414
X30721Y37363
X25578Y32931
X28550Y28511
X28029Y28905
X27711Y35814
X24181Y25997
X27089Y35674
X30620Y25121
X19431Y24828
X19939Y24892
X24282Y18415
X33655Y26035
X21768Y32779
X23749Y35700
X8509Y34430
X7874Y31890
X1524Y40145
X20574Y34849
X17767Y32067
X29464Y25540
X26721Y25997
X16129Y34430
X18110Y41567
X21882Y40932
X23368Y21438
X28677Y21920
X29769Y21615
X22441Y21323
X11798Y30518
X17907Y42850
X15824Y41580
X20231Y39268
X14427Y38303
X19177Y18225
X20942Y16459
X21590Y13335
X18009Y18377
X17996Y16167
X16218Y37643
X19456Y37643
X16782Y39847
X18910Y28232
X18885Y41402
X33795Y23038
X32436Y33858
X31039Y28867
X15799Y29324
X20244Y27407
X15570Y13043
X20269Y14224
X27330Y18644
X25857Y21501
X17691Y26772
X26378Y21273
X14986Y27978
X12662Y7074
X13843Y9004
X15659Y10338
X11430Y14656
X14859Y27051
X22644Y33299
X24130Y37465
X32753Y21996
X17463Y12636
X17526Y10541
X17971Y14160
X16358Y15342
X14541Y19177
X12636Y20447
X15659Y38887
X13932Y14516
X14707Y41554
T7
X19075Y19006
X20003Y18098
X21749Y10954
X19368Y7398
X13716Y6610
X25400Y19114
X19368Y8096
X17463Y3289
X10001Y11112
X12325Y11455
X13494Y15399
X13176Y22701
X23812Y19495
X17526Y11303
X17031Y12382
X13335Y26670
X15716Y15399
X14287Y39211
X32798Y18098
X30004Y17463
X28511Y17793
X23495Y10795
X21660Y9589
X11430Y27622
X12541Y16986
X18421Y17266
X21590Y16510
X22542Y13652
X25102Y11989
X24606Y9684
X24130Y8255
X12859Y37465
X13176Y33973
X18517Y2146
X18891Y6985
X19520Y3746
X19526Y5239
X18542Y13144
X15069Y4921
X20980Y6909
X22314Y3759
X20568Y8179
X21698Y7506
X27146Y11589
X26035Y13811
X27921Y17189
X31604Y17050
X35084Y19368
X35579Y26041
X32925Y19361
X26829Y26511
X22371Y4750
X23495Y5080
X25717Y5080
X26829Y19685
X25400Y25876
X24765Y26511
X23812Y27464
X20320Y29527
X21380Y5226
X10452Y6820
X20333Y11036
X10954Y36989
X22225Y1905
X20504Y1962
X8439Y4439
X8465Y9938
X13538Y2515
X22542Y3175
X11430Y37941
X10478Y29369
X10954Y26511
X10852Y11487
X10795Y7258
X23063Y7887
X22530Y5499
X23971Y10478
X24447Y16510
X22911Y16669
X14859Y5658
X16510Y22384
X14967Y25349
X17780Y7779
X13652Y22943
X15659Y14891
X11430Y40005
M30