G04 EAGLE Gerber RS-274X export*
G75*
%MOMM*%
%FSLAX34Y34*%
%LPD*%
%INSoldermask Top*%
%IPPOS*%
%AMOC8*
5,1,8,0,0,1.08239X$1,22.5*%
G01*
%ADD10C,4.394200*%
%ADD11R,0.823200X0.823200*%
%ADD12R,0.711200X1.473200*%
%ADD13R,1.473200X0.711200*%
%ADD14C,2.103200*%
%ADD15C,1.253200*%
%ADD16R,0.838200X1.473200*%
%ADD17R,1.473200X0.838200*%
%ADD18R,1.103200X0.863200*%
%ADD19R,0.703200X0.703200*%
%ADD20R,1.371600X1.803400*%
%ADD21C,0.231472*%
%ADD22R,1.103200X0.753200*%
%ADD23R,1.003200X2.203200*%
%ADD24C,0.453200*%
%ADD25C,0.325000*%
%ADD26R,3.200000X1.000000*%
%ADD27R,2.200000X1.200000*%
%ADD28R,0.700000X0.700000*%
%ADD29R,1.203200X1.203200*%
%ADD30R,1.253200X2.403200*%
%ADD31R,1.203200X1.003200*%
%ADD32R,0.700000X0.700000*%
%ADD33R,0.703200X0.703200*%
%ADD34R,2.203200X3.003200*%
%ADD35R,3.003200X2.803200*%
%ADD36R,2.403200X3.003200*%
%ADD37C,1.903200*%
%ADD38R,1.498600X0.812800*%
%ADD39R,1.153200X1.203200*%
%ADD40R,1.003200X1.003200*%
%ADD41C,0.584200*%
%ADD42C,0.660400*%
%ADD43C,0.558800*%
%ADD44C,0.254000*%


D10*
X31750Y438150D03*
X349250Y438150D03*
X31750Y31750D03*
X349250Y31750D03*
D11*
X214249Y116150D03*
X214249Y125150D03*
X237490Y117420D03*
X237490Y126420D03*
X250770Y71882D03*
X259770Y71882D03*
X266954Y28630D03*
X266954Y19630D03*
X116840Y98480D03*
X116840Y89480D03*
X92710Y98480D03*
X92710Y89480D03*
X54737Y69524D03*
X54737Y60524D03*
X183769Y245546D03*
X183769Y236546D03*
X177419Y361260D03*
X177419Y370260D03*
D12*
X245110Y199771D03*
X245110Y151511D03*
X232410Y199771D03*
X232410Y151511D03*
X219710Y199771D03*
X219710Y151511D03*
X207010Y199771D03*
X207010Y151511D03*
X194310Y199771D03*
X194310Y151511D03*
D13*
X164973Y312928D03*
X213233Y312928D03*
X164973Y300228D03*
X213233Y300228D03*
X164973Y287528D03*
X213233Y287528D03*
X164973Y274828D03*
X213233Y274828D03*
X164973Y262128D03*
X213233Y262128D03*
D14*
X312970Y453644D03*
X222970Y453644D03*
D15*
X245720Y422394D03*
X290220Y422394D03*
D16*
X165227Y141605D03*
X173355Y141605D03*
D17*
X129413Y145923D03*
X129413Y137795D03*
X263398Y178562D03*
X263398Y186690D03*
X255905Y107569D03*
X255905Y99441D03*
X74676Y93599D03*
X74676Y85471D03*
D16*
X210312Y332994D03*
X202184Y332994D03*
D18*
X206394Y361160D03*
X206394Y383060D03*
X192894Y383060D03*
X192894Y361160D03*
D19*
X195017Y215773D03*
X204017Y215773D03*
X171831Y227021D03*
X171831Y236021D03*
D20*
G36*
X299788Y195899D02*
X286073Y195922D01*
X286104Y213955D01*
X299819Y213932D01*
X299788Y195899D01*
G37*
G36*
X315028Y195872D02*
X301313Y195895D01*
X301344Y213928D01*
X315059Y213905D01*
X315028Y195872D01*
G37*
G36*
X330268Y195845D02*
X316553Y195868D01*
X316584Y213901D01*
X330299Y213878D01*
X330268Y195845D01*
G37*
D21*
X91352Y55835D02*
X86634Y55835D01*
X91352Y55835D02*
X91352Y53117D01*
X86634Y53117D01*
X86634Y55835D01*
X86634Y55316D02*
X91352Y55316D01*
X91352Y60835D02*
X86634Y60835D01*
X91352Y60835D02*
X91352Y58117D01*
X86634Y58117D01*
X86634Y60835D01*
X86634Y60316D02*
X91352Y60316D01*
X91352Y65835D02*
X86634Y65835D01*
X91352Y65835D02*
X91352Y63117D01*
X86634Y63117D01*
X86634Y65835D01*
X86634Y65316D02*
X91352Y65316D01*
X91352Y70835D02*
X86634Y70835D01*
X91352Y70835D02*
X91352Y68117D01*
X86634Y68117D01*
X86634Y70835D01*
X86634Y70316D02*
X91352Y70316D01*
X80984Y68767D02*
X80984Y73485D01*
X83702Y73485D01*
X83702Y68767D01*
X80984Y68767D01*
X80984Y70966D02*
X83702Y70966D01*
X83702Y73165D02*
X80984Y73165D01*
X75984Y73485D02*
X75984Y68767D01*
X75984Y73485D02*
X78702Y73485D01*
X78702Y68767D01*
X75984Y68767D01*
X75984Y70966D02*
X78702Y70966D01*
X78702Y73165D02*
X75984Y73165D01*
X70984Y73485D02*
X70984Y68767D01*
X70984Y73485D02*
X73702Y73485D01*
X73702Y68767D01*
X70984Y68767D01*
X70984Y70966D02*
X73702Y70966D01*
X73702Y73165D02*
X70984Y73165D01*
X68052Y68117D02*
X63334Y68117D01*
X63334Y70835D01*
X68052Y70835D01*
X68052Y68117D01*
X68052Y70316D02*
X63334Y70316D01*
X63334Y63117D02*
X68052Y63117D01*
X63334Y63117D02*
X63334Y65835D01*
X68052Y65835D01*
X68052Y63117D01*
X68052Y65316D02*
X63334Y65316D01*
X63334Y58117D02*
X68052Y58117D01*
X63334Y58117D02*
X63334Y60835D01*
X68052Y60835D01*
X68052Y58117D01*
X68052Y60316D02*
X63334Y60316D01*
X63334Y53117D02*
X68052Y53117D01*
X63334Y53117D02*
X63334Y55835D01*
X68052Y55835D01*
X68052Y53117D01*
X68052Y55316D02*
X63334Y55316D01*
X73702Y55185D02*
X73702Y50467D01*
X70984Y50467D01*
X70984Y55185D01*
X73702Y55185D01*
X73702Y52666D02*
X70984Y52666D01*
X70984Y54865D02*
X73702Y54865D01*
X78702Y55185D02*
X78702Y50467D01*
X75984Y50467D01*
X75984Y55185D01*
X78702Y55185D01*
X78702Y52666D02*
X75984Y52666D01*
X75984Y54865D02*
X78702Y54865D01*
X83702Y55185D02*
X83702Y50467D01*
X80984Y50467D01*
X80984Y55185D01*
X83702Y55185D01*
X83702Y52666D02*
X80984Y52666D01*
X80984Y54865D02*
X83702Y54865D01*
D22*
X253078Y19985D03*
X253078Y32485D03*
X253078Y44985D03*
X253078Y57485D03*
X233078Y57485D03*
X233078Y44985D03*
X233078Y32485D03*
X233078Y19985D03*
D23*
X229974Y236888D03*
X249974Y236888D03*
X269974Y236888D03*
X289974Y236888D03*
X309974Y236888D03*
X329974Y236888D03*
X349974Y236888D03*
X369974Y236888D03*
X369974Y398888D03*
X349974Y398888D03*
X329974Y398888D03*
X309974Y398888D03*
X289974Y398888D03*
X269974Y398888D03*
X249974Y398888D03*
X229974Y398888D03*
D24*
X151104Y118204D02*
X139104Y118204D01*
X139104Y113204D02*
X151104Y113204D01*
X151104Y108204D02*
X139104Y108204D01*
X139104Y103204D02*
X151104Y103204D01*
X151104Y98204D02*
X139104Y98204D01*
X179604Y98204D02*
X191604Y98204D01*
X191604Y103204D02*
X179604Y103204D01*
X179604Y108204D02*
X191604Y108204D01*
X191604Y113204D02*
X179604Y113204D01*
X179604Y118204D02*
X191604Y118204D01*
D25*
X223179Y115650D03*
X228179Y115650D03*
X223179Y120650D03*
X228179Y120650D03*
X223179Y125650D03*
X228179Y125650D03*
X107910Y98980D03*
X102910Y98980D03*
X107910Y93980D03*
X102910Y93980D03*
X107910Y88980D03*
X102910Y88980D03*
D26*
X362935Y145075D03*
X362935Y95075D03*
D27*
X362935Y120075D03*
D28*
X374619Y56024D03*
X374619Y66024D03*
X333959Y79984D03*
X333959Y69984D03*
D29*
X155576Y206055D03*
X171576Y206055D03*
X171576Y166055D03*
X155576Y166055D03*
X125350Y294828D03*
X141350Y294828D03*
X141350Y254828D03*
X125350Y254828D03*
D30*
X94903Y456311D03*
X67403Y456311D03*
D31*
X81153Y441061D03*
D30*
X141893Y456311D03*
X114393Y456311D03*
D31*
X128143Y441061D03*
D30*
X188883Y456184D03*
X161383Y456184D03*
D31*
X175133Y440934D03*
D19*
X162615Y434721D03*
X153615Y434721D03*
D32*
G36*
X300504Y178415D02*
X293928Y180809D01*
X296322Y187385D01*
X302898Y184991D01*
X300504Y178415D01*
G37*
G36*
X309901Y174995D02*
X303325Y177389D01*
X305719Y183965D01*
X312295Y181571D01*
X309901Y174995D01*
G37*
G36*
X320867Y178434D02*
X318473Y171858D01*
X311897Y174252D01*
X314291Y180828D01*
X320867Y178434D01*
G37*
G36*
X324287Y187831D02*
X321893Y181255D01*
X315317Y183649D01*
X317711Y190225D01*
X324287Y187831D01*
G37*
G36*
X347685Y168501D02*
X345291Y161925D01*
X338715Y164319D01*
X341109Y170895D01*
X347685Y168501D01*
G37*
G36*
X351105Y177898D02*
X348711Y171322D01*
X342135Y173716D01*
X344529Y180292D01*
X351105Y177898D01*
G37*
D33*
G36*
X327683Y168656D02*
X321076Y171061D01*
X323481Y177668D01*
X330088Y175263D01*
X327683Y168656D01*
G37*
G36*
X336140Y165578D02*
X329533Y167983D01*
X331938Y174590D01*
X338545Y172185D01*
X336140Y165578D01*
G37*
D34*
X12828Y321394D03*
D35*
X134828Y322394D03*
D36*
X59828Y395394D03*
X40828Y321394D03*
D37*
X51828Y358394D03*
X121828Y358394D03*
D16*
X160909Y405257D03*
X152781Y405257D03*
D38*
X133096Y393804D03*
X133096Y406804D03*
X115062Y406804D03*
X115062Y393804D03*
D11*
X129993Y421640D03*
X138993Y421640D03*
D17*
X263273Y147126D03*
X263273Y155254D03*
D39*
X268477Y83693D03*
X252477Y83693D03*
D11*
X149352Y131771D03*
X149352Y140771D03*
D40*
X215900Y417950D03*
X215900Y432950D03*
D41*
X336550Y260350D03*
X217678Y327787D03*
X237490Y356997D03*
X85090Y344297D03*
X78740Y318897D03*
X15240Y401447D03*
X294640Y255397D03*
X267208Y259969D03*
X161290Y344297D03*
X181102Y415671D03*
X117983Y305181D03*
X179070Y428498D03*
X158242Y415798D03*
X202311Y392684D03*
X144272Y383032D03*
X337947Y230378D03*
X241808Y259969D03*
X227457Y322453D03*
X164719Y179324D03*
X156210Y173990D03*
X176022Y194945D03*
X227076Y274701D03*
X269621Y72517D03*
X244094Y55753D03*
X308991Y38608D03*
X363347Y166878D03*
X344297Y287528D03*
X285242Y186436D03*
X123063Y270383D03*
X161925Y392176D03*
X319659Y164084D03*
X310261Y188722D03*
X296672Y193548D03*
X157607Y142367D03*
X345821Y255143D03*
X156591Y218440D03*
X183515Y282321D03*
X178054Y258953D03*
X56896Y89027D03*
X96393Y80010D03*
X102616Y52578D03*
X127000Y89154D03*
X149987Y87630D03*
X149606Y63754D03*
X122809Y59817D03*
X127000Y46355D03*
X227076Y293751D03*
X154051Y247523D03*
X170434Y251460D03*
X154813Y303530D03*
X252349Y154813D03*
X248285Y131445D03*
X128651Y238760D03*
X263525Y194437D03*
X249301Y177038D03*
X91440Y14097D03*
X72390Y26797D03*
X21590Y96647D03*
X21590Y71247D03*
X180975Y31750D03*
X369697Y173228D03*
X335407Y187706D03*
X354711Y290068D03*
X269113Y56769D03*
X155194Y29083D03*
X117729Y16510D03*
X309880Y378841D03*
X319024Y374142D03*
X307213Y373634D03*
X255778Y329311D03*
X285496Y285115D03*
X280289Y289052D03*
X277114Y358140D03*
D42*
X269949Y373186D03*
D41*
X270891Y356743D03*
X306197Y251206D03*
X194310Y248285D03*
X199390Y248920D03*
X242824Y184150D03*
D43*
X156591Y148908D03*
X136525Y229426D03*
X177800Y77788D03*
X149670Y253492D03*
X165100Y223838D03*
X148590Y56579D03*
D41*
X205740Y348488D03*
X177673Y320675D03*
D43*
X229108Y166688D03*
X244475Y165100D03*
X239713Y104775D03*
X225298Y54991D03*
X150686Y49213D03*
D41*
X233680Y214376D03*
X286766Y219202D03*
X297688Y216154D03*
X224409Y213233D03*
D43*
X185420Y131445D03*
X170307Y123825D03*
X175260Y113030D03*
X238125Y194945D03*
X254000Y191135D03*
D41*
X191770Y182245D03*
X209423Y164592D03*
X215900Y133350D03*
X180086Y183769D03*
X179959Y161671D03*
D43*
X137160Y66104D03*
X193675Y73978D03*
X217488Y109538D03*
X200025Y180975D03*
X190754Y190056D03*
D42*
X341858Y205127D03*
D41*
X324358Y338582D03*
X310388Y288671D03*
X157988Y293243D03*
X202438Y274066D03*
X155702Y130429D03*
X202692Y142240D03*
X273304Y186436D03*
X258572Y215011D03*
X176911Y267716D03*
X263779Y212725D03*
X149860Y279781D03*
X126619Y70739D03*
X138430Y90043D03*
X156591Y103378D03*
X114300Y146558D03*
X148590Y270510D03*
X226441Y332994D03*
X241300Y374650D03*
X327533Y219964D03*
X174625Y126365D03*
X175260Y105410D03*
X179705Y141605D03*
X163576Y153416D03*
X145415Y191770D03*
X126365Y204470D03*
X156591Y388874D03*
X139319Y145161D03*
X147066Y415544D03*
X188849Y414020D03*
X189103Y282321D03*
X167822Y398471D03*
X194564Y376428D03*
X162179Y376428D03*
D42*
X77597Y408686D03*
D43*
X193675Y80963D03*
X174625Y32893D03*
X100013Y111125D03*
X123254Y114554D03*
X134938Y153988D03*
X131763Y227013D03*
D42*
X88265Y385318D03*
X91694Y394589D03*
X91440Y406781D03*
D43*
X133350Y266700D03*
X157163Y153988D03*
X142875Y392113D03*
X327978Y180975D03*
X300038Y174625D03*
X285115Y177927D03*
X234950Y107950D03*
X216599Y95885D03*
X114300Y276225D03*
X125413Y169863D03*
X184214Y172657D03*
X215900Y165100D03*
X225425Y136525D03*
X251016Y119888D03*
X246063Y96838D03*
X241300Y82550D03*
X128588Y374650D03*
X131763Y339725D03*
X185166Y21463D03*
X188913Y69850D03*
X195199Y37465D03*
X195263Y52388D03*
D42*
X16637Y339471D03*
D41*
X218821Y409321D03*
D43*
X209804Y69088D03*
X223139Y37592D03*
X205677Y81788D03*
X216980Y75057D03*
X271463Y115888D03*
X260350Y138113D03*
X279210Y171895D03*
X316040Y170498D03*
X350838Y193675D03*
X355791Y260414D03*
X329248Y193612D03*
X268288Y265113D03*
X223711Y47498D03*
X234950Y50800D03*
X257175Y50800D03*
X268288Y196850D03*
X254000Y258763D03*
X247650Y265113D03*
X238125Y274638D03*
X203200Y295275D03*
X213805Y52261D03*
X104521Y68199D03*
X203327Y110363D03*
X109538Y369888D03*
X222250Y19050D03*
X205042Y19622D03*
X84392Y44387D03*
X84646Y99378D03*
X135382Y25146D03*
X225425Y31750D03*
X114300Y379413D03*
X104775Y293688D03*
X109538Y265113D03*
X108522Y114872D03*
X107950Y72581D03*
X230632Y78867D03*
D44*
X0Y19050D02*
X73Y17390D01*
X289Y15742D01*
X649Y14120D01*
X1149Y12535D01*
X1785Y10999D01*
X2552Y9525D01*
X3445Y8123D01*
X4457Y6805D01*
X5580Y5580D01*
X6805Y4457D01*
X8123Y3445D01*
X9525Y2552D01*
X10999Y1785D01*
X12535Y1149D01*
X14120Y649D01*
X15742Y289D01*
X17390Y73D01*
X19050Y0D01*
X361950Y0D01*
X363610Y73D01*
X365258Y289D01*
X366881Y649D01*
X368465Y1149D01*
X370001Y1785D01*
X371475Y2552D01*
X372877Y3445D01*
X374195Y4457D01*
X375420Y5580D01*
X376543Y6805D01*
X377555Y8123D01*
X378448Y9525D01*
X379215Y10999D01*
X379851Y12535D01*
X380351Y14120D01*
X380711Y15742D01*
X380928Y17390D01*
X381000Y19050D01*
X381000Y450850D01*
X380928Y452510D01*
X380711Y454158D01*
X380351Y455781D01*
X379851Y457365D01*
X379215Y458901D01*
X378448Y460375D01*
X377555Y461777D01*
X376543Y463095D01*
X375420Y464320D01*
X374195Y465443D01*
X372877Y466455D01*
X371475Y467348D01*
X370001Y468115D01*
X368465Y468751D01*
X366881Y469251D01*
X365258Y469611D01*
X363610Y469828D01*
X361950Y469900D01*
X19050Y469900D01*
X17390Y469828D01*
X15742Y469611D01*
X14120Y469251D01*
X12535Y468751D01*
X10999Y468115D01*
X9525Y467348D01*
X8123Y466455D01*
X6805Y465443D01*
X5580Y464320D01*
X4457Y463095D01*
X3445Y461777D01*
X2552Y460375D01*
X1785Y458901D01*
X1149Y457365D01*
X649Y455781D01*
X289Y454158D01*
X73Y452510D01*
X0Y450850D01*
X0Y304800D01*
X82550Y304800D01*
X84210Y304728D01*
X85858Y304511D01*
X87481Y304151D01*
X89065Y303651D01*
X90601Y303015D01*
X92075Y302248D01*
X93477Y301355D01*
X94795Y300343D01*
X96020Y299220D01*
X97143Y297995D01*
X98155Y296677D01*
X99048Y295275D01*
X99815Y293801D01*
X100451Y292265D01*
X100951Y290681D01*
X101311Y289058D01*
X101528Y287410D01*
X101600Y285750D01*
X101600Y133350D01*
X101528Y131690D01*
X101311Y130042D01*
X100951Y128420D01*
X100451Y126835D01*
X99815Y125299D01*
X99048Y123825D01*
X98155Y122423D01*
X97143Y121105D01*
X96020Y119880D01*
X94795Y118757D01*
X93477Y117745D01*
X92075Y116852D01*
X90601Y116085D01*
X89065Y115449D01*
X87481Y114949D01*
X85858Y114589D01*
X84210Y114373D01*
X82550Y114300D01*
X19050Y114300D01*
X17390Y114228D01*
X15742Y114011D01*
X14120Y113651D01*
X12535Y113151D01*
X10999Y112515D01*
X9525Y111748D01*
X8123Y110855D01*
X6805Y109843D01*
X5580Y108720D01*
X4457Y107495D01*
X3445Y106177D01*
X2552Y104775D01*
X1785Y103301D01*
X1149Y101765D01*
X649Y100181D01*
X289Y98558D01*
X73Y96910D01*
X0Y95250D01*
X0Y19050D01*
M02*
