G04 Layer_Physical_Order=3*
G04 Layer_Color=128*
%FSLAX43Y43*%
%MOMM*%
G71*
G01*
G75*
%ADD46C,0.500*%
%ADD47O,1.250X1.450*%
%ADD48O,1.425X2.100*%
%ADD49C,1.600*%
G04:AMPARAMS|DCode=50|XSize=2.524mm|YSize=2.524mm|CornerRadius=0mm|HoleSize=0mm|Usage=FLASHONLY|Rotation=0.000|XOffset=0mm|YOffset=0mm|HoleType=Round|Shape=Relief|Width=0.254mm|Gap=0.254mm|Entries=4|*
%AMTHD50*
7,0,0,2.524,2.016,0.254,45*
%
%ADD50THD50*%
%ADD51C,1.250*%
%ADD53C,0.850*%
%ADD54C,0.800*%
%ADD55C,0.350*%
%ADD56R,10.000X10.000*%
%ADD57C,3.300*%
D46*
X-10600Y-350D02*
G03*
X-9825Y-1I0J1036D01*
G01*
X-21375D02*
G03*
X-20600Y-350I776J686D01*
G01*
X-9825Y0D02*
X0D01*
X-9825Y-1D02*
Y0D01*
X-10600Y-350D02*
Y-350D01*
X-20600Y-350D02*
X-10600D01*
X-21375Y-1D02*
Y0D01*
X-60000Y-60000D02*
Y0D01*
X-21375D01*
X0Y-60000D02*
Y0D01*
X-60000Y-60000D02*
X0D01*
D47*
X-13375Y-4800D02*
D03*
X-17825D02*
D03*
D48*
X-19688Y-1675D02*
D03*
X-11512D02*
D03*
D49*
X-36696Y-19840D02*
D03*
Y-14760D02*
D03*
X-4430Y-13490D02*
D03*
X-6970Y-16030D02*
D03*
Y-13490D02*
D03*
X-4430Y-38890D02*
D03*
Y-28730D02*
D03*
Y-31270D02*
D03*
X-6970D02*
D03*
X-4430Y-33810D02*
D03*
X-6970D02*
D03*
X-4430Y-36350D02*
D03*
X-6970D02*
D03*
Y-38890D02*
D03*
Y-51590D02*
D03*
Y-49050D02*
D03*
X-4430D02*
D03*
X-6970Y-46510D02*
D03*
X-4430D02*
D03*
X-6970Y-43970D02*
D03*
X-4430D02*
D03*
Y-41430D02*
D03*
X-6970D02*
D03*
Y-28730D02*
D03*
X-38730Y-10950D02*
D03*
X-41776Y-19840D02*
D03*
Y-17300D02*
D03*
Y-14760D02*
D03*
X-18570Y-53030D02*
D03*
X-31270D02*
D03*
Y-55570D02*
D03*
X-33810D02*
D03*
Y-53030D02*
D03*
X-36350Y-55570D02*
D03*
Y-53030D02*
D03*
X-38890Y-55570D02*
D03*
Y-53030D02*
D03*
X-41430D02*
D03*
X-28730D02*
D03*
X-26190D02*
D03*
Y-55570D02*
D03*
X-23650Y-53030D02*
D03*
Y-55570D02*
D03*
X-21110Y-53030D02*
D03*
Y-55570D02*
D03*
X-18570D02*
D03*
X-28730D02*
D03*
D50*
X-36696Y-17300D02*
D03*
X-4430Y-16030D02*
D03*
Y-51590D02*
D03*
X-41270Y-10950D02*
D03*
X-41430Y-55570D02*
D03*
D51*
X-3160Y-21740D02*
D03*
X-4430D02*
D03*
X-5700D02*
D03*
X-6970D02*
D03*
Y-23010D02*
D03*
X-5700D02*
D03*
X-4430D02*
D03*
X-3160D02*
D03*
X-8240D02*
D03*
Y-21740D02*
D03*
D53*
X-26503Y-47250D02*
D03*
X-55025Y-32850D02*
D03*
X-26653Y-25350D02*
D03*
X-28117Y-51700D02*
D03*
X-28075Y-48051D02*
D03*
X-25224Y-41550D02*
D03*
X-28034Y-43925D02*
D03*
X-23141Y-43986D02*
D03*
X-11775Y-39840D02*
D03*
X-12900Y-39725D02*
D03*
X-19875Y-38625D02*
D03*
X-27075Y-38600D02*
D03*
X-19405Y-38100D02*
D03*
X-28750Y-38600D02*
D03*
X-18275Y-37575D02*
D03*
X-17751Y-37052D02*
D03*
X-16050Y-8775D02*
D03*
X-14300Y-5600D02*
D03*
X-12750Y-9050D02*
D03*
X-32875Y-39725D02*
D03*
X-32300Y-39075D02*
D03*
X-28730Y-46905D02*
D03*
X-27500Y-47075D02*
D03*
X-27800Y-38100D02*
D03*
X-11350Y-36350D02*
D03*
X-10800Y-36852D02*
D03*
X-8275Y-35602D02*
D03*
X-31250Y-45700D02*
D03*
X-30750Y-44975D02*
D03*
X-13750Y-28900D02*
D03*
X-50500Y-47975D02*
D03*
X-20102Y-25200D02*
D03*
X-31025Y-17175D02*
D03*
X-1250Y-12800D02*
D03*
X-50125Y-21100D02*
D03*
X-1250Y-6825D02*
D03*
X-17800Y-16700D02*
D03*
X-25000Y-33550D02*
D03*
X-29060Y-26000D02*
D03*
X-26280Y-28900D02*
D03*
X-27580D02*
D03*
X-24284Y-31800D02*
D03*
X-23495Y-33550D02*
D03*
X-56106Y-13748D02*
D03*
X-27300Y-13700D02*
D03*
X-27925D02*
D03*
X-29101Y-2751D02*
D03*
X-38200Y-35400D02*
D03*
X-30500Y-17800D02*
D03*
X-50400Y-18625D02*
D03*
X-55550Y-17925D02*
D03*
X-29125Y-1525D02*
D03*
X-3875Y-7025D02*
D03*
X-40500Y-1500D02*
D03*
X-34125Y-2150D02*
D03*
X-24925Y-1500D02*
D03*
X-30075Y-1525D02*
D03*
X-6800Y-11025D02*
D03*
X-22100Y-15100D02*
D03*
X-30875Y-23175D02*
D03*
X-26800Y-15100D02*
D03*
X-775Y-11100D02*
D03*
X-29250Y-22050D02*
D03*
X-18525Y-21400D02*
D03*
X-24925Y-10675D02*
D03*
X-27950Y-16175D02*
D03*
X-56500Y-21775D02*
D03*
X-58250Y-28925D02*
D03*
X-57600Y-30900D02*
D03*
X-47700Y-40400D02*
D03*
X-40550Y-22675D02*
D03*
X-51650Y-26250D02*
D03*
X-44200Y-20225D02*
D03*
X-55625Y-12125D02*
D03*
X-36625Y-11450D02*
D03*
X-28575Y-5825D02*
D03*
X-27276Y-4975D02*
D03*
X-40900Y-30725D02*
D03*
X-24050Y-26400D02*
D03*
X-52025Y-15975D02*
D03*
X-50050Y-24025D02*
D03*
X-46550Y-23900D02*
D03*
X-43800Y-33450D02*
D03*
Y-32650D02*
D03*
Y-31850D02*
D03*
X-21450Y-32625D02*
D03*
X-20450Y-31800D02*
D03*
X-22550Y-31800D02*
D03*
X-44524Y-33850D02*
D03*
X-22550Y-29800D02*
D03*
X-20450Y-29800D02*
D03*
X-43725Y-26675D02*
D03*
X-39700D02*
D03*
X-17650Y-32650D02*
D03*
X-18950D02*
D03*
Y-25126D02*
D03*
X-17650D02*
D03*
X-36275Y-21825D02*
D03*
X-32177Y-18201D02*
D03*
X-51325Y-28450D02*
D03*
X-52750Y-32799D02*
D03*
X-12025Y-7075D02*
D03*
X-43024Y-22700D02*
D03*
X-38175Y-31313D02*
D03*
X-46950Y-43075D02*
D03*
X-17530Y-20750D02*
D03*
X-13751Y-23451D02*
D03*
X-13750Y-33175D02*
D03*
X-41550Y-28950D02*
D03*
X-46924Y-33526D02*
D03*
X-48925Y-30350D02*
D03*
X-48900Y-32450D02*
D03*
X-47425Y-31851D02*
D03*
X-42399Y-37451D02*
D03*
X-47725Y-34450D02*
D03*
X-8625Y-29125D02*
D03*
X-33542Y-40750D02*
D03*
X-39225Y-24975D02*
D03*
X-50750Y-14300D02*
D03*
X-33675Y-13625D02*
D03*
X-34425Y-14250D02*
D03*
X-13207Y-11828D02*
D03*
X-10057D02*
D03*
Y-13503D02*
D03*
X-9800Y-11126D02*
D03*
X-19625Y-6125D02*
D03*
X-27190Y-36000D02*
D03*
X-19035Y-17400D02*
D03*
X-19600Y-18200D02*
D03*
X-25475Y-27275D02*
D03*
X-24951Y-27851D02*
D03*
X-24150Y-27856D02*
D03*
X-16725Y-16050D02*
D03*
X-22100Y-12450D02*
D03*
X-17025Y-10075D02*
D03*
X-16700Y-26050D02*
D03*
X-16701Y-26826D02*
D03*
X-23050Y-26525D02*
D03*
X-13425Y-10923D02*
D03*
X-16900Y-5500D02*
D03*
X-17076Y-7075D02*
D03*
X-22814Y-2750D02*
D03*
X-37200Y-24250D02*
D03*
X-35925Y-24250D02*
D03*
X-38700Y-20775D02*
D03*
X-18675Y-18275D02*
D03*
X-16076Y-5575D02*
D03*
X-19450Y-19070D02*
D03*
X-29750Y-36775D02*
D03*
X-33088Y-47000D02*
D03*
X-30900Y-50125D02*
D03*
X-36425Y-35808D02*
D03*
X-36951Y-35325D02*
D03*
X-29450Y-42550D02*
D03*
X-30550D02*
D03*
X-29450Y-41450D02*
D03*
X-30550D02*
D03*
X-33802Y-36052D02*
D03*
X-33775Y-36796D02*
D03*
X-43800Y-30525D02*
D03*
X-44050Y-10375D02*
D03*
X-49961Y-9908D02*
D03*
X-26725Y-7350D02*
D03*
Y-8150D02*
D03*
X-50520Y-42856D02*
D03*
D54*
X-26975Y-18825D02*
D03*
X-26325Y-20125D02*
D03*
X-24375Y-22725D02*
D03*
X-25025Y-18175D02*
D03*
X-25675D02*
D03*
X-25675Y-20125D02*
D03*
X-26325Y-22725D02*
D03*
X-23075Y-18825D02*
D03*
Y-22075D02*
D03*
X-25675D02*
D03*
X-25025Y-22075D02*
D03*
X-25025Y-22725D02*
D03*
X-25025Y-19475D02*
D03*
X-23725Y-18825D02*
D03*
X-25675Y-21425D02*
D03*
X-24375Y-20125D02*
D03*
D55*
X-37060Y-35898D02*
X-35025Y-37934D01*
X-27075Y-42575D02*
Y-32322D01*
X-28800Y-44300D02*
X-27075Y-42575D01*
X-32500Y-44300D02*
X-28800D01*
X-35025Y-41775D02*
Y-37934D01*
Y-41775D02*
X-32500Y-44300D01*
X-27325Y-27500D02*
X-6725D01*
X-5900Y-26675D01*
X-40500Y-9525D02*
X-36175D01*
X-33675Y-12025D01*
Y-21150D02*
Y-12025D01*
X-42400Y-9525D02*
X-39725D01*
X-43425Y-10550D02*
X-42400Y-9525D01*
X-43425Y-21100D02*
Y-10550D01*
X-26475Y-9300D02*
X-26100Y-9675D01*
X-57225Y-9750D02*
X-50600Y-3125D01*
X-26827D01*
X-26475Y-3477D01*
Y-9300D02*
Y-3477D01*
X-24775Y-50D02*
X-24725Y0D01*
X-24775Y-6425D02*
Y-50D01*
X-5900Y-14500D02*
X0D01*
X-5900Y-26675D02*
Y-14500D01*
X-33675Y-21150D02*
X-27325Y-27500D01*
X-39725Y-19672D02*
X-34447Y-24950D01*
X-39725Y-19672D02*
Y-9525D01*
X-43425Y-21100D02*
X-37060Y-27465D01*
X-24775Y-9300D02*
Y-6425D01*
X-25150Y-9675D02*
X-24775Y-9300D01*
X-26100Y-9675D02*
X-25150D01*
X-57225Y-9750D02*
X-54975Y-7500D01*
X-57225Y-35898D02*
Y-9750D01*
X-34447Y-24950D02*
X-27075Y-32322D01*
X-39764Y-9601D02*
Y-7777D01*
X-36762Y-4775D01*
X-31189D01*
X-30545Y-4131D01*
Y-3125D01*
X-37060Y-35898D02*
Y-27465D01*
X-60000Y-32950D02*
X-57225D01*
Y-35898D02*
X-37060D01*
D56*
X-54020Y-39356D02*
D03*
X-54000Y-51475D02*
D03*
D57*
X-57650Y-57650D02*
D03*
X-2350D02*
D03*
X-57650Y-2350D02*
D03*
X-2350D02*
D03*
M02*
