G04 Layer_Color=8388736*
%FSLAX43Y43*%
%MOMM*%
G71*
G01*
G75*
%ADD29C,0.550*%
%ADD92R,0.900X0.510*%
%ADD93R,0.500X1.100*%
%ADD94R,0.400X1.100*%
%ADD95R,0.400X0.700*%
%ADD96R,0.740X1.000*%
%ADD97R,0.800X0.800*%
%ADD98R,0.700X0.650*%
%ADD99R,0.500X1.450*%
%ADD100R,1.100X2.350*%
%ADD101R,0.950X0.900*%
%ADD102R,0.600X0.750*%
%ADD103R,0.650X0.700*%
%ADD104R,0.750X0.600*%
%ADD105R,1.650X1.100*%
%ADD106R,2.550X2.550*%
%ADD107O,0.350X0.850*%
%ADD108O,0.850X0.350*%
%ADD109R,1.100X1.050*%
%ADD110R,0.600X0.700*%
%ADD111R,1.900X2.000*%
G04:AMPARAMS|DCode=112|XSize=1.15mm|YSize=1.35mm|CornerRadius=0.575mm|HoleSize=0mm|Usage=FLASHONLY|Rotation=180.000|XOffset=0mm|YOffset=0mm|HoleType=Round|Shape=RoundedRectangle|*
%AMROUNDEDRECTD112*
21,1,1.150,0.200,0,0,180.0*
21,1,0.000,1.350,0,0,180.0*
1,1,1.150,0.000,0.100*
1,1,1.150,0.000,0.100*
1,1,1.150,0.000,-0.100*
1,1,1.150,0.000,-0.100*
%
%ADD112ROUNDEDRECTD112*%
G04:AMPARAMS|DCode=113|XSize=2.2mm|YSize=2mm|CornerRadius=0.544mm|HoleSize=0mm|Usage=FLASHONLY|Rotation=180.000|XOffset=0mm|YOffset=0mm|HoleType=Round|Shape=RoundedRectangle|*
%AMROUNDEDRECTD113*
21,1,2.200,0.912,0,0,180.0*
21,1,1.112,2.000,0,0,180.0*
1,1,1.088,-0.556,0.456*
1,1,1.088,0.556,0.456*
1,1,1.088,0.556,-0.456*
1,1,1.088,-0.556,-0.456*
%
%ADD113ROUNDEDRECTD113*%
%ADD114R,1.800X1.800*%
%ADD115C,1.800*%
%ADD116R,1.800X1.800*%
%ADD117C,1.150*%
%ADD118C,3.700*%
G36*
X-11398Y-675D02*
X-11396Y-675D01*
X-11348Y-679D01*
X-11347Y-679D01*
X-11345Y-679D01*
X-11292Y-686D01*
X-11289Y-687D01*
X-11285Y-688D01*
X-11232Y-703D01*
X-11230Y-703D01*
X-11228Y-704D01*
X-11185Y-720D01*
X-11183Y-721D01*
X-11181Y-722D01*
X-11139Y-742D01*
X-11137Y-743D01*
X-11134Y-745D01*
X-11090Y-773D01*
X-11088Y-774D01*
X-11087Y-775D01*
X-11049Y-804D01*
X-11047Y-805D01*
X-11046Y-806D01*
X-11007Y-840D01*
X-11004Y-843D01*
X-11001Y-846D01*
X-10972Y-882D01*
X-10971Y-883D01*
X-10971Y-884D01*
X-10943Y-921D01*
X-10941Y-923D01*
X-10940Y-926D01*
X-10916Y-967D01*
X-10915Y-969D01*
X-10914Y-970D01*
X-10894Y-1012D01*
X-10893Y-1014D01*
X-10892Y-1016D01*
X-10876Y-1058D01*
X-10875Y-1061D01*
X-10874Y-1064D01*
X-10862Y-1115D01*
X-10862Y-1117D01*
X-10861Y-1119D01*
X-10854Y-1164D01*
X-10854Y-1166D01*
X-10854Y-1168D01*
X-10850Y-1221D01*
X-10850Y-1223D01*
X-10850Y-1225D01*
Y-2125D01*
X-10850Y-2127D01*
X-10850Y-2129D01*
X-10854Y-2184D01*
X-10854Y-2186D01*
X-10855Y-2189D01*
X-10863Y-2234D01*
X-10863Y-2235D01*
X-10863Y-2237D01*
X-10875Y-2287D01*
X-10876Y-2290D01*
X-10877Y-2294D01*
X-10893Y-2334D01*
X-10906Y-2366D01*
X-10908Y-2370D01*
X-10910Y-2373D01*
X-10935Y-2416D01*
X-10936Y-2418D01*
X-10937Y-2420D01*
X-10963Y-2457D01*
X-10964Y-2458D01*
X-10965Y-2460D01*
X-10996Y-2498D01*
X-10999Y-2500D01*
X-11001Y-2503D01*
X-11046Y-2544D01*
X-11048Y-2546D01*
X-11050Y-2547D01*
X-11090Y-2577D01*
X-11092Y-2578D01*
X-11093Y-2579D01*
X-11139Y-2609D01*
X-11142Y-2610D01*
X-11145Y-2612D01*
X-11198Y-2636D01*
X-11201Y-2637D01*
X-11205Y-2638D01*
X-11292Y-2664D01*
X-11297Y-2665D01*
X-11301Y-2666D01*
X-11301Y-2666D01*
X-11301Y-2666D01*
X-11301D01*
X-11395Y-2675D01*
X-11398Y-2675D01*
X-11400Y-2675D01*
X-13000D01*
X-13010Y-2674D01*
X-13019Y-2671D01*
X-13028Y-2667D01*
X-13036Y-2661D01*
X-13042Y-2653D01*
X-13046Y-2644D01*
X-13049Y-2635D01*
X-13050Y-2625D01*
Y-725D01*
X-13049Y-715D01*
X-13046Y-706D01*
X-13042Y-697D01*
X-13036Y-689D01*
X-13028Y-683D01*
X-13019Y-679D01*
X-13010Y-676D01*
X-13000Y-675D01*
X-11400D01*
X-11398Y-675D01*
D02*
G37*
G36*
X-18190Y-676D02*
X-18181Y-679D01*
X-18172Y-683D01*
X-18164Y-689D01*
X-18158Y-697D01*
X-18154Y-706D01*
X-18151Y-715D01*
X-18150Y-725D01*
Y-2625D01*
X-18151Y-2635D01*
X-18154Y-2644D01*
X-18158Y-2653D01*
X-18164Y-2661D01*
X-18172Y-2667D01*
X-18181Y-2671D01*
X-18190Y-2674D01*
X-18200Y-2675D01*
X-19800D01*
X-19802Y-2675D01*
X-19804Y-2675D01*
X-19852Y-2671D01*
X-19853Y-2671D01*
X-19855Y-2671D01*
X-19908Y-2664D01*
X-19911Y-2663D01*
X-19915Y-2662D01*
X-19968Y-2647D01*
X-19970Y-2647D01*
X-19972Y-2646D01*
X-20015Y-2630D01*
X-20017Y-2629D01*
X-20019Y-2628D01*
X-20061Y-2608D01*
X-20063Y-2607D01*
X-20066Y-2605D01*
X-20110Y-2577D01*
X-20112Y-2576D01*
X-20113Y-2575D01*
X-20151Y-2546D01*
X-20153Y-2545D01*
X-20154Y-2544D01*
X-20193Y-2510D01*
X-20196Y-2507D01*
X-20199Y-2504D01*
X-20228Y-2468D01*
X-20229Y-2467D01*
X-20229Y-2466D01*
X-20257Y-2429D01*
X-20259Y-2427D01*
X-20260Y-2424D01*
X-20284Y-2383D01*
X-20285Y-2381D01*
X-20286Y-2380D01*
X-20306Y-2338D01*
X-20307Y-2336D01*
X-20308Y-2334D01*
X-20324Y-2292D01*
X-20325Y-2289D01*
X-20326Y-2286D01*
X-20338Y-2235D01*
X-20338Y-2233D01*
X-20339Y-2231D01*
X-20346Y-2186D01*
X-20346Y-2184D01*
X-20346Y-2182D01*
X-20350Y-2129D01*
X-20350Y-2127D01*
X-20350Y-2125D01*
Y-1225D01*
X-20350Y-1223D01*
X-20350Y-1221D01*
X-20346Y-1166D01*
X-20346Y-1164D01*
X-20345Y-1161D01*
X-20337Y-1116D01*
X-20337Y-1115D01*
X-20337Y-1113D01*
X-20325Y-1063D01*
X-20324Y-1060D01*
X-20323Y-1056D01*
X-20307Y-1016D01*
X-20294Y-984D01*
X-20292Y-980D01*
X-20290Y-977D01*
X-20265Y-934D01*
X-20264Y-932D01*
X-20263Y-930D01*
X-20237Y-893D01*
X-20236Y-892D01*
X-20235Y-890D01*
X-20204Y-852D01*
X-20201Y-850D01*
X-20199Y-847D01*
X-20154Y-806D01*
X-20152Y-804D01*
X-20150Y-803D01*
X-20110Y-773D01*
X-20108Y-772D01*
X-20107Y-771D01*
X-20061Y-742D01*
X-20058Y-740D01*
X-20055Y-738D01*
X-20002Y-714D01*
X-19999Y-713D01*
X-19995Y-712D01*
X-19908Y-686D01*
X-19903Y-685D01*
X-19899Y-684D01*
X-19899Y-684D01*
X-19899Y-684D01*
X-19899D01*
X-19805Y-675D01*
X-19802Y-675D01*
X-19800Y-675D01*
X-18200D01*
X-18190Y-676D01*
D02*
G37*
D29*
X-26725Y-7350D02*
D03*
Y-8150D02*
D03*
D92*
X-23245Y-41105D02*
D03*
D93*
X-15000Y-6425D02*
D03*
D94*
X-15550D02*
D03*
X-15050Y-7725D02*
D03*
X-15550D02*
D03*
D95*
X-16050Y-6225D02*
D03*
X-16550D02*
D03*
X-16050Y-7925D02*
D03*
X-16550D02*
D03*
D96*
X-16430Y-7075D02*
D03*
D97*
X-13875Y-6325D02*
D03*
Y-7725D02*
D03*
D98*
X-34942Y-38686D02*
D03*
X-33942D02*
D03*
X-34942Y-39636D02*
D03*
X-33942D02*
D03*
X-17825Y-6125D02*
D03*
X-18825D02*
D03*
X-22100Y-9800D02*
D03*
X-23100D02*
D03*
X-30150Y-9850D02*
D03*
X-31150D02*
D03*
X-22100Y-11550D02*
D03*
X-23100D02*
D03*
X-26050Y-42525D02*
D03*
X-25050D02*
D03*
X-26050Y-43472D02*
D03*
X-25050D02*
D03*
D99*
X-14300Y-4475D02*
D03*
X-14950D02*
D03*
X-15600D02*
D03*
X-16250D02*
D03*
X-16900D02*
D03*
D100*
X-31000Y-7650D02*
D03*
Y-2150D02*
D03*
X-35000D02*
D03*
Y-7650D02*
D03*
X-24000D02*
D03*
Y-2150D02*
D03*
X-28000D02*
D03*
Y-7650D02*
D03*
D101*
X-34600Y-41300D02*
D03*
Y-42700D02*
D03*
D102*
X-33400Y-41525D02*
D03*
Y-42475D02*
D03*
X-24095Y-42525D02*
D03*
Y-43475D02*
D03*
Y-45447D02*
D03*
Y-44497D02*
D03*
D103*
X-35675Y-12450D02*
D03*
Y-11450D02*
D03*
X-26050Y-45400D02*
D03*
Y-44400D02*
D03*
Y-40600D02*
D03*
Y-41600D02*
D03*
D104*
X-18800Y-7025D02*
D03*
X-17850D02*
D03*
X-12750Y-6425D02*
D03*
X-11800D02*
D03*
X-12750Y-7725D02*
D03*
X-11800D02*
D03*
X-22125Y-10675D02*
D03*
X-23075D02*
D03*
D105*
X-22645Y-45350D02*
D03*
Y-42750D02*
D03*
D106*
X-30000Y-42000D02*
D03*
D107*
X-31250Y-40150D02*
D03*
X-30750D02*
D03*
X-30250D02*
D03*
X-29750D02*
D03*
X-29250D02*
D03*
X-28750D02*
D03*
Y-43850D02*
D03*
X-29250D02*
D03*
X-29750D02*
D03*
X-30250D02*
D03*
X-30750D02*
D03*
X-31250D02*
D03*
D108*
X-28150Y-40750D02*
D03*
Y-41250D02*
D03*
Y-41750D02*
D03*
Y-42250D02*
D03*
Y-42750D02*
D03*
Y-43250D02*
D03*
X-31850D02*
D03*
Y-42750D02*
D03*
Y-42250D02*
D03*
Y-41750D02*
D03*
Y-41250D02*
D03*
Y-40750D02*
D03*
D109*
X-24095Y-41100D02*
D03*
X-22395D02*
D03*
D110*
X-34075Y-12450D02*
D03*
Y-11450D02*
D03*
X-8750Y-3000D02*
D03*
Y-2000D02*
D03*
X-6500Y-3000D02*
D03*
Y-2000D02*
D03*
D111*
X-16750Y-1675D02*
D03*
X-14450D02*
D03*
D112*
X-13375Y-4800D02*
D03*
X-17825D02*
D03*
D113*
X-19250Y-1675D02*
D03*
X-11950D02*
D03*
D114*
X-36696Y-19840D02*
D03*
X-6970Y-13490D02*
D03*
Y-28730D02*
D03*
X-41776Y-19840D02*
D03*
D115*
X-36696Y-17300D02*
D03*
Y-14760D02*
D03*
X-4430Y-13490D02*
D03*
Y-16030D02*
D03*
X-6970D02*
D03*
X-4430Y-38890D02*
D03*
Y-28730D02*
D03*
Y-31270D02*
D03*
X-6970D02*
D03*
X-4430Y-33810D02*
D03*
X-6970D02*
D03*
X-4430Y-36350D02*
D03*
X-6970D02*
D03*
Y-38890D02*
D03*
Y-51590D02*
D03*
Y-49050D02*
D03*
X-4430D02*
D03*
X-6970Y-46510D02*
D03*
X-4430D02*
D03*
X-6970Y-43970D02*
D03*
X-4430D02*
D03*
Y-41430D02*
D03*
X-6970D02*
D03*
X-4430Y-51590D02*
D03*
X-41776Y-17300D02*
D03*
Y-14760D02*
D03*
X-41430Y-55570D02*
D03*
X-31270Y-53030D02*
D03*
Y-55570D02*
D03*
X-33810D02*
D03*
Y-53030D02*
D03*
X-36350Y-55570D02*
D03*
Y-53030D02*
D03*
X-38890Y-55570D02*
D03*
Y-53030D02*
D03*
X-41430D02*
D03*
X-28730D02*
D03*
X-26190D02*
D03*
Y-55570D02*
D03*
X-23650Y-53030D02*
D03*
Y-55570D02*
D03*
X-21110Y-53030D02*
D03*
Y-55570D02*
D03*
X-18570D02*
D03*
X-28730D02*
D03*
D116*
X-41270Y-10950D02*
D03*
X-38730D02*
D03*
X-18570Y-53030D02*
D03*
D117*
X-3160Y-21740D02*
D03*
X-4430D02*
D03*
X-5700D02*
D03*
X-6970D02*
D03*
Y-23010D02*
D03*
X-5700D02*
D03*
X-4430D02*
D03*
X-3160D02*
D03*
X-8240D02*
D03*
Y-21740D02*
D03*
D118*
X-57650Y-57650D02*
D03*
X-2350D02*
D03*
X-57650Y-2350D02*
D03*
X-2350D02*
D03*
M02*
