G04 Layer_Color=16711935*
%FSLAX43Y43*%
%MOMM*%
G71*
G01*
G75*
%ADD29C,0.550*%
%ADD92R,0.900X0.510*%
%ADD98R,0.700X0.650*%
%ADD101R,0.950X0.900*%
%ADD102R,0.600X0.750*%
%ADD103R,0.650X0.700*%
%ADD104R,0.750X0.600*%
%ADD109R,1.100X1.050*%
G04:AMPARAMS|DCode=112|XSize=1.15mm|YSize=1.35mm|CornerRadius=0.575mm|HoleSize=0mm|Usage=FLASHONLY|Rotation=180.000|XOffset=0mm|YOffset=0mm|HoleType=Round|Shape=RoundedRectangle|*
%AMROUNDEDRECTD112*
21,1,1.150,0.200,0,0,180.0*
21,1,0.000,1.350,0,0,180.0*
1,1,1.150,0.000,0.100*
1,1,1.150,0.000,0.100*
1,1,1.150,0.000,-0.100*
1,1,1.150,0.000,-0.100*
%
%ADD112ROUNDEDRECTD112*%
G04:AMPARAMS|DCode=113|XSize=2.2mm|YSize=2mm|CornerRadius=0.544mm|HoleSize=0mm|Usage=FLASHONLY|Rotation=180.000|XOffset=0mm|YOffset=0mm|HoleType=Round|Shape=RoundedRectangle|*
%AMROUNDEDRECTD113*
21,1,2.200,0.912,0,0,180.0*
21,1,1.112,2.000,0,0,180.0*
1,1,1.088,-0.556,0.456*
1,1,1.088,0.556,0.456*
1,1,1.088,0.556,-0.456*
1,1,1.088,-0.556,-0.456*
%
%ADD113ROUNDEDRECTD113*%
%ADD114R,1.800X1.800*%
%ADD115C,1.800*%
%ADD116R,1.800X1.800*%
%ADD117C,1.150*%
%ADD118C,3.700*%
%ADD119R,0.510X0.900*%
%ADD120R,0.750X0.900*%
%ADD121C,0.900*%
%ADD122R,1.700X0.550*%
%ADD123R,0.550X1.700*%
%ADD124R,1.400X0.700*%
%ADD125O,0.650X1.850*%
%ADD126O,1.850X0.650*%
%ADD127R,0.900X0.950*%
%ADD128R,0.700X1.400*%
%ADD129R,0.900X0.750*%
%ADD130R,0.800X0.800*%
%ADD131R,0.700X1.000*%
%ADD132R,1.450X1.600*%
%ADD133R,1.600X1.450*%
%ADD134R,0.450X0.950*%
%ADD135R,0.400X0.950*%
%ADD136R,0.400X1.050*%
%ADD137C,1.370*%
%ADD138R,1.150X0.820*%
%ADD139R,0.400X0.450*%
%ADD140C,0.380*%
%ADD141R,1.150X1.400*%
%ADD142R,0.700X0.400*%
%ADD143R,1.100X1.700*%
%ADD144R,1.050X1.100*%
G36*
X-11398Y-675D02*
X-11396Y-675D01*
X-11348Y-679D01*
X-11347Y-679D01*
X-11345Y-679D01*
X-11292Y-686D01*
X-11289Y-687D01*
X-11285Y-688D01*
X-11232Y-703D01*
X-11230Y-703D01*
X-11228Y-704D01*
X-11185Y-720D01*
X-11183Y-721D01*
X-11181Y-722D01*
X-11139Y-742D01*
X-11137Y-743D01*
X-11134Y-745D01*
X-11090Y-773D01*
X-11088Y-774D01*
X-11087Y-775D01*
X-11049Y-804D01*
X-11047Y-805D01*
X-11046Y-806D01*
X-11007Y-840D01*
X-11004Y-843D01*
X-11001Y-846D01*
X-10972Y-882D01*
X-10971Y-883D01*
X-10971Y-884D01*
X-10943Y-921D01*
X-10941Y-923D01*
X-10940Y-926D01*
X-10916Y-967D01*
X-10915Y-969D01*
X-10914Y-970D01*
X-10894Y-1012D01*
X-10893Y-1014D01*
X-10892Y-1016D01*
X-10876Y-1058D01*
X-10875Y-1061D01*
X-10874Y-1064D01*
X-10862Y-1115D01*
X-10862Y-1117D01*
X-10861Y-1119D01*
X-10854Y-1164D01*
X-10854Y-1166D01*
X-10854Y-1168D01*
X-10850Y-1221D01*
X-10850Y-1223D01*
X-10850Y-1225D01*
Y-2125D01*
X-10850Y-2127D01*
X-10850Y-2129D01*
X-10854Y-2184D01*
X-10854Y-2186D01*
X-10855Y-2189D01*
X-10863Y-2234D01*
X-10863Y-2235D01*
X-10863Y-2237D01*
X-10875Y-2287D01*
X-10876Y-2290D01*
X-10877Y-2294D01*
X-10893Y-2334D01*
X-10906Y-2366D01*
X-10908Y-2370D01*
X-10910Y-2373D01*
X-10935Y-2416D01*
X-10936Y-2418D01*
X-10937Y-2420D01*
X-10963Y-2457D01*
X-10964Y-2458D01*
X-10965Y-2460D01*
X-10996Y-2498D01*
X-10999Y-2500D01*
X-11001Y-2503D01*
X-11046Y-2544D01*
X-11048Y-2546D01*
X-11050Y-2547D01*
X-11090Y-2577D01*
X-11092Y-2578D01*
X-11093Y-2579D01*
X-11139Y-2609D01*
X-11142Y-2610D01*
X-11145Y-2612D01*
X-11198Y-2636D01*
X-11201Y-2637D01*
X-11205Y-2638D01*
X-11292Y-2664D01*
X-11297Y-2665D01*
X-11301Y-2666D01*
X-11301Y-2666D01*
X-11301Y-2666D01*
X-11301D01*
X-11395Y-2675D01*
X-11398Y-2675D01*
X-11400Y-2675D01*
X-13000D01*
X-13010Y-2674D01*
X-13019Y-2671D01*
X-13028Y-2667D01*
X-13036Y-2661D01*
X-13042Y-2653D01*
X-13046Y-2644D01*
X-13049Y-2635D01*
X-13050Y-2625D01*
Y-725D01*
X-13049Y-715D01*
X-13046Y-706D01*
X-13042Y-697D01*
X-13036Y-689D01*
X-13028Y-683D01*
X-13019Y-679D01*
X-13010Y-676D01*
X-13000Y-675D01*
X-11400D01*
X-11398Y-675D01*
D02*
G37*
G36*
X-18190Y-676D02*
X-18181Y-679D01*
X-18172Y-683D01*
X-18164Y-689D01*
X-18158Y-697D01*
X-18154Y-706D01*
X-18151Y-715D01*
X-18150Y-725D01*
Y-2625D01*
X-18151Y-2635D01*
X-18154Y-2644D01*
X-18158Y-2653D01*
X-18164Y-2661D01*
X-18172Y-2667D01*
X-18181Y-2671D01*
X-18190Y-2674D01*
X-18200Y-2675D01*
X-19800D01*
X-19802Y-2675D01*
X-19804Y-2675D01*
X-19852Y-2671D01*
X-19853Y-2671D01*
X-19855Y-2671D01*
X-19908Y-2664D01*
X-19911Y-2663D01*
X-19915Y-2662D01*
X-19968Y-2647D01*
X-19970Y-2647D01*
X-19972Y-2646D01*
X-20015Y-2630D01*
X-20017Y-2629D01*
X-20019Y-2628D01*
X-20061Y-2608D01*
X-20063Y-2607D01*
X-20066Y-2605D01*
X-20110Y-2577D01*
X-20112Y-2576D01*
X-20113Y-2575D01*
X-20151Y-2546D01*
X-20153Y-2545D01*
X-20154Y-2544D01*
X-20193Y-2510D01*
X-20196Y-2507D01*
X-20199Y-2504D01*
X-20228Y-2468D01*
X-20229Y-2467D01*
X-20229Y-2466D01*
X-20257Y-2429D01*
X-20259Y-2427D01*
X-20260Y-2424D01*
X-20284Y-2383D01*
X-20285Y-2381D01*
X-20286Y-2380D01*
X-20306Y-2338D01*
X-20307Y-2336D01*
X-20308Y-2334D01*
X-20324Y-2292D01*
X-20325Y-2289D01*
X-20326Y-2286D01*
X-20338Y-2235D01*
X-20338Y-2233D01*
X-20339Y-2231D01*
X-20346Y-2186D01*
X-20346Y-2184D01*
X-20346Y-2182D01*
X-20350Y-2129D01*
X-20350Y-2127D01*
X-20350Y-2125D01*
Y-1225D01*
X-20350Y-1223D01*
X-20350Y-1221D01*
X-20346Y-1166D01*
X-20346Y-1164D01*
X-20345Y-1161D01*
X-20337Y-1116D01*
X-20337Y-1115D01*
X-20337Y-1113D01*
X-20325Y-1063D01*
X-20324Y-1060D01*
X-20323Y-1056D01*
X-20307Y-1016D01*
X-20294Y-984D01*
X-20292Y-980D01*
X-20290Y-977D01*
X-20265Y-934D01*
X-20264Y-932D01*
X-20263Y-930D01*
X-20237Y-893D01*
X-20236Y-892D01*
X-20235Y-890D01*
X-20204Y-852D01*
X-20201Y-850D01*
X-20199Y-847D01*
X-20154Y-806D01*
X-20152Y-804D01*
X-20150Y-803D01*
X-20110Y-773D01*
X-20108Y-772D01*
X-20107Y-771D01*
X-20061Y-742D01*
X-20058Y-740D01*
X-20055Y-738D01*
X-20002Y-714D01*
X-19999Y-713D01*
X-19995Y-712D01*
X-19908Y-686D01*
X-19903Y-685D01*
X-19899Y-684D01*
X-19899Y-684D01*
X-19899Y-684D01*
X-19899D01*
X-19805Y-675D01*
X-19802Y-675D01*
X-19800Y-675D01*
X-18200D01*
X-18190Y-676D01*
D02*
G37*
D29*
X-26725Y-7350D02*
D03*
Y-8150D02*
D03*
D92*
X-27050Y-12145D02*
D03*
D98*
X-48912Y-9908D02*
D03*
X-47912D02*
D03*
X-6350Y-24400D02*
D03*
X-7350D02*
D03*
X-33100Y-44875D02*
D03*
X-32100D02*
D03*
X-31900Y-5475D02*
D03*
X-30900D02*
D03*
X-31900Y-3879D02*
D03*
X-30900D02*
D03*
X-33100Y-45775D02*
D03*
X-32100D02*
D03*
X-49125Y-21825D02*
D03*
X-50125D02*
D03*
X-45550D02*
D03*
X-46550D02*
D03*
X-42000D02*
D03*
X-43000D02*
D03*
X-42050Y-26675D02*
D03*
X-41050D02*
D03*
X-45600D02*
D03*
X-44600D02*
D03*
X-49175D02*
D03*
X-48175D02*
D03*
X-54600Y-23600D02*
D03*
X-55600D02*
D03*
X-53950Y-30900D02*
D03*
X-54950D02*
D03*
X-44200Y-19300D02*
D03*
X-45200D02*
D03*
X-48850Y-39425D02*
D03*
X-47850D02*
D03*
X-48900Y-10850D02*
D03*
X-47900D02*
D03*
X-46350Y-10375D02*
D03*
X-45350D02*
D03*
X-12781Y-10279D02*
D03*
X-11781D02*
D03*
X-9806D02*
D03*
X-10806D02*
D03*
X-2700Y-11100D02*
D03*
X-1700D02*
D03*
X-5200D02*
D03*
X-4200D02*
D03*
X-56850Y-30900D02*
D03*
X-55850D02*
D03*
D101*
X-56700Y-18175D02*
D03*
Y-19575D02*
D03*
X-48125Y-18025D02*
D03*
Y-16625D02*
D03*
X-56750Y-16575D02*
D03*
Y-15175D02*
D03*
X-52750Y-24725D02*
D03*
Y-26125D02*
D03*
X-27800Y-4150D02*
D03*
Y-2750D02*
D03*
X-24500Y-4150D02*
D03*
Y-2750D02*
D03*
D102*
X-57550Y-28925D02*
D03*
Y-27975D02*
D03*
X-55650Y-15700D02*
D03*
Y-16650D02*
D03*
X-51650Y-25450D02*
D03*
Y-24500D02*
D03*
X-46975Y-39450D02*
D03*
Y-40400D02*
D03*
Y-41350D02*
D03*
Y-42300D02*
D03*
X-53075Y-36000D02*
D03*
Y-35050D02*
D03*
X-52250Y-36000D02*
D03*
Y-35050D02*
D03*
X-40600Y-33350D02*
D03*
Y-32400D02*
D03*
X-28900Y-6825D02*
D03*
Y-7775D02*
D03*
X-16900Y-19325D02*
D03*
Y-20275D02*
D03*
X-30000Y-21425D02*
D03*
Y-22375D02*
D03*
X-30875Y-21425D02*
D03*
Y-22375D02*
D03*
X-40600Y-34350D02*
D03*
Y-35300D02*
D03*
X-16900Y-18425D02*
D03*
Y-17475D02*
D03*
Y-22175D02*
D03*
Y-21225D02*
D03*
D103*
X-4419Y-19125D02*
D03*
Y-18125D02*
D03*
X-39750Y-23675D02*
D03*
Y-22675D02*
D03*
X-56500Y-23575D02*
D03*
Y-22575D02*
D03*
X-46125Y-41325D02*
D03*
Y-42325D02*
D03*
Y-39425D02*
D03*
Y-40425D02*
D03*
X-5200Y-9700D02*
D03*
Y-8700D02*
D03*
X-1200Y-8700D02*
D03*
Y-9700D02*
D03*
X-8925Y-10300D02*
D03*
Y-11300D02*
D03*
X-20300Y-16200D02*
D03*
Y-17200D02*
D03*
Y-19200D02*
D03*
Y-18200D02*
D03*
X-17800Y-18450D02*
D03*
Y-17450D02*
D03*
X-37875Y-21750D02*
D03*
Y-22750D02*
D03*
X-38700Y-22750D02*
D03*
Y-21750D02*
D03*
X-36925Y-26628D02*
D03*
Y-25628D02*
D03*
X-37825Y-26628D02*
D03*
Y-25628D02*
D03*
X-57550Y-25950D02*
D03*
Y-26950D02*
D03*
D104*
X-55575Y-22775D02*
D03*
X-54625D02*
D03*
X-54925Y-31725D02*
D03*
X-53975D02*
D03*
X-31200Y-18900D02*
D03*
X-32150D02*
D03*
X-25025Y-15100D02*
D03*
X-25975D02*
D03*
X-25025Y-16000D02*
D03*
X-25975D02*
D03*
X-23875Y-15100D02*
D03*
X-22925D02*
D03*
X-23875Y-16000D02*
D03*
X-22925D02*
D03*
X-20275Y-21300D02*
D03*
X-19325D02*
D03*
X-25850Y-25500D02*
D03*
X-24900D02*
D03*
X-25850Y-26400D02*
D03*
X-24900D02*
D03*
D109*
X-26200Y-12150D02*
D03*
X-27900D02*
D03*
D112*
X-13375Y-4800D02*
D03*
X-17825D02*
D03*
D113*
X-19250Y-1675D02*
D03*
X-11950D02*
D03*
D114*
X-36696Y-19840D02*
D03*
X-6970Y-13490D02*
D03*
Y-28730D02*
D03*
X-41776Y-19840D02*
D03*
D115*
X-36696Y-17300D02*
D03*
Y-14760D02*
D03*
X-4430Y-13490D02*
D03*
Y-16030D02*
D03*
X-6970D02*
D03*
X-4430Y-38890D02*
D03*
Y-28730D02*
D03*
Y-31270D02*
D03*
X-6970D02*
D03*
X-4430Y-33810D02*
D03*
X-6970D02*
D03*
X-4430Y-36350D02*
D03*
X-6970D02*
D03*
Y-38890D02*
D03*
Y-51590D02*
D03*
Y-49050D02*
D03*
X-4430D02*
D03*
X-6970Y-46510D02*
D03*
X-4430D02*
D03*
X-6970Y-43970D02*
D03*
X-4430D02*
D03*
Y-41430D02*
D03*
X-6970D02*
D03*
X-4430Y-51590D02*
D03*
X-41270Y-10950D02*
D03*
X-38730D02*
D03*
X-41776Y-17300D02*
D03*
Y-14760D02*
D03*
X-41430Y-55570D02*
D03*
X-31270Y-53030D02*
D03*
Y-55570D02*
D03*
X-33810D02*
D03*
Y-53030D02*
D03*
X-36350Y-55570D02*
D03*
Y-53030D02*
D03*
X-38890Y-55570D02*
D03*
Y-53030D02*
D03*
X-41430D02*
D03*
X-28730D02*
D03*
X-26190D02*
D03*
Y-55570D02*
D03*
X-23650Y-53030D02*
D03*
Y-55570D02*
D03*
X-21110Y-53030D02*
D03*
Y-55570D02*
D03*
X-18570D02*
D03*
X-28730D02*
D03*
D116*
X-18570Y-53030D02*
D03*
D117*
X-3160Y-21740D02*
D03*
X-4430D02*
D03*
X-5700D02*
D03*
X-6970D02*
D03*
Y-23010D02*
D03*
X-5700D02*
D03*
X-4430D02*
D03*
X-3160D02*
D03*
X-8240D02*
D03*
Y-21740D02*
D03*
D118*
X-57650Y-57650D02*
D03*
X-2350D02*
D03*
X-57650Y-2350D02*
D03*
X-2350D02*
D03*
D119*
X-15002Y-13326D02*
D03*
D120*
X-13750Y-30150D02*
D03*
Y-31350D02*
D03*
X-27580Y-31375D02*
D03*
Y-30175D02*
D03*
X-15050Y-31375D02*
D03*
Y-30175D02*
D03*
X-16350Y-31375D02*
D03*
Y-30175D02*
D03*
X-32780Y-30175D02*
D03*
Y-31375D02*
D03*
X-31480Y-30175D02*
D03*
Y-31375D02*
D03*
X-28880Y-30175D02*
D03*
Y-31375D02*
D03*
X-58075Y-15250D02*
D03*
Y-16450D02*
D03*
X-26280Y-30175D02*
D03*
Y-31375D02*
D03*
X-18950Y-30175D02*
D03*
Y-31375D02*
D03*
X-17650Y-30175D02*
D03*
Y-31375D02*
D03*
X-30180Y-31375D02*
D03*
Y-30175D02*
D03*
D121*
X-55900Y-34300D02*
D03*
X-32125Y-17250D02*
D03*
X-24525Y-13525D02*
D03*
X-56548Y-20950D02*
D03*
X-53975Y-33500D02*
D03*
X-59025Y-27450D02*
D03*
X-17650Y-28900D02*
D03*
X-18950D02*
D03*
X-28880D02*
D03*
X-30180Y-28900D02*
D03*
X-31480Y-28900D02*
D03*
X-32780D02*
D03*
X-28880Y-32650D02*
D03*
X-47850Y-21700D02*
D03*
X-2575Y-6300D02*
D03*
X-2800Y-12775D02*
D03*
X-18757Y-19575D02*
D03*
X-51336Y-10500D02*
D03*
X-58675Y-21575D02*
D03*
X-48125Y-15425D02*
D03*
X-56150Y-32775D02*
D03*
X-52625Y-21725D02*
D03*
X-37550Y-33100D02*
D03*
X-51375Y-21175D02*
D03*
X-50649Y-27124D02*
D03*
X-44485Y-43175D02*
D03*
X-57950Y-24175D02*
D03*
X-58575Y-17850D02*
D03*
X-30650Y-7750D02*
D03*
X-46830Y-15420D02*
D03*
X-29525Y-4424D02*
D03*
X-40209Y-21300D02*
D03*
X-44275Y-21725D02*
D03*
X-9231Y-14804D02*
D03*
X-9231Y-13004D02*
D03*
X-16350Y-28900D02*
D03*
X-15050Y-28900D02*
D03*
X-40950Y-39425D02*
D03*
X-16050Y-8775D02*
D03*
X-13750Y-28900D02*
D03*
X-1250Y-12800D02*
D03*
X-1250Y-6825D02*
D03*
X-25000Y-33550D02*
D03*
X-29060Y-26000D02*
D03*
X-26280Y-28900D02*
D03*
X-27580D02*
D03*
X-24284Y-31800D02*
D03*
X-23495Y-33550D02*
D03*
X-56106Y-13748D02*
D03*
X-6800Y-11025D02*
D03*
X-44200Y-20225D02*
D03*
X-36625Y-11450D02*
D03*
X-21450Y-32625D02*
D03*
X-20450Y-31800D02*
D03*
X-22550Y-31800D02*
D03*
X-22550Y-29800D02*
D03*
X-20450Y-29800D02*
D03*
X-43725Y-26675D02*
D03*
X-39700D02*
D03*
X-33717Y-3879D02*
D03*
X-36275Y-21825D02*
D03*
X-52750Y-32799D02*
D03*
X-39225Y-24975D02*
D03*
X-16725Y-16050D02*
D03*
X-22100Y-12450D02*
D03*
X-17025Y-10075D02*
D03*
X-37200Y-24250D02*
D03*
X-35925Y-24250D02*
D03*
D122*
X-54150Y-17925D02*
D03*
Y-17275D02*
D03*
Y-16625D02*
D03*
Y-15975D02*
D03*
X-49900Y-17925D02*
D03*
Y-17275D02*
D03*
Y-16625D02*
D03*
Y-15975D02*
D03*
D123*
X-56250Y-25125D02*
D03*
X-55600D02*
D03*
X-54950D02*
D03*
X-54300D02*
D03*
X-56250Y-29375D02*
D03*
X-55600D02*
D03*
X-54950D02*
D03*
X-54300D02*
D03*
D124*
X-42635Y-40375D02*
D03*
X-44735Y-39425D02*
D03*
Y-41325D02*
D03*
X-52950Y-20525D02*
D03*
X-55050Y-19575D02*
D03*
Y-21475D02*
D03*
X-50400Y-13075D02*
D03*
X-48300Y-14025D02*
D03*
Y-12125D02*
D03*
X-52200Y-13075D02*
D03*
X-54300Y-12125D02*
D03*
Y-14025D02*
D03*
D125*
X-43724Y-37176D02*
D03*
X-44524D02*
D03*
X-45324D02*
D03*
X-46124D02*
D03*
X-46924D02*
D03*
X-47724D02*
D03*
X-48524D02*
D03*
X-49324D02*
D03*
Y-28926D02*
D03*
X-48524D02*
D03*
X-47724D02*
D03*
X-46924D02*
D03*
X-46124D02*
D03*
X-45324D02*
D03*
X-44524D02*
D03*
X-43724D02*
D03*
D126*
X-50649Y-35851D02*
D03*
Y-35051D02*
D03*
Y-34251D02*
D03*
Y-33451D02*
D03*
Y-32651D02*
D03*
Y-31851D02*
D03*
Y-31051D02*
D03*
Y-30251D02*
D03*
X-42399D02*
D03*
Y-31051D02*
D03*
Y-31851D02*
D03*
Y-32651D02*
D03*
Y-33451D02*
D03*
Y-34251D02*
D03*
Y-35051D02*
D03*
Y-35851D02*
D03*
D127*
X-51150Y-19475D02*
D03*
X-49750D02*
D03*
X-47950D02*
D03*
X-46550D02*
D03*
X-25875Y-5700D02*
D03*
X-27275D02*
D03*
D128*
X-49100Y-23200D02*
D03*
X-50050Y-25300D02*
D03*
X-48150D02*
D03*
X-45550Y-23200D02*
D03*
X-46500Y-25300D02*
D03*
X-44600D02*
D03*
X-42000Y-23200D02*
D03*
X-42950Y-25300D02*
D03*
X-41050D02*
D03*
X-45625Y-15750D02*
D03*
X-46575Y-17850D02*
D03*
X-44675D02*
D03*
X-45625Y-11850D02*
D03*
X-46575Y-13950D02*
D03*
X-44675D02*
D03*
D129*
X-51625Y-23425D02*
D03*
X-52825D02*
D03*
X-10400Y-26500D02*
D03*
X-11600D02*
D03*
X-10425Y-25325D02*
D03*
X-11625D02*
D03*
D130*
X-54200Y-36000D02*
D03*
X-55600D02*
D03*
X-32775Y-20000D02*
D03*
X-31375D02*
D03*
D131*
X-39325Y-31950D02*
D03*
Y-33050D02*
D03*
Y-35750D02*
D03*
Y-34650D02*
D03*
D132*
X-26200Y-10175D02*
D03*
X-27850D02*
D03*
D133*
X-24075Y-7800D02*
D03*
Y-6150D02*
D03*
D134*
X-3875Y-9725D02*
D03*
X-3225D02*
D03*
X-2575D02*
D03*
Y-7875D02*
D03*
X-3225D02*
D03*
X-3875D02*
D03*
D135*
X-26650Y-4350D02*
D03*
Y-3100D02*
D03*
X-25650D02*
D03*
X-26150Y-4350D02*
D03*
Y-3100D02*
D03*
D136*
X-25650Y-4300D02*
D03*
D137*
X-38600Y-7500D02*
D03*
Y-3500D02*
D03*
X-41600Y-7500D02*
D03*
X-38600Y-5500D02*
D03*
X-41600D02*
D03*
Y-3500D02*
D03*
X-38600Y-1500D02*
D03*
X-41600D02*
D03*
X-26000D02*
D03*
X-33000D02*
D03*
D138*
X-11681Y-14644D02*
D03*
X-11681Y-13664D02*
D03*
X-11681Y-12319D02*
D03*
X-11681Y-11339D02*
D03*
D139*
X-12556Y-13504D02*
D03*
Y-14154D02*
D03*
Y-14804D02*
D03*
X-10806D02*
D03*
Y-14154D02*
D03*
Y-13504D02*
D03*
X-12556Y-11179D02*
D03*
Y-11829D02*
D03*
Y-12479D02*
D03*
X-10806D02*
D03*
Y-11829D02*
D03*
Y-11179D02*
D03*
D140*
X-22100Y-23700D02*
D03*
Y-23050D02*
D03*
Y-22400D02*
D03*
Y-21750D02*
D03*
Y-20450D02*
D03*
Y-19800D02*
D03*
Y-19150D02*
D03*
Y-21100D02*
D03*
X-22750D02*
D03*
X-23400D02*
D03*
X-24050D02*
D03*
X-24700D02*
D03*
X-25350D02*
D03*
X-26000D02*
D03*
X-26650D02*
D03*
X-27300D02*
D03*
X-27950D02*
D03*
X-22750Y-23700D02*
D03*
X-23400D02*
D03*
X-24050D02*
D03*
X-24700D02*
D03*
X-25350D02*
D03*
X-26000D02*
D03*
X-26650D02*
D03*
X-27300D02*
D03*
X-27950D02*
D03*
X-22750Y-23050D02*
D03*
X-23400D02*
D03*
X-24050D02*
D03*
X-24700D02*
D03*
X-25350D02*
D03*
X-26000D02*
D03*
X-26650D02*
D03*
X-27300D02*
D03*
X-27950D02*
D03*
X-22750Y-22400D02*
D03*
X-23400D02*
D03*
X-24050D02*
D03*
X-24700D02*
D03*
X-25350D02*
D03*
X-26000D02*
D03*
X-26650D02*
D03*
X-27300D02*
D03*
X-27950D02*
D03*
X-22750Y-21750D02*
D03*
X-23400D02*
D03*
X-24050D02*
D03*
X-24700D02*
D03*
X-25350D02*
D03*
X-26000D02*
D03*
X-26650D02*
D03*
X-27300D02*
D03*
X-27950D02*
D03*
X-22750Y-20450D02*
D03*
X-23400D02*
D03*
X-24050D02*
D03*
X-24700D02*
D03*
X-25350D02*
D03*
X-26000D02*
D03*
X-26650D02*
D03*
X-27300D02*
D03*
X-27950D02*
D03*
X-22750Y-19800D02*
D03*
X-23400D02*
D03*
X-24050D02*
D03*
X-24700D02*
D03*
X-25350D02*
D03*
X-26000D02*
D03*
X-26650D02*
D03*
X-27300D02*
D03*
X-27950D02*
D03*
X-22750Y-19150D02*
D03*
X-23400D02*
D03*
X-24050D02*
D03*
X-24700D02*
D03*
X-25350D02*
D03*
X-26000D02*
D03*
X-26650D02*
D03*
X-27300D02*
D03*
X-27950D02*
D03*
X-22100Y-18500D02*
D03*
X-22750D02*
D03*
X-23400D02*
D03*
X-24050D02*
D03*
X-24700D02*
D03*
X-25350D02*
D03*
X-26000D02*
D03*
X-26650D02*
D03*
X-27300D02*
D03*
X-27950D02*
D03*
X-22100Y-17850D02*
D03*
X-22750D02*
D03*
X-23400D02*
D03*
X-24050D02*
D03*
X-24700D02*
D03*
X-25350D02*
D03*
X-26000D02*
D03*
X-26650D02*
D03*
X-27300D02*
D03*
X-27950D02*
D03*
D141*
X-13775Y-19100D02*
D03*
X-15625Y-21400D02*
D03*
Y-19100D02*
D03*
X-13775Y-21400D02*
D03*
D142*
X-27775Y-8400D02*
D03*
Y-7750D02*
D03*
Y-7100D02*
D03*
X-25675D02*
D03*
Y-7750D02*
D03*
Y-8400D02*
D03*
D143*
X-26725Y-7750D02*
D03*
D144*
X-15007Y-14176D02*
D03*
Y-12476D02*
D03*
M02*
