G04 Layer_Physical_Order=4*
G04 Layer_Color=16711680*
%FSLAX43Y43*%
%MOMM*%
G71*
G01*
G75*
%ADD10C,0.180*%
%ADD16R,0.600X0.550*%
%ADD19R,0.850X0.800*%
%ADD20R,0.500X0.650*%
%ADD21R,0.550X0.600*%
%ADD22R,0.650X0.500*%
%ADD27R,1.000X0.950*%
%ADD29C,0.550*%
%ADD30C,0.175*%
%ADD31C,0.150*%
%ADD32C,0.200*%
%ADD33C,0.300*%
%ADD34C,0.400*%
%ADD35C,0.250*%
%ADD37R,0.900X0.300*%
G04:AMPARAMS|DCode=38|XSize=1.05mm|YSize=1.25mm|CornerRadius=0.525mm|HoleSize=0mm|Usage=FLASHONLY|Rotation=180.000|XOffset=0mm|YOffset=0mm|HoleType=Round|Shape=RoundedRectangle|*
%AMROUNDEDRECTD38*
21,1,1.050,0.200,0,0,180.0*
21,1,0.000,1.250,0,0,180.0*
1,1,1.050,0.000,0.100*
1,1,1.050,0.000,0.100*
1,1,1.050,0.000,-0.100*
1,1,1.050,0.000,-0.100*
%
%ADD38ROUNDEDRECTD38*%
G04:AMPARAMS|DCode=39|XSize=2.1mm|YSize=1.9mm|CornerRadius=0.494mm|HoleSize=0mm|Usage=FLASHONLY|Rotation=180.000|XOffset=0mm|YOffset=0mm|HoleType=Round|Shape=RoundedRectangle|*
%AMROUNDEDRECTD39*
21,1,2.100,0.912,0,0,180.0*
21,1,1.112,1.900,0,0,180.0*
1,1,0.988,-0.556,0.456*
1,1,0.988,0.556,0.456*
1,1,0.988,0.556,-0.456*
1,1,0.988,-0.556,-0.456*
%
%ADD39ROUNDEDRECTD39*%
%ADD40R,1.700X1.700*%
%ADD41C,1.700*%
%ADD42R,1.700X1.700*%
%ADD43C,1.050*%
%ADD44C,3.600*%
%ADD45C,0.400*%
%ADD58R,0.650X0.800*%
%ADD59C,0.800*%
%ADD60R,1.600X0.450*%
%ADD61R,0.450X1.600*%
%ADD62R,1.300X0.600*%
%ADD63O,0.550X1.750*%
%ADD64O,1.750X0.550*%
%ADD65R,0.800X0.850*%
%ADD66R,0.600X1.300*%
%ADD67R,0.800X0.650*%
%ADD68R,0.700X0.700*%
%ADD69R,0.600X0.900*%
%ADD70R,1.350X1.500*%
%ADD71R,1.500X1.350*%
%ADD72R,0.350X0.850*%
%ADD73R,0.300X0.850*%
%ADD74R,0.300X0.950*%
%ADD75C,1.270*%
%ADD76R,1.050X0.720*%
%ADD77R,0.300X0.350*%
%ADD78C,0.280*%
%ADD79R,1.050X1.300*%
%ADD80R,0.600X0.300*%
%ADD81R,1.000X1.600*%
%ADD82R,0.950X1.000*%
%ADD83C,0.125*%
%ADD84R,0.300X0.900*%
G36*
X-18200Y-2625D02*
X-19800D01*
X-19848Y-2621D01*
X-19901Y-2614D01*
X-19954Y-2599D01*
X-19997Y-2583D01*
X-20039Y-2563D01*
X-20083Y-2535D01*
X-20121Y-2506D01*
X-20160Y-2472D01*
X-20189Y-2436D01*
X-20217Y-2399D01*
X-20241Y-2358D01*
X-20261Y-2316D01*
X-20277Y-2274D01*
X-20289Y-2223D01*
X-20296Y-2178D01*
X-20300Y-2125D01*
Y-1225D01*
X-20296Y-1170D01*
X-20288Y-1125D01*
X-20276Y-1075D01*
X-20260Y-1035D01*
X-20247Y-1002D01*
X-20222Y-959D01*
X-20196Y-922D01*
X-20165Y-884D01*
X-20120Y-843D01*
X-20080Y-813D01*
X-20034Y-784D01*
X-19981Y-760D01*
X-19894Y-734D01*
X-19800Y-725D01*
X-18200D01*
Y-2625D01*
D02*
G37*
G36*
X-11352Y-729D02*
X-11299Y-736D01*
X-11246Y-751D01*
X-11203Y-767D01*
X-11161Y-787D01*
X-11117Y-815D01*
X-11079Y-844D01*
X-11040Y-878D01*
X-11011Y-914D01*
X-10983Y-951D01*
X-10959Y-992D01*
X-10939Y-1034D01*
X-10923Y-1076D01*
X-10911Y-1127D01*
X-10904Y-1172D01*
X-10900Y-1225D01*
Y-2125D01*
X-10904Y-2180D01*
X-10912Y-2225D01*
X-10924Y-2275D01*
X-10940Y-2315D01*
X-10953Y-2348D01*
X-10978Y-2391D01*
X-11004Y-2428D01*
X-11035Y-2466D01*
X-11080Y-2507D01*
X-11120Y-2537D01*
X-11166Y-2566D01*
X-11219Y-2590D01*
X-11306Y-2616D01*
X-11400Y-2625D01*
X-13000D01*
Y-725D01*
X-11400D01*
X-11352Y-729D01*
D02*
G37*
G36*
X-43500Y-21725D02*
X-43000D01*
Y-21825D01*
X-42900D01*
Y-22300D01*
X-42571D01*
X-42486Y-22367D01*
X-42475Y-22417D01*
Y-24025D01*
X-41960D01*
X-41911Y-24142D01*
X-42348Y-24579D01*
X-42475Y-24527D01*
Y-24475D01*
X-43031D01*
X-43466Y-24041D01*
X-43573Y-23969D01*
X-43700Y-23944D01*
X-45075D01*
Y-22375D01*
X-45075D01*
X-45075Y-22275D01*
X-45075D01*
Y-22005D01*
X-44779D01*
X-44689Y-22140D01*
X-44499Y-22267D01*
X-44275Y-22311D01*
X-44051Y-22267D01*
X-43860Y-22140D01*
X-43733Y-21949D01*
X-43689Y-21725D01*
X-43733Y-21501D01*
X-43754Y-21469D01*
X-43694Y-21357D01*
X-43500D01*
Y-21725D01*
D02*
G37*
G36*
X-55875Y-20050D02*
X-54637D01*
X-54589Y-20167D01*
X-55248Y-20827D01*
X-55309Y-20918D01*
X-55325Y-21000D01*
X-55453D01*
X-55702Y-20752D01*
X-55793Y-20691D01*
X-55900Y-20670D01*
X-56044D01*
X-56134Y-20535D01*
X-56324Y-20408D01*
X-56548Y-20364D01*
X-56773Y-20408D01*
X-56963Y-20535D01*
X-57090Y-20726D01*
X-57135Y-20950D01*
X-57090Y-21174D01*
X-56963Y-21365D01*
X-56773Y-21492D01*
X-56548Y-21536D01*
X-56324Y-21492D01*
X-56134Y-21365D01*
X-56105Y-21321D01*
X-55976Y-21308D01*
X-55875Y-21403D01*
Y-21950D01*
X-54225D01*
Y-21000D01*
X-54463D01*
X-54511Y-20883D01*
X-53892Y-20264D01*
X-53775Y-20312D01*
Y-21000D01*
X-52723D01*
X-52707Y-21026D01*
X-52769Y-21167D01*
X-52849Y-21183D01*
X-53040Y-21310D01*
X-53167Y-21501D01*
X-53211Y-21725D01*
X-53167Y-21949D01*
X-53040Y-22140D01*
X-52905Y-22229D01*
Y-22925D01*
X-53400D01*
Y-23925D01*
X-53105D01*
Y-24150D01*
X-53350D01*
Y-24446D01*
X-53376D01*
X-53484Y-24467D01*
X-53575Y-24528D01*
X-53773Y-24726D01*
X-53900Y-24674D01*
Y-24150D01*
X-54060D01*
X-54125Y-24050D01*
Y-23150D01*
X-54125D01*
Y-22350D01*
X-56025D01*
Y-22075D01*
X-56400D01*
Y-22575D01*
X-56500D01*
Y-22675D01*
X-56975D01*
Y-23075D01*
X-56975D01*
X-56950Y-23100D01*
Y-23295D01*
X-57350D01*
X-57350Y-23295D01*
X-57457Y-23316D01*
X-57548Y-23377D01*
X-57548Y-23377D01*
X-57792Y-23620D01*
X-57950Y-23589D01*
X-58174Y-23633D01*
X-58232Y-23672D01*
X-58344Y-23612D01*
Y-22045D01*
X-58260Y-21990D01*
X-58133Y-21799D01*
X-58089Y-21575D01*
X-58112Y-21456D01*
X-56806Y-20150D01*
X-56100D01*
Y-19906D01*
X-55875D01*
Y-20050D01*
D02*
G37*
G36*
X-44350Y-33296D02*
X-44413Y-33413D01*
X-44524Y-33391D01*
X-44699Y-33426D01*
X-44848Y-33526D01*
X-44948Y-33674D01*
X-44983Y-33850D01*
X-44948Y-34026D01*
X-44848Y-34174D01*
X-44804Y-34204D01*
Y-36222D01*
X-44847Y-36251D01*
X-44877Y-36270D01*
X-44971D01*
X-45000Y-36251D01*
X-45148Y-36152D01*
X-45324Y-36117D01*
X-45499Y-36152D01*
X-45647Y-36251D01*
X-45677Y-36270D01*
X-45771D01*
X-45800Y-36251D01*
X-45948Y-36152D01*
X-46124Y-36117D01*
X-46299Y-36152D01*
X-46447Y-36251D01*
X-46477Y-36270D01*
X-46536D01*
X-46643Y-36173D01*
Y-35290D01*
Y-33880D01*
X-46599Y-33851D01*
X-46500Y-33702D01*
X-46465Y-33526D01*
X-46500Y-33351D01*
X-46599Y-33202D01*
X-46748Y-33102D01*
X-46924Y-33067D01*
X-47099Y-33102D01*
X-47248Y-33202D01*
X-47348Y-33351D01*
X-47383Y-33526D01*
X-47348Y-33702D01*
X-47248Y-33851D01*
X-47204Y-33880D01*
Y-35010D01*
X-47365D01*
X-47472Y-35031D01*
X-47563Y-35092D01*
X-47922Y-35451D01*
X-47983Y-35542D01*
X-48004Y-35649D01*
Y-36222D01*
X-48047Y-36251D01*
X-48077Y-36270D01*
X-48171D01*
X-48200Y-36251D01*
X-48348Y-36152D01*
X-48524Y-36117D01*
X-48699Y-36152D01*
X-48847Y-36251D01*
X-48877Y-36270D01*
X-48881D01*
X-49000Y-36148D01*
Y-34350D01*
X-49510D01*
X-49590Y-34252D01*
X-49590Y-34251D01*
X-49625Y-34076D01*
X-49724Y-33928D01*
X-49742Y-33898D01*
Y-33839D01*
X-49646Y-33732D01*
X-49301D01*
X-49194Y-33710D01*
X-49103Y-33649D01*
X-48702Y-33248D01*
X-48641Y-33157D01*
X-48620Y-33050D01*
Y-32804D01*
X-48576Y-32775D01*
X-48476Y-32626D01*
X-48441Y-32450D01*
X-48476Y-32275D01*
X-48497Y-32244D01*
X-48437Y-32132D01*
X-47779D01*
X-47749Y-32176D01*
X-47601Y-32275D01*
X-47425Y-32310D01*
X-47249Y-32275D01*
X-47101Y-32176D01*
X-47001Y-32027D01*
X-46966Y-31851D01*
X-47001Y-31676D01*
X-47101Y-31527D01*
X-47203Y-31459D01*
X-47164Y-31332D01*
X-46315D01*
X-44350Y-33296D01*
D02*
G37*
G36*
X-47781Y-9341D02*
X-47829Y-9458D01*
X-48295D01*
X-48412Y-9433D01*
X-48504Y-9433D01*
X-48812D01*
Y-9908D01*
X-48912D01*
Y-10008D01*
X-49412D01*
X-49412Y-10332D01*
X-49443Y-10365D01*
X-49523Y-10421D01*
X-49675Y-10391D01*
X-49851Y-10426D01*
X-49999Y-10526D01*
X-50099Y-10674D01*
X-50134Y-10850D01*
X-50099Y-11026D01*
X-49999Y-11174D01*
X-49851Y-11274D01*
X-49675Y-11309D01*
X-49502Y-11274D01*
X-49444Y-11263D01*
X-49375Y-11300D01*
Y-11300D01*
X-48502D01*
X-48425Y-11300D01*
X-48270Y-11300D01*
X-48180Y-11390D01*
Y-11650D01*
X-49125D01*
Y-11794D01*
X-49574D01*
X-50769Y-10598D01*
X-50750Y-10500D01*
X-50794Y-10276D01*
X-50922Y-10085D01*
X-51112Y-9958D01*
X-51336Y-9914D01*
X-51560Y-9958D01*
X-51751Y-10085D01*
X-51878Y-10276D01*
X-51922Y-10500D01*
X-51903Y-10598D01*
X-52434Y-11130D01*
X-52506Y-11237D01*
X-52531Y-11364D01*
Y-12600D01*
X-52920D01*
Y-10816D01*
X-51336Y-9232D01*
X-47889D01*
X-47781Y-9341D01*
D02*
G37*
G36*
X-47050Y-21725D02*
X-46550D01*
Y-21825D01*
X-46450D01*
Y-22300D01*
X-46121D01*
X-46036Y-22367D01*
X-46025Y-22417D01*
Y-24025D01*
X-46075Y-24131D01*
X-46419Y-24475D01*
X-46656D01*
X-47091Y-24041D01*
X-47198Y-23969D01*
X-47325Y-23944D01*
X-48625D01*
Y-22392D01*
X-48625Y-22375D01*
X-48625Y-22375D01*
X-48650Y-22275D01*
X-48650Y-22275D01*
Y-22031D01*
X-48320D01*
X-48264Y-22115D01*
X-48074Y-22242D01*
X-47850Y-22286D01*
X-47626Y-22242D01*
X-47435Y-22115D01*
X-47308Y-21924D01*
X-47264Y-21700D01*
X-47307Y-21484D01*
X-47306Y-21456D01*
X-47253Y-21357D01*
X-47050D01*
Y-21725D01*
D02*
G37*
G36*
X-55880Y-27716D02*
Y-28375D01*
X-56150D01*
Y-29375D01*
X-56250D01*
Y-29475D01*
X-56675D01*
Y-30298D01*
X-56675Y-30375D01*
X-56750Y-30410D01*
Y-30900D01*
Y-31425D01*
X-56727Y-31502D01*
X-56799Y-31551D01*
X-56899Y-31699D01*
X-56934Y-31875D01*
X-56923Y-31927D01*
X-57298Y-32302D01*
X-57359Y-32393D01*
X-57369Y-32442D01*
X-57423Y-32467D01*
X-57505Y-32477D01*
X-58119Y-31863D01*
X-58151Y-31699D01*
X-58251Y-31551D01*
X-58399Y-31451D01*
X-58575Y-31416D01*
X-58751Y-31451D01*
X-58899Y-31551D01*
X-58999Y-31699D01*
X-59034Y-31875D01*
X-58999Y-32051D01*
X-58899Y-32199D01*
X-58751Y-32299D01*
X-58587Y-32331D01*
X-58051Y-32868D01*
Y-34350D01*
X-59471D01*
Y-27997D01*
X-59344Y-27929D01*
X-59249Y-27992D01*
X-59025Y-28036D01*
X-58801Y-27992D01*
X-58610Y-27865D01*
X-58483Y-27674D01*
X-58439Y-27450D01*
X-58462Y-27336D01*
X-58370Y-27230D01*
X-58000D01*
Y-27425D01*
X-58000D01*
X-57975Y-27475D01*
Y-28400D01*
X-58000D01*
Y-28825D01*
X-57100D01*
Y-28400D01*
X-57125D01*
Y-27475D01*
X-57100Y-27425D01*
X-57100D01*
Y-27230D01*
X-56366D01*
X-55880Y-27716D01*
D02*
G37*
G36*
X-37721Y-20438D02*
X-38073Y-20791D01*
X-38134Y-20882D01*
X-38155Y-20989D01*
Y-21152D01*
X-38225Y-21250D01*
X-38600D01*
Y-21750D01*
X-38700D01*
Y-21850D01*
X-39175D01*
Y-22110D01*
X-39275Y-22175D01*
X-39302Y-22175D01*
X-39650D01*
Y-22675D01*
X-39750D01*
Y-22775D01*
X-40225D01*
Y-23083D01*
X-40225Y-23175D01*
X-40216Y-23217D01*
X-40307Y-23344D01*
X-40975D01*
X-41102Y-23369D01*
X-41209Y-23441D01*
X-41408Y-23639D01*
X-41525Y-23590D01*
Y-22375D01*
X-41525D01*
X-41525Y-22275D01*
X-41525D01*
Y-21747D01*
X-41359Y-21580D01*
X-40713D01*
X-40623Y-21715D01*
X-40433Y-21842D01*
X-40209Y-21886D01*
X-39984Y-21842D01*
X-39794Y-21715D01*
X-39667Y-21524D01*
X-39622Y-21300D01*
X-39667Y-21076D01*
X-39794Y-20885D01*
X-39984Y-20758D01*
X-40209Y-20714D01*
X-40433Y-20758D01*
X-40623Y-20885D01*
X-40641Y-20889D01*
X-40751Y-20801D01*
Y-20192D01*
X-37721D01*
Y-20438D01*
D02*
G37*
G36*
X-54255Y-32996D02*
X-54390Y-33085D01*
X-54517Y-33276D01*
X-54561Y-33500D01*
X-54517Y-33724D01*
X-54390Y-33915D01*
X-54199Y-34042D01*
X-53975Y-34086D01*
X-53817Y-34055D01*
X-53639Y-34233D01*
X-53687Y-34350D01*
X-55273D01*
X-55314Y-34300D01*
X-55358Y-34076D01*
X-55485Y-33885D01*
X-55676Y-33758D01*
X-55900Y-33714D01*
X-56124Y-33758D01*
X-56315Y-33885D01*
X-56442Y-34076D01*
X-56486Y-34300D01*
X-56527Y-34350D01*
X-56820D01*
Y-33007D01*
X-56693Y-32994D01*
X-56692Y-32999D01*
X-56565Y-33190D01*
X-56374Y-33317D01*
X-56150Y-33361D01*
X-55926Y-33317D01*
X-55735Y-33190D01*
X-55608Y-32999D01*
X-55564Y-32775D01*
X-55595Y-32617D01*
X-55128Y-32150D01*
X-54255D01*
Y-32996D01*
D02*
G37*
G36*
X-529Y-59471D02*
X-59471D01*
Y-56475D01*
X-49000D01*
Y-47438D01*
X-48018Y-46456D01*
X-34000D01*
Y-46650D01*
X-31200D01*
Y-46576D01*
X-31022Y-46552D01*
X-30809Y-46464D01*
X-30626Y-46324D01*
X-30486Y-46141D01*
X-30398Y-45928D01*
X-30394Y-45899D01*
X-30382Y-45894D01*
X-30255Y-45983D01*
Y-49919D01*
X-32680Y-52345D01*
X-32735Y-52427D01*
X-32755Y-52525D01*
Y-52567D01*
X-32882Y-52592D01*
X-32915Y-52513D01*
X-33079Y-52299D01*
X-33293Y-52135D01*
X-33542Y-52031D01*
X-33810Y-51996D01*
X-34078Y-52031D01*
X-34327Y-52135D01*
X-34541Y-52299D01*
X-34705Y-52513D01*
X-34809Y-52762D01*
X-34844Y-53030D01*
X-34809Y-53298D01*
X-34705Y-53547D01*
X-34541Y-53761D01*
X-34327Y-53925D01*
X-34078Y-54029D01*
X-33810Y-54064D01*
X-33542Y-54029D01*
X-33293Y-53925D01*
X-33079Y-53761D01*
X-32915Y-53547D01*
X-32882Y-53468D01*
X-32755Y-53493D01*
Y-54340D01*
X-32735Y-54438D01*
X-32680Y-54520D01*
X-32158Y-55043D01*
X-32165Y-55053D01*
X-32269Y-55302D01*
X-32304Y-55570D01*
X-32269Y-55838D01*
X-32165Y-56087D01*
X-32001Y-56301D01*
X-31787Y-56465D01*
X-31538Y-56569D01*
X-31270Y-56604D01*
X-31002Y-56569D01*
X-30753Y-56465D01*
X-30539Y-56301D01*
X-30375Y-56087D01*
X-30271Y-55838D01*
X-30236Y-55570D01*
X-30271Y-55302D01*
X-30375Y-55053D01*
X-30539Y-54839D01*
X-30753Y-54675D01*
X-31002Y-54571D01*
X-31270Y-54536D01*
X-31538Y-54571D01*
X-31787Y-54675D01*
X-31797Y-54682D01*
X-32245Y-54234D01*
Y-53652D01*
X-32118Y-53608D01*
X-32001Y-53761D01*
X-31787Y-53925D01*
X-31538Y-54029D01*
X-31270Y-54064D01*
X-31002Y-54029D01*
X-30753Y-53925D01*
X-30539Y-53761D01*
X-30375Y-53547D01*
X-30271Y-53298D01*
X-30236Y-53030D01*
X-30271Y-52762D01*
X-30375Y-52513D01*
X-30382Y-52503D01*
X-29520Y-51640D01*
X-29465Y-51558D01*
X-29445Y-51460D01*
Y-44401D01*
X-29465Y-44303D01*
X-29520Y-44221D01*
X-30983Y-42758D01*
Y-40137D01*
X-31002Y-40040D01*
X-31057Y-39957D01*
X-31858Y-39157D01*
X-31841Y-39075D01*
X-31876Y-38899D01*
X-31976Y-38751D01*
X-32124Y-38651D01*
X-32300Y-38616D01*
X-32476Y-38651D01*
X-32624Y-38751D01*
X-32724Y-38899D01*
X-32759Y-39075D01*
X-32741Y-39163D01*
X-32849Y-39271D01*
X-32875Y-39266D01*
X-33051Y-39301D01*
X-33199Y-39401D01*
X-33299Y-39549D01*
X-33334Y-39725D01*
X-33299Y-39901D01*
X-33199Y-40049D01*
X-33051Y-40149D01*
X-32875Y-40184D01*
X-32793Y-40167D01*
X-31792Y-41168D01*
Y-42987D01*
X-31773Y-43085D01*
X-31718Y-43168D01*
X-30890Y-43996D01*
X-30930Y-44116D01*
X-30978Y-44123D01*
X-31073Y-44162D01*
X-31200Y-44077D01*
Y-44000D01*
X-34000D01*
Y-44194D01*
X-48243D01*
X-49000Y-43437D01*
Y-39875D01*
X-48375D01*
Y-39875D01*
X-48325D01*
Y-39875D01*
X-47552D01*
X-47425Y-39875D01*
Y-40300D01*
X-46975D01*
Y-40500D01*
X-47425D01*
Y-40925D01*
X-47400D01*
Y-41775D01*
X-47425D01*
Y-42200D01*
X-46975D01*
Y-42300D01*
X-46875D01*
Y-42825D01*
X-46525D01*
Y-42825D01*
X-46225D01*
Y-42325D01*
X-46125D01*
Y-42225D01*
X-45650D01*
Y-41889D01*
X-45567Y-41807D01*
X-45533Y-41800D01*
X-44816D01*
Y-42705D01*
X-44900Y-42760D01*
X-45027Y-42951D01*
X-45071Y-43175D01*
X-45027Y-43399D01*
X-44900Y-43590D01*
X-44709Y-43717D01*
X-44485Y-43761D01*
X-44261Y-43717D01*
X-44070Y-43590D01*
X-43943Y-43399D01*
X-43899Y-43175D01*
X-43943Y-42951D01*
X-44070Y-42760D01*
X-44154Y-42705D01*
Y-41800D01*
X-43910D01*
Y-40850D01*
X-45560D01*
X-45560Y-40850D01*
Y-40850D01*
X-45560Y-40850D01*
X-45675Y-40821D01*
Y-40027D01*
X-45574Y-39906D01*
X-45548Y-39900D01*
X-43910D01*
Y-39756D01*
X-43505D01*
X-43485Y-39875D01*
X-43485Y-39883D01*
Y-40275D01*
X-42635D01*
X-41785D01*
Y-39883D01*
X-41785Y-39875D01*
X-41765Y-39756D01*
X-41420D01*
X-41365Y-39840D01*
X-41174Y-39967D01*
X-40950Y-40011D01*
X-40726Y-39967D01*
X-40535Y-39840D01*
X-40408Y-39649D01*
X-40364Y-39425D01*
X-40408Y-39201D01*
X-40535Y-39010D01*
X-40726Y-38883D01*
X-40950Y-38839D01*
X-41174Y-38883D01*
X-41365Y-39010D01*
X-41420Y-39094D01*
X-43910D01*
Y-38950D01*
X-45560D01*
Y-38950D01*
X-45675Y-38950D01*
X-45792Y-38927D01*
Y-38113D01*
X-45739Y-38083D01*
X-45677D01*
X-45647Y-38101D01*
X-45499Y-38200D01*
X-45324Y-38235D01*
X-45148Y-38200D01*
X-45000Y-38101D01*
X-44971Y-38083D01*
X-44877D01*
X-44847Y-38101D01*
X-44699Y-38200D01*
X-44524Y-38235D01*
X-44348Y-38200D01*
X-44200Y-38101D01*
X-44171Y-38083D01*
X-44077D01*
X-44047Y-38101D01*
X-43899Y-38200D01*
X-43724Y-38235D01*
X-43548Y-38200D01*
X-43399Y-38101D01*
X-43300Y-37952D01*
X-43265Y-37776D01*
Y-37457D01*
X-42857D01*
X-42823Y-37626D01*
X-42724Y-37775D01*
X-42575Y-37874D01*
X-42399Y-37909D01*
X-42224Y-37874D01*
X-42075Y-37775D01*
X-41976Y-37626D01*
X-41941Y-37451D01*
X-41976Y-37275D01*
X-42075Y-37126D01*
X-42224Y-37027D01*
X-42399Y-36992D01*
X-42451Y-37002D01*
X-42476Y-36978D01*
X-42567Y-36917D01*
X-42674Y-36896D01*
X-43265D01*
Y-36576D01*
X-43300Y-36401D01*
X-43368Y-36298D01*
X-43277Y-36207D01*
X-43174Y-36275D01*
X-42999Y-36310D01*
X-41799D01*
X-41696Y-36290D01*
X-40680Y-37305D01*
X-40598Y-37360D01*
X-40500Y-37380D01*
X-37742D01*
X-37644Y-37360D01*
X-37562Y-37305D01*
X-36507Y-36251D01*
X-36425Y-36267D01*
X-36249Y-36232D01*
X-36101Y-36132D01*
X-36001Y-35984D01*
X-35966Y-35808D01*
X-36001Y-35632D01*
X-36101Y-35484D01*
X-36249Y-35384D01*
X-36425Y-35349D01*
X-36509Y-35236D01*
X-36527Y-35149D01*
X-36626Y-35001D01*
X-36775Y-34901D01*
X-36951Y-34866D01*
X-37126Y-34901D01*
X-37275Y-35001D01*
X-37375Y-35149D01*
X-37409Y-35325D01*
X-37375Y-35501D01*
X-37275Y-35649D01*
X-37223Y-35684D01*
X-37215Y-35814D01*
X-37972Y-36570D01*
X-40269D01*
X-40888Y-35952D01*
X-40841Y-35825D01*
X-40700D01*
Y-35300D01*
X-40600D01*
Y-35200D01*
X-40150D01*
Y-34775D01*
X-40175D01*
Y-34630D01*
X-39800D01*
Y-35100D01*
X-39825D01*
Y-35650D01*
X-39325D01*
X-38825D01*
Y-35100D01*
X-38850D01*
Y-34880D01*
X-38529D01*
X-38499Y-34924D01*
X-38351Y-35024D01*
X-38175Y-35059D01*
X-37999Y-35024D01*
X-37851Y-34924D01*
X-37751Y-34776D01*
X-37716Y-34600D01*
X-37751Y-34424D01*
X-37851Y-34276D01*
X-37999Y-34176D01*
X-38175Y-34141D01*
X-38351Y-34176D01*
X-38499Y-34276D01*
X-38529Y-34320D01*
X-38850D01*
Y-34025D01*
X-39800D01*
Y-34070D01*
X-40175D01*
Y-33850D01*
X-40175D01*
Y-33630D01*
X-39800D01*
Y-33675D01*
X-38850D01*
Y-33380D01*
X-38054D01*
X-37965Y-33515D01*
X-37774Y-33642D01*
X-37550Y-33686D01*
X-37326Y-33642D01*
X-37135Y-33515D01*
X-37008Y-33324D01*
X-36964Y-33100D01*
X-37008Y-32876D01*
X-37135Y-32685D01*
X-37326Y-32558D01*
X-37550Y-32514D01*
X-37774Y-32558D01*
X-37965Y-32685D01*
X-38054Y-32820D01*
X-38850D01*
Y-32600D01*
X-38825D01*
Y-32050D01*
X-39825D01*
Y-32600D01*
X-39800D01*
Y-33070D01*
X-40175D01*
Y-32925D01*
X-40150D01*
Y-32500D01*
X-41050D01*
Y-32925D01*
X-41025D01*
Y-33171D01*
X-41445D01*
X-41474Y-33127D01*
Y-33031D01*
X-41453Y-32988D01*
X-41351Y-32837D01*
X-41334Y-32751D01*
X-42399D01*
Y-32551D01*
X-41334D01*
X-41351Y-32466D01*
X-41453Y-32314D01*
X-41474Y-32272D01*
Y-32176D01*
X-41375Y-32027D01*
X-41340Y-31851D01*
X-41375Y-31676D01*
X-41474Y-31528D01*
X-41492Y-31498D01*
Y-31439D01*
X-41396Y-31332D01*
X-41226D01*
X-41119Y-31310D01*
X-41028Y-31249D01*
X-40952Y-31173D01*
X-40900Y-31184D01*
X-40724Y-31149D01*
X-40576Y-31049D01*
X-40476Y-30901D01*
X-40441Y-30725D01*
X-40476Y-30549D01*
X-40576Y-30401D01*
X-40724Y-30301D01*
X-40900Y-30266D01*
X-41076Y-30301D01*
X-41224Y-30401D01*
X-41247Y-30434D01*
X-41367Y-30385D01*
X-41340Y-30251D01*
X-41375Y-30076D01*
X-41474Y-29927D01*
X-41623Y-29827D01*
X-41799Y-29792D01*
X-42999D01*
X-43174Y-29827D01*
X-43277Y-29896D01*
X-43368Y-29804D01*
X-43300Y-29702D01*
X-43265Y-29526D01*
Y-29205D01*
X-41921D01*
X-41874Y-29274D01*
X-41726Y-29374D01*
X-41550Y-29409D01*
X-41374Y-29374D01*
X-41226Y-29274D01*
X-41126Y-29126D01*
X-41091Y-28950D01*
X-41126Y-28774D01*
X-41226Y-28626D01*
X-41374Y-28526D01*
X-41550Y-28491D01*
X-41726Y-28526D01*
X-41874Y-28626D01*
X-41921Y-28695D01*
X-43265D01*
Y-28326D01*
X-43300Y-28151D01*
X-43346Y-28082D01*
X-43278Y-27955D01*
X-42816D01*
X-42498Y-28273D01*
X-42407Y-28334D01*
X-42300Y-28355D01*
X-37250D01*
X-37143Y-28334D01*
X-37052Y-28273D01*
X-36077Y-27298D01*
X-36077Y-27298D01*
X-36016Y-27207D01*
X-35995Y-27100D01*
X-35995Y-27100D01*
Y-26278D01*
X-36016Y-26171D01*
X-36077Y-26080D01*
X-36475Y-25682D01*
Y-25197D01*
X-36083Y-24805D01*
X-35925Y-24836D01*
X-35701Y-24792D01*
X-35510Y-24665D01*
X-35383Y-24474D01*
X-35339Y-24250D01*
X-35383Y-24026D01*
X-35510Y-23835D01*
X-35701Y-23708D01*
X-35925Y-23664D01*
X-36149Y-23708D01*
X-36340Y-23835D01*
X-36467Y-24026D01*
X-36498Y-24182D01*
X-36627D01*
X-36658Y-24026D01*
X-36785Y-23835D01*
X-36976Y-23708D01*
X-37200Y-23664D01*
X-37424Y-23708D01*
X-37615Y-23835D01*
X-37742Y-24026D01*
X-37786Y-24250D01*
X-37752Y-24423D01*
X-38014Y-24686D01*
X-38072Y-24773D01*
X-38093Y-24875D01*
Y-25153D01*
X-38275D01*
Y-25682D01*
X-38648Y-26055D01*
X-38709Y-26146D01*
X-38730Y-26253D01*
Y-27009D01*
X-39166Y-27445D01*
X-41884D01*
X-42076Y-27252D01*
X-42024Y-27125D01*
X-41575D01*
Y-27125D01*
X-41525D01*
Y-27125D01*
X-40575D01*
Y-26955D01*
X-40204D01*
X-40115Y-27090D01*
X-39924Y-27217D01*
X-39700Y-27261D01*
X-39476Y-27217D01*
X-39285Y-27090D01*
X-39158Y-26899D01*
X-39114Y-26675D01*
X-39158Y-26451D01*
X-39285Y-26260D01*
X-39476Y-26133D01*
X-39700Y-26089D01*
X-39924Y-26133D01*
X-40115Y-26260D01*
X-40204Y-26395D01*
X-40575D01*
Y-26225D01*
X-40575D01*
X-40575Y-26125D01*
X-40575D01*
Y-24475D01*
X-41140D01*
X-41189Y-24358D01*
X-40838Y-24006D01*
X-40200D01*
Y-24150D01*
X-39635D01*
X-39480Y-24306D01*
Y-24454D01*
X-39640Y-24560D01*
X-39767Y-24751D01*
X-39811Y-24975D01*
X-39767Y-25199D01*
X-39640Y-25390D01*
X-39449Y-25517D01*
X-39225Y-25561D01*
X-39001Y-25517D01*
X-38810Y-25390D01*
X-38683Y-25199D01*
X-38639Y-24975D01*
X-38683Y-24751D01*
X-38810Y-24560D01*
X-38970Y-24454D01*
Y-24200D01*
X-38989Y-24102D01*
X-39045Y-24020D01*
X-39300Y-23765D01*
Y-23293D01*
X-39275Y-23175D01*
X-39150Y-23180D01*
Y-23225D01*
X-38250D01*
Y-23225D01*
X-37425D01*
Y-23030D01*
X-37200D01*
X-37093Y-23009D01*
X-37002Y-22948D01*
X-36433Y-22380D01*
X-36275Y-22411D01*
X-36051Y-22367D01*
X-35860Y-22240D01*
X-35733Y-22049D01*
X-35689Y-21825D01*
X-35733Y-21601D01*
X-35860Y-21410D01*
X-36051Y-21283D01*
X-36275Y-21239D01*
X-36499Y-21283D01*
X-36690Y-21410D01*
X-36817Y-21601D01*
X-36861Y-21825D01*
X-36830Y-21983D01*
X-37298Y-22451D01*
X-37425Y-22426D01*
X-37425Y-22275D01*
X-37425Y-22148D01*
Y-21275D01*
X-37595D01*
Y-21105D01*
X-37355Y-20865D01*
X-35671D01*
Y-18815D01*
X-37721D01*
Y-19428D01*
X-40751D01*
Y-18815D01*
X-42801D01*
Y-20375D01*
X-43018Y-20593D01*
X-43619D01*
X-43679Y-20481D01*
X-43658Y-20449D01*
X-43614Y-20225D01*
X-43658Y-20001D01*
X-43741Y-19877D01*
X-43725Y-19750D01*
X-43725D01*
X-43725Y-19750D01*
Y-18850D01*
X-43920D01*
Y-18750D01*
X-43941Y-18643D01*
X-44002Y-18552D01*
X-44200Y-18353D01*
Y-17025D01*
X-45150D01*
Y-18675D01*
X-44722D01*
X-44686Y-18723D01*
X-44710Y-18800D01*
X-44749Y-18850D01*
X-45675D01*
Y-19750D01*
X-45531D01*
Y-20593D01*
X-47264D01*
X-47568Y-20289D01*
Y-20075D01*
X-47375D01*
Y-18875D01*
X-47743D01*
Y-18600D01*
X-47525D01*
Y-17450D01*
X-48725D01*
Y-18600D01*
X-48507D01*
Y-18875D01*
X-48525D01*
Y-19119D01*
X-49175D01*
Y-18875D01*
X-50325D01*
Y-20075D01*
X-49175D01*
Y-19781D01*
X-48525D01*
Y-20075D01*
X-48332D01*
Y-20447D01*
X-48303Y-20594D01*
X-48220Y-20718D01*
X-47937Y-21002D01*
X-47978Y-21139D01*
X-48074Y-21158D01*
X-48264Y-21285D01*
X-48320Y-21369D01*
X-49000D01*
X-49032Y-21375D01*
X-49508D01*
X-49625Y-21350D01*
X-49717Y-21350D01*
X-50025D01*
Y-21825D01*
Y-22300D01*
X-49671Y-22300D01*
X-49598Y-22357D01*
X-49575Y-22406D01*
Y-23697D01*
X-49702Y-23736D01*
X-49726Y-23701D01*
X-49874Y-23601D01*
X-50050Y-23566D01*
X-50226Y-23601D01*
X-50374Y-23701D01*
X-50474Y-23849D01*
X-50509Y-24025D01*
X-50474Y-24201D01*
X-50381Y-24339D01*
Y-24475D01*
X-50525D01*
Y-26125D01*
X-50118D01*
X-50101Y-26251D01*
X-50249Y-26351D01*
X-50340Y-26486D01*
X-50354Y-26502D01*
X-50492Y-26569D01*
X-50649Y-26538D01*
X-50873Y-26582D01*
X-51063Y-26709D01*
X-51190Y-26899D01*
X-51235Y-27124D01*
X-51190Y-27348D01*
X-51063Y-27538D01*
X-50904Y-27645D01*
Y-28059D01*
X-51031Y-28105D01*
X-51149Y-28026D01*
X-51325Y-27991D01*
X-51501Y-28026D01*
X-51649Y-28126D01*
X-51749Y-28274D01*
X-51784Y-28450D01*
X-51749Y-28626D01*
X-51649Y-28774D01*
X-51649Y-28778D01*
X-52266Y-29394D01*
X-52327Y-29485D01*
X-52343Y-29566D01*
X-52470Y-29553D01*
Y-28825D01*
X-52491Y-28718D01*
X-52552Y-28627D01*
X-54670Y-26509D01*
Y-26100D01*
X-53900D01*
Y-25405D01*
X-53775D01*
X-53668Y-25384D01*
X-53577Y-25323D01*
X-53467Y-25214D01*
X-53350Y-25262D01*
Y-25300D01*
X-52150D01*
X-52100Y-25406D01*
Y-25408D01*
X-52125Y-25525D01*
X-52227Y-25525D01*
X-52650D01*
Y-26025D01*
X-52111D01*
X-52100Y-25975D01*
X-51998Y-25975D01*
X-51750D01*
Y-25450D01*
X-51650D01*
Y-25350D01*
X-51200D01*
Y-24925D01*
X-51225D01*
Y-24052D01*
X-51225Y-24000D01*
X-51129Y-23925D01*
X-51050D01*
Y-22925D01*
X-51227D01*
X-51251Y-22892D01*
X-51283Y-22798D01*
X-51201Y-22676D01*
X-51166Y-22500D01*
X-51201Y-22324D01*
X-51301Y-22176D01*
X-51449Y-22076D01*
X-51625Y-22041D01*
X-51801Y-22076D01*
X-51949Y-22176D01*
X-52049Y-22324D01*
X-52084Y-22500D01*
X-52049Y-22676D01*
X-51967Y-22798D01*
X-51999Y-22892D01*
X-52023Y-22925D01*
X-52200Y-22925D01*
X-52255D01*
X-52345Y-22835D01*
Y-22229D01*
X-52210Y-22140D01*
X-52083Y-21949D01*
X-52039Y-21725D01*
X-52060Y-21619D01*
X-52009Y-21552D01*
X-51963Y-21515D01*
X-51831Y-21528D01*
X-51790Y-21590D01*
X-51599Y-21717D01*
X-51375Y-21761D01*
X-51151Y-21717D01*
X-50960Y-21590D01*
X-50833Y-21399D01*
X-50789Y-21175D01*
X-50833Y-20951D01*
X-50960Y-20760D01*
X-51044Y-20705D01*
Y-20075D01*
X-50575D01*
Y-18875D01*
X-50969D01*
Y-18449D01*
X-50900Y-18350D01*
X-50000D01*
Y-17925D01*
X-49900D01*
Y-17825D01*
X-48900D01*
Y-17500D01*
X-48925D01*
Y-16956D01*
X-48725D01*
Y-17200D01*
X-47525D01*
Y-16050D01*
X-47794D01*
Y-15895D01*
X-47710Y-15840D01*
X-47583Y-15649D01*
X-47539Y-15425D01*
X-47583Y-15201D01*
X-47710Y-15010D01*
X-47794Y-14955D01*
Y-14500D01*
X-47475D01*
Y-14281D01*
X-47050D01*
X-47050Y-14758D01*
X-47051Y-14779D01*
X-47075Y-14892D01*
X-47245Y-15005D01*
X-47372Y-15196D01*
X-47416Y-15420D01*
X-47372Y-15644D01*
X-47245Y-15835D01*
X-47181Y-15877D01*
Y-16500D01*
X-47156Y-16627D01*
X-47084Y-16734D01*
X-46921Y-16898D01*
X-46941Y-17025D01*
X-47050D01*
Y-18675D01*
X-46906D01*
Y-18875D01*
X-47125D01*
Y-20075D01*
X-45975D01*
Y-18875D01*
X-46244D01*
Y-18675D01*
X-46100D01*
Y-17025D01*
X-46244D01*
Y-16775D01*
X-46269Y-16648D01*
X-46341Y-16541D01*
X-46519Y-16363D01*
Y-15903D01*
X-46415Y-15835D01*
X-46288Y-15644D01*
X-46244Y-15420D01*
X-46261Y-15333D01*
X-46184Y-15230D01*
X-46100Y-15305D01*
Y-16575D01*
X-45150D01*
Y-14925D01*
X-45456D01*
X-46100Y-14281D01*
Y-13587D01*
X-45983Y-13539D01*
X-45373Y-14148D01*
X-45282Y-14209D01*
X-45175Y-14230D01*
X-45150D01*
Y-14775D01*
X-44200D01*
Y-13357D01*
X-44083Y-13308D01*
X-42789Y-14602D01*
X-42810Y-14760D01*
X-42775Y-15028D01*
X-42671Y-15277D01*
X-42507Y-15491D01*
X-42293Y-15655D01*
X-42044Y-15759D01*
X-41776Y-15794D01*
X-41508Y-15759D01*
X-41259Y-15655D01*
X-41045Y-15491D01*
X-40881Y-15277D01*
X-40812Y-15112D01*
X-37660D01*
X-37591Y-15277D01*
X-37427Y-15491D01*
X-37213Y-15655D01*
X-36964Y-15759D01*
X-36696Y-15794D01*
X-36428Y-15759D01*
X-36179Y-15655D01*
X-35965Y-15491D01*
X-35801Y-15277D01*
X-35697Y-15028D01*
X-35662Y-14760D01*
X-35697Y-14492D01*
X-35801Y-14243D01*
X-35965Y-14029D01*
X-36179Y-13865D01*
X-36428Y-13761D01*
X-36696Y-13726D01*
X-36964Y-13761D01*
X-37213Y-13865D01*
X-37427Y-14029D01*
X-37591Y-14243D01*
X-37635Y-14348D01*
X-40837D01*
X-40881Y-14243D01*
X-41045Y-14029D01*
X-41259Y-13865D01*
X-41508Y-13761D01*
X-41776Y-13726D01*
X-42044Y-13761D01*
X-42293Y-13865D01*
X-42379Y-13931D01*
X-44730Y-11580D01*
X-44854Y-11497D01*
X-45000Y-11468D01*
X-45150D01*
Y-11025D01*
X-46029D01*
X-46053Y-10898D01*
X-46031Y-10877D01*
X-45943Y-10830D01*
X-45850Y-10850D01*
X-45758Y-10850D01*
X-45450D01*
Y-10375D01*
Y-9900D01*
X-45758D01*
X-45850Y-9900D01*
X-45967Y-9925D01*
X-46403D01*
X-47575Y-8753D01*
X-47666Y-8693D01*
X-47773Y-8671D01*
X-51452D01*
X-51559Y-8693D01*
X-51650Y-8753D01*
X-53398Y-10502D01*
X-53459Y-10593D01*
X-53480Y-10700D01*
Y-11625D01*
X-54200D01*
Y-12125D01*
Y-12625D01*
X-53480D01*
Y-13059D01*
X-53972Y-13550D01*
X-54378D01*
X-54379Y-13550D01*
X-54470Y-13489D01*
X-54577Y-13468D01*
X-55602D01*
X-55691Y-13333D01*
X-55882Y-13206D01*
X-56106Y-13162D01*
X-56330Y-13206D01*
X-56520Y-13333D01*
X-56648Y-13524D01*
X-56692Y-13748D01*
X-56648Y-13972D01*
X-56520Y-14162D01*
X-56330Y-14290D01*
X-56106Y-14334D01*
X-55882Y-14290D01*
X-55691Y-14162D01*
X-55602Y-14028D01*
X-55125D01*
Y-14500D01*
X-53475D01*
Y-13847D01*
X-53134Y-13505D01*
X-53025Y-13550D01*
Y-13550D01*
X-51375D01*
Y-12600D01*
X-51869D01*
Y-11501D01*
X-51434Y-11067D01*
X-51336Y-11086D01*
X-51238Y-11067D01*
X-49945Y-12359D01*
X-49838Y-12431D01*
X-49711Y-12456D01*
X-49125D01*
Y-12600D01*
X-47475D01*
Y-11650D01*
X-47620D01*
Y-11300D01*
X-47425D01*
Y-10940D01*
X-47308Y-10891D01*
X-47043Y-11156D01*
Y-13125D01*
X-47050D01*
Y-13619D01*
X-47475D01*
Y-13550D01*
X-49125D01*
Y-14500D01*
X-48456D01*
Y-14955D01*
X-48540Y-15010D01*
X-48667Y-15201D01*
X-48711Y-15425D01*
X-48667Y-15649D01*
X-48540Y-15840D01*
X-48456Y-15895D01*
Y-16050D01*
X-48725D01*
Y-16294D01*
X-48900D01*
Y-16075D01*
X-49900D01*
X-50900D01*
Y-16400D01*
X-50875D01*
Y-16944D01*
X-50925D01*
X-51052Y-16969D01*
X-51159Y-17041D01*
X-51534Y-17416D01*
X-51606Y-17523D01*
X-51631Y-17650D01*
Y-18875D01*
X-51725D01*
Y-20075D01*
X-51706D01*
Y-20705D01*
X-51790Y-20760D01*
X-51909Y-20772D01*
X-52125Y-20556D01*
Y-20050D01*
X-53513D01*
X-53561Y-19933D01*
X-52402Y-18773D01*
X-52341Y-18682D01*
X-52320Y-18575D01*
Y-17725D01*
X-52341Y-17618D01*
X-52402Y-17527D01*
X-52852Y-17077D01*
X-52943Y-17016D01*
X-53050Y-16995D01*
X-53175D01*
Y-16400D01*
X-53150D01*
Y-16075D01*
X-54150D01*
Y-15975D01*
X-54250D01*
Y-15550D01*
X-55150D01*
X-55200Y-15444D01*
Y-15175D01*
X-55550D01*
Y-15700D01*
X-55750D01*
Y-15175D01*
X-56100Y-15175D01*
X-56125Y-15058D01*
Y-14575D01*
X-56650D01*
Y-15175D01*
Y-15775D01*
X-56125Y-15775D01*
X-56100Y-15892D01*
Y-15894D01*
X-56150Y-16000D01*
X-57350D01*
Y-16168D01*
X-57485D01*
X-57575Y-16078D01*
X-57575Y-15875D01*
X-57575Y-15748D01*
Y-14675D01*
X-57698D01*
X-57733Y-14548D01*
X-57651Y-14426D01*
X-57616Y-14250D01*
X-57651Y-14074D01*
X-57751Y-13926D01*
X-57899Y-13826D01*
X-58075Y-13791D01*
X-58251Y-13826D01*
X-58399Y-13926D01*
X-58499Y-14074D01*
X-58534Y-14250D01*
X-58499Y-14426D01*
X-58417Y-14548D01*
X-58451Y-14675D01*
X-58575D01*
Y-15748D01*
X-58575Y-15825D01*
X-58575Y-15952D01*
Y-16553D01*
X-58773Y-16752D01*
X-58834Y-16843D01*
X-58855Y-16950D01*
Y-17346D01*
X-58990Y-17435D01*
X-59117Y-17626D01*
X-59161Y-17850D01*
X-59117Y-18074D01*
X-58990Y-18265D01*
X-58799Y-18392D01*
X-58575Y-18436D01*
X-58351Y-18392D01*
X-58160Y-18265D01*
X-58033Y-18074D01*
X-57989Y-17850D01*
X-58033Y-17626D01*
X-58160Y-17435D01*
X-58295Y-17346D01*
Y-17066D01*
X-58253Y-17025D01*
X-57575D01*
Y-16729D01*
X-57350D01*
Y-17150D01*
X-56150D01*
Y-17150D01*
X-56075Y-17150D01*
Y-17150D01*
X-55225D01*
X-55125Y-17215D01*
Y-17500D01*
X-55150D01*
Y-17825D01*
X-54150D01*
X-53150D01*
Y-17737D01*
X-53033Y-17689D01*
X-52880Y-17841D01*
Y-18459D01*
X-54108Y-19686D01*
X-54225Y-19638D01*
Y-19100D01*
X-55875D01*
Y-19244D01*
X-56100D01*
Y-19000D01*
X-57300D01*
Y-19706D01*
X-58598Y-21004D01*
X-58675Y-20989D01*
X-58899Y-21033D01*
X-59090Y-21160D01*
X-59217Y-21351D01*
X-59261Y-21575D01*
X-59217Y-21799D01*
X-59090Y-21990D01*
X-59006Y-22045D01*
Y-24825D01*
X-58981Y-24952D01*
X-58909Y-25059D01*
X-58000Y-25969D01*
Y-26425D01*
X-58000D01*
Y-26475D01*
X-58000D01*
Y-26670D01*
X-58525D01*
X-58632Y-26691D01*
X-58723Y-26752D01*
X-58867Y-26895D01*
X-59025Y-26864D01*
X-59249Y-26908D01*
X-59344Y-26971D01*
X-59471Y-26903D01*
Y-529D01*
X-21477D01*
X-21235Y-715D01*
X-20928Y-842D01*
X-20599Y-885D01*
X-20525Y-876D01*
X-20436Y-992D01*
X-20458Y-1044D01*
X-20466Y-1107D01*
X-20472Y-1139D01*
X-20471Y-1148D01*
X-20474Y-1157D01*
X-20476Y-1180D01*
X-20481Y-1219D01*
Y-2131D01*
X-20475Y-2172D01*
X-20474Y-2191D01*
X-20472Y-2198D01*
X-20472Y-2205D01*
X-20465Y-2250D01*
X-20465Y-2252D01*
X-20458Y-2306D01*
X-20434Y-2363D01*
X-20428Y-2380D01*
X-20426Y-2382D01*
X-20423Y-2390D01*
X-20422Y-2393D01*
X-20419Y-2399D01*
X-20390Y-2468D01*
X-20283Y-2608D01*
X-20143Y-2715D01*
X-19981Y-2783D01*
X-19928Y-2790D01*
X-19924Y-2791D01*
X-19871Y-2798D01*
X-19868Y-2798D01*
X-19866Y-2798D01*
X-19863Y-2799D01*
X-19852Y-2800D01*
X-19806Y-2806D01*
X-18694D01*
X-18676Y-2803D01*
X-18200D01*
X-18132Y-2790D01*
X-18074Y-2751D01*
X-18035Y-2693D01*
X-18022Y-2625D01*
Y-2149D01*
X-18019Y-2131D01*
Y-1219D01*
X-18022Y-1201D01*
Y-725D01*
X-17969Y-661D01*
X-13231D01*
X-13178Y-725D01*
Y-1201D01*
X-13181Y-1219D01*
Y-2131D01*
X-13178Y-2149D01*
Y-2625D01*
X-13165Y-2693D01*
X-13126Y-2751D01*
X-13068Y-2790D01*
X-13000Y-2803D01*
X-12524D01*
X-12506Y-2806D01*
X-11394D01*
X-11335Y-2798D01*
X-11289Y-2794D01*
X-11279Y-2791D01*
X-11219Y-2783D01*
X-11148Y-2753D01*
X-11145Y-2753D01*
X-11135Y-2748D01*
X-11057Y-2715D01*
X-10917Y-2608D01*
X-10810Y-2468D01*
X-10742Y-2306D01*
X-10734Y-2243D01*
X-10728Y-2211D01*
X-10729Y-2202D01*
X-10726Y-2193D01*
X-10724Y-2170D01*
X-10719Y-2131D01*
Y-1219D01*
X-10725Y-1178D01*
X-10726Y-1159D01*
X-10728Y-1152D01*
X-10728Y-1145D01*
X-10735Y-1100D01*
X-10735Y-1098D01*
X-10742Y-1044D01*
X-10766Y-987D01*
X-10726Y-912D01*
X-10675Y-876D01*
X-10600Y-885D01*
X-10271Y-842D01*
X-9964Y-715D01*
X-9722Y-529D01*
X-529D01*
Y-59471D01*
D02*
G37*
%LPC*%
G36*
X-43100Y-21925D02*
X-43500D01*
Y-22300D01*
X-43100D01*
Y-21925D01*
D02*
G37*
G36*
X-56600Y-22075D02*
X-56975D01*
Y-22475D01*
X-56600D01*
Y-22075D01*
D02*
G37*
G36*
X-49012Y-9433D02*
X-49412D01*
Y-9808D01*
X-49012D01*
Y-9433D01*
D02*
G37*
G36*
X-46650Y-21925D02*
X-47050D01*
Y-22300D01*
X-46650D01*
Y-21925D01*
D02*
G37*
G36*
X-56950Y-31000D02*
X-57350D01*
Y-31375D01*
X-56950D01*
Y-31000D01*
D02*
G37*
G36*
Y-30425D02*
X-57350D01*
Y-30800D01*
X-56950D01*
Y-30425D01*
D02*
G37*
G36*
X-57100Y-29025D02*
X-57450D01*
Y-29450D01*
X-57100D01*
Y-29025D01*
D02*
G37*
G36*
X-56350Y-28375D02*
X-56675D01*
Y-29275D01*
X-56350D01*
Y-28375D01*
D02*
G37*
G36*
X-57650Y-29025D02*
X-58000D01*
Y-29450D01*
X-57650D01*
Y-29025D01*
D02*
G37*
G36*
X-39850Y-22175D02*
X-40225D01*
Y-22575D01*
X-39850D01*
Y-22175D01*
D02*
G37*
G36*
X-38800Y-21250D02*
X-39175D01*
Y-21650D01*
X-38800D01*
Y-21250D01*
D02*
G37*
G36*
X-38825Y-31300D02*
X-39225D01*
Y-31850D01*
X-38825D01*
Y-31300D01*
D02*
G37*
G36*
X-18950Y-24667D02*
X-19126Y-24702D01*
X-19274Y-24802D01*
X-19374Y-24951D01*
X-19409Y-25126D01*
X-19374Y-25302D01*
X-19274Y-25451D01*
X-19205Y-25497D01*
Y-28378D01*
X-19365Y-28485D01*
X-19492Y-28675D01*
X-19536Y-28900D01*
X-19492Y-29124D01*
X-19365Y-29314D01*
X-19218Y-29412D01*
Y-29600D01*
X-19450D01*
Y-30673D01*
X-19450Y-30750D01*
X-19450Y-30877D01*
Y-31950D01*
X-19230D01*
Y-32296D01*
X-19274Y-32326D01*
X-19374Y-32475D01*
X-19409Y-32650D01*
X-19374Y-32826D01*
X-19274Y-32975D01*
X-19126Y-33074D01*
X-18950Y-33109D01*
X-18774Y-33074D01*
X-18626Y-32975D01*
X-18526Y-32826D01*
X-18491Y-32650D01*
X-18526Y-32475D01*
X-18626Y-32326D01*
X-18670Y-32296D01*
Y-31950D01*
X-18450D01*
Y-30877D01*
X-18450Y-30800D01*
X-18450Y-30673D01*
Y-29600D01*
X-18682D01*
Y-29412D01*
X-18535Y-29314D01*
X-18408Y-29124D01*
X-18364Y-28900D01*
X-18408Y-28675D01*
X-18535Y-28485D01*
X-18695Y-28378D01*
Y-25497D01*
X-18626Y-25451D01*
X-18526Y-25302D01*
X-18491Y-25126D01*
X-18526Y-24951D01*
X-18626Y-24802D01*
X-18774Y-24702D01*
X-18950Y-24667D01*
D02*
G37*
G36*
X-13750Y-28313D02*
X-13974Y-28358D01*
X-14164Y-28485D01*
X-14291Y-28675D01*
X-14336Y-28900D01*
X-14291Y-29124D01*
X-14164Y-29314D01*
X-14030Y-29404D01*
Y-29575D01*
X-14250D01*
Y-30648D01*
X-14250Y-30725D01*
X-14250Y-30852D01*
Y-31925D01*
X-14030D01*
Y-32821D01*
X-14074Y-32850D01*
X-14174Y-32999D01*
X-14209Y-33175D01*
X-14174Y-33350D01*
X-14074Y-33499D01*
X-13925Y-33599D01*
X-13750Y-33634D01*
X-13574Y-33599D01*
X-13425Y-33499D01*
X-13326Y-33350D01*
X-13291Y-33175D01*
X-13326Y-32999D01*
X-13425Y-32850D01*
X-13469Y-32821D01*
Y-31925D01*
X-13250D01*
Y-30852D01*
X-13250Y-30775D01*
X-13250Y-30648D01*
Y-29575D01*
X-13469D01*
Y-29404D01*
X-13335Y-29314D01*
X-13208Y-29124D01*
X-13164Y-28900D01*
X-13208Y-28675D01*
X-13335Y-28485D01*
X-13525Y-28358D01*
X-13750Y-28313D01*
D02*
G37*
G36*
X-40150Y-35400D02*
X-40500D01*
Y-35825D01*
X-40150D01*
Y-35400D01*
D02*
G37*
G36*
X-17650Y-24667D02*
X-17826Y-24702D01*
X-17974Y-24802D01*
X-18074Y-24951D01*
X-18109Y-25126D01*
X-18074Y-25302D01*
X-17974Y-25451D01*
X-17905Y-25497D01*
Y-28378D01*
X-18065Y-28485D01*
X-18192Y-28675D01*
X-18236Y-28900D01*
X-18192Y-29124D01*
X-18065Y-29314D01*
X-17930Y-29404D01*
Y-29600D01*
X-18150D01*
Y-30673D01*
X-18150Y-30750D01*
X-18150Y-30877D01*
Y-31950D01*
X-17930D01*
Y-32296D01*
X-17974Y-32326D01*
X-18074Y-32475D01*
X-18109Y-32650D01*
X-18074Y-32826D01*
X-17974Y-32975D01*
X-17826Y-33074D01*
X-17650Y-33109D01*
X-17474Y-33074D01*
X-17326Y-32975D01*
X-17226Y-32826D01*
X-17191Y-32650D01*
X-17226Y-32475D01*
X-17326Y-32326D01*
X-17370Y-32296D01*
Y-31950D01*
X-17150D01*
Y-30877D01*
X-17150Y-30800D01*
X-17150Y-30673D01*
Y-29600D01*
X-17370D01*
Y-29404D01*
X-17235Y-29314D01*
X-17108Y-29124D01*
X-17064Y-28900D01*
X-17108Y-28675D01*
X-17235Y-28485D01*
X-17395Y-28378D01*
Y-25497D01*
X-17326Y-25451D01*
X-17226Y-25302D01*
X-17191Y-25126D01*
X-17226Y-24951D01*
X-17326Y-24802D01*
X-17474Y-24702D01*
X-17650Y-24667D01*
D02*
G37*
G36*
X-39425Y-31300D02*
X-39825D01*
Y-31850D01*
X-39425D01*
Y-31300D01*
D02*
G37*
G36*
X-40150Y-31875D02*
X-40500D01*
Y-32300D01*
X-40150D01*
Y-31875D01*
D02*
G37*
G36*
X-40700D02*
X-41050D01*
Y-32300D01*
X-40700D01*
Y-31875D01*
D02*
G37*
G36*
X-22100Y-11864D02*
X-22324Y-11908D01*
X-22515Y-12035D01*
X-22642Y-12226D01*
X-22686Y-12450D01*
X-22642Y-12674D01*
X-22515Y-12865D01*
X-22324Y-12992D01*
X-22100Y-13036D01*
X-21876Y-12992D01*
X-21685Y-12865D01*
X-21587Y-12718D01*
X-18921D01*
X-14789Y-16849D01*
X-14702Y-16907D01*
X-14600Y-16928D01*
X-13914D01*
X-10493Y-20349D01*
Y-23364D01*
X-10472Y-23466D01*
X-10414Y-23553D01*
X-9378Y-24589D01*
X-9291Y-24647D01*
X-9189Y-24668D01*
X-7825D01*
Y-24850D01*
X-6952D01*
X-6875Y-24850D01*
X-6748Y-24850D01*
X-5875D01*
Y-24303D01*
X-5511Y-23939D01*
X-5453Y-23852D01*
X-5432Y-23750D01*
Y-23657D01*
X-5347Y-23621D01*
X-5201Y-23509D01*
X-5144Y-23435D01*
X-4986D01*
X-4929Y-23509D01*
X-4783Y-23621D01*
X-4613Y-23692D01*
X-4430Y-23716D01*
X-4247Y-23692D01*
X-4077Y-23621D01*
X-3931Y-23509D01*
X-3891Y-23457D01*
X-3731D01*
X-3677Y-23527D01*
X-3526Y-23643D01*
X-3349Y-23716D01*
X-3260Y-23728D01*
Y-23010D01*
X-3160D01*
Y-22910D01*
X-2442D01*
X-2454Y-22821D01*
X-2527Y-22644D01*
X-2643Y-22493D01*
X-2713Y-22439D01*
Y-22279D01*
X-2661Y-22239D01*
X-2549Y-22093D01*
X-2478Y-21923D01*
X-2454Y-21740D01*
X-2478Y-21557D01*
X-2549Y-21387D01*
X-2661Y-21241D01*
X-2807Y-21129D01*
X-2977Y-21058D01*
X-3160Y-21034D01*
X-3343Y-21058D01*
X-3513Y-21129D01*
X-3659Y-21241D01*
X-3716Y-21315D01*
X-3874D01*
X-3931Y-21241D01*
X-4077Y-21129D01*
X-4139Y-21103D01*
Y-19600D01*
X-3969D01*
Y-18727D01*
X-3969Y-18650D01*
X-3969Y-18523D01*
Y-17650D01*
X-4139D01*
Y-17019D01*
X-3913Y-16925D01*
X-3699Y-16761D01*
X-3535Y-16547D01*
X-3431Y-16298D01*
X-3396Y-16030D01*
X-3431Y-15762D01*
X-3535Y-15513D01*
X-3699Y-15299D01*
X-3913Y-15135D01*
X-4162Y-15031D01*
X-4430Y-14996D01*
X-4698Y-15031D01*
X-4947Y-15135D01*
X-5161Y-15299D01*
X-5325Y-15513D01*
X-5429Y-15762D01*
X-5464Y-16030D01*
X-5429Y-16298D01*
X-5325Y-16547D01*
X-5161Y-16761D01*
X-4947Y-16925D01*
X-4700Y-17028D01*
Y-17650D01*
X-4869D01*
Y-18523D01*
X-4869Y-18600D01*
X-4869Y-18727D01*
Y-19600D01*
X-4700D01*
Y-21094D01*
X-4783Y-21129D01*
X-4929Y-21241D01*
X-4986Y-21315D01*
X-5144D01*
X-5201Y-21241D01*
X-5347Y-21129D01*
X-5517Y-21058D01*
X-5700Y-21034D01*
X-5883Y-21058D01*
X-6053Y-21129D01*
X-6199Y-21241D01*
X-6256Y-21315D01*
X-6414D01*
X-6471Y-21241D01*
X-6617Y-21129D01*
X-6787Y-21058D01*
X-6970Y-21034D01*
X-7153Y-21058D01*
X-7323Y-21129D01*
X-7469Y-21241D01*
X-7526Y-21315D01*
X-7684D01*
X-7741Y-21241D01*
X-7887Y-21129D01*
X-8057Y-21058D01*
X-8240Y-21034D01*
X-8423Y-21058D01*
X-8593Y-21129D01*
X-8739Y-21241D01*
X-8851Y-21387D01*
X-8922Y-21557D01*
X-8946Y-21740D01*
X-8922Y-21923D01*
X-8851Y-22093D01*
X-8739Y-22239D01*
X-8665Y-22296D01*
Y-22454D01*
X-8739Y-22511D01*
X-8851Y-22657D01*
X-8922Y-22827D01*
X-8946Y-23010D01*
X-8922Y-23193D01*
X-8851Y-23363D01*
X-8739Y-23509D01*
X-8593Y-23621D01*
X-8423Y-23692D01*
X-8240Y-23716D01*
X-8057Y-23692D01*
X-7887Y-23621D01*
X-7741Y-23509D01*
X-7684Y-23435D01*
X-7526D01*
X-7469Y-23509D01*
X-7323Y-23621D01*
X-7153Y-23692D01*
X-6970Y-23716D01*
X-6787Y-23692D01*
X-6617Y-23621D01*
X-6471Y-23509D01*
X-6414Y-23435D01*
X-6256D01*
X-6199Y-23509D01*
X-6096Y-23588D01*
X-6068Y-23739D01*
X-6279Y-23950D01*
X-6748D01*
X-6825Y-23950D01*
X-6952Y-23950D01*
X-7825D01*
Y-24132D01*
X-9078D01*
X-9957Y-23253D01*
Y-20238D01*
X-9978Y-20136D01*
X-10036Y-20049D01*
X-13614Y-16471D01*
X-13701Y-16413D01*
X-13803Y-16393D01*
X-14489D01*
X-18621Y-12261D01*
X-18708Y-12203D01*
X-18810Y-12182D01*
X-21587D01*
X-21685Y-12035D01*
X-21876Y-11908D01*
X-22100Y-11864D01*
D02*
G37*
G36*
X-30975Y-22475D02*
X-31325D01*
Y-22900D01*
X-30975D01*
Y-22475D01*
D02*
G37*
G36*
X-13075Y-20575D02*
X-14475D01*
Y-22225D01*
X-13075D01*
Y-20575D01*
D02*
G37*
G36*
X-50225Y-21925D02*
X-50625D01*
Y-22300D01*
X-50225D01*
Y-21925D01*
D02*
G37*
G36*
X-24375Y-26500D02*
X-24800D01*
Y-26850D01*
X-24375D01*
Y-26500D01*
D02*
G37*
G36*
X-52850Y-26225D02*
X-53375D01*
Y-26725D01*
X-52850D01*
Y-26225D01*
D02*
G37*
G36*
X-4530Y-27684D02*
X-4704Y-27707D01*
X-4960Y-27813D01*
X-5179Y-27981D01*
X-5347Y-28200D01*
X-5453Y-28456D01*
X-5476Y-28630D01*
X-4530D01*
Y-27684D01*
D02*
G37*
G36*
X-4330D02*
Y-28630D01*
X-3384D01*
X-3407Y-28456D01*
X-3513Y-28200D01*
X-3681Y-27981D01*
X-3900Y-27813D01*
X-4156Y-27707D01*
X-4330Y-27684D01*
D02*
G37*
G36*
X-51200Y-25550D02*
X-51550D01*
Y-25975D01*
X-51200D01*
Y-25550D01*
D02*
G37*
G36*
X-2442Y-23110D02*
X-3060D01*
Y-23728D01*
X-2971Y-23716D01*
X-2794Y-23643D01*
X-2643Y-23527D01*
X-2527Y-23376D01*
X-2454Y-23199D01*
X-2442Y-23110D01*
D02*
G37*
G36*
X-52125Y-26225D02*
X-52650D01*
Y-26725D01*
X-52125D01*
Y-26225D01*
D02*
G37*
G36*
X-52850Y-25525D02*
X-53375D01*
Y-26025D01*
X-52850D01*
Y-25525D01*
D02*
G37*
G36*
X-41530Y-53130D02*
X-42476D01*
X-42453Y-53304D01*
X-42347Y-53560D01*
X-42179Y-53779D01*
X-41960Y-53947D01*
X-41704Y-54053D01*
X-41530Y-54076D01*
Y-53130D01*
D02*
G37*
G36*
X-40384D02*
X-41330D01*
Y-54076D01*
X-41156Y-54053D01*
X-40900Y-53947D01*
X-40681Y-53779D01*
X-40513Y-53560D01*
X-40407Y-53304D01*
X-40384Y-53130D01*
D02*
G37*
G36*
X-18670Y-54524D02*
X-18844Y-54547D01*
X-19100Y-54653D01*
X-19319Y-54821D01*
X-19487Y-55040D01*
X-19593Y-55296D01*
X-19616Y-55470D01*
X-18670D01*
Y-54524D01*
D02*
G37*
G36*
X-18470D02*
Y-55470D01*
X-17524D01*
X-17547Y-55296D01*
X-17653Y-55040D01*
X-17821Y-54821D01*
X-18040Y-54653D01*
X-18296Y-54547D01*
X-18470Y-54524D01*
D02*
G37*
G36*
X-38890Y-51996D02*
X-39158Y-52031D01*
X-39407Y-52135D01*
X-39621Y-52299D01*
X-39785Y-52513D01*
X-39889Y-52762D01*
X-39924Y-53030D01*
X-39889Y-53298D01*
X-39785Y-53547D01*
X-39621Y-53761D01*
X-39407Y-53925D01*
X-39158Y-54029D01*
X-38890Y-54064D01*
X-38622Y-54029D01*
X-38373Y-53925D01*
X-38159Y-53761D01*
X-37995Y-53547D01*
X-37891Y-53298D01*
X-37856Y-53030D01*
X-37891Y-52762D01*
X-37995Y-52513D01*
X-38159Y-52299D01*
X-38373Y-52135D01*
X-38622Y-52031D01*
X-38890Y-51996D01*
D02*
G37*
G36*
X-21110D02*
X-21378Y-52031D01*
X-21627Y-52135D01*
X-21841Y-52299D01*
X-22005Y-52513D01*
X-22109Y-52762D01*
X-22144Y-53030D01*
X-22109Y-53298D01*
X-22005Y-53547D01*
X-21841Y-53761D01*
X-21627Y-53925D01*
X-21378Y-54029D01*
X-21110Y-54064D01*
X-20842Y-54029D01*
X-20593Y-53925D01*
X-20379Y-53761D01*
X-20215Y-53547D01*
X-20111Y-53298D01*
X-20076Y-53030D01*
X-20111Y-52762D01*
X-20215Y-52513D01*
X-20379Y-52299D01*
X-20593Y-52135D01*
X-20842Y-52031D01*
X-21110Y-51996D01*
D02*
G37*
G36*
X-41530Y-51984D02*
X-41704Y-52007D01*
X-41960Y-52113D01*
X-42179Y-52281D01*
X-42347Y-52500D01*
X-42453Y-52756D01*
X-42476Y-52930D01*
X-41530D01*
Y-51984D01*
D02*
G37*
G36*
X-36350Y-51996D02*
X-36618Y-52031D01*
X-36867Y-52135D01*
X-37081Y-52299D01*
X-37245Y-52513D01*
X-37349Y-52762D01*
X-37384Y-53030D01*
X-37349Y-53298D01*
X-37245Y-53547D01*
X-37081Y-53761D01*
X-36867Y-53925D01*
X-36618Y-54029D01*
X-36350Y-54064D01*
X-36082Y-54029D01*
X-35833Y-53925D01*
X-35619Y-53761D01*
X-35455Y-53547D01*
X-35351Y-53298D01*
X-35316Y-53030D01*
X-35351Y-52762D01*
X-35455Y-52513D01*
X-35619Y-52299D01*
X-35833Y-52135D01*
X-36082Y-52031D01*
X-36350Y-51996D01*
D02*
G37*
G36*
X-27190Y-35541D02*
X-27366Y-35576D01*
X-27514Y-35676D01*
X-27614Y-35824D01*
X-27649Y-36000D01*
X-27614Y-36176D01*
X-27514Y-36324D01*
X-27366Y-36424D01*
X-27190Y-36459D01*
X-27108Y-36443D01*
X-23905Y-39646D01*
Y-52030D01*
X-23918Y-52031D01*
X-24167Y-52135D01*
X-24381Y-52299D01*
X-24545Y-52513D01*
X-24649Y-52762D01*
X-24684Y-53030D01*
X-24649Y-53298D01*
X-24545Y-53547D01*
X-24381Y-53761D01*
X-24167Y-53925D01*
X-23918Y-54029D01*
X-23650Y-54064D01*
X-23382Y-54029D01*
X-23133Y-53925D01*
X-22919Y-53761D01*
X-22755Y-53547D01*
X-22651Y-53298D01*
X-22616Y-53030D01*
X-22651Y-52762D01*
X-22755Y-52513D01*
X-22919Y-52299D01*
X-23133Y-52135D01*
X-23382Y-52031D01*
X-23395Y-52030D01*
Y-39540D01*
X-23415Y-39442D01*
X-23470Y-39360D01*
X-26747Y-36082D01*
X-26731Y-36000D01*
X-26766Y-35824D01*
X-26866Y-35676D01*
X-27014Y-35576D01*
X-27190Y-35541D01*
D02*
G37*
G36*
X-41430Y-54536D02*
X-41698Y-54571D01*
X-41947Y-54675D01*
X-42161Y-54839D01*
X-42325Y-55053D01*
X-42429Y-55302D01*
X-42464Y-55570D01*
X-42429Y-55838D01*
X-42325Y-56087D01*
X-42161Y-56301D01*
X-41947Y-56465D01*
X-41698Y-56569D01*
X-41430Y-56604D01*
X-41162Y-56569D01*
X-40913Y-56465D01*
X-40699Y-56301D01*
X-40535Y-56087D01*
X-40431Y-55838D01*
X-40396Y-55570D01*
X-40431Y-55302D01*
X-40535Y-55053D01*
X-40699Y-54839D01*
X-40913Y-54675D01*
X-41162Y-54571D01*
X-41430Y-54536D01*
D02*
G37*
G36*
X-38890D02*
X-39158Y-54571D01*
X-39407Y-54675D01*
X-39621Y-54839D01*
X-39785Y-55053D01*
X-39889Y-55302D01*
X-39924Y-55570D01*
X-39889Y-55838D01*
X-39785Y-56087D01*
X-39621Y-56301D01*
X-39407Y-56465D01*
X-39158Y-56569D01*
X-38890Y-56604D01*
X-38622Y-56569D01*
X-38373Y-56465D01*
X-38159Y-56301D01*
X-37995Y-56087D01*
X-37891Y-55838D01*
X-37856Y-55570D01*
X-37891Y-55302D01*
X-37995Y-55053D01*
X-38159Y-54839D01*
X-38373Y-54675D01*
X-38622Y-54571D01*
X-38890Y-54536D01*
D02*
G37*
G36*
X-18670Y-55670D02*
X-19616D01*
X-19593Y-55844D01*
X-19487Y-56100D01*
X-19319Y-56319D01*
X-19100Y-56487D01*
X-18844Y-56593D01*
X-18670Y-56616D01*
Y-55670D01*
D02*
G37*
G36*
X-17524D02*
X-18470D01*
Y-56616D01*
X-18296Y-56593D01*
X-18040Y-56487D01*
X-17821Y-56319D01*
X-17653Y-56100D01*
X-17547Y-55844D01*
X-17524Y-55670D01*
D02*
G37*
G36*
X-36350Y-54536D02*
X-36618Y-54571D01*
X-36867Y-54675D01*
X-37081Y-54839D01*
X-37245Y-55053D01*
X-37349Y-55302D01*
X-37384Y-55570D01*
X-37349Y-55838D01*
X-37245Y-56087D01*
X-37081Y-56301D01*
X-36867Y-56465D01*
X-36618Y-56569D01*
X-36350Y-56604D01*
X-36082Y-56569D01*
X-35833Y-56465D01*
X-35619Y-56301D01*
X-35455Y-56087D01*
X-35351Y-55838D01*
X-35316Y-55570D01*
X-35351Y-55302D01*
X-35455Y-55053D01*
X-35619Y-54839D01*
X-35833Y-54675D01*
X-36082Y-54571D01*
X-36350Y-54536D01*
D02*
G37*
G36*
X-23650D02*
X-23918Y-54571D01*
X-24167Y-54675D01*
X-24381Y-54839D01*
X-24545Y-55053D01*
X-24649Y-55302D01*
X-24684Y-55570D01*
X-24649Y-55838D01*
X-24545Y-56087D01*
X-24381Y-56301D01*
X-24167Y-56465D01*
X-23918Y-56569D01*
X-23650Y-56604D01*
X-23382Y-56569D01*
X-23133Y-56465D01*
X-22919Y-56301D01*
X-22755Y-56087D01*
X-22651Y-55838D01*
X-22616Y-55570D01*
X-22651Y-55302D01*
X-22755Y-55053D01*
X-22919Y-54839D01*
X-23133Y-54675D01*
X-23382Y-54571D01*
X-23650Y-54536D01*
D02*
G37*
G36*
X-21110D02*
X-21378Y-54571D01*
X-21627Y-54675D01*
X-21841Y-54839D01*
X-22005Y-55053D01*
X-22109Y-55302D01*
X-22144Y-55570D01*
X-22109Y-55838D01*
X-22005Y-56087D01*
X-21841Y-56301D01*
X-21627Y-56465D01*
X-21378Y-56569D01*
X-21110Y-56604D01*
X-20842Y-56569D01*
X-20593Y-56465D01*
X-20379Y-56301D01*
X-20215Y-56087D01*
X-20111Y-55838D01*
X-20076Y-55570D01*
X-20111Y-55302D01*
X-20215Y-55053D01*
X-20379Y-54839D01*
X-20593Y-54675D01*
X-20842Y-54571D01*
X-21110Y-54536D01*
D02*
G37*
G36*
X-33810D02*
X-34078Y-54571D01*
X-34327Y-54675D01*
X-34541Y-54839D01*
X-34705Y-55053D01*
X-34809Y-55302D01*
X-34844Y-55570D01*
X-34809Y-55838D01*
X-34705Y-56087D01*
X-34541Y-56301D01*
X-34327Y-56465D01*
X-34078Y-56569D01*
X-33810Y-56604D01*
X-33542Y-56569D01*
X-33293Y-56465D01*
X-33079Y-56301D01*
X-32915Y-56087D01*
X-32811Y-55838D01*
X-32776Y-55570D01*
X-32811Y-55302D01*
X-32915Y-55053D01*
X-33079Y-54839D01*
X-33293Y-54675D01*
X-33542Y-54571D01*
X-33810Y-54536D01*
D02*
G37*
G36*
X-26190D02*
X-26458Y-54571D01*
X-26707Y-54675D01*
X-26921Y-54839D01*
X-27085Y-55053D01*
X-27189Y-55302D01*
X-27224Y-55570D01*
X-27189Y-55838D01*
X-27085Y-56087D01*
X-26921Y-56301D01*
X-26707Y-56465D01*
X-26458Y-56569D01*
X-26190Y-56604D01*
X-25922Y-56569D01*
X-25673Y-56465D01*
X-25459Y-56301D01*
X-25295Y-56087D01*
X-25191Y-55838D01*
X-25156Y-55570D01*
X-25191Y-55302D01*
X-25295Y-55053D01*
X-25459Y-54839D01*
X-25673Y-54675D01*
X-25922Y-54571D01*
X-26190Y-54536D01*
D02*
G37*
G36*
X-42735Y-40475D02*
X-43485D01*
Y-40875D01*
X-42735D01*
Y-40475D01*
D02*
G37*
G36*
X-41785D02*
X-42535D01*
Y-40875D01*
X-41785D01*
Y-40475D01*
D02*
G37*
G36*
X-45650Y-42425D02*
X-46025D01*
Y-42825D01*
X-45650D01*
Y-42425D01*
D02*
G37*
G36*
X-16700Y-25591D02*
X-16876Y-25626D01*
X-17024Y-25726D01*
X-17124Y-25874D01*
X-17159Y-26050D01*
X-17124Y-26226D01*
X-17024Y-26374D01*
Y-26463D01*
X-17037Y-26519D01*
X-17125Y-26651D01*
X-17160Y-26826D01*
X-17125Y-27002D01*
X-17025Y-27151D01*
X-16876Y-27250D01*
X-16701Y-27285D01*
X-16630Y-27401D01*
Y-28396D01*
X-16765Y-28485D01*
X-16892Y-28675D01*
X-16936Y-28900D01*
X-16892Y-29124D01*
X-16765Y-29314D01*
X-16630Y-29404D01*
Y-29600D01*
X-16850D01*
Y-30673D01*
X-16850Y-30750D01*
X-16850Y-30877D01*
Y-31950D01*
X-16605D01*
Y-33350D01*
X-16586Y-33448D01*
X-16530Y-33530D01*
X-16455Y-33581D01*
X-8425Y-41610D01*
X-8343Y-41665D01*
X-8245Y-41685D01*
X-7970D01*
X-7969Y-41698D01*
X-7865Y-41947D01*
X-7701Y-42161D01*
X-7487Y-42325D01*
X-7238Y-42429D01*
X-6970Y-42464D01*
X-6702Y-42429D01*
X-6453Y-42325D01*
X-6239Y-42161D01*
X-6075Y-41947D01*
X-5971Y-41698D01*
X-5936Y-41430D01*
X-5971Y-41162D01*
X-6075Y-40913D01*
X-6233Y-40707D01*
X-6223Y-40653D01*
X-6199Y-40580D01*
X-5641D01*
X-5318Y-40903D01*
X-5325Y-40913D01*
X-5429Y-41162D01*
X-5464Y-41430D01*
X-5429Y-41698D01*
X-5325Y-41947D01*
X-5161Y-42161D01*
X-4947Y-42325D01*
X-4698Y-42429D01*
X-4430Y-42464D01*
X-4162Y-42429D01*
X-3913Y-42325D01*
X-3699Y-42161D01*
X-3535Y-41947D01*
X-3431Y-41698D01*
X-3396Y-41430D01*
X-3431Y-41162D01*
X-3535Y-40913D01*
X-3699Y-40699D01*
X-3913Y-40535D01*
X-4162Y-40431D01*
X-4430Y-40396D01*
X-4698Y-40431D01*
X-4947Y-40535D01*
X-4957Y-40542D01*
X-5355Y-40145D01*
X-5437Y-40090D01*
X-5535Y-40070D01*
X-8820D01*
X-14795Y-34095D01*
Y-31950D01*
X-14550D01*
Y-30877D01*
X-14550Y-30800D01*
X-14550Y-30673D01*
Y-29600D01*
X-14770D01*
Y-29404D01*
X-14635Y-29314D01*
X-14508Y-29124D01*
X-14464Y-28900D01*
X-14508Y-28675D01*
X-14635Y-28485D01*
X-14770Y-28396D01*
Y-27700D01*
X-14791Y-27593D01*
X-14852Y-27502D01*
X-16252Y-26102D01*
X-16241Y-26050D01*
X-16276Y-25874D01*
X-16376Y-25726D01*
X-16524Y-25626D01*
X-16700Y-25591D01*
D02*
G37*
G36*
X-6970Y-37856D02*
X-7238Y-37891D01*
X-7487Y-37995D01*
X-7701Y-38159D01*
X-7865Y-38373D01*
X-7969Y-38622D01*
X-8004Y-38890D01*
X-7969Y-39158D01*
X-7865Y-39407D01*
X-7701Y-39621D01*
X-7487Y-39785D01*
X-7238Y-39889D01*
X-6970Y-39924D01*
X-6702Y-39889D01*
X-6453Y-39785D01*
X-6239Y-39621D01*
X-6075Y-39407D01*
X-5971Y-39158D01*
X-5936Y-38890D01*
X-5971Y-38622D01*
X-6075Y-38373D01*
X-6239Y-38159D01*
X-6453Y-37995D01*
X-6702Y-37891D01*
X-6970Y-37856D01*
D02*
G37*
G36*
X-39425Y-35850D02*
X-39825D01*
Y-36400D01*
X-39425D01*
Y-35850D01*
D02*
G37*
G36*
X-38825D02*
X-39225D01*
Y-36400D01*
X-38825D01*
Y-35850D01*
D02*
G37*
G36*
X-4430Y-37856D02*
X-4698Y-37891D01*
X-4947Y-37995D01*
X-5161Y-38159D01*
X-5325Y-38373D01*
X-5429Y-38622D01*
X-5464Y-38890D01*
X-5429Y-39158D01*
X-5325Y-39407D01*
X-5161Y-39621D01*
X-4947Y-39785D01*
X-4698Y-39889D01*
X-4430Y-39924D01*
X-4162Y-39889D01*
X-3913Y-39785D01*
X-3699Y-39621D01*
X-3535Y-39407D01*
X-3431Y-39158D01*
X-3396Y-38890D01*
X-3431Y-38622D01*
X-3535Y-38373D01*
X-3699Y-38159D01*
X-3913Y-37995D01*
X-4162Y-37891D01*
X-4430Y-37856D01*
D02*
G37*
G36*
X-36036Y-38227D02*
X-36211Y-38262D01*
X-36360Y-38361D01*
X-36460Y-38510D01*
X-36495Y-38686D01*
X-36460Y-38861D01*
X-36360Y-39010D01*
X-36211Y-39110D01*
X-36036Y-39145D01*
X-35860Y-39110D01*
X-35711Y-39010D01*
X-35612Y-38861D01*
X-35577Y-38686D01*
X-35612Y-38510D01*
X-35711Y-38361D01*
X-35860Y-38262D01*
X-36036Y-38227D01*
D02*
G37*
G36*
X-7070Y-51690D02*
X-8016D01*
X-7993Y-51864D01*
X-7887Y-52120D01*
X-7719Y-52339D01*
X-7500Y-52507D01*
X-7244Y-52613D01*
X-7070Y-52636D01*
Y-51690D01*
D02*
G37*
G36*
X-4430Y-50556D02*
X-4698Y-50591D01*
X-4947Y-50695D01*
X-5161Y-50859D01*
X-5325Y-51073D01*
X-5429Y-51322D01*
X-5464Y-51590D01*
X-5429Y-51858D01*
X-5325Y-52107D01*
X-5161Y-52321D01*
X-4947Y-52485D01*
X-4698Y-52589D01*
X-4430Y-52624D01*
X-4162Y-52589D01*
X-3913Y-52485D01*
X-3699Y-52321D01*
X-3535Y-52107D01*
X-3431Y-51858D01*
X-3396Y-51590D01*
X-3431Y-51322D01*
X-3535Y-51073D01*
X-3699Y-50859D01*
X-3913Y-50695D01*
X-4162Y-50591D01*
X-4430Y-50556D01*
D02*
G37*
G36*
X-41330Y-51984D02*
Y-52930D01*
X-40384D01*
X-40407Y-52756D01*
X-40513Y-52500D01*
X-40681Y-52281D01*
X-40900Y-52113D01*
X-41156Y-52007D01*
X-41330Y-51984D01*
D02*
G37*
G36*
X-5924Y-51690D02*
X-6870D01*
Y-52636D01*
X-6696Y-52613D01*
X-6440Y-52507D01*
X-6221Y-52339D01*
X-6053Y-52120D01*
X-5947Y-51864D01*
X-5924Y-51690D01*
D02*
G37*
G36*
X-7070Y-50544D02*
X-7244Y-50567D01*
X-7500Y-50673D01*
X-7719Y-50841D01*
X-7887Y-51060D01*
X-7993Y-51316D01*
X-8016Y-51490D01*
X-7070D01*
Y-50544D01*
D02*
G37*
G36*
X-32700Y-42016D02*
X-32876Y-42051D01*
X-33024Y-42151D01*
X-33124Y-42299D01*
X-33159Y-42475D01*
X-33124Y-42651D01*
X-33024Y-42799D01*
X-32876Y-42899D01*
X-32700Y-42934D01*
X-32524Y-42899D01*
X-32376Y-42799D01*
X-32276Y-42651D01*
X-32241Y-42475D01*
X-32276Y-42299D01*
X-32376Y-42151D01*
X-32524Y-42051D01*
X-32700Y-42016D01*
D02*
G37*
G36*
X-47075Y-42400D02*
X-47425D01*
Y-42825D01*
X-47075D01*
Y-42400D01*
D02*
G37*
G36*
X-6870Y-50544D02*
Y-51490D01*
X-5924D01*
X-5947Y-51316D01*
X-6053Y-51060D01*
X-6221Y-50841D01*
X-6440Y-50673D01*
X-6696Y-50567D01*
X-6870Y-50544D01*
D02*
G37*
G36*
X-19405Y-37641D02*
X-19581Y-37676D01*
X-19729Y-37776D01*
X-19829Y-37924D01*
X-19864Y-38100D01*
X-19976Y-38186D01*
X-20051Y-38201D01*
X-20199Y-38301D01*
X-20299Y-38449D01*
X-20334Y-38625D01*
X-20299Y-38801D01*
X-20199Y-38949D01*
X-20051Y-39049D01*
X-19875Y-39084D01*
X-19793Y-39068D01*
X-8555Y-50305D01*
X-8473Y-50361D01*
X-8375Y-50380D01*
X-5505D01*
X-5407Y-50361D01*
X-5325Y-50305D01*
X-4957Y-49938D01*
X-4947Y-49945D01*
X-4698Y-50049D01*
X-4430Y-50084D01*
X-4162Y-50049D01*
X-3913Y-49945D01*
X-3699Y-49781D01*
X-3535Y-49567D01*
X-3431Y-49318D01*
X-3396Y-49050D01*
X-3431Y-48782D01*
X-3535Y-48533D01*
X-3699Y-48319D01*
X-3913Y-48155D01*
X-4162Y-48051D01*
X-4430Y-48016D01*
X-4698Y-48051D01*
X-4947Y-48155D01*
X-5161Y-48319D01*
X-5325Y-48533D01*
X-5429Y-48782D01*
X-5464Y-49050D01*
X-5429Y-49318D01*
X-5325Y-49567D01*
X-5318Y-49577D01*
X-5611Y-49870D01*
X-6159D01*
X-6210Y-49743D01*
X-6075Y-49567D01*
X-5971Y-49318D01*
X-5936Y-49050D01*
X-5971Y-48782D01*
X-6075Y-48533D01*
X-6239Y-48319D01*
X-6453Y-48155D01*
X-6702Y-48051D01*
X-6970Y-48016D01*
X-7238Y-48051D01*
X-7487Y-48155D01*
X-7701Y-48319D01*
X-7865Y-48533D01*
X-7969Y-48782D01*
X-7970Y-48795D01*
X-8739D01*
X-19083Y-38451D01*
X-19081Y-38424D01*
X-18981Y-38276D01*
X-18946Y-38100D01*
X-18981Y-37924D01*
X-19081Y-37776D01*
X-19229Y-37676D01*
X-19405Y-37641D01*
D02*
G37*
G36*
X-18800Y-21400D02*
X-19225D01*
Y-21750D01*
X-18800D01*
Y-21400D01*
D02*
G37*
G36*
X-28450Y-6300D02*
X-28800D01*
Y-6725D01*
X-28450D01*
Y-6300D01*
D02*
G37*
G36*
X-27375Y-5800D02*
X-27875D01*
Y-6325D01*
X-27375D01*
Y-5800D01*
D02*
G37*
G36*
X-27875Y-6750D02*
X-28275D01*
Y-7000D01*
X-27875D01*
Y-6750D01*
D02*
G37*
G36*
X-29000Y-6300D02*
X-29350D01*
Y-6725D01*
X-29000D01*
Y-6300D01*
D02*
G37*
G36*
X-26675Y-5800D02*
X-27175D01*
Y-6325D01*
X-26675D01*
Y-5800D01*
D02*
G37*
G36*
X-27375Y-5075D02*
X-27875D01*
Y-5600D01*
X-27375D01*
Y-5075D01*
D02*
G37*
G36*
X-26675D02*
X-27175D01*
Y-5600D01*
X-26675D01*
Y-5075D01*
D02*
G37*
G36*
X-17825Y-3994D02*
X-18008Y-4018D01*
X-18178Y-4089D01*
X-18324Y-4201D01*
X-18436Y-4347D01*
X-18507Y-4517D01*
X-18531Y-4700D01*
Y-4900D01*
X-18507Y-5083D01*
X-18436Y-5253D01*
X-18324Y-5399D01*
X-18178Y-5511D01*
X-18008Y-5582D01*
X-17825Y-5606D01*
X-17642Y-5582D01*
X-17472Y-5511D01*
X-17326Y-5399D01*
X-17214Y-5253D01*
X-17143Y-5083D01*
X-17119Y-4900D01*
Y-4700D01*
X-17143Y-4517D01*
X-17214Y-4347D01*
X-17326Y-4201D01*
X-17472Y-4089D01*
X-17642Y-4018D01*
X-17825Y-3994D01*
D02*
G37*
G36*
X-38600Y-683D02*
X-38811Y-711D01*
X-39008Y-792D01*
X-39178Y-922D01*
X-39308Y-1092D01*
X-39389Y-1289D01*
X-39417Y-1500D01*
X-39389Y-1711D01*
X-39308Y-1908D01*
X-39178Y-2078D01*
X-39008Y-2208D01*
X-38811Y-2289D01*
X-38600Y-2317D01*
X-38389Y-2289D01*
X-38260Y-2236D01*
X-35980Y-4516D01*
Y-5557D01*
X-36098Y-5606D01*
X-37864Y-3840D01*
X-37811Y-3711D01*
X-37783Y-3500D01*
X-37811Y-3289D01*
X-37892Y-3092D01*
X-38022Y-2922D01*
X-38192Y-2792D01*
X-38389Y-2711D01*
X-38600Y-2683D01*
X-38811Y-2711D01*
X-39008Y-2792D01*
X-39178Y-2922D01*
X-39308Y-3092D01*
X-39389Y-3289D01*
X-39417Y-3500D01*
X-39389Y-3711D01*
X-39308Y-3908D01*
X-39178Y-4078D01*
X-39158Y-4093D01*
X-39201Y-4220D01*
X-40484D01*
X-40864Y-3840D01*
X-40811Y-3711D01*
X-40783Y-3500D01*
X-40811Y-3289D01*
X-40892Y-3092D01*
X-41022Y-2922D01*
X-41192Y-2792D01*
X-41389Y-2711D01*
X-41600Y-2683D01*
X-41811Y-2711D01*
X-42008Y-2792D01*
X-42178Y-2922D01*
X-42308Y-3092D01*
X-42389Y-3289D01*
X-42417Y-3500D01*
X-42389Y-3711D01*
X-42308Y-3908D01*
X-42178Y-4078D01*
X-42008Y-4208D01*
X-41811Y-4289D01*
X-41600Y-4317D01*
X-41389Y-4289D01*
X-41260Y-4236D01*
X-40798Y-4698D01*
X-40707Y-4759D01*
X-40600Y-4780D01*
X-39201D01*
X-39158Y-4907D01*
X-39178Y-4922D01*
X-39308Y-5091D01*
X-39389Y-5289D01*
X-39417Y-5500D01*
X-39389Y-5711D01*
X-39308Y-5908D01*
X-39185Y-6068D01*
X-39200Y-6143D01*
X-39217Y-6195D01*
X-40509D01*
X-40864Y-5840D01*
X-40811Y-5711D01*
X-40783Y-5500D01*
X-40811Y-5289D01*
X-40892Y-5091D01*
X-41022Y-4922D01*
X-41192Y-4792D01*
X-41389Y-4711D01*
X-41600Y-4683D01*
X-41811Y-4711D01*
X-42008Y-4792D01*
X-42178Y-4922D01*
X-42308Y-5091D01*
X-42389Y-5289D01*
X-42417Y-5500D01*
X-42389Y-5711D01*
X-42308Y-5908D01*
X-42178Y-6078D01*
X-42008Y-6208D01*
X-41811Y-6289D01*
X-41600Y-6317D01*
X-41389Y-6289D01*
X-41260Y-6236D01*
X-40823Y-6673D01*
X-40732Y-6734D01*
X-40625Y-6755D01*
X-40625Y-6755D01*
X-39169D01*
X-39126Y-6882D01*
X-39178Y-6922D01*
X-39308Y-7091D01*
X-39389Y-7289D01*
X-39417Y-7500D01*
X-39389Y-7711D01*
X-39308Y-7909D01*
X-39178Y-8078D01*
X-39008Y-8208D01*
X-38811Y-8289D01*
X-38600Y-8317D01*
X-38389Y-8289D01*
X-38370Y-8281D01*
X-38343Y-8288D01*
X-38236Y-8363D01*
X-38211Y-8488D01*
X-38112Y-8637D01*
X-37991Y-8718D01*
X-38020Y-8845D01*
X-39859D01*
X-40864Y-7840D01*
X-40811Y-7711D01*
X-40783Y-7500D01*
X-40811Y-7289D01*
X-40892Y-7091D01*
X-41022Y-6922D01*
X-41192Y-6792D01*
X-41389Y-6711D01*
X-41600Y-6683D01*
X-41811Y-6711D01*
X-42008Y-6792D01*
X-42178Y-6922D01*
X-42308Y-7091D01*
X-42389Y-7289D01*
X-42417Y-7500D01*
X-42389Y-7711D01*
X-42308Y-7909D01*
X-42178Y-8078D01*
X-42008Y-8208D01*
X-41811Y-8289D01*
X-41600Y-8317D01*
X-41389Y-8289D01*
X-41260Y-8236D01*
X-40173Y-9323D01*
X-40082Y-9384D01*
X-39975Y-9405D01*
X-36756D01*
X-30193Y-15969D01*
Y-17329D01*
X-30305Y-17389D01*
X-30324Y-17376D01*
X-30500Y-17341D01*
X-30577Y-17227D01*
X-30566Y-17175D01*
X-30601Y-16999D01*
X-30701Y-16851D01*
X-30849Y-16751D01*
X-31025Y-16716D01*
X-31201Y-16751D01*
X-31349Y-16851D01*
X-31449Y-16999D01*
X-31454Y-17025D01*
X-31582Y-17026D01*
X-31584Y-17025D01*
X-31710Y-16835D01*
X-31901Y-16708D01*
X-32125Y-16664D01*
X-32349Y-16708D01*
X-32540Y-16835D01*
X-32667Y-17026D01*
X-32711Y-17250D01*
X-32667Y-17474D01*
X-32540Y-17665D01*
X-32349Y-17792D01*
X-32125Y-17836D01*
X-31967Y-17805D01*
X-31630Y-18141D01*
Y-18450D01*
X-32050D01*
Y-18900D01*
X-32150D01*
Y-19000D01*
X-32675D01*
Y-19350D01*
X-32675D01*
X-32680Y-19475D01*
X-33300D01*
Y-20525D01*
X-33051D01*
X-33034Y-20610D01*
X-32973Y-20701D01*
X-32302Y-21373D01*
X-32312Y-21425D01*
X-32277Y-21601D01*
X-32178Y-21749D01*
X-32029Y-21849D01*
X-31853Y-21884D01*
X-31678Y-21849D01*
X-31529Y-21749D01*
X-31499Y-21705D01*
X-31300D01*
Y-21850D01*
X-31325D01*
Y-22275D01*
X-30875D01*
Y-22375D01*
X-30775D01*
Y-22900D01*
X-30100D01*
Y-22375D01*
X-29900D01*
Y-22947D01*
X-29871Y-23017D01*
X-31060Y-24206D01*
X-31118Y-24293D01*
X-31138Y-24395D01*
Y-26879D01*
X-32607Y-28348D01*
X-32780Y-28313D01*
X-33004Y-28358D01*
X-33194Y-28485D01*
X-33321Y-28675D01*
X-33366Y-28900D01*
X-33321Y-29124D01*
X-33194Y-29314D01*
X-33060Y-29404D01*
Y-29600D01*
X-33280D01*
Y-30673D01*
X-33280Y-30750D01*
X-33280Y-30877D01*
Y-31950D01*
X-32565D01*
X-32030Y-32485D01*
Y-36567D01*
X-32147Y-36616D01*
X-33824Y-34939D01*
Y-15109D01*
X-33495Y-14780D01*
X-33440Y-14698D01*
X-33420Y-14600D01*
Y-13996D01*
X-33351Y-13949D01*
X-33251Y-13801D01*
X-33216Y-13625D01*
X-33251Y-13449D01*
X-33351Y-13301D01*
X-33499Y-13201D01*
X-33675Y-13166D01*
X-33851Y-13201D01*
X-33999Y-13301D01*
X-34099Y-13449D01*
X-34134Y-13625D01*
X-34105Y-13770D01*
X-34184Y-13842D01*
X-34208Y-13854D01*
X-34249Y-13826D01*
X-34425Y-13791D01*
X-34601Y-13826D01*
X-34749Y-13926D01*
X-34849Y-14074D01*
X-34884Y-14250D01*
X-34849Y-14426D01*
X-34749Y-14574D01*
X-34680Y-14621D01*
Y-35428D01*
X-34660Y-35526D01*
X-34605Y-35609D01*
X-34244Y-35970D01*
X-34260Y-36052D01*
X-34226Y-36227D01*
X-34126Y-36376D01*
X-34099Y-36394D01*
Y-36471D01*
X-34199Y-36620D01*
X-34234Y-36796D01*
X-34199Y-36971D01*
X-34099Y-37120D01*
X-33951Y-37220D01*
X-33775Y-37255D01*
X-33693Y-37238D01*
X-32676Y-38255D01*
X-32593Y-38310D01*
X-32496Y-38330D01*
X-32006D01*
X-28985Y-41351D01*
Y-46534D01*
X-29054Y-46581D01*
X-29154Y-46729D01*
X-29189Y-46905D01*
X-29154Y-47081D01*
X-29054Y-47229D01*
X-28985Y-47276D01*
Y-52030D01*
X-28998Y-52031D01*
X-29247Y-52135D01*
X-29461Y-52299D01*
X-29625Y-52513D01*
X-29729Y-52762D01*
X-29764Y-53030D01*
X-29729Y-53298D01*
X-29625Y-53547D01*
X-29461Y-53761D01*
X-29247Y-53925D01*
X-28998Y-54029D01*
X-28730Y-54064D01*
X-28462Y-54029D01*
X-28213Y-53925D01*
X-27999Y-53761D01*
X-27882Y-53608D01*
X-27755Y-53652D01*
Y-54234D01*
X-28203Y-54682D01*
X-28213Y-54675D01*
X-28462Y-54571D01*
X-28730Y-54536D01*
X-28998Y-54571D01*
X-29247Y-54675D01*
X-29461Y-54839D01*
X-29625Y-55053D01*
X-29729Y-55302D01*
X-29764Y-55570D01*
X-29729Y-55838D01*
X-29625Y-56087D01*
X-29461Y-56301D01*
X-29247Y-56465D01*
X-28998Y-56569D01*
X-28730Y-56604D01*
X-28462Y-56569D01*
X-28213Y-56465D01*
X-27999Y-56301D01*
X-27835Y-56087D01*
X-27731Y-55838D01*
X-27696Y-55570D01*
X-27731Y-55302D01*
X-27835Y-55053D01*
X-27842Y-55043D01*
X-27320Y-54520D01*
X-27265Y-54438D01*
X-27245Y-54340D01*
Y-53493D01*
X-27118Y-53468D01*
X-27085Y-53547D01*
X-26921Y-53761D01*
X-26707Y-53925D01*
X-26458Y-54029D01*
X-26190Y-54064D01*
X-25922Y-54029D01*
X-25673Y-53925D01*
X-25459Y-53761D01*
X-25295Y-53547D01*
X-25191Y-53298D01*
X-25156Y-53030D01*
X-25191Y-52762D01*
X-25295Y-52513D01*
X-25459Y-52299D01*
X-25673Y-52135D01*
X-25922Y-52031D01*
X-26190Y-51996D01*
X-26458Y-52031D01*
X-26707Y-52135D01*
X-26921Y-52299D01*
X-27085Y-52513D01*
X-27118Y-52592D01*
X-27245Y-52567D01*
Y-47446D01*
X-27176Y-47399D01*
X-27084Y-47262D01*
X-27030Y-47262D01*
X-26955Y-47281D01*
X-26927Y-47426D01*
X-26827Y-47574D01*
X-26678Y-47674D01*
X-26503Y-47709D01*
X-26327Y-47674D01*
X-26178Y-47574D01*
X-26079Y-47426D01*
X-26044Y-47250D01*
X-26079Y-47074D01*
X-26178Y-46926D01*
X-26327Y-46826D01*
X-26503Y-46791D01*
X-26585Y-46807D01*
X-26908Y-46484D01*
Y-41960D01*
X-26928Y-41863D01*
X-26983Y-41780D01*
X-29291Y-39472D01*
X-29242Y-39355D01*
X-27575D01*
X-27477Y-39335D01*
X-27395Y-39280D01*
X-27157Y-39042D01*
X-27075Y-39059D01*
X-26899Y-39024D01*
X-26751Y-38924D01*
X-26651Y-38776D01*
X-26616Y-38600D01*
X-26651Y-38424D01*
X-26751Y-38276D01*
X-26899Y-38176D01*
X-27075Y-38141D01*
X-27226Y-38171D01*
X-27308Y-38120D01*
X-27344Y-38086D01*
X-27376Y-37924D01*
X-27476Y-37776D01*
X-27624Y-37676D01*
X-27800Y-37641D01*
X-27976Y-37676D01*
X-28124Y-37776D01*
X-28171Y-37845D01*
X-29644D01*
X-30914Y-36576D01*
Y-32470D01*
X-30394Y-31950D01*
X-29680D01*
Y-30877D01*
X-29680Y-30800D01*
X-29680Y-30673D01*
Y-29600D01*
X-29912D01*
Y-29412D01*
X-29765Y-29314D01*
X-29638Y-29124D01*
X-29594Y-28900D01*
X-29638Y-28675D01*
X-29765Y-28485D01*
X-29912Y-28387D01*
Y-24891D01*
X-28352Y-23330D01*
X-28192D01*
X-28154Y-23457D01*
X-28177Y-23473D01*
X-28247Y-23577D01*
X-28271Y-23700D01*
X-28247Y-23823D01*
X-28177Y-23927D01*
X-28168Y-23933D01*
X-28156Y-24059D01*
X-28359Y-24262D01*
X-28420Y-24353D01*
X-28441Y-24461D01*
Y-24984D01*
X-28902Y-25445D01*
X-29060Y-25414D01*
X-29284Y-25458D01*
X-29475Y-25585D01*
X-29602Y-25776D01*
X-29646Y-26000D01*
X-29602Y-26224D01*
X-29475Y-26415D01*
X-29284Y-26542D01*
X-29060Y-26586D01*
X-28836Y-26542D01*
X-28645Y-26415D01*
X-28518Y-26224D01*
X-28474Y-26000D01*
X-28505Y-25842D01*
X-28148Y-25484D01*
X-28030Y-25533D01*
Y-26309D01*
X-29078Y-27357D01*
X-29139Y-27448D01*
X-29160Y-27555D01*
Y-28396D01*
X-29294Y-28485D01*
X-29421Y-28675D01*
X-29466Y-28900D01*
X-29421Y-29124D01*
X-29294Y-29314D01*
X-29135Y-29421D01*
Y-29600D01*
X-29380D01*
Y-30673D01*
X-29380Y-30750D01*
X-29380Y-30877D01*
Y-31950D01*
X-29135D01*
Y-32129D01*
X-29294Y-32236D01*
X-29421Y-32426D01*
X-29466Y-32650D01*
X-29421Y-32875D01*
X-29294Y-33065D01*
X-29135Y-33172D01*
Y-34240D01*
X-29930Y-35035D01*
X-29986Y-35118D01*
X-30005Y-35215D01*
Y-36404D01*
X-30074Y-36451D01*
X-30174Y-36599D01*
X-30209Y-36775D01*
X-30174Y-36951D01*
X-30074Y-37099D01*
X-29926Y-37199D01*
X-29750Y-37234D01*
X-29574Y-37199D01*
X-29426Y-37099D01*
X-29326Y-36951D01*
X-29325Y-36947D01*
X-29185Y-36892D01*
X-29101Y-36949D01*
X-28925Y-36984D01*
X-28749Y-36949D01*
X-28601Y-36849D01*
X-28501Y-36701D01*
X-28466Y-36525D01*
X-28501Y-36349D01*
X-28601Y-36201D01*
X-28749Y-36101D01*
X-28925Y-36066D01*
X-29101Y-36101D01*
X-29249Y-36201D01*
X-29291Y-36263D01*
X-29458Y-36298D01*
X-29495Y-36273D01*
Y-35321D01*
X-28700Y-34525D01*
X-28644Y-34443D01*
X-28625Y-34345D01*
Y-33172D01*
X-28465Y-33065D01*
X-28338Y-32875D01*
X-28294Y-32650D01*
X-28338Y-32426D01*
X-28465Y-32236D01*
X-28625Y-32129D01*
Y-31950D01*
X-28380D01*
Y-30877D01*
X-28380Y-30800D01*
X-28380Y-30673D01*
Y-29600D01*
X-28625D01*
Y-29421D01*
X-28465Y-29314D01*
X-28338Y-29124D01*
X-28294Y-28900D01*
X-28338Y-28675D01*
X-28465Y-28485D01*
X-28599Y-28396D01*
Y-27671D01*
X-27552Y-26623D01*
X-27491Y-26532D01*
X-27470Y-26425D01*
Y-24791D01*
X-26777Y-24098D01*
X-26716Y-24008D01*
X-26650Y-24021D01*
X-26527Y-23997D01*
X-26423Y-23927D01*
X-26401Y-23895D01*
X-26249D01*
X-26227Y-23927D01*
X-26123Y-23997D01*
X-26064Y-24008D01*
X-26002Y-24030D01*
X-25965Y-24135D01*
X-26053Y-24221D01*
X-26075Y-24216D01*
X-26251Y-24251D01*
X-26399Y-24351D01*
X-26499Y-24499D01*
X-26534Y-24675D01*
X-26499Y-24851D01*
X-26399Y-24999D01*
X-26355Y-25029D01*
Y-25275D01*
X-26350Y-25302D01*
Y-25925D01*
X-26350D01*
Y-25975D01*
X-26350D01*
Y-26825D01*
X-25840D01*
X-25799Y-26951D01*
X-25899Y-27099D01*
X-25934Y-27275D01*
X-25899Y-27451D01*
X-25799Y-27599D01*
X-25730Y-27646D01*
Y-28459D01*
X-25857Y-28498D01*
X-25865Y-28485D01*
X-26056Y-28358D01*
X-26280Y-28313D01*
X-26504Y-28358D01*
X-26694Y-28485D01*
X-26822Y-28675D01*
X-26866Y-28900D01*
X-26822Y-29124D01*
X-26694Y-29314D01*
X-26535Y-29421D01*
Y-29600D01*
X-26780D01*
Y-30673D01*
X-26780Y-30750D01*
X-26780Y-30877D01*
Y-31950D01*
X-26535D01*
Y-33439D01*
X-26652Y-33487D01*
X-27325Y-32814D01*
Y-31950D01*
X-27080D01*
Y-30877D01*
X-27080Y-30800D01*
X-27080Y-30673D01*
Y-29600D01*
X-27325D01*
Y-29421D01*
X-27165Y-29314D01*
X-27038Y-29124D01*
X-26994Y-28900D01*
X-27038Y-28675D01*
X-27165Y-28485D01*
X-27356Y-28358D01*
X-27580Y-28313D01*
X-27804Y-28358D01*
X-27995Y-28485D01*
X-28122Y-28675D01*
X-28166Y-28900D01*
X-28122Y-29124D01*
X-27995Y-29314D01*
X-27835Y-29421D01*
Y-29600D01*
X-28080D01*
Y-30673D01*
X-28080Y-30750D01*
X-28080Y-30877D01*
Y-31950D01*
X-27835D01*
Y-32950D01*
X-27815Y-33048D01*
X-27760Y-33130D01*
X-27678Y-33186D01*
X-27674Y-33186D01*
X-24605Y-36255D01*
X-24523Y-36310D01*
X-24425Y-36330D01*
X-16656D01*
X-13343Y-39643D01*
X-13359Y-39725D01*
X-13324Y-39901D01*
X-13224Y-40049D01*
X-13076Y-40149D01*
X-12900Y-40184D01*
X-12818Y-40167D01*
X-7555Y-45430D01*
X-7486Y-45477D01*
X-7477Y-45538D01*
X-7483Y-45613D01*
X-7487Y-45615D01*
X-7701Y-45779D01*
X-7865Y-45993D01*
X-7969Y-46242D01*
X-7970Y-46255D01*
X-8709D01*
X-17434Y-37530D01*
X-17426Y-37376D01*
X-17327Y-37227D01*
X-17292Y-37052D01*
X-17327Y-36876D01*
X-17426Y-36727D01*
X-17575Y-36628D01*
X-17751Y-36593D01*
X-17926Y-36628D01*
X-18075Y-36727D01*
X-18175Y-36876D01*
X-18200Y-37002D01*
X-18275Y-37116D01*
X-18451Y-37151D01*
X-18599Y-37251D01*
X-18699Y-37399D01*
X-18734Y-37575D01*
X-18699Y-37751D01*
X-18599Y-37899D01*
X-18451Y-37999D01*
X-18275Y-38034D01*
X-18193Y-38018D01*
X-8430Y-47780D01*
X-8348Y-47835D01*
X-8250Y-47855D01*
X-5520D01*
X-5422Y-47835D01*
X-5340Y-47780D01*
X-4957Y-47398D01*
X-4947Y-47405D01*
X-4698Y-47509D01*
X-4430Y-47544D01*
X-4162Y-47509D01*
X-3913Y-47405D01*
X-3699Y-47241D01*
X-3535Y-47027D01*
X-3431Y-46778D01*
X-3396Y-46510D01*
X-3431Y-46242D01*
X-3535Y-45993D01*
X-3699Y-45779D01*
X-3913Y-45615D01*
X-4162Y-45511D01*
X-4430Y-45476D01*
X-4698Y-45511D01*
X-4947Y-45615D01*
X-5161Y-45779D01*
X-5325Y-45993D01*
X-5429Y-46242D01*
X-5464Y-46510D01*
X-5429Y-46778D01*
X-5325Y-47027D01*
X-5318Y-47037D01*
X-5626Y-47345D01*
X-6185D01*
X-6221Y-47218D01*
X-6075Y-47027D01*
X-5971Y-46778D01*
X-5936Y-46510D01*
X-5971Y-46242D01*
X-6075Y-45993D01*
X-6239Y-45779D01*
X-6431Y-45632D01*
X-6415Y-45541D01*
X-6397Y-45505D01*
X-5710D01*
X-5612Y-45485D01*
X-5530Y-45430D01*
X-4957Y-44858D01*
X-4947Y-44865D01*
X-4698Y-44969D01*
X-4430Y-45004D01*
X-4162Y-44969D01*
X-3913Y-44865D01*
X-3699Y-44701D01*
X-3535Y-44487D01*
X-3431Y-44238D01*
X-3396Y-43970D01*
X-3431Y-43702D01*
X-3535Y-43453D01*
X-3699Y-43239D01*
X-3913Y-43075D01*
X-4162Y-42971D01*
X-4430Y-42936D01*
X-4698Y-42971D01*
X-4947Y-43075D01*
X-5161Y-43239D01*
X-5325Y-43453D01*
X-5429Y-43702D01*
X-5464Y-43970D01*
X-5429Y-44238D01*
X-5325Y-44487D01*
X-5318Y-44497D01*
X-5816Y-44995D01*
X-6435D01*
X-6460Y-44868D01*
X-6453Y-44865D01*
X-6239Y-44701D01*
X-6075Y-44487D01*
X-5971Y-44238D01*
X-5936Y-43970D01*
X-5971Y-43702D01*
X-6075Y-43453D01*
X-6239Y-43239D01*
X-6453Y-43075D01*
X-6702Y-42971D01*
X-6970Y-42936D01*
X-7238Y-42971D01*
X-7487Y-43075D01*
X-7701Y-43239D01*
X-7865Y-43453D01*
X-7936Y-43624D01*
X-8086Y-43654D01*
X-11434Y-40306D01*
X-11451Y-40164D01*
X-11351Y-40016D01*
X-11316Y-39840D01*
X-11351Y-39664D01*
X-11451Y-39516D01*
X-11599Y-39416D01*
X-11775Y-39381D01*
X-11857Y-39397D01*
X-15660Y-35595D01*
X-15742Y-35540D01*
X-15840Y-35520D01*
X-24195D01*
X-26025Y-33690D01*
Y-31950D01*
X-25808D01*
X-25780Y-31950D01*
X-25653Y-31951D01*
X-25255Y-32350D01*
Y-33029D01*
X-25415Y-33135D01*
X-25542Y-33326D01*
X-25586Y-33550D01*
X-25542Y-33774D01*
X-25415Y-33965D01*
X-25224Y-34092D01*
X-25000Y-34136D01*
X-24776Y-34092D01*
X-24585Y-33965D01*
X-24458Y-33774D01*
X-24414Y-33550D01*
X-24458Y-33326D01*
X-24585Y-33135D01*
X-24745Y-33029D01*
Y-32336D01*
X-24618Y-32268D01*
X-24508Y-32342D01*
X-24284Y-32386D01*
X-24060Y-32342D01*
X-24005Y-32305D01*
X-23893Y-32365D01*
Y-32450D01*
X-23872Y-32552D01*
X-23814Y-32639D01*
X-23763Y-32691D01*
Y-33037D01*
X-23910Y-33135D01*
X-24037Y-33326D01*
X-24081Y-33550D01*
X-24037Y-33774D01*
X-23910Y-33965D01*
X-23720Y-34092D01*
X-23495Y-34136D01*
X-23271Y-34092D01*
X-23081Y-33965D01*
X-22954Y-33774D01*
X-22909Y-33550D01*
X-22954Y-33326D01*
X-23081Y-33135D01*
X-23228Y-33037D01*
Y-32580D01*
X-23248Y-32477D01*
X-23306Y-32391D01*
X-23357Y-32339D01*
Y-31270D01*
X-23378Y-31168D01*
X-23436Y-31081D01*
X-23882Y-30634D01*
Y-28219D01*
X-23826Y-28181D01*
X-23726Y-28032D01*
X-23691Y-27856D01*
X-23726Y-27681D01*
X-23826Y-27532D01*
X-23974Y-27432D01*
X-24150Y-27398D01*
X-24326Y-27432D01*
X-24474Y-27532D01*
X-24485Y-27548D01*
X-24612D01*
X-24627Y-27527D01*
X-24776Y-27427D01*
X-24912Y-27400D01*
X-25018Y-27286D01*
X-25016Y-27275D01*
X-25051Y-27099D01*
X-25133Y-26977D01*
X-25101Y-26883D01*
X-25077Y-26850D01*
X-25000D01*
Y-26400D01*
X-24900D01*
Y-26300D01*
X-24375D01*
Y-26077D01*
X-24375Y-25950D01*
X-24375D01*
Y-25950D01*
X-24375D01*
Y-25600D01*
X-24900D01*
Y-25400D01*
X-24375D01*
Y-25219D01*
X-24258Y-25171D01*
X-23374Y-26054D01*
X-23374Y-26201D01*
X-23474Y-26349D01*
X-23509Y-26525D01*
X-23474Y-26701D01*
X-23374Y-26849D01*
X-23226Y-26949D01*
X-23050Y-26984D01*
X-22874Y-26949D01*
X-22726Y-26849D01*
X-22626Y-26701D01*
X-22591Y-26525D01*
X-22606Y-26449D01*
X-22489Y-26386D01*
X-22393Y-26483D01*
Y-29145D01*
X-22491Y-29226D01*
X-22550Y-29214D01*
X-22774Y-29258D01*
X-22965Y-29385D01*
X-23092Y-29576D01*
X-23136Y-29800D01*
X-23092Y-30024D01*
X-22965Y-30215D01*
X-22774Y-30342D01*
X-22550Y-30386D01*
X-22326Y-30342D01*
X-22195Y-30254D01*
X-22068Y-30322D01*
Y-30964D01*
X-22356Y-31252D01*
X-22550Y-31214D01*
X-22774Y-31258D01*
X-22965Y-31385D01*
X-23092Y-31576D01*
X-23136Y-31800D01*
X-23092Y-32024D01*
X-22965Y-32215D01*
X-22774Y-32342D01*
X-22550Y-32386D01*
X-22326Y-32342D01*
X-22135Y-32215D01*
X-22008Y-32024D01*
X-21964Y-31800D01*
X-21994Y-31648D01*
X-21822Y-31476D01*
X-21705Y-31524D01*
Y-32104D01*
X-21865Y-32210D01*
X-21992Y-32401D01*
X-22036Y-32625D01*
X-21992Y-32849D01*
X-21865Y-33040D01*
X-21674Y-33167D01*
X-21450Y-33211D01*
X-21226Y-33167D01*
X-21035Y-33040D01*
X-20908Y-32849D01*
X-20864Y-32625D01*
X-20908Y-32401D01*
X-21035Y-32210D01*
X-21195Y-32104D01*
Y-31628D01*
X-21077Y-31578D01*
X-21005Y-31644D01*
X-21036Y-31800D01*
X-20992Y-32024D01*
X-20865Y-32215D01*
X-20674Y-32342D01*
X-20450Y-32386D01*
X-20226Y-32342D01*
X-20035Y-32215D01*
X-19908Y-32024D01*
X-19864Y-31800D01*
X-19908Y-31576D01*
X-20035Y-31385D01*
X-20226Y-31258D01*
X-20450Y-31214D01*
X-20623Y-31248D01*
X-20870Y-31002D01*
Y-30364D01*
X-20743Y-30296D01*
X-20674Y-30342D01*
X-20450Y-30386D01*
X-20226Y-30342D01*
X-20035Y-30215D01*
X-19908Y-30024D01*
X-19864Y-29800D01*
X-19908Y-29576D01*
X-20035Y-29385D01*
X-20182Y-29287D01*
Y-26000D01*
X-20203Y-25898D01*
X-20261Y-25811D01*
X-21515Y-24557D01*
X-21462Y-24430D01*
X-15210D01*
X-12185Y-27455D01*
X-12102Y-27510D01*
X-12004Y-27530D01*
X-11175D01*
X-11077Y-27510D01*
X-10995Y-27455D01*
X-10540Y-27000D01*
X-9825D01*
Y-26755D01*
X-9306D01*
X-7995Y-28065D01*
Y-29755D01*
X-7433D01*
X-7408Y-29882D01*
X-7701Y-30003D01*
X-8004Y-30236D01*
X-8237Y-30539D01*
X-8383Y-30891D01*
X-8433Y-31270D01*
X-8383Y-31649D01*
X-8362Y-31699D01*
X-8757Y-32094D01*
X-8865Y-32235D01*
X-8933Y-32399D01*
X-8956Y-32575D01*
Y-35052D01*
X-9040Y-35160D01*
X-9128Y-35373D01*
X-9158Y-35602D01*
X-9128Y-35830D01*
X-9071Y-35968D01*
X-9154Y-36095D01*
X-10979D01*
X-11026Y-36026D01*
X-11174Y-35926D01*
X-11350Y-35891D01*
X-11526Y-35926D01*
X-11674Y-36026D01*
X-11774Y-36174D01*
X-11809Y-36350D01*
X-11774Y-36526D01*
X-11674Y-36674D01*
X-11526Y-36774D01*
X-11350Y-36809D01*
X-11249Y-36901D01*
X-11224Y-37027D01*
X-11124Y-37176D01*
X-10976Y-37276D01*
X-10800Y-37311D01*
X-10624Y-37276D01*
X-10476Y-37176D01*
X-10429Y-37107D01*
X-8654D01*
X-8155Y-37605D01*
X-8073Y-37660D01*
X-7975Y-37680D01*
X-5505D01*
X-5407Y-37660D01*
X-5325Y-37605D01*
X-4957Y-37238D01*
X-4947Y-37245D01*
X-4698Y-37349D01*
X-4430Y-37384D01*
X-4162Y-37349D01*
X-3913Y-37245D01*
X-3699Y-37081D01*
X-3535Y-36867D01*
X-3431Y-36618D01*
X-3396Y-36350D01*
X-3431Y-36082D01*
X-3535Y-35833D01*
X-3699Y-35619D01*
X-3913Y-35455D01*
X-4162Y-35351D01*
X-4430Y-35316D01*
X-4698Y-35351D01*
X-4947Y-35455D01*
X-5161Y-35619D01*
X-5325Y-35833D01*
X-5429Y-36082D01*
X-5464Y-36350D01*
X-5429Y-36618D01*
X-5325Y-36867D01*
X-5318Y-36877D01*
X-5611Y-37170D01*
X-6159D01*
X-6210Y-37043D01*
X-6075Y-36867D01*
X-5971Y-36618D01*
X-5936Y-36350D01*
X-5971Y-36082D01*
X-6075Y-35833D01*
X-6239Y-35619D01*
X-6453Y-35455D01*
X-6702Y-35351D01*
X-6970Y-35316D01*
X-7238Y-35351D01*
X-7368Y-35405D01*
X-7423Y-35373D01*
X-7511Y-35160D01*
X-7595Y-35052D01*
Y-34764D01*
X-7468Y-34713D01*
X-7238Y-34809D01*
X-6970Y-34844D01*
X-6702Y-34809D01*
X-6453Y-34705D01*
X-6239Y-34541D01*
X-6075Y-34327D01*
X-5971Y-34078D01*
X-5936Y-33810D01*
X-5971Y-33542D01*
X-6075Y-33293D01*
X-6239Y-33079D01*
X-6453Y-32915D01*
X-6677Y-32822D01*
X-6678Y-32715D01*
X-6672Y-32693D01*
X-6591Y-32683D01*
X-6239Y-32537D01*
X-5936Y-32304D01*
X-5780Y-32101D01*
X-5620D01*
X-5464Y-32304D01*
X-5161Y-32537D01*
X-4809Y-32683D01*
X-4728Y-32693D01*
X-4722Y-32715D01*
X-4723Y-32822D01*
X-4947Y-32915D01*
X-5161Y-33079D01*
X-5325Y-33293D01*
X-5429Y-33542D01*
X-5464Y-33810D01*
X-5429Y-34078D01*
X-5325Y-34327D01*
X-5161Y-34541D01*
X-4947Y-34705D01*
X-4698Y-34809D01*
X-4430Y-34844D01*
X-4162Y-34809D01*
X-3913Y-34705D01*
X-3699Y-34541D01*
X-3535Y-34327D01*
X-3431Y-34078D01*
X-3396Y-33810D01*
X-3431Y-33542D01*
X-3535Y-33293D01*
X-3699Y-33079D01*
X-3913Y-32915D01*
X-4137Y-32822D01*
X-4138Y-32715D01*
X-4132Y-32693D01*
X-4051Y-32683D01*
X-3699Y-32537D01*
X-3396Y-32304D01*
X-3163Y-32001D01*
X-3017Y-31649D01*
X-2967Y-31270D01*
X-3017Y-30891D01*
X-3163Y-30539D01*
X-3396Y-30236D01*
X-3699Y-30003D01*
X-4051Y-29857D01*
X-4070Y-29855D01*
X-4087Y-29725D01*
X-3900Y-29647D01*
X-3681Y-29479D01*
X-3513Y-29260D01*
X-3407Y-29004D01*
X-3384Y-28830D01*
X-4430D01*
X-5476D01*
X-5453Y-29004D01*
X-5347Y-29260D01*
X-5179Y-29479D01*
X-4960Y-29647D01*
X-4773Y-29725D01*
X-4790Y-29855D01*
X-4809Y-29857D01*
X-5161Y-30003D01*
X-5464Y-30236D01*
X-5620Y-30439D01*
X-5780D01*
X-5936Y-30236D01*
X-6239Y-30003D01*
X-6532Y-29882D01*
X-6507Y-29755D01*
X-5945D01*
Y-27705D01*
X-7635D01*
X-9020Y-26320D01*
X-9102Y-26265D01*
X-9200Y-26245D01*
X-9825D01*
Y-26000D01*
X-10898D01*
X-10975Y-26000D01*
Y-26000D01*
X-11025D01*
Y-26000D01*
X-11269D01*
Y-25825D01*
X-11050D01*
X-11050Y-25825D01*
X-11000D01*
Y-25825D01*
X-10923Y-25825D01*
X-9850D01*
Y-25580D01*
X-4525D01*
X-2180Y-27925D01*
Y-51619D01*
X-3336Y-52775D01*
X-17545D01*
Y-52005D01*
X-19595D01*
Y-54055D01*
X-17545D01*
Y-53285D01*
X-3230D01*
X-3132Y-53265D01*
X-3050Y-53210D01*
X-1745Y-51905D01*
X-1690Y-51823D01*
X-1670Y-51725D01*
Y-27819D01*
X-1690Y-27722D01*
X-1745Y-27639D01*
X-4239Y-25145D01*
X-4322Y-25090D01*
X-4419Y-25070D01*
X-9850D01*
Y-24825D01*
X-10565D01*
X-10920Y-24470D01*
X-11002Y-24415D01*
X-11100Y-24395D01*
X-14100D01*
X-14659Y-23836D01*
X-14610Y-23719D01*
X-14113D01*
X-14075Y-23776D01*
X-13926Y-23875D01*
X-13751Y-23910D01*
X-13575Y-23875D01*
X-13426Y-23776D01*
X-13327Y-23627D01*
X-13292Y-23451D01*
X-13327Y-23276D01*
X-13426Y-23127D01*
X-13575Y-23027D01*
X-13751Y-22992D01*
X-13926Y-23027D01*
X-14075Y-23127D01*
X-14113Y-23184D01*
X-20241D01*
X-21214Y-22211D01*
X-21301Y-22153D01*
X-21403Y-22132D01*
X-21467Y-22145D01*
X-21795D01*
X-21833Y-22103D01*
X-21873Y-21977D01*
X-21803Y-21873D01*
X-21779Y-21750D01*
X-21742Y-21705D01*
X-21454D01*
X-21424Y-21749D01*
X-21276Y-21849D01*
X-21100Y-21884D01*
X-20924Y-21849D01*
X-20776Y-21749D01*
X-20759Y-21725D01*
X-19850D01*
Y-21750D01*
X-19425D01*
Y-21300D01*
X-19325D01*
Y-21200D01*
X-18800D01*
Y-21080D01*
X-18391D01*
X-17325Y-22147D01*
Y-22675D01*
X-16475D01*
Y-22455D01*
X-16400D01*
X-16293Y-22434D01*
X-16202Y-22373D01*
X-16053Y-22225D01*
X-14925D01*
Y-20575D01*
X-16325D01*
Y-20575D01*
X-16450Y-20570D01*
Y-20375D01*
X-16323Y-20309D01*
X-16286Y-20334D01*
X-16179Y-20355D01*
X-14750D01*
X-14643Y-20334D01*
X-14552Y-20273D01*
X-14203Y-19925D01*
X-13075D01*
Y-18275D01*
X-14475D01*
Y-19403D01*
X-14798Y-19726D01*
X-14925Y-19674D01*
Y-18275D01*
X-16325D01*
Y-19210D01*
X-16452Y-19278D01*
X-16475Y-19262D01*
Y-18000D01*
X-16450D01*
Y-17575D01*
X-16900D01*
Y-17475D01*
X-17000D01*
Y-16950D01*
X-17350D01*
Y-16950D01*
X-17700D01*
Y-17450D01*
X-17900D01*
Y-16950D01*
X-18275D01*
X-18275Y-16950D01*
Y-16950D01*
X-18353Y-16852D01*
X-18411Y-16776D01*
X-18594Y-16636D01*
X-18807Y-16548D01*
X-19035Y-16517D01*
X-19263Y-16548D01*
X-19319Y-16571D01*
X-19425Y-16500D01*
Y-15798D01*
X-17365D01*
X-17280Y-15893D01*
X-17311Y-16050D01*
X-17267Y-16274D01*
X-17140Y-16465D01*
X-16949Y-16592D01*
X-16725Y-16636D01*
X-16501Y-16592D01*
X-16310Y-16465D01*
X-16183Y-16274D01*
X-16139Y-16050D01*
X-16183Y-15826D01*
X-16310Y-15635D01*
X-16501Y-15508D01*
X-16725Y-15464D01*
X-16898Y-15498D01*
X-17056Y-15341D01*
X-17143Y-15283D01*
X-17245Y-15262D01*
X-21080D01*
X-21182Y-15283D01*
X-21269Y-15341D01*
X-22273Y-16344D01*
X-22339Y-16333D01*
X-22400Y-16298D01*
Y-16100D01*
X-22925D01*
Y-15900D01*
X-22400D01*
Y-15677D01*
X-22400Y-15550D01*
X-22400D01*
Y-15550D01*
X-22400D01*
Y-15200D01*
X-22925D01*
Y-15100D01*
X-23025D01*
Y-14650D01*
X-23415D01*
X-23471Y-14585D01*
X-23500Y-14544D01*
X-23466Y-14375D01*
X-23501Y-14199D01*
X-23601Y-14051D01*
X-23749Y-13951D01*
X-23925Y-13916D01*
X-23945Y-13920D01*
X-24021Y-13806D01*
X-23983Y-13749D01*
X-23939Y-13525D01*
X-23983Y-13301D01*
X-24110Y-13110D01*
X-24301Y-12983D01*
X-24525Y-12939D01*
X-24749Y-12983D01*
X-24940Y-13110D01*
X-25067Y-13301D01*
X-25111Y-13525D01*
X-25080Y-13683D01*
X-25223Y-13827D01*
X-25284Y-13918D01*
X-25305Y-14025D01*
Y-14675D01*
X-25450D01*
Y-14650D01*
X-25875D01*
Y-15100D01*
X-25975D01*
Y-15200D01*
X-26500D01*
Y-15550D01*
X-26500D01*
Y-15550D01*
X-26500D01*
Y-15900D01*
X-25975D01*
Y-16000D01*
X-25875D01*
Y-16450D01*
X-25450D01*
Y-16425D01*
X-25268D01*
Y-17436D01*
X-25350Y-17503D01*
X-25483Y-17530D01*
X-25595Y-17605D01*
X-25614Y-17633D01*
X-25766D01*
X-25773Y-17623D01*
X-25877Y-17553D01*
X-26000Y-17529D01*
X-26123Y-17553D01*
X-26227Y-17623D01*
X-26249Y-17655D01*
X-26401D01*
X-26423Y-17623D01*
X-26527Y-17553D01*
X-26650Y-17529D01*
X-26696Y-17491D01*
Y-16224D01*
X-26717Y-16116D01*
X-26778Y-16025D01*
X-35420Y-7384D01*
Y-4400D01*
X-35441Y-4293D01*
X-35502Y-4202D01*
X-37864Y-1840D01*
X-37811Y-1711D01*
X-37783Y-1500D01*
X-37811Y-1289D01*
X-37892Y-1092D01*
X-38022Y-922D01*
X-38192Y-792D01*
X-38389Y-711D01*
X-38600Y-683D01*
D02*
G37*
G36*
X-12881Y-9804D02*
X-13281D01*
Y-10179D01*
X-12881D01*
Y-9804D01*
D02*
G37*
G36*
X-45250Y-9900D02*
Y-10275D01*
X-44850D01*
Y-9900D01*
X-45250D01*
D02*
G37*
G36*
X-8450Y-9800D02*
X-8825D01*
Y-10200D01*
X-8450D01*
Y-9800D01*
D02*
G37*
G36*
X-24175Y-7900D02*
X-25025D01*
Y-8675D01*
X-24175D01*
Y-7900D01*
D02*
G37*
G36*
X-27275Y-6750D02*
X-27675D01*
Y-7100D01*
X-27775D01*
Y-7200D01*
X-28275D01*
Y-7450D01*
X-28250D01*
Y-7470D01*
X-28475D01*
Y-7350D01*
X-28450D01*
Y-7350D01*
Y-6925D01*
X-28900D01*
X-29350D01*
Y-7350D01*
X-29325D01*
Y-7419D01*
X-30180D01*
X-30235Y-7335D01*
X-30426Y-7208D01*
X-30650Y-7164D01*
X-30874Y-7208D01*
X-31065Y-7335D01*
X-31192Y-7526D01*
X-31236Y-7750D01*
X-31192Y-7974D01*
X-31065Y-8165D01*
X-30874Y-8292D01*
X-30650Y-8336D01*
X-30426Y-8292D01*
X-30235Y-8165D01*
X-30180Y-8081D01*
X-29325D01*
Y-8275D01*
X-28475D01*
Y-8030D01*
X-28250D01*
Y-8725D01*
X-28081D01*
Y-9250D01*
X-28700D01*
Y-11100D01*
X-28156D01*
Y-11500D01*
X-28575D01*
Y-12800D01*
X-27400D01*
Y-13250D01*
X-27442Y-13268D01*
X-27475Y-13276D01*
X-27476Y-13276D01*
X-27612Y-13368D01*
X-27749Y-13276D01*
X-27925Y-13241D01*
X-28101Y-13276D01*
X-28249Y-13376D01*
X-28349Y-13524D01*
X-28384Y-13700D01*
X-28349Y-13876D01*
X-28249Y-14024D01*
X-28101Y-14124D01*
X-27925Y-14159D01*
X-27749Y-14124D01*
X-27612Y-14032D01*
X-27476Y-14124D01*
X-27300Y-14159D01*
X-27124Y-14124D01*
X-26986Y-14031D01*
X-26775D01*
X-26648Y-14006D01*
X-26541Y-13934D01*
X-25966Y-13359D01*
X-25894Y-13252D01*
X-25869Y-13125D01*
Y-12800D01*
X-25525D01*
Y-11500D01*
X-26700D01*
Y-11125D01*
X-26300D01*
Y-10175D01*
Y-9225D01*
X-27075D01*
Y-9250D01*
X-27469D01*
Y-8725D01*
X-27425D01*
Y-8750D01*
X-26825D01*
Y-7750D01*
Y-6750D01*
X-27275D01*
Y-6750D01*
D02*
G37*
G36*
X-2575Y-5714D02*
X-2799Y-5758D01*
X-2990Y-5885D01*
X-3117Y-6076D01*
X-3161Y-6300D01*
X-3117Y-6524D01*
X-2990Y-6715D01*
X-2855Y-6804D01*
Y-7275D01*
X-3500D01*
Y-7250D01*
X-3775D01*
Y-7875D01*
X-3875D01*
Y-7975D01*
X-4250D01*
Y-8320D01*
X-4750D01*
Y-8225D01*
X-5650D01*
Y-8420D01*
X-9484D01*
X-10177Y-7727D01*
X-10268Y-7666D01*
X-10375Y-7645D01*
X-13475D01*
X-13475Y-7645D01*
X-13582Y-7666D01*
X-13673Y-7727D01*
X-13673Y-7727D01*
X-15741Y-9795D01*
X-16521D01*
X-16610Y-9660D01*
X-16801Y-9533D01*
X-17025Y-9489D01*
X-17249Y-9533D01*
X-17440Y-9660D01*
X-17567Y-9851D01*
X-17611Y-10075D01*
X-17567Y-10299D01*
X-17440Y-10490D01*
X-17249Y-10617D01*
X-17025Y-10661D01*
X-16801Y-10617D01*
X-16610Y-10490D01*
X-16521Y-10355D01*
X-15625D01*
X-15518Y-10334D01*
X-15427Y-10273D01*
X-13359Y-8205D01*
X-10491D01*
X-9798Y-8898D01*
X-9707Y-8959D01*
X-9600Y-8980D01*
X-5650D01*
Y-9175D01*
X-5650D01*
Y-9225D01*
X-5650D01*
Y-10175D01*
X-4799D01*
X-4726Y-10224D01*
X-4550Y-10259D01*
X-4374Y-10224D01*
X-4352Y-10209D01*
X-4225Y-10277D01*
Y-10325D01*
X-4155D01*
Y-10650D01*
X-4598D01*
X-4675Y-10650D01*
X-4802Y-10650D01*
X-5675D01*
Y-10745D01*
X-6296D01*
X-6385Y-10610D01*
X-6576Y-10483D01*
X-6800Y-10439D01*
X-7024Y-10483D01*
X-7215Y-10610D01*
X-7342Y-10801D01*
X-7386Y-11025D01*
X-7342Y-11249D01*
X-7215Y-11440D01*
X-7024Y-11567D01*
X-6800Y-11611D01*
X-6576Y-11567D01*
X-6385Y-11440D01*
X-6296Y-11305D01*
X-5675D01*
Y-11550D01*
X-4802D01*
X-4725Y-11550D01*
X-4598Y-11550D01*
X-4147D01*
X-3680Y-12016D01*
Y-12175D01*
X-3659Y-12282D01*
X-3598Y-12373D01*
X-3355Y-12617D01*
X-3386Y-12775D01*
X-3342Y-12999D01*
X-3215Y-13190D01*
X-3024Y-13317D01*
X-2800Y-13361D01*
X-2576Y-13317D01*
X-2385Y-13190D01*
X-2258Y-12999D01*
X-2214Y-12775D01*
X-2258Y-12551D01*
X-2385Y-12360D01*
X-2576Y-12233D01*
X-2800Y-12189D01*
X-2958Y-12220D01*
X-3120Y-12059D01*
Y-11900D01*
X-3141Y-11793D01*
X-3182Y-11731D01*
X-3202Y-11702D01*
X-3196Y-11667D01*
X-3175Y-11552D01*
X-3175Y-11551D01*
X-3050Y-11550D01*
X-2788D01*
X-2772Y-11627D01*
X-2714Y-11714D01*
X-1802Y-12627D01*
X-1836Y-12800D01*
X-1792Y-13024D01*
X-1665Y-13215D01*
X-1474Y-13342D01*
X-1250Y-13386D01*
X-1026Y-13342D01*
X-835Y-13215D01*
X-708Y-13024D01*
X-664Y-12800D01*
X-708Y-12576D01*
X-835Y-12385D01*
X-1026Y-12258D01*
X-1250Y-12214D01*
X-1423Y-12248D01*
X-1979Y-11692D01*
X-1931Y-11575D01*
X-1800D01*
Y-11100D01*
Y-10625D01*
X-2200D01*
Y-10625D01*
X-2225Y-10650D01*
X-2753D01*
X-2926Y-10477D01*
X-2901Y-10350D01*
X-2675D01*
Y-9725D01*
X-2575D01*
Y-9625D01*
X-2200D01*
Y-9362D01*
X-2083Y-9314D01*
X-1650Y-9747D01*
Y-10175D01*
X-750D01*
Y-9302D01*
X-750Y-9225D01*
X-750D01*
Y-9175D01*
X-750D01*
Y-8225D01*
X-970D01*
Y-7329D01*
X-835Y-7240D01*
X-708Y-7049D01*
X-664Y-6825D01*
X-708Y-6601D01*
X-835Y-6410D01*
X-1026Y-6283D01*
X-1250Y-6239D01*
X-1474Y-6283D01*
X-1665Y-6410D01*
X-1792Y-6601D01*
X-1836Y-6825D01*
X-1792Y-7049D01*
X-1665Y-7240D01*
X-1530Y-7329D01*
Y-8225D01*
X-1650D01*
Y-8788D01*
X-1767Y-8836D01*
X-2225Y-8378D01*
Y-7275D01*
X-2295D01*
Y-6804D01*
X-2160Y-6715D01*
X-2033Y-6524D01*
X-1989Y-6300D01*
X-2033Y-6076D01*
X-2160Y-5885D01*
X-2351Y-5758D01*
X-2575Y-5714D01*
D02*
G37*
G36*
X-23125Y-7900D02*
X-23975D01*
Y-8675D01*
X-23125D01*
Y-7900D01*
D02*
G37*
G36*
X-3975Y-7250D02*
X-4250D01*
Y-7775D01*
X-3975D01*
Y-7250D01*
D02*
G37*
G36*
X-7600Y-1534D02*
X-7776Y-1569D01*
X-7924Y-1669D01*
X-8024Y-1817D01*
X-8059Y-1993D01*
X-8024Y-2169D01*
X-7924Y-2317D01*
X-7776Y-2417D01*
X-7600Y-2452D01*
X-7424Y-2417D01*
X-7276Y-2317D01*
X-7176Y-2169D01*
X-7141Y-1993D01*
X-7176Y-1817D01*
X-7276Y-1669D01*
X-7424Y-1569D01*
X-7600Y-1534D01*
D02*
G37*
G36*
X-40771Y-1600D02*
X-41500D01*
Y-2329D01*
X-41382Y-2314D01*
X-41179Y-2229D01*
X-41004Y-2096D01*
X-40871Y-1921D01*
X-40786Y-1718D01*
X-40771Y-1600D01*
D02*
G37*
G36*
X-24600Y-2150D02*
X-25125D01*
Y-2275D01*
Y-2650D01*
X-24600D01*
Y-2150D01*
D02*
G37*
G36*
X-23875D02*
X-24400D01*
Y-2650D01*
X-23875D01*
Y-2150D01*
D02*
G37*
G36*
X-41700Y-1600D02*
X-42429D01*
X-42414Y-1718D01*
X-42329Y-1921D01*
X-42196Y-2096D01*
X-42021Y-2229D01*
X-41818Y-2314D01*
X-41700Y-2329D01*
Y-1600D01*
D02*
G37*
G36*
Y-671D02*
X-41818Y-686D01*
X-42021Y-771D01*
X-42196Y-904D01*
X-42329Y-1079D01*
X-42414Y-1282D01*
X-42429Y-1400D01*
X-41700D01*
Y-671D01*
D02*
G37*
G36*
X-41500Y-671D02*
Y-1400D01*
X-40771D01*
X-40786Y-1282D01*
X-40871Y-1079D01*
X-41004Y-904D01*
X-41179Y-771D01*
X-41382Y-686D01*
X-41500Y-671D01*
D02*
G37*
G36*
X-33000Y-683D02*
X-33211Y-711D01*
X-33409Y-792D01*
X-33578Y-922D01*
X-33708Y-1092D01*
X-33789Y-1289D01*
X-33817Y-1500D01*
X-33789Y-1711D01*
X-33708Y-1908D01*
X-33578Y-2078D01*
X-33409Y-2208D01*
X-33211Y-2289D01*
X-33000Y-2317D01*
X-32789Y-2289D01*
X-32592Y-2208D01*
X-32422Y-2078D01*
X-32292Y-1908D01*
X-32250Y-1805D01*
X-30429D01*
X-30399Y-1849D01*
X-30251Y-1949D01*
X-30075Y-1984D01*
X-29899Y-1949D01*
X-29751Y-1849D01*
X-29651Y-1701D01*
X-29616Y-1525D01*
X-29651Y-1349D01*
X-29751Y-1201D01*
X-29899Y-1101D01*
X-30075Y-1066D01*
X-30251Y-1101D01*
X-30399Y-1201D01*
X-30429Y-1245D01*
X-32229D01*
X-32292Y-1092D01*
X-32422Y-922D01*
X-32592Y-792D01*
X-32789Y-711D01*
X-33000Y-683D01*
D02*
G37*
G36*
X-26000D02*
X-26211Y-711D01*
X-26409Y-792D01*
X-26578Y-922D01*
X-26708Y-1092D01*
X-26789Y-1289D01*
X-26817Y-1500D01*
X-26789Y-1711D01*
X-26708Y-1908D01*
X-26578Y-2078D01*
X-26409Y-2208D01*
X-26211Y-2289D01*
X-26000Y-2317D01*
X-25789Y-2289D01*
X-25754Y-2275D01*
X-25592Y-2208D01*
X-25422Y-2078D01*
X-25292Y-1908D01*
X-25148Y-1892D01*
X-25101Y-1924D01*
X-24925Y-1959D01*
X-24749Y-1924D01*
X-24601Y-1824D01*
X-24501Y-1676D01*
X-24466Y-1500D01*
X-24501Y-1324D01*
X-24601Y-1176D01*
X-24749Y-1076D01*
X-24925Y-1041D01*
X-25101Y-1076D01*
X-25148Y-1108D01*
X-25292Y-1092D01*
X-25422Y-922D01*
X-25592Y-792D01*
X-25789Y-711D01*
X-26000Y-683D01*
D02*
G37*
G36*
X-27900Y-2850D02*
X-28425D01*
Y-3350D01*
X-27900D01*
Y-2850D01*
D02*
G37*
G36*
X-27175D02*
X-27700D01*
Y-3350D01*
X-27175D01*
Y-2850D01*
D02*
G37*
G36*
X-13375Y-3994D02*
X-13558Y-4018D01*
X-13728Y-4089D01*
X-13874Y-4201D01*
X-13986Y-4347D01*
X-14057Y-4517D01*
X-14081Y-4700D01*
Y-4900D01*
X-14059Y-5070D01*
X-14078Y-5100D01*
X-14159Y-5169D01*
X-14300Y-5141D01*
X-14476Y-5176D01*
X-14624Y-5276D01*
X-14724Y-5424D01*
X-14759Y-5600D01*
X-14748Y-5652D01*
X-16248Y-7152D01*
X-16309Y-7243D01*
X-16330Y-7350D01*
Y-8271D01*
X-16465Y-8360D01*
X-16592Y-8551D01*
X-16636Y-8775D01*
X-16592Y-8999D01*
X-16465Y-9190D01*
X-16274Y-9317D01*
X-16050Y-9361D01*
X-15826Y-9317D01*
X-15635Y-9190D01*
X-15508Y-8999D01*
X-15464Y-8775D01*
X-15508Y-8551D01*
X-15635Y-8360D01*
X-15770Y-8271D01*
Y-7466D01*
X-14352Y-6048D01*
X-14300Y-6059D01*
X-14124Y-6024D01*
X-13976Y-5924D01*
X-13876Y-5776D01*
X-13841Y-5600D01*
X-13845Y-5582D01*
X-13730Y-5510D01*
X-13728Y-5511D01*
X-13558Y-5582D01*
X-13375Y-5606D01*
X-13192Y-5582D01*
X-13022Y-5511D01*
X-12876Y-5399D01*
X-12764Y-5253D01*
X-12693Y-5083D01*
X-12669Y-4900D01*
Y-4700D01*
X-12693Y-4517D01*
X-12764Y-4347D01*
X-12876Y-4201D01*
X-13022Y-4089D01*
X-13192Y-4018D01*
X-13375Y-3994D01*
D02*
G37*
G36*
X-26750Y-3200D02*
X-27000D01*
Y-3725D01*
X-26750D01*
Y-3200D01*
D02*
G37*
G36*
X-23875Y-2850D02*
X-24400D01*
Y-3350D01*
X-23875D01*
Y-2850D01*
D02*
G37*
G36*
X-27900Y-2150D02*
X-28425D01*
Y-2650D01*
X-27900D01*
Y-2150D01*
D02*
G37*
G36*
X-27175D02*
X-27700D01*
Y-2650D01*
X-27175D01*
Y-2150D01*
D02*
G37*
G36*
X-25800Y-2475D02*
X-26050D01*
Y-3100D01*
X-26250D01*
Y-2475D01*
X-26550D01*
Y-3100D01*
Y-3725D01*
X-26500D01*
Y-3750D01*
X-26975D01*
Y-3750D01*
Y-4044D01*
X-27200D01*
Y-3575D01*
X-28400D01*
Y-4092D01*
X-29055D01*
X-29057Y-4088D01*
X-29115Y-4013D01*
X-29190Y-3956D01*
X-29253Y-3914D01*
X-29357Y-3871D01*
X-29431Y-3856D01*
X-29525Y-3844D01*
X-29619Y-3856D01*
X-29693Y-3871D01*
X-29797Y-3914D01*
X-29940Y-4009D01*
X-29995Y-4092D01*
X-30425D01*
Y-3429D01*
X-31298D01*
X-31375Y-3429D01*
X-31502Y-3429D01*
X-32375D01*
Y-3502D01*
X-32502Y-3537D01*
X-32624Y-3455D01*
X-32800Y-3420D01*
X-32976Y-3455D01*
X-33114Y-3547D01*
X-33247D01*
X-33303Y-3464D01*
X-33493Y-3337D01*
X-33717Y-3293D01*
X-33942Y-3337D01*
X-34132Y-3464D01*
X-34259Y-3654D01*
X-34304Y-3879D01*
X-34259Y-4103D01*
X-34132Y-4293D01*
X-33942Y-4420D01*
X-33717Y-4465D01*
X-33493Y-4420D01*
X-33303Y-4293D01*
X-33247Y-4210D01*
X-33114D01*
X-32976Y-4303D01*
X-32800Y-4338D01*
X-32624Y-4303D01*
X-32502Y-4221D01*
X-32375Y-4255D01*
Y-4329D01*
X-31502D01*
X-31425Y-4329D01*
X-31321Y-4329D01*
X-31231Y-4419D01*
Y-4935D01*
X-31321Y-5025D01*
X-31375D01*
X-31502Y-5025D01*
X-32375D01*
Y-5144D01*
X-32661D01*
X-32799Y-5051D01*
X-32975Y-5016D01*
X-33151Y-5051D01*
X-33289Y-5144D01*
X-33422D01*
X-33549Y-5059D01*
X-33725Y-5024D01*
X-33901Y-5059D01*
X-34049Y-5158D01*
X-34149Y-5307D01*
X-34184Y-5483D01*
X-34149Y-5658D01*
X-34049Y-5807D01*
X-33901Y-5906D01*
X-33725Y-5941D01*
X-33549Y-5906D01*
X-33401Y-5807D01*
X-33400Y-5806D01*
X-33289D01*
X-33151Y-5899D01*
X-32975Y-5934D01*
X-32799Y-5899D01*
X-32661Y-5806D01*
X-32375D01*
Y-5925D01*
X-31502D01*
X-31425Y-5925D01*
X-31298Y-5925D01*
X-30425D01*
Y-5025D01*
X-30569D01*
Y-4755D01*
X-29995D01*
X-29940Y-4838D01*
X-29797Y-4933D01*
X-29693Y-4976D01*
X-29619Y-4991D01*
X-29525Y-5003D01*
X-29431Y-4991D01*
X-29357Y-4976D01*
X-29253Y-4933D01*
X-29190Y-4891D01*
X-29115Y-4834D01*
X-29057Y-4759D01*
X-29055Y-4755D01*
X-28073D01*
X-27947Y-4730D01*
X-27940Y-4725D01*
X-27200D01*
Y-4656D01*
X-26975D01*
Y-4950D01*
X-26500D01*
Y-4975D01*
X-26250D01*
Y-4350D01*
X-26050D01*
Y-4975D01*
X-25800D01*
Y-4950D01*
X-25325D01*
Y-4606D01*
X-25100D01*
Y-4725D01*
X-24831D01*
Y-4825D01*
X-24806Y-4952D01*
X-24734Y-5059D01*
X-24494Y-5300D01*
X-25000D01*
Y-5369D01*
X-25300D01*
Y-5100D01*
X-26450D01*
Y-5100D01*
Y-6300D01*
X-26311D01*
X-26335Y-6424D01*
X-26300Y-6599D01*
X-26201Y-6748D01*
X-26198Y-6750D01*
X-26625D01*
Y-7750D01*
Y-8750D01*
X-26067D01*
X-26100Y-8800D01*
X-26135Y-8975D01*
X-26100Y-9151D01*
X-26051Y-9225D01*
X-26100D01*
Y-10075D01*
X-25325D01*
Y-9260D01*
X-25252Y-9151D01*
X-25217Y-8975D01*
X-25242Y-8852D01*
D01*
X-25252Y-8800D01*
X-25302Y-8725D01*
X-25200D01*
Y-8725D01*
Y-8100D01*
X-25175D01*
Y-7850D01*
X-25675D01*
Y-7650D01*
X-25175D01*
Y-7400D01*
X-25200D01*
Y-6775D01*
X-25369D01*
Y-6625D01*
X-25369Y-6625D01*
X-25392Y-6508D01*
X-25425Y-6459D01*
X-25418Y-6424D01*
X-25442Y-6300D01*
X-25300D01*
Y-6031D01*
X-25000D01*
Y-6925D01*
X-25025D01*
Y-7700D01*
X-24075D01*
X-23125D01*
Y-7467D01*
Y-7301D01*
X-23008Y-7419D01*
X-16016Y-14410D01*
X-15909Y-14482D01*
X-15844Y-14495D01*
Y-14850D01*
X-15657D01*
Y-14851D01*
X-14765D01*
X-13369Y-16246D01*
X-13369Y-16246D01*
X-13270Y-16313D01*
X-13153Y-16336D01*
X-7953D01*
X-7865Y-16547D01*
X-7701Y-16761D01*
X-7487Y-16925D01*
X-7238Y-17029D01*
X-6970Y-17064D01*
X-6702Y-17029D01*
X-6453Y-16925D01*
X-6239Y-16761D01*
X-6075Y-16547D01*
X-5971Y-16298D01*
X-5936Y-16030D01*
X-5971Y-15762D01*
X-6075Y-15513D01*
X-6239Y-15299D01*
X-6453Y-15135D01*
X-6702Y-15031D01*
X-6970Y-14996D01*
X-7238Y-15031D01*
X-7487Y-15135D01*
X-7701Y-15299D01*
X-7865Y-15513D01*
X-7953Y-15724D01*
X-13026D01*
X-14169Y-14581D01*
Y-14368D01*
X-14042Y-14330D01*
X-14041Y-14331D01*
X-13353Y-15020D01*
X-13353Y-15020D01*
X-13253Y-15086D01*
X-13136Y-15109D01*
X-13136Y-15109D01*
X-12881D01*
Y-15154D01*
X-12381D01*
Y-15179D01*
X-10981D01*
Y-15154D01*
X-10481D01*
Y-15109D01*
X-9718D01*
X-9646Y-15219D01*
X-9455Y-15346D01*
X-9231Y-15390D01*
X-9007Y-15346D01*
X-8816Y-15219D01*
X-8689Y-15028D01*
X-8645Y-14804D01*
X-8689Y-14580D01*
X-8816Y-14389D01*
X-9007Y-14262D01*
X-9108Y-14242D01*
X-9150Y-14104D01*
X-9015Y-13969D01*
X-8948Y-13870D01*
X-8925Y-13753D01*
X-8925Y-13753D01*
Y-13491D01*
X-8816Y-13418D01*
X-8689Y-13228D01*
X-8645Y-13004D01*
X-8689Y-12779D01*
X-8816Y-12589D01*
X-9007Y-12462D01*
X-9231Y-12417D01*
X-9359Y-12443D01*
X-9540Y-12262D01*
X-9578Y-12236D01*
X-9540Y-12109D01*
X-9429D01*
X-9429Y-12109D01*
X-9312Y-12086D01*
X-9212Y-12020D01*
X-8967Y-11775D01*
X-8475D01*
Y-11606D01*
X-8143D01*
X-7401Y-12348D01*
X-7450Y-12465D01*
X-7995D01*
Y-14515D01*
X-5945D01*
Y-12465D01*
X-6660D01*
X-6664Y-12346D01*
X-6687Y-12229D01*
X-6754Y-12130D01*
X-7800Y-11084D01*
X-7899Y-11017D01*
X-8016Y-10994D01*
X-8016Y-10994D01*
X-8386D01*
X-8464Y-10867D01*
X-8450Y-10800D01*
X-8450Y-10708D01*
Y-10400D01*
X-8925D01*
Y-10300D01*
X-9025D01*
Y-9800D01*
X-9400D01*
Y-9804D01*
X-9706D01*
Y-10279D01*
X-9906D01*
Y-9804D01*
X-10214D01*
X-10306Y-9804D01*
X-10348Y-9812D01*
X-10475Y-9722D01*
Y-9719D01*
X-10500Y-9592D01*
X-10572Y-9485D01*
X-11241Y-8816D01*
X-11348Y-8744D01*
X-11475Y-8719D01*
X-12436D01*
X-12574Y-8626D01*
X-12750Y-8591D01*
X-12926Y-8626D01*
X-13074Y-8726D01*
X-13174Y-8874D01*
X-13209Y-9050D01*
X-13174Y-9226D01*
X-13074Y-9374D01*
X-12926Y-9474D01*
X-12750Y-9509D01*
X-12574Y-9474D01*
X-12436Y-9381D01*
X-11612D01*
X-11282Y-9711D01*
X-11345Y-9829D01*
X-12164D01*
X-12281Y-9804D01*
X-12373Y-9804D01*
X-12681D01*
Y-10279D01*
X-12781D01*
Y-10379D01*
X-13281D01*
Y-10754D01*
X-12977D01*
X-12881Y-10829D01*
X-12881Y-10881D01*
Y-11352D01*
X-13008Y-11420D01*
X-13031Y-11404D01*
X-13207Y-11369D01*
X-13382Y-11404D01*
X-13531Y-11503D01*
X-13631Y-11652D01*
X-13666Y-11828D01*
X-13631Y-12003D01*
X-13603Y-12046D01*
X-13670Y-12173D01*
X-13813D01*
X-13828Y-12170D01*
X-13828Y-12170D01*
X-14169D01*
Y-11800D01*
X-15844Y-11800D01*
Y-13479D01*
X-15962Y-13527D01*
X-22888Y-6601D01*
X-23150Y-6339D01*
Y-5300D01*
X-23744D01*
Y-5250D01*
X-23769Y-5123D01*
X-23841Y-5016D01*
X-24014Y-4842D01*
X-24131Y-4725D01*
X-23900D01*
Y-3575D01*
X-24945D01*
Y-3350D01*
X-24600D01*
Y-2850D01*
X-25125D01*
Y-2903D01*
X-25127Y-2902D01*
X-25218Y-2841D01*
X-25325Y-2820D01*
X-25325D01*
Y-2737D01*
Y-2500D01*
X-25800D01*
Y-2475D01*
D02*
G37*
G36*
X-26750D02*
X-27000D01*
Y-3000D01*
X-26750D01*
Y-2475D01*
D02*
G37*
G36*
X-56075Y-17575D02*
X-56600D01*
Y-18075D01*
X-56075D01*
Y-17575D01*
D02*
G37*
G36*
X-16450Y-16950D02*
X-16800D01*
Y-17375D01*
X-16450D01*
Y-16950D01*
D02*
G37*
G36*
X-36696Y-16266D02*
X-36964Y-16301D01*
X-37213Y-16405D01*
X-37427Y-16569D01*
X-37591Y-16783D01*
X-37695Y-17032D01*
X-37730Y-17300D01*
X-37695Y-17568D01*
X-37591Y-17817D01*
X-37427Y-18031D01*
X-37213Y-18195D01*
X-36964Y-18299D01*
X-36696Y-18334D01*
X-36428Y-18299D01*
X-36179Y-18195D01*
X-35965Y-18031D01*
X-35801Y-17817D01*
X-35697Y-17568D01*
X-35662Y-17300D01*
X-35697Y-17032D01*
X-35801Y-16783D01*
X-35965Y-16569D01*
X-36179Y-16405D01*
X-36428Y-16301D01*
X-36696Y-16266D01*
D02*
G37*
G36*
X-56800Y-17575D02*
X-57325D01*
Y-18075D01*
X-56800D01*
Y-17575D01*
D02*
G37*
G36*
X-26075Y-16100D02*
X-26500D01*
Y-16450D01*
X-26075D01*
Y-16100D01*
D02*
G37*
G36*
X-48900Y-15550D02*
X-49800D01*
Y-15875D01*
X-48900D01*
Y-15550D01*
D02*
G37*
G36*
X-56850Y-15275D02*
X-57375D01*
Y-15775D01*
X-56850D01*
Y-15275D01*
D02*
G37*
G36*
X-54050Y-15550D02*
Y-15875D01*
X-53150D01*
Y-15550D01*
X-54050D01*
D02*
G37*
G36*
X-50000D02*
X-50900D01*
Y-15875D01*
X-50000D01*
Y-15550D01*
D02*
G37*
G36*
X-32250Y-18450D02*
X-32675D01*
Y-18800D01*
X-32250D01*
Y-18450D01*
D02*
G37*
G36*
X-56800Y-18275D02*
X-57325D01*
Y-18775D01*
X-56800D01*
Y-18275D01*
D02*
G37*
G36*
X-50225Y-21350D02*
X-50625D01*
Y-21725D01*
X-50225D01*
Y-21350D01*
D02*
G37*
G36*
X-56075Y-18275D02*
X-56600D01*
Y-18775D01*
X-56075D01*
Y-18275D01*
D02*
G37*
G36*
X-48900Y-18025D02*
X-49800D01*
Y-18350D01*
X-48900D01*
Y-18025D01*
D02*
G37*
G36*
X-41776Y-16266D02*
X-42044Y-16301D01*
X-42293Y-16405D01*
X-42507Y-16569D01*
X-42671Y-16783D01*
X-42775Y-17032D01*
X-42810Y-17300D01*
X-42775Y-17568D01*
X-42671Y-17817D01*
X-42507Y-18031D01*
X-42293Y-18195D01*
X-42044Y-18299D01*
X-41776Y-18334D01*
X-41508Y-18299D01*
X-41259Y-18195D01*
X-41045Y-18031D01*
X-40881Y-17817D01*
X-40777Y-17568D01*
X-40742Y-17300D01*
X-40777Y-17032D01*
X-40881Y-16783D01*
X-41045Y-16569D01*
X-41259Y-16405D01*
X-41508Y-16301D01*
X-41776Y-16266D01*
D02*
G37*
G36*
X-54250Y-18025D02*
X-55150D01*
Y-18350D01*
X-54250D01*
Y-18025D01*
D02*
G37*
G36*
X-53150D02*
X-54050D01*
Y-18350D01*
X-53150D01*
Y-18025D01*
D02*
G37*
G36*
X-56850Y-14575D02*
X-57375D01*
Y-15075D01*
X-56850D01*
Y-14575D01*
D02*
G37*
G36*
X-41270Y-9916D02*
X-41538Y-9951D01*
X-41787Y-10055D01*
X-42001Y-10219D01*
X-42165Y-10433D01*
X-42269Y-10682D01*
X-42304Y-10950D01*
X-42269Y-11218D01*
X-42165Y-11467D01*
X-42001Y-11681D01*
X-41787Y-11845D01*
X-41538Y-11949D01*
X-41270Y-11984D01*
X-41002Y-11949D01*
X-40753Y-11845D01*
X-40539Y-11681D01*
X-40375Y-11467D01*
X-40271Y-11218D01*
X-40236Y-10950D01*
X-40271Y-10682D01*
X-40375Y-10433D01*
X-40539Y-10219D01*
X-40753Y-10055D01*
X-41002Y-9951D01*
X-41270Y-9916D01*
D02*
G37*
G36*
X-38730D02*
X-38998Y-9951D01*
X-39247Y-10055D01*
X-39461Y-10219D01*
X-39625Y-10433D01*
X-39729Y-10682D01*
X-39764Y-10950D01*
X-39729Y-11218D01*
X-39625Y-11467D01*
X-39461Y-11681D01*
X-39247Y-11845D01*
X-38998Y-11949D01*
X-38730Y-11984D01*
X-38462Y-11949D01*
X-38213Y-11845D01*
X-37999Y-11681D01*
X-37835Y-11467D01*
X-37731Y-11218D01*
X-37696Y-10950D01*
X-37731Y-10682D01*
X-37835Y-10433D01*
X-37999Y-10219D01*
X-38213Y-10055D01*
X-38462Y-9951D01*
X-38730Y-9916D01*
D02*
G37*
G36*
X-36625Y-10864D02*
X-36849Y-10908D01*
X-37040Y-11035D01*
X-37167Y-11226D01*
X-37211Y-11450D01*
X-37167Y-11674D01*
X-37040Y-11865D01*
X-36849Y-11992D01*
X-36625Y-12036D01*
X-36401Y-11992D01*
X-36210Y-11865D01*
X-36083Y-11674D01*
X-36039Y-11450D01*
X-36083Y-11226D01*
X-36210Y-11035D01*
X-36401Y-10908D01*
X-36625Y-10864D01*
D02*
G37*
G36*
X-54400Y-11625D02*
X-55150D01*
Y-12025D01*
X-54400D01*
Y-11625D01*
D02*
G37*
G36*
X-1200Y-11200D02*
X-1600D01*
Y-11575D01*
X-1200D01*
Y-11200D01*
D02*
G37*
G36*
X-44850Y-10475D02*
X-45250D01*
Y-10850D01*
X-44850D01*
Y-10475D01*
D02*
G37*
G36*
X-2200Y-9825D02*
X-2475D01*
Y-10350D01*
X-2200D01*
Y-9825D01*
D02*
G37*
G36*
X-25325Y-10275D02*
X-26100D01*
Y-11125D01*
X-25325D01*
Y-10275D01*
D02*
G37*
G36*
X-1200Y-10625D02*
X-1600D01*
Y-11000D01*
X-1200D01*
Y-10625D01*
D02*
G37*
G36*
X-49575Y-12600D02*
X-51225D01*
Y-13550D01*
X-50731D01*
Y-13813D01*
X-50762Y-13844D01*
X-50926Y-13876D01*
X-51074Y-13976D01*
X-51174Y-14124D01*
X-51209Y-14300D01*
X-51174Y-14476D01*
X-51074Y-14624D01*
X-50926Y-14724D01*
X-50750Y-14759D01*
X-50574Y-14724D01*
X-50426Y-14624D01*
X-50326Y-14476D01*
X-50294Y-14312D01*
X-50166Y-14184D01*
X-50094Y-14077D01*
X-50069Y-13950D01*
Y-13550D01*
X-49575D01*
Y-12600D01*
D02*
G37*
G36*
X-3384Y-13590D02*
X-4330D01*
Y-14536D01*
X-4156Y-14513D01*
X-3900Y-14407D01*
X-3681Y-14239D01*
X-3513Y-14020D01*
X-3407Y-13764D01*
X-3384Y-13590D01*
D02*
G37*
G36*
X-26075Y-14650D02*
X-26500D01*
Y-15000D01*
X-26075D01*
Y-14650D01*
D02*
G37*
G36*
X-22400D02*
X-22825D01*
Y-15000D01*
X-22400D01*
Y-14650D01*
D02*
G37*
G36*
X-4330Y-12444D02*
Y-13390D01*
X-3384D01*
X-3407Y-13216D01*
X-3513Y-12960D01*
X-3681Y-12741D01*
X-3900Y-12573D01*
X-4156Y-12467D01*
X-4330Y-12444D01*
D02*
G37*
G36*
X-54400Y-12225D02*
X-55150D01*
Y-12625D01*
X-54400D01*
Y-12225D01*
D02*
G37*
G36*
X-4530Y-12444D02*
X-4704Y-12467D01*
X-4960Y-12573D01*
X-5179Y-12741D01*
X-5347Y-12960D01*
X-5453Y-13216D01*
X-5476Y-13390D01*
X-4530D01*
Y-12444D01*
D02*
G37*
G36*
Y-13590D02*
X-5476D01*
X-5453Y-13764D01*
X-5347Y-14020D01*
X-5179Y-14239D01*
X-4960Y-14407D01*
X-4704Y-14513D01*
X-4530Y-14536D01*
Y-13590D01*
D02*
G37*
%LPD*%
G36*
X-27755Y-42156D02*
Y-46704D01*
X-27824Y-46751D01*
X-27924Y-46899D01*
X-27959Y-47075D01*
X-27924Y-47251D01*
X-27824Y-47399D01*
X-27755Y-47446D01*
Y-52408D01*
X-27882Y-52452D01*
X-27999Y-52299D01*
X-28213Y-52135D01*
X-28462Y-52031D01*
X-28475Y-52030D01*
Y-47276D01*
X-28406Y-47229D01*
X-28306Y-47081D01*
X-28271Y-46905D01*
X-28306Y-46729D01*
X-28406Y-46581D01*
X-28475Y-46534D01*
Y-41602D01*
X-28358Y-41553D01*
X-27755Y-42156D01*
D02*
G37*
D10*
X-21930Y-19476D02*
X-21626D01*
X-21350Y-19200D01*
X-20300D01*
X-21400Y-17300D02*
X-20300Y-16200D01*
X-21400Y-17700D02*
Y-17300D01*
X-21875Y-18175D02*
X-21400Y-17700D01*
X-22100Y-19150D02*
X-22073D01*
X-22068Y-19145D01*
X-21820D01*
X-20875Y-18200D02*
X-20300D01*
X-21820Y-19145D02*
X-20875Y-18200D01*
X-20300D02*
X-19600D01*
X-19600Y-18200D02*
X-19600Y-18200D01*
X-19600Y-18200D02*
X-19600D01*
X-22100Y-18500D02*
X-22017D01*
X-22012Y-18505D01*
X-21738D01*
X-21733Y-18500D01*
X-21712D01*
X-21032Y-17820D01*
X-21030D01*
X-20610Y-17400D01*
X-19035D01*
D16*
X-48912Y-9908D02*
D03*
X-47912D02*
D03*
X-6350Y-24400D02*
D03*
X-7350D02*
D03*
X-33100Y-44875D02*
D03*
X-32100D02*
D03*
X-31900Y-5475D02*
D03*
X-30900D02*
D03*
X-31900Y-3879D02*
D03*
X-30900D02*
D03*
X-33100Y-45775D02*
D03*
X-32100D02*
D03*
X-49125Y-21825D02*
D03*
X-50125D02*
D03*
X-45550D02*
D03*
X-46550D02*
D03*
X-42000D02*
D03*
X-43000D02*
D03*
X-42050Y-26675D02*
D03*
X-41050D02*
D03*
X-45600D02*
D03*
X-44600D02*
D03*
X-49175D02*
D03*
X-48175D02*
D03*
X-54600Y-23600D02*
D03*
X-55600D02*
D03*
X-53950Y-30900D02*
D03*
X-54950D02*
D03*
X-44200Y-19300D02*
D03*
X-45200D02*
D03*
X-48850Y-39425D02*
D03*
X-47850D02*
D03*
X-48900Y-10850D02*
D03*
X-47900D02*
D03*
X-46350Y-10375D02*
D03*
X-45350D02*
D03*
X-12781Y-10279D02*
D03*
X-11781D02*
D03*
X-9806D02*
D03*
X-10806D02*
D03*
X-2700Y-11100D02*
D03*
X-1700D02*
D03*
X-5200D02*
D03*
X-4200D02*
D03*
X-56850Y-30900D02*
D03*
X-55850D02*
D03*
D19*
X-56700Y-18175D02*
D03*
Y-19575D02*
D03*
X-48125Y-18025D02*
D03*
Y-16625D02*
D03*
X-56750Y-16575D02*
D03*
Y-15175D02*
D03*
X-52750Y-24725D02*
D03*
Y-26125D02*
D03*
X-27800Y-4150D02*
D03*
Y-2750D02*
D03*
X-24500Y-4150D02*
D03*
Y-2750D02*
D03*
D20*
X-57550Y-28925D02*
D03*
Y-27975D02*
D03*
X-55650Y-15700D02*
D03*
Y-16650D02*
D03*
X-51650Y-25450D02*
D03*
Y-24500D02*
D03*
X-46975Y-39450D02*
D03*
Y-40400D02*
D03*
Y-41350D02*
D03*
Y-42300D02*
D03*
X-53075Y-36000D02*
D03*
Y-35050D02*
D03*
X-52250Y-36000D02*
D03*
Y-35050D02*
D03*
X-40600Y-33350D02*
D03*
Y-32400D02*
D03*
X-28900Y-6825D02*
D03*
Y-7775D02*
D03*
X-16900Y-19325D02*
D03*
Y-20275D02*
D03*
X-30000Y-21425D02*
D03*
Y-22375D02*
D03*
X-30875Y-21425D02*
D03*
Y-22375D02*
D03*
X-40600Y-34350D02*
D03*
Y-35300D02*
D03*
X-16900Y-18425D02*
D03*
Y-17475D02*
D03*
Y-22175D02*
D03*
Y-21225D02*
D03*
D21*
X-4419Y-19125D02*
D03*
Y-18125D02*
D03*
X-39750Y-23675D02*
D03*
Y-22675D02*
D03*
X-56500Y-23575D02*
D03*
Y-22575D02*
D03*
X-46125Y-41325D02*
D03*
Y-42325D02*
D03*
Y-39425D02*
D03*
Y-40425D02*
D03*
X-5200Y-9700D02*
D03*
Y-8700D02*
D03*
X-1200Y-8700D02*
D03*
Y-9700D02*
D03*
X-8925Y-10300D02*
D03*
Y-11300D02*
D03*
X-20300Y-16200D02*
D03*
Y-17200D02*
D03*
Y-19200D02*
D03*
Y-18200D02*
D03*
X-17800Y-18450D02*
D03*
Y-17450D02*
D03*
X-37875Y-21750D02*
D03*
Y-22750D02*
D03*
X-38700Y-22750D02*
D03*
Y-21750D02*
D03*
X-36925Y-26628D02*
D03*
Y-25628D02*
D03*
X-37825Y-26628D02*
D03*
Y-25628D02*
D03*
X-57550Y-25950D02*
D03*
Y-26950D02*
D03*
D22*
X-55575Y-22775D02*
D03*
X-54625D02*
D03*
X-54925Y-31725D02*
D03*
X-53975D02*
D03*
X-31200Y-18900D02*
D03*
X-32150D02*
D03*
X-25025Y-15100D02*
D03*
X-25975D02*
D03*
X-25025Y-16000D02*
D03*
X-25975D02*
D03*
X-23875Y-15100D02*
D03*
X-22925D02*
D03*
X-23875Y-16000D02*
D03*
X-22925D02*
D03*
X-20275Y-21300D02*
D03*
X-19325D02*
D03*
X-25850Y-25500D02*
D03*
X-24900D02*
D03*
X-25850Y-26400D02*
D03*
X-24900D02*
D03*
D27*
X-26200Y-12150D02*
D03*
X-27900D02*
D03*
D29*
X-26503Y-47250D02*
D03*
X-55025Y-32850D02*
D03*
X-26653Y-25350D02*
D03*
X-36036Y-38686D02*
D03*
X-28117Y-51700D02*
D03*
X-28075Y-48051D02*
D03*
X-25224Y-41550D02*
D03*
X-28034Y-43925D02*
D03*
X-23141Y-43986D02*
D03*
X-11775Y-39840D02*
D03*
X-12900Y-39725D02*
D03*
X-19875Y-38625D02*
D03*
X-27075Y-38600D02*
D03*
X-19405Y-38100D02*
D03*
X-28750Y-38600D02*
D03*
X-18275Y-37575D02*
D03*
X-17751Y-37052D02*
D03*
X-14300Y-5600D02*
D03*
X-12750Y-9050D02*
D03*
X-32875Y-39725D02*
D03*
X-32300Y-39075D02*
D03*
X-28730Y-46905D02*
D03*
X-27500Y-47075D02*
D03*
X-27800Y-38100D02*
D03*
X-11350Y-36350D02*
D03*
X-10800Y-36852D02*
D03*
X-56475Y-31875D02*
D03*
X-8275Y-35602D02*
D03*
X-31250Y-45700D02*
D03*
X-30750Y-44975D02*
D03*
X-50500Y-47975D02*
D03*
X-58575Y-31875D02*
D03*
X-32700Y-42475D02*
D03*
X-20102Y-25200D02*
D03*
X-31853Y-21425D02*
D03*
X-31025Y-17175D02*
D03*
X-50125Y-21100D02*
D03*
X-37825Y-27475D02*
D03*
X-17800Y-16700D02*
D03*
X-21100Y-21425D02*
D03*
X-27300Y-13700D02*
D03*
X-27925D02*
D03*
X-37787Y-8312D02*
D03*
X-38175Y-34600D02*
D03*
X-29101Y-2751D02*
D03*
X-38200Y-35400D02*
D03*
X-42800Y-26675D02*
D03*
X-30500Y-17800D02*
D03*
X-50400Y-18625D02*
D03*
X-55550Y-17925D02*
D03*
X-23925Y-14375D02*
D03*
X-29125Y-1525D02*
D03*
X-4550Y-9800D02*
D03*
X-3875Y-7025D02*
D03*
X-40500Y-1500D02*
D03*
X-34125Y-2150D02*
D03*
X-24925Y-1500D02*
D03*
X-30075Y-1525D02*
D03*
X-22100Y-15100D02*
D03*
X-30875Y-23175D02*
D03*
X-26800Y-15100D02*
D03*
X-775Y-11100D02*
D03*
X-29250Y-22050D02*
D03*
X-18525Y-21400D02*
D03*
X-24925Y-10675D02*
D03*
X-27950Y-16175D02*
D03*
X-56500Y-21775D02*
D03*
X-58250Y-28925D02*
D03*
X-57600Y-30900D02*
D03*
X-47700Y-40400D02*
D03*
X-40550Y-22675D02*
D03*
X-46350Y-26675D02*
D03*
X-49925D02*
D03*
X-49675Y-10850D02*
D03*
X-51650Y-26250D02*
D03*
X-55625Y-12125D02*
D03*
X-28575Y-5825D02*
D03*
X-27276Y-4975D02*
D03*
X-25876Y-6424D02*
D03*
X-25676Y-8975D02*
D03*
X-40900Y-30725D02*
D03*
X-24050Y-26400D02*
D03*
X-52025Y-15975D02*
D03*
X-51625Y-22500D02*
D03*
X-50050Y-24025D02*
D03*
X-58075Y-14250D02*
D03*
X-26075Y-24675D02*
D03*
X-46550Y-23900D02*
D03*
X-43800Y-33450D02*
D03*
Y-32650D02*
D03*
Y-31850D02*
D03*
X-44524Y-33850D02*
D03*
X-17650Y-32650D02*
D03*
X-18950D02*
D03*
Y-25126D02*
D03*
X-17650D02*
D03*
X-12600Y-25325D02*
D03*
X-33725Y-5483D02*
D03*
X-32975Y-5475D02*
D03*
X-32800Y-3879D02*
D03*
X-32177Y-18201D02*
D03*
X-51325Y-28450D02*
D03*
X-12025Y-7075D02*
D03*
X-43024Y-22700D02*
D03*
X-38175Y-31313D02*
D03*
X-46950Y-43075D02*
D03*
X-17530Y-20750D02*
D03*
X-13751Y-23451D02*
D03*
X-13750Y-33175D02*
D03*
X-41550Y-28950D02*
D03*
X-46924Y-33526D02*
D03*
X-48925Y-30350D02*
D03*
X-48900Y-32450D02*
D03*
X-47425Y-31851D02*
D03*
X-42399Y-37451D02*
D03*
X-47725Y-34450D02*
D03*
X-8625Y-29125D02*
D03*
X-33542Y-40750D02*
D03*
X-50750Y-14300D02*
D03*
X-33675Y-13625D02*
D03*
X-34425Y-14250D02*
D03*
X-13207Y-11828D02*
D03*
X-10057D02*
D03*
Y-13503D02*
D03*
X-9800Y-11126D02*
D03*
X-19625Y-6125D02*
D03*
X-27190Y-36000D02*
D03*
X-28925Y-36525D02*
D03*
X-19035Y-17400D02*
D03*
X-19600Y-18200D02*
D03*
X-25475Y-27275D02*
D03*
X-24951Y-27851D02*
D03*
X-24150Y-27856D02*
D03*
X-16700Y-26050D02*
D03*
X-16701Y-26826D02*
D03*
X-23050Y-26525D02*
D03*
X-13425Y-10923D02*
D03*
X-16900Y-5500D02*
D03*
X-17076Y-7075D02*
D03*
X-22814Y-2750D02*
D03*
X-38700Y-20775D02*
D03*
X-18675Y-18275D02*
D03*
X-16076Y-5575D02*
D03*
X-19450Y-19070D02*
D03*
X-29750Y-36775D02*
D03*
X-33088Y-47000D02*
D03*
X-30900Y-50125D02*
D03*
X-36425Y-35808D02*
D03*
X-36951Y-35325D02*
D03*
X-29450Y-42550D02*
D03*
X-30550D02*
D03*
X-29450Y-41450D02*
D03*
X-30550D02*
D03*
X-33802Y-36052D02*
D03*
X-33775Y-36796D02*
D03*
X-43800Y-30525D02*
D03*
X-44050Y-10375D02*
D03*
X-49961Y-9908D02*
D03*
X-26725Y-7350D02*
D03*
Y-8150D02*
D03*
X-7600Y-1993D02*
D03*
X-50520Y-42856D02*
D03*
D30*
X-10225Y-23364D02*
X-9189Y-24400D01*
X-7350D01*
X-6250Y-24300D02*
X-5700Y-23750D01*
X-6350Y-24400D02*
X-6250Y-24300D01*
X-5700Y-23750D02*
Y-23010D01*
X-10225Y-23364D02*
Y-20238D01*
X-13803Y-16660D02*
X-10225Y-20238D01*
X-20352Y-23451D02*
X-13751D01*
X-21403Y-22400D02*
X-20352Y-23451D01*
X-30545Y-24595D02*
X-28350Y-22400D01*
X-30545Y-27125D02*
Y-24595D01*
X-31480Y-28059D02*
X-30545Y-27125D01*
X-31480Y-28900D02*
Y-28059D01*
X-30870Y-24395D02*
X-28550Y-22075D01*
X-30870Y-26990D02*
Y-24395D01*
X-32780Y-28900D02*
X-30870Y-26990D01*
X-30180Y-24780D02*
X-28450Y-23050D01*
X-30180Y-28900D02*
Y-24780D01*
Y-30175D02*
Y-28900D01*
X-20450Y-29800D02*
Y-26000D01*
X-22750Y-23700D02*
X-20450Y-26000D01*
X-21138Y-31113D02*
X-20450Y-31800D01*
X-21138Y-31113D02*
Y-25921D01*
X-22100Y-17850D02*
Y-16550D01*
X-29625Y-20775D02*
X-28115D01*
X-30125Y-20275D02*
X-29625Y-20775D01*
X-30500Y-18152D02*
X-28852Y-19800D01*
X-30500Y-18152D02*
Y-17800D01*
X-29005Y-20125D02*
X-28150D01*
X-31013Y-18117D02*
X-29005Y-20125D01*
X-31013Y-18117D02*
Y-17188D01*
X-31025Y-17175D02*
X-31013Y-17188D01*
X-22100Y-20450D02*
X-18025D01*
X-28950Y-21750D02*
X-27950D01*
X-28565Y-19150D02*
X-27950D01*
X-28431Y-18825D02*
X-28200D01*
X-29175Y-18081D02*
X-28431Y-18825D01*
X-29175Y-18081D02*
Y-15600D01*
X-28825Y-17925D02*
Y-15425D01*
Y-17925D02*
X-28250Y-18500D01*
X-28475Y-17815D02*
Y-15250D01*
Y-17815D02*
X-28115Y-18175D01*
X-28350Y-22400D02*
X-27950D01*
X-28250Y-18500D02*
X-27950D01*
X-28550Y-22075D02*
X-28200D01*
X-30000Y-21425D02*
X-28159D01*
X-29250Y-22050D02*
X-28950Y-21750D01*
X-25675Y-24275D02*
Y-24050D01*
X-26075Y-24675D02*
X-25675Y-24275D01*
X-28700Y-19475D02*
X-28225D01*
X-28852Y-19800D02*
X-27950D01*
X-29925Y-18250D02*
X-28700Y-19475D01*
X-29925Y-18250D02*
Y-15840D01*
X-29550Y-18165D02*
X-28565Y-19150D01*
X-29550Y-18165D02*
Y-15720D01*
X-18950Y-30175D02*
Y-28900D01*
X-24050Y-24447D02*
Y-23700D01*
X-23725Y-24282D02*
Y-23847D01*
X-23065Y-23993D02*
Y-23857D01*
Y-23993D02*
X-21138Y-25921D01*
X-22125Y-29450D02*
Y-26372D01*
X-24050Y-24447D02*
X-22125Y-26372D01*
X-23725Y-24282D02*
X-21800Y-26207D01*
Y-31075D02*
Y-26207D01*
X-24951Y-31158D02*
X-24284Y-31825D01*
X-24951Y-31158D02*
Y-27851D01*
X-24150Y-30745D02*
Y-27856D01*
X-22100Y-16550D02*
X-21080Y-15530D01*
X-22550Y-31825D02*
X-21800Y-31075D01*
X-22550Y-29875D02*
X-22125Y-29450D01*
X-25350Y-23700D02*
X-23050Y-26000D01*
Y-26525D02*
Y-26000D01*
X-24500Y-2750D02*
X-22814D01*
X-38700Y-21750D02*
Y-20775D01*
X-37825Y-24875D02*
X-37200Y-24250D01*
X-37825Y-25628D02*
Y-24875D01*
X-24150Y-30745D02*
X-23625Y-31270D01*
X-23495Y-33550D02*
Y-32580D01*
X-23625Y-32450D02*
X-23495Y-32580D01*
X-23625Y-32450D02*
Y-31270D01*
X-17245Y-15530D02*
X-16725Y-16050D01*
X-21080Y-15530D02*
X-17245D01*
X-16076Y-5575D02*
X-16054D01*
X-2700Y-11100D02*
X-2525D01*
Y-11525D02*
X-1250Y-12800D01*
X-2525Y-11525D02*
Y-11100D01*
X-22100Y-12450D02*
X-18810D01*
X-14600Y-16660D02*
X-13803D01*
X-18810Y-12450D02*
X-14600Y-16660D01*
X-49961Y-9908D02*
X-48912D01*
X-46775Y-13750D02*
X-46575Y-13950D01*
X-46775Y-13750D02*
Y-11045D01*
X-47912Y-9908D02*
X-46775Y-11045D01*
D31*
X-32780Y-31375D02*
X-31775Y-32380D01*
X-20528Y-23875D02*
X-14980D01*
X-14205Y-24650D02*
X-11100D01*
X-14980Y-23875D02*
X-14205Y-24650D01*
X-12004Y-27275D02*
X-11175D01*
X-15104Y-24175D02*
X-12004Y-27275D01*
X-21625Y-24175D02*
X-15104D01*
X-22100Y-22400D02*
X-21403D01*
X-31169Y-32364D02*
X-30180Y-31375D01*
X-31169Y-36681D02*
Y-32364D01*
Y-36681D02*
X-29750Y-38100D01*
X-31475Y-36800D02*
Y-31380D01*
X-31480Y-31375D02*
X-31475Y-31380D01*
Y-36800D02*
X-29675Y-38600D01*
X-31775Y-36924D02*
Y-32380D01*
Y-36924D02*
X-29599Y-39100D01*
X-34425Y-35428D02*
X-33802Y-36052D01*
X-34078Y-35045D02*
X-27163Y-41960D01*
X-28880Y-34345D02*
Y-32650D01*
X-29750Y-35215D02*
X-28880Y-34345D01*
X-29750Y-36775D02*
Y-35215D01*
X-27163Y-46589D02*
Y-41960D01*
Y-46589D02*
X-26503Y-47250D01*
X-31776Y-37775D02*
X-27500Y-42051D01*
Y-47075D02*
Y-42051D01*
X-26280Y-33796D02*
X-24301Y-35775D01*
X-26280Y-33796D02*
Y-31375D01*
X-27580Y-32950D02*
Y-31375D01*
X-19375Y-38520D02*
Y-38130D01*
X-19405Y-38100D02*
X-19375Y-38130D01*
Y-38520D02*
X-8845Y-49050D01*
X-6970D01*
X-8815Y-46510D02*
X-6970D01*
X-17751Y-37574D02*
X-8815Y-46510D01*
X-17751Y-37574D02*
Y-37052D01*
X-18275Y-37575D02*
X-8250Y-47600D01*
X-5520D01*
X-8375Y-50125D02*
X-5505D01*
X-19875Y-38625D02*
X-8375Y-50125D01*
X-5520Y-47600D02*
X-4430Y-46510D01*
X-5505Y-50125D02*
X-4430Y-49050D01*
X-5505Y-37425D02*
X-4430Y-36350D01*
X-8548Y-36852D02*
X-7975Y-37425D01*
X-5505D01*
X-5535Y-40325D02*
X-4430Y-41430D01*
X-8926Y-40325D02*
X-5535D01*
X-15050Y-34201D02*
X-8926Y-40325D01*
X-16325Y-33350D02*
X-8245Y-41430D01*
X-11775Y-40325D02*
Y-39840D01*
X-15840Y-35775D02*
X-11775Y-39840D01*
X-24301Y-35775D02*
X-15840D01*
X-8130Y-43970D02*
X-6970D01*
X-11775Y-40325D02*
X-8130Y-43970D01*
X-8245Y-41430D02*
X-6970D01*
X-24425Y-36075D02*
X-16550D01*
X-27550Y-32950D02*
X-24425Y-36075D01*
X-16550D02*
X-12900Y-39725D01*
X-7375Y-45250D01*
X-27575Y-39100D02*
X-27075Y-38600D01*
X-23650Y-53030D02*
Y-39540D01*
X-27190Y-36000D02*
X-23650Y-39540D01*
X-7375Y-45250D02*
X-5710D01*
X-32500Y-54340D02*
Y-52525D01*
Y-54340D02*
X-31270Y-55570D01*
X-27500Y-54340D02*
Y-47075D01*
X-11350Y-36350D02*
X-6970D01*
X-10800Y-36852D02*
X-8548D01*
X-48525Y-44875D02*
X-33100D01*
X-48300Y-45775D02*
X-33100D01*
X-50500Y-47975D02*
X-48300Y-45775D01*
X-8275Y-32575D02*
X-6970Y-31270D01*
X-8275Y-35602D02*
Y-32575D01*
X-28730Y-55570D02*
X-27500Y-54340D01*
X-32100Y-44875D02*
X-32000Y-44975D01*
X-30750D01*
X-32100Y-45775D02*
X-32025Y-45700D01*
X-31250D01*
X-22750Y-21750D02*
X-22100Y-22400D01*
X-11100Y-24650D02*
X-10425Y-25325D01*
X-11175Y-27275D02*
X-10400Y-26500D01*
X-10425Y-25325D02*
X-4419D01*
X-1925Y-27819D01*
X-3230Y-53030D02*
X-1925Y-51725D01*
X-50649Y-27124D02*
X-50598Y-27175D01*
X-48675D01*
X-50649Y-30251D02*
Y-27124D01*
X-48675Y-27175D02*
X-48175Y-26675D01*
X-26280Y-30175D02*
Y-28900D01*
X-27580Y-30175D02*
Y-28900D01*
X-28880Y-32650D02*
Y-31375D01*
X-42399Y-35851D02*
X-41774D01*
X-42399Y-35051D02*
X-41411D01*
X-41175Y-35287D01*
X-26975Y-19475D02*
X-26650Y-19800D01*
X-18950Y-28900D02*
Y-25126D01*
X-17650Y-28900D02*
Y-25126D01*
X-10400Y-26500D02*
X-9200D01*
X-6970Y-28730D01*
X-18570Y-53030D02*
X-3230D01*
X-41175Y-36025D02*
Y-35287D01*
X-1925Y-51725D02*
Y-27819D01*
X-43724Y-28926D02*
X-43700Y-28950D01*
X-41550D01*
X-28880Y-30175D02*
Y-28900D01*
X-28730Y-53030D02*
Y-46905D01*
X-23400Y-24100D02*
X-21450Y-26050D01*
X-23400Y-24100D02*
Y-23700D01*
X-21450Y-32625D02*
Y-26050D01*
X-41774Y-35851D02*
X-40500Y-37125D01*
X-37742D01*
X-36425Y-35808D01*
X-41175Y-36025D02*
X-40375Y-36825D01*
X-37866D01*
X-36951Y-35909D01*
X-39750Y-23675D02*
X-39225Y-24200D01*
Y-24975D02*
Y-24200D01*
X-22100Y-23700D02*
X-21625Y-24175D01*
X-21675Y-22729D02*
X-20528Y-23875D01*
X-33675Y-14600D02*
Y-13625D01*
X-34078Y-15003D02*
X-33675Y-14600D01*
X-34425Y-35428D02*
Y-14250D01*
X-34078Y-35045D02*
Y-15003D01*
X-31538Y-42987D02*
Y-41062D01*
X-25475Y-31769D02*
Y-27275D01*
Y-31769D02*
X-25000Y-32244D01*
Y-33550D02*
Y-32244D01*
X-16350Y-33350D02*
Y-31375D01*
X-15050Y-34201D02*
Y-31375D01*
X-5710Y-45250D02*
X-4430Y-43970D01*
X-36951Y-35909D02*
Y-35325D01*
X-31238Y-42863D02*
Y-40137D01*
X-32875Y-39725D02*
X-31538Y-41062D01*
X-32300Y-39075D02*
X-31238Y-40137D01*
X-28730Y-46905D02*
Y-41245D01*
X-29675Y-38600D02*
X-28750D01*
X-29599Y-39100D02*
X-27575D01*
X-29750Y-38100D02*
X-27800D01*
X-33802Y-36052D02*
X-32078Y-37775D01*
X-31776D01*
X-31900Y-38075D02*
X-28730Y-41245D01*
X-33775Y-36796D02*
X-32496Y-38075D01*
X-31900D01*
X-31270Y-53030D02*
X-29700Y-51460D01*
X-31238Y-42863D02*
X-29700Y-44401D01*
Y-51460D02*
Y-44401D01*
X-31538Y-42987D02*
X-30000Y-44525D01*
X-32500Y-52525D02*
X-30000Y-50025D01*
Y-44525D01*
X-50575Y-42825D02*
X-48525Y-44875D01*
D32*
X-50649Y-35051D02*
X-49574D01*
X-53525Y-35050D02*
X-53075D01*
X-27750Y-24675D02*
X-26975Y-23900D01*
X-28880Y-28900D02*
Y-27555D01*
X-27750Y-26425D01*
Y-24675D01*
X-28161Y-24461D02*
X-27628Y-23928D01*
X-28161Y-25101D02*
Y-24461D01*
X-29060Y-26000D02*
X-28161Y-25101D01*
X-45550Y-21825D02*
X-45450Y-21725D01*
X-44275D01*
X-55900Y-34300D02*
X-54200Y-36000D01*
X-57100Y-34500D02*
Y-32500D01*
Y-34500D02*
X-55600Y-36000D01*
X-54200D02*
X-53075D01*
X-16050Y-8775D02*
Y-7350D01*
X-14300Y-5600D01*
X-57100Y-32500D02*
X-56475Y-31875D01*
X-13750Y-33175D02*
Y-31250D01*
X-4419Y-21729D02*
Y-19125D01*
Y-18125D02*
Y-16041D01*
X-13750Y-30250D02*
Y-28900D01*
X-17800Y-18618D02*
Y-18450D01*
X-18757Y-19575D02*
X-17800Y-18618D01*
X-38600Y-35800D02*
X-38200Y-35400D01*
X-31853Y-21425D02*
X-30875D01*
X-32775Y-20503D02*
X-31853Y-21425D01*
X-32775Y-20503D02*
Y-20000D01*
X-32125Y-17250D02*
X-31350Y-18025D01*
Y-18750D02*
Y-18025D01*
Y-18750D02*
X-31200Y-18900D01*
X-21375Y-19975D02*
X-19157D01*
X-18757Y-19575D01*
X-25025Y-14025D02*
X-24525Y-13525D01*
X-25025Y-15100D02*
Y-14025D01*
X-31375Y-20000D02*
X-31100Y-20275D01*
X-30125D01*
X-53200Y-13175D02*
Y-10700D01*
X-4200Y-11100D02*
X-3400Y-11900D01*
Y-12175D02*
Y-11900D01*
Y-12175D02*
X-2800Y-12775D01*
X-58525Y-26950D02*
X-57550D01*
X-59025Y-27450D02*
X-58525Y-26950D01*
X-57950Y-24175D02*
X-57350Y-23575D01*
X-56500D01*
X-38450Y-26253D02*
X-37825Y-25628D01*
X-36925D02*
X-36275Y-26278D01*
X-38450Y-27125D02*
Y-26253D01*
X-50125Y-21100D02*
X-50125Y-21100D01*
Y-21825D02*
Y-21100D01*
X-1300Y-8700D02*
X-1200D01*
X-42000Y-27725D02*
X-39050D01*
X-42700Y-27675D02*
X-42300Y-28075D01*
X-47949Y-27675D02*
X-42700D01*
X-42400Y-27325D02*
X-42000Y-27725D01*
X-48325Y-27325D02*
X-42400D01*
X-17800Y-17425D02*
Y-16700D01*
Y-17450D02*
X-17775Y-17475D01*
X-16900D01*
X-17775Y-18425D02*
X-16900D01*
X-54925Y-31725D02*
Y-29400D01*
X-56150Y-32775D02*
X-55100Y-31725D01*
X-54925D01*
X-54050Y-14025D02*
X-53200Y-13175D01*
X-54300Y-14025D02*
X-54050D01*
X-31480Y-30275D02*
Y-28900D01*
X-52600Y-18575D02*
Y-17725D01*
X-55050Y-21025D02*
X-52600Y-18575D01*
X-56548Y-20950D02*
X-55900D01*
X-55375Y-21475D01*
X-55050D01*
X-27775Y-7100D02*
Y-6625D01*
X-28700D02*
X-27775D01*
X-28900Y-6825D02*
X-28700Y-6625D01*
X-27375Y-7100D02*
X-26725Y-7750D01*
X-25675D01*
X-27125Y-7100D02*
X-27075Y-7050D01*
X-27375Y-7100D02*
X-27125D01*
X-27775D02*
X-27375D01*
X-58074Y-16448D02*
X-56750D01*
X-58575Y-16950D02*
X-58075Y-16450D01*
X-58575Y-17850D02*
Y-16950D01*
X-52068Y-32296D02*
Y-29593D01*
X-39925Y-31950D02*
X-39325D01*
X-39925Y-32400D02*
Y-31950D01*
X-40600Y-32400D02*
X-39925D01*
X-21100Y-21425D02*
X-20400D01*
X-21825D02*
X-21100D01*
X-21800Y-20800D02*
X-18275D01*
X-16350Y-30175D02*
Y-28900D01*
X-32780Y-30175D02*
Y-28900D01*
X-28880Y-30275D02*
Y-30175D01*
X-27580Y-30275D02*
Y-30175D01*
X-17650Y-32650D02*
Y-31375D01*
X-54577Y-13748D02*
X-54300Y-14025D01*
X-56106Y-13748D02*
X-54577D01*
X-52068Y-32296D02*
X-51712Y-32651D01*
X-50649D01*
X-39350Y-35875D02*
X-39325Y-35900D01*
X-40050Y-35875D02*
X-39350D01*
X-40050D02*
Y-35300D01*
X-40600D02*
X-40050D01*
X-46124Y-30326D02*
Y-28926D01*
X-38225Y-6475D02*
X-37325Y-7375D01*
Y-7945D02*
Y-7375D01*
Y-7945D02*
X-29550Y-15720D01*
X-38600Y-5500D02*
X-36925Y-7175D01*
Y-7850D02*
Y-7175D01*
Y-7850D02*
X-29175Y-15600D01*
X-38275Y-4500D02*
X-36550Y-6225D01*
Y-7700D02*
Y-6225D01*
Y-7700D02*
X-28825Y-15425D01*
X-38600Y-3500D02*
X-36125Y-5975D01*
Y-7595D02*
Y-5975D01*
Y-7595D02*
X-28475Y-15245D01*
X-38600Y-1500D02*
X-35700Y-4400D01*
Y-7500D02*
Y-4400D01*
Y-7500D02*
X-26976Y-16224D01*
X-38600Y-7500D02*
X-37787Y-8312D01*
X-56675Y-29375D02*
X-56250D01*
X-56950Y-29650D02*
X-56675Y-29375D01*
X-57550Y-29650D02*
X-56950D01*
X-57550D02*
Y-28925D01*
X-22750Y-17850D02*
Y-16175D01*
X-22925Y-16000D02*
X-22750Y-16175D01*
X-39975Y-9125D02*
X-36640D01*
X-28475Y-15250D02*
Y-15245D01*
X-26976Y-17684D02*
Y-16224D01*
X-40625Y-6475D02*
X-38225D01*
X-41600Y-5500D02*
X-40625Y-6475D01*
X-29101Y-2751D02*
X-27800D01*
X-26175Y-4400D02*
X-26125Y-4450D01*
X-26150Y-4400D02*
Y-4350D01*
X-40600Y-35300D02*
X-40550Y-35350D01*
X-53050Y-17275D02*
X-52600Y-17725D01*
X-49125Y-23175D02*
Y-22875D01*
Y-23175D02*
X-49100Y-23200D01*
X-45625Y-22875D02*
X-45550Y-22950D01*
Y-23200D02*
Y-22950D01*
X-28900Y-7750D02*
X-27775D01*
X-3875Y-7875D02*
Y-7025D01*
X-28450Y-23050D02*
X-27950D01*
X-31375Y-20000D02*
Y-19075D01*
X-31200Y-18900D01*
X-50400Y-18625D02*
Y-18150D01*
X-50175Y-17925D01*
X-49900D01*
X-55550D02*
X-54150D01*
X-55375Y-15975D02*
X-54150D01*
X-55650Y-15700D02*
X-55375Y-15975D01*
X-58075Y-16450D02*
X-58074Y-16448D01*
X-56750D02*
X-56548Y-16650D01*
X-55650D01*
X-55625Y-16625D01*
X-54150D01*
Y-17275D02*
X-53050D01*
X-57550Y-27975D02*
Y-26950D01*
X-56250D02*
X-56250Y-26950D01*
X-57550Y-26950D02*
X-56250D01*
X-54300Y-25125D02*
X-53775D01*
X-53376Y-24726D01*
X-52750D01*
X-52523Y-24500D01*
X-51650D01*
X-52825Y-24652D02*
Y-23425D01*
X-54625Y-22775D02*
X-54600Y-22800D01*
Y-23600D02*
Y-22800D01*
X-54950Y-23950D02*
X-54600Y-23600D01*
X-54950Y-25125D02*
Y-23950D01*
X-56500Y-23600D02*
X-55600D01*
Y-25125D02*
Y-23600D01*
Y-22800D01*
X-55575Y-22775D01*
X-54300Y-29950D02*
X-53950Y-30300D01*
Y-30900D02*
Y-30300D01*
X-53975Y-31725D02*
Y-30925D01*
X-55850Y-30900D02*
X-54950D01*
X-56250Y-26950D02*
Y-25125D01*
Y-26950D02*
X-55600Y-27600D01*
Y-29375D02*
Y-27600D01*
X-25675Y-18175D02*
X-25350Y-18500D01*
Y-17850D02*
Y-17525D01*
X-25975Y-16900D02*
X-25350Y-17525D01*
X-24987Y-17563D02*
Y-16038D01*
Y-17563D02*
X-24700Y-17850D01*
X-40600Y-4500D02*
X-38275D01*
X-26000Y-1500D02*
X-24925D01*
X-41600Y-3500D02*
X-40600Y-4500D01*
X-41600Y-1500D02*
X-40500D01*
X-25025Y-18175D02*
X-24700Y-18500D01*
X-23400Y-19150D02*
X-23075Y-18825D01*
X-23075D01*
X-26975D02*
X-26650Y-19150D01*
X-26325Y-20125D02*
X-26000Y-19800D01*
X-25675Y-20125D02*
X-25350Y-19800D01*
Y-20450D02*
X-25025Y-20125D01*
X-25025Y-21425D02*
X-24700Y-21100D01*
X-23400Y-22400D02*
X-23075Y-22075D01*
X-20400Y-21425D02*
X-20275Y-21300D01*
X-24050Y-18500D02*
Y-17850D01*
X-22925Y-15100D02*
X-22100D01*
X-22925Y-16000D02*
Y-15100D01*
X-23875Y-16000D02*
Y-15100D01*
X-26800D02*
X-25975D01*
Y-16000D02*
Y-15100D01*
X-25025Y-16000D02*
Y-15100D01*
X-27950Y-17850D02*
Y-16175D01*
X-33000Y-1525D02*
X-30075D01*
X-30875Y-23175D02*
Y-22375D01*
X-30000D01*
X-30875Y-21425D02*
X-30000D01*
X-24900Y-26400D02*
Y-25500D01*
X-25850Y-26400D02*
Y-25500D01*
X-18275Y-20800D02*
X-16900Y-22175D01*
X-22100Y-21100D02*
X-21800Y-20800D01*
X-18025Y-20450D02*
X-16900Y-19325D01*
X-4100Y-11100D02*
X-3875Y-10875D01*
Y-9725D01*
X-25025Y-16000D02*
X-24987Y-16038D01*
X-25975Y-16900D02*
Y-16000D01*
X-3225Y-8450D02*
Y-7875D01*
X-3375Y-8600D02*
X-3225Y-8450D01*
X-4550Y-9800D02*
X-4550Y-9800D01*
X-5200Y-9800D02*
X-4550D01*
X-24700Y-23050D02*
X-24375Y-22725D01*
X-2575Y-7875D02*
Y-6300D01*
Y-9725D02*
X-2150D01*
X-1600Y-11100D02*
X-775D01*
X-26650Y-22400D02*
X-26325Y-22725D01*
X-44200Y-19300D02*
Y-18750D01*
X-44675Y-18275D02*
X-44200Y-18750D01*
X-44675Y-18275D02*
Y-17850D01*
X-27950Y-18500D02*
X-27950Y-18500D01*
X-25650Y-3100D02*
X-25325D01*
X-25225Y-3200D01*
Y-4300D02*
Y-3200D01*
X-26200Y-10175D02*
X-25050D01*
X-24925Y-10300D01*
Y-10675D02*
Y-10300D01*
X-48300Y-12125D02*
X-47950D01*
X-47900Y-12075D01*
Y-10850D01*
X-46950Y-42325D02*
X-46125D01*
X-46950Y-43075D02*
Y-42325D01*
X-56500Y-22575D02*
Y-21775D01*
X-58250Y-28925D02*
X-57550D01*
X-57600Y-30900D02*
X-56850D01*
X-47700Y-40400D02*
X-46975D01*
X-40550Y-22675D02*
X-39750D01*
X-42399Y-34251D02*
X-40699D01*
X-40600Y-34350D01*
X-39575D01*
X-39325Y-34600D01*
X-42399Y-33451D02*
X-40701D01*
X-40600Y-33350D01*
X-39575D01*
X-39325Y-33100D01*
X-42399Y-32651D02*
X-41301D01*
X-41050Y-32400D01*
X-40600D01*
X-39325Y-34600D02*
X-38175D01*
X-42800Y-26675D02*
X-42050D01*
X-46350D02*
X-45600D01*
X-49925D02*
X-49175D01*
X-51625Y-23425D02*
Y-22500D01*
X-49675Y-10850D02*
X-48900D01*
X-55050Y-21475D02*
Y-21025D01*
X-51650Y-26250D02*
Y-25450D01*
X-44200Y-20225D02*
Y-19300D01*
X-49324Y-28926D02*
Y-28324D01*
X-48524Y-28926D02*
Y-28250D01*
X-55625Y-12125D02*
X-54300D01*
X-26650Y-3100D02*
X-26150D01*
X-27274Y-5700D02*
Y-4978D01*
X-27276Y-4975D02*
X-27274Y-4978D01*
X-45175Y-13950D02*
X-44675D01*
X-42399Y-31051D02*
X-41226D01*
X-40900Y-30725D01*
X-24700Y-23050D02*
X-24700D01*
X-24900Y-26400D02*
X-24050D01*
X-19225Y-21400D02*
X-18525D01*
X-19325Y-21300D02*
X-19225Y-21400D01*
X-54150Y-15975D02*
X-52025D01*
X-49900D01*
X-26976Y-17684D02*
X-26975Y-17685D01*
X-24050Y-16175D02*
X-23875Y-16000D01*
X-24050Y-17850D02*
Y-16175D01*
X-25675Y-22075D02*
X-25350Y-21750D01*
X-25025Y-22725D02*
X-24700Y-22400D01*
X-25350D02*
X-25025Y-22075D01*
X-26075Y-25275D02*
Y-24675D01*
Y-25275D02*
X-25850Y-25500D01*
X-41600Y-7500D02*
X-39975Y-9125D01*
X-2575Y-8425D02*
X-1200Y-9800D01*
X-2575Y-8425D02*
Y-7875D01*
X-2150Y-9725D02*
X-1700Y-10175D01*
Y-11100D02*
Y-10175D01*
X-1650Y-11050D02*
X-1600Y-11100D01*
X-3225Y-10575D02*
X-2700Y-11100D01*
X-3225Y-10575D02*
Y-9725D01*
X-54300Y-29950D02*
Y-29375D01*
X-26976Y-18174D02*
X-26650Y-18500D01*
X-39325Y-33100D02*
X-37550D01*
X-52625Y-23225D02*
Y-21725D01*
X-52825Y-23425D02*
X-52625Y-23225D01*
X-54950Y-26625D02*
Y-25125D01*
X-36640Y-9125D02*
X-29925Y-15840D01*
X-56750Y-15052D02*
X-55674D01*
X-55650Y-15075D01*
Y-15700D02*
Y-15075D01*
X-56700Y-18175D02*
X-55800D01*
X-55550Y-17925D01*
X-39325Y-35800D02*
X-38600D01*
X-50649Y-31051D02*
X-46199D01*
X-43800Y-33450D01*
X-45324Y-30326D02*
Y-28926D01*
Y-30326D02*
X-43800Y-31850D01*
X-23400Y-23700D02*
X-23390Y-23710D01*
X-44524Y-37176D02*
Y-33850D01*
X-44600Y-26675D02*
X-43725D01*
X-41050D02*
X-39700D01*
X-48524Y-28250D02*
X-47949Y-27675D01*
X-49324Y-28324D02*
X-48325Y-27325D01*
X-23925Y-15050D02*
Y-14375D01*
Y-15050D02*
X-23875Y-15100D01*
X-25350Y-19150D02*
X-25025Y-19475D01*
X-24050Y-19150D02*
X-23725Y-18825D01*
X-18950Y-32650D02*
Y-31375D01*
X-23400Y-23740D02*
X-23390Y-23731D01*
Y-23710D01*
X-17650Y-30175D02*
Y-28900D01*
X-32150Y-18900D02*
X-32150Y-18900D01*
X-32150Y-18900D02*
Y-18227D01*
X-32177Y-18201D02*
X-32150Y-18227D01*
X-53224Y-34251D02*
X-50649D01*
X-53975Y-33500D02*
X-53224Y-34251D01*
X-53975Y-33500D02*
Y-31725D01*
X-51325Y-28850D02*
Y-28450D01*
X-52068Y-29593D02*
X-51325Y-28850D01*
X-52750Y-26125D02*
X-52625Y-26250D01*
X-51650D01*
X-54950Y-26625D02*
X-52750Y-28825D01*
X-43000Y-22676D02*
Y-21850D01*
X-43024Y-22700D02*
X-43000Y-22676D01*
X-39325Y-31800D02*
X-38275D01*
X-38175Y-31700D01*
Y-31313D01*
X-17530Y-20750D02*
X-17280Y-21000D01*
X-17125D01*
X-16900Y-21225D01*
X-17530Y-20750D02*
X-17283Y-20503D01*
X-17128D01*
X-16900Y-20275D01*
Y-22175D02*
X-16400D01*
X-15625Y-21400D01*
X-16400Y-19854D02*
Y-19825D01*
Y-19854D02*
X-16179Y-20075D01*
X-14750D01*
X-13775Y-19100D01*
X-16900Y-19325D02*
X-16400Y-19825D01*
X-50649Y-33451D02*
X-49301D01*
X-52750Y-32800D02*
Y-32799D01*
Y-28825D01*
X-47724Y-37176D02*
Y-35649D01*
X-47365Y-35290D01*
X-46924D01*
Y-37176D02*
Y-35290D01*
Y-33526D01*
X-48925Y-30350D02*
X-48074D01*
X-47724Y-30000D01*
Y-28926D01*
X-50649Y-31851D02*
X-47425D01*
X-42674Y-37176D02*
X-42399Y-37451D01*
X-43724Y-37176D02*
X-42674D01*
X-46124Y-30326D02*
X-43800Y-32650D01*
X-10806Y-11179D02*
Y-10279D01*
X-9785Y-10300D02*
X-8925D01*
X-9800Y-10285D02*
X-9785Y-10300D01*
X-9806Y-11120D02*
Y-10279D01*
Y-11120D02*
X-9800Y-11126D01*
X-5275Y-11025D02*
X-5200Y-11100D01*
X-6800Y-11025D02*
X-5275D01*
X-25675Y-21425D02*
X-25350Y-21100D01*
X-24700Y-20450D02*
X-24375Y-20125D01*
X-10375Y-7925D02*
X-9600Y-8700D01*
X-13475Y-7925D02*
X-10375D01*
X-9600Y-8700D02*
X-5300D01*
X-5200Y-8600D01*
X-3375D01*
X-17025Y-10075D02*
X-15625D01*
X-13475Y-7925D01*
X-16700Y-26050D02*
X-15050Y-27700D01*
Y-30175D02*
Y-28900D01*
Y-27700D01*
X-16350Y-28900D02*
Y-27202D01*
X-16701Y-26826D02*
X-16325Y-27202D01*
X-13425Y-10923D02*
X-12781Y-10279D01*
X-38725Y-22775D02*
X-38700Y-22750D01*
X-37975Y-22750D01*
X-37875Y-22750D02*
X-37200D01*
X-36275Y-21825D01*
X-37875Y-21750D02*
Y-20989D01*
X-36696Y-19810D01*
X-41475Y-21300D02*
X-40209D01*
X-42000Y-21825D02*
X-41475Y-21300D01*
X-42000Y-21850D02*
Y-21825D01*
X-36925Y-25250D02*
X-35925Y-24250D01*
X-36925Y-25628D02*
Y-25250D01*
X-39050Y-27725D02*
X-38450Y-27125D01*
X-37250Y-28075D02*
X-36275Y-27100D01*
Y-26278D01*
X-42300Y-28075D02*
X-37250D01*
X-49301Y-33451D02*
X-48900Y-33050D01*
Y-32450D01*
X-44524Y-30326D02*
Y-28926D01*
Y-30326D02*
X-44325Y-30525D01*
X-43800D01*
X-1250Y-8650D02*
Y-6825D01*
Y-8650D02*
X-1200Y-8700D01*
X-45350Y-10375D02*
X-44050D01*
X-53200Y-10700D02*
X-51452Y-8952D01*
X-46350Y-12775D02*
X-45175Y-13950D01*
X-51452Y-8952D02*
X-47773D01*
X-46350Y-10375D01*
Y-12775D02*
Y-10375D01*
D33*
X-49585Y-34632D02*
G03*
X-49457Y-34350I-464J381D01*
G01*
X-49424Y-35051D02*
G03*
X-49585Y-34632I-625J0D01*
G01*
X-49466Y-35993D02*
G03*
X-49449Y-35851I-583J142D01*
G01*
X-49000Y-36071D02*
G03*
X-49466Y-35993I-324J-505D01*
G01*
X-49585Y-35470D02*
G03*
X-49424Y-35051I-464J419D01*
G01*
X-49449Y-35851D02*
G03*
X-49585Y-35470I-600J0D01*
G01*
X-49636Y-39761D02*
G03*
X-49475Y-39867I336J336D01*
G01*
X-49636Y-39761D02*
G03*
X-49475Y-39867I336J336D01*
G01*
X-49503Y-42731D02*
G03*
X-50701Y-43865I-1017J-126D01*
G01*
X-50653Y-46962D02*
G03*
X-49487Y-48128I153J-1013D01*
G01*
X-56436Y-37136D02*
G03*
X-56100Y-37275I336J336D01*
G01*
X-58194Y-35181D02*
G03*
X-58055Y-35517I475J0D01*
G01*
X-58194Y-35181D02*
G03*
X-58055Y-35517I475J0D01*
G01*
X-56436Y-37136D02*
G03*
X-56100Y-37275I336J336D01*
G01*
X-49457Y-34350D02*
X-49000D01*
X-49524Y-34712D02*
X-49162Y-34350D01*
X-49000Y-36071D02*
Y-34350D01*
X-49513Y-35373D02*
X-49000Y-35886D01*
X-53675Y-35325D02*
Y-34401D01*
X-54468Y-35131D02*
X-53707Y-34369D01*
X-54274Y-35325D02*
X-53675D01*
X-52122Y-37275D02*
X-49636Y-39761D01*
X-52137Y-37275D02*
X-49475Y-39937D01*
X-49000Y-43233D02*
Y-40025D01*
X-49387D02*
X-49000Y-40412D01*
X-49503Y-42731D02*
X-49000Y-43233D01*
X-49998Y-41974D02*
X-49000Y-40976D01*
X-54399Y-37275D02*
X-49000Y-42674D01*
X-49487Y-48128D02*
X-49000Y-47642D01*
Y-56475D02*
Y-47642D01*
X-53185Y-56475D02*
X-49000Y-52290D01*
X-50922Y-56475D02*
X-49000Y-54553D01*
X-49475Y-40025D02*
X-49000D01*
X-49475D02*
Y-39867D01*
Y-39937D02*
X-49387Y-40025D01*
X-50701Y-43865D02*
X-49129Y-45438D01*
X-49524Y-48289D02*
X-49000Y-47765D01*
X-49769Y-48694D02*
X-49000Y-49463D01*
X-50653Y-46962D02*
X-49129Y-45438D01*
X-55177Y-34350D02*
X-53726D01*
X-55062D02*
X-54087Y-35325D01*
X-55184Y-34415D02*
X-54274Y-35325D01*
X-59325Y-34612D02*
X-51469Y-42468D01*
X-59325Y-36875D02*
X-49946Y-46254D01*
X-56100Y-37275D02*
X-52122D01*
X-59325Y-42250D02*
X-54350Y-37275D01*
X-59325Y-44513D02*
X-52104Y-37292D01*
X-58194Y-35181D02*
Y-34350D01*
X-59325D02*
X-58194D01*
X-59325Y-35462D02*
X-58213Y-34350D01*
X-58055Y-35517D02*
X-56436Y-37136D01*
X-59325Y-37725D02*
X-57586Y-35986D01*
X-59325Y-39988D02*
X-56455Y-37117D01*
X-59325Y-41400D02*
X-49000Y-51725D01*
X-59325Y-53564D02*
X-50164Y-44403D01*
X-59325Y-43663D02*
X-49000Y-53988D01*
X-59325Y-46776D02*
X-50973Y-38424D01*
X-59325Y-49039D02*
X-49842Y-39555D01*
X-57710Y-56475D02*
X-50186Y-48951D01*
X-55448Y-56475D02*
X-49000Y-50027D01*
X-59325Y-45926D02*
X-49000Y-56251D01*
X-59325Y-56475D02*
X-49000D01*
X-59325Y-51301D02*
X-51402Y-43378D01*
X-59325Y-55827D02*
X-51524Y-48026D01*
X-59325Y-55827D02*
X-51524Y-48026D01*
X-59325Y-39138D02*
X-51219Y-47244D01*
X-59325Y-56475D02*
Y-34350D01*
Y-52714D02*
X-55564Y-56475D01*
X-59325Y-54977D02*
X-57827Y-56475D01*
X-59325Y-48189D02*
X-51039Y-56475D01*
X-59325Y-50451D02*
X-53301Y-56475D01*
X-53075Y-35051D02*
X-50649D01*
X-55025Y-33900D02*
X-53875Y-35050D01*
X-55025Y-33900D02*
Y-32850D01*
X-53875Y-35050D02*
X-53075D01*
X-56100Y-36800D02*
X-51925D01*
X-57719Y-35181D02*
X-56100Y-36800D01*
X-57719Y-35181D02*
Y-32731D01*
X-49300Y-39425D02*
X-48850D01*
X-51925Y-36800D02*
X-49300Y-39425D01*
X-10806Y-10279D02*
Y-9719D01*
X-11475Y-9050D02*
X-10806Y-9719D01*
X-11600Y-26500D02*
Y-25350D01*
X-58675Y-21550D02*
X-56700Y-19575D01*
X-58675Y-21575D02*
Y-21550D01*
X-51375Y-19700D02*
X-51150Y-19475D01*
X-51300D02*
Y-17650D01*
X-51975Y-21175D02*
X-51375D01*
Y-19700D01*
X-30900Y-4424D02*
X-29525D01*
X-30900D02*
Y-3879D01*
X-27799Y-4149D02*
X-27598Y-4350D01*
X-28073Y-4424D02*
X-27800Y-4150D01*
X-29525Y-4424D02*
X-28073D01*
X-30900Y-5475D02*
Y-3879D01*
X-47825Y-39425D02*
X-46125D01*
X-51336Y-10500D02*
X-49711Y-12125D01*
X-48300D01*
X-52200Y-11364D02*
X-51336Y-10500D01*
X-52200Y-13075D02*
Y-11364D01*
X-37825Y-27475D02*
X-37825Y-27475D01*
X-37825Y-27475D02*
Y-26628D01*
X-36925D01*
X-44485Y-43175D02*
Y-41575D01*
X-44735Y-41325D02*
X-44485Y-41575D01*
X-52625Y-20525D02*
X-51975Y-21175D01*
X-52950Y-20525D02*
X-52625D01*
X-58675Y-24825D02*
Y-21575D01*
Y-24825D02*
X-57550Y-25950D01*
X-27925Y-13700D02*
X-26775D01*
X-26200Y-13125D02*
Y-12150D01*
X-26775Y-13700D02*
X-26200Y-13125D01*
X-49125Y-22875D02*
Y-21825D01*
X-50050Y-25300D02*
Y-25100D01*
X-49900Y-16625D02*
X-48125D01*
X-50925Y-17275D02*
X-49900D01*
X-51300Y-17650D02*
X-50925Y-17275D01*
X-56675Y-19575D02*
X-55050D01*
X-49575Y-19450D02*
X-48125D01*
X-24500Y-4825D02*
X-24075Y-5250D01*
X-24500Y-4825D02*
Y-4148D01*
X-24075Y-5675D02*
Y-5250D01*
X-24652Y-4300D02*
X-24500Y-4148D01*
X-25876Y-5700D02*
X-24525D01*
X-24075Y-6150D01*
X-25876Y-6424D02*
Y-5700D01*
X-46575Y-19300D02*
Y-17850D01*
Y-19300D02*
X-46400Y-19475D01*
X-46124Y-39424D02*
Y-37176D01*
X-46123Y-39425D02*
X-44735D01*
X-46124Y-39424D02*
X-46123Y-39425D01*
X-46125Y-41325D02*
Y-40425D01*
Y-41325D02*
X-44735D01*
X-46975Y-41350D02*
X-46150D01*
X-52101Y-35851D02*
X-50649D01*
X-52250Y-36000D02*
X-52101Y-35851D01*
X-53075Y-36000D02*
X-52250D01*
X-47825Y-39425D02*
X-47825Y-39425D01*
X-45550Y-23200D02*
Y-21825D01*
X-42000Y-23200D02*
Y-21850D01*
X-41050Y-26675D02*
Y-25300D01*
X-48175Y-26675D02*
Y-25325D01*
X-44600Y-26675D02*
Y-25300D01*
X-49225Y-24275D02*
X-47325D01*
X-45200Y-20950D02*
X-45150Y-21000D01*
X-45200Y-20950D02*
Y-19300D01*
X-42950Y-25300D02*
Y-25025D01*
X-40975Y-23675D02*
X-39750D01*
X-42950Y-25025D02*
X-42325D01*
X-40975Y-23675D01*
X-47325Y-24275D02*
X-46537Y-25062D01*
X-45750Y-24275D01*
X-43700D01*
X-42950Y-25025D01*
X-50400Y-13950D02*
Y-13075D01*
X-50750Y-14300D02*
X-50400Y-13950D01*
X-50050Y-25100D02*
X-49225Y-24275D01*
X-50050Y-25100D02*
Y-24025D01*
X-58075Y-15250D02*
Y-14250D01*
X-30650Y-7750D02*
X-28900D01*
X-48125Y-16625D02*
Y-15425D01*
Y-14200D01*
X-48225Y-13950D02*
X-46575D01*
X-45625Y-15750D02*
Y-15225D01*
X-46575Y-14275D02*
X-45625Y-15225D01*
X-46575Y-14275D02*
Y-13950D01*
X-46850Y-16500D02*
X-46575Y-16775D01*
Y-17850D02*
Y-16775D01*
X-46850Y-16500D02*
Y-15400D01*
X-12600Y-25325D02*
X-11625D01*
X-33717Y-3879D02*
X-31900D01*
X-33725Y-5483D02*
X-33717Y-5475D01*
X-31900D01*
X-49000Y-21700D02*
X-47850D01*
X-49125Y-21825D02*
X-49000Y-21700D01*
X-50649Y-35051D02*
X-48326D01*
X-47725Y-34450D01*
X-12750Y-9050D02*
X-11475D01*
X-44735Y-39425D02*
X-40950D01*
X-58575Y-31875D02*
X-57719Y-32731D01*
X-15782Y-14176D02*
X-15007D01*
X-23808Y-6150D02*
X-15782Y-14176D01*
X-24075Y-6150D02*
X-23808D01*
D34*
X-47422Y-20975D02*
X-42860D01*
X-47950Y-20447D02*
X-47422Y-20975D01*
X-47950Y-20447D02*
Y-19475D01*
X-41695Y-19810D02*
X-36696D01*
X-42860Y-20975D02*
X-41695Y-19810D01*
X-48125Y-19450D02*
Y-18000D01*
Y-19450D02*
X-48100Y-19475D01*
X-45625Y-11850D02*
X-45000D01*
X-42120Y-14730D01*
X-36696D01*
D35*
X-27900Y-12150D02*
X-27850Y-12100D01*
Y-10175D01*
X-27775Y-10100D01*
Y-8400D01*
X-25675Y-7100D02*
Y-6625D01*
X-25876Y-6424D02*
X-25675Y-6625D01*
X-25650Y-4300D02*
X-25225D01*
X-24652D01*
X-25676Y-8975D02*
Y-8401D01*
X-27598Y-4350D02*
X-26650D01*
X-11681Y-12319D02*
Y-11339D01*
Y-12319D02*
X-11521Y-12479D01*
X-10806D01*
X-12556Y-13504D02*
X-11841D01*
X-11681Y-13664D01*
Y-14644D02*
Y-13664D01*
Y-14644D02*
X-11521Y-14804D01*
X-10806D01*
X-11681Y-11339D02*
X-11681Y-11339D01*
Y-12800D02*
Y-12319D01*
X-11870Y-12989D02*
X-11681Y-12800D01*
X-13116Y-12989D02*
X-11870D01*
X-13131Y-14154D02*
X-12556D01*
X-13356Y-13229D02*
X-13116Y-12989D01*
X-13356Y-13929D02*
Y-13229D01*
Y-13929D02*
X-13131Y-14154D01*
X-13206Y-11829D02*
X-12556D01*
X-13207Y-11828D02*
X-13206Y-11829D01*
X-10805Y-11828D02*
X-10057D01*
X-10806Y-14154D02*
X-9632D01*
X-10805Y-13503D02*
X-10057D01*
X-9632Y-14154D02*
X-9231Y-13753D01*
X-12556Y-11179D02*
X-11841D01*
X-7406Y-13054D02*
X-6970Y-13490D01*
X-9231Y-14804D02*
X-9231Y-14804D01*
X-10806Y-14804D02*
X-9231D01*
X-11781Y-11239D02*
Y-10279D01*
Y-11239D02*
X-11681Y-11339D01*
X-11841Y-11179D02*
X-11781Y-11239D01*
X-10057Y-11828D02*
X-10032Y-11804D01*
X-9429D01*
X-8925Y-11300D01*
X-6970Y-13490D02*
Y-12346D01*
X-8016Y-11300D02*
X-6970Y-12346D01*
X-8925Y-11300D02*
X-8016D01*
X-10806Y-12479D02*
X-9756D01*
X-9231Y-13004D01*
Y-13753D02*
Y-13004D01*
X-13825Y-12479D02*
X-12556D01*
X-13136Y-14804D02*
X-12556D01*
X-13825Y-14115D02*
X-13136Y-14804D01*
X-15007Y-12476D02*
X-13828D01*
X-13825Y-12479D01*
Y-14115D02*
Y-12479D01*
X-15007Y-14176D02*
X-13153Y-16030D01*
X-6970D01*
D37*
X-27049Y-12150D02*
D03*
D38*
X-13375Y-4800D02*
D03*
X-17825D02*
D03*
D39*
X-19250Y-1675D02*
D03*
X-11950D02*
D03*
D40*
X-36696Y-19840D02*
D03*
X-6970Y-13490D02*
D03*
Y-28730D02*
D03*
X-41776Y-19840D02*
D03*
D41*
X-36696Y-17300D02*
D03*
Y-14760D02*
D03*
X-4430Y-13490D02*
D03*
Y-16030D02*
D03*
X-6970D02*
D03*
X-4430Y-38890D02*
D03*
Y-28730D02*
D03*
Y-31270D02*
D03*
X-6970D02*
D03*
X-4430Y-33810D02*
D03*
X-6970D02*
D03*
X-4430Y-36350D02*
D03*
X-6970D02*
D03*
Y-38890D02*
D03*
Y-51590D02*
D03*
Y-49050D02*
D03*
X-4430D02*
D03*
X-6970Y-46510D02*
D03*
X-4430D02*
D03*
X-6970Y-43970D02*
D03*
X-4430D02*
D03*
Y-41430D02*
D03*
X-6970D02*
D03*
X-4430Y-51590D02*
D03*
X-41270Y-10950D02*
D03*
X-38730D02*
D03*
X-41776Y-17300D02*
D03*
Y-14760D02*
D03*
X-41430Y-55570D02*
D03*
X-31270Y-53030D02*
D03*
Y-55570D02*
D03*
X-33810D02*
D03*
Y-53030D02*
D03*
X-36350Y-55570D02*
D03*
Y-53030D02*
D03*
X-38890Y-55570D02*
D03*
Y-53030D02*
D03*
X-41430D02*
D03*
X-28730D02*
D03*
X-26190D02*
D03*
Y-55570D02*
D03*
X-23650Y-53030D02*
D03*
Y-55570D02*
D03*
X-21110Y-53030D02*
D03*
Y-55570D02*
D03*
X-18570D02*
D03*
X-28730D02*
D03*
D42*
X-18570Y-53030D02*
D03*
D43*
X-3160Y-21740D02*
D03*
X-4430D02*
D03*
X-5700D02*
D03*
X-6970D02*
D03*
Y-23010D02*
D03*
X-5700D02*
D03*
X-4430D02*
D03*
X-3160D02*
D03*
X-8240D02*
D03*
Y-21740D02*
D03*
D44*
X-57650Y-57650D02*
D03*
X-2350D02*
D03*
X-57650Y-2350D02*
D03*
X-2350D02*
D03*
D45*
X-25025Y-20125D02*
D03*
X-26975Y-18825D02*
D03*
X-25025Y-21425D02*
D03*
X-26325Y-20125D02*
D03*
X-24375Y-22725D02*
D03*
X-25025Y-18175D02*
D03*
X-25675D02*
D03*
X-25675Y-20125D02*
D03*
X-26325Y-22725D02*
D03*
X-23075Y-18825D02*
D03*
Y-22075D02*
D03*
X-25675D02*
D03*
X-25025Y-22075D02*
D03*
X-25025Y-22725D02*
D03*
X-25025Y-19475D02*
D03*
X-23725Y-18825D02*
D03*
X-25675Y-21425D02*
D03*
X-24375Y-20125D02*
D03*
D58*
X-13750Y-30150D02*
D03*
Y-31350D02*
D03*
X-27580Y-31375D02*
D03*
Y-30175D02*
D03*
X-15050Y-31375D02*
D03*
Y-30175D02*
D03*
X-16350Y-31375D02*
D03*
Y-30175D02*
D03*
X-32780Y-30175D02*
D03*
Y-31375D02*
D03*
X-31480Y-30175D02*
D03*
Y-31375D02*
D03*
X-28880Y-30175D02*
D03*
Y-31375D02*
D03*
X-58075Y-15250D02*
D03*
Y-16450D02*
D03*
X-26280Y-30175D02*
D03*
Y-31375D02*
D03*
X-18950Y-30175D02*
D03*
Y-31375D02*
D03*
X-17650Y-30175D02*
D03*
Y-31375D02*
D03*
X-30180Y-31375D02*
D03*
Y-30175D02*
D03*
D59*
X-55900Y-34300D02*
D03*
X-32125Y-17250D02*
D03*
X-24525Y-13525D02*
D03*
X-56548Y-20950D02*
D03*
X-53975Y-33500D02*
D03*
X-59025Y-27450D02*
D03*
X-17650Y-28900D02*
D03*
X-18950D02*
D03*
X-28880D02*
D03*
X-30180Y-28900D02*
D03*
X-31480Y-28900D02*
D03*
X-32780D02*
D03*
X-28880Y-32650D02*
D03*
X-47850Y-21700D02*
D03*
X-2575Y-6300D02*
D03*
X-2800Y-12775D02*
D03*
X-18757Y-19575D02*
D03*
X-51336Y-10500D02*
D03*
X-58675Y-21575D02*
D03*
X-48125Y-15425D02*
D03*
X-56150Y-32775D02*
D03*
X-52625Y-21725D02*
D03*
X-37550Y-33100D02*
D03*
X-51375Y-21175D02*
D03*
X-50649Y-27124D02*
D03*
X-44485Y-43175D02*
D03*
X-57950Y-24175D02*
D03*
X-58575Y-17850D02*
D03*
X-30650Y-7750D02*
D03*
X-46830Y-15420D02*
D03*
X-29525Y-4424D02*
D03*
X-40209Y-21300D02*
D03*
X-44275Y-21725D02*
D03*
X-9231Y-14804D02*
D03*
X-9231Y-13004D02*
D03*
X-16350Y-28900D02*
D03*
X-15050Y-28900D02*
D03*
X-40950Y-39425D02*
D03*
X-16050Y-8775D02*
D03*
X-13750Y-28900D02*
D03*
X-1250Y-12800D02*
D03*
X-1250Y-6825D02*
D03*
X-25000Y-33550D02*
D03*
X-29060Y-26000D02*
D03*
X-26280Y-28900D02*
D03*
X-27580D02*
D03*
X-24284Y-31800D02*
D03*
X-23495Y-33550D02*
D03*
X-56106Y-13748D02*
D03*
X-6800Y-11025D02*
D03*
X-44200Y-20225D02*
D03*
X-36625Y-11450D02*
D03*
X-21450Y-32625D02*
D03*
X-20450Y-31800D02*
D03*
X-22550Y-31800D02*
D03*
X-22550Y-29800D02*
D03*
X-20450Y-29800D02*
D03*
X-43725Y-26675D02*
D03*
X-39700D02*
D03*
X-33717Y-3879D02*
D03*
X-36275Y-21825D02*
D03*
X-52750Y-32799D02*
D03*
X-39225Y-24975D02*
D03*
X-16725Y-16050D02*
D03*
X-22100Y-12450D02*
D03*
X-17025Y-10075D02*
D03*
X-37200Y-24250D02*
D03*
X-35925Y-24250D02*
D03*
D60*
X-54150Y-17925D02*
D03*
Y-17275D02*
D03*
Y-16625D02*
D03*
Y-15975D02*
D03*
X-49900Y-17925D02*
D03*
Y-17275D02*
D03*
Y-16625D02*
D03*
Y-15975D02*
D03*
D61*
X-56250Y-25125D02*
D03*
X-55600D02*
D03*
X-54950D02*
D03*
X-54300D02*
D03*
X-56250Y-29375D02*
D03*
X-55600D02*
D03*
X-54950D02*
D03*
X-54300D02*
D03*
D62*
X-42635Y-40375D02*
D03*
X-44735Y-39425D02*
D03*
Y-41325D02*
D03*
X-52950Y-20525D02*
D03*
X-55050Y-19575D02*
D03*
Y-21475D02*
D03*
X-50400Y-13075D02*
D03*
X-48300Y-14025D02*
D03*
Y-12125D02*
D03*
X-52200Y-13075D02*
D03*
X-54300Y-12125D02*
D03*
Y-14025D02*
D03*
D63*
X-43724Y-37176D02*
D03*
X-44524D02*
D03*
X-45324D02*
D03*
X-46124D02*
D03*
X-46924D02*
D03*
X-47724D02*
D03*
X-48524D02*
D03*
X-49324D02*
D03*
Y-28926D02*
D03*
X-48524D02*
D03*
X-47724D02*
D03*
X-46924D02*
D03*
X-46124D02*
D03*
X-45324D02*
D03*
X-44524D02*
D03*
X-43724D02*
D03*
D64*
X-50649Y-35851D02*
D03*
Y-35051D02*
D03*
Y-34251D02*
D03*
Y-33451D02*
D03*
Y-32651D02*
D03*
Y-31851D02*
D03*
Y-31051D02*
D03*
Y-30251D02*
D03*
X-42399D02*
D03*
Y-31051D02*
D03*
Y-31851D02*
D03*
Y-32651D02*
D03*
Y-33451D02*
D03*
Y-34251D02*
D03*
Y-35051D02*
D03*
Y-35851D02*
D03*
D65*
X-51150Y-19475D02*
D03*
X-49750D02*
D03*
X-47950D02*
D03*
X-46550D02*
D03*
X-25875Y-5700D02*
D03*
X-27275D02*
D03*
D66*
X-49100Y-23200D02*
D03*
X-50050Y-25300D02*
D03*
X-48150D02*
D03*
X-45550Y-23200D02*
D03*
X-46500Y-25300D02*
D03*
X-44600D02*
D03*
X-42000Y-23200D02*
D03*
X-42950Y-25300D02*
D03*
X-41050D02*
D03*
X-45625Y-15750D02*
D03*
X-46575Y-17850D02*
D03*
X-44675D02*
D03*
X-45625Y-11850D02*
D03*
X-46575Y-13950D02*
D03*
X-44675D02*
D03*
D67*
X-51625Y-23425D02*
D03*
X-52825D02*
D03*
X-10400Y-26500D02*
D03*
X-11600D02*
D03*
X-10425Y-25325D02*
D03*
X-11625D02*
D03*
D68*
X-54200Y-36000D02*
D03*
X-55600D02*
D03*
X-32775Y-20000D02*
D03*
X-31375D02*
D03*
D69*
X-39325Y-31950D02*
D03*
Y-33050D02*
D03*
Y-35750D02*
D03*
Y-34650D02*
D03*
D70*
X-26200Y-10175D02*
D03*
X-27850D02*
D03*
D71*
X-24075Y-7800D02*
D03*
Y-6150D02*
D03*
D72*
X-3875Y-9725D02*
D03*
X-3225D02*
D03*
X-2575D02*
D03*
Y-7875D02*
D03*
X-3225D02*
D03*
X-3875D02*
D03*
D73*
X-26650Y-4350D02*
D03*
Y-3100D02*
D03*
X-25650D02*
D03*
X-26150Y-4350D02*
D03*
Y-3100D02*
D03*
D74*
X-25650Y-4300D02*
D03*
D75*
X-38600Y-7500D02*
D03*
Y-3500D02*
D03*
X-41600Y-7500D02*
D03*
X-38600Y-5500D02*
D03*
X-41600D02*
D03*
Y-3500D02*
D03*
X-38600Y-1500D02*
D03*
X-41600D02*
D03*
X-26000D02*
D03*
X-33000D02*
D03*
D76*
X-11681Y-14644D02*
D03*
X-11681Y-13664D02*
D03*
X-11681Y-12319D02*
D03*
X-11681Y-11339D02*
D03*
D77*
X-12556Y-13504D02*
D03*
Y-14154D02*
D03*
Y-14804D02*
D03*
X-10806D02*
D03*
Y-14154D02*
D03*
Y-13504D02*
D03*
X-12556Y-11179D02*
D03*
Y-11829D02*
D03*
Y-12479D02*
D03*
X-10806D02*
D03*
Y-11829D02*
D03*
Y-11179D02*
D03*
D78*
X-22100Y-23700D02*
D03*
Y-23050D02*
D03*
Y-22400D02*
D03*
Y-21750D02*
D03*
Y-20450D02*
D03*
Y-19800D02*
D03*
Y-19150D02*
D03*
Y-21100D02*
D03*
X-22750D02*
D03*
X-23400D02*
D03*
X-24050D02*
D03*
X-24700D02*
D03*
X-25350D02*
D03*
X-26000D02*
D03*
X-26650D02*
D03*
X-27300D02*
D03*
X-27950D02*
D03*
X-22750Y-23700D02*
D03*
X-23400D02*
D03*
X-24050D02*
D03*
X-24700D02*
D03*
X-25350D02*
D03*
X-26000D02*
D03*
X-26650D02*
D03*
X-27300D02*
D03*
X-27950D02*
D03*
X-22750Y-23050D02*
D03*
X-23400D02*
D03*
X-24050D02*
D03*
X-24700D02*
D03*
X-25350D02*
D03*
X-26000D02*
D03*
X-26650D02*
D03*
X-27300D02*
D03*
X-27950D02*
D03*
X-22750Y-22400D02*
D03*
X-23400D02*
D03*
X-24050D02*
D03*
X-24700D02*
D03*
X-25350D02*
D03*
X-26000D02*
D03*
X-26650D02*
D03*
X-27300D02*
D03*
X-27950D02*
D03*
X-22750Y-21750D02*
D03*
X-23400D02*
D03*
X-24050D02*
D03*
X-24700D02*
D03*
X-25350D02*
D03*
X-26000D02*
D03*
X-26650D02*
D03*
X-27300D02*
D03*
X-27950D02*
D03*
X-22750Y-20450D02*
D03*
X-23400D02*
D03*
X-24050D02*
D03*
X-24700D02*
D03*
X-25350D02*
D03*
X-26000D02*
D03*
X-26650D02*
D03*
X-27300D02*
D03*
X-27950D02*
D03*
X-22750Y-19800D02*
D03*
X-23400D02*
D03*
X-24050D02*
D03*
X-24700D02*
D03*
X-25350D02*
D03*
X-26000D02*
D03*
X-26650D02*
D03*
X-27300D02*
D03*
X-27950D02*
D03*
X-22750Y-19150D02*
D03*
X-23400D02*
D03*
X-24050D02*
D03*
X-24700D02*
D03*
X-25350D02*
D03*
X-26000D02*
D03*
X-26650D02*
D03*
X-27300D02*
D03*
X-27950D02*
D03*
X-22100Y-18500D02*
D03*
X-22750D02*
D03*
X-23400D02*
D03*
X-24050D02*
D03*
X-24700D02*
D03*
X-25350D02*
D03*
X-26000D02*
D03*
X-26650D02*
D03*
X-27300D02*
D03*
X-27950D02*
D03*
X-22100Y-17850D02*
D03*
X-22750D02*
D03*
X-23400D02*
D03*
X-24050D02*
D03*
X-24700D02*
D03*
X-25350D02*
D03*
X-26000D02*
D03*
X-26650D02*
D03*
X-27300D02*
D03*
X-27950D02*
D03*
D79*
X-13775Y-19100D02*
D03*
X-15625Y-21400D02*
D03*
Y-19100D02*
D03*
X-13775Y-21400D02*
D03*
D80*
X-27775Y-8400D02*
D03*
Y-7750D02*
D03*
Y-7100D02*
D03*
X-25675D02*
D03*
Y-7750D02*
D03*
Y-8400D02*
D03*
D81*
X-26725Y-7750D02*
D03*
D82*
X-15007Y-14176D02*
D03*
Y-12476D02*
D03*
D83*
X-22422Y-22729D02*
X-21675D01*
X-28115Y-20775D02*
X-27625D01*
Y-22075D02*
X-27300Y-21750D01*
X-27625Y-21425D02*
X-27300Y-21100D01*
X-27625Y-20775D02*
X-27300Y-20450D01*
X-27625Y-20125D02*
X-27300Y-19800D01*
X-27625Y-18825D02*
X-27300Y-19150D01*
X-27625Y-18175D02*
X-27300Y-18500D01*
X-23400Y-19800D02*
X-23075Y-20125D01*
X-22750Y-21100D02*
Y-20450D01*
Y-21100D02*
X-22425Y-21425D01*
X-21825D01*
X-26325Y-21425D02*
X-26000Y-21100D01*
X-26825Y-21425D02*
X-26325D01*
X-28200Y-22075D02*
X-27625D01*
X-27628Y-22729D02*
X-27300Y-22400D01*
X-27628Y-23928D02*
Y-22729D01*
X-23722Y-22072D02*
X-23400Y-21750D01*
X-25675Y-23375D02*
X-25350Y-23050D01*
X-25675Y-24050D02*
Y-23375D01*
X-23400Y-23050D02*
X-23075Y-23375D01*
X-28150Y-20125D02*
X-27625D01*
X-22448Y-19476D02*
X-21930D01*
X-28225Y-19475D02*
X-26975D01*
X-28200Y-18825D02*
X-27625D01*
X-28115Y-18175D02*
X-27625D01*
X-26975Y-23900D02*
Y-21575D01*
X-22751Y-19174D02*
X-22448Y-19476D01*
X-26975Y-21575D02*
X-26825Y-21425D01*
X-28159Y-21425D02*
X-27625D01*
X-22751Y-18524D02*
X-22402Y-18175D01*
X-23075Y-20125D02*
X-21525D01*
X-26976Y-18174D02*
Y-17684D01*
X-22402Y-18175D02*
X-21875D01*
X-21525Y-20125D02*
X-21375Y-19975D01*
X-22750Y-22400D02*
X-22422Y-22729D01*
X-23722Y-23865D02*
Y-22072D01*
X-23075Y-23857D02*
Y-23375D01*
D84*
X-15007Y-13326D02*
D03*
M02*
