M48
;Layer_Color=9474304
;FILE_FORMAT=4:3
METRIC,TZ
;TYPE=PLATED
T1F00S00C0.200
T2F00S00C0.250
T3F00S00C0.650
T6F00S00C1.000
T7F00S00C2.700
%
T01
X-26325Y-22725
X-25675Y-22075
Y-21425
X-25675Y-20125
X-26325
X-26975Y-18825
X-25675Y-18175
X-25025
X-25025Y-19475
Y-20125
X-24375
X-25025Y-21425
X-25025Y-22075
X-25025Y-22725
X-24375Y-22725
X-23075Y-22075
Y-18825
X-23725Y-18825
T02
X-23141Y-43986
X-28034Y-43925
X-28730Y-46905
X-27500Y-47075
X-26503Y-47250
X-28075Y-48051
X-28117Y-51700
X-30900Y-50125
X-31250Y-45700
X-30750Y-44975
X-33088Y-47000
X-50500Y-47975
X-50520Y-42856
X-46950Y-43075
X-47700Y-40400
X-47725Y-34450
X-46924Y-33526
X-47425Y-31851
X-48900Y-32450
X-48925Y-30350
X-51325Y-28450
X-51650Y-26250
X-49925Y-26675
X-50050Y-24025
X-50125Y-21100
X-50400Y-18625
X-52025Y-15975
X-50750Y-14300
X-49675Y-10850
X-49961Y-9908
X-44050Y-10375
X-37787Y-8312
X-36625Y-11450
X-34425Y-14250
X-33675Y-13625
X-27925Y-13700
X-27300
X-26800Y-15100
X-27950Y-16175
X-31025Y-17175
X-30500Y-17800
X-32177Y-18201
X-31853Y-21425
X-30875Y-23175
X-29250Y-22050
X-29060Y-26000
X-26653Y-25350
X-26075Y-24675
X-26280Y-28900
X-27580
X-27190Y-36000
X-28925Y-36525
X-29750Y-36775
X-28750Y-38600
X-27800Y-38100
X-27075Y-38600
X-29450Y-41450
Y-42550
X-30550
Y-41450
X-32700Y-42475
X-33542Y-40750
X-32875Y-39725
X-32300Y-39075
X-33775Y-36796
X-33802Y-36052
X-36425Y-35808
X-36951Y-35325
X-38200Y-35400
X-38175Y-34600
X-38175Y-31313
X-40900Y-30725
X-41550Y-28950
X-42800Y-26675
X-43725
X-46350
X-46550Y-23900
X-43024Y-22700
X-40550Y-22675
X-39225Y-24975
X-39700Y-26675
X-37825Y-27475
X-37200Y-24250
X-35925Y-24250
X-36275Y-21825
X-38700Y-20775
X-44200Y-20225
X-51625Y-22500
X-56500Y-21775
X-55550Y-17925
X-56106Y-13748
X-55625Y-12125
X-58075Y-14250
X-58250Y-28925
X-57600Y-30900
X-58575Y-31875
X-56475
X-55025Y-32850
X-52750Y-32799
X-43800Y-32650
Y-31850
Y-30525
Y-33450
X-44524Y-33850
X-42399Y-37451
X-36036Y-38686
X-33725Y-5483
X-32975Y-5475
X-28575Y-5825
X-27276Y-4975
X-25876Y-6424
X-26725Y-7350
Y-8150
X-25676Y-8975
X-24925Y-10675
X-22100Y-12450
X-22100Y-15100
X-23925Y-14375
X-19035Y-17400
X-18675Y-18275
X-19600Y-18200
X-19450Y-19070
X-18525Y-21400
X-17530Y-20750
X-21100Y-21425
X-20102Y-25200
X-18950Y-25126
X-17650
X-16700Y-26050
X-16701Y-26826
X-13750Y-28900
Y-33175
X-17650Y-32650
X-18950
X-20450Y-31800
X-21450Y-32625
X-22550Y-31800
X-24284Y-31800
X-25000Y-33550
X-23495Y-33550
X-22550Y-29800
X-20450Y-29800
X-24150Y-27856
X-24951Y-27851
X-25475Y-27275
X-24050Y-26400
X-23050Y-26525
X-12600Y-25325
X-13751Y-23451
X-16725Y-16050
X-17800Y-16700
X-17025Y-10075
X-16050Y-8775
X-17076Y-7075
X-16900Y-5500
X-16076Y-5575
X-14300Y-5600
X-12025Y-7075
X-12750Y-9050
X-13425Y-10923
X-13207Y-11828
X-10057
X-9800Y-11126
X-10057Y-13503
X-6800Y-11025
X-4550Y-9800
X-3875Y-7025
X-1250Y-6825
X-775Y-11100
X-1250Y-12800
X-8625Y-29125
X-8275Y-35602
X-10800Y-36852
X-11350Y-36350
X-11775Y-39840
X-12900Y-39725
X-17751Y-37052
X-18275Y-37575
X-19405Y-38100
X-19875Y-38625
X-25224Y-41550
X-19625Y-6125
X-22814Y-2750
X-24925Y-1500
X-7600Y-1993
X-29125Y-1525
X-30075
X-29101Y-2751
X-32800Y-3879
X-33717
X-34125Y-2150
X-40500Y-1500
T03
X-8240Y-23010
X-6970
Y-21740
X-5700
X-4430
X-3160
Y-23010
X-4430
X-5700
X-8240Y-21740
T06
X-23650Y-55570
Y-53030
X-21110
X-18570
Y-55570
X-21110
X-6970Y-51590
Y-49050
X-4430
Y-46510
X-6970
Y-43970
X-4430
Y-51590
X-26190Y-53030
X-28730
X-31270
Y-55570
X-33810
Y-53030
X-36350
Y-55570
X-38890
X-41430
Y-53030
X-38890
X-28730Y-55570
X-26190
X-36696Y-19840
Y-17300
Y-14760
X-41776
Y-17300
Y-19840
X-41270Y-10950
X-38730
X-6970Y-13490
X-4430
Y-16030
X-6970
Y-28730
X-4430
Y-31270
X-6970
Y-33810
X-4430
Y-36350
Y-38890
X-6970
Y-36350
Y-41430
X-4430
T07
X-2350Y-57650
X-57650
X-2350Y-2350
X-57650
M30
