G04 EAGLE Gerber RS-274X export*
G75*
%MOMM*%
%FSLAX34Y34*%
%LPD*%
%INSolderpaste Top*%
%IPPOS*%
%AMOC8*
5,1,8,0,0,1.08239X$1,22.5*%
G01*
%ADD10R,0.620000X0.620000*%
%ADD11R,0.508000X1.270000*%
%ADD12R,0.195575X0.685800*%
%ADD13R,1.270000X0.508000*%
%ADD14R,2.235200X2.489200*%
%ADD15R,0.660000X0.900000*%
%ADD16R,1.168400X1.600200*%
%ADD17C,0.254000*%
%ADD18C,0.250000*%
%ADD19R,2.000000X0.800000*%
%ADD20R,2.200000X1.050000*%
%ADD21R,0.800000X1.000000*%
%ADD22R,2.250000X0.600000*%
%ADD23R,1.500000X0.750000*%
%ADD24R,0.375000X0.375000*%
%ADD25R,1.000000X1.000000*%
%ADD26R,1.050000X2.200000*%
%ADD27R,1.000000X0.800000*%
%ADD28R,0.500000X0.500000*%
%ADD29R,0.375000X0.375000*%
%ADD30R,0.500000X0.500000*%
%ADD31R,2.000000X2.800000*%
%ADD32R,2.800000X2.600000*%
%ADD33R,2.200000X2.800000*%
%ADD34R,2.489200X2.235200*%
%ADD35R,1.150000X1.450000*%


D10*
X328858Y117602D03*
X319858Y117602D03*
X329874Y140462D03*
X320874Y140462D03*
X283138Y174752D03*
X274138Y174752D03*
X294132Y187634D03*
X294132Y178634D03*
X146630Y281940D03*
X155630Y281940D03*
X146630Y257810D03*
X155630Y257810D03*
X181030Y257810D03*
X172030Y257810D03*
X181030Y281940D03*
X172030Y281940D03*
X237998Y148010D03*
X237998Y139010D03*
X216662Y149788D03*
X216662Y140788D03*
X226242Y185420D03*
X217242Y185420D03*
D11*
X92202Y356870D03*
X92202Y405130D03*
X104902Y356870D03*
X104902Y405130D03*
X117602Y356870D03*
X117602Y405130D03*
X130302Y356870D03*
X130302Y405130D03*
X143002Y356870D03*
X143002Y405130D03*
D12*
X251981Y35433D03*
X247981Y35433D03*
X243981Y35433D03*
X239981Y35433D03*
X235981Y35433D03*
X231981Y35433D03*
X227981Y35433D03*
X223981Y35433D03*
X219981Y35433D03*
X215981Y35433D03*
X211981Y35433D03*
X295981Y35433D03*
X291981Y35433D03*
X287981Y35433D03*
X283981Y35433D03*
X279981Y35433D03*
X275981Y35433D03*
X271981Y35433D03*
X267981Y35433D03*
X263981Y35433D03*
X259981Y35433D03*
X255981Y35433D03*
X251981Y66167D03*
X247981Y66167D03*
X243981Y66167D03*
X239981Y66167D03*
X235981Y66167D03*
X231981Y66167D03*
X227981Y66167D03*
X223981Y66167D03*
X219981Y66167D03*
X215981Y66167D03*
X211981Y66167D03*
X295981Y66167D03*
X291981Y66167D03*
X287981Y66167D03*
X283981Y66167D03*
X279981Y66167D03*
X275981Y66167D03*
X271981Y66167D03*
X267981Y66167D03*
X263981Y66167D03*
X259981Y66167D03*
X255981Y66167D03*
D13*
X345694Y140970D03*
X393954Y140970D03*
X345694Y128270D03*
X393954Y128270D03*
X345694Y115570D03*
X393954Y115570D03*
X345694Y102870D03*
X393954Y102870D03*
X345694Y90170D03*
X393954Y90170D03*
D14*
X293116Y211328D03*
X288036Y156210D03*
X326136Y99060D03*
X232156Y86106D03*
X203708Y86614D03*
X325374Y158496D03*
X153416Y239522D03*
X176530Y299720D03*
X218948Y167894D03*
X261112Y139446D03*
X178816Y240030D03*
X151130Y299720D03*
D15*
X239494Y162160D03*
X261394Y162160D03*
X261394Y175660D03*
X239494Y175660D03*
D16*
G36*
X418916Y194122D02*
X407233Y194143D01*
X407260Y210144D01*
X418943Y210123D01*
X418916Y194122D01*
G37*
G36*
X434156Y194095D02*
X422473Y194116D01*
X422500Y210117D01*
X434183Y210096D01*
X434156Y194095D01*
G37*
G36*
X449396Y194068D02*
X437713Y194089D01*
X437740Y210090D01*
X449423Y210069D01*
X449396Y194068D01*
G37*
D17*
X330374Y126532D03*
X330374Y131532D03*
X325374Y126532D03*
X325374Y131532D03*
X320374Y126532D03*
X320374Y131532D03*
X229830Y149018D03*
X224830Y149018D03*
X229830Y144018D03*
X224830Y144018D03*
X229830Y139018D03*
X224830Y139018D03*
D18*
X200126Y129888D02*
X188126Y129888D01*
X188126Y124888D02*
X200126Y124888D01*
X200126Y119888D02*
X188126Y119888D01*
X188126Y114888D02*
X200126Y114888D01*
X200126Y109888D02*
X188126Y109888D01*
X228626Y109888D02*
X240626Y109888D01*
X240626Y114888D02*
X228626Y114888D01*
X228626Y119888D02*
X240626Y119888D01*
X240626Y124888D02*
X228626Y124888D01*
X228626Y129888D02*
X240626Y129888D01*
D19*
X380974Y235188D03*
X380974Y255188D03*
X380974Y275188D03*
X380974Y295188D03*
X380974Y315188D03*
X380974Y335188D03*
X380974Y355188D03*
X380974Y375188D03*
X218974Y375188D03*
X218974Y355188D03*
X218974Y335188D03*
X218974Y315188D03*
X218974Y295188D03*
X218974Y275188D03*
X218974Y255188D03*
X218974Y235188D03*
D18*
X191350Y200820D02*
X179350Y200820D01*
X179350Y205820D02*
X191350Y205820D01*
X191350Y210820D02*
X179350Y210820D01*
X179350Y215820D02*
X191350Y215820D01*
X191350Y220820D02*
X179350Y220820D01*
X150850Y220820D02*
X138850Y220820D01*
X138850Y215820D02*
X150850Y215820D01*
X150850Y210820D02*
X138850Y210820D01*
X138850Y205820D02*
X150850Y205820D01*
X150850Y200820D02*
X138850Y200820D01*
X287180Y102844D02*
X287180Y90844D01*
X292180Y90844D02*
X292180Y102844D01*
X297180Y102844D02*
X297180Y90844D01*
X302180Y90844D02*
X302180Y102844D01*
X307180Y102844D02*
X307180Y90844D01*
X307180Y131344D02*
X307180Y143344D01*
X302180Y143344D02*
X302180Y131344D01*
X297180Y131344D02*
X297180Y143344D01*
X292180Y143344D02*
X292180Y131344D01*
X287180Y131344D02*
X287180Y143344D01*
D17*
X284146Y183682D03*
X284146Y188682D03*
X279146Y183682D03*
X279146Y188682D03*
X274146Y183682D03*
X274146Y188682D03*
X146130Y273010D03*
X146130Y268010D03*
X151130Y273010D03*
X151130Y268010D03*
X156130Y273010D03*
X156130Y268010D03*
X181530Y266740D03*
X181530Y271740D03*
X176530Y266740D03*
X176530Y271740D03*
X171530Y266740D03*
X171530Y271740D03*
D20*
X482854Y187418D03*
X482854Y214918D03*
D21*
X467604Y201168D03*
D22*
X489808Y125390D03*
X489808Y75390D03*
D23*
X489808Y100390D03*
D24*
X501492Y36466D03*
X501492Y46466D03*
X460832Y60426D03*
X460832Y50426D03*
D25*
X83886Y314326D03*
X83886Y330326D03*
X123886Y330326D03*
X123886Y314326D03*
X212918Y197740D03*
X212918Y213740D03*
X252918Y213740D03*
X252918Y197740D03*
D20*
X14478Y375700D03*
X14478Y348200D03*
D21*
X29728Y361950D03*
D26*
X44924Y363474D03*
X72424Y363474D03*
D27*
X58674Y378724D03*
D26*
X31716Y319278D03*
X59216Y319278D03*
D27*
X45466Y334528D03*
D28*
X35234Y336042D03*
X26234Y336042D03*
D29*
G36*
X415116Y178143D02*
X411869Y180018D01*
X413744Y183265D01*
X416991Y181390D01*
X415116Y178143D01*
G37*
G36*
X423776Y173143D02*
X420529Y175018D01*
X422404Y178265D01*
X425651Y176390D01*
X423776Y173143D01*
G37*
G36*
X428401Y170497D02*
X430276Y173744D01*
X433523Y171869D01*
X431648Y168622D01*
X428401Y170497D01*
G37*
G36*
X423401Y161836D02*
X425276Y165083D01*
X428523Y163208D01*
X426648Y159961D01*
X423401Y161836D01*
G37*
G36*
X452958Y156319D02*
X454833Y159566D01*
X458080Y157691D01*
X456205Y154444D01*
X452958Y156319D01*
G37*
G36*
X447958Y147658D02*
X449833Y150905D01*
X453080Y149030D01*
X451205Y145783D01*
X447958Y147658D01*
G37*
D30*
G36*
X440201Y162938D02*
X435871Y165438D01*
X438371Y169768D01*
X442701Y167268D01*
X440201Y162938D01*
G37*
G36*
X447996Y158438D02*
X443666Y160938D01*
X446166Y165268D01*
X450496Y162768D01*
X447996Y158438D01*
G37*
D31*
X12828Y16594D03*
D32*
X134828Y17594D03*
D33*
X59828Y90594D03*
X40828Y16594D03*
D10*
X182118Y138502D03*
X182118Y147502D03*
X172394Y150876D03*
X163394Y150876D03*
D17*
X173402Y136946D03*
X173402Y141946D03*
X168402Y136946D03*
X168402Y141946D03*
X163402Y136946D03*
X163402Y141946D03*
D34*
X169926Y169164D03*
D14*
X172974Y120142D03*
D35*
X81678Y11176D03*
X99678Y11176D03*
X113648Y96266D03*
X95648Y96266D03*
D14*
X200154Y366836D03*
D10*
X191842Y139446D03*
X200842Y139446D03*
X192206Y188468D03*
X183206Y188468D03*
X276098Y97354D03*
X276098Y106354D03*
D17*
X0Y0D02*
X482600Y0D01*
X484814Y97D01*
X487011Y386D01*
X489174Y865D01*
X491287Y1532D01*
X493335Y2380D01*
X495300Y3403D01*
X497169Y4594D01*
X498927Y5942D01*
X500561Y7440D01*
X502058Y9073D01*
X503406Y10831D01*
X504597Y12700D01*
X505620Y14666D01*
X506468Y16713D01*
X507135Y18826D01*
X507614Y20989D01*
X507903Y23186D01*
X508000Y25400D01*
X508000Y203200D01*
X507903Y205414D01*
X507614Y207611D01*
X507135Y209774D01*
X506468Y211887D01*
X505620Y213935D01*
X504597Y215900D01*
X503406Y217769D01*
X502058Y219527D01*
X500561Y221161D01*
X498927Y222658D01*
X497169Y224006D01*
X495300Y225197D01*
X493335Y226220D01*
X491287Y227068D01*
X489174Y227735D01*
X487011Y228214D01*
X484814Y228503D01*
X482600Y228600D01*
X419100Y228600D01*
X416886Y228697D01*
X414689Y228986D01*
X412526Y229465D01*
X410413Y230132D01*
X408366Y230980D01*
X406400Y232003D01*
X404531Y233194D01*
X402773Y234542D01*
X401140Y236040D01*
X399642Y237673D01*
X398294Y239431D01*
X397103Y241300D01*
X396080Y243266D01*
X395232Y245313D01*
X394565Y247426D01*
X394086Y249589D01*
X393797Y251786D01*
X393700Y254000D01*
X393700Y419100D01*
X393603Y421314D01*
X393314Y423511D01*
X392835Y425674D01*
X392168Y427787D01*
X391320Y429835D01*
X390297Y431800D01*
X389106Y433669D01*
X387758Y435427D01*
X386261Y437061D01*
X384627Y438558D01*
X382869Y439906D01*
X381000Y441097D01*
X379035Y442120D01*
X376987Y442968D01*
X374874Y443635D01*
X372711Y444114D01*
X370514Y444403D01*
X368300Y444500D01*
X25400Y444500D01*
X22922Y444115D01*
X20486Y443515D01*
X18112Y442705D01*
X15818Y441691D01*
X13621Y440481D01*
X11538Y439084D01*
X9584Y437511D01*
X7775Y435774D01*
X6124Y433886D01*
X4644Y431860D01*
X3347Y429714D01*
X2241Y427463D01*
X1335Y425124D01*
X637Y422715D01*
X152Y420254D01*
X-117Y417760D01*
X-168Y415253D01*
X0Y412750D01*
X0Y330200D01*
X97Y327986D01*
X386Y325789D01*
X865Y323626D01*
X1532Y321513D01*
X2380Y319466D01*
X3403Y317500D01*
X4594Y315631D01*
X5942Y313873D01*
X7440Y312240D01*
X9073Y310742D01*
X10831Y309394D01*
X12700Y308203D01*
X14666Y307180D01*
X16713Y306332D01*
X18826Y305665D01*
X20989Y305186D01*
X23186Y304897D01*
X25400Y304800D01*
X101600Y304800D01*
X103814Y304703D01*
X106011Y304414D01*
X108174Y303935D01*
X110287Y303268D01*
X112335Y302420D01*
X114300Y301397D01*
X116169Y300206D01*
X117927Y298858D01*
X119561Y297361D01*
X121058Y295727D01*
X122406Y293969D01*
X123597Y292100D01*
X124620Y290135D01*
X125468Y288087D01*
X126135Y285974D01*
X126614Y283811D01*
X126903Y281614D01*
X127000Y279400D01*
X127000Y132588D01*
X126903Y130374D01*
X126614Y128177D01*
X126135Y126014D01*
X125468Y123901D01*
X124620Y121854D01*
X123597Y119888D01*
X122406Y118019D01*
X121058Y116261D01*
X119561Y114628D01*
X117927Y113130D01*
X116169Y111782D01*
X114300Y110591D01*
X112335Y109568D01*
X110287Y108720D01*
X108174Y108053D01*
X106011Y107574D01*
X103814Y107285D01*
X101600Y107188D01*
X25400Y107188D01*
X23186Y107091D01*
X20989Y106802D01*
X18826Y106323D01*
X16713Y105656D01*
X14666Y104808D01*
X12700Y103785D01*
X10831Y102594D01*
X9073Y101246D01*
X7440Y99749D01*
X5942Y98115D01*
X4594Y96357D01*
X3403Y94488D01*
X2380Y92523D01*
X1532Y90475D01*
X865Y88362D01*
X386Y86199D01*
X97Y84002D01*
X0Y81788D01*
X0Y0D01*
M02*
