G04 EAGLE Gerber RS-274X export*
G75*
%MOMM*%
%FSLAX34Y34*%
%LPD*%
%INSolderpaste Bottom*%
%IPPOS*%
%AMOC8*
5,1,8,0,0,1.08239X$1,22.5*%
G01*
%ADD10R,0.812800X0.203200*%
%ADD11R,0.203200X0.812800*%
%ADD12R,0.620000X0.620000*%
%ADD13R,1.000000X0.950000*%
%ADD14R,0.230000X0.660000*%
%ADD15R,0.299200X0.609200*%
%ADD16C,0.325000*%
%ADD17C,0.200000*%
%ADD18R,0.400000X1.350000*%
%ADD19R,0.500000X0.500000*%
%ADD20R,2.057400X2.235200*%
%ADD21R,2.235200X2.057400*%
%ADD22R,1.000000X1.500000*%
%ADD23R,0.250000X0.750000*%
%ADD24R,0.750000X0.250000*%
%ADD25C,0.030000*%
%ADD26R,1.206400X0.480000*%
%ADD27R,0.900000X0.550000*%
%ADD28R,1.900000X1.100000*%
%ADD29R,1.100000X1.900000*%
%ADD30R,0.673100X0.304800*%
%ADD31R,0.800000X0.800000*%
%ADD32R,0.950000X1.000000*%
%ADD33R,0.900000X2.500000*%
%ADD34R,0.508000X0.965200*%
%ADD35R,1.295400X0.609600*%
%ADD36C,0.254000*%

G36*
X160292Y372985D02*
X160292Y372985D01*
X160294Y372984D01*
X160337Y373004D01*
X160381Y373022D01*
X160381Y373024D01*
X160383Y373025D01*
X160416Y373110D01*
X160416Y384064D01*
X160415Y384066D01*
X160416Y384068D01*
X160396Y384111D01*
X160378Y384155D01*
X160376Y384155D01*
X160375Y384157D01*
X160290Y384190D01*
X149336Y384190D01*
X149334Y384189D01*
X149332Y384190D01*
X149289Y384170D01*
X149245Y384152D01*
X149245Y384150D01*
X149243Y384149D01*
X149210Y384064D01*
X149210Y373110D01*
X149211Y373108D01*
X149210Y373106D01*
X149230Y373063D01*
X149248Y373019D01*
X149250Y373019D01*
X149251Y373017D01*
X149336Y372984D01*
X160290Y372984D01*
X160292Y372985D01*
G37*
G36*
X173246Y372985D02*
X173246Y372985D01*
X173248Y372984D01*
X173291Y373004D01*
X173335Y373022D01*
X173335Y373024D01*
X173337Y373025D01*
X173370Y373110D01*
X173370Y384064D01*
X173369Y384066D01*
X173370Y384068D01*
X173350Y384111D01*
X173332Y384155D01*
X173330Y384155D01*
X173329Y384157D01*
X173244Y384190D01*
X162290Y384190D01*
X162288Y384189D01*
X162286Y384190D01*
X162243Y384170D01*
X162199Y384152D01*
X162199Y384150D01*
X162197Y384149D01*
X162164Y384064D01*
X162164Y373110D01*
X162165Y373108D01*
X162164Y373106D01*
X162184Y373063D01*
X162202Y373019D01*
X162204Y373019D01*
X162205Y373017D01*
X162290Y372984D01*
X173244Y372984D01*
X173246Y372985D01*
G37*
G36*
X173246Y360031D02*
X173246Y360031D01*
X173248Y360030D01*
X173291Y360050D01*
X173335Y360068D01*
X173335Y360070D01*
X173337Y360071D01*
X173370Y360156D01*
X173370Y371110D01*
X173369Y371112D01*
X173370Y371114D01*
X173350Y371157D01*
X173332Y371201D01*
X173330Y371201D01*
X173329Y371203D01*
X173244Y371236D01*
X162290Y371236D01*
X162288Y371235D01*
X162286Y371236D01*
X162243Y371216D01*
X162199Y371198D01*
X162199Y371196D01*
X162197Y371195D01*
X162164Y371110D01*
X162164Y360156D01*
X162165Y360154D01*
X162164Y360152D01*
X162184Y360109D01*
X162202Y360065D01*
X162204Y360065D01*
X162205Y360063D01*
X162290Y360030D01*
X173244Y360030D01*
X173246Y360031D01*
G37*
G36*
X160292Y360031D02*
X160292Y360031D01*
X160294Y360030D01*
X160337Y360050D01*
X160381Y360068D01*
X160381Y360070D01*
X160383Y360071D01*
X160416Y360156D01*
X160416Y371110D01*
X160415Y371112D01*
X160416Y371114D01*
X160396Y371157D01*
X160378Y371201D01*
X160376Y371201D01*
X160375Y371203D01*
X160290Y371236D01*
X149336Y371236D01*
X149334Y371235D01*
X149332Y371236D01*
X149289Y371216D01*
X149245Y371198D01*
X149245Y371196D01*
X149243Y371195D01*
X149210Y371110D01*
X149210Y360156D01*
X149211Y360154D01*
X149210Y360152D01*
X149230Y360109D01*
X149248Y360065D01*
X149250Y360065D01*
X149251Y360063D01*
X149336Y360030D01*
X160290Y360030D01*
X160292Y360031D01*
G37*
G36*
X171706Y69836D02*
X171706Y69836D01*
X171709Y69835D01*
X171792Y69872D01*
X173206Y71286D01*
X173208Y71289D01*
X173210Y71290D01*
X173243Y71375D01*
X173243Y74421D01*
X173242Y74424D01*
X173243Y74427D01*
X173206Y74510D01*
X171792Y75924D01*
X171789Y75926D01*
X171788Y75928D01*
X171703Y75961D01*
X168657Y75961D01*
X168654Y75960D01*
X168651Y75961D01*
X168568Y75924D01*
X167154Y74510D01*
X167153Y74507D01*
X167150Y74506D01*
X167117Y74421D01*
X167117Y71375D01*
X167118Y71372D01*
X167117Y71369D01*
X167154Y71286D01*
X168568Y69872D01*
X168571Y69871D01*
X168572Y69868D01*
X168657Y69835D01*
X171703Y69835D01*
X171706Y69836D01*
G37*
G36*
X163832Y69836D02*
X163832Y69836D01*
X163835Y69835D01*
X163918Y69872D01*
X165332Y71286D01*
X165334Y71289D01*
X165336Y71290D01*
X165369Y71375D01*
X165369Y74421D01*
X165368Y74424D01*
X165369Y74427D01*
X165332Y74510D01*
X163918Y75924D01*
X163915Y75926D01*
X163914Y75928D01*
X163829Y75961D01*
X160783Y75961D01*
X160780Y75960D01*
X160777Y75961D01*
X160694Y75924D01*
X159280Y74510D01*
X159279Y74507D01*
X159276Y74506D01*
X159243Y74421D01*
X159243Y71375D01*
X159244Y71372D01*
X159243Y71369D01*
X159280Y71286D01*
X160694Y69872D01*
X160697Y69871D01*
X160698Y69868D01*
X160783Y69835D01*
X163829Y69835D01*
X163832Y69836D01*
G37*
G36*
X163832Y61962D02*
X163832Y61962D01*
X163835Y61961D01*
X163918Y61998D01*
X165332Y63412D01*
X165334Y63415D01*
X165336Y63416D01*
X165369Y63501D01*
X165369Y66547D01*
X165368Y66550D01*
X165369Y66553D01*
X165332Y66636D01*
X163918Y68050D01*
X163915Y68052D01*
X163914Y68054D01*
X163829Y68087D01*
X160783Y68087D01*
X160780Y68086D01*
X160777Y68087D01*
X160694Y68050D01*
X159280Y66636D01*
X159279Y66633D01*
X159276Y66632D01*
X159243Y66547D01*
X159243Y63501D01*
X159244Y63498D01*
X159243Y63495D01*
X159280Y63412D01*
X160694Y61998D01*
X160697Y61997D01*
X160698Y61994D01*
X160783Y61961D01*
X163829Y61961D01*
X163832Y61962D01*
G37*
G36*
X155958Y61962D02*
X155958Y61962D01*
X155961Y61961D01*
X156044Y61998D01*
X157458Y63412D01*
X157460Y63415D01*
X157462Y63416D01*
X157495Y63501D01*
X157495Y66547D01*
X157494Y66550D01*
X157495Y66553D01*
X157458Y66636D01*
X156044Y68050D01*
X156041Y68052D01*
X156040Y68054D01*
X155955Y68087D01*
X152909Y68087D01*
X152906Y68086D01*
X152903Y68087D01*
X152820Y68050D01*
X151406Y66636D01*
X151405Y66633D01*
X151402Y66632D01*
X151369Y66547D01*
X151369Y63501D01*
X151370Y63498D01*
X151369Y63495D01*
X151406Y63412D01*
X152820Y61998D01*
X152823Y61997D01*
X152824Y61994D01*
X152909Y61961D01*
X155955Y61961D01*
X155958Y61962D01*
G37*
G36*
X171706Y61962D02*
X171706Y61962D01*
X171709Y61961D01*
X171792Y61998D01*
X173206Y63412D01*
X173208Y63415D01*
X173210Y63416D01*
X173243Y63501D01*
X173243Y66547D01*
X173242Y66550D01*
X173243Y66553D01*
X173206Y66636D01*
X171792Y68050D01*
X171789Y68052D01*
X171788Y68054D01*
X171703Y68087D01*
X168657Y68087D01*
X168654Y68086D01*
X168651Y68087D01*
X168568Y68050D01*
X167154Y66636D01*
X167153Y66633D01*
X167150Y66632D01*
X167117Y66547D01*
X167117Y63501D01*
X167118Y63498D01*
X167117Y63495D01*
X167154Y63412D01*
X168568Y61998D01*
X168571Y61997D01*
X168572Y61994D01*
X168657Y61961D01*
X171703Y61961D01*
X171706Y61962D01*
G37*
G36*
X155958Y69836D02*
X155958Y69836D01*
X155961Y69835D01*
X156044Y69872D01*
X157458Y71286D01*
X157460Y71289D01*
X157462Y71290D01*
X157495Y71375D01*
X157495Y74421D01*
X157494Y74424D01*
X157495Y74427D01*
X157458Y74510D01*
X156044Y75924D01*
X156041Y75926D01*
X156040Y75928D01*
X155955Y75961D01*
X152909Y75961D01*
X152906Y75960D01*
X152903Y75961D01*
X152820Y75924D01*
X151406Y74510D01*
X151405Y74507D01*
X151402Y74506D01*
X151369Y74421D01*
X151369Y71375D01*
X151370Y71372D01*
X151369Y71369D01*
X151406Y71286D01*
X152820Y69872D01*
X152823Y69871D01*
X152824Y69868D01*
X152909Y69835D01*
X155955Y69835D01*
X155958Y69836D01*
G37*
G36*
X155958Y77710D02*
X155958Y77710D01*
X155961Y77709D01*
X156044Y77746D01*
X157458Y79160D01*
X157460Y79163D01*
X157462Y79164D01*
X157495Y79249D01*
X157495Y82295D01*
X157494Y82298D01*
X157495Y82301D01*
X157458Y82384D01*
X156044Y83798D01*
X156041Y83800D01*
X156040Y83802D01*
X155955Y83835D01*
X152909Y83835D01*
X152906Y83834D01*
X152903Y83835D01*
X152820Y83798D01*
X151406Y82384D01*
X151405Y82381D01*
X151402Y82380D01*
X151369Y82295D01*
X151369Y79249D01*
X151370Y79246D01*
X151369Y79243D01*
X151406Y79160D01*
X152820Y77746D01*
X152823Y77745D01*
X152824Y77742D01*
X152909Y77709D01*
X155955Y77709D01*
X155958Y77710D01*
G37*
G36*
X171706Y77710D02*
X171706Y77710D01*
X171709Y77709D01*
X171792Y77746D01*
X173206Y79160D01*
X173208Y79163D01*
X173210Y79164D01*
X173243Y79249D01*
X173243Y82295D01*
X173242Y82298D01*
X173243Y82301D01*
X173206Y82384D01*
X171792Y83798D01*
X171789Y83800D01*
X171788Y83802D01*
X171703Y83835D01*
X168657Y83835D01*
X168654Y83834D01*
X168651Y83835D01*
X168568Y83798D01*
X167154Y82384D01*
X167153Y82381D01*
X167150Y82380D01*
X167117Y82295D01*
X167117Y79249D01*
X167118Y79246D01*
X167117Y79243D01*
X167154Y79160D01*
X168568Y77746D01*
X168571Y77745D01*
X168572Y77742D01*
X168657Y77709D01*
X171703Y77709D01*
X171706Y77710D01*
G37*
G36*
X163808Y77710D02*
X163808Y77710D01*
X163810Y77709D01*
X163853Y77729D01*
X163897Y77747D01*
X163897Y77749D01*
X163899Y77750D01*
X163932Y77835D01*
X163932Y77843D01*
X165330Y79157D01*
X165332Y79162D01*
X165336Y79164D01*
X165363Y79234D01*
X165369Y79247D01*
X165369Y79248D01*
X165369Y79249D01*
X165369Y82295D01*
X165368Y82298D01*
X165369Y82301D01*
X165332Y82384D01*
X163918Y83798D01*
X163915Y83800D01*
X163914Y83802D01*
X163829Y83835D01*
X160783Y83835D01*
X160780Y83834D01*
X160777Y83835D01*
X160694Y83798D01*
X159280Y82384D01*
X159279Y82381D01*
X159276Y82380D01*
X159243Y82295D01*
X159243Y79249D01*
X159244Y79246D01*
X159243Y79243D01*
X159280Y79160D01*
X160694Y77746D01*
X160697Y77745D01*
X160698Y77742D01*
X160783Y77709D01*
X163806Y77709D01*
X163808Y77710D01*
G37*
G36*
X173119Y56272D02*
X173119Y56272D01*
X173121Y56271D01*
X173164Y56291D01*
X173208Y56309D01*
X173208Y56311D01*
X173210Y56312D01*
X173243Y56397D01*
X173243Y58673D01*
X173243Y58674D01*
X173242Y58676D01*
X173243Y58679D01*
X173206Y58762D01*
X171792Y60176D01*
X171789Y60178D01*
X171788Y60180D01*
X171703Y60213D01*
X168657Y60213D01*
X168654Y60212D01*
X168651Y60213D01*
X168568Y60176D01*
X167154Y58762D01*
X167153Y58759D01*
X167150Y58758D01*
X167117Y58673D01*
X167117Y56397D01*
X167118Y56395D01*
X167117Y56393D01*
X167137Y56350D01*
X167155Y56307D01*
X167157Y56306D01*
X167158Y56304D01*
X167243Y56271D01*
X173117Y56271D01*
X173119Y56272D01*
G37*
G36*
X157371Y56272D02*
X157371Y56272D01*
X157373Y56271D01*
X157416Y56291D01*
X157460Y56309D01*
X157460Y56311D01*
X157462Y56312D01*
X157495Y56397D01*
X157495Y58673D01*
X157495Y58674D01*
X157494Y58676D01*
X157495Y58679D01*
X157458Y58762D01*
X156044Y60176D01*
X156041Y60178D01*
X156040Y60180D01*
X155955Y60213D01*
X152909Y60213D01*
X152906Y60212D01*
X152903Y60213D01*
X152820Y60176D01*
X151406Y58762D01*
X151405Y58759D01*
X151402Y58758D01*
X151369Y58673D01*
X151369Y56397D01*
X151370Y56395D01*
X151369Y56393D01*
X151389Y56350D01*
X151407Y56307D01*
X151409Y56306D01*
X151410Y56304D01*
X151495Y56271D01*
X157369Y56271D01*
X157371Y56272D01*
G37*
G36*
X165245Y56272D02*
X165245Y56272D01*
X165247Y56271D01*
X165290Y56291D01*
X165334Y56309D01*
X165334Y56311D01*
X165336Y56312D01*
X165369Y56397D01*
X165369Y58673D01*
X165369Y58674D01*
X165368Y58676D01*
X165369Y58679D01*
X165332Y58762D01*
X163918Y60176D01*
X163915Y60178D01*
X163914Y60180D01*
X163829Y60213D01*
X160783Y60213D01*
X160780Y60212D01*
X160777Y60213D01*
X160694Y60176D01*
X159280Y58762D01*
X159279Y58759D01*
X159276Y58758D01*
X159243Y58673D01*
X159243Y56397D01*
X159244Y56395D01*
X159243Y56393D01*
X159263Y56350D01*
X159281Y56307D01*
X159283Y56306D01*
X159284Y56304D01*
X159369Y56271D01*
X165243Y56271D01*
X165245Y56272D01*
G37*
G36*
X155958Y85584D02*
X155958Y85584D01*
X155961Y85583D01*
X156044Y85620D01*
X157458Y87034D01*
X157460Y87037D01*
X157462Y87038D01*
X157495Y87123D01*
X157495Y89399D01*
X157494Y89401D01*
X157495Y89403D01*
X157475Y89446D01*
X157457Y89489D01*
X157455Y89490D01*
X157454Y89492D01*
X157369Y89525D01*
X151495Y89525D01*
X151493Y89524D01*
X151491Y89525D01*
X151448Y89505D01*
X151404Y89487D01*
X151404Y89485D01*
X151402Y89484D01*
X151369Y89399D01*
X151369Y87123D01*
X151370Y87120D01*
X151369Y87117D01*
X151406Y87034D01*
X152820Y85620D01*
X152823Y85619D01*
X152824Y85616D01*
X152909Y85583D01*
X155955Y85583D01*
X155958Y85584D01*
G37*
G36*
X148084Y61962D02*
X148084Y61962D01*
X148087Y61961D01*
X148170Y61998D01*
X149584Y63412D01*
X149586Y63415D01*
X149588Y63416D01*
X149621Y63501D01*
X149621Y66547D01*
X149620Y66550D01*
X149621Y66553D01*
X149584Y66636D01*
X148170Y68050D01*
X148167Y68052D01*
X148166Y68054D01*
X148081Y68087D01*
X145805Y68087D01*
X145803Y68086D01*
X145801Y68087D01*
X145758Y68067D01*
X145715Y68049D01*
X145714Y68047D01*
X145712Y68046D01*
X145679Y67961D01*
X145679Y62087D01*
X145680Y62085D01*
X145679Y62083D01*
X145699Y62040D01*
X145717Y61996D01*
X145719Y61996D01*
X145720Y61994D01*
X145805Y61961D01*
X148081Y61961D01*
X148084Y61962D01*
G37*
G36*
X171706Y85584D02*
X171706Y85584D01*
X171709Y85583D01*
X171792Y85620D01*
X173206Y87034D01*
X173208Y87037D01*
X173210Y87038D01*
X173243Y87123D01*
X173243Y89399D01*
X173242Y89401D01*
X173243Y89403D01*
X173223Y89446D01*
X173205Y89489D01*
X173203Y89490D01*
X173202Y89492D01*
X173117Y89525D01*
X167243Y89525D01*
X167241Y89524D01*
X167239Y89525D01*
X167196Y89505D01*
X167152Y89487D01*
X167152Y89485D01*
X167150Y89484D01*
X167117Y89399D01*
X167117Y87123D01*
X167118Y87120D01*
X167117Y87117D01*
X167154Y87034D01*
X168568Y85620D01*
X168571Y85619D01*
X168572Y85616D01*
X168657Y85583D01*
X171703Y85583D01*
X171706Y85584D01*
G37*
G36*
X163832Y85584D02*
X163832Y85584D01*
X163835Y85583D01*
X163918Y85620D01*
X165332Y87034D01*
X165334Y87037D01*
X165336Y87038D01*
X165369Y87123D01*
X165369Y89399D01*
X165368Y89401D01*
X165369Y89403D01*
X165349Y89446D01*
X165331Y89489D01*
X165329Y89490D01*
X165328Y89492D01*
X165243Y89525D01*
X159369Y89525D01*
X159367Y89524D01*
X159365Y89525D01*
X159322Y89505D01*
X159278Y89487D01*
X159278Y89485D01*
X159276Y89484D01*
X159243Y89399D01*
X159243Y87123D01*
X159244Y87120D01*
X159243Y87117D01*
X159280Y87034D01*
X160694Y85620D01*
X160697Y85619D01*
X160698Y85616D01*
X160783Y85583D01*
X163829Y85583D01*
X163832Y85584D01*
G37*
G36*
X178809Y69836D02*
X178809Y69836D01*
X178811Y69835D01*
X178854Y69855D01*
X178897Y69873D01*
X178898Y69875D01*
X178900Y69876D01*
X178933Y69961D01*
X178933Y75835D01*
X178932Y75837D01*
X178933Y75839D01*
X178913Y75882D01*
X178895Y75926D01*
X178893Y75926D01*
X178892Y75928D01*
X178807Y75961D01*
X176531Y75961D01*
X176528Y75960D01*
X176525Y75961D01*
X176442Y75924D01*
X175028Y74510D01*
X175027Y74507D01*
X175024Y74506D01*
X174991Y74421D01*
X174991Y71375D01*
X174992Y71372D01*
X174991Y71369D01*
X175028Y71286D01*
X176442Y69872D01*
X176445Y69871D01*
X176446Y69868D01*
X176531Y69835D01*
X178807Y69835D01*
X178809Y69836D01*
G37*
G36*
X148084Y77710D02*
X148084Y77710D01*
X148087Y77709D01*
X148170Y77746D01*
X149584Y79160D01*
X149586Y79163D01*
X149588Y79164D01*
X149621Y79249D01*
X149621Y82295D01*
X149620Y82298D01*
X149621Y82301D01*
X149584Y82384D01*
X148170Y83798D01*
X148167Y83800D01*
X148166Y83802D01*
X148081Y83835D01*
X145805Y83835D01*
X145803Y83834D01*
X145801Y83835D01*
X145758Y83815D01*
X145715Y83797D01*
X145714Y83795D01*
X145712Y83794D01*
X145679Y83709D01*
X145679Y77835D01*
X145680Y77833D01*
X145679Y77831D01*
X145699Y77788D01*
X145717Y77744D01*
X145719Y77744D01*
X145720Y77742D01*
X145805Y77709D01*
X148081Y77709D01*
X148084Y77710D01*
G37*
G36*
X178809Y61962D02*
X178809Y61962D01*
X178811Y61961D01*
X178854Y61981D01*
X178897Y61999D01*
X178898Y62001D01*
X178900Y62002D01*
X178933Y62087D01*
X178933Y67961D01*
X178932Y67963D01*
X178933Y67965D01*
X178913Y68008D01*
X178895Y68052D01*
X178893Y68052D01*
X178892Y68054D01*
X178807Y68087D01*
X176531Y68087D01*
X176528Y68086D01*
X176525Y68087D01*
X176442Y68050D01*
X175028Y66636D01*
X175027Y66633D01*
X175024Y66632D01*
X174991Y66547D01*
X174991Y63501D01*
X174992Y63498D01*
X174991Y63495D01*
X175028Y63412D01*
X176442Y61998D01*
X176445Y61997D01*
X176446Y61994D01*
X176531Y61961D01*
X178807Y61961D01*
X178809Y61962D01*
G37*
G36*
X148084Y69836D02*
X148084Y69836D01*
X148087Y69835D01*
X148170Y69872D01*
X149584Y71286D01*
X149586Y71289D01*
X149588Y71290D01*
X149621Y71375D01*
X149621Y74421D01*
X149620Y74424D01*
X149621Y74427D01*
X149584Y74510D01*
X148170Y75924D01*
X148167Y75926D01*
X148166Y75928D01*
X148081Y75961D01*
X145805Y75961D01*
X145803Y75960D01*
X145801Y75961D01*
X145758Y75941D01*
X145715Y75923D01*
X145714Y75921D01*
X145712Y75920D01*
X145679Y75835D01*
X145679Y69961D01*
X145680Y69959D01*
X145679Y69957D01*
X145699Y69914D01*
X145717Y69870D01*
X145719Y69870D01*
X145720Y69868D01*
X145805Y69835D01*
X148081Y69835D01*
X148084Y69836D01*
G37*
G36*
X178809Y77710D02*
X178809Y77710D01*
X178811Y77709D01*
X178854Y77729D01*
X178897Y77747D01*
X178898Y77749D01*
X178900Y77750D01*
X178933Y77835D01*
X178933Y83709D01*
X178932Y83711D01*
X178933Y83713D01*
X178913Y83756D01*
X178895Y83800D01*
X178893Y83800D01*
X178892Y83802D01*
X178807Y83835D01*
X176531Y83835D01*
X176528Y83834D01*
X176525Y83835D01*
X176442Y83798D01*
X175028Y82384D01*
X175027Y82381D01*
X175024Y82380D01*
X174991Y82295D01*
X174991Y79249D01*
X174992Y79246D01*
X174991Y79243D01*
X175028Y79160D01*
X176442Y77746D01*
X176445Y77745D01*
X176446Y77742D01*
X176531Y77709D01*
X178807Y77709D01*
X178809Y77710D01*
G37*
G36*
X191059Y54122D02*
X191059Y54122D01*
X191061Y54121D01*
X191104Y54141D01*
X191148Y54159D01*
X191149Y54161D01*
X191151Y54162D01*
X191183Y54247D01*
X191183Y56549D01*
X191182Y56551D01*
X191183Y56553D01*
X191163Y56596D01*
X191145Y56640D01*
X191143Y56641D01*
X191142Y56643D01*
X191057Y56675D01*
X183055Y56675D01*
X183053Y56675D01*
X183051Y56675D01*
X183008Y56655D01*
X182964Y56637D01*
X182963Y56635D01*
X182962Y56634D01*
X182929Y56549D01*
X182929Y54247D01*
X182930Y54245D01*
X182929Y54243D01*
X182949Y54200D01*
X182967Y54156D01*
X182969Y54155D01*
X182970Y54153D01*
X183055Y54121D01*
X191057Y54121D01*
X191059Y54122D01*
G37*
G36*
X141559Y64122D02*
X141559Y64122D01*
X141561Y64121D01*
X141604Y64141D01*
X141648Y64159D01*
X141649Y64161D01*
X141651Y64162D01*
X141683Y64247D01*
X141683Y66549D01*
X141682Y66551D01*
X141683Y66553D01*
X141663Y66596D01*
X141645Y66640D01*
X141643Y66641D01*
X141642Y66643D01*
X141557Y66675D01*
X133555Y66675D01*
X133553Y66675D01*
X133551Y66675D01*
X133508Y66655D01*
X133464Y66637D01*
X133463Y66635D01*
X133462Y66634D01*
X133429Y66549D01*
X133429Y64247D01*
X133430Y64245D01*
X133429Y64243D01*
X133449Y64200D01*
X133467Y64156D01*
X133469Y64155D01*
X133470Y64153D01*
X133555Y64121D01*
X141557Y64121D01*
X141559Y64122D01*
G37*
G36*
X141559Y89122D02*
X141559Y89122D01*
X141561Y89121D01*
X141604Y89141D01*
X141648Y89159D01*
X141649Y89161D01*
X141651Y89162D01*
X141683Y89247D01*
X141683Y91549D01*
X141682Y91551D01*
X141683Y91553D01*
X141663Y91596D01*
X141645Y91640D01*
X141643Y91641D01*
X141642Y91643D01*
X141557Y91675D01*
X133555Y91675D01*
X133553Y91675D01*
X133551Y91675D01*
X133508Y91655D01*
X133464Y91637D01*
X133463Y91635D01*
X133462Y91634D01*
X133429Y91549D01*
X133429Y89247D01*
X133430Y89245D01*
X133429Y89243D01*
X133449Y89200D01*
X133467Y89156D01*
X133469Y89155D01*
X133470Y89153D01*
X133555Y89121D01*
X141557Y89121D01*
X141559Y89122D01*
G37*
G36*
X141559Y74122D02*
X141559Y74122D01*
X141561Y74121D01*
X141604Y74141D01*
X141648Y74159D01*
X141649Y74161D01*
X141651Y74162D01*
X141683Y74247D01*
X141683Y76549D01*
X141682Y76551D01*
X141683Y76553D01*
X141663Y76596D01*
X141645Y76640D01*
X141643Y76641D01*
X141642Y76643D01*
X141557Y76675D01*
X133555Y76675D01*
X133553Y76674D01*
X133551Y76675D01*
X133508Y76655D01*
X133464Y76637D01*
X133463Y76635D01*
X133462Y76634D01*
X133429Y76549D01*
X133429Y74247D01*
X133430Y74245D01*
X133429Y74243D01*
X133449Y74200D01*
X133467Y74156D01*
X133469Y74155D01*
X133470Y74153D01*
X133555Y74121D01*
X141557Y74121D01*
X141559Y74122D01*
G37*
G36*
X191059Y74122D02*
X191059Y74122D01*
X191061Y74121D01*
X191104Y74141D01*
X191148Y74159D01*
X191149Y74161D01*
X191151Y74162D01*
X191183Y74247D01*
X191183Y76549D01*
X191182Y76551D01*
X191183Y76553D01*
X191163Y76596D01*
X191145Y76640D01*
X191143Y76641D01*
X191142Y76643D01*
X191057Y76675D01*
X183055Y76675D01*
X183053Y76674D01*
X183051Y76675D01*
X183008Y76655D01*
X182964Y76637D01*
X182963Y76635D01*
X182962Y76634D01*
X182929Y76549D01*
X182929Y74247D01*
X182930Y74245D01*
X182929Y74243D01*
X182949Y74200D01*
X182967Y74156D01*
X182969Y74155D01*
X182970Y74153D01*
X183055Y74121D01*
X191057Y74121D01*
X191059Y74122D01*
G37*
G36*
X160958Y93522D02*
X160958Y93522D01*
X160960Y93521D01*
X161004Y93541D01*
X161047Y93559D01*
X161048Y93561D01*
X161050Y93562D01*
X161083Y93647D01*
X161083Y101649D01*
X161082Y101651D01*
X161083Y101653D01*
X161063Y101696D01*
X161044Y101740D01*
X161042Y101741D01*
X161041Y101743D01*
X160956Y101775D01*
X158654Y101775D01*
X158652Y101774D01*
X158650Y101775D01*
X158607Y101755D01*
X158564Y101737D01*
X158563Y101735D01*
X158561Y101734D01*
X158528Y101649D01*
X158528Y93647D01*
X158529Y93645D01*
X158528Y93643D01*
X158548Y93600D01*
X158566Y93556D01*
X158568Y93555D01*
X158569Y93554D01*
X158654Y93521D01*
X160956Y93521D01*
X160958Y93522D01*
G37*
G36*
X175962Y44022D02*
X175962Y44022D01*
X175964Y44021D01*
X176007Y44041D01*
X176051Y44059D01*
X176052Y44061D01*
X176054Y44062D01*
X176086Y44147D01*
X176086Y52149D01*
X176086Y52151D01*
X176086Y52153D01*
X176067Y52196D01*
X176048Y52240D01*
X176046Y52241D01*
X176045Y52243D01*
X175960Y52275D01*
X173658Y52275D01*
X173656Y52274D01*
X173654Y52275D01*
X173611Y52255D01*
X173567Y52237D01*
X173567Y52235D01*
X173565Y52234D01*
X173532Y52149D01*
X173532Y44147D01*
X173533Y44145D01*
X173532Y44143D01*
X173552Y44100D01*
X173570Y44056D01*
X173572Y44055D01*
X173573Y44054D01*
X173658Y44021D01*
X175960Y44021D01*
X175962Y44022D01*
G37*
G36*
X141559Y79122D02*
X141559Y79122D01*
X141561Y79121D01*
X141604Y79141D01*
X141648Y79159D01*
X141649Y79161D01*
X141651Y79162D01*
X141683Y79247D01*
X141683Y81549D01*
X141682Y81551D01*
X141683Y81553D01*
X141663Y81596D01*
X141645Y81640D01*
X141643Y81641D01*
X141642Y81643D01*
X141557Y81675D01*
X133555Y81675D01*
X133553Y81675D01*
X133551Y81675D01*
X133508Y81655D01*
X133464Y81637D01*
X133463Y81635D01*
X133462Y81634D01*
X133429Y81549D01*
X133429Y79247D01*
X133430Y79245D01*
X133429Y79243D01*
X133449Y79200D01*
X133467Y79156D01*
X133469Y79155D01*
X133470Y79154D01*
X133555Y79121D01*
X141557Y79121D01*
X141559Y79122D01*
G37*
G36*
X145955Y93522D02*
X145955Y93522D01*
X145957Y93521D01*
X146000Y93541D01*
X146043Y93559D01*
X146044Y93561D01*
X146046Y93562D01*
X146079Y93647D01*
X146079Y101649D01*
X146078Y101651D01*
X146079Y101653D01*
X146059Y101696D01*
X146041Y101740D01*
X146038Y101741D01*
X146038Y101743D01*
X145953Y101775D01*
X143651Y101775D01*
X143649Y101774D01*
X143646Y101775D01*
X143603Y101755D01*
X143560Y101737D01*
X143559Y101735D01*
X143557Y101734D01*
X143524Y101649D01*
X143524Y93647D01*
X143525Y93645D01*
X143524Y93643D01*
X143544Y93600D01*
X143563Y93556D01*
X143565Y93555D01*
X143566Y93554D01*
X143651Y93521D01*
X145953Y93521D01*
X145955Y93522D01*
G37*
G36*
X165960Y44022D02*
X165960Y44022D01*
X165962Y44021D01*
X166005Y44041D01*
X166048Y44059D01*
X166049Y44061D01*
X166051Y44062D01*
X166084Y44147D01*
X166084Y52149D01*
X166083Y52151D01*
X166084Y52153D01*
X166064Y52196D01*
X166046Y52240D01*
X166044Y52241D01*
X166043Y52243D01*
X165958Y52275D01*
X163656Y52275D01*
X163654Y52274D01*
X163652Y52275D01*
X163609Y52255D01*
X163565Y52237D01*
X163564Y52235D01*
X163562Y52234D01*
X163529Y52149D01*
X163529Y44147D01*
X163530Y44145D01*
X163529Y44143D01*
X163549Y44100D01*
X163568Y44056D01*
X163570Y44055D01*
X163571Y44054D01*
X163656Y44021D01*
X165958Y44021D01*
X165960Y44022D01*
G37*
G36*
X191059Y69122D02*
X191059Y69122D01*
X191061Y69121D01*
X191104Y69141D01*
X191148Y69159D01*
X191149Y69161D01*
X191151Y69162D01*
X191183Y69247D01*
X191183Y71549D01*
X191182Y71551D01*
X191183Y71553D01*
X191163Y71596D01*
X191145Y71640D01*
X191143Y71641D01*
X191142Y71643D01*
X191057Y71675D01*
X183055Y71675D01*
X183053Y71675D01*
X183051Y71675D01*
X183008Y71655D01*
X182964Y71637D01*
X182963Y71635D01*
X182962Y71634D01*
X182929Y71549D01*
X182929Y69247D01*
X182930Y69245D01*
X182929Y69243D01*
X182949Y69200D01*
X182967Y69156D01*
X182969Y69155D01*
X182970Y69154D01*
X183055Y69121D01*
X191057Y69121D01*
X191059Y69122D01*
G37*
G36*
X141559Y69122D02*
X141559Y69122D01*
X141561Y69121D01*
X141604Y69141D01*
X141648Y69159D01*
X141649Y69161D01*
X141651Y69162D01*
X141683Y69247D01*
X141683Y71549D01*
X141682Y71551D01*
X141683Y71553D01*
X141663Y71596D01*
X141645Y71640D01*
X141643Y71641D01*
X141642Y71643D01*
X141557Y71675D01*
X133555Y71675D01*
X133553Y71675D01*
X133551Y71675D01*
X133508Y71655D01*
X133464Y71637D01*
X133463Y71635D01*
X133462Y71634D01*
X133429Y71549D01*
X133429Y69247D01*
X133430Y69245D01*
X133429Y69243D01*
X133449Y69200D01*
X133467Y69156D01*
X133469Y69155D01*
X133470Y69154D01*
X133555Y69121D01*
X141557Y69121D01*
X141559Y69122D01*
G37*
G36*
X145955Y44022D02*
X145955Y44022D01*
X145957Y44021D01*
X146000Y44041D01*
X146043Y44059D01*
X146044Y44061D01*
X146046Y44062D01*
X146079Y44147D01*
X146079Y52149D01*
X146078Y52151D01*
X146079Y52153D01*
X146059Y52196D01*
X146041Y52240D01*
X146038Y52241D01*
X146038Y52243D01*
X145953Y52275D01*
X143651Y52275D01*
X143649Y52274D01*
X143646Y52275D01*
X143603Y52255D01*
X143560Y52237D01*
X143559Y52235D01*
X143557Y52234D01*
X143524Y52149D01*
X143524Y44147D01*
X143525Y44145D01*
X143524Y44143D01*
X143544Y44100D01*
X143563Y44056D01*
X143565Y44055D01*
X143566Y44054D01*
X143651Y44021D01*
X145953Y44021D01*
X145955Y44022D01*
G37*
G36*
X150956Y44022D02*
X150956Y44022D01*
X150958Y44021D01*
X151001Y44041D01*
X151045Y44059D01*
X151045Y44061D01*
X151047Y44062D01*
X151080Y44147D01*
X151080Y52149D01*
X151079Y52151D01*
X151080Y52153D01*
X151060Y52196D01*
X151042Y52240D01*
X151040Y52241D01*
X151039Y52243D01*
X150954Y52275D01*
X148652Y52275D01*
X148650Y52274D01*
X148648Y52275D01*
X148605Y52255D01*
X148561Y52237D01*
X148560Y52235D01*
X148558Y52234D01*
X148526Y52149D01*
X148526Y44147D01*
X148526Y44145D01*
X148526Y44143D01*
X148545Y44100D01*
X148564Y44056D01*
X148566Y44055D01*
X148567Y44054D01*
X148652Y44021D01*
X150954Y44021D01*
X150956Y44022D01*
G37*
G36*
X160958Y44022D02*
X160958Y44022D01*
X160960Y44021D01*
X161004Y44041D01*
X161047Y44059D01*
X161048Y44061D01*
X161050Y44062D01*
X161083Y44147D01*
X161083Y52149D01*
X161082Y52151D01*
X161083Y52153D01*
X161063Y52196D01*
X161044Y52240D01*
X161042Y52241D01*
X161041Y52243D01*
X160956Y52275D01*
X158654Y52275D01*
X158652Y52274D01*
X158650Y52275D01*
X158607Y52255D01*
X158564Y52237D01*
X158563Y52235D01*
X158561Y52234D01*
X158528Y52149D01*
X158528Y44147D01*
X158529Y44145D01*
X158528Y44143D01*
X158548Y44100D01*
X158566Y44056D01*
X158568Y44055D01*
X158569Y44054D01*
X158654Y44021D01*
X160956Y44021D01*
X160958Y44022D01*
G37*
G36*
X191059Y89122D02*
X191059Y89122D01*
X191061Y89121D01*
X191104Y89141D01*
X191148Y89159D01*
X191149Y89161D01*
X191151Y89162D01*
X191183Y89247D01*
X191183Y91549D01*
X191182Y91551D01*
X191183Y91553D01*
X191163Y91596D01*
X191145Y91640D01*
X191143Y91641D01*
X191142Y91643D01*
X191057Y91675D01*
X183055Y91675D01*
X183053Y91674D01*
X183051Y91675D01*
X183008Y91655D01*
X182964Y91637D01*
X182963Y91635D01*
X182962Y91634D01*
X182929Y91549D01*
X182929Y89247D01*
X182930Y89245D01*
X182929Y89243D01*
X182949Y89200D01*
X182967Y89156D01*
X182969Y89155D01*
X182970Y89153D01*
X183055Y89121D01*
X191057Y89121D01*
X191059Y89122D01*
G37*
G36*
X180964Y93522D02*
X180964Y93522D01*
X180966Y93521D01*
X181009Y93541D01*
X181052Y93559D01*
X181053Y93561D01*
X181055Y93562D01*
X181088Y93647D01*
X181088Y101649D01*
X181087Y101651D01*
X181088Y101653D01*
X181068Y101696D01*
X181049Y101740D01*
X181047Y101741D01*
X181046Y101743D01*
X180962Y101775D01*
X178659Y101775D01*
X178657Y101774D01*
X178655Y101775D01*
X178612Y101755D01*
X178569Y101737D01*
X178568Y101735D01*
X178566Y101734D01*
X178533Y101649D01*
X178533Y93647D01*
X178534Y93645D01*
X178533Y93643D01*
X178553Y93600D01*
X178572Y93556D01*
X178574Y93555D01*
X178574Y93554D01*
X178659Y93521D01*
X180962Y93521D01*
X180964Y93522D01*
G37*
G36*
X155957Y93522D02*
X155957Y93522D01*
X155959Y93521D01*
X156002Y93541D01*
X156046Y93559D01*
X156047Y93561D01*
X156049Y93562D01*
X156081Y93647D01*
X156081Y101649D01*
X156081Y101651D01*
X156081Y101653D01*
X156062Y101696D01*
X156043Y101740D01*
X156041Y101741D01*
X156040Y101743D01*
X155955Y101775D01*
X153653Y101775D01*
X153651Y101774D01*
X153649Y101775D01*
X153606Y101755D01*
X153562Y101737D01*
X153562Y101735D01*
X153560Y101734D01*
X153527Y101649D01*
X153527Y93647D01*
X153528Y93645D01*
X153527Y93643D01*
X153547Y93600D01*
X153565Y93556D01*
X153567Y93555D01*
X153568Y93554D01*
X153653Y93521D01*
X155955Y93521D01*
X155957Y93522D01*
G37*
G36*
X191059Y64122D02*
X191059Y64122D01*
X191061Y64121D01*
X191104Y64141D01*
X191148Y64159D01*
X191149Y64161D01*
X191151Y64162D01*
X191183Y64247D01*
X191183Y66549D01*
X191182Y66551D01*
X191183Y66553D01*
X191163Y66596D01*
X191145Y66640D01*
X191143Y66641D01*
X191142Y66643D01*
X191057Y66675D01*
X183055Y66675D01*
X183053Y66674D01*
X183051Y66675D01*
X183008Y66655D01*
X182964Y66637D01*
X182963Y66635D01*
X182962Y66634D01*
X182929Y66549D01*
X182929Y64247D01*
X182930Y64245D01*
X182929Y64243D01*
X182949Y64200D01*
X182967Y64156D01*
X182969Y64155D01*
X182970Y64153D01*
X183055Y64121D01*
X191057Y64121D01*
X191059Y64122D01*
G37*
G36*
X170961Y44022D02*
X170961Y44022D01*
X170963Y44021D01*
X171006Y44041D01*
X171050Y44059D01*
X171050Y44061D01*
X171052Y44062D01*
X171085Y44147D01*
X171085Y52149D01*
X171084Y52151D01*
X171085Y52153D01*
X171065Y52196D01*
X171047Y52240D01*
X171045Y52241D01*
X171044Y52243D01*
X170959Y52275D01*
X168657Y52275D01*
X168655Y52274D01*
X168653Y52275D01*
X168610Y52255D01*
X168566Y52237D01*
X168565Y52235D01*
X168563Y52234D01*
X168531Y52149D01*
X168531Y44147D01*
X168531Y44145D01*
X168531Y44143D01*
X168551Y44100D01*
X168569Y44056D01*
X168571Y44055D01*
X168572Y44054D01*
X168657Y44021D01*
X170959Y44021D01*
X170961Y44022D01*
G37*
G36*
X155957Y44022D02*
X155957Y44022D01*
X155959Y44021D01*
X156002Y44041D01*
X156046Y44059D01*
X156047Y44061D01*
X156049Y44062D01*
X156081Y44147D01*
X156081Y52149D01*
X156081Y52151D01*
X156081Y52153D01*
X156062Y52196D01*
X156043Y52240D01*
X156041Y52241D01*
X156040Y52243D01*
X155955Y52275D01*
X153653Y52275D01*
X153651Y52274D01*
X153649Y52275D01*
X153606Y52255D01*
X153562Y52237D01*
X153562Y52235D01*
X153560Y52234D01*
X153527Y52149D01*
X153527Y44147D01*
X153528Y44145D01*
X153527Y44143D01*
X153547Y44100D01*
X153565Y44056D01*
X153567Y44055D01*
X153568Y44054D01*
X153653Y44021D01*
X155955Y44021D01*
X155957Y44022D01*
G37*
G36*
X180964Y44022D02*
X180964Y44022D01*
X180966Y44021D01*
X181009Y44041D01*
X181052Y44059D01*
X181053Y44061D01*
X181055Y44062D01*
X181088Y44147D01*
X181088Y52149D01*
X181087Y52151D01*
X181088Y52153D01*
X181068Y52196D01*
X181049Y52240D01*
X181047Y52241D01*
X181046Y52243D01*
X180962Y52275D01*
X178659Y52275D01*
X178657Y52274D01*
X178655Y52275D01*
X178612Y52255D01*
X178569Y52237D01*
X178568Y52235D01*
X178566Y52234D01*
X178533Y52149D01*
X178533Y44147D01*
X178534Y44145D01*
X178533Y44143D01*
X178553Y44100D01*
X178572Y44056D01*
X178574Y44055D01*
X178574Y44054D01*
X178659Y44021D01*
X180962Y44021D01*
X180964Y44022D01*
G37*
G36*
X170961Y93522D02*
X170961Y93522D01*
X170963Y93521D01*
X171006Y93541D01*
X171050Y93559D01*
X171050Y93561D01*
X171052Y93562D01*
X171085Y93647D01*
X171085Y101649D01*
X171084Y101651D01*
X171085Y101653D01*
X171065Y101696D01*
X171047Y101740D01*
X171045Y101741D01*
X171044Y101743D01*
X170959Y101775D01*
X168657Y101775D01*
X168655Y101774D01*
X168653Y101775D01*
X168610Y101755D01*
X168566Y101737D01*
X168565Y101735D01*
X168563Y101734D01*
X168531Y101649D01*
X168531Y93647D01*
X168531Y93645D01*
X168531Y93643D01*
X168551Y93600D01*
X168569Y93556D01*
X168571Y93555D01*
X168572Y93554D01*
X168657Y93521D01*
X170959Y93521D01*
X170961Y93522D01*
G37*
G36*
X150956Y93522D02*
X150956Y93522D01*
X150958Y93521D01*
X151001Y93541D01*
X151045Y93559D01*
X151045Y93561D01*
X151047Y93562D01*
X151080Y93647D01*
X151080Y101649D01*
X151079Y101651D01*
X151080Y101653D01*
X151060Y101696D01*
X151042Y101740D01*
X151040Y101741D01*
X151039Y101743D01*
X150954Y101775D01*
X148652Y101775D01*
X148650Y101774D01*
X148648Y101775D01*
X148605Y101755D01*
X148561Y101737D01*
X148560Y101735D01*
X148558Y101734D01*
X148526Y101649D01*
X148526Y93647D01*
X148526Y93645D01*
X148526Y93643D01*
X148545Y93600D01*
X148564Y93556D01*
X148566Y93555D01*
X148567Y93554D01*
X148652Y93521D01*
X150954Y93521D01*
X150956Y93522D01*
G37*
G36*
X165960Y93522D02*
X165960Y93522D01*
X165962Y93521D01*
X166005Y93541D01*
X166048Y93559D01*
X166049Y93561D01*
X166051Y93562D01*
X166084Y93647D01*
X166084Y101649D01*
X166083Y101651D01*
X166084Y101653D01*
X166064Y101696D01*
X166046Y101740D01*
X166044Y101741D01*
X166043Y101743D01*
X165958Y101775D01*
X163656Y101775D01*
X163654Y101774D01*
X163652Y101775D01*
X163609Y101755D01*
X163565Y101737D01*
X163564Y101735D01*
X163562Y101734D01*
X163529Y101649D01*
X163529Y93647D01*
X163530Y93645D01*
X163529Y93643D01*
X163549Y93600D01*
X163568Y93556D01*
X163570Y93555D01*
X163571Y93554D01*
X163656Y93521D01*
X165958Y93521D01*
X165960Y93522D01*
G37*
G36*
X175962Y93522D02*
X175962Y93522D01*
X175964Y93521D01*
X176007Y93541D01*
X176051Y93559D01*
X176052Y93561D01*
X176054Y93562D01*
X176086Y93647D01*
X176086Y101649D01*
X176086Y101651D01*
X176086Y101653D01*
X176067Y101696D01*
X176048Y101740D01*
X176046Y101741D01*
X176045Y101743D01*
X175960Y101775D01*
X173658Y101775D01*
X173656Y101774D01*
X173654Y101775D01*
X173611Y101755D01*
X173567Y101737D01*
X173567Y101735D01*
X173565Y101734D01*
X173532Y101649D01*
X173532Y93647D01*
X173533Y93645D01*
X173532Y93643D01*
X173552Y93600D01*
X173570Y93556D01*
X173572Y93555D01*
X173573Y93554D01*
X173658Y93521D01*
X175960Y93521D01*
X175962Y93522D01*
G37*
G36*
X141559Y54122D02*
X141559Y54122D01*
X141561Y54121D01*
X141604Y54141D01*
X141648Y54159D01*
X141649Y54161D01*
X141651Y54162D01*
X141683Y54247D01*
X141683Y56549D01*
X141682Y56551D01*
X141683Y56553D01*
X141663Y56596D01*
X141645Y56640D01*
X141643Y56641D01*
X141642Y56643D01*
X141557Y56675D01*
X133555Y56675D01*
X133553Y56675D01*
X133551Y56675D01*
X133508Y56655D01*
X133464Y56637D01*
X133463Y56635D01*
X133462Y56634D01*
X133429Y56549D01*
X133429Y54247D01*
X133430Y54245D01*
X133429Y54243D01*
X133449Y54200D01*
X133467Y54156D01*
X133469Y54155D01*
X133470Y54154D01*
X133555Y54121D01*
X141557Y54121D01*
X141559Y54122D01*
G37*
G36*
X191059Y59122D02*
X191059Y59122D01*
X191061Y59121D01*
X191104Y59141D01*
X191148Y59159D01*
X191149Y59161D01*
X191151Y59162D01*
X191183Y59247D01*
X191183Y61549D01*
X191182Y61551D01*
X191183Y61553D01*
X191163Y61596D01*
X191145Y61640D01*
X191143Y61641D01*
X191142Y61643D01*
X191057Y61675D01*
X183055Y61675D01*
X183053Y61674D01*
X183051Y61675D01*
X183008Y61655D01*
X182964Y61637D01*
X182963Y61635D01*
X182962Y61634D01*
X182929Y61549D01*
X182929Y59247D01*
X182930Y59245D01*
X182929Y59243D01*
X182949Y59200D01*
X182967Y59156D01*
X182969Y59155D01*
X182970Y59154D01*
X183055Y59121D01*
X191057Y59121D01*
X191059Y59122D01*
G37*
G36*
X191059Y79122D02*
X191059Y79122D01*
X191061Y79121D01*
X191104Y79141D01*
X191148Y79159D01*
X191149Y79161D01*
X191151Y79162D01*
X191183Y79247D01*
X191183Y81549D01*
X191182Y81551D01*
X191183Y81553D01*
X191163Y81596D01*
X191145Y81640D01*
X191143Y81641D01*
X191142Y81643D01*
X191057Y81675D01*
X183055Y81675D01*
X183053Y81674D01*
X183051Y81675D01*
X183008Y81655D01*
X182964Y81637D01*
X182963Y81635D01*
X182962Y81634D01*
X182929Y81549D01*
X182929Y79247D01*
X182930Y79245D01*
X182929Y79243D01*
X182949Y79200D01*
X182967Y79156D01*
X182969Y79155D01*
X182970Y79154D01*
X183055Y79121D01*
X191057Y79121D01*
X191059Y79122D01*
G37*
G36*
X141559Y59122D02*
X141559Y59122D01*
X141561Y59121D01*
X141604Y59141D01*
X141648Y59159D01*
X141649Y59161D01*
X141651Y59162D01*
X141683Y59247D01*
X141683Y61549D01*
X141682Y61551D01*
X141683Y61553D01*
X141663Y61596D01*
X141645Y61640D01*
X141643Y61641D01*
X141642Y61643D01*
X141557Y61675D01*
X133555Y61675D01*
X133553Y61674D01*
X133551Y61675D01*
X133508Y61655D01*
X133464Y61637D01*
X133463Y61635D01*
X133462Y61634D01*
X133429Y61549D01*
X133429Y59247D01*
X133430Y59245D01*
X133429Y59243D01*
X133449Y59200D01*
X133467Y59156D01*
X133469Y59155D01*
X133470Y59154D01*
X133555Y59121D01*
X141557Y59121D01*
X141559Y59122D01*
G37*
G36*
X141559Y84122D02*
X141559Y84122D01*
X141561Y84121D01*
X141604Y84141D01*
X141648Y84159D01*
X141649Y84161D01*
X141651Y84162D01*
X141683Y84247D01*
X141683Y86549D01*
X141682Y86551D01*
X141683Y86553D01*
X141663Y86596D01*
X141645Y86640D01*
X141643Y86641D01*
X141642Y86643D01*
X141557Y86675D01*
X133555Y86675D01*
X133553Y86674D01*
X133551Y86675D01*
X133508Y86655D01*
X133464Y86637D01*
X133463Y86635D01*
X133462Y86634D01*
X133429Y86549D01*
X133429Y84247D01*
X133430Y84245D01*
X133429Y84243D01*
X133449Y84200D01*
X133467Y84156D01*
X133469Y84155D01*
X133470Y84154D01*
X133555Y84121D01*
X141557Y84121D01*
X141559Y84122D01*
G37*
G36*
X191059Y84122D02*
X191059Y84122D01*
X191061Y84121D01*
X191104Y84141D01*
X191148Y84159D01*
X191149Y84161D01*
X191151Y84162D01*
X191183Y84247D01*
X191183Y86549D01*
X191182Y86551D01*
X191183Y86553D01*
X191163Y86596D01*
X191145Y86640D01*
X191143Y86641D01*
X191142Y86643D01*
X191057Y86675D01*
X183055Y86675D01*
X183053Y86674D01*
X183051Y86675D01*
X183008Y86655D01*
X182964Y86637D01*
X182963Y86635D01*
X182962Y86634D01*
X182929Y86549D01*
X182929Y84247D01*
X182930Y84245D01*
X182929Y84243D01*
X182949Y84200D01*
X182967Y84156D01*
X182969Y84155D01*
X182970Y84154D01*
X183055Y84121D01*
X191057Y84121D01*
X191059Y84122D01*
G37*
G36*
X149497Y56272D02*
X149497Y56272D01*
X149499Y56271D01*
X149542Y56291D01*
X149586Y56309D01*
X149586Y56311D01*
X149588Y56312D01*
X149621Y56397D01*
X149621Y58673D01*
X149621Y58674D01*
X149620Y58676D01*
X149621Y58679D01*
X149584Y58762D01*
X148170Y60176D01*
X148167Y60178D01*
X148166Y60180D01*
X148081Y60213D01*
X145805Y60213D01*
X145803Y60212D01*
X145801Y60213D01*
X145758Y60193D01*
X145715Y60175D01*
X145714Y60173D01*
X145712Y60172D01*
X145679Y60087D01*
X145679Y56397D01*
X145680Y56395D01*
X145679Y56393D01*
X145699Y56350D01*
X145717Y56307D01*
X145719Y56306D01*
X145720Y56304D01*
X145805Y56271D01*
X149495Y56271D01*
X149497Y56272D01*
G37*
G36*
X178809Y85584D02*
X178809Y85584D01*
X178811Y85583D01*
X178854Y85603D01*
X178897Y85621D01*
X178898Y85623D01*
X178900Y85624D01*
X178933Y85709D01*
X178933Y89399D01*
X178932Y89401D01*
X178933Y89403D01*
X178913Y89446D01*
X178895Y89489D01*
X178893Y89490D01*
X178892Y89492D01*
X178807Y89525D01*
X175117Y89525D01*
X175115Y89524D01*
X175113Y89525D01*
X175070Y89505D01*
X175026Y89487D01*
X175026Y89485D01*
X175024Y89484D01*
X174991Y89399D01*
X174991Y87123D01*
X174992Y87120D01*
X174991Y87117D01*
X175028Y87034D01*
X176442Y85620D01*
X176445Y85619D01*
X176446Y85616D01*
X176531Y85583D01*
X178807Y85583D01*
X178809Y85584D01*
G37*
G36*
X178809Y56272D02*
X178809Y56272D01*
X178811Y56271D01*
X178854Y56291D01*
X178897Y56309D01*
X178898Y56311D01*
X178900Y56312D01*
X178933Y56397D01*
X178933Y60087D01*
X178932Y60089D01*
X178933Y60091D01*
X178913Y60134D01*
X178895Y60178D01*
X178893Y60178D01*
X178892Y60180D01*
X178807Y60213D01*
X176531Y60213D01*
X176528Y60212D01*
X176525Y60213D01*
X176442Y60176D01*
X175028Y58762D01*
X175027Y58759D01*
X175024Y58758D01*
X174991Y58673D01*
X174991Y56397D01*
X174992Y56395D01*
X174991Y56393D01*
X175011Y56350D01*
X175029Y56307D01*
X175031Y56306D01*
X175032Y56304D01*
X175117Y56271D01*
X178807Y56271D01*
X178809Y56272D01*
G37*
G36*
X148084Y85584D02*
X148084Y85584D01*
X148087Y85583D01*
X148170Y85620D01*
X149584Y87034D01*
X149586Y87037D01*
X149588Y87038D01*
X149621Y87123D01*
X149621Y89399D01*
X149620Y89401D01*
X149621Y89403D01*
X149601Y89446D01*
X149583Y89489D01*
X149581Y89490D01*
X149580Y89492D01*
X149495Y89525D01*
X145805Y89525D01*
X145803Y89524D01*
X145801Y89525D01*
X145758Y89505D01*
X145715Y89487D01*
X145714Y89485D01*
X145712Y89484D01*
X145679Y89399D01*
X145679Y85709D01*
X145680Y85707D01*
X145679Y85705D01*
X145699Y85662D01*
X145717Y85618D01*
X145719Y85618D01*
X145720Y85616D01*
X145805Y85583D01*
X148081Y85583D01*
X148084Y85584D01*
G37*
D10*
X180975Y384810D03*
X180975Y379730D03*
X180975Y374650D03*
X180975Y369570D03*
X180975Y364490D03*
X180975Y359410D03*
D11*
X173990Y352425D03*
X168910Y352425D03*
X163830Y352425D03*
X158750Y352425D03*
X153670Y352425D03*
X148590Y352425D03*
D10*
X141605Y359410D03*
X141605Y364490D03*
X141605Y369570D03*
X141605Y374650D03*
X141605Y379730D03*
X141605Y384810D03*
D11*
X148590Y391795D03*
X153670Y391795D03*
X158750Y391795D03*
X163830Y391795D03*
X168910Y391795D03*
X173990Y391795D03*
D12*
X319360Y303938D03*
X319360Y312938D03*
D13*
X211328Y355982D03*
X211328Y371982D03*
D12*
X199644Y378134D03*
X199644Y369134D03*
X283546Y257820D03*
X283546Y248820D03*
X101020Y375158D03*
X92020Y375158D03*
X101528Y328168D03*
X92528Y328168D03*
X320122Y238770D03*
X320122Y229770D03*
X152400Y225988D03*
X152400Y216988D03*
X152400Y236292D03*
X152400Y245292D03*
X148336Y301316D03*
X148336Y310316D03*
X79938Y347726D03*
X70938Y347726D03*
X295738Y238770D03*
X295738Y229770D03*
X221996Y164664D03*
X221996Y173664D03*
X160710Y193548D03*
X151710Y193548D03*
D13*
X378206Y314832D03*
X378206Y298832D03*
D14*
X212000Y37250D03*
X212000Y64350D03*
X216000Y37250D03*
X216000Y64350D03*
X220000Y37250D03*
X220000Y64350D03*
X224000Y37250D03*
X224000Y64350D03*
X228000Y37250D03*
X228000Y64350D03*
X232000Y37250D03*
X232000Y64350D03*
X236000Y37250D03*
X236000Y64350D03*
X240000Y37250D03*
X240000Y64350D03*
X244000Y37250D03*
X244000Y64350D03*
X248000Y37250D03*
X248000Y64350D03*
X252000Y37250D03*
X252000Y64350D03*
X256000Y37250D03*
X256000Y64350D03*
X260000Y37250D03*
X260000Y64350D03*
X264000Y37250D03*
X264000Y64350D03*
X268000Y37250D03*
X268000Y64350D03*
X272000Y37250D03*
X272000Y64350D03*
X276000Y37250D03*
X276000Y64350D03*
X280000Y37250D03*
X280000Y64350D03*
X284000Y37250D03*
X284000Y64350D03*
X288000Y37250D03*
X288000Y64350D03*
X292000Y37250D03*
X292000Y64350D03*
X296000Y37250D03*
X296000Y64350D03*
D15*
X300750Y37250D03*
X300750Y64350D03*
X207250Y37250D03*
X207250Y64350D03*
D16*
X214333Y427482D02*
X214335Y427675D01*
X214342Y427868D01*
X214354Y428061D01*
X214371Y428254D01*
X214392Y428446D01*
X214418Y428638D01*
X214449Y428828D01*
X214484Y429018D01*
X214524Y429207D01*
X214569Y429395D01*
X214618Y429582D01*
X214672Y429768D01*
X214730Y429952D01*
X214793Y430135D01*
X214861Y430316D01*
X214932Y430496D01*
X215009Y430673D01*
X215089Y430849D01*
X215174Y431023D01*
X215263Y431194D01*
X215356Y431364D01*
X215453Y431531D01*
X215555Y431695D01*
X215660Y431857D01*
X215770Y432016D01*
X215883Y432173D01*
X216000Y432327D01*
X216121Y432478D01*
X216245Y432626D01*
X216373Y432771D01*
X216505Y432912D01*
X216640Y433050D01*
X216778Y433185D01*
X216919Y433317D01*
X217064Y433445D01*
X217212Y433569D01*
X217363Y433690D01*
X217517Y433807D01*
X217674Y433920D01*
X217833Y434030D01*
X217995Y434135D01*
X218159Y434237D01*
X218326Y434334D01*
X218496Y434427D01*
X218667Y434516D01*
X218841Y434601D01*
X219017Y434681D01*
X219194Y434758D01*
X219374Y434829D01*
X219555Y434897D01*
X219738Y434960D01*
X219922Y435018D01*
X220108Y435072D01*
X220295Y435121D01*
X220483Y435166D01*
X220672Y435206D01*
X220862Y435241D01*
X221052Y435272D01*
X221244Y435298D01*
X221436Y435319D01*
X221629Y435336D01*
X221822Y435348D01*
X222015Y435355D01*
X222208Y435357D01*
X222401Y435355D01*
X222594Y435348D01*
X222787Y435336D01*
X222980Y435319D01*
X223172Y435298D01*
X223364Y435272D01*
X223554Y435241D01*
X223744Y435206D01*
X223933Y435166D01*
X224121Y435121D01*
X224308Y435072D01*
X224494Y435018D01*
X224678Y434960D01*
X224861Y434897D01*
X225042Y434829D01*
X225222Y434758D01*
X225399Y434681D01*
X225575Y434601D01*
X225749Y434516D01*
X225920Y434427D01*
X226090Y434334D01*
X226257Y434237D01*
X226421Y434135D01*
X226583Y434030D01*
X226742Y433920D01*
X226899Y433807D01*
X227053Y433690D01*
X227204Y433569D01*
X227352Y433445D01*
X227497Y433317D01*
X227638Y433185D01*
X227776Y433050D01*
X227911Y432912D01*
X228043Y432771D01*
X228171Y432626D01*
X228295Y432478D01*
X228416Y432327D01*
X228533Y432173D01*
X228646Y432016D01*
X228756Y431857D01*
X228861Y431695D01*
X228963Y431531D01*
X229060Y431364D01*
X229153Y431194D01*
X229242Y431023D01*
X229327Y430849D01*
X229407Y430673D01*
X229484Y430496D01*
X229555Y430316D01*
X229623Y430135D01*
X229686Y429952D01*
X229744Y429768D01*
X229798Y429582D01*
X229847Y429395D01*
X229892Y429207D01*
X229932Y429018D01*
X229967Y428828D01*
X229998Y428638D01*
X230024Y428446D01*
X230045Y428254D01*
X230062Y428061D01*
X230074Y427868D01*
X230081Y427675D01*
X230083Y427482D01*
X230081Y427289D01*
X230074Y427096D01*
X230062Y426903D01*
X230045Y426710D01*
X230024Y426518D01*
X229998Y426326D01*
X229967Y426136D01*
X229932Y425946D01*
X229892Y425757D01*
X229847Y425569D01*
X229798Y425382D01*
X229744Y425196D01*
X229686Y425012D01*
X229623Y424829D01*
X229555Y424648D01*
X229484Y424468D01*
X229407Y424291D01*
X229327Y424115D01*
X229242Y423941D01*
X229153Y423770D01*
X229060Y423600D01*
X228963Y423433D01*
X228861Y423269D01*
X228756Y423107D01*
X228646Y422948D01*
X228533Y422791D01*
X228416Y422637D01*
X228295Y422486D01*
X228171Y422338D01*
X228043Y422193D01*
X227911Y422052D01*
X227776Y421914D01*
X227638Y421779D01*
X227497Y421647D01*
X227352Y421519D01*
X227204Y421395D01*
X227053Y421274D01*
X226899Y421157D01*
X226742Y421044D01*
X226583Y420934D01*
X226421Y420829D01*
X226257Y420727D01*
X226090Y420630D01*
X225920Y420537D01*
X225749Y420448D01*
X225575Y420363D01*
X225399Y420283D01*
X225222Y420206D01*
X225042Y420135D01*
X224861Y420067D01*
X224678Y420004D01*
X224494Y419946D01*
X224308Y419892D01*
X224121Y419843D01*
X223933Y419798D01*
X223744Y419758D01*
X223554Y419723D01*
X223364Y419692D01*
X223172Y419666D01*
X222980Y419645D01*
X222787Y419628D01*
X222594Y419616D01*
X222401Y419609D01*
X222208Y419607D01*
X222015Y419609D01*
X221822Y419616D01*
X221629Y419628D01*
X221436Y419645D01*
X221244Y419666D01*
X221052Y419692D01*
X220862Y419723D01*
X220672Y419758D01*
X220483Y419798D01*
X220295Y419843D01*
X220108Y419892D01*
X219922Y419946D01*
X219738Y420004D01*
X219555Y420067D01*
X219374Y420135D01*
X219194Y420206D01*
X219017Y420283D01*
X218841Y420363D01*
X218667Y420448D01*
X218496Y420537D01*
X218326Y420630D01*
X218159Y420727D01*
X217995Y420829D01*
X217833Y420934D01*
X217674Y421044D01*
X217517Y421157D01*
X217363Y421274D01*
X217212Y421395D01*
X217064Y421519D01*
X216919Y421647D01*
X216778Y421779D01*
X216640Y421914D01*
X216505Y422052D01*
X216373Y422193D01*
X216245Y422338D01*
X216121Y422486D01*
X216000Y422637D01*
X215883Y422791D01*
X215770Y422948D01*
X215660Y423107D01*
X215555Y423269D01*
X215453Y423433D01*
X215356Y423600D01*
X215263Y423770D01*
X215174Y423941D01*
X215089Y424115D01*
X215009Y424291D01*
X214932Y424468D01*
X214861Y424648D01*
X214793Y424829D01*
X214730Y425012D01*
X214672Y425196D01*
X214618Y425382D01*
X214569Y425569D01*
X214524Y425757D01*
X214484Y425946D01*
X214449Y426136D01*
X214418Y426326D01*
X214392Y426518D01*
X214371Y426710D01*
X214354Y426903D01*
X214342Y427096D01*
X214335Y427289D01*
X214333Y427482D01*
X304333Y427482D02*
X304335Y427675D01*
X304342Y427868D01*
X304354Y428061D01*
X304371Y428254D01*
X304392Y428446D01*
X304418Y428638D01*
X304449Y428828D01*
X304484Y429018D01*
X304524Y429207D01*
X304569Y429395D01*
X304618Y429582D01*
X304672Y429768D01*
X304730Y429952D01*
X304793Y430135D01*
X304861Y430316D01*
X304932Y430496D01*
X305009Y430673D01*
X305089Y430849D01*
X305174Y431023D01*
X305263Y431194D01*
X305356Y431364D01*
X305453Y431531D01*
X305555Y431695D01*
X305660Y431857D01*
X305770Y432016D01*
X305883Y432173D01*
X306000Y432327D01*
X306121Y432478D01*
X306245Y432626D01*
X306373Y432771D01*
X306505Y432912D01*
X306640Y433050D01*
X306778Y433185D01*
X306919Y433317D01*
X307064Y433445D01*
X307212Y433569D01*
X307363Y433690D01*
X307517Y433807D01*
X307674Y433920D01*
X307833Y434030D01*
X307995Y434135D01*
X308159Y434237D01*
X308326Y434334D01*
X308496Y434427D01*
X308667Y434516D01*
X308841Y434601D01*
X309017Y434681D01*
X309194Y434758D01*
X309374Y434829D01*
X309555Y434897D01*
X309738Y434960D01*
X309922Y435018D01*
X310108Y435072D01*
X310295Y435121D01*
X310483Y435166D01*
X310672Y435206D01*
X310862Y435241D01*
X311052Y435272D01*
X311244Y435298D01*
X311436Y435319D01*
X311629Y435336D01*
X311822Y435348D01*
X312015Y435355D01*
X312208Y435357D01*
X312401Y435355D01*
X312594Y435348D01*
X312787Y435336D01*
X312980Y435319D01*
X313172Y435298D01*
X313364Y435272D01*
X313554Y435241D01*
X313744Y435206D01*
X313933Y435166D01*
X314121Y435121D01*
X314308Y435072D01*
X314494Y435018D01*
X314678Y434960D01*
X314861Y434897D01*
X315042Y434829D01*
X315222Y434758D01*
X315399Y434681D01*
X315575Y434601D01*
X315749Y434516D01*
X315920Y434427D01*
X316090Y434334D01*
X316257Y434237D01*
X316421Y434135D01*
X316583Y434030D01*
X316742Y433920D01*
X316899Y433807D01*
X317053Y433690D01*
X317204Y433569D01*
X317352Y433445D01*
X317497Y433317D01*
X317638Y433185D01*
X317776Y433050D01*
X317911Y432912D01*
X318043Y432771D01*
X318171Y432626D01*
X318295Y432478D01*
X318416Y432327D01*
X318533Y432173D01*
X318646Y432016D01*
X318756Y431857D01*
X318861Y431695D01*
X318963Y431531D01*
X319060Y431364D01*
X319153Y431194D01*
X319242Y431023D01*
X319327Y430849D01*
X319407Y430673D01*
X319484Y430496D01*
X319555Y430316D01*
X319623Y430135D01*
X319686Y429952D01*
X319744Y429768D01*
X319798Y429582D01*
X319847Y429395D01*
X319892Y429207D01*
X319932Y429018D01*
X319967Y428828D01*
X319998Y428638D01*
X320024Y428446D01*
X320045Y428254D01*
X320062Y428061D01*
X320074Y427868D01*
X320081Y427675D01*
X320083Y427482D01*
X320081Y427289D01*
X320074Y427096D01*
X320062Y426903D01*
X320045Y426710D01*
X320024Y426518D01*
X319998Y426326D01*
X319967Y426136D01*
X319932Y425946D01*
X319892Y425757D01*
X319847Y425569D01*
X319798Y425382D01*
X319744Y425196D01*
X319686Y425012D01*
X319623Y424829D01*
X319555Y424648D01*
X319484Y424468D01*
X319407Y424291D01*
X319327Y424115D01*
X319242Y423941D01*
X319153Y423770D01*
X319060Y423600D01*
X318963Y423433D01*
X318861Y423269D01*
X318756Y423107D01*
X318646Y422948D01*
X318533Y422791D01*
X318416Y422637D01*
X318295Y422486D01*
X318171Y422338D01*
X318043Y422193D01*
X317911Y422052D01*
X317776Y421914D01*
X317638Y421779D01*
X317497Y421647D01*
X317352Y421519D01*
X317204Y421395D01*
X317053Y421274D01*
X316899Y421157D01*
X316742Y421044D01*
X316583Y420934D01*
X316421Y420829D01*
X316257Y420727D01*
X316090Y420630D01*
X315920Y420537D01*
X315749Y420448D01*
X315575Y420363D01*
X315399Y420283D01*
X315222Y420206D01*
X315042Y420135D01*
X314861Y420067D01*
X314678Y420004D01*
X314494Y419946D01*
X314308Y419892D01*
X314121Y419843D01*
X313933Y419798D01*
X313744Y419758D01*
X313554Y419723D01*
X313364Y419692D01*
X313172Y419666D01*
X312980Y419645D01*
X312787Y419628D01*
X312594Y419616D01*
X312401Y419609D01*
X312208Y419607D01*
X312015Y419609D01*
X311822Y419616D01*
X311629Y419628D01*
X311436Y419645D01*
X311244Y419666D01*
X311052Y419692D01*
X310862Y419723D01*
X310672Y419758D01*
X310483Y419798D01*
X310295Y419843D01*
X310108Y419892D01*
X309922Y419946D01*
X309738Y420004D01*
X309555Y420067D01*
X309374Y420135D01*
X309194Y420206D01*
X309017Y420283D01*
X308841Y420363D01*
X308667Y420448D01*
X308496Y420537D01*
X308326Y420630D01*
X308159Y420727D01*
X307995Y420829D01*
X307833Y420934D01*
X307674Y421044D01*
X307517Y421157D01*
X307363Y421274D01*
X307212Y421395D01*
X307064Y421519D01*
X306919Y421647D01*
X306778Y421779D01*
X306640Y421914D01*
X306505Y422052D01*
X306373Y422193D01*
X306245Y422338D01*
X306121Y422486D01*
X306000Y422637D01*
X305883Y422791D01*
X305770Y422948D01*
X305660Y423107D01*
X305555Y423269D01*
X305453Y423433D01*
X305356Y423600D01*
X305263Y423770D01*
X305174Y423941D01*
X305089Y424115D01*
X305009Y424291D01*
X304932Y424468D01*
X304861Y424648D01*
X304793Y424829D01*
X304730Y425012D01*
X304672Y425196D01*
X304618Y425382D01*
X304569Y425569D01*
X304524Y425757D01*
X304484Y425946D01*
X304449Y426136D01*
X304418Y426326D01*
X304392Y426518D01*
X304371Y426710D01*
X304354Y426903D01*
X304342Y427096D01*
X304335Y427289D01*
X304333Y427482D01*
D17*
X240708Y396232D02*
X240710Y396362D01*
X240716Y396492D01*
X240726Y396622D01*
X240740Y396752D01*
X240758Y396881D01*
X240780Y397009D01*
X240805Y397137D01*
X240835Y397264D01*
X240869Y397390D01*
X240906Y397514D01*
X240947Y397638D01*
X240992Y397760D01*
X241041Y397881D01*
X241093Y398000D01*
X241149Y398118D01*
X241209Y398234D01*
X241272Y398348D01*
X241339Y398460D01*
X241409Y398569D01*
X241482Y398677D01*
X241558Y398782D01*
X241638Y398885D01*
X241721Y398986D01*
X241807Y399084D01*
X241896Y399179D01*
X241988Y399272D01*
X242082Y399361D01*
X242179Y399448D01*
X242279Y399531D01*
X242382Y399612D01*
X242486Y399689D01*
X242593Y399763D01*
X242703Y399834D01*
X242814Y399902D01*
X242928Y399966D01*
X243043Y400026D01*
X243160Y400083D01*
X243279Y400136D01*
X243400Y400186D01*
X243521Y400232D01*
X243645Y400274D01*
X243769Y400312D01*
X243895Y400347D01*
X244021Y400378D01*
X244149Y400404D01*
X244277Y400427D01*
X244406Y400446D01*
X244535Y400461D01*
X244665Y400472D01*
X244795Y400479D01*
X244925Y400482D01*
X245056Y400481D01*
X245186Y400476D01*
X245316Y400467D01*
X245445Y400454D01*
X245575Y400437D01*
X245703Y400416D01*
X245831Y400391D01*
X245958Y400363D01*
X246084Y400330D01*
X246209Y400294D01*
X246333Y400253D01*
X246456Y400209D01*
X246577Y400162D01*
X246697Y400110D01*
X246815Y400055D01*
X246931Y399996D01*
X247045Y399934D01*
X247158Y399868D01*
X247268Y399799D01*
X247376Y399727D01*
X247482Y399651D01*
X247586Y399572D01*
X247687Y399490D01*
X247786Y399405D01*
X247882Y399317D01*
X247975Y399226D01*
X248065Y399132D01*
X248152Y399035D01*
X248237Y398936D01*
X248318Y398834D01*
X248396Y398730D01*
X248471Y398624D01*
X248543Y398515D01*
X248611Y398404D01*
X248676Y398291D01*
X248737Y398176D01*
X248795Y398059D01*
X248849Y397941D01*
X248900Y397821D01*
X248947Y397699D01*
X248990Y397576D01*
X249029Y397452D01*
X249065Y397327D01*
X249096Y397200D01*
X249124Y397073D01*
X249148Y396945D01*
X249168Y396816D01*
X249184Y396687D01*
X249196Y396557D01*
X249204Y396427D01*
X249208Y396297D01*
X249208Y396167D01*
X249204Y396037D01*
X249196Y395907D01*
X249184Y395777D01*
X249168Y395648D01*
X249148Y395519D01*
X249124Y395391D01*
X249096Y395264D01*
X249065Y395137D01*
X249029Y395012D01*
X248990Y394888D01*
X248947Y394765D01*
X248900Y394643D01*
X248849Y394523D01*
X248795Y394405D01*
X248737Y394288D01*
X248676Y394173D01*
X248611Y394060D01*
X248543Y393949D01*
X248471Y393840D01*
X248396Y393734D01*
X248318Y393630D01*
X248237Y393528D01*
X248152Y393429D01*
X248065Y393332D01*
X247975Y393238D01*
X247882Y393147D01*
X247786Y393059D01*
X247687Y392974D01*
X247586Y392892D01*
X247482Y392813D01*
X247376Y392737D01*
X247268Y392665D01*
X247158Y392596D01*
X247045Y392530D01*
X246931Y392468D01*
X246815Y392409D01*
X246697Y392354D01*
X246577Y392302D01*
X246456Y392255D01*
X246333Y392211D01*
X246209Y392170D01*
X246084Y392134D01*
X245958Y392101D01*
X245831Y392073D01*
X245703Y392048D01*
X245575Y392027D01*
X245445Y392010D01*
X245316Y391997D01*
X245186Y391988D01*
X245056Y391983D01*
X244925Y391982D01*
X244795Y391985D01*
X244665Y391992D01*
X244535Y392003D01*
X244406Y392018D01*
X244277Y392037D01*
X244149Y392060D01*
X244021Y392086D01*
X243895Y392117D01*
X243769Y392152D01*
X243645Y392190D01*
X243521Y392232D01*
X243400Y392278D01*
X243279Y392328D01*
X243160Y392381D01*
X243043Y392438D01*
X242928Y392498D01*
X242814Y392562D01*
X242703Y392630D01*
X242593Y392701D01*
X242486Y392775D01*
X242382Y392852D01*
X242279Y392933D01*
X242179Y393016D01*
X242082Y393103D01*
X241988Y393192D01*
X241896Y393285D01*
X241807Y393380D01*
X241721Y393478D01*
X241638Y393579D01*
X241558Y393682D01*
X241482Y393787D01*
X241409Y393895D01*
X241339Y394004D01*
X241272Y394116D01*
X241209Y394230D01*
X241149Y394346D01*
X241093Y394464D01*
X241041Y394583D01*
X240992Y394704D01*
X240947Y394826D01*
X240906Y394950D01*
X240869Y395074D01*
X240835Y395200D01*
X240805Y395327D01*
X240780Y395455D01*
X240758Y395583D01*
X240740Y395712D01*
X240726Y395842D01*
X240716Y395972D01*
X240710Y396102D01*
X240708Y396232D01*
X285208Y396232D02*
X285210Y396362D01*
X285216Y396492D01*
X285226Y396622D01*
X285240Y396752D01*
X285258Y396881D01*
X285280Y397009D01*
X285305Y397137D01*
X285335Y397264D01*
X285369Y397390D01*
X285406Y397514D01*
X285447Y397638D01*
X285492Y397760D01*
X285541Y397881D01*
X285593Y398000D01*
X285649Y398118D01*
X285709Y398234D01*
X285772Y398348D01*
X285839Y398460D01*
X285909Y398569D01*
X285982Y398677D01*
X286058Y398782D01*
X286138Y398885D01*
X286221Y398986D01*
X286307Y399084D01*
X286396Y399179D01*
X286488Y399272D01*
X286582Y399361D01*
X286679Y399448D01*
X286779Y399531D01*
X286882Y399612D01*
X286986Y399689D01*
X287093Y399763D01*
X287203Y399834D01*
X287314Y399902D01*
X287428Y399966D01*
X287543Y400026D01*
X287660Y400083D01*
X287779Y400136D01*
X287900Y400186D01*
X288021Y400232D01*
X288145Y400274D01*
X288269Y400312D01*
X288395Y400347D01*
X288521Y400378D01*
X288649Y400404D01*
X288777Y400427D01*
X288906Y400446D01*
X289035Y400461D01*
X289165Y400472D01*
X289295Y400479D01*
X289425Y400482D01*
X289556Y400481D01*
X289686Y400476D01*
X289816Y400467D01*
X289945Y400454D01*
X290075Y400437D01*
X290203Y400416D01*
X290331Y400391D01*
X290458Y400363D01*
X290584Y400330D01*
X290709Y400294D01*
X290833Y400253D01*
X290956Y400209D01*
X291077Y400162D01*
X291197Y400110D01*
X291315Y400055D01*
X291431Y399996D01*
X291545Y399934D01*
X291658Y399868D01*
X291768Y399799D01*
X291876Y399727D01*
X291982Y399651D01*
X292086Y399572D01*
X292187Y399490D01*
X292286Y399405D01*
X292382Y399317D01*
X292475Y399226D01*
X292565Y399132D01*
X292652Y399035D01*
X292737Y398936D01*
X292818Y398834D01*
X292896Y398730D01*
X292971Y398624D01*
X293043Y398515D01*
X293111Y398404D01*
X293176Y398291D01*
X293237Y398176D01*
X293295Y398059D01*
X293349Y397941D01*
X293400Y397821D01*
X293447Y397699D01*
X293490Y397576D01*
X293529Y397452D01*
X293565Y397327D01*
X293596Y397200D01*
X293624Y397073D01*
X293648Y396945D01*
X293668Y396816D01*
X293684Y396687D01*
X293696Y396557D01*
X293704Y396427D01*
X293708Y396297D01*
X293708Y396167D01*
X293704Y396037D01*
X293696Y395907D01*
X293684Y395777D01*
X293668Y395648D01*
X293648Y395519D01*
X293624Y395391D01*
X293596Y395264D01*
X293565Y395137D01*
X293529Y395012D01*
X293490Y394888D01*
X293447Y394765D01*
X293400Y394643D01*
X293349Y394523D01*
X293295Y394405D01*
X293237Y394288D01*
X293176Y394173D01*
X293111Y394060D01*
X293043Y393949D01*
X292971Y393840D01*
X292896Y393734D01*
X292818Y393630D01*
X292737Y393528D01*
X292652Y393429D01*
X292565Y393332D01*
X292475Y393238D01*
X292382Y393147D01*
X292286Y393059D01*
X292187Y392974D01*
X292086Y392892D01*
X291982Y392813D01*
X291876Y392737D01*
X291768Y392665D01*
X291658Y392596D01*
X291545Y392530D01*
X291431Y392468D01*
X291315Y392409D01*
X291197Y392354D01*
X291077Y392302D01*
X290956Y392255D01*
X290833Y392211D01*
X290709Y392170D01*
X290584Y392134D01*
X290458Y392101D01*
X290331Y392073D01*
X290203Y392048D01*
X290075Y392027D01*
X289945Y392010D01*
X289816Y391997D01*
X289686Y391988D01*
X289556Y391983D01*
X289425Y391982D01*
X289295Y391985D01*
X289165Y391992D01*
X289035Y392003D01*
X288906Y392018D01*
X288777Y392037D01*
X288649Y392060D01*
X288521Y392086D01*
X288395Y392117D01*
X288269Y392152D01*
X288145Y392190D01*
X288021Y392232D01*
X287900Y392278D01*
X287779Y392328D01*
X287660Y392381D01*
X287543Y392438D01*
X287428Y392498D01*
X287314Y392562D01*
X287203Y392630D01*
X287093Y392701D01*
X286986Y392775D01*
X286882Y392852D01*
X286779Y392933D01*
X286679Y393016D01*
X286582Y393103D01*
X286488Y393192D01*
X286396Y393285D01*
X286307Y393380D01*
X286221Y393478D01*
X286138Y393579D01*
X286058Y393682D01*
X285982Y393787D01*
X285909Y393895D01*
X285839Y394004D01*
X285772Y394116D01*
X285709Y394230D01*
X285649Y394346D01*
X285593Y394464D01*
X285541Y394583D01*
X285492Y394704D01*
X285447Y394826D01*
X285406Y394950D01*
X285369Y395074D01*
X285335Y395200D01*
X285305Y395327D01*
X285280Y395455D01*
X285258Y395583D01*
X285240Y395712D01*
X285226Y395842D01*
X285216Y395972D01*
X285210Y396102D01*
X285208Y396232D01*
D18*
X267208Y399482D03*
X260708Y399482D03*
X280208Y399482D03*
X273708Y399482D03*
X254208Y399482D03*
D19*
X212924Y183642D03*
X221924Y183642D03*
X77652Y381254D03*
X68652Y381254D03*
X212090Y164664D03*
X212090Y173664D03*
X160456Y183642D03*
X151456Y183642D03*
X79938Y337566D03*
X70938Y337566D03*
X182300Y193548D03*
X173300Y193548D03*
X218512Y20574D03*
X227512Y20574D03*
X237308Y20574D03*
X246308Y20574D03*
X219130Y78486D03*
X210130Y78486D03*
D20*
X128651Y339852D03*
D21*
X116078Y371729D03*
D22*
X288894Y318398D03*
X273894Y318398D03*
X258894Y318398D03*
X258894Y293398D03*
X273894Y293398D03*
X288894Y293398D03*
D23*
X301394Y271148D03*
X296394Y271148D03*
X291394Y271148D03*
X286394Y271148D03*
X281394Y271148D03*
X276394Y271148D03*
X271394Y271148D03*
X266394Y271148D03*
X261394Y271148D03*
X256394Y271148D03*
X251394Y271148D03*
X246394Y271148D03*
D24*
X239144Y278398D03*
X239144Y283398D03*
X239144Y288398D03*
X239144Y293398D03*
X239144Y298398D03*
X239144Y303398D03*
X239144Y308398D03*
X239144Y313398D03*
X239144Y318398D03*
X239144Y323398D03*
X239144Y328398D03*
X239144Y333398D03*
D23*
X246394Y340648D03*
X251394Y340648D03*
X256394Y340648D03*
X261394Y340648D03*
X266394Y340648D03*
X271394Y340648D03*
X276394Y340648D03*
X281394Y340648D03*
X286394Y340648D03*
X291394Y340648D03*
X296394Y340648D03*
X301394Y340648D03*
D24*
X308644Y333398D03*
X308644Y328398D03*
X308644Y323398D03*
X308644Y318398D03*
X308644Y313398D03*
X308644Y308398D03*
X308644Y303398D03*
X308644Y298398D03*
X308644Y293398D03*
X308644Y288398D03*
X308644Y283398D03*
X308644Y278398D03*
D25*
X177252Y292578D02*
X177252Y297278D01*
X177252Y292578D02*
X174552Y292578D01*
X174552Y297278D01*
X177252Y297278D01*
X177252Y292863D02*
X174552Y292863D01*
X174552Y293148D02*
X177252Y293148D01*
X177252Y293433D02*
X174552Y293433D01*
X174552Y293718D02*
X177252Y293718D01*
X177252Y294003D02*
X174552Y294003D01*
X174552Y294288D02*
X177252Y294288D01*
X177252Y294573D02*
X174552Y294573D01*
X174552Y294858D02*
X177252Y294858D01*
X177252Y295143D02*
X174552Y295143D01*
X174552Y295428D02*
X177252Y295428D01*
X177252Y295713D02*
X174552Y295713D01*
X174552Y295998D02*
X177252Y295998D01*
X177252Y296283D02*
X174552Y296283D01*
X174552Y296568D02*
X177252Y296568D01*
X177252Y296853D02*
X174552Y296853D01*
X174552Y297138D02*
X177252Y297138D01*
X172252Y297278D02*
X172252Y292578D01*
X169552Y292578D01*
X169552Y297278D01*
X172252Y297278D01*
X172252Y292863D02*
X169552Y292863D01*
X169552Y293148D02*
X172252Y293148D01*
X172252Y293433D02*
X169552Y293433D01*
X169552Y293718D02*
X172252Y293718D01*
X172252Y294003D02*
X169552Y294003D01*
X169552Y294288D02*
X172252Y294288D01*
X172252Y294573D02*
X169552Y294573D01*
X169552Y294858D02*
X172252Y294858D01*
X172252Y295143D02*
X169552Y295143D01*
X169552Y295428D02*
X172252Y295428D01*
X172252Y295713D02*
X169552Y295713D01*
X169552Y295998D02*
X172252Y295998D01*
X172252Y296283D02*
X169552Y296283D01*
X169552Y296568D02*
X172252Y296568D01*
X172252Y296853D02*
X169552Y296853D01*
X169552Y297138D02*
X172252Y297138D01*
X167252Y297278D02*
X167252Y292578D01*
X164552Y292578D01*
X164552Y297278D01*
X167252Y297278D01*
X167252Y292863D02*
X164552Y292863D01*
X164552Y293148D02*
X167252Y293148D01*
X167252Y293433D02*
X164552Y293433D01*
X164552Y293718D02*
X167252Y293718D01*
X167252Y294003D02*
X164552Y294003D01*
X164552Y294288D02*
X167252Y294288D01*
X167252Y294573D02*
X164552Y294573D01*
X164552Y294858D02*
X167252Y294858D01*
X167252Y295143D02*
X164552Y295143D01*
X164552Y295428D02*
X167252Y295428D01*
X167252Y295713D02*
X164552Y295713D01*
X164552Y295998D02*
X167252Y295998D01*
X167252Y296283D02*
X164552Y296283D01*
X164552Y296568D02*
X167252Y296568D01*
X167252Y296853D02*
X164552Y296853D01*
X164552Y297138D02*
X167252Y297138D01*
X162252Y297278D02*
X162252Y292578D01*
X159552Y292578D01*
X159552Y297278D01*
X162252Y297278D01*
X162252Y292863D02*
X159552Y292863D01*
X159552Y293148D02*
X162252Y293148D01*
X162252Y293433D02*
X159552Y293433D01*
X159552Y293718D02*
X162252Y293718D01*
X162252Y294003D02*
X159552Y294003D01*
X159552Y294288D02*
X162252Y294288D01*
X162252Y294573D02*
X159552Y294573D01*
X159552Y294858D02*
X162252Y294858D01*
X162252Y295143D02*
X159552Y295143D01*
X159552Y295428D02*
X162252Y295428D01*
X162252Y295713D02*
X159552Y295713D01*
X159552Y295998D02*
X162252Y295998D01*
X162252Y296283D02*
X159552Y296283D01*
X159552Y296568D02*
X162252Y296568D01*
X162252Y296853D02*
X159552Y296853D01*
X159552Y297138D02*
X162252Y297138D01*
X161602Y300228D02*
X156902Y300228D01*
X156902Y302928D01*
X161602Y302928D01*
X161602Y300228D01*
X161602Y300513D02*
X156902Y300513D01*
X156902Y300798D02*
X161602Y300798D01*
X161602Y301083D02*
X156902Y301083D01*
X156902Y301368D02*
X161602Y301368D01*
X161602Y301653D02*
X156902Y301653D01*
X156902Y301938D02*
X161602Y301938D01*
X161602Y302223D02*
X156902Y302223D01*
X156902Y302508D02*
X161602Y302508D01*
X161602Y302793D02*
X156902Y302793D01*
X156902Y305228D02*
X161602Y305228D01*
X156902Y305228D02*
X156902Y307928D01*
X161602Y307928D01*
X161602Y305228D01*
X161602Y305513D02*
X156902Y305513D01*
X156902Y305798D02*
X161602Y305798D01*
X161602Y306083D02*
X156902Y306083D01*
X156902Y306368D02*
X161602Y306368D01*
X161602Y306653D02*
X156902Y306653D01*
X156902Y306938D02*
X161602Y306938D01*
X161602Y307223D02*
X156902Y307223D01*
X156902Y307508D02*
X161602Y307508D01*
X161602Y307793D02*
X156902Y307793D01*
X156902Y310228D02*
X161602Y310228D01*
X156902Y310228D02*
X156902Y312928D01*
X161602Y312928D01*
X161602Y310228D01*
X161602Y310513D02*
X156902Y310513D01*
X156902Y310798D02*
X161602Y310798D01*
X161602Y311083D02*
X156902Y311083D01*
X156902Y311368D02*
X161602Y311368D01*
X161602Y311653D02*
X156902Y311653D01*
X156902Y311938D02*
X161602Y311938D01*
X161602Y312223D02*
X156902Y312223D01*
X156902Y312508D02*
X161602Y312508D01*
X161602Y312793D02*
X156902Y312793D01*
X159552Y315878D02*
X159552Y320578D01*
X162252Y320578D01*
X162252Y315878D01*
X159552Y315878D01*
X159552Y316163D02*
X162252Y316163D01*
X162252Y316448D02*
X159552Y316448D01*
X159552Y316733D02*
X162252Y316733D01*
X162252Y317018D02*
X159552Y317018D01*
X159552Y317303D02*
X162252Y317303D01*
X162252Y317588D02*
X159552Y317588D01*
X159552Y317873D02*
X162252Y317873D01*
X162252Y318158D02*
X159552Y318158D01*
X159552Y318443D02*
X162252Y318443D01*
X162252Y318728D02*
X159552Y318728D01*
X159552Y319013D02*
X162252Y319013D01*
X162252Y319298D02*
X159552Y319298D01*
X159552Y319583D02*
X162252Y319583D01*
X162252Y319868D02*
X159552Y319868D01*
X159552Y320153D02*
X162252Y320153D01*
X162252Y320438D02*
X159552Y320438D01*
X164552Y320578D02*
X164552Y315878D01*
X164552Y320578D02*
X167252Y320578D01*
X167252Y315878D01*
X164552Y315878D01*
X164552Y316163D02*
X167252Y316163D01*
X167252Y316448D02*
X164552Y316448D01*
X164552Y316733D02*
X167252Y316733D01*
X167252Y317018D02*
X164552Y317018D01*
X164552Y317303D02*
X167252Y317303D01*
X167252Y317588D02*
X164552Y317588D01*
X164552Y317873D02*
X167252Y317873D01*
X167252Y318158D02*
X164552Y318158D01*
X164552Y318443D02*
X167252Y318443D01*
X167252Y318728D02*
X164552Y318728D01*
X164552Y319013D02*
X167252Y319013D01*
X167252Y319298D02*
X164552Y319298D01*
X164552Y319583D02*
X167252Y319583D01*
X167252Y319868D02*
X164552Y319868D01*
X164552Y320153D02*
X167252Y320153D01*
X167252Y320438D02*
X164552Y320438D01*
X169552Y320578D02*
X169552Y315878D01*
X169552Y320578D02*
X172252Y320578D01*
X172252Y315878D01*
X169552Y315878D01*
X169552Y316163D02*
X172252Y316163D01*
X172252Y316448D02*
X169552Y316448D01*
X169552Y316733D02*
X172252Y316733D01*
X172252Y317018D02*
X169552Y317018D01*
X169552Y317303D02*
X172252Y317303D01*
X172252Y317588D02*
X169552Y317588D01*
X169552Y317873D02*
X172252Y317873D01*
X172252Y318158D02*
X169552Y318158D01*
X169552Y318443D02*
X172252Y318443D01*
X172252Y318728D02*
X169552Y318728D01*
X169552Y319013D02*
X172252Y319013D01*
X172252Y319298D02*
X169552Y319298D01*
X169552Y319583D02*
X172252Y319583D01*
X172252Y319868D02*
X169552Y319868D01*
X169552Y320153D02*
X172252Y320153D01*
X172252Y320438D02*
X169552Y320438D01*
X174552Y320578D02*
X174552Y315878D01*
X174552Y320578D02*
X177252Y320578D01*
X177252Y315878D01*
X174552Y315878D01*
X174552Y316163D02*
X177252Y316163D01*
X177252Y316448D02*
X174552Y316448D01*
X174552Y316733D02*
X177252Y316733D01*
X177252Y317018D02*
X174552Y317018D01*
X174552Y317303D02*
X177252Y317303D01*
X177252Y317588D02*
X174552Y317588D01*
X174552Y317873D02*
X177252Y317873D01*
X177252Y318158D02*
X174552Y318158D01*
X174552Y318443D02*
X177252Y318443D01*
X177252Y318728D02*
X174552Y318728D01*
X174552Y319013D02*
X177252Y319013D01*
X177252Y319298D02*
X174552Y319298D01*
X174552Y319583D02*
X177252Y319583D01*
X177252Y319868D02*
X174552Y319868D01*
X174552Y320153D02*
X177252Y320153D01*
X177252Y320438D02*
X174552Y320438D01*
X175202Y312928D02*
X179902Y312928D01*
X179902Y310228D01*
X175202Y310228D01*
X175202Y312928D01*
X175202Y310513D02*
X179902Y310513D01*
X179902Y310798D02*
X175202Y310798D01*
X175202Y311083D02*
X179902Y311083D01*
X179902Y311368D02*
X175202Y311368D01*
X175202Y311653D02*
X179902Y311653D01*
X179902Y311938D02*
X175202Y311938D01*
X175202Y312223D02*
X179902Y312223D01*
X179902Y312508D02*
X175202Y312508D01*
X175202Y312793D02*
X179902Y312793D01*
X179902Y307928D02*
X175202Y307928D01*
X179902Y307928D02*
X179902Y305228D01*
X175202Y305228D01*
X175202Y307928D01*
X175202Y305513D02*
X179902Y305513D01*
X179902Y305798D02*
X175202Y305798D01*
X175202Y306083D02*
X179902Y306083D01*
X179902Y306368D02*
X175202Y306368D01*
X175202Y306653D02*
X179902Y306653D01*
X179902Y306938D02*
X175202Y306938D01*
X175202Y307223D02*
X179902Y307223D01*
X179902Y307508D02*
X175202Y307508D01*
X175202Y307793D02*
X179902Y307793D01*
X179902Y302928D02*
X175202Y302928D01*
X179902Y302928D02*
X179902Y300228D01*
X175202Y300228D01*
X175202Y302928D01*
X175202Y300513D02*
X179902Y300513D01*
X179902Y300798D02*
X175202Y300798D01*
X175202Y301083D02*
X179902Y301083D01*
X179902Y301368D02*
X175202Y301368D01*
X175202Y301653D02*
X179902Y301653D01*
X179902Y301938D02*
X175202Y301938D01*
X175202Y302223D02*
X179902Y302223D01*
X179902Y302508D02*
X175202Y302508D01*
X175202Y302793D02*
X179902Y302793D01*
D26*
X173912Y162966D03*
X173912Y172466D03*
X173912Y181966D03*
X194896Y181966D03*
X194896Y172466D03*
X194896Y162966D03*
D27*
X166022Y222296D03*
X166022Y234796D03*
X166022Y247296D03*
X166022Y259796D03*
X186022Y259796D03*
X186022Y247296D03*
X186022Y234796D03*
X186022Y222296D03*
D28*
X97028Y340552D03*
X97028Y364552D03*
D29*
X319676Y255098D03*
X295676Y255098D03*
D30*
X321882Y53698D03*
X321882Y60198D03*
X321882Y66698D03*
X342075Y66698D03*
X342075Y60198D03*
X342075Y53698D03*
D31*
X181102Y35186D03*
X181102Y20186D03*
D12*
X169418Y38282D03*
X169418Y29282D03*
X197866Y89480D03*
X197866Y98480D03*
D13*
X211074Y90806D03*
X211074Y106806D03*
D12*
X119308Y90424D03*
X110308Y90424D03*
D32*
X120776Y76454D03*
X104776Y76454D03*
D12*
X176602Y107188D03*
X185602Y107188D03*
D32*
X178690Y119126D03*
X194690Y119126D03*
D19*
X166116Y108530D03*
X166116Y117530D03*
D33*
X126232Y15494D03*
X157232Y15494D03*
D34*
X138557Y134366D03*
X148082Y134366D03*
X157607Y134366D03*
X157607Y110998D03*
X138557Y110998D03*
D35*
X196215Y142644D03*
X196215Y129644D03*
X178181Y129644D03*
X178181Y142644D03*
D12*
X157154Y145796D03*
X148154Y145796D03*
X209550Y132152D03*
X209550Y141152D03*
D13*
X140462Y216028D03*
X140462Y232028D03*
D36*
X0Y0D02*
X482600Y0D01*
X484814Y97D01*
X487011Y386D01*
X489174Y865D01*
X491287Y1532D01*
X493335Y2380D01*
X495300Y3403D01*
X497169Y4594D01*
X498927Y5942D01*
X500561Y7440D01*
X502058Y9073D01*
X503406Y10831D01*
X504597Y12700D01*
X505620Y14666D01*
X506468Y16713D01*
X507135Y18826D01*
X507614Y20989D01*
X507903Y23186D01*
X508000Y25400D01*
X508000Y203200D01*
X507903Y205414D01*
X507614Y207611D01*
X507135Y209774D01*
X506468Y211887D01*
X505620Y213935D01*
X504597Y215900D01*
X503406Y217769D01*
X502058Y219527D01*
X500561Y221161D01*
X498927Y222658D01*
X497169Y224006D01*
X495300Y225197D01*
X493335Y226220D01*
X491287Y227068D01*
X489174Y227735D01*
X487011Y228214D01*
X484814Y228503D01*
X482600Y228600D01*
X419100Y228600D01*
X416886Y228697D01*
X414689Y228986D01*
X412526Y229465D01*
X410413Y230132D01*
X408366Y230980D01*
X406400Y232003D01*
X404531Y233194D01*
X402773Y234542D01*
X401140Y236040D01*
X399642Y237673D01*
X398294Y239431D01*
X397103Y241300D01*
X396080Y243266D01*
X395232Y245313D01*
X394565Y247426D01*
X394086Y249589D01*
X393797Y251786D01*
X393700Y254000D01*
X393700Y419100D01*
X393603Y421314D01*
X393314Y423511D01*
X392835Y425674D01*
X392168Y427787D01*
X391320Y429835D01*
X390297Y431800D01*
X389106Y433669D01*
X387758Y435427D01*
X386261Y437061D01*
X384627Y438558D01*
X382869Y439906D01*
X381000Y441097D01*
X379035Y442120D01*
X376987Y442968D01*
X374874Y443635D01*
X372711Y444114D01*
X370514Y444403D01*
X368300Y444500D01*
X25400Y444500D01*
X22922Y444115D01*
X20486Y443515D01*
X18112Y442705D01*
X15818Y441691D01*
X13621Y440481D01*
X11538Y439084D01*
X9584Y437511D01*
X7775Y435774D01*
X6124Y433886D01*
X4644Y431860D01*
X3347Y429714D01*
X2241Y427463D01*
X1335Y425124D01*
X637Y422715D01*
X152Y420254D01*
X-117Y417760D01*
X-168Y415253D01*
X0Y412750D01*
X0Y330200D01*
X97Y327986D01*
X386Y325789D01*
X865Y323626D01*
X1532Y321513D01*
X2380Y319466D01*
X3403Y317500D01*
X4594Y315631D01*
X5942Y313873D01*
X7440Y312240D01*
X9073Y310742D01*
X10831Y309394D01*
X12700Y308203D01*
X14666Y307180D01*
X16713Y306332D01*
X18826Y305665D01*
X20989Y305186D01*
X23186Y304897D01*
X25400Y304800D01*
X101600Y304800D01*
X103814Y304703D01*
X106011Y304414D01*
X108174Y303935D01*
X110287Y303268D01*
X112335Y302420D01*
X114300Y301397D01*
X116169Y300206D01*
X117927Y298858D01*
X119561Y297361D01*
X121058Y295727D01*
X122406Y293969D01*
X123597Y292100D01*
X124620Y290135D01*
X125468Y288087D01*
X126135Y285974D01*
X126614Y283811D01*
X126903Y281614D01*
X127000Y279400D01*
X127000Y132588D01*
X126903Y130374D01*
X126614Y128177D01*
X126135Y126014D01*
X125468Y123901D01*
X124620Y121854D01*
X123597Y119888D01*
X122406Y118019D01*
X121058Y116261D01*
X119561Y114628D01*
X117927Y113130D01*
X116169Y111782D01*
X114300Y110591D01*
X112335Y109568D01*
X110287Y108720D01*
X108174Y108053D01*
X106011Y107574D01*
X103814Y107285D01*
X101600Y107188D01*
X25400Y107188D01*
X23186Y107091D01*
X20989Y106802D01*
X18826Y106323D01*
X16713Y105656D01*
X14666Y104808D01*
X12700Y103785D01*
X10831Y102594D01*
X9073Y101246D01*
X7440Y99749D01*
X5942Y98115D01*
X4594Y96357D01*
X3403Y94488D01*
X2380Y92523D01*
X1532Y90475D01*
X865Y88362D01*
X386Y86199D01*
X97Y84002D01*
X0Y81788D01*
X0Y0D01*
M02*
